<svg xmlns="http://www.w3.org/2000/svg" width="322pt" height="245pt" viewBox="0 0 322 245"><defs><clipPath id="a"><path d="M160 1.66h2v242.25h-2zm0 0"/></clipPath><clipPath id="b"><path d="M1 122h320v2H1zm0 0"/></clipPath><clipPath id="c"><path d="M1 1.66h1v242.25H1zm0 0"/></clipPath><clipPath id="d"><path d="M80 1.66h2v242.25h-2zm0 0"/></clipPath><clipPath id="e"><path d="M160 1.66h2v242.25h-2zm0 0"/></clipPath><clipPath id="f"><path d="M240 1.66h2v242.25h-2zm0 0"/></clipPath><clipPath id="g"><path d="M320 1.66h1v242.25h-1zm0 0"/></clipPath><clipPath id="h"><path d="M1 243h320v.91H1zm0 0"/></clipPath><clipPath id="i"><path d="M1 183h320v1H1zm0 0"/></clipPath><clipPath id="j"><path d="M1 122h320v2H1zm0 0"/></clipPath><clipPath id="k"><path d="M1 61h320v2H1zm0 0"/></clipPath><clipPath id="l"><path d="M1 1.66h320V2H1zm0 0"/></clipPath></defs><path style="stroke:none;fill-rule:nonzero;fill:#fff;fill-opacity:1" d="M1 243.91h320V1.66H1zm0 0"/><g clip-path="url(#a)"><path style="fill:none;stroke-width:5.70714;stroke-linecap:round;stroke-linejoin:miter;stroke:#bfbfbf;stroke-opacity:1;stroke-miterlimit:10" d="M1997.503-211.163V-2636.7" transform="matrix(.10013 0 0 .09987 -39 265)"/></g><g clip-path="url(#b)"><path style="fill:none;stroke-width:5.70714;stroke-linecap:round;stroke-linejoin:miter;stroke:#bfbfbf;stroke-opacity:1;stroke-miterlimit:10" d="M399.5-1423.931h3196.006" transform="matrix(.10013 0 0 .09987 -39 265)"/></g><g clip-path="url(#c)"><path style="fill:none;stroke-width:5.70714;stroke-linecap:round;stroke-linejoin:miter;stroke:#bfbfbf;stroke-opacity:1;stroke-dasharray:11.4143,17.1214;stroke-miterlimit:10" d="M399.5-211.163V-2636.7" transform="matrix(.10013 0 0 .09987 -39 265)"/></g><g clip-path="url(#d)"><path style="fill:none;stroke-width:5.70714;stroke-linecap:round;stroke-linejoin:miter;stroke:#bfbfbf;stroke-opacity:1;stroke-dasharray:11.4143,17.1214;stroke-miterlimit:10" d="M1198.502-211.163V-2636.7" transform="matrix(.10013 0 0 .09987 -39 265)"/></g><g clip-path="url(#e)"><path style="fill:none;stroke-width:5.70714;stroke-linecap:round;stroke-linejoin:miter;stroke:#bfbfbf;stroke-opacity:1;stroke-dasharray:11.4143,17.1214;stroke-miterlimit:10" d="M1997.503-211.163V-2636.7" transform="matrix(.10013 0 0 .09987 -39 265)"/></g><g clip-path="url(#f)"><path style="fill:none;stroke-width:5.70714;stroke-linecap:round;stroke-linejoin:miter;stroke:#bfbfbf;stroke-opacity:1;stroke-dasharray:11.4143,17.1214;stroke-miterlimit:10" d="M2796.504-211.163V-2636.7" transform="matrix(.10013 0 0 .09987 -39 265)"/></g><g clip-path="url(#g)"><path style="fill:none;stroke-width:5.70714;stroke-linecap:round;stroke-linejoin:miter;stroke:#bfbfbf;stroke-opacity:1;stroke-dasharray:11.4143,17.1214;stroke-miterlimit:10" d="M3595.506-211.163V-2636.7" transform="matrix(.10013 0 0 .09987 -39 265)"/></g><g clip-path="url(#h)"><path style="fill:none;stroke-width:5.70714;stroke-linecap:round;stroke-linejoin:miter;stroke:#bfbfbf;stroke-opacity:1;stroke-dasharray:11.4143,17.1214;stroke-miterlimit:10" d="M399.5-211.163h3196.006" transform="matrix(.10013 0 0 .09987 -39 265)"/></g><g clip-path="url(#i)"><path style="fill:none;stroke-width:5.70714;stroke-linecap:round;stroke-linejoin:miter;stroke:#bfbfbf;stroke-opacity:1;stroke-dasharray:11.4143,17.1214;stroke-miterlimit:10" d="M399.5-817.547h3196.006" transform="matrix(.10013 0 0 .09987 -39 265)"/></g><g clip-path="url(#j)"><path style="fill:none;stroke-width:5.70714;stroke-linecap:round;stroke-linejoin:miter;stroke:#bfbfbf;stroke-opacity:1;stroke-dasharray:11.4143,17.1214;stroke-miterlimit:10" d="M399.5-1423.931h3196.006" transform="matrix(.10013 0 0 .09987 -39 265)"/></g><g clip-path="url(#k)"><path style="fill:none;stroke-width:5.70714;stroke-linecap:round;stroke-linejoin:miter;stroke:#bfbfbf;stroke-opacity:1;stroke-dasharray:11.4143,17.1214;stroke-miterlimit:10" d="M399.5-2030.315h3196.006" transform="matrix(.10013 0 0 .09987 -39 265)"/></g><g clip-path="url(#l)"><path style="fill:none;stroke-width:5.70714;stroke-linecap:round;stroke-linejoin:miter;stroke:#bfbfbf;stroke-opacity:1;stroke-dasharray:11.4143,17.1214;stroke-miterlimit:10" d="M399.5-2636.7h3196.006" transform="matrix(.10013 0 0 .09987 -39 265)"/></g><path style="fill:none;stroke-width:11.4143;stroke-linecap:square;stroke-linejoin:miter;stroke:#000;stroke-opacity:1;stroke-miterlimit:10" d="M399.5-211.163h3196.006" transform="matrix(.10013 0 0 .09987 -39 265)"/><path style="fill:none;stroke-width:5.70714;stroke-linecap:butt;stroke-linejoin:miter;stroke:#000;stroke-opacity:1;stroke-miterlimit:10" d="M399.5-211.163v-45.643m0 45.643v-22.84m79.9 22.84v-22.84m79.9 22.84v-22.84m79.901 22.84v-22.84m79.9 22.84v-22.84m79.9 22.84v-22.84m79.9 22.84v-22.84m79.9 22.84v-22.84m79.901 22.84v-22.84m159.8 22.84v-45.643m0 45.643v-22.84m79.9 22.84v-22.84m79.9 22.84v-22.84m79.9 22.84v-22.84m79.9 22.84v-22.84m79.9 22.84v-22.84m79.901 22.84v-22.84m79.9 22.84v-22.84m79.9 22.84v-22.84m159.8 22.84v-45.643m0 45.643v-22.84m79.9 22.84v-22.84m79.9 22.84v-22.84m79.9 22.84v-22.84m79.901 22.84v-22.84m79.9 22.84v-22.84m79.9 22.84v-22.84m79.9 22.84v-22.84m79.9 22.84v-22.84m159.8 22.84v-45.643m0 45.643v-22.84m79.9 22.84v-22.84m79.901 22.84v-22.84m79.9 22.84v-22.84m79.9 22.84v-22.84m79.9 22.84v-22.84m79.9 22.84v-22.84m79.9 22.84v-22.84m79.9 22.84v-22.84m159.801 22.84v-45.643m0 45.643v-22.84" transform="matrix(.10013 0 0 .09987 -39 265)"/><path style="fill:none;stroke-width:11.4143;stroke-linecap:square;stroke-linejoin:miter;stroke:#000;stroke-opacity:1;stroke-miterlimit:10" d="M399.5-2636.7h3196.006" transform="matrix(.10013 0 0 .09987 -39 265)"/><path style="fill:none;stroke-width:5.70714;stroke-linecap:butt;stroke-linejoin:miter;stroke:#000;stroke-opacity:1;stroke-miterlimit:10" d="M399.5-2636.7v45.643m0-45.643v22.842m79.9-22.842v22.842m79.9-22.842v22.842m79.901-22.842v22.842m79.9-22.842v22.842m79.9-22.842v22.842m79.9-22.842v22.842m79.9-22.842v22.842m79.901-22.842v22.842m159.8-22.842v45.643m0-45.643v22.842m79.9-22.842v22.842m79.9-22.842v22.842m79.9-22.842v22.842m79.9-22.842v22.842m79.9-22.842v22.842m79.901-22.842v22.842m79.9-22.842v22.842m79.9-22.842v22.842m159.8-22.842v45.643m0-45.643v22.842m79.9-22.842v22.842m79.9-22.842v22.842m79.9-22.842v22.842m79.901-22.842v22.842m79.9-22.842v22.842m79.9-22.842v22.842m79.9-22.842v22.842m79.9-22.842v22.842m159.8-22.842v45.643m0-45.643v22.842m79.9-22.842v22.842m79.901-22.842v22.842m79.9-22.842v22.842m79.9-22.842v22.842m79.9-22.842v22.842m79.9-22.842v22.842m79.9-22.842v22.842m79.9-22.842v22.842m159.801-22.842v45.643m0-45.643v22.842" transform="matrix(.10013 0 0 .09987 -39 265)"/><path style="fill:none;stroke-width:11.4143;stroke-linecap:square;stroke-linejoin:miter;stroke:#000;stroke-opacity:1;stroke-miterlimit:10" d="M399.5-211.163V-2636.7" transform="matrix(.10013 0 0 .09987 -39 265)"/><path style="fill:none;stroke-width:5.70714;stroke-linecap:butt;stroke-linejoin:miter;stroke:#000;stroke-opacity:1;stroke-miterlimit:10" d="M399.5-211.163h45.647m-45.647 0h22.824M399.5-271.786h22.824M399.5-332.447h22.824M399.5-393.07h22.824M399.5-453.732h22.824M399.5-514.355h22.824M399.5-574.978h22.824M399.5-635.64h22.824M399.5-696.262h22.824M399.5-817.547h45.647m-45.647 0h22.824M399.5-878.17h22.824M399.5-938.832h22.824M399.5-999.454h22.824m-22.824-60.662h22.824M399.5-1120.74h22.824m-22.824-60.622h22.824m-22.824-60.662h22.824m-22.824-60.623h22.824M399.5-1423.931h45.647m-45.647 0h22.824m-22.824-60.623h22.824m-22.824-60.662h22.824m-22.824-60.623h22.824m-22.824-60.622h22.824m-22.824-60.662h22.824m-22.824-60.623h22.824m-22.824-60.662h22.824M399.5-1909.03h22.824M399.5-2030.315h45.647m-45.647 0h22.824m-22.824-60.623h22.824M399.5-2151.6h22.824m-22.824-60.623h22.824m-22.824-60.662h22.824m-22.824-60.622h22.824M399.5-2394.17h22.824m-22.824-60.622h22.824m-22.824-60.623h22.824M399.5-2636.7h45.647m-45.647 0h22.824" transform="matrix(.10013 0 0 .09987 -39 265)"/><path style="fill:none;stroke-width:11.4143;stroke-linecap:square;stroke-linejoin:miter;stroke:#000;stroke-opacity:1;stroke-miterlimit:10" d="M3595.506-211.163V-2636.7" transform="matrix(.10013 0 0 .09987 -39 265)"/><path style="fill:none;stroke-width:5.70714;stroke-linecap:butt;stroke-linejoin:miter;stroke:#000;stroke-opacity:1;stroke-miterlimit:10" d="M3595.506-211.163h-45.685m45.685 0h-22.823m22.823-60.623h-22.823m22.823-60.661h-22.823m22.823-60.623h-22.823m22.823-60.662h-22.823m22.823-60.623h-22.823m22.823-60.623h-22.823m22.823-60.662h-22.823m22.823-60.622h-22.823m22.823-121.285h-45.685m45.685 0h-22.823m22.823-60.623h-22.823m22.823-60.662h-22.823m22.823-60.622h-22.823m22.823-60.662h-22.823m22.823-60.624h-22.823m22.823-60.622h-22.823m22.823-60.662h-22.823m22.823-60.623h-22.823m22.823-121.284h-45.685m45.685 0h-22.823m22.823-60.623h-22.823m22.823-60.662h-22.823m22.823-60.623h-22.823m22.823-60.622h-22.823m22.823-60.662h-22.823m22.823-60.623h-22.823m22.823-60.662h-22.823m22.823-60.622h-22.823m22.823-121.285h-45.685m45.685 0h-22.823m22.823-60.623h-22.823m22.823-60.662h-22.823m22.823-60.623h-22.823m22.823-60.662h-22.823m22.823-60.622h-22.823m22.823-60.663h-22.823m22.823-60.622h-22.823m22.823-60.623h-22.823m22.823-121.285h-45.685m45.685 0h-22.823" transform="matrix(.10013 0 0 .09987 -39 265)"/><path style="fill:none;stroke-width:11.4143;stroke-linecap:round;stroke-linejoin:miter;stroke:#00f;stroke-opacity:1;stroke-miterlimit:10" d="M674.508-332.447H444.093m34.254-17.131-34.254 17.13 34.254 17.131m170.568-259.661H469.686m34.254-17.131-34.254 17.131 34.254 17.092m119.382-259.661H495.28m34.253-17.131-34.254 17.131 34.254 17.13m68.157-259.699h-76.779m34.215-17.092-34.215 17.092 34.215 17.13m16.971-259.661h-25.593m34.254-17.13-34.254 17.13 34.254 17.092m-34.254-259.661h25.593m-34.254 17.131 34.254-17.13-34.254-17.132m-16.932-225.399h76.78m-34.216 17.092 34.215-17.092-34.215-17.13m-68.195-225.439h128.042m-34.254 17.13 34.254-17.13-34.254-17.131m-119.382-225.439h179.23m-34.255 17.131 34.254-17.13-34.254-17.092m-170.568-225.439h230.415m-34.254 17.131 34.254-17.13-34.254-17.132M994.109-332.447H763.694m34.215-17.131-34.215 17.13 34.215 17.131m170.607-259.661h-179.23m34.254-17.131-34.253 17.131 34.254 17.092m119.382-259.661H814.88m34.254-17.131-34.254 17.131 34.254 17.13m68.156-259.699h-76.778m34.215-17.092-34.215 17.092 34.215 17.13m16.971-259.661h-25.593m34.254-17.13-34.254 17.13 34.254 17.092m-34.254-259.661h25.593m-34.254 17.131 34.254-17.13-34.254-17.132m-16.932-225.399h76.779m-34.215 17.092 34.215-17.092-34.215-17.13m-68.196-225.439h128.043m-34.254 17.13 34.254-17.13-34.254-17.131m-119.382-225.439h179.229m-34.254 17.131 34.254-17.13-34.254-17.092m-170.568-225.439h230.415m-34.254 17.131 34.254-17.13-34.254-17.132M1313.71-332.447h-230.416m34.254-17.131-34.254 17.13 34.254 17.131m170.568-259.661h-179.229m34.254-17.131-34.254 17.131 34.254 17.092m119.382-259.661H1134.48m34.254-17.131-34.254 17.131 34.254 17.13m68.157-259.699h-76.779m34.215-17.092-34.215 17.092 34.215 17.13m16.971-259.661h-25.593m34.255-17.13-34.255 17.13 34.254 17.092m-34.254-259.661h25.593m-34.254 17.131 34.254-17.13-34.254-17.132m-16.932-225.399h76.78m-34.216 17.092 34.215-17.092-34.215-17.13m-68.196-225.439h128.043m-34.253 17.13 34.253-17.13-34.254-17.131m-119.382-225.439h179.23m-34.255 17.131 34.254-17.13-34.254-17.092m-170.568-225.439h230.415m-34.254 17.131 34.254-17.13-34.254-17.132M1633.31-332.447h-230.415m34.254-17.131-34.254 17.13 34.254 17.131m170.568-259.661h-179.23m34.255-17.131-34.254 17.131 34.254 17.092m119.382-259.661H1454.08m34.255-17.131-34.254 17.131 34.254 17.13m68.157-259.699h-76.78m34.216-17.092-34.215 17.092 34.215 17.13m16.971-259.661h-25.593m34.214-17.13-34.214 17.13 34.215 17.092m-34.215-259.661h25.593m-34.254 17.131 34.254-17.13-34.254-17.132m-16.932-225.399h76.779m-34.215 17.092 34.215-17.092-34.215-17.13m-68.197-225.439h128.044m-34.254 17.13 34.254-17.13-34.254-17.131m-119.382-225.439h179.229m-34.254 17.131 34.254-17.13-34.254-17.092m-170.568-225.439h230.415m-34.254 17.131 34.254-17.13-34.254-17.132M1952.91-332.447h-230.415m34.255-17.131-34.255 17.13 34.254 17.131m170.568-259.661h-179.229m34.254-17.131-34.254 17.131 34.254 17.092m119.382-259.661h-128.043m34.254-17.131-34.254 17.131 34.254 17.13m68.157-259.699h-76.779m34.215-17.092-34.215 17.092 34.215 17.13m16.972-259.661h-25.594m34.215-17.13-34.215 17.13 34.215 17.092m-34.215-259.661h25.593m-34.254 17.131 34.254-17.13-34.254-17.132m-16.932-225.399h76.78m-34.216 17.092 34.215-17.092-34.215-17.13m-68.196-225.439h128.043m-34.254 17.13 34.254-17.13-34.254-17.131m-119.382-225.439h179.23m-34.255 17.131 34.254-17.13-34.254-17.092m-170.568-225.439h230.415m-34.254 17.131 34.254-17.13-34.254-17.132M2272.51-332.447h-230.414m34.214-17.131-34.214 17.13 34.215 17.131m170.607-259.661h-179.23m34.255-17.131-34.254 17.131 34.254 17.092m119.382-259.661h-128.043m34.254-17.131-34.254 17.131 34.254 17.13m68.157-259.699h-76.78m34.216-17.092-34.215 17.092 34.215 17.13m16.971-259.661h-25.593m34.215-17.13-34.215 17.13 34.215 17.092m-34.215-259.661h25.593m-34.254 17.131 34.254-17.13-34.254-17.132m-16.932-225.399h76.779m-34.215 17.092 34.215-17.092-34.215-17.13m-68.196-225.439h128.043m-34.255 17.13 34.255-17.13-34.254-17.131m-119.382-225.439h179.229m-34.254 17.131 34.254-17.13-34.254-17.092m-170.568-225.439h230.415m-34.254 17.131 34.254-17.13-34.254-17.132m353.854 2200.099h-230.415m34.215-17.131-34.215 17.13 34.215 17.131m170.607-259.661H2387.29m34.253-17.131-34.254 17.131 34.254 17.092m119.343-259.661h-128.004m34.254-17.131-34.254 17.131 34.254 17.13m68.157-259.699h-76.779m34.216-17.092-34.216 17.092 34.215 17.13m16.971-259.661h-25.593m34.215-17.13-34.215 17.13 34.215 17.092m-34.215-259.661h25.593m-34.254 17.131 34.254-17.13-34.254-17.132m-16.932-225.399h76.78m-34.216 17.092 34.215-17.092-34.215-17.13m-68.196-225.439h128.004m-34.215 17.13 34.215-17.13-34.215-17.131m-119.381-225.439h179.228m-34.254 17.131 34.254-17.13-34.254-17.092m-170.568-225.439h230.415m-34.215 17.131 34.215-17.13-34.215-17.132m353.816 2200.099h-230.415m34.215-17.131-34.215 17.13 34.215 17.131m170.607-259.661h-179.23m34.255-17.131-34.254 17.131 34.254 17.092m119.382-259.661h-128.043m34.254-17.131-34.254 17.131 34.254 17.13m68.157-259.699h-76.78m34.216-17.092-34.215 17.092 34.215 17.13m16.97-259.661h-25.592m34.215-17.13-34.215 17.13 34.215 17.092m-34.215-259.661h25.593m-34.254 17.131 34.254-17.13-34.254-17.132m-16.932-225.399h76.779m-34.215 17.092 34.215-17.092-34.215-17.13m-68.196-225.439h128.043m-34.254 17.13 34.254-17.13-34.254-17.131m-119.382-225.439h179.229m-34.254 17.131 34.254-17.13-34.254-17.092m-170.568-225.439h230.415m-34.215 17.131 34.215-17.13-34.215-17.132m353.815 2200.099h-230.415m34.215-17.131-34.215 17.13 34.215 17.131m170.608-259.661h-179.23m34.254-17.131-34.254 17.131 34.254 17.092m119.382-259.661h-128.043m34.254-17.131-34.254 17.131 34.254 17.13m68.157-259.699h-76.779m34.215-17.092-34.215 17.092 34.215 17.13m16.971-259.661h-25.593m34.215-17.13-34.215 17.13 34.215 17.092m-34.215-259.661h25.593m-34.254 17.131 34.254-17.13-34.254-17.132m-16.932-225.399h76.78m-34.215 17.092 34.214-17.092-34.215-17.13m-68.196-225.439h128.043m-34.254 17.13 34.254-17.13-34.254-17.131m-119.382-225.439h179.23m-34.255 17.131 34.254-17.13-34.254-17.092m-170.568-225.439h230.415m-34.215 17.131 34.215-17.13-34.215-17.132m353.816 2200.099h-230.415m34.215-17.131-34.215 17.13 34.215 17.131m170.607-259.661h-179.23m34.255-17.131-34.254 17.131 34.254 17.092m119.382-259.661h-128.043m34.254-17.131-34.254 17.131 34.254 17.13m68.157-259.699h-76.78m34.215-17.092-34.214 17.092 34.215 17.13m16.971-259.661h-25.593m34.215-17.13-34.215 17.13 34.215 17.092m-34.215-259.661h25.593m-34.254 17.131 34.254-17.13-34.254-17.132m-16.932-225.399h76.779m-34.255 17.092 34.255-17.092-34.254-17.13m-68.157-225.439h128.043m-34.254 17.13 34.254-17.13-34.254-17.131m-119.383-225.439h179.23m-34.254 17.131 34.254-17.13-34.254-17.092m-170.568-225.439h230.415m-34.215 17.131 34.215-17.13-34.215-17.132" transform="matrix(.10013 0 0 .09987 -39 265)"/></svg>