<svg xmlns="http://www.w3.org/2000/svg" xmlns:xlink="http://www.w3.org/1999/xlink" width="367pt" height="274pt" viewBox="0 0 367 274"><defs><clipPath id="a"><path d="M183 8.5h2v255h-2zm0 0"/></clipPath><clipPath id="b"><path d="M14 135h340v2H14zm0 0"/></clipPath><clipPath id="c"><path d="M14 8.5h1v255h-1zm0 0"/></clipPath><clipPath id="d"><path d="M70 8.5h1v255h-1zm0 0"/></clipPath><clipPath id="e"><path d="M127 8.5h1v255h-1zm0 0"/></clipPath><clipPath id="f"><path d="M183 8.5h2v255h-2zm0 0"/></clipPath><clipPath id="g"><path d="M240 8.5h1v255h-1zm0 0"/></clipPath><clipPath id="h"><path d="M297 8.5h1v255h-1zm0 0"/></clipPath><clipPath id="i"><path d="M353 8.5h1v255h-1zm0 0"/></clipPath><clipPath id="j"><path d="M14 263h340v.5H14zm0 0"/></clipPath><clipPath id="k"><path d="M14 220h340v2H14zm0 0"/></clipPath><clipPath id="l"><path d="M14 178h340v1H14zm0 0"/></clipPath><clipPath id="m"><path d="M14 135h340v2H14zm0 0"/></clipPath><clipPath id="n"><path d="M14 93h340v1H14zm0 0"/></clipPath><clipPath id="o"><path d="M14 50h340v2H14zm0 0"/></clipPath><clipPath id="p"><path d="M14 8.5h340V9H14zm0 0"/></clipPath><clipPath id="v"><path d="M83 8.5h203v255H83zm0 0"/></clipPath><clipPath id="w"><path d="M14 135h340v2H14zm0 0"/></clipPath><symbol overflow="visible" id="q"><path style="stroke:none" d="M2.125-2.344H.344v.547h1.781zm0 0"/></symbol><symbol overflow="visible" id="r"><path style="stroke:none" d="M1.656-2.438h.36c.734 0 1.109.329 1.109.954 0 .671-.422 1.078-1.11 1.078-.718 0-1.078-.36-1.109-1.14H.234c.032.421.11.702.235.952.281.5.797.766 1.531.766 1.094 0 1.797-.656 1.797-1.656 0-.672-.266-1.047-.906-1.266.5-.203.75-.578.75-1.11 0-.906-.61-1.453-1.625-1.453-1.079 0-1.641.579-1.657 1.72h.657c0-.329.03-.516.109-.673.156-.296.484-.468.906-.468.578 0 .938.343.938.906 0 .375-.14.594-.438.719-.172.078-.406.109-.875.109zm0 0"/></symbol><symbol overflow="visible" id="s"><path style="stroke:none" d="M3.797-.656H1c.063-.438.313-.703.953-1.094l.75-.406c.75-.406 1.125-.953 1.125-1.594 0-.453-.172-.86-.484-1.14-.328-.298-.719-.423-1.219-.423-.672 0-1.172.235-1.469.688-.187.281-.265.61-.281 1.156h.656c.032-.36.078-.578.157-.75.171-.328.515-.515.921-.515.594 0 1.047.421 1.047.984 0 .422-.25.781-.719 1.063l-.687.39C.64-1.672.312-1.172.25 0h3.547zm0 0"/></symbol><symbol overflow="visible" id="t"><path style="stroke:none" d="M1.938-3.781V0h.671v-5.313h-.437c-.235.813-.39.922-1.406 1.047v.485zm0 0"/></symbol><symbol overflow="visible" id="u"><path style="stroke:none" d="M2.063-5.313c-.5 0-.938.22-1.22.579C.5-4.266.329-3.563.329-2.578c0 1.797.594 2.75 1.734 2.75 1.126 0 1.735-.953 1.735-2.703 0-1.031-.156-1.719-.516-2.203-.281-.375-.719-.579-1.219-.579zm0 .579c.718 0 1.062.718 1.062 2.14 0 1.516-.344 2.219-1.078 2.219C1.344-.375 1-1.109 1-2.563c0-1.453.344-2.171 1.063-2.171zm0 0"/></symbol></defs><path style="stroke:none;fill-rule:nonzero;fill:#fff;fill-opacity:1" d="M14 263.5h340V8.5H14zm0 0"/><g clip-path="url(#a)"><path style="fill:none;stroke-width:6.25;stroke-linecap:round;stroke-linejoin:miter;stroke:#bfbfbf;stroke-opacity:1;stroke-miterlimit:10" d="M1840 105v2550" transform="matrix(.1 0 0 -.1 0 274)"/></g><g clip-path="url(#b)"><path style="fill:none;stroke-width:6.25;stroke-linecap:round;stroke-linejoin:miter;stroke:#bfbfbf;stroke-opacity:1;stroke-miterlimit:10" d="M140 1380h3400" transform="matrix(.1 0 0 -.1 0 274)"/></g><g clip-path="url(#c)"><path style="fill:none;stroke-width:6.25;stroke-linecap:round;stroke-linejoin:miter;stroke:#bfbfbf;stroke-opacity:1;stroke-dasharray:12.5,18.75;stroke-miterlimit:10" d="M140 105v2550" transform="matrix(.1 0 0 -.1 0 274)"/></g><g clip-path="url(#d)"><path style="fill:none;stroke-width:6.25;stroke-linecap:round;stroke-linejoin:miter;stroke:#bfbfbf;stroke-opacity:1;stroke-dasharray:12.5,18.75;stroke-miterlimit:10" d="M706.68 105v2550" transform="matrix(.1 0 0 -.1 0 274)"/></g><g clip-path="url(#e)"><path style="fill:none;stroke-width:6.25;stroke-linecap:round;stroke-linejoin:miter;stroke:#bfbfbf;stroke-opacity:1;stroke-dasharray:12.5,18.75;stroke-miterlimit:10" d="M1273.32 105v2550" transform="matrix(.1 0 0 -.1 0 274)"/></g><g clip-path="url(#f)"><path style="fill:none;stroke-width:6.25;stroke-linecap:round;stroke-linejoin:miter;stroke:#bfbfbf;stroke-opacity:1;stroke-dasharray:12.5,18.75;stroke-miterlimit:10" d="M1840 105v2550" transform="matrix(.1 0 0 -.1 0 274)"/></g><g clip-path="url(#g)"><path style="fill:none;stroke-width:6.25;stroke-linecap:round;stroke-linejoin:miter;stroke:#bfbfbf;stroke-opacity:1;stroke-dasharray:12.5,18.75;stroke-miterlimit:10" d="M2406.68 105v2550" transform="matrix(.1 0 0 -.1 0 274)"/></g><g clip-path="url(#h)"><path style="fill:none;stroke-width:6.25;stroke-linecap:round;stroke-linejoin:miter;stroke:#bfbfbf;stroke-opacity:1;stroke-dasharray:12.5,18.75;stroke-miterlimit:10" d="M2973.32 105v2550" transform="matrix(.1 0 0 -.1 0 274)"/></g><g clip-path="url(#i)"><path style="fill:none;stroke-width:6.25;stroke-linecap:round;stroke-linejoin:miter;stroke:#bfbfbf;stroke-opacity:1;stroke-dasharray:12.5,18.75;stroke-miterlimit:10" d="M3540 105v2550" transform="matrix(.1 0 0 -.1 0 274)"/></g><g clip-path="url(#j)"><path style="fill:none;stroke-width:6.25;stroke-linecap:round;stroke-linejoin:miter;stroke:#bfbfbf;stroke-opacity:1;stroke-dasharray:12.5,18.75;stroke-miterlimit:10" d="M140 105h3400" transform="matrix(.1 0 0 -.1 0 274)"/></g><g clip-path="url(#k)"><path style="fill:none;stroke-width:6.25;stroke-linecap:round;stroke-linejoin:miter;stroke:#bfbfbf;stroke-opacity:1;stroke-dasharray:12.5,18.75;stroke-miterlimit:10" d="M140 530h3400" transform="matrix(.1 0 0 -.1 0 274)"/></g><g clip-path="url(#l)"><path style="fill:none;stroke-width:6.25;stroke-linecap:round;stroke-linejoin:miter;stroke:#bfbfbf;stroke-opacity:1;stroke-dasharray:12.5,18.75;stroke-miterlimit:10" d="M140 955h3400" transform="matrix(.1 0 0 -.1 0 274)"/></g><g clip-path="url(#m)"><path style="fill:none;stroke-width:6.25;stroke-linecap:round;stroke-linejoin:miter;stroke:#bfbfbf;stroke-opacity:1;stroke-dasharray:12.5,18.75;stroke-miterlimit:10" d="M140 1380h3400" transform="matrix(.1 0 0 -.1 0 274)"/></g><g clip-path="url(#n)"><path style="fill:none;stroke-width:6.25;stroke-linecap:round;stroke-linejoin:miter;stroke:#bfbfbf;stroke-opacity:1;stroke-dasharray:12.5,18.75;stroke-miterlimit:10" d="M140 1805h3400" transform="matrix(.1 0 0 -.1 0 274)"/></g><g clip-path="url(#o)"><path style="fill:none;stroke-width:6.25;stroke-linecap:round;stroke-linejoin:miter;stroke:#bfbfbf;stroke-opacity:1;stroke-dasharray:12.5,18.75;stroke-miterlimit:10" d="M140 2230h3400" transform="matrix(.1 0 0 -.1 0 274)"/></g><g clip-path="url(#p)"><path style="fill:none;stroke-width:6.25;stroke-linecap:round;stroke-linejoin:miter;stroke:#bfbfbf;stroke-opacity:1;stroke-dasharray:12.5,18.75;stroke-miterlimit:10" d="M140 2655h3400" transform="matrix(.1 0 0 -.1 0 274)"/></g><path style="fill:none;stroke-width:12.5;stroke-linecap:square;stroke-linejoin:miter;stroke:#000;stroke-opacity:1;stroke-miterlimit:10" d="M140 105h3400" transform="matrix(.1 0 0 -.1 0 274)"/><path style="fill:none;stroke-width:6.25;stroke-linecap:butt;stroke-linejoin:miter;stroke:#000;stroke-opacity:1;stroke-miterlimit:10" d="M140 105v50m56.68-50v25m56.64-25v25M310 105v25m56.68-25v25m56.64-25v25M480 105v25m56.68-25v25m56.64-25v25M650 105v25m56.68-25v50m56.64-50v25M820 105v25m56.68-25v25m56.64-25v25M990 105v25m56.68-25v25m56.64-25v25m56.68-25v25m56.68-25v25m56.64-25v50m56.68-50v25m56.68-25v25m56.64-25v25m56.68-25v25m56.68-25v25m56.64-25v25m56.68-25v25m56.68-25v25m56.64-25v25m56.68-25v50m56.68-50v25m56.64-25v25m56.68-25v25m56.68-25v25m56.64-25v25m56.68-25v25m56.68-25v25m56.64-25v25m56.68-25v25m56.68-25v50m56.64-50v25m56.68-25v25m56.68-25v25m56.64-25v25m56.68-25v25m56.68-25v25m56.64-25v25m56.68-25v25m56.68-25v25m56.64-25v50m56.68-50v25m56.68-25v25m56.64-25v25m56.68-25v25m56.68-25v25m56.64-25v25m56.68-25v25m56.68-25v25m56.64-25v25m56.68-25v50" transform="matrix(.1 0 0 -.1 0 274)"/><g style="fill:#000;fill-opacity:1"><use xlink:href="#q" x="10.041" y="273.5"/><use xlink:href="#r" x="12.539" y="273.5"/></g><g style="fill:#000;fill-opacity:1"><use xlink:href="#q" x="66.916" y="273.5"/><use xlink:href="#s" x="69.414" y="273.5"/></g><g style="fill:#000;fill-opacity:1"><use xlink:href="#q" x="123.791" y="273.5"/><use xlink:href="#t" x="126.289" y="273.5"/></g><use xlink:href="#u" x="181.915" y="273.5" style="fill:#000;fill-opacity:1"/><use xlink:href="#t" x="238.165" y="273.5" style="fill:#000;fill-opacity:1"/><use xlink:href="#s" x="295.04" y="273.5" style="fill:#000;fill-opacity:1"/><use xlink:href="#r" x="351.915" y="273.5" style="fill:#000;fill-opacity:1"/><path style="fill:none;stroke-width:12.5;stroke-linecap:square;stroke-linejoin:miter;stroke:#000;stroke-opacity:1;stroke-miterlimit:10" d="M140 2655h3400" transform="matrix(.1 0 0 -.1 0 274)"/><path style="fill:none;stroke-width:6.25;stroke-linecap:butt;stroke-linejoin:miter;stroke:#000;stroke-opacity:1;stroke-miterlimit:10" d="M140 2655v-50m56.68 50v-25m56.64 25v-25m56.68 25v-25m56.68 25v-25m56.64 25v-25m56.68 25v-25m56.68 25v-25m56.64 25v-25m56.68 25v-25m56.68 25v-50m56.64 50v-25m56.68 25v-25m56.68 25v-25m56.64 25v-25m56.68 25v-25m56.68 25v-25m56.64 25v-25m56.68 25v-25m56.68 25v-25m56.64 25v-50m56.68 50v-25m56.68 25v-25m56.64 25v-25m56.68 25v-25m56.68 25v-25m56.64 25v-25m56.68 25v-25m56.68 25v-25m56.64 25v-25m56.68 25v-50m56.68 50v-25m56.64 25v-25m56.68 25v-25m56.68 25v-25m56.64 25v-25m56.68 25v-25m56.68 25v-25m56.64 25v-25m56.68 25v-25m56.68 25v-50m56.64 50v-25m56.68 25v-25m56.68 25v-25m56.64 25v-25m56.68 25v-25m56.68 25v-25m56.64 25v-25m56.68 25v-25m56.68 25v-25m56.64 25v-50m56.68 50v-25m56.68 25v-25m56.64 25v-25m56.68 25v-25m56.68 25v-25m56.64 25v-25m56.68 25v-25m56.68 25v-25m56.64 25v-25m56.68 25v-50" transform="matrix(.1 0 0 -.1 0 274)"/><g style="fill:#000;fill-opacity:1"><use xlink:href="#q" x="10.041" y="5.375"/><use xlink:href="#r" x="12.539" y="5.375"/></g><g style="fill:#000;fill-opacity:1"><use xlink:href="#q" x="66.916" y="5.375"/><use xlink:href="#s" x="69.414" y="5.375"/></g><g style="fill:#000;fill-opacity:1"><use xlink:href="#q" x="123.791" y="5.375"/><use xlink:href="#t" x="126.289" y="5.375"/></g><use xlink:href="#u" x="181.915" y="5.375" style="fill:#000;fill-opacity:1"/><use xlink:href="#t" x="238.165" y="5.375" style="fill:#000;fill-opacity:1"/><use xlink:href="#s" x="295.04" y="5.375" style="fill:#000;fill-opacity:1"/><use xlink:href="#r" x="351.915" y="5.375" style="fill:#000;fill-opacity:1"/><path style="fill:none;stroke-width:12.5;stroke-linecap:square;stroke-linejoin:miter;stroke:#000;stroke-opacity:1;stroke-miterlimit:10" d="M140 105v2550" transform="matrix(.1 0 0 -.1 0 274)"/><path style="fill:none;stroke-width:6.25;stroke-linecap:butt;stroke-linejoin:miter;stroke:#000;stroke-opacity:1;stroke-miterlimit:10" d="M140 105h50m-50 42.5h25M140 190h25m-25 42.5h25M140 275h25m-25 42.5h25M140 360h25m-25 42.5h25M140 445h25m-25 42.5h25M140 530h50m-50 42.5h25M140 615h25m-25 42.5h25M140 700h25m-25 42.5h25M140 785h25m-25 42.5h25M140 870h25m-25 42.5h25M140 955h50m-50 42.5h25m-25 42.5h25m-25 42.5h25m-25 42.5h25m-25 42.5h25m-25 42.5h25m-25 42.5h25m-25 42.5h25m-25 42.5h25m-25 42.5h50m-50 42.5h25m-25 42.5h25m-25 42.5h25m-25 42.5h25m-25 42.5h25m-25 42.5h25m-25 42.5h25m-25 42.5h25m-25 42.5h25m-25 42.5h50m-50 42.5h25m-25 42.5h25m-25 42.5h25m-25 42.5h25m-25 42.5h25m-25 42.5h25m-25 42.5h25m-25 42.5h25m-25 42.5h25m-25 42.5h50m-50 42.5h25m-25 42.5h25m-25 42.5h25m-25 42.5h25m-25 42.5h25m-25 42.5h25m-25 42.5h25m-25 42.5h25m-25 42.5h25m-25 42.5h50" transform="matrix(.1 0 0 -.1 0 274)"/><g style="fill:#000;fill-opacity:1"><use xlink:href="#q" x=".458" y="267.25"/><use xlink:href="#r" x="2.955" y="267.25"/></g><g style="fill:#000;fill-opacity:1"><use xlink:href="#q" x=".458" y="224.125"/><use xlink:href="#s" x="2.955" y="224.125"/></g><g style="fill:#000;fill-opacity:1"><use xlink:href="#q" x=".458" y="182.25"/><use xlink:href="#t" x="2.955" y="182.25"/></g><use xlink:href="#u" x="2.955" y="139.125" style="fill:#000;fill-opacity:1"/><use xlink:href="#t" x="2.955" y="97.25" style="fill:#000;fill-opacity:1"/><use xlink:href="#s" x="2.955" y="54.125" style="fill:#000;fill-opacity:1"/><use xlink:href="#r" x="2.955" y="11.625" style="fill:#000;fill-opacity:1"/><path style="fill:none;stroke-width:12.5;stroke-linecap:square;stroke-linejoin:miter;stroke:#000;stroke-opacity:1;stroke-miterlimit:10" d="M3540 105v2550" transform="matrix(.1 0 0 -.1 0 274)"/><path style="fill:none;stroke-width:6.25;stroke-linecap:butt;stroke-linejoin:miter;stroke:#000;stroke-opacity:1;stroke-miterlimit:10" d="M3540 105h-50m50 42.5h-25m25 42.5h-25m25 42.5h-25m25 42.5h-25m25 42.5h-25m25 42.5h-25m25 42.5h-25m25 42.5h-25m25 42.5h-25m25 42.5h-50m50 42.5h-25m25 42.5h-25m25 42.5h-25m25 42.5h-25m25 42.5h-25m25 42.5h-25m25 42.5h-25m25 42.5h-25m25 42.5h-25m25 42.5h-50m50 42.5h-25m25 42.5h-25m25 42.5h-25m25 42.5h-25m25 42.5h-25m25 42.5h-25m25 42.5h-25m25 42.5h-25m25 42.5h-25m25 42.5h-50m50 42.5h-25m25 42.5h-25m25 42.5h-25m25 42.5h-25m25 42.5h-25m25 42.5h-25m25 42.5h-25m25 42.5h-25m25 42.5h-25m25 42.5h-50m50 42.5h-25m25 42.5h-25m25 42.5h-25m25 42.5h-25m25 42.5h-25m25 42.5h-25m25 42.5h-25m25 42.5h-25m25 42.5h-25m25 42.5h-50m50 42.5h-25m25 42.5h-25m25 42.5h-25m25 42.5h-25m25 42.5h-25m25 42.5h-25m25 42.5h-25m25 42.5h-25m25 42.5h-25m25 42.5h-50" transform="matrix(.1 0 0 -.1 0 274)"/><g style="fill:#000;fill-opacity:1"><use xlink:href="#q" x="360.25" y="267.25"/><use xlink:href="#r" x="362.748" y="267.25"/></g><g style="fill:#000;fill-opacity:1"><use xlink:href="#q" x="360.25" y="224.125"/><use xlink:href="#s" x="362.748" y="224.125"/></g><g style="fill:#000;fill-opacity:1"><use xlink:href="#q" x="360.25" y="182.25"/><use xlink:href="#t" x="362.748" y="182.25"/></g><use xlink:href="#u" x="360.25" y="139.125" style="fill:#000;fill-opacity:1"/><use xlink:href="#t" x="360.25" y="97.25" style="fill:#000;fill-opacity:1"/><use xlink:href="#s" x="360.25" y="54.125" style="fill:#000;fill-opacity:1"/><use xlink:href="#r" x="360.25" y="11.625" style="fill:#000;fill-opacity:1"/><path style="fill:none;stroke-width:6.25;stroke-linecap:round;stroke-linejoin:miter;stroke:#00f;stroke-opacity:1;stroke-miterlimit:10" d="m203.125 120.547 35.664 90.351m.001 0h0m-36.485 31.407 37.304 89.687m.001 0h0m-38.243 32.148 39.18 88.868m0 0h0m-40.313 33.047 41.446 87.89m0 0h0m-42.774 34.219 44.102 86.563m0 0h0m-45.703 35.703 47.304 84.843m.001 0h0m-49.376 37.813 51.407 82.422m-.001 0h0m-54.062 40.782 56.758 78.827m0 0h0m-60.508 45.586 64.258 72.852m0 0h0m-70.039 54.648 75.82 60.742m0 0h0M172.383 1380h97.148m0 0h0m-86.484 91.055 75.82 60.742m0 0h0m-70.039 54.648 64.258 72.852m0 0h0m-60.508 45.586 56.758 78.828m0-.001h0m-54.102 40.782 51.407 82.422m-.001 0h0m-49.335 37.813 47.304 84.843m.001 0h0m-45.704 35.703 44.102 86.602m0 0h0m-42.774 34.18 41.446 87.89m0 0h0m-40.313 33.047 39.18 88.867m0 .001h0m-38.242 32.148 37.304 89.687m.001 0h0m-36.485 31.407 35.664 90.351m.001 0h0M365.04 120.547l35.624 90.351m0 0h0m-36.445 31.407 37.304 89.687m0 0h0m-38.242 32.148 39.18 88.868m-.001 0h0m-40.312 33.047 41.407 87.89m0 0h0m-42.735 34.219 44.063 86.563m0 0h0M359.18 730.43l47.343 84.843m0 0h0m-49.375 37.813 51.407 82.422m0 0h0m-54.063 40.782 56.758 78.827m0 0h0m-60.508 45.586L415 1173.555m0 0h0m-70.04 54.648 75.782 60.742m0 0h0M334.297 1380h97.148m0 0h0m-86.485 91.055 75.782 60.742m0 0h0m-70 54.648L415 1659.297m0 0h0m-60.508 45.586 56.758 78.828m0-.001h0m-54.102 40.782 51.407 82.422m0 0h0m-49.375 37.813 47.343 84.843m0 0h0m-45.703 35.703 44.063 86.602m0 0h0m-42.735 34.18 41.407 87.89m0 0h0m-40.274 33.047 39.18 88.867m-.001.001h0m-38.241 32.148 37.304 89.687m0 0h0m-36.483 31.407 35.624 90.351m0 0h0M526.953 120.547l35.625 90.351m0 0h0m-36.445 31.407 37.265 89.687m0 0h0m-38.242 32.148 39.18 88.868m0 0h0m-40.273 33.047 41.406 87.89m0 0h0m-42.735 34.219 44.063 86.563m0 0h0m-45.703 35.703 47.343 84.843m.001 0h0m-49.375 37.813 51.406 82.422m0 0h0m-54.102 40.782 56.797 78.827m0 0h0m-60.508 45.586 64.219 72.852m0 0h0m-70 54.648 75.781 60.742m0 0h0M496.172 1380h97.148m0 0h0m-86.445 91.055 75.781 60.742m0 0h0m-70 54.648 64.219 72.852m0 0h0m-60.508 45.586 56.797 78.828m0-.001h0m-54.101 40.782 51.406 82.422m0 0h0m-49.375 37.813 47.343 84.843m.001 0h0m-45.704 35.703 44.063 86.602m0 0h0m-42.734 34.18 41.406 87.89m0 0h0m-40.313 33.047 39.18 88.867m0 .001h0m-38.203 32.148 37.265 89.687m0 0h0m-36.445 31.407 35.625 90.351m0 0h0m126.25-2518.906 35.664 90.351m0 0h0m-36.484 31.407 37.304 89.687m.001 0h0M687.07 364.14l39.18 88.868m0 0h0m-40.312 33.047 41.445 87.89m0 0h0m-42.773 34.219 44.1 86.563m0 0h0m-45.702 35.703 47.304 84.843m.001 0h0m-49.336 37.813 51.406 82.422m0 0h0m-54.102 40.782 56.758 78.827m.001 0h0m-60.509 45.586 64.258 72.852m.001 0h0m-70 54.648 75.78 60.742m0 0h0M658.086 1380h97.148m0 0h0m-86.444 91.055 75.78 60.742m0 0h0m-70.039 54.648 64.258 72.852m.001 0h0m-60.509 45.586 56.758 78.828m.001-.001h0m-54.063 40.782 51.406 82.422m0 0h0m-49.375 37.813 47.304 84.843m.001 0h0m-45.703 35.703 44.1 86.602m0 0h0m-42.772 34.18 41.445 87.89m0 0h0m-40.313 33.047 39.18 88.867m0 .001h0m-38.242 32.148 37.304 89.687m.001 0h0m-36.485 31.407 35.664 90.351m0 0h0m126.25-2518.906 35.664 90.351m0 0h0m-36.484 31.407 37.305 89.687m0 0h0m-38.243 32.148 39.18 88.868m0 0h0m-40.312 33.047 41.445 87.89m0 0h0m-42.774 34.219 44.102 86.563m0 0h0m-45.703 35.703 47.305 84.843m0 0h0m-49.375 37.813 51.406 82.422m0 0h0m-54.063 40.782 56.758 78.827m0 0h0m-60.508 45.586 64.258 72.852m0 0h0m-70.039 54.648 75.82 60.742m0 0h0M820 1380h97.148m0 0h0m-86.484 91.055 75.82 60.742m0 0h0m-70.039 54.648 64.258 72.852m0 0h0m-60.508 45.586 56.758 78.828m0-.001h0m-54.101 40.782 51.406 82.422m0 0h0m-49.336 37.813 47.305 84.843m0 0h0m-45.704 35.703 44.102 86.602m0 0h0m-42.773 34.18 41.445 87.89m0 0h0m-40.313 33.047 39.18 88.867m0 .001h0m-38.242 32.148 37.305 89.687m0 0h0m-36.485 31.407 35.664 90.351m0 0h0m126.25-2518.906 35.625 90.351m0 0h0m-36.445 31.407 37.266 89.687m0 0h0m-38.204 32.148 39.18 88.868m0 0h0m-40.312 33.047 41.406 87.89m0 0h0m-42.734 34.219 44.062 86.563m0 0h0m-45.664 35.703 47.305 84.843m-.001 0h0m-49.374 37.813 51.406 82.422m0 0h0m-54.062 40.782 56.757 78.827m0 0h0m-60.507 45.586 64.257 72.852m0 0h0m-70.039 54.648 75.781 60.742m.001 0h0M981.914 1380h97.149m0 0h0m-86.485 91.055 75.781 60.742m.001 0h0m-70 54.648 64.257 72.852m0 0h0m-60.507 45.586 56.757 78.828m0-.001h0m-54.101 40.782 51.406 82.422m0 0h0m-49.336 37.813 47.305 84.843m-.001 0h0m-45.702 35.703 44.062 86.602m0 0h0m-42.734 34.18 41.406 87.89m0 0h0m-40.274 33.047 39.18 88.867m0 .001h0m-38.242 32.148 37.266 89.687m0 0h0m-36.446 31.407 35.625 90.351m0 0h0M1174.57 120.547l35.625 90.351m0 0h0m-36.445 31.407 37.266 89.687m0 0h0m-38.243 32.148 39.22 88.868m-.001 0h0m-40.312 33.047 41.406 87.89m0 0h0m-42.734 34.219 44.062 86.563m0 0h0m-45.704 35.703 47.345 84.843m0 0h0m-49.375 37.813 51.406 82.422m0 0h0m-54.102 40.782 56.758 78.827m0 0h0m-60.469 45.586 64.22 72.852m-.001 0h0m-70 54.648 75.781 60.742m0 0h0M1143.828 1380h97.11m0 0h0m-86.446 91.055 75.781 60.742m0 0h0m-70 54.648 64.22 72.852m-.001 0h0m-60.508 45.586 56.758 78.828m0-.001h0m-54.062 40.782 51.406 82.422m0 0h0m-49.376 37.813 47.345 84.843m0 0h0m-45.703 35.703 44.062 86.602m0 0h0m-42.734 34.18 41.406 87.89m0 0h0m-40.313 33.047 39.22 88.867m-.001.001h0m-38.242 32.148 37.266 89.687m0 0h0m-36.446 31.407 35.625 90.351m0 0h0m126.25-2518.906 35.664 90.351m.001 0h0m-36.485 31.407 37.305 89.687m0 0h0m-38.242 32.148 39.18 88.868m-.001 0h0m-40.312 33.047 41.445 87.89m0 0h0m-42.773 34.219 44.101 86.563m0 0h0m-45.703 35.703 47.344 84.843m0 0h0m-49.375 37.813L1380 935.508m0 0h0m-54.102 40.782 56.758 78.827m0 0h0m-60.508 45.586 64.258 72.852m0 0h0m-70 54.648 75.782 60.742m0 0h0M1305.703 1380h97.149m0 0h0m-86.446 91.055 75.782 60.742m0 0h0m-70.04 54.648 64.258 72.852m0 0h0m-60.508 45.586 56.758 78.828m0-.001h0m-54.062 40.782 51.406 82.422m0 0h0m-49.375 37.813 47.344 84.843m0 0h0m-45.742 35.703 44.101 86.602m0 0h0m-42.773 34.18 41.445 87.89m0 0h0m-40.312 33.047 39.18 88.867m-.001.001h0m-38.242 32.148 37.305 89.687m0 0h0m-36.485 31.407 35.664 90.351m.001 0h0m126.25-2518.906 35.663 90.351m0 0h0m-36.483 31.407 37.304 89.687m0 0h0m-38.242 32.148 39.18 88.868m-.001 0h0m-40.312 33.047 41.445 87.89m0 0h0m-42.774 34.219 44.102 86.563m0 0h0m-45.702 35.703 47.304 84.843m0 0h0m-49.336 37.813 51.367 82.422m0 0h0m-54.062 40.782 56.757 78.827m0 0h0m-60.507 45.586 64.257 72.852m0 0h0m-70.039 54.648 75.82 60.742m.001 0h0M1467.617 1380h97.149m0 0h0m-86.485 91.055 75.82 60.742m.001 0h0m-70.039 54.648 64.257 72.852m0 0h0m-60.507 45.586 56.757 78.828m0-.001h0m-54.062 40.782 51.367 82.422m0 0h0m-49.335 37.813 47.304 84.843m0 0h0m-45.704 35.703 44.102 86.602m0 0h0m-42.773 34.18 41.445 87.89m0 0h0m-40.312 33.047 39.18 88.867m-.001.001h0m-38.241 32.148 37.304 89.687m0 0h0m-36.484 31.407 35.663 90.351m0 0h0m126.25-2518.906 35.665 90.351m0 0h0m-36.485 31.407 37.305 89.687m0 0h0m-38.242 32.148 39.18 88.868m-.001 0h0m-40.312 33.047 41.406 87.89m.001 0h0m-42.735 34.219 44.062 86.563m0 0h0m-45.664 35.703 47.305 84.843m0 0h0m-49.375 37.813 51.406 82.422m.001 0h0m-54.063 40.782 56.757 78.827m0 0h0m-60.507 45.586 64.257 72.852m0 0h0m-70.039 54.648 75.782 60.742m0 0h0M1629.531 1380h97.149m0 0h0m-86.485 91.055 75.782 60.742m0 0h0m-70 54.648 64.257 72.852m0 0h0m-60.507 45.586 56.757 78.828m0-.001h0m-54.101 40.782 51.406 82.422m.001 0h0m-49.337 37.813 47.305 84.843m0 0h0m-45.703 35.703 44.062 86.602m0 0h0m-42.734 34.18 41.406 87.89m.001 0h0m-40.274 33.047 39.18 88.867m-.001.001h0m-38.242 32.148 37.305 89.687m0 0h0m-36.485 31.407 35.665 90.351m0 0h0m126.25-2518.906 35.624 90.351m.001 0h0m-36.446 31.407 37.266 89.687m0 0h0m-38.243 32.148 39.22 88.868m0 0h0m-40.313 33.047 41.406 87.89m0 0h0m-42.734 34.219 44.062 86.563m0 0h0m-45.703 35.703 47.344 84.843m0 0h0m-49.375 37.813 51.406 82.422m0 0h0m-54.101 40.782 56.796 78.827m0 0h0m-60.508 45.586 64.22 72.852m0 0h0m-70 54.648 75.78 60.742m0 0h0M1791.445 1380h97.11m0 0h0m-86.445 91.055 75.78 60.742m0 0h0m-70 54.648 64.22 72.852m0 0h0m-60.508 45.586 56.796 78.828m0-.001h0m-54.101 40.782 51.406 82.422m0 0h0m-49.375 37.813 47.344 84.843m0 0h0m-45.703 35.703 44.062 86.602m0 0h0m-42.734 34.18 41.406 87.89m0 0h0m-40.313 33.047 39.22 88.867m0 .001h0m-38.243 32.148 37.266 89.687m0 0h0m-36.445 31.407 35.624 90.351m.001 0h0m126.25-2518.906 35.664 90.351m0 0h0m-36.485 31.407 37.305 89.687m0 0h0m-38.242 32.148 39.18 88.868m-.001 0h0m-40.274 33.047 41.407 87.89m0 0h0m-42.734 34.219 44.062 86.563m0 0h0m-45.703 35.703 47.305 84.843m0 0h0m-49.337 37.813 51.407 82.422m0 0h0m-54.101 40.782 56.757 78.827m0 0h0m-60.507 45.586 64.257 72.852m0 0h0m-70 54.648 75.782 60.742m0 0h0M1953.32 1380h97.149m0 0h0m-86.446 91.055 75.782 60.742m0 0h0m-70.039 54.648 64.257 72.852m0 0h0m-60.507 45.586 56.757 78.828m0-.001h0m-54.063 40.782 51.407 82.422m0 0h0m-49.375 37.813 47.305 84.843m0 0h0m-45.664 35.703 44.062 86.602m0 0h0m-42.735 34.18 41.407 87.89m0 0h0m-40.312 33.047 39.18 88.867m-.001.001h0m-38.242 32.148 37.305 89.687m0 0h0m-36.484 31.407 35.664 90.351m0 0h0m126.25-2518.906 35.664 90.351m-.001 0h0m-36.484 31.407 37.305 89.687m-.001 0h0m-38.241 32.148 39.18 88.868m-.001 0h0m-40.312 33.047 41.445 87.89m0 0h0m-42.773 34.219 44.101 86.563m.001 0h0m-45.704 35.703 47.305 84.843m-.001 0h0m-49.335 37.813 51.367 82.422m0 0h0m-54.062 40.782 56.758 78.827m0 0h0m-60.508 45.586 64.258 72.852m0 0h0m-70.04 54.648 75.82 60.742m.001 0h0M2115.234 1380h97.149m0 0h0m-86.485 91.055 75.82 60.742m.001 0h0m-70.039 54.648 64.258 72.852m0 0h0m-60.508 45.586 56.758 78.828m0-.001h0m-54.063 40.782 51.367 82.422m0 0h0m-49.336 37.813 47.305 84.843m-.001 0h0m-45.702 35.703 44.101 86.602m.001 0h0m-42.774 34.18 41.445 87.89m0 0h0m-40.312 33.047 39.18 88.867m-.001.001h0m-38.242 32.148 37.305 89.687m-.001 0h0m-36.483 31.407 35.664 90.351m-.001 0h0m126.25-2518.906 35.665 90.351m0 0h0m-36.485 31.407 37.305 89.687m0 0h0m-38.242 32.148 39.18 88.868m0 0h0M2305 486.055l41.445 87.89m0 0h0m-42.773 34.219 44.101 86.563m0 0h0m-45.742 35.703 47.344 84.843m0 0h0M2300 853.086l51.406 82.422m0 0h0m-54.062 40.782 56.758 78.827m0 0h0m-60.508 45.586 64.258 72.852m0 0h0m-70.039 54.648 75.78 60.742m.001 0h0M2277.148 1380h97.149m0 0h0m-86.484 91.055 75.78 60.742m.001 0h0m-70 54.648 64.258 72.852m0 0h0m-60.508 45.586 56.758 78.828m0-.001h0M2300 1824.492l51.406 82.422m0 0h0m-49.375 37.813 47.344 84.843m0 0h0m-45.703 35.703 44.101 86.602m0 0h0m-42.773 34.18 41.445 87.89m0 0h0m-40.312 33.047 39.18 88.867m0 .001h0m-38.243 32.148 37.305 89.687m0 0h0m-36.485 31.407 35.665 90.351m0 0h0m126.25-2518.906 35.625 90.351m0 0h0m-36.446 31.407 37.266 89.687m0 0h0m-38.242 32.148 39.219 88.868m0 0h0m-40.313 33.047 41.406 87.89m0 0h0m-42.734 34.219 44.062 86.563m0 0h0m-45.703 35.703 47.344 84.843m.001 0h0m-49.376 37.813 51.406 82.422m0 0h0m-54.062 40.782 56.758 78.827m0 0h0m-60.508 45.586 64.219 72.852m0 0h0m-70 54.648 75.78 60.742m.001 0h0M2439.063 1380h97.109m0 0h0m-86.445 91.055 75.78 60.742m.001 0h0m-70 54.648 64.219 72.852m0 0h0m-60.469 45.586 56.758 78.828m0-.001h0m-54.102 40.782 51.406 82.422m0 0h0m-49.375 37.813 47.344 84.843m.001 0h0m-45.704 35.703 44.062 86.602m0 0h0m-42.734 34.18 41.406 87.89m0 0h0m-40.312 33.047 39.219 88.867m0 .001h0m-38.243 32.148 37.266 89.687m0 0h0m-36.445 31.407 35.625 90.351m0 0h0m126.289-2518.906 35.625 90.351m0 0h0m-36.446 31.407 37.266 89.687m0 0h0m-38.242 32.148 39.18 88.868m0 0h0m-40.274 33.047 41.406 87.89m0 0h0m-42.734 34.219 44.063 86.563m0 0h0m-45.703 35.703 47.304 84.843m0 0h0m-49.336 37.813 51.406 82.422m0 0h0m-54.101 40.782 56.758 78.827m-.001 0h0m-60.507 45.586 64.258 72.852m-.001 0h0m-70 54.648 75.782 60.742m0 0h0M2600.938 1380h97.148m0 0h0m-86.446 91.055 75.782 60.742m0 0h0m-70.039 54.648 64.258 72.852m-.001 0h0m-60.507 45.586 56.758 78.828m-.001-.001h0m-54.062 40.782 51.406 82.422m0 0h0m-49.374 37.813 47.304 84.843m0 0h0m-45.664 35.703 44.063 86.602m0 0h0m-42.735 34.18 41.406 87.89m0 0h0m-40.312 33.047 39.18 88.867m0 .001h0m-38.204 32.148 37.266 89.687m0 0h0m-36.445 31.407 35.625 90.351m0 0h0m126.25-2518.906 35.664 90.351m0 0h0m-36.485 31.407 37.305 89.687m0 0h0m-38.242 32.148 39.18 88.868m0 0h0m-40.313 33.047 41.445 87.89m0 0h0m-42.773 34.219 44.102 86.563m0 0h0m-45.704 35.703 47.305 84.843m0 0h0m-49.336 37.813 51.406 82.422m0 0h0m-54.101 40.782 56.758 78.827m0 0h0m-60.508 45.586 64.258 72.852m0 0h0m-70.039 54.648 75.82 60.742m0 0h0M2762.852 1380H2860m0 0h0m-86.484 91.055 75.82 60.742m0 0h0m-70.039 54.648 64.258 72.852m0 0h0m-60.508 45.586 56.758 78.828m0-.001h0m-54.063 40.782 51.406 82.422m0 0h0m-49.375 37.813 47.305 84.843m0 0h0m-45.703 35.703 44.102 86.602m0 0h0m-42.774 34.18 41.445 87.89m0 0h0m-40.312 33.047 39.18 88.867m0 .001h0m-38.243 32.148 37.305 89.687m0 0h0m-36.484 31.407 35.664 90.351m0 0h0m126.25-2518.906 35.664 90.351m0 0h0m-36.484 31.407 37.304 89.687m0 0h0m-38.242 32.148 39.18 88.868m0 0h0m-40.313 33.047 41.406 87.89m0 0h0m-42.733 34.219 44.1 86.563m0 0h0m-45.702 35.703 47.304 84.843m0 0h0m-49.375 37.813 51.406 82.422m0 0h0m-54.063 40.782 56.759 78.827m0 0h0m-60.509 45.586 64.259 72.852m0 0h0m-70.039 54.648 75.78 60.742m0 0h0M2924.766 1380h97.148m0 0h0m-86.484 91.055 75.78 60.742m0 0h0m-70 54.648 64.259 72.852m0 0h0m-60.509 45.586 56.759 78.828m0-.001h0m-54.102 40.782 51.406 82.422m0 0h0m-49.335 37.813 47.304 84.843m0 0h0m-45.702 35.703 44.1 86.602m0 0h0m-42.773 34.18 41.406 87.89m0 0h0m-40.273 33.047 39.18 88.867m0 .001h0m-38.242 32.148 37.304 89.687m0 0h0m-36.484 31.407 35.664 90.351m0 0h0m126.25-2518.906 35.625 90.351m0 0h0m-36.445 31.407 37.265 89.687m0 0h0m-38.242 32.148 39.219 88.868m0 0h0m-40.313 33.047 41.407 87.89m0 0h0m-42.735 34.219 44.063 86.563m0 0h0m-45.703 35.703 47.343 84.843m0 0h0m-49.375 37.813 51.407 82.422m0 0h0m-54.063 40.782 56.758 78.827m0 0h0m-60.508 45.586 64.219 72.852m0 0h0m-70 54.648 75.781 60.742m0 0h0M3086.68 1380h97.148m0 0h0m-86.484 91.055 75.781 60.742m0 0h0m-70 54.648 64.219 72.852m0 0h0m-60.469 45.586 56.758 78.828m0-.001h0m-54.102 40.782 51.407 82.422m0 0h0m-49.375 37.813 47.343 84.843m0 0h0m-45.703 35.703 44.063 86.602m0 0h0m-42.735 34.18 41.407 87.89m0 0h0m-40.313 33.047 39.219 88.867m0 .001h0m-38.242 32.148 37.265 89.687m0 0h0m-36.445 31.407 35.625 90.351m0 0h0m126.289-2518.906 35.625 90.351m-.001 0h0m-36.444 31.407 37.265 89.687m0 0h0m-38.241 32.148 39.218 88.868m0 0h0m-40.313 33.047 41.407 87.89m0 0h0m-42.735 34.219 44.063 86.563m0 0h0m-45.703 35.703 47.304 84.843m0 0h0m-49.336 37.813 51.407 82.422m0 0h0m-54.102 40.782 56.758 78.827m0 0h0m-60.468 45.586 64.218 72.852m0 0h0m-70 54.648 75.781 60.742m.001 0h0M3248.555 1380h97.148m0 0h0m-86.445 91.055 75.781 60.742m.001 0h0m-70 54.648 64.218 72.852m0 0h0m-60.508 45.586 56.758 78.828m0-.001h0m-54.063 40.782 51.407 82.422m0 0h0m-49.375 37.813 47.304 84.843m0 0h0m-45.664 35.703 44.063 86.602m0 0h0m-42.735 34.18 41.407 87.89m0 0h0m-40.312 33.047 39.218 88.867m0 .001h0m-38.242 32.148 37.265 89.687m0 0h0m-36.445 31.407 35.625 90.351m-.001 0h0m126.25-2518.906 35.665 90.351m0 0h0m-36.485 31.407 37.305 89.687m0 0h0m-38.242 32.148 39.18 88.868m0 0h0m-40.273 33.047 41.406 87.89m0 0h0m-42.774 34.219 44.102 86.563m0 0h0m-45.704 35.703 47.305 84.843m0 0h0m-49.335 37.813 51.406 82.422m0 0h0m-54.102 40.782 56.758 78.827m0 0h0m-60.508 45.586 64.258 72.852m0 0h0m-70.039 54.648 75.82 60.742m0 0h0M3410.469 1380h97.148m0 0h0m-86.484 91.055 75.82 60.742m0 0h0m-70.039 54.648 64.258 72.852m0 0h0m-60.508 45.586 56.758 78.828m0-.001h0m-54.062 40.782 51.406 82.422m0 0h0m-49.376 37.813 47.305 84.843m0 0h0m-45.703 35.703 44.102 86.602m0 0h0m-42.734 34.18 41.406 87.89m0 0h0m-40.313 33.047 39.18 88.867m0 .001h0m-38.243 32.148 37.305 89.687m0 0h0m-36.485 31.407 35.665 90.351m0 0h0" transform="matrix(.1 0 0 -.1 0 274)"/><g clip-path="url(#v)"><path style="fill:none;stroke-width:12.5;stroke-linecap:round;stroke-linejoin:round;stroke:red;stroke-opacity:1;stroke-miterlimit:10" d="m842.656 53.867 34.024 88.555 33.984 85.469 34.024 82.46 33.984 79.376 33.984 76.328 34.024 73.242 33.984 70.195 34.024 67.149 33.984 64.062 33.984 61.016 34.024 57.968 33.984 54.922 34.024 51.836 33.984 48.79 33.984 45.702 34.024 42.657 33.984 39.61 34.024 36.523 33.984 33.476 33.984 30.43 34.024 27.344 33.984 24.296 34.024 21.25 33.984 18.204 33.984 15.078 34.024 12.07 33.984 9.023 34.024 5.938 33.984 2.851 33.984 1.094 34.024 3.477 33.984 6.64 34.024 9.688 33.984 12.734 33.984 15.82 34.024 18.868 33.984 21.914 34.023 25 33.985 28.047 33.984 31.093 34.024 34.18 33.984 37.227 34.023 40.312 33.985 43.32 33.984 46.446L2406.68 1805l33.984 52.54 34.023 55.585 33.985 58.633 33.984 61.719 34.024 64.765 33.984 67.852 34.023 70.86 33.985 73.983 33.984 76.993 34.024 80.078 33.984 83.125 34.023 86.172 33.985 89.258" transform="matrix(.1 0 0 -.1 0 274)"/></g><g clip-path="url(#w)"><path style="fill:none;stroke-width:12.5;stroke-linecap:round;stroke-linejoin:round;stroke:red;stroke-opacity:1;stroke-miterlimit:10" d="M140 1380h3400" transform="matrix(.1 0 0 -.1 0 274)"/></g></svg>