<svg xmlns="http://www.w3.org/2000/svg" xmlns:xlink="http://www.w3.org/1999/xlink" width="367pt" height="274pt" viewBox="0 0 367 274"><defs><clipPath id="a"><path d="M183 8.5h2v255h-2zm0 0"/></clipPath><clipPath id="b"><path d="M14 135h340v2H14zm0 0"/></clipPath><clipPath id="c"><path d="M14 8.5h1v255h-1zm0 0"/></clipPath><clipPath id="d"><path d="M70 8.5h1v255h-1zm0 0"/></clipPath><clipPath id="e"><path d="M127 8.5h1v255h-1zm0 0"/></clipPath><clipPath id="f"><path d="M183 8.5h2v255h-2zm0 0"/></clipPath><clipPath id="g"><path d="M240 8.5h1v255h-1zm0 0"/></clipPath><clipPath id="h"><path d="M297 8.5h1v255h-1zm0 0"/></clipPath><clipPath id="i"><path d="M353 8.5h1v255h-1zm0 0"/></clipPath><clipPath id="j"><path d="M14 263h340v.5H14zm0 0"/></clipPath><clipPath id="k"><path d="M14 220h340v2H14zm0 0"/></clipPath><clipPath id="l"><path d="M14 178h340v1H14zm0 0"/></clipPath><clipPath id="m"><path d="M14 135h340v2H14zm0 0"/></clipPath><clipPath id="n"><path d="M14 93h340v1H14zm0 0"/></clipPath><clipPath id="o"><path d="M14 50h340v2H14zm0 0"/></clipPath><clipPath id="p"><path d="M14 8.5h340V9H14zm0 0"/></clipPath><clipPath id="v"><path d="M14 33h171v230.5H14zm0 0"/></clipPath><clipPath id="w"><path d="M76 8.5h109v255H76zm0 0"/></clipPath><clipPath id="x"><path d="M14 185h144v78.5H14zm0 0"/></clipPath><clipPath id="y"><path d="M184 47h170v216.5H184zm0 0"/></clipPath><clipPath id="z"><path d="M198 162h156v101.5H198zm0 0"/></clipPath><symbol overflow="visible" id="q"><path style="stroke:none" d="M2.125-2.344H.344v.547h1.781zm0 0"/></symbol><symbol overflow="visible" id="r"><path style="stroke:none" d="M1.656-2.438h.36c.734 0 1.109.329 1.109.954 0 .671-.422 1.078-1.11 1.078-.718 0-1.078-.36-1.109-1.14H.234c.032.421.11.702.235.952.281.5.797.766 1.531.766 1.094 0 1.797-.656 1.797-1.656 0-.672-.266-1.047-.906-1.266.5-.203.75-.578.75-1.11 0-.906-.61-1.453-1.625-1.453-1.079 0-1.641.579-1.657 1.72h.657c0-.329.03-.516.109-.673.156-.296.484-.468.906-.468.578 0 .938.343.938.906 0 .375-.14.594-.438.719-.172.078-.406.109-.875.109zm0 0"/></symbol><symbol overflow="visible" id="s"><path style="stroke:none" d="M3.797-.656H1c.063-.438.313-.703.953-1.094l.75-.406c.75-.406 1.125-.953 1.125-1.594 0-.453-.172-.86-.484-1.14-.328-.298-.719-.423-1.219-.423-.672 0-1.172.235-1.469.688-.187.281-.265.61-.281 1.156h.656c.032-.36.078-.578.157-.75.171-.328.515-.515.921-.515.594 0 1.047.421 1.047.984 0 .422-.25.781-.719 1.063l-.687.39C.64-1.672.312-1.172.25 0h3.547zm0 0"/></symbol><symbol overflow="visible" id="t"><path style="stroke:none" d="M1.938-3.781V0h.671v-5.313h-.437c-.235.813-.39.922-1.406 1.047v.485zm0 0"/></symbol><symbol overflow="visible" id="u"><path style="stroke:none" d="M2.063-5.313c-.5 0-.938.22-1.22.579C.5-4.266.329-3.563.329-2.578c0 1.797.594 2.75 1.734 2.75 1.126 0 1.735-.953 1.735-2.703 0-1.031-.156-1.719-.516-2.203-.281-.375-.719-.579-1.219-.579zm0 .579c.718 0 1.062.718 1.062 2.14 0 1.516-.344 2.219-1.078 2.219C1.344-.375 1-1.109 1-2.563c0-1.453.344-2.171 1.063-2.171zm0 0"/></symbol></defs><path style="stroke:none;fill-rule:nonzero;fill:#fff;fill-opacity:1" d="M14 263.5h340V8.5H14zm0 0"/><g clip-path="url(#a)"><path style="fill:none;stroke-width:6.25;stroke-linecap:round;stroke-linejoin:miter;stroke:#bfbfbf;stroke-opacity:1;stroke-miterlimit:10" d="M1840 105v2550" transform="matrix(.1 0 0 -.1 0 274)"/></g><g clip-path="url(#b)"><path style="fill:none;stroke-width:6.25;stroke-linecap:round;stroke-linejoin:miter;stroke:#bfbfbf;stroke-opacity:1;stroke-miterlimit:10" d="M140 1380h3400" transform="matrix(.1 0 0 -.1 0 274)"/></g><g clip-path="url(#c)"><path style="fill:none;stroke-width:6.25;stroke-linecap:round;stroke-linejoin:miter;stroke:#bfbfbf;stroke-opacity:1;stroke-dasharray:12.5,18.75;stroke-miterlimit:10" d="M140 105v2550" transform="matrix(.1 0 0 -.1 0 274)"/></g><g clip-path="url(#d)"><path style="fill:none;stroke-width:6.25;stroke-linecap:round;stroke-linejoin:miter;stroke:#bfbfbf;stroke-opacity:1;stroke-dasharray:12.5,18.75;stroke-miterlimit:10" d="M706.68 105v2550" transform="matrix(.1 0 0 -.1 0 274)"/></g><g clip-path="url(#e)"><path style="fill:none;stroke-width:6.25;stroke-linecap:round;stroke-linejoin:miter;stroke:#bfbfbf;stroke-opacity:1;stroke-dasharray:12.5,18.75;stroke-miterlimit:10" d="M1273.32 105v2550" transform="matrix(.1 0 0 -.1 0 274)"/></g><g clip-path="url(#f)"><path style="fill:none;stroke-width:6.25;stroke-linecap:round;stroke-linejoin:miter;stroke:#bfbfbf;stroke-opacity:1;stroke-dasharray:12.5,18.75;stroke-miterlimit:10" d="M1840 105v2550" transform="matrix(.1 0 0 -.1 0 274)"/></g><g clip-path="url(#g)"><path style="fill:none;stroke-width:6.25;stroke-linecap:round;stroke-linejoin:miter;stroke:#bfbfbf;stroke-opacity:1;stroke-dasharray:12.5,18.75;stroke-miterlimit:10" d="M2406.68 105v2550" transform="matrix(.1 0 0 -.1 0 274)"/></g><g clip-path="url(#h)"><path style="fill:none;stroke-width:6.25;stroke-linecap:round;stroke-linejoin:miter;stroke:#bfbfbf;stroke-opacity:1;stroke-dasharray:12.5,18.75;stroke-miterlimit:10" d="M2973.32 105v2550" transform="matrix(.1 0 0 -.1 0 274)"/></g><g clip-path="url(#i)"><path style="fill:none;stroke-width:6.25;stroke-linecap:round;stroke-linejoin:miter;stroke:#bfbfbf;stroke-opacity:1;stroke-dasharray:12.5,18.75;stroke-miterlimit:10" d="M3540 105v2550" transform="matrix(.1 0 0 -.1 0 274)"/></g><g clip-path="url(#j)"><path style="fill:none;stroke-width:6.25;stroke-linecap:round;stroke-linejoin:miter;stroke:#bfbfbf;stroke-opacity:1;stroke-dasharray:12.5,18.75;stroke-miterlimit:10" d="M140 105h3400" transform="matrix(.1 0 0 -.1 0 274)"/></g><g clip-path="url(#k)"><path style="fill:none;stroke-width:6.25;stroke-linecap:round;stroke-linejoin:miter;stroke:#bfbfbf;stroke-opacity:1;stroke-dasharray:12.5,18.75;stroke-miterlimit:10" d="M140 530h3400" transform="matrix(.1 0 0 -.1 0 274)"/></g><g clip-path="url(#l)"><path style="fill:none;stroke-width:6.25;stroke-linecap:round;stroke-linejoin:miter;stroke:#bfbfbf;stroke-opacity:1;stroke-dasharray:12.5,18.75;stroke-miterlimit:10" d="M140 955h3400" transform="matrix(.1 0 0 -.1 0 274)"/></g><g clip-path="url(#m)"><path style="fill:none;stroke-width:6.25;stroke-linecap:round;stroke-linejoin:miter;stroke:#bfbfbf;stroke-opacity:1;stroke-dasharray:12.5,18.75;stroke-miterlimit:10" d="M140 1380h3400" transform="matrix(.1 0 0 -.1 0 274)"/></g><g clip-path="url(#n)"><path style="fill:none;stroke-width:6.25;stroke-linecap:round;stroke-linejoin:miter;stroke:#bfbfbf;stroke-opacity:1;stroke-dasharray:12.5,18.75;stroke-miterlimit:10" d="M140 1805h3400" transform="matrix(.1 0 0 -.1 0 274)"/></g><g clip-path="url(#o)"><path style="fill:none;stroke-width:6.25;stroke-linecap:round;stroke-linejoin:miter;stroke:#bfbfbf;stroke-opacity:1;stroke-dasharray:12.5,18.75;stroke-miterlimit:10" d="M140 2230h3400" transform="matrix(.1 0 0 -.1 0 274)"/></g><g clip-path="url(#p)"><path style="fill:none;stroke-width:6.25;stroke-linecap:round;stroke-linejoin:miter;stroke:#bfbfbf;stroke-opacity:1;stroke-dasharray:12.5,18.75;stroke-miterlimit:10" d="M140 2655h3400" transform="matrix(.1 0 0 -.1 0 274)"/></g><path style="fill:none;stroke-width:12.5;stroke-linecap:square;stroke-linejoin:miter;stroke:#000;stroke-opacity:1;stroke-miterlimit:10" d="M140 105h3400" transform="matrix(.1 0 0 -.1 0 274)"/><path style="fill:none;stroke-width:6.25;stroke-linecap:butt;stroke-linejoin:miter;stroke:#000;stroke-opacity:1;stroke-miterlimit:10" d="M140 105v50m56.68-50v25m56.64-25v25M310 105v25m56.68-25v25m56.64-25v25M480 105v25m56.68-25v25m56.64-25v25M650 105v25m56.68-25v50m56.64-50v25M820 105v25m56.68-25v25m56.64-25v25M990 105v25m56.68-25v25m56.64-25v25m56.68-25v25m56.68-25v25m56.64-25v50m56.68-50v25m56.68-25v25m56.64-25v25m56.68-25v25m56.68-25v25m56.64-25v25m56.68-25v25m56.68-25v25m56.64-25v25m56.68-25v50m56.68-50v25m56.64-25v25m56.68-25v25m56.68-25v25m56.64-25v25m56.68-25v25m56.68-25v25m56.64-25v25m56.68-25v25m56.68-25v50m56.64-50v25m56.68-25v25m56.68-25v25m56.64-25v25m56.68-25v25m56.68-25v25m56.64-25v25m56.68-25v25m56.68-25v25m56.64-25v50m56.68-50v25m56.68-25v25m56.64-25v25m56.68-25v25m56.68-25v25m56.64-25v25m56.68-25v25m56.68-25v25m56.64-25v25m56.68-25v50" transform="matrix(.1 0 0 -.1 0 274)"/><g style="fill:#000;fill-opacity:1"><use xlink:href="#q" x="10.041" y="273.5"/><use xlink:href="#r" x="12.539" y="273.5"/></g><g style="fill:#000;fill-opacity:1"><use xlink:href="#q" x="66.916" y="273.5"/><use xlink:href="#s" x="69.414" y="273.5"/></g><g style="fill:#000;fill-opacity:1"><use xlink:href="#q" x="123.791" y="273.5"/><use xlink:href="#t" x="126.289" y="273.5"/></g><use xlink:href="#u" x="181.915" y="273.5" style="fill:#000;fill-opacity:1"/><use xlink:href="#t" x="238.165" y="273.5" style="fill:#000;fill-opacity:1"/><use xlink:href="#s" x="295.04" y="273.5" style="fill:#000;fill-opacity:1"/><use xlink:href="#r" x="351.915" y="273.5" style="fill:#000;fill-opacity:1"/><path style="fill:none;stroke-width:12.5;stroke-linecap:square;stroke-linejoin:miter;stroke:#000;stroke-opacity:1;stroke-miterlimit:10" d="M140 2655h3400" transform="matrix(.1 0 0 -.1 0 274)"/><path style="fill:none;stroke-width:6.25;stroke-linecap:butt;stroke-linejoin:miter;stroke:#000;stroke-opacity:1;stroke-miterlimit:10" d="M140 2655v-50m56.68 50v-25m56.64 25v-25m56.68 25v-25m56.68 25v-25m56.64 25v-25m56.68 25v-25m56.68 25v-25m56.64 25v-25m56.68 25v-25m56.68 25v-50m56.64 50v-25m56.68 25v-25m56.68 25v-25m56.64 25v-25m56.68 25v-25m56.68 25v-25m56.64 25v-25m56.68 25v-25m56.68 25v-25m56.64 25v-50m56.68 50v-25m56.68 25v-25m56.64 25v-25m56.68 25v-25m56.68 25v-25m56.64 25v-25m56.68 25v-25m56.68 25v-25m56.64 25v-25m56.68 25v-50m56.68 50v-25m56.64 25v-25m56.68 25v-25m56.68 25v-25m56.64 25v-25m56.68 25v-25m56.68 25v-25m56.64 25v-25m56.68 25v-25m56.68 25v-50m56.64 50v-25m56.68 25v-25m56.68 25v-25m56.64 25v-25m56.68 25v-25m56.68 25v-25m56.64 25v-25m56.68 25v-25m56.68 25v-25m56.64 25v-50m56.68 50v-25m56.68 25v-25m56.64 25v-25m56.68 25v-25m56.68 25v-25m56.64 25v-25m56.68 25v-25m56.68 25v-25m56.64 25v-25m56.68 25v-50" transform="matrix(.1 0 0 -.1 0 274)"/><g style="fill:#000;fill-opacity:1"><use xlink:href="#q" x="10.041" y="5.375"/><use xlink:href="#r" x="12.539" y="5.375"/></g><g style="fill:#000;fill-opacity:1"><use xlink:href="#q" x="66.916" y="5.375"/><use xlink:href="#s" x="69.414" y="5.375"/></g><g style="fill:#000;fill-opacity:1"><use xlink:href="#q" x="123.791" y="5.375"/><use xlink:href="#t" x="126.289" y="5.375"/></g><use xlink:href="#u" x="181.915" y="5.375" style="fill:#000;fill-opacity:1"/><use xlink:href="#t" x="238.165" y="5.375" style="fill:#000;fill-opacity:1"/><use xlink:href="#s" x="295.04" y="5.375" style="fill:#000;fill-opacity:1"/><use xlink:href="#r" x="351.915" y="5.375" style="fill:#000;fill-opacity:1"/><path style="fill:none;stroke-width:12.5;stroke-linecap:square;stroke-linejoin:miter;stroke:#000;stroke-opacity:1;stroke-miterlimit:10" d="M140 105v2550" transform="matrix(.1 0 0 -.1 0 274)"/><path style="fill:none;stroke-width:6.25;stroke-linecap:butt;stroke-linejoin:miter;stroke:#000;stroke-opacity:1;stroke-miterlimit:10" d="M140 105h50m-50 42.5h25M140 190h25m-25 42.5h25M140 275h25m-25 42.5h25M140 360h25m-25 42.5h25M140 445h25m-25 42.5h25M140 530h50m-50 42.5h25M140 615h25m-25 42.5h25M140 700h25m-25 42.5h25M140 785h25m-25 42.5h25M140 870h25m-25 42.5h25M140 955h50m-50 42.5h25m-25 42.5h25m-25 42.5h25m-25 42.5h25m-25 42.5h25m-25 42.5h25m-25 42.5h25m-25 42.5h25m-25 42.5h25m-25 42.5h50m-50 42.5h25m-25 42.5h25m-25 42.5h25m-25 42.5h25m-25 42.5h25m-25 42.5h25m-25 42.5h25m-25 42.5h25m-25 42.5h25m-25 42.5h50m-50 42.5h25m-25 42.5h25m-25 42.5h25m-25 42.5h25m-25 42.5h25m-25 42.5h25m-25 42.5h25m-25 42.5h25m-25 42.5h25m-25 42.5h50m-50 42.5h25m-25 42.5h25m-25 42.5h25m-25 42.5h25m-25 42.5h25m-25 42.5h25m-25 42.5h25m-25 42.5h25m-25 42.5h25m-25 42.5h50" transform="matrix(.1 0 0 -.1 0 274)"/><g style="fill:#000;fill-opacity:1"><use xlink:href="#q" x=".458" y="267.25"/><use xlink:href="#r" x="2.955" y="267.25"/></g><g style="fill:#000;fill-opacity:1"><use xlink:href="#q" x=".458" y="224.125"/><use xlink:href="#s" x="2.955" y="224.125"/></g><g style="fill:#000;fill-opacity:1"><use xlink:href="#q" x=".458" y="182.25"/><use xlink:href="#t" x="2.955" y="182.25"/></g><use xlink:href="#u" x="2.955" y="139.125" style="fill:#000;fill-opacity:1"/><use xlink:href="#t" x="2.955" y="97.25" style="fill:#000;fill-opacity:1"/><use xlink:href="#s" x="2.955" y="54.125" style="fill:#000;fill-opacity:1"/><use xlink:href="#r" x="2.955" y="11.625" style="fill:#000;fill-opacity:1"/><path style="fill:none;stroke-width:12.5;stroke-linecap:square;stroke-linejoin:miter;stroke:#000;stroke-opacity:1;stroke-miterlimit:10" d="M3540 105v2550" transform="matrix(.1 0 0 -.1 0 274)"/><path style="fill:none;stroke-width:6.25;stroke-linecap:butt;stroke-linejoin:miter;stroke:#000;stroke-opacity:1;stroke-miterlimit:10" d="M3540 105h-50m50 42.5h-25m25 42.5h-25m25 42.5h-25m25 42.5h-25m25 42.5h-25m25 42.5h-25m25 42.5h-25m25 42.5h-25m25 42.5h-25m25 42.5h-50m50 42.5h-25m25 42.5h-25m25 42.5h-25m25 42.5h-25m25 42.5h-25m25 42.5h-25m25 42.5h-25m25 42.5h-25m25 42.5h-25m25 42.5h-50m50 42.5h-25m25 42.5h-25m25 42.5h-25m25 42.5h-25m25 42.5h-25m25 42.5h-25m25 42.5h-25m25 42.5h-25m25 42.5h-25m25 42.5h-50m50 42.5h-25m25 42.5h-25m25 42.5h-25m25 42.5h-25m25 42.5h-25m25 42.5h-25m25 42.5h-25m25 42.5h-25m25 42.5h-25m25 42.5h-50m50 42.5h-25m25 42.5h-25m25 42.5h-25m25 42.5h-25m25 42.5h-25m25 42.5h-25m25 42.5h-25m25 42.5h-25m25 42.5h-25m25 42.5h-50m50 42.5h-25m25 42.5h-25m25 42.5h-25m25 42.5h-25m25 42.5h-25m25 42.5h-25m25 42.5h-25m25 42.5h-25m25 42.5h-25m25 42.5h-50" transform="matrix(.1 0 0 -.1 0 274)"/><g style="fill:#000;fill-opacity:1"><use xlink:href="#q" x="360.25" y="267.25"/><use xlink:href="#r" x="362.748" y="267.25"/></g><g style="fill:#000;fill-opacity:1"><use xlink:href="#q" x="360.25" y="224.125"/><use xlink:href="#s" x="362.748" y="224.125"/></g><g style="fill:#000;fill-opacity:1"><use xlink:href="#q" x="360.25" y="182.25"/><use xlink:href="#t" x="362.748" y="182.25"/></g><use xlink:href="#u" x="360.25" y="139.125" style="fill:#000;fill-opacity:1"/><use xlink:href="#t" x="360.25" y="97.25" style="fill:#000;fill-opacity:1"/><use xlink:href="#s" x="360.25" y="54.125" style="fill:#000;fill-opacity:1"/><use xlink:href="#r" x="360.25" y="11.625" style="fill:#000;fill-opacity:1"/><path style="fill:none;stroke-width:6.25;stroke-linecap:round;stroke-linejoin:miter;stroke:#00f;stroke-opacity:1;stroke-miterlimit:10" d="m175.664 181.719 98.672-25.938m0 0h0m-98.672 153.438 98.672-25.938m0 0h0m-98.672 153.438 98.672-25.938m0 0h0m-98.672 153.438 98.672-25.938m0 0h0m-98.672 153.438 98.672-25.938m0 0h0m-98.672 153.438 98.672-25.938m0 0h0m-98.672 153.438 98.672-25.938m0 0h0m-98.672 153.438 98.672-25.938m0 0h0m-98.672 153.438 98.672-25.938m0 0h0m-98.672 153.438 98.672-25.938m0 0h0m-98.672 153.438 98.672-25.938m0 0h0m-98.672 153.438 98.672-25.938m0 0h0m-98.672 153.438 98.672-25.938m0 0h0m-98.672 153.438 98.672-25.938m0 0h0m-98.672 153.438 98.672-25.938m0 0h0m-98.672 153.438 98.672-25.938m0 0h0m-98.672 153.438 98.672-25.938m0 0h0m-98.672 153.438 98.672-25.938m0 0h0m-98.672 153.438 98.672-25.938m0 0h0m-98.672 153.438 98.672-25.938m0 0h0m71.719-2395.156 97.89-28.75m0 0h0m-97.89 156.25 97.89-28.75m0 0h0m-97.89 156.25 97.89-28.75m0 0h0m-97.89 156.25 97.89-28.75m0 0h0m-97.89 156.25 97.89-28.75m0 0h0m-97.89 156.25 97.89-28.75m0 0h0m-97.89 156.25 97.89-28.75m0 0h0m-97.89 156.25 97.89-28.75m0 0h0m-97.89 156.25 97.89-28.75m0 0h0m-97.89 156.25 97.89-28.75m0 0h0m-97.89 156.25 97.89-28.75m0 0h0m-97.89 156.25 97.89-28.75m0 0h0m-97.89 156.25 97.89-28.75m0 0h0m-97.89 156.25 97.89-28.75m0 0h0m-97.89 156.25 97.89-28.75m0 0h0m-97.89 156.25 97.89-28.75m0 0h0m-97.89 156.25 97.89-28.75m0 0h0m-97.89 156.25 97.89-28.75m0 0h0m-97.89 156.25 97.89-28.75m0 0h0m-97.89 156.25 97.89-28.75m0 0h0m72.657-2391.992 96.796-32.266m0 0h0m-96.796 159.766 96.796-32.266m0 0h0m-96.796 159.766 96.796-32.266m0 0h0m-96.796 159.766 96.796-32.266m0 0h0m-96.796 159.766 96.796-32.266m0 0h0m-96.796 159.766 96.796-32.266m0 0h0m-96.796 159.766 96.796-32.266m0 0h0m-96.796 159.766 96.796-32.266m0 0h0m-96.796 159.766 96.796-32.266m0 0h0m-96.796 159.766 96.796-32.266m0 0h0m-96.796 159.766 96.796-32.266m0 0h0m-96.796 159.766 96.796-32.266m0 0h0m-96.796 159.766 96.796-32.266m0 0h0m-96.796 159.766 96.796-32.266m0 0h0m-96.796 159.766 96.796-32.266m0 0h0m-96.796 159.766 96.796-32.266m0 0h0m-96.796 159.766 96.796-32.266m0 0h0m-96.796 159.766 96.796-32.266m0 0h0m-96.796 159.766 96.796-32.266m0 0h0m-96.796 159.766 96.796-32.266m0 0h0M687.383 187.07l95.234-36.64m0 0h0m-95.234 164.14 95.234-36.64m0 0h0m-95.234 164.14 95.234-36.64m0 0h0m-95.234 164.14 95.234-36.64m0 0h0m-95.234 164.14 95.234-36.64m0 0h0m-95.234 164.14 95.234-36.64m0 0h0m-95.234 164.14 95.234-36.64m0 0h0m-95.234 164.101 95.234-36.562m0 0h0m-95.234 164.062 95.234-36.562m0 0h0m-95.234 164.062 95.234-36.562m0 0h0m-95.234 164.062 95.234-36.562m0 0h0m-95.234 164.062 95.234-36.562m0 0h0m-95.234 164.062 95.234-36.562m0 0h0m-95.234 164.062 95.234-36.562m0 0h0m-95.234 164.062 95.234-36.562m0 0h0m-95.234 164.062 95.234-36.562m0 0h0m-95.234 164.062 95.234-36.562m0 0h0m-95.234 164.101 95.234-36.64m0 0h0m-95.234 164.14 95.234-36.64m0 0h0m-95.234 164.14 95.234-36.64m0 0h0m75.938-2383.086 92.89-42.188m0 0h0m-92.89 169.688 92.89-42.188m0 0h0m-92.89 169.688 92.89-42.188m0 0h0m-92.89 169.688 92.89-42.188m0 0h0m-92.89 169.688 92.89-42.188m0 0h0m-92.89 169.688 92.89-42.188m0 0h0m-92.89 169.688 92.89-42.188m0 0h0m-92.89 169.688 92.89-42.188m0 0h0m-92.89 169.688 92.89-42.188m0 0h0m-92.89 169.688 92.89-42.188m0 0h0m-92.89 169.688 92.89-42.188m0 0h0m-92.89 169.688 92.89-42.188m0 0h0m-92.89 169.688 92.89-42.188m0 0h0m-92.89 169.688 92.89-42.188m0 0h0m-92.89 169.688 92.89-42.188m0 0h0m-92.89 169.688 92.89-42.188m0 0h0m-92.89 169.688 92.89-42.188m0 0h0m-92.89 169.688 92.89-42.188m0 0h0m-92.89 169.688 92.89-42.188m0 0h0m-92.89 169.688 92.89-42.188m0 0h0m78.985-2376.64 89.14-49.532m0 0h0m-89.14 177.032 89.14-49.532m0 0h0m-89.14 177.032 89.14-49.532m0 0h0m-89.14 177.032 89.14-49.532m0 0h0m-89.14 177.032 89.14-49.532m0 0h0m-89.14 177.032 89.14-49.532m0 0h0m-89.14 177.032 89.14-49.532m0 0h0m-89.14 177.032 89.14-49.532m0 0h0m-89.14 177.032 89.14-49.532m0 0h0m-89.14 177.032 89.14-49.532m0 0h0m-89.14 177.032 89.14-49.532m0 0h0m-89.14 177.032 89.14-49.532m0 0h0m-89.14 177.032 89.14-49.532m0 0h0m-89.14 177.032 89.14-49.532m0 0h0m-89.14 177.032 89.14-49.532m0 0h0m-89.14 177.032 89.14-49.532m0 0h0m-89.14 177.032 89.14-49.532m0 0h0m-89.14 177.032 89.14-49.532m0 0h0m-89.14 177.032 89.14-49.532m0 0h0m-89.14 177.032 89.14-49.532m0 0h0m83.946-2368.086 82.968-59.296m0 0h0m-82.968 186.796 82.968-59.296m0 0h0m-82.968 186.796 82.968-59.296m0 0h0m-82.968 186.796 82.968-59.296m0 0h0m-82.968 186.796 82.968-59.296m0 0h0m-82.968 186.796 82.968-59.296m0 0h0m-82.968 186.796 82.968-59.296m0 0h0m-82.968 186.796 82.968-59.296m0 0h0m-82.968 186.796 82.968-59.296m0 0h0m-82.968 186.796 82.968-59.296m0 0h0m-82.968 186.796 82.968-59.296m0 0h0m-82.968 186.796 82.968-59.296m0 0h0m-82.968 186.796 82.968-59.296m0 0h0m-82.968 186.796 82.968-59.296m0 0h0m-82.968 186.796 82.968-59.296m0 0h0m-82.968 186.796 82.968-59.296m0 0h0m-82.968 186.796 82.968-59.296m0 0h0m-82.968 186.796 82.968-59.296m0 0h0m-82.968 186.796 82.968-59.296m0 0h0m-82.968 186.796 82.968-59.296m0 0h0m92.461-2356.797 72.11-72.11m0 0h0m-72.11 199.61 72.11-72.11m0 0h0m-72.11 199.61 72.11-72.11m0 0h0m-72.11 199.61 72.11-72.11m0 0h0m-72.11 199.61 72.11-72.11m0 0h0m-72.11 199.61 72.11-72.11m0 0h0m-72.11 199.61 72.11-72.11m0 0h0m-72.11 199.61 72.11-72.11m0 0h0m-72.11 199.61 72.11-72.11m0 0h0m-72.11 199.61 72.11-72.11m0 0h0m-72.11 199.61 72.11-72.11m0 0h0m-72.11 199.61 72.11-72.11m0 0h0m-72.11 199.61 72.11-72.11m0 0h0m-72.11 199.61 72.11-72.11m0 0h0m-72.11 199.61 72.11-72.11m0 0h0m-72.11 199.61 72.11-72.11m0 0h0m-72.11 199.61 72.11-72.11m0 0h0m-72.11 199.61 72.11-72.11m0 0h0m-72.11 199.61 72.11-72.11m0 0h0m-72.11 199.61 72.11-72.11m0 0h0M1558.75 212.46l52.5-87.42m0 0h0m-52.5 214.92 52.5-87.42m0 0h0m-52.5 214.92 52.5-87.42m0 0h0m-52.5 214.92 52.5-87.42m0 0h0m-52.5 214.92 52.5-87.42m0 0h0m-52.5 214.92 52.5-87.42m0 0h0m-52.5 214.92 52.5-87.42m0 0h0m-52.5 214.92 52.5-87.42m0 0h0m-52.5 214.92 52.5-87.42m0 0h0m-52.5 214.92 52.5-87.42m0 0h0m-52.5 214.92 52.5-87.42m0 0h0m-52.5 214.92 52.5-87.42m0 0h0m-52.5 214.92 52.5-87.42m0 0h0m-52.5 214.92 52.5-87.42m0 0h0m-52.5 214.92 52.5-87.42m0 0h0m-52.5 214.92 52.5-87.42m0 0h0m-52.5 214.92 52.5-87.42m0 0h0m-52.5 214.92 52.5-87.42m0 0h0m-52.5 214.92 52.5-87.42m0 0h0m-52.5 214.92 52.5-87.42m0 0h0M1745 218.75l20-100m0 0h0m-20 227.5 20-100m0 0h0m-20 227.5 20-100m0 0h0m-20 227.5 20-100m0 0h0m-20 227.5 20-100m0 0h0m-20 227.5 20-100m0 0h0m-20 227.5 20-100m0 0h0m-20 227.5 20-100m0 0h0m-20 227.5 20-100m0 0h0m-20 227.5 20-100m0 0h0m-20 227.5 20-100m0 0h0m-20 227.5 20-100m0 0h0m-20 227.5 20-100m0 0h0m-20 227.5 20-100m0 0h0m-20 227.5 20-100m0 0h0m-20 227.5 20-100m0 0h0m-20 227.5 20-100m0 0h0m-20 227.5 20-100m0 0h0m-20 227.5 20-100m0 0h0m-20 227.5 20-100m0 0h0m150-2422.5 20 100m0 0h0m-20 27.5 20 100m0 0h0m-20 27.5 20 100m0 0h0m-20 27.5 20 100m0 0h0m-20 27.5 20 100m0 0h0m-20 27.5 20 100m0 0h0m-20 27.5 20 100m0 0h0m-20 27.5 20 100m0 0h0m-20 27.5 20 100m0 0h0m-20 27.5 20 100m0 0h0m-20 27.5 20 100m0 0h0m-20 27.5 20 100m0 0h0m-20 27.5 20 100m0 0h0m-20 27.5 20 100m0 0h0m-20 27.5 20 100m0 0h0m-20 27.5 20 100m0 0h0m-20 27.5 20 100m0 0h0m-20 27.5 20 100m0 0h0m-20 27.5 20 100m0 0h0m-20 27.5 20 100m0 0h0m133.75-2516.21 52.5 87.42m0 0h0m-52.5 40.08 52.5 87.42m0 0h0m-52.5 40.08 52.5 87.42m0 0h0m-52.5 40.08 52.5 87.42m0 0h0m-52.5 40.08 52.5 87.42m0 0h0m-52.5 40.08 52.5 87.42m0 0h0m-52.5 40.08 52.5 87.42m0 0h0m-52.5 40.08 52.5 87.42m0 0h0m-52.5 40.08 52.5 87.42m0 0h0m-52.5 40.08 52.5 87.42m0 0h0m-52.5 40.08 52.5 87.42m0 0h0m-52.5 40.08 52.5 87.42m0 0h0m-52.5 40.08 52.5 87.42m0 0h0m-52.5 40.08 52.5 87.42m0 0h0m-52.5 40.08 52.5 87.42m0 0h0m-52.5 40.08 52.5 87.42m0 0h0m-52.5 40.08 52.5 87.42m0 0h0m-52.5 40.08 52.5 87.42m0 0h0m-52.5 40.08 52.5 87.42m0 0h0m-52.5 40.08 52.5 87.42m0 0h0m107.695-2502.265 72.11 72.11m0 0h0m-72.11 55.39 72.11 72.11m0 0h0m-72.11 55.39 72.11 72.11m0 0h0m-72.11 55.39 72.11 72.11m0 0h0m-72.11 55.39 72.11 72.11m0 0h0m-72.11 55.39 72.11 72.11m0 0h0m-72.11 55.39 72.11 72.11m0 0h0m-72.11 55.39 72.11 72.11m0 0h0m-72.11 55.39 72.11 72.11m0 0h0m-72.11 55.39 72.11 72.11m0 0h0m-72.11 55.39 72.11 72.11m0 0h0m-72.11 55.39 72.11 72.11m0 0h0m-72.11 55.39 72.11 72.11m0 0h0m-72.11 55.39 72.11 72.11m0 0h0m-72.11 55.39 72.11 72.11m0 0h0m-72.11 55.39 72.11 72.11m0 0h0m-72.11 55.39 72.11 72.11m0 0h0m-72.11 55.39 72.11 72.11m0 0h0m-72.11 55.39 72.11 72.11m0 0h0m-72.11 55.39 72.11 72.11m0 0h0m92.461-2488.203 82.968 59.296m0 0h0m-82.968 68.204 82.968 59.296m0 0h0m-82.968 68.204 82.968 59.296m0 0h0m-82.968 68.204 82.968 59.296m0 0h0m-82.968 68.204 82.968 59.296m0 0h0m-82.968 68.204 82.968 59.296m0 0h0m-82.968 68.204 82.968 59.296m0 0h0m-82.968 68.204 82.968 59.296m0 0h0m-82.968 68.204 82.968 59.296m0 0h0m-82.968 68.204 82.968 59.296m0 0h0m-82.968 68.204 82.968 59.296m0 0h0m-82.968 68.204 82.968 59.296m0 0h0m-82.968 68.204 82.968 59.296m0 0h0m-82.968 68.204 82.968 59.296m0 0h0m-82.968 68.204 82.968 59.296m0 0h0m-82.968 68.204 82.968 59.296m0 0h0m-82.968 68.204 82.968 59.296m0 0h0m-82.968 68.204 82.968 59.296m0 0h0m-82.968 68.204 82.968 59.296m0 0h0m-82.968 68.204 82.968 59.296m0 0h0m83.946-2476.914 89.14 49.532m0 0h0m-89.14 77.968 89.14 49.532m0 0h0m-89.14 77.968 89.14 49.532m0 0h0m-89.14 77.968 89.14 49.532m0 0h0m-89.14 77.968 89.14 49.532m0 0h0m-89.14 77.968 89.14 49.532m0 0h0m-89.14 77.968 89.14 49.532m0 0h0m-89.14 77.968 89.14 49.532m0 0h0m-89.14 77.968 89.14 49.532m0 0h0m-89.14 77.968 89.14 49.532m0 0h0m-89.14 77.968 89.14 49.532m0 0h0m-89.14 77.968 89.14 49.532m0 0h0m-89.14 77.968 89.14 49.532m0 0h0m-89.14 77.968 89.14 49.532m0 0h0m-89.14 77.968 89.14 49.532m0 0h0m-89.14 77.968 89.14 49.532m0 0h0m-89.14 77.968 89.14 49.532m0 0h0m-89.14 77.968 89.14 49.532m0 0h0m-89.14 77.968 89.14 49.532m0 0h0m-89.14 77.968 89.14 49.532m0 0h0m78.985-2468.36 92.89 42.188m0 0h0m-92.89 85.312 92.89 42.188m0 0h0m-92.89 85.312 92.89 42.188m0 0h0m-92.89 85.312 92.89 42.188m0 0h0m-92.89 85.312 92.89 42.188m0 0h0m-92.89 85.312 92.89 42.188m0 0h0m-92.89 85.312 92.89 42.188m0 0h0m-92.89 85.312 92.89 42.188m0 0h0m-92.89 85.312 92.89 42.188m0 0h0m-92.89 85.312 92.89 42.188m0 0h0m-92.89 85.312 92.89 42.188m0 0h0m-92.89 85.312 92.89 42.188m0 0h0m-92.89 85.312 92.89 42.188m0 0h0m-92.89 85.312 92.89 42.188m0 0h0m-92.89 85.312 92.89 42.188m0 0h0m-92.89 85.312 92.89 42.188m0 0h0m-92.89 85.312 92.89 42.188m0 0h0m-92.89 85.312 92.89 42.188m0 0h0m-92.89 85.312 92.89 42.188m0 0h0m-92.89 85.312 92.89 42.188m0 0h0m75.938-2461.914 95.234 36.64m0 0h0m-95.234 90.86 95.234 36.64m0 0h0m-95.234 90.86 95.234 36.64m0 0h0m-95.234 90.86 95.234 36.64m0 0h0m-95.234 90.86 95.234 36.64m0 0h0m-95.234 90.86 95.234 36.64m0 0h0m-95.234 90.86 95.234 36.64m0 0h0m-95.234 90.899 95.234 36.562m0 0h0m-95.234 90.938 95.234 36.562m0 0h0m-95.234 90.938 95.234 36.562m0 0h0m-95.234 90.938 95.234 36.562m0 0h0m-95.234 90.938 95.234 36.562m0 0h0m-95.234 90.938 95.234 36.562m0 0h0m-95.234 90.938 95.234 36.562m0 0h0m-95.234 90.938 95.234 36.562m0 0h0m-95.234 90.938 95.234 36.562m0 0h0m-95.234 90.938 95.234 36.562m0 0h0m-95.234 90.899 95.234 36.64m0 0h0m-95.234 90.86 95.234 36.64m0 0h0m-95.234 90.86 95.234 36.64m0 0h0m73.985-2456.953 96.796 32.266m0 0h0m-96.796 95.234 96.796 32.266m0 0h0m-96.796 95.234 96.796 32.266m0 0h0m-96.796 95.234 96.796 32.266m0 0h0m-96.796 95.234 96.796 32.266m0 0h0m-96.796 95.234 96.796 32.266m0 0h0m-96.796 95.234 96.796 32.266m0 0h0m-96.796 95.234 96.796 32.266m0 0h0m-96.796 95.234 96.796 32.266m0 0h0m-96.796 95.234 96.796 32.266m0 0h0m-96.796 95.234 96.796 32.266m0 0h0m-96.796 95.234 96.796 32.266m0 0h0m-96.796 95.234 96.796 32.266m0 0h0m-96.796 95.234 96.796 32.266m0 0h0m-96.796 95.234 96.796 32.266m0 0h0m-96.796 95.234 96.796 32.266m0 0h0m-96.796 95.234 96.796 32.266m0 0h0m-96.796 95.234 96.796 32.266m0 0h0m-96.796 95.234 96.796 32.266m0 0h0m-96.796 95.234 96.796 32.266m0 0h0m72.657-2453.008 97.89 28.75m0 0h0m-97.89 98.75 97.89 28.75m0 0h0m-97.89 98.75 97.89 28.75m0 0h0m-97.89 98.75 97.89 28.75m0 0h0m-97.89 98.75 97.89 28.75m0 0h0m-97.89 98.75 97.89 28.75m0 0h0m-97.89 98.75 97.89 28.75m0 0h0m-97.89 98.75 97.89 28.75m0 0h0m-97.89 98.75 97.89 28.75m0 0h0m-97.89 98.75 97.89 28.75m0 0h0m-97.89 98.75 97.89 28.75m0 0h0m-97.89 98.75 97.89 28.75m0 0h0m-97.89 98.75 97.89 28.75m0 0h0m-97.89 98.75 97.89 28.75m0 0h0m-97.89 98.75 97.89 28.75m0 0h0m-97.89 98.75 97.89 28.75m0 0h0m-97.89 98.75 97.89 28.75m0 0h0m-97.89 98.75 97.89 28.75m0 0h0m-97.89 98.75 97.89 28.75m0 0h0m-97.89 98.75 97.89 28.75m0 0h0m71.719-2449.844 98.672 25.938m0 0h0m-98.672 101.562 98.672 25.938m0 0h0m-98.672 101.562 98.672 25.938m0 0h0m-98.672 101.562 98.672 25.938m0 0h0m-98.672 101.562 98.672 25.938m0 0h0m-98.672 101.562 98.672 25.938m0 0h0m-98.672 101.562 98.672 25.938m0 0h0m-98.672 101.562 98.672 25.938m0 0h0m-98.672 101.562 98.672 25.938m0 0h0m-98.672 101.562 98.672 25.938m0 0h0m-98.672 101.562 98.672 25.938m0 0h0m-98.672 101.562 98.672 25.938m0 0h0m-98.672 101.562 98.672 25.938m0 0h0m-98.672 101.562 98.672 25.938m0 0h0m-98.672 101.562 98.672 25.938m0 0h0m-98.672 101.562 98.672 25.938m0 0h0m-98.672 101.562 98.672 25.938m0 0h0m-98.672 101.562 98.672 25.938m0 0h0m-98.672 101.562 98.672 25.938m0 0h0m-98.672 101.562 98.672 25.938m0 0h0" transform="matrix(.1 0 0 -.1 0 274)"/><g clip-path="url(#v)"><path style="fill:none;stroke-width:12.5;stroke-linecap:round;stroke-linejoin:round;stroke:red;stroke-opacity:1;stroke-miterlimit:10" d="m136.836 2396.992 33.984-8.555 11.368-2.89 22.656-5.86 22.656-5.937 22.656-6.016 22.656-6.093 11.368-3.086 22.656-6.25 22.656-6.328 11.328-3.204 11.368-3.242 22.656-6.484 22.656-6.64 22.656-6.72 11.328-3.398 11.329-3.477 11.367-3.437 11.328-3.477 11.328-3.554 11.328-3.516 11.328-3.594 11.328-3.632 11.368-3.633 11.328-3.633 11.328-3.711 22.656-7.5 22.656-7.656 11.328-3.867 11.328-3.907 11.368-3.945 11.328-3.984 22.656-8.047 11.328-4.102 11.328-4.14 11.367-4.18 11.329-4.219 11.328-4.258 11.328-4.297 22.656-8.75 22.656-8.906 11.328-4.531 11.368-4.61 11.328-4.609 11.328-4.687 11.328-4.727 11.328-4.805 11.328-4.843 11.367-4.883 11.329-4.961 11.328-5 11.328-5.078 11.328-5.156 11.328-5.196 11.328-5.234 11.328-5.352 11.328-5.39 11.368-5.47 11.328-5.546 11.328-5.586 11.328-5.664 11.328-5.781 11.328-5.82 11.367-5.938 11.329-6.016 11.328-6.093 11.328-6.172 11.328-6.25 11.328-6.367 11.328-6.485 11.328-6.562 11.329-6.64 11.367-6.798 11.328-6.875 11.328-6.992 11.328-7.11 11.328-7.226 11.328-7.344 11.368-7.5 11.328-7.617 11.328-7.734 11.328-7.93 11.328-8.047 11.328-8.203 11.328-8.36 11.328-8.554 11.329-8.71 11.367-8.907 11.328-9.063 11.328-9.297 11.328-9.492 11.328-9.687 11.328-9.961 11.368-10.156 11.328-10.43 11.328-10.664 11.328-10.977 11.328-11.25 11.328-11.562 11.328-11.875 11.328-12.227 11.329-12.578 11.367-12.969 11.328-13.36 11.328-13.827 11.328-14.258 11.328-14.766 11.328-15.312 11.368-15.86 11.328-16.523 11.328-17.148 11.328-17.852 11.328-18.672 11.328-19.531 11.328-20.43 11.328-21.484 11.329-22.656 11.367-23.907 11.328-25.351 11.328-26.914 11.328-28.79 11.328-30.859 11.328-33.28 11.368-36.095 11.328-39.453 11.328-43.476 11.328-48.477 11.328-54.726 11.328-62.774 11.328-73.75 11.328-89.219 11.329-113.125 11.367-154.61 11.328-245.663 11.328-672.422" transform="matrix(.1 0 0 -.1 0 274)"/></g><g clip-path="url(#w)"><path style="fill:none;stroke-width:12.5;stroke-linecap:round;stroke-linejoin:round;stroke:red;stroke-opacity:1;stroke-miterlimit:10" d="m772.266 2656.992 11.328-4.531 11.328-4.57 11.328-4.649 11.328-4.687 11.328-4.727 22.657-9.61 11.367-4.921 11.328-4.961 11.328-5 11.328-5.078 11.328-5.156 11.328-5.196 11.367-5.273 11.329-5.352 11.328-5.39 11.328-5.47 11.328-5.507 11.328-5.625 11.328-5.703 11.328-5.742 11.328-5.86 11.368-5.937 11.328-6.016 11.328-6.093 11.328-6.172 11.328-6.29 11.328-6.367 11.368-6.445 11.328-6.562 11.328-6.68 11.328-6.797 11.328-6.875 11.328-6.992 11.328-7.11 11.328-7.265 11.329-7.344 11.367-7.5 11.328-7.617 11.328-7.774 11.328-7.93 11.328-8.046 11.328-8.203 11.368-8.399 11.328-8.554 11.328-8.711 11.328-8.907 11.328-9.101 11.328-9.336 11.328-9.492 11.328-9.727 11.329-9.922 11.367-10.195 11.328-10.43 11.328-10.703 11.328-10.976 11.328-11.29 11.328-11.562 11.368-11.914 11.328-12.227 11.328-12.617 11.328-13.008 11.328-13.398 11.328-13.828 11.328-14.297 11.328-14.844 11.329-15.312 11.367-15.938 11.328-16.523 11.328-17.188 11.328-17.93 11.328-18.71 11.328-19.57 11.368-20.508 11.328-21.563 11.328-22.734 11.328-24.024 11.328-25.43 11.328-27.03 11.328-28.907 11.328-31.016 11.329-33.437 11.367-36.29 11.328-39.726 11.328-43.789 11.328-48.828 11.328-55.156 11.328-63.438 11.368-74.57 11.328-90.508 11.328-115.195 11.328-158.438 11.328-255.78 11.328-787.813" transform="matrix(.1 0 0 -.1 0 274)"/></g><g clip-path="url(#x)"><path style="fill:none;stroke-width:12.5;stroke-linecap:round;stroke-linejoin:round;stroke:red;stroke-opacity:1;stroke-miterlimit:10" d="m131.758 874.922 33.984-8.555 11.328-2.89 11.368-2.891 11.328-2.93 33.984-8.906 11.328-3.008 22.656-6.094 11.329-3.086 11.367-3.085 22.656-6.25 11.328-3.164 22.656-6.407 11.368-3.242 33.984-9.844 22.656-6.718 11.328-3.399 22.656-6.875 11.368-3.476 22.656-7.032 33.984-10.78 11.367-3.673 11.329-3.672 22.656-7.5 11.328-3.789L596.406 740l22.657-7.813 11.367-3.984 11.328-3.984 22.656-8.125 11.328-4.102 11.328-4.18 11.367-4.18 11.329-4.257 22.656-8.594 11.328-4.375 11.328-4.414 11.328-4.453 11.328-4.531 11.328-4.57 11.368-4.61 11.328-4.648 11.328-4.727 11.328-4.765 11.328-4.805 11.328-4.844 11.367-4.96 11.329-4.962 22.656-10.156 22.656-10.39 11.328-5.313 11.328-5.352 11.328-5.468 11.368-5.508 11.328-5.547 11.328-5.664 11.328-5.703 11.328-5.82 11.328-5.9 11.368-5.937 11.328-6.054 11.328-6.133 11.328-6.25 11.328-6.328 11.328-6.407 11.328-6.523 11.328-6.601 11.329-6.72 11.367-6.835 11.328-6.953 11.328-7.032 11.328-7.187 11.328-7.305 11.328-7.422 11.368-7.578 11.328-7.695 11.328-7.813 11.328-8.007 11.328-8.125 11.328-8.282 11.328-8.476 11.328-8.633 11.329-8.828 11.367-8.985 11.328-9.218 11.328-9.375 11.328-9.61 11.328-9.843 11.328-10.04 11.368-10.312 11.328-10.586 11.328-10.82 11.328-11.133 11.328-11.406 11.328-11.719 11.328-12.07 11.328-12.422 11.329-12.813 11.367-13.164 11.328-13.633 11.328-14.062 11.328-14.531 11.328-15.04 11.328-15.624 11.368-16.211 11.328-16.836 11.328-17.54" transform="matrix(.1 0 0 -.1 0 274)"/></g><g clip-path="url(#y)"><path style="fill:none;stroke-width:12.5;stroke-linecap:round;stroke-linejoin:round;stroke:red;stroke-opacity:1;stroke-miterlimit:10" d="m1848.516 7.656 11.328 361.563 11.328 192.187 11.328 131.836 11.328 100.469 11.328 81.172 11.328 68.164 11.329 58.71 11.367 51.563 11.328 46.016 11.328 41.484 11.328 37.813 11.328 34.687 11.328 32.11 11.368 29.843 11.328 27.852 11.328 26.172 11.328 24.648 11.328 23.282 11.328 22.109 11.328 20.976 11.328 20 11.329 19.102 11.367 18.281 11.328 17.54 11.328 16.835 11.328 16.172 11.328 15.625 11.328 15.04 11.367 14.53 11.329 14.063 11.328 13.594 11.328 13.164 11.328 12.773 11.328 12.422 11.328 12.07 11.328 11.72 11.329 11.405 11.367 11.094 11.328 10.86 11.328 10.546 11.328 10.313 11.328 10.039 11.328 9.844 11.367 9.61 11.329 9.374 11.328 9.18 11.328 9.023 11.328 8.79 11.328 8.632 11.328 8.477 11.328 8.28 11.329 8.126 11.367 7.969 11.328 7.851 11.328 7.696 11.328 7.539 11.328 7.421 11.328 7.305 11.367 7.188 11.329 7.07 11.328 6.914 11.328 6.836 11.328 6.719 11.328 6.601 11.328 6.524 11.328 6.406 11.329 6.328 11.367 6.211 11.328 6.172 11.328 6.016 11.328 5.976 11.328 5.899 11.328 5.78 11.367 5.743 11.329 5.625 11.328 5.586 11.328 5.508 11.328 5.43 11.328 5.351 11.328 5.313 11.328 5.234 11.329 5.156 11.367 5.117 11.328 5.04 11.328 5 11.328 4.921 22.656 9.688 11.367 4.765 22.657 9.375 11.328 4.61 11.328 4.531 22.656 8.984 11.328 4.414 11.329 4.375 11.367 4.297 11.328 4.297 11.328 4.258 11.328 4.18 22.656 8.28 11.367 4.063 22.657 8.047 22.656 7.89 22.656 7.735 11.328 3.828 11.329 3.79 11.367 3.75 22.656 7.421 22.656 7.266 11.328 3.594 11.367 3.554 11.329 3.555 33.984 10.43 22.656 6.797 22.657 6.718 11.367 3.282 11.328 3.32 22.656 6.484 22.656 6.407 11.367 3.164 11.329 3.125 11.328 3.164 11.328 3.086 11.328 3.047 11.328 3.086 33.985 9.023 11.367 2.93 11.328 2.968 22.656 5.86 11.328 2.851 11.328 2.89 11.367 2.813 11.329 2.852" transform="matrix(.1 0 0 -.1 0 274)"/></g><g clip-path="url(#z)"><path style="fill:none;stroke-width:12.5;stroke-linecap:round;stroke-linejoin:round;stroke:red;stroke-opacity:1;stroke-miterlimit:10" d="m1988.984 74.453 11.329 31.133 11.367 29.062 11.328 27.149 11.328 25.547 11.328 24.101 11.328 22.774 11.328 21.64 11.367 20.586 11.329 19.649 11.328 18.75 11.328 18.008L2125 350.078l11.328 16.563 11.328 15.976 11.328 15.352 11.329 14.844 11.367 14.335 11.328 13.868 11.328 13.437 11.328 13.008 11.328 12.656 11.328 12.266 11.367 11.914 11.329 11.601 11.328 11.29 11.328 10.976L2295 548.906l11.328 10.43 11.328 10.234 11.328 9.961 11.329 9.727 11.367 9.531 11.328 9.297 11.328 9.101 11.328 8.946 11.328 8.71 11.328 8.595 11.367 8.398 11.329 8.203 11.328 8.086 11.328 7.93 11.328 7.773 11.328 7.617 11.328 7.5 11.328 7.383 11.329 7.266 11.367 7.11 11.328 6.991 11.328 6.914 11.328 6.797 11.328 6.68 11.328 6.562 11.367 6.485 11.329 6.367 11.328 6.29 11.328 6.17 11.328 6.095 11.328 6.015 11.328 5.938 11.328 5.86 11.329 5.78 11.367 5.664 11.328 5.625 11.328 5.547 11.328 5.47 11.328 5.429 11.328 5.312 11.367 5.274 11.329 5.234 11.328 5.117 11.328 5.078 11.328 5.04 11.328 4.96 22.656 9.766 11.329 4.766 11.367 4.765 11.328 4.688 22.656 9.219 11.328 4.53 11.328 4.493 11.367 4.453 22.657 8.75 11.328 4.297 11.328 4.258 11.328 4.219 11.328 4.18 11.328 4.14 11.329 4.101 11.367 4.063 11.328 4.023 11.328 3.985 11.328 3.945 22.656 7.813 11.367 3.828 22.657 7.578 11.328 3.75 11.328 3.71 11.328 3.673 22.656 7.265 11.329 3.555 11.367 3.555 22.656 7.03 11.328 3.477 11.328 3.438 11.328 3.398 11.367 3.36 22.657 6.718 22.656 6.563 22.656 6.484 11.328 3.204 11.329 3.164 11.367 3.164 22.656 6.25 22.656 6.171 11.328 3.008 11.367 3.047 11.329 2.969 11.328 3.008 11.328 2.968 11.328 2.93 11.328 2.89 11.328 2.93 22.657 5.704 11.367 2.851" transform="matrix(.1 0 0 -.1 0 274)"/></g></svg>