<svg xmlns="http://www.w3.org/2000/svg" xmlns:xlink="http://www.w3.org/1999/xlink" width="367pt" height="274pt" viewBox="0 0 367 274"><defs><clipPath id="a"><path d="M183 8.5h2v255h-2zm0 0"/></clipPath><clipPath id="b"><path d="M14 135h340v2H14zm0 0"/></clipPath><clipPath id="c"><path d="M14 8.5h1v255h-1zm0 0"/></clipPath><clipPath id="d"><path d="M70 8.5h1v255h-1zm0 0"/></clipPath><clipPath id="e"><path d="M127 8.5h1v255h-1zm0 0"/></clipPath><clipPath id="f"><path d="M183 8.5h2v255h-2zm0 0"/></clipPath><clipPath id="g"><path d="M240 8.5h1v255h-1zm0 0"/></clipPath><clipPath id="h"><path d="M297 8.5h1v255h-1zm0 0"/></clipPath><clipPath id="i"><path d="M353 8.5h1v255h-1zm0 0"/></clipPath><clipPath id="j"><path d="M14 263h340v.5H14zm0 0"/></clipPath><clipPath id="k"><path d="M14 220h340v2H14zm0 0"/></clipPath><clipPath id="l"><path d="M14 178h340v1H14zm0 0"/></clipPath><clipPath id="m"><path d="M14 135h340v2H14zm0 0"/></clipPath><clipPath id="n"><path d="M14 93h340v1H14zm0 0"/></clipPath><clipPath id="o"><path d="M14 50h340v2H14zm0 0"/></clipPath><clipPath id="p"><path d="M14 8.5h340V9H14zm0 0"/></clipPath><clipPath id="v"><path d="M50 143h268v120.5H50zm0 0"/></clipPath><clipPath id="w"><path d="M50 8.5h268V129H50zm0 0"/></clipPath><clipPath id="x"><path d="M14 135h340v2H14zm0 0"/></clipPath><symbol overflow="visible" id="q"><path style="stroke:none" d="M2.125-2.344H.344v.547h1.781zm0 0"/></symbol><symbol overflow="visible" id="r"><path style="stroke:none" d="M1.656-2.438h.36c.734 0 1.109.329 1.109.954 0 .671-.422 1.078-1.11 1.078-.718 0-1.078-.36-1.109-1.14H.234c.032.421.11.702.235.952.281.5.797.766 1.531.766 1.094 0 1.797-.656 1.797-1.656 0-.672-.266-1.047-.906-1.266.5-.203.75-.578.75-1.11 0-.906-.61-1.453-1.625-1.453-1.079 0-1.641.579-1.657 1.72h.657c0-.329.03-.516.109-.673.156-.296.484-.468.906-.468.578 0 .938.343.938.906 0 .375-.14.594-.438.719-.172.078-.406.109-.875.109zm0 0"/></symbol><symbol overflow="visible" id="s"><path style="stroke:none" d="M3.797-.656H1c.063-.438.313-.703.953-1.094l.75-.406c.75-.406 1.125-.953 1.125-1.594 0-.453-.172-.86-.484-1.14-.328-.298-.719-.423-1.219-.423-.672 0-1.172.235-1.469.688-.187.281-.265.61-.281 1.156h.656c.032-.36.078-.578.157-.75.171-.328.515-.515.921-.515.594 0 1.047.421 1.047.984 0 .422-.25.781-.719 1.063l-.687.39C.64-1.672.312-1.172.25 0h3.547zm0 0"/></symbol><symbol overflow="visible" id="t"><path style="stroke:none" d="M1.938-3.781V0h.671v-5.313h-.437c-.235.813-.39.922-1.406 1.047v.485zm0 0"/></symbol><symbol overflow="visible" id="u"><path style="stroke:none" d="M2.063-5.313c-.5 0-.938.22-1.22.579C.5-4.266.329-3.563.329-2.578c0 1.797.594 2.75 1.734 2.75 1.126 0 1.735-.953 1.735-2.703 0-1.031-.156-1.719-.516-2.203-.281-.375-.719-.579-1.219-.579zm0 .579c.718 0 1.062.718 1.062 2.14 0 1.516-.344 2.219-1.078 2.219C1.344-.375 1-1.109 1-2.563c0-1.453.344-2.171 1.063-2.171zm0 0"/></symbol></defs><path style="stroke:none;fill-rule:nonzero;fill:#fff;fill-opacity:1" d="M14 263.5h340V8.5H14zm0 0"/><g clip-path="url(#a)"><path style="fill:none;stroke-width:6.25;stroke-linecap:round;stroke-linejoin:miter;stroke:#bfbfbf;stroke-opacity:1;stroke-miterlimit:10" d="M1840 105v2550" transform="matrix(.1 0 0 -.1 0 274)"/></g><g clip-path="url(#b)"><path style="fill:none;stroke-width:6.25;stroke-linecap:round;stroke-linejoin:miter;stroke:#bfbfbf;stroke-opacity:1;stroke-miterlimit:10" d="M140 1380h3400" transform="matrix(.1 0 0 -.1 0 274)"/></g><g clip-path="url(#c)"><path style="fill:none;stroke-width:6.25;stroke-linecap:round;stroke-linejoin:miter;stroke:#bfbfbf;stroke-opacity:1;stroke-dasharray:12.5,18.75;stroke-miterlimit:10" d="M140 105v2550" transform="matrix(.1 0 0 -.1 0 274)"/></g><g clip-path="url(#d)"><path style="fill:none;stroke-width:6.25;stroke-linecap:round;stroke-linejoin:miter;stroke:#bfbfbf;stroke-opacity:1;stroke-dasharray:12.5,18.75;stroke-miterlimit:10" d="M706.68 105v2550" transform="matrix(.1 0 0 -.1 0 274)"/></g><g clip-path="url(#e)"><path style="fill:none;stroke-width:6.25;stroke-linecap:round;stroke-linejoin:miter;stroke:#bfbfbf;stroke-opacity:1;stroke-dasharray:12.5,18.75;stroke-miterlimit:10" d="M1273.32 105v2550" transform="matrix(.1 0 0 -.1 0 274)"/></g><g clip-path="url(#f)"><path style="fill:none;stroke-width:6.25;stroke-linecap:round;stroke-linejoin:miter;stroke:#bfbfbf;stroke-opacity:1;stroke-dasharray:12.5,18.75;stroke-miterlimit:10" d="M1840 105v2550" transform="matrix(.1 0 0 -.1 0 274)"/></g><g clip-path="url(#g)"><path style="fill:none;stroke-width:6.25;stroke-linecap:round;stroke-linejoin:miter;stroke:#bfbfbf;stroke-opacity:1;stroke-dasharray:12.5,18.75;stroke-miterlimit:10" d="M2406.68 105v2550" transform="matrix(.1 0 0 -.1 0 274)"/></g><g clip-path="url(#h)"><path style="fill:none;stroke-width:6.25;stroke-linecap:round;stroke-linejoin:miter;stroke:#bfbfbf;stroke-opacity:1;stroke-dasharray:12.5,18.75;stroke-miterlimit:10" d="M2973.32 105v2550" transform="matrix(.1 0 0 -.1 0 274)"/></g><g clip-path="url(#i)"><path style="fill:none;stroke-width:6.25;stroke-linecap:round;stroke-linejoin:miter;stroke:#bfbfbf;stroke-opacity:1;stroke-dasharray:12.5,18.75;stroke-miterlimit:10" d="M3540 105v2550" transform="matrix(.1 0 0 -.1 0 274)"/></g><g clip-path="url(#j)"><path style="fill:none;stroke-width:6.25;stroke-linecap:round;stroke-linejoin:miter;stroke:#bfbfbf;stroke-opacity:1;stroke-dasharray:12.5,18.75;stroke-miterlimit:10" d="M140 105h3400" transform="matrix(.1 0 0 -.1 0 274)"/></g><g clip-path="url(#k)"><path style="fill:none;stroke-width:6.25;stroke-linecap:round;stroke-linejoin:miter;stroke:#bfbfbf;stroke-opacity:1;stroke-dasharray:12.5,18.75;stroke-miterlimit:10" d="M140 530h3400" transform="matrix(.1 0 0 -.1 0 274)"/></g><g clip-path="url(#l)"><path style="fill:none;stroke-width:6.25;stroke-linecap:round;stroke-linejoin:miter;stroke:#bfbfbf;stroke-opacity:1;stroke-dasharray:12.5,18.75;stroke-miterlimit:10" d="M140 955h3400" transform="matrix(.1 0 0 -.1 0 274)"/></g><g clip-path="url(#m)"><path style="fill:none;stroke-width:6.25;stroke-linecap:round;stroke-linejoin:miter;stroke:#bfbfbf;stroke-opacity:1;stroke-dasharray:12.5,18.75;stroke-miterlimit:10" d="M140 1380h3400" transform="matrix(.1 0 0 -.1 0 274)"/></g><g clip-path="url(#n)"><path style="fill:none;stroke-width:6.25;stroke-linecap:round;stroke-linejoin:miter;stroke:#bfbfbf;stroke-opacity:1;stroke-dasharray:12.5,18.75;stroke-miterlimit:10" d="M140 1805h3400" transform="matrix(.1 0 0 -.1 0 274)"/></g><g clip-path="url(#o)"><path style="fill:none;stroke-width:6.25;stroke-linecap:round;stroke-linejoin:miter;stroke:#bfbfbf;stroke-opacity:1;stroke-dasharray:12.5,18.75;stroke-miterlimit:10" d="M140 2230h3400" transform="matrix(.1 0 0 -.1 0 274)"/></g><g clip-path="url(#p)"><path style="fill:none;stroke-width:6.25;stroke-linecap:round;stroke-linejoin:miter;stroke:#bfbfbf;stroke-opacity:1;stroke-dasharray:12.5,18.75;stroke-miterlimit:10" d="M140 2655h3400" transform="matrix(.1 0 0 -.1 0 274)"/></g><path style="fill:none;stroke-width:12.5;stroke-linecap:square;stroke-linejoin:miter;stroke:#000;stroke-opacity:1;stroke-miterlimit:10" d="M140 105h3400" transform="matrix(.1 0 0 -.1 0 274)"/><path style="fill:none;stroke-width:6.25;stroke-linecap:butt;stroke-linejoin:miter;stroke:#000;stroke-opacity:1;stroke-miterlimit:10" d="M140 105v50m56.68-50v25m56.64-25v25M310 105v25m56.68-25v25m56.64-25v25M480 105v25m56.68-25v25m56.64-25v25M650 105v25m56.68-25v50m56.64-50v25M820 105v25m56.68-25v25m56.64-25v25M990 105v25m56.68-25v25m56.64-25v25m56.68-25v25m56.68-25v25m56.64-25v50m56.68-50v25m56.68-25v25m56.64-25v25m56.68-25v25m56.68-25v25m56.64-25v25m56.68-25v25m56.68-25v25m56.64-25v25m56.68-25v50m56.68-50v25m56.64-25v25m56.68-25v25m56.68-25v25m56.64-25v25m56.68-25v25m56.68-25v25m56.64-25v25m56.68-25v25m56.68-25v50m56.64-50v25m56.68-25v25m56.68-25v25m56.64-25v25m56.68-25v25m56.68-25v25m56.64-25v25m56.68-25v25m56.68-25v25m56.64-25v50m56.68-50v25m56.68-25v25m56.64-25v25m56.68-25v25m56.68-25v25m56.64-25v25m56.68-25v25m56.68-25v25m56.64-25v25m56.68-25v50" transform="matrix(.1 0 0 -.1 0 274)"/><g style="fill:#000;fill-opacity:1"><use xlink:href="#q" x="10.041" y="273.5"/><use xlink:href="#r" x="12.539" y="273.5"/></g><g style="fill:#000;fill-opacity:1"><use xlink:href="#q" x="66.916" y="273.5"/><use xlink:href="#s" x="69.414" y="273.5"/></g><g style="fill:#000;fill-opacity:1"><use xlink:href="#q" x="123.791" y="273.5"/><use xlink:href="#t" x="126.289" y="273.5"/></g><use xlink:href="#u" x="181.915" y="273.5" style="fill:#000;fill-opacity:1"/><use xlink:href="#t" x="238.165" y="273.5" style="fill:#000;fill-opacity:1"/><use xlink:href="#s" x="295.04" y="273.5" style="fill:#000;fill-opacity:1"/><use xlink:href="#r" x="351.915" y="273.5" style="fill:#000;fill-opacity:1"/><path style="fill:none;stroke-width:12.5;stroke-linecap:square;stroke-linejoin:miter;stroke:#000;stroke-opacity:1;stroke-miterlimit:10" d="M140 2655h3400" transform="matrix(.1 0 0 -.1 0 274)"/><path style="fill:none;stroke-width:6.25;stroke-linecap:butt;stroke-linejoin:miter;stroke:#000;stroke-opacity:1;stroke-miterlimit:10" d="M140 2655v-50m56.68 50v-25m56.64 25v-25m56.68 25v-25m56.68 25v-25m56.64 25v-25m56.68 25v-25m56.68 25v-25m56.64 25v-25m56.68 25v-25m56.68 25v-50m56.64 50v-25m56.68 25v-25m56.68 25v-25m56.64 25v-25m56.68 25v-25m56.68 25v-25m56.64 25v-25m56.68 25v-25m56.68 25v-25m56.64 25v-50m56.68 50v-25m56.68 25v-25m56.64 25v-25m56.68 25v-25m56.68 25v-25m56.64 25v-25m56.68 25v-25m56.68 25v-25m56.64 25v-25m56.68 25v-50m56.68 50v-25m56.64 25v-25m56.68 25v-25m56.68 25v-25m56.64 25v-25m56.68 25v-25m56.68 25v-25m56.64 25v-25m56.68 25v-25m56.68 25v-50m56.64 50v-25m56.68 25v-25m56.68 25v-25m56.64 25v-25m56.68 25v-25m56.68 25v-25m56.64 25v-25m56.68 25v-25m56.68 25v-25m56.64 25v-50m56.68 50v-25m56.68 25v-25m56.64 25v-25m56.68 25v-25m56.68 25v-25m56.64 25v-25m56.68 25v-25m56.68 25v-25m56.64 25v-25m56.68 25v-50" transform="matrix(.1 0 0 -.1 0 274)"/><g style="fill:#000;fill-opacity:1"><use xlink:href="#q" x="10.041" y="5.375"/><use xlink:href="#r" x="12.539" y="5.375"/></g><g style="fill:#000;fill-opacity:1"><use xlink:href="#q" x="66.916" y="5.375"/><use xlink:href="#s" x="69.414" y="5.375"/></g><g style="fill:#000;fill-opacity:1"><use xlink:href="#q" x="123.791" y="5.375"/><use xlink:href="#t" x="126.289" y="5.375"/></g><use xlink:href="#u" x="181.915" y="5.375" style="fill:#000;fill-opacity:1"/><use xlink:href="#t" x="238.165" y="5.375" style="fill:#000;fill-opacity:1"/><use xlink:href="#s" x="295.04" y="5.375" style="fill:#000;fill-opacity:1"/><use xlink:href="#r" x="351.915" y="5.375" style="fill:#000;fill-opacity:1"/><path style="fill:none;stroke-width:12.5;stroke-linecap:square;stroke-linejoin:miter;stroke:#000;stroke-opacity:1;stroke-miterlimit:10" d="M140 105v2550" transform="matrix(.1 0 0 -.1 0 274)"/><path style="fill:none;stroke-width:6.25;stroke-linecap:butt;stroke-linejoin:miter;stroke:#000;stroke-opacity:1;stroke-miterlimit:10" d="M140 105h50m-50 42.5h25M140 190h25m-25 42.5h25M140 275h25m-25 42.5h25M140 360h25m-25 42.5h25M140 445h25m-25 42.5h25M140 530h50m-50 42.5h25M140 615h25m-25 42.5h25M140 700h25m-25 42.5h25M140 785h25m-25 42.5h25M140 870h25m-25 42.5h25M140 955h50m-50 42.5h25m-25 42.5h25m-25 42.5h25m-25 42.5h25m-25 42.5h25m-25 42.5h25m-25 42.5h25m-25 42.5h25m-25 42.5h25m-25 42.5h50m-50 42.5h25m-25 42.5h25m-25 42.5h25m-25 42.5h25m-25 42.5h25m-25 42.5h25m-25 42.5h25m-25 42.5h25m-25 42.5h25m-25 42.5h50m-50 42.5h25m-25 42.5h25m-25 42.5h25m-25 42.5h25m-25 42.5h25m-25 42.5h25m-25 42.5h25m-25 42.5h25m-25 42.5h25m-25 42.5h50m-50 42.5h25m-25 42.5h25m-25 42.5h25m-25 42.5h25m-25 42.5h25m-25 42.5h25m-25 42.5h25m-25 42.5h25m-25 42.5h25m-25 42.5h50" transform="matrix(.1 0 0 -.1 0 274)"/><g style="fill:#000;fill-opacity:1"><use xlink:href="#q" x=".458" y="267.25"/><use xlink:href="#r" x="2.955" y="267.25"/></g><g style="fill:#000;fill-opacity:1"><use xlink:href="#q" x=".458" y="224.125"/><use xlink:href="#s" x="2.955" y="224.125"/></g><g style="fill:#000;fill-opacity:1"><use xlink:href="#q" x=".458" y="182.25"/><use xlink:href="#t" x="2.955" y="182.25"/></g><use xlink:href="#u" x="2.955" y="139.125" style="fill:#000;fill-opacity:1"/><use xlink:href="#t" x="2.955" y="97.25" style="fill:#000;fill-opacity:1"/><use xlink:href="#s" x="2.955" y="54.125" style="fill:#000;fill-opacity:1"/><use xlink:href="#r" x="2.955" y="11.625" style="fill:#000;fill-opacity:1"/><path style="fill:none;stroke-width:12.5;stroke-linecap:square;stroke-linejoin:miter;stroke:#000;stroke-opacity:1;stroke-miterlimit:10" d="M3540 105v2550" transform="matrix(.1 0 0 -.1 0 274)"/><path style="fill:none;stroke-width:6.25;stroke-linecap:butt;stroke-linejoin:miter;stroke:#000;stroke-opacity:1;stroke-miterlimit:10" d="M3540 105h-50m50 42.5h-25m25 42.5h-25m25 42.5h-25m25 42.5h-25m25 42.5h-25m25 42.5h-25m25 42.5h-25m25 42.5h-25m25 42.5h-25m25 42.5h-50m50 42.5h-25m25 42.5h-25m25 42.5h-25m25 42.5h-25m25 42.5h-25m25 42.5h-25m25 42.5h-25m25 42.5h-25m25 42.5h-25m25 42.5h-50m50 42.5h-25m25 42.5h-25m25 42.5h-25m25 42.5h-25m25 42.5h-25m25 42.5h-25m25 42.5h-25m25 42.5h-25m25 42.5h-25m25 42.5h-50m50 42.5h-25m25 42.5h-25m25 42.5h-25m25 42.5h-25m25 42.5h-25m25 42.5h-25m25 42.5h-25m25 42.5h-25m25 42.5h-25m25 42.5h-50m50 42.5h-25m25 42.5h-25m25 42.5h-25m25 42.5h-25m25 42.5h-25m25 42.5h-25m25 42.5h-25m25 42.5h-25m25 42.5h-25m25 42.5h-50m50 42.5h-25m25 42.5h-25m25 42.5h-25m25 42.5h-25m25 42.5h-25m25 42.5h-25m25 42.5h-25m25 42.5h-25m25 42.5h-25m25 42.5h-50" transform="matrix(.1 0 0 -.1 0 274)"/><g style="fill:#000;fill-opacity:1"><use xlink:href="#q" x="360.25" y="267.25"/><use xlink:href="#r" x="362.748" y="267.25"/></g><g style="fill:#000;fill-opacity:1"><use xlink:href="#q" x="360.25" y="224.125"/><use xlink:href="#s" x="362.748" y="224.125"/></g><g style="fill:#000;fill-opacity:1"><use xlink:href="#q" x="360.25" y="182.25"/><use xlink:href="#t" x="362.748" y="182.25"/></g><use xlink:href="#u" x="360.25" y="139.125" style="fill:#000;fill-opacity:1"/><use xlink:href="#t" x="360.25" y="97.25" style="fill:#000;fill-opacity:1"/><use xlink:href="#s" x="360.25" y="54.125" style="fill:#000;fill-opacity:1"/><use xlink:href="#r" x="360.25" y="11.625" style="fill:#000;fill-opacity:1"/><path style="fill:none;stroke-width:6.25;stroke-linecap:round;stroke-linejoin:miter;stroke:#00f;stroke-opacity:1;stroke-miterlimit:10" d="m213.125 117.773 15.664 95.86m.001 0h0m-16.524 25.703 17.343 95.586m.001 0h0m-18.36 26.055 19.414 95.195m0 0h0m-20.742 26.523 22.07 94.61m0 0h0m-23.789 27.265 25.508 93.711m-.001 0h0m-27.85 28.399 30.156 92.343m0 0h0m-33.438 30.313 36.719 89.922m0 0h0m-41.563 33.789 46.446 85.351m0 0h0m-53.946 41.133 61.446 75.235m0 0h0m-72.149 58.437 82.852 50.742m0 0h0m-90 96.055h97.148m0 0h0m-90 146.797 82.852-50.742m0 0h0m-72.149 184.414 61.446-75.235m0 0h0m-53.946 201.719 46.446-85.351m0 0h0m-41.602 209.062 36.719-89.922m0 0h0M205.86 2033.32l30.156-92.343m0 0h0m-27.813 214.453 25.508-93.711m-.001 0h0m-23.788 215.586 22.07-94.61m0 0h0m-20.742 216.328 19.414-95.195m0 0h0m-18.398 216.836 17.343-95.586m.001 0h0m-16.485 217.149 15.664-95.86m.001 0h0M374.18 117.93l17.343 95.586m0 0h0m-18.281 26.015 19.219 95.235m-.001 0h0m-20.35 26.444 21.484 94.728m0 0h0m-22.93 27.031 24.375 94.062m.001 0h0m-26.25 27.891 28.124 93.008m0 0h0m-30.624 29.258 33.124 91.328m0 0h0m-36.641 31.524 40.157 88.476m0 0h0m-45.196 35.624 50.274 83.126m0 0h0m-57.774 43.906 65.274 71.953m0 0h0m-75.195 61.992 85.078 46.875m-.001 0h0M334.297 1380h97.148m0 0h0m-91.132 144.883 85.078-46.875m-.001 0h0m-75.156 180.82 65.274-71.953m0 0h0m-57.774 198.985 50.274-83.126m0 0h0m-45.235 207.226 40.157-88.476m0 0h0m-36.64 211.329 33.124-91.329m0 0h0m-30.624 213.594 28.124-93.008m0 0h0m-26.25 214.961 24.375-94.062m.001 0h0m-22.93 215.821 21.484-94.727m0 0h0m-20.352 216.406 19.219-95.235m-.001 0h0m-18.28 216.836 17.343-95.586m0 0h0M535.04 118.125l19.452 95.195m0 0h0m-20.469 26.446 21.485 94.765m0 0h0m-22.774 26.992 24.024 94.102m0 0h0m-25.586 27.735 27.187 93.28m.001 0h0m-29.258 28.79 31.289 91.992m-.001 0h0m-33.984 30.468 36.719 89.923m0 0h0m-40.43 33.203 44.14 86.523m.001.001h0m-49.414 38.007 54.648 80.312m0 .001h0m-61.992 47.304 69.375 67.969m0 0h0m-78.32 66.094 87.265 42.695m0 0h0M496.172 1380h97.148m0 0h0m-92.187 142.773 87.265-42.695m0 0h0m-78.32 176.758 69.375-67.969m0 0h0m-62.031 195.586 54.648-80.312m0-.001h0m-49.375 204.844 44.14-86.523m.001-.001h0m-40.43 209.65 36.719-89.922m0 0h0m-34.023 212.343 31.289-91.953m-.001 0h0m-29.218 214.062 27.187-93.28m.001 0h0m-25.626 215.117 24.024-94.102m0 0h0m-22.735 215.859 21.485-94.726m0 0h0m-20.468 216.367 19.452-95.156m0 0h0M695.625 118.398l22.07 94.61m0 0h0m-23.203 27.109 24.375 94.063m0 0h0m-25.781 27.773 27.187 93.242m0 0h0m-28.983 28.711 30.741 92.188m0 0h0m-32.968 30.078 35.195 90.508m0 0h0m-38.125 32.148 41.054 88.047m.001 0h0m-45 35.469 48.945 83.906m0 0h0m-54.297 41.133 59.648 76.68m0 0h0m-66.679 51.484 73.75 63.203m0 0h0m-81.524 70.703 89.297 38.242m0 0h0M658.086 1380h97.148m0 0h0m-93.203 140.547 89.297-38.242m0 0h0m-81.523 172.148 73.75-63.203m0 0h0m-66.719 191.367 59.648-76.68m0 .001h0m-54.296 201.718 48.945-83.906m0 0h0m-45 207.422 41.054-88.047m.001 0h0m-38.125 210.703 35.195-90.547m0 0h0m-32.968 212.813 30.741-92.188m0 0h0m-28.945 214.141 27.187-93.242m0 0h0m-25.781 215.078 24.375-94.024m0 .001h0m-23.242 215.742 22.07-94.61m0 0h0M855.82 118.867l25.508 93.711m0 0h0m-26.836 28.086 28.125 92.969m0 0h0m-29.687 28.945 31.289 91.992m0 0h0m-33.242 30.157 35.195 90.546m0 0h0m-37.656 31.915 40.117 88.476m0 0h0m-43.281 34.531 46.445 85.313m0 0h0M841.25 854.14l54.648 80.313m0 0h0m-59.96 45.274 65.273 71.953m-.001 0h0m-71.796 56.718 78.281 57.5m0 0h0m-84.726 75.938 91.21 33.476m.001.001h0M820 1380h97.148m0 0h0m-94.179 138.164 91.21-33.476m.001 0h0m-84.766 166.914 78.281-57.5m0 0h0m-71.757 186.171 65.273-71.953m-.001 0h0m-59.96 197.54 54.648-80.313m0 0h0m-50.546 204.258 46.445-85.313m0 0h0m-43.281 208.321 40.117-88.477m0 0h0m-37.656 210.937 35.195-90.546m0 0h0m-33.242 212.695 31.289-91.953m0 0h0m-29.727 213.867 28.125-92.969m0 0h0m-26.797 214.766 25.508-93.711m0 0h0M1015.39 119.531l30.157 92.344m0 0h0m-31.641 29.609 33.125 91.328m0 .001h0m-34.921 30.781 36.718 89.96m0 .001h0m-38.906 32.422 41.094 88.046m0 0h0m-43.75 34.767 46.445 85.312m-.001 0h0m-49.804 38.086 53.125 81.328m0 0h0m-57.265 43.164 61.445 75.234m-.001 0h0m-66.522 50.938 71.562 65.703m0 0h0m-77.187 63.242 82.851 50.703m0 0h0m-87.891 81.875 92.891 28.398m0 0h0m-95 107.227h97.149m0 0h0m-95.04 135.625 92.891-28.398m0 0h0m-87.851 160.976 82.851-50.703m0 0h0m-77.226 179.648 71.562-65.703m0 0h0m-66.484 191.915 61.445-75.274m-.001 0h0m-57.304 199.727 53.125-81.329m0 0h0m-49.765 204.726 46.445-85.312m-.001 0h0m-43.788 208.125 41.094-88.046m0 0h0m-38.906 210.429 36.718-89.96m0-.001h0m-34.922 212.071 33.125-91.329m0 .001h0m-31.641 213.281 30.157-92.344m0 0h0m128.476-2427.383 36.72 89.922m-.001 0h0m-38.437 32.266 40.156 88.437m-.001 0h0m-42.147 33.946 44.14 86.523m0 0h0m-46.563 36.211 48.985 83.906m0 0h0m-51.835 39.337 54.687 80.273m0 0h0m-58.087 43.671 61.485 75.235m0 0h0m-65.43 49.844 69.375 67.968m0 0h0m-73.828 58.672 78.281 57.54m0-.001h0m-82.773 71.289 87.266 42.735m0 0h0m-90.821 88.515 94.336 23.086m0 0h0M1143.828 1380h97.11m0 0h0m-95.743 132.969 94.336-23.086m0 0h0m-90.781 154.336 87.266-42.735m0 0h0m-82.774 171.563 78.281-57.54m0 .001h0m-73.828 184.219 69.375-68.008m0 0h0m-65.43 193.047 61.485-75.235m0 0h0m-58.085 199.179 54.687-80.273m0 .001h0m-51.837 203.515 48.985-83.906m0 0h0m-46.562 206.641 44.14-86.524m0 0h0m-42.148 208.946 40.156-88.477m-.001 0h0m-38.437 210.625 36.72-89.922m-.001 0h0m120.313-2426.289 46.445 85.312m0 .001h0m-48.36 37.226 50.274 83.125m0-.001h0m-52.461 39.728 54.649 80.273m0-.001h0m-57.149 42.97 59.649 76.64m0 0h0m-62.462 47.149 65.274 71.914m0 0h0M1318.516 740l71.562 65.703m0 0h0m-74.922 59.805 78.282 57.539m0 0h0m-81.68 69.219 85.078 46.875m0-.001h0m-88.126 81.25 91.173 33.516m0 0h0m-93.36 95.899 95.508 17.539m0 0h0M1305.703 1380h97.149m0 0h0m-96.329 130.195 95.508-17.539m0 0h0m-93.321 146.954 91.173-33.516m0 0h0m-88.125 161.64 85.078-46.875m0 .001h0m-81.68 173.632 78.282-57.539m0 0h0M1318.516 2020l71.562-65.703m0 0h0m-68.438 190.234 65.274-71.914m0 0h0m-62.461 195.743 59.649-76.72m0 0h0m-57.149 199.923 54.649-80.274m0 .001h0m-52.462 203.124 50.274-83.125m0 .001h0m-48.359 205.663 46.445-85.351m0 0h0m107.969-2423.516 61.445 75.234m0 0h0m-63.359 47.852 65.273 71.953m0 0h0m-67.344 51.445 69.414 68.008m0 0h0m-71.601 55.82 73.789 63.204m0 0h0m-76.055 61.054 78.282 57.54m0-.001h0m-80.547 67.305 82.851 50.703m0 0h0m-85.039 74.727 87.227 42.734m0 0h0m-89.219 83.32 91.21 33.477m.001-.001h0m-92.774 93.126 94.336 23.125m.001-.001h0m-95.391 103.946 96.445 11.836m0 0h0M1467.617 1380h97.149m0 0h0m-96.797 127.344 96.445-11.836m0 0h0m-95.391 138.906 94.336-23.125m.001.001h0m-92.774 149.726 91.21-33.477m.001.001h0m-89.219 159.53 87.227-42.734m0 0h0m-85.039 168.164 82.851-50.703m0 0h0m-80.586 175.547 78.282-57.54m0 .001h0m-76.016 181.797 73.789-63.204m0 0h0m-71.602 187.032 69.414-68.008m0 0h0m-67.343 191.406 65.273-71.953m0 0h0m-63.359 195.039 61.445-75.273m0-.001h0m89.766-2416.288 82.851 50.703m0 0h0m-83.984 72.655 85.078 46.876m0 0h0m-86.133 76.602 87.227 42.734m0 0h0m-88.281 80.938 89.296 38.28m0 0h0m-90.234 85.548 91.172 33.476m0 0h0m-92.032 90.469 92.891 28.437m0 0h0m-93.593 95.664 94.335 23.086m0 0h0m-94.96 101.133 95.546 17.54m.001-.001h0m-95.977 106.758 96.406 11.797m.001 0h0m-96.68 112.578 96.953 5.898m0 0h0M1629.531 1380h97.149m0 0h0m-97.07 124.375 96.953-5.898m0 0h0m-96.68 130.273 96.406-11.797m.001 0h0m-95.977 136.094 95.546-17.54m.001.001h0m-94.922 141.758 94.335-23.125m0-.001h0m-93.633 147.227 92.891-28.437m0 0h0m-92.031 152.383 91.172-33.477m0 0h0m-90.234 157.304 89.296-38.28m0 0h0m-88.242 161.913 87.227-42.695m0 0h0m-86.172 166.212 85.078-46.876m0 0h0m-83.945 170.234 82.851-50.742m0 0h0m71.914-2403.203h97.11m0 0h0m-97.11 121.445h97.11m0 0h0m-97.11 121.407h97.11m0 0h0M1791.445 530h97.11m0 0h0m-97.11 121.445h97.11m0 0h0m-97.11 121.407h97.11m0 0h0m-97.11 121.445h97.11m0 0h0m-97.11 121.406h97.11m0 0h0m-97.11 121.445h97.11m0 0h0m-97.11 121.407h97.11m0 0h0M1791.445 1380h97.11m0 0h0m-97.11 121.445h97.11m0 0h0m-97.11 121.407h97.11m0 0h0m-97.11 121.445h97.11m0 0h0m-97.11 121.406h97.11m0 0h0m-97.11 121.445h97.11m0 0h0m-97.11 121.407h97.11m0 0h0M1791.445 2230h97.11m0 0h0m-97.11 121.445h97.11m0 0h0m-97.11 121.407h97.11m0 0h0m-97.11 121.445h97.11m0 0h0m71.914-2403.242 82.851-50.703m0 0h0m-83.945 170.234 85.078-46.875m0-.001h0m-86.172 166.212 87.227-42.735m0 .001h0m-88.242 161.952 89.296-38.28m.001 0h0m-90.235 157.304 91.172-33.476m0 0h0m-92.031 152.382 92.89-28.437m.001 0h0m-93.633 147.187 94.335-23.086m.001 0h0m-94.923 141.758 95.547-17.539m.001 0h0m-95.978 136.094 96.407-11.797m0 0h0m-96.679 130.273 96.953-5.898m-.001 0h0M1953.32 1380h97.149m0 0h0m-97.031 118.477 96.953 5.898m-.001 0h0m-96.68 112.578 96.407 11.797m0 0h0m-95.977 106.758 95.547 17.539m.001 0h0m-94.961 101.093 94.335 23.126m.001 0h0m-93.594 95.664 92.89 28.437m.001 0h0m-92.032 90.469 91.172 33.477m0 0h0m-90.234 85.547 89.296 38.28m.001 0h0m-88.282 80.938 87.227 42.695m0 0h0m-86.133 76.641 85.078 46.875m0 .001h0m-83.984 72.616 82.851 50.742m0 0h0m89.766-2416.328 61.445-75.234m0 0h0m-63.359 195.039 65.273-71.953m0 0h0m-67.343 191.406 69.414-68.008m0 0h0m-71.602 187.032 73.79-63.204m-.001 0h0m-76.015 181.797 78.28-57.539m.001 0h0m-80.586 175.547 82.851-50.703m0 0h0m-85.039 168.164 87.227-42.734m0 0h0m-89.219 159.53 91.211-33.476m0 0h0m-92.774 149.726 94.337-23.124m0 0h0m-95.391 138.906 96.445-11.836m0 0h0M2115.234 1380h97.149m0 0h0m-96.797 115.508 96.445 11.836m0 0h0m-95.391 103.946 94.337 23.124m0 0h0m-92.774 93.126 91.211 33.476m0 0h0m-89.219 83.32 87.227 42.734m0 0h0m-85.039 74.727 82.851 50.703m0 0h0m-80.546 67.305 78.28 57.539m.001 0h0m-76.055 61.054 73.79 63.204m-.001 0h0m-71.601 55.82 69.414 68.008m0 0h0m-67.344 51.445 65.273 71.953m0 0h0m-63.359 47.812 61.445 75.274m0 0h0M2302.5 208.36l46.445-85.313m0 0h0m-48.359 205.663 50.273-83.124m.001 0h0m-52.462 203.124 54.649-80.272m0 0h0m-57.149 199.882 59.649-76.64m0 0h0m-62.461 195.703 65.273-71.914m.001 0h0m-68.438 190.234L2361.484 740m0 0h0m-74.921 183.047 78.28-57.54m.001.001h0m-81.68 173.632 85.078-46.874m0 0h0m-88.125 161.64 91.172-33.515m.001-.001h0m-93.321 146.954 95.508-17.54m0 .001h0M2277.148 1380h97.149m0 0h0m-96.328 112.656 95.508 17.54m0-.001h0m-93.36 95.899 91.172 33.515m.001.001h0m-88.126 81.25 85.078 46.874m0 0h0m-81.679 69.219 78.28 57.54m.001-.001h0m-74.922 59.805 71.562 65.703m0 0h0m-68.398 52.617 65.273 71.914m.001 0h0m-62.462 47.109 59.649 76.72m0 0h0m-57.149 42.93 54.649 80.273m0 0h0m-52.461 39.727 50.273 83.124m.001 0h0m-48.36 37.188 46.445 85.351m0 0h0m120.313-2426.289 36.719-89.922m0 0h0m-38.437 210.625 40.155-88.437m0 0h0m-42.148 208.906 44.14-86.524m.001.001h0m-46.563 206.64 48.984-83.906m.001 0h0m-51.837 203.516 54.688-80.274m-.001.001h0m-58.085 199.179 61.484-75.235m.001 0h0m-65.43 193.047 69.375-67.968m0 0h0m-73.828 184.179 78.28-57.539m.001 0h0m-82.774 171.563 87.266-42.735m0 0h0m-90.781 154.336 94.336-23.086m0 0h0M2439.063 1380h97.109m0 0h0m-95.703 109.883 94.336 23.086m0 0h0m-90.821 88.515 87.266 42.735m0 0h0m-82.773 71.289 78.28 57.539m.001 0h0m-73.828 58.672 69.375 68.008m0 0h0m-65.43 49.804 61.484 75.235m.001 0h0m-58.087 43.672 54.688 80.273m-.001-.001h0m-51.835 39.337 48.984 83.906m.001 0h0m-46.563 36.211 44.14 86.523m.001.001h0m-42.148 33.945 40.155 88.476m0 .001h0m-38.437 32.226 36.719 89.922m0 0h0m128.476-2427.383 30.156-92.344m.001 0h0m-31.641 213.282 33.125-91.329m0 0h0m-34.922 212.071 36.719-89.961m-.001 0h0m-38.906 210.429 41.094-88.046m0 0h0m-43.788 208.125 46.444-85.313m0 .001h0m-49.765 204.726 53.125-81.328m0 0h0m-57.304 199.726 61.444-75.234m0 0h0m-66.484 191.875 71.563-65.703m0 0h0m-77.227 179.648 82.852-50.703m0 0h0m-87.852 160.976 92.89-28.398m.001 0h0M2600.938 1380h97.148m0 0h0m-95 107.227 92.89 28.398m.001 0h0m-87.891 81.875 82.852 50.703m0 0h0m-77.188 63.242 71.563 65.703m0 0h0m-66.523 50.938 61.444 75.273m0 .001h0m-57.265 43.124 53.125 81.329m0 0h0m-49.804 38.085 46.444 85.313m0-.001h0m-43.75 34.767 41.094 88.046m0 0h0m-38.906 32.422 36.719 89.961m-.001 0h0m-34.921 30.782 33.125 91.328m0 0h0m-31.641 29.609 30.156 92.344m.001 0h0m134.062-2427.891 25.508-93.71m0-.001h0m-26.797 214.766 28.125-92.969m0 0h0m-29.727 213.906 31.29-91.992m-.001 0h0m-33.242 212.695 35.195-90.546m0 0h0m-37.656 210.937 40.117-88.476m0 0h0m-43.281 208.32 46.445-85.313m0 0h0m-50.546 204.258 54.648-80.312m0-.001h0m-59.96 197.54 65.273-71.953m0 0h0m-71.758 186.171 78.28-57.5m.001 0h0m-84.726 166.915 91.171-33.477m0 0h0M2762.852 1380H2860m0 0h0m-94.14 104.688 91.171 33.476m0 0h0m-84.726 75.938 78.28 57.5m.001 0h0m-71.796 56.718 65.273 71.953m0 0h0m-59.961 45.274 54.648 80.312m0 .001h0m-50.547 38.632 46.445 85.313m0 0h0m-43.281 34.531 40.117 88.477m0 0h0m-37.656 31.914 35.195 90.546m0 0h0m-33.242 30.196 31.29 91.953m-.001 0h0m-29.687 28.945 28.125 92.969m0 0h0m-26.836 28.086 25.508 93.71m0 .001h0m138.125-2428.125 22.07-94.61m0 0h0m-23.242 215.782 24.375-94.063m0 0h0m-25.781 215.078 27.187-93.242m0 0h0m-28.945 214.141 30.742-92.188m-.001 0h0m-32.968 212.774 35.195-90.508m.001 0h0m-38.165 210.703 41.094-88.047m0 0h0m-45 207.422 48.945-83.906m.001 0h0m-54.297 201.719 59.648-76.68m0 0h0m-66.719 191.367 73.75-63.203m0 0h0m-81.523 172.148 89.297-38.242m0 0h0M2924.766 1380h97.148m0 0h0m-93.242 102.305 89.297 38.242m0 0h0m-81.524 70.703 73.75 63.203m0 0h0m-66.679 51.485 59.648 76.68m0-.001h0m-54.297 41.133 48.945 83.906m.001 0h0m-45.04 35.469 41.094 88.047m0 0h0m-38.125 32.109 35.195 90.547m.001 0h0m-32.969 30.078 30.742 92.188m-.001 0h0m-28.983 28.711 27.187 93.242m0 0h0m-25.781 27.813 24.375 94.023m0 0h0m-23.203 27.109 22.07 94.61m0 0h0M3125.508 213.32l19.453-95.195m-.001 0h0m-20.468 216.406 21.485-94.765m0 0h0m-22.735 215.859 24.024-94.102m0 0h0M3121.64 576.64l27.188-93.28m0 0h0m-29.218 214.062 31.288-91.992m0 0h0m-34.023 212.383 36.719-89.922m0-.001h0m-40.43 209.65 44.14-86.524m.001 0h0m-49.415 204.844 54.688-80.313m0 0h0m-62.031 195.586 69.375-67.969m0 0h0m-78.32 176.758 87.265-42.695m0 0h0M3086.68 1380h97.148m0 0h0m-92.226 100.078 87.265 42.695m0 0h0m-78.32 66.094 69.375 67.969m0 0h0m-62.032 47.304 54.688 80.313m0 0h0m-49.414 38.007 44.14 86.524m.001 0h0m-40.43 33.204 36.719 89.921m0 .001h0m-33.984 30.468 31.288 91.953m0 0h0m-29.258 28.829 27.188 93.28m0 0h0m-25.586 27.735 24.024 94.102m0 0h0m-22.774 27.031 21.485 94.726m0 0h0m-20.469 26.485 19.453 95.156m-.001 0h0m143.517-2428.359 17.343-95.586m0 0h0m-18.28 216.836 19.218-95.235m0 0h0m-20.352 216.407 21.485-94.727m-.001-.001h0m-22.93 215.821 24.376-94.062m0 0h0m-26.25 214.961 28.125-93.008m-.001 0h0m-30.624 213.594 33.125-91.328m-.001 0h0m-36.64 211.328 40.157-88.477m0 .001h0m-45.235 207.226 50.274-83.125m0-.001h0m-57.774 198.985 65.274-71.953m0 0h0m-75.156 180.82 85.077-46.875m.001 0h0M3248.555 1380h97.148m0 0h0m-91.093 98.008 85.077 46.875m.001 0h0m-75.196 61.992 65.274 71.953m0 0h0m-57.774 43.906 50.274 83.125m0 .001h0m-45.196 35.624 40.157 88.477m0-.001h0m-36.641 31.524 33.125 91.329m-.001 0h0m-30.624 29.257 28.125 93.008m-.001 0h0m-26.25 27.891 24.376 94.062m0 0h0m-22.93 27.032 21.485 94.726m-.001.001h0m-20.35 26.444 19.218 95.235m0 0h0m-18.281 26.015 17.343 95.586m0 0h0m145.39-2428.437 15.665-95.86m0 0h0m-16.485 217.149 17.344-95.586m0 0h0m-18.398 216.836 19.414-95.195m0 0h0m-20.742 216.328 22.07-94.61m0 0h0m-23.788 215.586 25.507-93.71m0-.001h0m-27.852 214.453 30.196-92.343m-.001 0h0m-33.437 212.578 36.719-89.922m0 0h0m-41.602 209.062 46.446-85.351m0 0h0m-53.946 201.719 61.446-75.235m0 0h0m-72.149 184.414 82.852-50.742m0 0h0m-90 146.797h97.148m0 0h0m-90 96.055 82.852 50.742m0 0h0m-72.149 58.437 61.446 75.235m0 0h0m-53.946 41.133 46.446 85.351m0 0h0m-41.563 33.789 36.719 89.922m0 0h0m-33.477 30.313 30.196 92.343m-.001 0h0m-27.85 28.399 25.507 93.71m0 .001h0m-23.789 27.265 22.07 94.61m0 0h0m-20.742 26.523 19.414 95.195m0 0h0m-18.36 26.055 17.344 95.586m0 0h0m-16.524 25.703 15.665 95.86m0 0h0" transform="matrix(.1 0 0 -.1 0 274)"/><g clip-path="url(#v)"><path style="fill:none;stroke-width:12.5;stroke-linecap:round;stroke-linejoin:round;stroke:red;stroke-opacity:1;stroke-miterlimit:10" d="m513.984 66.484 34.024 170 33.984 144.414 34.024 123.047L650 609.023l33.984 90.04 34.024 77.382 33.984 66.64 34.024 57.58L820 950.468l33.984 43.281 34.024 37.695 33.984 32.852 34.024 28.71L990 1118.165l33.984 22.11 34.024 19.453 33.984 17.148 34.024 15.117 33.984 13.399 33.984 11.836 34.024 10.468 33.984 9.297 34.024 8.242 33.984 7.305 33.984 6.484 34.024 5.743 33.984 5.078 34.024 4.492 33.984 3.906 33.984 3.399 34.024 2.968 33.984 2.54 34.024 2.148 33.984 1.797 33.984 1.445 34.024 1.055 33.984.781 34.024.469L1840 1295l33.984-.156 34.024-.469 33.984-.781 34.024-1.055 33.984-1.445 33.984-1.797 34.024-2.149 33.984-2.539 34.024-2.968 33.984-3.399 33.984-3.906 34.024-4.492 33.984-5.078 34.024-5.743 33.984-6.484 33.984-7.305 34.024-8.242 33.984-9.297 34.024-10.468L2520 1205.39l33.984-13.399 34.024-15.117 33.984-17.148 34.024-19.454 33.984-22.109 33.984-25.156 34.024-28.711 33.984-32.852 34.024-37.695 33.984-43.28 33.984-49.805 34.024-57.578 33.984-66.64 34.024-77.384L3030 609.024l33.984-105.078 34.024-123.047 33.984-144.414 34.024-170" transform="matrix(.1 0 0 -.1 0 274)"/></g><g clip-path="url(#w)"><path style="fill:none;stroke-width:12.5;stroke-linecap:round;stroke-linejoin:round;stroke:red;stroke-opacity:1;stroke-miterlimit:10" d="m513.984 2693.516 34.024-170 33.984-144.414 34.024-123.047L650 2150.977l33.984-90.04 34.024-77.382 33.984-66.64 34.024-57.54L820 1809.492l33.984-43.242 34.024-37.695 33.984-32.852 34.024-28.71L990 1641.835l33.984-22.11 34.024-19.453 33.984-17.148 34.024-15.117 33.984-13.399 33.984-11.836 34.024-10.468 33.984-9.297 34.024-8.242 33.984-7.305 33.984-6.484 34.024-5.743 33.984-5.078 34.024-4.492 33.984-3.906 33.984-3.399 34.024-2.968 33.984-2.54 34.024-2.148 33.984-1.797 33.984-1.445 34.024-1.055 33.984-.781 34.024-.469L1840 1465l33.984.156 34.024.469 33.984.781 34.024 1.055 33.984 1.445 33.984 1.797 34.024 2.149 33.984 2.539 34.024 2.968 33.984 3.399 33.984 3.906 34.024 4.492 33.984 5.078 34.024 5.743 33.984 6.484 33.984 7.305 34.024 8.242 33.984 9.297 34.024 10.468L2520 1554.61l33.984 13.399 34.024 15.117 33.984 17.148 34.024 19.454 33.984 22.109 33.984 25.156 34.024 28.711 33.984 32.852 34.024 37.695 33.984 43.242 33.984 49.883 34.024 57.54 33.984 66.64 34.024 77.382 33.984 90.04 33.984 105.078 34.024 123.047 33.984 144.414 34.024 170" transform="matrix(.1 0 0 -.1 0 274)"/></g><g clip-path="url(#x)"><path style="fill:none;stroke-width:12.5;stroke-linecap:round;stroke-linejoin:round;stroke:red;stroke-opacity:1;stroke-miterlimit:10" d="M140 1380h3400" transform="matrix(.1 0 0 -.1 0 274)"/></g></svg>