<svg xmlns="http://www.w3.org/2000/svg" xmlns:xlink="http://www.w3.org/1999/xlink" width="344pt" height="260pt" viewBox="0 0 344 260"><defs><clipPath id="a"><path d="M171 7.66h2v242.25h-2zm0 0"/></clipPath><clipPath id="b"><path d="M12 128h320v2H12zm0 0"/></clipPath><clipPath id="c"><path d="M12 7.66h1v242.25h-1zm0 0"/></clipPath><clipPath id="d"><path d="M65 7.66h1v242.25h-1zm0 0"/></clipPath><clipPath id="e"><path d="M118 7.66h1v242.25h-1zm0 0"/></clipPath><clipPath id="f"><path d="M171 7.66h2v242.25h-2zm0 0"/></clipPath><clipPath id="g"><path d="M225 7.66h1v242.25h-1zm0 0"/></clipPath><clipPath id="h"><path d="M278 7.66h1v242.25h-1zm0 0"/></clipPath><clipPath id="i"><path d="M331 7.66h1v242.25h-1zm0 0"/></clipPath><clipPath id="j"><path d="M12 249h320v.91H12zm0 0"/></clipPath><clipPath id="k"><path d="M12 209h320v1H12zm0 0"/></clipPath><clipPath id="l"><path d="M12 168h320v2H12zm0 0"/></clipPath><clipPath id="m"><path d="M12 128h320v2H12zm0 0"/></clipPath><clipPath id="n"><path d="M12 88h320v1H12zm0 0"/></clipPath><clipPath id="o"><path d="M12 47h320v2H12zm0 0"/></clipPath><clipPath id="p"><path d="M12 7.66h320V8H12zm0 0"/></clipPath><symbol overflow="visible" id="q"><path style="stroke:none" d="M1.953-2.14H.313v.5h1.64zm0 0"/></symbol><symbol overflow="visible" id="r"><path style="stroke:none" d="M1.516-2.219h.078l.25-.015c.672 0 1.015.296 1.015.89 0 .61-.39.969-1.015.969-.657 0-.985-.328-1.016-1.031h-.61c.032.39.095.64.22.86.234.468.718.702 1.39.702 1 0 1.64-.594 1.64-1.515 0-.61-.234-.954-.827-1.157.453-.187.687-.515.687-1 0-.843-.562-1.343-1.484-1.343-.985 0-1.5.546-1.516 1.578h.594c.015-.297.031-.469.11-.61.14-.265.437-.437.827-.437.532 0 .844.312.844.828 0 .344-.11.547-.39.656-.157.078-.376.094-.797.11zm0 0"/></symbol><symbol overflow="visible" id="s"><path style="stroke:none" d="M3.469-.594H.906c.063-.406.281-.656.89-1l.673-.375c.687-.36 1.031-.86 1.031-1.453 0-.406-.156-.781-.453-1.047-.281-.265-.625-.39-1.094-.39-.625 0-1.078.218-1.344.64-.171.25-.25.563-.265 1.047h.61c.015-.328.062-.531.14-.687a.94.94 0 0 1 .828-.47c.547 0 .969.391.969.907 0 .39-.235.719-.657.969l-.64.36C.578-1.532.28-1.064.234 0H3.47zm0 0"/></symbol><symbol overflow="visible" id="t"><path style="stroke:none" d="M1.781-3.453V0h.594v-4.86h-.39c-.22.75-.36.86-1.282.97v.437zm0 0"/></symbol><symbol overflow="visible" id="u"><path style="stroke:none" d="M1.89-4.86c-.452 0-.874.204-1.124.548-.313.421-.47 1.062-.47 1.968 0 1.64.548 2.5 1.595 2.5 1.03 0 1.593-.875 1.593-2.469 0-.937-.156-1.562-.484-2a1.355 1.355 0 0 0-1.11-.546zm0 .548c.641 0 .97.64.97 1.953 0 1.375-.313 2.015-.985 2.015-.64 0-.969-.672-.969-2 0-1.328.328-1.969.985-1.969zm0 0"/></symbol></defs><path style="stroke:none;fill-rule:nonzero;fill:#fff;fill-opacity:1" d="M12 249.91h320V7.66H12zm0 0"/><g clip-path="url(#a)"><path style="fill:none;stroke-width:5.70714;stroke-linecap:round;stroke-linejoin:miter;stroke:#bfbfbf;stroke-opacity:1;stroke-miterlimit:10" d="M1997.503-211.163V-2636.7" transform="matrix(.10013 0 0 .09987 -28 271)"/></g><g clip-path="url(#b)"><path style="fill:none;stroke-width:5.70714;stroke-linecap:round;stroke-linejoin:miter;stroke:#bfbfbf;stroke-opacity:1;stroke-miterlimit:10" d="M399.5-1423.931h3196.006" transform="matrix(.10013 0 0 .09987 -28 271)"/></g><g clip-path="url(#c)"><path style="fill:none;stroke-width:5.70714;stroke-linecap:round;stroke-linejoin:miter;stroke:#bfbfbf;stroke-opacity:1;stroke-dasharray:11.4143,17.1214;stroke-miterlimit:10" d="M399.5-211.163V-2636.7" transform="matrix(.10013 0 0 .09987 -28 271)"/></g><g clip-path="url(#d)"><path style="fill:none;stroke-width:5.70714;stroke-linecap:round;stroke-linejoin:miter;stroke:#bfbfbf;stroke-opacity:1;stroke-dasharray:11.4143,17.1214;stroke-miterlimit:10" d="M932.155-211.163V-2636.7" transform="matrix(.10013 0 0 .09987 -28 271)"/></g><g clip-path="url(#e)"><path style="fill:none;stroke-width:5.70714;stroke-linecap:round;stroke-linejoin:miter;stroke:#bfbfbf;stroke-opacity:1;stroke-dasharray:11.4143,17.1214;stroke-miterlimit:10" d="M1464.849-211.163V-2636.7" transform="matrix(.10013 0 0 .09987 -28 271)"/></g><g clip-path="url(#f)"><path style="fill:none;stroke-width:5.70714;stroke-linecap:round;stroke-linejoin:miter;stroke:#bfbfbf;stroke-opacity:1;stroke-dasharray:11.4143,17.1214;stroke-miterlimit:10" d="M1997.503-211.163V-2636.7" transform="matrix(.10013 0 0 .09987 -28 271)"/></g><g clip-path="url(#g)"><path style="fill:none;stroke-width:5.70714;stroke-linecap:round;stroke-linejoin:miter;stroke:#bfbfbf;stroke-opacity:1;stroke-dasharray:11.4143,17.1214;stroke-miterlimit:10" d="M2530.158-211.163V-2636.7" transform="matrix(.10013 0 0 .09987 -28 271)"/></g><g clip-path="url(#h)"><path style="fill:none;stroke-width:5.70714;stroke-linecap:round;stroke-linejoin:miter;stroke:#bfbfbf;stroke-opacity:1;stroke-dasharray:11.4143,17.1214;stroke-miterlimit:10" d="M3062.851-211.163V-2636.7" transform="matrix(.10013 0 0 .09987 -28 271)"/></g><g clip-path="url(#i)"><path style="fill:none;stroke-width:5.70714;stroke-linecap:round;stroke-linejoin:miter;stroke:#bfbfbf;stroke-opacity:1;stroke-dasharray:11.4143,17.1214;stroke-miterlimit:10" d="M3595.506-211.163V-2636.7" transform="matrix(.10013 0 0 .09987 -28 271)"/></g><g clip-path="url(#j)"><path style="fill:none;stroke-width:5.70714;stroke-linecap:round;stroke-linejoin:miter;stroke:#bfbfbf;stroke-opacity:1;stroke-dasharray:11.4143,17.1214;stroke-miterlimit:10" d="M399.5-211.163h3196.006" transform="matrix(.10013 0 0 .09987 -28 271)"/></g><g clip-path="url(#k)"><path style="fill:none;stroke-width:5.70714;stroke-linecap:round;stroke-linejoin:miter;stroke:#bfbfbf;stroke-opacity:1;stroke-dasharray:11.4143,17.1214;stroke-miterlimit:10" d="M399.5-615.419h3196.006" transform="matrix(.10013 0 0 .09987 -28 271)"/></g><g clip-path="url(#l)"><path style="fill:none;stroke-width:5.70714;stroke-linecap:round;stroke-linejoin:miter;stroke:#bfbfbf;stroke-opacity:1;stroke-dasharray:11.4143,17.1214;stroke-miterlimit:10" d="M399.5-1019.675h3196.006" transform="matrix(.10013 0 0 .09987 -28 271)"/></g><g clip-path="url(#m)"><path style="fill:none;stroke-width:5.70714;stroke-linecap:round;stroke-linejoin:miter;stroke:#bfbfbf;stroke-opacity:1;stroke-dasharray:11.4143,17.1214;stroke-miterlimit:10" d="M399.5-1423.931h3196.006" transform="matrix(.10013 0 0 .09987 -28 271)"/></g><g clip-path="url(#n)"><path style="fill:none;stroke-width:5.70714;stroke-linecap:round;stroke-linejoin:miter;stroke:#bfbfbf;stroke-opacity:1;stroke-dasharray:11.4143,17.1214;stroke-miterlimit:10" d="M399.5-1828.187h3196.006" transform="matrix(.10013 0 0 .09987 -28 271)"/></g><g clip-path="url(#o)"><path style="fill:none;stroke-width:5.70714;stroke-linecap:round;stroke-linejoin:miter;stroke:#bfbfbf;stroke-opacity:1;stroke-dasharray:11.4143,17.1214;stroke-miterlimit:10" d="M399.5-2232.443h3196.006" transform="matrix(.10013 0 0 .09987 -28 271)"/></g><g clip-path="url(#p)"><path style="fill:none;stroke-width:5.70714;stroke-linecap:round;stroke-linejoin:miter;stroke:#bfbfbf;stroke-opacity:1;stroke-dasharray:11.4143,17.1214;stroke-miterlimit:10" d="M399.5-2636.7h3196.006" transform="matrix(.10013 0 0 .09987 -28 271)"/></g><path style="fill:none;stroke-width:11.4143;stroke-linecap:square;stroke-linejoin:miter;stroke:#000;stroke-opacity:1;stroke-miterlimit:10" d="M399.5-211.163h3196.006" transform="matrix(.10013 0 0 .09987 -28 271)"/><path style="fill:none;stroke-width:5.70714;stroke-linecap:butt;stroke-linejoin:miter;stroke:#000;stroke-opacity:1;stroke-miterlimit:10" d="M399.5-211.163v-45.643m0 45.643v-22.84m53.254 22.84v-22.84m53.293 22.84v-22.84m53.253 22.84v-22.84m53.255 22.84v-22.84m53.292 22.84v-22.84m53.254 22.84v-22.84m53.254 22.84v-22.84m53.293 22.84v-22.84m106.507 22.84v-45.643m0 45.643v-22.84m53.293 22.84v-22.84m53.254 22.84v-22.84m53.253 22.84v-22.84m53.293 22.84v-22.84m53.254 22.84v-22.84m53.254 22.84v-22.84m53.292 22.84v-22.84m53.254 22.84v-22.84m106.547 22.84v-45.643m0 45.643v-22.84m53.253 22.84v-22.84m53.254 22.84v-22.84m53.293 22.84v-22.84m53.254 22.84v-22.84m53.253 22.84v-22.84m53.294 22.84v-22.84m53.253 22.84v-22.84m53.254 22.84v-22.84m106.546 22.84v-45.643m0 45.643v-22.84m53.254 22.84v-22.84m53.293 22.84v-22.84m53.253 22.84v-22.84m53.254 22.84v-22.84m53.293 22.84v-22.84m53.254 22.84v-22.84m53.253 22.84v-22.84m53.293 22.84v-22.84m106.508 22.84v-45.643m0 45.643v-22.84m53.292 22.84v-22.84m53.254 22.84v-22.84m53.254 22.84v-22.84m53.292 22.84v-22.84m53.254 22.84v-22.84m53.254 22.84v-22.84m53.292 22.84v-22.84m53.255 22.84v-22.84m106.546 22.84v-45.643m0 45.643v-22.84m53.254 22.84v-22.84m53.254 22.84v-22.84m53.292 22.84v-22.84m53.254 22.84v-22.84m53.254 22.84v-22.84m53.293 22.84v-22.84m53.253 22.84v-22.84m53.255 22.84v-22.84m106.546 22.84v-45.643m0 45.643v-22.84" transform="matrix(.10013 0 0 .09987 -28 271)"/><g style="fill:#000;fill-opacity:1"><use xlink:href="#q" x="8.952" y="259.03"/><use xlink:href="#r" x="11.236" y="259.03"/></g><g style="fill:#000;fill-opacity:1"><use xlink:href="#q" x="62.095" y="259.03"/><use xlink:href="#s" x="64.378" y="259.03"/></g><g style="fill:#000;fill-opacity:1"><use xlink:href="#q" x="115.238" y="259.03"/><use xlink:href="#t" x="117.522" y="259.03"/></g><use xlink:href="#u" x="170.094" y="259.03" style="fill:#000;fill-opacity:1"/><use xlink:href="#t" x="223.237" y="259.03" style="fill:#000;fill-opacity:1"/><use xlink:href="#s" x="276.38" y="259.03" style="fill:#000;fill-opacity:1"/><use xlink:href="#r" x="330.095" y="259.03" style="fill:#000;fill-opacity:1"/><path style="fill:none;stroke-width:11.4143;stroke-linecap:square;stroke-linejoin:miter;stroke:#000;stroke-opacity:1;stroke-miterlimit:10" d="M399.5-2636.7h3196.006" transform="matrix(.10013 0 0 .09987 -28 271)"/><path style="fill:none;stroke-width:5.70714;stroke-linecap:butt;stroke-linejoin:miter;stroke:#000;stroke-opacity:1;stroke-miterlimit:10" d="M399.5-2636.7v45.643m0-45.643v22.842m53.254-22.842v22.842m53.293-22.842v22.842M559.3-2636.7v22.842m53.255-22.842v22.842m53.292-22.842v22.842m53.254-22.842v22.842m53.254-22.842v22.842m53.293-22.842v22.842m106.507-22.842v45.643m0-45.643v22.842m53.293-22.842v22.842m53.254-22.842v22.842m53.253-22.842v22.842m53.293-22.842v22.842m53.254-22.842v22.842m53.254-22.842v22.842m53.292-22.842v22.842m53.254-22.842v22.842m106.547-22.842v45.643m0-45.643v22.842m53.253-22.842v22.842m53.254-22.842v22.842m53.293-22.842v22.842m53.254-22.842v22.842m53.253-22.842v22.842m53.294-22.842v22.842m53.253-22.842v22.842m53.254-22.842v22.842m106.546-22.842v45.643m0-45.643v22.842m53.254-22.842v22.842m53.293-22.842v22.842m53.253-22.842v22.842m53.254-22.842v22.842m53.293-22.842v22.842m53.254-22.842v22.842m53.253-22.842v22.842m53.293-22.842v22.842m106.508-22.842v45.643m0-45.643v22.842m53.292-22.842v22.842m53.254-22.842v22.842m53.254-22.842v22.842m53.292-22.842v22.842m53.254-22.842v22.842m53.254-22.842v22.842m53.292-22.842v22.842m53.255-22.842v22.842m106.546-22.842v45.643m0-45.643v22.842m53.254-22.842v22.842m53.254-22.842v22.842m53.292-22.842v22.842m53.254-22.842v22.842m53.254-22.842v22.842m53.293-22.842v22.842m53.253-22.842v22.842m53.255-22.842v22.842m106.546-22.842v45.643m0-45.643v22.842" transform="matrix(.10013 0 0 .09987 -28 271)"/><g style="fill:#000;fill-opacity:1"><use xlink:href="#q" x="8.952" y="5.38"/><use xlink:href="#r" x="11.236" y="5.38"/></g><g style="fill:#000;fill-opacity:1"><use xlink:href="#q" x="62.095" y="5.38"/><use xlink:href="#s" x="64.378" y="5.38"/></g><g style="fill:#000;fill-opacity:1"><use xlink:href="#q" x="115.238" y="5.38"/><use xlink:href="#t" x="117.522" y="5.38"/></g><use xlink:href="#u" x="170.094" y="5.38" style="fill:#000;fill-opacity:1"/><use xlink:href="#t" x="223.237" y="5.38" style="fill:#000;fill-opacity:1"/><use xlink:href="#s" x="276.38" y="5.38" style="fill:#000;fill-opacity:1"/><use xlink:href="#r" x="330.095" y="5.38" style="fill:#000;fill-opacity:1"/><path style="fill:none;stroke-width:11.4143;stroke-linecap:square;stroke-linejoin:miter;stroke:#000;stroke-opacity:1;stroke-miterlimit:10" d="M399.5-211.163V-2636.7" transform="matrix(.10013 0 0 .09987 -28 271)"/><path style="fill:none;stroke-width:5.70714;stroke-linecap:butt;stroke-linejoin:miter;stroke:#000;stroke-opacity:1;stroke-miterlimit:10" d="M399.5-211.163h45.647m-45.647 0h22.824M399.5-251.604h22.824M399.5-292.006h22.824M399.5-332.447h22.824M399.5-372.85h22.824M399.5-413.29h22.824M399.5-453.732h22.824M399.5-494.134h22.824M399.5-534.576h22.824M399.5-615.419h45.647m-45.647 0h22.824M399.5-655.86h22.824M399.5-696.262h22.824M399.5-736.704h22.824M399.5-777.106h22.824M399.5-817.547h22.824M399.5-857.988h22.824M399.5-898.39h22.824M399.5-938.832h22.824m-22.824-80.843h45.647m-45.647 0h22.824m-22.824-40.441h22.824m-22.824-40.402h22.824M399.5-1140.96h22.824m-22.824-40.402h22.824m-22.824-40.441h22.824m-22.824-40.441h22.824m-22.824-40.403h22.824m-22.824-40.441h22.824m-22.824-80.843h45.647m-45.647 0h22.824m-22.824-40.441h22.824m-22.824-40.403h22.824m-22.824-40.441h22.824m-22.824-40.402h22.824M399.5-1626.06h22.824m-22.824-40.401h22.824m-22.824-40.442h22.824m-22.824-40.441h22.824m-22.824-80.843h45.647m-45.647 0h22.824m-22.824-40.442h22.824M399.5-1909.03h22.824m-22.824-40.442h22.824m-22.824-40.402h22.824m-22.824-40.441h22.824m-22.824-40.442h22.824m-22.824-40.402h22.824M399.5-2151.6h22.824m-22.824-80.843h45.647m-45.647 0h22.824m-22.824-40.442h22.824m-22.824-40.402h22.824m-22.824-40.441h22.824M399.5-2394.17h22.824m-22.824-40.402h22.824m-22.824-40.441h22.824m-22.824-40.402h22.824m-22.824-40.441h22.824M399.5-2636.7h45.647m-45.647 0h22.824" transform="matrix(.10013 0 0 .09987 -28 271)"/><g style="fill:#000;fill-opacity:1"><use xlink:href="#q" x=".19" y="253.33"/><use xlink:href="#r" x="2.474" y="253.33"/></g><g style="fill:#000;fill-opacity:1"><use xlink:href="#q" x=".19" y="212.86"/><use xlink:href="#s" x="2.474" y="212.86"/></g><g style="fill:#000;fill-opacity:1"><use xlink:href="#q" x=".19" y="172.39"/><use xlink:href="#t" x="2.474" y="172.39"/></g><use xlink:href="#u" x="2.473" y="131.92" style="fill:#000;fill-opacity:1"/><use xlink:href="#t" x="2.473" y="91.45" style="fill:#000;fill-opacity:1"/><use xlink:href="#s" x="2.473" y="50.98" style="fill:#000;fill-opacity:1"/><use xlink:href="#r" x="2.473" y="11.08" style="fill:#000;fill-opacity:1"/><path style="fill:none;stroke-width:11.4143;stroke-linecap:square;stroke-linejoin:miter;stroke:#000;stroke-opacity:1;stroke-miterlimit:10" d="M3595.506-211.163V-2636.7" transform="matrix(.10013 0 0 .09987 -28 271)"/><path style="fill:none;stroke-width:5.70714;stroke-linecap:butt;stroke-linejoin:miter;stroke:#000;stroke-opacity:1;stroke-miterlimit:10" d="M3595.506-211.163h-45.685m45.685 0h-22.823m22.823-40.441h-22.823m22.823-40.402h-22.823m22.823-40.441h-22.823m22.823-40.403h-22.823m22.823-40.44h-22.823m22.823-40.442h-22.823m22.823-40.402h-22.823m22.823-40.442h-22.823m22.823-80.843h-45.685m45.685 0h-22.823m22.823-40.441h-22.823m22.823-40.402h-22.823m22.823-40.442h-22.823m22.823-40.402h-22.823m22.823-40.441h-22.823m22.823-40.441h-22.823m22.823-40.402h-22.823m22.823-40.442h-22.823m22.823-80.843h-45.685m45.685 0h-22.823m22.823-40.441h-22.823m22.823-40.402h-22.823m22.823-40.442h-22.823m22.823-40.402h-22.823m22.823-40.441h-22.823m22.823-40.441h-22.823m22.823-40.403h-22.823m22.823-40.441h-22.823m22.823-80.843h-45.685m45.685 0h-22.823m22.823-40.441h-22.823m22.823-40.403h-22.823m22.823-40.441h-22.823m22.823-40.402h-22.823m22.823-40.442h-22.823m22.823-40.401h-22.823m22.823-40.442h-22.823m22.823-40.441h-22.823m22.823-80.843h-45.685m45.685 0h-22.823m22.823-40.442h-22.823m22.823-40.401h-22.823m22.823-40.442h-22.823m22.823-40.402h-22.823m22.823-40.441h-22.823m22.823-40.442h-22.823m22.823-40.402h-22.823m22.823-40.441h-22.823m22.823-80.843h-45.685m45.685 0h-22.823m22.823-40.442h-22.823m22.823-40.402h-22.823m22.823-40.441h-22.823m22.823-40.442h-22.823m22.823-40.402h-22.823m22.823-40.441h-22.823m22.823-40.402h-22.823m22.823-40.441h-22.823m22.823-80.844h-45.685m45.685 0h-22.823" transform="matrix(.10013 0 0 .09987 -28 271)"/><g style="fill:#000;fill-opacity:1"><use xlink:href="#q" x="337.714" y="253.33"/><use xlink:href="#r" x="339.997" y="253.33"/></g><g style="fill:#000;fill-opacity:1"><use xlink:href="#q" x="337.714" y="212.86"/><use xlink:href="#s" x="339.997" y="212.86"/></g><g style="fill:#000;fill-opacity:1"><use xlink:href="#q" x="337.714" y="172.39"/><use xlink:href="#t" x="339.997" y="172.39"/></g><use xlink:href="#u" x="337.714" y="131.92" style="fill:#000;fill-opacity:1"/><use xlink:href="#t" x="337.714" y="91.45" style="fill:#000;fill-opacity:1"/><use xlink:href="#s" x="337.714" y="50.98" style="fill:#000;fill-opacity:1"/><use xlink:href="#r" x="337.714" y="11.08" style="fill:#000;fill-opacity:1"/><path style="fill:none;stroke-width:11.4143;stroke-linecap:round;stroke-linejoin:round;stroke:#00f;stroke-opacity:1;stroke-miterlimit:10" d="m3009.558-1909.03 106.547-242.57" transform="matrix(.10013 0 0 .09987 -28 271)"/></svg>