<svg xmlns="http://www.w3.org/2000/svg" xmlns:xlink="http://www.w3.org/1999/xlink" width="367pt" height="274pt" viewBox="0 0 367 274"><defs><clipPath id="a"><path d="M183 8.5h2v255h-2zm0 0"/></clipPath><clipPath id="b"><path d="M14 135h340v2H14zm0 0"/></clipPath><clipPath id="c"><path d="M14 8.5h1v255h-1zm0 0"/></clipPath><clipPath id="d"><path d="M70 8.5h1v255h-1zm0 0"/></clipPath><clipPath id="e"><path d="M127 8.5h1v255h-1zm0 0"/></clipPath><clipPath id="f"><path d="M183 8.5h2v255h-2zm0 0"/></clipPath><clipPath id="g"><path d="M240 8.5h1v255h-1zm0 0"/></clipPath><clipPath id="h"><path d="M297 8.5h1v255h-1zm0 0"/></clipPath><clipPath id="i"><path d="M353 8.5h1v255h-1zm0 0"/></clipPath><clipPath id="j"><path d="M14 263h340v.5H14zm0 0"/></clipPath><clipPath id="k"><path d="M14 220h340v2H14zm0 0"/></clipPath><clipPath id="l"><path d="M14 178h340v1H14zm0 0"/></clipPath><clipPath id="m"><path d="M14 135h340v2H14zm0 0"/></clipPath><clipPath id="n"><path d="M14 93h340v1H14zm0 0"/></clipPath><clipPath id="o"><path d="M14 50h340v2H14zm0 0"/></clipPath><clipPath id="p"><path d="M14 8.5h340V9H14zm0 0"/></clipPath><clipPath id="v"><path d="M14 8.5h340V137H14zm0 0"/></clipPath><clipPath id="w"><path d="M14 92h340v45H14zm0 0"/></clipPath><clipPath id="x"><path d="M14 135h340v87H14zm0 0"/></clipPath><symbol overflow="visible" id="q"><path style="stroke:none" d="M2.125-2.344H.344v.547h1.781zm0 0"/></symbol><symbol overflow="visible" id="r"><path style="stroke:none" d="M1.656-2.438h.36c.734 0 1.109.329 1.109.954 0 .671-.422 1.078-1.11 1.078-.718 0-1.078-.36-1.109-1.14H.234c.032.421.11.702.235.952.281.5.797.766 1.531.766 1.094 0 1.797-.656 1.797-1.656 0-.672-.266-1.047-.906-1.266.5-.203.75-.578.75-1.11 0-.906-.61-1.453-1.625-1.453-1.079 0-1.641.579-1.657 1.72h.657c0-.329.03-.516.109-.673.156-.296.484-.468.906-.468.578 0 .938.343.938.906 0 .375-.14.594-.438.719-.172.078-.406.109-.875.109zm0 0"/></symbol><symbol overflow="visible" id="s"><path style="stroke:none" d="M3.797-.656H1c.063-.438.313-.703.953-1.094l.75-.406c.75-.406 1.125-.953 1.125-1.594 0-.453-.172-.86-.484-1.14-.328-.298-.719-.423-1.219-.423-.672 0-1.172.235-1.469.688-.187.281-.265.61-.281 1.156h.656c.032-.36.078-.578.157-.75.171-.328.515-.515.921-.515.594 0 1.047.421 1.047.984 0 .422-.25.781-.719 1.063l-.687.39C.64-1.672.312-1.172.25 0h3.547zm0 0"/></symbol><symbol overflow="visible" id="t"><path style="stroke:none" d="M1.938-3.781V0h.671v-5.313h-.437c-.235.813-.39.922-1.406 1.047v.485zm0 0"/></symbol><symbol overflow="visible" id="u"><path style="stroke:none" d="M2.063-5.313c-.5 0-.938.22-1.22.579C.5-4.266.329-3.563.329-2.578c0 1.797.594 2.75 1.734 2.75 1.126 0 1.735-.953 1.735-2.703 0-1.031-.156-1.719-.516-2.203-.281-.375-.719-.579-1.219-.579zm0 .579c.718 0 1.062.718 1.062 2.14 0 1.516-.344 2.219-1.078 2.219C1.344-.375 1-1.109 1-2.563c0-1.453.344-2.171 1.063-2.171zm0 0"/></symbol></defs><path style="stroke:none;fill-rule:nonzero;fill:#fff;fill-opacity:1" d="M14 263.5h340V8.5H14zm0 0"/><g clip-path="url(#a)"><path style="fill:none;stroke-width:6.25;stroke-linecap:round;stroke-linejoin:miter;stroke:#bfbfbf;stroke-opacity:1;stroke-miterlimit:10" d="M1840 105v2550" transform="matrix(.1 0 0 -.1 0 274)"/></g><g clip-path="url(#b)"><path style="fill:none;stroke-width:6.25;stroke-linecap:round;stroke-linejoin:miter;stroke:#bfbfbf;stroke-opacity:1;stroke-miterlimit:10" d="M140 1380h3400" transform="matrix(.1 0 0 -.1 0 274)"/></g><g clip-path="url(#c)"><path style="fill:none;stroke-width:6.25;stroke-linecap:round;stroke-linejoin:miter;stroke:#bfbfbf;stroke-opacity:1;stroke-dasharray:12.5,18.75;stroke-miterlimit:10" d="M140 105v2550" transform="matrix(.1 0 0 -.1 0 274)"/></g><g clip-path="url(#d)"><path style="fill:none;stroke-width:6.25;stroke-linecap:round;stroke-linejoin:miter;stroke:#bfbfbf;stroke-opacity:1;stroke-dasharray:12.5,18.75;stroke-miterlimit:10" d="M706.68 105v2550" transform="matrix(.1 0 0 -.1 0 274)"/></g><g clip-path="url(#e)"><path style="fill:none;stroke-width:6.25;stroke-linecap:round;stroke-linejoin:miter;stroke:#bfbfbf;stroke-opacity:1;stroke-dasharray:12.5,18.75;stroke-miterlimit:10" d="M1273.32 105v2550" transform="matrix(.1 0 0 -.1 0 274)"/></g><g clip-path="url(#f)"><path style="fill:none;stroke-width:6.25;stroke-linecap:round;stroke-linejoin:miter;stroke:#bfbfbf;stroke-opacity:1;stroke-dasharray:12.5,18.75;stroke-miterlimit:10" d="M1840 105v2550" transform="matrix(.1 0 0 -.1 0 274)"/></g><g clip-path="url(#g)"><path style="fill:none;stroke-width:6.25;stroke-linecap:round;stroke-linejoin:miter;stroke:#bfbfbf;stroke-opacity:1;stroke-dasharray:12.5,18.75;stroke-miterlimit:10" d="M2406.68 105v2550" transform="matrix(.1 0 0 -.1 0 274)"/></g><g clip-path="url(#h)"><path style="fill:none;stroke-width:6.25;stroke-linecap:round;stroke-linejoin:miter;stroke:#bfbfbf;stroke-opacity:1;stroke-dasharray:12.5,18.75;stroke-miterlimit:10" d="M2973.32 105v2550" transform="matrix(.1 0 0 -.1 0 274)"/></g><g clip-path="url(#i)"><path style="fill:none;stroke-width:6.25;stroke-linecap:round;stroke-linejoin:miter;stroke:#bfbfbf;stroke-opacity:1;stroke-dasharray:12.5,18.75;stroke-miterlimit:10" d="M3540 105v2550" transform="matrix(.1 0 0 -.1 0 274)"/></g><g clip-path="url(#j)"><path style="fill:none;stroke-width:6.25;stroke-linecap:round;stroke-linejoin:miter;stroke:#bfbfbf;stroke-opacity:1;stroke-dasharray:12.5,18.75;stroke-miterlimit:10" d="M140 105h3400" transform="matrix(.1 0 0 -.1 0 274)"/></g><g clip-path="url(#k)"><path style="fill:none;stroke-width:6.25;stroke-linecap:round;stroke-linejoin:miter;stroke:#bfbfbf;stroke-opacity:1;stroke-dasharray:12.5,18.75;stroke-miterlimit:10" d="M140 530h3400" transform="matrix(.1 0 0 -.1 0 274)"/></g><g clip-path="url(#l)"><path style="fill:none;stroke-width:6.25;stroke-linecap:round;stroke-linejoin:miter;stroke:#bfbfbf;stroke-opacity:1;stroke-dasharray:12.5,18.75;stroke-miterlimit:10" d="M140 955h3400" transform="matrix(.1 0 0 -.1 0 274)"/></g><g clip-path="url(#m)"><path style="fill:none;stroke-width:6.25;stroke-linecap:round;stroke-linejoin:miter;stroke:#bfbfbf;stroke-opacity:1;stroke-dasharray:12.5,18.75;stroke-miterlimit:10" d="M140 1380h3400" transform="matrix(.1 0 0 -.1 0 274)"/></g><g clip-path="url(#n)"><path style="fill:none;stroke-width:6.25;stroke-linecap:round;stroke-linejoin:miter;stroke:#bfbfbf;stroke-opacity:1;stroke-dasharray:12.5,18.75;stroke-miterlimit:10" d="M140 1805h3400" transform="matrix(.1 0 0 -.1 0 274)"/></g><g clip-path="url(#o)"><path style="fill:none;stroke-width:6.25;stroke-linecap:round;stroke-linejoin:miter;stroke:#bfbfbf;stroke-opacity:1;stroke-dasharray:12.5,18.75;stroke-miterlimit:10" d="M140 2230h3400" transform="matrix(.1 0 0 -.1 0 274)"/></g><g clip-path="url(#p)"><path style="fill:none;stroke-width:6.25;stroke-linecap:round;stroke-linejoin:miter;stroke:#bfbfbf;stroke-opacity:1;stroke-dasharray:12.5,18.75;stroke-miterlimit:10" d="M140 2655h3400" transform="matrix(.1 0 0 -.1 0 274)"/></g><path style="fill:none;stroke-width:12.5;stroke-linecap:square;stroke-linejoin:miter;stroke:#000;stroke-opacity:1;stroke-miterlimit:10" d="M140 105h3400" transform="matrix(.1 0 0 -.1 0 274)"/><path style="fill:none;stroke-width:6.25;stroke-linecap:butt;stroke-linejoin:miter;stroke:#000;stroke-opacity:1;stroke-miterlimit:10" d="M140 105v50m56.68-50v25m56.64-25v25M310 105v25m56.68-25v25m56.64-25v25M480 105v25m56.68-25v25m56.64-25v25M650 105v25m56.68-25v50m56.64-50v25M820 105v25m56.68-25v25m56.64-25v25M990 105v25m56.68-25v25m56.64-25v25m56.68-25v25m56.68-25v25m56.64-25v50m56.68-50v25m56.68-25v25m56.64-25v25m56.68-25v25m56.68-25v25m56.64-25v25m56.68-25v25m56.68-25v25m56.64-25v25m56.68-25v50m56.68-50v25m56.64-25v25m56.68-25v25m56.68-25v25m56.64-25v25m56.68-25v25m56.68-25v25m56.64-25v25m56.68-25v25m56.68-25v50m56.64-50v25m56.68-25v25m56.68-25v25m56.64-25v25m56.68-25v25m56.68-25v25m56.64-25v25m56.68-25v25m56.68-25v25m56.64-25v50m56.68-50v25m56.68-25v25m56.64-25v25m56.68-25v25m56.68-25v25m56.64-25v25m56.68-25v25m56.68-25v25m56.64-25v25m56.68-25v50" transform="matrix(.1 0 0 -.1 0 274)"/><g style="fill:#000;fill-opacity:1"><use xlink:href="#q" x="10.041" y="273.5"/><use xlink:href="#r" x="12.539" y="273.5"/></g><g style="fill:#000;fill-opacity:1"><use xlink:href="#q" x="66.916" y="273.5"/><use xlink:href="#s" x="69.414" y="273.5"/></g><g style="fill:#000;fill-opacity:1"><use xlink:href="#q" x="123.791" y="273.5"/><use xlink:href="#t" x="126.289" y="273.5"/></g><use xlink:href="#u" x="181.915" y="273.5" style="fill:#000;fill-opacity:1"/><use xlink:href="#t" x="238.165" y="273.5" style="fill:#000;fill-opacity:1"/><use xlink:href="#s" x="295.04" y="273.5" style="fill:#000;fill-opacity:1"/><use xlink:href="#r" x="351.915" y="273.5" style="fill:#000;fill-opacity:1"/><path style="fill:none;stroke-width:12.5;stroke-linecap:square;stroke-linejoin:miter;stroke:#000;stroke-opacity:1;stroke-miterlimit:10" d="M140 2655h3400" transform="matrix(.1 0 0 -.1 0 274)"/><path style="fill:none;stroke-width:6.25;stroke-linecap:butt;stroke-linejoin:miter;stroke:#000;stroke-opacity:1;stroke-miterlimit:10" d="M140 2655v-50m56.68 50v-25m56.64 25v-25m56.68 25v-25m56.68 25v-25m56.64 25v-25m56.68 25v-25m56.68 25v-25m56.64 25v-25m56.68 25v-25m56.68 25v-50m56.64 50v-25m56.68 25v-25m56.68 25v-25m56.64 25v-25m56.68 25v-25m56.68 25v-25m56.64 25v-25m56.68 25v-25m56.68 25v-25m56.64 25v-50m56.68 50v-25m56.68 25v-25m56.64 25v-25m56.68 25v-25m56.68 25v-25m56.64 25v-25m56.68 25v-25m56.68 25v-25m56.64 25v-25m56.68 25v-50m56.68 50v-25m56.64 25v-25m56.68 25v-25m56.68 25v-25m56.64 25v-25m56.68 25v-25m56.68 25v-25m56.64 25v-25m56.68 25v-25m56.68 25v-50m56.64 50v-25m56.68 25v-25m56.68 25v-25m56.64 25v-25m56.68 25v-25m56.68 25v-25m56.64 25v-25m56.68 25v-25m56.68 25v-25m56.64 25v-50m56.68 50v-25m56.68 25v-25m56.64 25v-25m56.68 25v-25m56.68 25v-25m56.64 25v-25m56.68 25v-25m56.68 25v-25m56.64 25v-25m56.68 25v-50" transform="matrix(.1 0 0 -.1 0 274)"/><g style="fill:#000;fill-opacity:1"><use xlink:href="#q" x="10.041" y="5.375"/><use xlink:href="#r" x="12.539" y="5.375"/></g><g style="fill:#000;fill-opacity:1"><use xlink:href="#q" x="66.916" y="5.375"/><use xlink:href="#s" x="69.414" y="5.375"/></g><g style="fill:#000;fill-opacity:1"><use xlink:href="#q" x="123.791" y="5.375"/><use xlink:href="#t" x="126.289" y="5.375"/></g><use xlink:href="#u" x="181.915" y="5.375" style="fill:#000;fill-opacity:1"/><use xlink:href="#t" x="238.165" y="5.375" style="fill:#000;fill-opacity:1"/><use xlink:href="#s" x="295.04" y="5.375" style="fill:#000;fill-opacity:1"/><use xlink:href="#r" x="351.915" y="5.375" style="fill:#000;fill-opacity:1"/><path style="fill:none;stroke-width:12.5;stroke-linecap:square;stroke-linejoin:miter;stroke:#000;stroke-opacity:1;stroke-miterlimit:10" d="M140 105v2550" transform="matrix(.1 0 0 -.1 0 274)"/><path style="fill:none;stroke-width:6.25;stroke-linecap:butt;stroke-linejoin:miter;stroke:#000;stroke-opacity:1;stroke-miterlimit:10" d="M140 105h50m-50 42.5h25M140 190h25m-25 42.5h25M140 275h25m-25 42.5h25M140 360h25m-25 42.5h25M140 445h25m-25 42.5h25M140 530h50m-50 42.5h25M140 615h25m-25 42.5h25M140 700h25m-25 42.5h25M140 785h25m-25 42.5h25M140 870h25m-25 42.5h25M140 955h50m-50 42.5h25m-25 42.5h25m-25 42.5h25m-25 42.5h25m-25 42.5h25m-25 42.5h25m-25 42.5h25m-25 42.5h25m-25 42.5h25m-25 42.5h50m-50 42.5h25m-25 42.5h25m-25 42.5h25m-25 42.5h25m-25 42.5h25m-25 42.5h25m-25 42.5h25m-25 42.5h25m-25 42.5h25m-25 42.5h50m-50 42.5h25m-25 42.5h25m-25 42.5h25m-25 42.5h25m-25 42.5h25m-25 42.5h25m-25 42.5h25m-25 42.5h25m-25 42.5h25m-25 42.5h50m-50 42.5h25m-25 42.5h25m-25 42.5h25m-25 42.5h25m-25 42.5h25m-25 42.5h25m-25 42.5h25m-25 42.5h25m-25 42.5h25m-25 42.5h50" transform="matrix(.1 0 0 -.1 0 274)"/><g style="fill:#000;fill-opacity:1"><use xlink:href="#q" x=".458" y="267.25"/><use xlink:href="#r" x="2.955" y="267.25"/></g><g style="fill:#000;fill-opacity:1"><use xlink:href="#q" x=".458" y="224.125"/><use xlink:href="#s" x="2.955" y="224.125"/></g><g style="fill:#000;fill-opacity:1"><use xlink:href="#q" x=".458" y="182.25"/><use xlink:href="#t" x="2.955" y="182.25"/></g><use xlink:href="#u" x="2.955" y="139.125" style="fill:#000;fill-opacity:1"/><use xlink:href="#t" x="2.955" y="97.25" style="fill:#000;fill-opacity:1"/><use xlink:href="#s" x="2.955" y="54.125" style="fill:#000;fill-opacity:1"/><use xlink:href="#r" x="2.955" y="11.625" style="fill:#000;fill-opacity:1"/><path style="fill:none;stroke-width:12.5;stroke-linecap:square;stroke-linejoin:miter;stroke:#000;stroke-opacity:1;stroke-miterlimit:10" d="M3540 105v2550" transform="matrix(.1 0 0 -.1 0 274)"/><path style="fill:none;stroke-width:6.25;stroke-linecap:butt;stroke-linejoin:miter;stroke:#000;stroke-opacity:1;stroke-miterlimit:10" d="M3540 105h-50m50 42.5h-25m25 42.5h-25m25 42.5h-25m25 42.5h-25m25 42.5h-25m25 42.5h-25m25 42.5h-25m25 42.5h-25m25 42.5h-25m25 42.5h-50m50 42.5h-25m25 42.5h-25m25 42.5h-25m25 42.5h-25m25 42.5h-25m25 42.5h-25m25 42.5h-25m25 42.5h-25m25 42.5h-25m25 42.5h-50m50 42.5h-25m25 42.5h-25m25 42.5h-25m25 42.5h-25m25 42.5h-25m25 42.5h-25m25 42.5h-25m25 42.5h-25m25 42.5h-25m25 42.5h-50m50 42.5h-25m25 42.5h-25m25 42.5h-25m25 42.5h-25m25 42.5h-25m25 42.5h-25m25 42.5h-25m25 42.5h-25m25 42.5h-25m25 42.5h-50m50 42.5h-25m25 42.5h-25m25 42.5h-25m25 42.5h-25m25 42.5h-25m25 42.5h-25m25 42.5h-25m25 42.5h-25m25 42.5h-25m25 42.5h-50m50 42.5h-25m25 42.5h-25m25 42.5h-25m25 42.5h-25m25 42.5h-25m25 42.5h-25m25 42.5h-25m25 42.5h-25m25 42.5h-25m25 42.5h-50" transform="matrix(.1 0 0 -.1 0 274)"/><g style="fill:#000;fill-opacity:1"><use xlink:href="#q" x="360.25" y="267.25"/><use xlink:href="#r" x="362.748" y="267.25"/></g><g style="fill:#000;fill-opacity:1"><use xlink:href="#q" x="360.25" y="224.125"/><use xlink:href="#s" x="362.748" y="224.125"/></g><g style="fill:#000;fill-opacity:1"><use xlink:href="#q" x="360.25" y="182.25"/><use xlink:href="#t" x="362.748" y="182.25"/></g><use xlink:href="#u" x="360.25" y="139.125" style="fill:#000;fill-opacity:1"/><use xlink:href="#t" x="360.25" y="97.25" style="fill:#000;fill-opacity:1"/><use xlink:href="#s" x="360.25" y="54.125" style="fill:#000;fill-opacity:1"/><use xlink:href="#r" x="360.25" y="11.625" style="fill:#000;fill-opacity:1"/><path style="fill:none;stroke-width:6.25;stroke-linecap:round;stroke-linejoin:miter;stroke:#00f;stroke-opacity:1;stroke-miterlimit:10" d="m200.43 121.68 41.054 88.047m0 0h0m-42.89 34.296 44.726 86.25m0 0h0m-46.836 36.329 48.946 83.906m0 0h0m-51.407 39.062 53.868 80.86m-.001 0h0m-56.757 42.656 59.648 76.68m0 0h0m-62.968 47.578 66.289 71.015m0 .001h0m-70.039 54.335 73.75 63.203m0 0h0m-77.735 63.555 81.719 52.54m0-.001h0m-85.469 76.016 89.258 38.281m0 .001h0m-92.109 92.108 94.96 20.352m.001 0h0M172.383 1380h97.148m0 0h0m-96.054 131.602 94.96-20.352m.001 0h0m-92.11 150.742 89.258-38.281m0-.001h0m-85.508 166.837 81.719-52.54m0 .001h0m-77.734 179.297 73.75-63.203m0 0h0m-70 188.554 66.289-71.015m0-.001h0m-62.969 195.274 59.648-76.68m0 0h0m-56.758 200.156 53.868-80.78m-.001 0h0m-51.406 203.788 48.946-83.945m0 0h0m-46.836 206.524 44.726-86.25m0 0h0m-42.89 208.554 41.054-88.008m0 0h0M362.305 121.68l41.093 88.047m0 0h0m-42.89 34.296 44.726 86.25m0 0h0m-46.836 36.329 48.946 83.906m0 0h0m-51.446 39.062 53.907 80.86m0 0h0m-56.758 42.656 59.648 76.68m0 0h0m-62.968 47.578 66.289 71.015m0 .001h0m-70.039 54.335 73.75 63.203m0 0h0m-77.735 63.555 81.719 52.54m-.001-.001h0m-85.507 76.016 89.297 38.281m0 .001h0m-92.148 92.108 95 20.352m0 0h0M334.297 1380h97.148m0 0h0m-96.093 131.602 95-20.352m0 0h0m-92.149 150.742 89.297-38.281m0-.001h0m-85.508 166.837 81.719-52.54m-.001.001h0m-77.733 179.297 73.75-63.203m0 0h0m-70 188.554 66.289-71.015m0-.001h0m-62.969 195.274 59.648-76.68m0 0h0m-56.797 200.156 53.907-80.78m0 0h0m-51.407 203.788 48.946-83.945m0 0h0m-46.836 206.524 44.726-86.25m0 0h0m-42.929 208.554 41.093-88.008m0 0h0M524.219 121.68l41.093 88.047m.001 0h0m-42.891 34.296 44.687 86.25m.001 0h0m-46.837 36.329 48.946 83.906m0 0h0m-51.406 39.062 53.906 80.86m0 0h0m-56.759 42.656 59.61 76.68m0 0h0m-62.968 47.578 66.289 71.015m-.001.001h0m-70 54.335 73.75 63.203m0 0h0m-77.734 63.555 81.719 52.54m0-.001h0m-85.508 76.016 89.297 38.281m0 .001h0m-92.148 92.108 95 20.352m0 0h0M496.172 1380h97.148m0 0h0m-96.054 131.602 95-20.352m0 0h0m-92.149 150.742 89.297-38.281m0-.001h0m-85.508 166.837 81.719-52.54m0 .001h0m-77.735 179.297 73.75-63.203m0 0h0m-70.038 188.554 66.289-71.015m-.001-.001h0m-62.93 195.274 59.61-76.68m0 0h0m-56.757 200.156 53.906-80.78m0 0h0m-51.446 203.788 48.946-83.945m0 0h0m-46.797 206.524 44.687-86.25m.001 0h0m-42.891 208.554 41.093-88.008m.001 0h0M686.133 121.68l41.054 88.047m.001 0h0m-42.891 34.296 44.726 86.25m0 0h0m-46.835 36.329 48.945 83.906m0 0h0m-51.406 39.062 53.867 80.86m0 0h0m-56.758 42.656 59.648 76.68m0 0h0m-62.968 47.578 66.289 71.015m0 .001h0m-70 54.335 73.75 63.203m0 0h0m-77.735 63.555 81.72 52.54m0-.001h0m-85.509 76.016 89.297 38.281m0 .001h0m-92.148 92.108 95 20.352m0 0h0M658.086 1380h97.148m0 0h0m-96.054 131.602 95-20.352m0 0h0m-92.149 150.742 89.297-38.281m0-.001h0m-85.508 166.837 81.72-52.54m0 .001h0m-77.735 179.297 73.75-63.203m0 0h0m-70.039 188.554 66.289-71.015m0-.001h0m-62.969 195.274 59.648-76.68m0 0h0m-56.757 200.156 53.867-80.78m0 0h0m-51.406 203.788 48.945-83.945m0 0h0m-46.836 206.524 44.726-86.25m0 0h0m-42.89 208.554 41.054-88.008m.001 0h0M848.047 121.68l41.055 88.047m0 0h0m-42.892 34.296 44.727 86.25m.001 0h0m-46.836 36.329 48.945 83.906m0 0h0M841.64 489.57l53.868 80.86m0 0h0m-56.758 42.656 59.648 76.68m0 0h0m-62.968 47.578 66.289 71.015m0 .001h0m-70.039 54.335 73.75 63.203m0 0h0m-77.735 63.555 81.72 52.54m-.001-.001h0m-85.469 76.016 89.258 38.281m0 .001h0m-92.109 92.108 94.96 20.352m.001 0h0M820 1380h97.148m0 0h0m-96.054 131.602 94.96-20.352m.001 0h0m-92.11 150.742 89.258-38.281m0-.001h0m-85.508 166.837 81.72-52.54m-.001.001h0m-77.734 179.297 73.75-63.203m0 0h0m-70 188.554 66.289-71.015m0-.001h0m-62.969 195.274 59.648-76.68m0 0h0M841.64 2270.39l53.868-80.78m0 0h0m-51.406 203.788 48.945-83.945m0 0h0m-46.837 206.524 44.727-86.25m.001 0h0m-42.891 208.554 41.055-88.008m0 0h0m120.82-2428.593 41.094 88.047m0 0h0m-42.891 34.296 44.727 86.25m0 0h0m-46.836 36.329 48.945 83.906m-.001 0h0m-51.444 39.062 53.906 80.86m0 0h0m-56.758 42.656 59.61 76.68m-.001 0h0m-62.929 47.578 66.289 71.015m0 .001h0m-70.039 54.335 73.75 63.203m0 0h0m-77.734 63.555 81.718 52.54m0-.001h0m-85.508 76.016 89.297 38.281m0 .001h0m-92.148 92.108 95 20.352m0 0h0M981.914 1380h97.149m0 0h0m-96.094 131.602 95-20.352m0 0h0m-92.149 150.742 89.297-38.281m0-.001h0m-85.507 166.837 81.718-52.54m0 .001h0m-77.734 179.297 73.75-63.203m0 0h0m-70 188.554 66.289-71.015m0-.001h0m-62.969 195.274 59.61-76.68m-.001 0h0m-56.757 200.156 53.906-80.78m0 0h0m-51.406 203.788 48.945-83.945m-.001 0h0m-46.835 206.524 44.727-86.25m0 0h0m-42.93 208.554 41.094-88.008m0 0h0m120.82-2428.593 41.094 88.047m0 0h0m-42.89 34.296 44.687 86.25m0 0h0m-46.837 36.329 48.985 83.906m0 0h0m-51.445 39.062 53.906 80.86m0 0h0m-56.758 42.656 59.61 76.68m0 0h0m-62.93 47.578 66.25 71.015m0 .001h0m-70 54.335 73.75 63.203m0 0h0m-77.735 63.555 81.72 52.54m-.001-.001h0m-85.508 76.016 89.297 38.281m0 .001h0m-92.148 92.108 95 20.352m0 0h0M1143.828 1380h97.11m0 0h0m-96.055 131.602 95-20.352m0 0h0m-92.149 150.742 89.297-38.281m0-.001h0m-85.508 166.837 81.72-52.54m-.001.001h0m-77.734 179.297 73.75-63.203m0 0h0m-70 188.554 66.25-71.015m0-.001h0m-62.93 195.274 59.61-76.68m0 0h0m-56.758 200.156 53.906-80.78m0 0h0m-51.446 203.788 48.985-83.945m0 0h0m-46.835 206.524 44.687-86.25m0 0h0m-42.891 208.554 41.094-88.008m0 0h0M1333.75 121.68l41.055 88.047m0 0h0m-42.891 34.296 44.727 86.25m-.001 0h0m-46.835 36.329 48.945 83.906m0 0h0m-51.406 39.062 53.867 80.86m-.001 0h0m-56.757 42.656 59.649 76.68m0 0h0m-62.969 47.578 66.289 71.015m0 .001h0m-70 54.335 73.75 63.203m0 0h0m-77.734 63.555 81.718 52.54m0-.001h0m-85.508 76.016 89.297 38.281m0 .001h0m-92.148 92.108 95 20.352m0 0h0M1305.703 1380h97.149m0 0h0m-96.055 131.602 95-20.352m0 0h0m-92.149 150.742 89.297-38.281m0-.001h0m-85.507 166.837 81.718-52.54m0 .001h0m-77.734 179.297 73.75-63.203m0 0h0m-70.039 188.554 66.289-71.015m0-.001h0m-62.969 195.274 59.649-76.68m0 0h0m-56.758 200.156 53.867-80.78m-.001 0h0m-51.405 203.788 48.945-83.945m0 0h0m-46.836 206.524 44.727-86.25m-.001 0h0m-42.89 208.554 41.055-88.008m0 0h0M1495.664 121.68l41.055 88.047m0 0h0m-42.891 34.296 44.727 86.25m0 0h0m-46.836 36.329 48.945 83.906m0 0h0m-51.406 39.062 53.867 80.86m0 0h0m-56.758 42.656 59.649 76.68m0 0h0m-62.969 47.578 66.289 71.015m0 .001h0m-70.039 54.335 73.789 63.203m0 0h0m-77.773 63.555 81.718 52.54m0-.001h0m-85.508 76.016 89.336 38.281m.001.001h0m-92.15 92.108 94.962 20.352m0 0h0M1467.617 1380h97.149m0 0h0m-96.056 131.602 94.962-20.352m0 0h0m-92.149 150.742 89.336-38.281m.001-.001h0m-85.547 166.837 81.718-52.54m0 .001h0m-77.734 179.297 73.789-63.203m0 0h0m-70.039 188.554 66.289-71.015m0-.001h0m-62.969 195.274 59.649-76.68m0 0h0m-56.758 200.156 53.867-80.78m0 0h0m-51.406 203.788 48.945-83.945m0 0h0m-46.836 206.524 44.727-86.25m0 0h0m-42.891 208.554 41.055-88.008m0 0h0M1657.54 121.68l41.093 88.047m0 0h0m-42.891 34.296 44.727 86.25m0 0h0m-46.836 36.329 48.945 83.906m0 0h0m-51.445 39.062 53.906 80.86m.001 0h0m-56.759 42.656 59.61 76.68m-.001 0h0m-62.93 47.578 66.29 71.015m0 .001h0m-70.04 54.335 73.75 63.203m0 0h0m-77.733 63.555 81.718 52.54m0-.001h0m-85.507 76.016 89.296 38.281m0 .001h0m-92.148 92.108 95 20.352m0 0h0M1629.531 1380h97.149m0 0h0m-96.094 131.602 95-20.352m0 0h0m-92.148 150.742 89.296-38.281m0-.001h0m-85.507 166.837 81.718-52.54m0 .001h0m-77.735 179.297 73.75-63.203m0 0h0m-70 188.554 66.29-71.015m0-.001h0m-62.969 195.274 59.61-76.68m-.001 0h0m-56.757 200.156 53.906-80.78m.001 0h0m-51.407 203.788 48.945-83.945m0 0h0m-46.836 206.524 44.727-86.25m0 0h0m-42.929 208.554 41.093-88.008m0 0h0m120.82-2428.593 41.094 88.047m0 0h0m-42.891 34.296 44.688 86.25m0 0h0m-46.836 36.329 48.984 83.906m0 0h0m-51.445 39.062 53.906 80.86m0 0h0m-56.758 42.656 59.61 76.68m0 0h0m-62.93 47.578 66.25 71.015m0 .001h0m-70 54.335 73.75 63.203m0 0h0m-77.735 63.555 81.72 52.54m0-.001h0m-85.508 76.016 89.296 38.281m0 .001h0m-92.148 92.108 95 20.352m0 0h0M1791.445 1380h97.11m0 0h0m-96.055 131.602 95-20.352m0 0h0m-92.148 150.742 89.296-38.281m0-.001h0m-85.508 166.837 81.72-52.54m0 .001h0m-77.735 179.297 73.75-63.203m0 0h0m-70 188.554 66.25-71.015m0-.001h0m-62.93 195.274 59.61-76.68m0 0h0m-56.758 200.156 53.906-80.78m0 0h0m-51.445 203.788 48.984-83.945m0 0h0m-46.836 206.524 44.688-86.25m0 0h0m-42.891 208.554 41.094-88.008m0 0h0m120.82-2428.593 41.094 88.047m-.001 0h0m-42.929 34.296 44.727 86.25m0 0h0m-46.836 36.329 48.945 83.906m0 0h0m-51.407 39.062 53.907 80.86m0 0h0m-56.757 42.656 59.609 76.68m0 0h0m-62.969 47.578 66.29 71.015m0 .001h0m-70 54.335 73.75 63.203m0 0h0m-77.735 63.555 81.718 52.54m0-.001h0m-85.507 76.016 89.296 38.281m.001.001h0m-92.149 92.108 95 20.352m0 0h0M1953.32 1380h97.149m0 0h0m-96.055 131.602 95-20.352m0 0h0m-92.148 150.742 89.296-38.281m.001-.001h0m-85.508 166.837 81.718-52.54m0 .001h0m-77.733 179.297 73.75-63.203m0 0h0m-70.04 188.554 66.29-71.015m0-.001h0m-62.93 195.274 59.609-76.68m0 0h0m-56.759 200.156 53.907-80.78m0 0h0m-51.445 203.788 48.945-83.945m0 0h0m-46.836 206.524 44.727-86.25m0 0h0m-42.891 208.554 41.094-88.008m-.001 0h0M2143.281 121.68l41.055 88.047m0 0h0m-42.891 34.296 44.727 86.25m0 0h0m-46.836 36.329 48.945 83.906m0 0h0m-51.406 39.062 53.867 80.86m0 0h0m-56.758 42.656 59.649 76.68m0 0h0m-62.969 47.578 66.29 71.015m-.001.001h0m-70.039 54.335 73.79 63.203m-.001 0h0m-77.734 63.555 81.718 52.54m.001-.001h0m-85.548 76.016 89.337 38.281m0 .001h0m-92.149 92.108 94.961 20.352m.001 0h0M2115.234 1380h97.149m0 0h0m-96.055 131.602 94.961-20.352m.001 0h0m-92.15 150.742 89.337-38.281m0-.001h0m-85.508 166.837 81.718-52.54m.001.001h0m-77.774 179.297 73.79-63.203m-.001 0h0m-70.039 188.554 66.29-71.015m-.001-.001h0m-62.969 195.274 59.649-76.68m0 0h0m-56.758 200.156 53.867-80.78m0 0h0m-51.406 203.788 48.945-83.945m0 0h0m-46.836 206.524 44.727-86.25m0 0h0m-42.891 208.554 41.055-88.008m0 0h0M2305.195 121.68l41.055 88.047m0 0h0m-42.89 34.296 44.726 86.25m0 0h0m-46.836 36.329 48.945 83.906m0 0h0m-51.405 39.062 53.866 80.86m0 0h0m-56.758 42.656 59.649 76.68m0 0h0m-62.969 47.578 66.29 71.015m-.001.001h0m-70.039 54.335 73.75 63.203m0 0h0m-77.734 63.555 81.718 52.54m.001-.001h0m-85.508 76.016 89.297 38.281m0 .001h0m-92.149 92.108 95 20.352m0 0h0M2277.148 1380h97.149m0 0h0m-96.094 131.602 95-20.352m0 0h0m-92.148 150.742 89.297-38.281m0-.001h0m-85.508 166.837 81.718-52.54m.001.001h0m-77.735 179.297 73.75-63.203m0 0h0m-70 188.554 66.29-71.015m-.001-.001h0m-62.969 195.274 59.649-76.68m0 0h0m-56.757 200.156 53.866-80.78m0 0h0m-51.406 203.788 48.945-83.945m0 0h0m-46.835 206.524 44.726-86.25m0 0h0m-42.891 208.554 41.055-88.008m0 0h0M2467.07 121.68l41.094 88.047m0 0h0m-42.891 34.296 44.688 86.25m-.001 0h0m-46.835 36.329 48.984 83.906m.001 0h0m-51.446 39.062 53.906 80.86m0 0h0m-56.757 42.656 59.609 76.68m0 0h0m-62.93 47.578 66.25 71.015m0 .001h0m-70 54.335 73.75 63.203m0 0h0m-77.734 63.555 81.719 52.54m0-.001h0m-85.508 76.016 89.297 38.281m0 .001h0m-92.149 92.108 95 20.352m0 0h0M2439.063 1380h97.109m0 0h0m-96.055 131.602 95-20.352m0 0h0m-92.148 150.742 89.297-38.281m0-.001h0m-85.508 166.837 81.719-52.54m0 .001h0m-77.735 179.297 73.75-63.203m0 0h0m-70 188.554 66.25-71.015m0-.001h0m-62.929 195.274 59.609-76.68m0 0h0m-56.758 200.156 53.906-80.78m0 0h0m-51.445 203.788 48.984-83.945m.001 0h0m-46.837 206.524 44.688-86.25m-.001 0h0m-42.89 208.554 41.094-88.008m0 0h0m120.82-2428.593 41.094 88.047m0 0h0m-42.93 34.296 44.727 86.25m0 0h0m-46.835 36.329 48.944 83.906m0 0h0m-51.406 39.062 53.906 80.86m0 0h0m-56.757 42.656 59.609 76.68m0 0h0m-62.969 47.578 66.29 71.015m-.001.001h0m-70 54.335 73.75 63.203m0 0h0m-77.734 63.555 81.719 52.54m-.001-.001h0m-85.507 76.016 89.297 38.281m0 .001h0m-92.149 92.108 95 20.352m0 0h0M2600.938 1380h97.148m0 0h0m-96.055 131.602 95-20.352m0 0h0m-92.148 150.742 89.297-38.281m0-.001h0m-85.508 166.837 81.719-52.54m-.001.001h0m-77.734 179.297 73.75-63.203m0 0h0m-70.039 188.554 66.29-71.015m-.001-.001h0m-62.929 195.274 59.609-76.68m0 0h0m-56.758 200.156 53.906-80.78m0 0h0m-51.444 203.788 48.944-83.945m0 0h0m-46.836 206.524 44.727-86.25m0 0h0m-42.891 208.554 41.094-88.008m0 0h0m120.82-2428.593 41.055 88.047m0 0h0m-42.89 34.296 44.726 86.25m.001 0h0m-46.837 36.329 48.945 83.906m0 0h0m-51.406 39.062 53.867 80.86m.001 0h0m-56.758 42.656 59.648 76.68m0 0h0m-62.969 47.578 66.29 71.015m-.001.001h0m-70.039 54.335 73.75 63.203m0 0h0m-77.695 63.555 81.719 52.54m0-.001h0m-85.508 76.016 89.258 38.281m0 .001h0m-92.11 92.108 94.961 20.352m0 0h0M2762.852 1380H2860m0 0h0m-96.055 131.602 94.961-20.352m0 0h0m-92.109 150.742 89.258-38.281m0-.001h0m-85.469 166.837 81.719-52.54m0 .001h0m-77.774 179.297 73.75-63.203m0 0h0m-70 188.554 66.29-71.015m-.001-.001h0m-62.968 195.274 59.648-76.68m0 0h0m-56.758 200.156 53.867-80.78m.001 0h0m-51.407 203.788 48.945-83.945m0 0h0m-46.835 206.524 44.726-86.25m.001 0h0m-42.892 208.554 41.055-88.008m0 0h0m120.82-2428.593 41.094 88.047m0 0h0m-42.89 34.296 44.726 86.25m0 0h0m-46.836 36.329 48.945 83.906m.001 0h0m-51.407 39.062 53.867 80.86m0 0h0m-56.757 42.656 59.648 76.68m0 0h0m-62.969 47.578 66.29 71.015m-.001.001h0m-70.039 54.335 73.75 63.203m0 0h0m-77.735 63.555 81.72 52.54m0-.001h0m-85.508 76.016 89.297 38.281m0 .001h0m-92.109 92.108 94.96 20.352m0 0h0M2924.766 1380h97.148m0 0h0m-96.054 131.602 94.96-20.352m0 0h0m-92.148 150.742 89.297-38.281m0-.001h0m-85.509 166.837 81.72-52.54m0 .001h0m-77.735 179.297 73.75-63.203m0 0h0m-70 188.554 66.29-71.015m-.001-.001h0m-62.968 195.274 59.648-76.68m0 0h0m-56.758 200.156 53.867-80.78m0 0h0m-51.406 203.788 48.945-83.945m.001 0h0m-46.836 206.524 44.726-86.25m0 0h0m-42.93 208.554 41.094-88.008m0 0h0M3114.688 121.68l41.093 88.047m0 0h0m-42.891 34.296 44.688 86.25m0 0h0m-46.836 36.329 48.985 83.906m0 0h0m-51.446 39.062 53.907 80.86m0 0h0m-56.758 42.656 59.61 76.68m0 0h0m-62.93 47.578 66.288 71.015m0 .001h0m-70.038 54.335 73.75 63.203m0 0h0m-77.735 63.555 81.719 52.54m0-.001h0m-85.508 76.016 89.297 38.281m0 .001h0m-92.149 92.108 95 20.352m0 0h0M3086.68 1380h97.148m0 0h0m-96.094 131.602 95-20.352m0 0h0m-92.148 150.742 89.297-38.281m0-.001h0m-85.508 166.837 81.719-52.54m0 .001h0m-77.734 179.297 73.75-63.203m0 0h0m-70 188.554 66.288-71.015m0-.001h0m-62.968 195.274 59.61-76.68m0 0h0m-56.759 200.156 53.907-80.78m0 0h0m-51.446 203.788 48.985-83.945m0 0h0m-46.837 206.524 44.688-86.25m0 0h0m-42.89 208.554 41.093-88.008m0 0h0M3276.602 121.68l41.093 88.047m0 0h0m-42.89 34.296 44.687 86.25m0 0h0m-46.836 36.329 48.946 83.906m0 0h0m-51.407 39.062 53.907 80.86m0 0h0m-56.797 42.656 59.648 76.68m0 0h0m-62.969 47.578 66.29 71.015m-.001.001h0m-70 54.335 73.75 63.203m0 0h0m-77.733 63.555 81.718 52.54m0-.001h0m-85.508 76.016 89.297 38.281m0 .001h0m-92.149 92.108 95 20.352m0 0h0M3248.555 1380h97.148m0 0h0m-96.055 131.602 95-20.352m0 0h0m-92.148 150.742 89.297-38.281m0-.001h0m-85.507 166.837 81.718-52.54m0 .001h0m-77.735 179.297 73.75-63.203m0 0h0m-70.039 188.554 66.29-71.015m-.001-.001h0m-62.968 195.274 59.648-76.68m0 0h0m-56.758 200.156 53.907-80.78m0 0h0m-51.446 203.788 48.946-83.945m0 0h0m-46.797 206.524 44.687-86.25m0 0h0m-42.89 208.554 41.093-88.008m0 0h0M3438.516 121.68l41.093 88.047m.001 0h0m-42.93 34.296 44.726 86.25m0 0h0m-46.836 36.329 48.946 83.906m0 0h0m-51.406 39.062 53.867 80.86m0 0h0m-56.758 42.656 59.648 76.68m0 0h0m-62.969 47.578 66.29 71.015m0 .001h0m-70 54.335 73.75 63.203m0 0h0m-77.735 63.555 81.719 52.54m0-.001h0m-85.508 76.016 89.297 38.281m-.001.001h0m-92.147 92.108 94.96 20.352m0 0h0M3410.469 1380h97.148m0 0h0m-96.054 131.602 94.96-20.352m0 0h0m-92.109 150.742 89.297-38.281m-.001-.001h0m-85.507 166.837 81.719-52.54m0 .001h0m-77.734 179.297 73.75-63.203m0 0h0m-70.04 188.554 66.29-71.015m0-.001h0m-62.969 195.274 59.648-76.68m0 0h0m-56.757 200.156 53.867-80.78m0 0h0m-51.407 203.788 48.946-83.945m0 0h0m-46.836 206.524 44.726-86.25m0 0h0m-42.89 208.554 41.093-88.008m.001 0h0" transform="matrix(.1 0 0 -.1 0 274)"/><g clip-path="url(#v)"><path style="fill:none;stroke-width:12.5;stroke-linecap:round;stroke-linejoin:round;stroke:red;stroke-opacity:1;stroke-miterlimit:10" d="m140 2650.742 33.984-73.984 34.024-69.727 33.984-65.625 34.024-61.797L310 2321.406l33.984-54.843 34.024-51.602 33.984-48.633 34.024-45.82L480 2077.383l33.984-40.586 34.024-38.242 33.984-36.016 34.024-33.945L650 1896.64l33.984-30.079 34.024-28.32 33.984-26.719 34.024-25.117L820 1762.734l33.984-22.265 34.024-21.016 33.984-19.765 34.024-18.633 33.984-17.5 33.984-16.524 34.024-15.547 33.984-14.648 34.024-13.79L1160 1590.04l33.984-12.226 34.024-11.524 33.984-10.82 34.024-10.235 33.984-9.609 33.984-9.063 34.024-8.554 33.984-8.047 34.024-7.54 33.984-7.148 33.984-6.718 34.024-6.328 33.984-5.938 34.024-5.625 33.984-5.273 33.984-4.961 34.024-4.688 33.984-4.414 34.024-4.14 33.984-3.907 33.984-3.71 34.024-3.477 33.984-3.242 34.024-3.086 33.984-2.891 33.984-2.734 34.024-2.579 33.984-2.421 34.024-2.266 33.984-2.148 33.984-2.032 34.024-1.914 33.984-1.797 34.024-1.68 33.984-1.562 33.984-1.523 34.024-1.407 33.984-1.328 34.024-1.25 33.984-1.171 33.984-1.094 34.024-1.055 33.984-.976 34.024-.938 33.984-.898 33.984-.82 34.024-.743 33.984-.742 34.024-.703 67.968-1.25 34.024-.586 33.984-.508 34.024-.508 33.984-.508 33.984-.43 34.024-.429 33.984-.39 34.024-.391 67.968-.703 34.024-.313 33.984-.273 34.024-.313 67.968-.469 34.024-.234 33.984-.234 34.024-.196 33.984-.195" transform="matrix(.1 0 0 -.1 0 274)"/></g><g clip-path="url(#w)"><path style="fill:none;stroke-width:12.5;stroke-linecap:round;stroke-linejoin:round;stroke:red;stroke-opacity:1;stroke-miterlimit:10" d="m140 1805 33.984-24.766 34.024-23.28L241.992 1735l34.024-20.664L310 1694.844l33.984-18.32 34.024-17.266 33.984-16.29 34.024-15.312L480 1613.242l33.984-13.594 34.024-12.773 33.984-12.07 34.024-11.328L650 1552.773l33.984-10.039 34.024-9.492 33.984-8.906 34.024-8.399 33.984-7.93 33.984-7.46 34.024-7.031 33.984-6.602 34.024-6.21 33.984-5.86 33.984-5.547 34.024-5.195 33.984-4.883 34.024-4.61 33.984-4.375 33.984-4.062 34.024-3.867 33.984-3.633 34.024-3.399 33.984-3.242 33.984-3.008 34.024-2.851 33.984-2.695 34.024-2.54 33.984-2.382 33.984-2.227 34.024-2.11 33.984-1.991 34.024-1.915 33.984-1.757 33.984-1.64 34.024-1.602 33.984-1.446 34.024-1.406 33.984-1.29 33.984-1.25 34.024-1.132 33.984-1.094 34.024-1.054 33.984-.977 33.984-.898 34.024-.86 33.984-.82 34.024-.742 33.984-.742 33.984-.665 34.024-.624 33.984-.626 34.024-.546 33.984-.547 33.984-.508 34.024-.469 33.984-.43 34.024-.43 33.984-.39 33.984-.351 34.024-.352 33.984-.351 34.024-.313 67.968-.547 34.024-.273 33.984-.235 34.024-.234 33.984-.195 33.984-.235 34.024-.195 33.984-.156 34.024-.196 67.968-.312 34.024-.117 33.984-.157 34.024-.117 67.968-.234 34.024-.078 33.984-.117 34.024-.079 33.984-.078 33.984-.117 34.024-.078 33.984-.078 34.024-.04 33.984-.077" transform="matrix(.1 0 0 -.1 0 274)"/></g><g clip-path="url(#x)"><path style="fill:none;stroke-width:12.5;stroke-linecap:round;stroke-linejoin:round;stroke:red;stroke-opacity:1;stroke-miterlimit:10" d="m140 530 33.984 49.492 34.024 46.64 33.984 43.907 34.024 41.328L310 750.313l33.984 36.68 34.024 34.53 33.984 32.5 34.024 30.625L480 913.516l33.984 27.148 34.024 25.586 33.984 24.102 34.024 22.695L650 1034.414l33.984 20.117 34.024 18.946 33.984 17.851 34.024 16.836 33.984 15.82 33.984 14.922 34.024 14.024 33.984 13.242 34.024 12.422L990 1190.352l33.984 11.015 34.024 10.43 33.984 9.765 34.024 9.22 33.984 8.71 33.984 8.203 34.024 7.696 33.984 7.265 34.024 6.836 33.984 6.406 33.984 6.094 34.024 5.703 33.984 5.352 34.024 5.078 33.984 4.766 33.984 4.492 34.024 4.219 33.984 3.984 34.024 3.75 33.984 3.555 33.984 3.32 34.024 3.125 33.984 2.969 34.024 2.773 33.984 2.617 33.984 2.461 34.024 2.305 33.984 2.187 34.024 2.07 33.984 1.915 33.984 1.836 34.024 1.718 33.984 1.641 34.024 1.524 33.984 1.406 33.984 1.367 34.024 1.29 33.984 1.17 34.024 1.134 33.984 1.054 33.984 1.016 34.024.938 33.984.898 34.024.82 33.984.82 33.984.743 34.024.703 33.984.664 34.024.586 33.984.586 33.984.547 34.024.508 33.984.507 34.024.47 33.984.429 33.984.39 34.024.391 33.984.352 34.024.351 67.968.625 34.024.274 33.984.273 34.024.274 67.968.468 34.024.196 33.984.195 34.024.195 67.968.313 34.024.156 33.984.156 34.024.156 33.984.118" transform="matrix(.1 0 0 -.1 0 274)"/></g></svg>