<svg xmlns="http://www.w3.org/2000/svg" xmlns:xlink="http://www.w3.org/1999/xlink" width="344pt" height="260pt" viewBox="0 0 344 260"><defs><clipPath id="a"><path d="M171 7.66h2v242.25h-2zm0 0"/></clipPath><clipPath id="b"><path d="M12 128h320v2H12zm0 0"/></clipPath><clipPath id="c"><path d="M12 7.66h1v242.25h-1zm0 0"/></clipPath><clipPath id="d"><path d="M65 7.66h1v242.25h-1zm0 0"/></clipPath><clipPath id="e"><path d="M118 7.66h1v242.25h-1zm0 0"/></clipPath><clipPath id="f"><path d="M171 7.66h2v242.25h-2zm0 0"/></clipPath><clipPath id="g"><path d="M225 7.66h1v242.25h-1zm0 0"/></clipPath><clipPath id="h"><path d="M278 7.66h1v242.25h-1zm0 0"/></clipPath><clipPath id="i"><path d="M331 7.66h1v242.25h-1zm0 0"/></clipPath><clipPath id="j"><path d="M12 249h320v.91H12zm0 0"/></clipPath><clipPath id="k"><path d="M12 209h320v1H12zm0 0"/></clipPath><clipPath id="l"><path d="M12 168h320v2H12zm0 0"/></clipPath><clipPath id="m"><path d="M12 128h320v2H12zm0 0"/></clipPath><clipPath id="n"><path d="M12 88h320v1H12zm0 0"/></clipPath><clipPath id="o"><path d="M12 47h320v2H12zm0 0"/></clipPath><clipPath id="p"><path d="M12 7.66h320V8H12zm0 0"/></clipPath><clipPath id="v"><path d="M12 7.66h199V120H12zm0 0"/></clipPath><clipPath id="w"><path d="M239 148h93v101.91h-93zm0 0"/></clipPath><symbol overflow="visible" id="q"><path style="stroke:none" d="M1.953-2.14H.313v.5h1.64zm0 0"/></symbol><symbol overflow="visible" id="r"><path style="stroke:none" d="M1.516-2.281h.328c.656 0 1.015.312 1.015.906 0 .625-.39 1-1 1-.671 0-1-.344-1.03-1.063h-.61c.031.391.093.657.218.875.25.485.72.72 1.391.72 1 0 1.64-.595 1.64-1.532 0-.64-.234-.984-.827-1.188.453-.187.687-.53.687-1.03 0-.845-.562-1.36-1.484-1.36-.985 0-1.5.547-1.516 1.594h.594c.015-.297.031-.47.11-.61.14-.281.437-.453.827-.453.532 0 .844.328.844.86 0 .343-.11.562-.39.671-.157.079-.376.094-.797.11zm0 0"/></symbol><symbol overflow="visible" id="s"><path style="stroke:none" d="M3.469-.594H.906c.063-.406.281-.672.89-1.031l.673-.39C3.156-2.392 3.5-2.892 3.5-3.5c0-.422-.156-.797-.453-1.063-.281-.265-.64-.39-1.094-.39-.625 0-1.078.219-1.344.64-.171.266-.25.579-.265 1.079h.61c.015-.344.062-.532.14-.704a.922.922 0 0 1 .828-.484c.547 0 .969.39.969.938 0 .39-.235.734-.657.984l-.64.36C.578-1.548.28-1.095.234 0H3.47zm0 0"/></symbol><symbol overflow="visible" id="t"><path style="stroke:none" d="M1.781-3.531V0h.594v-4.953h-.39c-.22.766-.36.875-1.282.984v.438zm0 0"/></symbol><symbol overflow="visible" id="u"><path style="stroke:none" d="M1.89-4.953c-.452 0-.874.203-1.124.547-.313.437-.47 1.093-.47 2.015C.297-.719.845.156 1.892.156c1.03 0 1.593-.875 1.593-2.515 0-.954-.156-1.594-.484-2.047a1.355 1.355 0 0 0-1.11-.547zm0 .531c.641 0 .97.672.97 2.016C2.86-1 2.546-.344 1.874-.344c-.64 0-.969-.687-.969-2.047 0-1.359.328-2.03.985-2.03zm0 0"/></symbol></defs><path style="stroke:none;fill-rule:nonzero;fill:#fff;fill-opacity:1" d="M12 249.91h320V7.66H12zm0 0"/><g clip-path="url(#a)"><path style="fill:none;stroke-width:5.70714;stroke-linecap:round;stroke-linejoin:miter;stroke:#bfbfbf;stroke-opacity:1;stroke-miterlimit:10" d="M1997.503-211.163V-2636.7" transform="matrix(.10013 0 0 .09987 -28 271)"/></g><g clip-path="url(#b)"><path style="fill:none;stroke-width:5.70714;stroke-linecap:round;stroke-linejoin:miter;stroke:#bfbfbf;stroke-opacity:1;stroke-miterlimit:10" d="M399.5-1423.931h3196.006" transform="matrix(.10013 0 0 .09987 -28 271)"/></g><g clip-path="url(#c)"><path style="fill:none;stroke-width:5.70714;stroke-linecap:round;stroke-linejoin:miter;stroke:#bfbfbf;stroke-opacity:1;stroke-dasharray:11.4143,17.1214;stroke-miterlimit:10" d="M399.5-211.163V-2636.7" transform="matrix(.10013 0 0 .09987 -28 271)"/></g><g clip-path="url(#d)"><path style="fill:none;stroke-width:5.70714;stroke-linecap:round;stroke-linejoin:miter;stroke:#bfbfbf;stroke-opacity:1;stroke-dasharray:11.4143,17.1214;stroke-miterlimit:10" d="M932.155-211.163V-2636.7" transform="matrix(.10013 0 0 .09987 -28 271)"/></g><g clip-path="url(#e)"><path style="fill:none;stroke-width:5.70714;stroke-linecap:round;stroke-linejoin:miter;stroke:#bfbfbf;stroke-opacity:1;stroke-dasharray:11.4143,17.1214;stroke-miterlimit:10" d="M1464.849-211.163V-2636.7" transform="matrix(.10013 0 0 .09987 -28 271)"/></g><g clip-path="url(#f)"><path style="fill:none;stroke-width:5.70714;stroke-linecap:round;stroke-linejoin:miter;stroke:#bfbfbf;stroke-opacity:1;stroke-dasharray:11.4143,17.1214;stroke-miterlimit:10" d="M1997.503-211.163V-2636.7" transform="matrix(.10013 0 0 .09987 -28 271)"/></g><g clip-path="url(#g)"><path style="fill:none;stroke-width:5.70714;stroke-linecap:round;stroke-linejoin:miter;stroke:#bfbfbf;stroke-opacity:1;stroke-dasharray:11.4143,17.1214;stroke-miterlimit:10" d="M2530.158-211.163V-2636.7" transform="matrix(.10013 0 0 .09987 -28 271)"/></g><g clip-path="url(#h)"><path style="fill:none;stroke-width:5.70714;stroke-linecap:round;stroke-linejoin:miter;stroke:#bfbfbf;stroke-opacity:1;stroke-dasharray:11.4143,17.1214;stroke-miterlimit:10" d="M3062.851-211.163V-2636.7" transform="matrix(.10013 0 0 .09987 -28 271)"/></g><g clip-path="url(#i)"><path style="fill:none;stroke-width:5.70714;stroke-linecap:round;stroke-linejoin:miter;stroke:#bfbfbf;stroke-opacity:1;stroke-dasharray:11.4143,17.1214;stroke-miterlimit:10" d="M3595.506-211.163V-2636.7" transform="matrix(.10013 0 0 .09987 -28 271)"/></g><g clip-path="url(#j)"><path style="fill:none;stroke-width:5.70714;stroke-linecap:round;stroke-linejoin:miter;stroke:#bfbfbf;stroke-opacity:1;stroke-dasharray:11.4143,17.1214;stroke-miterlimit:10" d="M399.5-211.163h3196.006" transform="matrix(.10013 0 0 .09987 -28 271)"/></g><g clip-path="url(#k)"><path style="fill:none;stroke-width:5.70714;stroke-linecap:round;stroke-linejoin:miter;stroke:#bfbfbf;stroke-opacity:1;stroke-dasharray:11.4143,17.1214;stroke-miterlimit:10" d="M399.5-615.419h3196.006" transform="matrix(.10013 0 0 .09987 -28 271)"/></g><g clip-path="url(#l)"><path style="fill:none;stroke-width:5.70714;stroke-linecap:round;stroke-linejoin:miter;stroke:#bfbfbf;stroke-opacity:1;stroke-dasharray:11.4143,17.1214;stroke-miterlimit:10" d="M399.5-1019.675h3196.006" transform="matrix(.10013 0 0 .09987 -28 271)"/></g><g clip-path="url(#m)"><path style="fill:none;stroke-width:5.70714;stroke-linecap:round;stroke-linejoin:miter;stroke:#bfbfbf;stroke-opacity:1;stroke-dasharray:11.4143,17.1214;stroke-miterlimit:10" d="M399.5-1423.931h3196.006" transform="matrix(.10013 0 0 .09987 -28 271)"/></g><g clip-path="url(#n)"><path style="fill:none;stroke-width:5.70714;stroke-linecap:round;stroke-linejoin:miter;stroke:#bfbfbf;stroke-opacity:1;stroke-dasharray:11.4143,17.1214;stroke-miterlimit:10" d="M399.5-1828.187h3196.006" transform="matrix(.10013 0 0 .09987 -28 271)"/></g><g clip-path="url(#o)"><path style="fill:none;stroke-width:5.70714;stroke-linecap:round;stroke-linejoin:miter;stroke:#bfbfbf;stroke-opacity:1;stroke-dasharray:11.4143,17.1214;stroke-miterlimit:10" d="M399.5-2232.443h3196.006" transform="matrix(.10013 0 0 .09987 -28 271)"/></g><g clip-path="url(#p)"><path style="fill:none;stroke-width:5.70714;stroke-linecap:round;stroke-linejoin:miter;stroke:#bfbfbf;stroke-opacity:1;stroke-dasharray:11.4143,17.1214;stroke-miterlimit:10" d="M399.5-2636.7h3196.006" transform="matrix(.10013 0 0 .09987 -28 271)"/></g><path style="fill:none;stroke-width:11.4143;stroke-linecap:square;stroke-linejoin:miter;stroke:#000;stroke-opacity:1;stroke-miterlimit:10" d="M399.5-211.163h3196.006" transform="matrix(.10013 0 0 .09987 -28 271)"/><path style="fill:none;stroke-width:5.70714;stroke-linecap:butt;stroke-linejoin:miter;stroke:#000;stroke-opacity:1;stroke-miterlimit:10" d="M399.5-211.163v-45.643m0 45.643v-22.84m53.254 22.84v-22.84m53.293 22.84v-22.84m53.253 22.84v-22.84m53.255 22.84v-22.84m53.292 22.84v-22.84m53.254 22.84v-22.84m53.254 22.84v-22.84m53.293 22.84v-22.84m106.507 22.84v-45.643m0 45.643v-22.84m53.293 22.84v-22.84m53.254 22.84v-22.84m53.253 22.84v-22.84m53.293 22.84v-22.84m53.254 22.84v-22.84m53.254 22.84v-22.84m53.292 22.84v-22.84m53.254 22.84v-22.84m106.547 22.84v-45.643m0 45.643v-22.84m53.253 22.84v-22.84m53.254 22.84v-22.84m53.293 22.84v-22.84m53.254 22.84v-22.84m53.253 22.84v-22.84m53.294 22.84v-22.84m53.253 22.84v-22.84m53.254 22.84v-22.84m106.546 22.84v-45.643m0 45.643v-22.84m53.254 22.84v-22.84m53.293 22.84v-22.84m53.253 22.84v-22.84m53.254 22.84v-22.84m53.293 22.84v-22.84m53.254 22.84v-22.84m53.253 22.84v-22.84m53.293 22.84v-22.84m106.508 22.84v-45.643m0 45.643v-22.84m53.292 22.84v-22.84m53.254 22.84v-22.84m53.254 22.84v-22.84m53.292 22.84v-22.84m53.254 22.84v-22.84m53.254 22.84v-22.84m53.292 22.84v-22.84m53.255 22.84v-22.84m106.546 22.84v-45.643m0 45.643v-22.84m53.254 22.84v-22.84m53.254 22.84v-22.84m53.292 22.84v-22.84m53.254 22.84v-22.84m53.254 22.84v-22.84m53.293 22.84v-22.84m53.253 22.84v-22.84m53.255 22.84v-22.84m106.546 22.84v-45.643m0 45.643v-22.84" transform="matrix(.10013 0 0 .09987 -28 271)"/><g style="fill:#000;fill-opacity:1"><use xlink:href="#q" x="8.952" y="259.03"/><use xlink:href="#r" x="11.236" y="259.03"/></g><g style="fill:#000;fill-opacity:1"><use xlink:href="#q" x="62.095" y="259.03"/><use xlink:href="#s" x="64.378" y="259.03"/></g><g style="fill:#000;fill-opacity:1"><use xlink:href="#q" x="115.238" y="259.03"/><use xlink:href="#t" x="117.522" y="259.03"/></g><use xlink:href="#u" x="170.094" y="259.03" style="fill:#000;fill-opacity:1"/><use xlink:href="#t" x="223.237" y="259.03" style="fill:#000;fill-opacity:1"/><use xlink:href="#s" x="276.38" y="259.03" style="fill:#000;fill-opacity:1"/><use xlink:href="#r" x="330.095" y="259.03" style="fill:#000;fill-opacity:1"/><path style="fill:none;stroke-width:11.4143;stroke-linecap:square;stroke-linejoin:miter;stroke:#000;stroke-opacity:1;stroke-miterlimit:10" d="M399.5-2636.7h3196.006" transform="matrix(.10013 0 0 .09987 -28 271)"/><path style="fill:none;stroke-width:5.70714;stroke-linecap:butt;stroke-linejoin:miter;stroke:#000;stroke-opacity:1;stroke-miterlimit:10" d="M399.5-2636.7v45.643m0-45.643v22.842m53.254-22.842v22.842m53.293-22.842v22.842M559.3-2636.7v22.842m53.255-22.842v22.842m53.292-22.842v22.842m53.254-22.842v22.842m53.254-22.842v22.842m53.293-22.842v22.842m106.507-22.842v45.643m0-45.643v22.842m53.293-22.842v22.842m53.254-22.842v22.842m53.253-22.842v22.842m53.293-22.842v22.842m53.254-22.842v22.842m53.254-22.842v22.842m53.292-22.842v22.842m53.254-22.842v22.842m106.547-22.842v45.643m0-45.643v22.842m53.253-22.842v22.842m53.254-22.842v22.842m53.293-22.842v22.842m53.254-22.842v22.842m53.253-22.842v22.842m53.294-22.842v22.842m53.253-22.842v22.842m53.254-22.842v22.842m106.546-22.842v45.643m0-45.643v22.842m53.254-22.842v22.842m53.293-22.842v22.842m53.253-22.842v22.842m53.254-22.842v22.842m53.293-22.842v22.842m53.254-22.842v22.842m53.253-22.842v22.842m53.293-22.842v22.842m106.508-22.842v45.643m0-45.643v22.842m53.292-22.842v22.842m53.254-22.842v22.842m53.254-22.842v22.842m53.292-22.842v22.842m53.254-22.842v22.842m53.254-22.842v22.842m53.292-22.842v22.842m53.255-22.842v22.842m106.546-22.842v45.643m0-45.643v22.842m53.254-22.842v22.842m53.254-22.842v22.842m53.292-22.842v22.842m53.254-22.842v22.842m53.254-22.842v22.842m53.293-22.842v22.842m53.253-22.842v22.842m53.255-22.842v22.842m106.546-22.842v45.643m0-45.643v22.842" transform="matrix(.10013 0 0 .09987 -28 271)"/><g style="fill:#000;fill-opacity:1"><use xlink:href="#q" x="8.952" y="5.38"/><use xlink:href="#r" x="11.236" y="5.38"/></g><g style="fill:#000;fill-opacity:1"><use xlink:href="#q" x="62.095" y="5.38"/><use xlink:href="#s" x="64.378" y="5.38"/></g><g style="fill:#000;fill-opacity:1"><use xlink:href="#q" x="115.238" y="5.38"/><use xlink:href="#t" x="117.522" y="5.38"/></g><use xlink:href="#u" x="170.094" y="5.38" style="fill:#000;fill-opacity:1"/><use xlink:href="#t" x="223.237" y="5.38" style="fill:#000;fill-opacity:1"/><use xlink:href="#s" x="276.38" y="5.38" style="fill:#000;fill-opacity:1"/><use xlink:href="#r" x="330.095" y="5.38" style="fill:#000;fill-opacity:1"/><path style="fill:none;stroke-width:11.4143;stroke-linecap:square;stroke-linejoin:miter;stroke:#000;stroke-opacity:1;stroke-miterlimit:10" d="M399.5-211.163V-2636.7" transform="matrix(.10013 0 0 .09987 -28 271)"/><path style="fill:none;stroke-width:5.70714;stroke-linecap:butt;stroke-linejoin:miter;stroke:#000;stroke-opacity:1;stroke-miterlimit:10" d="M399.5-211.163h45.647m-45.647 0h22.824M399.5-251.604h22.824M399.5-292.006h22.824M399.5-332.447h22.824M399.5-372.85h22.824M399.5-413.29h22.824M399.5-453.732h22.824M399.5-494.134h22.824M399.5-534.576h22.824M399.5-615.419h45.647m-45.647 0h22.824M399.5-655.86h22.824M399.5-696.262h22.824M399.5-736.704h22.824M399.5-777.106h22.824M399.5-817.547h22.824M399.5-857.988h22.824M399.5-898.39h22.824M399.5-938.832h22.824m-22.824-80.843h45.647m-45.647 0h22.824m-22.824-40.441h22.824m-22.824-40.402h22.824M399.5-1140.96h22.824m-22.824-40.402h22.824m-22.824-40.441h22.824m-22.824-40.441h22.824m-22.824-40.403h22.824m-22.824-40.441h22.824m-22.824-80.843h45.647m-45.647 0h22.824m-22.824-40.441h22.824m-22.824-40.403h22.824m-22.824-40.441h22.824m-22.824-40.402h22.824M399.5-1626.06h22.824m-22.824-40.401h22.824m-22.824-40.442h22.824m-22.824-40.441h22.824m-22.824-80.843h45.647m-45.647 0h22.824m-22.824-40.442h22.824M399.5-1909.03h22.824m-22.824-40.442h22.824m-22.824-40.402h22.824m-22.824-40.441h22.824m-22.824-40.442h22.824m-22.824-40.402h22.824M399.5-2151.6h22.824m-22.824-80.843h45.647m-45.647 0h22.824m-22.824-40.442h22.824m-22.824-40.402h22.824m-22.824-40.441h22.824M399.5-2394.17h22.824m-22.824-40.402h22.824m-22.824-40.441h22.824m-22.824-40.402h22.824m-22.824-40.441h22.824M399.5-2636.7h45.647m-45.647 0h22.824" transform="matrix(.10013 0 0 .09987 -28 271)"/><g style="fill:#000;fill-opacity:1"><use xlink:href="#q" x=".19" y="253.33"/><use xlink:href="#r" x="2.474" y="253.33"/></g><g style="fill:#000;fill-opacity:1"><use xlink:href="#q" x=".19" y="212.86"/><use xlink:href="#s" x="2.474" y="212.86"/></g><g style="fill:#000;fill-opacity:1"><use xlink:href="#q" x=".19" y="172.39"/><use xlink:href="#t" x="2.474" y="172.39"/></g><use xlink:href="#u" x="2.473" y="131.92" style="fill:#000;fill-opacity:1"/><use xlink:href="#t" x="2.473" y="91.45" style="fill:#000;fill-opacity:1"/><use xlink:href="#s" x="2.473" y="50.98" style="fill:#000;fill-opacity:1"/><use xlink:href="#r" x="2.473" y="11.08" style="fill:#000;fill-opacity:1"/><path style="fill:none;stroke-width:11.4143;stroke-linecap:square;stroke-linejoin:miter;stroke:#000;stroke-opacity:1;stroke-miterlimit:10" d="M3595.506-211.163V-2636.7" transform="matrix(.10013 0 0 .09987 -28 271)"/><path style="fill:none;stroke-width:5.70714;stroke-linecap:butt;stroke-linejoin:miter;stroke:#000;stroke-opacity:1;stroke-miterlimit:10" d="M3595.506-211.163h-45.685m45.685 0h-22.823m22.823-40.441h-22.823m22.823-40.402h-22.823m22.823-40.441h-22.823m22.823-40.403h-22.823m22.823-40.44h-22.823m22.823-40.442h-22.823m22.823-40.402h-22.823m22.823-40.442h-22.823m22.823-80.843h-45.685m45.685 0h-22.823m22.823-40.441h-22.823m22.823-40.402h-22.823m22.823-40.442h-22.823m22.823-40.402h-22.823m22.823-40.441h-22.823m22.823-40.441h-22.823m22.823-40.402h-22.823m22.823-40.442h-22.823m22.823-80.843h-45.685m45.685 0h-22.823m22.823-40.441h-22.823m22.823-40.402h-22.823m22.823-40.442h-22.823m22.823-40.402h-22.823m22.823-40.441h-22.823m22.823-40.441h-22.823m22.823-40.403h-22.823m22.823-40.441h-22.823m22.823-80.843h-45.685m45.685 0h-22.823m22.823-40.441h-22.823m22.823-40.403h-22.823m22.823-40.441h-22.823m22.823-40.402h-22.823m22.823-40.442h-22.823m22.823-40.401h-22.823m22.823-40.442h-22.823m22.823-40.441h-22.823m22.823-80.843h-45.685m45.685 0h-22.823m22.823-40.442h-22.823m22.823-40.401h-22.823m22.823-40.442h-22.823m22.823-40.402h-22.823m22.823-40.441h-22.823m22.823-40.442h-22.823m22.823-40.402h-22.823m22.823-40.441h-22.823m22.823-80.843h-45.685m45.685 0h-22.823m22.823-40.442h-22.823m22.823-40.402h-22.823m22.823-40.441h-22.823m22.823-40.442h-22.823m22.823-40.402h-22.823m22.823-40.441h-22.823m22.823-40.402h-22.823m22.823-40.441h-22.823m22.823-80.844h-45.685m45.685 0h-22.823" transform="matrix(.10013 0 0 .09987 -28 271)"/><g style="fill:#000;fill-opacity:1"><use xlink:href="#q" x="337.714" y="253.33"/><use xlink:href="#r" x="339.997" y="253.33"/></g><g style="fill:#000;fill-opacity:1"><use xlink:href="#q" x="337.714" y="212.86"/><use xlink:href="#s" x="339.997" y="212.86"/></g><g style="fill:#000;fill-opacity:1"><use xlink:href="#q" x="337.714" y="172.39"/><use xlink:href="#t" x="339.997" y="172.39"/></g><use xlink:href="#u" x="337.714" y="131.92" style="fill:#000;fill-opacity:1"/><use xlink:href="#t" x="337.714" y="91.45" style="fill:#000;fill-opacity:1"/><use xlink:href="#s" x="337.714" y="50.98" style="fill:#000;fill-opacity:1"/><use xlink:href="#r" x="337.714" y="11.08" style="fill:#000;fill-opacity:1"/><g clip-path="url(#v)"><path style="fill:none;stroke-width:11.4143;stroke-linecap:round;stroke-linejoin:round;stroke:#00008b;stroke-opacity:1;stroke-miterlimit:10" d="m399.5-1524.995 9.169-.43 9.13-.47 9.245-.43 9.13-.43 9.09-.47 9.168-.43 18.414-.938 9.169-.47 18.18-.938 9.207-.47 18.337-1.017 9.129-.47 9.09-.508 9.246-.508 9.09-.508 9.247-.509 9.168-.508 9.09-.509 9.13-.547 9.246-.509 9.207-.547 18.258-1.095 9.09-.548 9.169-.587 9.207-.547 9.13-.587 9.168-.547 9.09-.587 9.207-.587 9.13-.587 9.245-.625 9.169-.587 9.09-.626 9.13-.586 9.206-.626 9.208-.665 9.168-.626 9.129-.665 9.09-.626 9.168-.664 9.208-.665 18.258-1.33 9.13-.704 9.207-.665 9.129-.704 9.246-.704 9.13-.743 9.09-.704 9.168-.743 18.414-1.487 9.168-.782 9.09-.743 9.09-.782 9.208-.782 9.168-.783 9.13-.82 9.168-.822 9.09-.782 9.246-.86 9.09-.822 9.247-.86 9.168-.861 9.09-.86 9.13-.9 9.246-.9 9.207-.9 9.168-.938 9.09-.9 9.09-.938 9.169-.978 9.207-.939 18.258-1.955 9.13-1.017 9.207-1.017 9.129-1.017 9.246-1.056 9.168-1.056 9.052-1.056 9.168-1.095 9.207-1.095 9.207-1.134 9.169-1.135 9.129-1.134 9.09-1.173 9.168-1.174 9.207-1.212 18.259-2.425 9.13-1.252 9.206-1.29 9.13-1.252 9.207-1.33 9.168-1.33 9.09-1.33 9.168-1.368 18.415-2.816 9.168-1.447 18.18-2.894 9.208-1.526 9.168-1.525 9.13-1.526 9.167-1.564 9.09-1.604 9.247-1.642 9.09-1.643 9.246-1.72 9.169-1.683 9.09-1.76 9.129-1.76 9.246-1.799 9.207-1.877 18.259-3.755 9.09-1.916 9.168-1.995 9.208-1.995 9.129-2.033 9.168-2.112 9.09-2.112 9.207-2.19 9.13-2.191 9.246-2.268 9.168-2.308 9.051-2.308 9.169-2.385 9.207-2.464 9.207-2.504 9.168-2.542 9.13-2.581 9.09-2.66 9.168-2.698 9.168-2.777 9.168-2.816 9.13-2.895 9.09-2.933 9.246-3.05 9.13-3.09 9.206-3.208 9.169-3.207 9.09-3.324 9.168-3.403 9.207-3.48 9.208-3.6 9.168-3.676 9.09-3.715 9.09-3.833 9.168-3.95 9.208-4.068 9.129-4.146 9.168-4.263 9.09-4.38 9.247-4.537 9.09-4.615 9.246-4.85 9.168-4.89 9.09-5.045 9.13-5.201 9.246-5.398 9.207-5.593 9.13-5.71 9.129-5.867 9.09-6.023 9.168-6.297 9.207-6.531 9.13-6.689 9.129-6.961 9.129-7.158 9.207-7.51 9.13-7.665 9.246-8.096 9.168-8.33 9.051-8.566 9.168-8.957 9.208-9.426 9.207-9.777 9.168-10.13 9.13-10.56 9.09-10.952 9.168-11.538 9.168-12.085 9.13-12.594 9.167-13.22 9.09-13.806 9.247-14.667 9.129-15.292 9.207-16.27 9.168-17.053 9.09-17.835 9.13-18.97 9.246-20.298 9.207-21.511 9.169-22.763 4.525-11.851 4.565-12.242 4.564-12.633 4.526-13.024 4.604-13.61 4.564-14.08 4.604-14.629 4.603-15.136 4.565-15.644 4.565-16.192 4.564-16.818 4.604-17.483 4.525-18.109 4.565-18.812 4.604-19.87 4.642-20.689 4.526-21.355 4.565-22.293 4.642-23.585 2.302-12.242 2.302-12.476 2.302-12.672 2.262-12.985 2.302-13.298 2.302-13.61 2.263-13.846 2.263-14.159 2.301-14.55 2.263-14.862 2.263-15.37 2.302-15.762 2.263-16.192 2.301-16.623 2.302-17.248 2.302-17.678 2.302-18.187 2.34-18.735 2.303-19.203 2.301-19.79 2.263-20.378 2.302-20.964 2.302-21.51" transform="matrix(.10013 0 0 .09987 -28 271)"/></g><g clip-path="url(#w)"><path style="fill:none;stroke-width:11.4143;stroke-linecap:round;stroke-linejoin:round;stroke:#00008b;stroke-opacity:1;stroke-miterlimit:10" d="m2679.814 14.823 2.302-21.55 2.263-20.964 2.302-20.299 2.263-19.751 2.262-19.165 2.302-18.578 2.263-18.108 2.263-17.6 2.302-17.288 2.301-16.818 2.302-16.426 2.263-15.958 2.302-15.566 2.302-15.176 2.301-14.823 2.302-14.432 2.263-14.04 2.302-13.65 2.302-13.377 2.262-13.024 2.302-12.75 2.263-12.477 2.302-12.164 2.302-11.929 4.525-22.88 4.565-21.941 4.603-21.316 4.604-20.455 4.565-19.36 4.564-18.618 4.604-18.108 4.643-17.444 4.564-16.622 4.604-16.036 4.525-15.332 4.565-14.784 4.565-14.354 4.564-13.923 4.604-13.494 4.603-13.102 4.643-12.633 4.565-12.242 9.168-23.193 9.13-21.707 9.09-20.377 9.168-19.439 9.207-18.382 9.129-17.287 9.13-16.388 9.128-15.527 9.208-14.94 9.129-14.042 9.246-13.532 9.13-12.829 9.09-12.124 9.168-11.695 9.207-11.303 9.207-10.756 9.168-10.286 9.09-9.817 9.09-9.387 9.208-9.113 9.168-8.8 9.13-8.409 9.168-8.096 9.09-7.783 9.246-7.588 9.09-7.235 9.247-7.119 9.168-6.766 9.09-6.531 9.13-6.336 9.246-6.18 9.207-6.023 9.129-5.75 9.13-5.593 9.09-5.358 9.168-5.28 9.207-5.124 9.13-4.967 9.167-4.81 9.09-4.655 9.208-4.615 9.129-4.38 9.246-4.38 9.168-4.186 9.09-4.067 9.13-3.99 9.207-3.872 9.207-3.833 9.169-3.676 9.129-3.598 9.09-3.481 9.168-3.403 9.168-3.364 9.169-3.285 9.129-3.168 9.09-3.129 9.246-3.05 9.13-2.973 9.207-2.933 9.168-2.856 9.09-2.776 9.13-2.7 9.246-2.698 9.207-2.62 9.168-2.582 9.09-2.503 9.09-2.425 9.169-2.425 9.207-2.346 9.13-2.308 9.167-2.268 9.09-2.19 9.247-2.23 9.09-2.112 9.246-2.112 9.169-2.073 9.09-1.995 9.129-1.994 9.246-1.956 9.208-1.916 9.168-1.878 9.09-1.877 9.09-1.76 9.168-1.8 9.169-1.76" transform="matrix(.10013 0 0 .09987 -28 271)"/></g></svg>