<svg xmlns="http://www.w3.org/2000/svg" xmlns:xlink="http://www.w3.org/1999/xlink" width="382pt" height="274pt" viewBox="0 0 382 274"><defs><clipPath id="a"><path d="M21 8.5h1v255h-1zm0 0"/></clipPath><clipPath id="b"><path d="M21 263h340v.5H21zm0 0"/></clipPath><clipPath id="c"><path d="M21 8.5h1v255h-1zm0 0"/></clipPath><clipPath id="d"><path d="M105 8.5h2v255h-2zm0 0"/></clipPath><clipPath id="e"><path d="M190 8.5h2v255h-2zm0 0"/></clipPath><clipPath id="f"><path d="M275 8.5h2v255h-2zm0 0"/></clipPath><clipPath id="g"><path d="M360 8.5h1v255h-1zm0 0"/></clipPath><clipPath id="h"><path d="M21 263h340v.5H21zm0 0"/></clipPath><clipPath id="i"><path d="M21 199h340v2H21zm0 0"/></clipPath><clipPath id="j"><path d="M21 135h340v2H21zm0 0"/></clipPath><clipPath id="k"><path d="M21 71h340v2H21zm0 0"/></clipPath><clipPath id="l"><path d="M21 8.5h340V9H21zm0 0"/></clipPath><clipPath id="s"><path d="M21 9h202v254.5H21zm0 0"/></clipPath><clipPath id="t"><path d="M21 186h59v77.5H21zm0 0"/></clipPath><clipPath id="u"><path d="M175 8.5h186V232H175zm0 0"/></clipPath><symbol overflow="visible" id="m"><path style="stroke:none" d="M2.063-5.313c-.5 0-.938.22-1.22.579C.5-4.266.329-3.563.329-2.578c0 1.797.594 2.75 1.734 2.75 1.126 0 1.735-.953 1.735-2.703 0-1.031-.156-1.719-.516-2.203-.281-.375-.719-.579-1.219-.579zm0 .579c.718 0 1.062.718 1.062 2.14 0 1.516-.344 2.219-1.078 2.219C1.344-.375 1-1.109 1-2.563c0-1.453.344-2.171 1.063-2.171zm0 0"/></symbol><symbol overflow="visible" id="n"><path style="stroke:none" d="M3.563-5.313H.828L.422-2.421h.61c.312-.375.562-.5.984-.5.703 0 1.156.485 1.156 1.281 0 .766-.438 1.235-1.156 1.235-.579 0-.938-.297-1.094-.906H.266c.093.437.156.656.312.843.313.406.844.64 1.453.64 1.063 0 1.813-.78 1.813-1.905 0-1.047-.688-1.766-1.719-1.766-.375 0-.672.094-.984.313l.218-1.485h2.204zm0 0"/></symbol><symbol overflow="visible" id="o"><path style="stroke:none" d="M1.938-3.781V0h.671v-5.313h-.437c-.235.813-.39.922-1.406 1.047v.485zm0 0"/></symbol><symbol overflow="visible" id="p"><path style="stroke:none" d="M3.797-.656H1c.063-.438.313-.703.953-1.094l.75-.406c.75-.406 1.125-.953 1.125-1.594 0-.453-.172-.86-.484-1.14-.328-.298-.719-.423-1.219-.423-.672 0-1.172.235-1.469.688-.187.281-.265.61-.281 1.156h.656c.032-.36.078-.578.157-.75.171-.328.515-.515.921-.515.594 0 1.047.421 1.047.984 0 .422-.25.781-.719 1.063l-.687.39C.64-1.672.312-1.172.25 0h3.547zm0 0"/></symbol><symbol overflow="visible" id="q"><path style="stroke:none" d="M1.438-.781H.655V0h.781zm0 0"/></symbol><symbol overflow="visible" id="r"><path style="stroke:none" d="M3.906-5.313H.344v.641h2.875C1.953-2.859 1.438-1.75 1.03 0h.703c.297-1.703.97-3.172 2.172-4.766zm0 0"/></symbol></defs><path style="stroke:none;fill-rule:nonzero;fill:#fff;fill-opacity:1" d="M21 263.5h340V8.5H21zm0 0"/><g clip-path="url(#a)"><path style="fill:none;stroke-width:6.25;stroke-linecap:round;stroke-linejoin:miter;stroke:#bfbfbf;stroke-opacity:1;stroke-miterlimit:10" d="M210 105v2550" transform="matrix(.1 0 0 -.1 0 274)"/></g><g clip-path="url(#b)"><path style="fill:none;stroke-width:6.25;stroke-linecap:round;stroke-linejoin:miter;stroke:#bfbfbf;stroke-opacity:1;stroke-miterlimit:10" d="M210 105h3400" transform="matrix(.1 0 0 -.1 0 274)"/></g><g clip-path="url(#c)"><path style="fill:none;stroke-width:6.25;stroke-linecap:round;stroke-linejoin:miter;stroke:#bfbfbf;stroke-opacity:1;stroke-dasharray:12.5,18.75;stroke-miterlimit:10" d="M210 105v2550" transform="matrix(.1 0 0 -.1 0 274)"/></g><g clip-path="url(#d)"><path style="fill:none;stroke-width:6.25;stroke-linecap:round;stroke-linejoin:miter;stroke:#bfbfbf;stroke-opacity:1;stroke-dasharray:12.5,18.75;stroke-miterlimit:10" d="M1060 105v2550" transform="matrix(.1 0 0 -.1 0 274)"/></g><g clip-path="url(#e)"><path style="fill:none;stroke-width:6.25;stroke-linecap:round;stroke-linejoin:miter;stroke:#bfbfbf;stroke-opacity:1;stroke-dasharray:12.5,18.75;stroke-miterlimit:10" d="M1910 105v2550" transform="matrix(.1 0 0 -.1 0 274)"/></g><g clip-path="url(#f)"><path style="fill:none;stroke-width:6.25;stroke-linecap:round;stroke-linejoin:miter;stroke:#bfbfbf;stroke-opacity:1;stroke-dasharray:12.5,18.75;stroke-miterlimit:10" d="M2760 105v2550" transform="matrix(.1 0 0 -.1 0 274)"/></g><g clip-path="url(#g)"><path style="fill:none;stroke-width:6.25;stroke-linecap:round;stroke-linejoin:miter;stroke:#bfbfbf;stroke-opacity:1;stroke-dasharray:12.5,18.75;stroke-miterlimit:10" d="M3610 105v2550" transform="matrix(.1 0 0 -.1 0 274)"/></g><g clip-path="url(#h)"><path style="fill:none;stroke-width:6.25;stroke-linecap:round;stroke-linejoin:miter;stroke:#bfbfbf;stroke-opacity:1;stroke-dasharray:12.5,18.75;stroke-miterlimit:10" d="M210 105h3400" transform="matrix(.1 0 0 -.1 0 274)"/></g><g clip-path="url(#i)"><path style="fill:none;stroke-width:6.25;stroke-linecap:round;stroke-linejoin:miter;stroke:#bfbfbf;stroke-opacity:1;stroke-dasharray:12.5,18.75;stroke-miterlimit:10" d="M210 742.5h3400" transform="matrix(.1 0 0 -.1 0 274)"/></g><g clip-path="url(#j)"><path style="fill:none;stroke-width:6.25;stroke-linecap:round;stroke-linejoin:miter;stroke:#bfbfbf;stroke-opacity:1;stroke-dasharray:12.5,18.75;stroke-miterlimit:10" d="M210 1380h3400" transform="matrix(.1 0 0 -.1 0 274)"/></g><g clip-path="url(#k)"><path style="fill:none;stroke-width:6.25;stroke-linecap:round;stroke-linejoin:miter;stroke:#bfbfbf;stroke-opacity:1;stroke-dasharray:12.5,18.75;stroke-miterlimit:10" d="M210 2017.5h3400" transform="matrix(.1 0 0 -.1 0 274)"/></g><g clip-path="url(#l)"><path style="fill:none;stroke-width:6.25;stroke-linecap:round;stroke-linejoin:miter;stroke:#bfbfbf;stroke-opacity:1;stroke-dasharray:12.5,18.75;stroke-miterlimit:10" d="M210 2655h3400" transform="matrix(.1 0 0 -.1 0 274)"/></g><path style="fill:none;stroke-width:12.5;stroke-linecap:square;stroke-linejoin:miter;stroke:#000;stroke-opacity:1;stroke-miterlimit:10" d="M210 105h3400" transform="matrix(.1 0 0 -.1 0 274)"/><path style="fill:none;stroke-width:6.25;stroke-linecap:butt;stroke-linejoin:miter;stroke:#000;stroke-opacity:1;stroke-miterlimit:10" d="M210 105v50m85-50v25m85-25v25m85-25v25m85-25v25m85-25v25m85-25v25m85-25v25m85-25v25m85-25v25m85-25v50m85-50v25m85-25v25m85-25v25m85-25v25m85-25v25m85-25v25m85-25v25m85-25v25m85-25v25m85-25v50m85-50v25m85-25v25m85-25v25m85-25v25m85-25v25m85-25v25m85-25v25m85-25v25m85-25v25m85-25v50m85-50v25m85-25v25m85-25v25m85-25v25m85-25v25m85-25v25m85-25v25m85-25v25m85-25v25m85-25v50" transform="matrix(.1 0 0 -.1 0 274)"/><use xlink:href="#m" x="18.29" y="273.5" style="fill:#000;fill-opacity:1"/><use xlink:href="#n" x="103.29" y="273.5" style="fill:#000;fill-opacity:1"/><g style="fill:#000;fill-opacity:1"><use xlink:href="#o" x="186.829" y="273.5"/><use xlink:href="#m" x="190.999" y="273.5"/></g><g style="fill:#000;fill-opacity:1"><use xlink:href="#o" x="271.829" y="273.5"/><use xlink:href="#n" x="275.999" y="273.5"/></g><g style="fill:#000;fill-opacity:1"><use xlink:href="#p" x="356.829" y="273.5"/><use xlink:href="#m" x="360.999" y="273.5"/></g><path style="fill:none;stroke-width:12.5;stroke-linecap:square;stroke-linejoin:miter;stroke:#000;stroke-opacity:1;stroke-miterlimit:10" d="M210 2655h3400" transform="matrix(.1 0 0 -.1 0 274)"/><path style="fill:none;stroke-width:6.25;stroke-linecap:butt;stroke-linejoin:miter;stroke:#000;stroke-opacity:1;stroke-miterlimit:10" d="M210 2655v-50m85 50v-25m85 25v-25m85 25v-25m85 25v-25m85 25v-25m85 25v-25m85 25v-25m85 25v-25m85 25v-25m85 25v-50m85 50v-25m85 25v-25m85 25v-25m85 25v-25m85 25v-25m85 25v-25m85 25v-25m85 25v-25m85 25v-25m85 25v-50m85 50v-25m85 25v-25m85 25v-25m85 25v-25m85 25v-25m85 25v-25m85 25v-25m85 25v-25m85 25v-25m85 25v-50m85 50v-25m85 25v-25m85 25v-25m85 25v-25m85 25v-25m85 25v-25m85 25v-25m85 25v-25m85 25v-25m85 25v-50" transform="matrix(.1 0 0 -.1 0 274)"/><use xlink:href="#m" x="18.29" y="5.375" style="fill:#000;fill-opacity:1"/><use xlink:href="#n" x="103.29" y="5.375" style="fill:#000;fill-opacity:1"/><g style="fill:#000;fill-opacity:1"><use xlink:href="#o" x="186.829" y="5.375"/><use xlink:href="#m" x="190.999" y="5.375"/></g><g style="fill:#000;fill-opacity:1"><use xlink:href="#o" x="271.829" y="5.375"/><use xlink:href="#n" x="275.999" y="5.375"/></g><g style="fill:#000;fill-opacity:1"><use xlink:href="#p" x="356.829" y="5.375"/><use xlink:href="#m" x="360.999" y="5.375"/></g><path style="fill:none;stroke-width:12.5;stroke-linecap:square;stroke-linejoin:miter;stroke:#000;stroke-opacity:1;stroke-miterlimit:10" d="M210 105v2550" transform="matrix(.1 0 0 -.1 0 274)"/><path style="fill:none;stroke-width:6.25;stroke-linecap:butt;stroke-linejoin:miter;stroke:#000;stroke-opacity:1;stroke-miterlimit:10" d="M210 105h50m-50 63.75h25m-25 63.75h25m-25 63.75h25M210 360h25m-25 63.75h25m-25 63.75h25m-25 63.75h25M210 615h25m-25 63.75h25m-25 63.75h50m-50 63.75h25M210 870h25m-25 63.75h25m-25 63.75h25m-25 63.75h25M210 1125h25m-25 63.75h25m-25 63.75h25m-25 63.75h25M210 1380h50m-50 63.75h25m-25 63.75h25m-25 63.75h25M210 1635h25m-25 63.75h25m-25 63.75h25m-25 63.75h25M210 1890h25m-25 63.75h25m-25 63.75h50m-50 63.75h25M210 2145h25m-25 63.75h25m-25 63.75h25m-25 63.75h25M210 2400h25m-25 63.75h25m-25 63.75h25m-25 63.75h25M210 2655h50" transform="matrix(.1 0 0 -.1 0 274)"/><g style="fill:#000;fill-opacity:1"><use xlink:href="#m" x="3.7" y="267.25"/><use xlink:href="#q" x="7.87" y="267.25"/><use xlink:href="#m" x="9.955" y="267.25"/></g><g style="fill:#000;fill-opacity:1"><use xlink:href="#p" x="3.7" y="202.875"/><use xlink:href="#q" x="7.87" y="202.875"/><use xlink:href="#n" x="9.955" y="202.875"/></g><g style="fill:#000;fill-opacity:1"><use xlink:href="#n" x="3.7" y="139.125"/><use xlink:href="#q" x="7.87" y="139.125"/><use xlink:href="#m" x="9.955" y="139.125"/></g><g style="fill:#000;fill-opacity:1"><use xlink:href="#r" x="3.7" y="75.375"/><use xlink:href="#q" x="7.87" y="75.375"/><use xlink:href="#n" x="9.955" y="75.375"/></g><g style="fill:#000;fill-opacity:1"><use xlink:href="#o" x="-.47" y="11.625"/><use xlink:href="#m" x="3.7" y="11.625"/><use xlink:href="#q" x="7.87" y="11.625"/><use xlink:href="#m" x="9.955" y="11.625"/></g><path style="fill:none;stroke-width:12.5;stroke-linecap:square;stroke-linejoin:miter;stroke:#000;stroke-opacity:1;stroke-miterlimit:10" d="M3610 105v2550" transform="matrix(.1 0 0 -.1 0 274)"/><path style="fill:none;stroke-width:6.25;stroke-linecap:butt;stroke-linejoin:miter;stroke:#000;stroke-opacity:1;stroke-miterlimit:10" d="M3610 105h-50m50 63.75h-25m25 63.75h-25m25 63.75h-25m25 63.75h-25m25 63.75h-25m25 63.75h-25m25 63.75h-25m25 63.75h-25m25 63.75h-25m25 63.75h-50m50 63.75h-25m25 63.75h-25m25 63.75h-25m25 63.75h-25m25 63.75h-25m25 63.75h-25m25 63.75h-25m25 63.75h-25m25 63.75h-25m25 63.75h-50m50 63.75h-25m25 63.75h-25m25 63.75h-25m25 63.75h-25m25 63.75h-25m25 63.75h-25m25 63.75h-25m25 63.75h-25m25 63.75h-25m25 63.75h-50m50 63.75h-25m25 63.75h-25m25 63.75h-25m25 63.75h-25m25 63.75h-25m25 63.75h-25m25 63.75h-25m25 63.75h-25m25 63.75h-25m25 63.75h-50" transform="matrix(.1 0 0 -.1 0 274)"/><g style="fill:#000;fill-opacity:1"><use xlink:href="#m" x="367.25" y="267.25"/><use xlink:href="#q" x="371.42" y="267.25"/><use xlink:href="#m" x="373.505" y="267.25"/></g><g style="fill:#000;fill-opacity:1"><use xlink:href="#p" x="367.25" y="202.875"/><use xlink:href="#q" x="371.42" y="202.875"/><use xlink:href="#n" x="373.505" y="202.875"/></g><g style="fill:#000;fill-opacity:1"><use xlink:href="#n" x="367.25" y="139.125"/><use xlink:href="#q" x="371.42" y="139.125"/><use xlink:href="#m" x="373.505" y="139.125"/></g><g style="fill:#000;fill-opacity:1"><use xlink:href="#r" x="367.25" y="75.375"/><use xlink:href="#q" x="371.42" y="75.375"/><use xlink:href="#n" x="373.505" y="75.375"/></g><g style="fill:#000;fill-opacity:1"><use xlink:href="#o" x="367.25" y="11.625"/><use xlink:href="#m" x="371.42" y="11.625"/><use xlink:href="#q" x="375.59" y="11.625"/><use xlink:href="#m" x="377.675" y="11.625"/></g><path style="fill:none;stroke-width:6.25;stroke-linecap:round;stroke-linejoin:miter;stroke:#00f;stroke-opacity:1;stroke-miterlimit:10" d="m277.344 216.602 35.312-95.704m0 0h0M273.79 342.617l42.42-92.734m0 0h0M269.531 467.93l50.938-88.36m0 0h0m-55.703 212.774 60.468-82.188m0 0h0M260 715.82l70-74.14m0 0h0m-74.14 197.265 78.28-65.39m0 0h0M252.93 962.54l84.14-57.58m0 0h0m-85.625 182.813 87.11-53.046m0 0h0m-87.11 180.546 87.11-53.046m0 0h0M252.93 1345.04l84.14-57.58m0 0h0m-81.21 188.985 78.28-65.39m0 0h0M260 1608.36l70-74.22m0 0h0m-65.234 205.704 60.468-82.188m0 0h0m-55.703 212.774 50.938-88.36m0 0h0m-46.679 218.047 42.42-92.734m0 0h0m-38.866 221.719 35.312-95.704m0 0h0m-32.422 224.18 29.532-97.656m0 0h0m-27.188 225.781 24.844-98.906m0 0h0m-22.969 226.836 21.094-99.766m0 0h0m-19.57 227.578 18.046-100.39m0 0h0M447.344 216.602l35.312-95.704m0 0h0M443.79 342.617l42.42-92.734m0 0h0M439.531 467.93l50.938-88.36m0 0h0m-55.703 212.774 60.468-82.188m0 0h0M430 715.82l70-74.14m0 0h0m-74.14 197.265 78.28-65.39m0 0h0M422.93 962.54l84.14-57.58m0 0h0m-85.625 182.813 87.11-53.046m0 0h0m-87.11 180.546 87.11-53.046m0 0h0M422.93 1345.04l84.14-57.58m0 0h0m-81.21 188.985 78.28-65.39m0 0h0M430 1608.36l70-74.22m0 0h0m-65.234 205.704 60.468-82.188m0 0h0m-55.703 212.774 50.938-88.36m0 0h0m-46.679 218.047 42.42-92.734m0 0h0m-38.866 221.719 35.312-95.704m0 0h0m-32.422 224.18 29.532-97.656m0 0h0m-27.188 225.781 24.844-98.906m0 0h0m-22.969 226.836 21.094-99.766m0 0h0m-19.57 227.578 18.046-100.39m0 0h0M617.344 216.602l35.312-95.704m0 0h0M613.79 342.617l42.42-92.734m0 0h0M609.531 467.93l50.938-88.36m0 0h0m-55.703 212.774 60.468-82.188m0 0h0M600 715.82l70-74.14m0 0h0m-74.14 197.265 78.28-65.39m0 0h0M592.93 962.54l84.14-57.58m0 0h0m-85.625 182.813 87.11-53.046m0 0h0m-87.11 180.546 87.11-53.046m0 0h0M592.93 1345.04l84.14-57.58m0 0h0m-81.21 188.985 78.28-65.39m0 0h0M600 1608.36l70-74.22m0 0h0m-65.234 205.704 60.468-82.188m0 0h0m-55.703 212.774 50.938-88.36m0 0h0m-46.679 218.047 42.42-92.734m0 0h0m-38.866 221.719 35.312-95.704m0 0h0m-32.422 224.18 29.532-97.656m0 0h0m-27.188 225.781 24.844-98.906m0 0h0m-22.969 226.836 21.094-99.766m0 0h0m-19.57 227.578 18.046-100.39m0 0h0M787.344 216.602l35.312-95.704m0 0h0M783.79 342.617l42.42-92.734m0 0h0M779.531 467.93l50.938-88.36m0 0h0m-55.703 212.774 60.468-82.188m0 0h0M770 715.82l70-74.14m0 0h0m-74.14 197.265 78.28-65.39m0 0h0M762.93 962.54l84.14-57.58m0 0h0m-85.625 182.813 87.11-53.046m0 0h0m-87.11 180.546 87.11-53.046m0 0h0M762.93 1345.04l84.14-57.58m0 0h0m-81.21 188.985 78.28-65.39m0 0h0M770 1608.36l70-74.22m0 0h0m-65.234 205.704 60.468-82.188m0 0h0m-55.703 212.774 50.938-88.36m0 0h0m-46.679 218.047 42.42-92.734m0 0h0m-38.866 221.719 35.312-95.704m0 0h0m-32.422 224.18 29.532-97.656m0 0h0m-27.188 225.781 24.844-98.906m0 0h0m-22.969 226.836 21.094-99.766m0 0h0m-19.57 227.578 18.046-100.39m0 0h0M957.344 216.602l35.312-95.704m0 0h0M953.79 342.617l42.42-92.734m0 0h0M949.531 467.93l50.938-88.36m0 0h0m-55.703 212.774 60.468-82.188m0 0h0M940 715.82l70-74.14m0 0h0m-74.14 197.265 78.28-65.39m0 0h0M932.93 962.54l84.18-57.58m0 0h0m-85.665 182.813 87.11-53.046m0 0h0m-87.11 180.546 87.11-53.046m0 0h0M932.93 1345.04l84.18-57.58m0 0h0m-81.25 188.985 78.28-65.39m0 0h0M940 1608.36l70-74.22m0 0h0m-65.234 205.704 60.468-82.188m0 0h0m-55.703 212.774 50.938-88.36m0 0h0m-46.679 218.047 42.42-92.734m0 0h0m-38.866 221.719 35.312-95.704m0 0h0m-32.422 224.18 29.532-97.656m0 0h0m-27.188 225.781 24.844-98.906m0 0h0m-22.969 226.836 21.094-99.766m0 0h0m-19.57 227.578 18.046-100.39m0 0h0m143.321-2324.453 35.312-95.704m0 0h0m-38.866 221.719 42.42-92.734m0 0h0m-46.679 218.047 50.938-88.36m0 0h0m-55.703 212.774 60.468-82.188m0 0h0M1110 715.82l70-74.14m0 0h0m-74.14 197.265 78.28-65.39m0 0h0m-81.25 188.985 84.22-57.58m0 0h0m-85.665 182.813 87.11-53.046m0 0h0m-87.11 180.546 87.11-53.046m0 0h0m-85.665 182.813 84.22-57.58m0 0h0m-81.25 188.985 78.28-65.39m0 0h0M1110 1608.36l70-74.22m0 0h0m-65.234 205.704 60.468-82.188m0 0h0m-55.703 212.774 50.938-88.36m0 0h0m-46.679 218.047 42.42-92.734m0 0h0m-38.866 221.719 35.312-95.704m0 0h0m-32.422 224.18 29.532-97.656m0 0h0m-27.188 225.781 24.844-98.906m0 0h0m-22.969 226.836 21.094-99.766m0 0h0m-19.57 227.578 18.046-100.39m0 0h0m143.321-2324.453 35.312-95.704m0 0h0m-38.866 221.719 42.42-92.734m0 0h0m-46.679 218.047 50.938-88.36m0 0h0m-55.703 212.774 60.468-82.188m0 0h0M1280 715.82l70-74.14m0 0h0m-74.14 197.265 78.28-65.39m0 0h0m-81.25 188.985 84.22-57.58m0 0h0m-85.665 182.813 87.11-53.046m0 0h0m-87.11 180.546 87.11-53.046m0 0h0m-85.665 182.813 84.22-57.58m0 0h0m-81.25 188.985 78.28-65.39m0 0h0M1280 1608.36l70-74.22m0 0h0m-65.234 205.704 60.468-82.188m0 0h0m-55.703 212.774 50.938-88.36m0 0h0m-46.679 218.047 42.42-92.734m0 0h0m-38.866 221.719 35.312-95.704m0 0h0m-32.422 224.18 29.532-97.656m0 0h0m-27.188 225.781 24.844-98.906m0 0h0m-22.969 226.836 21.094-99.766m0 0h0m-19.57 227.578 18.046-100.39m0 0h0m143.321-2324.453 35.312-95.704m0 0h0m-38.866 221.719 42.42-92.734m0 0h0m-46.679 218.047 50.938-88.36m0 0h0m-55.703 212.774 60.468-82.188m0 0h0M1450 715.82l70-74.14m0 0h0m-74.14 197.265 78.28-65.39m0 0h0m-81.25 188.985 84.22-57.58m0 0h0m-85.665 182.813 87.11-53.046m0 0h0m-87.11 180.546 87.11-53.046m0 0h0m-85.665 182.813 84.22-57.58m0 0h0m-81.25 188.985 78.28-65.39m0 0h0M1450 1608.36l70-74.22m0 0h0m-65.234 205.704 60.468-82.188m0 0h0m-55.703 212.774 50.938-88.36m0 0h0m-46.679 218.047 42.42-92.734m0 0h0m-38.866 221.719 35.312-95.704m0 0h0m-32.422 224.18 29.532-97.656m0 0h0m-27.188 225.781 24.844-98.906m0 0h0m-22.969 226.836 21.094-99.766m0 0h0m-19.57 227.578 18.046-100.39m0 0h0m143.321-2324.453 35.312-95.704m0 0h0m-38.866 221.719 42.42-92.734m0 0h0m-46.679 218.047 50.938-88.36m0 0h0m-55.703 212.774 60.468-82.188m0 0h0M1620 715.82l70-74.14m0 0h0m-74.14 197.265 78.28-65.39m0 0h0m-81.25 188.985 84.22-57.58m0 0h0m-85.665 182.813 87.11-53.046m0 0h0m-87.11 180.546 87.11-53.046m0 0h0m-85.665 182.813 84.22-57.58m0 0h0m-81.25 188.985 78.28-65.39m0 0h0M1620 1608.36l70-74.22m0 0h0m-65.234 205.704 60.468-82.188m0 0h0m-55.703 212.774 50.938-88.36m0 0h0m-46.679 218.047 42.42-92.734m0 0h0m-38.866 221.719 35.312-95.704m0 0h0m-32.422 224.18 29.532-97.656m0 0h0m-27.188 225.781 24.844-98.906m0 0h0m-22.969 226.836 21.094-99.766m0 0h0m-19.57 227.578 18.046-100.39m0 0h0m143.321-2324.453 35.312-95.704m0 0h0m-38.866 221.719 42.42-92.734m0 0h0m-46.679 218.047 50.938-88.36m0 0h0m-55.703 212.774 60.468-82.188m0 0h0M1790 715.82l70-74.14m0 0h0m-74.14 197.265 78.28-65.39m0 0h0m-81.25 188.985 84.22-57.58m0 0h0m-85.665 182.813 87.11-53.046m0 0h0m-87.11 180.546 87.11-53.046m0 0h0m-85.665 182.813 84.22-57.58m0 0h0m-81.25 188.985 78.28-65.39m0 0h0M1790 1608.36l70-74.22m0 0h0m-65.234 205.704 60.468-82.188m0 0h0m-55.703 212.774 50.938-88.36m0 0h0m-46.679 218.047 42.42-92.734m0 0h0m-38.866 221.719 35.312-95.704m0 0h0m-32.422 224.18 29.532-97.656m0 0h0m-27.188 225.781 24.844-98.906m0 0h0m-22.969 226.836 21.094-99.766m0 0h0m-19.57 227.578 18.046-100.39m0 0h0m143.321-2324.453 35.312-95.704m0 0h0m-38.866 221.719 42.42-92.734m0 0h0m-46.679 218.047 50.938-88.36m0 0h0m-55.703 212.774 60.468-82.188m0 0h0M1960 715.82l70-74.14m0 0h0m-74.14 197.265 78.28-65.39m0 0h0m-81.25 188.985 84.22-57.58m0 0h0m-85.665 182.813 87.11-53.046m0 0h0m-87.11 180.546 87.11-53.046m0 0h0m-85.665 182.813 84.22-57.58m0 0h0m-81.25 188.985 78.28-65.39m0 0h0M1960 1608.36l70-74.22m0 0h0m-65.234 205.704 60.468-82.188m0 0h0m-55.703 212.774 50.938-88.36m0 0h0m-46.679 218.047 42.42-92.734m0 0h0m-38.866 221.719 35.312-95.704m0 0h0m-32.422 224.18 29.532-97.656m0 0h0m-27.188 225.781 24.844-98.906m0 0h0m-22.969 226.836 21.094-99.766m0 0h0m-19.57 227.578 18.046-100.39m0 0h0m143.321-2324.453 35.312-95.704m0 0h0m-38.866 221.719 42.42-92.734m0 0h0m-46.679 218.047 50.938-88.36m0 0h0m-55.703 212.774 60.468-82.188m0 0h0M2130 715.82l70-74.14m0 0h0m-74.14 197.265 78.28-65.39m0 0h0m-81.25 188.985 84.22-57.58m0 0h0m-85.665 182.813 87.11-53.046m0 0h0m-87.11 180.546 87.11-53.046m0 0h0m-85.665 182.813 84.22-57.58m0 0h0m-81.25 188.985 78.28-65.39m0 0h0M2130 1608.36l70-74.22m0 0h0m-65.234 205.704 60.468-82.188m0 0h0m-55.703 212.774 50.938-88.36m0 0h0m-46.679 218.047 42.42-92.734m0 0h0m-38.866 221.719 35.312-95.704m0 0h0m-32.422 224.18 29.532-97.656m0 0h0m-27.188 225.781 24.844-98.906m0 0h0m-22.969 226.836 21.094-99.766m0 0h0m-19.57 227.578 18.046-100.39m0 0h0m143.321-2324.453 35.312-95.704m0 0h0m-38.866 221.719 42.42-92.734m0 0h0m-46.679 218.047 50.938-88.36m0 0h0m-55.703 212.774 60.468-82.188m0 0h0M2300 715.82l70-74.14m0 0h0m-74.14 197.265 78.28-65.39m0 0h0m-81.25 188.985 84.22-57.58m0 0h0m-85.665 182.813 87.11-53.046m0 0h0m-87.11 180.546 87.11-53.046m0 0h0m-85.665 182.813 84.22-57.58m0 0h0m-81.25 188.985 78.28-65.39m0 0h0M2300 1608.36l70-74.22m0 0h0m-65.234 205.704 60.468-82.188m0 0h0m-55.703 212.774 50.938-88.36m0 0h0m-46.679 218.047 42.42-92.734m0 0h0m-38.866 221.719 35.312-95.704m0 0h0m-32.422 224.18 29.532-97.656m0 0h0m-27.188 225.781 24.844-98.906m0 0h0m-22.969 226.836 21.094-99.766m0 0h0m-19.57 227.578 18.046-100.39m0 0h0m143.321-2324.453 35.312-95.704m0 0h0m-38.866 221.719 42.42-92.734m0 0h0m-46.679 218.047 50.938-88.36m0 0h0m-55.703 212.774 60.468-82.188m0 0h0M2470 715.82l70-74.14m0 0h0m-74.14 197.265 78.28-65.39m0 0h0m-81.25 188.985 84.22-57.58m0 0h0m-85.665 182.813 87.11-53.046m0 0h0m-87.11 180.546 87.11-53.046m0 0h0m-85.665 182.813 84.22-57.58m0 0h0m-81.25 188.985 78.28-65.39m0 0h0M2470 1608.36l70-74.22m0 0h0m-65.234 205.704 60.468-82.188m0 0h0m-55.703 212.774 50.938-88.36m0 0h0m-46.679 218.047 42.42-92.734m0 0h0m-38.866 221.719 35.312-95.704m0 0h0m-32.422 224.18 29.532-97.656m0 0h0m-27.188 225.781 24.844-98.906m0 0h0m-22.969 226.836 21.094-99.766m0 0h0m-19.57 227.578 18.046-100.39m0 0h0m143.321-2324.453 35.312-95.704m0 0h0m-38.866 221.719 42.42-92.734m0 0h0m-46.679 218.047 50.938-88.36m0 0h0m-55.703 212.774 60.468-82.188m0 0h0M2640 715.82l70-74.14m0 0h0m-74.14 197.265 78.28-65.39m0 0h0m-81.25 188.985 84.22-57.58m0 0h0m-85.665 182.813 87.11-53.046m0 0h0m-87.11 180.546 87.11-53.046m0 0h0m-85.665 182.813 84.22-57.58m0 0h0m-81.25 188.985 78.28-65.39m0 0h0M2640 1608.36l70-74.22m0 0h0m-65.234 205.704 60.468-82.188m0 0h0m-55.703 212.774 50.938-88.36m0 0h0m-46.679 218.047 42.42-92.734m0 0h0m-38.866 221.719 35.312-95.704m0 0h0m-32.422 224.18 29.532-97.656m0 0h0m-27.188 225.781 24.844-98.906m0 0h0m-22.969 226.836 21.094-99.766m0 0h0m-19.57 227.578 18.046-100.39m0 0h0m143.321-2324.453 35.312-95.704m0 0h0m-38.866 221.719 42.42-92.734m0 0h0m-46.679 218.047 50.938-88.36m0 0h0m-55.703 212.774 60.468-82.188m0 0h0M2810 715.82l70-74.14m0 0h0m-74.14 197.265 78.28-65.39m0 0h0m-81.25 188.985 84.22-57.58m0 0h0m-85.665 182.813 87.11-53.046m0 0h0m-87.11 180.546 87.11-53.046m0 0h0m-85.665 182.813 84.22-57.58m0 0h0m-81.25 188.985 78.28-65.39m0 0h0M2810 1608.36l70-74.22m0 0h0m-65.234 205.704 60.468-82.188m0 0h0m-55.703 212.774 50.938-88.36m0 0h0m-46.679 218.047 42.42-92.734m0 0h0m-38.866 221.719 35.312-95.704m0 0h0m-32.422 224.18 29.532-97.656m0 0h0m-27.188 225.781 24.844-98.906m0 0h0m-22.969 226.836 21.094-99.766m0 0h0m-19.57 227.578 18.046-100.39m0 0h0m143.321-2324.453 35.312-95.704m0 0h0m-38.866 221.719 42.42-92.734m0 0h0m-46.679 218.047 50.938-88.36m0 0h0m-55.703 212.774 60.468-82.188m0 0h0M2980 715.82l70-74.14m0 0h0m-74.14 197.265 78.28-65.39m0 0h0m-81.25 188.985 84.22-57.58m0 0h0m-85.665 182.813 87.11-53.046m0 0h0m-87.11 180.546 87.11-53.046m0 0h0m-85.665 182.813 84.22-57.58m0 0h0m-81.25 188.985 78.28-65.39m0 0h0M2980 1608.36l70-74.22m0 0h0m-65.234 205.704 60.468-82.188m0 0h0m-55.703 212.774 50.938-88.36m0 0h0m-46.679 218.047 42.42-92.734m0 0h0m-38.866 221.719 35.312-95.704m0 0h0m-32.422 224.18 29.532-97.656m0 0h0m-27.188 225.781 24.844-98.906m0 0h0m-22.969 226.836 21.094-99.766m0 0h0m-19.57 227.578 18.046-100.39m0 0h0m143.321-2324.453 35.312-95.704m0 0h0m-38.866 221.719 42.42-92.734m0 0h0m-46.679 218.047 50.938-88.36m0 0h0m-55.703 212.774 60.468-82.188m0 0h0M3150 715.82l70-74.14m0 0h0m-74.14 197.265 78.28-65.39m0 0h0m-81.25 188.985 84.22-57.58m0 0h0m-85.665 182.813 87.11-53.046m0 0h0m-87.11 180.546 87.11-53.046m0 0h0m-85.665 182.813 84.22-57.58m0 0h0m-81.25 188.985 78.28-65.39m0 0h0M3150 1608.36l70-74.22m0 0h0m-65.234 205.704 60.468-82.188m0 0h0m-55.703 212.774 50.938-88.36m0 0h0m-46.679 218.047 42.42-92.734m0 0h0m-38.866 221.719 35.312-95.704m0 0h0m-32.422 224.18 29.532-97.656m0 0h0m-27.188 225.781 24.844-98.906m0 0h0m-22.969 226.836 21.094-99.766m0 0h0m-19.57 227.578 18.046-100.39m0 0h0m143.321-2324.453 35.312-95.704m0 0h0m-38.866 221.719 42.42-92.734m0 0h0m-46.679 218.047 50.938-88.36m0 0h0m-55.703 212.774 60.468-82.188m0 0h0M3320 715.82l70-74.14m0 0h0m-74.14 197.265 78.28-65.39m0 0h0m-81.25 188.985 84.22-57.58m0 0h0m-85.665 182.813 87.11-53.046m0 0h0m-87.11 180.546 87.11-53.046m0 0h0m-85.665 182.813 84.22-57.58m0 0h0m-81.25 188.985 78.28-65.39m0 0h0M3320 1608.36l70-74.22m0 0h0m-65.234 205.704 60.468-82.188m0 0h0m-55.703 212.774 50.938-88.36m0 0h0m-46.679 218.047 42.42-92.734m0 0h0m-38.866 221.719 35.312-95.704m0 0h0m-32.422 224.18 29.532-97.656m0 0h0m-27.188 225.781 24.844-98.906m0 0h0m-22.969 226.836 21.094-99.766m0 0h0m-19.57 227.578 18.046-100.39m0 0h0m143.321-2324.453 35.312-95.704m0 0h0m-38.866 221.719 42.42-92.734m0 0h0m-46.679 218.047 50.938-88.36m0 0h0m-55.703 212.774 60.468-82.188m0 0h0M3490 715.82l70-74.14m0 0h0m-74.14 197.265 78.28-65.39m0 0h0m-81.25 188.985 84.22-57.58m0 0h0m-85.665 182.813 87.11-53.046m0 0h0m-87.11 180.546 87.11-53.046m0 0h0m-85.665 182.813 84.22-57.58m0 0h0m-81.25 188.985 78.28-65.39m0 0h0M3490 1608.36l70-74.22m0 0h0m-65.234 205.704 60.468-82.188m0 0h0m-55.703 212.774 50.938-88.36m0 0h0m-46.679 218.047 42.42-92.734m0 0h0m-38.866 221.719 35.312-95.704m0 0h0m-32.422 224.18 29.532-97.656m0 0h0m-27.188 225.781 24.844-98.906m0 0h0m-22.969 226.836 21.094-99.766m0 0h0m-19.57 227.578 18.046-100.39m0 0h0" transform="matrix(.1 0 0 -.1 0 274)"/><g clip-path="url(#s)"><path style="fill:none;stroke-width:12.5;stroke-linecap:round;stroke-linejoin:round;stroke:red;stroke-opacity:1;stroke-miterlimit:10" d="m210 2642.266 33.984-179.688 34.024-145.547 33.984-120.625 34.024-101.914 33.984-87.5 33.984-76.21 34.024-67.11 33.984-59.766 34.024-53.71L550 1701.483l33.984-44.453 34.024-40.937 33.984-37.852 34.024-35.273L720 1509.922l33.984-31.094 34.024-29.414 33.984-27.969 34.024-26.68L890 1369.18l33.984-24.649 34.024-23.75 33.984-23.086 34.024-22.422L1060 1253.36l33.984-21.523 34.024-21.094 33.984-20.86 34.024-20.624L1230 1148.75l33.984-20.43 34.024-20.39 33.984-20.47 34.024-20.585 33.984-20.781 33.984-21.016 34.024-21.367 33.984-21.758 34.024-22.265L1570 936.836l33.984-23.555 34.024-24.336 33.984-25.234 34.024-26.328 33.984-27.5 33.984-28.946 34.024-30.507 33.984-32.383 34.024-34.492L1910 646.563l33.984-39.883 34.024-43.242 33.984-47.227 34.024-51.992L2080 406.563l33.984-64.532 34.024-73.008 33.984-83.554 34.024-96.797" transform="matrix(.1 0 0 -.1 0 274)"/></g><g clip-path="url(#t)"><path style="fill:none;stroke-width:12.5;stroke-linecap:round;stroke-linejoin:round;stroke:red;stroke-opacity:1;stroke-miterlimit:10" d="m210 870 33.984-26.055 34.024-27.187 33.984-28.555 34.024-30.117L380 726.21l33.984-33.984 34.024-36.329 33.984-39.101 34.024-42.383L550 528.204l33.984-50.743 34.024-56.133 33.984-62.734 34.024-70.781L720 207.108l33.984-93.242L788.008 4.531" transform="matrix(.1 0 0 -.1 0 274)"/></g><g clip-path="url(#u)"><path style="fill:none;stroke-width:12.5;stroke-linecap:round;stroke-linejoin:round;stroke:red;stroke-opacity:1;stroke-miterlimit:10" d="m1761.25 2732.89 33.984-198.28 34.024-158.75 33.984-130.391 34.024-109.336 33.984-93.242 33.984-80.704 34.024-70.78 33.984-62.735 34.024-56.133 33.984-50.742 33.984-46.211 34.024-42.383 33.984-39.101 34.024-36.329 33.984-33.984 33.984-31.875 34.024-30.117 33.984-28.555 34.024-27.187L2441.25 1380l33.984-25 34.024-24.14 33.984-23.36 34.024-22.695 33.984-22.149 33.984-21.64 34.024-21.29 33.984-20.937 34.024-20.742 33.984-20.547 33.984-20.43 34.024-20.43 33.984-20.43 34.024-20.507 33.984-20.664 33.984-20.937 34.024-21.211 33.984-21.563 34.024-22.07 33.984-22.578 33.984-23.242 34.024-23.946 33.984-24.844 34.024-25.859 33.984-26.992 33.984-28.281 34.024-29.805 33.984-31.563 34.024-33.554 33.984-35.86 33.984-38.593 34.024-41.72 33.984-45.468 34.024-49.844 33.984-55.078" transform="matrix(.1 0 0 -.1 0 274)"/></g></svg>