<svg xmlns="http://www.w3.org/2000/svg" xmlns:xlink="http://www.w3.org/1999/xlink" width="500" height="274pt" viewBox="0 0 375 274"><defs><clipPath id="a"><path d="M18 8.5h1v255h-1zm0 0"/></clipPath><clipPath id="b"><path d="M18 135h340v2H18zm0 0"/></clipPath><clipPath id="c"><path d="M18 8.5h1v255h-1zm0 0"/></clipPath><clipPath id="d"><path d="M102 8.5h2v255h-2zm0 0"/></clipPath><clipPath id="e"><path d="M187 8.5h2v255h-2zm0 0"/></clipPath><clipPath id="f"><path d="M272 8.5h2v255h-2zm0 0"/></clipPath><clipPath id="g"><path d="M357 8.5h1v255h-1zm0 0"/></clipPath><clipPath id="h"><path d="M18 263h340v.5H18zm0 0"/></clipPath><clipPath id="i"><path d="M18 199h340v2H18zm0 0"/></clipPath><clipPath id="j"><path d="M18 135h340v2H18zm0 0"/></clipPath><clipPath id="k"><path d="M18 71h340v2H18zm0 0"/></clipPath><clipPath id="l"><path d="M18 8.5h340V9H18zm0 0"/></clipPath><clipPath id="r"><path d="M18 71h340v2H18zm0 0"/></clipPath><clipPath id="s"><path d="M18 8.5h340V73H18zm0 0"/></clipPath><clipPath id="t"><path d="M18 71h340v66H18zm0 0"/></clipPath><clipPath id="u"><path d="M18 71h340v130H18zm0 0"/></clipPath><clipPath id="v"><path d="M18 72h340v191.5H18zm0 0"/></clipPath><symbol overflow="visible" id="m"><path style="stroke:none" d="M2.063-5.313c-.5 0-.938.22-1.22.579C.5-4.266.329-3.563.329-2.578c0 1.797.594 2.75 1.734 2.75 1.126 0 1.735-.953 1.735-2.703 0-1.031-.156-1.719-.516-2.203-.281-.375-.719-.579-1.219-.579zm0 .579c.718 0 1.062.718 1.062 2.14 0 1.516-.344 2.219-1.078 2.219C1.344-.375 1-1.109 1-2.563c0-1.453.344-2.171 1.063-2.171zm0 0"/></symbol><symbol overflow="visible" id="n"><path style="stroke:none" d="M3.563-5.313H.828L.422-2.421h.61c.312-.375.562-.5.984-.5.703 0 1.156.485 1.156 1.281 0 .766-.438 1.235-1.156 1.235-.579 0-.938-.297-1.094-.906H.266c.093.437.156.656.312.843.313.406.844.64 1.453.64 1.063 0 1.813-.78 1.813-1.905 0-1.047-.688-1.766-1.719-1.766-.375 0-.672.094-.984.313l.218-1.485h2.204zm0 0"/></symbol><symbol overflow="visible" id="o"><path style="stroke:none" d="M1.938-3.781V0h.671v-5.313h-.437c-.235.813-.39.922-1.406 1.047v.485zm0 0"/></symbol><symbol overflow="visible" id="p"><path style="stroke:none" d="M3.797-.656H1c.063-.438.313-.703.953-1.094l.75-.406c.75-.406 1.125-.953 1.125-1.594 0-.453-.172-.86-.484-1.14-.328-.298-.719-.423-1.219-.423-.672 0-1.172.235-1.469.688-.187.281-.265.61-.281 1.156h.656c.032-.36.078-.578.157-.75.171-.328.515-.515.921-.515.594 0 1.047.421 1.047.984 0 .422-.25.781-.719 1.063l-.687.39C.64-1.672.312-1.172.25 0h3.547zm0 0"/></symbol><symbol overflow="visible" id="q"><path style="stroke:none" d="M2.125-2.344H.344v.547h1.781zm0 0"/></symbol></defs><path style="stroke:none;fill-rule:nonzero;fill:#fff;fill-opacity:1" d="M18 263.5h340V8.5H18zm0 0"/><g clip-path="url(#a)"><path style="fill:none;stroke-width:6.25;stroke-linecap:round;stroke-linejoin:miter;stroke:#bfbfbf;stroke-opacity:1;stroke-miterlimit:10" d="M180 105v2550" transform="matrix(.1 0 0 -.1 0 274)"/></g><g clip-path="url(#b)"><path style="fill:none;stroke-width:6.25;stroke-linecap:round;stroke-linejoin:miter;stroke:#bfbfbf;stroke-opacity:1;stroke-miterlimit:10" d="M180 1380h3400" transform="matrix(.1 0 0 -.1 0 274)"/></g><g clip-path="url(#c)"><path style="fill:none;stroke-width:6.25;stroke-linecap:round;stroke-linejoin:miter;stroke:#bfbfbf;stroke-opacity:1;stroke-dasharray:12.5,18.75;stroke-miterlimit:10" d="M180 105v2550" transform="matrix(.1 0 0 -.1 0 274)"/></g><g clip-path="url(#d)"><path style="fill:none;stroke-width:6.25;stroke-linecap:round;stroke-linejoin:miter;stroke:#bfbfbf;stroke-opacity:1;stroke-dasharray:12.5,18.75;stroke-miterlimit:10" d="M1030 105v2550" transform="matrix(.1 0 0 -.1 0 274)"/></g><g clip-path="url(#e)"><path style="fill:none;stroke-width:6.25;stroke-linecap:round;stroke-linejoin:miter;stroke:#bfbfbf;stroke-opacity:1;stroke-dasharray:12.5,18.75;stroke-miterlimit:10" d="M1880 105v2550" transform="matrix(.1 0 0 -.1 0 274)"/></g><g clip-path="url(#f)"><path style="fill:none;stroke-width:6.25;stroke-linecap:round;stroke-linejoin:miter;stroke:#bfbfbf;stroke-opacity:1;stroke-dasharray:12.5,18.75;stroke-miterlimit:10" d="M2730 105v2550" transform="matrix(.1 0 0 -.1 0 274)"/></g><g clip-path="url(#g)"><path style="fill:none;stroke-width:6.25;stroke-linecap:round;stroke-linejoin:miter;stroke:#bfbfbf;stroke-opacity:1;stroke-dasharray:12.5,18.75;stroke-miterlimit:10" d="M3580 105v2550" transform="matrix(.1 0 0 -.1 0 274)"/></g><g clip-path="url(#h)"><path style="fill:none;stroke-width:6.25;stroke-linecap:round;stroke-linejoin:miter;stroke:#bfbfbf;stroke-opacity:1;stroke-dasharray:12.5,18.75;stroke-miterlimit:10" d="M180 105h3400" transform="matrix(.1 0 0 -.1 0 274)"/></g><g clip-path="url(#i)"><path style="fill:none;stroke-width:6.25;stroke-linecap:round;stroke-linejoin:miter;stroke:#bfbfbf;stroke-opacity:1;stroke-dasharray:12.5,18.75;stroke-miterlimit:10" d="M180 742.5h3400" transform="matrix(.1 0 0 -.1 0 274)"/></g><g clip-path="url(#j)"><path style="fill:none;stroke-width:6.25;stroke-linecap:round;stroke-linejoin:miter;stroke:#bfbfbf;stroke-opacity:1;stroke-dasharray:12.5,18.75;stroke-miterlimit:10" d="M180 1380h3400" transform="matrix(.1 0 0 -.1 0 274)"/></g><g clip-path="url(#k)"><path style="fill:none;stroke-width:6.25;stroke-linecap:round;stroke-linejoin:miter;stroke:#bfbfbf;stroke-opacity:1;stroke-dasharray:12.5,18.75;stroke-miterlimit:10" d="M180 2017.5h3400" transform="matrix(.1 0 0 -.1 0 274)"/></g><g clip-path="url(#l)"><path style="fill:none;stroke-width:6.25;stroke-linecap:round;stroke-linejoin:miter;stroke:#bfbfbf;stroke-opacity:1;stroke-dasharray:12.5,18.75;stroke-miterlimit:10" d="M180 2655h3400" transform="matrix(.1 0 0 -.1 0 274)"/></g><path style="fill:none;stroke-width:12.5;stroke-linecap:square;stroke-linejoin:miter;stroke:#000;stroke-opacity:1;stroke-miterlimit:10" d="M180 105h3400" transform="matrix(.1 0 0 -.1 0 274)"/><path style="fill:none;stroke-width:6.25;stroke-linecap:butt;stroke-linejoin:miter;stroke:#000;stroke-opacity:1;stroke-miterlimit:10" d="M180 105v50m85-50v25m85-25v25m85-25v25m85-25v25m85-25v25m85-25v25m85-25v25m85-25v25m85-25v25m85-25v50m85-50v25m85-25v25m85-25v25m85-25v25m85-25v25m85-25v25m85-25v25m85-25v25m85-25v25m85-25v50m85-50v25m85-25v25m85-25v25m85-25v25m85-25v25m85-25v25m85-25v25m85-25v25m85-25v25m85-25v50m85-50v25m85-25v25m85-25v25m85-25v25m85-25v25m85-25v25m85-25v25m85-25v25m85-25v25m85-25v50" transform="matrix(.1 0 0 -.1 0 274)"/><use xlink:href="#m" x="15.29" y="273.5" style="fill:#000;fill-opacity:1"/><use xlink:href="#n" x="100.29" y="273.5" style="fill:#000;fill-opacity:1"/><g style="fill:#000;fill-opacity:1"><use xlink:href="#o" x="183.829" y="273.5"/><use xlink:href="#m" x="187.999" y="273.5"/></g><g style="fill:#000;fill-opacity:1"><use xlink:href="#o" x="268.829" y="273.5"/><use xlink:href="#n" x="272.999" y="273.5"/></g><g style="fill:#000;fill-opacity:1"><use xlink:href="#p" x="353.829" y="273.5"/><use xlink:href="#m" x="357.999" y="273.5"/></g><path style="fill:none;stroke-width:12.5;stroke-linecap:square;stroke-linejoin:miter;stroke:#000;stroke-opacity:1;stroke-miterlimit:10" d="M180 2655h3400" transform="matrix(.1 0 0 -.1 0 274)"/><path style="fill:none;stroke-width:6.25;stroke-linecap:butt;stroke-linejoin:miter;stroke:#000;stroke-opacity:1;stroke-miterlimit:10" d="M180 2655v-50m85 50v-25m85 25v-25m85 25v-25m85 25v-25m85 25v-25m85 25v-25m85 25v-25m85 25v-25m85 25v-25m85 25v-50m85 50v-25m85 25v-25m85 25v-25m85 25v-25m85 25v-25m85 25v-25m85 25v-25m85 25v-25m85 25v-25m85 25v-50m85 50v-25m85 25v-25m85 25v-25m85 25v-25m85 25v-25m85 25v-25m85 25v-25m85 25v-25m85 25v-25m85 25v-50m85 50v-25m85 25v-25m85 25v-25m85 25v-25m85 25v-25m85 25v-25m85 25v-25m85 25v-25m85 25v-25m85 25v-50" transform="matrix(.1 0 0 -.1 0 274)"/><use xlink:href="#m" x="15.29" y="5.375" style="fill:#000;fill-opacity:1"/><use xlink:href="#n" x="100.29" y="5.375" style="fill:#000;fill-opacity:1"/><g style="fill:#000;fill-opacity:1"><use xlink:href="#o" x="183.829" y="5.375"/><use xlink:href="#m" x="187.999" y="5.375"/></g><g style="fill:#000;fill-opacity:1"><use xlink:href="#o" x="268.829" y="5.375"/><use xlink:href="#n" x="272.999" y="5.375"/></g><g style="fill:#000;fill-opacity:1"><use xlink:href="#p" x="353.829" y="5.375"/><use xlink:href="#m" x="357.999" y="5.375"/></g><path style="fill:none;stroke-width:12.5;stroke-linecap:square;stroke-linejoin:miter;stroke:#000;stroke-opacity:1;stroke-miterlimit:10" d="M180 105v2550" transform="matrix(.1 0 0 -.1 0 274)"/><path style="fill:none;stroke-width:6.25;stroke-linecap:butt;stroke-linejoin:miter;stroke:#000;stroke-opacity:1;stroke-miterlimit:10" d="M180 105h50m-50 63.75h25m-25 63.75h25m-25 63.75h25M180 360h25m-25 63.75h25m-25 63.75h25m-25 63.75h25M180 615h25m-25 63.75h25m-25 63.75h50m-50 63.75h25M180 870h25m-25 63.75h25m-25 63.75h25m-25 63.75h25M180 1125h25m-25 63.75h25m-25 63.75h25m-25 63.75h25M180 1380h50m-50 63.75h25m-25 63.75h25m-25 63.75h25M180 1635h25m-25 63.75h25m-25 63.75h25m-25 63.75h25M180 1890h25m-25 63.75h25m-25 63.75h50m-50 63.75h25M180 2145h25m-25 63.75h25m-25 63.75h25m-25 63.75h25M180 2400h25m-25 63.75h25m-25 63.75h25m-25 63.75h25M180 2655h50" transform="matrix(.1 0 0 -.1 0 274)"/><g style="fill:#000;fill-opacity:1"><use xlink:href="#q" x=".288" y="267.25"/><use xlink:href="#o" x="2.785" y="267.25"/><use xlink:href="#m" x="6.955" y="267.25"/></g><g style="fill:#000;fill-opacity:1"><use xlink:href="#q" x="4.458" y="202.875"/><use xlink:href="#n" x="6.955" y="202.875"/></g><use xlink:href="#m" x="6.955" y="139.125" style="fill:#000;fill-opacity:1"/><use xlink:href="#n" x="6.955" y="75.375" style="fill:#000;fill-opacity:1"/><g style="fill:#000;fill-opacity:1"><use xlink:href="#o" x="2.785" y="11.625"/><use xlink:href="#m" x="6.955" y="11.625"/></g><path style="fill:none;stroke-width:12.5;stroke-linecap:square;stroke-linejoin:miter;stroke:#000;stroke-opacity:1;stroke-miterlimit:10" d="M3580 105v2550" transform="matrix(.1 0 0 -.1 0 274)"/><path style="fill:none;stroke-width:6.25;stroke-linecap:butt;stroke-linejoin:miter;stroke:#000;stroke-opacity:1;stroke-miterlimit:10" d="M3580 105h-50m50 63.75h-25m25 63.75h-25m25 63.75h-25m25 63.75h-25m25 63.75h-25m25 63.75h-25m25 63.75h-25m25 63.75h-25m25 63.75h-25m25 63.75h-50m50 63.75h-25m25 63.75h-25m25 63.75h-25m25 63.75h-25m25 63.75h-25m25 63.75h-25m25 63.75h-25m25 63.75h-25m25 63.75h-25m25 63.75h-50m50 63.75h-25m25 63.75h-25m25 63.75h-25m25 63.75h-25m25 63.75h-25m25 63.75h-25m25 63.75h-25m25 63.75h-25m25 63.75h-25m25 63.75h-50m50 63.75h-25m25 63.75h-25m25 63.75h-25m25 63.75h-25m25 63.75h-25m25 63.75h-25m25 63.75h-25m25 63.75h-25m25 63.75h-25m25 63.75h-50" transform="matrix(.1 0 0 -.1 0 274)"/><g style="fill:#000;fill-opacity:1"><use xlink:href="#q" x="364.25" y="267.25"/><use xlink:href="#o" x="366.748" y="267.25"/><use xlink:href="#m" x="370.918" y="267.25"/></g><g style="fill:#000;fill-opacity:1"><use xlink:href="#q" x="364.25" y="202.875"/><use xlink:href="#n" x="366.748" y="202.875"/></g><use xlink:href="#m" x="364.25" y="139.125" style="fill:#000;fill-opacity:1"/><use xlink:href="#n" x="364.25" y="75.375" style="fill:#000;fill-opacity:1"/><g style="fill:#000;fill-opacity:1"><use xlink:href="#o" x="364.25" y="11.625"/><use xlink:href="#m" x="368.42" y="11.625"/></g><path style="fill:none;stroke-width:6.25;stroke-linecap:round;stroke-linejoin:miter;stroke:#00f;stroke-opacity:1;stroke-miterlimit:10" d="m250.04 120 29.92 97.5m0 0h0m-30.897 30.313 31.875 96.875m0 0h0m-33.008 31.015 34.14 96.094m0 0h0m-35.468 31.875 36.796 95.156m0 0h0m-38.281 32.969 39.766 93.906m0 0h0m-41.485 34.337 43.204 92.42m0 0h0m-45.235 36.095 47.266 90.39m0 0h0m-49.649 38.438 52.032 87.734m0 0h0m-54.806 41.523 57.58 84.22m0 0h0m-60.86 45.703 64.14 79.374m0 .001h0m-67.89 51.522 71.64 72.58m0 0h0m-75.898 59.648 80.156 63.124m0 .001h0m-84.531 70.937 88.906 50m0 0h0m-92.773 86.21 96.64 32.58m0 0h0m-98.984 105.507 101.328 11.406m0 0h0m-101.328 127.5 101.328-11.406m0 0h0M216.68 2225.04l96.64-32.58m0 0h0m-92.773 168.79 88.906-50m0 0h0m-84.531 184.063 80.156-63.126m0 .001h0M229.18 2627.54l71.64-72.58m0 0h0M420.04 120l29.92 97.5m0 0h0m-30.897 30.313 31.875 96.875m0 0h0m-33.008 31.015 34.14 96.094m0 0h0m-35.468 31.875 36.796 95.156m0 0h0m-38.281 32.969 39.766 93.906m0 0h0m-41.485 34.337 43.204 92.42m0 0h0m-45.235 36.095 47.266 90.39m0 0h0m-49.649 38.438 52.032 87.734m0 0h0m-54.806 41.523 57.58 84.22m0 0h0m-60.86 45.703 64.14 79.374m0 .001h0m-67.89 51.522 71.64 72.58m0 0h0m-75.898 59.648 80.156 63.124m0 .001h0m-84.531 70.937 88.906 50m0 0h0m-92.773 86.21 96.64 32.58m0 0h0m-98.984 105.507 101.328 11.406m0 0h0m-101.328 127.5 101.328-11.406m0 0h0M386.68 2225.04l96.64-32.58m0 0h0m-92.773 168.79 88.906-50m0 0h0m-84.531 184.063 80.156-63.126m0 .001h0M399.18 2627.54l71.64-72.58m0 0h0M590.04 120l29.92 97.5m0 0h0m-30.897 30.313 31.875 96.875m0 0h0m-33.008 31.015 34.14 96.094m0 0h0m-35.468 31.875 36.796 95.156m0 0h0m-38.281 32.969 39.766 93.906m0 0h0m-41.485 34.337 43.204 92.42m0 0h0m-45.235 36.095 47.266 90.39m0 0h0m-49.649 38.438 52.032 87.734m0 0h0m-54.806 41.523 57.58 84.22m0 0h0m-60.86 45.703 64.14 79.374m0 .001h0m-67.89 51.522 71.64 72.58m0 0h0m-75.898 59.648 80.156 63.124m0 .001h0m-84.531 70.937 88.906 50m0 0h0m-92.773 86.21 96.64 32.58m0 0h0m-98.984 105.507 101.328 11.406m0 0h0m-101.328 127.5 101.328-11.406m0 0h0M556.68 2225.04l96.64-32.58m0 0h0m-92.773 168.79 88.906-50m0 0h0m-84.531 184.063 80.156-63.126m0 .001h0M569.18 2627.54l71.64-72.58m0 0h0M760.04 120l29.92 97.5m0 0h0m-30.897 30.313 31.875 96.875m0 0h0m-33.008 31.015 34.14 96.094m0 0h0m-35.468 31.875 36.796 95.156m0 0h0m-38.281 32.969 39.766 93.906m0 0h0m-41.485 34.337 43.204 92.42m0 0h0m-45.235 36.095 47.266 90.39m0 0h0m-49.649 38.438 52.032 87.734m0 0h0m-54.806 41.523 57.58 84.22m0 0h0m-60.86 45.703 64.14 79.374m0 .001h0m-67.89 51.522 71.64 72.58m0 0h0m-75.898 59.648 80.156 63.124m0 .001h0m-84.531 70.937 88.906 50m0 0h0m-92.773 86.21 96.64 32.58m0 0h0m-98.984 105.507 101.328 11.406m0 0h0m-101.328 127.5 101.328-11.406m0 0h0M726.68 2225.04l96.64-32.58m0 0h0m-92.773 168.79 88.906-50m0 0h0m-84.531 184.063 80.156-63.126m0 .001h0M739.18 2627.54l71.64-72.58m0 0h0M930.04 120l29.92 97.5m0 0h0m-30.897 30.313 31.875 96.875m0 0h0m-33.008 31.015 34.14 96.094m0 0h0m-35.468 31.875 36.796 95.156m0 0h0m-38.281 32.969 39.766 93.906m0 0h0m-41.485 34.337 43.204 92.42m0 0h0m-45.235 36.095 47.266 90.39m0 0h0m-49.649 38.438 52.032 87.734m0 0h0m-54.806 41.523 57.58 84.22m0 0h0m-60.86 45.703 64.14 79.374m0 .001h0m-67.89 51.522 71.64 72.58m0 0h0m-75.898 59.648 80.156 63.124m0 .001h0m-84.531 70.937 88.906 50m0 0h0m-92.773 86.21 96.64 32.58m0 0h0m-98.984 105.507 101.328 11.406m0 0h0m-101.328 127.5 101.328-11.406m0 0h0M896.68 2225.04l96.64-32.58m0 0h0m-92.773 168.79 88.906-50m0 0h0m-84.531 184.063 80.156-63.126m0 .001h0M909.18 2627.54l71.64-72.58m0 0h0M1100.04 120l29.92 97.5m0 0h0m-30.897 30.313 31.874 96.875m.001 0h0m-33.048 31.015 34.22 96.094m0 0h0m-35.508 31.875 36.796 95.156m0 0h0m-38.281 32.969 39.766 93.906m0 0h0m-41.485 34.337 43.204 92.42m0 0h0m-45.235 36.095 47.266 90.39m0 0h0m-49.649 38.438 52.032 87.734m0 0h0m-54.806 41.523 57.58 84.22m0 0h0m-60.821 45.703 64.062 79.374m0 .001h0m-67.891 51.522 71.72 72.58m0 0h0m-75.938 59.648 80.156 63.124m0 .001h0m-84.531 70.937 88.906 50m0 0h0m-92.773 86.21 96.64 32.58m0 0h0m-98.984 105.507 101.328 11.406m0 0h0m-101.328 127.5 101.328-11.406m0 0h0m-98.984 149.493 96.64-32.58m0 0h0m-92.773 168.79 88.906-50m0 0h0m-84.531 184.063 80.156-63.126m0 .001h0m-75.938 195.352 71.72-72.58m0 0h0M1270.04 120l29.92 97.5m0 0h0m-30.897 30.313 31.874 96.875m.001 0h0m-33.048 31.015 34.22 96.094m0 0h0m-35.508 31.875 36.796 95.156m0 0h0m-38.281 32.969 39.766 93.906m0 0h0m-41.485 34.337 43.204 92.42m0 0h0m-45.235 36.095 47.266 90.39m0 0h0m-49.649 38.438 52.032 87.734m0 0h0m-54.806 41.523 57.58 84.22m0 0h0m-60.821 45.703 64.062 79.374m0 .001h0m-67.891 51.522 71.72 72.58m0 0h0m-75.938 59.648 80.156 63.124m0 .001h0m-84.531 70.937 88.906 50m0 0h0m-92.773 86.21 96.64 32.58m0 0h0m-98.984 105.507 101.328 11.406m0 0h0m-101.328 127.5 101.328-11.406m0 0h0m-98.984 149.493 96.64-32.58m0 0h0m-92.773 168.79 88.906-50m0 0h0m-84.531 184.063 80.156-63.126m0 .001h0m-75.938 195.352 71.72-72.58m0 0h0M1440.04 120l29.92 97.5m0 0h0m-30.897 30.313 31.874 96.875m.001 0h0m-33.048 31.015 34.22 96.094m0 0h0m-35.508 31.875 36.796 95.156m0 0h0m-38.281 32.969 39.766 93.906m0 0h0m-41.485 34.337 43.204 92.42m0 0h0m-45.235 36.095 47.266 90.39m0 0h0m-49.649 38.438 52.032 87.734m0 0h0m-54.806 41.523 57.58 84.22m0 0h0m-60.821 45.703 64.062 79.374m0 .001h0m-67.891 51.522 71.72 72.58m0 0h0m-75.938 59.648 80.156 63.124m0 .001h0m-84.531 70.937 88.906 50m0 0h0m-92.773 86.21 96.64 32.58m0 0h0m-98.984 105.507 101.328 11.406m0 0h0m-101.328 127.5 101.328-11.406m0 0h0m-98.984 149.493 96.64-32.58m0 0h0m-92.773 168.79 88.906-50m0 0h0m-84.531 184.063 80.156-63.126m0 .001h0m-75.938 195.352 71.72-72.58m0 0h0M1610.04 120l29.92 97.5m0 0h0m-30.897 30.313 31.874 96.875m.001 0h0m-33.048 31.015 34.22 96.094m0 0h0m-35.508 31.875 36.796 95.156m0 0h0m-38.281 32.969 39.766 93.906m0 0h0m-41.485 34.337 43.204 92.42m0 0h0m-45.235 36.095 47.266 90.39m0 0h0m-49.649 38.438 52.032 87.734m0 0h0m-54.806 41.523 57.58 84.22m0 0h0m-60.821 45.703 64.062 79.374m0 .001h0m-67.891 51.522 71.72 72.58m0 0h0m-75.938 59.648 80.156 63.124m0 .001h0m-84.531 70.937 88.906 50m0 0h0m-92.773 86.21 96.64 32.58m0 0h0m-98.984 105.507 101.328 11.406m0 0h0m-101.328 127.5 101.328-11.406m0 0h0m-98.984 149.493 96.64-32.58m0 0h0m-92.773 168.79 88.906-50m0 0h0m-84.531 184.063 80.156-63.126m0 .001h0m-75.938 195.352 71.72-72.58m0 0h0M1780.04 120l29.92 97.5m0 0h0m-30.897 30.313 31.874 96.875m.001 0h0m-33.048 31.015 34.22 96.094m0 0h0m-35.508 31.875 36.796 95.156m0 0h0m-38.281 32.969 39.766 93.906m0 0h0m-41.485 34.337 43.204 92.42m0 0h0m-45.235 36.095 47.266 90.39m0 0h0m-49.649 38.438 52.032 87.734m0 0h0m-54.806 41.523 57.58 84.22m0 0h0m-60.821 45.703 64.062 79.374m0 .001h0m-67.891 51.522 71.72 72.58m0 0h0m-75.938 59.648 80.156 63.124m0 .001h0m-84.531 70.937 88.906 50m0 0h0m-92.773 86.21 96.64 32.58m0 0h0m-98.984 105.507 101.328 11.406m0 0h0m-101.328 127.5 101.328-11.406m0 0h0m-98.984 149.493 96.64-32.58m0 0h0m-92.773 168.79 88.906-50m0 0h0m-84.531 184.063 80.156-63.126m0 .001h0m-75.938 195.352 71.72-72.58m0 0h0M1950.04 120l29.92 97.5m0 0h0m-30.897 30.313 31.874 96.875m.001 0h0m-33.048 31.015 34.22 96.094m0 0h0m-35.508 31.875 36.796 95.156m0 0h0m-38.281 32.969 39.766 93.906m0 0h0m-41.485 34.337 43.204 92.42m0 0h0m-45.235 36.095 47.266 90.39m0 0h0m-49.649 38.438 52.032 87.734m0 0h0m-54.806 41.523 57.58 84.22m0 0h0m-60.821 45.703 64.062 79.374m0 .001h0m-67.891 51.522 71.72 72.58m0 0h0m-75.938 59.648 80.156 63.124m0 .001h0m-84.531 70.937 88.906 50m0 0h0m-92.773 86.21 96.64 32.58m0 0h0m-98.984 105.507 101.328 11.406m0 0h0m-101.328 127.5 101.328-11.406m0 0h0m-98.984 149.493 96.64-32.58m0 0h0m-92.773 168.79 88.906-50m0 0h0m-84.531 184.063 80.156-63.126m0 .001h0m-75.938 195.352 71.72-72.58m0 0h0M2120.04 120l29.92 97.5m0 0h0m-30.897 30.313 31.874 96.875m.001 0h0m-33.048 31.015 34.22 96.094m0 0h0m-35.508 31.875 36.796 95.156m0 0h0m-38.281 32.969 39.766 93.906m0 0h0m-41.485 34.337 43.204 92.42m0 0h0m-45.235 36.095 47.266 90.39m0 0h0m-49.649 38.438 52.032 87.734m0 0h0m-54.806 41.523 57.58 84.22m0 0h0m-60.821 45.703 64.062 79.374m0 .001h0m-67.891 51.522 71.72 72.58m0 0h0m-75.938 59.648 80.156 63.124m0 .001h0m-84.531 70.937 88.906 50m0 0h0m-92.773 86.21 96.64 32.58m0 0h0m-98.984 105.507 101.328 11.406m0 0h0m-101.328 127.5 101.328-11.406m0 0h0m-98.984 149.493 96.64-32.58m0 0h0m-92.773 168.79 88.906-50m0 0h0m-84.531 184.063 80.156-63.126m0 .001h0m-75.938 195.352 71.72-72.58m0 0h0M2290.04 120l29.92 97.5m0 0h0m-30.897 30.313 31.874 96.875m.001 0h0m-33.048 31.015 34.22 96.094m0 0h0m-35.508 31.875 36.796 95.156m0 0h0m-38.281 32.969 39.766 93.906m0 0h0m-41.485 34.337 43.204 92.42m0 0h0m-45.235 36.095 47.266 90.39m0 0h0m-49.649 38.438 52.032 87.734m0 0h0m-54.806 41.523 57.58 84.22m0 0h0m-60.821 45.703 64.062 79.374m0 .001h0m-67.891 51.522 71.72 72.58m0 0h0m-75.938 59.648 80.156 63.124m0 .001h0m-84.531 70.937 88.906 50m0 0h0m-92.773 86.21 96.64 32.58m0 0h0m-98.984 105.507 101.328 11.406m0 0h0m-101.328 127.5 101.328-11.406m0 0h0m-98.984 149.493 96.64-32.58m0 0h0m-92.773 168.79 88.906-50m0 0h0m-84.531 184.063 80.156-63.126m0 .001h0m-75.938 195.352 71.72-72.58m0 0h0M2460.04 120l29.92 97.5m0 0h0m-30.897 30.313 31.874 96.875m.001 0h0m-33.048 31.015 34.22 96.094m0 0h0m-35.508 31.875 36.796 95.156m0 0h0m-38.281 32.969 39.766 93.906m0 0h0m-41.485 34.337 43.204 92.42m0 0h0m-45.235 36.095 47.266 90.39m0 0h0m-49.649 38.438 52.032 87.734m0 0h0m-54.806 41.523 57.58 84.22m0 0h0m-60.821 45.703 64.062 79.374m0 .001h0m-67.891 51.522 71.72 72.58m0 0h0m-75.938 59.648 80.156 63.124m0 .001h0m-84.531 70.937 88.906 50m0 0h0m-92.773 86.21 96.64 32.58m0 0h0m-98.984 105.507 101.328 11.406m0 0h0m-101.328 127.5 101.328-11.406m0 0h0m-98.984 149.493 96.64-32.58m0 0h0m-92.773 168.79 88.906-50m0 0h0m-84.531 184.063 80.156-63.126m0 .001h0m-75.938 195.352 71.72-72.58m0 0h0M2630.04 120l29.92 97.5m0 0h0m-30.897 30.313 31.874 96.875m.001 0h0m-33.048 31.015 34.22 96.094m0 0h0m-35.508 31.875 36.796 95.156m0 0h0m-38.281 32.969 39.766 93.906m0 0h0m-41.485 34.337 43.204 92.42m0 0h0m-45.235 36.095 47.266 90.39m0 0h0m-49.649 38.438 52.032 87.734m0 0h0m-54.806 41.523 57.58 84.22m0 0h0m-60.821 45.703 64.062 79.374m0 .001h0m-67.891 51.522 71.72 72.58m0 0h0m-75.938 59.648 80.156 63.124m0 .001h0m-84.531 70.937 88.906 50m0 0h0m-92.773 86.21 96.64 32.58m0 0h0m-98.984 105.507 101.328 11.406m0 0h0m-101.328 127.5 101.328-11.406m0 0h0m-98.984 149.493 96.64-32.58m0 0h0m-92.773 168.79 88.906-50m0 0h0m-84.531 184.063 80.156-63.126m0 .001h0m-75.938 195.352 71.72-72.58m0 0h0M2800.04 120l29.92 97.5m0 0h0m-30.897 30.313 31.874 96.875m.001 0h0m-33.048 31.015 34.22 96.094m0 0h0m-35.508 31.875 36.796 95.156m0 0h0m-38.281 32.969 39.766 93.906m0 0h0m-41.485 34.337 43.204 92.42m0 0h0m-45.235 36.095 47.266 90.39m0 0h0m-49.649 38.438 52.032 87.734m0 0h0m-54.806 41.523 57.58 84.22m0 0h0m-60.821 45.703 64.062 79.374m0 .001h0m-67.891 51.522 71.72 72.58m0 0h0m-75.938 59.648 80.156 63.124m0 .001h0m-84.531 70.937 88.906 50m0 0h0m-92.773 86.21 96.64 32.58m0 0h0m-98.984 105.507 101.328 11.406m0 0h0m-101.328 127.5 101.328-11.406m0 0h0m-98.984 149.493 96.64-32.58m0 0h0m-92.773 168.79 88.906-50m0 0h0m-84.531 184.063 80.156-63.126m0 .001h0m-75.938 195.352 71.72-72.58m0 0h0M2970.04 120l29.92 97.5m0 0h0m-30.897 30.313 31.874 96.875m.001 0h0m-33.048 31.015 34.22 96.094m0 0h0m-35.508 31.875 36.796 95.156m0 0h0m-38.281 32.969 39.766 93.906m0 0h0m-41.485 34.337 43.204 92.42m0 0h0m-45.235 36.095 47.266 90.39m0 0h0m-49.649 38.438 52.032 87.734m0 0h0m-54.806 41.523 57.58 84.22m0 0h0m-60.821 45.703 64.062 79.374m0 .001h0m-67.891 51.522 71.72 72.58m0 0h0m-75.938 59.648 80.156 63.124m0 .001h0m-84.531 70.937 88.906 50m0 0h0m-92.773 86.21 96.64 32.58m0 0h0m-98.984 105.507 101.328 11.406m0 0h0m-101.328 127.5 101.328-11.406m0 0h0m-98.984 149.493 96.64-32.58m0 0h0m-92.773 168.79 88.906-50m0 0h0m-84.531 184.063 80.156-63.126m0 .001h0m-75.938 195.352 71.72-72.58m0 0h0M3140.04 120l29.92 97.5m0 0h0m-30.897 30.313 31.874 96.875m.001 0h0m-33.048 31.015 34.22 96.094m0 0h0m-35.508 31.875 36.796 95.156m0 0h0m-38.281 32.969 39.766 93.906m0 0h0m-41.485 34.337 43.204 92.42m0 0h0m-45.235 36.095 47.266 90.39m0 0h0m-49.649 38.438 52.032 87.734m0 0h0m-54.806 41.523 57.58 84.22m0 0h0m-60.821 45.703 64.062 79.374m0 .001h0m-67.891 51.522 71.72 72.58m0 0h0m-75.938 59.648 80.156 63.124m0 .001h0m-84.531 70.937 88.906 50m0 0h0m-92.773 86.21 96.64 32.58m0 0h0m-98.984 105.507 101.328 11.406m0 0h0m-101.328 127.5 101.328-11.406m0 0h0m-98.984 149.493 96.64-32.58m0 0h0m-92.773 168.79 88.906-50m0 0h0m-84.531 184.063 80.156-63.126m0 .001h0m-75.938 195.352 71.72-72.58m0 0h0M3310.04 120l29.92 97.5m0 0h0m-30.897 30.313 31.874 96.875m.001 0h0m-33.048 31.015 34.22 96.094m0 0h0m-35.508 31.875 36.796 95.156m0 0h0m-38.281 32.969 39.766 93.906m0 0h0m-41.485 34.337 43.204 92.42m0 0h0m-45.235 36.095 47.266 90.39m0 0h0m-49.649 38.438 52.032 87.734m0 0h0m-54.806 41.523 57.58 84.22m0 0h0m-60.821 45.703 64.062 79.374m0 .001h0m-67.891 51.522 71.72 72.58m0 0h0m-75.938 59.648 80.156 63.124m0 .001h0m-84.531 70.937 88.906 50m0 0h0m-92.773 86.21 96.64 32.58m0 0h0m-98.984 105.507 101.328 11.406m0 0h0m-101.328 127.5 101.328-11.406m0 0h0m-98.984 149.493 96.64-32.58m0 0h0m-92.773 168.79 88.906-50m0 0h0m-84.531 184.063 80.156-63.126m0 .001h0m-75.938 195.352 71.72-72.58m0 0h0M3480.04 120l29.92 97.5m0 0h0m-30.897 30.313 31.874 96.875m.001 0h0m-33.048 31.015 34.22 96.094m0 0h0m-35.508 31.875 36.796 95.156m0 0h0m-38.281 32.969 39.766 93.906m0 0h0m-41.485 34.337 43.204 92.42m0 0h0m-45.235 36.095 47.266 90.39m0 0h0m-49.649 38.438 52.032 87.734m0 0h0m-54.806 41.523 57.58 84.22m0 0h0m-60.821 45.703 64.062 79.374m0 .001h0m-67.891 51.522 71.72 72.58m0 0h0m-75.938 59.648 80.156 63.124m0 .001h0m-84.531 70.937 88.906 50m0 0h0m-92.773 86.21 96.64 32.58m0 0h0m-98.984 105.507 101.328 11.406m0 0h0m-101.328 127.5 101.328-11.406m0 0h0m-98.984 149.493 96.64-32.58m0 0h0m-92.773 168.79 88.906-50m0 0h0m-84.531 184.063 80.156-63.126m0 .001h0m-75.938 195.352 71.72-72.58m0 0h0" transform="matrix(.1 0 0 -.1 0 274)"/><g clip-path="url(#r)"><path style="fill:none;stroke-width:12.5;stroke-linecap:round;stroke-linejoin:round;stroke:red;stroke-opacity:1;stroke-miterlimit:10" d="M180 2017.5h3433.984" transform="matrix(.1 0 0 -.1 0 274)"/></g><g clip-path="url(#s)"><path style="fill:none;stroke-width:12.5;stroke-linecap:round;stroke-linejoin:round;stroke:red;stroke-opacity:1;stroke-miterlimit:10" d="m180 2654.883 33.984-37.149 34.024-34.921 33.984-32.93 34.024-31.016 33.984-29.18 33.984-27.5 34.024-25.898 33.984-24.414 34.024-22.93 33.984-21.64 33.984-20.39 34.024-19.18 33.984-18.048 34.024-17.03L690 2276.64l33.984-15.079 34.024-14.218 33.984-13.399 34.024-12.617L860 2209.492l33.984-11.21 34.024-10.509 33.984-9.921 34.024-9.336 33.984-8.79 33.984-8.28 34.024-7.813 33.984-7.344 34.024-6.914 33.984-6.523 33.984-6.133 34.024-5.782 33.984-5.43 34.024-5.116 33.984-4.844 33.984-4.531 34.024-4.297 33.984-4.024 34.024-3.789 33.984-3.593 33.984-3.36 34.024-3.164 33.984-3.008 34.024-2.812 33.984-2.617 33.984-2.5 34.024-2.344 33.984-2.227 34.024-2.07 33.984-1.992 33.984-1.836 34.024-1.758 33.984-1.602 34.024-1.562 33.984-1.445 33.984-1.368 34.024-1.289 33.984-1.21 34.024-1.172 33.984-1.055 33.984-1.016 34.024-.937 33.984-.938 34.024-.82 33.984-.82 33.984-.743 34.024-.703 33.984-.664 34.024-.625 33.984-.625 33.984-.547 34.024-.507 33.984-.508 34.024-.43 33.984-.469 33.984-.39 34.024-.39 33.984-.392 34.024-.312 33.984-.352 33.984-.312 34.024-.274 33.984-.273 34.024-.273 33.984-.196 33.984-.234 34.024-.235 33.984-.195 34.024-.195 33.984-.156 33.984-.196 34.024-.156 33.984-.117 34.024-.156 33.984-.118 33.984-.156 34.024-.117 33.984-.078 34.024-.117 33.984-.118 33.984-.078" transform="matrix(.1 0 0 -.1 0 274)"/></g><g clip-path="url(#t)"><path style="fill:none;stroke-width:12.5;stroke-linecap:round;stroke-linejoin:round;stroke:red;stroke-opacity:1;stroke-miterlimit:10" d="m180 1380 33.984 37.11 34.024 35 33.984 32.89 34.024 31.016L350 1545.234l33.984 27.5 34.024 25.899 33.984 24.375 34.024 23.008L520 1667.617l33.984 20.39 34.024 19.18 33.984 18.086 34.024 17.032L690 1758.32l33.984 15.078 34.024 14.22 33.984 13.398 34.024 12.578L860 1825.508l33.984 11.172 34.024 10.507 33.984 9.922 34.024 9.336 33.984 8.828 33.984 8.282 34.024 7.773 33.984 7.344 34.024 6.953 33.984 6.484 33.984 6.133 34.024 5.781 33.984 5.47 34.024 5.116 33.984 4.805 33.984 4.57 34.024 4.258 33.984 4.063 34.024 3.789 33.984 3.593 33.984 3.36 34.024 3.164 33.984 3.008 34.024 2.773 33.984 2.656 33.984 2.5 34.024 2.344 33.984 2.227 34.024 2.07 33.984 1.953 33.984 1.875 34.024 1.719 33.984 1.64 34.024 1.563 33.984 1.445 33.984 1.368 34.024 1.289 33.984 1.21 34.024 1.172 33.984 1.055 33.984 1.016 34.024.937 33.984.938 34.024.82 33.984.82 33.984.743 34.024.703 33.984.664 34.024.625 67.968 1.172 34.024.507 33.984.47 34.024.468 33.984.469 33.984.39 34.024.39 33.984.392 34.024.312 33.984.352 33.984.273 34.024.313 33.984.273 34.024.273 33.984.196 33.984.234 34.024.235 33.984.195 34.024.195 33.984.156 33.984.196 34.024.156 33.984.117 34.024.156 33.984.118 33.984.156 34.024.117 33.984.078 34.024.117 33.984.118 33.984.078" transform="matrix(.1 0 0 -.1 0 274)"/></g><g clip-path="url(#u)"><path style="fill:none;stroke-width:12.5;stroke-linecap:round;stroke-linejoin:round;stroke:red;stroke-opacity:1;stroke-miterlimit:10" d="m180 742.5 33.984 74.258 34.024 69.922 33.984 65.86 34.024 61.991L350 1072.97l33.984 55 34.024 51.797 33.984 48.789 34.024 45.937 33.984 43.28 33.984 40.743 34.024 38.359 33.984 36.172 34.024 34.023L690 1499.102l33.984 30.195 34.024 28.437 33.984 26.797 34.024 25.196 33.984 23.75 33.984 22.382 34.024 21.055 33.984 19.844 34.024 18.672 33.984 17.578 33.984 16.562 34.024 15.625 33.984 14.688 34.024 13.828 33.984 13.047 33.984 12.265 34.024 11.563 33.984 10.86 34.024 10.273 33.984 9.648 33.984 9.102 34.024 8.554 33.984 8.086 34.024 7.579 33.984 7.148 33.984 6.719 34.024 6.367 33.984 5.976 34.024 5.625 33.984 5.274 33.984 5 34.024 4.687 33.984 4.454 34.024 4.14 33.984 3.945 33.984 3.711 34.024 3.477 33.984 3.281 34.024 3.086 33.984 2.89 33.984 2.735 34.024 2.578 33.984 2.422 34.024 2.305 33.984 2.148 33.984 2.032 34.024 1.914 33.984 1.796 34.024 1.68 33.984 1.64 33.984 1.485 34.024 1.406 33.984 1.329 34.024 1.25 33.984 1.21 33.984 1.094 34.024 1.055 33.984.976 34.024.938 33.984.898 33.984.782 34.024.78 33.984.743 34.024.703 67.968 1.25 34.024.586 33.984.547 34.024.508 67.968.937 34.024.43 33.984.39 34.024.391 33.984.352 33.984.312 34.024.313 33.984.312 34.024.274 33.984.273 33.984.235 34.024.234 33.984.234 34.024.196 67.968.39" transform="matrix(.1 0 0 -.1 0 274)"/></g><g clip-path="url(#v)"><path style="fill:none;stroke-width:12.5;stroke-linecap:round;stroke-linejoin:round;stroke:red;stroke-opacity:1;stroke-miterlimit:10" d="m180 106.29 33.984 111.288 34.024 104.805 33.984 98.71 34.024 92.97L350 601.64l33.984 82.422 34.024 77.656 33.984 73.164 34.024 68.867L520 968.594l33.984 61.093 34.024 57.54 33.984 54.14 34.024 51.055L690 1240.469l33.984 45.234 34.024 42.617 33.984 40.157 34.024 37.773L860 1441.836l33.984 33.555 34.024 31.562 33.984 29.727 34.024 28.007 33.984 26.368 33.984 24.843 34.024 23.36 33.984 22.031 34.024 20.742 33.984 19.532 33.984 18.398 34.024 17.344 33.984 16.328 34.024 15.351 33.984 14.493 33.984 13.632 34.024 12.813 33.984 12.07 34.024 11.406 33.984 10.704 33.984 10.117 34.024 9.492 33.984 8.984 34.024 8.399 33.984 7.968 33.984 7.461 34.024 7.07 33.984 6.602 34.024 6.25 33.984 5.899 33.984 5.547 34.024 5.234 33.984 4.883 34.024 4.648 33.984 4.336 33.984 4.102 34.024 3.867 33.984 3.672 34.024 3.398 33.984 3.242 33.984 3.047 34.024 2.852 33.984 2.695 34.024 2.54 33.984 2.421 33.984 2.227 34.024 2.148 33.984 1.992 34.024 1.875 33.984 1.758 33.984 1.68 34.024 1.562 33.984 1.485 34.024 1.406 33.984 1.328 33.984 1.211 34.024 1.172 33.984 1.094 34.024 1.015 33.984.977 33.984.937 34.024.86 33.984.82 34.024.742 33.984.742 33.984.664 34.024.625 33.984.625 34.024.547 33.984.547 33.984.508 34.024.469 33.984.43 34.024.43 67.968.78 34.024.352 33.984.312 34.024.313 33.984.312 33.984.274" transform="matrix(.1 0 0 -.1 0 274)"/></g></svg>