<svg xmlns="http://www.w3.org/2000/svg" xmlns:xlink="http://www.w3.org/1999/xlink" width="382pt" height="274pt" viewBox="0 0 382 274"><defs><clipPath id="a"><path d="M21 8.5h1v255h-1zm0 0"/></clipPath><clipPath id="b"><path d="M21 263h340v.5H21zm0 0"/></clipPath><clipPath id="c"><path d="M21 8.5h1v255h-1zm0 0"/></clipPath><clipPath id="d"><path d="M105 8.5h2v255h-2zm0 0"/></clipPath><clipPath id="e"><path d="M190 8.5h2v255h-2zm0 0"/></clipPath><clipPath id="f"><path d="M275 8.5h2v255h-2zm0 0"/></clipPath><clipPath id="g"><path d="M360 8.5h1v255h-1zm0 0"/></clipPath><clipPath id="h"><path d="M21 263h340v.5H21zm0 0"/></clipPath><clipPath id="i"><path d="M21 199h340v2H21zm0 0"/></clipPath><clipPath id="j"><path d="M21 135h340v2H21zm0 0"/></clipPath><clipPath id="k"><path d="M21 71h340v2H21zm0 0"/></clipPath><clipPath id="l"><path d="M21 8.5h340V9H21zm0 0"/></clipPath><clipPath id="s"><path d="M49 8.5h312V100H49zm0 0"/></clipPath><clipPath id="t"><path d="M21 98h340v92H21zm0 0"/></clipPath><clipPath id="u"><path d="M21 99h340v126H21zm0 0"/></clipPath><clipPath id="v"><path d="M21 129h340v96H21zm0 0"/></clipPath><clipPath id="w"><path d="M21 223h278v40.5H21zm0 0"/></clipPath><clipPath id="x"><path d="M21 223h340v2H21zm0 0"/></clipPath><clipPath id="y"><path d="M21 98h340v2H21zm0 0"/></clipPath><symbol overflow="visible" id="m"><path style="stroke:none" d="M2.063-5.313c-.5 0-.938.22-1.22.579C.5-4.266.329-3.563.329-2.578c0 1.797.594 2.75 1.734 2.75 1.126 0 1.735-.953 1.735-2.703 0-1.031-.156-1.719-.516-2.203-.281-.375-.719-.579-1.219-.579zm0 .579c.718 0 1.062.718 1.062 2.14 0 1.516-.344 2.219-1.078 2.219C1.344-.375 1-1.109 1-2.563c0-1.453.344-2.171 1.063-2.171zm0 0"/></symbol><symbol overflow="visible" id="n"><path style="stroke:none" d="M3.563-5.313H.828L.422-2.421h.61c.312-.375.562-.5.984-.5.703 0 1.156.485 1.156 1.281 0 .766-.438 1.235-1.156 1.235-.579 0-.938-.297-1.094-.906H.266c.093.437.156.656.312.843.313.406.844.64 1.453.64 1.063 0 1.813-.78 1.813-1.905 0-1.047-.688-1.766-1.719-1.766-.375 0-.672.094-.984.313l.218-1.485h2.204zm0 0"/></symbol><symbol overflow="visible" id="o"><path style="stroke:none" d="M1.938-3.781V0h.671v-5.313h-.437c-.235.813-.39.922-1.406 1.047v.485zm0 0"/></symbol><symbol overflow="visible" id="p"><path style="stroke:none" d="M3.797-.656H1c.063-.438.313-.703.953-1.094l.75-.406c.75-.406 1.125-.953 1.125-1.594 0-.453-.172-.86-.484-1.14-.328-.298-.719-.423-1.219-.423-.672 0-1.172.235-1.469.688-.187.281-.265.61-.281 1.156h.656c.032-.36.078-.578.157-.75.171-.328.515-.515.921-.515.594 0 1.047.421 1.047.984 0 .422-.25.781-.719 1.063l-.687.39C.64-1.672.312-1.172.25 0h3.547zm0 0"/></symbol><symbol overflow="visible" id="q"><path style="stroke:none" d="M1.438-.781H.655V0h.781zm0 0"/></symbol><symbol overflow="visible" id="r"><path style="stroke:none" d="M3.906-5.313H.344v.641h2.875C1.953-2.859 1.438-1.75 1.03 0h.703c.297-1.703.97-3.172 2.172-4.766zm0 0"/></symbol></defs><path style="stroke:none;fill-rule:nonzero;fill:#fff;fill-opacity:1" d="M21 263.5h340V8.5H21zm0 0"/><g clip-path="url(#a)"><path style="fill:none;stroke-width:6.25;stroke-linecap:round;stroke-linejoin:miter;stroke:#bfbfbf;stroke-opacity:1;stroke-miterlimit:10" d="M210 105v2550" transform="matrix(.1 0 0 -.1 0 274)"/></g><g clip-path="url(#b)"><path style="fill:none;stroke-width:6.25;stroke-linecap:round;stroke-linejoin:miter;stroke:#bfbfbf;stroke-opacity:1;stroke-miterlimit:10" d="M210 105h3400" transform="matrix(.1 0 0 -.1 0 274)"/></g><g clip-path="url(#c)"><path style="fill:none;stroke-width:6.25;stroke-linecap:round;stroke-linejoin:miter;stroke:#bfbfbf;stroke-opacity:1;stroke-dasharray:12.5,18.75;stroke-miterlimit:10" d="M210 105v2550" transform="matrix(.1 0 0 -.1 0 274)"/></g><g clip-path="url(#d)"><path style="fill:none;stroke-width:6.25;stroke-linecap:round;stroke-linejoin:miter;stroke:#bfbfbf;stroke-opacity:1;stroke-dasharray:12.5,18.75;stroke-miterlimit:10" d="M1060 105v2550" transform="matrix(.1 0 0 -.1 0 274)"/></g><g clip-path="url(#e)"><path style="fill:none;stroke-width:6.25;stroke-linecap:round;stroke-linejoin:miter;stroke:#bfbfbf;stroke-opacity:1;stroke-dasharray:12.5,18.75;stroke-miterlimit:10" d="M1910 105v2550" transform="matrix(.1 0 0 -.1 0 274)"/></g><g clip-path="url(#f)"><path style="fill:none;stroke-width:6.25;stroke-linecap:round;stroke-linejoin:miter;stroke:#bfbfbf;stroke-opacity:1;stroke-dasharray:12.5,18.75;stroke-miterlimit:10" d="M2760 105v2550" transform="matrix(.1 0 0 -.1 0 274)"/></g><g clip-path="url(#g)"><path style="fill:none;stroke-width:6.25;stroke-linecap:round;stroke-linejoin:miter;stroke:#bfbfbf;stroke-opacity:1;stroke-dasharray:12.5,18.75;stroke-miterlimit:10" d="M3610 105v2550" transform="matrix(.1 0 0 -.1 0 274)"/></g><g clip-path="url(#h)"><path style="fill:none;stroke-width:6.25;stroke-linecap:round;stroke-linejoin:miter;stroke:#bfbfbf;stroke-opacity:1;stroke-dasharray:12.5,18.75;stroke-miterlimit:10" d="M210 105h3400" transform="matrix(.1 0 0 -.1 0 274)"/></g><g clip-path="url(#i)"><path style="fill:none;stroke-width:6.25;stroke-linecap:round;stroke-linejoin:miter;stroke:#bfbfbf;stroke-opacity:1;stroke-dasharray:12.5,18.75;stroke-miterlimit:10" d="M210 742.5h3400" transform="matrix(.1 0 0 -.1 0 274)"/></g><g clip-path="url(#j)"><path style="fill:none;stroke-width:6.25;stroke-linecap:round;stroke-linejoin:miter;stroke:#bfbfbf;stroke-opacity:1;stroke-dasharray:12.5,18.75;stroke-miterlimit:10" d="M210 1380h3400" transform="matrix(.1 0 0 -.1 0 274)"/></g><g clip-path="url(#k)"><path style="fill:none;stroke-width:6.25;stroke-linecap:round;stroke-linejoin:miter;stroke:#bfbfbf;stroke-opacity:1;stroke-dasharray:12.5,18.75;stroke-miterlimit:10" d="M210 2017.5h3400" transform="matrix(.1 0 0 -.1 0 274)"/></g><g clip-path="url(#l)"><path style="fill:none;stroke-width:6.25;stroke-linecap:round;stroke-linejoin:miter;stroke:#bfbfbf;stroke-opacity:1;stroke-dasharray:12.5,18.75;stroke-miterlimit:10" d="M210 2655h3400" transform="matrix(.1 0 0 -.1 0 274)"/></g><path style="fill:none;stroke-width:12.5;stroke-linecap:square;stroke-linejoin:miter;stroke:#000;stroke-opacity:1;stroke-miterlimit:10" d="M210 105h3400" transform="matrix(.1 0 0 -.1 0 274)"/><path style="fill:none;stroke-width:6.25;stroke-linecap:butt;stroke-linejoin:miter;stroke:#000;stroke-opacity:1;stroke-miterlimit:10" d="M210 105v50m85-50v25m85-25v25m85-25v25m85-25v25m85-25v25m85-25v25m85-25v25m85-25v25m85-25v25m85-25v50m85-50v25m85-25v25m85-25v25m85-25v25m85-25v25m85-25v25m85-25v25m85-25v25m85-25v25m85-25v50m85-50v25m85-25v25m85-25v25m85-25v25m85-25v25m85-25v25m85-25v25m85-25v25m85-25v25m85-25v50m85-50v25m85-25v25m85-25v25m85-25v25m85-25v25m85-25v25m85-25v25m85-25v25m85-25v25m85-25v50" transform="matrix(.1 0 0 -.1 0 274)"/><use xlink:href="#m" x="18.29" y="273.5" style="fill:#000;fill-opacity:1"/><use xlink:href="#n" x="103.29" y="273.5" style="fill:#000;fill-opacity:1"/><g style="fill:#000;fill-opacity:1"><use xlink:href="#o" x="186.829" y="273.5"/><use xlink:href="#m" x="190.999" y="273.5"/></g><g style="fill:#000;fill-opacity:1"><use xlink:href="#o" x="271.829" y="273.5"/><use xlink:href="#n" x="275.999" y="273.5"/></g><g style="fill:#000;fill-opacity:1"><use xlink:href="#p" x="356.829" y="273.5"/><use xlink:href="#m" x="360.999" y="273.5"/></g><path style="fill:none;stroke-width:12.5;stroke-linecap:square;stroke-linejoin:miter;stroke:#000;stroke-opacity:1;stroke-miterlimit:10" d="M210 2655h3400" transform="matrix(.1 0 0 -.1 0 274)"/><path style="fill:none;stroke-width:6.25;stroke-linecap:butt;stroke-linejoin:miter;stroke:#000;stroke-opacity:1;stroke-miterlimit:10" d="M210 2655v-50m85 50v-25m85 25v-25m85 25v-25m85 25v-25m85 25v-25m85 25v-25m85 25v-25m85 25v-25m85 25v-25m85 25v-50m85 50v-25m85 25v-25m85 25v-25m85 25v-25m85 25v-25m85 25v-25m85 25v-25m85 25v-25m85 25v-25m85 25v-50m85 50v-25m85 25v-25m85 25v-25m85 25v-25m85 25v-25m85 25v-25m85 25v-25m85 25v-25m85 25v-25m85 25v-50m85 50v-25m85 25v-25m85 25v-25m85 25v-25m85 25v-25m85 25v-25m85 25v-25m85 25v-25m85 25v-25m85 25v-50" transform="matrix(.1 0 0 -.1 0 274)"/><use xlink:href="#m" x="18.29" y="5.375" style="fill:#000;fill-opacity:1"/><use xlink:href="#n" x="103.29" y="5.375" style="fill:#000;fill-opacity:1"/><g style="fill:#000;fill-opacity:1"><use xlink:href="#o" x="186.829" y="5.375"/><use xlink:href="#m" x="190.999" y="5.375"/></g><g style="fill:#000;fill-opacity:1"><use xlink:href="#o" x="271.829" y="5.375"/><use xlink:href="#n" x="275.999" y="5.375"/></g><g style="fill:#000;fill-opacity:1"><use xlink:href="#p" x="356.829" y="5.375"/><use xlink:href="#m" x="360.999" y="5.375"/></g><path style="fill:none;stroke-width:12.5;stroke-linecap:square;stroke-linejoin:miter;stroke:#000;stroke-opacity:1;stroke-miterlimit:10" d="M210 105v2550" transform="matrix(.1 0 0 -.1 0 274)"/><path style="fill:none;stroke-width:6.25;stroke-linecap:butt;stroke-linejoin:miter;stroke:#000;stroke-opacity:1;stroke-miterlimit:10" d="M210 105h50m-50 63.75h25m-25 63.75h25m-25 63.75h25M210 360h25m-25 63.75h25m-25 63.75h25m-25 63.75h25M210 615h25m-25 63.75h25m-25 63.75h50m-50 63.75h25M210 870h25m-25 63.75h25m-25 63.75h25m-25 63.75h25M210 1125h25m-25 63.75h25m-25 63.75h25m-25 63.75h25M210 1380h50m-50 63.75h25m-25 63.75h25m-25 63.75h25M210 1635h25m-25 63.75h25m-25 63.75h25m-25 63.75h25M210 1890h25m-25 63.75h25m-25 63.75h50m-50 63.75h25M210 2145h25m-25 63.75h25m-25 63.75h25m-25 63.75h25M210 2400h25m-25 63.75h25m-25 63.75h25m-25 63.75h25M210 2655h50" transform="matrix(.1 0 0 -.1 0 274)"/><g style="fill:#000;fill-opacity:1"><use xlink:href="#m" x="3.7" y="267.25"/><use xlink:href="#q" x="7.87" y="267.25"/><use xlink:href="#m" x="9.955" y="267.25"/></g><g style="fill:#000;fill-opacity:1"><use xlink:href="#p" x="3.7" y="202.875"/><use xlink:href="#q" x="7.87" y="202.875"/><use xlink:href="#n" x="9.955" y="202.875"/></g><g style="fill:#000;fill-opacity:1"><use xlink:href="#n" x="3.7" y="139.125"/><use xlink:href="#q" x="7.87" y="139.125"/><use xlink:href="#m" x="9.955" y="139.125"/></g><g style="fill:#000;fill-opacity:1"><use xlink:href="#r" x="3.7" y="75.375"/><use xlink:href="#q" x="7.87" y="75.375"/><use xlink:href="#n" x="9.955" y="75.375"/></g><g style="fill:#000;fill-opacity:1"><use xlink:href="#o" x="-.47" y="11.625"/><use xlink:href="#m" x="3.7" y="11.625"/><use xlink:href="#q" x="7.87" y="11.625"/><use xlink:href="#m" x="9.955" y="11.625"/></g><path style="fill:none;stroke-width:12.5;stroke-linecap:square;stroke-linejoin:miter;stroke:#000;stroke-opacity:1;stroke-miterlimit:10" d="M3610 105v2550" transform="matrix(.1 0 0 -.1 0 274)"/><path style="fill:none;stroke-width:6.25;stroke-linecap:butt;stroke-linejoin:miter;stroke:#000;stroke-opacity:1;stroke-miterlimit:10" d="M3610 105h-50m50 63.75h-25m25 63.75h-25m25 63.75h-25m25 63.75h-25m25 63.75h-25m25 63.75h-25m25 63.75h-25m25 63.75h-25m25 63.75h-25m25 63.75h-50m50 63.75h-25m25 63.75h-25m25 63.75h-25m25 63.75h-25m25 63.75h-25m25 63.75h-25m25 63.75h-25m25 63.75h-25m25 63.75h-25m25 63.75h-50m50 63.75h-25m25 63.75h-25m25 63.75h-25m25 63.75h-25m25 63.75h-25m25 63.75h-25m25 63.75h-25m25 63.75h-25m25 63.75h-25m25 63.75h-50m50 63.75h-25m25 63.75h-25m25 63.75h-25m25 63.75h-25m25 63.75h-25m25 63.75h-25m25 63.75h-25m25 63.75h-25m25 63.75h-25m25 63.75h-50" transform="matrix(.1 0 0 -.1 0 274)"/><g style="fill:#000;fill-opacity:1"><use xlink:href="#m" x="367.25" y="267.25"/><use xlink:href="#q" x="371.42" y="267.25"/><use xlink:href="#m" x="373.505" y="267.25"/></g><g style="fill:#000;fill-opacity:1"><use xlink:href="#p" x="367.25" y="202.875"/><use xlink:href="#q" x="371.42" y="202.875"/><use xlink:href="#n" x="373.505" y="202.875"/></g><g style="fill:#000;fill-opacity:1"><use xlink:href="#n" x="367.25" y="139.125"/><use xlink:href="#q" x="371.42" y="139.125"/><use xlink:href="#m" x="373.505" y="139.125"/></g><g style="fill:#000;fill-opacity:1"><use xlink:href="#r" x="367.25" y="75.375"/><use xlink:href="#q" x="371.42" y="75.375"/><use xlink:href="#n" x="373.505" y="75.375"/></g><g style="fill:#000;fill-opacity:1"><use xlink:href="#o" x="367.25" y="11.625"/><use xlink:href="#m" x="371.42" y="11.625"/><use xlink:href="#q" x="375.59" y="11.625"/><use xlink:href="#m" x="377.675" y="11.625"/></g><path style="fill:none;stroke-width:6.25;stroke-linecap:round;stroke-linejoin:miter;stroke:#00f;stroke-opacity:1;stroke-miterlimit:10" d="m262.5 208.047 65-78.594m0 0h0M252.93 325.04l84.14-57.58m0 0h0m-91.718 167.93 99.296-23.28m0 0h0M244.492 544.14l101.016 14.22m0 0h0m-97.188 99.843 93.36 41.094m0 0h0m-89.14 78.711 84.92 56.484m0 0h0m-81.991 67.031 79.062 64.454m0 0h0m-77.617 61.367 76.172 67.812m0 0h0m-76.172 59.688 76.172 67.812m0 0h0m-77.617 61.367 79.062 64.454m0 0h0m-81.991 67.031 84.92 56.484m0 0h0m-89.14 78.711 93.36 41.094m0 0h0m-97.188 99.843 101.016 14.22m0 0h0m-100.156 132.03 99.296-23.28m0 0h0m-91.718 167.93 84.14-57.58m0 0h0m-74.57 195.587 65-78.594m0 0h0m-57.187 211.445 49.375-89.296m0 0h0m-43.75 219.453 38.125-94.61m0 0h0m-34.141 223.515 30.156-97.42m0 0h0m-27.265 225.741 24.375-99.062m0 0h0M432.5 208.047l65-78.594m0 0h0M422.93 325.04l84.14-57.58m0 0h0m-91.718 167.93 99.296-23.28m0 0h0M414.492 544.14l101.016 14.22m0 0h0m-97.188 99.843 93.36 41.094m0 0h0m-89.14 78.711 84.92 56.484m0 0h0m-81.991 67.031 79.062 64.454m0 0h0m-77.617 61.367 76.172 67.812m0 0h0m-76.172 59.688 76.172 67.812m0 0h0m-77.617 61.367 79.062 64.454m0 0h0m-81.991 67.031 84.92 56.484m0 0h0m-89.14 78.711 93.36 41.094m0 0h0m-97.188 99.843 101.016 14.22m0 0h0m-100.156 132.03 99.296-23.28m0 0h0m-91.718 167.93 84.14-57.58m0 0h0m-74.57 195.587 65-78.594m0 0h0m-57.187 211.445 49.375-89.296m0 0h0m-43.75 219.453 38.125-94.61m0 0h0m-34.141 223.515 30.156-97.42m0 0h0m-27.265 225.741 24.375-99.062m0 0h0M602.5 208.047l65-78.594m0 0h0M592.93 325.04l84.14-57.58m0 0h0m-91.718 167.93 99.296-23.28m0 0h0M584.492 544.14l101.016 14.22m0 0h0m-97.188 99.843 93.36 41.094m0 0h0m-89.14 78.711 84.92 56.484m0 0h0m-81.991 67.031 79.062 64.454m0 0h0m-77.617 61.367 76.172 67.812m0 0h0m-76.172 59.688 76.172 67.812m0 0h0m-77.617 61.367 79.062 64.454m0 0h0m-81.991 67.031 84.92 56.484m0 0h0m-89.14 78.711 93.36 41.094m0 0h0m-97.188 99.843 101.016 14.22m0 0h0m-100.156 132.03 99.296-23.28m0 0h0m-91.718 167.93 84.14-57.58m0 0h0m-74.57 195.587 65-78.594m0 0h0m-57.187 211.445 49.375-89.296m0 0h0m-43.75 219.453 38.125-94.61m0 0h0m-34.141 223.515 30.156-97.42m0 0h0m-27.265 225.741 24.375-99.062m0 0h0M772.5 208.047l65-78.594m0 0h0M762.93 325.04l84.14-57.58m0 0h0m-91.718 167.93 99.296-23.28m0 0h0M754.492 544.14l101.016 14.22m0 0h0m-97.188 99.843 93.36 41.094m0 0h0m-89.14 78.711 84.92 56.484m0 0h0m-81.991 67.031 79.062 64.454m0 0h0m-77.617 61.367 76.172 67.812m0 0h0m-76.172 59.688 76.172 67.812m0 0h0m-77.617 61.367 79.062 64.454m0 0h0m-81.991 67.031 84.92 56.484m0 0h0m-89.14 78.711 93.36 41.094m0 0h0m-97.188 99.843 101.016 14.22m0 0h0m-100.156 132.03 99.296-23.28m0 0h0m-91.718 167.93 84.14-57.58m0 0h0m-74.57 195.587 65-78.594m0 0h0m-57.187 211.445 49.375-89.296m0 0h0m-43.75 219.453 38.125-94.61m0 0h0m-34.141 223.515 30.156-97.42m0 0h0m-27.265 225.741 24.375-99.062m0 0h0M942.5 208.047l65-78.594m0 0h0M932.93 325.04l84.18-57.58m0 0h0m-91.758 167.93 99.296-23.28m0 0h0M924.492 544.14l101.016 14.22m0 0h0m-97.188 99.843 93.36 41.094m0 0h0m-89.14 78.711 84.92 56.484m0 0h0m-81.991 67.031 79.062 64.454m0 0h0m-77.617 61.367 76.172 67.812m0 0h0m-76.172 59.688 76.172 67.812m0 0h0m-77.617 61.367 79.062 64.454m0 0h0m-81.991 67.031 84.92 56.484m0 0h0m-89.14 78.711 93.36 41.094m0 0h0m-97.188 99.843 101.016 14.22m0 0h0m-100.156 132.03 99.296-23.28m0 0h0m-91.718 167.93 84.18-57.58m0 0h0m-74.61 195.587 65-78.594m0 0h0m-57.187 211.445 49.375-89.296m0 0h0m-43.75 219.453 38.125-94.61m0 0h0m-34.141 223.515 30.156-97.42m0 0h0m-27.265 225.741 24.375-99.062m0 0h0M1112.5 208.047l65-78.594m0 0h0m-74.61 195.587 84.22-57.58m0 0h0m-91.758 167.93 99.296-23.28m0 0h0m-100.156 132.03 101.016 14.22m0 0h0m-97.188 99.843 93.36 41.094m0 0h0m-89.14 78.711 84.92 56.484m0 0h0m-81.991 67.031 79.062 64.454m0 0h0m-77.617 61.367 76.172 67.812m0 0h0m-76.172 59.688 76.172 67.812m0 0h0m-77.617 61.367 79.062 64.454m0 0h0m-81.991 67.031 84.92 56.484m0 0h0m-89.14 78.711 93.36 41.094m0 0h0m-97.188 99.843 101.016 14.22m0 0h0m-100.156 132.03 99.296-23.28m0 0h0m-91.758 167.93 84.22-57.58m0 0h0m-74.61 195.587 65-78.594m0 0h0m-57.187 211.445 49.374-89.296m.001 0h0m-43.711 219.453 38.046-94.61m0 0h0m-34.101 223.515 30.156-97.42m0 0h0m-27.265 225.741 24.374-99.062m.001 0h0M1282.5 208.047l65-78.594m0 0h0m-74.61 195.587 84.22-57.58m0 0h0m-91.758 167.93 99.296-23.28m0 0h0m-100.156 132.03 101.016 14.22m0 0h0m-97.188 99.843 93.36 41.094m0 0h0m-89.14 78.711 84.92 56.484m0 0h0m-81.991 67.031 79.062 64.454m0 0h0m-77.617 61.367 76.172 67.812m0 0h0m-76.172 59.688 76.172 67.812m0 0h0m-77.617 61.367 79.062 64.454m0 0h0m-81.991 67.031 84.92 56.484m0 0h0m-89.14 78.711 93.36 41.094m0 0h0m-97.188 99.843 101.016 14.22m0 0h0m-100.156 132.03 99.296-23.28m0 0h0m-91.758 167.93 84.22-57.58m0 0h0m-74.61 195.587 65-78.594m0 0h0m-57.187 211.445 49.374-89.296m.001 0h0m-43.711 219.453 38.046-94.61m0 0h0m-34.101 223.515 30.156-97.42m0 0h0m-27.265 225.741 24.374-99.062m.001 0h0M1452.5 208.047l65-78.594m0 0h0m-74.61 195.587 84.22-57.58m0 0h0m-91.758 167.93 99.296-23.28m0 0h0m-100.156 132.03 101.016 14.22m0 0h0m-97.188 99.843 93.36 41.094m0 0h0m-89.14 78.711 84.92 56.484m0 0h0m-81.991 67.031 79.062 64.454m0 0h0m-77.617 61.367 76.172 67.812m0 0h0m-76.172 59.688 76.172 67.812m0 0h0m-77.617 61.367 79.062 64.454m0 0h0m-81.991 67.031 84.92 56.484m0 0h0m-89.14 78.711 93.36 41.094m0 0h0m-97.188 99.843 101.016 14.22m0 0h0m-100.156 132.03 99.296-23.28m0 0h0m-91.758 167.93 84.22-57.58m0 0h0m-74.61 195.587 65-78.594m0 0h0m-57.187 211.445 49.374-89.296m.001 0h0m-43.711 219.453 38.046-94.61m0 0h0m-34.101 223.515 30.156-97.42m0 0h0m-27.265 225.741 24.374-99.062m.001 0h0M1622.5 208.047l65-78.594m0 0h0m-74.61 195.587 84.22-57.58m0 0h0m-91.758 167.93 99.296-23.28m0 0h0m-100.156 132.03 101.016 14.22m0 0h0m-97.188 99.843 93.36 41.094m0 0h0m-89.14 78.711 84.92 56.484m0 0h0m-81.991 67.031 79.062 64.454m0 0h0m-77.617 61.367 76.172 67.812m0 0h0m-76.172 59.688 76.172 67.812m0 0h0m-77.617 61.367 79.062 64.454m0 0h0m-81.991 67.031 84.92 56.484m0 0h0m-89.14 78.711 93.36 41.094m0 0h0m-97.188 99.843 101.016 14.22m0 0h0m-100.156 132.03 99.296-23.28m0 0h0m-91.758 167.93 84.22-57.58m0 0h0m-74.61 195.587 65-78.594m0 0h0m-57.187 211.445 49.374-89.296m.001 0h0m-43.711 219.453 38.046-94.61m0 0h0m-34.101 223.515 30.156-97.42m0 0h0m-27.265 225.741 24.374-99.062m.001 0h0M1792.5 208.047l65-78.594m0 0h0m-74.61 195.587 84.22-57.58m0 0h0m-91.758 167.93 99.296-23.28m0 0h0m-100.156 132.03 101.016 14.22m0 0h0m-97.188 99.843 93.36 41.094m0 0h0m-89.14 78.711 84.92 56.484m0 0h0m-81.991 67.031 79.062 64.454m0 0h0m-77.617 61.367 76.172 67.812m0 0h0m-76.172 59.688 76.172 67.812m0 0h0m-77.617 61.367 79.062 64.454m0 0h0m-81.991 67.031 84.92 56.484m0 0h0m-89.14 78.711 93.36 41.094m0 0h0m-97.188 99.843 101.016 14.22m0 0h0m-100.156 132.03 99.296-23.28m0 0h0m-91.758 167.93 84.22-57.58m0 0h0m-74.61 195.587 65-78.594m0 0h0m-57.187 211.445 49.374-89.296m.001 0h0m-43.711 219.453 38.046-94.61m0 0h0m-34.101 223.515 30.156-97.42m0 0h0m-27.265 225.741 24.374-99.062m.001 0h0M1962.5 208.047l65-78.594m0 0h0m-74.61 195.587 84.22-57.58m0 0h0m-91.758 167.93 99.296-23.28m0 0h0m-100.156 132.03 101.016 14.22m0 0h0m-97.188 99.843 93.36 41.094m0 0h0m-89.14 78.711 84.92 56.484m0 0h0m-81.991 67.031 79.062 64.454m0 0h0m-77.617 61.367 76.172 67.812m0 0h0m-76.172 59.688 76.172 67.812m0 0h0m-77.617 61.367 79.062 64.454m0 0h0m-81.991 67.031 84.92 56.484m0 0h0m-89.14 78.711 93.36 41.094m0 0h0m-97.188 99.843 101.016 14.22m0 0h0m-100.156 132.03 99.296-23.28m0 0h0m-91.758 167.93 84.22-57.58m0 0h0m-74.61 195.587 65-78.594m0 0h0m-57.187 211.445 49.374-89.296m.001 0h0m-43.711 219.453 38.046-94.61m0 0h0m-34.101 223.515 30.156-97.42m0 0h0m-27.265 225.741 24.374-99.062m.001 0h0M2132.5 208.047l65-78.594m0 0h0m-74.61 195.587 84.22-57.58m0 0h0m-91.758 167.93 99.296-23.28m0 0h0m-100.156 132.03 101.016 14.22m0 0h0m-97.188 99.843 93.36 41.094m0 0h0m-89.14 78.711 84.92 56.484m0 0h0m-81.991 67.031 79.062 64.454m0 0h0m-77.617 61.367 76.172 67.812m0 0h0m-76.172 59.688 76.172 67.812m0 0h0m-77.617 61.367 79.062 64.454m0 0h0m-81.991 67.031 84.92 56.484m0 0h0m-89.14 78.711 93.36 41.094m0 0h0m-97.188 99.843 101.016 14.22m0 0h0m-100.156 132.03 99.296-23.28m0 0h0m-91.758 167.93 84.22-57.58m0 0h0m-74.61 195.587 65-78.594m0 0h0m-57.187 211.445 49.374-89.296m.001 0h0m-43.711 219.453 38.046-94.61m0 0h0m-34.101 223.515 30.156-97.42m0 0h0m-27.265 225.741 24.374-99.062m.001 0h0M2302.5 208.047l65-78.594m0 0h0m-74.61 195.587 84.22-57.58m0 0h0m-91.758 167.93 99.296-23.28m0 0h0m-100.156 132.03 101.016 14.22m0 0h0m-97.188 99.843 93.36 41.094m0 0h0m-89.14 78.711 84.92 56.484m0 0h0m-81.991 67.031 79.062 64.454m0 0h0m-77.617 61.367 76.172 67.812m0 0h0m-76.172 59.688 76.172 67.812m0 0h0m-77.617 61.367 79.062 64.454m0 0h0m-81.991 67.031 84.92 56.484m0 0h0m-89.14 78.711 93.36 41.094m0 0h0m-97.188 99.843 101.016 14.22m0 0h0m-100.156 132.03 99.296-23.28m0 0h0m-91.758 167.93 84.22-57.58m0 0h0m-74.61 195.587 65-78.594m0 0h0m-57.187 211.445 49.374-89.296m.001 0h0m-43.711 219.453 38.046-94.61m0 0h0m-34.101 223.515 30.156-97.42m0 0h0m-27.265 225.741 24.374-99.062m.001 0h0M2472.5 208.047l65-78.594m0 0h0m-74.61 195.587 84.22-57.58m0 0h0m-91.758 167.93 99.296-23.28m0 0h0m-100.156 132.03 101.016 14.22m0 0h0m-97.188 99.843 93.36 41.094m0 0h0m-89.14 78.711 84.92 56.484m0 0h0m-81.991 67.031 79.062 64.454m0 0h0m-77.617 61.367 76.172 67.812m0 0h0m-76.172 59.688 76.172 67.812m0 0h0m-77.617 61.367 79.062 64.454m0 0h0m-81.991 67.031 84.92 56.484m0 0h0m-89.14 78.711 93.36 41.094m0 0h0m-97.188 99.843 101.016 14.22m0 0h0m-100.156 132.03 99.296-23.28m0 0h0m-91.758 167.93 84.22-57.58m0 0h0m-74.61 195.587 65-78.594m0 0h0m-57.187 211.445 49.374-89.296m.001 0h0m-43.711 219.453 38.046-94.61m0 0h0m-34.101 223.515 30.156-97.42m0 0h0m-27.265 225.741 24.374-99.062m.001 0h0M2642.5 208.047l65-78.594m0 0h0m-74.61 195.587 84.22-57.58m0 0h0m-91.758 167.93 99.296-23.28m0 0h0m-100.156 132.03 101.016 14.22m0 0h0m-97.188 99.843 93.36 41.094m0 0h0m-89.14 78.711 84.92 56.484m0 0h0m-81.991 67.031 79.062 64.454m0 0h0m-77.617 61.367 76.172 67.812m0 0h0m-76.172 59.688 76.172 67.812m0 0h0m-77.617 61.367 79.062 64.454m0 0h0m-81.991 67.031 84.92 56.484m0 0h0m-89.14 78.711 93.36 41.094m0 0h0m-97.188 99.843 101.016 14.22m0 0h0m-100.156 132.03 99.296-23.28m0 0h0m-91.758 167.93 84.22-57.58m0 0h0m-74.61 195.587 65-78.594m0 0h0m-57.187 211.445 49.374-89.296m.001 0h0m-43.711 219.453 38.046-94.61m0 0h0m-34.101 223.515 30.156-97.42m0 0h0m-27.265 225.741 24.374-99.062m.001 0h0M2812.5 208.047l65-78.594m0 0h0m-74.61 195.587 84.22-57.58m0 0h0m-91.758 167.93 99.296-23.28m0 0h0m-100.156 132.03 101.016 14.22m0 0h0m-97.188 99.843 93.36 41.094m0 0h0m-89.14 78.711 84.92 56.484m0 0h0m-81.991 67.031 79.062 64.454m0 0h0m-77.617 61.367 76.172 67.812m0 0h0m-76.172 59.688 76.172 67.812m0 0h0m-77.617 61.367 79.062 64.454m0 0h0m-81.991 67.031 84.92 56.484m0 0h0m-89.14 78.711 93.36 41.094m0 0h0m-97.188 99.843 101.016 14.22m0 0h0m-100.156 132.03 99.296-23.28m0 0h0m-91.758 167.93 84.22-57.58m0 0h0m-74.61 195.587 65-78.594m0 0h0m-57.187 211.445 49.374-89.296m.001 0h0m-43.711 219.453 38.046-94.61m0 0h0m-34.101 223.515 30.156-97.42m0 0h0m-27.265 225.741 24.374-99.062m.001 0h0M2982.5 208.047l65-78.594m0 0h0m-74.61 195.587 84.22-57.58m0 0h0m-91.758 167.93 99.296-23.28m0 0h0m-100.156 132.03 101.016 14.22m0 0h0m-97.188 99.843 93.36 41.094m0 0h0m-89.14 78.711 84.92 56.484m0 0h0m-81.991 67.031 79.062 64.454m0 0h0m-77.617 61.367 76.172 67.812m0 0h0m-76.172 59.688 76.172 67.812m0 0h0m-77.617 61.367 79.062 64.454m0 0h0m-81.991 67.031 84.92 56.484m0 0h0m-89.14 78.711 93.36 41.094m0 0h0m-97.188 99.843 101.016 14.22m0 0h0m-100.156 132.03 99.296-23.28m0 0h0m-91.758 167.93 84.22-57.58m0 0h0m-74.61 195.587 65-78.594m0 0h0m-57.187 211.445 49.374-89.296m.001 0h0m-43.711 219.453 38.046-94.61m0 0h0m-34.101 223.515 30.156-97.42m0 0h0m-27.265 225.741 24.374-99.062m.001 0h0M3152.5 208.047l65-78.594m0 0h0m-74.61 195.587 84.22-57.58m0 0h0m-91.758 167.93 99.296-23.28m0 0h0m-100.156 132.03 101.016 14.22m0 0h0m-97.188 99.843 93.36 41.094m0 0h0m-89.14 78.711 84.92 56.484m0 0h0m-81.991 67.031 79.062 64.454m0 0h0m-77.617 61.367 76.172 67.812m0 0h0m-76.172 59.688 76.172 67.812m0 0h0m-77.617 61.367 79.062 64.454m0 0h0m-81.991 67.031 84.92 56.484m0 0h0m-89.14 78.711 93.36 41.094m0 0h0m-97.188 99.843 101.016 14.22m0 0h0m-100.156 132.03 99.296-23.28m0 0h0m-91.758 167.93 84.22-57.58m0 0h0m-74.61 195.587 65-78.594m0 0h0m-57.187 211.445 49.374-89.296m.001 0h0m-43.711 219.453 38.046-94.61m0 0h0m-34.101 223.515 30.156-97.42m0 0h0m-27.265 225.741 24.374-99.062m.001 0h0M3322.5 208.047l65-78.594m0 0h0m-74.61 195.587 84.22-57.58m0 0h0m-91.758 167.93 99.296-23.28m0 0h0m-100.156 132.03 101.016 14.22m0 0h0m-97.188 99.843 93.36 41.094m0 0h0m-89.14 78.711 84.92 56.484m0 0h0m-81.991 67.031 79.062 64.454m0 0h0m-77.617 61.367 76.172 67.812m0 0h0m-76.172 59.688 76.172 67.812m0 0h0m-77.617 61.367 79.062 64.454m0 0h0m-81.991 67.031 84.92 56.484m0 0h0m-89.14 78.711 93.36 41.094m0 0h0m-97.188 99.843 101.016 14.22m0 0h0m-100.156 132.03 99.296-23.28m0 0h0m-91.758 167.93 84.22-57.58m0 0h0m-74.61 195.587 65-78.594m0 0h0m-57.187 211.445 49.374-89.296m.001 0h0m-43.711 219.453 38.046-94.61m0 0h0m-34.101 223.515 30.156-97.42m0 0h0m-27.265 225.741 24.374-99.062m.001 0h0M3492.5 208.047l65-78.594m0 0h0m-74.61 195.587 84.22-57.58m0 0h0m-91.758 167.93 99.296-23.28m0 0h0m-100.156 132.03 101.016 14.22m0 0h0m-97.188 99.843 93.36 41.094m0 0h0m-89.14 78.711 84.92 56.484m0 0h0m-81.991 67.031 79.062 64.454m0 0h0m-77.617 61.367 76.172 67.812m0 0h0m-76.172 59.688 76.172 67.812m0 0h0m-77.617 61.367 79.062 64.454m0 0h0m-81.991 67.031 84.92 56.484m0 0h0m-89.14 78.711 93.36 41.094m0 0h0m-97.188 99.843 101.016 14.22m0 0h0m-100.156 132.03 99.296-23.28m0 0h0m-91.758 167.93 84.22-57.58m0 0h0m-74.61 195.587 65-78.594m0 0h0m-57.187 211.445 49.374-89.296m.001 0h0m-43.711 219.453 38.046-94.61m0 0h0m-34.101 223.515 30.156-97.42m0 0h0m-27.265 225.741 24.374-99.062m.001 0h0" transform="matrix(.1 0 0 -.1 0 274)"/><g clip-path="url(#s)"><path style="fill:none;stroke-width:12.5;stroke-linecap:round;stroke-linejoin:round;stroke:red;stroke-opacity:1;stroke-miterlimit:10" d="m501.758 2687.148 33.984-143.164 34.024-114.492 33.984-93.242 33.984-77.07 34.024-64.492 33.984-54.532 34.024-46.484 33.984-39.961 33.984-34.492 34.024-30 33.984-26.172 34.024-22.969 33.984-20.195 33.984-17.813 34.024-15.78 33.984-14.024 34.024-12.461 33.984-11.094 33.984-9.922 34.024-8.828 33.984-7.969 34.024-7.07 33.984-6.406 33.984-5.743 34.024-5.117 33.984-4.648 34.024-4.18 33.984-3.75 33.984-3.398 34.024-3.086 33.984-2.735 34.024-2.5 33.984-2.265 33.984-2.032 34.024-1.835 33.984-1.68 34.024-1.485 33.984-1.367 33.984-1.25 34.024-1.093 33.984-1.016 34.024-.899 33.984-.82 33.984-.781 34.024-.664 33.984-.625 34.024-.547 33.984-.508 33.984-.469 34.024-.39 33.984-.39 34.024-.352 33.984-.274 33.984-.312 34.024-.235 33.984-.234 34.024-.195 33.984-.196 33.984-.156 34.024-.156 33.984-.156 34.024-.118 67.968-.234 34.024-.078 33.984-.078 34.024-.078 67.968-.157 34.024-.039 33.984-.078 34.024-.039 67.968-.078 34.024-.04 33.984-.038h34.024l67.968-.078h34.024l33.984-.04h34.024l33.984-.038h68.008l33.984-.04h101.992l34.024-.039h68.008" transform="matrix(.1 0 0 -.1 0 274)"/></g><g clip-path="url(#t)"><path style="fill:none;stroke-width:12.5;stroke-linecap:round;stroke-linejoin:round;stroke:red;stroke-opacity:1;stroke-miterlimit:10" d="m176.992 846.563 34.024 25.039L245 897.695l33.984 26.992 34.024 27.852 33.984 28.633 34.024 29.297L415 1040.273l33.984 30.235 34.024 30.469 33.984 30.585 34.024 30.547L585 1192.5l33.984 30.078 34.024 29.57 33.984 29.024 34.024 28.32 33.984 27.5 33.984 26.64 34.024 25.626 33.984 24.61 34.024 23.476L925 1459.727l33.984 21.25 34.024 20.078 33.984 18.945 34.024 17.773 33.984 16.68 33.984 15.625 34.024 14.531 33.984 13.516 34.024 12.578 33.984 11.64 33.984 10.782 34.024 9.96 33.984 9.142 34.024 8.437 33.984 7.774 33.984 7.148 34.024 6.523 33.984 5.977 34.024 5.508 33.984 5 33.984 4.57 34.024 4.219 33.984 3.828 34.024 3.476 33.984 3.165 33.984 2.89 34.024 2.656 33.984 2.383 34.024 2.188 33.984 1.992 33.984 1.797 34.024 1.68 33.984 1.484 34.024 1.367L2115 1737.5l33.984 1.133 34.024 1.015 33.984.938 34.024.82 33.984.782 33.984.664 34.024.625 33.984.585 34.024.508 33.984.47 33.984.429 34.024.39 33.984.352 34.024.312 67.968.547 34.024.235 33.984.234 34.024.195 67.968.313 34.024.156 33.984.156 34.024.118 33.984.078 33.984.117 34.024.078 33.984.078 34.024.078 33.984.078 33.984.04 34.024.078 33.984.039 34.024.039 67.968.078 34.024.039 33.984.039h34.024l67.968.078h34.024l33.984.04h34.024" transform="matrix(.1 0 0 -.1 0 274)"/></g><g clip-path="url(#u)"><path style="fill:none;stroke-width:12.5;stroke-linecap:round;stroke-linejoin:round;stroke:red;stroke-opacity:1;stroke-miterlimit:10" d="m202.5 506.055 33.984.547 34.024.664 33.984.703 34.024.742 33.984.86 33.984.937 34.024 1.055 33.984 1.132 34.024 1.25 33.984 1.407 33.984 1.484 34.024 1.68 33.984 1.836 34.024 2.03 33.984 2.227 33.984 2.461 34.024 2.657 33.984 2.968 34.024 3.203 33.984 3.555 33.984 3.867 34.024 4.258 33.984 4.649 34.024 5.117 33.984 5.547 33.984 6.093 34.024 6.641 33.984 7.227 34.024 7.89 33.984 8.555 33.984 9.297 34.024 10.078 33.984 10.937 34.024 11.797 33.984 12.735 33.984 13.71 34.024 14.727 33.984 15.781 34.024 16.875 33.984 17.97 33.984 19.14 34.024 20.273 33.984 21.446 34.024 22.578 33.984 23.71 33.984 24.766 34.024 25.82 33.984 26.758 34.024 27.657 33.984 28.476 33.984 29.102 34.024 29.687 33.984 30.156 34.024 30.391 67.968 61.172 34.024 30.43 33.984 30.156 34.024 29.726 33.984 29.18 33.984 28.516 34.024 27.734 33.984 26.836 34.024 25.899 33.984 24.843 33.984 23.79 34.024 22.656 33.984 21.562 34.024 20.39 33.984 19.22 33.984 18.085 34.024 16.954 33.984 15.859 34.024 14.805 33.984 13.789 33.984 12.812 34.024 11.875 33.984 11.016 34.024 10.156 33.984 9.336 33.984 8.633 34.024 7.93 33.984 7.265 34.024 6.719 33.984 6.094 33.984 5.625 34.024 5.117 33.984 4.687 34.024 4.297 33.984 3.906 33.984 3.594 34.024 3.242 33.984 2.97 34.024 2.694 33.984 2.461 33.984 2.227 34.024 2.07 33.984 1.836 34.024 1.68 33.984 1.523 33.984 1.407" transform="matrix(.1 0 0 -.1 0 274)"/></g><g clip-path="url(#v)"><path style="fill:none;stroke-width:12.5;stroke-linecap:round;stroke-linejoin:round;stroke:red;stroke-opacity:1;stroke-miterlimit:10" d="M206.25 500.586h68.008l33.984.039 34.024.04 33.984.038h33.984l34.024.04 33.984.038 34.024.04 33.984.077 33.984.04 34.024.039 33.984.078 34.024.078 67.968.156 34.024.078 33.984.117 34.024.118 67.968.234 34.024.156 33.984.195 34.024.157 33.984.195 33.984.234 34.024.235 33.984.273 34.024.313 67.968.703 34.024.39 33.984.43 34.024.508 33.984.508 33.984.625 34.024.625 33.984.742 34.024.781 33.984.86 33.984.976 34.024 1.055 33.984 1.133 34.024 1.289 33.984 1.406 33.984 1.563 34.024 1.718 33.984 1.875 34.024 2.032 33.984 2.265 33.984 2.5 34.024 2.735 33.984 3.007 34.024 3.282 33.984 3.593 33.984 3.985 34.024 4.336 33.984 4.726 34.024 5.196 33.984 5.664 33.984 6.21 34.024 6.758 33.984 7.344 34.024 8.008 33.984 8.71 33.984 9.454 34.024 10.273 33.984 11.094 34.024 11.992 33.984 12.89 33.984 13.946 34.024 14.922 33.984 16.016 34.024 17.07 33.984 18.242 33.984 19.375 34.024 20.508 33.984 21.68 34.024 22.812 33.984 23.907 33.984 25 34.024 26.015 33.984 26.953 34.024 27.813 33.984 28.593 33.984 29.258 34.024 29.805 33.984 30.195 34.024 30.47L3266.25 1130l33.984 30.547 34.024 30.43 33.984 30.039 34.024 29.648 33.984 29.063 33.984 28.359 34.024 27.539 33.984 26.64 34.024 25.704 33.984 24.648 33.984 23.555" transform="matrix(.1 0 0 -.1 0 274)"/></g><g clip-path="url(#w)"><path style="fill:none;stroke-width:12.5;stroke-linecap:round;stroke-linejoin:round;stroke:red;stroke-opacity:1;stroke-miterlimit:10" d="M191.992 500.273H260l33.984-.039h34.024l33.984-.039H430l33.984-.039h34.024l33.984-.039 34.024-.039L600 500.04h33.984l34.024-.078 33.984-.04 34.024-.038 67.968-.078 34.024-.078 33.984-.079 34.024-.078 67.968-.156 34.024-.117 33.984-.078 34.024-.156 33.984-.118 33.984-.156 34.024-.156 33.984-.195 34.024-.157 67.968-.469 34.024-.273 33.984-.312 34.024-.313 33.984-.351 33.984-.391 34.024-.43 33.984-.508 34.024-.507 33.984-.586 33.984-.664 34.024-.704 33.984-.78 34.024-.9 33.984-.937 33.984-1.054 34.024-1.172 33.984-1.328 34.024-1.407 33.984-1.601 33.984-1.758 34.024-1.953 33.984-2.11 34.024-2.382 33.984-2.657 33.984-2.89 34.024-3.242 33.984-3.594 34.024-3.945 33.984-4.415 33.984-4.921 34.024-5.43 33.984-6.055 34.024-6.758 33.984-7.539 33.984-8.398 34.024-9.375 33.984-10.508 34.024-11.797L2640 370.664l33.984-14.922 34.024-16.797 33.984-19.023 34.024-21.602L2810 273.75l33.984-28.086 34.024-32.226 33.984-37.227 34.024-43.164L2980 82.578" transform="matrix(.1 0 0 -.1 0 274)"/></g><g clip-path="url(#x)"><path style="fill:none;stroke-width:12.5;stroke-linecap:round;stroke-linejoin:round;stroke:red;stroke-opacity:1;stroke-miterlimit:10" d="M210 500.39h1666.016l33.984-.038h543.984l34.024-.04h203.984l34.024-.039h101.992l33.984-.039h34.024l33.984-.039h68.008l33.984-.039 34.024-.039H3100l33.984-.039 34.024-.039h33.984l34.024-.078 67.968-.078 34.024-.04 33.984-.038 34.024-.078 67.968-.157 34.024-.078 33.984-.078 34.024-.117 67.968-.235" transform="matrix(.1 0 0 -.1 0 274)"/></g><g clip-path="url(#y)"><path style="fill:none;stroke-width:12.5;stroke-linecap:round;stroke-linejoin:round;stroke:red;stroke-opacity:1;stroke-miterlimit:10" d="M210 1749.61h3433.984" transform="matrix(.1 0 0 -.1 0 274)"/></g></svg>