<svg xmlns="http://www.w3.org/2000/svg" xmlns:xlink="http://www.w3.org/1999/xlink" width="382pt" height="274pt" viewBox="0 0 382 274"><defs><clipPath id="a"><path d="M21 8.5h1v255h-1zm0 0"/></clipPath><clipPath id="b"><path d="M21 263h340v.5H21zm0 0"/></clipPath><clipPath id="c"><path d="M21 8.5h1v255h-1zm0 0"/></clipPath><clipPath id="d"><path d="M105 8.5h2v255h-2zm0 0"/></clipPath><clipPath id="e"><path d="M190 8.5h2v255h-2zm0 0"/></clipPath><clipPath id="f"><path d="M275 8.5h2v255h-2zm0 0"/></clipPath><clipPath id="g"><path d="M360 8.5h1v255h-1zm0 0"/></clipPath><clipPath id="h"><path d="M21 263h340v.5H21zm0 0"/></clipPath><clipPath id="i"><path d="M21 199h340v2H21zm0 0"/></clipPath><clipPath id="j"><path d="M21 135h340v2H21zm0 0"/></clipPath><clipPath id="k"><path d="M21 71h340v2H21zm0 0"/></clipPath><clipPath id="l"><path d="M21 8.5h340V9H21zm0 0"/></clipPath><clipPath id="s"><path d="M21 160h340v3H21zm0 0"/></clipPath><clipPath id="t"><path d="M129 8.5h232V146H129zm0 0"/></clipPath><clipPath id="u"><path d="M21 175h264v88.5H21zm0 0"/></clipPath><symbol overflow="visible" id="m"><path style="stroke:none" d="M2.063-5.313c-.5 0-.938.22-1.22.579C.5-4.266.329-3.563.329-2.578c0 1.797.594 2.75 1.734 2.75 1.126 0 1.735-.953 1.735-2.703 0-1.031-.156-1.719-.516-2.203-.281-.375-.719-.579-1.219-.579zm0 .579c.718 0 1.062.718 1.062 2.14 0 1.516-.344 2.219-1.078 2.219C1.344-.375 1-1.109 1-2.563c0-1.453.344-2.171 1.063-2.171zm0 0"/></symbol><symbol overflow="visible" id="n"><path style="stroke:none" d="M3.563-5.313H.828L.422-2.421h.61c.312-.375.562-.5.984-.5.703 0 1.156.485 1.156 1.281 0 .766-.438 1.235-1.156 1.235-.579 0-.938-.297-1.094-.906H.266c.093.437.156.656.312.843.313.406.844.64 1.453.64 1.063 0 1.813-.78 1.813-1.905 0-1.047-.688-1.766-1.719-1.766-.375 0-.672.094-.984.313l.218-1.485h2.204zm0 0"/></symbol><symbol overflow="visible" id="o"><path style="stroke:none" d="M1.938-3.781V0h.671v-5.313h-.437c-.235.813-.39.922-1.406 1.047v.485zm0 0"/></symbol><symbol overflow="visible" id="p"><path style="stroke:none" d="M3.797-.656H1c.063-.438.313-.703.953-1.094l.75-.406c.75-.406 1.125-.953 1.125-1.594 0-.453-.172-.86-.484-1.14-.328-.298-.719-.423-1.219-.423-.672 0-1.172.235-1.469.688-.187.281-.265.61-.281 1.156h.656c.032-.36.078-.578.157-.75.171-.328.515-.515.921-.515.594 0 1.047.421 1.047.984 0 .422-.25.781-.719 1.063l-.687.39C.64-1.672.312-1.172.25 0h3.547zm0 0"/></symbol><symbol overflow="visible" id="q"><path style="stroke:none" d="M1.438-.781H.655V0h.781zm0 0"/></symbol><symbol overflow="visible" id="r"><path style="stroke:none" d="M3.906-5.313H.344v.641h2.875C1.953-2.859 1.438-1.75 1.03 0h.703c.297-1.703.97-3.172 2.172-4.766zm0 0"/></symbol></defs><path style="stroke:none;fill-rule:nonzero;fill:#fff;fill-opacity:1" d="M21 263.5h340V8.5H21zm0 0"/><g clip-path="url(#a)"><path style="fill:none;stroke-width:6.25;stroke-linecap:round;stroke-linejoin:miter;stroke:#bfbfbf;stroke-opacity:1;stroke-miterlimit:10" d="M210 105v2550" transform="matrix(.1 0 0 -.1 0 274)"/></g><g clip-path="url(#b)"><path style="fill:none;stroke-width:6.25;stroke-linecap:round;stroke-linejoin:miter;stroke:#bfbfbf;stroke-opacity:1;stroke-miterlimit:10" d="M210 105h3400" transform="matrix(.1 0 0 -.1 0 274)"/></g><g clip-path="url(#c)"><path style="fill:none;stroke-width:6.25;stroke-linecap:round;stroke-linejoin:miter;stroke:#bfbfbf;stroke-opacity:1;stroke-dasharray:12.5,18.75;stroke-miterlimit:10" d="M210 105v2550" transform="matrix(.1 0 0 -.1 0 274)"/></g><g clip-path="url(#d)"><path style="fill:none;stroke-width:6.25;stroke-linecap:round;stroke-linejoin:miter;stroke:#bfbfbf;stroke-opacity:1;stroke-dasharray:12.5,18.75;stroke-miterlimit:10" d="M1060 105v2550" transform="matrix(.1 0 0 -.1 0 274)"/></g><g clip-path="url(#e)"><path style="fill:none;stroke-width:6.25;stroke-linecap:round;stroke-linejoin:miter;stroke:#bfbfbf;stroke-opacity:1;stroke-dasharray:12.5,18.75;stroke-miterlimit:10" d="M1910 105v2550" transform="matrix(.1 0 0 -.1 0 274)"/></g><g clip-path="url(#f)"><path style="fill:none;stroke-width:6.25;stroke-linecap:round;stroke-linejoin:miter;stroke:#bfbfbf;stroke-opacity:1;stroke-dasharray:12.5,18.75;stroke-miterlimit:10" d="M2760 105v2550" transform="matrix(.1 0 0 -.1 0 274)"/></g><g clip-path="url(#g)"><path style="fill:none;stroke-width:6.25;stroke-linecap:round;stroke-linejoin:miter;stroke:#bfbfbf;stroke-opacity:1;stroke-dasharray:12.5,18.75;stroke-miterlimit:10" d="M3610 105v2550" transform="matrix(.1 0 0 -.1 0 274)"/></g><g clip-path="url(#h)"><path style="fill:none;stroke-width:6.25;stroke-linecap:round;stroke-linejoin:miter;stroke:#bfbfbf;stroke-opacity:1;stroke-dasharray:12.5,18.75;stroke-miterlimit:10" d="M210 105h3400" transform="matrix(.1 0 0 -.1 0 274)"/></g><g clip-path="url(#i)"><path style="fill:none;stroke-width:6.25;stroke-linecap:round;stroke-linejoin:miter;stroke:#bfbfbf;stroke-opacity:1;stroke-dasharray:12.5,18.75;stroke-miterlimit:10" d="M210 742.5h3400" transform="matrix(.1 0 0 -.1 0 274)"/></g><g clip-path="url(#j)"><path style="fill:none;stroke-width:6.25;stroke-linecap:round;stroke-linejoin:miter;stroke:#bfbfbf;stroke-opacity:1;stroke-dasharray:12.5,18.75;stroke-miterlimit:10" d="M210 1380h3400" transform="matrix(.1 0 0 -.1 0 274)"/></g><g clip-path="url(#k)"><path style="fill:none;stroke-width:6.25;stroke-linecap:round;stroke-linejoin:miter;stroke:#bfbfbf;stroke-opacity:1;stroke-dasharray:12.5,18.75;stroke-miterlimit:10" d="M210 2017.5h3400" transform="matrix(.1 0 0 -.1 0 274)"/></g><g clip-path="url(#l)"><path style="fill:none;stroke-width:6.25;stroke-linecap:round;stroke-linejoin:miter;stroke:#bfbfbf;stroke-opacity:1;stroke-dasharray:12.5,18.75;stroke-miterlimit:10" d="M210 2655h3400" transform="matrix(.1 0 0 -.1 0 274)"/></g><path style="fill:none;stroke-width:12.5;stroke-linecap:square;stroke-linejoin:miter;stroke:#000;stroke-opacity:1;stroke-miterlimit:10" d="M210 105h3400" transform="matrix(.1 0 0 -.1 0 274)"/><path style="fill:none;stroke-width:6.25;stroke-linecap:butt;stroke-linejoin:miter;stroke:#000;stroke-opacity:1;stroke-miterlimit:10" d="M210 105v50m85-50v25m85-25v25m85-25v25m85-25v25m85-25v25m85-25v25m85-25v25m85-25v25m85-25v25m85-25v50m85-50v25m85-25v25m85-25v25m85-25v25m85-25v25m85-25v25m85-25v25m85-25v25m85-25v25m85-25v50m85-50v25m85-25v25m85-25v25m85-25v25m85-25v25m85-25v25m85-25v25m85-25v25m85-25v25m85-25v50m85-50v25m85-25v25m85-25v25m85-25v25m85-25v25m85-25v25m85-25v25m85-25v25m85-25v25m85-25v50" transform="matrix(.1 0 0 -.1 0 274)"/><use xlink:href="#m" x="18.29" y="273.5" style="fill:#000;fill-opacity:1"/><use xlink:href="#n" x="103.29" y="273.5" style="fill:#000;fill-opacity:1"/><g style="fill:#000;fill-opacity:1"><use xlink:href="#o" x="186.829" y="273.5"/><use xlink:href="#m" x="190.999" y="273.5"/></g><g style="fill:#000;fill-opacity:1"><use xlink:href="#o" x="271.829" y="273.5"/><use xlink:href="#n" x="275.999" y="273.5"/></g><g style="fill:#000;fill-opacity:1"><use xlink:href="#p" x="356.829" y="273.5"/><use xlink:href="#m" x="360.999" y="273.5"/></g><path style="fill:none;stroke-width:12.5;stroke-linecap:square;stroke-linejoin:miter;stroke:#000;stroke-opacity:1;stroke-miterlimit:10" d="M210 2655h3400" transform="matrix(.1 0 0 -.1 0 274)"/><path style="fill:none;stroke-width:6.25;stroke-linecap:butt;stroke-linejoin:miter;stroke:#000;stroke-opacity:1;stroke-miterlimit:10" d="M210 2655v-50m85 50v-25m85 25v-25m85 25v-25m85 25v-25m85 25v-25m85 25v-25m85 25v-25m85 25v-25m85 25v-25m85 25v-50m85 50v-25m85 25v-25m85 25v-25m85 25v-25m85 25v-25m85 25v-25m85 25v-25m85 25v-25m85 25v-25m85 25v-50m85 50v-25m85 25v-25m85 25v-25m85 25v-25m85 25v-25m85 25v-25m85 25v-25m85 25v-25m85 25v-25m85 25v-50m85 50v-25m85 25v-25m85 25v-25m85 25v-25m85 25v-25m85 25v-25m85 25v-25m85 25v-25m85 25v-25m85 25v-50" transform="matrix(.1 0 0 -.1 0 274)"/><use xlink:href="#m" x="18.29" y="5.375" style="fill:#000;fill-opacity:1"/><use xlink:href="#n" x="103.29" y="5.375" style="fill:#000;fill-opacity:1"/><g style="fill:#000;fill-opacity:1"><use xlink:href="#o" x="186.829" y="5.375"/><use xlink:href="#m" x="190.999" y="5.375"/></g><g style="fill:#000;fill-opacity:1"><use xlink:href="#o" x="271.829" y="5.375"/><use xlink:href="#n" x="275.999" y="5.375"/></g><g style="fill:#000;fill-opacity:1"><use xlink:href="#p" x="356.829" y="5.375"/><use xlink:href="#m" x="360.999" y="5.375"/></g><path style="fill:none;stroke-width:12.5;stroke-linecap:square;stroke-linejoin:miter;stroke:#000;stroke-opacity:1;stroke-miterlimit:10" d="M210 105v2550" transform="matrix(.1 0 0 -.1 0 274)"/><path style="fill:none;stroke-width:6.25;stroke-linecap:butt;stroke-linejoin:miter;stroke:#000;stroke-opacity:1;stroke-miterlimit:10" d="M210 105h50m-50 63.75h25m-25 63.75h25m-25 63.75h25M210 360h25m-25 63.75h25m-25 63.75h25m-25 63.75h25M210 615h25m-25 63.75h25m-25 63.75h50m-50 63.75h25M210 870h25m-25 63.75h25m-25 63.75h25m-25 63.75h25M210 1125h25m-25 63.75h25m-25 63.75h25m-25 63.75h25M210 1380h50m-50 63.75h25m-25 63.75h25m-25 63.75h25M210 1635h25m-25 63.75h25m-25 63.75h25m-25 63.75h25M210 1890h25m-25 63.75h25m-25 63.75h50m-50 63.75h25M210 2145h25m-25 63.75h25m-25 63.75h25m-25 63.75h25M210 2400h25m-25 63.75h25m-25 63.75h25m-25 63.75h25M210 2655h50" transform="matrix(.1 0 0 -.1 0 274)"/><g style="fill:#000;fill-opacity:1"><use xlink:href="#m" x="3.7" y="267.25"/><use xlink:href="#q" x="7.87" y="267.25"/><use xlink:href="#m" x="9.955" y="267.25"/></g><g style="fill:#000;fill-opacity:1"><use xlink:href="#p" x="3.7" y="202.875"/><use xlink:href="#q" x="7.87" y="202.875"/><use xlink:href="#n" x="9.955" y="202.875"/></g><g style="fill:#000;fill-opacity:1"><use xlink:href="#n" x="3.7" y="139.125"/><use xlink:href="#q" x="7.87" y="139.125"/><use xlink:href="#m" x="9.955" y="139.125"/></g><g style="fill:#000;fill-opacity:1"><use xlink:href="#r" x="3.7" y="75.375"/><use xlink:href="#q" x="7.87" y="75.375"/><use xlink:href="#n" x="9.955" y="75.375"/></g><g style="fill:#000;fill-opacity:1"><use xlink:href="#o" x="-.47" y="11.625"/><use xlink:href="#m" x="3.7" y="11.625"/><use xlink:href="#q" x="7.87" y="11.625"/><use xlink:href="#m" x="9.955" y="11.625"/></g><path style="fill:none;stroke-width:12.5;stroke-linecap:square;stroke-linejoin:miter;stroke:#000;stroke-opacity:1;stroke-miterlimit:10" d="M3610 105v2550" transform="matrix(.1 0 0 -.1 0 274)"/><path style="fill:none;stroke-width:6.25;stroke-linecap:butt;stroke-linejoin:miter;stroke:#000;stroke-opacity:1;stroke-miterlimit:10" d="M3610 105h-50m50 63.75h-25m25 63.75h-25m25 63.75h-25m25 63.75h-25m25 63.75h-25m25 63.75h-25m25 63.75h-25m25 63.75h-25m25 63.75h-25m25 63.75h-50m50 63.75h-25m25 63.75h-25m25 63.75h-25m25 63.75h-25m25 63.75h-25m25 63.75h-25m25 63.75h-25m25 63.75h-25m25 63.75h-25m25 63.75h-50m50 63.75h-25m25 63.75h-25m25 63.75h-25m25 63.75h-25m25 63.75h-25m25 63.75h-25m25 63.75h-25m25 63.75h-25m25 63.75h-25m25 63.75h-50m50 63.75h-25m25 63.75h-25m25 63.75h-25m25 63.75h-25m25 63.75h-25m25 63.75h-25m25 63.75h-25m25 63.75h-25m25 63.75h-25m25 63.75h-50" transform="matrix(.1 0 0 -.1 0 274)"/><g style="fill:#000;fill-opacity:1"><use xlink:href="#m" x="367.25" y="267.25"/><use xlink:href="#q" x="371.42" y="267.25"/><use xlink:href="#m" x="373.505" y="267.25"/></g><g style="fill:#000;fill-opacity:1"><use xlink:href="#p" x="367.25" y="202.875"/><use xlink:href="#q" x="371.42" y="202.875"/><use xlink:href="#n" x="373.505" y="202.875"/></g><g style="fill:#000;fill-opacity:1"><use xlink:href="#n" x="367.25" y="139.125"/><use xlink:href="#q" x="371.42" y="139.125"/><use xlink:href="#m" x="373.505" y="139.125"/></g><g style="fill:#000;fill-opacity:1"><use xlink:href="#r" x="367.25" y="75.375"/><use xlink:href="#q" x="371.42" y="75.375"/><use xlink:href="#n" x="373.505" y="75.375"/></g><g style="fill:#000;fill-opacity:1"><use xlink:href="#o" x="367.25" y="11.625"/><use xlink:href="#m" x="371.42" y="11.625"/><use xlink:href="#q" x="375.59" y="11.625"/><use xlink:href="#m" x="377.675" y="11.625"/></g><path style="fill:none;stroke-width:6.25;stroke-linecap:round;stroke-linejoin:miter;stroke:#00f;stroke-opacity:1;stroke-miterlimit:10" d="m273.164 214.844 43.672-92.188m0 0h0m-49.063 216.719 54.454-86.25m0 0h0M261.29 461.992l67.42-76.484m0 0h0M254.375 582.11l81.25-61.72m0 0h0m-86.953 179.65 92.656-42.58m0 0h0m-95.976 160.43 99.296-23.28m0 0h0M244.18 938.047l101.64-8.594m0 0h0m-101.797 132.266 101.954-.938m0 0h0m-101.954 128.438 101.954-.938m0 0h0M244.18 1320.547l101.64-8.594m0 0h0M245.352 1455.39l99.296-23.28m0 0h0m-95.976 160.43 92.656-42.58m0 0h0m-86.953 179.65 81.25-61.72m0 0h0m-74.335 196.602 67.42-76.484m0 0h0m-60.937 208.867 54.454-86.25m0 0h0m-49.063 216.719 43.672-92.188m0 0h0m-39.492 221.446 35.312-95.704m0 0h0m-32.109 224.258 28.906-97.812m0 0h0m-26.445 225.976 23.984-99.14m0 0h0m-22.07 227.07 20.156-100m0 0h0M443.164 214.844l43.672-92.188m0 0h0m-49.063 216.719 54.454-86.25m0 0h0M431.29 461.992l67.42-76.484m0 0h0M424.375 582.11l81.25-61.72m0 0h0m-86.953 179.65 92.656-42.58m0 0h0m-95.976 160.43 99.296-23.28m0 0h0M414.18 938.047l101.64-8.594m0 0h0m-101.797 132.266 101.954-.938m0 0h0m-101.954 128.438 101.954-.938m0 0h0M414.18 1320.547l101.64-8.594m0 0h0M415.352 1455.39l99.296-23.28m0 0h0m-95.976 160.43 92.656-42.58m0 0h0m-86.953 179.65 81.25-61.72m0 0h0m-74.335 196.602 67.42-76.484m0 0h0m-60.937 208.867 54.454-86.25m0 0h0m-49.063 216.719 43.672-92.188m0 0h0m-39.492 221.446 35.312-95.704m0 0h0m-32.109 224.258 28.906-97.812m0 0h0m-26.445 225.976 23.984-99.14m0 0h0m-22.07 227.07 20.156-100m0 0h0M613.164 214.844l43.672-92.188m0 0h0m-49.063 216.719 54.454-86.25m0 0h0M601.29 461.992l67.42-76.484m0 0h0M594.375 582.11l81.25-61.72m0 0h0m-86.953 179.65 92.656-42.58m0 0h0m-95.976 160.43 99.296-23.28m0 0h0M584.18 938.047l101.64-8.594m0 0h0m-101.836 132.266 102.032-.938m0 0h0m-102.032 128.438 102.032-.938m0 0h0M584.18 1320.547l101.64-8.594m0 0h0M585.352 1455.39l99.296-23.28m0 0h0m-95.976 160.43 92.656-42.58m0 0h0m-86.953 179.65 81.25-61.72m0 0h0m-74.335 196.602 67.42-76.484m0 0h0m-60.937 208.867 54.454-86.25m0 0h0m-49.063 216.719 43.672-92.188m0 0h0m-39.492 221.446 35.312-95.704m0 0h0m-32.109 224.258 28.906-97.812m0 0h0m-26.445 225.976 23.984-99.14m0 0h0m-22.07 227.07 20.156-100m0 0h0M783.164 214.844l43.672-92.188m0 0h0m-49.063 216.719 54.454-86.25m0 0h0M771.29 461.992l67.42-76.484m0 0h0M764.375 582.11l81.25-61.72m0 0h0m-86.953 179.65 92.656-42.58m0 0h0m-95.976 160.43 99.296-23.28m0 0h0M754.18 938.047l101.64-8.594m0 0h0m-101.836 132.266 102.032-.938m0 0h0m-102.032 128.438 102.032-.938m0 0h0M754.18 1320.547l101.64-8.594m0 0h0M755.352 1455.39l99.296-23.28m0 0h0m-95.976 160.43 92.656-42.58m0 0h0m-86.953 179.65 81.25-61.72m0 0h0m-74.335 196.602 67.42-76.484m0 0h0m-60.937 208.867 54.454-86.25m0 0h0m-49.063 216.719 43.672-92.188m0 0h0m-39.492 221.446 35.312-95.704m0 0h0m-32.109 224.258 28.906-97.812m0 0h0m-26.445 225.976 23.984-99.14m0 0h0m-22.07 227.07 20.156-100m0 0h0M953.164 214.844l43.672-92.188m0 0h0m-49.063 216.719 54.454-86.25m0 0h0M941.29 461.992l67.42-76.484m0 0h0M934.375 582.11l81.25-61.72m0 0h0m-86.953 179.65 92.656-42.58m0 0h0m-95.976 160.43 99.296-23.28m0 0h0M924.18 938.047l101.64-8.594m0 0h0m-101.836 132.266 102.032-.938m0 0h0m-102.032 128.438 102.032-.938m0 0h0M924.18 1320.547l101.64-8.594m0 0h0M925.352 1455.39l99.296-23.28m0 0h0m-95.976 160.43 92.656-42.58m0 0h0m-86.953 179.65 81.25-61.72m0 0h0m-74.335 196.602 67.42-76.484m0 0h0m-60.937 208.867 54.454-86.25m0 0h0m-49.063 216.719 43.672-92.188m0 0h0m-39.492 221.446 35.312-95.704m0 0h0m-32.109 224.258 28.906-97.812m0 0h0m-26.445 225.976 23.984-99.14m0 0h0m-22.07 227.07 20.156-100m0 0h0m138.086-2326.406 43.672-92.188m0 0h0m-49.063 216.719 54.454-86.25m0 0h0m-60.937 208.867 67.42-76.484m0 0h0m-74.335 196.602 81.25-61.72m0 0h0m-86.953 179.65 92.656-42.58m0 0h0m-95.976 160.43 99.296-23.28m0 0h0M1094.18 938.047l101.64-8.594m0 0h0m-101.836 132.266 102.032-.938m0 0h0m-102.032 128.438 102.032-.938m0 0h0m-101.836 132.266 101.64-8.594m0 0h0m-100.468 143.437 99.296-23.28m0 0h0m-95.976 160.43 92.656-42.58m0 0h0m-86.953 179.65 81.25-61.72m0 0h0m-74.335 196.602 67.42-76.484m0 0h0m-60.937 208.867 54.454-86.25m0 0h0m-49.063 216.719 43.672-92.188m0 0h0m-39.492 221.446 35.312-95.704m0 0h0m-32.109 224.258 28.906-97.812m0 0h0m-26.445 225.976 23.984-99.14m0 0h0m-22.07 227.07 20.156-100m0 0h0m138.086-2326.406 43.672-92.188m0 0h0m-49.063 216.719 54.454-86.25m0 0h0m-60.937 208.867 67.42-76.484m0 0h0m-74.335 196.602 81.25-61.72m0 0h0m-86.953 179.65 92.656-42.58m0 0h0m-95.976 160.43 99.296-23.28m0 0h0M1264.18 938.047l101.64-8.594m0 0h0m-101.836 132.266 102.032-.938m0 0h0m-102.032 128.438 102.032-.938m0 0h0m-101.836 132.266 101.64-8.594m0 0h0m-100.468 143.437 99.296-23.28m0 0h0m-95.976 160.43 92.656-42.58m0 0h0m-86.953 179.65 81.25-61.72m0 0h0m-74.335 196.602 67.42-76.484m0 0h0m-60.937 208.867 54.454-86.25m0 0h0m-49.063 216.719 43.672-92.188m0 0h0m-39.492 221.446 35.312-95.704m0 0h0m-32.109 224.258 28.906-97.812m0 0h0m-26.445 225.976 23.984-99.14m0 0h0m-22.07 227.07 20.156-100m0 0h0m138.086-2326.406 43.672-92.188m0 0h0m-49.063 216.719 54.454-86.25m0 0h0m-60.937 208.867 67.42-76.484m0 0h0m-74.335 196.602 81.25-61.72m0 0h0m-86.953 179.65 92.656-42.58m0 0h0m-95.976 160.43 99.296-23.28m0 0h0M1434.18 938.047l101.64-8.594m0 0h0m-101.836 132.266 102.032-.938m0 0h0m-102.032 128.438 102.032-.938m0 0h0m-101.836 132.266 101.64-8.594m0 0h0m-100.468 143.437 99.296-23.28m0 0h0m-95.976 160.43 92.656-42.58m0 0h0m-86.953 179.65 81.25-61.72m0 0h0m-74.335 196.602 67.42-76.484m0 0h0m-60.937 208.867 54.454-86.25m0 0h0m-49.063 216.719 43.672-92.188m0 0h0m-39.492 221.446 35.312-95.704m0 0h0m-32.109 224.258 28.906-97.812m0 0h0m-26.445 225.976 23.984-99.14m0 0h0m-22.07 227.07 20.156-100m0 0h0m138.086-2326.406 43.672-92.188m0 0h0m-49.063 216.719 54.454-86.25m0 0h0m-60.937 208.867 67.42-76.484m0 0h0m-74.335 196.602 81.25-61.72m0 0h0m-86.953 179.65 92.656-42.58m0 0h0m-95.976 160.43 99.296-23.28m0 0h0M1604.18 938.047l101.64-8.594m0 0h0m-101.836 132.266 102.032-.938m0 0h0m-102.032 128.438 102.032-.938m0 0h0m-101.836 132.266 101.64-8.594m0 0h0m-100.468 143.437 99.296-23.28m0 0h0m-95.976 160.43 92.656-42.58m0 0h0m-86.953 179.65 81.25-61.72m0 0h0m-74.335 196.602 67.42-76.484m0 0h0m-60.937 208.867 54.454-86.25m0 0h0m-49.063 216.719 43.672-92.188m0 0h0m-39.492 221.446 35.312-95.704m0 0h0m-32.109 224.258 28.906-97.812m0 0h0m-26.445 225.976 23.984-99.14m0 0h0m-22.07 227.07 20.156-100m0 0h0m138.086-2326.406 43.672-92.188m0 0h0m-49.063 216.719 54.454-86.25m0 0h0m-60.937 208.867 67.42-76.484m0 0h0m-74.335 196.602 81.25-61.72m0 0h0m-86.953 179.65 92.656-42.58m0 0h0m-95.976 160.43 99.296-23.28m0 0h0M1774.18 938.047l101.64-8.594m0 0h0m-101.836 132.266 102.032-.938m0 0h0m-102.032 128.438 102.032-.938m0 0h0m-101.836 132.266 101.64-8.594m0 0h0m-100.468 143.437 99.296-23.28m0 0h0m-95.976 160.43 92.656-42.58m0 0h0m-86.953 179.65 81.25-61.72m0 0h0m-74.335 196.602 67.42-76.484m0 0h0m-60.937 208.867 54.454-86.25m0 0h0m-49.063 216.719 43.672-92.188m0 0h0m-39.492 221.446 35.312-95.704m0 0h0m-32.109 224.258 28.906-97.812m0 0h0m-26.445 225.976 23.984-99.14m0 0h0m-22.07 227.07 20.156-100m0 0h0m138.086-2326.406 43.672-92.188m0 0h0m-49.063 216.719 54.454-86.25m0 0h0m-60.937 208.867 67.42-76.484m0 0h0m-74.335 196.602 81.25-61.72m0 0h0m-86.953 179.65 92.656-42.58m0 0h0m-95.976 160.43 99.296-23.28m0 0h0M1944.18 938.047l101.64-8.594m0 0h0m-101.836 132.266 102.032-.938m0 0h0m-102.032 128.438 102.032-.938m0 0h0m-101.836 132.266 101.64-8.594m0 0h0m-100.468 143.437 99.296-23.28m0 0h0m-95.976 160.43 92.656-42.58m0 0h0m-86.953 179.65 81.25-61.72m0 0h0m-74.335 196.602 67.42-76.484m0 0h0m-60.937 208.867 54.454-86.25m0 0h0m-49.063 216.719 43.672-92.188m0 0h0m-39.492 221.446 35.312-95.704m0 0h0m-32.109 224.258 28.906-97.812m0 0h0m-26.445 225.976 23.984-99.14m0 0h0m-22.07 227.07 20.156-100m0 0h0m138.086-2326.406 43.672-92.188m0 0h0m-49.063 216.719 54.454-86.25m0 0h0m-60.937 208.867 67.42-76.484m0 0h0m-74.335 196.602 81.25-61.72m0 0h0m-86.953 179.65 92.656-42.58m0 0h0m-95.976 160.43 99.296-23.28m0 0h0M2114.18 938.047l101.64-8.594m0 0h0m-101.836 132.266 102.032-.938m0 0h0m-102.032 128.438 102.032-.938m0 0h0m-101.836 132.266 101.64-8.594m0 0h0m-100.468 143.437 99.296-23.28m0 0h0m-95.976 160.43 92.656-42.58m0 0h0m-86.953 179.65 81.25-61.72m0 0h0m-74.335 196.602 67.42-76.484m0 0h0m-60.937 208.867 54.454-86.25m0 0h0m-49.063 216.719 43.672-92.188m0 0h0m-39.492 221.446 35.312-95.704m0 0h0m-32.109 224.258 28.906-97.812m0 0h0m-26.445 225.976 23.984-99.14m0 0h0m-22.07 227.07 20.156-100m0 0h0m138.086-2326.406 43.672-92.188m0 0h0m-49.063 216.719 54.454-86.25m0 0h0m-60.937 208.867 67.42-76.484m0 0h0m-74.335 196.602 81.25-61.72m0 0h0m-86.953 179.65 92.656-42.58m0 0h0m-95.976 160.43 99.296-23.28m0 0h0M2284.18 938.047l101.64-8.594m0 0h0m-101.836 132.266 102.032-.938m0 0h0m-102.032 128.438 102.032-.938m0 0h0m-101.836 132.266 101.64-8.594m0 0h0m-100.468 143.437 99.296-23.28m0 0h0m-95.976 160.43 92.656-42.58m0 0h0m-86.953 179.65 81.25-61.72m0 0h0m-74.335 196.602 67.42-76.484m0 0h0m-60.937 208.867 54.454-86.25m0 0h0m-49.063 216.719 43.672-92.188m0 0h0m-39.492 221.446 35.312-95.704m0 0h0m-32.109 224.258 28.906-97.812m0 0h0m-26.445 225.976 23.984-99.14m0 0h0m-22.07 227.07 20.156-100m0 0h0m138.086-2326.406 43.672-92.188m0 0h0m-49.063 216.719 54.454-86.25m0 0h0m-60.937 208.867 67.42-76.484m0 0h0m-74.335 196.602 81.25-61.72m0 0h0m-86.953 179.65 92.656-42.58m0 0h0m-95.976 160.43 99.296-23.28m0 0h0M2454.18 938.047l101.64-8.594m0 0h0m-101.836 132.266 102.032-.938m0 0h0m-102.032 128.438 102.032-.938m0 0h0m-101.836 132.266 101.64-8.594m0 0h0m-100.468 143.437 99.296-23.28m0 0h0m-95.976 160.43 92.656-42.58m0 0h0m-86.953 179.65 81.25-61.72m0 0h0m-74.335 196.602 67.42-76.484m0 0h0m-60.937 208.867 54.454-86.25m0 0h0m-49.063 216.719 43.672-92.188m0 0h0m-39.492 221.446 35.312-95.704m0 0h0m-32.109 224.258 28.906-97.812m0 0h0m-26.445 225.976 23.984-99.14m0 0h0m-22.07 227.07 20.156-100m0 0h0m138.086-2326.406 43.672-92.188m0 0h0m-49.063 216.719 54.454-86.25m0 0h0m-60.937 208.867 67.42-76.484m0 0h0m-74.335 196.602 81.25-61.72m0 0h0m-86.953 179.65 92.656-42.58m0 0h0m-95.976 160.43 99.296-23.28m0 0h0M2624.18 938.047l101.64-8.594m0 0h0m-101.836 132.266 102.032-.938m0 0h0m-102.032 128.438 102.032-.938m0 0h0m-101.836 132.266 101.64-8.594m0 0h0m-100.468 143.437 99.296-23.28m0 0h0m-95.976 160.43 92.656-42.58m0 0h0m-86.953 179.65 81.25-61.72m0 0h0m-74.335 196.602 67.42-76.484m0 0h0m-60.937 208.867 54.454-86.25m0 0h0m-49.063 216.719 43.672-92.188m0 0h0m-39.492 221.446 35.312-95.704m0 0h0m-32.109 224.258 28.906-97.812m0 0h0m-26.445 225.976 23.984-99.14m0 0h0m-22.07 227.07 20.156-100m0 0h0m138.086-2326.406 43.672-92.188m0 0h0m-49.063 216.719 54.454-86.25m0 0h0m-60.937 208.867 67.42-76.484m0 0h0m-74.335 196.602 81.25-61.72m0 0h0m-86.953 179.65 92.656-42.58m0 0h0m-95.976 160.43 99.296-23.28m0 0h0M2794.18 938.047l101.64-8.594m0 0h0m-101.836 132.266 102.032-.938m0 0h0m-102.032 128.438 102.032-.938m0 0h0m-101.836 132.266 101.64-8.594m0 0h0m-100.468 143.437 99.296-23.28m0 0h0m-95.976 160.43 92.656-42.58m0 0h0m-86.953 179.65 81.25-61.72m0 0h0m-74.335 196.602 67.42-76.484m0 0h0m-60.937 208.867 54.454-86.25m0 0h0m-49.063 216.719 43.672-92.188m0 0h0m-39.492 221.446 35.312-95.704m0 0h0m-32.109 224.258 28.906-97.812m0 0h0m-26.445 225.976 23.984-99.14m0 0h0m-22.07 227.07 20.156-100m0 0h0m138.086-2326.406 43.672-92.188m0 0h0m-49.063 216.719 54.454-86.25m0 0h0m-60.937 208.867 67.42-76.484m0 0h0m-74.335 196.602 81.25-61.72m0 0h0m-86.953 179.65 92.656-42.58m0 0h0m-95.976 160.43 99.296-23.28m0 0h0M2964.18 938.047l101.64-8.594m0 0h0m-101.836 132.266 102.032-.938m0 0h0m-102.032 128.438 102.032-.938m0 0h0m-101.836 132.266 101.64-8.594m0 0h0m-100.468 143.437 99.296-23.28m0 0h0m-95.976 160.43 92.656-42.58m0 0h0m-86.953 179.65 81.25-61.72m0 0h0m-74.335 196.602 67.42-76.484m0 0h0m-60.937 208.867 54.454-86.25m0 0h0m-49.063 216.719 43.672-92.188m0 0h0m-39.492 221.446 35.312-95.704m0 0h0m-32.109 224.258 28.906-97.812m0 0h0m-26.445 225.976 23.984-99.14m0 0h0m-22.07 227.07 20.156-100m0 0h0m138.086-2326.406 43.672-92.188m0 0h0m-49.063 216.719 54.454-86.25m0 0h0m-60.937 208.867 67.42-76.484m0 0h0m-74.335 196.602 81.25-61.72m0 0h0m-86.953 179.65 92.656-42.58m0 0h0m-95.976 160.43 99.296-23.28m0 0h0M3134.18 938.047l101.64-8.594m0 0h0m-101.836 132.266 102.032-.938m0 0h0m-102.032 128.438 102.032-.938m0 0h0m-101.836 132.266 101.64-8.594m0 0h0m-100.468 143.437 99.296-23.28m0 0h0m-95.976 160.43 92.656-42.58m0 0h0m-86.953 179.65 81.25-61.72m0 0h0m-74.335 196.602 67.42-76.484m0 0h0m-60.937 208.867 54.454-86.25m0 0h0m-49.063 216.719 43.672-92.188m0 0h0m-39.492 221.446 35.312-95.704m0 0h0m-32.109 224.258 28.906-97.812m0 0h0m-26.445 225.976 23.984-99.14m0 0h0m-22.07 227.07 20.156-100m0 0h0m138.086-2326.406 43.672-92.188m0 0h0m-49.063 216.719 54.454-86.25m0 0h0m-60.937 208.867 67.42-76.484m0 0h0m-74.335 196.602 81.25-61.72m0 0h0m-86.953 179.65 92.656-42.58m0 0h0m-95.976 160.43 99.296-23.28m0 0h0M3304.18 938.047l101.64-8.594m0 0h0m-101.836 132.266 102.032-.938m0 0h0m-102.032 128.438 102.032-.938m0 0h0m-101.836 132.266 101.64-8.594m0 0h0m-100.468 143.437 99.296-23.28m0 0h0m-95.976 160.43 92.656-42.58m0 0h0m-86.953 179.65 81.25-61.72m0 0h0m-74.335 196.602 67.42-76.484m0 0h0m-60.937 208.867 54.454-86.25m0 0h0m-49.063 216.719 43.672-92.188m0 0h0m-39.492 221.446 35.312-95.704m0 0h0m-32.109 224.258 28.906-97.812m0 0h0m-26.445 225.976 23.984-99.14m0 0h0m-22.07 227.07 20.156-100m0 0h0m138.086-2326.406 43.672-92.188m0 0h0m-49.063 216.719 54.454-86.25m0 0h0m-60.937 208.867 67.42-76.484m0 0h0m-74.335 196.602 81.25-61.72m0 0h0m-86.953 179.65 92.656-42.58m0 0h0m-95.976 160.43 99.296-23.28m0 0h0M3474.18 938.047l101.64-8.594m0 0h0m-101.836 132.266 102.032-.938m0 0h0m-102.032 128.438 102.032-.938m0 0h0m-101.836 132.266 101.64-8.594m0 0h0m-100.468 143.437 99.296-23.28m0 0h0m-95.976 160.43 92.656-42.58m0 0h0m-86.953 179.65 81.25-61.72m0 0h0m-74.335 196.602 67.42-76.484m0 0h0m-60.937 208.867 54.454-86.25m0 0h0m-49.063 216.719 43.672-92.188m0 0h0m-39.492 221.446 35.312-95.704m0 0h0m-32.109 224.258 28.906-97.812m0 0h0m-26.445 225.976 23.984-99.14m0 0h0m-22.07 227.07 20.156-100m0 0h0" transform="matrix(.1 0 0 -.1 0 274)"/><g clip-path="url(#s)"><path style="fill:none;stroke-width:12.5;stroke-linecap:round;stroke-linejoin:round;stroke:red;stroke-opacity:1;stroke-miterlimit:10" d="M210 1125h3433.984" transform="matrix(.1 0 0 -.1 0 274)"/></g><g clip-path="url(#t)"><path style="fill:none;stroke-width:12.5;stroke-linecap:round;stroke-linejoin:round;stroke:red;stroke-opacity:1;stroke-miterlimit:10" d="M1306.016 2759.102 1340 2573.477l33.984-147.774 34.024-120.43 33.984-100 34.024-84.375L1510 2048.75l33.984-62.422 34.024-54.492 33.984-48.008 34.024-42.617 33.984-38.086 33.984-34.258 34.024-30.976 33.984-28.086 34.024-25.664 33.984-23.477 33.984-21.601 34.024-19.922 33.984-18.438 34.024-17.11 33.984-15.937 33.984-14.843 34.024-13.868 33.984-13.047 34.024-12.187 33.984-11.524 33.984-10.82 34.024-10.234 33.984-9.688 34.024-9.18 33.984-8.671 33.984-8.282 34.024-7.851 33.984-7.461 34.024-7.11 33.984-6.796 33.984-6.524 34.024-6.21 33.984-5.938 34.024-5.703 33.984-5.469 33.984-5.234 34.024-5.04 33.984-4.843 34.024-4.649 33.984-4.492 33.984-4.336 34.024-4.18 33.984-4.023 34.024-3.867 33.984-3.75 33.984-3.633 34.024-3.515 33.984-3.399 34.024-3.281 33.984-3.164 33.984-3.086 34.024-3.008 33.984-2.89 34.024-2.813 33.984-2.735 33.984-2.656 34.024-2.578 33.984-2.5 34.024-2.46 33.984-2.345 33.984-2.304 34.024-2.266" transform="matrix(.1 0 0 -.1 0 274)"/></g><g clip-path="url(#u)"><path style="fill:none;stroke-width:12.5;stroke-linecap:round;stroke-linejoin:round;stroke:red;stroke-opacity:1;stroke-miterlimit:10" d="m191.25 983.633 33.984-1.563 34.024-1.64 33.984-1.64 34.024-1.72 33.984-1.718 33.984-1.797 34.024-1.797 33.984-1.875 34.024-1.914 33.984-1.953 33.984-1.993 34.024-2.07 33.984-2.11 34.024-2.148 33.984-2.226 33.984-2.305 34.024-2.344 33.984-2.422 34.024-2.46 33.984-2.54 33.984-2.656 34.024-2.695 33.984-2.774 34.024-2.851 33.984-2.969 33.984-3.047 34.024-3.125 33.984-3.242 34.024-3.36 33.984-3.476 33.984-3.555 34.024-3.71 33.984-3.829 34.024-3.984 33.984-4.102 33.984-4.257 34.024-4.414 33.984-4.61 34.024-4.765 33.984-4.961 33.984-5.157 34.024-5.39 33.984-5.586 34.024-5.86 33.984-6.093 33.984-6.367 34.024-6.68 33.984-6.992 34.024-7.344 33.984-7.695 33.984-8.086 34.024-8.516 33.984-8.984 34.024-9.453 33.984-10 33.984-10.625 34.024-11.211 33.984-11.914 34.024-12.696 33.984-13.554 33.984-14.454 34.024-15.468 33.984-16.602 34.024-17.89 33.984-19.337 33.984-20.898 34.024-22.695 33.984-24.766 34.024-27.07 33.984-29.766 33.984-32.89 34.024-36.485 33.984-40.703 34.024-45.781 33.984-51.758 33.984-59.063 34.024-68.007L2843.242 80" transform="matrix(.1 0 0 -.1 0 274)"/></g></svg>