<svg xmlns="http://www.w3.org/2000/svg" xmlns:xlink="http://www.w3.org/1999/xlink" width="382pt" height="274pt" viewBox="0 0 382 274"><defs><clipPath id="a"><path d="M21 8.5h1v255h-1zm0 0"/></clipPath><clipPath id="b"><path d="M21 178h340v1H21zm0 0"/></clipPath><clipPath id="c"><path d="M21 8.5h1v255h-1zm0 0"/></clipPath><clipPath id="d"><path d="M105 8.5h2v255h-2zm0 0"/></clipPath><clipPath id="e"><path d="M190 8.5h2v255h-2zm0 0"/></clipPath><clipPath id="f"><path d="M275 8.5h2v255h-2zm0 0"/></clipPath><clipPath id="g"><path d="M360 8.5h1v255h-1zm0 0"/></clipPath><clipPath id="h"><path d="M21 263h340v.5H21zm0 0"/></clipPath><clipPath id="i"><path d="M21 220h340v2H21zm0 0"/></clipPath><clipPath id="j"><path d="M21 178h340v1H21zm0 0"/></clipPath><clipPath id="k"><path d="M21 135h340v2H21zm0 0"/></clipPath><clipPath id="l"><path d="M21 93h340v1H21zm0 0"/></clipPath><clipPath id="m"><path d="M21 50h340v2H21zm0 0"/></clipPath><clipPath id="n"><path d="M21 8.5h340V9H21zm0 0"/></clipPath><clipPath id="v"><path d="M21 8.5h340V95H21zm0 0"/></clipPath><clipPath id="w"><path d="M21 92h340v3H21zm0 0"/></clipPath><clipPath id="x"><path d="M21 177h340v3H21zm0 0"/></clipPath><clipPath id="y"><path d="M21 107h340v73H21zm0 0"/></clipPath><clipPath id="z"><path d="M21 177h270v86.5H21zm0 0"/></clipPath><clipPath id="A"><path d="M21 178h192v85.5H21zm0 0"/></clipPath><clipPath id="B"><path d="M21 94h340v85H21zm0 0"/></clipPath><clipPath id="C"><path d="M21 92h340v81H21zm0 0"/></clipPath><clipPath id="D"><path d="M21 182h79v81.5H21zm0 0"/></clipPath><symbol overflow="visible" id="o"><path style="stroke:none" d="M2.063-5.313c-.5 0-.938.22-1.22.579C.5-4.266.329-3.563.329-2.578c0 1.797.594 2.75 1.734 2.75 1.126 0 1.735-.953 1.735-2.703 0-1.031-.156-1.719-.516-2.203-.281-.375-.719-.579-1.219-.579zm0 .579c.718 0 1.062.718 1.062 2.14 0 1.516-.344 2.219-1.078 2.219C1.344-.375 1-1.109 1-2.563c0-1.453.344-2.171 1.063-2.171zm0 0"/></symbol><symbol overflow="visible" id="p"><path style="stroke:none" d="M3.563-5.313H.828L.422-2.421h.61c.312-.375.562-.5.984-.5.703 0 1.156.485 1.156 1.281 0 .766-.438 1.235-1.156 1.235-.579 0-.938-.297-1.094-.906H.266c.093.437.156.656.312.843.313.406.844.64 1.453.64 1.063 0 1.813-.78 1.813-1.905 0-1.047-.688-1.766-1.719-1.766-.375 0-.672.094-.984.313l.218-1.485h2.204zm0 0"/></symbol><symbol overflow="visible" id="q"><path style="stroke:none" d="M1.938-3.781V0h.671v-5.313h-.437c-.235.813-.39.922-1.406 1.047v.485zm0 0"/></symbol><symbol overflow="visible" id="r"><path style="stroke:none" d="M3.797-.656H1c.063-.438.313-.703.953-1.094l.75-.406c.75-.406 1.125-.953 1.125-1.594 0-.453-.172-.86-.484-1.14-.328-.298-.719-.423-1.219-.423-.672 0-1.172.235-1.469.688-.187.281-.265.61-.281 1.156h.656c.032-.36.078-.578.157-.75.171-.328.515-.515.921-.515.594 0 1.047.421 1.047.984 0 .422-.25.781-.719 1.063l-.687.39C.64-1.672.312-1.172.25 0h3.547zm0 0"/></symbol><symbol overflow="visible" id="s"><path style="stroke:none" d="M2.125-2.344H.344v.547h1.781zm0 0"/></symbol><symbol overflow="visible" id="t"><path style="stroke:none" d="M1.438-.781H.655V0h.781zm0 0"/></symbol><symbol overflow="visible" id="u"><path style="stroke:none" d="M3.906-5.313H.344v.641h2.875C1.953-2.859 1.438-1.75 1.03 0h.703c.297-1.703.97-3.172 2.172-4.766zm0 0"/></symbol></defs><path style="stroke:none;fill-rule:nonzero;fill:#fff;fill-opacity:1" d="M21 263.5h340V8.5H21zm0 0"/><g clip-path="url(#a)"><path style="fill:none;stroke-width:6.25;stroke-linecap:round;stroke-linejoin:miter;stroke:#bfbfbf;stroke-opacity:1;stroke-miterlimit:10" d="M210 105v2550" transform="matrix(.1 0 0 -.1 0 274)"/></g><g clip-path="url(#b)"><path style="fill:none;stroke-width:6.25;stroke-linecap:round;stroke-linejoin:miter;stroke:#bfbfbf;stroke-opacity:1;stroke-miterlimit:10" d="M210 955h3400" transform="matrix(.1 0 0 -.1 0 274)"/></g><g clip-path="url(#c)"><path style="fill:none;stroke-width:6.25;stroke-linecap:round;stroke-linejoin:miter;stroke:#bfbfbf;stroke-opacity:1;stroke-dasharray:12.5,18.75;stroke-miterlimit:10" d="M210 105v2550" transform="matrix(.1 0 0 -.1 0 274)"/></g><g clip-path="url(#d)"><path style="fill:none;stroke-width:6.25;stroke-linecap:round;stroke-linejoin:miter;stroke:#bfbfbf;stroke-opacity:1;stroke-dasharray:12.5,18.75;stroke-miterlimit:10" d="M1060 105v2550" transform="matrix(.1 0 0 -.1 0 274)"/></g><g clip-path="url(#e)"><path style="fill:none;stroke-width:6.25;stroke-linecap:round;stroke-linejoin:miter;stroke:#bfbfbf;stroke-opacity:1;stroke-dasharray:12.5,18.75;stroke-miterlimit:10" d="M1910 105v2550" transform="matrix(.1 0 0 -.1 0 274)"/></g><g clip-path="url(#f)"><path style="fill:none;stroke-width:6.25;stroke-linecap:round;stroke-linejoin:miter;stroke:#bfbfbf;stroke-opacity:1;stroke-dasharray:12.5,18.75;stroke-miterlimit:10" d="M2760 105v2550" transform="matrix(.1 0 0 -.1 0 274)"/></g><g clip-path="url(#g)"><path style="fill:none;stroke-width:6.25;stroke-linecap:round;stroke-linejoin:miter;stroke:#bfbfbf;stroke-opacity:1;stroke-dasharray:12.5,18.75;stroke-miterlimit:10" d="M3610 105v2550" transform="matrix(.1 0 0 -.1 0 274)"/></g><g clip-path="url(#h)"><path style="fill:none;stroke-width:6.25;stroke-linecap:round;stroke-linejoin:miter;stroke:#bfbfbf;stroke-opacity:1;stroke-dasharray:12.5,18.75;stroke-miterlimit:10" d="M210 105h3400" transform="matrix(.1 0 0 -.1 0 274)"/></g><g clip-path="url(#i)"><path style="fill:none;stroke-width:6.25;stroke-linecap:round;stroke-linejoin:miter;stroke:#bfbfbf;stroke-opacity:1;stroke-dasharray:12.5,18.75;stroke-miterlimit:10" d="M210 530h3400" transform="matrix(.1 0 0 -.1 0 274)"/></g><g clip-path="url(#j)"><path style="fill:none;stroke-width:6.25;stroke-linecap:round;stroke-linejoin:miter;stroke:#bfbfbf;stroke-opacity:1;stroke-dasharray:12.5,18.75;stroke-miterlimit:10" d="M210 955h3400" transform="matrix(.1 0 0 -.1 0 274)"/></g><g clip-path="url(#k)"><path style="fill:none;stroke-width:6.25;stroke-linecap:round;stroke-linejoin:miter;stroke:#bfbfbf;stroke-opacity:1;stroke-dasharray:12.5,18.75;stroke-miterlimit:10" d="M210 1380h3400" transform="matrix(.1 0 0 -.1 0 274)"/></g><g clip-path="url(#l)"><path style="fill:none;stroke-width:6.25;stroke-linecap:round;stroke-linejoin:miter;stroke:#bfbfbf;stroke-opacity:1;stroke-dasharray:12.5,18.75;stroke-miterlimit:10" d="M210 1805h3400" transform="matrix(.1 0 0 -.1 0 274)"/></g><g clip-path="url(#m)"><path style="fill:none;stroke-width:6.25;stroke-linecap:round;stroke-linejoin:miter;stroke:#bfbfbf;stroke-opacity:1;stroke-dasharray:12.5,18.75;stroke-miterlimit:10" d="M210 2230h3400" transform="matrix(.1 0 0 -.1 0 274)"/></g><g clip-path="url(#n)"><path style="fill:none;stroke-width:6.25;stroke-linecap:round;stroke-linejoin:miter;stroke:#bfbfbf;stroke-opacity:1;stroke-dasharray:12.5,18.75;stroke-miterlimit:10" d="M210 2655h3400" transform="matrix(.1 0 0 -.1 0 274)"/></g><path style="fill:none;stroke-width:12.5;stroke-linecap:square;stroke-linejoin:miter;stroke:#000;stroke-opacity:1;stroke-miterlimit:10" d="M210 105h3400" transform="matrix(.1 0 0 -.1 0 274)"/><path style="fill:none;stroke-width:6.25;stroke-linecap:butt;stroke-linejoin:miter;stroke:#000;stroke-opacity:1;stroke-miterlimit:10" d="M210 105v50m85-50v25m85-25v25m85-25v25m85-25v25m85-25v25m85-25v25m85-25v25m85-25v25m85-25v25m85-25v50m85-50v25m85-25v25m85-25v25m85-25v25m85-25v25m85-25v25m85-25v25m85-25v25m85-25v25m85-25v50m85-50v25m85-25v25m85-25v25m85-25v25m85-25v25m85-25v25m85-25v25m85-25v25m85-25v25m85-25v50m85-50v25m85-25v25m85-25v25m85-25v25m85-25v25m85-25v25m85-25v25m85-25v25m85-25v25m85-25v50" transform="matrix(.1 0 0 -.1 0 274)"/><use xlink:href="#o" x="18.29" y="273.5" style="fill:#000;fill-opacity:1"/><use xlink:href="#p" x="103.29" y="273.5" style="fill:#000;fill-opacity:1"/><g style="fill:#000;fill-opacity:1"><use xlink:href="#q" x="186.829" y="273.5"/><use xlink:href="#o" x="190.999" y="273.5"/></g><g style="fill:#000;fill-opacity:1"><use xlink:href="#q" x="271.829" y="273.5"/><use xlink:href="#p" x="275.999" y="273.5"/></g><g style="fill:#000;fill-opacity:1"><use xlink:href="#r" x="356.829" y="273.5"/><use xlink:href="#o" x="360.999" y="273.5"/></g><path style="fill:none;stroke-width:12.5;stroke-linecap:square;stroke-linejoin:miter;stroke:#000;stroke-opacity:1;stroke-miterlimit:10" d="M210 2655h3400" transform="matrix(.1 0 0 -.1 0 274)"/><path style="fill:none;stroke-width:6.25;stroke-linecap:butt;stroke-linejoin:miter;stroke:#000;stroke-opacity:1;stroke-miterlimit:10" d="M210 2655v-50m85 50v-25m85 25v-25m85 25v-25m85 25v-25m85 25v-25m85 25v-25m85 25v-25m85 25v-25m85 25v-25m85 25v-50m85 50v-25m85 25v-25m85 25v-25m85 25v-25m85 25v-25m85 25v-25m85 25v-25m85 25v-25m85 25v-25m85 25v-50m85 50v-25m85 25v-25m85 25v-25m85 25v-25m85 25v-25m85 25v-25m85 25v-25m85 25v-25m85 25v-25m85 25v-50m85 50v-25m85 25v-25m85 25v-25m85 25v-25m85 25v-25m85 25v-25m85 25v-25m85 25v-25m85 25v-25m85 25v-50" transform="matrix(.1 0 0 -.1 0 274)"/><use xlink:href="#o" x="18.29" y="5.375" style="fill:#000;fill-opacity:1"/><use xlink:href="#p" x="103.29" y="5.375" style="fill:#000;fill-opacity:1"/><g style="fill:#000;fill-opacity:1"><use xlink:href="#q" x="186.829" y="5.375"/><use xlink:href="#o" x="190.999" y="5.375"/></g><g style="fill:#000;fill-opacity:1"><use xlink:href="#q" x="271.829" y="5.375"/><use xlink:href="#p" x="275.999" y="5.375"/></g><g style="fill:#000;fill-opacity:1"><use xlink:href="#r" x="356.829" y="5.375"/><use xlink:href="#o" x="360.999" y="5.375"/></g><path style="fill:none;stroke-width:12.5;stroke-linecap:square;stroke-linejoin:miter;stroke:#000;stroke-opacity:1;stroke-miterlimit:10" d="M210 105v2550" transform="matrix(.1 0 0 -.1 0 274)"/><path style="fill:none;stroke-width:6.25;stroke-linecap:butt;stroke-linejoin:miter;stroke:#000;stroke-opacity:1;stroke-miterlimit:10" d="M210 105h50m-50 42.5h25M210 190h25m-25 42.5h25M210 275h25m-25 42.5h25M210 360h25m-25 42.5h25M210 445h25m-25 42.5h25M210 530h50m-50 42.5h25M210 615h25m-25 42.5h25M210 700h25m-25 42.5h25M210 785h25m-25 42.5h25M210 870h25m-25 42.5h25M210 955h50m-50 42.5h25m-25 42.5h25m-25 42.5h25m-25 42.5h25m-25 42.5h25m-25 42.5h25m-25 42.5h25m-25 42.5h25m-25 42.5h25m-25 42.5h50m-50 42.5h25m-25 42.5h25m-25 42.5h25m-25 42.5h25m-25 42.5h25m-25 42.5h25m-25 42.5h25m-25 42.5h25m-25 42.5h25m-25 42.5h50m-50 42.5h25m-25 42.5h25m-25 42.5h25m-25 42.5h25m-25 42.5h25m-25 42.5h25m-25 42.5h25m-25 42.5h25m-25 42.5h25m-25 42.5h50m-50 42.5h25m-25 42.5h25m-25 42.5h25m-25 42.5h25m-25 42.5h25m-25 42.5h25m-25 42.5h25m-25 42.5h25m-25 42.5h25m-25 42.5h50" transform="matrix(.1 0 0 -.1 0 274)"/><g style="fill:#000;fill-opacity:1"><use xlink:href="#s" x="1.203" y="267.25"/><use xlink:href="#p" x="3.701" y="267.25"/><use xlink:href="#t" x="7.871" y="267.25"/><use xlink:href="#o" x="9.956" y="267.25"/></g><g style="fill:#000;fill-opacity:1"><use xlink:href="#s" x="1.203" y="224.125"/><use xlink:href="#r" x="3.701" y="224.125"/><use xlink:href="#t" x="7.871" y="224.125"/><use xlink:href="#p" x="9.956" y="224.125"/></g><g style="fill:#000;fill-opacity:1"><use xlink:href="#o" x="3.7" y="182.25"/><use xlink:href="#t" x="7.87" y="182.25"/><use xlink:href="#o" x="9.955" y="182.25"/></g><g style="fill:#000;fill-opacity:1"><use xlink:href="#r" x="3.7" y="139.125"/><use xlink:href="#t" x="7.87" y="139.125"/><use xlink:href="#p" x="9.955" y="139.125"/></g><g style="fill:#000;fill-opacity:1"><use xlink:href="#p" x="3.7" y="97.25"/><use xlink:href="#t" x="7.87" y="97.25"/><use xlink:href="#o" x="9.955" y="97.25"/></g><g style="fill:#000;fill-opacity:1"><use xlink:href="#u" x="3.7" y="54.125"/><use xlink:href="#t" x="7.87" y="54.125"/><use xlink:href="#p" x="9.955" y="54.125"/></g><g style="fill:#000;fill-opacity:1"><use xlink:href="#q" x="-.47" y="11.625"/><use xlink:href="#o" x="3.7" y="11.625"/><use xlink:href="#t" x="7.87" y="11.625"/><use xlink:href="#o" x="9.955" y="11.625"/></g><path style="fill:none;stroke-width:12.5;stroke-linecap:square;stroke-linejoin:miter;stroke:#000;stroke-opacity:1;stroke-miterlimit:10" d="M3610 105v2550" transform="matrix(.1 0 0 -.1 0 274)"/><path style="fill:none;stroke-width:6.25;stroke-linecap:butt;stroke-linejoin:miter;stroke:#000;stroke-opacity:1;stroke-miterlimit:10" d="M3610 105h-50m50 42.5h-25m25 42.5h-25m25 42.5h-25m25 42.5h-25m25 42.5h-25m25 42.5h-25m25 42.5h-25m25 42.5h-25m25 42.5h-25m25 42.5h-50m50 42.5h-25m25 42.5h-25m25 42.5h-25m25 42.5h-25m25 42.5h-25m25 42.5h-25m25 42.5h-25m25 42.5h-25m25 42.5h-25m25 42.5h-50m50 42.5h-25m25 42.5h-25m25 42.5h-25m25 42.5h-25m25 42.5h-25m25 42.5h-25m25 42.5h-25m25 42.5h-25m25 42.5h-25m25 42.5h-50m50 42.5h-25m25 42.5h-25m25 42.5h-25m25 42.5h-25m25 42.5h-25m25 42.5h-25m25 42.5h-25m25 42.5h-25m25 42.5h-25m25 42.5h-50m50 42.5h-25m25 42.5h-25m25 42.5h-25m25 42.5h-25m25 42.5h-25m25 42.5h-25m25 42.5h-25m25 42.5h-25m25 42.5h-25m25 42.5h-50m50 42.5h-25m25 42.5h-25m25 42.5h-25m25 42.5h-25m25 42.5h-25m25 42.5h-25m25 42.5h-25m25 42.5h-25m25 42.5h-25m25 42.5h-50" transform="matrix(.1 0 0 -.1 0 274)"/><g style="fill:#000;fill-opacity:1"><use xlink:href="#s" x="367.25" y="267.25"/><use xlink:href="#p" x="369.748" y="267.25"/><use xlink:href="#t" x="373.918" y="267.25"/><use xlink:href="#o" x="376.002" y="267.25"/></g><g style="fill:#000;fill-opacity:1"><use xlink:href="#s" x="367.25" y="224.125"/><use xlink:href="#r" x="369.748" y="224.125"/><use xlink:href="#t" x="373.918" y="224.125"/><use xlink:href="#p" x="376.002" y="224.125"/></g><g style="fill:#000;fill-opacity:1"><use xlink:href="#o" x="367.25" y="182.25"/><use xlink:href="#t" x="371.42" y="182.25"/><use xlink:href="#o" x="373.505" y="182.25"/></g><g style="fill:#000;fill-opacity:1"><use xlink:href="#r" x="367.25" y="139.125"/><use xlink:href="#t" x="371.42" y="139.125"/><use xlink:href="#p" x="373.505" y="139.125"/></g><g style="fill:#000;fill-opacity:1"><use xlink:href="#p" x="367.25" y="97.25"/><use xlink:href="#t" x="371.42" y="97.25"/><use xlink:href="#o" x="373.505" y="97.25"/></g><g style="fill:#000;fill-opacity:1"><use xlink:href="#u" x="367.25" y="54.125"/><use xlink:href="#t" x="371.42" y="54.125"/><use xlink:href="#p" x="373.505" y="54.125"/></g><g style="fill:#000;fill-opacity:1"><use xlink:href="#q" x="367.25" y="11.625"/><use xlink:href="#o" x="371.42" y="11.625"/><use xlink:href="#t" x="375.59" y="11.625"/><use xlink:href="#o" x="377.675" y="11.625"/></g><path style="fill:none;stroke-width:6.25;stroke-linecap:round;stroke-linejoin:miter;stroke:#00f;stroke-opacity:1;stroke-miterlimit:10" d="m283.828 218.516 22.344-99.532m0 0h0m-25.391 226.25 28.438-97.968m0 0h0M276.328 471.21l37.344-94.92m0 0h0m-43.945 219.257 50.546-88.594m0 0h0m-60 209.18 69.454-74.766m0 0h0M249.648 829.57l90.704-46.64m0 0h0m-96.25 154.101 101.796-6.562m0 0h0M245.82 1047.813l98.36 26.874m0 .001h0m-94.844 91.328 91.328 45.468m0 0h0m-89.18 78.164 87.032 53.204m0 0h0m-87.032 74.296 87.032 53.204m0 0h0m-89.18 78.164 91.328 45.468m0 0h0m-94.844 91.329 98.36 26.874m0 .001h0m-100.078 117.304 101.796-6.484m0 0h0m-96.25 154.062 90.704-46.64m0 0h0m-80.079 188.203 69.454-74.766m0 0h0m-60 209.18 50.546-88.594m0 0h0m-43.945 219.257 37.344-94.92m0 0h0m-32.891 223.944 28.438-97.968m0 0h0m-25.391 226.25 22.344-99.532m0 0h0M453.828 218.516l22.344-99.532m0 0h0m-25.391 226.25 28.438-97.968m0 0h0M446.328 471.21l37.344-94.92m0 0h0m-43.945 219.257 50.546-88.594m0 0h0m-60 209.18 69.454-74.766m0 0h0M419.648 829.57l90.704-46.64m0 0h0m-96.25 154.101 101.796-6.562m0 0h0M415.82 1047.813l98.36 26.874m0 .001h0m-94.844 91.328 91.328 45.468m0 0h0m-89.18 78.164 87.032 53.204m0 0h0m-87.032 74.296 87.032 53.204m0 0h0m-89.18 78.164 91.328 45.468m0 0h0m-94.844 91.329 98.36 26.874m0 .001h0m-100.078 117.304 101.796-6.484m0 0h0m-96.25 154.062 90.704-46.64m0 0h0m-80.079 188.203 69.454-74.766m0 0h0m-60 209.18 50.546-88.594m0 0h0m-43.945 219.257 37.344-94.92m0 0h0m-32.891 223.944 28.438-97.968m0 0h0m-25.391 226.25 22.344-99.532m0 0h0M623.828 218.516l22.344-99.532m0 0h0m-25.391 226.25 28.438-97.968m0 0h0M616.328 471.21l37.344-94.92m0 0h0m-43.945 219.257 50.546-88.594m0 0h0m-59.96 209.18 69.375-74.766m0 0h0m-80.04 188.203 90.704-46.64m0 0h0m-96.25 154.101 101.796-6.562m0 0h0M585.82 1047.813l98.36 26.874m0 .001h0m-94.844 91.328 91.328 45.468m0 0h0m-89.18 78.164 87.032 53.204m0 0h0m-87.032 74.296 87.032 53.204m0 0h0m-89.18 78.164 91.328 45.468m0 0h0m-94.844 91.329 98.36 26.874m0 .001h0m-100.078 117.304 101.796-6.484m0 0h0m-96.25 154.062 90.704-46.64m0 0h0m-80.039 188.203 69.375-74.766m0 0h0m-59.961 209.18 50.546-88.594m0 0h0m-43.945 219.257 37.344-94.92m0 0h0m-32.891 223.944 28.438-97.968m0 0h0m-25.391 226.25 22.344-99.532m0 0h0M793.828 218.516l22.344-99.532m0 0h0m-25.391 226.25 28.438-97.968m0 0h0M786.328 471.21l37.344-94.92m0 0h0m-43.945 219.257 50.546-88.594m0 0h0m-59.96 209.18 69.375-74.766m0 0h0m-80.04 188.203 90.704-46.64m0 0h0m-96.25 154.101 101.796-6.562m0 0h0M755.82 1047.813l98.36 26.874m0 .001h0m-94.844 91.328 91.328 45.468m0 0h0m-89.18 78.164 87.032 53.204m0 0h0m-87.032 74.296 87.032 53.204m0 0h0m-89.18 78.164 91.328 45.468m0 0h0m-94.844 91.329 98.36 26.874m0 .001h0m-100.078 117.304 101.796-6.484m0 0h0m-96.25 154.062 90.704-46.64m0 0h0m-80.039 188.203 69.375-74.766m0 0h0m-59.961 209.18 50.546-88.594m0 0h0m-43.945 219.257 37.344-94.92m0 0h0m-32.891 223.944 28.438-97.968m0 0h0m-25.391 226.25 22.344-99.532m0 0h0M963.828 218.516l22.344-99.532m0 0h0m-25.391 226.25 28.438-97.968m0 0h0M956.328 471.21l37.344-94.92m0 0h0m-43.945 219.257 50.546-88.594m0 0h0m-59.96 209.18 69.414-74.766m0 0h0M929.648 829.57l90.704-46.64m0 0h0m-96.25 154.101 101.796-6.562m0 0h0M925.82 1047.813l98.399 26.874m0 .001h0m-94.883 91.328 91.289 45.468m0 0h0m-89.141 78.164 87.032 53.204m0 0h0m-87.032 74.296 87.032 53.204m0 0h0m-89.18 78.164 91.289 45.468m0 0h0m-94.805 91.329 98.399 26.874m0 .001h0m-100.117 117.304 101.796-6.484m0 0h0m-96.25 154.062 90.704-46.64m0 0h0m-80.039 188.203 69.414-74.766m0 0h0m-60 209.18 50.546-88.594m0 0h0m-43.945 219.257 37.344-94.92m0 0h0m-32.891 223.944 28.438-97.968m0 0h0m-25.391 226.25 22.344-99.532m0 0h0m147.656-2322.968 22.344-99.532m0 0h0m-25.43 226.25 28.516-97.968m0 0h0m-32.93 223.944 37.344-94.92m0 0h0m-43.945 219.257 50.546-88.594m0 0h0m-60 209.18 69.454-74.766m0 0h0m-80.079 188.203 90.704-46.64m0 0h0m-96.25 154.101 101.796-6.562m0 0h0m-100.117 117.344 98.438 26.874m0 .001h0m-94.844 91.328 91.25 45.468m0 0h0m-89.141 78.164 87.032 53.204m0 0h0m-87.032 74.296 87.032 53.204m0 0h0m-89.141 78.164 91.25 45.468m0 0h0m-94.844 91.329 98.438 26.874m0 .001h0m-100.117 117.304 101.796-6.484m0 0h0m-96.25 154.062 90.704-46.64m0 0h0m-80.079 188.203 69.454-74.766m0 0h0m-60 209.18 50.546-88.594m0 0h0m-43.945 219.257 37.344-94.92m0 0h0m-32.93 223.944 28.516-97.968m0 0h0m-25.43 226.25 22.344-99.532m0 0h0m147.656-2322.968 22.344-99.532m0 0h0m-25.43 226.25 28.516-97.968m0 0h0m-32.93 223.944 37.344-94.92m0 0h0m-43.945 219.257 50.546-88.594m0 0h0m-60 209.18 69.454-74.766m0 0h0m-80.079 188.203 90.704-46.64m0 0h0m-96.25 154.101 101.796-6.562m0 0h0m-100.117 117.344 98.438 26.874m0 .001h0m-94.844 91.328 91.25 45.468m0 0h0m-89.141 78.164 87.032 53.204m0 0h0m-87.032 74.296 87.032 53.204m0 0h0m-89.141 78.164 91.25 45.468m0 0h0m-94.844 91.329 98.438 26.874m0 .001h0m-100.117 117.304 101.796-6.484m0 0h0m-96.25 154.062 90.704-46.64m0 0h0m-80.079 188.203 69.454-74.766m0 0h0m-60 209.18 50.546-88.594m0 0h0m-43.945 219.257 37.344-94.92m0 0h0m-32.93 223.944 28.516-97.968m0 0h0m-25.43 226.25 22.344-99.532m0 0h0m147.656-2322.968 22.344-99.532m0 0h0m-25.43 226.25 28.516-97.968m0 0h0m-32.93 223.944 37.344-94.92m0 0h0m-43.945 219.257 50.546-88.594m0 0h0m-60 209.18 69.454-74.766m0 0h0m-80.079 188.203 90.704-46.64m0 0h0m-96.25 154.101 101.796-6.562m0 0h0m-100.117 117.344 98.438 26.874m0 .001h0m-94.844 91.328 91.25 45.468m0 0h0m-89.141 78.164 87.032 53.204m0 0h0m-87.032 74.296 87.032 53.204m0 0h0m-89.141 78.164 91.25 45.468m0 0h0m-94.844 91.329 98.438 26.874m0 .001h0m-100.117 117.304 101.796-6.484m0 0h0m-96.25 154.062 90.704-46.64m0 0h0m-80.079 188.203 69.454-74.766m0 0h0m-60 209.18 50.546-88.594m0 0h0m-43.945 219.257 37.344-94.92m0 0h0m-32.93 223.944 28.516-97.968m0 0h0m-25.43 226.25 22.344-99.532m0 0h0m147.656-2322.968 22.344-99.532m0 0h0m-25.43 226.25 28.516-97.968m0 0h0m-32.93 223.944 37.344-94.92m0 0h0m-43.945 219.257 50.546-88.594m0 0h0m-60 209.18 69.454-74.766m0 0h0m-80.079 188.203 90.704-46.64m0 0h0m-96.25 154.101 101.796-6.562m0 0h0m-100.117 117.344 98.438 26.874m0 .001h0m-94.844 91.328 91.25 45.468m0 0h0m-89.141 78.164 87.032 53.204m0 0h0m-87.032 74.296 87.032 53.204m0 0h0m-89.141 78.164 91.25 45.468m0 0h0m-94.844 91.329 98.438 26.874m0 .001h0m-100.117 117.304 101.796-6.484m0 0h0m-96.25 154.062 90.704-46.64m0 0h0m-80.079 188.203 69.454-74.766m0 0h0m-60 209.18 50.546-88.594m0 0h0m-43.945 219.257 37.344-94.92m0 0h0m-32.93 223.944 28.516-97.968m0 0h0m-25.43 226.25 22.344-99.532m0 0h0m147.656-2322.968 22.344-99.532m0 0h0m-25.43 226.25 28.516-97.968m0 0h0m-32.93 223.944 37.344-94.92m0 0h0m-43.945 219.257 50.546-88.594m0 0h0m-60 209.18 69.454-74.766m0 0h0m-80.079 188.203 90.704-46.64m0 0h0m-96.25 154.101 101.796-6.562m0 0h0m-100.117 117.344 98.438 26.874m0 .001h0m-94.844 91.328 91.25 45.468m0 0h0m-89.141 78.164 87.032 53.204m0 0h0m-87.032 74.296 87.032 53.204m0 0h0m-89.141 78.164 91.25 45.468m0 0h0m-94.844 91.329 98.438 26.874m0 .001h0m-100.117 117.304 101.796-6.484m0 0h0m-96.25 154.062 90.704-46.64m0 0h0m-80.079 188.203 69.454-74.766m0 0h0m-60 209.18 50.546-88.594m0 0h0m-43.945 219.257 37.344-94.92m0 0h0m-32.93 223.944 28.516-97.968m0 0h0m-25.43 226.25 22.344-99.532m0 0h0m147.656-2322.968 22.344-99.532m0 0h0m-25.43 226.25 28.516-97.968m0 0h0m-32.93 223.944 37.344-94.92m0 0h0m-43.945 219.257 50.546-88.594m0 0h0m-60 209.18 69.454-74.766m0 0h0m-80.079 188.203 90.704-46.64m0 0h0m-96.25 154.101 101.796-6.562m0 0h0m-100.117 117.344 98.438 26.874m0 .001h0m-94.844 91.328 91.25 45.468m0 0h0m-89.141 78.164 87.032 53.204m0 0h0m-87.032 74.296 87.032 53.204m0 0h0m-89.141 78.164 91.25 45.468m0 0h0m-94.844 91.329 98.438 26.874m0 .001h0m-100.117 117.304 101.796-6.484m0 0h0m-96.25 154.062 90.704-46.64m0 0h0m-80.079 188.203 69.454-74.766m0 0h0m-60 209.18 50.546-88.594m0 0h0m-43.945 219.257 37.344-94.92m0 0h0m-32.93 223.944 28.516-97.968m0 0h0m-25.43 226.25 22.344-99.532m0 0h0m147.656-2322.968 22.344-99.532m0 0h0m-25.43 226.25 28.516-97.968m0 0h0m-32.93 223.944 37.344-94.92m0 0h0m-43.945 219.257 50.546-88.594m0 0h0m-60 209.18 69.454-74.766m0 0h0m-80.079 188.203 90.704-46.64m0 0h0m-96.25 154.101 101.796-6.562m0 0h0m-100.117 117.344 98.438 26.874m0 .001h0m-94.844 91.328 91.25 45.468m0 0h0m-89.141 78.164 87.032 53.204m0 0h0m-87.032 74.296 87.032 53.204m0 0h0m-89.141 78.164 91.25 45.468m0 0h0m-94.844 91.329 98.438 26.874m0 .001h0m-100.117 117.304 101.796-6.484m0 0h0m-96.25 154.062 90.704-46.64m0 0h0m-80.079 188.203 69.454-74.766m0 0h0m-60 209.18 50.546-88.594m0 0h0m-43.945 219.257 37.344-94.92m0 0h0m-32.93 223.944 28.516-97.968m0 0h0m-25.43 226.25 22.344-99.532m0 0h0m147.656-2322.968 22.344-99.532m0 0h0m-25.43 226.25 28.516-97.968m0 0h0m-32.93 223.944 37.344-94.92m0 0h0m-43.945 219.257 50.546-88.594m0 0h0m-60 209.18 69.454-74.766m0 0h0m-80.079 188.203 90.704-46.64m0 0h0m-96.25 154.101 101.796-6.562m0 0h0m-100.117 117.344 98.438 26.874m0 .001h0m-94.844 91.328 91.25 45.468m0 0h0m-89.141 78.164 87.032 53.204m0 0h0m-87.032 74.296 87.032 53.204m0 0h0m-89.141 78.164 91.25 45.468m0 0h0m-94.844 91.329 98.438 26.874m0 .001h0m-100.117 117.304 101.796-6.484m0 0h0m-96.25 154.062 90.704-46.64m0 0h0m-80.079 188.203 69.454-74.766m0 0h0m-60 209.18 50.546-88.594m0 0h0m-43.945 219.257 37.344-94.92m0 0h0m-32.93 223.944 28.516-97.968m0 0h0m-25.43 226.25 22.344-99.532m0 0h0m147.656-2322.968 22.344-99.532m0 0h0m-25.43 226.25 28.516-97.968m0 0h0m-32.93 223.944 37.344-94.92m0 0h0m-43.945 219.257 50.546-88.594m0 0h0m-60 209.18 69.454-74.766m0 0h0m-80.079 188.203 90.704-46.64m0 0h0m-96.25 154.101 101.796-6.562m0 0h0m-100.117 117.344 98.438 26.874m0 .001h0m-94.844 91.328 91.25 45.468m0 0h0m-89.141 78.164 87.032 53.204m0 0h0m-87.032 74.296 87.032 53.204m0 0h0m-89.141 78.164 91.25 45.468m0 0h0m-94.844 91.329 98.438 26.874m0 .001h0m-100.117 117.304 101.796-6.484m0 0h0m-96.25 154.062 90.704-46.64m0 0h0m-80.079 188.203 69.454-74.766m0 0h0m-60 209.18 50.546-88.594m0 0h0m-43.945 219.257 37.344-94.92m0 0h0m-32.93 223.944 28.516-97.968m0 0h0m-25.43 226.25 22.344-99.532m0 0h0m147.656-2322.968 22.344-99.532m0 0h0m-25.43 226.25 28.516-97.968m0 0h0m-32.93 223.944 37.344-94.92m0 0h0m-43.945 219.257 50.546-88.594m0 0h0m-60 209.18 69.454-74.766m0 0h0m-80.079 188.203 90.704-46.64m0 0h0m-96.25 154.101 101.796-6.562m0 0h0m-100.117 117.344 98.438 26.874m0 .001h0m-94.844 91.328 91.25 45.468m0 0h0m-89.141 78.164 87.032 53.204m0 0h0m-87.032 74.296 87.032 53.204m0 0h0m-89.141 78.164 91.25 45.468m0 0h0m-94.844 91.329 98.438 26.874m0 .001h0m-100.117 117.304 101.796-6.484m0 0h0m-96.25 154.062 90.704-46.64m0 0h0m-80.079 188.203 69.454-74.766m0 0h0m-60 209.18 50.546-88.594m0 0h0m-43.945 219.257 37.344-94.92m0 0h0m-32.93 223.944 28.516-97.968m0 0h0m-25.43 226.25 22.344-99.532m0 0h0m147.656-2322.968 22.344-99.532m0 0h0m-25.43 226.25 28.516-97.968m0 0h0m-32.93 223.944 37.344-94.92m0 0h0m-43.945 219.257 50.546-88.594m0 0h0m-60 209.18 69.454-74.766m0 0h0m-80.079 188.203 90.704-46.64m0 0h0m-96.25 154.101 101.796-6.562m0 0h0m-100.117 117.344 98.438 26.874m0 .001h0m-94.844 91.328 91.25 45.468m0 0h0m-89.141 78.164 87.032 53.204m0 0h0m-87.032 74.296 87.032 53.204m0 0h0m-89.141 78.164 91.25 45.468m0 0h0m-94.844 91.329 98.438 26.874m0 .001h0m-100.117 117.304 101.796-6.484m0 0h0m-96.25 154.062 90.704-46.64m0 0h0m-80.079 188.203 69.454-74.766m0 0h0m-60 209.18 50.546-88.594m0 0h0m-43.945 219.257 37.344-94.92m0 0h0m-32.93 223.944 28.516-97.968m0 0h0m-25.43 226.25 22.344-99.532m0 0h0m147.656-2322.968 22.344-99.532m0 0h0m-25.43 226.25 28.516-97.968m0 0h0m-32.93 223.944 37.344-94.92m0 0h0m-43.945 219.257 50.546-88.594m0 0h0m-60 209.18 69.454-74.766m0 0h0m-80.079 188.203 90.704-46.64m0 0h0m-96.25 154.101 101.796-6.562m0 0h0m-100.117 117.344 98.438 26.874m0 .001h0m-94.844 91.328 91.25 45.468m0 0h0m-89.141 78.164 87.032 53.204m0 0h0m-87.032 74.296 87.032 53.204m0 0h0m-89.141 78.164 91.25 45.468m0 0h0m-94.844 91.329 98.438 26.874m0 .001h0m-100.117 117.304 101.796-6.484m0 0h0m-96.25 154.062 90.704-46.64m0 0h0m-80.079 188.203 69.454-74.766m0 0h0m-60 209.18 50.546-88.594m0 0h0m-43.945 219.257 37.344-94.92m0 0h0m-32.93 223.944 28.516-97.968m0 0h0m-25.43 226.25 22.344-99.532m0 0h0m147.656-2322.968 22.344-99.532m0 0h0m-25.43 226.25 28.516-97.968m0 0h0m-32.93 223.944 37.344-94.92m0 0h0m-43.945 219.257 50.546-88.594m0 0h0m-60 209.18 69.454-74.766m0 0h0m-80.079 188.203 90.704-46.64m0 0h0m-96.25 154.101 101.796-6.562m0 0h0m-100.117 117.344 98.438 26.874m0 .001h0m-94.844 91.328 91.25 45.468m0 0h0m-89.141 78.164 87.032 53.204m0 0h0m-87.032 74.296 87.032 53.204m0 0h0m-89.141 78.164 91.25 45.468m0 0h0m-94.844 91.329 98.438 26.874m0 .001h0m-100.117 117.304 101.796-6.484m0 0h0m-96.25 154.062 90.704-46.64m0 0h0m-80.079 188.203 69.454-74.766m0 0h0m-60 209.18 50.546-88.594m0 0h0m-43.945 219.257 37.344-94.92m0 0h0m-32.93 223.944 28.516-97.968m0 0h0m-25.43 226.25 22.344-99.532m0 0h0m147.656-2322.968 22.344-99.532m0 0h0m-25.43 226.25 28.516-97.968m0 0h0m-32.93 223.944 37.344-94.92m0 0h0m-43.945 219.257 50.546-88.594m0 0h0m-60 209.18 69.454-74.766m0 0h0m-80.079 188.203 90.704-46.64m0 0h0m-96.25 154.101 101.796-6.562m0 0h0m-100.117 117.344 98.438 26.874m0 .001h0m-94.844 91.328 91.25 45.468m0 0h0m-89.141 78.164 87.032 53.204m0 0h0m-87.032 74.296 87.032 53.204m0 0h0m-89.141 78.164 91.25 45.468m0 0h0m-94.844 91.329 98.438 26.874m0 .001h0m-100.117 117.304 101.796-6.484m0 0h0m-96.25 154.062 90.704-46.64m0 0h0m-80.079 188.203 69.454-74.766m0 0h0m-60 209.18 50.546-88.594m0 0h0m-43.945 219.257 37.344-94.92m0 0h0m-32.93 223.944 28.516-97.968m0 0h0m-25.43 226.25 22.344-99.532m0 0h0m147.656-2322.968 22.344-99.532m0 0h0m-25.43 226.25 28.516-97.968m0 0h0m-32.93 223.944 37.344-94.92m0 0h0m-43.945 219.257 50.546-88.594m0 0h0m-60 209.18 69.454-74.766m0 0h0m-80.079 188.203 90.704-46.64m0 0h0m-96.25 154.101 101.796-6.562m0 0h0m-100.117 117.344 98.438 26.874m0 .001h0m-94.844 91.328 91.25 45.468m0 0h0m-89.141 78.164 87.032 53.204m0 0h0m-87.032 74.296 87.032 53.204m0 0h0m-89.141 78.164 91.25 45.468m0 0h0m-94.844 91.329 98.438 26.874m0 .001h0m-100.117 117.304 101.796-6.484m0 0h0m-96.25 154.062 90.704-46.64m0 0h0m-80.079 188.203 69.454-74.766m0 0h0m-60 209.18 50.546-88.594m0 0h0m-43.945 219.257 37.344-94.92m0 0h0m-32.93 223.944 28.516-97.968m0 0h0m-25.43 226.25 22.344-99.532m0 0h0" transform="matrix(.1 0 0 -.1 0 274)"/><g clip-path="url(#v)"><path style="fill:none;stroke-width:12.5;stroke-linecap:round;stroke-linejoin:round;stroke:red;stroke-opacity:1;stroke-miterlimit:10" d="m210 2653.281 33.984-147.265 34.024-112.891 33.984-88.828 34.024-71.445L380 2174.453l33.984-48.437 34.024-40.625 33.984-34.414 34.024-29.375L550 1996.367l33.984-21.875 34.024-18.984 33.984-16.563 34.024-14.53L720 1911.601l33.984-11.25 34.024-10 33.984-8.868 34.024-7.851 33.984-7.031 33.984-6.211 34.024-5.586 33.984-5 34.024-4.453 33.984-4.024 33.984-3.594 34.024-3.203 33.984-2.93 34.024-2.578 33.984-2.343 33.984-2.11 34.024-1.914 33.984-1.68 34.024-1.562 33.984-1.406 33.984-1.25 34.024-1.133 33.984-1.016 34.024-.937 33.984-.82 33.984-.743 34.024-.703 33.984-.625 34.024-.547 33.984-.507 33.984-.43 34.024-.43 33.984-.351 34.024-.352 33.984-.312 33.984-.274 34.024-.234 33.984-.235 34.024-.195 33.984-.156 33.984-.196 34.024-.117 33.984-.156 34.024-.117 33.984-.117 33.984-.078 34.024-.118 33.984-.078 34.024-.078 33.984-.078 33.984-.04 34.024-.077 33.984-.04 34.024-.038 67.968-.078 34.024-.04 33.984-.039h34.024l67.968-.078h68.008l34.024-.039H2930l33.984-.039h68.008l34.024-.039h135.976l34.024-.039h407.968" transform="matrix(.1 0 0 -.1 0 274)"/></g><g clip-path="url(#w)"><path style="fill:none;stroke-width:12.5;stroke-linecap:round;stroke-linejoin:round;stroke:red;stroke-opacity:1;stroke-miterlimit:10" d="M210 1805h3433.984" transform="matrix(.1 0 0 -.1 0 274)"/></g><g clip-path="url(#x)"><path style="fill:none;stroke-width:12.5;stroke-linecap:round;stroke-linejoin:round;stroke:red;stroke-opacity:1;stroke-miterlimit:10" d="M210 955h3433.984" transform="matrix(.1 0 0 -.1 0 274)"/></g><g clip-path="url(#y)"><path style="fill:none;stroke-width:12.5;stroke-linecap:round;stroke-linejoin:round;stroke:red;stroke-opacity:1;stroke-miterlimit:10" d="m210 955.156 33.984.04h34.024l33.984.038 34.024.04H380l33.984.038 34.024.04 33.984.039 34.024.039 67.968.078 34.024.039 33.984.078 34.024.078 67.968.156 34.024.078 33.984.079 34.024.117 33.984.117 33.984.156 34.024.117 33.984.157 34.024.195 67.968.39 34.024.274 33.984.234 34.024.313 33.984.312 33.984.352 34.024.39 33.984.43 34.024.508 33.984.508 33.984.586 34.024.664 33.984.703 34.024.781 33.984.86 33.984.976 34.024 1.016 33.984 1.172 34.024 1.289 33.984 1.406 33.984 1.563 34.024 1.68 33.984 1.874 34.024 2.07 33.984 2.266 33.984 2.5 34.024 2.735 33.984 3.007 34.024 3.32 33.984 3.594 33.984 3.985 34.024 4.336 33.984 4.726 34.024 5.157 33.984 5.625 33.984 6.132 34.024 6.68 33.984 7.227 34.024 7.812 33.984 8.477 33.984 9.18 34.024 9.843 33.984 10.586 34.024 11.367L2590 1107.93l33.984 12.93 34.024 13.75 33.984 14.609 34.024 15.351 33.984 16.211 33.984 16.953 34.024 17.735 33.984 18.36 34.024 19.062 33.984 19.648 33.984 20.117 34.024 20.547 33.984 20.86 34.024 21.093 33.984 21.25 33.984 21.211 34.024 21.172 33.984 20.938 34.024 20.664 33.984 20.312 33.984 19.805 34.024 19.258 33.984 18.632 34.024 17.93 33.984 17.227 33.984 16.445 34.024 15.664 33.984 14.844 34.024 14.023 33.984 13.242 33.984 12.422" transform="matrix(.1 0 0 -.1 0 274)"/></g><g clip-path="url(#z)"><path style="fill:none;stroke-width:12.5;stroke-linecap:round;stroke-linejoin:round;stroke:red;stroke-opacity:1;stroke-miterlimit:10" d="m210 954.844 33.984-.04h34.024l33.984-.038 34.024-.04H380l33.984-.038 34.024-.04 33.984-.039 34.024-.039 67.968-.078 34.024-.039 33.984-.078 34.024-.078 67.968-.156 34.024-.078 33.984-.079 34.024-.117L890 953.75l33.984-.156 34.024-.117 33.984-.157 34.024-.195 33.984-.195 33.984-.235 34.024-.234 33.984-.274 34.024-.273 67.968-.703 34.024-.39 33.984-.47 34.024-.468 33.984-.547 33.984-.625 34.024-.625 33.984-.742 34.024-.82 33.984-.899 33.984-1.016 34.024-1.093 33.984-1.211 34.024-1.367 33.984-1.524 33.984-1.68 34.024-1.836 33.984-2.07 34.024-2.265 33.984-2.54 33.984-2.851 34.024-3.125 33.984-3.516 34.024-3.906 33.984-4.336 33.984-4.883 34.024-5.43 33.984-6.093 34.024-6.797L2250 880.43l33.984-8.633 34.024-9.688 33.984-10.976 34.024-12.422L2420 824.609l33.984-16.093 34.024-18.36 33.984-21.133 34.024-24.414L2590 716.25l33.984-33.125 34.024-39.063 33.984-46.445 34.024-55.86L2760 473.673l33.984-84.297 34.024-106.523 33.984-138.047 34.024-185" transform="matrix(.1 0 0 -.1 0 274)"/></g><g clip-path="url(#A)"><path style="fill:none;stroke-width:12.5;stroke-linecap:round;stroke-linejoin:round;stroke:red;stroke-opacity:1;stroke-miterlimit:10" d="m210 953.32 33.984-.195 34.024-.195 33.984-.235 34.024-.234 67.968-.547 34.024-.351 33.984-.352 34.024-.39 67.968-.938 34.024-.547 33.984-.625 34.024-.664 33.984-.742 33.984-.782 34.024-.898 33.984-1.016 34.024-1.093 33.984-1.25 33.984-1.328 34.024-1.524 33.984-1.68 34.024-1.875 33.984-2.03 33.984-2.306 34.024-2.539 33.984-2.851 34.024-3.125 33.984-3.516 33.984-3.906 34.024-4.336 33.984-4.883 34.024-5.43 33.984-6.093 33.984-6.836 34.024-7.656 33.984-8.633 34.024-9.688L1570 851.055l33.984-12.461 34.024-14.102 33.984-16.094 34.024-18.437L1740 768.828l33.984-24.414 34.024-28.398 33.984-33.164 34.024-39.141L1910 597.227l33.984-55.938 34.024-68.203 33.984-84.453 34.024-106.719L2080 143.554l33.984-185.429" transform="matrix(.1 0 0 -.1 0 274)"/></g><g clip-path="url(#B)"><path style="fill:none;stroke-width:12.5;stroke-linecap:round;stroke-linejoin:round;stroke:red;stroke-opacity:1;stroke-miterlimit:10" d="m210 956.68 33.984.195 34.024.195 33.984.235 34.024.234 67.968.547 34.024.351 33.984.352 34.024.39 33.984.43 33.984.47 34.024.546 33.984.586 34.024.625 33.984.742 33.984.781 34.024.86 33.984.976 34.024 1.055L890 967.383l33.984 1.289 34.024 1.445 33.984 1.524 34.024 1.718 33.984 1.914 33.984 2.07 34.024 2.266 33.984 2.5 34.024 2.774L1230 987.89l33.984 3.32 34.024 3.633 33.984 3.945 34.024 4.375 33.984 4.727 33.984 5.195 34.024 5.625 33.984 6.172 34.024 6.68 33.984 7.265 33.984 7.89 34.024 8.477 33.984 9.18 34.024 9.883 33.984 10.625 33.984 11.406 34.024 12.188 33.984 12.968 34.024 13.79 33.984 14.609 33.984 15.43 34.024 16.21 33.984 16.993 34.024 17.773 33.984 18.438 33.984 19.062 34.024 19.648 33.984 20.157 34.024 20.547L2250 1335l33.984 21.094 34.024 21.21 33.984 21.25 34.024 21.173 33.984 20.937 33.984 20.625 34.024 20.274 33.984 19.804 34.024 19.219L2590 1539.18l33.984 17.93 34.024 17.187 33.984 16.406 34.024 15.625 33.984 14.805 33.984 14.023 34.024 13.164 33.984 12.383 34.024 11.602 33.984 10.82 33.984 10.078 34.024 9.336 33.984 8.672 34.024 8.047 33.984 7.383 33.984 6.836 34.024 6.289 33.984 5.78 34.024 5.313 33.984 4.844 33.984 4.453 34.024 4.063 33.984 3.672 34.024 3.398 33.984 3.086 33.984 2.852 34.024 2.539 33.984 2.343 34.024 2.149 33.984 1.914 33.984 1.758" transform="matrix(.1 0 0 -.1 0 274)"/></g><g clip-path="url(#C)"><path style="fill:none;stroke-width:12.5;stroke-linecap:round;stroke-linejoin:round;stroke:red;stroke-opacity:1;stroke-miterlimit:10" d="m203.75 1023.086 33.984 6.523 34.024 7.11 33.984 7.656 34.024 8.32 33.984 9.024 33.984 9.648 34.024 10.43 33.984 11.172 34.024 11.953 33.984 12.734 33.984 13.555 34.024 14.375 33.984 15.195 34.024 16.016 33.984 16.758 33.984 17.539 34.024 18.242 33.984 18.906 34.024 19.492 33.984 20 33.984 20.47 34.024 20.78 33.984 21.055 34.024 21.211 33.984 21.25 33.984 21.172 34.024 21.015 33.984 20.782 34.024 20.351 33.984 19.922 33.984 19.414 34.024 18.79 33.984 18.085 34.024 17.422 33.984 16.64 33.984 15.86 34.024 15.04 33.984 14.257 34.024 13.398 33.984 12.618 33.984 11.796 34.024 11.055 33.984 10.274 34.024 9.57 33.984 8.867 33.984 8.203 34.024 7.578 33.984 6.993 34.024 6.406 33.984 5.937 33.984 5.43 34.024 4.96 33.984 4.571 34.024 4.18 33.984 3.789 33.984 3.477 34.024 3.203 33.984 2.89 34.024 2.618 33.984 2.421 33.984 2.149 34.024 1.992 33.984 1.836 34.024 1.601 33.984 1.524 33.984 1.328 34.024 1.25 33.984 1.094 34.024 1.015 33.984.899 33.984.86 34.024.741 33.984.704 34.024.585 33.984.586 33.984.508 34.024.43 33.984.43 34.024.39 33.984.352 33.984.273 34.024.274 33.984.273 34.024.235 67.968.39 34.024.195 33.984.118 34.024.156 67.968.234 34.024.117 33.984.079 34.024.117 33.984.039 33.984.078 34.024.078 33.984.04 34.024.038 33.984.04 33.984.077" transform="matrix(.1 0 0 -.1 0 274)"/></g><g clip-path="url(#D)"><path style="fill:none;stroke-width:12.5;stroke-linecap:round;stroke-linejoin:round;stroke:red;stroke-opacity:1;stroke-miterlimit:10" d="m177.266 911.133 33.984-4.883 33.984-5.469 34.024-6.093 33.984-6.875 34.024-7.657 33.984-8.672 33.984-9.726 34.024-11.016 33.984-12.46 34.024-14.18 33.984-16.133 33.984-18.477 34.024-21.25 33.984-24.531 34.024-28.477 33.984-33.32 33.984-39.258 34.024-46.718 33.984-56.211 34.024-68.555 33.984-84.922 33.984-107.383 34.024-139.336 33.984-186.914" transform="matrix(.1 0 0 -.1 0 274)"/></g></svg>