<svg xmlns="http://www.w3.org/2000/svg" xmlns:xlink="http://www.w3.org/1999/xlink" width="374pt" height="275pt" viewBox="0 0 374 275"><defs><clipPath id="a"><path d="M17 9.5h1v255h-1zm0 0"/></clipPath><clipPath id="b"><path d="M17 259h340v2H17zm0 0"/></clipPath><clipPath id="c"><path d="M17 9.5h1v255h-1zm0 0"/></clipPath><clipPath id="d"><path d="M73 9.5h1v255h-1zm0 0"/></clipPath><clipPath id="e"><path d="M130 9.5h1v255h-1zm0 0"/></clipPath><clipPath id="f"><path d="M186 9.5h2v255h-2zm0 0"/></clipPath><clipPath id="g"><path d="M243 9.5h1v255h-1zm0 0"/></clipPath><clipPath id="h"><path d="M300 9.5h1v255h-1zm0 0"/></clipPath><clipPath id="i"><path d="M356 9.5h1v255h-1zm0 0"/></clipPath><clipPath id="j"><path d="M17 259h340v2H17zm0 0"/></clipPath><clipPath id="k"><path d="M17 213h340v1H17zm0 0"/></clipPath><clipPath id="l"><path d="M17 166h340v2H17zm0 0"/></clipPath><clipPath id="m"><path d="M17 120h340v2H17zm0 0"/></clipPath><clipPath id="n"><path d="M17 74h340v1H17zm0 0"/></clipPath><clipPath id="o"><path d="M17 27h340v2H17zm0 0"/></clipPath><symbol overflow="visible" id="p"><path style="stroke:none" d="M2.063-5.313c-.5 0-.938.22-1.22.579C.5-4.266.329-3.563.329-2.578c0 1.797.594 2.75 1.734 2.75 1.126 0 1.735-.953 1.735-2.703 0-1.031-.156-1.719-.516-2.203-.281-.375-.719-.579-1.219-.579zm0 .579c.718 0 1.062.718 1.062 2.14 0 1.516-.344 2.219-1.078 2.219C1.344-.375 1-1.109 1-2.563c0-1.453.344-2.171 1.063-2.171zm0 0"/></symbol><symbol overflow="visible" id="q"><path style="stroke:none" d="M1.438-.781H.655V0h.781zm0 0"/></symbol><symbol overflow="visible" id="r"><path style="stroke:none" d="M3.563-5.313H.828L.422-2.421h.61c.312-.375.562-.5.984-.5.703 0 1.156.485 1.156 1.281 0 .766-.438 1.235-1.156 1.235-.579 0-.938-.297-1.094-.906H.266c.093.437.156.656.312.843.313.406.844.64 1.453.64 1.063 0 1.813-.78 1.813-1.905 0-1.047-.688-1.766-1.719-1.766-.375 0-.672.094-.984.313l.218-1.485h2.204zm0 0"/></symbol><symbol overflow="visible" id="s"><path style="stroke:none" d="M1.938-3.781V0h.671v-5.313h-.437c-.235.813-.39.922-1.406 1.047v.485zm0 0"/></symbol><symbol overflow="visible" id="t"><path style="stroke:none" d="M3.797-.656H1c.063-.438.313-.703.953-1.094l.75-.406c.75-.406 1.125-.953 1.125-1.594 0-.453-.172-.86-.484-1.14-.328-.298-.719-.423-1.219-.423-.672 0-1.172.235-1.469.688-.187.281-.265.61-.281 1.156h.656c.032-.36.078-.578.157-.75.171-.328.515-.515.921-.515.594 0 1.047.421 1.047.984 0 .422-.25.781-.719 1.063l-.687.39C.64-1.672.312-1.172.25 0h3.547zm0 0"/></symbol><symbol overflow="visible" id="u"><path style="stroke:none" d="M1.656-2.438h.36c.734 0 1.109.329 1.109.954 0 .671-.422 1.078-1.11 1.078-.718 0-1.078-.36-1.109-1.14H.234c.032.421.11.702.235.952.281.5.797.766 1.531.766 1.094 0 1.797-.656 1.797-1.656 0-.672-.266-1.047-.906-1.266.5-.203.75-.578.75-1.11 0-.906-.61-1.453-1.625-1.453-1.079 0-1.641.579-1.657 1.72h.657c0-.329.03-.516.109-.673.156-.296.484-.468.906-.468.578 0 .938.343.938.906 0 .375-.14.594-.438.719-.172.078-.406.109-.875.109zm0 0"/></symbol></defs><g clip-path="url(#a)"><path style="fill:none;stroke-width:6.25;stroke-linecap:round;stroke-linejoin:miter;stroke:#bfbfbf;stroke-opacity:1;stroke-miterlimit:10" d="M170 105v2550" transform="matrix(.1 0 0 -.1 0 275)"/></g><g clip-path="url(#b)"><path style="fill:none;stroke-width:6.25;stroke-linecap:round;stroke-linejoin:miter;stroke:#bfbfbf;stroke-opacity:1;stroke-miterlimit:10" d="M170 151.367h3400" transform="matrix(.1 0 0 -.1 0 275)"/></g><g clip-path="url(#c)"><path style="fill:none;stroke-width:6.25;stroke-linecap:round;stroke-linejoin:miter;stroke:#bfbfbf;stroke-opacity:1;stroke-dasharray:12.5,18.75;stroke-miterlimit:10" d="M170 105v2550" transform="matrix(.1 0 0 -.1 0 275)"/></g><g clip-path="url(#d)"><path style="fill:none;stroke-width:6.25;stroke-linecap:round;stroke-linejoin:miter;stroke:#bfbfbf;stroke-opacity:1;stroke-dasharray:12.5,18.75;stroke-miterlimit:10" d="M736.68 105v2550" transform="matrix(.1 0 0 -.1 0 275)"/></g><g clip-path="url(#e)"><path style="fill:none;stroke-width:6.25;stroke-linecap:round;stroke-linejoin:miter;stroke:#bfbfbf;stroke-opacity:1;stroke-dasharray:12.5,18.75;stroke-miterlimit:10" d="M1303.32 105v2550" transform="matrix(.1 0 0 -.1 0 275)"/></g><g clip-path="url(#f)"><path style="fill:none;stroke-width:6.25;stroke-linecap:round;stroke-linejoin:miter;stroke:#bfbfbf;stroke-opacity:1;stroke-dasharray:12.5,18.75;stroke-miterlimit:10" d="M1870 105v2550" transform="matrix(.1 0 0 -.1 0 275)"/></g><g clip-path="url(#g)"><path style="fill:none;stroke-width:6.25;stroke-linecap:round;stroke-linejoin:miter;stroke:#bfbfbf;stroke-opacity:1;stroke-dasharray:12.5,18.75;stroke-miterlimit:10" d="M2436.68 105v2550" transform="matrix(.1 0 0 -.1 0 275)"/></g><g clip-path="url(#h)"><path style="fill:none;stroke-width:6.25;stroke-linecap:round;stroke-linejoin:miter;stroke:#bfbfbf;stroke-opacity:1;stroke-dasharray:12.5,18.75;stroke-miterlimit:10" d="M3003.32 105v2550" transform="matrix(.1 0 0 -.1 0 275)"/></g><g clip-path="url(#i)"><path style="fill:none;stroke-width:6.25;stroke-linecap:round;stroke-linejoin:miter;stroke:#bfbfbf;stroke-opacity:1;stroke-dasharray:12.5,18.75;stroke-miterlimit:10" d="M3570 105v2550" transform="matrix(.1 0 0 -.1 0 275)"/></g><g clip-path="url(#j)"><path style="fill:none;stroke-width:6.25;stroke-linecap:round;stroke-linejoin:miter;stroke:#bfbfbf;stroke-opacity:1;stroke-dasharray:12.5,18.75;stroke-miterlimit:10" d="M170 151.367h3400" transform="matrix(.1 0 0 -.1 0 275)"/></g><g clip-path="url(#k)"><path style="fill:none;stroke-width:6.25;stroke-linecap:round;stroke-linejoin:miter;stroke:#bfbfbf;stroke-opacity:1;stroke-dasharray:12.5,18.75;stroke-miterlimit:10" d="M170 615h3400" transform="matrix(.1 0 0 -.1 0 275)"/></g><g clip-path="url(#l)"><path style="fill:none;stroke-width:6.25;stroke-linecap:round;stroke-linejoin:miter;stroke:#bfbfbf;stroke-opacity:1;stroke-dasharray:12.5,18.75;stroke-miterlimit:10" d="M170 1078.633h3400" transform="matrix(.1 0 0 -.1 0 275)"/></g><g clip-path="url(#m)"><path style="fill:none;stroke-width:6.25;stroke-linecap:round;stroke-linejoin:miter;stroke:#bfbfbf;stroke-opacity:1;stroke-dasharray:12.5,18.75;stroke-miterlimit:10" d="M170 1542.266h3400" transform="matrix(.1 0 0 -.1 0 275)"/></g><g clip-path="url(#n)"><path style="fill:none;stroke-width:6.25;stroke-linecap:round;stroke-linejoin:miter;stroke:#bfbfbf;stroke-opacity:1;stroke-dasharray:12.5,18.75;stroke-miterlimit:10" d="M170 2005.898h3400" transform="matrix(.1 0 0 -.1 0 275)"/></g><g clip-path="url(#o)"><path style="fill:none;stroke-width:6.25;stroke-linecap:round;stroke-linejoin:miter;stroke:#bfbfbf;stroke-opacity:1;stroke-dasharray:12.5,18.75;stroke-miterlimit:10" d="M170 2469.531h3400" transform="matrix(.1 0 0 -.1 0 275)"/></g><path style="fill:none;stroke-width:12.5;stroke-linecap:square;stroke-linejoin:miter;stroke:#000;stroke-opacity:1;stroke-miterlimit:10" d="M170 105h3400" transform="matrix(.1 0 0 -.1 0 275)"/><path style="fill:none;stroke-width:6.25;stroke-linecap:butt;stroke-linejoin:miter;stroke:#000;stroke-opacity:1;stroke-miterlimit:10" d="M170 105v50m56.68-50v25m56.64-25v25M340 105v25m56.68-25v25m56.64-25v25M510 105v25m56.68-25v25m56.64-25v25M680 105v25m56.68-25v50m56.64-50v25M850 105v25m56.68-25v25m56.64-25v25m56.68-25v25m56.68-25v25m56.64-25v25m56.68-25v25m56.68-25v25m56.64-25v50m56.68-50v25m56.68-25v25m56.64-25v25m56.68-25v25m56.68-25v25m56.64-25v25m56.68-25v25m56.68-25v25m56.64-25v25m56.68-25v50m56.68-50v25m56.64-25v25m56.68-25v25m56.68-25v25m56.64-25v25m56.68-25v25m56.68-25v25m56.64-25v25m56.68-25v25m56.68-25v50m56.64-50v25m56.68-25v25m56.68-25v25m56.64-25v25m56.68-25v25m56.68-25v25m56.64-25v25m56.68-25v25m56.68-25v25m56.64-25v50m56.68-50v25m56.68-25v25m56.64-25v25m56.68-25v25m56.68-25v25m56.64-25v25m56.68-25v25m56.68-25v25m56.64-25v25m56.68-25v50" transform="matrix(.1 0 0 -.1 0 275)"/><g style="fill:#000;fill-opacity:1"><use xlink:href="#p" x="11.163" y="274.5"/><use xlink:href="#q" x="15.333" y="274.5"/><use xlink:href="#p" x="17.418" y="274.5"/></g><g style="fill:#000;fill-opacity:1"><use xlink:href="#p" x="68.038" y="274.5"/><use xlink:href="#q" x="72.208" y="274.5"/><use xlink:href="#r" x="74.293" y="274.5"/></g><g style="fill:#000;fill-opacity:1"><use xlink:href="#s" x="124.913" y="274.5"/><use xlink:href="#q" x="129.083" y="274.5"/><use xlink:href="#p" x="131.168" y="274.5"/></g><g style="fill:#000;fill-opacity:1"><use xlink:href="#s" x="181.788" y="274.5"/><use xlink:href="#q" x="185.958" y="274.5"/><use xlink:href="#r" x="188.043" y="274.5"/></g><g style="fill:#000;fill-opacity:1"><use xlink:href="#t" x="238.038" y="274.5"/><use xlink:href="#q" x="242.208" y="274.5"/><use xlink:href="#p" x="244.293" y="274.5"/></g><g style="fill:#000;fill-opacity:1"><use xlink:href="#t" x="294.913" y="274.5"/><use xlink:href="#q" x="299.083" y="274.5"/><use xlink:href="#r" x="301.168" y="274.5"/></g><g style="fill:#000;fill-opacity:1"><use xlink:href="#u" x="351.788" y="274.5"/><use xlink:href="#q" x="355.958" y="274.5"/><use xlink:href="#p" x="358.043" y="274.5"/></g><path style="fill:none;stroke-width:12.5;stroke-linecap:square;stroke-linejoin:miter;stroke:#000;stroke-opacity:1;stroke-miterlimit:10" d="M170 2655h3400" transform="matrix(.1 0 0 -.1 0 275)"/><path style="fill:none;stroke-width:6.25;stroke-linecap:butt;stroke-linejoin:miter;stroke:#000;stroke-opacity:1;stroke-miterlimit:10" d="M170 2655v-50m56.68 50v-25m56.64 25v-25m56.68 25v-25m56.68 25v-25m56.64 25v-25m56.68 25v-25m56.68 25v-25m56.64 25v-25m56.68 25v-25m56.68 25v-50m56.64 50v-25m56.68 25v-25m56.68 25v-25m56.64 25v-25m56.68 25v-25m56.68 25v-25m56.64 25v-25m56.68 25v-25m56.68 25v-25m56.64 25v-50m56.68 50v-25m56.68 25v-25m56.64 25v-25m56.68 25v-25m56.68 25v-25m56.64 25v-25m56.68 25v-25m56.68 25v-25m56.64 25v-25m56.68 25v-50m56.68 50v-25m56.64 25v-25m56.68 25v-25m56.68 25v-25m56.64 25v-25m56.68 25v-25m56.68 25v-25m56.64 25v-25m56.68 25v-25m56.68 25v-50m56.64 50v-25m56.68 25v-25m56.68 25v-25m56.64 25v-25m56.68 25v-25m56.68 25v-25m56.64 25v-25m56.68 25v-25m56.68 25v-25m56.64 25v-50m56.68 50v-25m56.68 25v-25m56.64 25v-25m56.68 25v-25m56.68 25v-25m56.64 25v-25m56.68 25v-25m56.68 25v-25m56.64 25v-25m56.68 25v-50" transform="matrix(.1 0 0 -.1 0 275)"/><g style="fill:#000;fill-opacity:1"><use xlink:href="#p" x="11.163" y="6.375"/><use xlink:href="#q" x="15.333" y="6.375"/><use xlink:href="#p" x="17.418" y="6.375"/></g><g style="fill:#000;fill-opacity:1"><use xlink:href="#p" x="68.038" y="6.375"/><use xlink:href="#q" x="72.208" y="6.375"/><use xlink:href="#r" x="74.293" y="6.375"/></g><g style="fill:#000;fill-opacity:1"><use xlink:href="#s" x="124.913" y="6.375"/><use xlink:href="#q" x="129.083" y="6.375"/><use xlink:href="#p" x="131.168" y="6.375"/></g><g style="fill:#000;fill-opacity:1"><use xlink:href="#s" x="181.788" y="6.375"/><use xlink:href="#q" x="185.958" y="6.375"/><use xlink:href="#r" x="188.043" y="6.375"/></g><g style="fill:#000;fill-opacity:1"><use xlink:href="#t" x="238.038" y="6.375"/><use xlink:href="#q" x="242.208" y="6.375"/><use xlink:href="#p" x="244.293" y="6.375"/></g><g style="fill:#000;fill-opacity:1"><use xlink:href="#t" x="294.913" y="6.375"/><use xlink:href="#q" x="299.083" y="6.375"/><use xlink:href="#r" x="301.168" y="6.375"/></g><g style="fill:#000;fill-opacity:1"><use xlink:href="#u" x="351.788" y="6.375"/><use xlink:href="#q" x="355.958" y="6.375"/><use xlink:href="#p" x="358.043" y="6.375"/></g><path style="fill:none;stroke-width:12.5;stroke-linecap:square;stroke-linejoin:miter;stroke:#000;stroke-opacity:1;stroke-miterlimit:10" d="M170 105v2550" transform="matrix(.1 0 0 -.1 0 275)"/><path style="fill:none;stroke-width:6.25;stroke-linecap:butt;stroke-linejoin:miter;stroke:#000;stroke-opacity:1;stroke-miterlimit:10" d="M170 151.367h50m-50 46.367h25m-25 46.368h25m-25 46.367h25m-25 46.367h25m-25 46.367h25m-25 46.328h25m-25 46.367h25m-25 46.368h25m-25 46.367h25M170 615h50m-50 46.367h25m-25 46.367h25m-25 46.368h25m-25 46.367h25m-25 46.367h25m-25 46.367h25m-25 46.328h25m-25 46.367h25m-25 46.368h25m-25 46.367h50M170 1125h25m-25 46.367h25m-25 46.367h25m-25 46.368h25m-25 46.367h25m-25 46.367h25m-25 46.328h25m-25 46.367h25m-25 46.367h25m-25 46.368h50m-50 46.367h25M170 1635h25m-25 46.367h25m-25 46.367h25m-25 46.368h25m-25 46.367h25m-25 46.367h25m-25 46.328h25m-25 46.367h25m-25 46.367h50m-50 46.368h25m-25 46.367h25M170 2145h25m-25 46.367h25m-25 46.367h25m-25 46.368h25m-25 46.367h25m-25 46.367h25m-25 46.328h25m-25 46.367h50m-50 46.367h25m-25 46.368h25m-25 46.367h25M170 2655h25" transform="matrix(.1 0 0 -.1 0 275)"/><g style="fill:#000;fill-opacity:1"><use xlink:href="#p" x="-.299" y="263.25"/><use xlink:href="#q" x="3.871" y="263.25"/><use xlink:href="#p" x="5.956" y="263.25"/></g><g style="fill:#000;fill-opacity:1"><use xlink:href="#p" x="-.299" y="217"/><use xlink:href="#q" x="3.871" y="217"/><use xlink:href="#r" x="5.956" y="217"/></g><g style="fill:#000;fill-opacity:1"><use xlink:href="#s" x="-.299" y="170.75"/><use xlink:href="#q" x="3.871" y="170.75"/><use xlink:href="#p" x="5.956" y="170.75"/></g><g style="fill:#000;fill-opacity:1"><use xlink:href="#s" x="-.299" y="124.5"/><use xlink:href="#q" x="3.871" y="124.5"/><use xlink:href="#r" x="5.956" y="124.5"/></g><g style="fill:#000;fill-opacity:1"><use xlink:href="#t" x="-.299" y="77.625"/><use xlink:href="#q" x="3.871" y="77.625"/><use xlink:href="#p" x="5.956" y="77.625"/></g><g style="fill:#000;fill-opacity:1"><use xlink:href="#t" x="-.299" y="31.375"/><use xlink:href="#q" x="3.871" y="31.375"/><use xlink:href="#r" x="5.956" y="31.375"/></g><path style="fill:none;stroke-width:12.5;stroke-linecap:square;stroke-linejoin:miter;stroke:#000;stroke-opacity:1;stroke-miterlimit:10" d="M3570 105v2550" transform="matrix(.1 0 0 -.1 0 275)"/><path style="fill:none;stroke-width:6.25;stroke-linecap:butt;stroke-linejoin:miter;stroke:#000;stroke-opacity:1;stroke-miterlimit:10" d="M3570 151.367h-50m50 46.367h-25m25 46.368h-25m25 46.367h-25m25 46.367h-25m25 46.367h-25m25 46.328h-25m25 46.367h-25m25 46.368h-25m25 46.367h-25M3570 615h-50m50 46.367h-25m25 46.367h-25m25 46.368h-25m25 46.367h-25m25 46.367h-25m25 46.367h-25m25 46.328h-25m25 46.367h-25m25 46.368h-25m25 46.367h-50m50 46.367h-25m25 46.367h-25m25 46.367h-25m25 46.368h-25m25 46.367h-25m25 46.367h-25m25 46.328h-25m25 46.367h-25m25 46.367h-25m25 46.368h-50m50 46.367h-25m25 46.367h-25m25 46.367h-25m25 46.367h-25m25 46.368h-25m25 46.367h-25m25 46.367h-25m25 46.328h-25m25 46.367h-25m25 46.367h-50m50 46.368h-25m25 46.367h-25m25 46.367h-25m25 46.367h-25m25 46.367h-25m25 46.368h-25m25 46.367h-25m25 46.367h-25m25 46.328h-25m25 46.367h-50m50 46.367h-25m25 46.368h-25m25 46.367h-25m25 46.367h-25" transform="matrix(.1 0 0 -.1 0 275)"/><g style="fill:#000;fill-opacity:1"><use xlink:href="#p" x="363.25" y="263.25"/><use xlink:href="#q" x="367.42" y="263.25"/><use xlink:href="#p" x="369.505" y="263.25"/></g><g style="fill:#000;fill-opacity:1"><use xlink:href="#p" x="363.25" y="217"/><use xlink:href="#q" x="367.42" y="217"/><use xlink:href="#r" x="369.505" y="217"/></g><g style="fill:#000;fill-opacity:1"><use xlink:href="#s" x="363.25" y="170.75"/><use xlink:href="#q" x="367.42" y="170.75"/><use xlink:href="#p" x="369.505" y="170.75"/></g><g style="fill:#000;fill-opacity:1"><use xlink:href="#s" x="363.25" y="124.5"/><use xlink:href="#q" x="367.42" y="124.5"/><use xlink:href="#r" x="369.505" y="124.5"/></g><g style="fill:#000;fill-opacity:1"><use xlink:href="#t" x="363.25" y="77.625"/><use xlink:href="#q" x="367.42" y="77.625"/><use xlink:href="#p" x="369.505" y="77.625"/></g><g style="fill:#000;fill-opacity:1"><use xlink:href="#t" x="363.25" y="31.375"/><use xlink:href="#q" x="367.42" y="31.375"/><use xlink:href="#r" x="369.505" y="31.375"/></g><path style="fill:none;stroke-width:12.5;stroke-linecap:round;stroke-linejoin:miter;stroke:#00008b;stroke-opacity:1;stroke-miterlimit:10" d="m170 1078.633 6.25.039 6.25.078 6.25.117 6.25.196 6.25.234 6.25.273 6.25.352 6.25.39 6.25.43 6.25.508 6.25.547 6.25.586 6.25.664 6.25.703 6.25.742 6.25.82 6.25.86 6.25.937 6.25.977 6.25 1.016 6.25 1.093 12.5 2.344 6.25 1.25 6.25 1.328 6.25 1.367 6.25 1.407 6.25 1.484 6.25 1.563 6.25 1.601 12.5 3.36 6.25 1.796 6.25 1.836 6.25 1.914 6.25 1.953 6.25 2.032 6.25 2.11 6.25 2.148 6.25 2.226 6.25 2.266 6.25 2.343 6.25 2.422 6.25 2.5 6.25 2.578 6.25 2.618 6.25 2.695 6.25 2.773 6.25 2.852 6.25 2.89 6.25 3.008 6.25 3.086 6.25 3.125 6.25 3.203 6.25 3.32 6.25 3.36 6.25 3.477 6.25 3.554 6.25 3.633 6.25 3.711 6.25 3.79 6.25 3.905 6.25 3.985 6.25 4.062 6.25 4.18 6.25 4.258 6.25 4.336 6.25 4.453 6.25 4.57 6.25 4.649 6.25 4.765 6.25 4.844 6.25 4.96 6.25 5.08 6.25 5.194 6.25 5.313 6.25 5.39 6.25 5.547 6.25 5.664 6.25 5.782 6.25 5.898 6.25 6.055 6.25 6.133 6.25 6.289 6.25 6.445 6.25 6.563 6.25 6.718 6.25 6.836 6.25 6.992 6.25 7.149 6.25 7.304 6.25 7.461 6.25 7.618 6.25 7.773 6.25 7.93 6.25 8.125 6.25 8.281 6.25 8.477 6.25 8.671 6.25 8.829 6.25 9.023 6.25 9.219 6.25 9.414 6.25 9.61 6.25 9.804 6.25 10.039 6.25 10.273 6.25 10.47 6.25 10.663 6.25 10.938 6.25 11.172 6.25 11.367 6.25 11.64 6.25 11.914 6.25 12.11 6.25 12.383 6.25 12.656 6.25 12.93 6.25 13.203 6.25 13.437 6.25 13.75 6.25 14.024 6.25 14.336 6.25 14.609 6.25 14.922 6.25 15.195 6.25 15.469 6.25 15.82 6.25 16.094 6.25 16.406 6.25 16.719 6.25 17.031 6.25 17.344 6.25 17.617 6.25 17.93 6.25 18.242 6.25 18.516 6.25 18.789 6.25 19.062 6.25 19.336 6.25 19.57 6.25 19.805 6.25 20.04 6.25 20.234 6.25 20.43 6.25 20.546 6.25 20.703 6.25 20.782 6.25 20.82 6.25 20.86 6.25 20.82 6.25 20.742 6.25 20.625 6.25 20.468 6.25 20.235 6.25 19.883 6.25 19.53 6.25 19.102 6.25 18.594 6.25 17.969 6.25 17.266 6.25 16.523 6.25 15.664 6.25 14.727 6.25 13.671 6.25 12.54 6.25 11.328 6.25 10.039 6.25 8.672 6.25 7.187 6.25 5.664 6.25 4.063 6.25 2.422 6.25.742 6.25-.977 6.25-2.734 6.25-4.531 6.25-6.25 6.25-8.008 6.25-9.727 6.25-11.406 6.25-13.047 6.25-14.61 6.25-16.171 6.25-17.578 6.25-18.946 6.25-20.195 6.25-21.406 6.25-22.461 6.25-23.438 6.25-24.336 6.25-25.117 6.25-25.82 6.25-26.406 6.25-26.875 6.25-27.344 6.25-27.617 6.25-27.89 6.25-28.048 6.25-28.125 6.25-28.203 6.25-28.164 6.25-28.086 6.25-27.93 6.25-27.773 6.25-27.578 6.25-27.305 6.25-27.031 6.25-26.68 6.25-26.406 6.25-26.016 6.25-25.625 6.25-25.234 6.25-24.844 6.25-24.453 6.25-23.984 6.25-23.594 6.25-23.164 6.25-22.734 6.25-22.305 6.25-21.836 6.25-21.445 6.25-21.016 6.25-20.586 6.25-20.156 6.25-19.727 6.25-19.336 6.25-18.945 6.25-18.516 6.25-18.164 6.25-17.773 6.25-17.383 6.25-16.992 6.25-16.68 6.25-16.289 6.25-15.937 6.25-15.625 6.25-15.274 6.25-14.96 6.25-14.65 6.25-14.335 6.25-14.024 6.25-13.75 6.25-13.437 6.25-13.164 6.25-12.89 6.25-12.618 6.25-12.383 6.25-12.07 6.25-11.875 6.25-11.64 6.25-11.368 6.25-11.133 6.25-10.937 6.25-10.703 6.25-10.508 6.25-10.274 6.25-10.117 6.25-9.883 6.25-9.687 6.25-9.492 6.25-9.336 6.25-9.14 6.25-8.985 6.25-8.79 6.25-8.632 6.25-8.477 6.25-8.32 6.25-8.164 6.25-8.008 6.25-7.89 6.25-7.735 6.25-7.578 6.25-7.422 6.25-7.344 6.25-7.187 6.25-7.07 6.25-6.914 6.25-6.836 6.25-6.68 6.25-6.563 6.25-6.484 6.25-6.367 6.25-6.25 6.25-6.133 6.25-6.055 6.25-5.937 6.25-5.86 6.25-5.742 6.25-5.664 6.25-5.547 6.25-5.468 6.25-5.391 6.25-5.313 6.25-5.234 6.25-5.117 6.25-5.078 6.25-4.961 6.25-4.883 6.25-4.844 6.25-4.726 6.25-4.688 6.25-4.61 6.25-4.53 6.25-4.493 6.25-4.375 6.25-4.336 6.25-4.296 6.25-4.22 6.25-4.14 6.25-4.101 6.25-4.024 6.25-3.984 6.25-3.906 6.25-3.868 6.25-3.789 6.25-3.75 6.25-3.71 6.25-3.672 6.25-3.594 6.25-3.555 6.25-3.515 6.25-3.438 6.25-3.398 6.25-3.36 6.25-3.32 6.25-3.281 6.25-3.243 12.5-6.328 6.25-3.125 12.5-6.093 6.25-2.97 12.5-5.859 6.25-2.89 12.5-5.625 6.25-2.774 6.25-2.734 6.25-2.695 12.5-5.313 6.25-2.617 6.25-2.54 6.25-2.577 6.25-2.5 12.5-4.922 6.25-2.422 12.5-4.766 6.25-2.343 6.25-2.305 12.5-4.531 12.5-4.453 6.25-2.188 6.25-2.148 18.75-6.328 6.25-2.07 12.5-4.063 6.25-1.992 12.5-3.907 18.75-5.742 6.25-1.875 12.5-3.672 12.5-3.594 18.75-5.273 6.25-1.68 6.25-1.718 12.5-3.36 12.5-3.281 18.75-4.805 6.25-1.562 6.25-1.524 6.25-1.562 6.25-1.524 6.25-1.484 6.25-1.523 6.25-1.446 6.25-1.484 12.5-2.89 18.75-4.22 18.75-4.101 18.75-3.984 18.75-3.868 6.25-1.25 6.25-1.289 6.25-1.25 6.25-1.21 6.25-1.25 6.25-1.212 6.25-1.171 6.25-1.211 18.75-3.516 25-4.531 25-4.375 31.25-5.274 18.75-3.046 6.25-.977 6.25-1.016 18.75-2.93 6.25-.937 6.25-.976 12.5-1.875 6.25-.899 6.25-.937 6.25-.899 6.25-.937 12.5-1.797 6.25-.86 6.25-.898 25-3.438 6.25-.82 6.25-.86 25-3.28 6.25-.782 6.25-.82 31.25-3.906 12.5-1.485 6.25-.78 18.75-2.227 6.25-.704 6.25-.742 12.5-1.406 6.25-.742 6.25-.664 18.75-2.11 12.5-1.328 6.25-.703 18.75-1.992 6.25-.625 6.25-.664 6.25-.625 6.25-.664 37.5-3.75 6.25-.586 6.25-.625 50-4.688 6.25-.546 6.25-.586 50-4.375 6.25-.508 6.25-.547 6.25-.508 6.25-.547 43.75-3.555 6.25-.468 6.25-.508 6.25-.469 6.25-.508 25-1.875 6.25-.507" transform="matrix(.1 0 0 -.1 0 275)"/><path style="fill:none;stroke-width:12.5;stroke-linecap:round;stroke-linejoin:miter;stroke:#006400;stroke-opacity:1;stroke-miterlimit:10" d="m170 1078.633 12.5.078 12.5.234 6.25.157 12.5.468 6.25.274 12.5.703 12.5.86 6.25.468 6.25.508 12.5 1.172 12.5 1.328 6.25.703 6.25.742 12.5 1.64 6.25.86 6.25.899 12.5 1.953 6.25 1.015 12.5 2.188 6.25 1.133 12.5 2.421 12.5 2.579 6.25 1.328 6.25 1.406 12.5 2.89 6.25 1.524 6.25 1.563 6.25 1.601 12.5 3.281 6.25 1.72 6.25 1.757 6.25 1.797 6.25 1.836 6.25 1.875 12.5 3.906 12.5 4.063 12.5 4.218 6.25 2.188 6.25 2.226 6.25 2.266 6.25 2.305 6.25 2.343 6.25 2.383 6.25 2.422 6.25 2.461 6.25 2.5 12.5 5.156 12.5 5.313 6.25 2.734 6.25 2.774 6.25 2.812 6.25 2.852 6.25 2.89 6.25 2.93 12.5 5.937 18.75 9.258 6.25 3.164 6.25 3.203 6.25 3.243 6.25 3.28 6.25 3.321 12.5 6.719 12.5 6.875 6.25 3.476 6.25 3.555 6.25 3.516 12.5 7.187 6.25 3.633 12.5 7.344 12.5 7.422 6.25 3.75 6.25 3.789 6.25 3.75 6.25 3.828 6.25 3.789 25 15.313 6.25 3.867 31.25 19.14 6.25 3.79 18.75 11.25 12.5 7.343 6.25 3.633 6.25 3.594 6.25 3.515 6.25 3.477 6.25 3.437 6.25 3.36 6.25 3.32 6.25 3.242 6.25 3.164 6.25 3.086 6.25 2.969 6.25 2.93 6.25 2.812 6.25 2.735 6.25 2.617 6.25 2.5 6.25 2.383 6.25 2.265 6.25 2.11 6.25 2.03 6.25 1.837 6.25 1.718 6.25 1.602 6.25 1.406 6.25 1.25 6.25 1.094 6.25.938 6.25.742 6.25.586 6.25.39 6.25.196h6.25l6.25-.196 6.25-.39 6.25-.586 6.25-.82 6.25-.977 6.25-1.25 6.25-1.406 6.25-1.68 6.25-1.875 6.25-2.07 6.25-2.305 6.25-2.54 6.25-2.734 6.25-2.968 6.25-3.164 6.25-3.399 6.25-3.633 6.25-3.828 6.25-4.023 6.25-4.258 6.25-4.453 6.25-4.649 6.25-4.843 6.25-5.04 6.25-5.234 6.25-5.43 6.25-5.585 6.25-5.782 6.25-5.937 6.25-6.133 6.25-6.25 6.25-6.406 6.25-6.563 6.25-6.718 6.25-6.836 6.25-6.953 6.25-7.07 6.25-7.188 6.25-7.305 6.25-7.422 6.25-7.5 6.25-7.578 6.25-7.656 6.25-7.735 6.25-7.812 6.25-7.852 6.25-7.93 6.25-7.968 6.25-8.008 18.75-24.258 6.25-8.125 37.5-48.984 18.75-24.375 6.25-8.086 12.5-16.094 6.25-8.008 12.5-15.859 6.25-7.89 6.25-7.852L1557.5 995l6.25-7.695 12.5-15.235 6.25-7.539 6.25-7.46 6.25-7.423 6.25-7.382 12.5-14.532 6.25-7.187 6.25-7.11 6.25-7.03 6.25-6.993 6.25-6.914 6.25-6.875 6.25-6.797 6.25-6.719 6.25-6.64 6.25-6.602 6.25-6.523 6.25-6.446 6.25-6.406 6.25-6.328 6.25-6.25 6.25-6.21 6.25-6.134 6.25-6.054 6.25-5.977 6.25-5.937 6.25-5.86 6.25-5.781 6.25-5.742 6.25-5.664 6.25-5.625 6.25-5.547 6.25-5.469 6.25-5.43 6.25-5.351 6.25-5.274 6.25-5.234 6.25-5.195 6.25-5.117 6.25-5.04 6.25-5 6.25-4.921 6.25-4.883 6.25-4.844 6.25-4.766 6.25-4.687 6.25-4.649 6.25-4.609 6.25-4.57 6.25-4.492 6.25-4.454 6.25-4.375 6.25-4.336 6.25-4.296 12.5-8.438 6.25-4.14 12.5-8.125 12.5-7.97 6.25-3.905 12.5-7.657 6.25-3.789 6.25-3.71 12.5-7.345 6.25-3.593 6.25-3.555 6.25-3.516 6.25-3.476 6.25-3.438 6.25-3.398 6.25-3.36 6.25-3.32 12.5-6.562 6.25-3.203 6.25-3.164 12.5-6.25 12.5-6.094 6.25-3.008 6.25-2.969 6.25-2.93 12.5-5.78 6.25-2.852 6.25-2.813 6.25-2.773 12.5-5.469 6.25-2.695 6.25-2.657 6.25-2.617 18.75-7.734 12.5-5 6.25-2.461 18.75-7.266 12.5-4.687 12.5-4.61 6.25-2.265 12.5-4.453 12.5-4.375 12.5-4.297 6.25-2.11 18.75-6.21 6.25-1.993 6.25-2.03 6.25-1.993 12.5-3.906 12.5-3.828 18.75-5.625 6.25-1.836 18.75-5.391 12.5-3.516 12.5-3.437 18.75-5.04 12.5-3.28 6.25-1.602 6.25-1.64 12.5-3.126 6.25-1.601 18.75-4.57 6.25-1.485 6.25-1.523 6.25-1.446 6.25-1.484 12.5-2.89 18.75-4.22 6.25-1.367 6.25-1.406 6.25-1.328 6.25-1.367 18.75-3.985 18.75-3.867 6.25-1.25 6.25-1.289 6.25-1.21 6.25-1.25 25-4.844 25-4.688 25-4.531 25-4.375 25-4.219 6.25-1.016 6.25-1.054 12.5-2.031 6.25-.977 6.25-1.016 25-3.906 6.25-.937L2870 335l12.5-1.875 6.25-.898 6.25-.938 31.25-4.492 6.25-.86 6.25-.898 18.75-2.578 6.25-.82 6.25-.86 31.25-4.101 6.25-.782 6.25-.82 25-3.125 6.25-.742 6.25-.781 12.5-1.485 6.25-.78 6.25-.743 6.25-.703 6.25-.742 6.25-.704 6.25-.742 37.5-4.219 6.25-.664 6.25-.703 31.25-3.32 6.25-.625 6.25-.664 6.25-.625 6.25-.664 37.5-3.75 6.25-.586 6.25-.625 50-4.688 6.25-.546 6.25-.586 12.5-1.094 6.25-.586 12.5-1.094 6.25-.508 18.75-1.64 6.25-.508 6.25-.547 6.25-.508 6.25-.547 37.5-3.046 6.25-.47 6.25-.507 6.25-.469 6.25-.508 6.25-.468 6.25-.508 50-3.75 6.25-.43 12.5-.937 12.5-.86 6.25-.469 6.25-.43" transform="matrix(.1 0 0 -.1 0 275)"/><path style="fill:none;stroke-width:12.5;stroke-linecap:round;stroke-linejoin:miter;stroke:#8b0000;stroke-opacity:1;stroke-miterlimit:10" d="M170 1078.633h6.25l18.75-.117 12.5-.157 18.75-.351 12.5-.313 12.5-.39 18.75-.703 12.5-.547 12.5-.625 18.75-1.055 12.5-.781 6.25-.43 6.25-.469 6.25-.43 6.25-.507 6.25-.469 6.25-.547 6.25-.508 6.25-.586 6.25-.546 6.25-.625 6.25-.586 18.75-1.993 12.5-1.406 6.25-.742 12.5-1.563 12.5-1.64 12.5-1.719 6.25-.898 12.5-1.875 6.25-.977 6.25-1.015 6.25-.977 6.25-1.055 12.5-2.187 12.5-2.266 6.25-1.172 12.5-2.422 6.25-1.25 12.5-2.578 6.25-1.328 12.5-2.734 18.75-4.336 12.5-3.047 12.5-3.125 6.25-1.602 6.25-1.64 6.25-1.68 12.5-3.437 6.25-1.758 12.5-3.594 6.25-1.836 6.25-1.914 6.25-1.875 12.5-3.906 6.25-1.992 12.5-4.063 6.25-2.07 6.25-2.11 6.25-2.148 12.5-4.375 12.5-4.453 12.5-4.61 12.5-4.687 6.25-2.383 6.25-2.422 12.5-4.922 12.5-5 18.75-7.734 6.25-2.656 6.25-2.617 18.75-8.086 18.75-8.32 12.5-5.626 6.25-2.851 18.75-8.672 6.25-2.93 18.75-8.906 12.5-6.016 12.5-6.093 18.75-9.258 6.25-3.125 6.25-3.086 6.25-3.164 6.25-3.125 18.75-9.492 25-12.813 6.25-3.242 6.25-3.203 25-12.969 6.25-3.281 6.25-3.242 6.25-3.282 6.25-3.242 18.75-9.844 6.25-3.242 25-13.125 6.25-3.242 12.5-6.563 6.25-3.242 6.25-3.28 6.25-3.243 6.25-3.281 25-12.97 6.25-3.202 6.25-3.242 31.25-16.016 25-12.656 6.25-3.125 6.25-3.164 6.25-3.125 6.25-3.086 6.25-3.125 12.5-6.172 25-12.188 6.25-3.008 6.25-3.046 6.25-2.97 6.25-3.007 12.5-5.937 18.75-8.79 18.75-8.671 18.75-8.555 12.5-5.625 18.75-8.32 18.75-8.203 18.75-8.086 6.25-2.657 6.25-2.617 6.25-2.656 6.25-2.617 18.75-7.735 18.75-7.617 12.5-5 18.75-7.383 18.75-7.265 6.25-2.383 12.5-4.688 6.25-2.382 18.75-6.914 18.75-6.797 18.75-6.68 6.25-2.188 6.25-2.148 6.25-2.188 6.25-2.148 6.25-2.11 6.25-2.148 6.25-2.11 18.75-6.21 6.25-2.031 6.25-2.07 6.25-1.993 6.25-2.031 6.25-1.992 6.25-1.953 6.25-1.993 6.25-1.953 25-7.656 18.75-5.625 18.75-5.508 18.75-5.39 12.5-3.516 6.25-1.719 6.25-1.758 12.5-3.437 18.75-5.04 6.25-1.64 6.25-1.68 6.25-1.64 6.25-1.602 6.25-1.64 6.25-1.602 6.25-1.562 6.25-1.602 12.5-3.125 6.25-1.523 6.25-1.563 6.25-1.523 6.25-1.485 6.25-1.523 18.75-4.453 25-5.781 25-5.625 25-5.47 25-5.312 31.25-6.445 18.75-3.75 6.25-1.21 6.25-1.25 12.5-2.423 6.25-1.172 6.25-1.21 6.25-1.173 6.25-1.21 6.25-1.133 6.25-1.172 6.25-1.133 6.25-1.172 12.5-2.265 6.25-1.094 6.25-1.133 25-4.375 6.25-1.055 6.25-1.093 18.75-3.164 12.5-2.032 6.25-1.054 12.5-2.032 6.25-.976 6.25-1.016 37.5-5.86 31.25-4.687 12.5-1.797 6.25-.937 18.75-2.695 6.25-.86 6.25-.898 37.5-5.156 12.5-1.641 6.25-.86 12.5-1.64 6.25-.781 6.25-.82 6.25-.782 6.25-.82 31.25-3.906 6.25-.743 6.25-.78 6.25-.743 6.25-.781 12.5-1.485 6.25-.703 18.75-2.226 50-5.625 12.5-1.329 6.25-.703 31.25-3.32 6.25-.625 6.25-.664 6.25-.625 6.25-.664 37.5-3.75 6.25-.586 6.25-.625 6.25-.586L2970 295l12.5-1.172 6.25-.625 6.25-.586 6.25-.547 18.75-1.757 6.25-.547 6.25-.586 6.25-.547 6.25-.586 43.75-3.828 6.25-.508 6.25-.547 6.25-.508 6.25-.547 12.5-1.015 6.25-.547 31.25-2.54 6.25-.468 12.5-1.016 6.25-.468 6.25-.508 12.5-.938 6.25-.507 37.5-2.813 6.25-.43 12.5-.937 6.25-.43 6.25-.469 6.25-.43 6.25-.468 12.5-.86 6.25-.468 37.5-2.578 6.25-.39 12.5-.86 6.25-.39 12.5-.86 12.5-.781 6.25-.43 68.75-4.297 6.25-.352 6.25-.39 6.25-.352 6.25-.39 6.25-.352 6.25-.39 6.25-.352 6.25-.39 18.75-1.055 6.25-.391 6.25-.313 6.25-.39 6.25-.352" transform="matrix(.1 0 0 -.1 0 275)"/></svg>