<svg xmlns="http://www.w3.org/2000/svg" xmlns:xlink="http://www.w3.org/1999/xlink" width="374pt" height="275pt" viewBox="0 0 374 275"><defs><clipPath id="a"><path d="M17 9.5h1v255h-1zm0 0"/></clipPath><clipPath id="b"><path d="M17 264h340v.5H17zm0 0"/></clipPath><clipPath id="c"><path d="M17 9.5h1v255h-1zm0 0"/></clipPath><clipPath id="d"><path d="M101 9.5h2v255h-2zm0 0"/></clipPath><clipPath id="e"><path d="M186 9.5h2v255h-2zm0 0"/></clipPath><clipPath id="f"><path d="M271 9.5h2v255h-2zm0 0"/></clipPath><clipPath id="g"><path d="M356 9.5h1v255h-1zm0 0"/></clipPath><clipPath id="h"><path d="M17 264h340v.5H17zm0 0"/></clipPath><clipPath id="i"><path d="M17 213h340v1H17zm0 0"/></clipPath><clipPath id="j"><path d="M17 162h340v1H17zm0 0"/></clipPath><clipPath id="k"><path d="M17 111h340v1H17zm0 0"/></clipPath><clipPath id="l"><path d="M17 60h340v1H17zm0 0"/></clipPath><clipPath id="m"><path d="M17 9.5h340v.5H17zm0 0"/></clipPath><clipPath id="v"><path d="M17 96h340v82H17zm0 0"/></clipPath><symbol overflow="visible" id="n"><path style="stroke:none" d="M2.063-5.313c-.5 0-.938.22-1.22.579C.5-4.266.329-3.563.329-2.578c0 1.797.594 2.75 1.734 2.75 1.126 0 1.735-.953 1.735-2.703 0-1.031-.156-1.719-.516-2.203-.281-.375-.719-.579-1.219-.579zm0 .579c.718 0 1.062.718 1.062 2.14 0 1.516-.344 2.219-1.078 2.219C1.344-.375 1-1.109 1-2.563c0-1.453.344-2.171 1.063-2.171zm0 0"/></symbol><symbol overflow="visible" id="o"><path style="stroke:none" d="M1.438-.781H.655V0h.781zm0 0"/></symbol><symbol overflow="visible" id="p"><path style="stroke:none" d="M3.797-.656H1c.063-.438.313-.703.953-1.094l.75-.406c.75-.406 1.125-.953 1.125-1.594 0-.453-.172-.86-.484-1.14-.328-.298-.719-.423-1.219-.423-.672 0-1.172.235-1.469.688-.187.281-.265.61-.281 1.156h.656c.032-.36.078-.578.157-.75.171-.328.515-.515.921-.515.594 0 1.047.421 1.047.984 0 .422-.25.781-.719 1.063l-.687.39C.64-1.672.312-1.172.25 0h3.547zm0 0"/></symbol><symbol overflow="visible" id="q"><path style="stroke:none" d="M3.563-5.313H.828L.422-2.421h.61c.312-.375.562-.5.984-.5.703 0 1.156.485 1.156 1.281 0 .766-.438 1.235-1.156 1.235-.579 0-.938-.297-1.094-.906H.266c.093.437.156.656.312.843.313.406.844.64 1.453.64 1.063 0 1.813-.78 1.813-1.905 0-1.047-.688-1.766-1.719-1.766-.375 0-.672.094-.984.313l.218-1.485h2.204zm0 0"/></symbol><symbol overflow="visible" id="r"><path style="stroke:none" d="M3.906-5.313H.344v.641h2.875C1.953-2.859 1.438-1.75 1.03 0h.703c.297-1.703.97-3.172 2.172-4.766zm0 0"/></symbol><symbol overflow="visible" id="s"><path style="stroke:none" d="M1.938-3.781V0h.671v-5.313h-.437c-.235.813-.39.922-1.406 1.047v.485zm0 0"/></symbol><symbol overflow="visible" id="t"><path style="stroke:none" d="M1.656-2.438h.36c.734 0 1.109.329 1.109.954 0 .671-.422 1.078-1.11 1.078-.718 0-1.078-.36-1.109-1.14H.234c.032.421.11.702.235.952.281.5.797.766 1.531.766 1.094 0 1.797-.656 1.797-1.656 0-.672-.266-1.047-.906-1.266.5-.203.75-.578.75-1.11 0-.906-.61-1.453-1.625-1.453-1.079 0-1.641.579-1.657 1.72h.657c0-.329.03-.516.109-.673.156-.296.484-.468.906-.468.578 0 .938.343.938.906 0 .375-.14.594-.438.719-.172.078-.406.109-.875.109zm0 0"/></symbol><symbol overflow="visible" id="u"><path style="stroke:none" d="M2.453-1.281V0h.656v-1.281h.797v-.594H3.11v-3.438h-.484L.203-1.969v.688zm0-.594H.781l1.672-2.313zm0 0"/></symbol></defs><g clip-path="url(#a)"><path style="fill:none;stroke-width:6.25;stroke-linecap:round;stroke-linejoin:miter;stroke:#bfbfbf;stroke-opacity:1;stroke-miterlimit:10" d="M170 105v2550" transform="matrix(.1 0 0 -.1 0 275)"/></g><g clip-path="url(#b)"><path style="fill:none;stroke-width:6.25;stroke-linecap:round;stroke-linejoin:miter;stroke:#bfbfbf;stroke-opacity:1;stroke-miterlimit:10" d="M170 105h3400" transform="matrix(.1 0 0 -.1 0 275)"/></g><g clip-path="url(#c)"><path style="fill:none;stroke-width:6.25;stroke-linecap:round;stroke-linejoin:miter;stroke:#bfbfbf;stroke-opacity:1;stroke-dasharray:12.5,18.75;stroke-miterlimit:10" d="M170 105v2550" transform="matrix(.1 0 0 -.1 0 275)"/></g><g clip-path="url(#d)"><path style="fill:none;stroke-width:6.25;stroke-linecap:round;stroke-linejoin:miter;stroke:#bfbfbf;stroke-opacity:1;stroke-dasharray:12.5,18.75;stroke-miterlimit:10" d="M1020 105v2550" transform="matrix(.1 0 0 -.1 0 275)"/></g><g clip-path="url(#e)"><path style="fill:none;stroke-width:6.25;stroke-linecap:round;stroke-linejoin:miter;stroke:#bfbfbf;stroke-opacity:1;stroke-dasharray:12.5,18.75;stroke-miterlimit:10" d="M1870 105v2550" transform="matrix(.1 0 0 -.1 0 275)"/></g><g clip-path="url(#f)"><path style="fill:none;stroke-width:6.25;stroke-linecap:round;stroke-linejoin:miter;stroke:#bfbfbf;stroke-opacity:1;stroke-dasharray:12.5,18.75;stroke-miterlimit:10" d="M2720 105v2550" transform="matrix(.1 0 0 -.1 0 275)"/></g><g clip-path="url(#g)"><path style="fill:none;stroke-width:6.25;stroke-linecap:round;stroke-linejoin:miter;stroke:#bfbfbf;stroke-opacity:1;stroke-dasharray:12.5,18.75;stroke-miterlimit:10" d="M3570 105v2550" transform="matrix(.1 0 0 -.1 0 275)"/></g><g clip-path="url(#h)"><path style="fill:none;stroke-width:6.25;stroke-linecap:round;stroke-linejoin:miter;stroke:#bfbfbf;stroke-opacity:1;stroke-dasharray:12.5,18.75;stroke-miterlimit:10" d="M170 105h3400" transform="matrix(.1 0 0 -.1 0 275)"/></g><g clip-path="url(#i)"><path style="fill:none;stroke-width:6.25;stroke-linecap:round;stroke-linejoin:miter;stroke:#bfbfbf;stroke-opacity:1;stroke-dasharray:12.5,18.75;stroke-miterlimit:10" d="M170 615h3400" transform="matrix(.1 0 0 -.1 0 275)"/></g><g clip-path="url(#j)"><path style="fill:none;stroke-width:6.25;stroke-linecap:round;stroke-linejoin:miter;stroke:#bfbfbf;stroke-opacity:1;stroke-dasharray:12.5,18.75;stroke-miterlimit:10" d="M170 1125h3400" transform="matrix(.1 0 0 -.1 0 275)"/></g><g clip-path="url(#k)"><path style="fill:none;stroke-width:6.25;stroke-linecap:round;stroke-linejoin:miter;stroke:#bfbfbf;stroke-opacity:1;stroke-dasharray:12.5,18.75;stroke-miterlimit:10" d="M170 1635h3400" transform="matrix(.1 0 0 -.1 0 275)"/></g><g clip-path="url(#l)"><path style="fill:none;stroke-width:6.25;stroke-linecap:round;stroke-linejoin:miter;stroke:#bfbfbf;stroke-opacity:1;stroke-dasharray:12.5,18.75;stroke-miterlimit:10" d="M170 2145h3400" transform="matrix(.1 0 0 -.1 0 275)"/></g><g clip-path="url(#m)"><path style="fill:none;stroke-width:6.25;stroke-linecap:round;stroke-linejoin:miter;stroke:#bfbfbf;stroke-opacity:1;stroke-dasharray:12.5,18.75;stroke-miterlimit:10" d="M170 2655h3400" transform="matrix(.1 0 0 -.1 0 275)"/></g><path style="fill:none;stroke-width:12.5;stroke-linecap:square;stroke-linejoin:miter;stroke:#000;stroke-opacity:1;stroke-miterlimit:10" d="M170 105h3400" transform="matrix(.1 0 0 -.1 0 275)"/><path style="fill:none;stroke-width:6.25;stroke-linecap:butt;stroke-linejoin:miter;stroke:#000;stroke-opacity:1;stroke-miterlimit:10" d="M170 105v50m85-50v25m85-25v25m85-25v25m85-25v25m85-25v25m85-25v25m85-25v25m85-25v25m85-25v25m85-25v50m85-50v25m85-25v25m85-25v25m85-25v25m85-25v25m85-25v25m85-25v25m85-25v25m85-25v25m85-25v50m85-50v25m85-25v25m85-25v25m85-25v25m85-25v25m85-25v25m85-25v25m85-25v25m85-25v25m85-25v50m85-50v25m85-25v25m85-25v25m85-25v25m85-25v25m85-25v25m85-25v25m85-25v25m85-25v25m85-25v50" transform="matrix(.1 0 0 -.1 0 275)"/><g style="fill:#000;fill-opacity:1"><use xlink:href="#n" x="11.163" y="274.5"/><use xlink:href="#o" x="15.333" y="274.5"/><use xlink:href="#n" x="17.418" y="274.5"/></g><g style="fill:#000;fill-opacity:1"><use xlink:href="#p" x="96.163" y="274.5"/><use xlink:href="#o" x="100.333" y="274.5"/><use xlink:href="#q" x="102.418" y="274.5"/></g><g style="fill:#000;fill-opacity:1"><use xlink:href="#q" x="181.788" y="274.5"/><use xlink:href="#o" x="185.958" y="274.5"/><use xlink:href="#n" x="188.043" y="274.5"/></g><g style="fill:#000;fill-opacity:1"><use xlink:href="#r" x="266.788" y="274.5"/><use xlink:href="#o" x="270.958" y="274.5"/><use xlink:href="#q" x="273.043" y="274.5"/></g><g style="fill:#000;fill-opacity:1"><use xlink:href="#s" x="349.703" y="274.5"/><use xlink:href="#n" x="353.873" y="274.5"/><use xlink:href="#o" x="358.043" y="274.5"/><use xlink:href="#n" x="360.128" y="274.5"/></g><path style="fill:none;stroke-width:12.5;stroke-linecap:square;stroke-linejoin:miter;stroke:#000;stroke-opacity:1;stroke-miterlimit:10" d="M170 2655h3400" transform="matrix(.1 0 0 -.1 0 275)"/><path style="fill:none;stroke-width:6.25;stroke-linecap:butt;stroke-linejoin:miter;stroke:#000;stroke-opacity:1;stroke-miterlimit:10" d="M170 2655v-50m85 50v-25m85 25v-25m85 25v-25m85 25v-25m85 25v-25m85 25v-25m85 25v-25m85 25v-25m85 25v-25m85 25v-50m85 50v-25m85 25v-25m85 25v-25m85 25v-25m85 25v-25m85 25v-25m85 25v-25m85 25v-25m85 25v-25m85 25v-50m85 50v-25m85 25v-25m85 25v-25m85 25v-25m85 25v-25m85 25v-25m85 25v-25m85 25v-25m85 25v-25m85 25v-50m85 50v-25m85 25v-25m85 25v-25m85 25v-25m85 25v-25m85 25v-25m85 25v-25m85 25v-25m85 25v-25m85 25v-50" transform="matrix(.1 0 0 -.1 0 275)"/><g style="fill:#000;fill-opacity:1"><use xlink:href="#n" x="11.163" y="6.375"/><use xlink:href="#o" x="15.333" y="6.375"/><use xlink:href="#n" x="17.418" y="6.375"/></g><g style="fill:#000;fill-opacity:1"><use xlink:href="#p" x="96.163" y="6.375"/><use xlink:href="#o" x="100.333" y="6.375"/><use xlink:href="#q" x="102.418" y="6.375"/></g><g style="fill:#000;fill-opacity:1"><use xlink:href="#q" x="181.788" y="6.375"/><use xlink:href="#o" x="185.958" y="6.375"/><use xlink:href="#n" x="188.043" y="6.375"/></g><g style="fill:#000;fill-opacity:1"><use xlink:href="#r" x="266.788" y="6.375"/><use xlink:href="#o" x="270.958" y="6.375"/><use xlink:href="#q" x="273.043" y="6.375"/></g><g style="fill:#000;fill-opacity:1"><use xlink:href="#s" x="349.703" y="6.375"/><use xlink:href="#n" x="353.873" y="6.375"/><use xlink:href="#o" x="358.043" y="6.375"/><use xlink:href="#n" x="360.128" y="6.375"/></g><path style="fill:none;stroke-width:12.5;stroke-linecap:square;stroke-linejoin:miter;stroke:#000;stroke-opacity:1;stroke-miterlimit:10" d="M170 105v2550" transform="matrix(.1 0 0 -.1 0 275)"/><path style="fill:none;stroke-width:6.25;stroke-linecap:butt;stroke-linejoin:miter;stroke:#000;stroke-opacity:1;stroke-miterlimit:10" d="M170 105h50m-50 51.016h25m-25 50.976h25m-25 51.016h25m-25 51.015h25M170 360h25m-25 51.016h25m-25 50.976h25m-25 51.016h25m-25 51.015h25M170 615h50m-50 51.016h25m-25 50.976h25m-25 51.016h25m-25 50.976h25M170 870h25m-25 51.016h25m-25 50.976h25m-25 51.016h25m-25 50.976h25M170 1125h50m-50 51.016h25m-25 50.976h25m-25 51.016h25m-25 50.976h25M170 1380h25m-25 51.016h25m-25 50.976h25m-25 51.016h25m-25 50.976h25M170 1635h50m-50 51.016h25m-25 50.976h25m-25 51.016h25m-25 50.976h25M170 1890h25m-25 51.016h25m-25 50.976h25m-25 51.016h25m-25 50.976h25M170 2145h50m-50 51.016h25m-25 50.976h25m-25 51.016h25m-25 50.976h25M170 2400h25m-25 51.016h25m-25 50.976h25m-25 51.016h25m-25 50.976h25M170 2655h50" transform="matrix(.1 0 0 -.1 0 275)"/><g style="fill:#000;fill-opacity:1"><use xlink:href="#n" x="-.299" y="268.25"/><use xlink:href="#o" x="3.871" y="268.25"/><use xlink:href="#n" x="5.956" y="268.25"/></g><g style="fill:#000;fill-opacity:1"><use xlink:href="#n" x="-.299" y="217"/><use xlink:href="#o" x="3.871" y="217"/><use xlink:href="#s" x="5.956" y="217"/></g><g style="fill:#000;fill-opacity:1"><use xlink:href="#n" x="-.299" y="165.75"/><use xlink:href="#o" x="3.871" y="165.75"/><use xlink:href="#p" x="5.956" y="165.75"/></g><g style="fill:#000;fill-opacity:1"><use xlink:href="#n" x="-.299" y="115.125"/><use xlink:href="#o" x="3.871" y="115.125"/><use xlink:href="#t" x="5.956" y="115.125"/></g><g style="fill:#000;fill-opacity:1"><use xlink:href="#n" x="-.299" y="63.875"/><use xlink:href="#o" x="3.871" y="63.875"/><use xlink:href="#u" x="5.956" y="63.875"/></g><g style="fill:#000;fill-opacity:1"><use xlink:href="#n" x="-.299" y="12.625"/><use xlink:href="#o" x="3.871" y="12.625"/><use xlink:href="#q" x="5.956" y="12.625"/></g><path style="fill:none;stroke-width:12.5;stroke-linecap:square;stroke-linejoin:miter;stroke:#000;stroke-opacity:1;stroke-miterlimit:10" d="M3570 105v2550" transform="matrix(.1 0 0 -.1 0 275)"/><path style="fill:none;stroke-width:6.25;stroke-linecap:butt;stroke-linejoin:miter;stroke:#000;stroke-opacity:1;stroke-miterlimit:10" d="M3570 105h-50m50 51.016h-25m25 50.976h-25m25 51.016h-25m25 51.015h-25M3570 360h-25m25 51.016h-25m25 50.976h-25m25 51.016h-25m25 51.015h-25M3570 615h-50m50 51.016h-25m25 50.976h-25m25 51.016h-25m25 50.976h-25M3570 870h-25m25 51.016h-25m25 50.976h-25m25 51.016h-25m25 50.976h-25m25 51.016h-50m50 51.016h-25m25 50.976h-25m25 51.016h-25m25 50.976h-25m25 51.016h-25m25 51.016h-25m25 50.976h-25m25 51.016h-25m25 50.976h-25m25 51.016h-50m50 51.016h-25m25 50.976h-25m25 51.016h-25m25 50.976h-25m25 51.016h-25m25 51.016h-25m25 50.976h-25m25 51.016h-25m25 50.976h-25m25 51.016h-50m50 51.016h-25m25 50.976h-25m25 51.016h-25m25 50.976h-25m25 51.016h-25m25 51.016h-25m25 50.976h-25m25 51.016h-25m25 50.976h-25m25 51.016h-50" transform="matrix(.1 0 0 -.1 0 275)"/><g style="fill:#000;fill-opacity:1"><use xlink:href="#n" x="363.25" y="268.25"/><use xlink:href="#o" x="367.42" y="268.25"/><use xlink:href="#n" x="369.505" y="268.25"/></g><g style="fill:#000;fill-opacity:1"><use xlink:href="#n" x="363.25" y="217"/><use xlink:href="#o" x="367.42" y="217"/><use xlink:href="#s" x="369.505" y="217"/></g><g style="fill:#000;fill-opacity:1"><use xlink:href="#n" x="363.25" y="165.75"/><use xlink:href="#o" x="367.42" y="165.75"/><use xlink:href="#p" x="369.505" y="165.75"/></g><g style="fill:#000;fill-opacity:1"><use xlink:href="#n" x="363.25" y="115.125"/><use xlink:href="#o" x="367.42" y="115.125"/><use xlink:href="#t" x="369.505" y="115.125"/></g><g style="fill:#000;fill-opacity:1"><use xlink:href="#n" x="363.25" y="63.875"/><use xlink:href="#o" x="367.42" y="63.875"/><use xlink:href="#u" x="369.505" y="63.875"/></g><g style="fill:#000;fill-opacity:1"><use xlink:href="#n" x="363.25" y="12.625"/><use xlink:href="#o" x="367.42" y="12.625"/><use xlink:href="#q" x="369.505" y="12.625"/></g><g clip-path="url(#v)"><path style="fill:none;stroke-width:12.5;stroke-linecap:round;stroke-linejoin:round;stroke:#00008b;stroke-opacity:1;stroke-miterlimit:10" d="m170 1380 6.25-27.734 6.25-27.149 6.25-26.21 6.25-25.157 6.25-24.18 6.25-23.28 6.25-22.384 6.25-21.445 6.25-20.352 6.25-19.296 6.25-18.32 6.25-17.345 6.25-16.289 6.25-15.195 6.25-14.101 6.25-13.047 6.25-11.954 6.25-10.937 6.25-9.766 6.25-8.672 6.25-7.539 6.25-6.406 6.25-5.351 6.25-4.18 6.25-3.086 6.25-1.914 6.25-.742 6.25.312 6.25 1.446 6.25 2.617 6.25 3.75 6.25 4.883 6.25 5.976 6.25 7.11 6.25 8.203 6.25 9.336 6.25 10.43 6.25 11.562 6.25 12.617 6.25 13.672 6.25 14.765 6.25 15.86 6.25 16.914 6.25 17.93 6.25 18.906 6.25 19.96 6.25 20.977 6.25 22.032 6.25 22.93 6.25 23.827 6.25 24.727 6.25 25.781 6.25 26.797 6.25 27.578 6.25 27.813 6.25 27.46 6.25 26.602 6.25 25.586 6.25 24.531 6.25 23.633 6.25 22.774 6.25 21.796 6.25 20.782 6.25 19.765 6.25 18.711 6.25 17.735 6.25 16.68 6.25 15.663 6.25 14.532 6.25 13.476 6.25 12.383 6.25 11.328 6.25 10.235 6.25 9.14 6.25 7.969 6.25 6.875 6.25 5.781 6.25 4.649 6.25 3.515 6.25 2.383 6.25 1.211 6.25.117 6.25-1.015 6.25-2.11 6.25-3.32 6.25-4.414 6.25-5.547 6.25-6.64 6.25-7.774 6.25-8.867 6.25-10.04 6.25-11.132 6.25-12.188 6.25-13.242 6.25-14.297 6.25-15.43 6.25-16.523 6.25-17.539 6.25-18.476 6.25-19.532 6.25-20.586 6.25-21.601 6.25-22.578 6.25-23.477 6.25-24.375 6.25-25.351 6.25-26.407 6.25-27.304 6.25-27.813 6.25-27.656 6.25-26.953 6.25-26.016 6.25-24.922 6.25-24.023 6.25-23.125 6.25-22.188 6.25-21.21 6.25-20.157 6.25-19.101 6.25-18.126 6.25-17.109 6.25-16.094 6.25-15 6.25-13.867 6.25-12.812 6.25-11.758 6.25-10.703 6.25-9.57 6.25-8.438 6.25-7.305 6.25-6.21 6.25-5.118 6.25-3.984 6.25-2.813 6.25-1.68 6.25-.546 6.25.547 6.25 1.68 6.25 2.812 6.25 3.984 6.25 5.117 6.25 6.211 6.25 7.305 6.25 8.437 6.25 9.57 6.25 10.704 6.25 11.758 6.25 12.812 6.25 13.867 6.25 15 6.25 16.094 6.25 17.11 6.25 18.124 6.25 19.102 6.25 20.156 6.25 21.211 6.25 22.188 6.25 23.125 6.25 24.023 6.25 24.922 6.25 26.016 6.25 26.953 6.25 27.656 6.25 27.813 6.25 27.304 6.25 26.407 6.25 25.351 6.25 24.375 6.25 23.477 6.25 22.578 6.25 21.601 6.25 20.586 6.25 19.532 6.25 18.476 6.25 17.54 6.25 16.523 6.25 15.43 6.25 14.296 6.25 13.242 6.25 12.188 6.25 11.133 6.25 10.039 6.25 8.867 6.25 7.773 6.25 6.64 6.25 5.548 6.25 4.414 6.25 3.32 6.25 2.11 6.25 1.015 6.25-.117 6.25-1.21 6.25-2.384 6.25-3.515 6.25-4.649 6.25-5.781 6.25-6.875 6.25-7.969 6.25-9.14 6.25-10.235 6.25-11.328 6.25-12.383 6.25-13.476 6.25-14.532 6.25-15.664 6.25-16.68 6.25-17.734 6.25-18.71 6.25-19.766 6.25-20.782 6.25-21.796 6.25-22.774 6.25-23.633 6.25-24.53 6.25-25.587 6.25-26.601 6.25-27.461 6.25-27.813 6.25-27.578 6.25-26.797 6.25-25.781 6.25-24.727 6.25-23.828 6.25-22.93 6.25-22.03 6.25-20.977 6.25-19.961 6.25-18.906 6.25-17.93 6.25-16.914 6.25-15.86 6.25-14.765 6.25-13.672 6.25-12.617 6.25-11.563 6.25-10.43 6.25-9.335 6.25-8.203 6.25-7.11 6.25-5.976 6.25-4.883 6.25-3.75 6.25-2.617 6.25-1.446 6.25-.312 6.25.742 6.25 1.914 6.25 3.086 6.25 4.18 6.25 5.351 6.25 6.406 6.25 7.54 6.25 8.671 6.25 9.766 6.25 10.938 6.25 11.953 6.25 13.046 6.25 14.102 6.25 15.195 6.25 16.29 6.25 17.343 6.25 18.32 6.25 19.297 6.25 20.352 6.25 21.445 6.25 22.383 6.25 23.281 6.25 24.18 6.25 25.156 6.25 26.211 6.25 27.149 12.5 55.468 6.25 27.149 6.25 26.21 6.25 25.157 6.25 24.18 6.25 23.28 6.25 22.384 6.25 21.445 6.25 20.352 6.25 19.296 6.25 18.32 6.25 17.345 6.25 16.289 6.25 15.195 6.25 14.101 6.25 13.047 6.25 11.993 6.25 10.898 6.25 9.766 6.25 8.671 6.25 7.54 6.25 6.406 6.25 5.351 6.25 4.22 6.25 3.046 6.25 1.914 6.25.742 6.25-.312 6.25-1.446 6.25-2.617 6.25-3.75 6.25-4.883 6.25-5.976 6.25-7.07 6.25-8.243 6.25-9.336 6.25-10.43 6.25-11.562 6.25-12.617 6.25-13.672 6.25-14.765 6.25-15.86 6.25-16.914 6.25-17.93 6.25-18.906 6.25-19.96 6.25-20.977 6.25-21.993 6.25-22.968 6.25-23.828 6.25-24.727 6.25-25.781 6.25-26.797 6.25-27.578 6.25-27.813 6.25-27.46 6.25-26.602 6.25-25.547 6.25-24.57 6.25-23.633 6.25-22.774 6.25-21.796 6.25-20.782 6.25-19.765 6.25-18.672 6.25-17.735 6.25-16.718 6.25-15.664 6.25-14.532 6.25-13.476 6.25-12.383 6.25-11.328 6.25-10.235 6.25-9.14 6.25-7.969 6.25-6.875 6.25-5.781 6.25-4.649 6.25-3.515 6.25-2.383 6.25-1.211 6.25-.117 6.25 1.015 6.25 2.11 6.25 3.32 6.25 4.414 6.25 5.547 6.25 6.68 6.25 7.734 6.25 8.867 6.25 10.04 6.25 11.132 6.25 12.188 6.25 13.242 6.25 14.297 6.25 15.468 6.25 16.485 6.25 17.539 6.25 18.476 6.25 19.532 6.25 20.586 6.25 21.601 6.25 22.578 6.25 23.477 6.25 24.375 6.25 25.351 6.25 26.407 6.25 27.304 6.25 27.813 6.25 27.656 6.25 26.992 6.25 25.977 6.25 24.922 6.25 24.023 6.25 23.125 6.25 22.188 6.25 21.21 6.25 20.157 6.25 19.101 6.25 18.126 6.25 17.109 6.25 16.094 6.25 15 6.25 13.867 6.25 12.812 6.25 11.797 6.25 10.664 6.25 9.57 6.25 8.438 6.25 7.305 6.25 6.21 6.25 5.118 6.25 3.984 6.25 2.813 6.25 1.68 6.25.546 6.25-.547 6.25-1.68 6.25-2.812 6.25-3.984 6.25-5.117 6.25-6.211 6.25-7.305 6.25-8.437 6.25-9.57 6.25-10.665 6.25-11.797 6.25-12.812 6.25-13.867 6.25-15 6.25-16.094 6.25-17.11 6.25-18.124 6.25-19.102 6.25-20.156 6.25-21.211 6.25-22.188 6.25-23.125 6.25-24.023 6.25-24.922 6.25-25.977 6.25-26.992 6.25-27.656 6.25-27.813 6.25-27.304 6.25-26.407 6.25-25.351 6.25-24.375 6.25-23.477 6.25-22.578 6.25-21.601 6.25-20.586 6.25-19.532 6.25-18.476 6.25-17.54 6.25-16.484 6.25-15.468 6.25-14.297 6.25-13.242 6.25-12.188 6.25-11.133 6.25-10.039 6.25-8.867 6.25-7.734 6.25-6.68 6.25-5.547 6.25-4.414 6.25-3.32 6.25-2.11 6.25-1.015 6.25.117 6.25 1.21 6.25 2.384 6.25 3.515 6.25 4.649 6.25 5.781 6.25 6.875 6.25 7.969 6.25 9.14 6.25 10.235 6.25 11.328 6.25 12.383 6.25 13.476 6.25 14.532 6.25 15.664 6.25 16.718 6.25 17.735 6.25 18.672 6.25 19.765 6.25 20.782 6.25 21.796 6.25 22.774 6.25 23.633 6.25 24.57 6.25 25.547 6.25 26.601 6.25 27.461 6.25 27.813 6.25 27.578 6.25 26.797 6.25 25.781 6.25 24.727 6.25 23.828 6.25 22.968 6.25 21.993 6.25 20.976 6.25 19.961 6.25 18.906 6.25 17.93 6.25 16.914 6.25 15.86 6.25 14.765 6.25 13.672 6.25 12.617 6.25 11.563 6.25 10.43 6.25 9.335 6.25 8.243 6.25 7.07 6.25 5.976 6.25 4.883 6.25 3.75 6.25 2.617 6.25 1.446 6.25.312 6.25-.742 6.25-1.914 6.25-3.047 6.25-4.219 6.25-5.351 6.25-6.406 6.25-7.54 6.25-8.671 6.25-9.766 6.25-10.898 6.25-11.993 6.25-13.046 6.25-14.102 6.25-15.195 6.25-16.29 6.25-17.343 6.25-18.32 6.25-19.297 6.25-20.352 6.25-21.445 6.25-22.383 6.25-23.281 6.25-24.18 6.25-25.156 6.25-26.211 6.25-27.149L3570 1380" transform="matrix(.1 0 0 -.1 0 275)"/></g></svg>