<svg xmlns="http://www.w3.org/2000/svg" xmlns:xlink="http://www.w3.org/1999/xlink" width="1049.231" height="366.665" viewBox="0 0 786.923 274.999"><defs><clipPath id="a"><path d="M24.5 9h.5v255h-.5zm0 0"/></clipPath><clipPath id="b"><path d="M24.5 185h340v2h-340zm0 0"/></clipPath><clipPath id="c"><path d="M24.5 9h.5v255h-.5zm0 0"/></clipPath><clipPath id="d"><path d="M109 9h1v255h-1zm0 0"/></clipPath><clipPath id="e"><path d="M194 9h1v255h-1zm0 0"/></clipPath><clipPath id="f"><path d="M279 9h1v255h-1zm0 0"/></clipPath><clipPath id="g"><path d="M364 9h.5v255h-.5zm0 0"/></clipPath><clipPath id="h"><path d="M24.5 226h340v2h-340zm0 0"/></clipPath><clipPath id="i"><path d="M24.5 185h340v2h-340zm0 0"/></clipPath><clipPath id="j"><path d="M24.5 144h340v1h-340zm0 0"/></clipPath><clipPath id="k"><path d="M24.5 102h340v2h-340zm0 0"/></clipPath><clipPath id="l"><path d="M24.5 61h340v2h-340zm0 0"/></clipPath><clipPath id="m"><path d="M24.5 20h340v1h-340zm0 0"/></clipPath><clipPath id="n"><path d="M19 268h11v6.5H19zm0 0"/></clipPath><clipPath id="q"><path d="M104 268h11v6.5h-11zm0 0"/></clipPath><clipPath id="t"><path d="M189 268h11v6.5h-11zm0 0"/></clipPath><clipPath id="u"><path d="M274 268h11v6.5h-11zm0 0"/></clipPath><clipPath id="w"><path d="M357 268h15v6.5h-15zm0 0"/></clipPath><clipPath id="z"><path d="M24.5 19h340v235h-340zm0 0"/></clipPath><clipPath id="A"><path d="M24.5 89h340v155h-340zm0 0"/></clipPath><clipPath id="B"><path d="M427.426 9H428v255h-.574zm0 0"/></clipPath><clipPath id="C"><path d="M427.426 93h340v2h-340zm0 0"/></clipPath><clipPath id="D"><path d="M427.426 9H428v255h-.574zm0 0"/></clipPath><clipPath id="E"><path d="M512 9h1v255h-1zm0 0"/></clipPath><clipPath id="F"><path d="M597 9h1v255h-1zm0 0"/></clipPath><clipPath id="G"><path d="M682 9h1v255h-1zm0 0"/></clipPath><clipPath id="H"><path d="M767 9h.426v255H767zm0 0"/></clipPath><clipPath id="I"><path d="M427.426 263h340v1h-340zm0 0"/></clipPath><clipPath id="J"><path d="M427.426 221h340v1h-340zm0 0"/></clipPath><clipPath id="K"><path d="M427.426 178h340v2h-340zm0 0"/></clipPath><clipPath id="L"><path d="M427.426 136h340v1h-340zm0 0"/></clipPath><clipPath id="M"><path d="M427.426 93h340v2h-340zm0 0"/></clipPath><clipPath id="N"><path d="M427.426 51h340v1h-340zm0 0"/></clipPath><clipPath id="O"><path d="M427.426 9h340v1h-340zm0 0"/></clipPath><clipPath id="P"><path d="M422 268h11v6.5h-11zm0 0"/></clipPath><clipPath id="Q"><path d="M507 268h11v6.5h-11zm0 0"/></clipPath><clipPath id="R"><path d="M592 268h11v6.5h-11zm0 0"/></clipPath><clipPath id="S"><path d="M677 268h11v6.5h-11zm0 0"/></clipPath><clipPath id="T"><path d="M760 268h15v6.5h-15zm0 0"/></clipPath><clipPath id="U"><path d="M408.426 262H421v6h-12.574zm0 0"/></clipPath><clipPath id="V"><path d="M408.426 219H421v7h-12.574zm0 0"/></clipPath><clipPath id="W"><path d="M408.426 177H421v6h-12.574zm0 0"/></clipPath><clipPath id="X"><path d="M408.426 134H421v6h-12.574zm0 0"/></clipPath><clipPath id="Y"><path d="M774 262h12.426v6H774zm0 0"/></clipPath><clipPath id="Z"><path d="M774 219h12.426v7H774zm0 0"/></clipPath><clipPath id="aa"><path d="M774 177h12.426v6H774zm0 0"/></clipPath><clipPath id="ab"><path d="M774 134h12.426v6H774zm0 0"/></clipPath><clipPath id="ac"><path d="M427.426 49h340v215h-340zm0 0"/></clipPath><clipPath id="ad"><path d="M436 57h331.426v207H436zm0 0"/></clipPath><symbol overflow="visible" id="o"><path style="stroke:none" d="M2.063-5.313c-.5 0-.938.22-1.22.579C.5-4.266.329-3.563.329-2.578c0 1.797.594 2.75 1.734 2.75 1.126 0 1.735-.953 1.735-2.703 0-1.031-.156-1.719-.516-2.203-.281-.375-.719-.579-1.219-.579zm0 .579c.718 0 1.062.718 1.062 2.14 0 1.516-.344 2.219-1.078 2.219C1.344-.375 1-1.109 1-2.563c0-1.453.344-2.171 1.063-2.171zm0 0"/></symbol><symbol overflow="visible" id="p"><path style="stroke:none" d="M1.438-.781H.655V0h.781zm0 0"/></symbol><symbol overflow="visible" id="r"><path style="stroke:none" d="M3.797-.656H1c.063-.438.313-.703.953-1.094l.75-.406c.75-.406 1.125-.953 1.125-1.594 0-.453-.172-.86-.484-1.14-.328-.298-.719-.423-1.219-.423-.672 0-1.172.235-1.469.688-.187.281-.265.61-.281 1.156h.656c.032-.36.078-.578.157-.75.171-.328.515-.515.921-.515.594 0 1.047.421 1.047.984 0 .422-.25.781-.719 1.063l-.687.39C.64-1.672.312-1.172.25 0h3.547zm0 0"/></symbol><symbol overflow="visible" id="s"><path style="stroke:none" d="M3.563-5.313H.828L.422-2.421h.61c.312-.375.562-.5.984-.5.703 0 1.156.485 1.156 1.281 0 .766-.438 1.235-1.156 1.235-.579 0-.938-.297-1.094-.906H.266c.093.437.156.656.312.843.313.406.844.64 1.453.64 1.063 0 1.813-.78 1.813-1.905 0-1.047-.688-1.766-1.719-1.766-.375 0-.672.094-.984.313l.218-1.485h2.204zm0 0"/></symbol><symbol overflow="visible" id="v"><path style="stroke:none" d="M3.906-5.313H.344v.641h2.875C1.953-2.859 1.438-1.75 1.03 0h.703c.297-1.703.97-3.172 2.172-4.766zm0 0"/></symbol><symbol overflow="visible" id="x"><path style="stroke:none" d="M1.938-3.781V0h.671v-5.313h-.437c-.235.813-.39.922-1.406 1.047v.485zm0 0"/></symbol><symbol overflow="visible" id="y"><path style="stroke:none" d="M2.125-2.344H.344v.547h1.781zm0 0"/></symbol></defs><path style="stroke:none;fill-rule:nonzero;fill:#fff;fill-opacity:1" d="M24.5 264h340V9h-340zm0 0"/><g clip-path="url(#a)"><path style="fill:none;stroke-width:6.25;stroke-linecap:round;stroke-linejoin:miter;stroke:#bfbfbf;stroke-opacity:1;stroke-miterlimit:10" d="M300 224.99v2550" transform="matrix(.1 0 0 -.1 -5.5 286.499)"/></g><g clip-path="url(#b)"><path style="fill:none;stroke-width:6.25;stroke-linecap:round;stroke-linejoin:miter;stroke:#bfbfbf;stroke-opacity:1;stroke-miterlimit:10" d="M300 1006.474h3400" transform="matrix(.1 0 0 -.1 -5.5 286.499)"/></g><g clip-path="url(#c)"><path style="fill:none;stroke-width:6.25;stroke-linecap:round;stroke-linejoin:miter;stroke:#bfbfbf;stroke-opacity:1;stroke-dasharray:12.5,18.75;stroke-miterlimit:10" d="M300 224.99v2550" transform="matrix(.1 0 0 -.1 -5.5 286.499)"/></g><g clip-path="url(#d)"><path style="fill:none;stroke-width:6.25;stroke-linecap:round;stroke-linejoin:miter;stroke:#bfbfbf;stroke-opacity:1;stroke-dasharray:12.5,18.75;stroke-miterlimit:10" d="M1150 224.99v2550" transform="matrix(.1 0 0 -.1 -5.5 286.499)"/></g><g clip-path="url(#e)"><path style="fill:none;stroke-width:6.25;stroke-linecap:round;stroke-linejoin:miter;stroke:#bfbfbf;stroke-opacity:1;stroke-dasharray:12.5,18.75;stroke-miterlimit:10" d="M2000 224.99v2550" transform="matrix(.1 0 0 -.1 -5.5 286.499)"/></g><g clip-path="url(#f)"><path style="fill:none;stroke-width:6.25;stroke-linecap:round;stroke-linejoin:miter;stroke:#bfbfbf;stroke-opacity:1;stroke-dasharray:12.5,18.75;stroke-miterlimit:10" d="M2850 224.99v2550" transform="matrix(.1 0 0 -.1 -5.5 286.499)"/></g><g clip-path="url(#g)"><path style="fill:none;stroke-width:6.25;stroke-linecap:round;stroke-linejoin:miter;stroke:#bfbfbf;stroke-opacity:1;stroke-dasharray:12.5,18.75;stroke-miterlimit:10" d="M3700 224.99v2550" transform="matrix(.1 0 0 -.1 -5.5 286.499)"/></g><g clip-path="url(#h)"><path style="fill:none;stroke-width:6.25;stroke-linecap:round;stroke-linejoin:miter;stroke:#bfbfbf;stroke-opacity:1;stroke-dasharray:12.5,18.75;stroke-miterlimit:10" d="M300 593.35h3400" transform="matrix(.1 0 0 -.1 -5.5 286.499)"/></g><g clip-path="url(#i)"><path style="fill:none;stroke-width:6.25;stroke-linecap:round;stroke-linejoin:miter;stroke:#bfbfbf;stroke-opacity:1;stroke-dasharray:12.5,18.75;stroke-miterlimit:10" d="M300 1006.474h3400" transform="matrix(.1 0 0 -.1 -5.5 286.499)"/></g><g clip-path="url(#j)"><path style="fill:none;stroke-width:6.25;stroke-linecap:round;stroke-linejoin:miter;stroke:#bfbfbf;stroke-opacity:1;stroke-dasharray:12.5,18.75;stroke-miterlimit:10" d="M300 1419.638h3400" transform="matrix(.1 0 0 -.1 -5.5 286.499)"/></g><g clip-path="url(#k)"><path style="fill:none;stroke-width:6.25;stroke-linecap:round;stroke-linejoin:miter;stroke:#bfbfbf;stroke-opacity:1;stroke-dasharray:12.5,18.75;stroke-miterlimit:10" d="M300 1832.803h3400" transform="matrix(.1 0 0 -.1 -5.5 286.499)"/></g><g clip-path="url(#l)"><path style="fill:none;stroke-width:6.25;stroke-linecap:round;stroke-linejoin:miter;stroke:#bfbfbf;stroke-opacity:1;stroke-dasharray:12.5,18.75;stroke-miterlimit:10" d="M300 2245.927h3400" transform="matrix(.1 0 0 -.1 -5.5 286.499)"/></g><g clip-path="url(#m)"><path style="fill:none;stroke-width:6.25;stroke-linecap:round;stroke-linejoin:miter;stroke:#bfbfbf;stroke-opacity:1;stroke-dasharray:12.5,18.75;stroke-miterlimit:10" d="M300 2659.092h3400" transform="matrix(.1 0 0 -.1 -5.5 286.499)"/></g><path style="fill:none;stroke-width:12.5;stroke-linecap:square;stroke-linejoin:miter;stroke:#000;stroke-opacity:1;stroke-miterlimit:10" d="M300 224.99h3400" transform="matrix(.1 0 0 -.1 -5.5 286.499)"/><path style="fill:none;stroke-width:6.25;stroke-linecap:butt;stroke-linejoin:miter;stroke:#000;stroke-opacity:1;stroke-miterlimit:10" d="M300 224.99v50m85-50v25m85-25v25m85-25v25m85-25v25m85-25v25m85-25v25m85-25v25m85-25v25m85-25v25m85-25v50m85-50v25m85-25v25m85-25v25m85-25v25m85-25v25m85-25v25m85-25v25m85-25v25m85-25v25m85-25v50m85-50v25m85-25v25m85-25v25m85-25v25m85-25v25m85-25v25m85-25v25m85-25v25m85-25v25m85-25v50m85-50v25m85-25v25m85-25v25m85-25v25m85-25v25m85-25v25m85-25v25m85-25v25m85-25v25m85-25v50" transform="matrix(.1 0 0 -.1 -5.5 286.499)"/><g style="fill:#000;fill-opacity:1" clip-path="url(#n)"><use xlink:href="#o" x="19.288" y="273.999"/><use xlink:href="#p" x="23.458" y="273.999"/><use xlink:href="#o" x="25.543" y="273.999"/></g><g style="fill:#000;fill-opacity:1" clip-path="url(#q)"><use xlink:href="#r" x="104.288" y="273.999"/><use xlink:href="#p" x="108.458" y="273.999"/><use xlink:href="#s" x="110.543" y="273.999"/></g><g style="fill:#000;fill-opacity:1" clip-path="url(#t)"><use xlink:href="#s" x="189.288" y="273.999"/><use xlink:href="#p" x="193.458" y="273.999"/><use xlink:href="#o" x="195.543" y="273.999"/></g><g style="fill:#000;fill-opacity:1" clip-path="url(#u)"><use xlink:href="#v" x="274.288" y="273.999"/><use xlink:href="#p" x="278.458" y="273.999"/><use xlink:href="#s" x="280.543" y="273.999"/></g><g style="fill:#000;fill-opacity:1" clip-path="url(#w)"><use xlink:href="#x" x="357.203" y="273.999"/><use xlink:href="#o" x="361.373" y="273.999"/><use xlink:href="#p" x="365.543" y="273.999"/><use xlink:href="#o" x="367.628" y="273.999"/></g><path style="fill:none;stroke-width:12.5;stroke-linecap:square;stroke-linejoin:miter;stroke:#000;stroke-opacity:1;stroke-miterlimit:10" d="M300 2774.99h3400" transform="matrix(.1 0 0 -.1 -5.5 286.499)"/><path style="fill:none;stroke-width:6.25;stroke-linecap:butt;stroke-linejoin:miter;stroke:#000;stroke-opacity:1;stroke-miterlimit:10" d="M300 2774.99v-50m85 50v-25m85 25v-25m85 25v-25m85 25v-25m85 25v-25m85 25v-25m85 25v-25m85 25v-25m85 25v-25m85 25v-50m85 50v-25m85 25v-25m85 25v-25m85 25v-25m85 25v-25m85 25v-25m85 25v-25m85 25v-25m85 25v-25m85 25v-50m85 50v-25m85 25v-25m85 25v-25m85 25v-25m85 25v-25m85 25v-25m85 25v-25m85 25v-25m85 25v-25m85 25v-50m85 50v-25m85 25v-25m85 25v-25m85 25v-25m85 25v-25m85 25v-25m85 25v-25m85 25v-25m85 25v-25m85 25v-50" transform="matrix(.1 0 0 -.1 -5.5 286.499)"/><g style="fill:#000;fill-opacity:1"><use xlink:href="#o" x="19.288" y="6.499"/><use xlink:href="#p" x="23.458" y="6.499"/><use xlink:href="#o" x="25.543" y="6.499"/></g><g style="fill:#000;fill-opacity:1"><use xlink:href="#r" x="104.288" y="6.499"/><use xlink:href="#p" x="108.458" y="6.499"/><use xlink:href="#s" x="110.543" y="6.499"/></g><g style="fill:#000;fill-opacity:1"><use xlink:href="#s" x="189.288" y="6.499"/><use xlink:href="#p" x="193.458" y="6.499"/><use xlink:href="#o" x="195.543" y="6.499"/></g><g style="fill:#000;fill-opacity:1"><use xlink:href="#v" x="274.288" y="6.499"/><use xlink:href="#p" x="278.458" y="6.499"/><use xlink:href="#s" x="280.543" y="6.499"/></g><g style="fill:#000;fill-opacity:1"><use xlink:href="#x" x="357.203" y="6.499"/><use xlink:href="#o" x="361.373" y="6.499"/><use xlink:href="#p" x="365.543" y="6.499"/><use xlink:href="#o" x="367.628" y="6.499"/></g><path style="fill:none;stroke-width:12.5;stroke-linecap:square;stroke-linejoin:miter;stroke:#000;stroke-opacity:1;stroke-miterlimit:10" d="M300 224.99v2550" transform="matrix(.1 0 0 -.1 -5.5 286.499)"/><path style="fill:none;stroke-width:6.25;stroke-linecap:butt;stroke-linejoin:miter;stroke:#000;stroke-opacity:1;stroke-miterlimit:10" d="M300 262.803h25m-25 41.327h25m-25 41.329h25m-25 41.289h25m-25 41.328h25m-25 41.328h25m-25 41.289h25m-25 41.328h25m-25 41.329h50m-50 41.288h25m-25 41.329h25m-25 41.328h25m-25 41.289h25m-25 41.328h25m-25 41.328h25m-25 41.29h25m-25 41.327h25m-25 41.328h25m-25 41.289h50m-50 41.329h25m-25 41.327h25m-25 41.29h25m-25 41.328h25m-25 41.328h25m-25 41.289h25m-25 41.328h25m-25 41.328h25m-25 41.289h25m-25 41.328h50m-50 41.329h25m-25 41.289h25m-25 41.328h25m-25 41.328h25m-25 41.288h25m-25 41.33h25m-25 41.327h25m-25 41.289h25m-25 41.328h25m-25 41.329h50m-50 41.289h25m-25 41.328h25m-25 41.328h25m-25 41.289h25m-25 41.328h25m-25 41.328h25m-25 41.289h25m-25 41.328h25m-25 41.328h25m-25 41.289h50m-50 41.329h25m-25 41.328h25m-25 41.289h25m-25 41.327h25m-25 41.33h25m-25 41.288h25m-25 41.328h25m-25 41.328h25m-25 41.289h25m-25 41.329h50m-50 41.328h25m-25 41.289h25" transform="matrix(.1 0 0 -.1 -5.5 286.499)"/><g style="fill:#000;fill-opacity:1"><use xlink:href="#y" x="1.158" y="230.874"/><use xlink:href="#o" x="3.656" y="230.874"/><use xlink:href="#p" x="7.826" y="230.874"/><use xlink:href="#r" x="9.911" y="230.874"/><use xlink:href="#s" x="14.081" y="230.874"/></g><g style="fill:#000;fill-opacity:1"><use xlink:href="#o" x="3.655" y="188.999"/><use xlink:href="#p" x="7.825" y="188.999"/><use xlink:href="#o" x="9.91" y="188.999"/><use xlink:href="#o" x="14.08" y="188.999"/></g><g style="fill:#000;fill-opacity:1"><use xlink:href="#o" x="3.655" y="147.749"/><use xlink:href="#p" x="7.825" y="147.749"/><use xlink:href="#r" x="9.91" y="147.749"/><use xlink:href="#s" x="14.08" y="147.749"/></g><g style="fill:#000;fill-opacity:1"><use xlink:href="#o" x="3.655" y="106.499"/><use xlink:href="#p" x="7.825" y="106.499"/><use xlink:href="#s" x="9.91" y="106.499"/><use xlink:href="#o" x="14.08" y="106.499"/></g><g style="fill:#000;fill-opacity:1"><use xlink:href="#o" x="3.655" y="65.249"/><use xlink:href="#p" x="7.825" y="65.249"/><use xlink:href="#v" x="9.91" y="65.249"/><use xlink:href="#s" x="14.08" y="65.249"/></g><g style="fill:#000;fill-opacity:1"><use xlink:href="#x" x="3.655" y="23.999"/><use xlink:href="#p" x="7.825" y="23.999"/><use xlink:href="#o" x="9.91" y="23.999"/><use xlink:href="#o" x="14.08" y="23.999"/></g><path style="fill:none;stroke-width:12.5;stroke-linecap:square;stroke-linejoin:miter;stroke:#000;stroke-opacity:1;stroke-miterlimit:10" d="M3700 224.99v2550" transform="matrix(.1 0 0 -.1 -5.5 286.499)"/><path style="fill:none;stroke-width:6.25;stroke-linecap:butt;stroke-linejoin:miter;stroke:#000;stroke-opacity:1;stroke-miterlimit:10" d="M3700 262.803h-25m25 41.327h-25m25 41.329h-25m25 41.289h-25m25 41.328h-25m25 41.328h-25m25 41.289h-25m25 41.328h-25m25 41.329h-50m50 41.288h-25m25 41.329h-25m25 41.328h-25m25 41.289h-25m25 41.328h-25m25 41.328h-25m25 41.29h-25m25 41.327h-25m25 41.328h-25m25 41.289h-50m50 41.329h-25m25 41.327h-25m25 41.29h-25m25 41.328h-25m25 41.328h-25m25 41.289h-25m25 41.328h-25m25 41.328h-25m25 41.289h-25m25 41.328h-50m50 41.329h-25m25 41.289h-25m25 41.328h-25m25 41.328h-25m25 41.288h-25m25 41.33h-25m25 41.327h-25m25 41.289h-25m25 41.328h-25m25 41.329h-50m50 41.289h-25m25 41.328h-25m25 41.328h-25m25 41.289h-25m25 41.328h-25m25 41.328h-25m25 41.289h-25m25 41.328h-25m25 41.328h-25m25 41.289h-50m50 41.329h-25m25 41.328h-25m25 41.289h-25m25 41.327h-25m25 41.33h-25m25 41.288h-25m25 41.328h-25m25 41.328h-25m25 41.289h-25m25 41.329h-50m50 41.328h-25m25 41.289h-25" transform="matrix(.1 0 0 -.1 -5.5 286.499)"/><g style="fill:#000;fill-opacity:1"><use xlink:href="#y" x="370.75" y="230.874"/><use xlink:href="#o" x="373.248" y="230.874"/><use xlink:href="#p" x="377.418" y="230.874"/><use xlink:href="#r" x="379.502" y="230.874"/><use xlink:href="#s" x="383.673" y="230.874"/></g><g style="fill:#000;fill-opacity:1"><use xlink:href="#o" x="370.75" y="188.999"/><use xlink:href="#p" x="374.92" y="188.999"/><use xlink:href="#o" x="377.005" y="188.999"/><use xlink:href="#o" x="381.175" y="188.999"/></g><g style="fill:#000;fill-opacity:1"><use xlink:href="#o" x="370.75" y="147.749"/><use xlink:href="#p" x="374.92" y="147.749"/><use xlink:href="#r" x="377.005" y="147.749"/><use xlink:href="#s" x="381.175" y="147.749"/></g><g style="fill:#000;fill-opacity:1"><use xlink:href="#o" x="370.75" y="106.499"/><use xlink:href="#p" x="374.92" y="106.499"/><use xlink:href="#s" x="377.005" y="106.499"/><use xlink:href="#o" x="381.175" y="106.499"/></g><g style="fill:#000;fill-opacity:1"><use xlink:href="#o" x="370.75" y="65.249"/><use xlink:href="#p" x="374.92" y="65.249"/><use xlink:href="#v" x="377.005" y="65.249"/><use xlink:href="#s" x="381.175" y="65.249"/></g><g style="fill:#000;fill-opacity:1"><use xlink:href="#x" x="370.75" y="23.999"/><use xlink:href="#p" x="374.92" y="23.999"/><use xlink:href="#o" x="377.005" y="23.999"/><use xlink:href="#o" x="381.175" y="23.999"/></g><g clip-path="url(#z)"><path style="fill:none;stroke-width:12.5;stroke-linecap:round;stroke-linejoin:round;stroke:#00008b;stroke-opacity:1;stroke-miterlimit:10" d="m300 2659.092 6.25-.157 6.25-.39 6.25-.703 6.25-.977 6.25-1.25 6.25-1.563 6.25-1.796 6.25-2.07 6.25-2.384 6.25-2.656 6.25-2.89 6.25-3.204 6.25-3.476 6.25-3.75 6.25-3.984 6.25-4.297 6.25-4.57 6.25-4.805 6.25-5.118 6.25-5.351 6.25-5.625 6.25-5.86 6.25-6.171 6.25-6.407 6.25-6.64 6.25-6.953 6.25-7.149 6.25-7.46 6.25-7.696 6.25-7.93 6.25-8.203 6.25-8.398 6.25-8.672 6.25-8.945 6.25-9.141 6.25-9.414 6.25-9.61 6.25-9.882 6.25-10.078 6.25-10.313 6.25-10.547 6.25-10.742 6.25-11.016 6.25-11.172 6.25-11.445 6.25-11.601 6.25-11.836 6.25-12.032 6.25-12.265 6.25-12.422 6.25-12.617 6.25-12.852 6.25-13.008 6.25-13.203 6.25-13.398 6.25-13.555 6.25-13.75 6.25-13.906 6.25-14.102 6.25-14.218 6.25-14.415 6.25-14.609 6.25-14.687 6.25-14.883 6.25-15.04 6.25-15.156 6.25-15.312 6.25-15.469 6.25-15.547 6.25-15.703 6.25-15.86 6.25-15.937 6.25-16.093 6.25-16.172 6.25-16.29 6.25-16.367 6.25-16.523 6.25-16.601 6.25-16.68 6.25-16.758 6.25-16.875 6.25-16.953 6.25-16.992 6.25-17.11 6.25-17.148 6.25-17.227 6.25-17.265 6.25-17.344 6.25-17.383 12.5-34.922 12.5-35.078 6.25-17.578 12.5-35.234 18.75-52.97 6.25-17.694 6.25-17.657 6.25-17.695 18.75-52.969 6.25-17.578 6.25-17.617 12.5-35.078 6.25-17.5 6.25-17.461 6.25-17.422 6.25-17.344 6.25-17.304 6.25-17.266 6.25-17.188 6.25-17.109 6.25-17.031 6.25-16.992 6.25-16.914 6.25-16.836 6.25-16.72 6.25-16.64 6.25-16.562 6.25-16.485 6.25-16.328 6.25-16.289 6.25-16.133 6.25-16.054 6.25-15.938 6.25-15.781 6.25-15.703 6.25-15.547 6.25-15.469 6.25-15.273 6.25-15.196 6.25-15 6.25-14.921 6.25-14.727 6.25-14.61 6.25-14.452 6.25-14.297 6.25-14.102 6.25-13.984 6.25-13.828 6.25-13.633 6.25-13.477 6.25-13.32 6.25-13.125 6.25-12.969 6.25-12.773 6.25-12.617 6.25-12.422 6.25-12.188 6.25-12.07 6.25-11.836 6.25-11.64 6.25-11.485 6.25-11.25 6.25-11.055 6.25-10.86 6.25-10.624 6.25-10.469 6.25-10.234 6.25-10.04 6.25-9.804 6.25-9.61 6.25-9.374 6.25-9.18 6.25-8.945 6.25-8.75 6.25-8.516 6.25-8.281 6.25-8.047 6.25-7.852 6.25-7.617 6.25-7.422 6.25-7.148 6.25-6.953 6.25-6.68 6.25-6.484 6.25-6.25 6.25-6.016 6.25-5.781 6.25-5.547 6.25-5.313 6.25-5.117 6.25-4.844 6.25-4.609 6.25-4.375 6.25-4.18 6.25-3.906 6.25-3.672 6.25-3.437 6.25-3.243 6.25-2.968 6.25-2.735 6.25-2.5 6.25-2.304 6.25-2.032 6.25-1.835 6.25-1.563 6.25-1.367 6.25-1.133 6.25-.898 6.25-.664 6.25-.43 6.25-.235 6.25.04 6.25.234 6.25.469 6.25.664 6.25.898 6.25 1.133 6.25 1.328 6.25 1.563 6.25 1.757 6.25 1.993 6.25 2.226 6.25 2.383 6.25 2.617 6.25 2.813 6.25 3.047 6.25 3.203 6.25 3.437 6.25 3.633 6.25 3.828 6.25 4.024 6.25 4.218 6.25 4.414 6.25 4.61 6.25 4.765 6.25 4.961 6.25 5.156 6.25 5.313 6.25 5.508 6.25 5.664 6.25 5.86 6.25 6.015 6.25 6.172 6.25 6.367 6.25 6.523 6.25 6.641 6.25 6.836 6.25 6.953 6.25 7.149 6.25 7.265 6.25 7.422 6.25 7.54 6.25 7.694 6.25 7.813 6.25 7.969 6.25 8.086 6.25 8.242 6.25 8.32 6.25 8.477 6.25 8.554 6.25 8.672 6.25 8.79 6.25 8.905 6.25 9.024 6.25 9.101 6.25 9.22 6.25 9.296 6.25 9.375 6.25 9.453 6.25 9.57 6.25 9.649 6.25 9.688 6.25 9.804 6.25 9.844 6.25 9.922 6.25 9.96 6.25 10.04 6.25 10.117 6.25 10.156 6.25 10.196 6.25 10.234 6.25 10.273 12.5 20.703 12.5 20.782 6.25 10.469 6.25 10.43 6.25 10.507 6.25 10.469 18.75 31.523 6.25 10.547 12.5 21.016 6.25 10.468 6.25 10.508 6.25 10.43 6.25 10.469 6.25 10.43 6.25 10.39 6.25 10.352 12.5 20.625 12.5 20.468 6.25 10.157 6.25 10.117 6.25 10.039 6.25 10 6.25 9.96 6.25 9.884 6.25 9.804 6.25 9.766 6.25 9.687 6.25 9.61 6.25 9.531 6.25 9.453 6.25 9.375 6.25 9.258 6.25 9.219 6.25 9.101 6.25 8.985 6.25 8.906 6.25 8.828 6.25 8.71 6.25 8.634 6.25 8.476 6.25 8.399 6.25 8.281 6.25 8.164 6.25 8.086 6.25 7.93 6.25 7.812 6.25 7.696 6.25 7.539 6.25 7.46 6.25 7.305 6.25 7.188 6.25 7.03 6.25 6.915 6.25 6.758 6.25 6.64 6.25 6.524 6.25 6.328 6.25 6.21 6.25 6.056 6.25 5.937 6.25 5.781 6.25 5.586 6.25 5.47 6.25 5.312 6.25 5.156 6.25 5 6.25 4.883 6.25 4.687 6.25 4.531 6.25 4.375 6.25 4.18 6.25 4.063 6.25 3.867 6.25 3.75 6.25 3.554 6.25 3.36 6.25 3.242 6.25 3.047 6.25 2.89 6.25 2.735 6.25 2.578 6.25 2.383 6.25 2.226 6.25 2.032 6.25 1.875 6.25 1.718 6.25 1.563 6.25 1.367 6.25 1.211 6.25 1.016 6.25.898 6.25.703 6.25.508 6.25.352 6.25.195 6.25.039 6.25-.156 6.25-.313 6.25-.469 6.25-.625 6.25-.82 6.25-.976 6.25-1.133 6.25-1.29 6.25-1.445 6.25-1.64 6.25-1.797 6.25-1.914 6.25-2.11 6.25-2.265 6.25-2.422 6.25-2.54 6.25-2.734 6.25-2.851 6.25-3.047 6.25-3.164 6.25-3.32 6.25-3.477 6.25-3.594 6.25-3.75 6.25-3.906 6.25-4.062 6.25-4.18 6.25-4.297 6.25-4.453 6.25-4.57 6.25-4.727 6.25-4.844 6.25-4.96 6.25-5.118 6.25-5.195 6.25-5.352 6.25-5.468 6.25-5.586 6.25-5.704 6.25-5.78 6.25-5.938 6.25-6.016 6.25-6.172 6.25-6.21 6.25-6.368 6.25-6.445 6.25-6.524 6.25-6.64 6.25-6.719 6.25-6.797 6.25-6.914 6.25-6.992 6.25-7.07 6.25-7.149 6.25-7.226 6.25-7.305 6.25-7.383 6.25-7.46 6.25-7.5 6.25-7.579 6.25-7.656 6.25-7.696 6.25-7.734 6.25-7.812 6.25-7.852 12.5-15.86 6.25-8.007 12.5-16.094 12.5-16.25 6.25-8.164 12.5-16.406 12.5-16.485 12.5-16.562 6.25-8.32 12.5-16.563 6.25-8.32 6.25-8.282 6.25-8.32 18.75-24.844 6.25-8.242 6.25-8.203 6.25-8.242 12.5-16.328 12.5-16.25 12.5-16.094 6.25-8.008 6.25-7.93 12.5-15.78 12.5-15.548 6.25-7.695 6.25-7.656 6.25-7.578 6.25-7.54 6.25-7.46 6.25-7.383 6.25-7.305 6.25-7.265 6.25-7.188 6.25-7.07 6.25-7.031 6.25-6.954 6.25-6.875 6.25-6.757 6.25-6.72 6.25-6.6 6.25-6.485 6.25-6.445 6.25-6.328 6.25-6.211 6.25-6.133 6.25-6.016 6.25-5.937 6.25-5.82 6.25-5.743 6.25-5.586 6.25-5.508 6.25-5.39 6.25-5.274 6.25-5.195 6.25-5.04 6.25-4.92 6.25-4.806 6.25-4.726 6.25-4.57 6.25-4.454 6.25-4.336 6.25-4.18 6.25-4.1 6.25-3.946 6.25-3.828 6.25-3.711 6.25-3.555 6.25-3.437 6.25-3.282 6.25-3.203 6.25-3.047 6.25-2.89 6.25-2.774 6.25-2.617 6.25-2.5 6.25-2.344 6.25-2.226 6.25-2.11 6.25-1.953 6.25-1.797 6.25-1.68 6.25-1.523 6.25-1.367" transform="matrix(.1 0 0 -.1 -5.5 286.499)"/></g><g clip-path="url(#A)"><path style="fill:none;stroke-width:12.5;stroke-linecap:round;stroke-linejoin:round;stroke:#006400;stroke-opacity:1;stroke-miterlimit:10" d="m300 1006.474 12.5 30.391 6.25 15.156 6.25 15.196 6.25 15.156 12.5 30.234 6.25 15.078 6.25 15.04 12.5 30 6.25 14.921 6.25 14.883 6.25 14.844 6.25 14.804 6.25 14.727 6.25 14.649 6.25 14.609 6.25 14.531 6.25 14.492 6.25 14.375 6.25 14.297 6.25 14.219 6.25 14.18 6.25 14.023 6.25 13.945 6.25 13.868 6.25 13.75 6.25 13.671 6.25 13.555 6.25 13.438 6.25 13.32 6.25 13.203 6.25 13.086 6.25 12.969 6.25 12.812 6.25 12.735 6.25 12.578 6.25 12.422 6.25 12.304 6.25 12.149 6.25 11.992 6.25 11.836 6.25 11.719 6.25 11.562 6.25 11.406 6.25 11.211 6.25 11.094 6.25 10.899 6.25 10.742 6.25 10.547 6.25 10.39 6.25 10.235 6.25 10.039 6.25 9.843 6.25 9.688 6.25 9.492 6.25 9.297 6.25 9.14 6.25 8.907 6.25 8.71 6.25 8.555 6.25 8.32 6.25 8.126 6.25 7.93 6.25 7.734 6.25 7.539 6.25 7.305 6.25 7.109 6.25 6.914 6.25 6.68 6.25 6.484 6.25 6.25 6.25 6.016 6.25 5.82 6.25 5.625 6.25 5.39 6.25 5.157 6.25 4.96 6.25 4.688 6.25 4.532 6.25 4.257 6.25 4.024 6.25 3.828 6.25 3.594 6.25 3.36 6.25 3.163 6.25 2.89 6.25 2.696 6.25 2.422 6.25 2.226 6.25 1.993 6.25 1.797 6.25 1.523 6.25 1.29 6.25 1.054 6.25.86 6.25.585 6.25.39 6.25.157 6.25-.078 6.25-.313 6.25-.507 6.25-.782 6.25-.976 6.25-1.211 6.25-1.446 6.25-1.68 6.25-1.874 6.25-2.149 6.25-2.304 6.25-2.579 6.25-2.773 6.25-3.008 6.25-3.203 6.25-3.437 6.25-3.633 6.25-3.867 6.25-4.102 6.25-4.258 6.25-4.531 6.25-4.688 6.25-4.921 6.25-5.079 6.25-5.351 6.25-5.508 6.25-5.742 6.25-5.899 6.25-6.093 6.25-6.328 6.25-6.485 6.25-6.68 6.25-6.874 6.25-7.07 6.25-7.227 6.25-7.422 6.25-7.617 6.25-7.774 6.25-7.93 6.25-8.124 6.25-8.282 6.25-8.476 6.25-8.594 6.25-8.79 6.25-8.905 6.25-9.102 6.25-9.258 6.25-9.375 6.25-9.531 6.25-9.688 6.25-9.804 6.25-9.961 6.25-10.078 6.25-10.235 6.25-10.351 6.25-10.469 6.25-10.586 6.25-10.742 6.25-10.82 6.25-10.938 6.25-11.055 6.25-11.171 6.25-11.25 6.25-11.368 6.25-11.445 6.25-11.562 6.25-11.641 6.25-11.719 6.25-11.836 6.25-11.875 6.25-11.953 6.25-12.07 6.25-12.11 6.25-12.148 6.25-12.227 6.25-12.304 6.25-12.344 6.25-12.383 6.25-12.46 6.25-12.5 12.5-25.079 12.5-25.234 6.25-12.657 12.5-25.39 6.25-12.735 6.25-12.695 12.5-25.469 6.25-12.773 18.75-38.203 12.5-25.39 18.75-37.97 12.5-25.156 12.5-25 12.5-24.843 12.5-24.61 6.25-12.226 6.25-12.188 6.25-12.11 6.25-12.03 6.25-11.993 6.25-11.875 6.25-11.836 6.25-11.718 6.25-11.68 6.25-11.563 6.25-11.484 6.25-11.406 6.25-11.29 6.25-11.171 6.25-11.094 6.25-11.016 6.25-10.898 6.25-10.781 6.25-10.664 6.25-10.547 6.25-10.43 6.25-10.312 6.25-10.196 6.25-10.078 6.25-9.922 6.25-9.804 6.25-9.688 6.25-9.531 6.25-9.414 6.25-9.258 6.25-9.102 6.25-8.984 6.25-8.828 6.25-8.672 6.25-8.555 6.25-8.359 6.25-8.242 6.25-8.047 6.25-7.93 6.25-7.734 6.25-7.617 6.25-7.422 6.25-7.227 6.25-7.11 6.25-6.913 6.25-6.758 6.25-6.602 6.25-6.406 6.25-6.21 6.25-6.055 6.25-5.899 6.25-5.703 6.25-5.547 6.25-5.312 6.25-5.196 6.25-4.96 6.25-4.805 6.25-4.61 6.25-4.453 6.25-4.219 6.25-4.062 6.25-3.906 6.25-3.672 6.25-3.477 6.25-3.32 6.25-3.125 6.25-2.93 6.25-2.734 6.25-2.578 6.25-2.344 6.25-2.188 6.25-1.992 6.25-1.797 6.25-1.601 6.25-1.406 6.25-1.25 6.25-1.016 6.25-.86 6.25-.663 6.25-.47 6.25-.312 6.25-.078 6.25.078 6.25.274 6.25.469 6.25.625 6.25.859 6.25.976 6.25 1.211 6.25 1.368 6.25 1.562 6.25 1.719 6.25 1.914 6.25 2.07 6.25 2.266 6.25 2.46 6.25 2.579 6.25 2.812 6.25 2.93 6.25 3.125 6.25 3.281 6.25 3.477 6.25 3.594 6.25 3.789 6.25 3.945 6.25 4.102 6.25 4.257 6.25 4.375 6.25 4.57 6.25 4.727 6.25 4.883 6.25 5 6.25 5.156 6.25 5.313 6.25 5.43 6.25 5.585 6.25 5.743 6.25 5.859 6.25 5.977 6.25 6.132 6.25 6.25 6.25 6.368 6.25 6.484 6.25 6.64 6.25 6.72 6.25 6.874 6.25 6.953 6.25 7.07 6.25 7.188 6.25 7.305 6.25 7.383 6.25 7.5 6.25 7.617 6.25 7.695 6.25 7.774 6.25 7.851 6.25 7.969 6.25 8.047 6.25 8.125 6.25 8.203 6.25 8.281 6.25 8.36 6.25 8.398 6.25 8.516 6.25 8.554 6.25 8.594 6.25 8.672 12.5 17.5 6.25 8.828 12.5 17.813 6.25 8.945 12.5 18.047 6.25 9.062 12.5 18.203 6.25 9.141 18.75 27.54 6.25 9.218 6.25 9.18 25 36.875 25 36.718 12.5 18.282 18.75 27.187 12.5 17.969 12.5 17.812 6.25 8.828 6.25 8.79 6.25 8.75 6.25 8.71 6.25 8.633 6.25 8.555 6.25 8.516 6.25 8.476 6.25 8.36 6.25 8.32 6.25 8.281 6.25 8.164 6.25 8.086 6.25 8.008 6.25 7.93 6.25 7.851 6.25 7.774 6.25 7.695 6.25 7.578 6.25 7.5 6.25 7.422 6.25 7.305 6.25 7.187 6.25 7.11 6.25 6.992 6.25 6.914 6.25 6.797 6.25 6.68 6.25 6.562 6.25 6.445 6.25 6.328 6.25 6.211 6.25 6.094 6.25 6.015 6.25 5.86 6.25 5.742 6.25 5.586 6.25 5.508 6.25 5.351 6.25 5.235 6.25 5.078 6.25 4.96 6.25 4.845 6.25 4.687 6.25 4.57 6.25 4.414 6.25 4.258 6.25 4.14 6.25 4.024 6.25 3.868 6.25 3.71 6.25 3.555 6.25 3.438 6.25 3.28 6.25 3.126 6.25 3.008 6.25 2.851 6.25 2.696 6.25 2.539 6.25 2.382 6.25 2.266 6.25 2.11 6.25 1.914 6.25 1.796 6.25 1.68 6.25 1.484 6.25 1.329 6.25 1.21 6.25 1.016 6.25.899 6.25.742 6.25.586 6.25.43 6.25.273 6.25.117h6.25l6.25-.156 6.25-.352 6.25-.43 6.25-.624 6.25-.782 6.25-.898 6.25-1.055 6.25-1.21 6.25-1.368 6.25-1.484 6.25-1.68 6.25-1.758 6.25-1.953 6.25-2.07 6.25-2.188 6.25-2.383 6.25-2.5 6.25-2.617 6.25-2.773 6.25-2.89 6.25-3.048 6.25-3.164 6.25-3.281 6.25-3.438 6.25-3.554 6.25-3.711 6.25-3.79 6.25-3.945 6.25-4.062 6.25-4.18 6.25-4.297 6.25-4.414 6.25-4.53 6.25-4.65 6.25-4.765 6.25-4.883 6.25-5 6.25-5.078 6.25-5.195 6.25-5.313 6.25-5.39 6.25-5.508 6.25-5.586 6.25-5.703 6.25-5.782 6.25-5.898 6.25-5.976 6.25-6.016 6.25-6.172 6.25-6.21 6.25-6.33 6.25-6.366 6.25-6.446 6.25-6.562 6.25-6.602 6.25-6.64 6.25-6.758 6.25-6.797 6.25-6.875 12.5-13.906 12.5-14.14 6.25-7.15 6.25-7.187 12.5-14.531 6.25-7.305 12.5-14.765 6.25-7.422 6.25-7.461 12.5-15 12.5-15.078 18.75-22.735" transform="matrix(.1 0 0 -.1 -5.5 286.499)"/></g><path style="stroke:none;fill-rule:nonzero;fill:#fff;fill-opacity:1" d="M427.426 264h340V9h-340zm0 0"/><g clip-path="url(#B)"><path style="fill:none;stroke-width:6.25;stroke-linecap:round;stroke-linejoin:miter;stroke:#bfbfbf;stroke-opacity:1;stroke-miterlimit:10" d="M300.018 224.99v2550" transform="matrix(.1 0 0 -.1 397.424 286.499)"/></g><g clip-path="url(#C)"><path style="fill:none;stroke-width:6.25;stroke-linecap:round;stroke-linejoin:miter;stroke:#bfbfbf;stroke-opacity:1;stroke-miterlimit:10" d="M300.018 1924.99h3400" transform="matrix(.1 0 0 -.1 397.424 286.499)"/></g><g clip-path="url(#D)"><path style="fill:none;stroke-width:6.25;stroke-linecap:round;stroke-linejoin:miter;stroke:#bfbfbf;stroke-opacity:1;stroke-dasharray:12.5,18.75;stroke-miterlimit:10" d="M300.018 224.99v2550" transform="matrix(.1 0 0 -.1 397.424 286.499)"/></g><g clip-path="url(#E)"><path style="fill:none;stroke-width:6.25;stroke-linecap:round;stroke-linejoin:miter;stroke:#bfbfbf;stroke-opacity:1;stroke-dasharray:12.5,18.75;stroke-miterlimit:10" d="M1150.018 224.99v2550" transform="matrix(.1 0 0 -.1 397.424 286.499)"/></g><g clip-path="url(#F)"><path style="fill:none;stroke-width:6.25;stroke-linecap:round;stroke-linejoin:miter;stroke:#bfbfbf;stroke-opacity:1;stroke-dasharray:12.5,18.75;stroke-miterlimit:10" d="M2000.018 224.99v2550" transform="matrix(.1 0 0 -.1 397.424 286.499)"/></g><g clip-path="url(#G)"><path style="fill:none;stroke-width:6.25;stroke-linecap:round;stroke-linejoin:miter;stroke:#bfbfbf;stroke-opacity:1;stroke-dasharray:12.5,18.75;stroke-miterlimit:10" d="M2850.018 224.99v2550" transform="matrix(.1 0 0 -.1 397.424 286.499)"/></g><g clip-path="url(#H)"><path style="fill:none;stroke-width:6.25;stroke-linecap:round;stroke-linejoin:miter;stroke:#bfbfbf;stroke-opacity:1;stroke-dasharray:12.5,18.75;stroke-miterlimit:10" d="M3700.018 224.99v2550" transform="matrix(.1 0 0 -.1 397.424 286.499)"/></g><g clip-path="url(#I)"><path style="fill:none;stroke-width:6.25;stroke-linecap:round;stroke-linejoin:miter;stroke:#bfbfbf;stroke-opacity:1;stroke-dasharray:12.5,18.75;stroke-miterlimit:10" d="M300.018 224.99h3400" transform="matrix(.1 0 0 -.1 397.424 286.499)"/></g><g clip-path="url(#J)"><path style="fill:none;stroke-width:6.25;stroke-linecap:round;stroke-linejoin:miter;stroke:#bfbfbf;stroke-opacity:1;stroke-dasharray:12.5,18.75;stroke-miterlimit:10" d="M300.018 649.99h3400" transform="matrix(.1 0 0 -.1 397.424 286.499)"/></g><g clip-path="url(#K)"><path style="fill:none;stroke-width:6.25;stroke-linecap:round;stroke-linejoin:miter;stroke:#bfbfbf;stroke-opacity:1;stroke-dasharray:12.5,18.75;stroke-miterlimit:10" d="M300.018 1074.99h3400" transform="matrix(.1 0 0 -.1 397.424 286.499)"/></g><g clip-path="url(#L)"><path style="fill:none;stroke-width:6.25;stroke-linecap:round;stroke-linejoin:miter;stroke:#bfbfbf;stroke-opacity:1;stroke-dasharray:12.5,18.75;stroke-miterlimit:10" d="M300.018 1499.99h3400" transform="matrix(.1 0 0 -.1 397.424 286.499)"/></g><g clip-path="url(#M)"><path style="fill:none;stroke-width:6.25;stroke-linecap:round;stroke-linejoin:miter;stroke:#bfbfbf;stroke-opacity:1;stroke-dasharray:12.5,18.75;stroke-miterlimit:10" d="M300.018 1924.99h3400" transform="matrix(.1 0 0 -.1 397.424 286.499)"/></g><g clip-path="url(#N)"><path style="fill:none;stroke-width:6.25;stroke-linecap:round;stroke-linejoin:miter;stroke:#bfbfbf;stroke-opacity:1;stroke-dasharray:12.5,18.75;stroke-miterlimit:10" d="M300.018 2349.99h3400" transform="matrix(.1 0 0 -.1 397.424 286.499)"/></g><g clip-path="url(#O)"><path style="fill:none;stroke-width:6.25;stroke-linecap:round;stroke-linejoin:miter;stroke:#bfbfbf;stroke-opacity:1;stroke-dasharray:12.5,18.75;stroke-miterlimit:10" d="M300.018 2774.99h3400" transform="matrix(.1 0 0 -.1 397.424 286.499)"/></g><path style="fill:none;stroke-width:12.5;stroke-linecap:square;stroke-linejoin:miter;stroke:#000;stroke-opacity:1;stroke-miterlimit:10" d="M300.018 224.99h3400" transform="matrix(.1 0 0 -.1 397.424 286.499)"/><path style="fill:none;stroke-width:6.25;stroke-linecap:butt;stroke-linejoin:miter;stroke:#000;stroke-opacity:1;stroke-miterlimit:10" d="M300.018 224.99v50m85-50v25m85-25v25m85-25v25m85-25v25m85-25v25m85-25v25m85-25v25m85-25v25m85-25v25m85-25v50m85-50v25m85-25v25m85-25v25m85-25v25m85-25v25m85-25v25m85-25v25m85-25v25m85-25v25m85-25v50m85-50v25m85-25v25m85-25v25m85-25v25m85-25v25m85-25v25m85-25v25m85-25v25m85-25v25m85-25v50m85-50v25m85-25v25m85-25v25m85-25v25m85-25v25m85-25v25m85-25v25m85-25v25m85-25v25m85-25v50" transform="matrix(.1 0 0 -.1 397.424 286.499)"/><g style="fill:#000;fill-opacity:1" clip-path="url(#P)"><use xlink:href="#o" x="422.212" y="273.999"/><use xlink:href="#p" x="426.382" y="273.999"/><use xlink:href="#o" x="428.467" y="273.999"/></g><g style="fill:#000;fill-opacity:1" clip-path="url(#Q)"><use xlink:href="#r" x="507.212" y="273.999"/><use xlink:href="#p" x="511.382" y="273.999"/><use xlink:href="#s" x="513.467" y="273.999"/></g><g style="fill:#000;fill-opacity:1" clip-path="url(#R)"><use xlink:href="#s" x="592.212" y="273.999"/><use xlink:href="#p" x="596.382" y="273.999"/><use xlink:href="#o" x="598.467" y="273.999"/></g><g style="fill:#000;fill-opacity:1" clip-path="url(#S)"><use xlink:href="#v" x="677.212" y="273.999"/><use xlink:href="#p" x="681.382" y="273.999"/><use xlink:href="#s" x="683.467" y="273.999"/></g><g style="fill:#000;fill-opacity:1" clip-path="url(#T)"><use xlink:href="#x" x="760.127" y="273.999"/><use xlink:href="#o" x="764.297" y="273.999"/><use xlink:href="#p" x="768.467" y="273.999"/><use xlink:href="#o" x="770.552" y="273.999"/></g><path style="fill:none;stroke-width:12.5;stroke-linecap:square;stroke-linejoin:miter;stroke:#000;stroke-opacity:1;stroke-miterlimit:10" d="M300.018 2774.99h3400" transform="matrix(.1 0 0 -.1 397.424 286.499)"/><path style="fill:none;stroke-width:6.25;stroke-linecap:butt;stroke-linejoin:miter;stroke:#000;stroke-opacity:1;stroke-miterlimit:10" d="M300.018 2774.99v-50m85 50v-25m85 25v-25m85 25v-25m85 25v-25m85 25v-25m85 25v-25m85 25v-25m85 25v-25m85 25v-25m85 25v-50m85 50v-25m85 25v-25m85 25v-25m85 25v-25m85 25v-25m85 25v-25m85 25v-25m85 25v-25m85 25v-25m85 25v-50m85 50v-25m85 25v-25m85 25v-25m85 25v-25m85 25v-25m85 25v-25m85 25v-25m85 25v-25m85 25v-25m85 25v-50m85 50v-25m85 25v-25m85 25v-25m85 25v-25m85 25v-25m85 25v-25m85 25v-25m85 25v-25m85 25v-25m85 25v-50" transform="matrix(.1 0 0 -.1 397.424 286.499)"/><g style="fill:#000;fill-opacity:1"><use xlink:href="#o" x="422.212" y="6.499"/><use xlink:href="#p" x="426.382" y="6.499"/><use xlink:href="#o" x="428.467" y="6.499"/></g><g style="fill:#000;fill-opacity:1"><use xlink:href="#r" x="507.212" y="6.499"/><use xlink:href="#p" x="511.382" y="6.499"/><use xlink:href="#s" x="513.467" y="6.499"/></g><g style="fill:#000;fill-opacity:1"><use xlink:href="#s" x="592.212" y="6.499"/><use xlink:href="#p" x="596.382" y="6.499"/><use xlink:href="#o" x="598.467" y="6.499"/></g><g style="fill:#000;fill-opacity:1"><use xlink:href="#v" x="677.212" y="6.499"/><use xlink:href="#p" x="681.382" y="6.499"/><use xlink:href="#s" x="683.467" y="6.499"/></g><g style="fill:#000;fill-opacity:1"><use xlink:href="#x" x="760.127" y="6.499"/><use xlink:href="#o" x="764.297" y="6.499"/><use xlink:href="#p" x="768.467" y="6.499"/><use xlink:href="#o" x="770.552" y="6.499"/></g><path style="fill:none;stroke-width:12.5;stroke-linecap:square;stroke-linejoin:miter;stroke:#000;stroke-opacity:1;stroke-miterlimit:10" d="M300.018 224.99v2550" transform="matrix(.1 0 0 -.1 397.424 286.499)"/><path style="fill:none;stroke-width:6.25;stroke-linecap:butt;stroke-linejoin:miter;stroke:#000;stroke-opacity:1;stroke-miterlimit:10" d="M300.018 224.99h50m-50 42.5h25m-25 42.5h25m-25 42.5h25m-25 42.5h25m-25 42.5h25m-25 42.5h25m-25 42.5h25m-25 42.5h25m-25 42.5h25m-25 42.5h50m-50 42.5h25m-25 42.5h25m-25 42.5h25m-25 42.5h25m-25 42.5h25m-25 42.5h25m-25 42.5h25m-25 42.5h25m-25 42.5h25m-25 42.5h50m-50 42.5h25m-25 42.5h25m-25 42.5h25m-25 42.5h25m-25 42.5h25m-25 42.5h25m-25 42.5h25m-25 42.5h25m-25 42.5h25m-25 42.5h50m-50 42.5h25m-25 42.5h25m-25 42.5h25m-25 42.5h25m-25 42.5h25m-25 42.5h25m-25 42.5h25m-25 42.5h25m-25 42.5h25m-25 42.5h50m-50 42.5h25m-25 42.5h25m-25 42.5h25m-25 42.5h25m-25 42.5h25m-25 42.5h25m-25 42.5h25m-25 42.5h25m-25 42.5h25m-25 42.5h50m-50 42.5h25m-25 42.5h25m-25 42.5h25m-25 42.5h25m-25 42.5h25m-25 42.5h25m-25 42.5h25m-25 42.5h25m-25 42.5h25m-25 42.5h50" transform="matrix(.1 0 0 -.1 397.424 286.499)"/><g style="fill:#000;fill-opacity:1" clip-path="url(#U)"><use xlink:href="#y" x="408.252" y="267.749"/><use xlink:href="#r" x="410.75" y="267.749"/><use xlink:href="#p" x="414.92" y="267.749"/><use xlink:href="#o" x="417.005" y="267.749"/></g><g style="fill:#000;fill-opacity:1" clip-path="url(#V)"><use xlink:href="#y" x="408.252" y="225.249"/><use xlink:href="#x" x="410.75" y="225.249"/><use xlink:href="#p" x="414.92" y="225.249"/><use xlink:href="#s" x="417.005" y="225.249"/></g><g style="fill:#000;fill-opacity:1" clip-path="url(#W)"><use xlink:href="#y" x="408.252" y="182.749"/><use xlink:href="#x" x="410.75" y="182.749"/><use xlink:href="#p" x="414.92" y="182.749"/><use xlink:href="#o" x="417.005" y="182.749"/></g><g style="fill:#000;fill-opacity:1" clip-path="url(#X)"><use xlink:href="#y" x="408.252" y="139.624"/><use xlink:href="#o" x="410.75" y="139.624"/><use xlink:href="#p" x="414.92" y="139.624"/><use xlink:href="#s" x="417.005" y="139.624"/></g><g style="fill:#000;fill-opacity:1"><use xlink:href="#o" x="410.749" y="97.749"/><use xlink:href="#p" x="414.919" y="97.749"/><use xlink:href="#o" x="417.004" y="97.749"/></g><g style="fill:#000;fill-opacity:1"><use xlink:href="#o" x="410.749" y="55.249"/><use xlink:href="#p" x="414.919" y="55.249"/><use xlink:href="#s" x="417.004" y="55.249"/></g><g style="fill:#000;fill-opacity:1"><use xlink:href="#x" x="410.749" y="12.749"/><use xlink:href="#p" x="414.919" y="12.749"/><use xlink:href="#o" x="417.004" y="12.749"/></g><path style="fill:none;stroke-width:12.5;stroke-linecap:square;stroke-linejoin:miter;stroke:#000;stroke-opacity:1;stroke-miterlimit:10" d="M3700.018 224.99v2550" transform="matrix(.1 0 0 -.1 397.424 286.499)"/><path style="fill:none;stroke-width:6.25;stroke-linecap:butt;stroke-linejoin:miter;stroke:#000;stroke-opacity:1;stroke-miterlimit:10" d="M3700.018 224.99h-50m50 42.5h-25m25 42.5h-25m25 42.5h-25m25 42.5h-25m25 42.5h-25m25 42.5h-25m25 42.5h-25m25 42.5h-25m25 42.5h-25m25 42.5h-50m50 42.5h-25m25 42.5h-25m25 42.5h-25m25 42.5h-25m25 42.5h-25m25 42.5h-25m25 42.5h-25m25 42.5h-25m25 42.5h-25m25 42.5h-50m50 42.5h-25m25 42.5h-25m25 42.5h-25m25 42.5h-25m25 42.5h-25m25 42.5h-25m25 42.5h-25m25 42.5h-25m25 42.5h-25m25 42.5h-50m50 42.5h-25m25 42.5h-25m25 42.5h-25m25 42.5h-25m25 42.5h-25m25 42.5h-25m25 42.5h-25m25 42.5h-25m25 42.5h-25m25 42.5h-50m50 42.5h-25m25 42.5h-25m25 42.5h-25m25 42.5h-25m25 42.5h-25m25 42.5h-25m25 42.5h-25m25 42.5h-25m25 42.5h-25m25 42.5h-50m50 42.5h-25m25 42.5h-25m25 42.5h-25m25 42.5h-25m25 42.5h-25m25 42.5h-25m25 42.5h-25m25 42.5h-25m25 42.5h-25m25 42.5h-50" transform="matrix(.1 0 0 -.1 397.424 286.499)"/><g style="fill:#000;fill-opacity:1" clip-path="url(#Y)"><use xlink:href="#y" x="773.674" y="267.749"/><use xlink:href="#r" x="776.172" y="267.749"/><use xlink:href="#p" x="780.341" y="267.749"/><use xlink:href="#o" x="782.427" y="267.749"/></g><g style="fill:#000;fill-opacity:1" clip-path="url(#Z)"><use xlink:href="#y" x="773.674" y="225.249"/><use xlink:href="#x" x="776.172" y="225.249"/><use xlink:href="#p" x="780.341" y="225.249"/><use xlink:href="#s" x="782.427" y="225.249"/></g><g style="fill:#000;fill-opacity:1" clip-path="url(#aa)"><use xlink:href="#y" x="773.674" y="182.749"/><use xlink:href="#x" x="776.172" y="182.749"/><use xlink:href="#p" x="780.341" y="182.749"/><use xlink:href="#o" x="782.427" y="182.749"/></g><g style="fill:#000;fill-opacity:1" clip-path="url(#ab)"><use xlink:href="#y" x="773.674" y="139.624"/><use xlink:href="#o" x="776.172" y="139.624"/><use xlink:href="#p" x="780.341" y="139.624"/><use xlink:href="#s" x="782.427" y="139.624"/></g><g style="fill:#000;fill-opacity:1"><use xlink:href="#o" x="773.674" y="97.749"/><use xlink:href="#p" x="777.844" y="97.749"/><use xlink:href="#o" x="779.929" y="97.749"/></g><g style="fill:#000;fill-opacity:1"><use xlink:href="#o" x="773.674" y="55.249"/><use xlink:href="#p" x="777.844" y="55.249"/><use xlink:href="#s" x="779.929" y="55.249"/></g><g style="fill:#000;fill-opacity:1"><use xlink:href="#x" x="773.674" y="12.749"/><use xlink:href="#p" x="777.844" y="12.749"/><use xlink:href="#o" x="779.929" y="12.749"/></g><g clip-path="url(#ac)"><path style="fill:none;stroke-width:12.5;stroke-linecap:round;stroke-linejoin:round;stroke:#00008b;stroke-opacity:1;stroke-miterlimit:10" d="m306.268-300.05 6.25 375.665 6.25 220.234 6.25 156.758 6.25 122.031 6.25 100.118 6.25 85.039 6.25 74.023 6.25 65.664 6.25 59.063 6.25 53.71 6.25 49.337 6.25 45.703 6.25 42.539 6.25 39.883 6.25 37.539 6.25 35.468 6.25 33.711 6.25 32.032 6.25 30.625 6.25 29.335 6.25 28.086 6.25 27.032 6.25 26.054 6.25 25.157 6.25 24.296 6.25 23.477 6.25 22.774 6.25 22.109 6.25 21.484 6.25 20.86 6.25 20.312 6.25 19.766 6.25 19.258 6.25 18.789 6.25 18.32 6.25 17.89 6.25 17.462 6.25 17.07 6.25 16.68 6.25 16.328 6.25 15.976 6.25 15.625 6.25 15.274 6.25 15 6.25 14.648 6.25 14.336 6.25 14.063 6.25 13.789 6.25 13.476 6.25 13.203 6.25 12.969 6.25 12.695 6.25 12.422 6.25 12.188 6.25 11.953 6.25 11.68 6.25 11.445 6.25 11.21 6.25 11.016 6.25 10.743 6.25 10.546 6.25 10.274 6.25 10.117 6.25 9.844 6.25 9.687 6.25 9.453 6.25 9.22 6.25 9.023 6.25 8.828 6.25 8.633 6.25 8.398 6.25 8.203 6.25 8.008 6.25 7.812 6.25 7.618 6.25 7.421 6.25 7.227 6.25 7.031 6.25 6.836 6.25 6.64 6.25 6.485 6.25 6.29 6.25 6.054 6.25 5.898 6.25 5.704 6.25 5.546 6.25 5.352 6.25 5.156 6.25 5 6.25 4.805 6.25 4.61 6.25 4.452 6.25 4.258 6.25 4.102 6.25 3.906 6.25 3.75 6.25 3.555 6.25 3.398 6.25 3.242 6.25 3.047 6.25 2.89 6.25 2.696 6.25 2.54 6.25 2.382 6.25 2.227 6.25 2.03 6.25 1.876 6.25 1.719 6.25 1.562 6.25 1.406 6.25 1.25 6.25 1.094 6.25.899 6.25.78 6.25.626 6.25.43 6.25.312 6.25.156h6.25l6.25-.117 6.25-.312 6.25-.43 6.25-.586 6.25-.742 6.25-.86 6.25-1.015 6.25-1.172 6.25-1.29 6.25-1.405 6.25-1.563 6.25-1.719 6.25-1.797 6.25-1.992 6.25-2.07 6.25-2.227 6.25-2.343 6.25-2.461 6.25-2.578 6.25-2.735 6.25-2.812 6.25-2.97 6.25-3.046 6.25-3.203 6.25-3.281 6.25-3.399 6.25-3.515 6.25-3.633 6.25-3.711 6.25-3.867 6.25-3.907 6.25-4.062 6.25-4.102 6.25-4.257 6.25-4.336 6.25-4.414 6.25-4.493 6.25-4.609 6.25-4.688 6.25-4.765 6.25-4.883 6.25-4.922 6.25-5 6.25-5.117 6.25-5.156 6.25-5.274 6.25-5.312 6.25-5.39 6.25-5.43 6.25-5.547 6.25-5.586 6.25-5.625 6.25-5.703 6.25-5.743 6.25-5.82 12.5-11.797 6.25-5.976 6.25-6.016 6.25-6.055 6.25-6.093 6.25-6.133 12.5-12.422 6.25-6.25 12.5-12.578 6.25-6.328 6.25-6.368 12.5-12.812 18.75-19.336 18.75-19.453 6.25-6.524 6.25-6.484 12.5-13.047 6.25-6.484 12.5-13.047 12.5-12.969 6.25-6.445 6.25-6.485 6.25-6.445 6.25-6.406 6.25-6.445 12.5-12.735 12.5-12.656 6.25-6.29 6.25-6.25 6.25-6.21 12.5-12.344 12.5-12.187 12.5-12.032 6.25-5.937 6.25-5.898 12.5-11.641 6.25-5.742 6.25-5.703 6.25-5.625 6.25-5.586 6.25-5.547 6.25-5.469 6.25-5.39 6.25-5.352 6.25-5.274 6.25-5.234 6.25-5.156 6.25-5.078 6.25-5 6.25-4.961 6.25-4.883 6.25-4.805 6.25-4.726 6.25-4.649 6.25-4.57 6.25-4.492 6.25-4.414 6.25-4.336 6.25-4.258 6.25-4.18 6.25-4.062 6.25-4.024 6.25-3.906 6.25-3.867 6.25-3.75 6.25-3.633 6.25-3.594 6.25-3.476 6.25-3.399 6.25-3.28 6.25-3.243 6.25-3.086 6.25-3.047 6.25-2.93 6.25-2.812 6.25-2.774 6.25-2.656 6.25-2.539 6.25-2.46 6.25-2.345 6.25-2.265 6.25-2.149 6.25-2.07 6.25-1.992 6.25-1.875 6.25-1.758 6.25-1.68 6.25-1.562 6.25-1.485 6.25-1.367 6.25-1.289 6.25-1.172 6.25-1.054 6.25-.977 6.25-.898 6.25-.743 6.25-.703 6.25-.586 6.25-.468 6.25-.39 6.25-.274 6.25-.196 6.25-.078h6.25l6.25.117 6.25.196 6.25.312 6.25.43 6.25.469 6.25.586 6.25.703 6.25.78 6.25.86 6.25.977 6.25 1.055 6.25 1.171 6.25 1.25 6.25 1.329 6.25 1.406 6.25 1.523 6.25 1.602 6.25 1.68 6.25 1.796 6.25 1.836 6.25 1.953 6.25 2.032 6.25 2.11 6.25 2.187 6.25 2.304 6.25 2.344 6.25 2.422 6.25 2.539 6.25 2.578 6.25 2.656 6.25 2.774 6.25 2.812 6.25 2.852 6.25 2.969 6.25 3.046 6.25 3.086 6.25 3.164 6.25 3.243 6.25 3.28 6.25 3.36 6.25 3.438 6.25 3.476 6.25 3.555 12.5 7.266 12.5 7.5 6.25 3.828 6.25 3.867 6.25 3.945 6.25 3.985 6.25 4.023 6.25 4.063 6.25 4.101 6.25 4.18 12.5 8.437 6.25 4.258 12.5 8.672 12.5 8.828 12.5 8.906 6.25 4.493 6.25 4.53 12.5 9.141 6.25 4.61 6.25 4.648 6.25 4.61 6.25 4.687 6.25 4.649 12.5 9.375 6.25 4.726 6.25 4.688 6.25 4.726 6.25 4.766 18.75 14.18 6.25 4.765 25 18.906 31.25 23.438 6.25 4.61 6.25 4.648 6.25 4.61 18.75 13.71 12.5 8.984 12.5 8.907 6.25 4.414 6.25 4.375 6.25 4.336 6.25 4.296 12.5 8.516 6.25 4.18 12.5 8.281 6.25 4.063 6.25 4.023 6.25 3.984 6.25 3.946 12.5 7.734 6.25 3.79 12.5 7.421 6.25 3.633 12.5 7.11 6.25 3.476 6.25 3.398 6.25 3.36 6.25 3.28 6.25 3.243 6.25 3.164 6.25 3.125 6.25 3.047 6.25 3.008 6.25 2.93 6.25 2.851 6.25 2.773 6.25 2.735 6.25 2.656 6.25 2.578 6.25 2.5 6.25 2.461 6.25 2.383 6.25 2.305 6.25 2.226 6.25 2.188 6.25 2.07 6.25 2.031 6.25 1.953 6.25 1.836 6.25 1.797 6.25 1.719 6.25 1.64 6.25 1.602 6.25 1.484 6.25 1.407 6.25 1.328 6.25 1.25 6.25 1.21 6.25 1.095 6.25 1.015 6.25.977 6.25.86 6.25.78 6.25.743 6.25.625 6.25.546 6.25.508 6.25.39 6.25.313 6.25.274 6.25.156 6.25.078h6.25l6.25-.078 6.25-.117 6.25-.235 6.25-.312 6.25-.352 6.25-.468 6.25-.547 6.25-.586 6.25-.703 6.25-.742 6.25-.86 6.25-.898 6.25-.977 6.25-1.055 6.25-1.132 6.25-1.172 6.25-1.29 6.25-1.366 6.25-1.407 6.25-1.484 6.25-1.524 6.25-1.64 6.25-1.68 6.25-1.758 6.25-1.836 6.25-1.875 12.5-3.984 6.25-2.11 6.25-2.148 6.25-2.187 6.25-2.266 6.25-2.344 6.25-2.382 6.25-2.461 6.25-2.5 6.25-2.54 12.5-5.312 6.25-2.734 6.25-2.774 12.5-5.703 6.25-2.93 12.5-6.015 6.25-3.086 6.25-3.125 12.5-6.328 6.25-3.242 12.5-6.641 6.25-3.36 6.25-3.398 6.25-3.437 6.25-3.477 12.5-7.031 6.25-3.555 18.75-10.898 6.25-3.672 12.5-7.422 6.25-3.75 18.75-11.367 12.5-7.657 25-15.468" transform="matrix(.1 0 0 -.1 397.424 286.499)"/></g><g clip-path="url(#ad)"><path style="fill:none;stroke-width:12.5;stroke-linecap:round;stroke-linejoin:round;stroke:#006400;stroke-opacity:1;stroke-miterlimit:10" d="m400.018-58.994 6.25 104.57 6.25 92.89 6.25 83.047 6.25 74.766 6.25 67.695 6.25 61.563 6.25 56.289 6.25 51.719 6.25 47.656 6.25 44.18 6.25 41.015 6.25 38.242 6.25 35.782 6.25 33.593 6.25 31.602 6.25 29.805 6.25 28.242 6.25 26.758 6.25 25.468 6.25 24.258 6.25 23.164 6.25 22.188 6.25 21.289 6.25 20.43 6.25 19.726 6.25 18.985 6.25 18.359 6.25 17.734 6.25 17.227 6.25 16.719 6.25 16.25 6.25 15.82 6.25 15.43 6.25 15.039 6.25 14.687 6.25 14.414 6.25 14.102 6.25 13.789 6.25 13.554 6.25 13.36 6.25 13.086 6.25 12.89 6.25 12.696 6.25 12.5 6.25 12.343 6.25 12.188 6.25 12.031 6.25 11.875 6.25 11.758 6.25 11.602 6.25 11.523 6.25 11.367 6.25 11.29 6.25 11.21 6.25 11.094 6.25 10.977 6.25 10.937 6.25 10.82 6.25 10.743 6.25 10.664 6.25 10.625 6.25 10.546 12.5 20.86 6.25 10.312 6.25 10.274 6.25 10.234 6.25 10.156 6.25 10.118 6.25 10.039 6.25 10 6.25 9.922 6.25 9.882 6.25 9.844 12.5 19.531 12.5 19.297 6.25 9.57 6.25 9.532 12.5 18.906 6.25 9.375 6.25 9.297 6.25 9.258 6.25 9.218 6.25 9.18 6.25 9.102 6.25 9.062 6.25 8.985 6.25 8.945 6.25 8.867 6.25 8.828 6.25 8.79 6.25 8.71 6.25 8.633 6.25 8.594 6.25 8.554 12.5 16.876 6.25 8.32 6.25 8.281 6.25 8.203 6.25 8.125 6.25 8.086 6.25 7.969 6.25 7.93 6.25 7.89 6.25 7.774 6.25 7.695 6.25 7.656 6.25 7.54 6.25 7.5 6.25 7.421 6.25 7.305 6.25 7.265 6.25 7.149 6.25 7.07 6.25 7.031 6.25 6.875 6.25 6.836 6.25 6.758 6.25 6.64 6.25 6.563 6.25 6.485 6.25 6.367 6.25 6.289 6.25 6.21 6.25 6.095 6.25 6.015 6.25 5.938 6.25 5.82 6.25 5.703 6.25 5.625 6.25 5.508 6.25 5.43 6.25 5.312 6.25 5.235 6.25 5.117 6.25 5.039 6.25 4.883 6.25 4.804 6.25 4.688 6.25 4.61 6.25 4.491 6.25 4.375 6.25 4.297 6.25 4.14 6.25 4.063 6.25 3.946 6.25 3.828 6.25 3.75 6.25 3.594 6.25 3.515 6.25 3.399 6.25 3.242 6.25 3.203 6.25 3.047 6.25 2.93 6.25 2.812 6.25 2.734 6.25 2.618 6.25 2.46 6.25 2.383 6.25 2.227 6.25 2.148 6.25 2.032 6.25 1.914 6.25 1.796 6.25 1.68 6.25 1.563 6.25 1.484 6.25 1.328 6.25 1.211 6.25 1.133 6.25.976 6.25.899 6.25.742 6.25.664 6.25.547 6.25.43 6.25.312 6.25.235 6.25.078h6.25l6.25-.157 6.25-.195 6.25-.351 6.25-.47 6.25-.585 6.25-.664 6.25-.781 6.25-.86 6.25-1.015 6.25-1.094 6.25-1.172 6.25-1.328 6.25-1.406 6.25-1.485 6.25-1.64 6.25-1.68 6.25-1.836 6.25-1.914 6.25-1.992 6.25-2.11 6.25-2.187 6.25-2.305 6.25-2.383 6.25-2.46 6.25-2.579 6.25-2.656 6.25-2.734 6.25-2.852 6.25-2.93 6.25-3.007 6.25-3.086 6.25-3.164 6.25-3.243 6.25-3.359 6.25-3.398 6.25-3.516 6.25-3.555 6.25-3.633 6.25-3.75 6.25-3.789 6.25-3.867 6.25-3.906 6.25-4.023 6.25-4.063 6.25-4.14 6.25-4.18 6.25-4.258 6.25-4.336 6.25-4.375 6.25-4.453 6.25-4.492 6.25-4.532 6.25-4.609 6.25-4.648 6.25-4.688 12.5-9.531 6.25-4.844 6.25-4.883 6.25-4.922 6.25-4.96 6.25-5 6.25-5.04 6.25-5.117 6.25-5.078 12.5-10.312 6.25-5.196 12.5-10.468 6.25-5.274 18.75-15.937 12.5-10.704 25-21.562 6.25-5.43 6.25-5.39 6.25-5.43 6.25-5.39 6.25-5.43 6.25-5.39 6.25-5.43 25-21.563 18.75-16.055 6.25-5.312 18.75-15.82 6.25-5.235 12.5-10.39 18.75-15.352 12.5-10.078 12.5-9.922 12.5-9.766 6.25-4.844 6.25-4.765 6.25-4.727 6.25-4.687 6.25-4.649 6.25-4.61 6.25-4.53 6.25-4.493 6.25-4.453 6.25-4.375 6.25-4.336 6.25-4.296 6.25-4.22 12.5-8.28 6.25-4.024 6.25-3.984 6.25-3.907 6.25-3.867 6.25-3.789 6.25-3.71 6.25-3.633 6.25-3.594 6.25-3.516 6.25-3.437 6.25-3.399 6.25-3.281 6.25-3.242 6.25-3.164 6.25-3.086 6.25-3.008 6.25-2.93 6.25-2.851 6.25-2.774 6.25-2.695 6.25-2.617 6.25-2.578 6.25-2.461 6.25-2.383 6.25-2.305 6.25-2.187 6.25-2.149 6.25-2.07 6.25-1.953 6.25-1.914 6.25-1.797 6.25-1.719 6.25-1.64 6.25-1.563 6.25-1.445 6.25-1.407 6.25-1.289 6.25-1.21 6.25-1.133 6.25-1.055 6.25-.938 6.25-.859 6.25-.781 6.25-.703 6.25-.625 6.25-.508 6.25-.469 6.25-.351 6.25-.235 6.25-.195 6.25-.078 6.25-.04 6.25.079 6.25.156 6.25.274 6.25.312 6.25.43 6.25.468 6.25.586 6.25.664 6.25.743 6.25.82 6.25.937 6.25.977 6.25 1.094 6.25 1.133 6.25 1.25 6.25 1.289 6.25 1.367 6.25 1.484 6.25 1.563 6.25 1.601 6.25 1.68 6.25 1.797 6.25 1.836 6.25 1.914 6.25 1.992 6.25 2.07 6.25 2.11 6.25 2.226 6.25 2.266 6.25 2.344 6.25 2.382 6.25 2.5 6.25 2.54 6.25 2.578 6.25 2.656 6.25 2.734 12.5 5.625 6.25 2.93 6.25 2.969 12.5 6.093 12.5 6.329 6.25 3.242 6.25 3.281 6.25 3.36 6.25 3.398 6.25 3.437 6.25 3.477 6.25 3.515 6.25 3.594 12.5 7.266 6.25 3.71 12.5 7.5 6.25 3.829 12.5 7.734 6.25 3.907 6.25 3.945 12.5 7.969 6.25 4.023 12.5 8.125 6.25 4.102 18.75 12.421 12.5 8.36 18.75 12.656 31.25 21.29 6.25 4.296 18.75 12.774 6.25 4.296 18.75 12.774 6.25 4.219 6.25 4.257 6.25 4.22 6.25 4.179 6.25 4.219 6.25 4.18 6.25 4.14 6.25 4.18 6.25 4.101 6.25 4.14 18.75 12.188 18.75 11.953 12.5 7.813 6.25 3.867 6.25 3.828 12.5 7.578 12.5 7.422 12.5 7.266 6.25 3.554 12.5 7.032 6.25 3.437 12.5 6.719 6.25 3.32 6.25 3.242 6.25 3.204 6.25 3.164 12.5 6.172 6.25 2.968 6.25 2.93 6.25 2.89 6.25 2.852 6.25 2.774 6.25 2.734 6.25 2.656 12.5 5.156 6.25 2.461 6.25 2.422 6.25 2.344 6.25 2.305 6.25 2.226 6.25 2.188 6.25 2.11 6.25 2.03 6.25 1.993 6.25 1.914 6.25 1.836 6.25 1.757 6.25 1.72 6.25 1.64 6.25 1.562 6.25 1.524 6.25 1.445 6.25 1.367 6.25 1.29 6.25 1.21 6.25 1.172 6.25 1.094 6.25 1.015 6.25.938 6.25.86 6.25.82 6.25.742 6.25.625 6.25.586 6.25.547" transform="matrix(.1 0 0 -.1 397.424 286.499)"/></g></svg>