<svg xmlns="http://www.w3.org/2000/svg" xmlns:xlink="http://www.w3.org/1999/xlink" width="364pt" height="260pt" viewBox="0 0 364 260"><defs><clipPath id="a"><path d="M22 7.66h1v242.25h-1zm0 0"/></clipPath><clipPath id="b"><path d="M22 18h320v1H22zm0 0"/></clipPath><clipPath id="c"><path d="M22 7.66h1v242.25h-1zm0 0"/></clipPath><clipPath id="d"><path d="M101 7.66h2v242.25h-2zm0 0"/></clipPath><clipPath id="e"><path d="M181 7.66h2v242.25h-2zm0 0"/></clipPath><clipPath id="f"><path d="M261 7.66h2v242.25h-2zm0 0"/></clipPath><clipPath id="g"><path d="M341 7.66h1v242.25h-1zm0 0"/></clipPath><clipPath id="h"><path d="M22 237h320v2H22zm0 0"/></clipPath><clipPath id="i"><path d="M22 182h320v2H22zm0 0"/></clipPath><clipPath id="j"><path d="M22 128h320v1H22zm0 0"/></clipPath><clipPath id="k"><path d="M22 73h320v1H22zm0 0"/></clipPath><clipPath id="l"><path d="M22 18h320v1H22zm0 0"/></clipPath><clipPath id="w"><path d="M22 18h320v222H22zm0 0"/></clipPath><symbol overflow="visible" id="m"><path style="stroke:none" d="M1.89-4.953c-.452 0-.874.203-1.124.547-.313.437-.47 1.093-.47 2.015C.297-.719.845.156 1.892.156c1.03 0 1.593-.875 1.593-2.515 0-.954-.156-1.594-.484-2.047a1.355 1.355 0 0 0-1.11-.547zm0 .531c.641 0 .97.672.97 2.016C2.86-1 2.546-.344 1.874-.344c-.64 0-.969-.687-.969-2.047 0-1.359.328-2.03.985-2.03zm0 0"/></symbol><symbol overflow="visible" id="n"><path style="stroke:none" d="M1.313-.719h-.72V0h.72zm0 0"/></symbol><symbol overflow="visible" id="o"><path style="stroke:none" d="M3.469-.594H.906c.063-.406.281-.672.89-1.031l.673-.39C3.156-2.392 3.5-2.892 3.5-3.5c0-.422-.156-.797-.453-1.063-.281-.265-.64-.39-1.094-.39-.625 0-1.078.219-1.344.64-.171.266-.25.579-.265 1.079h.61c.015-.344.062-.532.14-.704a.922.922 0 0 1 .828-.484c.547 0 .969.39.969.938 0 .39-.235.734-.657.984l-.64.36C.578-1.548.28-1.095.234 0H3.47zm0 0"/></symbol><symbol overflow="visible" id="p"><path style="stroke:none" d="M3.266-4.86H.75L.39-2.202h.563c.281-.344.516-.453.89-.453.657 0 1.063.437 1.063 1.156 0 .703-.406 1.125-1.062 1.125-.532 0-.86-.266-1-.813h-.61c.094.391.157.579.297.766.281.36.766.578 1.328.578.97 0 1.657-.703 1.657-1.734 0-.953-.641-1.625-1.563-1.625-.344 0-.625.094-.906.297l.187-1.344h2.032zm0 0"/></symbol><symbol overflow="visible" id="q"><path style="stroke:none" d="M3.563-4.86H.313v.61h2.624C1.782-2.61 1.313-1.594.954 0h.64c.266-1.547.876-2.89 1.97-4.344zm0 0"/></symbol><symbol overflow="visible" id="r"><path style="stroke:none" d="M1.781-3.531V0h.594v-4.953h-.39c-.22.766-.36.875-1.282.984v.438zm0 0"/></symbol><symbol overflow="visible" id="s"><path style="stroke:none" d="M1.953-2.14H.313v.5h1.64zm0 0"/></symbol><symbol overflow="visible" id="t"><path style="stroke:none" d="M2.688-2.61c.5-.312.656-.546.656-1.015 0-.781-.594-1.328-1.453-1.328-.86 0-1.47.547-1.47 1.312 0 .485.157.72.657 1.032-.547.28-.828.687-.828 1.234C.25-.469.922.156 1.89.156c.954 0 1.626-.625 1.626-1.531 0-.547-.266-.953-.829-1.234zM1.89-4.421c.515 0 .843.313.843.813 0 .468-.343.765-.843.765-.516 0-.844-.297-.844-.781 0-.484.328-.797.844-.797zm0 2.094c.593 0 1.015.39 1.015.969 0 .593-.406.984-1.031.984-.594 0-1-.406-1-.984 0-.579.406-.97 1.016-.97zm0 0"/></symbol><symbol overflow="visible" id="u"><path style="stroke:none" d="M3.422-3.656c-.125-.813-.64-1.297-1.39-1.297-.532 0-1.016.266-1.298.703-.312.5-.437 1.094-.437 1.984 0 .844.11 1.375.406 1.813.266.39.688.61 1.219.61.937 0 1.594-.688 1.594-1.657 0-.906-.61-1.547-1.485-1.547-.484 0-.86.172-1.125.531.016-1.218.39-1.906 1.094-1.906.422 0 .719.281.813.766zm-1.469 1.14c.578 0 .953.407.953 1.063 0 .625-.422 1.078-.969 1.078-.562 0-.984-.469-.984-1.11 0-.609.406-1.03 1-1.03zm0 0"/></symbol><symbol overflow="visible" id="v"><path style="stroke:none" d="M2.25-1.203V0h.594v-1.203h.719v-.531h-.72v-3.22h-.437L.187-1.827v.625zm0-.531H.719L2.25-3.922zm0 0"/></symbol></defs><path style="stroke:none;fill-rule:nonzero;fill:#fff;fill-opacity:1" d="M22 249.91h320V7.66H22zm0 0"/><g clip-path="url(#a)"><path style="fill:none;stroke-width:5.70714;stroke-linecap:round;stroke-linejoin:miter;stroke:#bfbfbf;stroke-opacity:1;stroke-miterlimit:10" d="M399.5-211.163V-2636.7" transform="matrix(.10013 0 0 .09987 -18 271)"/></g><g clip-path="url(#b)"><path style="fill:none;stroke-width:5.70714;stroke-linecap:round;stroke-linejoin:miter;stroke:#bfbfbf;stroke-opacity:1;stroke-miterlimit:10" d="M399.5-2526.444h3196.006" transform="matrix(.10013 0 0 .09987 -18 271)"/></g><g clip-path="url(#c)"><path style="fill:none;stroke-width:5.70714;stroke-linecap:round;stroke-linejoin:miter;stroke:#bfbfbf;stroke-opacity:1;stroke-dasharray:11.4143,17.1214;stroke-miterlimit:10" d="M399.5-211.163V-2636.7" transform="matrix(.10013 0 0 .09987 -18 271)"/></g><g clip-path="url(#d)"><path style="fill:none;stroke-width:5.70714;stroke-linecap:round;stroke-linejoin:miter;stroke:#bfbfbf;stroke-opacity:1;stroke-dasharray:11.4143,17.1214;stroke-miterlimit:10" d="M1198.502-211.163V-2636.7" transform="matrix(.10013 0 0 .09987 -18 271)"/></g><g clip-path="url(#e)"><path style="fill:none;stroke-width:5.70714;stroke-linecap:round;stroke-linejoin:miter;stroke:#bfbfbf;stroke-opacity:1;stroke-dasharray:11.4143,17.1214;stroke-miterlimit:10" d="M1997.503-211.163V-2636.7" transform="matrix(.10013 0 0 .09987 -18 271)"/></g><g clip-path="url(#f)"><path style="fill:none;stroke-width:5.70714;stroke-linecap:round;stroke-linejoin:miter;stroke:#bfbfbf;stroke-opacity:1;stroke-dasharray:11.4143,17.1214;stroke-miterlimit:10" d="M2796.504-211.163V-2636.7" transform="matrix(.10013 0 0 .09987 -18 271)"/></g><g clip-path="url(#g)"><path style="fill:none;stroke-width:5.70714;stroke-linecap:round;stroke-linejoin:miter;stroke:#bfbfbf;stroke-opacity:1;stroke-dasharray:11.4143,17.1214;stroke-miterlimit:10" d="M3595.506-211.163V-2636.7" transform="matrix(.10013 0 0 .09987 -18 271)"/></g><g clip-path="url(#h)"><path style="fill:none;stroke-width:5.70714;stroke-linecap:round;stroke-linejoin:miter;stroke:#bfbfbf;stroke-opacity:1;stroke-dasharray:11.4143,17.1214;stroke-miterlimit:10" d="M399.5-329.24h3196.006" transform="matrix(.10013 0 0 .09987 -18 271)"/></g><g clip-path="url(#i)"><path style="fill:none;stroke-width:5.70714;stroke-linecap:round;stroke-linejoin:miter;stroke:#bfbfbf;stroke-opacity:1;stroke-dasharray:11.4143,17.1214;stroke-miterlimit:10" d="M399.5-878.522h3196.006" transform="matrix(.10013 0 0 .09987 -18 271)"/></g><g clip-path="url(#j)"><path style="fill:none;stroke-width:5.70714;stroke-linecap:round;stroke-linejoin:miter;stroke:#bfbfbf;stroke-opacity:1;stroke-dasharray:11.4143,17.1214;stroke-miterlimit:10" d="M399.5-1427.842h3196.006" transform="matrix(.10013 0 0 .09987 -18 271)"/></g><g clip-path="url(#k)"><path style="fill:none;stroke-width:5.70714;stroke-linecap:round;stroke-linejoin:miter;stroke:#bfbfbf;stroke-opacity:1;stroke-dasharray:11.4143,17.1214;stroke-miterlimit:10" d="M399.5-1977.124h3196.006" transform="matrix(.10013 0 0 .09987 -18 271)"/></g><g clip-path="url(#l)"><path style="fill:none;stroke-width:5.70714;stroke-linecap:round;stroke-linejoin:miter;stroke:#bfbfbf;stroke-opacity:1;stroke-dasharray:11.4143,17.1214;stroke-miterlimit:10" d="M399.5-2526.444h3196.006" transform="matrix(.10013 0 0 .09987 -18 271)"/></g><path style="fill:none;stroke-width:11.4143;stroke-linecap:square;stroke-linejoin:miter;stroke:#000;stroke-opacity:1;stroke-miterlimit:10" d="M399.5-211.163h3196.006" transform="matrix(.10013 0 0 .09987 -18 271)"/><path style="fill:none;stroke-width:5.70714;stroke-linecap:butt;stroke-linejoin:miter;stroke:#000;stroke-opacity:1;stroke-miterlimit:10" d="M399.5-211.163v-45.643m0 45.643v-22.84m79.9 22.84v-22.84m79.9 22.84v-22.84m79.901 22.84v-22.84m79.9 22.84v-22.84m79.9 22.84v-22.84m79.9 22.84v-22.84m79.9 22.84v-22.84m79.901 22.84v-22.84m159.8 22.84v-45.643m0 45.643v-22.84m79.9 22.84v-22.84m79.9 22.84v-22.84m79.9 22.84v-22.84m79.9 22.84v-22.84m79.9 22.84v-22.84m79.901 22.84v-22.84m79.9 22.84v-22.84m79.9 22.84v-22.84m159.8 22.84v-45.643m0 45.643v-22.84m79.9 22.84v-22.84m79.9 22.84v-22.84m79.9 22.84v-22.84m79.901 22.84v-22.84m79.9 22.84v-22.84m79.9 22.84v-22.84m79.9 22.84v-22.84m79.9 22.84v-22.84m159.8 22.84v-45.643m0 45.643v-22.84m79.9 22.84v-22.84m79.901 22.84v-22.84m79.9 22.84v-22.84m79.9 22.84v-22.84m79.9 22.84v-22.84m79.9 22.84v-22.84m79.9 22.84v-22.84m79.9 22.84v-22.84m159.801 22.84v-45.643m0 45.643v-22.84" transform="matrix(.10013 0 0 .09987 -18 271)"/><g style="fill:#000;fill-opacity:1"><use xlink:href="#m" x="15.328" y="259.03"/><use xlink:href="#n" x="19.141" y="259.03"/><use xlink:href="#m" x="21.047" y="259.03"/><use xlink:href="#m" x="24.86" y="259.03"/></g><g style="fill:#000;fill-opacity:1"><use xlink:href="#m" x="95.328" y="259.03"/><use xlink:href="#n" x="99.141" y="259.03"/><use xlink:href="#o" x="101.047" y="259.03"/><use xlink:href="#p" x="104.86" y="259.03"/></g><g style="fill:#000;fill-opacity:1"><use xlink:href="#m" x="175.329" y="259.03"/><use xlink:href="#n" x="179.141" y="259.03"/><use xlink:href="#p" x="181.047" y="259.03"/><use xlink:href="#m" x="184.86" y="259.03"/></g><g style="fill:#000;fill-opacity:1"><use xlink:href="#m" x="254.758" y="259.03"/><use xlink:href="#n" x="258.57" y="259.03"/><use xlink:href="#q" x="260.477" y="259.03"/><use xlink:href="#p" x="264.289" y="259.03"/></g><g style="fill:#000;fill-opacity:1"><use xlink:href="#r" x="335.329" y="259.03"/><use xlink:href="#n" x="339.142" y="259.03"/><use xlink:href="#m" x="341.048" y="259.03"/><use xlink:href="#m" x="344.861" y="259.03"/></g><path style="fill:none;stroke-width:11.4143;stroke-linecap:square;stroke-linejoin:miter;stroke:#000;stroke-opacity:1;stroke-miterlimit:10" d="M399.5-2636.7h3196.006" transform="matrix(.10013 0 0 .09987 -18 271)"/><path style="fill:none;stroke-width:5.70714;stroke-linecap:butt;stroke-linejoin:miter;stroke:#000;stroke-opacity:1;stroke-miterlimit:10" d="M399.5-2636.7v45.643m0-45.643v22.842m79.9-22.842v22.842m79.9-22.842v22.842m79.901-22.842v22.842m79.9-22.842v22.842m79.9-22.842v22.842m79.9-22.842v22.842m79.9-22.842v22.842m79.901-22.842v22.842m159.8-22.842v45.643m0-45.643v22.842m79.9-22.842v22.842m79.9-22.842v22.842m79.9-22.842v22.842m79.9-22.842v22.842m79.9-22.842v22.842m79.901-22.842v22.842m79.9-22.842v22.842m79.9-22.842v22.842m159.8-22.842v45.643m0-45.643v22.842m79.9-22.842v22.842m79.9-22.842v22.842m79.9-22.842v22.842m79.901-22.842v22.842m79.9-22.842v22.842m79.9-22.842v22.842m79.9-22.842v22.842m79.9-22.842v22.842m159.8-22.842v45.643m0-45.643v22.842m79.9-22.842v22.842m79.901-22.842v22.842m79.9-22.842v22.842m79.9-22.842v22.842m79.9-22.842v22.842m79.9-22.842v22.842m79.9-22.842v22.842m79.9-22.842v22.842m159.801-22.842v45.643m0-45.643v22.842" transform="matrix(.10013 0 0 .09987 -18 271)"/><g style="fill:#000;fill-opacity:1"><use xlink:href="#m" x="15.328" y="5.38"/><use xlink:href="#n" x="19.141" y="5.38"/><use xlink:href="#m" x="21.047" y="5.38"/><use xlink:href="#m" x="24.86" y="5.38"/></g><g style="fill:#000;fill-opacity:1"><use xlink:href="#m" x="95.328" y="5.38"/><use xlink:href="#n" x="99.141" y="5.38"/><use xlink:href="#o" x="101.047" y="5.38"/><use xlink:href="#p" x="104.86" y="5.38"/></g><g style="fill:#000;fill-opacity:1"><use xlink:href="#m" x="175.329" y="5.38"/><use xlink:href="#n" x="179.141" y="5.38"/><use xlink:href="#p" x="181.047" y="5.38"/><use xlink:href="#m" x="184.86" y="5.38"/></g><g style="fill:#000;fill-opacity:1"><use xlink:href="#m" x="254.758" y="5.38"/><use xlink:href="#n" x="258.57" y="5.38"/><use xlink:href="#q" x="260.477" y="5.38"/><use xlink:href="#p" x="264.289" y="5.38"/></g><g style="fill:#000;fill-opacity:1"><use xlink:href="#r" x="335.329" y="5.38"/><use xlink:href="#n" x="339.142" y="5.38"/><use xlink:href="#m" x="341.048" y="5.38"/><use xlink:href="#m" x="344.861" y="5.38"/></g><path style="fill:none;stroke-width:11.4143;stroke-linecap:square;stroke-linejoin:miter;stroke:#000;stroke-opacity:1;stroke-miterlimit:10" d="M399.5-211.163V-2636.7" transform="matrix(.10013 0 0 .09987 -18 271)"/><path style="fill:none;stroke-width:5.70714;stroke-linecap:butt;stroke-linejoin:miter;stroke:#000;stroke-opacity:1;stroke-miterlimit:10" d="M399.5-219.376h22.824M399.5-329.24h45.647m-45.647 0h22.824M399.5-384.153h22.824M399.5-439.104h22.824M399.5-494.017h22.824M399.5-548.969h22.824M399.5-603.881h22.824M399.5-658.794h22.824M399.5-713.745h22.824M399.5-768.658h22.824M399.5-878.522h22.824m-22.824 0h45.647M399.5-933.473h22.824M399.5-988.386h22.824m-22.824-54.952h22.824M399.5-1098.25h22.824m-22.824-54.952h22.824m-22.824-54.912h22.824m-22.824-54.952h22.824m-22.824-54.912h22.824M399.5-1427.842h45.647m-45.647 0h22.824m-22.824-54.913h22.824m-22.824-54.951h22.824m-22.824-54.913h22.824M399.5-1647.57h22.824m-22.824-54.913h22.824m-22.824-54.952h22.824m-22.824-54.912h22.824m-22.824-54.952h22.824M399.5-1977.124h45.647m-45.647 0h22.824m-22.824-54.951h22.824m-22.824-54.952h22.824M399.5-2141.94h22.824m-22.824-54.912h22.824m-22.824-54.952h22.824m-22.824-54.912h22.824m-22.824-54.952h22.824M399.5-2416.58h22.824M399.5-2526.444h22.824m-22.824 0h45.647m-45.647-54.952h22.824m-22.824-54.912h22.824" transform="matrix(.10013 0 0 .09987 -18 271)"/><g style="fill:#000;fill-opacity:1"><use xlink:href="#s" x=".659" y="241.36"/><use xlink:href="#m" x="2.942" y="241.36"/><use xlink:href="#n" x="6.755" y="241.36"/><use xlink:href="#m" x="8.661" y="241.36"/><use xlink:href="#t" x="12.474" y="241.36"/></g><g style="fill:#000;fill-opacity:1"><use xlink:href="#s" x=".659" y="186.64"/><use xlink:href="#m" x="2.942" y="186.64"/><use xlink:href="#n" x="6.755" y="186.64"/><use xlink:href="#m" x="8.661" y="186.64"/><use xlink:href="#u" x="12.474" y="186.64"/></g><g style="fill:#000;fill-opacity:1"><use xlink:href="#s" x=".659" y="131.35"/><use xlink:href="#m" x="2.942" y="131.35"/><use xlink:href="#n" x="6.755" y="131.35"/><use xlink:href="#m" x="8.661" y="131.35"/><use xlink:href="#v" x="12.474" y="131.35"/></g><g style="fill:#000;fill-opacity:1"><use xlink:href="#s" x=".659" y="76.63"/><use xlink:href="#m" x="2.942" y="76.63"/><use xlink:href="#n" x="6.755" y="76.63"/><use xlink:href="#m" x="8.661" y="76.63"/><use xlink:href="#o" x="12.474" y="76.63"/></g><g style="fill:#000;fill-opacity:1"><use xlink:href="#m" x="2.942" y="21.91"/><use xlink:href="#n" x="6.754" y="21.91"/><use xlink:href="#m" x="8.661" y="21.91"/><use xlink:href="#m" x="12.473" y="21.91"/></g><path style="fill:none;stroke-width:11.4143;stroke-linecap:square;stroke-linejoin:miter;stroke:#000;stroke-opacity:1;stroke-miterlimit:10" d="M3595.506-211.163V-2636.7" transform="matrix(.10013 0 0 .09987 -18 271)"/><path style="fill:none;stroke-width:5.70714;stroke-linecap:butt;stroke-linejoin:miter;stroke:#000;stroke-opacity:1;stroke-miterlimit:10" d="M3595.506-219.376h-22.823m22.823-109.864h-45.685m45.685 0h-22.823m22.823-54.913h-22.823m22.823-54.951h-22.823m22.823-54.913h-22.823m22.823-54.952h-22.823m22.823-54.912h-22.823m22.823-54.913h-22.823m22.823-54.951h-22.823m22.823-54.913h-22.823m22.823-109.864h-22.823m22.823 0h-45.685m45.685-54.951h-22.823m22.823-54.913h-22.823m22.823-54.952h-22.823m22.823-54.912h-22.823m22.823-54.952h-22.823m22.823-54.912h-22.823m22.823-54.952h-22.823m22.823-54.912h-22.823m22.823-109.864h-45.685m45.685 0h-22.823m22.823-54.913h-22.823m22.823-54.951h-22.823m22.823-54.913h-22.823m22.823-54.951h-22.823m22.823-54.913h-22.823m22.823-54.952h-22.823m22.823-54.912h-22.823m22.823-54.952h-22.823m22.823-109.825h-45.685m45.685 0h-22.823m22.823-54.951h-22.823m22.823-54.952h-22.823m22.823-54.913h-22.823m22.823-54.912h-22.823m22.823-54.952h-22.823m22.823-54.912h-22.823m22.823-54.952h-22.823m22.823-54.912h-22.823m22.823-109.864h-22.823m22.823 0h-45.685m45.685-54.952h-22.823m22.823-54.912h-22.823" transform="matrix(.10013 0 0 .09987 -18 271)"/><g style="fill:#000;fill-opacity:1"><use xlink:href="#s" x="347.714" y="241.36"/><use xlink:href="#m" x="349.997" y="241.36"/><use xlink:href="#n" x="353.81" y="241.36"/><use xlink:href="#m" x="355.716" y="241.36"/><use xlink:href="#t" x="359.529" y="241.36"/></g><g style="fill:#000;fill-opacity:1"><use xlink:href="#s" x="347.714" y="186.64"/><use xlink:href="#m" x="349.997" y="186.64"/><use xlink:href="#n" x="353.81" y="186.64"/><use xlink:href="#m" x="355.716" y="186.64"/><use xlink:href="#u" x="359.529" y="186.64"/></g><g style="fill:#000;fill-opacity:1"><use xlink:href="#s" x="347.714" y="131.35"/><use xlink:href="#m" x="349.997" y="131.35"/><use xlink:href="#n" x="353.81" y="131.35"/><use xlink:href="#m" x="355.716" y="131.35"/><use xlink:href="#v" x="359.529" y="131.35"/></g><g style="fill:#000;fill-opacity:1"><use xlink:href="#s" x="347.714" y="76.63"/><use xlink:href="#m" x="349.997" y="76.63"/><use xlink:href="#n" x="353.81" y="76.63"/><use xlink:href="#m" x="355.716" y="76.63"/><use xlink:href="#o" x="359.529" y="76.63"/></g><g style="fill:#000;fill-opacity:1"><use xlink:href="#m" x="347.714" y="21.91"/><use xlink:href="#n" x="351.527" y="21.91"/><use xlink:href="#m" x="353.433" y="21.91"/><use xlink:href="#m" x="357.245" y="21.91"/></g><g clip-path="url(#w)"><path style="fill:none;stroke-width:11.4143;stroke-linecap:round;stroke-linejoin:round;stroke:#00008b;stroke-opacity:1;stroke-miterlimit:10" d="m399.5-2526.444 1.132 2.112 1.17 2.15 1.132 2.113 2.34 4.302 1.132 2.112 1.17 2.151 1.132 2.112 1.131 2.073 1.132 2.112 1.131 2.073 1.131 2.112 1.093 2.073 1.131 2.112 2.263 4.146 1.17 2.19 1.17 2.112 1.171 2.19 1.132 2.151 4.681 8.605 4.526 8.448 1.17 2.112 4.526 8.448 1.17 2.112 1.132 2.112 1.17 2.112 1.132 2.151 1.13 2.112 1.171 2.112 1.132 2.152 1.131 2.112 1.17 2.112 2.263 4.224 1.17 2.15 3.395 6.337 1.17 2.112 1.132 2.15 1.17 2.113 1.132 2.112 1.131 2.151 1.17 2.112 1.132 2.112 1.17 2.151 1.132 2.073 1.131 2.112 1.131 2.073 2.263 4.224 1.132 2.073 2.262 4.224 1.17 2.112 1.132 2.151 1.17 2.112 1.132 2.151 1.17 2.112 1.132 2.152 1.17 2.112 1.132 2.15 1.131 2.113 1.17 2.112 3.395 6.336 1.17 2.112 2.263 4.224 2.34 4.302 1.132 2.112 1.17 2.151 1.132 2.112 2.34 4.303 2.263 4.224 2.263 4.145 1.132 2.112 2.262 4.146 1.132 2.112 1.131 2.073 1.132 2.151 1.17 2.112 1.131 2.112 1.132 2.151 1.17 2.112 1.132 2.112 1.17 2.152 1.132 2.112 1.17 2.15 1.17 2.113 1.132 2.15 3.511 6.454 1.131 2.112 1.17 2.151 1.132 2.073 2.263 4.224 1.131 2.073 1.132 2.112 1.17 2.073 2.263 4.224 1.131 2.073 2.263 4.224 1.17 2.112 1.132 2.112 1.131 2.073 1.132 2.112 1.17 2.112 1.132 2.151 1.17 2.112 1.17 2.152 1.132 2.112 1.17 2.15 1.132 2.113 1.17 2.15 1.17 2.113 1.132 2.073 1.092 2.073 4.526 8.291 1.131 2.112 1.132 2.034 1.17 2.151 1.131 2.151 1.17 2.151 1.171 2.112 2.341 4.303 1.131 2.112 1.17 2.15 1.132 2.113 1.17 2.073 1.132 2.112 1.131 2.073 1.132 2.112 1.131 2.073 1.17 2.112 1.132 2.073 1.131 2.112 1.17 2.112 1.132 2.073 2.263 4.224 1.17 2.112 1.132 2.073 1.131 2.112 1.17 2.112 1.132 2.072 1.17 2.112 1.132 2.073 2.263 4.224 1.17 2.073 1.132 2.112 1.17 2.112 1.131 2.073 1.132 2.112 1.17 2.112 1.132 2.073 1.17 2.112 1.131 2.112 4.526 8.292 1.17 2.073 4.526 8.291 1.131 2.112 1.17 2.112 1.132 2.073 1.17 2.112 1.132 2.112 1.17 2.073 1.132 2.112 1.17 2.112 2.263 4.146 1.17 2.112 3.395 6.219 1.17 2.112 1.131 2.073 1.17 2.073 1.132 2.112 1.17 2.112 1.132 2.073 2.34 4.224 1.132 2.112 1.17 2.073 1.132 2.073 2.263 4.067 1.131 2.073 1.093 2.073 2.262 4.068 1.132 2.073 1.17 2.072 1.132 2.073 1.17 2.112 1.131 2.073 1.17 2.073 1.132 2.073 1.17 2.112 1.132 2.073 1.17 2.112 1.132 2.073 2.34 4.224 1.171 2.073 1.132 2.112 1.17 2.073 1.17 2.112 1.132 2.034 1.131 2.073 1.132 2.033 1.131 2.073 1.131 2.034 1.132 2.073 2.263 4.068 1.17 2.072 1.131 2.073 1.132 2.034 1.131 2.073 1.17 2.034 2.263 4.146 1.132 2.033 1.17 2.073 1.17 2.112 1.132 2.073 1.17 2.073 1.132 2.073 2.34 4.146 1.132 2.112 1.131 1.995 3.395 6.101 1.131 1.995 2.263 4.067 1.092 2.034 2.341 4.146 1.17 2.112 1.17 2.073 1.132 2.073 1.17 2.112 2.341 4.146 1.132 2.072 1.131 1.995 1.132 2.073 1.17 2.034 4.526 8.135 1.17 2.073 1.131 2.034 1.17 2.034 2.264 4.067 1.131 2.073 1.17 2.034 1.132 2.034 1.131 2.073 1.17 2.033 2.264 4.068 1.17 2.034 2.263 4.067 1.17 2.034 1.132 2.073 1.17 2.034 2.263 4.067 1.17 2.034 1.132 2.073 1.17 2.034 1.131 2.034 1.132 1.994 1.131 2.034 1.132 1.995 1.13 2.034 1.132 1.994 1.132 2.034 2.263 3.99 1.17 2.033 1.131 2.073 1.17 2.034 1.132 2.034 1.17 2.034 1.132 2.033 1.17 2.034 1.132 2.034 1.17 2.034 1.132 2.034 1.131 1.994 1.17 2.034 1.132 2.034 1.131 1.995 1.132 2.033 1.17 2.034 1.131 2.034 1.17 2.034 1.132 2.034 2.341 4.067 1.131 2.034 1.17 2.034 1.132 2.034 4.526 7.978 1.131 1.956 4.526 7.979 1.17 2.033 1.132 1.995 1.17 2.034 1.131 2.034 1.17 1.994 1.132 2.034 1.17 1.995 1.132 2.034 1.17 2.073 1.17 1.994 1.132 2.034 3.512 6.101 1.13 2.034 1.132 1.995 1.132 1.955 1.17 1.995 2.263 3.99 1.131 1.955 3.395 5.984 1.13 1.956 1.171 1.994 2.263 3.99 1.17 1.994 1.132 1.995 1.131 1.956 1.17 2.033 1.132 1.995 1.17 2.034 1.171 1.995 1.131 1.994 1.17 2.034 1.132 1.995 1.17 1.995 4.526 7.822 1.093 1.955 3.394 5.867 1.17 1.995 1.17 2.034 1.171 1.994 1.131 2.034 1.17 1.995 1.171 2.034 2.341 3.989 1.131 1.955 1.132 1.995 3.394 5.867 1.17 1.995 3.395 5.866 1.17 1.956 1.131 1.995 1.17 1.955 1.132 1.956 1.132 1.994 1.131 1.956 1.17 1.956 2.263 3.91 1.17 1.995 2.263 3.912 1.17 1.955 2.264 3.911 1.17 1.956 1.131 1.955 1.17 1.956 2.264 3.911 1.17 1.995 1.132 1.955 1.17 1.956 2.263 3.833 1.131 1.955 2.263 3.833 1.131 1.956 2.263 3.833 1.17 1.955 1.132 1.956 1.17 1.956 2.263 3.91 1.17 1.917 1.171 1.956 2.263 3.91 1.17 1.917 1.132 1.917 1.131 1.955 1.131 1.917 1.17 1.955 2.264 3.833 1.17 1.956 1.131 1.916 2.341 3.912 1.132 1.955 1.17 1.917 1.131 1.955 1.17 1.956 2.264 3.754 1.131 1.917 1.131 1.877 1.132 1.917 1.131 1.877 1.132 1.917 1.131 1.877 1.131 1.916 1.17 1.917 2.264 3.833 1.17 1.955 1.131 1.917 1.17 1.916 1.132 1.917 1.17 1.916 1.171 1.956 1.131 1.916 1.17 1.917 1.171 1.955 1.17 1.917 1.132 1.916 1.17 1.917 1.132 1.916 5.657 9.387 1.17 1.877 2.263 3.755 1.132 1.916 1.13 1.878 1.171 1.877 3.395 5.632 1.17 1.877 1.131 1.917 1.17 1.916 1.171 1.878 1.132 1.916 1.17 1.917 1.131 1.877 1.17 1.916 1.171 1.878 1.132 1.838 1.092 1.877 5.657 9.192 1.131 1.877 1.17 1.877 1.132 1.917 1.17 1.877 1.171 1.917 1.17 1.877 1.17 1.916 1.132 1.878 1.17 1.916 1.171 1.838 1.092 1.839 1.17 1.877 3.395 5.515 1.17 1.877 2.263 3.677 1.132 1.877 1.17 1.838 1.131 1.838 1.17 1.878 1.132 1.838 1.132 1.877 1.17 1.839 2.263 3.676 1.17 1.838 2.263 3.677 1.131 1.877 1.17 1.838 2.264 3.677 1.17 1.838 1.131 1.838 1.17 1.839 2.264 3.676 1.17 1.838 1.131 1.838 1.132 1.8 1.131 1.838 1.132 1.799 1.17 1.8 1.132 1.837 1.092 1.8 1.17 1.799 1.132 1.799 1.131 1.838 1.17 1.838 1.132 1.838 1.17 1.839 1.132 1.799 1.17 1.838 1.132 1.838 1.17 1.8 1.131 1.838 2.263 3.598 1.17 1.838 2.263 3.598 1.17 1.8 1.132 1.799 1.132 1.838 1.17 1.799 1.17 1.838 1.132 1.838 1.17 1.8 1.17 1.838 1.132 1.799 1.17 1.838 2.263 3.52 1.093 1.8 4.525 7.04 1.132 1.799 1.17 1.799 2.263 3.598 1.17 1.8 1.132 1.798 1.17 1.8 1.131 1.76 2.341 3.598 1.132 1.799 2.34 3.598 1.17 1.838 1.132 1.8 1.17 1.798 1.132 1.8 1.17 1.76 3.395 5.28 1.131 1.72 4.526 7.04 1.17 1.76 2.263 3.52 1.17 1.76 1.132 1.76 1.131 1.722 1.131 1.76 1.17 1.799 1.171 1.76 1.132 1.76 1.17 1.799 1.132 1.76 2.34 3.52 2.263 3.52 1.132 1.682 5.657 8.604 1.092 1.721 3.511 5.28 1.132 1.76 2.34 3.52 1.17 1.8 1.171 1.72 1.132 1.76 1.131 1.721 1.131 1.682 1.17 1.721 4.526 6.884 1.17 1.72 2.264 3.442 1.17 1.721 2.263 3.442 1.17 1.682 2.263 3.442 1.17 1.72 1.132 1.682 1.131 1.721 1.17 1.721 1.132 1.682 1.17 1.72 1.132 1.683 1.131 1.72 1.132 1.682 1.17 1.721 1.131 1.682 1.17 1.72 1.132 1.683 1.17 1.72 4.526 6.728 1.132 1.642 2.262 3.364 1.132 1.643 1.131 1.682 1.17 1.681 1.132 1.721 1.17 1.682 1.132 1.682 1.17 1.682 1.132 1.681 1.17 1.682 1.132 1.682 1.17 1.682 1.131 1.642 2.263 3.364 1.17 1.643 1.132 1.642 1.131 1.682 1.17 1.643 1.132 1.682 1.17 1.681 1.132 1.682 1.17 1.682 1.132 1.643 1.17 1.682 1.17 1.642 1.132 1.682 2.263 3.285 2.263 3.208 1.131 1.642 1.131 1.604 1.132 1.642 1.131 1.604 1.132 1.643 1.17 1.642 1.131 1.643 1.17 1.682 1.132 1.603 1.17 1.643 2.263 3.285 2.341 3.286 1.17 1.682 1.132 1.603 1.17 1.643 1.17 1.682 1.171 1.603 1.132 1.643 1.17 1.603 1.092 1.604 2.263 3.207 1.17 1.604 2.263 3.207 1.132 1.564 2.263 3.208 1.17 1.603 3.394 4.81 1.17 1.565 1.132 1.604 1.17 1.603 1.132 1.643 1.17 1.604 1.132 1.603 2.34 3.207 1.132 1.604 1.17 1.603 1.132 1.526 3.394 4.693 1.092 1.526 3.394 4.693 1.17 1.604 1.171 1.564 1.132 1.604 1.17 1.603 1.17 1.565 2.341 3.207 1.132 1.564 1.17 1.565 1.132 1.564 1.131 1.525 2.263 3.13 1.17 1.525 1.132 1.564 1.131 1.526 1.131 1.564 1.17 1.525 1.132 1.565 1.132 1.525 1.17 1.565 1.131 1.525 1.17 1.564 1.132 1.526 1.132 1.564 1.131 1.526 1.17 1.525 2.263 3.05 1.17 1.526 1.132 1.564 1.131 1.526 1.17 1.525 2.264 3.05 1.17 1.526 1.131 1.525 1.17 1.526 2.264 3.05 1.17 1.487 1.131 1.486 1.132 1.525 5.657 7.432 1.131 1.525 1.17 1.525 1.171 1.486 1.131 1.526 1.132 1.486 1.17 1.525 1.132 1.487 1.17 1.525 1.131 1.486 1.17 1.486 3.395 4.46 1.17 1.485 1.132 1.487 1.131 1.447 1.17 1.525 1.132 1.486 2.34 2.973 1.132 1.486 1.17 1.486 1.132 1.486 1.17 1.487 7.92 10.13 1.093 1.408 1.17 1.486 1.132 1.447 1.17 1.486 1.131 1.447 1.17 1.447 1.132 1.448 1.17 1.486 1.132 1.447 1.17 1.447 1.17 1.486 1.171 1.447 1.132 1.448 1.17 1.486 1.131 1.447 2.341 2.894 1.132 1.447 2.262 2.816 1.132 1.447 3.394 4.224 1.17 1.408 1.132 1.408 1.131 1.448 1.132 1.408 1.17 1.408 4.526 5.632 1.17 1.447 1.17 1.408 1.132 1.408 1.17 1.447 1.17 1.408 1.132 1.408 1.17 1.408 1.17 1.447 1.093 1.369 7.92 9.582 1.131 1.408 4.682 5.632 1.17 1.37 1.132 1.407 1.17 1.408 1.132 1.37 1.17 1.368 1.132 1.369 1.13 1.33 3.395 4.107 1.17 1.33 2.263 2.737 1.17 1.369 1.132 1.33 1.132 1.369 1.17 1.369 1.131 1.33 1.17 1.368 1.132 1.33 1.132 1.369 1.131 1.33 1.17 1.33 1.132 1.368 1.131 1.33 1.17 1.33 2.263 2.66 1.17 1.369 1.132 1.33 1.17 1.33 1.132 1.329 1.17 1.33 2.263 2.66 1.132 1.29 1.131 1.33 2.263 2.581 1.131 1.33 1.17 1.29 1.093 1.291 1.131 1.29 2.341 2.66 1.132 1.291 1.17 1.33 1.131 1.29 1.17 1.33 1.132 1.291 1.17 1.29 3.395 3.873 1.17 1.29 2.263 2.582 1.17 1.29 2.263 2.582 2.341 2.581 1.131 1.29 1.17 1.253 1.132 1.29 2.341 2.582 1.132 1.251 1.092 1.252 1.17 1.251 1.093 1.213 3.394 3.754 1.131 1.213 1.17 1.29 1.132 1.252 1.17 1.252 2.263 2.503 1.17 1.251 1.132 1.252 2.341 2.503 1.131 1.252 2.341 2.503 1.132 1.251 1.17 1.213 2.34 2.503 7.92 8.487 1.132 1.173 1.131 1.213 1.17 1.212 2.264 2.425 1.17 1.174 1.131 1.212 1.132 1.173 1.131 1.213 1.17 1.212 1.132 1.213 1.17 1.173 1.17 1.213 1.132 1.212 1.17 1.173 1.171 1.213 1.131 1.212 1.132 1.135 2.263 2.346 1.131 1.134 1.131 1.174 1.093 1.134 1.131 1.173 2.302 2.308 1.17 1.212 2.341 2.347 1.132 1.173 3.51 3.52 1.132 1.174 2.263 2.268 1.17 1.135 5.658 5.67 1.17 1.135 1.131 1.134 1.17 1.134 2.264 2.269 1.17 1.134 1.131 1.134 1.132 1.095 1.17 1.135 1.132 1.095 1.131 1.134 1.17 1.095 1.132 1.134 1.131 1.095 1.17 1.096 1.132 1.134 1.131 1.095 1.17 1.095 1.132 1.134 1.17 1.095 2.263 2.19 1.17 1.096 1.132 1.095 1.132 1.056 1.131 1.095 1.131 1.056 1.132 1.095 1.131 1.056 1.132 1.095 1.131 1.056 1.17 1.095 1.132 1.056 1.17 1.096 1.132 1.056 1.17 1.095 1.131 1.056 1.17 1.095 2.264 2.112 1.17 1.056 1.131 1.056 1.17 1.056 4.526 4.224 2.341 2.112 1.132 1.017 1.17 1.056 1.131 1.056 2.341 2.112 7.92 7.118 1.131.978 2.263 2.034 1.17 1.017 1.132 1.017 1.17 1.016 1.132 1.017 1.17 1.017 1.132 1.017 1.17 1.017 1.132 1.017 1.17 1.017 1.17.978 1.132 1.017 2.34 2.033 1.171.978 1.131 1.017 2.263 1.956 1.17.977 1.093.978 1.17.978 1.132.939 3.394 2.933 1.131.939 1.17.977 1.132.978 1.132.939 1.131.978 1.17.938 1.132.978 1.17.939 1.132.978 1.17.977 1.131.94 1.17.977 1.171.939 1.132.977 1.17.939 2.263 1.838 2.224 1.838 4.525 3.677 2.341 1.877 1.131.939 4.682 3.755 1.131.938 2.302 1.8 2.263 1.799 2.302 1.799 2.263 1.76 2.262 1.799 2.302 1.799 4.604 3.52 2.263 1.76 2.302 1.76 2.301 1.721 2.263 1.76 4.604 3.442 2.302 1.682 2.262 1.72 2.302 1.682 2.263 1.682 2.263 1.643 2.263 1.682 2.301 1.642 2.302 1.682 4.604 3.285 2.263 1.643 4.603 3.207 2.263 1.604 4.604 3.207 2.34 1.603 2.302 1.565 2.263 1.525 2.263 1.565 2.263 1.486 2.223 1.525 2.341 1.526 2.263 1.525 4.604 3.05 2.34 1.487 2.302 1.525 2.341 1.487 2.302 1.486 2.263 1.447 2.263 1.408 2.262 1.447 2.263 1.408 4.604 2.816 4.525 2.816 2.341 1.408 6.906 4.107 6.788 3.99 2.263 1.29 2.302 1.33 2.34 1.33 2.302 1.33 2.341 1.29 2.263 1.29 2.302 1.252 4.525 2.503 2.302 1.252 2.302 1.212 2.263 1.252 2.301 1.212 2.302 1.174 2.302 1.212 2.263 1.173 2.302 1.213 2.302 1.173 2.301 1.135 2.263 1.173 2.302 1.134 2.263 1.134 4.525 2.19 2.302 1.096 2.263 1.134 2.302 1.095 2.302 1.056 2.34 1.095 2.263 1.056 2.302 1.056 2.263 1.017 2.302 1.056 6.905 3.05 2.34 1.018 2.225.977 2.262.978 4.526 1.878 2.302.977 6.905 2.816 2.302.9 2.34.939 4.605 1.799 4.564 1.72 4.526 1.722 9.129 3.285 4.643 1.643 4.603 1.564 4.526 1.525 4.486 1.448 4.643 1.486 4.682 1.447 4.525 1.369 4.565 1.369 4.564 1.33 4.604 1.251 4.565 1.252 4.603 1.212 4.565 1.134 4.604 1.135 4.525 1.095 4.526 1.017 4.603 1.017 4.604.977 4.565.939 4.564.9 9.246 1.72 9.052 1.487 9.168 1.369 9.285 1.212 9.09 1.056 9.13.86 9.246.705 4.486.312 4.526.235 4.643.235 2.34.078 2.302.078 4.565.157 2.263.039 2.301.039h2.302l2.263.039h6.866l2.302-.04 2.263-.038 2.302-.04 2.302-.078 2.301-.039 4.565-.195 2.263-.078 2.302-.118 4.525-.234 4.604-.313 4.604-.352 9.129-.783 9.246-.977 9.012-1.096 9.207-1.33 9.286-1.486 9.09-1.642 4.525-.86 4.565-.94 4.643-.977 4.603-1.017 4.526-1.017 4.526-1.056 9.285-2.347 4.564-1.212 4.526-1.252 4.604-1.29 9.129-2.738 4.603-1.408 4.565-1.486 4.604-1.487 9.05-3.129 4.604-1.642 4.604-1.682 4.604-1.72 4.564-1.76 4.604-1.84 2.302-.899 2.302-.978 2.262-.9 2.263-.938 2.263-.978 2.263-.938 2.302-1.017 2.301-.978 4.604-2.034 4.604-2.112 2.34-1.056 2.302-1.056 2.302-1.095 2.263-1.056 4.525-2.19 2.302-1.134 2.263-1.095 2.302-1.174 2.263-1.134 2.301-1.173 2.341-1.213 2.302-1.173 2.302-1.213 6.788-3.637 2.224-1.212 2.34-1.291 2.303-1.29 2.34-1.292 2.341-1.33 4.526-2.58 2.302-1.33 2.263-1.33 2.301-1.37 2.263-1.329 2.302-1.408 2.302-1.369 2.302-1.408 2.262-1.408 2.302-1.408 2.263-1.447 2.302-1.447 2.302-1.486 2.301-1.447 2.302-1.487 4.526-2.972 2.263-1.526 2.262-1.486 6.906-4.693 2.302-1.604 2.301-1.564 2.263-1.604 2.302-1.603 2.263-1.643 2.302-1.643 2.34-1.642 2.302-1.682 2.302-1.721 2.263-1.643 6.788-5.045 2.302-1.76 2.263-1.721 2.302-1.8 2.302-1.76 2.34-1.798 2.302-1.8 2.341-1.838 2.302-1.838 2.263-1.8 2.262-1.837 2.302-1.839 2.263-1.838 3.394-2.816 1.17-.938 2.263-1.878 1.17-.938 1.132-.978 1.132-.939 2.34-1.956 1.132-.977 1.17-.978 1.132-.978 1.17-.978 1.17-1.017 1.132-.977 1.131-.939 1.093-.978 5.657-4.889 1.17-1.056 1.131-1.017 2.341-2.033 1.17-1.056 1.171-1.017 1.132-1.056 1.17-1.017 1.131-1.017 1.17-1.056 2.264-2.034 1.13-1.056 1.132-1.017 1.132-1.056 1.17-1.017 2.263-2.112 1.17-1.056 1.132-1.056 1.17-1.095 2.263-2.112 1.131-1.095 1.17-1.056 1.132-1.095 1.17-1.056 2.263-2.19 1.17-1.056 3.395-3.286 1.17-1.095 1.132-1.134 1.17-1.095 1.132-1.095 1.17-1.135 1.131-1.095 1.132-1.134 1.131-1.095 1.132-1.134 1.131-1.096 1.131-1.134 1.132-1.095 1.17-1.134 6.867-6.884 1.131-1.173 1.17-1.134 1.132-1.174 1.17-1.173 1.132-1.173 2.301-2.308 2.263-2.347 1.132-1.212 1.17-1.173 1.131-1.174 1.17-1.212 1.132-1.174 1.17-1.212 1.132-1.212 1.17-1.213 1.132-1.212 1.17-1.213 1.17-1.251 1.132-1.174 1.132-1.212 1.13-1.174 2.264-2.424 1.092-1.213 2.263-2.425 1.17-1.251 1.132-1.252 1.17-1.251 1.132-1.252 1.17-1.252 2.263-2.503 1.17-1.251 1.17-1.291 1.132-1.29 1.17-1.291 1.17-1.252 1.171-1.29 1.132-1.291 1.17-1.33 1.17-1.29 1.132-1.252 2.263-2.582 1.131-1.251 4.526-5.163 1.17-1.33 1.131-1.29 1.132-1.33 1.131-1.29 1.17-1.33 2.263-2.66 1.132-1.29 1.17-1.37 1.17-1.33 1.132-1.369 1.17-1.368 1.132-1.33 2.34-2.738 1.132-1.369 2.263-2.66 1.131-1.368 1.132-1.33 1.131-1.37 1.092-1.329 1.17-1.369 1.093-1.369 5.852-7.04 1.132-1.447 1.17-1.408 1.17-1.447 1.132-1.408 1.131-1.369 1.132-1.447 1.17-1.408 3.394-4.224 1.17-1.447 1.132-1.408 2.263-2.895 1.17-1.447 2.263-2.894 1.17-1.447 1.132-1.486 1.17-1.447 1.132-1.447 1.131-1.487 1.132-1.447 1.17-1.486 2.263-2.973 1.17-1.447 1.132-1.486 1.17-1.525 2.263-2.973 1.17-1.525 1.132-1.486 1.17-1.526 1.131-1.486 1.132-1.525 2.263-2.973 2.262-3.05 1.132-1.487 2.263-3.05 1.17-1.526 1.131-1.564 1.17-1.565 1.132-1.564 1.17-1.565 1.132-1.525 1.17-1.603 1.132-1.565 1.17-1.564 2.263-3.13 1.17-1.564 2.263-3.129 1.132-1.603 1.131-1.565 1.17-1.642 1.17-1.604 1.132-1.604 2.341-3.207 1.131-1.642 1.17-1.643 9.052-12.829 2.263-3.285 1.17-1.643 1.132-1.681 1.17-1.643 1.132-1.643 1.17-1.682 1.131-1.681 1.17-1.682 1.132-1.682 2.341-3.364 1.17-1.72 1.132-1.682 1.17-1.721 1.132-1.721 1.17-1.72 2.263-3.365 1.17-1.681 2.263-3.364 1.131-1.72 1.132-1.683 3.394-5.162 1.17-1.721 3.395-5.163 1.17-1.72 1.131-1.76 1.17-1.76 1.132-1.76 1.17-1.76 1.132-1.8 1.17-1.76 1.17-1.8 1.132-1.76 1.17-1.798 1.132-1.76 1.131-1.721 2.263-3.52 1.093-1.76 3.394-5.28 1.17-1.839 1.17-1.799 1.132-1.838 4.682-7.353 1.17-1.877 2.263-3.598 1.131-1.839 1.132-1.799 1.131-1.838 1.17-1.838 3.395-5.515 1.17-1.838 1.132-1.878 1.13-1.838 1.171-1.877 1.132-1.838 1.131-1.878 1.17-1.877 1.132-1.878 1.131-1.838 1.17-1.877 1.132-1.877 1.132-1.917 1.17-1.877 1.131-1.878 1.132-1.916 1.17-1.877 1.132-1.917 1.17-1.877 2.263-3.833 1.17-1.917 2.263-3.833 1.17-1.916 1.132-1.916 1.131-1.878 5.657-9.582 1.132-1.956 1.17-1.955 1.131-1.995 1.17-1.956 1.132-1.955 1.17-1.956 1.171-1.994 1.131-1.995 1.132-1.956 1.17-1.955 1.132-1.995 1.131-1.955 1.131-1.995 1.17-1.956 2.264-3.99 1.17-1.994 1.131-2.034 1.17-1.994 1.171-2.034 1.132-2.034 1.17-2.034 1.131-2.033 1.17-2.034 1.132-1.956 1.132-1.995 1.131-2.033 3.394-5.984 1.132-2.034 1.131-1.995 1.131-2.034 1.17-2.073 1.132-2.072 1.132-2.034 1.17-2.073 1.131-2.073 1.17-2.073 1.132-2.073 1.17-2.073 1.171-2.112 1.132-2.112 1.17-2.112 1.17-2.073 1.17-2.112 1.132-2.112 1.17-2.15 4.526-8.293 1.132-2.112 1.131-2.072 1.17-2.113 1.132-2.072 1.131-2.152 1.132-2.072 1.131-2.152 1.17-2.112 1.132-2.112 1.131-2.15 1.132-2.113 1.17-2.15 1.131-2.152 1.17-2.19 1.132-2.151 1.17-2.19 1.171-2.152 1.131-2.19 2.341-4.38 1.132-2.152 1.092-2.15 1.131-2.113 4.526-8.604 1.131-2.19 1.17-2.23 1.132-2.23 2.341-4.458 2.34-4.537 1.132-2.23 1.17-2.268 1.132-2.19 1.17-2.23 2.263-4.458 1.132-2.19 1.131-2.269 1.17-2.23 2.263-4.458 1.132-2.268 1.17-2.269 2.263-4.537 1.17-2.268 1.132-2.269 1.17-2.268 1.132-2.269 1.13-2.307 1.132-2.269 1.17-2.268 2.264-4.615 1.17-2.308 1.131-2.268 1.17-2.308 1.132-2.346 1.132-2.308 1.17-2.308 1.131-2.346 1.132-2.308 1.17-2.347 1.132-2.346 3.394-6.923 1.131-2.347 1.132-2.307 1.17-2.347 1.131-2.308 1.132-2.346 1.131-2.386 1.17-2.386 1.132-2.386 1.17-2.385 2.263-4.772 1.17-2.386 1.171-2.425 2.263-4.771 1.17-2.386 1.132-2.386 1.131-2.425 1.131-2.386 1.17-2.425 2.264-4.85 1.17-2.424 1.17-2.464 1.132-2.464 1.17-2.425 1.17-2.464 1.132-2.464 1.17-2.464 1.093-2.425 5.657-12.125 1.131-2.464 1.132-2.425 1.17-2.503 1.131-2.464 1.17-2.503 2.264-5.006 2.34-5.007 1.132-2.503 1.17-2.542 1.132-2.542 2.34-5.085 1.132-2.581 2.34-5.084 1.171-2.582 2.263-5.006 1.131-2.542 1.132-2.503 2.263-5.085 1.13-2.503 1.132-2.542 1.17-2.582 2.264-5.084 2.262-5.163 1.17-2.542 2.264-5.163 2.34-5.24 1.132-2.621 1.17-2.62 1.132-2.621 1.17-2.66 1.17-2.62 1.132-2.66 1.131-2.542 2.263-5.163 1.131-2.62 2.263-5.163 1.093-2.581 1.131-2.62 2.34-5.398 1.171-2.66 1.17-2.698 1.132-2.7 2.34-5.397 1.171-2.737 4.526-10.639 1.17-2.66 1.132-2.698 1.131-2.66 1.131-2.698 1.17-2.699 2.264-5.397 1.17-2.699 1.131-2.738 1.132-2.698 1.17-2.738 2.263-5.398 1.17-2.737 2.263-5.476 1.17-2.738 2.263-5.475 1.17-2.738 1.132-2.738 1.132-2.777 1.17-2.777 1.132-2.738 1.17-2.777 2.263-5.553 1.17-2.738 1.132-2.777 1.13-2.738 1.132-2.777 2.263-5.475 2.263-5.554 1.131-2.738 1.17-2.855 1.132-2.816 1.17-2.816 1.132-2.816 1.17-2.816 1.132-2.855 1.17-2.817 2.263-5.632 1.17-2.855 2.263-5.632 1.17-2.855 2.263-5.632 1.17-2.855 1.132-2.855 1.17-2.894 1.132-2.895 1.17-2.855 1.132-2.894 2.34-5.789 1.132-2.894 1.131-2.816 2.263-5.71 1.132-2.816 4.525-11.42 1.132-2.895 1.17-2.894 1.131-2.934 1.17-2.933 1.132-2.894 1.17-2.934 1.132-2.933 1.17-2.933 1.132-2.973 1.17-2.972 1.17-2.934 1.132-2.972 3.511-8.917 1.132-2.973 3.394-8.8 1.17-2.933 4.526-11.734 2.263-5.945 1.17-2.972 2.263-5.945 1.17-2.973 1.132-3.011 1.131-2.973 1.132-3.011 1.17-3.051 1.17-3.012 1.132-3.05 2.34-6.102 1.132-3.011 1.17-3.09 2.263-5.945 1.093-2.972 1.131-3.012 2.263-5.945 2.263-6.023 2.34-6.18 1.132-3.129 1.17-3.09 2.341-6.257 1.17-3.09 1.132-3.168 1.17-3.05 1.132-3.052 1.131-3.09 1.131-3.05 2.263-6.18 1.17-3.09 1.132-3.05 1.131-3.13 1.17-3.128 1.132-3.09 1.132-3.129 1.17-3.129 2.263-6.257 1.17-3.13 2.263-6.257 1.17-3.168 1.132-3.13 1.131-3.167 1.17-3.13 2.263-6.335 1.17-3.168 2.264-6.336 1.17-3.207 1.131-3.168 1.17-3.208 1.132-3.207 1.17-3.168 1.132-3.168 1.092-3.207 1.17-3.168 2.264-6.336 1.131-3.207 1.132-3.168 1.13-3.207 1.171-3.207 1.132-3.286 1.131-3.246 1.17-3.246 1.132-3.286 1.17-3.246 1.132-3.285 1.17-3.247 1.132-3.285 1.17-3.246 1.131-3.246 1.132-3.286 1.131-3.246 1.132-3.285 1.17-3.286 1.131-3.285 1.17-3.325 1.132-3.324 2.341-6.649 1.131-3.324 1.17-3.364 1.132-3.325 1.17-3.363 5.658-16.427 1.092-3.324 1.131-3.286 1.132-3.324 1.17-3.364 1.132-3.363 1.17-3.364 1.131-3.403 1.17-3.402 1.132-3.364 1.17-3.403 1.132-3.402 1.17-3.442 1.132-3.442 3.511-10.325 1.131-3.481 2.341-6.884 5.657-17.013 1.132-3.442 1.17-3.403 1.131-3.403 1.132-3.48 3.394-10.326 1.17-3.48 1.132-3.443 1.131-3.48 1.17-3.482 1.132-3.52 2.34-7.04 1.132-3.52 1.17-3.559 1.132-3.52 1.17-3.559 1.132-3.56 1.131-3.441 3.395-10.443 1.13-3.442 1.132-3.48 1.132-3.52 1.131-3.481 1.132-3.599 2.34-7.196 1.17-3.638 1.171-3.598 1.17-3.637 1.132-3.598 1.17-3.638 2.263-7.118 1.17-3.598 3.395-10.678 1.131-3.598 1.17-3.56 2.263-7.196 1.17-3.637 2.264-7.197 1.17-3.637 1.131-3.637 1.132-3.599 1.17-3.637 1.132-3.598 1.131-3.638 1.17-3.637 2.263-7.275 1.17-3.637 1.132-3.637 1.131-3.677 1.17-3.637 1.132-3.677 1.17-3.637 2.263-7.353 1.17-3.676 9.052-29.1 1.17-3.676 1.132-3.676 1.17-3.716 1.132-3.716 1.17-3.715 2.263-7.431 1.17-3.677 1.17-3.754 2.264-7.353 1.13-3.716 1.171-3.677 1.132-3.715 1.131-3.677 1.132-3.715 1.17-3.716 1.131-3.715 2.341-7.51 1.132-3.715 1.17-3.755 1.131-3.755 2.341-7.51 1.132-3.637 1.092-3.676 3.394-11.03 1.132-3.637 2.262-7.353 1.17-3.715 2.264-7.51 1.17-3.715 1.131-3.755 1.17-3.716 1.132-3.754 1.17-3.755" transform="matrix(.10013 0 0 .09987 -18 271)"/></g></svg>