<svg xmlns="http://www.w3.org/2000/svg" xmlns:xlink="http://www.w3.org/1999/xlink" width="352pt" height="260pt" viewBox="0 0 352 260"><defs><clipPath id="a"><path d="M175 7.66h2v242.25h-2zm0 0"/></clipPath><clipPath id="b"><path d="M16 128h320v2H16zm0 0"/></clipPath><clipPath id="c"><path d="M52 7.66h2v242.25h-2zm0 0"/></clipPath><clipPath id="d"><path d="M114 7.66h1v242.25h-1zm0 0"/></clipPath><clipPath id="e"><path d="M175 7.66h2v242.25h-2zm0 0"/></clipPath><clipPath id="f"><path d="M237 7.66h1v242.25h-1zm0 0"/></clipPath><clipPath id="g"><path d="M298 7.66h2v242.25h-2zm0 0"/></clipPath><clipPath id="h"><path d="M16 249h320v.91H16zm0 0"/></clipPath><clipPath id="i"><path d="M16 189h320v1H16zm0 0"/></clipPath><clipPath id="j"><path d="M16 128h320v2H16zm0 0"/></clipPath><clipPath id="k"><path d="M16 67h320v2H16zm0 0"/></clipPath><clipPath id="l"><path d="M16 7.66h320V8H16zm0 0"/></clipPath><symbol overflow="visible" id="m"><path style="stroke:none" d="M1.953-2.14H.313v.5h1.64zm0 0"/></symbol><symbol overflow="visible" id="n"><path style="stroke:none" d="M1.781-3.453V0h.594v-4.86h-.39c-.22.75-.36.86-1.282.97v.437zm0 0"/></symbol><symbol overflow="visible" id="o"><path style="stroke:none" d="M1.89-4.86c-.452 0-.874.204-1.124.548-.313.421-.47 1.062-.47 1.968 0 1.64.548 2.5 1.595 2.5 1.03 0 1.593-.875 1.593-2.469 0-.937-.156-1.562-.484-2a1.355 1.355 0 0 0-1.11-.546zm0 .548c.641 0 .97.64.97 1.953 0 1.375-.313 2.015-.985 2.015-.64 0-.969-.672-.969-2 0-1.328.328-1.969.985-1.969zm0 0"/></symbol><symbol overflow="visible" id="p"><path style="stroke:none" d="M3.266-4.86H.75L.39-2.202h.563c.281-.344.516-.453.89-.453.657 0 1.063.437 1.063 1.156 0 .703-.406 1.125-1.062 1.125-.532 0-.86-.266-1-.813h-.61c.094.391.157.579.297.766.281.36.766.578 1.328.578.97 0 1.657-.703 1.657-1.734 0-.953-.641-1.625-1.563-1.625-.344 0-.625.094-.906.297l.187-1.344h2.032zm0 0"/></symbol></defs><path style="stroke:none;fill-rule:nonzero;fill:#fff;fill-opacity:1" d="M16 249.91h320V7.66H16zm0 0"/><g clip-path="url(#a)"><path style="fill:none;stroke-width:5.70714;stroke-linecap:round;stroke-linejoin:miter;stroke:#bfbfbf;stroke-opacity:1;stroke-miterlimit:10" d="M1997.503-211.163V-2636.7" transform="matrix(.10013 0 0 .09987 -24 271)"/></g><g clip-path="url(#b)"><path style="fill:none;stroke-width:5.70714;stroke-linecap:round;stroke-linejoin:miter;stroke:#bfbfbf;stroke-opacity:1;stroke-miterlimit:10" d="M399.5-1423.931h3196.006" transform="matrix(.10013 0 0 .09987 -24 271)"/></g><g clip-path="url(#c)"><path style="fill:none;stroke-width:5.70714;stroke-linecap:round;stroke-linejoin:miter;stroke:#bfbfbf;stroke-opacity:1;stroke-dasharray:11.4143,17.1214;stroke-miterlimit:10" d="M768.258-211.163V-2636.7" transform="matrix(.10013 0 0 .09987 -24 271)"/></g><g clip-path="url(#d)"><path style="fill:none;stroke-width:5.70714;stroke-linecap:round;stroke-linejoin:miter;stroke:#bfbfbf;stroke-opacity:1;stroke-dasharray:11.4143,17.1214;stroke-miterlimit:10" d="M1382.88-211.163V-2636.7" transform="matrix(.10013 0 0 .09987 -24 271)"/></g><g clip-path="url(#e)"><path style="fill:none;stroke-width:5.70714;stroke-linecap:round;stroke-linejoin:miter;stroke:#bfbfbf;stroke-opacity:1;stroke-dasharray:11.4143,17.1214;stroke-miterlimit:10" d="M1997.503-211.163V-2636.7" transform="matrix(.10013 0 0 .09987 -24 271)"/></g><g clip-path="url(#f)"><path style="fill:none;stroke-width:5.70714;stroke-linecap:round;stroke-linejoin:miter;stroke:#bfbfbf;stroke-opacity:1;stroke-dasharray:11.4143,17.1214;stroke-miterlimit:10" d="M2612.125-211.163V-2636.7" transform="matrix(.10013 0 0 .09987 -24 271)"/></g><g clip-path="url(#g)"><path style="fill:none;stroke-width:5.70714;stroke-linecap:round;stroke-linejoin:miter;stroke:#bfbfbf;stroke-opacity:1;stroke-dasharray:11.4143,17.1214;stroke-miterlimit:10" d="M3226.748-211.163V-2636.7" transform="matrix(.10013 0 0 .09987 -24 271)"/></g><g clip-path="url(#h)"><path style="fill:none;stroke-width:5.70714;stroke-linecap:round;stroke-linejoin:miter;stroke:#bfbfbf;stroke-opacity:1;stroke-dasharray:11.4143,17.1214;stroke-miterlimit:10" d="M399.5-211.163h3196.006" transform="matrix(.10013 0 0 .09987 -24 271)"/></g><g clip-path="url(#i)"><path style="fill:none;stroke-width:5.70714;stroke-linecap:round;stroke-linejoin:miter;stroke:#bfbfbf;stroke-opacity:1;stroke-dasharray:11.4143,17.1214;stroke-miterlimit:10" d="M399.5-817.547h3196.006" transform="matrix(.10013 0 0 .09987 -24 271)"/></g><g clip-path="url(#j)"><path style="fill:none;stroke-width:5.70714;stroke-linecap:round;stroke-linejoin:miter;stroke:#bfbfbf;stroke-opacity:1;stroke-dasharray:11.4143,17.1214;stroke-miterlimit:10" d="M399.5-1423.931h3196.006" transform="matrix(.10013 0 0 .09987 -24 271)"/></g><g clip-path="url(#k)"><path style="fill:none;stroke-width:5.70714;stroke-linecap:round;stroke-linejoin:miter;stroke:#bfbfbf;stroke-opacity:1;stroke-dasharray:11.4143,17.1214;stroke-miterlimit:10" d="M399.5-2030.315h3196.006" transform="matrix(.10013 0 0 .09987 -24 271)"/></g><g clip-path="url(#l)"><path style="fill:none;stroke-width:5.70714;stroke-linecap:round;stroke-linejoin:miter;stroke:#bfbfbf;stroke-opacity:1;stroke-dasharray:11.4143,17.1214;stroke-miterlimit:10" d="M399.5-2636.7h3196.006" transform="matrix(.10013 0 0 .09987 -24 271)"/></g><path style="fill:none;stroke-width:11.4143;stroke-linecap:square;stroke-linejoin:miter;stroke:#000;stroke-opacity:1;stroke-miterlimit:10" d="M399.5-211.163h3196.006" transform="matrix(.10013 0 0 .09987 -24 271)"/><path style="fill:none;stroke-width:5.70714;stroke-linecap:butt;stroke-linejoin:miter;stroke:#000;stroke-opacity:1;stroke-miterlimit:10" d="M399.5-211.163v-22.84m61.447 22.84v-22.84m61.486 22.84v-22.84m61.447 22.84v-22.84m61.485 22.84v-22.84m122.893 22.84v-45.643m0 45.643v-22.84m61.486 22.84v-22.84m61.446 22.84v-22.84m61.447 22.84v-22.84m61.486 22.84v-22.84m61.447 22.84v-22.84m61.485 22.84v-22.84m61.447 22.84v-22.84m61.447 22.84v-22.84m122.931 22.84v-45.643m0 45.643v-22.84m61.486 22.84v-22.84m61.447 22.84v-22.84m61.447 22.84v-22.84m61.485 22.84v-22.84m61.447 22.84v-22.84m61.447 22.84v-22.84m61.485 22.84v-22.84m61.446 22.84v-22.84m122.933 22.84v-45.643m0 45.643v-22.84m61.447 22.84v-22.84m61.485 22.84v-22.84m61.447 22.84v-22.84m61.486 22.84v-22.84m61.446 22.84v-22.84m61.446 22.84v-22.84m61.487 22.84v-22.84m61.446 22.84v-22.84m122.932 22.84v-45.643m0 45.643v-22.84m61.447 22.84v-22.84m61.486 22.84v-22.84m61.446 22.84v-22.84m61.447 22.84v-22.84m61.486 22.84v-22.84m61.446 22.84v-22.84m61.486 22.84v-22.84m61.447 22.84v-22.84m122.932 22.84v-45.643m0 45.643v-22.84m61.446 22.84v-22.84m61.447 22.84v-22.84m61.486 22.84v-22.84m61.446 22.84v-22.84m61.486 22.84v-22.84m61.447 22.84v-22.84" transform="matrix(.10013 0 0 .09987 -24 271)"/><g style="fill:#000;fill-opacity:1"><use xlink:href="#m" x="47.618" y="259.03"/><use xlink:href="#n" x="49.901" y="259.03"/><use xlink:href="#o" x="53.714" y="259.03"/></g><g style="fill:#000;fill-opacity:1"><use xlink:href="#m" x="111.238" y="259.03"/><use xlink:href="#p" x="113.522" y="259.03"/></g><use xlink:href="#o" x="174.094" y="259.03" style="fill:#000;fill-opacity:1"/><use xlink:href="#p" x="235.237" y="259.03" style="fill:#000;fill-opacity:1"/><g style="fill:#000;fill-opacity:1"><use xlink:href="#n" x="295.046" y="259.03"/><use xlink:href="#o" x="298.858" y="259.03"/></g><path style="fill:none;stroke-width:11.4143;stroke-linecap:square;stroke-linejoin:miter;stroke:#000;stroke-opacity:1;stroke-miterlimit:10" d="M399.5-2636.7h3196.006" transform="matrix(.10013 0 0 .09987 -24 271)"/><path style="fill:none;stroke-width:5.70714;stroke-linecap:butt;stroke-linejoin:miter;stroke:#000;stroke-opacity:1;stroke-miterlimit:10" d="M399.5-2636.7v22.842m61.447-22.842v22.842m61.486-22.842v22.842m61.447-22.842v22.842m61.485-22.842v22.842m122.893-22.842v45.643m0-45.643v22.842m61.486-22.842v22.842m61.446-22.842v22.842m61.447-22.842v22.842m61.486-22.842v22.842m61.447-22.842v22.842m61.485-22.842v22.842m61.447-22.842v22.842m61.447-22.842v22.842m122.931-22.842v45.643m0-45.643v22.842m61.486-22.842v22.842m61.447-22.842v22.842m61.447-22.842v22.842m61.485-22.842v22.842m61.447-22.842v22.842m61.447-22.842v22.842m61.485-22.842v22.842m61.446-22.842v22.842m122.933-22.842v45.643m0-45.643v22.842m61.447-22.842v22.842m61.485-22.842v22.842m61.447-22.842v22.842m61.486-22.842v22.842m61.446-22.842v22.842m61.446-22.842v22.842m61.487-22.842v22.842m61.446-22.842v22.842m122.932-22.842v45.643m0-45.643v22.842m61.447-22.842v22.842m61.486-22.842v22.842m61.446-22.842v22.842m61.447-22.842v22.842m61.486-22.842v22.842m61.446-22.842v22.842m61.486-22.842v22.842m61.447-22.842v22.842m122.932-22.842v45.643m0-45.643v22.842m61.446-22.842v22.842m61.447-22.842v22.842m61.486-22.842v22.842m61.446-22.842v22.842m61.486-22.842v22.842m61.447-22.842v22.842" transform="matrix(.10013 0 0 .09987 -24 271)"/><g style="fill:#000;fill-opacity:1"><use xlink:href="#m" x="47.618" y="5.38"/><use xlink:href="#n" x="49.901" y="5.38"/><use xlink:href="#o" x="53.714" y="5.38"/></g><g style="fill:#000;fill-opacity:1"><use xlink:href="#m" x="111.238" y="5.38"/><use xlink:href="#p" x="113.522" y="5.38"/></g><use xlink:href="#o" x="174.094" y="5.38" style="fill:#000;fill-opacity:1"/><use xlink:href="#p" x="235.237" y="5.38" style="fill:#000;fill-opacity:1"/><g style="fill:#000;fill-opacity:1"><use xlink:href="#n" x="295.046" y="5.38"/><use xlink:href="#o" x="298.858" y="5.38"/></g><path style="fill:none;stroke-width:11.4143;stroke-linecap:square;stroke-linejoin:miter;stroke:#000;stroke-opacity:1;stroke-miterlimit:10" d="M399.5-211.163V-2636.7" transform="matrix(.10013 0 0 .09987 -24 271)"/><path style="fill:none;stroke-width:5.70714;stroke-linecap:butt;stroke-linejoin:miter;stroke:#000;stroke-opacity:1;stroke-miterlimit:10" d="M399.5-211.163h45.647m-45.647 0h22.824M399.5-271.786h22.824M399.5-332.447h22.824M399.5-393.07h22.824M399.5-453.732h22.824M399.5-514.355h22.824M399.5-574.978h22.824M399.5-635.64h22.824M399.5-696.262h22.824M399.5-817.547h45.647m-45.647 0h22.824M399.5-878.17h22.824M399.5-938.832h22.824M399.5-999.454h22.824m-22.824-60.662h22.824M399.5-1120.74h22.824m-22.824-60.622h22.824m-22.824-60.662h22.824m-22.824-60.623h22.824M399.5-1423.931h45.647m-45.647 0h22.824m-22.824-60.623h22.824m-22.824-60.662h22.824m-22.824-60.623h22.824m-22.824-60.622h22.824m-22.824-60.662h22.824m-22.824-60.623h22.824m-22.824-60.662h22.824M399.5-1909.03h22.824M399.5-2030.315h45.647m-45.647 0h22.824m-22.824-60.623h22.824M399.5-2151.6h22.824m-22.824-60.623h22.824m-22.824-60.662h22.824m-22.824-60.622h22.824M399.5-2394.17h22.824m-22.824-60.622h22.824m-22.824-60.623h22.824M399.5-2636.7h45.647m-45.647 0h22.824" transform="matrix(.10013 0 0 .09987 -24 271)"/><g style="fill:#000;fill-opacity:1"><use xlink:href="#m" x=".377" y="253.33"/><use xlink:href="#n" x="2.661" y="253.33"/><use xlink:href="#o" x="6.473" y="253.33"/></g><g style="fill:#000;fill-opacity:1"><use xlink:href="#m" x="4.19" y="192.34"/><use xlink:href="#p" x="6.474" y="192.34"/></g><use xlink:href="#o" x="6.473" y="131.92" style="fill:#000;fill-opacity:1"/><use xlink:href="#p" x="6.473" y="71.5" style="fill:#000;fill-opacity:1"/><g style="fill:#000;fill-opacity:1"><use xlink:href="#n" x="2.661" y="11.08"/><use xlink:href="#o" x="6.473" y="11.08"/></g><path style="fill:none;stroke-width:11.4143;stroke-linecap:square;stroke-linejoin:miter;stroke:#000;stroke-opacity:1;stroke-miterlimit:10" d="M3595.506-211.163V-2636.7" transform="matrix(.10013 0 0 .09987 -24 271)"/><path style="fill:none;stroke-width:5.70714;stroke-linecap:butt;stroke-linejoin:miter;stroke:#000;stroke-opacity:1;stroke-miterlimit:10" d="M3595.506-211.163h-45.685m45.685 0h-22.823m22.823-60.623h-22.823m22.823-60.661h-22.823m22.823-60.623h-22.823m22.823-60.662h-22.823m22.823-60.623h-22.823m22.823-60.623h-22.823m22.823-60.662h-22.823m22.823-60.622h-22.823m22.823-121.285h-45.685m45.685 0h-22.823m22.823-60.623h-22.823m22.823-60.662h-22.823m22.823-60.622h-22.823m22.823-60.662h-22.823m22.823-60.624h-22.823m22.823-60.622h-22.823m22.823-60.662h-22.823m22.823-60.623h-22.823m22.823-121.284h-45.685m45.685 0h-22.823m22.823-60.623h-22.823m22.823-60.662h-22.823m22.823-60.623h-22.823m22.823-60.622h-22.823m22.823-60.662h-22.823m22.823-60.623h-22.823m22.823-60.662h-22.823m22.823-60.622h-22.823m22.823-121.285h-45.685m45.685 0h-22.823m22.823-60.623h-22.823m22.823-60.662h-22.823m22.823-60.623h-22.823m22.823-60.662h-22.823m22.823-60.622h-22.823m22.823-60.663h-22.823m22.823-60.622h-22.823m22.823-60.623h-22.823m22.823-121.285h-45.685m45.685 0h-22.823" transform="matrix(.10013 0 0 .09987 -24 271)"/><g style="fill:#000;fill-opacity:1"><use xlink:href="#m" x="341.714" y="253.33"/><use xlink:href="#n" x="343.997" y="253.33"/><use xlink:href="#o" x="347.81" y="253.33"/></g><g style="fill:#000;fill-opacity:1"><use xlink:href="#m" x="341.714" y="192.34"/><use xlink:href="#p" x="343.997" y="192.34"/></g><use xlink:href="#o" x="341.714" y="131.92" style="fill:#000;fill-opacity:1"/><use xlink:href="#p" x="341.714" y="71.5" style="fill:#000;fill-opacity:1"/><g style="fill:#000;fill-opacity:1"><use xlink:href="#n" x="341.714" y="11.08"/><use xlink:href="#o" x="345.527" y="11.08"/></g><path style="fill:none;stroke-width:11.4143;stroke-linecap:round;stroke-linejoin:round;stroke:#00f;stroke-opacity:1;stroke-miterlimit:10" d="m2058.95-1423.931-.312-6.062-.898-5.985-1.521-5.866-2.107-5.71-2.653-5.437-3.238-5.163-3.706-4.85-4.214-4.42-4.603-3.989-4.994-3.559-5.306-3.011-5.618-2.464-5.852-1.917-5.97-1.33-6.124-.743-6.126-.117-6.125.47-6.047 1.094-5.89 1.682-5.736 2.23-5.423 2.816-5.15 3.285-4.798 3.833-4.37 4.263-3.901 4.654-3.433 5.046-2.887 5.319-2.341 5.593-1.795 5.827-1.17 5.945-.546 6.063.039 6.023.663 6.023 1.287 5.945 1.873 5.788 2.419 5.554 3.004 5.32 3.511 4.967 3.98 4.576 4.447 4.185 4.838 3.754 5.228 3.207 5.5 2.7 5.735 2.15 5.93 1.565 6.048.977 6.125.392 6.164-.235 6.086-.821 5.97-1.408 5.812-2.034 5.54-2.542 5.267-3.13 4.955-3.598 4.525-4.067 4.136-4.498 3.628-4.889 3.121-5.24 2.575-5.477 1.99-5.749 1.443-5.906.82-5.984.195-5.045" transform="matrix(.10013 0 0 .09987 -24 271)"/><path style="fill:none;stroke-width:11.4143;stroke-linecap:round;stroke-linejoin:round;stroke:#00f;stroke-opacity:1;stroke-miterlimit:10" d="m2366.26-1423.931-1.833-36.335-5.5-35.943-9.13-35.24-12.64-34.144-16.035-32.775-19.273-31.016-22.316-28.942-25.124-26.596-27.661-24.014-30.002-21.16-31.991-18.07-33.63-14.862-34.956-11.498-35.97-7.94-36.596-4.38-36.868-.783-36.75 2.895-36.283 6.492-35.425 10.013-34.254 13.454-32.693 16.779-30.86 19.907-28.675 22.842-26.218 25.54-23.525 28.042-20.56 30.194-17.4 32.033-14.045 33.635-10.612 34.81-7.022 35.708-3.356 36.218.313 36.373 3.979 36.14 7.647 35.59 11.158 34.654 14.669 33.362 17.946 31.797 21.028 29.842 23.994 27.613 26.685 25.11 29.066 22.371 31.171 19.4 33.006 16.23 34.45 12.869 35.58 9.464 36.4 5.867 36.79 2.269 36.828-1.37 36.517-5.005 35.815-8.566 34.8-12.046 33.396-15.41 31.64-18.617 29.612-21.629 27.31-24.484 24.656-27.026 21.808-29.294 18.727-31.328 15.489-33.01 12.055-34.38 8.505-35.395 4.915-36.022 1.249-30.233" transform="matrix(.10013 0 0 .09987 -24 271)"/><path style="fill:none;stroke-width:11.4143;stroke-linecap:round;stroke-linejoin:round;stroke:#00f;stroke-opacity:1;stroke-miterlimit:10" d="m2735.058-1423.931-3.707-72.63-11.001-71.926-18.259-70.479-25.28-68.328-32.07-65.511-38.507-61.992-44.631-57.924-50.25-53.192-55.4-48.029-59.964-42.28-63.943-36.216-67.299-29.686-69.951-22.958-71.942-15.919-73.19-8.76-73.696-1.526-73.502 5.75-72.527 12.984-70.888 20.025-68.469 26.948-65.426 33.519-61.68 39.815-57.39 45.682-52.434 51.119-47.012 56.008-41.12 60.388-34.8 64.143-28.13 67.232-21.223 69.658-14.006 71.378-6.75 72.435.625 72.747 7.959 72.317 15.254 71.144 22.394 69.305 29.26 66.764 35.893 63.517 42.135 59.684 47.987 55.264 53.292 50.22 58.13 44.743 62.384 38.798 65.972 32.424 68.937 25.774 71.2 18.891 72.761 11.734 73.58 4.536 73.658-2.737 73.034-9.974 71.629-17.092 69.561-24.131 66.792-30.82 63.319-37.234 59.262-43.297 54.541-48.928 49.352-54.052 43.618-58.628 37.453-62.618 30.938-66.02 24.15-68.719 17.01-70.791 9.792-72.083 2.575-60.466" transform="matrix(.10013 0 0 .09987 -24 271)"/><path style="fill:none;stroke-width:11.4143;stroke-linecap:round;stroke-linejoin:round;stroke:#00f;stroke-opacity:1;stroke-miterlimit:10" d="m3103.816-1423.931-5.54-108.965-16.503-107.87-27.388-105.717-37.921-102.512-48.065-98.209-57.818-93.046-66.948-86.827-75.375-79.827-83.06-72.043-89.965-63.439-95.896-54.287-100.968-44.547-104.947-34.419-107.873-23.897-109.784-13.141-110.565-2.269-110.253 8.605-108.81 19.477-106.273 30.038-102.762 40.402-98.12 50.298-92.54 59.723-86.064 68.562-78.652 76.659-70.537 84.011-61.68 90.582-52.2 96.175-42.214 100.83-31.757 104.506-21.067 107.126-10.144 108.651.936 109.082 11.978 108.456 22.9 106.736 33.552 103.958 43.93 100.164 53.8 95.276 63.241 89.526 71.941 82.877 79.979 75.329 87.195 67.115 93.555 58.159 98.978 48.694 103.386 38.642 106.82 28.317 109.121 17.639 110.37 6.805 110.487-4.106 109.55-14.98 107.484-25.657 104.322-36.14 100.149-46.229 94.998-55.89 88.873-64.925 81.851-73.373 73.97-81.078 65.465-87.962 56.219-93.946 46.387-99.03 36.166-103.137 25.554-106.11 14.708-108.143 3.824-90.7" transform="matrix(.10013 0 0 .09987 -24 271)"/></svg>