<svg xmlns="http://www.w3.org/2000/svg" xmlns:xlink="http://www.w3.org/1999/xlink" width="955.899" height="347.999" viewBox="0 0 716.924 260.999"><defs><clipPath id="a"><path d="M14.5 8.16h.5v242.25h-.5zm0 0"/></clipPath><clipPath id="b"><path d="M78 8.16h1v242.25h-1zm0 0"/></clipPath><clipPath id="c"><path d="M142 8.16h1v242.25h-1zm0 0"/></clipPath><clipPath id="d"><path d="M206 8.16h1v242.25h-1zm0 0"/></clipPath><clipPath id="e"><path d="M270 8.16h1v242.25h-1zm0 0"/></clipPath><clipPath id="f"><path d="M334 8.16h.5v242.25h-.5zm0 0"/></clipPath><clipPath id="g"><path d="M14.5 196h320v1h-320zm0 0"/></clipPath><clipPath id="h"><path d="M14.5 135h320v1h-320zm0 0"/></clipPath><clipPath id="i"><path d="M14.5 73h320v2h-320zm0 0"/></clipPath><clipPath id="j"><path d="M14.5 12h320v2h-320zm0 0"/></clipPath><clipPath id="q"><path d="M10 .5h9V7h-9zm0 0"/></clipPath><clipPath id="r"><path d="M73 .5h10V7H73zm0 0"/></clipPath><clipPath id="s"><path d="M137 .5h10V7h-10zm0 0"/></clipPath><clipPath id="t"><path d="M264 .5h13V7h-13zm0 0"/></clipPath><clipPath id="u"><path d="M328 .5h13V7h-13zm0 0"/></clipPath><clipPath id="y"><path d="M14.5 18h320v222h-320zm0 0"/></clipPath><clipPath id="z"><path d="M14.5 18h320v2h-320zm0 0"/></clipPath><clipPath id="A"><path d="M14.5 43h320v2h-320zm0 0"/></clipPath><clipPath id="B"><path d="M14.5 196h320v2h-320zm0 0"/></clipPath><clipPath id="C"><path d="M39 8.16h2v242.25h-2zm0 0"/></clipPath><clipPath id="D"><path d="M249 8.16h2v242.25h-2zm0 0"/></clipPath><clipPath id="E"><path d="M382.426 8.16H383v242.25h-.574zm0 0"/></clipPath><clipPath id="F"><path d="M462 8.16h1v242.25h-1zm0 0"/></clipPath><clipPath id="G"><path d="M542 8.16h1v242.25h-1zm0 0"/></clipPath><clipPath id="H"><path d="M622 8.16h1v242.25h-1zm0 0"/></clipPath><clipPath id="I"><path d="M702 8.16h.426v242.25H702zm0 0"/></clipPath><clipPath id="J"><path d="M382.426 245h320v2h-320zm0 0"/></clipPath><clipPath id="K"><path d="M382.426 179h320v2h-320zm0 0"/></clipPath><clipPath id="L"><path d="M382.426 114h320v1h-320zm0 0"/></clipPath><clipPath id="M"><path d="M382.426 48h320v2h-320zm0 0"/></clipPath><clipPath id="S"><path d="M380 .5h4V7h-4zm0 0"/></clipPath><clipPath id="T"><path d="M458 .5h8V7h-8zm0 0"/></clipPath><clipPath id="U"><path d="M538 .5h8V7h-8zm0 0"/></clipPath><clipPath id="V"><path d="M618 .5h8V7h-8zm0 0"/></clipPath><clipPath id="W"><path d="M698 .5h8V7h-8zm0 0"/></clipPath><clipPath id="X"><path d="M382.426 18h320v221h-320zm0 0"/></clipPath><clipPath id="Y"><path d="M382.426 238h320v2h-320zm0 0"/></clipPath><symbol overflow="visible" id="k"><path style="stroke:none" d="M1.89-4.953c-.452 0-.874.203-1.124.547-.313.437-.47 1.093-.47 2.015C.297-.719.845.156 1.892.156c1.03 0 1.593-.875 1.593-2.515 0-.954-.156-1.594-.484-2.047a1.355 1.355 0 0 0-1.11-.547zm0 .531c.641 0 .97.672.97 2.016C2.86-1 2.546-.344 1.874-.344c-.64 0-.969-.687-.969-2.047 0-1.359.328-2.03.985-2.03zm0 0"/></symbol><symbol overflow="visible" id="l"><path style="stroke:none" d="M1.313-.719h-.72V0h.72zm0 0"/></symbol><symbol overflow="visible" id="m"><path style="stroke:none" d="M3.469-.594H.906c.063-.406.281-.672.89-1.031l.673-.39C3.156-2.392 3.5-2.892 3.5-3.5c0-.422-.156-.797-.453-1.063-.281-.265-.64-.39-1.094-.39-.625 0-1.078.219-1.344.64-.171.266-.25.579-.265 1.079h.61c.015-.344.062-.532.14-.704a.922.922 0 0 1 .828-.484c.547 0 .969.39.969.938 0 .39-.235.734-.657.984l-.64.36C.578-1.548.28-1.095.234 0H3.47zm0 0"/></symbol><symbol overflow="visible" id="n"><path style="stroke:none" d="M3.266-4.86H.75L.39-2.202h.563c.281-.344.516-.453.89-.453.657 0 1.063.437 1.063 1.156 0 .703-.406 1.125-1.062 1.125-.532 0-.86-.266-1-.813h-.61c.094.391.157.579.297.766.281.36.766.578 1.328.578.97 0 1.657-.703 1.657-1.734 0-.953-.641-1.625-1.563-1.625-.344 0-.625.094-.906.297l.187-1.344h2.032zm0 0"/></symbol><symbol overflow="visible" id="o"><path style="stroke:none" d="M3.563-4.86H.313v.61h2.624C1.782-2.61 1.313-1.594.954 0h.64c.266-1.547.876-2.89 1.97-4.344zm0 0"/></symbol><symbol overflow="visible" id="p"><path style="stroke:none" d="M1.781-3.531V0h.594v-4.953h-.39c-.22.766-.36.875-1.282.984v.438zm0 0"/></symbol><symbol overflow="visible" id="v"><path style="stroke:none" d="M3.422-3.656c-.125-.813-.64-1.297-1.39-1.297-.532 0-1.016.266-1.298.703-.312.5-.437 1.094-.437 1.984 0 .844.11 1.375.406 1.813.266.39.688.61 1.219.61.937 0 1.594-.688 1.594-1.657 0-.906-.61-1.547-1.485-1.547-.484 0-.86.172-1.125.531.016-1.218.39-1.906 1.094-1.906.422 0 .719.281.813.766zm-1.469 1.14c.578 0 .953.407.953 1.063 0 .625-.422 1.078-.969 1.078-.562 0-.984-.469-.984-1.11 0-.609.406-1.03 1-1.03zm0 0"/></symbol><symbol overflow="visible" id="w"><path style="stroke:none" d="M2.688-2.61c.5-.312.656-.546.656-1.015 0-.781-.594-1.328-1.453-1.328-.86 0-1.47.547-1.47 1.312 0 .485.157.72.657 1.032-.547.28-.828.687-.828 1.234C.25-.469.922.156 1.89.156c.954 0 1.626-.625 1.626-1.531 0-.547-.266-.953-.829-1.234zM1.89-4.421c.515 0 .843.313.843.813 0 .468-.343.765-.843.765-.516 0-.844-.297-.844-.781 0-.484.328-.797.844-.797zm0 2.094c.593 0 1.015.39 1.015.969 0 .593-.406.984-1.031.984-.594 0-1-.406-1-.984 0-.579.406-.97 1.016-.97zm0 0"/></symbol><symbol overflow="visible" id="x"><path style="stroke:none" d="M.36-1.125C.483-.328 1 .156 1.75.156c.531 0 1.016-.265 1.297-.703.312-.484.437-1.094.437-1.984 0-.828-.109-1.36-.406-1.797-.265-.406-.687-.625-1.219-.625-.937 0-1.593.703-1.593 1.656 0 .906.609 1.547 1.484 1.547.469 0 .813-.156 1.125-.531-.016 1.234-.406 1.906-1.094 1.906-.422 0-.718-.281-.812-.75zm1.484-3.297c.562 0 .984.469.984 1.11 0 .609-.406 1.03-1 1.03S.875-2.686.875-3.343c0-.625.406-1.078.969-1.078zm0 0"/></symbol><symbol overflow="visible" id="N"><path style="stroke:none" d="M1.89-4.953c-.452 0-.874.203-1.124.547-.313.437-.47 1.093-.47 2.015C.297-.719.845.156 1.892.156c1.03 0 1.593-.875 1.593-2.515 0-.954-.156-1.594-.484-2.047a1.355 1.355 0 0 0-1.11-.547zm0 .531c.641 0 .97.672.97 2.016C2.86-1 2.546-.344 1.874-.344c-.64 0-.969-.687-.969-2.047 0-1.359.328-2.03.985-2.03zm0 0"/></symbol><symbol overflow="visible" id="O"><path style="stroke:none" d="M3.469-.594H.906c.063-.406.281-.672.89-1.031l.673-.39C3.156-2.392 3.5-2.892 3.5-3.5c0-.422-.156-.797-.453-1.063-.281-.265-.64-.39-1.094-.39-.625 0-1.078.219-1.344.64-.171.266-.25.579-.265 1.079h.61c.015-.344.062-.532.14-.704a.922.922 0 0 1 .828-.484c.547 0 .969.39.969.938 0 .39-.235.734-.657.984l-.64.36C.578-1.548.28-1.095.234 0H3.47zm0 0"/></symbol><symbol overflow="visible" id="P"><path style="stroke:none" d="M2.25-1.203V0h.594v-1.203h.719v-.531h-.72v-3.22h-.437L.187-1.827v.625zm0-.531H.719L2.25-3.922zm0 0"/></symbol><symbol overflow="visible" id="Q"><path style="stroke:none" d="M3.422-3.656c-.125-.813-.64-1.297-1.39-1.297-.532 0-1.016.266-1.298.703-.312.5-.437 1.094-.437 1.984 0 .844.11 1.375.406 1.813.266.39.688.61 1.219.61.937 0 1.594-.688 1.594-1.657 0-.906-.61-1.547-1.485-1.547-.484 0-.86.172-1.125.531.016-1.218.39-1.906 1.094-1.906.422 0 .719.281.813.766zm-1.469 1.14c.578 0 .953.407.953 1.063 0 .625-.422 1.078-.969 1.078-.562 0-.984-.469-.984-1.11 0-.609.406-1.03 1-1.03zm0 0"/></symbol><symbol overflow="visible" id="R"><path style="stroke:none" d="M2.688-2.61c.5-.312.656-.546.656-1.015 0-.781-.594-1.328-1.453-1.328-.86 0-1.47.547-1.47 1.312 0 .485.157.72.657 1.032-.547.28-.828.687-.828 1.234C.25-.469.922.156 1.89.156c.954 0 1.626-.625 1.626-1.531 0-.547-.266-.953-.829-1.234zM1.89-4.421c.515 0 .843.313.843.813 0 .468-.343.765-.843.765-.516 0-.844-.297-.844-.781 0-.484.328-.797.844-.797zm0 2.094c.593 0 1.015.39 1.015.969 0 .593-.406.984-1.031.984-.594 0-1-.406-1-.984 0-.579.406-.97 1.016-.97zm0 0"/></symbol></defs><path style="stroke:none;fill-rule:nonzero;fill:#fff;fill-opacity:1" d="M14.5 250.41h320V8.16h-320zm0 0"/><g clip-path="url(#a)"><path style="fill:none;stroke-width:5.70714;stroke-linecap:round;stroke-linejoin:miter;stroke:#bfbfbf;stroke-opacity:1;stroke-miterlimit:10" d="M399.5-211.153V-2636.69" transform="matrix(.10013 0 0 .09987 -25.5 271.499)"/><path style="fill:none;stroke-width:5.70714;stroke-linecap:round;stroke-linejoin:miter;stroke:#bfbfbf;stroke-opacity:1;stroke-dasharray:11.4143,17.1214;stroke-miterlimit:10" d="M399.5-211.153V-2636.69" transform="matrix(.10013 0 0 .09987 -25.5 271.499)"/></g><g clip-path="url(#b)"><path style="fill:none;stroke-width:5.70714;stroke-linecap:round;stroke-linejoin:miter;stroke:#bfbfbf;stroke-opacity:1;stroke-dasharray:11.4143,17.1214;stroke-miterlimit:10" d="M1038.702-211.153V-2636.69" transform="matrix(.10013 0 0 .09987 -25.5 271.499)"/></g><g clip-path="url(#c)"><path style="fill:none;stroke-width:5.70714;stroke-linecap:round;stroke-linejoin:miter;stroke:#bfbfbf;stroke-opacity:1;stroke-dasharray:11.4143,17.1214;stroke-miterlimit:10" d="M1677.903-211.153V-2636.69" transform="matrix(.10013 0 0 .09987 -25.5 271.499)"/></g><g clip-path="url(#d)"><path style="fill:none;stroke-width:5.70714;stroke-linecap:round;stroke-linejoin:miter;stroke:#bfbfbf;stroke-opacity:1;stroke-dasharray:11.4143,17.1214;stroke-miterlimit:10" d="M2317.104-211.153V-2636.69" transform="matrix(.10013 0 0 .09987 -25.5 271.499)"/></g><g clip-path="url(#e)"><path style="fill:none;stroke-width:5.70714;stroke-linecap:round;stroke-linejoin:miter;stroke:#bfbfbf;stroke-opacity:1;stroke-dasharray:11.4143,17.1214;stroke-miterlimit:10" d="M2956.305-211.153V-2636.69" transform="matrix(.10013 0 0 .09987 -25.5 271.499)"/></g><g clip-path="url(#f)"><path style="fill:none;stroke-width:5.70714;stroke-linecap:round;stroke-linejoin:miter;stroke:#bfbfbf;stroke-opacity:1;stroke-dasharray:11.4143,17.1214;stroke-miterlimit:10" d="M3595.506-211.153V-2636.69" transform="matrix(.10013 0 0 .09987 -25.5 271.499)"/></g><g clip-path="url(#g)"><path style="fill:none;stroke-width:5.70714;stroke-linecap:round;stroke-linejoin:miter;stroke:#bfbfbf;stroke-opacity:1;stroke-dasharray:11.4143,17.1214;stroke-miterlimit:10" d="M399.5-749.092h3196.006" transform="matrix(.10013 0 0 .09987 -25.5 271.499)"/></g><g clip-path="url(#h)"><path style="fill:none;stroke-width:5.70714;stroke-linecap:round;stroke-linejoin:miter;stroke:#bfbfbf;stroke-opacity:1;stroke-dasharray:11.4143,17.1214;stroke-miterlimit:10" d="M399.5-1361.969h3196.006" transform="matrix(.10013 0 0 .09987 -25.5 271.499)"/></g><g clip-path="url(#i)"><path style="fill:none;stroke-width:5.70714;stroke-linecap:round;stroke-linejoin:miter;stroke:#bfbfbf;stroke-opacity:1;stroke-dasharray:11.4143,17.1214;stroke-miterlimit:10" d="M399.5-1974.845h3196.006" transform="matrix(.10013 0 0 .09987 -25.5 271.499)"/></g><g clip-path="url(#j)"><path style="fill:none;stroke-width:5.70714;stroke-linecap:round;stroke-linejoin:miter;stroke:#bfbfbf;stroke-opacity:1;stroke-dasharray:11.4143,17.1214;stroke-miterlimit:10" d="M399.5-2587.722h3196.006" transform="matrix(.10013 0 0 .09987 -25.5 271.499)"/></g><path style="fill:none;stroke-width:11.4143;stroke-linecap:square;stroke-linejoin:miter;stroke:#000;stroke-opacity:1;stroke-miterlimit:10" d="M399.5-211.153h3196.006" transform="matrix(.10013 0 0 .09987 -25.5 271.499)"/><path style="fill:none;stroke-width:5.70714;stroke-linecap:butt;stroke-linejoin:miter;stroke:#000;stroke-opacity:1;stroke-miterlimit:10" d="M399.5-211.153v-45.682m0 45.682v-22.84m63.905 22.84v-22.84m63.944 22.84v-22.84m63.904 22.84v-22.84m63.944 22.84v-22.84m63.904 22.84v-22.84m63.905 22.84v-22.84m63.944 22.84v-22.84m63.904 22.84v-22.84m127.848 22.84v-45.682m0 45.682v-22.84m63.904 22.84v-22.84m63.944 22.84v-22.84m63.904 22.84v-22.84m63.944 22.84v-22.84m63.904 22.84v-22.84m63.905 22.84v-22.84m63.943 22.84v-22.84m63.905 22.84v-22.84m127.848 22.84v-45.682m0 45.682v-22.84m63.904 22.84v-22.84m63.943 22.84v-22.84m63.905 22.84v-22.84m63.944 22.84v-22.84m63.904 22.84v-22.84m63.905 22.84v-22.84m63.943 22.84v-22.84m63.905 22.84v-22.84m127.848 22.84v-45.682m0 45.682v-22.84m63.904 22.84v-22.84m63.944 22.84v-22.84m63.904 22.84v-22.84m63.904 22.84v-22.84m63.944 22.84v-22.84m63.905 22.84v-22.84m63.943 22.84v-22.84m63.905 22.84v-22.84m127.848 22.84v-45.682m0 45.682v-22.84m63.905 22.84v-22.84m63.943 22.84v-22.84m63.904 22.84v-22.84m63.905 22.84v-22.84m63.943 22.84v-22.84m63.905 22.84v-22.84m63.943 22.84v-22.84m63.905 22.84v-22.84m127.848 22.84v-45.682m0 45.682v-22.84" transform="matrix(.10013 0 0 .09987 -25.5 271.499)"/><g style="fill:#000;fill-opacity:1"><use xlink:href="#k" x="9.734" y="259.529"/><use xlink:href="#l" x="13.547" y="259.529"/><use xlink:href="#k" x="15.453" y="259.529"/></g><g style="fill:#000;fill-opacity:1"><use xlink:href="#m" x="73.735" y="259.529"/><use xlink:href="#l" x="77.547" y="259.529"/><use xlink:href="#n" x="79.453" y="259.529"/></g><g style="fill:#000;fill-opacity:1"><use xlink:href="#n" x="137.735" y="259.529"/><use xlink:href="#l" x="141.547" y="259.529"/><use xlink:href="#k" x="143.454" y="259.529"/></g><g style="fill:#000;fill-opacity:1"><use xlink:href="#o" x="201.735" y="259.529"/><use xlink:href="#l" x="205.548" y="259.529"/><use xlink:href="#n" x="207.454" y="259.529"/></g><g style="fill:#000;fill-opacity:1"><use xlink:href="#p" x="263.829" y="259.529"/><use xlink:href="#k" x="267.642" y="259.529"/><use xlink:href="#l" x="271.455" y="259.529"/><use xlink:href="#k" x="273.361" y="259.529"/></g><g style="fill:#000;fill-opacity:1"><use xlink:href="#p" x="327.83" y="259.529"/><use xlink:href="#m" x="331.642" y="259.529"/><use xlink:href="#l" x="335.455" y="259.529"/><use xlink:href="#n" x="337.361" y="259.529"/></g><path style="fill:none;stroke-width:11.4143;stroke-linecap:square;stroke-linejoin:miter;stroke:#000;stroke-opacity:1;stroke-miterlimit:10" d="M399.5-2636.69h3196.006" transform="matrix(.10013 0 0 .09987 -25.5 271.499)"/><path style="fill:none;stroke-width:5.70714;stroke-linecap:butt;stroke-linejoin:miter;stroke:#000;stroke-opacity:1;stroke-miterlimit:10" d="M399.5-2636.69v45.644m0-45.644v22.802m63.905-22.802v22.802m63.944-22.802v22.802m63.904-22.802v22.802m63.944-22.802v22.802m63.904-22.802v22.802m63.905-22.802v22.802m63.944-22.802v22.802m63.904-22.802v22.802m127.848-22.802v45.644m0-45.644v22.802m63.904-22.802v22.802m63.944-22.802v22.802m63.904-22.802v22.802m63.944-22.802v22.802m63.904-22.802v22.802m63.905-22.802v22.802m63.943-22.802v22.802m63.905-22.802v22.802m127.848-22.802v45.644m0-45.644v22.802m63.904-22.802v22.802m63.943-22.802v22.802m63.905-22.802v22.802m63.944-22.802v22.802m63.904-22.802v22.802m63.905-22.802v22.802m63.943-22.802v22.802m63.905-22.802v22.802m127.848-22.802v45.644m0-45.644v22.802m63.904-22.802v22.802m63.944-22.802v22.802m63.904-22.802v22.802m63.904-22.802v22.802m63.944-22.802v22.802m63.905-22.802v22.802m63.943-22.802v22.802m63.905-22.802v22.802m127.848-22.802v45.644m0-45.644v22.802m63.905-22.802v22.802m63.943-22.802v22.802m63.904-22.802v22.802m63.905-22.802v22.802m63.943-22.802v22.802m63.905-22.802v22.802m63.943-22.802v22.802m63.905-22.802v22.802m127.848-22.802v45.644m0-45.644v22.802" transform="matrix(.10013 0 0 .09987 -25.5 271.499)"/><g style="fill:#000;fill-opacity:1" clip-path="url(#q)"><use xlink:href="#k" x="9.734" y="5.879"/><use xlink:href="#l" x="13.547" y="5.879"/><use xlink:href="#k" x="15.453" y="5.879"/></g><g style="fill:#000;fill-opacity:1" clip-path="url(#r)"><use xlink:href="#m" x="73.735" y="5.879"/><use xlink:href="#l" x="77.547" y="5.879"/><use xlink:href="#n" x="79.453" y="5.879"/></g><g style="fill:#000;fill-opacity:1" clip-path="url(#s)"><use xlink:href="#n" x="137.735" y="5.879"/><use xlink:href="#l" x="141.547" y="5.879"/><use xlink:href="#k" x="143.454" y="5.879"/></g><g style="fill:#000;fill-opacity:1"><use xlink:href="#o" x="201.735" y="5.879"/><use xlink:href="#l" x="205.548" y="5.879"/><use xlink:href="#n" x="207.454" y="5.879"/></g><g style="fill:#000;fill-opacity:1" clip-path="url(#t)"><use xlink:href="#p" x="263.829" y="5.879"/><use xlink:href="#k" x="267.642" y="5.879"/><use xlink:href="#l" x="271.455" y="5.879"/><use xlink:href="#k" x="273.361" y="5.879"/></g><g style="fill:#000;fill-opacity:1" clip-path="url(#u)"><use xlink:href="#p" x="327.83" y="5.879"/><use xlink:href="#m" x="331.642" y="5.879"/><use xlink:href="#l" x="335.455" y="5.879"/><use xlink:href="#n" x="337.361" y="5.879"/></g><path style="fill:none;stroke-width:11.4143;stroke-linecap:square;stroke-linejoin:miter;stroke:#000;stroke-opacity:1;stroke-miterlimit:10" d="M399.5-211.153V-2636.69" transform="matrix(.10013 0 0 .09987 -25.5 271.499)"/><path style="fill:none;stroke-width:5.70714;stroke-linecap:butt;stroke-linejoin:miter;stroke:#000;stroke-opacity:1;stroke-miterlimit:10" d="M399.5-258.751h22.824M399.5-320.04h22.824M399.5-381.327h22.824M399.5-442.614h22.824M399.5-503.902h22.824M399.5-565.19h22.824M399.5-626.477h22.824M399.5-749.092h45.647m-45.647 0h22.824M399.5-810.38h22.824M399.5-871.667h22.824M399.5-932.955h22.824M399.5-994.243h22.824M399.5-1055.53h22.824m-22.824-61.288h22.824m-22.824-61.288h22.824m-22.824-61.287h22.824M399.5-1361.969h45.647m-45.647 0h22.824m-22.824-61.287h22.824m-22.824-61.288h22.824m-22.824-61.288h22.824M399.5-1607.12h22.824m-22.824-61.287h22.824m-22.824-61.288h22.824m-22.824-61.287h22.824M399.5-1852.27h22.824M399.5-1974.845h45.647m-45.647 0h22.824m-22.824-61.288h22.824M399.5-2097.42h22.824m-22.824-61.288h22.824m-22.824-61.288h22.824m-22.824-61.288h22.824m-22.824-61.287h22.824m-22.824-61.288h22.824m-22.824-61.288h22.824M399.5-2587.722h45.647m-45.647 0h22.824" transform="matrix(.10013 0 0 .09987 -25.5 271.499)"/><g style="fill:#000;fill-opacity:1"><use xlink:href="#v" x="1.161" y="199.679"/><use xlink:href="#k" x="4.973" y="199.679"/></g><g style="fill:#000;fill-opacity:1"><use xlink:href="#o" x="1.161" y="138.689"/><use xlink:href="#k" x="4.973" y="138.689"/></g><g style="fill:#000;fill-opacity:1"><use xlink:href="#w" x="1.161" y="77.129"/><use xlink:href="#k" x="4.973" y="77.129"/></g><g style="fill:#000;fill-opacity:1"><use xlink:href="#x" x="1.161" y="16.139"/><use xlink:href="#k" x="4.973" y="16.139"/></g><path style="fill:none;stroke-width:11.4143;stroke-linecap:square;stroke-linejoin:miter;stroke:#000;stroke-opacity:1;stroke-miterlimit:10" d="M3595.506-211.153V-2636.69" transform="matrix(.10013 0 0 .09987 -25.5 271.499)"/><path style="fill:none;stroke-width:5.70714;stroke-linecap:butt;stroke-linejoin:miter;stroke:#000;stroke-opacity:1;stroke-miterlimit:10" d="M3595.506-258.751h-22.823m22.823-61.289h-22.823m22.823-61.287h-22.823m22.823-61.287h-22.823m22.823-61.288h-22.823m22.823-61.288h-22.823m22.823-61.287h-22.823m22.823-122.615h-45.685m45.685 0h-22.823m22.823-61.288h-22.823m22.823-61.287h-22.823m22.823-61.288h-22.823m22.823-61.288h-22.823m22.823-61.287h-22.823m22.823-61.288h-22.823m22.823-61.288h-22.823m22.823-61.287h-22.823m22.823-122.576h-45.685m45.685 0h-22.823m22.823-61.287h-22.823m22.823-61.288h-22.823m22.823-61.288h-22.823m22.823-61.288h-22.823m22.823-61.287h-22.823m22.823-61.288h-22.823m22.823-61.287h-22.823m22.823-61.288h-22.823m22.823-122.575h-45.685m45.685 0h-22.823m22.823-61.288h-22.823m22.823-61.287h-22.823m22.823-61.288h-22.823m22.823-61.288h-22.823m22.823-61.288h-22.823m22.823-61.287h-22.823m22.823-61.288h-22.823m22.823-61.288h-22.823m22.823-122.575h-45.685m45.685 0h-22.823" transform="matrix(.10013 0 0 .09987 -25.5 271.499)"/><g style="fill:#000;fill-opacity:1"><use xlink:href="#v" x="340.214" y="199.679"/><use xlink:href="#k" x="344.027" y="199.679"/></g><g style="fill:#000;fill-opacity:1"><use xlink:href="#o" x="340.214" y="138.689"/><use xlink:href="#k" x="344.027" y="138.689"/></g><g style="fill:#000;fill-opacity:1"><use xlink:href="#w" x="340.214" y="77.129"/><use xlink:href="#k" x="344.027" y="77.129"/></g><g style="fill:#000;fill-opacity:1"><use xlink:href="#x" x="340.214" y="16.139"/><use xlink:href="#k" x="344.027" y="16.139"/></g><g clip-path="url(#y)"><path style="fill:none;stroke-width:11.4143;stroke-linecap:round;stroke-linejoin:round;stroke:#00008b;stroke-opacity:1;stroke-miterlimit:10" d="m399.579-2526.395 9.05 8.956 9.208 9.113 9.207 9.035 9.09 8.957 9.13 8.917 9.168 8.956 9.246 9.035 9.051 8.761 9.13 8.878 9.285 9.035 9.13 8.8 9.05 8.722 9.169 8.84 9.207 8.839 9.09 8.721 9.285 8.879 9.09 8.643 9.208 8.761 9.207 8.722 9.09 8.644 9.13 8.604 9.129 8.644 9.285 8.761 9.012 8.448 9.13 8.565 9.323 8.722 9.13 8.487 9.012 8.449 18.414 17.052 9.09 8.41 9.286 8.565 9.051 8.33 9.207 8.487 9.207 8.41 9.13 8.33 9.09 8.33 9.168 8.37 9.285 8.41 9.013 8.174 9.129 8.253 9.324 8.409 9.09 8.213 9.051 8.135 9.169 8.214 9.246 8.252 9.051 8.135 9.324 8.253 9.052 8.057 9.207 8.174 9.207 8.135 9.09 8.057 9.13 8.018 9.168 8.057 9.246 8.135 9.012 7.9 9.168 7.98 9.286 8.135 9.129 7.9 9.051 7.862 9.168 7.94 9.207 7.978 9.09 7.822 9.286 7.979 9.09 7.783 9.207 7.9 9.208 7.823 9.09 7.783 9.129 7.744 9.13 7.783 9.285 7.862 9.012 7.626 9.129 7.666 9.324 7.823 9.09 7.665 9.052 7.588 9.207 7.666 9.207 7.705 9.09 7.548 9.286 7.705 9.05 7.51 9.208 7.627 9.207 7.587 9.13 7.47 9.09 7.51 9.168 7.47 9.285 7.588 9.012 7.353 9.13 7.43 9.285 7.589 9.129 7.352 9.051 7.314 9.168 7.431 9.247 7.432 9.09 7.274 9.246 7.432 9.09 7.274 9.208 7.353 9.207 7.314 9.09 7.236 9.13 7.196 9.167 7.275 9.247 7.314 9.012 7.118 9.13 7.158 9.323 7.274 9.13 7.158 9.012 7.04 18.414 14.314 9.09 7.04 9.286 7.197 9.05 7.001 9.247 7.08 9.168 7.078 9.13 6.962 9.09 7.001 9.168 6.962 9.285 7.08 9.012 6.844 9.13 6.922 9.324 7.04 9.09 6.923 9.051 6.806 9.208 6.883 9.207 6.923 9.09 6.805 9.285 6.923 9.051 6.766 9.208 6.845 9.207 6.805 9.09 6.767 9.13 6.727 9.168 6.727 9.246 6.844 9.051 6.61 9.13 6.688 9.284 6.806 9.13 6.61 9.05 6.61 9.17 6.648 9.245 6.688 9.052 6.571 9.285 6.688 9.09 6.532 9.207 6.57 9.208 6.61 9.09 6.493 9.129 6.531 9.13 6.493 9.284 6.57 9.013 6.415 9.129 6.414 9.324 6.571 9.13 6.414 9.011 6.375 9.208 6.415 9.207 6.453 9.09 6.336 9.285 6.454 9.09 6.297 9.208 6.375 9.168 6.375 9.13 6.258 9.09 6.297 9.168 6.297 9.285 6.336 9.012 6.18 9.13 6.218 9.324 6.336 9.09 6.18 9.051 6.14 9.168 6.219 9.247 6.219 9.09 6.101 9.285 6.219 9.051 6.101 18.415 12.281 9.129 6.101 9.09 6.024 9.168 6.062 9.247 6.14 9.05 5.984 9.13 5.985 9.285 6.14 9.13 5.945 9.05 5.945 9.169 5.984 9.207 5.984 9.09 5.906 9.286 6.023 9.09 5.867 18.414 11.89 9.09 5.827 18.259 11.734 9.285 5.906 9.012 5.749 9.13 5.788 9.324 5.906 9.129 5.789 9.012 5.71 18.415 11.577 9.09 5.71 9.285 5.789 9.051 5.67 9.247 5.75 9.168 5.71 9.129 5.672 9.09 5.632 9.168 5.671 9.286 5.71 9.012 5.515 9.13 5.632 9.284 5.671 9.13 5.593 9.05 5.515 18.415 11.186 9.09 5.475 9.286 5.632 9.05 5.437 9.208 5.554 9.207 5.514 9.09 5.476 9.13 5.436 9.168 5.476 9.246 5.515 9.012 5.358 9.169 5.397 9.285 5.515 9.13 5.358 9.05 5.32 9.169 5.397 9.207 5.397 9.09 5.32 9.285 5.397 9.09 5.28 9.208 5.358 9.207 5.32 9.09 5.28 9.13 5.24 9.129 5.28 18.297 10.482 9.13 5.241 9.324 5.32 9.09 5.162 9.05 5.163 9.17 5.202 9.245 5.201 9.09 5.124 9.286 5.241 9.051 5.085 18.415 10.325 9.129 5.045 9.09 5.085 9.168 5.084 9.285 5.163 9.013 4.967 9.129 5.046 9.324 5.123 9.09 5.006 9.051 4.968 9.169 5.045 9.246 5.006 9.051 4.967 9.324 5.046 9.052 4.928 18.414 9.934 9.09 4.89 9.13 4.927 9.168 4.889 9.246 4.967 9.012 4.81 9.168 4.89 9.286 4.928 9.129 4.85 9.051 4.771 9.168 4.85 9.208 4.89 9.09 4.77 9.285 4.85 9.09 4.772 9.207 4.81 9.169 4.772 9.129 4.733 9.09 4.732 9.168 4.733 9.286 4.81 9.012 4.655 9.129 4.693 9.324 4.772 9.13 4.654 9.012 4.615 18.414 9.387 9.09 4.615 9.286 4.693 9.05 4.577 9.208 4.654 18.336 9.191 9.09 4.576 9.169 4.576 9.246 4.615 9.051 4.498 9.13 4.537 9.285 4.615 9.129 4.498 9.051 4.459 9.168 4.537 9.247 4.497 9.05 4.46 9.325 4.536 9.051 4.42 9.208 4.497 9.207 4.46 9.09 4.419 18.258 8.839 9.286 4.459 9.012 4.341 9.13 4.341 9.323 4.46 9.13 4.38 9.012 4.302 9.207 4.341 9.207 4.38 9.09 4.303 9.286 4.38 9.05 4.264 9.247 4.341 9.168 4.302 27.388 12.79 9.285 4.302 9.012 4.185 9.13 4.224 9.324 4.302 9.09 4.185 9.051 4.146 9.169 4.224" transform="matrix(.10013 0 0 .09987 -25.5 271.499)"/></g><g clip-path="url(#z)"><path style="fill:none;stroke-width:11.4143;stroke-linecap:round;stroke-linejoin:round;stroke:#006400;stroke-opacity:1;stroke-miterlimit:10" d="M399.5-2526.434h3195.967" transform="matrix(.10013 0 0 .09987 -25.5 271.499)"/></g><g clip-path="url(#A)"><path style="fill:none;stroke-width:11.4143;stroke-linecap:round;stroke-linejoin:round;stroke:#8b0000;stroke-opacity:1;stroke-miterlimit:10" d="M399.5-2281.284h3196.006" transform="matrix(.10013 0 0 .09987 -25.5 271.499)"/></g><g clip-path="url(#B)"><path style="fill:none;stroke-width:11.4143;stroke-linecap:round;stroke-linejoin:round;stroke:#f0f;stroke-opacity:1;stroke-miterlimit:10" d="M399.5-749.092h3196.006" transform="matrix(.10013 0 0 .09987 -25.5 271.499)"/></g><g clip-path="url(#C)"><path style="fill:none;stroke-width:5.70714;stroke-linecap:round;stroke-linejoin:round;stroke:#000;stroke-opacity:1;stroke-miterlimit:10" d="M655.197 1763.78v-4964.418" transform="matrix(.10013 0 0 .09987 -25.5 271.499)"/></g><g clip-path="url(#D)"><path style="fill:none;stroke-width:5.70714;stroke-linecap:round;stroke-linejoin:round;stroke:#000;stroke-opacity:1;stroke-miterlimit:10" d="M2754.292 1763.78v-4964.418" transform="matrix(.10013 0 0 .09987 -25.5 271.499)"/></g><path style="stroke:none;fill-rule:nonzero;fill:#fff;fill-opacity:1" d="M382.426 250.41h320V8.16h-320zm0 0"/><g clip-path="url(#E)"><path style="fill:none;stroke-width:5.70714;stroke-linecap:round;stroke-linejoin:miter;stroke:#bfbfbf;stroke-opacity:1;stroke-miterlimit:10" d="M399.518-211.153V-2636.69" transform="matrix(.10013 0 0 .09987 342.424 271.499)"/><path style="fill:none;stroke-width:5.70714;stroke-linecap:round;stroke-linejoin:miter;stroke:#bfbfbf;stroke-opacity:1;stroke-dasharray:11.4143,17.1214;stroke-miterlimit:10" d="M399.518-211.153V-2636.69" transform="matrix(.10013 0 0 .09987 342.424 271.499)"/></g><g clip-path="url(#F)"><path style="fill:none;stroke-width:5.70714;stroke-linecap:round;stroke-linejoin:miter;stroke:#bfbfbf;stroke-opacity:1;stroke-dasharray:11.4143,17.1214;stroke-miterlimit:10" d="M1198.48-211.153V-2636.69" transform="matrix(.10013 0 0 .09987 342.424 271.499)"/></g><g clip-path="url(#G)"><path style="fill:none;stroke-width:5.70714;stroke-linecap:round;stroke-linejoin:miter;stroke:#bfbfbf;stroke-opacity:1;stroke-dasharray:11.4143,17.1214;stroke-miterlimit:10" d="M1997.482-211.153V-2636.69" transform="matrix(.10013 0 0 .09987 342.424 271.499)"/></g><g clip-path="url(#H)"><path style="fill:none;stroke-width:5.70714;stroke-linecap:round;stroke-linejoin:miter;stroke:#bfbfbf;stroke-opacity:1;stroke-dasharray:11.4143,17.1214;stroke-miterlimit:10" d="M2796.483-211.153V-2636.69" transform="matrix(.10013 0 0 .09987 342.424 271.499)"/></g><g clip-path="url(#I)"><path style="fill:none;stroke-width:5.70714;stroke-linecap:round;stroke-linejoin:miter;stroke:#bfbfbf;stroke-opacity:1;stroke-dasharray:11.4143,17.1214;stroke-miterlimit:10" d="M3595.484-211.153V-2636.69" transform="matrix(.10013 0 0 .09987 342.424 271.499)"/></g><g clip-path="url(#J)"><path style="fill:none;stroke-width:5.70714;stroke-linecap:round;stroke-linejoin:miter;stroke:#bfbfbf;stroke-opacity:1;stroke-dasharray:11.4143,17.1214;stroke-miterlimit:10" d="M399.518-255.583h3195.966" transform="matrix(.10013 0 0 .09987 342.424 271.499)"/></g><g clip-path="url(#K)"><path style="fill:none;stroke-width:5.70714;stroke-linecap:round;stroke-linejoin:miter;stroke:#bfbfbf;stroke-opacity:1;stroke-dasharray:11.4143,17.1214;stroke-miterlimit:10" d="M399.518-913.83h3195.966" transform="matrix(.10013 0 0 .09987 342.424 271.499)"/></g><g clip-path="url(#L)"><path style="fill:none;stroke-width:5.70714;stroke-linecap:round;stroke-linejoin:miter;stroke:#bfbfbf;stroke-opacity:1;stroke-dasharray:11.4143,17.1214;stroke-miterlimit:10" d="M399.518-1572.036h3195.966" transform="matrix(.10013 0 0 .09987 342.424 271.499)"/></g><g clip-path="url(#M)"><path style="fill:none;stroke-width:5.70714;stroke-linecap:round;stroke-linejoin:miter;stroke:#bfbfbf;stroke-opacity:1;stroke-dasharray:11.4143,17.1214;stroke-miterlimit:10" d="M399.518-2230.243h3195.966" transform="matrix(.10013 0 0 .09987 342.424 271.499)"/></g><path style="fill:none;stroke-width:11.4143;stroke-linecap:square;stroke-linejoin:miter;stroke:#000;stroke-opacity:1;stroke-miterlimit:10" d="M399.518-211.153h3195.966" transform="matrix(.10013 0 0 .09987 342.424 271.499)"/><path style="fill:none;stroke-width:5.70714;stroke-linecap:butt;stroke-linejoin:miter;stroke:#000;stroke-opacity:1;stroke-miterlimit:10" d="M399.518-211.153v-45.682m0 45.682v-22.84m79.901 22.84v-22.84m79.9 22.84v-22.84m79.9 22.84v-22.84m79.9 22.84v-22.84m79.9 22.84v-22.84m79.901 22.84v-22.84m79.9 22.84v-22.84m79.9 22.84v-22.84m159.76 22.84v-45.682m0 45.682v-22.84m79.9 22.84v-22.84m79.9 22.84v-22.84m79.901 22.84v-22.84m79.9 22.84v-22.84m79.9 22.84v-22.84m79.9 22.84v-22.84m79.901 22.84v-22.84m79.9 22.84v-22.84m159.8 22.84v-45.682m0 45.682v-22.84m79.9 22.84v-22.84m79.9 22.84v-22.84m79.9 22.84v-22.84m79.9 22.84v-22.84m79.901 22.84v-22.84m79.9 22.84v-22.84m79.9 22.84v-22.84m79.9 22.84v-22.84m159.8 22.84v-45.682m0 45.682v-22.84m79.9 22.84v-22.84m79.9 22.84v-22.84m79.901 22.84v-22.84m79.9 22.84v-22.84m79.9 22.84v-22.84m79.9 22.84v-22.84m79.9 22.84v-22.84m79.9 22.84v-22.84m159.8 22.84v-45.682m0 45.682v-22.84" transform="matrix(.10013 0 0 .09987 342.424 271.499)"/><use xlink:href="#N" x="380.518" y="259.529" style="fill:#000;fill-opacity:1"/><g style="fill:#000;fill-opacity:1"><use xlink:href="#O" x="458.612" y="259.529"/><use xlink:href="#N" x="462.425" y="259.529"/></g><g style="fill:#000;fill-opacity:1"><use xlink:href="#P" x="538.613" y="259.529"/><use xlink:href="#N" x="542.425" y="259.529"/></g><g style="fill:#000;fill-opacity:1"><use xlink:href="#Q" x="618.042" y="259.529"/><use xlink:href="#N" x="621.854" y="259.529"/></g><g style="fill:#000;fill-opacity:1"><use xlink:href="#R" x="698.614" y="259.529"/><use xlink:href="#N" x="702.426" y="259.529"/></g><path style="fill:none;stroke-width:11.4143;stroke-linecap:square;stroke-linejoin:miter;stroke:#000;stroke-opacity:1;stroke-miterlimit:10" d="M399.518-2636.69h3195.966" transform="matrix(.10013 0 0 .09987 342.424 271.499)"/><path style="fill:none;stroke-width:5.70714;stroke-linecap:butt;stroke-linejoin:miter;stroke:#000;stroke-opacity:1;stroke-miterlimit:10" d="M399.518-2636.69v45.644m0-45.644v22.802m79.901-22.802v22.802m79.9-22.802v22.802m79.9-22.802v22.802m79.9-22.802v22.802m79.9-22.802v22.802m79.901-22.802v22.802m79.9-22.802v22.802m79.9-22.802v22.802m159.76-22.802v45.644m0-45.644v22.802m79.9-22.802v22.802m79.9-22.802v22.802m79.901-22.802v22.802m79.9-22.802v22.802m79.9-22.802v22.802m79.9-22.802v22.802m79.901-22.802v22.802m79.9-22.802v22.802m159.8-22.802v45.644m0-45.644v22.802m79.9-22.802v22.802m79.9-22.802v22.802m79.9-22.802v22.802m79.9-22.802v22.802m79.901-22.802v22.802m79.9-22.802v22.802m79.9-22.802v22.802m79.9-22.802v22.802m159.8-22.802v45.644m0-45.644v22.802m79.9-22.802v22.802m79.9-22.802v22.802m79.901-22.802v22.802m79.9-22.802v22.802m79.9-22.802v22.802m79.9-22.802v22.802m79.9-22.802v22.802m79.9-22.802v22.802m159.8-22.802v45.644m0-45.644v22.802" transform="matrix(.10013 0 0 .09987 342.424 271.499)"/><g clip-path="url(#S)"><use xlink:href="#N" x="380.518" y="5.879" style="fill:#000;fill-opacity:1"/></g><g style="fill:#000;fill-opacity:1" clip-path="url(#T)"><use xlink:href="#O" x="458.612" y="5.879"/><use xlink:href="#N" x="462.425" y="5.879"/></g><g style="fill:#000;fill-opacity:1" clip-path="url(#U)"><use xlink:href="#P" x="538.613" y="5.879"/><use xlink:href="#N" x="542.425" y="5.879"/></g><g style="fill:#000;fill-opacity:1" clip-path="url(#V)"><use xlink:href="#Q" x="618.042" y="5.879"/><use xlink:href="#N" x="621.854" y="5.879"/></g><g style="fill:#000;fill-opacity:1" clip-path="url(#W)"><use xlink:href="#R" x="698.614" y="5.879"/><use xlink:href="#N" x="702.426" y="5.879"/></g><path style="fill:none;stroke-width:11.4143;stroke-linecap:square;stroke-linejoin:miter;stroke:#000;stroke-opacity:1;stroke-miterlimit:10" d="M399.518-211.153V-2636.69" transform="matrix(.10013 0 0 .09987 342.424 271.499)"/><path style="fill:none;stroke-width:5.70714;stroke-linecap:butt;stroke-linejoin:miter;stroke:#000;stroke-opacity:1;stroke-miterlimit:10" d="M399.518-255.583h45.646m-45.646 0h22.823m-22.823-65.825h22.823m-22.823-65.825h22.823m-22.823-65.824h22.823m-22.823-65.825h22.823m-22.823-65.824h22.823m-22.823-65.825h22.823m-22.823-65.825h22.823m-22.823-65.824h22.823m-22.823-131.65h45.646m-45.646 0h22.823m-22.823-65.824h22.823m-22.823-65.825h22.823m-22.823-65.785h22.823m-22.823-65.825h22.823m-22.823-65.824h22.823m-22.823-65.825h22.823m-22.823-65.825h22.823m-22.823-65.824h22.823m-22.823-131.649h45.646m-45.646 0h22.823m-22.823-65.824h22.823m-22.823-65.826h22.823m-22.823-65.824h22.823m-22.823-65.825h22.823m-22.823-65.825h22.823m-22.823-65.785h22.823m-22.823-65.825h22.823m-22.823-65.824h22.823m-22.823-131.649h45.646m-45.646 0h22.823m-22.823-65.825h22.823m-22.823-65.824h22.823m-22.823-65.825h22.823m-22.823-65.825h22.823m-22.823-65.824h22.823m-22.823-65.824h22.823" transform="matrix(.10013 0 0 .09987 342.424 271.499)"/><g style="fill:#000;fill-opacity:1"><use xlink:href="#O" x="369.085" y="249.269"/><use xlink:href="#N" x="372.897" y="249.269"/></g><g style="fill:#000;fill-opacity:1"><use xlink:href="#P" x="369.085" y="183.149"/><use xlink:href="#N" x="372.897" y="183.149"/></g><g style="fill:#000;fill-opacity:1"><use xlink:href="#Q" x="369.085" y="117.599"/><use xlink:href="#N" x="372.897" y="117.599"/></g><g style="fill:#000;fill-opacity:1"><use xlink:href="#R" x="369.085" y="52.049"/><use xlink:href="#N" x="372.897" y="52.049"/></g><path style="fill:none;stroke-width:11.4143;stroke-linecap:square;stroke-linejoin:miter;stroke:#000;stroke-opacity:1;stroke-miterlimit:10" d="M3595.484-211.153V-2636.69" transform="matrix(.10013 0 0 .09987 342.424 271.499)"/><path style="fill:none;stroke-width:5.70714;stroke-linecap:butt;stroke-linejoin:miter;stroke:#000;stroke-opacity:1;stroke-miterlimit:10" d="M3595.484-255.583h-45.646m45.646 0h-22.823m22.823-65.825h-22.823m22.823-65.825h-22.823m22.823-65.824h-22.823m22.823-65.825h-22.823m22.823-65.824h-22.823m22.823-65.825h-22.823m22.823-65.825h-22.823m22.823-65.824h-22.823m22.823-131.65h-45.646m45.646 0h-22.823m22.823-65.824h-22.823m22.823-65.825h-22.823m22.823-65.785h-22.823m22.823-65.825h-22.823m22.823-65.824h-22.823m22.823-65.825h-22.823m22.823-65.825h-22.823m22.823-65.824h-22.823m22.823-131.649h-45.646m45.646 0h-22.823m22.823-65.824h-22.823m22.823-65.826h-22.823m22.823-65.824h-22.823m22.823-65.825h-22.823m22.823-65.825h-22.823m22.823-65.785h-22.823m22.823-65.825h-22.823m22.823-65.824h-22.823m22.823-131.649h-45.646m45.646 0h-22.823m22.823-65.825h-22.823m22.823-65.824h-22.823m22.823-65.825h-22.823m22.823-65.825h-22.823m22.823-65.824h-22.823m22.823-65.824h-22.823" transform="matrix(.10013 0 0 .09987 342.424 271.499)"/><g style="fill:#000;fill-opacity:1"><use xlink:href="#O" x="708.138" y="249.269"/><use xlink:href="#N" x="711.951" y="249.269"/></g><g style="fill:#000;fill-opacity:1"><use xlink:href="#P" x="708.138" y="183.149"/><use xlink:href="#N" x="711.951" y="183.149"/></g><g style="fill:#000;fill-opacity:1"><use xlink:href="#Q" x="708.138" y="117.599"/><use xlink:href="#N" x="711.951" y="117.599"/></g><g style="fill:#000;fill-opacity:1"><use xlink:href="#R" x="708.138" y="52.049"/><use xlink:href="#N" x="711.951" y="52.049"/></g><g clip-path="url(#X)"><path style="fill:none;stroke-width:11.4143;stroke-linecap:round;stroke-linejoin:round;stroke:#00008b;stroke-opacity:1;stroke-miterlimit:10" d="m399.518-2526.434 9.169 31.015 9.09 30.194 9.207 30.233 9.168 29.725 9.169 29.216 9.129 28.747 9.207 28.59 9.13 27.848 9.128 27.613 9.208 27.3 9.168 26.947 9.168 26.44 9.051 25.735 9.286 26.126 9.129 25.345 9.051 24.68 9.246 24.874 9.051 24.093 9.247 24.131 9.168 23.741 9.13 23.271 9.167 22.959 9.208 22.802 9.09 22.215 9.168 22.02 9.207 21.785 9.168 21.472 9.169 21.12 9.012 20.534 9.324 20.846 9.13 20.22 9.012 19.674 9.246 19.869 9.09 19.203 9.207 19.243 9.207 18.93 9.13 18.578 9.129 18.304 9.246 18.187 9.09 17.757 9.169 17.56 9.168 17.366 9.207 17.131 9.13 16.857 9.05 16.388 9.286 16.622 9.168 16.114 9.012 15.723 9.246 15.84 9.052 15.332 9.246 15.37 9.168 15.098 9.168 14.784 9.13 14.627 9.207 14.51 9.129 14.16 9.13 14.001 9.206 13.845 9.169 13.69 9.168 13.415 9.012 13.102 9.324 13.259 9.13 12.867 9.05 12.516 9.247 12.633 9.051 12.242 9.207 12.242 9.208 12.046 9.129 11.812 9.168 11.655 9.207 11.577 9.09 11.303 9.169 11.186 9.207 11.03 9.168 10.912 9.13 10.716 9.05 10.443 9.325 10.6 9.13 10.246 9.05 10.013 9.208 10.052 9.09 9.778 9.207 9.777 9.168 9.583 9.168 9.426 9.13 9.308 9.246 9.23 9.09 9.035 9.168 8.918 9.169 8.8 9.168 8.722 9.168 8.526 9.051 8.33 9.285 8.449 9.13 8.174 9.05 7.979 9.247 8.057 9.051 7.783 9.247 7.783 9.168 7.666 9.168 7.51 9.13 7.43 9.206 7.353 9.13 7.197 9.129 7.118 9.207 7.04 9.168 6.962 9.169 6.805 9.012 6.65 9.324 6.727 9.13 6.531 9.05 6.375 9.247 6.415 9.05 6.18 9.208 6.257 9.207 6.102 9.13 5.984 9.168 5.905 9.207 5.906 9.09 5.71 9.168 5.672 9.169 5.632 9.207 5.554 9.13 5.436 9.05 5.28 9.325 5.397 9.129 5.202 9.051 5.085 9.207 5.123 9.09 4.928 9.208 4.968 9.207 4.889 9.13 4.771 9.128 4.733 9.247 4.693 9.09 4.576 18.336 8.996 9.168 4.42 9.169 4.34 9.05 4.225 9.286 4.302 9.13 4.146 9.05 4.028 9.247 4.107 9.051 3.95 9.246 3.95 9.168 3.912 9.13 3.793 9.168 3.794 9.207 3.716 18.259 7.275 9.207 3.559 9.168 3.52 9.168 3.48 9.012 3.364 9.325 3.403 9.129 3.324 9.051 3.247 9.246 3.246 9.052 3.168 9.207 3.168 9.207 3.09 9.13 3.05 9.168 3.012 9.207 2.973 9.09 2.894 9.168 2.894 9.168 2.855 9.208 2.816 9.129 2.777 9.051 2.66 9.285 2.737 9.169 2.66 9.012 2.581 9.246 2.582 9.051 2.503 9.246 2.542 9.169 2.464 9.168 2.425 9.13 2.425 9.206 2.347 9.13 2.346 9.129 2.308 9.207 2.268 9.168 2.23 9.168 2.19 9.052 2.151 9.285 2.19 9.13 2.112 9.05 2.034 9.247 2.073 9.05 2.034 9.247 1.995 9.168 1.994 9.13 1.917 9.168 1.916 9.207 1.917 18.258 3.676 9.208 1.8 9.168 1.798 9.168 1.76 9.012 1.721 9.324 1.721 9.13 1.682 9.05 1.643 9.208 1.681 9.09 1.565 9.208 1.643 9.207 1.564 9.129 1.525 9.168 1.526 9.207 1.525 9.09 1.486 18.337 2.895 9.207 1.447 9.13 1.408 9.05 1.369 9.286 1.369 9.168 1.33 9.012 1.33 9.247 1.29 9.05 1.29 9.247 1.291 18.337 2.503 9.129 1.213 9.207 1.212 18.258 2.347 9.208 1.134 18.336 2.269 9.012 1.095 9.325 1.095 9.129 1.056 9.051 1.056 9.246 1.056 9.051 1.017 18.415 2.034 9.13.977 9.167.978 9.208.978 9.09.939 9.168.9 9.207.938 18.337 1.799 9.012.86 9.285.9 9.168.86 9.052.822 9.207.821 9.09.821 9.207.822 9.208.782 18.258 1.564 9.246.783 9.09.743 18.337 1.486 9.207.704 9.13.743 9.05.665 9.286.704 9.168.704 9.012.665 9.246.665 9.052.665 9.246.626 9.168.664 9.168.587 9.13.626 9.207.626 18.258 1.173 9.207.587 18.337 1.173 9.012.548 9.324.547 9.13.548 9.05.547 9.247.509 9.051.547 18.415 1.017 9.129.509 9.168.469 9.207.508 9.09.47 9.169.47 9.207.468 9.168.47 9.168.43 9.013.47 9.285.43 9.168.43 9.012.43 9.247.43 9.09.43 9.207.392 9.168.43 9.168.39 9.13.392 9.246.391 9.09.391 9.168.352 9.169.391 18.336.704 9.051.352 9.286.352 9.168.352 9.012.352 9.246.352 9.051.313 9.247.313 9.168.352 9.168.313 9.13.313 9.207.313 9.129.313 9.129.274 9.207.312 9.168.274 9.169.313 9.012.274 9.324.274 9.13.273 9.05.274 9.208.274 9.09.274 9.207.274 9.207.234 9.13.274 9.168.235 9.207.234 9.09.274 18.337.47 9.207.234 9.13.235 9.05.234" transform="matrix(.10013 0 0 .09987 342.424 271.499)"/></g><g clip-path="url(#Y)"><path style="fill:none;stroke-width:11.4143;stroke-linecap:round;stroke-linejoin:round;stroke:#006400;stroke-opacity:1;stroke-miterlimit:10" d="M399.518-321.408h3195.966" transform="matrix(.10013 0 0 .09987 342.424 271.499)"/></g></svg>