<svg xmlns="http://www.w3.org/2000/svg" xmlns:xlink="http://www.w3.org/1999/xlink" width="1038.564" height="367.999" viewBox="0 0 778.923 275.999"><defs><clipPath id="a"><path d="M20.5 10h.5v255h-.5zm0 0"/></clipPath><clipPath id="b"><path d="M20.5 137h340v1h-340zm0 0"/></clipPath><clipPath id="c"><path d="M20.5 10h.5v255h-.5zm0 0"/></clipPath><clipPath id="d"><path d="M105 10h1v255h-1zm0 0"/></clipPath><clipPath id="e"><path d="M190 10h1v255h-1zm0 0"/></clipPath><clipPath id="f"><path d="M275 10h1v255h-1zm0 0"/></clipPath><clipPath id="g"><path d="M360 10h.5v255h-.5zm0 0"/></clipPath><clipPath id="h"><path d="M20.5 253h340v1h-340zm0 0"/></clipPath><clipPath id="i"><path d="M20.5 195h340v1h-340zm0 0"/></clipPath><clipPath id="j"><path d="M20.5 137h340v1h-340zm0 0"/></clipPath><clipPath id="k"><path d="M20.5 79h340v1h-340zm0 0"/></clipPath><clipPath id="l"><path d="M20.5 21h340v1h-340zm0 0"/></clipPath><clipPath id="m"><path d="M12 269h15v6.5H12zm0 0"/></clipPath><clipPath id="p"><path d="M97 269h15v6.5H97zm0 0"/></clipPath><clipPath id="s"><path d="M183 269h15v6.5h-15zm0 0"/></clipPath><clipPath id="t"><path d="M268 269h15v6.5h-15zm0 0"/></clipPath><clipPath id="v"><path d="M353 269h15v6.5h-15zm0 0"/></clipPath><clipPath id="y"><path d="M367 251h12.5v7H367zm0 0"/></clipPath><clipPath id="z"><path d="M367 193h12.5v6H367zm0 0"/></clipPath><clipPath id="A"><path d="M20.5 20h340v119h-340zm0 0"/></clipPath><clipPath id="B"><path d="M419.426 10H420v255h-.574zm0 0"/></clipPath><clipPath id="C"><path d="M419.426 137h340v1h-340zm0 0"/></clipPath><clipPath id="D"><path d="M419.426 10H420v255h-.574zm0 0"/></clipPath><clipPath id="E"><path d="M504 10h1v255h-1zm0 0"/></clipPath><clipPath id="F"><path d="M589 10h1v255h-1zm0 0"/></clipPath><clipPath id="G"><path d="M674 10h1v255h-1zm0 0"/></clipPath><clipPath id="H"><path d="M759 10h.426v255H759zm0 0"/></clipPath><clipPath id="I"><path d="M419.426 253h340v1h-340zm0 0"/></clipPath><clipPath id="J"><path d="M419.426 195h340v1h-340zm0 0"/></clipPath><clipPath id="K"><path d="M419.426 137h340v1h-340zm0 0"/></clipPath><clipPath id="L"><path d="M419.426 79h340v1h-340zm0 0"/></clipPath><clipPath id="M"><path d="M419.426 21h340v1h-340zm0 0"/></clipPath><clipPath id="N"><path d="M411 269h15v6.5h-15zm0 0"/></clipPath><clipPath id="O"><path d="M496 269h15v6.5h-15zm0 0"/></clipPath><clipPath id="P"><path d="M582 269h15v6.5h-15zm0 0"/></clipPath><clipPath id="Q"><path d="M667 269h15v6.5h-15zm0 0"/></clipPath><clipPath id="R"><path d="M752 269h15v6.5h-15zm0 0"/></clipPath><clipPath id="S"><path d="M399.426 251H413v7h-13.574zm0 0"/></clipPath><clipPath id="T"><path d="M399.426 193H413v6h-13.574zm0 0"/></clipPath><clipPath id="U"><path d="M766 251h12.426v7H766zm0 0"/></clipPath><clipPath id="V"><path d="M766 193h12.426v6H766zm0 0"/></clipPath><clipPath id="W"><path d="M419.426 79h340v60h-340zm0 0"/></clipPath><symbol overflow="visible" id="n"><path style="stroke:none" d="M2.063-5.313c-.5 0-.938.22-1.22.579C.5-4.266.329-3.563.329-2.578c0 1.797.594 2.75 1.734 2.75 1.126 0 1.735-.953 1.735-2.703 0-1.031-.156-1.719-.516-2.203-.281-.375-.719-.579-1.219-.579zm0 .579c.718 0 1.062.718 1.062 2.14 0 1.516-.344 2.219-1.078 2.219C1.344-.375 1-1.109 1-2.563c0-1.453.344-2.171 1.063-2.171zm0 0"/></symbol><symbol overflow="visible" id="o"><path style="stroke:none" d="M1.438-.781H.655V0h.781zm0 0"/></symbol><symbol overflow="visible" id="q"><path style="stroke:none" d="M3.797-.656H1c.063-.438.313-.703.953-1.094l.75-.406c.75-.406 1.125-.953 1.125-1.594 0-.453-.172-.86-.484-1.14-.328-.298-.719-.423-1.219-.423-.672 0-1.172.235-1.469.688-.187.281-.265.61-.281 1.156h.656c.032-.36.078-.578.157-.75.171-.328.515-.515.921-.515.594 0 1.047.421 1.047.984 0 .422-.25.781-.719 1.063l-.687.39C.64-1.672.312-1.172.25 0h3.547zm0 0"/></symbol><symbol overflow="visible" id="r"><path style="stroke:none" d="M3.563-5.313H.828L.422-2.421h.61c.312-.375.562-.5.984-.5.703 0 1.156.485 1.156 1.281 0 .766-.438 1.235-1.156 1.235-.579 0-.938-.297-1.094-.906H.266c.093.437.156.656.312.843.313.406.844.64 1.453.64 1.063 0 1.813-.78 1.813-1.905 0-1.047-.688-1.766-1.719-1.766-.375 0-.672.094-.984.313l.218-1.485h2.204zm0 0"/></symbol><symbol overflow="visible" id="u"><path style="stroke:none" d="M3.906-5.313H.344v.641h2.875C1.953-2.859 1.438-1.75 1.03 0h.703c.297-1.703.97-3.172 2.172-4.766zm0 0"/></symbol><symbol overflow="visible" id="w"><path style="stroke:none" d="M1.938-3.781V0h.671v-5.313h-.437c-.235.813-.39.922-1.406 1.047v.485zm0 0"/></symbol><symbol overflow="visible" id="x"><path style="stroke:none" d="M2.125-2.344H.344v.547h1.781zm0 0"/></symbol></defs><path style="stroke:none;fill-rule:nonzero;fill:#fff;fill-opacity:1" d="M20.5 265h340V10h-340zm0 0"/><g clip-path="url(#a)"><path style="fill:none;stroke-width:6.25;stroke-linecap:round;stroke-linejoin:miter;stroke:#bfbfbf;stroke-opacity:1;stroke-miterlimit:10" d="M200 104.99v2550" transform="matrix(.1 0 0 -.1 .5 275.499)"/></g><g clip-path="url(#b)"><path style="fill:none;stroke-width:6.25;stroke-linecap:round;stroke-linejoin:miter;stroke:#bfbfbf;stroke-opacity:1;stroke-miterlimit:10" d="M200 1379.99h3400" transform="matrix(.1 0 0 -.1 .5 275.499)"/></g><g clip-path="url(#c)"><path style="fill:none;stroke-width:6.25;stroke-linecap:round;stroke-linejoin:miter;stroke:#bfbfbf;stroke-opacity:1;stroke-dasharray:12.5,18.75;stroke-miterlimit:10" d="M200 104.99v2550" transform="matrix(.1 0 0 -.1 .5 275.499)"/></g><g clip-path="url(#d)"><path style="fill:none;stroke-width:6.25;stroke-linecap:round;stroke-linejoin:miter;stroke:#bfbfbf;stroke-opacity:1;stroke-dasharray:12.5,18.75;stroke-miterlimit:10" d="M1050 104.99v2550" transform="matrix(.1 0 0 -.1 .5 275.499)"/></g><g clip-path="url(#e)"><path style="fill:none;stroke-width:6.25;stroke-linecap:round;stroke-linejoin:miter;stroke:#bfbfbf;stroke-opacity:1;stroke-dasharray:12.5,18.75;stroke-miterlimit:10" d="M1900 104.99v2550" transform="matrix(.1 0 0 -.1 .5 275.499)"/></g><g clip-path="url(#f)"><path style="fill:none;stroke-width:6.25;stroke-linecap:round;stroke-linejoin:miter;stroke:#bfbfbf;stroke-opacity:1;stroke-dasharray:12.5,18.75;stroke-miterlimit:10" d="M2750 104.99v2550" transform="matrix(.1 0 0 -.1 .5 275.499)"/></g><g clip-path="url(#g)"><path style="fill:none;stroke-width:6.25;stroke-linecap:round;stroke-linejoin:miter;stroke:#bfbfbf;stroke-opacity:1;stroke-dasharray:12.5,18.75;stroke-miterlimit:10" d="M3600 104.99v2550" transform="matrix(.1 0 0 -.1 .5 275.499)"/></g><g clip-path="url(#h)"><path style="fill:none;stroke-width:6.25;stroke-linecap:round;stroke-linejoin:miter;stroke:#bfbfbf;stroke-opacity:1;stroke-dasharray:12.5,18.75;stroke-miterlimit:10" d="M200 220.888h3400" transform="matrix(.1 0 0 -.1 .5 275.499)"/></g><g clip-path="url(#i)"><path style="fill:none;stroke-width:6.25;stroke-linecap:round;stroke-linejoin:miter;stroke:#bfbfbf;stroke-opacity:1;stroke-dasharray:12.5,18.75;stroke-miterlimit:10" d="M200 800.459h3400" transform="matrix(.1 0 0 -.1 .5 275.499)"/></g><g clip-path="url(#j)"><path style="fill:none;stroke-width:6.25;stroke-linecap:round;stroke-linejoin:miter;stroke:#bfbfbf;stroke-opacity:1;stroke-dasharray:12.5,18.75;stroke-miterlimit:10" d="M200 1379.99h3400" transform="matrix(.1 0 0 -.1 .5 275.499)"/></g><g clip-path="url(#k)"><path style="fill:none;stroke-width:6.25;stroke-linecap:round;stroke-linejoin:miter;stroke:#bfbfbf;stroke-opacity:1;stroke-dasharray:12.5,18.75;stroke-miterlimit:10" d="M200 1959.521h3400" transform="matrix(.1 0 0 -.1 .5 275.499)"/></g><g clip-path="url(#l)"><path style="fill:none;stroke-width:6.25;stroke-linecap:round;stroke-linejoin:miter;stroke:#bfbfbf;stroke-opacity:1;stroke-dasharray:12.5,18.75;stroke-miterlimit:10" d="M200 2539.092h3400" transform="matrix(.1 0 0 -.1 .5 275.499)"/></g><path style="fill:none;stroke-width:12.5;stroke-linecap:square;stroke-linejoin:miter;stroke:#000;stroke-opacity:1;stroke-miterlimit:10" d="M200 104.99h3400" transform="matrix(.1 0 0 -.1 .5 275.499)"/><path style="fill:none;stroke-width:6.25;stroke-linecap:butt;stroke-linejoin:miter;stroke:#000;stroke-opacity:1;stroke-miterlimit:10" d="M200 104.99v50m85-50v25m85-25v25m85-25v25m85-25v25m85-25v25m85-25v25m85-25v25m85-25v25m85-25v25m85-25v50m85-50v25m85-25v25m85-25v25m85-25v25m85-25v25m85-25v25m85-25v25m85-25v25m85-25v25m85-25v50m85-50v25m85-25v25m85-25v25m85-25v25m85-25v25m85-25v25m85-25v25m85-25v25m85-25v25m85-25v50m85-50v25m85-25v25m85-25v25m85-25v25m85-25v25m85-25v25m85-25v25m85-25v25m85-25v25m85-25v50" transform="matrix(.1 0 0 -.1 .5 275.499)"/><g style="fill:#000;fill-opacity:1" clip-path="url(#m)"><use xlink:href="#n" x="12.578" y="274.999"/><use xlink:href="#o" x="16.748" y="274.999"/><use xlink:href="#n" x="18.833" y="274.999"/><use xlink:href="#n" x="23.003" y="274.999"/></g><g style="fill:#000;fill-opacity:1" clip-path="url(#p)"><use xlink:href="#n" x="97.578" y="274.999"/><use xlink:href="#o" x="101.748" y="274.999"/><use xlink:href="#q" x="103.833" y="274.999"/><use xlink:href="#r" x="108.003" y="274.999"/></g><g style="fill:#000;fill-opacity:1" clip-path="url(#s)"><use xlink:href="#n" x="183.203" y="274.999"/><use xlink:href="#o" x="187.373" y="274.999"/><use xlink:href="#r" x="189.458" y="274.999"/><use xlink:href="#n" x="193.628" y="274.999"/></g><g style="fill:#000;fill-opacity:1" clip-path="url(#t)"><use xlink:href="#n" x="268.203" y="274.999"/><use xlink:href="#o" x="272.373" y="274.999"/><use xlink:href="#u" x="274.458" y="274.999"/><use xlink:href="#r" x="278.628" y="274.999"/></g><g style="fill:#000;fill-opacity:1" clip-path="url(#v)"><use xlink:href="#w" x="353.203" y="274.999"/><use xlink:href="#o" x="357.373" y="274.999"/><use xlink:href="#n" x="359.458" y="274.999"/><use xlink:href="#n" x="363.628" y="274.999"/></g><path style="fill:none;stroke-width:12.5;stroke-linecap:square;stroke-linejoin:miter;stroke:#000;stroke-opacity:1;stroke-miterlimit:10" d="M200 2654.99h3400" transform="matrix(.1 0 0 -.1 .5 275.499)"/><path style="fill:none;stroke-width:6.25;stroke-linecap:butt;stroke-linejoin:miter;stroke:#000;stroke-opacity:1;stroke-miterlimit:10" d="M200 2654.99v-50m85 50v-25m85 25v-25m85 25v-25m85 25v-25m85 25v-25m85 25v-25m85 25v-25m85 25v-25m85 25v-25m85 25v-50m85 50v-25m85 25v-25m85 25v-25m85 25v-25m85 25v-25m85 25v-25m85 25v-25m85 25v-25m85 25v-25m85 25v-50m85 50v-25m85 25v-25m85 25v-25m85 25v-25m85 25v-25m85 25v-25m85 25v-25m85 25v-25m85 25v-25m85 25v-50m85 50v-25m85 25v-25m85 25v-25m85 25v-25m85 25v-25m85 25v-25m85 25v-25m85 25v-25m85 25v-25m85 25v-50" transform="matrix(.1 0 0 -.1 .5 275.499)"/><g style="fill:#000;fill-opacity:1"><use xlink:href="#n" x="12.578" y="6.874"/><use xlink:href="#o" x="16.748" y="6.874"/><use xlink:href="#n" x="18.833" y="6.874"/><use xlink:href="#n" x="23.003" y="6.874"/></g><g style="fill:#000;fill-opacity:1"><use xlink:href="#n" x="97.578" y="6.874"/><use xlink:href="#o" x="101.748" y="6.874"/><use xlink:href="#q" x="103.833" y="6.874"/><use xlink:href="#r" x="108.003" y="6.874"/></g><g style="fill:#000;fill-opacity:1"><use xlink:href="#n" x="183.203" y="6.874"/><use xlink:href="#o" x="187.373" y="6.874"/><use xlink:href="#r" x="189.458" y="6.874"/><use xlink:href="#n" x="193.628" y="6.874"/></g><g style="fill:#000;fill-opacity:1"><use xlink:href="#n" x="268.203" y="6.874"/><use xlink:href="#o" x="272.373" y="6.874"/><use xlink:href="#u" x="274.458" y="6.874"/><use xlink:href="#r" x="278.628" y="6.874"/></g><g style="fill:#000;fill-opacity:1"><use xlink:href="#w" x="353.203" y="6.874"/><use xlink:href="#o" x="357.373" y="6.874"/><use xlink:href="#n" x="359.458" y="6.874"/><use xlink:href="#n" x="363.628" y="6.874"/></g><path style="fill:none;stroke-width:12.5;stroke-linecap:square;stroke-linejoin:miter;stroke:#000;stroke-opacity:1;stroke-miterlimit:10" d="M200 104.99v2550" transform="matrix(.1 0 0 -.1 .5 275.499)"/><path style="fill:none;stroke-width:6.25;stroke-linecap:butt;stroke-linejoin:miter;stroke:#000;stroke-opacity:1;stroke-miterlimit:10" d="M200 104.99h25m-25 57.969h25m-25 57.929h50m-50 57.969h25m-25 57.969h25m-25 57.93h25m-25 57.968h25m-25 57.969h25m-25 57.93h25m-25 57.969h25m-25 57.968h25m-25 57.93h25m-25 57.969h50m-50 57.929h25m-25 57.969h25m-25 57.969h25m-25 57.93h25m-25 57.968h25m-25 57.969h25m-25 57.93h25m-25 57.969h25m-25 57.929h25m-25 57.969h50m-50 57.969h25m-25 57.969h25m-25 57.929h25m-25 57.969h25m-25 57.93h25m-25 57.968h25m-25 57.969h25m-25 57.93h25m-25 57.969h25m-25 57.929h50m-50 57.969h25m-25 57.969h25m-25 57.968h25m-25 57.93h25m-25 57.969h25m-25 57.93h25m-25 57.968h25m-25 57.969h25m-25 57.93h25m-25 57.969h50m-50 57.968h25m-25 57.93h25" transform="matrix(.1 0 0 -.1 .5 275.499)"/><g style="fill:#000;fill-opacity:1"><use xlink:href="#x" x=".703" y="256.874"/><use xlink:href="#w" x="3.201" y="256.874"/><use xlink:href="#o" x="7.371" y="256.874"/><use xlink:href="#n" x="9.456" y="256.874"/></g><g style="fill:#000;fill-opacity:1"><use xlink:href="#x" x=".703" y="198.749"/><use xlink:href="#n" x="3.201" y="198.749"/><use xlink:href="#o" x="7.371" y="198.749"/><use xlink:href="#r" x="9.456" y="198.749"/></g><g style="fill:#000;fill-opacity:1"><use xlink:href="#n" x="3.2" y="140.624"/><use xlink:href="#o" x="7.37" y="140.624"/><use xlink:href="#n" x="9.455" y="140.624"/></g><g style="fill:#000;fill-opacity:1"><use xlink:href="#n" x="3.2" y="83.124"/><use xlink:href="#o" x="7.37" y="83.124"/><use xlink:href="#r" x="9.455" y="83.124"/></g><g style="fill:#000;fill-opacity:1"><use xlink:href="#w" x="3.2" y="24.999"/><use xlink:href="#o" x="7.37" y="24.999"/><use xlink:href="#n" x="9.455" y="24.999"/></g><path style="fill:none;stroke-width:12.5;stroke-linecap:square;stroke-linejoin:miter;stroke:#000;stroke-opacity:1;stroke-miterlimit:10" d="M3600 104.99v2550" transform="matrix(.1 0 0 -.1 .5 275.499)"/><path style="fill:none;stroke-width:6.25;stroke-linecap:butt;stroke-linejoin:miter;stroke:#000;stroke-opacity:1;stroke-miterlimit:10" d="M3600 104.99h-25m25 57.969h-25m25 57.929h-50m50 57.969h-25m25 57.969h-25m25 57.93h-25m25 57.968h-25m25 57.969h-25m25 57.93h-25m25 57.969h-25m25 57.968h-25m25 57.93h-25m25 57.969h-50m50 57.929h-25m25 57.969h-25m25 57.969h-25m25 57.93h-25m25 57.968h-25m25 57.969h-25m25 57.93h-25m25 57.969h-25m25 57.929h-25m25 57.969h-50m50 57.969h-25m25 57.969h-25m25 57.929h-25m25 57.969h-25m25 57.93h-25m25 57.968h-25m25 57.969h-25m25 57.93h-25m25 57.969h-25m25 57.929h-50m50 57.969h-25m25 57.969h-25m25 57.968h-25m25 57.93h-25m25 57.969h-25m25 57.93h-25m25 57.968h-25m25 57.969h-25m25 57.93h-25m25 57.969h-50m50 57.968h-25m25 57.93h-25" transform="matrix(.1 0 0 -.1 .5 275.499)"/><g style="fill:#000;fill-opacity:1" clip-path="url(#y)"><use xlink:href="#x" x="366.75" y="256.874"/><use xlink:href="#w" x="369.248" y="256.874"/><use xlink:href="#o" x="373.418" y="256.874"/><use xlink:href="#n" x="375.502" y="256.874"/></g><g style="fill:#000;fill-opacity:1" clip-path="url(#z)"><use xlink:href="#x" x="366.75" y="198.749"/><use xlink:href="#n" x="369.248" y="198.749"/><use xlink:href="#o" x="373.418" y="198.749"/><use xlink:href="#r" x="375.502" y="198.749"/></g><g style="fill:#000;fill-opacity:1"><use xlink:href="#n" x="366.75" y="140.624"/><use xlink:href="#o" x="370.92" y="140.624"/><use xlink:href="#n" x="373.005" y="140.624"/></g><g style="fill:#000;fill-opacity:1"><use xlink:href="#n" x="366.75" y="83.124"/><use xlink:href="#o" x="370.92" y="83.124"/><use xlink:href="#r" x="373.005" y="83.124"/></g><g style="fill:#000;fill-opacity:1"><use xlink:href="#w" x="366.75" y="24.999"/><use xlink:href="#o" x="370.92" y="24.999"/><use xlink:href="#n" x="373.005" y="24.999"/></g><g clip-path="url(#A)"><path style="fill:none;stroke-width:12.5;stroke-linecap:round;stroke-linejoin:round;stroke:#00008b;stroke-opacity:1;stroke-miterlimit:10" d="M200 1379.99h1525l6.25 8.516 50 340.937 6.25 42.578 6.25 42.657 6.25 42.578 50 340.937 6.25 42.578 6.25 42.656 6.25 42.579 31.25 213.086 31.25-213.086 6.25-42.579 6.25-42.656 6.25-42.578 50-340.937 6.25-42.579 6.25-42.656 6.25-42.578 50-340.937 6.25-8.516h1525" transform="matrix(.1 0 0 -.1 .5 275.499)"/></g><path style="stroke:none;fill-rule:nonzero;fill:#fff;fill-opacity:1" d="M419.426 265h340V10h-340zm0 0"/><g clip-path="url(#B)"><path style="fill:none;stroke-width:6.25;stroke-linecap:round;stroke-linejoin:miter;stroke:#bfbfbf;stroke-opacity:1;stroke-miterlimit:10" d="M200.018 104.99v2550" transform="matrix(.1 0 0 -.1 399.424 275.499)"/></g><g clip-path="url(#C)"><path style="fill:none;stroke-width:6.25;stroke-linecap:round;stroke-linejoin:miter;stroke:#bfbfbf;stroke-opacity:1;stroke-miterlimit:10" d="M200.018 1379.99h3400" transform="matrix(.1 0 0 -.1 399.424 275.499)"/></g><g clip-path="url(#D)"><path style="fill:none;stroke-width:6.25;stroke-linecap:round;stroke-linejoin:miter;stroke:#bfbfbf;stroke-opacity:1;stroke-dasharray:12.5,18.75;stroke-miterlimit:10" d="M200.018 104.99v2550" transform="matrix(.1 0 0 -.1 399.424 275.499)"/></g><g clip-path="url(#E)"><path style="fill:none;stroke-width:6.25;stroke-linecap:round;stroke-linejoin:miter;stroke:#bfbfbf;stroke-opacity:1;stroke-dasharray:12.5,18.75;stroke-miterlimit:10" d="M1050.018 104.99v2550" transform="matrix(.1 0 0 -.1 399.424 275.499)"/></g><g clip-path="url(#F)"><path style="fill:none;stroke-width:6.25;stroke-linecap:round;stroke-linejoin:miter;stroke:#bfbfbf;stroke-opacity:1;stroke-dasharray:12.5,18.75;stroke-miterlimit:10" d="M1900.018 104.99v2550" transform="matrix(.1 0 0 -.1 399.424 275.499)"/></g><g clip-path="url(#G)"><path style="fill:none;stroke-width:6.25;stroke-linecap:round;stroke-linejoin:miter;stroke:#bfbfbf;stroke-opacity:1;stroke-dasharray:12.5,18.75;stroke-miterlimit:10" d="M2750.018 104.99v2550" transform="matrix(.1 0 0 -.1 399.424 275.499)"/></g><g clip-path="url(#H)"><path style="fill:none;stroke-width:6.25;stroke-linecap:round;stroke-linejoin:miter;stroke:#bfbfbf;stroke-opacity:1;stroke-dasharray:12.5,18.75;stroke-miterlimit:10" d="M3600.018 104.99v2550" transform="matrix(.1 0 0 -.1 399.424 275.499)"/></g><g clip-path="url(#I)"><path style="fill:none;stroke-width:6.25;stroke-linecap:round;stroke-linejoin:miter;stroke:#bfbfbf;stroke-opacity:1;stroke-dasharray:12.5,18.75;stroke-miterlimit:10" d="M200.018 220.888h3400" transform="matrix(.1 0 0 -.1 399.424 275.499)"/></g><g clip-path="url(#J)"><path style="fill:none;stroke-width:6.25;stroke-linecap:round;stroke-linejoin:miter;stroke:#bfbfbf;stroke-opacity:1;stroke-dasharray:12.5,18.75;stroke-miterlimit:10" d="M200.018 800.459h3400" transform="matrix(.1 0 0 -.1 399.424 275.499)"/></g><g clip-path="url(#K)"><path style="fill:none;stroke-width:6.25;stroke-linecap:round;stroke-linejoin:miter;stroke:#bfbfbf;stroke-opacity:1;stroke-dasharray:12.5,18.75;stroke-miterlimit:10" d="M200.018 1379.99h3400" transform="matrix(.1 0 0 -.1 399.424 275.499)"/></g><g clip-path="url(#L)"><path style="fill:none;stroke-width:6.25;stroke-linecap:round;stroke-linejoin:miter;stroke:#bfbfbf;stroke-opacity:1;stroke-dasharray:12.5,18.75;stroke-miterlimit:10" d="M200.018 1959.521h3400" transform="matrix(.1 0 0 -.1 399.424 275.499)"/></g><g clip-path="url(#M)"><path style="fill:none;stroke-width:6.25;stroke-linecap:round;stroke-linejoin:miter;stroke:#bfbfbf;stroke-opacity:1;stroke-dasharray:12.5,18.75;stroke-miterlimit:10" d="M200.018 2539.092h3400" transform="matrix(.1 0 0 -.1 399.424 275.499)"/></g><path style="fill:none;stroke-width:12.5;stroke-linecap:square;stroke-linejoin:miter;stroke:#000;stroke-opacity:1;stroke-miterlimit:10" d="M200.018 104.99h3400" transform="matrix(.1 0 0 -.1 399.424 275.499)"/><path style="fill:none;stroke-width:6.25;stroke-linecap:butt;stroke-linejoin:miter;stroke:#000;stroke-opacity:1;stroke-miterlimit:10" d="M200.018 104.99v50m85-50v25m85-25v25m85-25v25m85-25v25m85-25v25m85-25v25m85-25v25m85-25v25m85-25v25m85-25v50m85-50v25m85-25v25m85-25v25m85-25v25m85-25v25m85-25v25m85-25v25m85-25v25m85-25v25m85-25v50m85-50v25m85-25v25m85-25v25m85-25v25m85-25v25m85-25v25m85-25v25m85-25v25m85-25v25m85-25v50m85-50v25m85-25v25m85-25v25m85-25v25m85-25v25m85-25v25m85-25v25m85-25v25m85-25v25m85-25v50" transform="matrix(.1 0 0 -.1 399.424 275.499)"/><g style="fill:#000;fill-opacity:1" clip-path="url(#N)"><use xlink:href="#n" x="411.502" y="274.999"/><use xlink:href="#o" x="415.672" y="274.999"/><use xlink:href="#n" x="417.757" y="274.999"/><use xlink:href="#n" x="421.927" y="274.999"/></g><g style="fill:#000;fill-opacity:1" clip-path="url(#O)"><use xlink:href="#n" x="496.502" y="274.999"/><use xlink:href="#o" x="500.672" y="274.999"/><use xlink:href="#q" x="502.757" y="274.999"/><use xlink:href="#r" x="506.927" y="274.999"/></g><g style="fill:#000;fill-opacity:1" clip-path="url(#P)"><use xlink:href="#n" x="582.127" y="274.999"/><use xlink:href="#o" x="586.297" y="274.999"/><use xlink:href="#r" x="588.382" y="274.999"/><use xlink:href="#n" x="592.552" y="274.999"/></g><g style="fill:#000;fill-opacity:1" clip-path="url(#Q)"><use xlink:href="#n" x="667.127" y="274.999"/><use xlink:href="#o" x="671.297" y="274.999"/><use xlink:href="#u" x="673.382" y="274.999"/><use xlink:href="#r" x="677.552" y="274.999"/></g><g style="fill:#000;fill-opacity:1" clip-path="url(#R)"><use xlink:href="#w" x="752.127" y="274.999"/><use xlink:href="#o" x="756.297" y="274.999"/><use xlink:href="#n" x="758.382" y="274.999"/><use xlink:href="#n" x="762.552" y="274.999"/></g><path style="fill:none;stroke-width:12.5;stroke-linecap:square;stroke-linejoin:miter;stroke:#000;stroke-opacity:1;stroke-miterlimit:10" d="M200.018 2654.99h3400" transform="matrix(.1 0 0 -.1 399.424 275.499)"/><path style="fill:none;stroke-width:6.25;stroke-linecap:butt;stroke-linejoin:miter;stroke:#000;stroke-opacity:1;stroke-miterlimit:10" d="M200.018 2654.99v-50m85 50v-25m85 25v-25m85 25v-25m85 25v-25m85 25v-25m85 25v-25m85 25v-25m85 25v-25m85 25v-25m85 25v-50m85 50v-25m85 25v-25m85 25v-25m85 25v-25m85 25v-25m85 25v-25m85 25v-25m85 25v-25m85 25v-25m85 25v-50m85 50v-25m85 25v-25m85 25v-25m85 25v-25m85 25v-25m85 25v-25m85 25v-25m85 25v-25m85 25v-25m85 25v-50m85 50v-25m85 25v-25m85 25v-25m85 25v-25m85 25v-25m85 25v-25m85 25v-25m85 25v-25m85 25v-25m85 25v-50" transform="matrix(.1 0 0 -.1 399.424 275.499)"/><g style="fill:#000;fill-opacity:1"><use xlink:href="#n" x="411.502" y="6.874"/><use xlink:href="#o" x="415.672" y="6.874"/><use xlink:href="#n" x="417.757" y="6.874"/><use xlink:href="#n" x="421.927" y="6.874"/></g><g style="fill:#000;fill-opacity:1"><use xlink:href="#n" x="496.502" y="6.874"/><use xlink:href="#o" x="500.672" y="6.874"/><use xlink:href="#q" x="502.757" y="6.874"/><use xlink:href="#r" x="506.927" y="6.874"/></g><g style="fill:#000;fill-opacity:1"><use xlink:href="#n" x="582.127" y="6.874"/><use xlink:href="#o" x="586.297" y="6.874"/><use xlink:href="#r" x="588.382" y="6.874"/><use xlink:href="#n" x="592.552" y="6.874"/></g><g style="fill:#000;fill-opacity:1"><use xlink:href="#n" x="667.127" y="6.874"/><use xlink:href="#o" x="671.297" y="6.874"/><use xlink:href="#u" x="673.382" y="6.874"/><use xlink:href="#r" x="677.552" y="6.874"/></g><g style="fill:#000;fill-opacity:1"><use xlink:href="#w" x="752.127" y="6.874"/><use xlink:href="#o" x="756.297" y="6.874"/><use xlink:href="#n" x="758.382" y="6.874"/><use xlink:href="#n" x="762.552" y="6.874"/></g><path style="fill:none;stroke-width:12.5;stroke-linecap:square;stroke-linejoin:miter;stroke:#000;stroke-opacity:1;stroke-miterlimit:10" d="M200.018 104.99v2550" transform="matrix(.1 0 0 -.1 399.424 275.499)"/><path style="fill:none;stroke-width:6.25;stroke-linecap:butt;stroke-linejoin:miter;stroke:#000;stroke-opacity:1;stroke-miterlimit:10" d="M200.018 104.99h25m-25 57.969h25m-25 57.929h50m-50 57.969h25m-25 57.969h25m-25 57.93h25m-25 57.968h25m-25 57.969h25m-25 57.93h25m-25 57.969h25m-25 57.968h25m-25 57.93h25m-25 57.969h50m-50 57.929h25m-25 57.969h25m-25 57.969h25m-25 57.93h25m-25 57.968h25m-25 57.969h25m-25 57.93h25m-25 57.969h25m-25 57.929h25m-25 57.969h50m-50 57.969h25m-25 57.969h25m-25 57.929h25m-25 57.969h25m-25 57.93h25m-25 57.968h25m-25 57.969h25m-25 57.93h25m-25 57.969h25m-25 57.929h50m-50 57.969h25m-25 57.969h25m-25 57.968h25m-25 57.93h25m-25 57.969h25m-25 57.93h25m-25 57.968h25m-25 57.969h25m-25 57.93h25m-25 57.969h50m-50 57.968h25m-25 57.93h25" transform="matrix(.1 0 0 -.1 399.424 275.499)"/><g style="fill:#000;fill-opacity:1" clip-path="url(#S)"><use xlink:href="#x" x="399.627" y="256.874"/><use xlink:href="#w" x="402.125" y="256.874"/><use xlink:href="#o" x="406.295" y="256.874"/><use xlink:href="#n" x="408.38" y="256.874"/></g><g style="fill:#000;fill-opacity:1" clip-path="url(#T)"><use xlink:href="#x" x="399.627" y="198.749"/><use xlink:href="#n" x="402.125" y="198.749"/><use xlink:href="#o" x="406.295" y="198.749"/><use xlink:href="#r" x="408.38" y="198.749"/></g><g style="fill:#000;fill-opacity:1"><use xlink:href="#n" x="402.124" y="140.624"/><use xlink:href="#o" x="406.294" y="140.624"/><use xlink:href="#n" x="408.379" y="140.624"/></g><g style="fill:#000;fill-opacity:1"><use xlink:href="#n" x="402.124" y="83.124"/><use xlink:href="#o" x="406.294" y="83.124"/><use xlink:href="#r" x="408.379" y="83.124"/></g><g style="fill:#000;fill-opacity:1"><use xlink:href="#w" x="402.124" y="24.999"/><use xlink:href="#o" x="406.294" y="24.999"/><use xlink:href="#n" x="408.379" y="24.999"/></g><path style="fill:none;stroke-width:12.5;stroke-linecap:square;stroke-linejoin:miter;stroke:#000;stroke-opacity:1;stroke-miterlimit:10" d="M3600.018 104.99v2550" transform="matrix(.1 0 0 -.1 399.424 275.499)"/><path style="fill:none;stroke-width:6.25;stroke-linecap:butt;stroke-linejoin:miter;stroke:#000;stroke-opacity:1;stroke-miterlimit:10" d="M3600.018 104.99h-25m25 57.969h-25m25 57.929h-50m50 57.969h-25m25 57.969h-25m25 57.93h-25m25 57.968h-25m25 57.969h-25m25 57.93h-25m25 57.969h-25m25 57.968h-25m25 57.93h-25m25 57.969h-50m50 57.929h-25m25 57.969h-25m25 57.969h-25m25 57.93h-25m25 57.968h-25m25 57.969h-25m25 57.93h-25m25 57.969h-25m25 57.929h-25m25 57.969h-50m50 57.969h-25m25 57.969h-25m25 57.929h-25m25 57.969h-25m25 57.93h-25m25 57.968h-25m25 57.969h-25m25 57.93h-25m25 57.969h-25m25 57.929h-50m50 57.969h-25m25 57.969h-25m25 57.968h-25m25 57.93h-25m25 57.969h-25m25 57.93h-25m25 57.968h-25m25 57.969h-25m25 57.93h-25m25 57.969h-50m50 57.968h-25m25 57.93h-25" transform="matrix(.1 0 0 -.1 399.424 275.499)"/><g style="fill:#000;fill-opacity:1" clip-path="url(#U)"><use xlink:href="#x" x="765.674" y="256.874"/><use xlink:href="#w" x="768.172" y="256.874"/><use xlink:href="#o" x="772.341" y="256.874"/><use xlink:href="#n" x="774.427" y="256.874"/></g><g style="fill:#000;fill-opacity:1" clip-path="url(#V)"><use xlink:href="#x" x="765.674" y="198.749"/><use xlink:href="#n" x="768.172" y="198.749"/><use xlink:href="#o" x="772.341" y="198.749"/><use xlink:href="#r" x="774.427" y="198.749"/></g><g style="fill:#000;fill-opacity:1"><use xlink:href="#n" x="765.674" y="140.624"/><use xlink:href="#o" x="769.844" y="140.624"/><use xlink:href="#n" x="771.929" y="140.624"/></g><g style="fill:#000;fill-opacity:1"><use xlink:href="#n" x="765.674" y="83.124"/><use xlink:href="#o" x="769.844" y="83.124"/><use xlink:href="#r" x="771.929" y="83.124"/></g><g style="fill:#000;fill-opacity:1"><use xlink:href="#w" x="765.674" y="24.999"/><use xlink:href="#o" x="769.844" y="24.999"/><use xlink:href="#n" x="771.929" y="24.999"/></g><g clip-path="url(#W)"><path style="fill:none;stroke-width:12.5;stroke-linecap:round;stroke-linejoin:round;stroke:#00008b;stroke-opacity:1;stroke-miterlimit:10" d="M200.018 1379.99h850l6.25 21.328 6.25 21.29 6.25 21.327 12.5 42.578 6.25 21.329 6.25 21.289 6.25 21.328 6.25 21.289 6.25 21.328 6.25 21.289 6.25 21.328 12.5 42.578 12.5 42.657 12.5 42.578 6.25 21.328 6.25 21.289 6.25 21.328 6.25 21.289 6.25 21.328 6.25 21.29 6.25 21.327 12.5 42.578 6.25-12.773 6.25-21.29 6.25-21.327 6.25-21.29 6.25-21.327 12.5-42.579 12.5-42.656 12.5-42.578 6.25-21.328 6.25-21.29 6.25-21.327 6.25-21.29 6.25-21.327 6.25-21.29 6.25-21.328 12.5-42.578 6.25-21.328 6.25-21.289 6.25-21.328 6.25-21.29 6.25-21.327 6.25-21.29 6.25-21.327 6.25-8.516h1012.5l6.25 8.516 6.25 21.328 6.25 21.289 6.25 21.328 6.25 21.289 6.25 21.328 6.25 21.29 6.25 21.327 12.5 42.578 6.25 21.329 6.25 21.289 6.25 21.328 6.25 21.289 6.25 21.328 6.25 21.289 6.25 21.328 12.5 42.578 12.5 42.657 12.5 42.578 6.25 21.328 6.25 21.289 6.25 21.328 6.25 21.289 6.25 12.773 12.5-42.578 6.25-21.328 6.25-21.289 6.25-21.328 6.25-21.29 6.25-21.327 6.25-21.29 6.25-21.327 12.5-42.579 12.5-42.656 12.5-42.578 6.25-21.328 6.25-21.29 6.25-21.327 6.25-21.29 6.25-21.327 6.25-21.29 6.25-21.328 12.5-42.578 6.25-21.328 6.25-21.289 6.25-21.328h850" transform="matrix(.1 0 0 -.1 399.424 275.499)"/></g></svg>