<svg xmlns="http://www.w3.org/2000/svg" xmlns:xlink="http://www.w3.org/1999/xlink" width="374pt" height="275pt" viewBox="0 0 374 275"><defs><clipPath id="a"><path d="M101 9.5h2v255h-2zm0 0"/></clipPath><clipPath id="b"><path d="M17 264h340v.5H17zm0 0"/></clipPath><clipPath id="c"><path d="M17 9.5h1v255h-1zm0 0"/></clipPath><clipPath id="d"><path d="M101 9.5h2v255h-2zm0 0"/></clipPath><clipPath id="e"><path d="M186 9.5h2v255h-2zm0 0"/></clipPath><clipPath id="f"><path d="M271 9.5h2v255h-2zm0 0"/></clipPath><clipPath id="g"><path d="M356 9.5h1v255h-1zm0 0"/></clipPath><clipPath id="h"><path d="M17 264h340v.5H17zm0 0"/></clipPath><clipPath id="i"><path d="M17 221h340v2H17zm0 0"/></clipPath><clipPath id="j"><path d="M17 179h340v1H17zm0 0"/></clipPath><clipPath id="k"><path d="M17 136h340v2H17zm0 0"/></clipPath><clipPath id="l"><path d="M17 94h340v1H17zm0 0"/></clipPath><clipPath id="m"><path d="M17 51h340v2H17zm0 0"/></clipPath><clipPath id="n"><path d="M17 9.5h340v.5H17zm0 0"/></clipPath><symbol overflow="visible" id="o"><path style="stroke:none" d="M2.125-2.344H.344v.547h1.781zm0 0"/></symbol><symbol overflow="visible" id="p"><path style="stroke:none" d="M1.938-3.781V0h.671v-5.313h-.437c-.235.813-.39.922-1.406 1.047v.485zm0 0"/></symbol><symbol overflow="visible" id="q"><path style="stroke:none" d="M2.063-5.313c-.5 0-.938.22-1.22.579C.5-4.266.329-3.563.329-2.578c0 1.797.594 2.75 1.734 2.75 1.126 0 1.735-.953 1.735-2.703 0-1.031-.156-1.719-.516-2.203-.281-.375-.719-.579-1.219-.579zm0 .579c.718 0 1.062.718 1.062 2.14 0 1.516-.344 2.219-1.078 2.219C1.344-.375 1-1.109 1-2.563c0-1.453.344-2.171 1.063-2.171zm0 0"/></symbol><symbol overflow="visible" id="r"><path style="stroke:none" d="M3.797-.656H1c.063-.438.313-.703.953-1.094l.75-.406c.75-.406 1.125-.953 1.125-1.594 0-.453-.172-.86-.484-1.14-.328-.298-.719-.423-1.219-.423-.672 0-1.172.235-1.469.688-.187.281-.265.61-.281 1.156h.656c.032-.36.078-.578.157-.75.171-.328.515-.515.921-.515.594 0 1.047.421 1.047.984 0 .422-.25.781-.719 1.063l-.687.39C.64-1.672.312-1.172.25 0h3.547zm0 0"/></symbol><symbol overflow="visible" id="s"><path style="stroke:none" d="M1.656-2.438h.36c.734 0 1.109.329 1.109.954 0 .671-.422 1.078-1.11 1.078-.718 0-1.078-.36-1.109-1.14H.234c.032.421.11.702.235.952.281.5.797.766 1.531.766 1.094 0 1.797-.656 1.797-1.656 0-.672-.266-1.047-.906-1.266.5-.203.75-.578.75-1.11 0-.906-.61-1.453-1.625-1.453-1.079 0-1.641.579-1.657 1.72h.657c0-.329.03-.516.109-.673.156-.296.484-.468.906-.468.578 0 .938.343.938.906 0 .375-.14.594-.438.719-.172.078-.406.109-.875.109zm0 0"/></symbol><symbol overflow="visible" id="t"><path style="stroke:none" d="M1.438-.781H.655V0h.781zm0 0"/></symbol><symbol overflow="visible" id="u"><path style="stroke:none" d="M3.563-5.313H.828L.422-2.421h.61c.312-.375.562-.5.984-.5.703 0 1.156.485 1.156 1.281 0 .766-.438 1.235-1.156 1.235-.579 0-.938-.297-1.094-.906H.266c.093.437.156.656.312.843.313.406.844.64 1.453.64 1.063 0 1.813-.78 1.813-1.905 0-1.047-.688-1.766-1.719-1.766-.375 0-.672.094-.984.313l.218-1.485h2.204zm0 0"/></symbol></defs><g clip-path="url(#a)"><path style="fill:none;stroke-width:6.25;stroke-linecap:round;stroke-linejoin:miter;stroke:#bfbfbf;stroke-opacity:1;stroke-miterlimit:10" d="M1020 105v2550" transform="matrix(.1 0 0 -.1 0 275)"/></g><g clip-path="url(#b)"><path style="fill:none;stroke-width:6.25;stroke-linecap:round;stroke-linejoin:miter;stroke:#bfbfbf;stroke-opacity:1;stroke-miterlimit:10" d="M170 105h3400" transform="matrix(.1 0 0 -.1 0 275)"/></g><g clip-path="url(#c)"><path style="fill:none;stroke-width:6.25;stroke-linecap:round;stroke-linejoin:miter;stroke:#bfbfbf;stroke-opacity:1;stroke-dasharray:12.5,18.75;stroke-miterlimit:10" d="M170 105v2550" transform="matrix(.1 0 0 -.1 0 275)"/></g><g clip-path="url(#d)"><path style="fill:none;stroke-width:6.25;stroke-linecap:round;stroke-linejoin:miter;stroke:#bfbfbf;stroke-opacity:1;stroke-dasharray:12.5,18.75;stroke-miterlimit:10" d="M1020 105v2550" transform="matrix(.1 0 0 -.1 0 275)"/></g><g clip-path="url(#e)"><path style="fill:none;stroke-width:6.25;stroke-linecap:round;stroke-linejoin:miter;stroke:#bfbfbf;stroke-opacity:1;stroke-dasharray:12.5,18.75;stroke-miterlimit:10" d="M1870 105v2550" transform="matrix(.1 0 0 -.1 0 275)"/></g><g clip-path="url(#f)"><path style="fill:none;stroke-width:6.25;stroke-linecap:round;stroke-linejoin:miter;stroke:#bfbfbf;stroke-opacity:1;stroke-dasharray:12.5,18.75;stroke-miterlimit:10" d="M2720 105v2550" transform="matrix(.1 0 0 -.1 0 275)"/></g><g clip-path="url(#g)"><path style="fill:none;stroke-width:6.25;stroke-linecap:round;stroke-linejoin:miter;stroke:#bfbfbf;stroke-opacity:1;stroke-dasharray:12.5,18.75;stroke-miterlimit:10" d="M3570 105v2550" transform="matrix(.1 0 0 -.1 0 275)"/></g><g clip-path="url(#h)"><path style="fill:none;stroke-width:6.25;stroke-linecap:round;stroke-linejoin:miter;stroke:#bfbfbf;stroke-opacity:1;stroke-dasharray:12.5,18.75;stroke-miterlimit:10" d="M170 105h3400" transform="matrix(.1 0 0 -.1 0 275)"/></g><g clip-path="url(#i)"><path style="fill:none;stroke-width:6.25;stroke-linecap:round;stroke-linejoin:miter;stroke:#bfbfbf;stroke-opacity:1;stroke-dasharray:12.5,18.75;stroke-miterlimit:10" d="M170 530h3400" transform="matrix(.1 0 0 -.1 0 275)"/></g><g clip-path="url(#j)"><path style="fill:none;stroke-width:6.25;stroke-linecap:round;stroke-linejoin:miter;stroke:#bfbfbf;stroke-opacity:1;stroke-dasharray:12.5,18.75;stroke-miterlimit:10" d="M170 955h3400" transform="matrix(.1 0 0 -.1 0 275)"/></g><g clip-path="url(#k)"><path style="fill:none;stroke-width:6.25;stroke-linecap:round;stroke-linejoin:miter;stroke:#bfbfbf;stroke-opacity:1;stroke-dasharray:12.5,18.75;stroke-miterlimit:10" d="M170 1380h3400" transform="matrix(.1 0 0 -.1 0 275)"/></g><g clip-path="url(#l)"><path style="fill:none;stroke-width:6.25;stroke-linecap:round;stroke-linejoin:miter;stroke:#bfbfbf;stroke-opacity:1;stroke-dasharray:12.5,18.75;stroke-miterlimit:10" d="M170 1805h3400" transform="matrix(.1 0 0 -.1 0 275)"/></g><g clip-path="url(#m)"><path style="fill:none;stroke-width:6.25;stroke-linecap:round;stroke-linejoin:miter;stroke:#bfbfbf;stroke-opacity:1;stroke-dasharray:12.5,18.75;stroke-miterlimit:10" d="M170 2230h3400" transform="matrix(.1 0 0 -.1 0 275)"/></g><g clip-path="url(#n)"><path style="fill:none;stroke-width:6.25;stroke-linecap:round;stroke-linejoin:miter;stroke:#bfbfbf;stroke-opacity:1;stroke-dasharray:12.5,18.75;stroke-miterlimit:10" d="M170 2655h3400" transform="matrix(.1 0 0 -.1 0 275)"/></g><path style="fill:none;stroke-width:12.5;stroke-linecap:square;stroke-linejoin:miter;stroke:#000;stroke-opacity:1;stroke-miterlimit:10" d="M170 105h3400" transform="matrix(.1 0 0 -.1 0 275)"/><path style="fill:none;stroke-width:6.25;stroke-linecap:butt;stroke-linejoin:miter;stroke:#000;stroke-opacity:1;stroke-miterlimit:10" d="M170 105v50m85-50v25m85-25v25m85-25v25m85-25v25m85-25v25m85-25v25m85-25v25m85-25v25m85-25v25m85-25v50m85-50v25m85-25v25m85-25v25m85-25v25m85-25v25m85-25v25m85-25v25m85-25v25m85-25v25m85-25v50m85-50v25m85-25v25m85-25v25m85-25v25m85-25v25m85-25v25m85-25v25m85-25v25m85-25v25m85-25v50m85-50v25m85-25v25m85-25v25m85-25v25m85-25v25m85-25v25m85-25v25m85-25v25m85-25v25m85-25v50" transform="matrix(.1 0 0 -.1 0 275)"/><g style="fill:#000;fill-opacity:1"><use xlink:href="#o" x="13.042" y="274.5"/><use xlink:href="#p" x="15.539" y="274.5"/></g><use xlink:href="#q" x="99.29" y="274.5" style="fill:#000;fill-opacity:1"/><use xlink:href="#p" x="184.916" y="274.5" style="fill:#000;fill-opacity:1"/><use xlink:href="#r" x="269.915" y="274.5" style="fill:#000;fill-opacity:1"/><use xlink:href="#s" x="354.915" y="274.5" style="fill:#000;fill-opacity:1"/><path style="fill:none;stroke-width:12.5;stroke-linecap:square;stroke-linejoin:miter;stroke:#000;stroke-opacity:1;stroke-miterlimit:10" d="M170 2655h3400" transform="matrix(.1 0 0 -.1 0 275)"/><path style="fill:none;stroke-width:6.25;stroke-linecap:butt;stroke-linejoin:miter;stroke:#000;stroke-opacity:1;stroke-miterlimit:10" d="M170 2655v-50m85 50v-25m85 25v-25m85 25v-25m85 25v-25m85 25v-25m85 25v-25m85 25v-25m85 25v-25m85 25v-25m85 25v-50m85 50v-25m85 25v-25m85 25v-25m85 25v-25m85 25v-25m85 25v-25m85 25v-25m85 25v-25m85 25v-25m85 25v-50m85 50v-25m85 25v-25m85 25v-25m85 25v-25m85 25v-25m85 25v-25m85 25v-25m85 25v-25m85 25v-25m85 25v-50m85 50v-25m85 25v-25m85 25v-25m85 25v-25m85 25v-25m85 25v-25m85 25v-25m85 25v-25m85 25v-25m85 25v-50" transform="matrix(.1 0 0 -.1 0 275)"/><g style="fill:#000;fill-opacity:1"><use xlink:href="#o" x="13.042" y="6.375"/><use xlink:href="#p" x="15.539" y="6.375"/></g><use xlink:href="#q" x="99.29" y="6.375" style="fill:#000;fill-opacity:1"/><use xlink:href="#p" x="184.916" y="6.375" style="fill:#000;fill-opacity:1"/><use xlink:href="#r" x="269.915" y="6.375" style="fill:#000;fill-opacity:1"/><use xlink:href="#s" x="354.915" y="6.375" style="fill:#000;fill-opacity:1"/><path style="fill:none;stroke-width:12.5;stroke-linecap:square;stroke-linejoin:miter;stroke:#000;stroke-opacity:1;stroke-miterlimit:10" d="M170 105v2550" transform="matrix(.1 0 0 -.1 0 275)"/><path style="fill:none;stroke-width:6.25;stroke-linecap:butt;stroke-linejoin:miter;stroke:#000;stroke-opacity:1;stroke-miterlimit:10" d="M170 105h50m-50 42.5h25M170 190h25m-25 42.5h25M170 275h25m-25 42.5h25M170 360h25m-25 42.5h25M170 445h25m-25 42.5h25M170 530h50m-50 42.5h25M170 615h25m-25 42.5h25M170 700h25m-25 42.5h25M170 785h25m-25 42.5h25M170 870h25m-25 42.5h25M170 955h50m-50 42.5h25m-25 42.5h25m-25 42.5h25m-25 42.5h25m-25 42.5h25m-25 42.5h25m-25 42.5h25m-25 42.5h25m-25 42.5h25m-25 42.5h50m-50 42.5h25m-25 42.5h25m-25 42.5h25m-25 42.5h25m-25 42.5h25m-25 42.5h25m-25 42.5h25m-25 42.5h25m-25 42.5h25m-25 42.5h50m-50 42.5h25m-25 42.5h25m-25 42.5h25m-25 42.5h25m-25 42.5h25m-25 42.5h25m-25 42.5h25m-25 42.5h25m-25 42.5h25m-25 42.5h50m-50 42.5h25m-25 42.5h25m-25 42.5h25m-25 42.5h25m-25 42.5h25m-25 42.5h25m-25 42.5h25m-25 42.5h25m-25 42.5h25m-25 42.5h50" transform="matrix(.1 0 0 -.1 0 275)"/><g style="fill:#000;fill-opacity:1"><use xlink:href="#q" x="-.299" y="268.25"/><use xlink:href="#t" x="3.871" y="268.25"/><use xlink:href="#q" x="5.956" y="268.25"/></g><g style="fill:#000;fill-opacity:1"><use xlink:href="#q" x="-.299" y="225.125"/><use xlink:href="#t" x="3.871" y="225.125"/><use xlink:href="#u" x="5.956" y="225.125"/></g><g style="fill:#000;fill-opacity:1"><use xlink:href="#p" x="-.299" y="183.25"/><use xlink:href="#t" x="3.871" y="183.25"/><use xlink:href="#q" x="5.956" y="183.25"/></g><g style="fill:#000;fill-opacity:1"><use xlink:href="#p" x="-.299" y="140.125"/><use xlink:href="#t" x="3.871" y="140.125"/><use xlink:href="#u" x="5.956" y="140.125"/></g><g style="fill:#000;fill-opacity:1"><use xlink:href="#r" x="-.299" y="98.25"/><use xlink:href="#t" x="3.871" y="98.25"/><use xlink:href="#q" x="5.956" y="98.25"/></g><g style="fill:#000;fill-opacity:1"><use xlink:href="#r" x="-.299" y="55.125"/><use xlink:href="#t" x="3.871" y="55.125"/><use xlink:href="#u" x="5.956" y="55.125"/></g><g style="fill:#000;fill-opacity:1"><use xlink:href="#s" x="-.299" y="12.625"/><use xlink:href="#t" x="3.871" y="12.625"/><use xlink:href="#q" x="5.956" y="12.625"/></g><path style="fill:none;stroke-width:12.5;stroke-linecap:square;stroke-linejoin:miter;stroke:#000;stroke-opacity:1;stroke-miterlimit:10" d="M3570 105v2550" transform="matrix(.1 0 0 -.1 0 275)"/><path style="fill:none;stroke-width:6.25;stroke-linecap:butt;stroke-linejoin:miter;stroke:#000;stroke-opacity:1;stroke-miterlimit:10" d="M3570 105h-50m50 42.5h-25m25 42.5h-25m25 42.5h-25m25 42.5h-25m25 42.5h-25m25 42.5h-25m25 42.5h-25m25 42.5h-25m25 42.5h-25m25 42.5h-50m50 42.5h-25m25 42.5h-25m25 42.5h-25m25 42.5h-25m25 42.5h-25m25 42.5h-25m25 42.5h-25m25 42.5h-25m25 42.5h-25m25 42.5h-50m50 42.5h-25m25 42.5h-25m25 42.5h-25m25 42.5h-25m25 42.5h-25m25 42.5h-25m25 42.5h-25m25 42.5h-25m25 42.5h-25m25 42.5h-50m50 42.5h-25m25 42.5h-25m25 42.5h-25m25 42.5h-25m25 42.5h-25m25 42.5h-25m25 42.5h-25m25 42.5h-25m25 42.5h-25m25 42.5h-50m50 42.5h-25m25 42.5h-25m25 42.5h-25m25 42.5h-25m25 42.5h-25m25 42.5h-25m25 42.5h-25m25 42.5h-25m25 42.5h-25m25 42.5h-50m50 42.5h-25m25 42.5h-25m25 42.5h-25m25 42.5h-25m25 42.5h-25m25 42.5h-25m25 42.5h-25m25 42.5h-25m25 42.5h-25m25 42.5h-50" transform="matrix(.1 0 0 -.1 0 275)"/><g style="fill:#000;fill-opacity:1"><use xlink:href="#q" x="363.25" y="268.25"/><use xlink:href="#t" x="367.42" y="268.25"/><use xlink:href="#q" x="369.505" y="268.25"/></g><g style="fill:#000;fill-opacity:1"><use xlink:href="#q" x="363.25" y="225.125"/><use xlink:href="#t" x="367.42" y="225.125"/><use xlink:href="#u" x="369.505" y="225.125"/></g><g style="fill:#000;fill-opacity:1"><use xlink:href="#p" x="363.25" y="183.25"/><use xlink:href="#t" x="367.42" y="183.25"/><use xlink:href="#q" x="369.505" y="183.25"/></g><g style="fill:#000;fill-opacity:1"><use xlink:href="#p" x="363.25" y="140.125"/><use xlink:href="#t" x="367.42" y="140.125"/><use xlink:href="#u" x="369.505" y="140.125"/></g><g style="fill:#000;fill-opacity:1"><use xlink:href="#r" x="363.25" y="98.25"/><use xlink:href="#t" x="367.42" y="98.25"/><use xlink:href="#q" x="369.505" y="98.25"/></g><g style="fill:#000;fill-opacity:1"><use xlink:href="#r" x="363.25" y="55.125"/><use xlink:href="#t" x="367.42" y="55.125"/><use xlink:href="#u" x="369.505" y="55.125"/></g><g style="fill:#000;fill-opacity:1"><use xlink:href="#s" x="363.25" y="12.625"/><use xlink:href="#t" x="367.42" y="12.625"/><use xlink:href="#q" x="369.505" y="12.625"/></g><path style="fill:none;stroke-width:6.25;stroke-linecap:round;stroke-linejoin:miter;stroke:#00f;stroke-opacity:1;stroke-miterlimit:10" d="m203.984 168.672 102.032.156m0 0h0M204.023 295.39l101.954 1.72m0 0h0M204.063 421.367l101.875 4.766m0 0h0m-101.719 120.43 101.562 9.375m0 0h0M204.57 671.094l100.86 15.312m0 0h0M205.273 794.96l99.454 22.58m0 0h0m-98.36 100.82 97.266 30.78m0 0h0m-95.625 92.305 93.984 39.649m0 0h0m-91.836 83.359 89.688 48.594m0 0h0m-87.071 74.609 84.454 57.188m0 0h0m-81.524 66.406 78.594 65m0 0h0m-75.507 59.102 72.42 71.796m0 0h0m-69.296 52.812 66.172 77.58m0 0h0m-63.203 47.538 60.234 82.344m0 0h0m-57.422 43.242 54.61 86.172m0 0h0m-52.071 39.804 49.493 89.22m0 0h0m-47.149 37.109 44.844 91.562m0 0h0m-42.774 34.961 40.704 93.516m0 0h0m-38.868 33.202 37.032 95.08m0 0h0m-35.391 31.835 33.75 96.25m0 0h0M373.984 168.672l101.993.156m0 0h0M374.023 295.39l101.954 1.72m0 0h0M374.063 421.367l101.875 4.766m0 0h0m-101.719 120.43 101.562 9.375m0 0h0M374.57 671.094l100.86 15.312m0 0h0M375.273 794.96l99.454 22.58m0 0h0m-98.36 100.82 97.266 30.78m0 0h0m-95.625 92.305 93.984 39.649m0 0h0m-91.836 83.359 89.688 48.594m0 0h0m-87.071 74.609 84.454 57.188m0 0h0m-81.524 66.406 78.594 65m0 0h0m-75.507 59.102 72.42 71.796m0 0h0m-69.296 52.812 66.172 77.58m0 0h0m-63.203 47.538 60.234 82.344m0 0h0m-57.422 43.242 54.61 86.172m0 0h0m-52.071 39.804 49.493 89.22m0 0h0m-47.149 37.109 44.844 91.562m0 0h0m-42.774 34.961 40.704 93.516m0 0h0m-38.868 33.202 37.032 95.08m0 0h0m-35.391 31.835 33.75 96.25m0 0h0M543.984 168.672l102.032.156m0 0h0M544.023 295.39l101.954 1.72m0 0h0M544.063 421.367l101.875 4.766m0 0h0m-101.719 120.43 101.562 9.375m0 0h0M544.57 671.094l100.86 15.312m0 0h0M545.273 794.96l99.454 22.58m0 0h0m-98.36 100.82 97.266 30.78m0 0h0m-95.625 92.305 93.984 39.649m0 0h0m-91.836 83.359 89.688 48.594m0 0h0m-87.071 74.609 84.454 57.188m0 0h0m-81.524 66.406 78.594 65m0 0h0m-75.507 59.102 72.42 71.796m0 0h0m-69.335 52.812 66.21 77.58m.001 0h0m-63.203 47.538 60.234 82.344m0 0h0m-57.422 43.242 54.61 86.172m0 0h0m-52.071 39.804 49.493 89.22m0 0h0m-47.149 37.109 44.844 91.562m0 0h0m-42.774 34.961 40.704 93.516m0 0h0m-38.868 33.202 37.032 95.08m0 0h0m-35.391 31.835 33.75 96.25m0 0h0M713.984 168.672l102.032.156m0 0h0M714.023 295.39l101.954 1.72m0 0h0M714.063 421.367l101.875 4.766m0 0h0m-101.719 120.43 101.562 9.375m0 0h0M714.57 671.094l100.86 15.312m0 0h0M715.273 794.96l99.454 22.58m0 0h0m-98.36 100.82 97.266 30.78m0 0h0m-95.625 92.305 93.984 39.649m0 0h0m-91.836 83.359 89.688 48.594m0 0h0m-87.071 74.609 84.454 57.188m0 0h0m-81.524 66.406 78.594 65m0 0h0m-75.507 59.102 72.42 71.796m0 0h0m-69.335 52.812 66.21 77.58m.001 0h0m-63.203 47.538 60.234 82.344m0 0h0m-57.422 43.242 54.61 86.172m0 0h0m-52.071 39.804 49.532 89.22m0 0h0m-47.188 37.109 44.844 91.562m0 0h0m-42.774 34.961 40.704 93.516m0 0h0m-38.868 33.202 37.032 95.08m0 0h0m-35.391 31.835 33.75 96.25m0 0h0M883.984 168.672l101.993.156m0 0h0M884.023 295.39l101.954 1.72m0 0h0M884.063 421.367l101.875 4.766m0 0h0m-101.719 120.43 101.562 9.375m0 0h0M884.57 671.094l100.86 15.312m0 0h0M885.273 794.96l99.454 22.58m0 0h0m-98.36 100.82 97.266 30.78m0 0h0m-95.625 92.305 93.984 39.649m0 0h0m-91.836 83.359 89.688 48.594m0 0h0m-87.071 74.609 84.454 57.188m0 0h0m-81.524 66.406 78.594 65m0 0h0m-75.507 59.102 72.42 71.796m0 0h0m-69.335 52.812 66.21 77.58m.001 0h0m-63.203 47.538 60.234 82.344m0 0h0m-57.422 43.242 54.61 86.172m0 0h0m-52.071 39.804 49.532 89.22m0 0h0m-47.188 37.109 44.844 91.562m0 0h0m-42.774 34.961 40.704 93.516m0 0h0m-38.868 33.202 37.032 95.08m0 0h0m-35.391 31.835 33.75 96.25m0 0h0m102.109-2470.703 102.032.156m0 0h0M1053.984 295.39l101.993 1.72m0 0h0m-101.914 124.257 101.874 4.766m.001 0h0m-101.719 120.43 101.562 9.375m0 0h0M1054.57 671.094l100.86 15.312m0 0h0M1055.273 794.96l99.454 22.58m0 0h0m-98.36 100.82 97.266 30.78m0 0h0m-95.625 92.305 93.984 39.649m0 0h0m-91.836 83.359 89.688 48.594m0 0h0m-87.071 74.609 84.454 57.188m0 0h0m-81.524 66.406 78.594 65m0 0h0m-75.507 59.102 72.42 71.796m0 0h0m-69.335 52.812 66.25 77.58m0 0h0m-63.242 47.538 60.234 82.344m0 0h0m-57.422 43.242 54.61 86.172m0 0h0m-52.071 39.804 49.532 89.22m0 0h0m-47.188 37.109 44.844 91.562m0 0h0m-42.774 34.961 40.704 93.516m0 0h0m-38.868 33.202 37.032 95.08m0 0h0m-35.391 31.835 33.75 96.25m0 0h0m102.109-2470.703 102.032.156m0 0h0M1223.984 295.39l101.993 1.72m0 0h0m-101.914 124.257 101.874 4.766m.001 0h0m-101.719 120.43 101.562 9.375m0 0h0M1224.57 671.094l100.86 15.312m0 0h0M1225.273 794.96l99.454 22.58m0 0h0m-98.36 100.82 97.266 30.78m0 0h0m-95.625 92.305 93.984 39.649m0 0h0m-91.836 83.359 89.688 48.594m0 0h0m-87.071 74.609 84.454 57.188m0 0h0m-81.524 66.406 78.594 65m0 0h0m-75.507 59.102 72.42 71.796m0 0h0m-69.335 52.812 66.25 77.58m0 0h0m-63.242 47.538 60.234 82.344m0 0h0m-57.422 43.242 54.61 86.172m0 0h0m-52.071 39.804 49.532 89.22m0 0h0m-47.188 37.109 44.844 91.562m0 0h0m-42.774 34.961 40.704 93.516m0 0h0m-38.868 33.202 37.032 95.08m0 0h0m-35.391 31.835 33.75 96.25m0 0h0m102.109-2470.703 102.032.156m0 0h0M1393.984 295.39l101.993 1.72m0 0h0m-101.914 124.257 101.874 4.766m.001 0h0m-101.719 120.43 101.562 9.375m0 0h0M1394.57 671.094l100.86 15.312m0 0h0M1395.273 794.96l99.454 22.58m0 0h0m-98.36 100.82 97.266 30.78m0 0h0m-95.625 92.305 93.984 39.649m0 0h0m-91.836 83.359 89.688 48.594m0 0h0m-87.071 74.609 84.454 57.188m0 0h0m-81.524 66.406 78.594 65m0 0h0m-75.507 59.102 72.42 71.796m0 0h0m-69.335 52.812 66.25 77.58m0 0h0m-63.242 47.538 60.234 82.344m0 0h0m-57.422 43.242 54.61 86.172m0 0h0m-52.071 39.804 49.532 89.22m0 0h0m-47.188 37.109 44.844 91.562m0 0h0m-42.774 34.961 40.704 93.516m0 0h0m-38.868 33.202 37.032 95.08m0 0h0m-35.391 31.835 33.75 96.25m0 0h0m102.109-2470.703 102.032.156m0 0h0M1563.984 295.39l101.993 1.72m0 0h0m-101.914 124.257 101.874 4.766m.001 0h0m-101.719 120.43 101.562 9.375m0 0h0M1564.57 671.094l100.86 15.312m0 0h0M1565.273 794.96l99.454 22.58m0 0h0m-98.36 100.82 97.266 30.78m0 0h0m-95.625 92.305 93.984 39.649m0 0h0m-91.836 83.359 89.688 48.594m0 0h0m-87.071 74.609 84.454 57.188m0 0h0m-81.524 66.406 78.594 65m0 0h0m-75.507 59.102 72.42 71.796m0 0h0m-69.335 52.812 66.25 77.58m0 0h0m-63.242 47.538 60.234 82.344m0 0h0m-57.422 43.242 54.61 86.172m0 0h0m-52.071 39.804 49.532 89.22m0 0h0m-47.188 37.109 44.844 91.562m0 0h0m-42.774 34.961 40.704 93.516m0 0h0m-38.868 33.202 37.032 95.08m0 0h0m-35.391 31.835 33.75 96.25m0 0h0m102.109-2470.703 102.032.156m0 0h0M1733.984 295.39l101.993 1.72m0 0h0m-101.914 124.257 101.874 4.766m.001 0h0m-101.719 120.43 101.562 9.375m0 0h0M1734.57 671.094l100.86 15.312m0 0h0M1735.273 794.96l99.454 22.58m0 0h0m-98.36 100.82 97.266 30.78m0 0h0m-95.625 92.305 93.984 39.649m0 0h0m-91.836 83.359 89.688 48.594m0 0h0m-87.071 74.609 84.454 57.188m0 0h0m-81.524 66.406 78.594 65m0 0h0m-75.507 59.102 72.42 71.796m0 0h0m-69.335 52.812 66.25 77.58m0 0h0m-63.242 47.538 60.234 82.344m0 0h0m-57.422 43.242 54.61 86.172m0 0h0m-52.071 39.804 49.532 89.22m0 0h0m-47.188 37.109 44.844 91.562m0 0h0m-42.774 34.961 40.704 93.516m0 0h0m-38.868 33.202 37.032 95.08m0 0h0m-35.391 31.835 33.75 96.25m0 0h0m102.109-2470.703 102.032.156m0 0h0M1903.984 295.39l101.993 1.72m0 0h0m-101.914 124.257 101.874 4.766m.001 0h0m-101.719 120.43 101.562 9.375m0 0h0M1904.57 671.094l100.86 15.312m0 0h0M1905.273 794.96l99.454 22.58m0 0h0m-98.36 100.82 97.266 30.78m0 0h0m-95.625 92.305 93.984 39.649m0 0h0m-91.836 83.359 89.688 48.594m0 0h0m-87.071 74.609 84.454 57.188m0 0h0m-81.524 66.406 78.594 65m0 0h0m-75.507 59.102 72.42 71.796m0 0h0m-69.335 52.812 66.25 77.58m0 0h0m-63.242 47.538 60.234 82.344m0 0h0m-57.422 43.242 54.61 86.172m0 0h0m-52.071 39.804 49.532 89.22m0 0h0m-47.188 37.109 44.844 91.562m0 0h0m-42.774 34.961 40.704 93.516m0 0h0m-38.868 33.202 37.032 95.08m0 0h0m-35.391 31.835 33.75 96.25m0 0h0m102.109-2470.703 102.032.156m0 0h0M2073.984 295.39l101.993 1.72m0 0h0m-101.914 124.257 101.874 4.766m.001 0h0m-101.719 120.43 101.562 9.375m0 0h0M2074.57 671.094l100.86 15.312m0 0h0M2075.273 794.96l99.454 22.58m0 0h0m-98.36 100.82 97.266 30.78m0 0h0m-95.625 92.305 93.984 39.649m0 0h0m-91.836 83.359 89.688 48.594m0 0h0m-87.071 74.609 84.454 57.188m0 0h0m-81.524 66.406 78.594 65m0 0h0m-75.507 59.102 72.42 71.796m0 0h0m-69.335 52.812 66.25 77.58m0 0h0m-63.242 47.538 60.234 82.344m0 0h0m-57.422 43.242 54.61 86.172m0 0h0m-52.071 39.804 49.532 89.22m0 0h0m-47.188 37.109 44.844 91.562m0 0h0m-42.774 34.961 40.704 93.516m0 0h0m-38.868 33.202 37.032 95.08m0 0h0m-35.391 31.835 33.75 96.25m0 0h0m102.109-2470.703 102.032.156m0 0h0M2243.984 295.39l101.993 1.72m0 0h0m-101.914 124.257 101.874 4.766m.001 0h0m-101.719 120.43 101.562 9.375m0 0h0M2244.57 671.094l100.86 15.312m0 0h0M2245.273 794.96l99.454 22.58m0 0h0m-98.36 100.82 97.266 30.78m0 0h0m-95.625 92.305 93.984 39.649m0 0h0m-91.836 83.359 89.688 48.594m0 0h0m-87.071 74.609 84.454 57.188m0 0h0m-81.524 66.406 78.594 65m0 0h0m-75.507 59.102 72.42 71.796m0 0h0m-69.335 52.812 66.25 77.58m0 0h0m-63.242 47.538 60.234 82.344m0 0h0m-57.422 43.242 54.61 86.172m0 0h0m-52.071 39.804 49.532 89.22m0 0h0m-47.188 37.109 44.844 91.562m0 0h0m-42.774 34.961 40.704 93.516m0 0h0m-38.868 33.202 37.032 95.08m0 0h0m-35.391 31.835 33.75 96.25m0 0h0m102.109-2470.703 102.032.156m0 0h0M2413.984 295.39l101.993 1.72m0 0h0m-101.914 124.257 101.874 4.766m.001 0h0m-101.719 120.43 101.562 9.375m0 0h0M2414.57 671.094l100.86 15.312m0 0h0M2415.273 794.96l99.454 22.58m0 0h0m-98.36 100.82 97.266 30.78m0 0h0m-95.625 92.305 93.984 39.649m0 0h0m-91.836 83.359 89.688 48.594m0 0h0m-87.071 74.609 84.454 57.188m0 0h0m-81.524 66.406 78.594 65m0 0h0m-75.507 59.102 72.42 71.796m0 0h0m-69.335 52.812 66.25 77.58m0 0h0m-63.242 47.538 60.234 82.344m0 0h0m-57.422 43.242 54.61 86.172m0 0h0m-52.071 39.804 49.532 89.22m0 0h0m-47.188 37.109 44.844 91.562m0 0h0m-42.774 34.961 40.704 93.516m0 0h0m-38.868 33.202 37.032 95.08m0 0h0m-35.391 31.835 33.75 96.25m0 0h0m102.109-2470.703 102.032.156m0 0h0M2583.984 295.39l101.993 1.72m0 0h0m-101.914 124.257 101.874 4.766m.001 0h0m-101.719 120.43 101.562 9.375m0 0h0M2584.57 671.094l100.86 15.312m0 0h0M2585.273 794.96l99.454 22.58m0 0h0m-98.36 100.82 97.266 30.78m0 0h0m-95.625 92.305 93.984 39.649m0 0h0m-91.836 83.359 89.688 48.594m0 0h0m-87.071 74.609 84.454 57.188m0 0h0m-81.524 66.406 78.594 65m0 0h0m-75.507 59.102 72.42 71.796m0 0h0m-69.335 52.812 66.25 77.58m0 0h0m-63.242 47.538 60.234 82.344m0 0h0m-57.422 43.242 54.61 86.172m0 0h0m-52.071 39.804 49.532 89.22m0 0h0m-47.188 37.109 44.844 91.562m0 0h0m-42.774 34.961 40.704 93.516m0 0h0m-38.868 33.202 37.032 95.08m0 0h0m-35.391 31.835 33.75 96.25m0 0h0m102.109-2470.703 102.032.156m0 0h0M2753.984 295.39l101.993 1.72m0 0h0m-101.914 124.257 101.874 4.766m.001 0h0m-101.719 120.43 101.562 9.375m0 0h0M2754.57 671.094l100.86 15.312m0 0h0M2755.273 794.96l99.454 22.58m0 0h0m-98.36 100.82 97.266 30.78m0 0h0m-95.625 92.305 93.984 39.649m0 0h0m-91.836 83.359 89.688 48.594m0 0h0m-87.071 74.609 84.454 57.188m0 0h0m-81.524 66.406 78.594 65m0 0h0m-75.507 59.102 72.42 71.796m0 0h0m-69.335 52.812 66.25 77.58m0 0h0m-63.242 47.538 60.234 82.344m0 0h0m-57.422 43.242 54.61 86.172m0 0h0m-52.071 39.804 49.532 89.22m0 0h0m-47.188 37.109 44.844 91.562m0 0h0m-42.774 34.961 40.704 93.516m0 0h0m-38.868 33.202 37.032 95.08m0 0h0m-35.391 31.835 33.75 96.25m0 0h0m102.109-2470.703 102.032.156m0 0h0M2923.984 295.39l101.993 1.72m0 0h0m-101.914 124.257 101.874 4.766m.001 0h0m-101.719 120.43 101.562 9.375m0 0h0M2924.57 671.094l100.86 15.312m0 0h0M2925.273 794.96l99.454 22.58m0 0h0m-98.36 100.82 97.266 30.78m0 0h0m-95.625 92.305 93.984 39.649m0 0h0m-91.836 83.359 89.688 48.594m0 0h0m-87.071 74.609 84.454 57.188m0 0h0m-81.524 66.406 78.594 65m0 0h0m-75.507 59.102 72.42 71.796m0 0h0m-69.335 52.812 66.25 77.58m0 0h0m-63.242 47.538 60.234 82.344m0 0h0m-57.422 43.242 54.61 86.172m0 0h0m-52.071 39.804 49.532 89.22m0 0h0m-47.188 37.109 44.844 91.562m0 0h0m-42.774 34.961 40.704 93.516m0 0h0m-38.868 33.202 37.032 95.08m0 0h0m-35.391 31.835 33.75 96.25m0 0h0m102.109-2470.703 102.032.156m0 0h0M3093.984 295.39l101.993 1.72m0 0h0m-101.914 124.257 101.874 4.766m.001 0h0m-101.719 120.43 101.562 9.375m0 0h0M3094.57 671.094l100.86 15.312m0 0h0M3095.273 794.96l99.454 22.58m0 0h0m-98.36 100.82 97.266 30.78m0 0h0m-95.625 92.305 93.984 39.649m0 0h0m-91.836 83.359 89.688 48.594m0 0h0m-87.071 74.609 84.454 57.188m0 0h0m-81.524 66.406 78.594 65m0 0h0m-75.507 59.102 72.42 71.796m0 0h0m-69.335 52.812 66.25 77.58m0 0h0m-63.242 47.538 60.234 82.344m0 0h0m-57.422 43.242 54.61 86.172m0 0h0m-52.071 39.804 49.532 89.22m0 0h0m-47.188 37.109 44.844 91.562m0 0h0m-42.774 34.961 40.704 93.516m0 0h0m-38.868 33.202 37.032 95.08m0 0h0m-35.391 31.835 33.75 96.25m0 0h0m102.109-2470.703 102.032.156m0 0h0M3263.984 295.39l101.993 1.72m0 0h0m-101.914 124.257 101.874 4.766m.001 0h0m-101.719 120.43 101.562 9.375m0 0h0M3264.57 671.094l100.86 15.312m0 0h0M3265.273 794.96l99.454 22.58m0 0h0m-98.36 100.82 97.266 30.78m0 0h0m-95.625 92.305 93.984 39.649m0 0h0m-91.836 83.359 89.688 48.594m0 0h0m-87.071 74.609 84.454 57.188m0 0h0m-81.524 66.406 78.594 65m0 0h0m-75.507 59.102 72.42 71.796m0 0h0m-69.335 52.812 66.25 77.58m0 0h0m-63.242 47.538 60.234 82.344m0 0h0m-57.422 43.242 54.61 86.172m0 0h0m-52.071 39.804 49.532 89.22m0 0h0m-47.188 37.109 44.844 91.562m0 0h0m-42.774 34.961 40.704 93.516m0 0h0m-38.868 33.202 37.032 95.08m0 0h0m-35.391 31.835 33.75 96.25m0 0h0m102.109-2470.703 102.032.156m0 0h0M3433.984 295.39l101.993 1.72m0 0h0m-101.914 124.257 101.874 4.766m.001 0h0m-101.719 120.43 101.562 9.375m0 0h0M3434.57 671.094l100.86 15.312m0 0h0M3435.273 794.96l99.454 22.58m0 0h0m-98.36 100.82 97.266 30.78m0 0h0m-95.625 92.305 93.984 39.649m0 0h0m-91.836 83.359 89.688 48.594m0 0h0m-87.071 74.609 84.454 57.188m0 0h0m-81.524 66.406 78.594 65m0 0h0m-75.507 59.102 72.42 71.796m0 0h0m-69.335 52.812 66.25 77.58m0 0h0m-63.242 47.538 60.234 82.344m0 0h0m-57.422 43.242 54.61 86.172m0 0h0m-52.071 39.804 49.532 89.22m0 0h0m-47.188 37.109 44.844 91.562m0 0h0m-42.774 34.961 40.704 93.516m0 0h0m-38.868 33.202 37.032 95.08m0 0h0m-35.391 31.835 33.75 96.25m0 0h0" transform="matrix(.1 0 0 -.1 0 275)"/><path style="fill:none;stroke-width:12.5;stroke-linecap:round;stroke-linejoin:miter;stroke:#006400;stroke-opacity:1;stroke-miterlimit:10" d="m1020 955 850 283.32m0 0 850 503.711" transform="matrix(.1 0 0 -.1 0 275)"/><path style="fill:none;stroke-width:12.5;stroke-linecap:round;stroke-linejoin:miter;stroke:red;stroke-opacity:1;stroke-miterlimit:10" d="m170 742.5 33.984 6.445 34.024 6.563 33.984 6.719 34.024 6.836L340 776.054l33.984 7.148 34.024 7.266 33.984 7.46 33.985 7.618L510 813.32l33.984 7.97 34.024 8.163 33.984 8.32 34.024 8.516L680 855l33.984 8.945 34.024 9.14 33.984 9.337 34.024 9.61L850 901.874l33.984 10.078 34.024 10.352 33.984 10.625 33.985 10.898L1020 955l33.984 11.484 34.024 11.797 33.984 12.149 34.024 12.46 33.984 12.813 33.984 13.203 34.024 13.594 33.984 13.984 34.024 14.414 33.984 14.883 33.984 15.313 34.024 15.82 33.984 16.328 34.024 16.836L1530 1167.5l33.984 18.008 34.024 18.633 33.984 19.296 34.024 19.961 33.984 20.704 33.984 21.445 34.024 22.265 33.984 23.165 34.024 24.023 33.984 25 33.984 26.016 34.024 27.109 33.984 28.242 34.024 29.492 33.984 30.82 33.984 32.188 34.024 33.711 33.984 35.274 34.024 37.03L2210 1698.75l33.984 40.86 34.024 43.007 33.984 45.352 34.024 47.851 33.984 50.625 33.984 53.555 34.024 56.836 33.984 60.351 34.024 64.258L2550 2230l33.984 73.281 34.024 78.516 33.984 84.297 34.024 90.82L2720 2655" transform="matrix(.1 0 0 -.1 0 275)"/></svg>