<svg xmlns="http://www.w3.org/2000/svg" xmlns:xlink="http://www.w3.org/1999/xlink" width="1025.231" height="367.999" viewBox="0 0 768.923 275.999"><defs><clipPath id="a"><path d="M102 10h1v255h-1zm0 0"/></clipPath><clipPath id="b"><path d="M17.5 264h340v1h-340zm0 0"/></clipPath><clipPath id="c"><path d="M17.5 10h.5v255h-.5zm0 0"/></clipPath><clipPath id="d"><path d="M102 10h1v255h-1zm0 0"/></clipPath><clipPath id="e"><path d="M187 10h1v255h-1zm0 0"/></clipPath><clipPath id="f"><path d="M272 10h1v255h-1zm0 0"/></clipPath><clipPath id="g"><path d="M357 10h.5v255h-.5zm0 0"/></clipPath><clipPath id="h"><path d="M17.5 264h340v1h-340zm0 0"/></clipPath><clipPath id="i"><path d="M17.5 222h340v1h-340zm0 0"/></clipPath><clipPath id="j"><path d="M17.5 179h340v2h-340zm0 0"/></clipPath><clipPath id="k"><path d="M17.5 137h340v1h-340zm0 0"/></clipPath><clipPath id="l"><path d="M17.5 94h340v2h-340zm0 0"/></clipPath><clipPath id="m"><path d="M17.5 52h340v1h-340zm0 0"/></clipPath><clipPath id="n"><path d="M17.5 10h340v1h-340zm0 0"/></clipPath><clipPath id="q"><path d="M100 269h4v6.5h-4zm0 0"/></clipPath><clipPath id="t"><path d="M355 269h5v6.5h-5zm0 0"/></clipPath><clipPath id="v"><path d="M.5 263H11v6H.5zm0 0"/></clipPath><clipPath id="x"><path d="M.5 220H11v6H.5zm0 0"/></clipPath><clipPath id="z"><path d="M.5 178H11v6H.5zm0 0"/></clipPath><clipPath id="A"><path d="M.5 135H11v6H.5zm0 0"/></clipPath><clipPath id="B"><path d="M.5 93H11v6H.5zm0 0"/></clipPath><clipPath id="C"><path d="M.5 50H11v6H.5zm0 0"/></clipPath><clipPath id="D"><path d="M.5 7H11v7H.5zm0 0"/></clipPath><clipPath id="E"><path d="M496 10h1v255h-1zm0 0"/></clipPath><clipPath id="F"><path d="M411.426 264h340v1h-340zm0 0"/></clipPath><clipPath id="G"><path d="M411.426 10H412v255h-.574zm0 0"/></clipPath><clipPath id="H"><path d="M496 10h1v255h-1zm0 0"/></clipPath><clipPath id="I"><path d="M581 10h1v255h-1zm0 0"/></clipPath><clipPath id="J"><path d="M666 10h1v255h-1zm0 0"/></clipPath><clipPath id="K"><path d="M751 10h.426v255H751zm0 0"/></clipPath><clipPath id="L"><path d="M411.426 264h340v1h-340zm0 0"/></clipPath><clipPath id="M"><path d="M411.426 222h340v1h-340zm0 0"/></clipPath><clipPath id="N"><path d="M411.426 179h340v2h-340zm0 0"/></clipPath><clipPath id="O"><path d="M411.426 137h340v1h-340zm0 0"/></clipPath><clipPath id="P"><path d="M411.426 94h340v2h-340zm0 0"/></clipPath><clipPath id="Q"><path d="M411.426 52h340v1h-340zm0 0"/></clipPath><clipPath id="R"><path d="M411.426 10h340v1h-340zm0 0"/></clipPath><clipPath id="S"><path d="M494 269h4v6.5h-4zm0 0"/></clipPath><clipPath id="T"><path d="M749 269h5v6.5h-5zm0 0"/></clipPath><clipPath id="U"><path d="M394.426 263H405v6h-10.574zm0 0"/></clipPath><clipPath id="V"><path d="M394.426 220H405v6h-10.574zm0 0"/></clipPath><clipPath id="W"><path d="M394.426 178H405v6h-10.574zm0 0"/></clipPath><clipPath id="X"><path d="M394.426 135H405v6h-10.574zm0 0"/></clipPath><clipPath id="Y"><path d="M394.426 93H405v6h-10.574zm0 0"/></clipPath><clipPath id="Z"><path d="M394.426 50H405v6h-10.574zm0 0"/></clipPath><clipPath id="aa"><path d="M394.426 7H405v7h-10.574zm0 0"/></clipPath><symbol overflow="visible" id="o"><path style="stroke:none" d="M2.125-2.344H.344v.547h1.781zm0 0"/></symbol><symbol overflow="visible" id="p"><path style="stroke:none" d="M1.938-3.781V0h.671v-5.313h-.437c-.235.813-.39.922-1.406 1.047v.485zm0 0"/></symbol><symbol overflow="visible" id="r"><path style="stroke:none" d="M2.063-5.313c-.5 0-.938.22-1.22.579C.5-4.266.329-3.563.329-2.578c0 1.797.594 2.75 1.734 2.75 1.126 0 1.735-.953 1.735-2.703 0-1.031-.156-1.719-.516-2.203-.281-.375-.719-.579-1.219-.579zm0 .579c.718 0 1.062.718 1.062 2.14 0 1.516-.344 2.219-1.078 2.219C1.344-.375 1-1.109 1-2.563c0-1.453.344-2.171 1.063-2.171zm0 0"/></symbol><symbol overflow="visible" id="s"><path style="stroke:none" d="M3.797-.656H1c.063-.438.313-.703.953-1.094l.75-.406c.75-.406 1.125-.953 1.125-1.594 0-.453-.172-.86-.484-1.14-.328-.298-.719-.423-1.219-.423-.672 0-1.172.235-1.469.688-.187.281-.265.61-.281 1.156h.656c.032-.36.078-.578.157-.75.171-.328.515-.515.921-.515.594 0 1.047.421 1.047.984 0 .422-.25.781-.719 1.063l-.687.39C.64-1.672.312-1.172.25 0h3.547zm0 0"/></symbol><symbol overflow="visible" id="u"><path style="stroke:none" d="M1.656-2.438h.36c.734 0 1.109.329 1.109.954 0 .671-.422 1.078-1.11 1.078-.718 0-1.078-.36-1.109-1.14H.234c.032.421.11.702.235.952.281.5.797.766 1.531.766 1.094 0 1.797-.656 1.797-1.656 0-.672-.266-1.047-.906-1.266.5-.203.75-.578.75-1.11 0-.906-.61-1.453-1.625-1.453-1.079 0-1.641.579-1.657 1.72h.657c0-.329.03-.516.109-.673.156-.296.484-.468.906-.468.578 0 .938.343.938.906 0 .375-.14.594-.438.719-.172.078-.406.109-.875.109zm0 0"/></symbol><symbol overflow="visible" id="w"><path style="stroke:none" d="M1.438-.781H.655V0h.781zm0 0"/></symbol><symbol overflow="visible" id="y"><path style="stroke:none" d="M3.563-5.313H.828L.422-2.421h.61c.312-.375.562-.5.984-.5.703 0 1.156.485 1.156 1.281 0 .766-.438 1.235-1.156 1.235-.579 0-.938-.297-1.094-.906H.266c.093.437.156.656.312.843.313.406.844.64 1.453.64 1.063 0 1.813-.78 1.813-1.905 0-1.047-.688-1.766-1.719-1.766-.375 0-.672.094-.984.313l.218-1.485h2.204zm0 0"/></symbol></defs><g clip-path="url(#a)"><path style="fill:none;stroke-width:6.25;stroke-linecap:round;stroke-linejoin:miter;stroke:#bfbfbf;stroke-opacity:1;stroke-miterlimit:10" d="M1020 104.99v2550" transform="matrix(.1 0 0 -.1 .5 275.499)"/></g><g clip-path="url(#b)"><path style="fill:none;stroke-width:6.25;stroke-linecap:round;stroke-linejoin:miter;stroke:#bfbfbf;stroke-opacity:1;stroke-miterlimit:10" d="M170 104.99h3400" transform="matrix(.1 0 0 -.1 .5 275.499)"/></g><g clip-path="url(#c)"><path style="fill:none;stroke-width:6.25;stroke-linecap:round;stroke-linejoin:miter;stroke:#bfbfbf;stroke-opacity:1;stroke-dasharray:12.5,18.75;stroke-miterlimit:10" d="M170 104.99v2550" transform="matrix(.1 0 0 -.1 .5 275.499)"/></g><g clip-path="url(#d)"><path style="fill:none;stroke-width:6.25;stroke-linecap:round;stroke-linejoin:miter;stroke:#bfbfbf;stroke-opacity:1;stroke-dasharray:12.5,18.75;stroke-miterlimit:10" d="M1020 104.99v2550" transform="matrix(.1 0 0 -.1 .5 275.499)"/></g><g clip-path="url(#e)"><path style="fill:none;stroke-width:6.25;stroke-linecap:round;stroke-linejoin:miter;stroke:#bfbfbf;stroke-opacity:1;stroke-dasharray:12.5,18.75;stroke-miterlimit:10" d="M1870 104.99v2550" transform="matrix(.1 0 0 -.1 .5 275.499)"/></g><g clip-path="url(#f)"><path style="fill:none;stroke-width:6.25;stroke-linecap:round;stroke-linejoin:miter;stroke:#bfbfbf;stroke-opacity:1;stroke-dasharray:12.5,18.75;stroke-miterlimit:10" d="M2720 104.99v2550" transform="matrix(.1 0 0 -.1 .5 275.499)"/></g><g clip-path="url(#g)"><path style="fill:none;stroke-width:6.25;stroke-linecap:round;stroke-linejoin:miter;stroke:#bfbfbf;stroke-opacity:1;stroke-dasharray:12.5,18.75;stroke-miterlimit:10" d="M3570 104.99v2550" transform="matrix(.1 0 0 -.1 .5 275.499)"/></g><g clip-path="url(#h)"><path style="fill:none;stroke-width:6.25;stroke-linecap:round;stroke-linejoin:miter;stroke:#bfbfbf;stroke-opacity:1;stroke-dasharray:12.5,18.75;stroke-miterlimit:10" d="M170 104.99h3400" transform="matrix(.1 0 0 -.1 .5 275.499)"/></g><g clip-path="url(#i)"><path style="fill:none;stroke-width:6.25;stroke-linecap:round;stroke-linejoin:miter;stroke:#bfbfbf;stroke-opacity:1;stroke-dasharray:12.5,18.75;stroke-miterlimit:10" d="M170 529.99h3400" transform="matrix(.1 0 0 -.1 .5 275.499)"/></g><g clip-path="url(#j)"><path style="fill:none;stroke-width:6.25;stroke-linecap:round;stroke-linejoin:miter;stroke:#bfbfbf;stroke-opacity:1;stroke-dasharray:12.5,18.75;stroke-miterlimit:10" d="M170 954.99h3400" transform="matrix(.1 0 0 -.1 .5 275.499)"/></g><g clip-path="url(#k)"><path style="fill:none;stroke-width:6.25;stroke-linecap:round;stroke-linejoin:miter;stroke:#bfbfbf;stroke-opacity:1;stroke-dasharray:12.5,18.75;stroke-miterlimit:10" d="M170 1379.99h3400" transform="matrix(.1 0 0 -.1 .5 275.499)"/></g><g clip-path="url(#l)"><path style="fill:none;stroke-width:6.25;stroke-linecap:round;stroke-linejoin:miter;stroke:#bfbfbf;stroke-opacity:1;stroke-dasharray:12.5,18.75;stroke-miterlimit:10" d="M170 1804.99h3400" transform="matrix(.1 0 0 -.1 .5 275.499)"/></g><g clip-path="url(#m)"><path style="fill:none;stroke-width:6.25;stroke-linecap:round;stroke-linejoin:miter;stroke:#bfbfbf;stroke-opacity:1;stroke-dasharray:12.5,18.75;stroke-miterlimit:10" d="M170 2229.99h3400" transform="matrix(.1 0 0 -.1 .5 275.499)"/></g><g clip-path="url(#n)"><path style="fill:none;stroke-width:6.25;stroke-linecap:round;stroke-linejoin:miter;stroke:#bfbfbf;stroke-opacity:1;stroke-dasharray:12.5,18.75;stroke-miterlimit:10" d="M170 2654.99h3400" transform="matrix(.1 0 0 -.1 .5 275.499)"/></g><path style="fill:none;stroke-width:12.5;stroke-linecap:square;stroke-linejoin:miter;stroke:#000;stroke-opacity:1;stroke-miterlimit:10" d="M170 104.99h3400" transform="matrix(.1 0 0 -.1 .5 275.499)"/><path style="fill:none;stroke-width:6.25;stroke-linecap:butt;stroke-linejoin:miter;stroke:#000;stroke-opacity:1;stroke-miterlimit:10" d="M170 104.99v50m85-50v25m85-25v25m85-25v25m85-25v25m85-25v25m85-25v25m85-25v25m85-25v25m85-25v25m85-25v50m85-50v25m85-25v25m85-25v25m85-25v25m85-25v25m85-25v25m85-25v25m85-25v25m85-25v25m85-25v50m85-50v25m85-25v25m85-25v25m85-25v25m85-25v25m85-25v25m85-25v25m85-25v25m85-25v25m85-25v50m85-50v25m85-25v25m85-25v25m85-25v25m85-25v25m85-25v25m85-25v25m85-25v25m85-25v25m85-25v50" transform="matrix(.1 0 0 -.1 .5 275.499)"/><g style="fill:#000;fill-opacity:1"><use xlink:href="#o" x="13.542" y="274.999"/><use xlink:href="#p" x="16.039" y="274.999"/></g><g clip-path="url(#q)"><use xlink:href="#r" x="99.79" y="274.999" style="fill:#000;fill-opacity:1"/></g><use xlink:href="#p" x="185.416" y="274.999" style="fill:#000;fill-opacity:1"/><use xlink:href="#s" x="270.415" y="274.999" style="fill:#000;fill-opacity:1"/><g clip-path="url(#t)"><use xlink:href="#u" x="355.415" y="274.999" style="fill:#000;fill-opacity:1"/></g><path style="fill:none;stroke-width:12.5;stroke-linecap:square;stroke-linejoin:miter;stroke:#000;stroke-opacity:1;stroke-miterlimit:10" d="M170 2654.99h3400" transform="matrix(.1 0 0 -.1 .5 275.499)"/><path style="fill:none;stroke-width:6.25;stroke-linecap:butt;stroke-linejoin:miter;stroke:#000;stroke-opacity:1;stroke-miterlimit:10" d="M170 2654.99v-50m85 50v-25m85 25v-25m85 25v-25m85 25v-25m85 25v-25m85 25v-25m85 25v-25m85 25v-25m85 25v-25m85 25v-50m85 50v-25m85 25v-25m85 25v-25m85 25v-25m85 25v-25m85 25v-25m85 25v-25m85 25v-25m85 25v-25m85 25v-50m85 50v-25m85 25v-25m85 25v-25m85 25v-25m85 25v-25m85 25v-25m85 25v-25m85 25v-25m85 25v-25m85 25v-50m85 50v-25m85 25v-25m85 25v-25m85 25v-25m85 25v-25m85 25v-25m85 25v-25m85 25v-25m85 25v-25m85 25v-50" transform="matrix(.1 0 0 -.1 .5 275.499)"/><g style="fill:#000;fill-opacity:1"><use xlink:href="#o" x="13.542" y="6.874"/><use xlink:href="#p" x="16.039" y="6.874"/></g><use xlink:href="#r" x="99.79" y="6.874" style="fill:#000;fill-opacity:1"/><use xlink:href="#p" x="185.416" y="6.874" style="fill:#000;fill-opacity:1"/><use xlink:href="#s" x="270.415" y="6.874" style="fill:#000;fill-opacity:1"/><use xlink:href="#u" x="355.415" y="6.874" style="fill:#000;fill-opacity:1"/><path style="fill:none;stroke-width:12.5;stroke-linecap:square;stroke-linejoin:miter;stroke:#000;stroke-opacity:1;stroke-miterlimit:10" d="M170 104.99v2550" transform="matrix(.1 0 0 -.1 .5 275.499)"/><path style="fill:none;stroke-width:6.25;stroke-linecap:butt;stroke-linejoin:miter;stroke:#000;stroke-opacity:1;stroke-miterlimit:10" d="M170 104.99h50m-50 42.5h25m-25 42.5h25m-25 42.5h25m-25 42.5h25m-25 42.5h25m-25 42.5h25m-25 42.5h25m-25 42.5h25m-25 42.5h25m-25 42.5h50m-50 42.5h25m-25 42.5h25m-25 42.5h25m-25 42.5h25m-25 42.5h25m-25 42.5h25m-25 42.5h25m-25 42.5h25m-25 42.5h25m-25 42.5h50m-50 42.5h25m-25 42.5h25m-25 42.5h25m-25 42.5h25m-25 42.5h25m-25 42.5h25m-25 42.5h25m-25 42.5h25m-25 42.5h25m-25 42.5h50m-50 42.5h25m-25 42.5h25m-25 42.5h25m-25 42.5h25m-25 42.5h25m-25 42.5h25m-25 42.5h25m-25 42.5h25m-25 42.5h25m-25 42.5h50m-50 42.5h25m-25 42.5h25m-25 42.5h25m-25 42.5h25m-25 42.5h25m-25 42.5h25m-25 42.5h25m-25 42.5h25m-25 42.5h25m-25 42.5h50m-50 42.5h25m-25 42.5h25m-25 42.5h25m-25 42.5h25m-25 42.5h25m-25 42.5h25m-25 42.5h25m-25 42.5h25m-25 42.5h25m-25 42.5h50" transform="matrix(.1 0 0 -.1 .5 275.499)"/><g style="fill:#000;fill-opacity:1" clip-path="url(#v)"><use xlink:href="#r" x=".201" y="268.749"/><use xlink:href="#w" x="4.371" y="268.749"/><use xlink:href="#r" x="6.456" y="268.749"/></g><g style="fill:#000;fill-opacity:1" clip-path="url(#x)"><use xlink:href="#r" x=".201" y="225.624"/><use xlink:href="#w" x="4.371" y="225.624"/><use xlink:href="#y" x="6.456" y="225.624"/></g><g style="fill:#000;fill-opacity:1" clip-path="url(#z)"><use xlink:href="#p" x=".201" y="183.749"/><use xlink:href="#w" x="4.371" y="183.749"/><use xlink:href="#r" x="6.456" y="183.749"/></g><g style="fill:#000;fill-opacity:1" clip-path="url(#A)"><use xlink:href="#p" x=".201" y="140.624"/><use xlink:href="#w" x="4.371" y="140.624"/><use xlink:href="#y" x="6.456" y="140.624"/></g><g style="fill:#000;fill-opacity:1" clip-path="url(#B)"><use xlink:href="#s" x=".201" y="98.749"/><use xlink:href="#w" x="4.371" y="98.749"/><use xlink:href="#r" x="6.456" y="98.749"/></g><g style="fill:#000;fill-opacity:1" clip-path="url(#C)"><use xlink:href="#s" x=".201" y="55.624"/><use xlink:href="#w" x="4.371" y="55.624"/><use xlink:href="#y" x="6.456" y="55.624"/></g><g style="fill:#000;fill-opacity:1" clip-path="url(#D)"><use xlink:href="#u" x=".201" y="13.124"/><use xlink:href="#w" x="4.371" y="13.124"/><use xlink:href="#r" x="6.456" y="13.124"/></g><path style="fill:none;stroke-width:12.5;stroke-linecap:square;stroke-linejoin:miter;stroke:#000;stroke-opacity:1;stroke-miterlimit:10" d="M3570 104.99v2550" transform="matrix(.1 0 0 -.1 .5 275.499)"/><path style="fill:none;stroke-width:6.25;stroke-linecap:butt;stroke-linejoin:miter;stroke:#000;stroke-opacity:1;stroke-miterlimit:10" d="M3570 104.99h-50m50 42.5h-25m25 42.5h-25m25 42.5h-25m25 42.5h-25m25 42.5h-25m25 42.5h-25m25 42.5h-25m25 42.5h-25m25 42.5h-25m25 42.5h-50m50 42.5h-25m25 42.5h-25m25 42.5h-25m25 42.5h-25m25 42.5h-25m25 42.5h-25m25 42.5h-25m25 42.5h-25m25 42.5h-25m25 42.5h-50m50 42.5h-25m25 42.5h-25m25 42.5h-25m25 42.5h-25m25 42.5h-25m25 42.5h-25m25 42.5h-25m25 42.5h-25m25 42.5h-25m25 42.5h-50m50 42.5h-25m25 42.5h-25m25 42.5h-25m25 42.5h-25m25 42.5h-25m25 42.5h-25m25 42.5h-25m25 42.5h-25m25 42.5h-25m25 42.5h-50m50 42.5h-25m25 42.5h-25m25 42.5h-25m25 42.5h-25m25 42.5h-25m25 42.5h-25m25 42.5h-25m25 42.5h-25m25 42.5h-25m25 42.5h-50m50 42.5h-25m25 42.5h-25m25 42.5h-25m25 42.5h-25m25 42.5h-25m25 42.5h-25m25 42.5h-25m25 42.5h-25m25 42.5h-25m25 42.5h-50" transform="matrix(.1 0 0 -.1 .5 275.499)"/><g style="fill:#000;fill-opacity:1"><use xlink:href="#r" x="363.75" y="268.749"/><use xlink:href="#w" x="367.92" y="268.749"/><use xlink:href="#r" x="370.005" y="268.749"/></g><g style="fill:#000;fill-opacity:1"><use xlink:href="#r" x="363.75" y="225.624"/><use xlink:href="#w" x="367.92" y="225.624"/><use xlink:href="#y" x="370.005" y="225.624"/></g><g style="fill:#000;fill-opacity:1"><use xlink:href="#p" x="363.75" y="183.749"/><use xlink:href="#w" x="367.92" y="183.749"/><use xlink:href="#r" x="370.005" y="183.749"/></g><g style="fill:#000;fill-opacity:1"><use xlink:href="#p" x="363.75" y="140.624"/><use xlink:href="#w" x="367.92" y="140.624"/><use xlink:href="#y" x="370.005" y="140.624"/></g><g style="fill:#000;fill-opacity:1"><use xlink:href="#s" x="363.75" y="98.749"/><use xlink:href="#w" x="367.92" y="98.749"/><use xlink:href="#r" x="370.005" y="98.749"/></g><g style="fill:#000;fill-opacity:1"><use xlink:href="#s" x="363.75" y="55.624"/><use xlink:href="#w" x="367.92" y="55.624"/><use xlink:href="#y" x="370.005" y="55.624"/></g><g style="fill:#000;fill-opacity:1"><use xlink:href="#u" x="363.75" y="13.124"/><use xlink:href="#w" x="367.92" y="13.124"/><use xlink:href="#r" x="370.005" y="13.124"/></g><path style="fill:none;stroke-width:6.25;stroke-linecap:round;stroke-linejoin:miter;stroke:#00f;stroke-opacity:1;stroke-miterlimit:10" d="m203.984 168.662 102.032.195m0 0h0M204.023 295.38l101.954 1.72m0 0h0M204.063 421.357l101.875 4.766m0 0h0M204.219 546.592l101.562 9.336m0 0h0M204.57 671.084l100.86 15.312m0 0h0M205.273 794.95l99.454 22.58m0 0h0m-98.36 100.82 97.266 30.82m0 0h0m-95.625 92.265 93.984 39.649m0 0h0m-91.836 83.359 89.688 48.594m0 0h0m-87.071 74.609 84.454 57.188m0 0h0m-81.524 66.406 78.594 65m0 0h0m-75.507 59.102 72.42 71.835m0 .001h0m-69.296 52.772 66.172 77.618m0 0h0m-63.203 47.539 60.234 82.305m0 0h0m-57.422 43.281 54.61 86.133m0 0h0m-52.071 39.844 49.493 89.18m0 0h0m-47.149 37.109 44.844 91.601m0 0h0m-42.774 34.922 40.704 93.516m0 0h0m-38.868 33.242 37.032 95.04m0 0h0m-35.391 31.835 33.75 96.25m0 0h0M373.984 168.662l101.993.195m0 0h0M374.023 295.38l101.954 1.72m0 0h0M374.063 421.357l101.875 4.766m0 0h0M374.219 546.592l101.562 9.336m0 0h0M374.57 671.084l100.86 15.312m0 0h0M375.273 794.95l99.454 22.58m0 0h0m-98.36 100.82 97.266 30.82m0 0h0m-95.625 92.265 93.984 39.649m0 0h0m-91.836 83.359 89.688 48.594m0 0h0m-87.071 74.609 84.454 57.188m0 0h0m-81.524 66.406 78.594 65m0 0h0m-75.507 59.102 72.42 71.835m0 .001h0m-69.296 52.772 66.172 77.618m0 0h0m-63.203 47.539 60.234 82.305m0 0h0m-57.422 43.281 54.61 86.133m0 0h0m-52.071 39.844 49.493 89.18m0 0h0m-47.149 37.109 44.844 91.601m0 0h0m-42.774 34.922 40.704 93.516m0 0h0m-38.868 33.242 37.032 95.04m0 0h0m-35.391 31.835 33.75 96.25m0 0h0M543.984 168.662l102.032.195m0 0h0M544.023 295.38l101.954 1.72m0 0h0M544.063 421.357l101.875 4.766m0 0h0M544.219 546.592l101.562 9.336m0 0h0M544.57 671.084l100.86 15.312m0 0h0M545.273 794.95l99.454 22.58m0 0h0m-98.36 100.82 97.266 30.82m0 0h0m-95.625 92.265 93.984 39.649m0 0h0m-91.836 83.359 89.688 48.594m0 0h0m-87.071 74.609 84.454 57.188m0 0h0m-81.524 66.406 78.594 65m0 0h0m-75.507 59.102 72.42 71.835m0 .001h0m-69.335 52.772 66.21 77.618m.001 0h0m-63.203 47.539 60.234 82.305m0 0h0m-57.422 43.281 54.61 86.133m0 0h0m-52.071 39.844 49.493 89.18m0 0h0m-47.149 37.109 44.844 91.601m0 0h0m-42.774 34.922 40.704 93.516m0 0h0m-38.868 33.242 37.032 95.04m0 0h0m-35.391 31.835 33.75 96.25m0 0h0M713.984 168.662l102.032.195m0 0h0M714.023 295.38l101.954 1.72m0 0h0M714.063 421.357l101.875 4.766m0 0h0M714.219 546.592l101.562 9.336m0 0h0M714.57 671.084l100.86 15.312m0 0h0M715.273 794.95l99.454 22.58m0 0h0m-98.36 100.82 97.266 30.82m0 0h0m-95.625 92.265 93.984 39.649m0 0h0m-91.836 83.359 89.688 48.594m0 0h0m-87.071 74.609 84.454 57.188m0 0h0m-81.524 66.406 78.594 65m0 0h0m-75.507 59.102 72.42 71.835m0 .001h0m-69.335 52.772 66.21 77.618m.001 0h0m-63.203 47.539 60.234 82.305m0 0h0m-57.422 43.281 54.61 86.133m0 0h0m-52.071 39.844 49.532 89.18m0 0h0m-47.188 37.109 44.844 91.601m0 0h0m-42.774 34.922 40.704 93.516m0 0h0m-38.868 33.242 37.032 95.04m0 0h0m-35.391 31.835 33.75 96.25m0 0h0M883.984 168.662l101.993.195m0 0h0M884.023 295.38l101.954 1.72m0 0h0M884.063 421.357l101.875 4.766m0 0h0M884.219 546.592l101.562 9.336m0 0h0M884.57 671.084l100.86 15.312m0 0h0M885.273 794.95l99.454 22.58m0 0h0m-98.36 100.82 97.266 30.82m0 0h0m-95.625 92.265 93.984 39.649m0 0h0m-91.836 83.359 89.688 48.594m0 0h0m-87.071 74.609 84.454 57.188m0 0h0m-81.524 66.406 78.594 65m0 0h0m-75.507 59.102 72.42 71.835m0 .001h0m-69.335 52.772 66.21 77.618m.001 0h0m-63.203 47.539 60.234 82.305m0 0h0m-57.422 43.281 54.61 86.133m0 0h0m-52.071 39.844 49.532 89.18m0 0h0m-47.188 37.109 44.844 91.601m0 0h0m-42.774 34.922 40.704 93.516m0 0h0m-38.868 33.242 37.032 95.04m0 0h0m-35.391 31.835 33.75 96.25m0 0h0m102.109-2470.703 102.032.195m0 0h0M1053.984 295.38l101.993 1.72m0 0h0m-101.914 124.257 101.874 4.766m.001 0h0m-101.719 120.469 101.562 9.336m0 0h0M1054.57 671.084l100.86 15.312m0 0h0M1055.273 794.95l99.454 22.58m0 0h0m-98.36 100.82 97.266 30.82m0 0h0m-95.625 92.265 93.984 39.649m0 0h0m-91.836 83.359 89.688 48.594m0 0h0m-87.071 74.609 84.454 57.188m0 0h0m-81.524 66.406 78.594 65m0 0h0m-75.507 59.102 72.42 71.835m0 .001h0m-69.335 52.772 66.25 77.618m0 0h0m-63.242 47.539 60.234 82.305m0 0h0m-57.422 43.281 54.61 86.133m0 0h0m-52.071 39.844 49.532 89.18m0 0h0m-47.188 37.109 44.844 91.601m0 0h0m-42.774 34.922 40.704 93.516m0 0h0m-38.868 33.242 37.032 95.04m0 0h0m-35.391 31.835 33.75 96.25m0 0h0m102.109-2470.703 102.032.195m0 0h0M1223.984 295.38l101.993 1.72m0 0h0m-101.914 124.257 101.874 4.766m.001 0h0m-101.719 120.469 101.562 9.336m0 0h0M1224.57 671.084l100.86 15.312m0 0h0M1225.273 794.95l99.454 22.58m0 0h0m-98.36 100.82 97.266 30.82m0 0h0m-95.625 92.265 93.984 39.649m0 0h0m-91.836 83.359 89.688 48.594m0 0h0m-87.071 74.609 84.454 57.188m0 0h0m-81.524 66.406 78.594 65m0 0h0m-75.507 59.102 72.42 71.835m0 .001h0m-69.335 52.772 66.25 77.618m0 0h0m-63.242 47.539 60.234 82.305m0 0h0m-57.422 43.281 54.61 86.133m0 0h0m-52.071 39.844 49.532 89.18m0 0h0m-47.188 37.109 44.844 91.601m0 0h0m-42.774 34.922 40.704 93.516m0 0h0m-38.868 33.242 37.032 95.04m0 0h0m-35.391 31.835 33.75 96.25m0 0h0m102.109-2470.703 102.032.195m0 0h0M1393.984 295.38l101.993 1.72m0 0h0m-101.914 124.257 101.874 4.766m.001 0h0m-101.719 120.469 101.562 9.336m0 0h0M1394.57 671.084l100.86 15.312m0 0h0M1395.273 794.95l99.454 22.58m0 0h0m-98.36 100.82 97.266 30.82m0 0h0m-95.625 92.265 93.984 39.649m0 0h0m-91.836 83.359 89.688 48.594m0 0h0m-87.071 74.609 84.454 57.188m0 0h0m-81.524 66.406 78.594 65m0 0h0m-75.507 59.102 72.42 71.835m0 .001h0m-69.335 52.772 66.25 77.618m0 0h0m-63.242 47.539 60.234 82.305m0 0h0m-57.422 43.281 54.61 86.133m0 0h0m-52.071 39.844 49.532 89.18m0 0h0m-47.188 37.109 44.844 91.601m0 0h0m-42.774 34.922 40.704 93.516m0 0h0m-38.868 33.242 37.032 95.04m0 0h0m-35.391 31.835 33.75 96.25m0 0h0m102.109-2470.703 102.032.195m0 0h0M1563.984 295.38l101.993 1.72m0 0h0m-101.914 124.257 101.874 4.766m.001 0h0m-101.719 120.469 101.562 9.336m0 0h0M1564.57 671.084l100.86 15.312m0 0h0M1565.273 794.95l99.454 22.58m0 0h0m-98.36 100.82 97.266 30.82m0 0h0m-95.625 92.265 93.984 39.649m0 0h0m-91.836 83.359 89.688 48.594m0 0h0m-87.071 74.609 84.454 57.188m0 0h0m-81.524 66.406 78.594 65m0 0h0m-75.507 59.102 72.42 71.835m0 .001h0m-69.335 52.772 66.25 77.618m0 0h0m-63.242 47.539 60.234 82.305m0 0h0m-57.422 43.281 54.61 86.133m0 0h0m-52.071 39.844 49.532 89.18m0 0h0m-47.188 37.109 44.844 91.601m0 0h0m-42.774 34.922 40.704 93.516m0 0h0m-38.868 33.242 37.032 95.04m0 0h0m-35.391 31.835 33.75 96.25m0 0h0m102.109-2470.703 102.032.195m0 0h0M1733.984 295.38l101.993 1.72m0 0h0m-101.914 124.257 101.874 4.766m.001 0h0m-101.719 120.469 101.562 9.336m0 0h0M1734.57 671.084l100.86 15.312m0 0h0M1735.273 794.95l99.454 22.58m0 0h0m-98.36 100.82 97.266 30.82m0 0h0m-95.625 92.265 93.984 39.649m0 0h0m-91.836 83.359 89.688 48.594m0 0h0m-87.071 74.609 84.454 57.188m0 0h0m-81.524 66.406 78.594 65m0 0h0m-75.507 59.102 72.42 71.835m0 .001h0m-69.335 52.772 66.25 77.618m0 0h0m-63.242 47.539 60.234 82.305m0 0h0m-57.422 43.281 54.61 86.133m0 0h0m-52.071 39.844 49.532 89.18m0 0h0m-47.188 37.109 44.844 91.601m0 0h0m-42.774 34.922 40.704 93.516m0 0h0m-38.868 33.242 37.032 95.04m0 0h0m-35.391 31.835 33.75 96.25m0 0h0m102.109-2470.703 102.032.195m0 0h0M1903.984 295.38l101.993 1.72m0 0h0m-101.914 124.257 101.874 4.766m.001 0h0m-101.719 120.469 101.562 9.336m0 0h0M1904.57 671.084l100.86 15.312m0 0h0M1905.273 794.95l99.454 22.58m0 0h0m-98.36 100.82 97.266 30.82m0 0h0m-95.625 92.265 93.984 39.649m0 0h0m-91.836 83.359 89.688 48.594m0 0h0m-87.071 74.609 84.454 57.188m0 0h0m-81.524 66.406 78.594 65m0 0h0m-75.507 59.102 72.42 71.835m0 .001h0m-69.335 52.772 66.25 77.618m0 0h0m-63.242 47.539 60.234 82.305m0 0h0m-57.422 43.281 54.61 86.133m0 0h0m-52.071 39.844 49.532 89.18m0 0h0m-47.188 37.109 44.844 91.601m0 0h0m-42.774 34.922 40.704 93.516m0 0h0m-38.868 33.242 37.032 95.04m0 0h0m-35.391 31.835 33.75 96.25m0 0h0m102.109-2470.703 102.032.195m0 0h0M2073.984 295.38l101.993 1.72m0 0h0m-101.914 124.257 101.874 4.766m.001 0h0m-101.719 120.469 101.562 9.336m0 0h0M2074.57 671.084l100.86 15.312m0 0h0M2075.273 794.95l99.454 22.58m0 0h0m-98.36 100.82 97.266 30.82m0 0h0m-95.625 92.265 93.984 39.649m0 0h0m-91.836 83.359 89.688 48.594m0 0h0m-87.071 74.609 84.454 57.188m0 0h0m-81.524 66.406 78.594 65m0 0h0m-75.507 59.102 72.42 71.835m0 .001h0m-69.335 52.772 66.25 77.618m0 0h0m-63.242 47.539 60.234 82.305m0 0h0m-57.422 43.281 54.61 86.133m0 0h0m-52.071 39.844 49.532 89.18m0 0h0m-47.188 37.109 44.844 91.601m0 0h0m-42.774 34.922 40.704 93.516m0 0h0m-38.868 33.242 37.032 95.04m0 0h0m-35.391 31.835 33.75 96.25m0 0h0m102.109-2470.703 102.032.195m0 0h0M2243.984 295.38l101.993 1.72m0 0h0m-101.914 124.257 101.874 4.766m.001 0h0m-101.719 120.469 101.562 9.336m0 0h0M2244.57 671.084l100.86 15.312m0 0h0M2245.273 794.95l99.454 22.58m0 0h0m-98.36 100.82 97.266 30.82m0 0h0m-95.625 92.265 93.984 39.649m0 0h0m-91.836 83.359 89.688 48.594m0 0h0m-87.071 74.609 84.454 57.188m0 0h0m-81.524 66.406 78.594 65m0 0h0m-75.507 59.102 72.42 71.835m0 .001h0m-69.335 52.772 66.25 77.618m0 0h0m-63.242 47.539 60.234 82.305m0 0h0m-57.422 43.281 54.61 86.133m0 0h0m-52.071 39.844 49.532 89.18m0 0h0m-47.188 37.109 44.844 91.601m0 0h0m-42.774 34.922 40.704 93.516m0 0h0m-38.868 33.242 37.032 95.04m0 0h0m-35.391 31.835 33.75 96.25m0 0h0m102.109-2470.703 102.032.195m0 0h0M2413.984 295.38l101.993 1.72m0 0h0m-101.914 124.257 101.874 4.766m.001 0h0m-101.719 120.469 101.562 9.336m0 0h0M2414.57 671.084l100.86 15.312m0 0h0M2415.273 794.95l99.454 22.58m0 0h0m-98.36 100.82 97.266 30.82m0 0h0m-95.625 92.265 93.984 39.649m0 0h0m-91.836 83.359 89.688 48.594m0 0h0m-87.071 74.609 84.454 57.188m0 0h0m-81.524 66.406 78.594 65m0 0h0m-75.507 59.102 72.42 71.835m0 .001h0m-69.335 52.772 66.25 77.618m0 0h0m-63.242 47.539 60.234 82.305m0 0h0m-57.422 43.281 54.61 86.133m0 0h0m-52.071 39.844 49.532 89.18m0 0h0m-47.188 37.109 44.844 91.601m0 0h0m-42.774 34.922 40.704 93.516m0 0h0m-38.868 33.242 37.032 95.04m0 0h0m-35.391 31.835 33.75 96.25m0 0h0m102.109-2470.703 102.032.195m0 0h0M2583.984 295.38l101.993 1.72m0 0h0m-101.914 124.257 101.874 4.766m.001 0h0m-101.719 120.469 101.562 9.336m0 0h0M2584.57 671.084l100.86 15.312m0 0h0M2585.273 794.95l99.454 22.58m0 0h0m-98.36 100.82 97.266 30.82m0 0h0m-95.625 92.265 93.984 39.649m0 0h0m-91.836 83.359 89.688 48.594m0 0h0m-87.071 74.609 84.454 57.188m0 0h0m-81.524 66.406 78.594 65m0 0h0m-75.507 59.102 72.42 71.835m0 .001h0m-69.335 52.772 66.25 77.618m0 0h0m-63.242 47.539 60.234 82.305m0 0h0m-57.422 43.281 54.61 86.133m0 0h0m-52.071 39.844 49.532 89.18m0 0h0m-47.188 37.109 44.844 91.601m0 0h0m-42.774 34.922 40.704 93.516m0 0h0m-38.868 33.242 37.032 95.04m0 0h0m-35.391 31.835 33.75 96.25m0 0h0m102.109-2470.703 102.032.195m0 0h0M2753.984 295.38l101.993 1.72m0 0h0m-101.914 124.257 101.874 4.766m.001 0h0m-101.719 120.469 101.562 9.336m0 0h0M2754.57 671.084l100.86 15.312m0 0h0M2755.273 794.95l99.454 22.58m0 0h0m-98.36 100.82 97.266 30.82m0 0h0m-95.625 92.265 93.984 39.649m0 0h0m-91.836 83.359 89.688 48.594m0 0h0m-87.071 74.609 84.454 57.188m0 0h0m-81.524 66.406 78.594 65m0 0h0m-75.507 59.102 72.42 71.835m0 .001h0m-69.335 52.772 66.25 77.618m0 0h0m-63.242 47.539 60.234 82.305m0 0h0m-57.422 43.281 54.61 86.133m0 0h0m-52.071 39.844 49.532 89.18m0 0h0m-47.188 37.109 44.844 91.601m0 0h0m-42.774 34.922 40.704 93.516m0 0h0m-38.868 33.242 37.032 95.04m0 0h0m-35.391 31.835 33.75 96.25m0 0h0m102.109-2470.703 102.032.195m0 0h0M2923.984 295.38l101.993 1.72m0 0h0m-101.914 124.257 101.874 4.766m.001 0h0m-101.719 120.469 101.562 9.336m0 0h0M2924.57 671.084l100.86 15.312m0 0h0M2925.273 794.95l99.454 22.58m0 0h0m-98.36 100.82 97.266 30.82m0 0h0m-95.625 92.265 93.984 39.649m0 0h0m-91.836 83.359 89.688 48.594m0 0h0m-87.071 74.609 84.454 57.188m0 0h0m-81.524 66.406 78.594 65m0 0h0m-75.507 59.102 72.42 71.835m0 .001h0m-69.335 52.772 66.25 77.618m0 0h0m-63.242 47.539 60.234 82.305m0 0h0m-57.422 43.281 54.61 86.133m0 0h0m-52.071 39.844 49.532 89.18m0 0h0m-47.188 37.109 44.844 91.601m0 0h0m-42.774 34.922 40.704 93.516m0 0h0m-38.868 33.242 37.032 95.04m0 0h0m-35.391 31.835 33.75 96.25m0 0h0m102.109-2470.703 102.032.195m0 0h0M3093.984 295.38l101.993 1.72m0 0h0m-101.914 124.257 101.874 4.766m.001 0h0m-101.719 120.469 101.562 9.336m0 0h0M3094.57 671.084l100.86 15.312m0 0h0M3095.273 794.95l99.454 22.58m0 0h0m-98.36 100.82 97.266 30.82m0 0h0m-95.625 92.265 93.984 39.649m0 0h0m-91.836 83.359 89.688 48.594m0 0h0m-87.071 74.609 84.454 57.188m0 0h0m-81.524 66.406 78.594 65m0 0h0m-75.507 59.102 72.42 71.835m0 .001h0m-69.335 52.772 66.25 77.618m0 0h0m-63.242 47.539 60.234 82.305m0 0h0m-57.422 43.281 54.61 86.133m0 0h0m-52.071 39.844 49.532 89.18m0 0h0m-47.188 37.109 44.844 91.601m0 0h0m-42.774 34.922 40.704 93.516m0 0h0m-38.868 33.242 37.032 95.04m0 0h0m-35.391 31.835 33.75 96.25m0 0h0m102.109-2470.703 102.032.195m0 0h0M3263.984 295.38l101.993 1.72m0 0h0m-101.914 124.257 101.874 4.766m.001 0h0m-101.719 120.469 101.562 9.336m0 0h0M3264.57 671.084l100.86 15.312m0 0h0M3265.273 794.95l99.454 22.58m0 0h0m-98.36 100.82 97.266 30.82m0 0h0m-95.625 92.265 93.984 39.649m0 0h0m-91.836 83.359 89.688 48.594m0 0h0m-87.071 74.609 84.454 57.188m0 0h0m-81.524 66.406 78.594 65m0 0h0m-75.507 59.102 72.42 71.835m0 .001h0m-69.335 52.772 66.25 77.618m0 0h0m-63.242 47.539 60.234 82.305m0 0h0m-57.422 43.281 54.61 86.133m0 0h0m-52.071 39.844 49.532 89.18m0 0h0m-47.188 37.109 44.844 91.601m0 0h0m-42.774 34.922 40.704 93.516m0 0h0m-38.868 33.242 37.032 95.04m0 0h0m-35.391 31.835 33.75 96.25m0 0h0m102.109-2470.703 102.032.195m0 0h0M3433.984 295.38l101.993 1.72m0 0h0m-101.914 124.257 101.874 4.766m.001 0h0m-101.719 120.469 101.562 9.336m0 0h0M3434.57 671.084l100.86 15.312m0 0h0M3435.273 794.95l99.454 22.58m0 0h0m-98.36 100.82 97.266 30.82m0 0h0m-95.625 92.265 93.984 39.649m0 0h0m-91.836 83.359 89.688 48.594m0 0h0m-87.071 74.609 84.454 57.188m0 0h0m-81.524 66.406 78.594 65m0 0h0m-75.507 59.102 72.42 71.835m0 .001h0m-69.335 52.772 66.25 77.618m0 0h0m-63.242 47.539 60.234 82.305m0 0h0m-57.422 43.281 54.61 86.133m0 0h0m-52.071 39.844 49.532 89.18m0 0h0m-47.188 37.109 44.844 91.601m0 0h0m-42.774 34.922 40.704 93.516m0 0h0m-38.868 33.242 37.032 95.04m0 0h0m-35.391 31.835 33.75 96.25m0 0h0" transform="matrix(.1 0 0 -.1 .5 275.499)"/><path style="fill:none;stroke-width:12.5;stroke-linecap:round;stroke-linejoin:miter;stroke:#006400;stroke-opacity:1;stroke-miterlimit:10" d="m1020 954.99 850 283.36" transform="matrix(.1 0 0 -.1 .5 275.499)"/><g clip-path="url(#E)"><path style="fill:none;stroke-width:6.25;stroke-linecap:round;stroke-linejoin:miter;stroke:#bfbfbf;stroke-opacity:1;stroke-miterlimit:10" d="M1020.018 104.99v2550" transform="matrix(.1 0 0 -.1 394.424 275.499)"/></g><g clip-path="url(#F)"><path style="fill:none;stroke-width:6.25;stroke-linecap:round;stroke-linejoin:miter;stroke:#bfbfbf;stroke-opacity:1;stroke-miterlimit:10" d="M170.018 104.99h3400" transform="matrix(.1 0 0 -.1 394.424 275.499)"/></g><g clip-path="url(#G)"><path style="fill:none;stroke-width:6.25;stroke-linecap:round;stroke-linejoin:miter;stroke:#bfbfbf;stroke-opacity:1;stroke-dasharray:12.5,18.75;stroke-miterlimit:10" d="M170.018 104.99v2550" transform="matrix(.1 0 0 -.1 394.424 275.499)"/></g><g clip-path="url(#H)"><path style="fill:none;stroke-width:6.25;stroke-linecap:round;stroke-linejoin:miter;stroke:#bfbfbf;stroke-opacity:1;stroke-dasharray:12.5,18.75;stroke-miterlimit:10" d="M1020.018 104.99v2550" transform="matrix(.1 0 0 -.1 394.424 275.499)"/></g><g clip-path="url(#I)"><path style="fill:none;stroke-width:6.25;stroke-linecap:round;stroke-linejoin:miter;stroke:#bfbfbf;stroke-opacity:1;stroke-dasharray:12.5,18.75;stroke-miterlimit:10" d="M1870.018 104.99v2550" transform="matrix(.1 0 0 -.1 394.424 275.499)"/></g><g clip-path="url(#J)"><path style="fill:none;stroke-width:6.25;stroke-linecap:round;stroke-linejoin:miter;stroke:#bfbfbf;stroke-opacity:1;stroke-dasharray:12.5,18.75;stroke-miterlimit:10" d="M2720.018 104.99v2550" transform="matrix(.1 0 0 -.1 394.424 275.499)"/></g><g clip-path="url(#K)"><path style="fill:none;stroke-width:6.25;stroke-linecap:round;stroke-linejoin:miter;stroke:#bfbfbf;stroke-opacity:1;stroke-dasharray:12.5,18.75;stroke-miterlimit:10" d="M3570.018 104.99v2550" transform="matrix(.1 0 0 -.1 394.424 275.499)"/></g><g clip-path="url(#L)"><path style="fill:none;stroke-width:6.25;stroke-linecap:round;stroke-linejoin:miter;stroke:#bfbfbf;stroke-opacity:1;stroke-dasharray:12.5,18.75;stroke-miterlimit:10" d="M170.018 104.99h3400" transform="matrix(.1 0 0 -.1 394.424 275.499)"/></g><g clip-path="url(#M)"><path style="fill:none;stroke-width:6.25;stroke-linecap:round;stroke-linejoin:miter;stroke:#bfbfbf;stroke-opacity:1;stroke-dasharray:12.5,18.75;stroke-miterlimit:10" d="M170.018 529.99h3400" transform="matrix(.1 0 0 -.1 394.424 275.499)"/></g><g clip-path="url(#N)"><path style="fill:none;stroke-width:6.25;stroke-linecap:round;stroke-linejoin:miter;stroke:#bfbfbf;stroke-opacity:1;stroke-dasharray:12.5,18.75;stroke-miterlimit:10" d="M170.018 954.99h3400" transform="matrix(.1 0 0 -.1 394.424 275.499)"/></g><g clip-path="url(#O)"><path style="fill:none;stroke-width:6.25;stroke-linecap:round;stroke-linejoin:miter;stroke:#bfbfbf;stroke-opacity:1;stroke-dasharray:12.5,18.75;stroke-miterlimit:10" d="M170.018 1379.99h3400" transform="matrix(.1 0 0 -.1 394.424 275.499)"/></g><g clip-path="url(#P)"><path style="fill:none;stroke-width:6.25;stroke-linecap:round;stroke-linejoin:miter;stroke:#bfbfbf;stroke-opacity:1;stroke-dasharray:12.5,18.75;stroke-miterlimit:10" d="M170.018 1804.99h3400" transform="matrix(.1 0 0 -.1 394.424 275.499)"/></g><g clip-path="url(#Q)"><path style="fill:none;stroke-width:6.25;stroke-linecap:round;stroke-linejoin:miter;stroke:#bfbfbf;stroke-opacity:1;stroke-dasharray:12.5,18.75;stroke-miterlimit:10" d="M170.018 2229.99h3400" transform="matrix(.1 0 0 -.1 394.424 275.499)"/></g><g clip-path="url(#R)"><path style="fill:none;stroke-width:6.25;stroke-linecap:round;stroke-linejoin:miter;stroke:#bfbfbf;stroke-opacity:1;stroke-dasharray:12.5,18.75;stroke-miterlimit:10" d="M170.018 2654.99h3400" transform="matrix(.1 0 0 -.1 394.424 275.499)"/></g><path style="fill:none;stroke-width:12.5;stroke-linecap:square;stroke-linejoin:miter;stroke:#000;stroke-opacity:1;stroke-miterlimit:10" d="M170.018 104.99h3400" transform="matrix(.1 0 0 -.1 394.424 275.499)"/><path style="fill:none;stroke-width:6.25;stroke-linecap:butt;stroke-linejoin:miter;stroke:#000;stroke-opacity:1;stroke-miterlimit:10" d="M170.018 104.99v50m84.961-50v25m85-25v25m85.039-25v25m85-25v25m85-25v25m85-25v25m84.961-25v25m85.039-25v25m84.961-25v25m85.039-25v50m85-50v25m85-25v25m85-25v25m85-25v25m85-25v25m85-25v25m85-25v25m85-25v25m85-25v25m85-25v50m85-50v25m85-25v25m85-25v25m85-25v25m85-25v25m85-25v25m85-25v25m85-25v25m85-25v25m85-25v50m85-50v25m85-25v25m85-25v25m85-25v25m85-25v25m85-25v25m85-25v25m85-25v25m85-25v25m85-25v50" transform="matrix(.1 0 0 -.1 394.424 275.499)"/><g style="fill:#000;fill-opacity:1"><use xlink:href="#o" x="407.466" y="274.999"/><use xlink:href="#p" x="409.963" y="274.999"/></g><g clip-path="url(#S)"><use xlink:href="#r" x="493.714" y="274.999" style="fill:#000;fill-opacity:1"/></g><use xlink:href="#p" x="579.34" y="274.999" style="fill:#000;fill-opacity:1"/><use xlink:href="#s" x="664.339" y="274.999" style="fill:#000;fill-opacity:1"/><g clip-path="url(#T)"><use xlink:href="#u" x="749.339" y="274.999" style="fill:#000;fill-opacity:1"/></g><path style="fill:none;stroke-width:12.5;stroke-linecap:square;stroke-linejoin:miter;stroke:#000;stroke-opacity:1;stroke-miterlimit:10" d="M170.018 2654.99h3400" transform="matrix(.1 0 0 -.1 394.424 275.499)"/><path style="fill:none;stroke-width:6.25;stroke-linecap:butt;stroke-linejoin:miter;stroke:#000;stroke-opacity:1;stroke-miterlimit:10" d="M170.018 2654.99v-50m84.961 50v-25m85 25v-25m85.039 25v-25m85 25v-25m85 25v-25m85 25v-25m84.961 25v-25m85.039 25v-25m84.961 25v-25m85.039 25v-50m85 50v-25m85 25v-25m85 25v-25m85 25v-25m85 25v-25m85 25v-25m85 25v-25m85 25v-25m85 25v-25m85 25v-50m85 50v-25m85 25v-25m85 25v-25m85 25v-25m85 25v-25m85 25v-25m85 25v-25m85 25v-25m85 25v-25m85 25v-50m85 50v-25m85 25v-25m85 25v-25m85 25v-25m85 25v-25m85 25v-25m85 25v-25m85 25v-25m85 25v-25m85 25v-50" transform="matrix(.1 0 0 -.1 394.424 275.499)"/><g style="fill:#000;fill-opacity:1"><use xlink:href="#o" x="407.466" y="6.874"/><use xlink:href="#p" x="409.963" y="6.874"/></g><use xlink:href="#r" x="493.714" y="6.874" style="fill:#000;fill-opacity:1"/><use xlink:href="#p" x="579.34" y="6.874" style="fill:#000;fill-opacity:1"/><use xlink:href="#s" x="664.339" y="6.874" style="fill:#000;fill-opacity:1"/><use xlink:href="#u" x="749.339" y="6.874" style="fill:#000;fill-opacity:1"/><path style="fill:none;stroke-width:12.5;stroke-linecap:square;stroke-linejoin:miter;stroke:#000;stroke-opacity:1;stroke-miterlimit:10" d="M170.018 104.99v2550" transform="matrix(.1 0 0 -.1 394.424 275.499)"/><path style="fill:none;stroke-width:6.25;stroke-linecap:butt;stroke-linejoin:miter;stroke:#000;stroke-opacity:1;stroke-miterlimit:10" d="M170.018 104.99h50m-50 42.5h25m-25 42.5h25m-25 42.5h25m-25 42.5h25m-25 42.5h25m-25 42.5h25m-25 42.5h25m-25 42.5h25m-25 42.5h25m-25 42.5h50m-50 42.5h25m-25 42.5h25m-25 42.5h25m-25 42.5h25m-25 42.5h25m-25 42.5h25m-25 42.5h25m-25 42.5h25m-25 42.5h25m-25 42.5h50m-50 42.5h25m-25 42.5h25m-25 42.5h25m-25 42.5h25m-25 42.5h25m-25 42.5h25m-25 42.5h25m-25 42.5h25m-25 42.5h25m-25 42.5h50m-50 42.5h25m-25 42.5h25m-25 42.5h25m-25 42.5h25m-25 42.5h25m-25 42.5h25m-25 42.5h25m-25 42.5h25m-25 42.5h25m-25 42.5h50m-50 42.5h25m-25 42.5h25m-25 42.5h25m-25 42.5h25m-25 42.5h25m-25 42.5h25m-25 42.5h25m-25 42.5h25m-25 42.5h25m-25 42.5h50m-50 42.5h25m-25 42.5h25m-25 42.5h25m-25 42.5h25m-25 42.5h25m-25 42.5h25m-25 42.5h25m-25 42.5h25m-25 42.5h25m-25 42.5h50" transform="matrix(.1 0 0 -.1 394.424 275.499)"/><g style="fill:#000;fill-opacity:1" clip-path="url(#U)"><use xlink:href="#r" x="394.125" y="268.749"/><use xlink:href="#w" x="398.295" y="268.749"/><use xlink:href="#r" x="400.38" y="268.749"/></g><g style="fill:#000;fill-opacity:1" clip-path="url(#V)"><use xlink:href="#r" x="394.125" y="225.624"/><use xlink:href="#w" x="398.295" y="225.624"/><use xlink:href="#y" x="400.38" y="225.624"/></g><g style="fill:#000;fill-opacity:1" clip-path="url(#W)"><use xlink:href="#p" x="394.125" y="183.749"/><use xlink:href="#w" x="398.295" y="183.749"/><use xlink:href="#r" x="400.38" y="183.749"/></g><g style="fill:#000;fill-opacity:1" clip-path="url(#X)"><use xlink:href="#p" x="394.125" y="140.624"/><use xlink:href="#w" x="398.295" y="140.624"/><use xlink:href="#y" x="400.38" y="140.624"/></g><g style="fill:#000;fill-opacity:1" clip-path="url(#Y)"><use xlink:href="#s" x="394.125" y="98.749"/><use xlink:href="#w" x="398.295" y="98.749"/><use xlink:href="#r" x="400.38" y="98.749"/></g><g style="fill:#000;fill-opacity:1" clip-path="url(#Z)"><use xlink:href="#s" x="394.125" y="55.624"/><use xlink:href="#w" x="398.295" y="55.624"/><use xlink:href="#y" x="400.38" y="55.624"/></g><g style="fill:#000;fill-opacity:1" clip-path="url(#aa)"><use xlink:href="#u" x="394.125" y="13.124"/><use xlink:href="#w" x="398.295" y="13.124"/><use xlink:href="#r" x="400.38" y="13.124"/></g><path style="fill:none;stroke-width:12.5;stroke-linecap:square;stroke-linejoin:miter;stroke:#000;stroke-opacity:1;stroke-miterlimit:10" d="M3570.018 104.99v2550" transform="matrix(.1 0 0 -.1 394.424 275.499)"/><path style="fill:none;stroke-width:6.25;stroke-linecap:butt;stroke-linejoin:miter;stroke:#000;stroke-opacity:1;stroke-miterlimit:10" d="M3570.018 104.99h-50m50 42.5h-25m25 42.5h-25m25 42.5h-25m25 42.5h-25m25 42.5h-25m25 42.5h-25m25 42.5h-25m25 42.5h-25m25 42.5h-25m25 42.5h-50m50 42.5h-25m25 42.5h-25m25 42.5h-25m25 42.5h-25m25 42.5h-25m25 42.5h-25m25 42.5h-25m25 42.5h-25m25 42.5h-25m25 42.5h-50m50 42.5h-25m25 42.5h-25m25 42.5h-25m25 42.5h-25m25 42.5h-25m25 42.5h-25m25 42.5h-25m25 42.5h-25m25 42.5h-25m25 42.5h-50m50 42.5h-25m25 42.5h-25m25 42.5h-25m25 42.5h-25m25 42.5h-25m25 42.5h-25m25 42.5h-25m25 42.5h-25m25 42.5h-25m25 42.5h-50m50 42.5h-25m25 42.5h-25m25 42.5h-25m25 42.5h-25m25 42.5h-25m25 42.5h-25m25 42.5h-25m25 42.5h-25m25 42.5h-25m25 42.5h-50m50 42.5h-25m25 42.5h-25m25 42.5h-25m25 42.5h-25m25 42.5h-25m25 42.5h-25m25 42.5h-25m25 42.5h-25m25 42.5h-25m25 42.5h-50" transform="matrix(.1 0 0 -.1 394.424 275.499)"/><g style="fill:#000;fill-opacity:1"><use xlink:href="#r" x="757.674" y="268.749"/><use xlink:href="#w" x="761.844" y="268.749"/><use xlink:href="#r" x="763.929" y="268.749"/></g><g style="fill:#000;fill-opacity:1"><use xlink:href="#r" x="757.674" y="225.624"/><use xlink:href="#w" x="761.844" y="225.624"/><use xlink:href="#y" x="763.929" y="225.624"/></g><g style="fill:#000;fill-opacity:1"><use xlink:href="#p" x="757.674" y="183.749"/><use xlink:href="#w" x="761.844" y="183.749"/><use xlink:href="#r" x="763.929" y="183.749"/></g><g style="fill:#000;fill-opacity:1"><use xlink:href="#p" x="757.674" y="140.624"/><use xlink:href="#w" x="761.844" y="140.624"/><use xlink:href="#y" x="763.929" y="140.624"/></g><g style="fill:#000;fill-opacity:1"><use xlink:href="#s" x="757.674" y="98.749"/><use xlink:href="#w" x="761.844" y="98.749"/><use xlink:href="#r" x="763.929" y="98.749"/></g><g style="fill:#000;fill-opacity:1"><use xlink:href="#s" x="757.674" y="55.624"/><use xlink:href="#w" x="761.844" y="55.624"/><use xlink:href="#y" x="763.929" y="55.624"/></g><g style="fill:#000;fill-opacity:1"><use xlink:href="#u" x="757.674" y="13.124"/><use xlink:href="#w" x="761.844" y="13.124"/><use xlink:href="#r" x="763.929" y="13.124"/></g><path style="fill:none;stroke-width:6.25;stroke-linecap:round;stroke-linejoin:miter;stroke:#00f;stroke-opacity:1;stroke-miterlimit:10" d="m204.002 168.662 101.992.195m0 0h0M204.002 295.38l101.992 1.72m0 0h0M204.041 421.357l101.914 4.766m0 0h0M204.197 546.592l101.602 9.336m.001 0h0M204.588 671.084l100.82 15.312m0 0h0M205.252 794.95l99.492 22.58m0 0h0m-98.359 100.82 97.227 30.82m0 0h0m-95.586 92.265 93.945 39.649m-.001 0h0m-91.796 83.359 89.648 48.594m0 0h0m-87.07 74.609 84.492 57.188m0 0h0m-81.562 66.406 78.633 65m0 0h0m-75.508 59.102 72.383 71.835m0 .001h0m-69.297 52.772 66.21 77.618m.001 0h0m-63.204 47.539 60.196 82.305m0 0h0m-57.422 43.281 54.648 86.133m0 0h0m-52.07 39.844 49.492 89.18m0 0h0m-47.187 37.109 44.883 91.601m0 0h0m-42.813 34.922 40.742 93.516m.001 0h0m-38.868 33.242 36.992 95.04m0 0h0m-35.39 31.835 33.789 96.25m0 0h0M374.002 168.662l101.992.195m0 0h0M374.002 295.38l101.992 1.72m0 0h0M374.041 421.357l101.914 4.766m0 0h0M374.197 546.592l101.602 9.336m.001 0h0M374.588 671.084l100.82 15.312m0 0h0M375.252 794.95l99.492 22.58m0 0h0m-98.359 100.82 97.227 30.82m0 0h0m-95.586 92.265 93.945 39.649m-.001 0h0m-91.796 83.359 89.649 48.594m-.001 0h0m-87.07 74.609 84.492 57.188m0 0h0m-81.562 66.406 78.633 65m0 0h0m-75.508 59.102 72.383 71.835m0 .001h0m-69.297 52.772 66.21 77.618m.001 0h0m-63.204 47.539 60.196 82.305m0 0h0m-57.422 43.281 54.649 86.133m-.001 0h0m-52.07 39.844 49.492 89.18m0 0h0m-47.187 37.109 44.883 91.601m0 0h0m-42.813 34.922 40.742 93.516m.001 0h0m-38.868 33.242 36.992 95.04m0 0h0m-35.39 31.835 33.789 96.25m0 0h0M544.002 168.662l101.992.195m0 0h0M544.002 295.38l101.992 1.72m0 0h0M544.041 421.357l101.914 4.766m0 0h0M544.197 546.592l101.602 9.336m.001 0h0M544.588 671.084l100.82 15.312m0 0h0M545.252 794.95l99.492 22.58m0 0h0m-98.359 100.82 97.227 30.82m0 0h0m-95.586 92.265 93.945 39.649m-.001 0h0m-91.796 83.359 89.649 48.594m-.001 0h0m-87.07 74.609 84.492 57.188m0 0h0m-81.562 66.406 78.633 65m0 0h0m-75.508 59.102 72.383 71.835m0 .001h0m-69.297 52.772 66.21 77.618m.001 0h0m-63.204 47.539 60.196 82.305m0 0h0m-57.422 43.281 54.649 86.133m-.001 0h0m-52.07 39.844 49.492 89.18m0 0h0m-47.187 37.109 44.883 91.601m0 0h0m-42.813 34.922 40.742 93.516m.001 0h0m-38.868 33.242 36.992 95.04m0 0h0m-35.351 31.835 33.71 96.25m.001 0h0M714.002 168.662l101.992.195m0 0h0M714.002 295.38l101.992 1.72m0 0h0M714.041 421.357l101.914 4.766m0 0h0M714.197 546.592l101.602 9.336m.001 0h0M714.588 671.084l100.82 15.312m0 0h0M715.252 794.95l99.492 22.58m0 0h0m-98.359 100.82 97.227 30.82m0 0h0m-95.586 92.265 93.945 39.649m-.001 0h0m-91.796 83.359 89.649 48.594m-.001 0h0m-87.07 74.609 84.492 57.188m0 0h0m-81.562 66.406 78.633 65m0 0h0m-75.508 59.102 72.383 71.835m0 .001h0m-69.297 52.772 66.21 77.618m.001 0h0m-63.204 47.539 60.196 82.305m0 0h0m-57.422 43.281 54.649 86.133m-.001 0h0m-52.07 39.844 49.492 89.18m0 0h0m-47.187 37.109 44.883 91.601m0 0h0m-42.813 34.922 40.742 93.516m.001 0h0m-38.868 33.242 36.992 95.04m0 0h0m-35.351 31.835 33.71 96.25m.001 0h0M884.002 168.662l101.992.195m0 0h0M884.002 295.38l101.992 1.72m0 0h0M884.041 421.357l101.914 4.766m0 0h0M884.197 546.592l101.602 9.336m.001 0h0M884.588 671.084l100.82 15.312m0 0h0M885.252 794.95l99.492 22.58m0 0h0m-98.359 100.82 97.227 30.82m0 0h0m-95.586 92.265 93.945 39.649m-.001 0h0m-91.796 83.359 89.649 48.594m-.001 0h0m-87.07 74.609 84.492 57.188m0 0h0m-81.562 66.406 78.633 65m0 0h0m-75.508 59.102 72.383 71.835m0 .001h0m-69.297 52.772 66.21 77.618m.001 0h0m-63.204 47.539 60.196 82.305m0 0h0m-57.422 43.281 54.649 86.133m-.001 0h0m-52.07 39.844 49.492 89.18m0 0h0m-47.187 37.109 44.883 91.601m0 0h0m-42.813 34.922 40.742 93.516m.001 0h0m-38.868 33.242 36.992 95.04m0 0h0m-35.39 31.835 33.789 96.25m0 0h0m102.109-2470.703 101.992.195m0 0h0M1054.002 295.38l101.992 1.72m0 0h0m-101.953 124.257 101.914 4.766m0 0h0m-101.758 120.469 101.602 9.336m.001 0h0m-101.212 115.156 100.82 15.312m0 0h0M1055.252 794.95l99.492 22.58m0 0h0m-98.359 100.82 97.227 30.82m0 0h0m-95.586 92.265 93.945 39.649m-.001 0h0m-91.796 83.359 89.649 48.594m-.001 0h0m-87.07 74.609 84.492 57.188m0 0h0m-81.562 66.406 78.633 65m0 0h0m-75.508 59.102 72.383 71.835m0 .001h0m-69.297 52.772 66.21 77.618m.001 0h0m-63.204 47.539 60.196 82.305m0 0h0m-57.422 43.281 54.649 86.133m-.001 0h0m-52.07 39.844 49.492 89.18m0 0h0m-47.187 37.109 44.883 91.601m0 0h0m-42.813 34.922 40.742 93.516m.001 0h0m-38.907 33.242 37.031 95.04m0 0h0m-35.39 31.835 33.789 96.25m0 0h0m102.109-2470.703 101.992.195m0 0h0M1224.002 295.38l101.992 1.72m0 0h0m-101.953 124.257 101.914 4.766m0 0h0m-101.758 120.469 101.602 9.336m.001 0h0m-101.212 115.156 100.82 15.312m0 0h0M1225.252 794.95l99.492 22.58m0 0h0m-98.359 100.82 97.227 30.82m0 0h0m-95.586 92.265 93.945 39.649m-.001 0h0m-91.796 83.359 89.649 48.594m-.001 0h0m-87.07 74.609 84.492 57.188m0 0h0m-81.562 66.406 78.633 65m0 0h0m-75.508 59.102 72.383 71.835m0 .001h0m-69.297 52.772 66.21 77.618m.001 0h0m-63.204 47.539 60.196 82.305m0 0h0m-57.422 43.281 54.649 86.133m-.001 0h0m-52.07 39.844 49.492 89.18m0 0h0m-47.187 37.109 44.883 91.601m0 0h0m-42.813 34.922 40.742 93.516m.001 0h0m-38.907 33.242 37.031 95.04m0 0h0m-35.39 31.835 33.789 96.25m0 0h0m102.109-2470.703 101.992.195m0 0h0M1394.002 295.38l101.992 1.72m0 0h0m-101.953 124.257 101.914 4.766m0 0h0m-101.758 120.469 101.602 9.336m.001 0h0m-101.212 115.156 100.82 15.312m0 0h0M1395.252 794.95l99.492 22.58m0 0h0m-98.359 100.82 97.227 30.82m0 0h0m-95.586 92.265 93.945 39.649m-.001 0h0m-91.796 83.359 89.649 48.594m-.001 0h0m-87.07 74.609 84.492 57.188m0 0h0m-81.562 66.406 78.633 65m0 0h0m-75.508 59.102 72.383 71.835m0 .001h0m-69.297 52.772 66.21 77.618m.001 0h0m-63.204 47.539 60.196 82.305m0 0h0m-57.422 43.281 54.649 86.133m-.001 0h0m-52.07 39.844 49.492 89.18m0 0h0m-47.187 37.109 44.883 91.601m0 0h0m-42.813 34.922 40.742 93.516m.001 0h0m-38.907 33.242 37.031 95.04m0 0h0m-35.39 31.835 33.75 96.25m0 0h0m102.148-2470.703 101.992.195m0 0h0M1564.002 295.38l101.992 1.72m0 0h0m-101.953 124.257 101.914 4.766m0 0h0m-101.758 120.469 101.602 9.336m.001 0h0m-101.212 115.156 100.82 15.312m0 0h0M1565.252 794.95l99.492 22.58m0 0h0m-98.359 100.82 97.227 30.82m0 0h0m-95.586 92.265 93.945 39.649m-.001 0h0m-91.796 83.359 89.649 48.594m-.001 0h0m-87.07 74.609 84.492 57.188m0 0h0m-81.562 66.406 78.633 65m0 0h0m-75.508 59.102 72.383 71.835m0 .001h0m-69.297 52.772 66.21 77.618m.001 0h0m-63.204 47.539 60.196 82.305m0 0h0m-57.422 43.281 54.649 86.133m-.001 0h0m-52.07 39.844 49.492 89.18m0 0h0m-47.187 37.109 44.883 91.601m0 0h0m-42.813 34.922 40.742 93.516m.001 0h0m-38.907 33.242 37.031 95.04m0 0h0m-35.39 31.835 33.75 96.25m0 0h0m102.148-2470.703 101.992.195m0 0h0M1734.002 295.38l101.992 1.72m0 0h0m-101.953 124.257 101.914 4.766m0 0h0m-101.758 120.469 101.602 9.336m.001 0h0m-101.212 115.156 100.82 15.312m0 0h0M1735.252 794.95l99.492 22.58m0 0h0m-98.359 100.82 97.227 30.82m0 0h0m-95.586 92.265 93.945 39.649m-.001 0h0m-91.796 83.359 89.649 48.594m-.001 0h0m-87.07 74.609 84.492 57.188m0 0h0m-81.562 66.406 78.633 65m0 0h0m-75.508 59.102 72.383 71.835m0 .001h0m-69.297 52.772 66.21 77.618m.001 0h0m-63.204 47.539 60.196 82.305m0 0h0m-57.422 43.281 54.649 86.133m-.001 0h0m-52.07 39.844 49.492 89.18m0 0h0m-47.187 37.109 44.883 91.601m0 0h0m-42.813 34.922 40.742 93.516m.001 0h0m-38.907 33.242 37.031 95.04m0 0h0m-35.39 31.835 33.789 96.25m0 0h0m102.109-2470.703 101.992.195m0 0h0M1904.002 295.38l101.992 1.72m0 0h0m-101.953 124.257 101.914 4.766m0 0h0m-101.758 120.469 101.602 9.336m.001 0h0m-101.212 115.156 100.82 15.312m0 0h0M1905.252 794.95l99.492 22.58m0 0h0m-98.359 100.82 97.227 30.82m0 0h0m-95.586 92.265 93.945 39.649m-.001 0h0m-91.796 83.359 89.649 48.594m-.001 0h0m-87.07 74.609 84.492 57.188m0 0h0m-81.562 66.406 78.633 65m0 0h0m-75.508 59.102 72.383 71.835m0 .001h0m-69.297 52.772 66.21 77.618m.001 0h0m-63.204 47.539 60.196 82.305m0 0h0m-57.422 43.281 54.649 86.133m-.001 0h0m-52.07 39.844 49.492 89.18m0 0h0m-47.187 37.109 44.883 91.601m0 0h0m-42.813 34.922 40.742 93.516m.001 0h0m-38.907 33.242 37.031 95.04m0 0h0m-35.39 31.835 33.75 96.25m0 0h0m102.148-2470.703 101.992.195m0 0h0M2074.002 295.38l101.992 1.72m0 0h0m-101.953 124.257 101.914 4.766m0 0h0m-101.757 120.469 101.601 9.336m.001 0h0m-101.212 115.156 100.82 15.312m0 0h0M2075.252 794.95l99.492 22.58m0 0h0m-98.359 100.82 97.227 30.82m0 0h0m-95.586 92.265 93.945 39.649m-.001 0h0m-91.796 83.359 89.649 48.594m0 0h0m-87.071 74.609 84.492 57.188m0 0h0m-81.562 66.406 78.633 65m0 0h0m-75.508 59.102 72.383 71.835m0 .001h0m-69.297 52.772 66.21 77.618m.001 0h0m-63.204 47.539 60.196 82.305m0 0h0m-57.422 43.281 54.649 86.133m0 0h0m-52.071 39.844 49.492 89.18m0 0h0m-47.187 37.109 44.883 91.601m0 0h0m-42.813 34.922 40.742 93.516m.001 0h0m-38.907 33.242 37.031 95.04m0 0h0m-35.39 31.835 33.789 96.25m0 0h0m102.109-2470.703 101.992.195m0 0h0M2244.002 295.38l101.992 1.72m0 0h0m-101.953 124.257 101.914 4.766m0 0h0m-101.757 120.469 101.601 9.336m.001 0h0m-101.212 115.156 100.82 15.312m0 0h0M2245.252 794.95l99.492 22.58m0 0h0m-98.359 100.82 97.227 30.82m0 0h0m-95.586 92.265 93.945 39.649m-.001 0h0m-91.796 83.359 89.649 48.594m0 0h0m-87.071 74.609 84.492 57.188m0 0h0m-81.562 66.406 78.633 65m0 0h0m-75.508 59.102 72.383 71.835m0 .001h0m-69.297 52.772 66.21 77.618m.001 0h0m-63.204 47.539 60.196 82.305m0 0h0m-57.422 43.281 54.649 86.133m0 0h0m-52.071 39.844 49.492 89.18m0 0h0m-47.187 37.109 44.883 91.601m0 0h0m-42.813 34.922 40.742 93.516m.001 0h0m-38.907 33.242 37.031 95.04m0 0h0m-35.39 31.835 33.789 96.25m0 0h0m102.109-2470.703 101.992.195m0 0h0M2414.002 295.38l101.992 1.72m0 0h0m-101.953 124.257 101.914 4.766m0 0h0m-101.757 120.469 101.601 9.336m.001 0h0m-101.212 115.156 100.82 15.312m0 0h0M2415.252 794.95l99.492 22.58m0 0h0m-98.359 100.82 97.227 30.82m0 0h0m-95.586 92.265 93.945 39.649m-.001 0h0m-91.796 83.359 89.649 48.594m0 0h0m-87.071 74.609 84.492 57.188m0 0h0m-81.562 66.406 78.633 65m0 0h0m-75.508 59.102 72.383 71.835m0 .001h0m-69.297 52.772 66.21 77.618m.001 0h0m-63.204 47.539 60.196 82.305m0 0h0m-57.422 43.281 54.649 86.133m0 0h0m-52.071 39.844 49.492 89.18m0 0h0m-47.187 37.109 44.883 91.601m0 0h0m-42.813 34.922 40.742 93.516m.001 0h0m-38.907 33.242 37.031 95.04m0 0h0m-35.39 31.835 33.75 96.25m0 0h0m102.148-2470.703 101.992.195m0 0h0M2584.002 295.38l101.992 1.72m0 0h0m-101.953 124.257 101.914 4.766m0 0h0m-101.757 120.469 101.601 9.336m.001 0h0m-101.212 115.156 100.82 15.312m0 0h0M2585.252 794.95l99.492 22.58m0 0h0m-98.359 100.82 97.227 30.82m0 0h0m-95.586 92.265 93.945 39.649m-.001 0h0m-91.796 83.359 89.649 48.594m0 0h0m-87.071 74.609 84.492 57.188m0 0h0m-81.562 66.406 78.633 65m0 0h0m-75.508 59.102 72.383 71.835m0 .001h0m-69.297 52.772 66.21 77.618m.001 0h0m-63.204 47.539 60.196 82.305m0 0h0m-57.422 43.281 54.649 86.133m0 0h0m-52.071 39.844 49.492 89.18m0 0h0m-47.187 37.109 44.883 91.601m0 0h0m-42.813 34.922 40.742 93.516m.001 0h0m-38.907 33.242 37.031 95.04m0 0h0m-35.39 31.835 33.789 96.25m0 0h0m102.109-2470.703 101.992.195m0 0h0M2754.002 295.38l101.992 1.72m0 0h0m-101.953 124.257 101.914 4.766m0 0h0m-101.757 120.469 101.601 9.336m.001 0h0m-101.212 115.156 100.82 15.312m0 0h0M2755.252 794.95l99.492 22.58m0 0h0m-98.359 100.82 97.227 30.82m0 0h0m-95.586 92.265 93.945 39.649m-.001 0h0m-91.796 83.359 89.649 48.594m0 0h0m-87.071 74.609 84.492 57.188m0 0h0m-81.562 66.406 78.633 65m0 0h0m-75.508 59.102 72.383 71.835m0 .001h0m-69.297 52.772 66.21 77.618m.001 0h0m-63.204 47.539 60.196 82.305m0 0h0m-57.422 43.281 54.649 86.133m0 0h0m-52.071 39.844 49.492 89.18m0 0h0m-47.187 37.109 44.883 91.601m0 0h0m-42.813 34.922 40.742 93.516m.001 0h0m-38.907 33.242 37.031 95.04m0 0h0m-35.39 31.835 33.75 96.25m0 0h0m102.148-2470.703 101.992.195m0 0h0M2924.002 295.38l101.992 1.72m0 0h0m-101.953 124.257 101.914 4.766m0 0h0m-101.757 120.469 101.601 9.336m.001 0h0m-101.212 115.156 100.82 15.312m0 0h0M2925.252 794.95l99.492 22.58m0 0h0m-98.359 100.82 97.227 30.82m0 0h0m-95.586 92.265 93.945 39.649m-.001 0h0m-91.796 83.359 89.649 48.594m0 0h0m-87.071 74.609 84.492 57.188m0 0h0m-81.562 66.406 78.633 65m0 0h0m-75.508 59.102 72.383 71.835m0 .001h0m-69.297 52.772 66.21 77.618m.001 0h0m-63.204 47.539 60.196 82.305m0 0h0m-57.422 43.281 54.649 86.133m0 0h0m-52.071 39.844 49.492 89.18m0 0h0m-47.187 37.109 44.883 91.601m0 0h0m-42.813 34.922 40.742 93.516m.001 0h0m-38.907 33.242 37.031 95.04m0 0h0m-35.39 31.835 33.789 96.25m0 0h0m102.109-2470.703 101.992.195m0 0h0M3094.002 295.38l101.992 1.72m0 0h0m-101.953 124.257 101.914 4.766m0 0h0m-101.757 120.469 101.601 9.336m.001 0h0m-101.212 115.156 100.82 15.312m0 0h0M3095.252 794.95l99.492 22.58m0 0h0m-98.359 100.82 97.227 30.82m0 0h0m-95.586 92.265 93.945 39.649m-.001 0h0m-91.796 83.359 89.649 48.594m0 0h0m-87.071 74.609 84.492 57.188m0 0h0m-81.562 66.406 78.633 65m0 0h0m-75.508 59.102 72.383 71.835m0 .001h0m-69.297 52.772 66.21 77.618m.001 0h0m-63.204 47.539 60.196 82.305m0 0h0m-57.422 43.281 54.649 86.133m0 0h0m-52.071 39.844 49.492 89.18m0 0h0m-47.187 37.109 44.883 91.601m0 0h0m-42.813 34.922 40.742 93.516m.001 0h0m-38.907 33.242 37.031 95.04m0 0h0m-35.39 31.835 33.789 96.25m0 0h0m102.109-2470.703 101.992.195m0 0h0M3264.002 295.38l101.992 1.72m0 0h0m-101.953 124.257 101.914 4.766m0 0h0m-101.757 120.469 101.601 9.336m.001 0h0m-101.212 115.156 100.82 15.312m0 0h0M3265.252 794.95l99.492 22.58m0 0h0m-98.359 100.82 97.227 30.82m0 0h0m-95.586 92.265 93.945 39.649m-.001 0h0m-91.796 83.359 89.649 48.594m0 0h0m-87.071 74.609 84.492 57.188m0 0h0m-81.562 66.406 78.633 65m0 0h0m-75.508 59.102 72.383 71.835m0 .001h0m-69.297 52.772 66.21 77.618m.001 0h0m-63.204 47.539 60.196 82.305m0 0h0m-57.422 43.281 54.649 86.133m0 0h0m-52.071 39.844 49.492 89.18m0 0h0m-47.187 37.109 44.883 91.601m0 0h0m-42.813 34.922 40.742 93.516m.001 0h0m-38.907 33.242 37.031 95.04m0 0h0m-35.39 31.835 33.789 96.25m0 0h0m102.109-2470.703 101.992.195m0 0h0M3434.002 295.38l101.992 1.72m0 0h0m-101.953 124.257 101.914 4.766m0 0h0m-101.757 120.469 101.601 9.336m.001 0h0m-101.212 115.156 100.82 15.312m0 0h0M3435.252 794.95l99.492 22.58m0 0h0m-98.359 100.82 97.227 30.82m0 0h0m-95.586 92.265 93.945 39.649m-.001 0h0m-91.796 83.359 89.649 48.594m0 0h0m-87.071 74.609 84.492 57.188m0 0h0m-81.562 66.406 78.633 65m0 0h0m-75.508 59.102 72.383 71.835m0 .001h0m-69.297 52.772 66.21 77.618m.001 0h0m-63.204 47.539 60.196 82.305m0 0h0m-57.422 43.281 54.649 86.133m0 0h0m-52.071 39.844 49.492 89.18m0 0h0m-47.187 37.109 44.883 91.601m0 0h0m-42.813 34.922 40.742 93.516m.001 0h0m-38.907 33.242 37.031 95.04m0 0h0m-35.39 31.835 33.75 96.25m0 0h0" transform="matrix(.1 0 0 -.1 394.424 275.499)"/><path style="fill:none;stroke-width:12.5;stroke-linecap:round;stroke-linejoin:miter;stroke:#006400;stroke-opacity:1;stroke-miterlimit:10" d="m1020.018 954.99 850 283.36m0 0 850 503.671" transform="matrix(.1 0 0 -.1 394.424 275.499)"/></svg>