<svg xmlns="http://www.w3.org/2000/svg" xmlns:xlink="http://www.w3.org/1999/xlink" width="982.565" height="347.999" viewBox="0 0 736.924 260.999"><defs><clipPath id="a"><path d="M179 8.16h1v242.25h-1zm0 0"/></clipPath><clipPath id="b"><path d="M19.5 239h320v1h-320zm0 0"/></clipPath><clipPath id="c"><path d="M19.5 8.16h.5v242.25h-.5zm0 0"/></clipPath><clipPath id="d"><path d="M72 8.16h2v242.25h-2zm0 0"/></clipPath><clipPath id="e"><path d="M125 8.16h2v242.25h-2zm0 0"/></clipPath><clipPath id="f"><path d="M179 8.16h1v242.25h-1zm0 0"/></clipPath><clipPath id="g"><path d="M232 8.16h2v242.25h-2zm0 0"/></clipPath><clipPath id="h"><path d="M285 8.16h2v242.25h-2zm0 0"/></clipPath><clipPath id="i"><path d="M339 8.16h.5v242.25h-.5zm0 0"/></clipPath><clipPath id="j"><path d="M19.5 239h320v1h-320zm0 0"/></clipPath><clipPath id="k"><path d="M19.5 184h320v1h-320zm0 0"/></clipPath><clipPath id="l"><path d="M19.5 129h320v1h-320zm0 0"/></clipPath><clipPath id="m"><path d="M19.5 73h320v2h-320zm0 0"/></clipPath><clipPath id="n"><path d="M19.5 18h320v2h-320zm0 0"/></clipPath><clipPath id="t"><path d="M16 .5h7V7h-7zm0 0"/></clipPath><clipPath id="u"><path d="M69 .5h7V6h-7zm0 0"/></clipPath><clipPath id="v"><path d="M123 .5h5V6h-5zm0 0"/></clipPath><clipPath id="w"><path d="M177 .5h5V7h-5zm0 0"/></clipPath><clipPath id="x"><path d="M231 .5h3V6h-3zm0 0"/></clipPath><clipPath id="y"><path d="M284 .5h4V6h-4zm0 0"/></clipPath><clipPath id="z"><path d="M337 .5h5V7h-5zm0 0"/></clipPath><clipPath id="A"><path d="M.5 237H14v6H.5zm0 0"/></clipPath><clipPath id="C"><path d="M.5 182H14v6H.5zm0 0"/></clipPath><clipPath id="E"><path d="M.5 127H14v6H.5zm0 0"/></clipPath><clipPath id="F"><path d="M.5 72H14v6H.5zm0 0"/></clipPath><clipPath id="H"><path d="M345 237h13.5v6H345zm0 0"/></clipPath><clipPath id="I"><path d="M345 182h13.5v6H345zm0 0"/></clipPath><clipPath id="J"><path d="M345 127h13.5v6H345zm0 0"/></clipPath><clipPath id="K"><path d="M345 72h13.5v6H345zm0 0"/></clipPath><clipPath id="L"><path d="M345 17h13.5v6H345zm0 0"/></clipPath><clipPath id="M"><path d="M19.5 18h320v222h-320zm0 0"/></clipPath><clipPath id="N"><path d="M557 8.16h1v242.25h-1zm0 0"/></clipPath><clipPath id="O"><path d="M397.426 239h320v1h-320zm0 0"/></clipPath><clipPath id="P"><path d="M397.426 8.16H398v242.25h-.574zm0 0"/></clipPath><clipPath id="Q"><path d="M450 8.16h2v242.25h-2zm0 0"/></clipPath><clipPath id="R"><path d="M503 8.16h2v242.25h-2zm0 0"/></clipPath><clipPath id="S"><path d="M557 8.16h1v242.25h-1zm0 0"/></clipPath><clipPath id="T"><path d="M610 8.16h2v242.25h-2zm0 0"/></clipPath><clipPath id="U"><path d="M663 8.16h2v242.25h-2zm0 0"/></clipPath><clipPath id="V"><path d="M717 8.16h.426v242.25H717zm0 0"/></clipPath><clipPath id="W"><path d="M397.426 239h320v1h-320zm0 0"/></clipPath><clipPath id="X"><path d="M397.426 184h320v1h-320zm0 0"/></clipPath><clipPath id="Y"><path d="M397.426 129h320v1h-320zm0 0"/></clipPath><clipPath id="Z"><path d="M397.426 73h320v2h-320zm0 0"/></clipPath><clipPath id="aa"><path d="M397.426 18h320v2h-320zm0 0"/></clipPath><clipPath id="ab"><path d="M394 .5h7V7h-7zm0 0"/></clipPath><clipPath id="ac"><path d="M447 .5h7V6h-7zm0 0"/></clipPath><clipPath id="ad"><path d="M500 .5h6V6h-6zm0 0"/></clipPath><clipPath id="ae"><path d="M555 .5h4V7h-4zm0 0"/></clipPath><clipPath id="af"><path d="M609 .5h3V6h-3zm0 0"/></clipPath><clipPath id="ag"><path d="M662 .5h4V6h-4zm0 0"/></clipPath><clipPath id="ah"><path d="M715 .5h4V7h-4zm0 0"/></clipPath><clipPath id="ai"><path d="M378.426 237H392v6h-13.574zm0 0"/></clipPath><clipPath id="aj"><path d="M378.426 182H392v6h-13.574zm0 0"/></clipPath><clipPath id="ak"><path d="M378.426 127H392v6h-13.574zm0 0"/></clipPath><clipPath id="al"><path d="M378.426 72H392v6h-13.574zm0 0"/></clipPath><clipPath id="am"><path d="M723 237h13.426v6H723zm0 0"/></clipPath><clipPath id="an"><path d="M723 182h13.426v6H723zm0 0"/></clipPath><clipPath id="ao"><path d="M723 127h13.426v6H723zm0 0"/></clipPath><clipPath id="ap"><path d="M723 72h13.426v6H723zm0 0"/></clipPath><clipPath id="aq"><path d="M723 17h13.426v6H723zm0 0"/></clipPath><clipPath id="ar"><path d="M397.426 18h320v222h-320zm0 0"/></clipPath><symbol overflow="visible" id="o"><path style="stroke:none" d="M1.953-2.14H.313v.5h1.64zm0 0"/></symbol><symbol overflow="visible" id="p"><path style="stroke:none" d="M1.516-2.281h.328c.656 0 1.015.312 1.015.906 0 .625-.39 1-1 1-.671 0-1-.344-1.03-1.063h-.61c.031.391.093.657.218.875.25.485.72.72 1.391.72 1 0 1.64-.595 1.64-1.532 0-.64-.234-.984-.827-1.188.453-.187.687-.53.687-1.03 0-.845-.562-1.36-1.484-1.36-.985 0-1.5.547-1.516 1.594h.594c.015-.297.031-.47.11-.61.14-.281.437-.453.827-.453.532 0 .844.328.844.86 0 .343-.11.562-.39.671-.157.079-.376.094-.797.11zm0 0"/></symbol><symbol overflow="visible" id="q"><path style="stroke:none" d="M3.469-.594H.906c.063-.406.281-.672.89-1.031l.673-.39C3.156-2.392 3.5-2.892 3.5-3.5c0-.422-.156-.797-.453-1.063-.281-.265-.64-.39-1.094-.39-.625 0-1.078.219-1.344.64-.171.266-.25.579-.265 1.079h.61c.015-.344.062-.532.14-.704a.922.922 0 0 1 .828-.484c.547 0 .969.39.969.938 0 .39-.235.734-.657.984l-.64.36C.578-1.548.28-1.095.234 0H3.47zm0 0"/></symbol><symbol overflow="visible" id="r"><path style="stroke:none" d="M1.781-3.531V0h.594v-4.953h-.39c-.22.766-.36.875-1.282.984v.438zm0 0"/></symbol><symbol overflow="visible" id="s"><path style="stroke:none" d="M1.89-4.953c-.452 0-.874.203-1.124.547-.313.437-.47 1.093-.47 2.015C.297-.719.845.156 1.892.156c1.03 0 1.593-.875 1.593-2.515 0-.954-.156-1.594-.484-2.047a1.355 1.355 0 0 0-1.11-.547zm0 .531c.641 0 .97.672.97 2.016C2.86-1 2.546-.344 1.874-.344c-.64 0-.969-.687-.969-2.047 0-1.359.328-2.03.985-2.03zm0 0"/></symbol><symbol overflow="visible" id="B"><path style="stroke:none" d="M1.313-.719h-.72V0h.72zm0 0"/></symbol><symbol overflow="visible" id="D"><path style="stroke:none" d="M3.266-4.86H.75L.39-2.202h.563c.281-.344.516-.453.89-.453.657 0 1.063.437 1.063 1.156 0 .703-.406 1.125-1.062 1.125-.532 0-.86-.266-1-.813h-.61c.094.391.157.579.297.766.281.36.766.578 1.328.578.97 0 1.657-.703 1.657-1.734 0-.953-.641-1.625-1.563-1.625-.344 0-.625.094-.906.297l.187-1.344h2.032zm0 0"/></symbol><symbol overflow="visible" id="G"><path style="stroke:none" d="M3.563-4.86H.313v.61h2.624C1.782-2.61 1.313-1.594.954 0h.64c.266-1.547.876-2.89 1.97-4.344zm0 0"/></symbol></defs><path style="stroke:none;fill-rule:nonzero;fill:#fff;fill-opacity:1" d="M19.5 250.41h320V8.16h-320zm0 0"/><g clip-path="url(#a)"><path style="fill:none;stroke-width:5.70714;stroke-linecap:round;stroke-linejoin:miter;stroke:#bfbfbf;stroke-opacity:1;stroke-miterlimit:10" d="M1997.503-211.153V-2636.69" transform="matrix(.10013 0 0 .09987 -20.5 271.499)"/></g><g clip-path="url(#b)"><path style="fill:none;stroke-width:5.70714;stroke-linecap:round;stroke-linejoin:miter;stroke:#bfbfbf;stroke-opacity:1;stroke-miterlimit:10" d="M399.5-321.408h3196.006" transform="matrix(.10013 0 0 .09987 -20.5 271.499)"/></g><g clip-path="url(#c)"><path style="fill:none;stroke-width:5.70714;stroke-linecap:round;stroke-linejoin:miter;stroke:#bfbfbf;stroke-opacity:1;stroke-dasharray:11.4143,17.1214;stroke-miterlimit:10" d="M399.5-211.153V-2636.69" transform="matrix(.10013 0 0 .09987 -20.5 271.499)"/></g><g clip-path="url(#d)"><path style="fill:none;stroke-width:5.70714;stroke-linecap:round;stroke-linejoin:miter;stroke:#bfbfbf;stroke-opacity:1;stroke-dasharray:11.4143,17.1214;stroke-miterlimit:10" d="M932.155-211.153V-2636.69" transform="matrix(.10013 0 0 .09987 -20.5 271.499)"/></g><g clip-path="url(#e)"><path style="fill:none;stroke-width:5.70714;stroke-linecap:round;stroke-linejoin:miter;stroke:#bfbfbf;stroke-opacity:1;stroke-dasharray:11.4143,17.1214;stroke-miterlimit:10" d="M1464.849-211.153V-2636.69" transform="matrix(.10013 0 0 .09987 -20.5 271.499)"/></g><g clip-path="url(#f)"><path style="fill:none;stroke-width:5.70714;stroke-linecap:round;stroke-linejoin:miter;stroke:#bfbfbf;stroke-opacity:1;stroke-dasharray:11.4143,17.1214;stroke-miterlimit:10" d="M1997.503-211.153V-2636.69" transform="matrix(.10013 0 0 .09987 -20.5 271.499)"/></g><g clip-path="url(#g)"><path style="fill:none;stroke-width:5.70714;stroke-linecap:round;stroke-linejoin:miter;stroke:#bfbfbf;stroke-opacity:1;stroke-dasharray:11.4143,17.1214;stroke-miterlimit:10" d="M2530.158-211.153V-2636.69" transform="matrix(.10013 0 0 .09987 -20.5 271.499)"/></g><g clip-path="url(#h)"><path style="fill:none;stroke-width:5.70714;stroke-linecap:round;stroke-linejoin:miter;stroke:#bfbfbf;stroke-opacity:1;stroke-dasharray:11.4143,17.1214;stroke-miterlimit:10" d="M3062.851-211.153V-2636.69" transform="matrix(.10013 0 0 .09987 -20.5 271.499)"/></g><g clip-path="url(#i)"><path style="fill:none;stroke-width:5.70714;stroke-linecap:round;stroke-linejoin:miter;stroke:#bfbfbf;stroke-opacity:1;stroke-dasharray:11.4143,17.1214;stroke-miterlimit:10" d="M3595.506-211.153V-2636.69" transform="matrix(.10013 0 0 .09987 -20.5 271.499)"/></g><g clip-path="url(#j)"><path style="fill:none;stroke-width:5.70714;stroke-linecap:round;stroke-linejoin:miter;stroke:#bfbfbf;stroke-opacity:1;stroke-dasharray:11.4143,17.1214;stroke-miterlimit:10" d="M399.5-321.408h3196.006" transform="matrix(.10013 0 0 .09987 -20.5 271.499)"/></g><g clip-path="url(#k)"><path style="fill:none;stroke-width:5.70714;stroke-linecap:round;stroke-linejoin:miter;stroke:#bfbfbf;stroke-opacity:1;stroke-dasharray:11.4143,17.1214;stroke-miterlimit:10" d="M399.5-872.684h3196.006" transform="matrix(.10013 0 0 .09987 -20.5 271.499)"/></g><g clip-path="url(#l)"><path style="fill:none;stroke-width:5.70714;stroke-linecap:round;stroke-linejoin:miter;stroke:#bfbfbf;stroke-opacity:1;stroke-dasharray:11.4143,17.1214;stroke-miterlimit:10" d="M399.5-1423.921h3196.006" transform="matrix(.10013 0 0 .09987 -20.5 271.499)"/></g><g clip-path="url(#m)"><path style="fill:none;stroke-width:5.70714;stroke-linecap:round;stroke-linejoin:miter;stroke:#bfbfbf;stroke-opacity:1;stroke-dasharray:11.4143,17.1214;stroke-miterlimit:10" d="M399.5-1975.197h3196.006" transform="matrix(.10013 0 0 .09987 -20.5 271.499)"/></g><g clip-path="url(#n)"><path style="fill:none;stroke-width:5.70714;stroke-linecap:round;stroke-linejoin:miter;stroke:#bfbfbf;stroke-opacity:1;stroke-dasharray:11.4143,17.1214;stroke-miterlimit:10" d="M399.5-2526.434h3196.006" transform="matrix(.10013 0 0 .09987 -20.5 271.499)"/></g><path style="fill:none;stroke-width:11.4143;stroke-linecap:square;stroke-linejoin:miter;stroke:#000;stroke-opacity:1;stroke-miterlimit:10" d="M399.5-211.153h3196.006" transform="matrix(.10013 0 0 .09987 -20.5 271.499)"/><path style="fill:none;stroke-width:5.70714;stroke-linecap:butt;stroke-linejoin:miter;stroke:#000;stroke-opacity:1;stroke-miterlimit:10" d="M399.5-211.153v-45.682m0 45.682v-22.84m53.254 22.84v-22.84m53.293 22.84v-22.84m53.253 22.84v-22.84m53.255 22.84v-22.84m53.292 22.84v-22.84m53.254 22.84v-22.84m53.254 22.84v-22.84m53.293 22.84v-22.84m106.507 22.84v-45.682m0 45.682v-22.84m53.293 22.84v-22.84m53.254 22.84v-22.84m53.253 22.84v-22.84m53.293 22.84v-22.84m53.254 22.84v-22.84m53.254 22.84v-22.84m53.292 22.84v-22.84m53.254 22.84v-22.84m106.547 22.84v-45.682m0 45.682v-22.84m53.253 22.84v-22.84m53.254 22.84v-22.84m53.293 22.84v-22.84m53.254 22.84v-22.84m53.253 22.84v-22.84m53.294 22.84v-22.84m53.253 22.84v-22.84m53.254 22.84v-22.84m106.546 22.84v-45.682m0 45.682v-22.84m53.254 22.84v-22.84m53.293 22.84v-22.84m53.253 22.84v-22.84m53.254 22.84v-22.84m53.293 22.84v-22.84m53.254 22.84v-22.84m53.253 22.84v-22.84m53.293 22.84v-22.84m106.508 22.84v-45.682m0 45.682v-22.84m53.292 22.84v-22.84m53.254 22.84v-22.84m53.254 22.84v-22.84m53.292 22.84v-22.84m53.254 22.84v-22.84m53.254 22.84v-22.84m53.292 22.84v-22.84m53.255 22.84v-22.84m106.546 22.84v-45.682m0 45.682v-22.84m53.254 22.84v-22.84m53.254 22.84v-22.84m53.292 22.84v-22.84m53.254 22.84v-22.84m53.254 22.84v-22.84m53.293 22.84v-22.84m53.253 22.84v-22.84m53.255 22.84v-22.84m106.546 22.84v-45.682m0 45.682v-22.84" transform="matrix(.10013 0 0 .09987 -20.5 271.499)"/><g style="fill:#000;fill-opacity:1"><use xlink:href="#o" x="16.452" y="259.529"/><use xlink:href="#p" x="18.736" y="259.529"/></g><g style="fill:#000;fill-opacity:1"><use xlink:href="#o" x="69.595" y="259.529"/><use xlink:href="#q" x="71.878" y="259.529"/></g><g style="fill:#000;fill-opacity:1"><use xlink:href="#o" x="122.738" y="259.529"/><use xlink:href="#r" x="125.022" y="259.529"/></g><use xlink:href="#s" x="177.594" y="259.529" style="fill:#000;fill-opacity:1"/><use xlink:href="#r" x="230.737" y="259.529" style="fill:#000;fill-opacity:1"/><use xlink:href="#q" x="283.88" y="259.529" style="fill:#000;fill-opacity:1"/><use xlink:href="#p" x="337.595" y="259.529" style="fill:#000;fill-opacity:1"/><path style="fill:none;stroke-width:11.4143;stroke-linecap:square;stroke-linejoin:miter;stroke:#000;stroke-opacity:1;stroke-miterlimit:10" d="M399.5-2636.69h3196.006" transform="matrix(.10013 0 0 .09987 -20.5 271.499)"/><path style="fill:none;stroke-width:5.70714;stroke-linecap:butt;stroke-linejoin:miter;stroke:#000;stroke-opacity:1;stroke-miterlimit:10" d="M399.5-2636.69v45.644m0-45.644v22.802m53.254-22.802v22.802m53.293-22.802v22.802m53.253-22.802v22.802m53.255-22.802v22.802m53.292-22.802v22.802m53.254-22.802v22.802m53.254-22.802v22.802m53.293-22.802v22.802m106.507-22.802v45.644m0-45.644v22.802m53.293-22.802v22.802m53.254-22.802v22.802m53.253-22.802v22.802m53.293-22.802v22.802m53.254-22.802v22.802m53.254-22.802v22.802m53.292-22.802v22.802m53.254-22.802v22.802m106.547-22.802v45.644m0-45.644v22.802m53.253-22.802v22.802m53.254-22.802v22.802m53.293-22.802v22.802m53.254-22.802v22.802m53.253-22.802v22.802m53.294-22.802v22.802m53.253-22.802v22.802m53.254-22.802v22.802m106.546-22.802v45.644m0-45.644v22.802m53.254-22.802v22.802m53.293-22.802v22.802m53.253-22.802v22.802m53.254-22.802v22.802m53.293-22.802v22.802m53.254-22.802v22.802m53.253-22.802v22.802m53.293-22.802v22.802m106.508-22.802v45.644m0-45.644v22.802m53.292-22.802v22.802m53.254-22.802v22.802m53.254-22.802v22.802m53.292-22.802v22.802m53.254-22.802v22.802m53.254-22.802v22.802m53.292-22.802v22.802m53.255-22.802v22.802m106.546-22.802v45.644m0-45.644v22.802m53.254-22.802v22.802m53.254-22.802v22.802m53.292-22.802v22.802m53.254-22.802v22.802m53.254-22.802v22.802m53.293-22.802v22.802m53.253-22.802v22.802m53.255-22.802v22.802m106.546-22.802v45.644m0-45.644v22.802" transform="matrix(.10013 0 0 .09987 -20.5 271.499)"/><g style="fill:#000;fill-opacity:1" clip-path="url(#t)"><use xlink:href="#o" x="16.452" y="5.879"/><use xlink:href="#p" x="18.736" y="5.879"/></g><g style="fill:#000;fill-opacity:1" clip-path="url(#u)"><use xlink:href="#o" x="69.595" y="5.879"/><use xlink:href="#q" x="71.878" y="5.879"/></g><g style="fill:#000;fill-opacity:1" clip-path="url(#v)"><use xlink:href="#o" x="122.738" y="5.879"/><use xlink:href="#r" x="125.022" y="5.879"/></g><g clip-path="url(#w)"><use xlink:href="#s" x="177.594" y="5.879" style="fill:#000;fill-opacity:1"/></g><g clip-path="url(#x)"><use xlink:href="#r" x="230.737" y="5.879" style="fill:#000;fill-opacity:1"/></g><g clip-path="url(#y)"><use xlink:href="#q" x="283.88" y="5.879" style="fill:#000;fill-opacity:1"/></g><g clip-path="url(#z)"><use xlink:href="#p" x="337.595" y="5.879" style="fill:#000;fill-opacity:1"/></g><path style="fill:none;stroke-width:11.4143;stroke-linecap:square;stroke-linejoin:miter;stroke:#000;stroke-opacity:1;stroke-miterlimit:10" d="M399.5-211.153V-2636.69" transform="matrix(.10013 0 0 .09987 -20.5 271.499)"/><path style="fill:none;stroke-width:5.70714;stroke-linecap:butt;stroke-linejoin:miter;stroke:#000;stroke-opacity:1;stroke-miterlimit:10" d="M399.5-321.408h45.647m-45.647 0h22.824M399.5-376.555h22.824M399.5-431.663h22.824M399.5-486.81h22.824M399.5-541.918h22.824M399.5-597.066h22.824M399.5-652.174h22.824M399.5-707.282h22.824M399.5-762.429h22.824M399.5-872.684h45.647m-45.647 0h22.824M399.5-927.792h22.824M399.5-982.94h22.824m-22.824-55.107h22.824m-22.824-55.148h22.824m-22.824-55.108h22.824M399.5-1203.41h22.824m-22.824-55.148h22.824m-22.824-55.108h22.824M399.5-1423.921h45.647m-45.647 0h22.824m-22.824-55.147h22.824m-22.824-55.108h22.824m-22.824-55.148h22.824m-22.824-55.108h22.824m-22.824-55.147h22.824m-22.824-55.108h22.824m-22.824-55.147h22.824m-22.824-55.108h22.824M399.5-1975.197h45.647m-45.647 0h22.824m-22.824-55.108h22.824m-22.824-55.148h22.824M399.5-2140.56h22.824m-22.824-55.148h22.824m-22.824-55.108h22.824m-22.824-55.147h22.824m-22.824-55.108h22.824m-22.824-55.147h22.824M399.5-2526.434h45.647m-45.647 0h22.824m-22.824-55.148h22.824M399.5-2636.69h22.824" transform="matrix(.10013 0 0 .09987 -20.5 271.499)"/><g style="fill:#000;fill-opacity:1" clip-path="url(#A)"><use xlink:href="#s" x=".442" y="242.429"/><use xlink:href="#B" x="4.254" y="242.429"/><use xlink:href="#s" x="6.161" y="242.429"/><use xlink:href="#s" x="9.973" y="242.429"/></g><g style="fill:#000;fill-opacity:1" clip-path="url(#C)"><use xlink:href="#s" x=".442" y="187.709"/><use xlink:href="#B" x="4.254" y="187.709"/><use xlink:href="#q" x="6.161" y="187.709"/><use xlink:href="#D" x="9.973" y="187.709"/></g><g style="fill:#000;fill-opacity:1" clip-path="url(#E)"><use xlink:href="#s" x=".442" y="132.419"/><use xlink:href="#B" x="4.254" y="132.419"/><use xlink:href="#D" x="6.161" y="132.419"/><use xlink:href="#s" x="9.973" y="132.419"/></g><g style="fill:#000;fill-opacity:1" clip-path="url(#F)"><use xlink:href="#s" x=".442" y="77.129"/><use xlink:href="#B" x="4.254" y="77.129"/><use xlink:href="#G" x="6.161" y="77.129"/><use xlink:href="#D" x="9.973" y="77.129"/></g><g style="fill:#000;fill-opacity:1"><use xlink:href="#r" x=".442" y="22.409"/><use xlink:href="#B" x="4.254" y="22.409"/><use xlink:href="#s" x="6.161" y="22.409"/><use xlink:href="#s" x="9.973" y="22.409"/></g><path style="fill:none;stroke-width:11.4143;stroke-linecap:square;stroke-linejoin:miter;stroke:#000;stroke-opacity:1;stroke-miterlimit:10" d="M3595.506-211.153V-2636.69" transform="matrix(.10013 0 0 .09987 -20.5 271.499)"/><path style="fill:none;stroke-width:5.70714;stroke-linecap:butt;stroke-linejoin:miter;stroke:#000;stroke-opacity:1;stroke-miterlimit:10" d="M3595.506-321.408h-45.685m45.685 0h-22.823m22.823-55.147h-22.823m22.823-55.108h-22.823m22.823-55.147h-22.823m22.823-55.108h-22.823m22.823-55.148h-22.823m22.823-55.108h-22.823m22.823-55.108h-22.823m22.823-55.147h-22.823m22.823-110.255h-45.685m45.685 0h-22.823m22.823-55.108h-22.823m22.823-55.148h-22.823m22.823-55.107h-22.823m22.823-55.148h-22.823m22.823-55.108h-22.823m22.823-55.107h-22.823m22.823-55.148h-22.823m22.823-55.108h-22.823m22.823-110.255h-45.685m45.685 0h-22.823m22.823-55.147h-22.823m22.823-55.108h-22.823m22.823-55.148h-22.823m22.823-55.108h-22.823m22.823-55.147h-22.823m22.823-55.108h-22.823m22.823-55.147h-22.823m22.823-55.108h-22.823m22.823-110.255h-45.685m45.685 0h-22.823m22.823-55.108h-22.823m22.823-55.148h-22.823m22.823-55.107h-22.823m22.823-55.148h-22.823m22.823-55.108h-22.823m22.823-55.147h-22.823m22.823-55.108h-22.823m22.823-55.147h-22.823m22.823-110.216h-45.685m45.685 0h-22.823m22.823-55.148h-22.823m22.823-55.108h-22.823" transform="matrix(.10013 0 0 .09987 -20.5 271.499)"/><g style="fill:#000;fill-opacity:1" clip-path="url(#H)"><use xlink:href="#s" x="345.214" y="242.429"/><use xlink:href="#B" x="349.027" y="242.429"/><use xlink:href="#s" x="350.933" y="242.429"/><use xlink:href="#s" x="354.745" y="242.429"/></g><g style="fill:#000;fill-opacity:1" clip-path="url(#I)"><use xlink:href="#s" x="345.214" y="187.709"/><use xlink:href="#B" x="349.027" y="187.709"/><use xlink:href="#q" x="350.933" y="187.709"/><use xlink:href="#D" x="354.745" y="187.709"/></g><g style="fill:#000;fill-opacity:1" clip-path="url(#J)"><use xlink:href="#s" x="345.214" y="132.419"/><use xlink:href="#B" x="349.027" y="132.419"/><use xlink:href="#D" x="350.933" y="132.419"/><use xlink:href="#s" x="354.745" y="132.419"/></g><g style="fill:#000;fill-opacity:1" clip-path="url(#K)"><use xlink:href="#s" x="345.214" y="77.129"/><use xlink:href="#B" x="349.027" y="77.129"/><use xlink:href="#G" x="350.933" y="77.129"/><use xlink:href="#D" x="354.745" y="77.129"/></g><g style="fill:#000;fill-opacity:1" clip-path="url(#L)"><use xlink:href="#r" x="345.214" y="22.409"/><use xlink:href="#B" x="349.027" y="22.409"/><use xlink:href="#s" x="350.933" y="22.409"/><use xlink:href="#s" x="354.745" y="22.409"/></g><g clip-path="url(#M)"><path style="fill:none;stroke-width:11.4143;stroke-linecap:round;stroke-linejoin:round;stroke:#00008b;stroke-opacity:1;stroke-miterlimit:10" d="M399.54-321.408h769.116l9.169-.04h36.712l9.09-.038h9.246l9.09-.04h9.285l9.169-.038 9.09-.04 9.168-.039 9.09-.078 9.247-.078 9.05-.117 18.26-.235 9.245-.196 9.247-.234 9.09-.274 9.13-.313 9.128-.391 9.208-.47 9.129-.586 9.246-.704 9.168-.822 9.13-.977 9.129-1.174 9.09-1.369 9.285-1.642 9.051-1.878 9.13-2.229 9.129-2.62 9.207-3.09 9.285-3.598 9.051-4.068 9.169-4.733 9.09-5.397 9.246-6.297 9.13-7.079 9.246-8.174 9.168-9.23 9.129-10.365 9.13-11.695 9.09-13.063 9.246-14.862 9.05-16.231 9.13-18.187 9.168-20.143 4.604-10.95 4.604-11.46 4.642-12.125 4.604-12.672 4.564-13.024 4.526-13.611 4.565-14.354 4.603-14.98 4.565-15.488 4.525-16.153 4.604-17.092 4.604-17.756 4.603-18.265 4.526-18.93 4.643-19.908 4.603-20.65 4.604-21.16 4.603-21.902 4.526-22.529 2.302-11.538 2.263-11.694 2.301-11.929 2.302-12.085 2.263-12.32 2.302-12.438 2.263-12.594 2.262-12.711 2.263-12.946 2.302-13.102 2.302-13.494 2.302-13.689 2.34-13.884 2.302-14.041 2.263-13.924 2.263-14.08 2.263-14.237 2.262-14.432 2.302-14.667 2.263-14.862 2.302-15.019 2.263-15.136 2.301-15.37 2.263-15.489 2.302-15.684 2.302-15.8 2.263-16.036 2.302-16.192 2.34-16.349 2.302-16.466 2.302-16.7 2.302-16.818 2.302-16.936 2.34-17.052 2.263-16.857 2.263-16.936 2.302-17.052 2.263-17.131 2.262-17.405 2.302-17.483 2.302-17.6 2.263-17.639 2.302-17.64 2.262-17.638 2.263-17.757 2.263-17.796 2.34-18.108 4.604-36.374 2.302-18.265 2.302-18.07 2.263-18.07 2.302-18.108 2.262-18.108 2.302-18.383 2.341-18.343 2.302-18.304 2.302-18.343 2.302-18.148 2.301-18.07 2.263-18.07 2.302-18.03 2.263-17.874 2.302-17.795 2.262-17.757 2.302-17.678 2.263-17.64 2.302-17.56 2.302-17.444 2.262-17.366 2.302-17.13 2.263-17.014 2.263-16.857 2.263-16.779 2.34-16.896 2.302-16.74 2.302-16.622 2.34-16.388 2.264-15.918 2.262-15.723 2.263-15.527 2.263-15.371 2.263-15.254 2.302-15.057 2.262-14.824 2.302-14.627 2.263-14.393 2.302-14.159 2.263-13.923 2.301-13.69 2.302-13.493 2.302-13.22 2.302-12.985 2.302-12.672 2.34-12.437 2.302-12.125 2.302-11.811 2.341-11.538 4.526-21.629 4.525-20.377 4.604-19.243 4.564-17.835 4.565-16.31 4.526-14.862 4.642-13.61 4.604-12.086 9.13-19.203 4.603-7.353 4.642-5.71 1.132-1.174 1.131-1.056 2.302-1.838 1.17-.743 1.132-.665 1.131-.548 1.17-.43 1.132-.352 1.131-.274 1.132-.117 1.131-.04 1.17.04 1.132.156 1.131.274 1.132.352 1.17.47 1.132.547 1.17.665 1.092.743 2.302 1.877 2.302 2.23 4.526 5.632 4.564 7.196 9.246 19.517 4.526 11.85 4.526 13.338 4.564 14.901 4.565 16.349 4.603 17.834 4.565 19.165 4.604 20.65 4.603 21.982 2.302 11.537 2.34 11.851 2.303 12.125 2.302 12.476 2.262 12.477 2.302 12.75 2.263 13.024 2.263 13.298 2.302 13.69 2.262 13.923 2.302 14.197 2.302 14.433 2.263 14.549 2.263 14.784 2.301 14.98 2.263 15.175 2.302 15.645 2.302 15.84 2.302 16.036 4.603 32.384 2.263 16.388 2.302 16.505 2.302 16.7 2.301 17.014 2.302 17.17 2.302 17.287 2.302 17.444 2.302 17.404 2.302 17.483 2.262 17.6 4.604 35.357 2.263 17.757 2.302 17.795 2.262 17.874 2.302 17.991 2.263 18.03 2.302 18.07 2.263 18.109 2.301 18.03 6.789 54.092 2.34 18.382 4.604 36.686 2.341 18.344 4.526 35.748 2.262 17.834 2.263 17.757 2.263 17.874 2.302 17.835 2.263 17.717 2.301 17.679 2.302 17.639 2.263 17.561 2.302 17.483 2.263 17.365 2.34 17.405 2.302 17.326 2.263 17.17 2.34 17.131 2.303 17.053 2.301 16.935 2.341 16.818 2.302 16.661 2.263 16.232 2.263 16.074 2.263 15.958 2.301 15.84 2.263 15.84 2.302 15.645 2.302 15.527 2.263 15.41 2.301 15.097 2.263 14.94 2.263 14.824 2.302 14.628 2.263 14.705 2.34 14.51 2.302 14.355 2.302 14.197 2.302 13.846 2.263 13.65 2.301 13.532 2.263 13.298 2.302 13.337 2.34 13.141 2.303 12.946 2.301 12.79 2.302 12.476 2.263 12.32 2.302 12.125 2.302 11.929 2.262 11.694 2.302 11.5 4.565 22.488 4.565 21.864 4.564 21.12 4.565 20.26 4.525 19.594 4.643 19.204 4.604 18.5 4.564 17.443 4.526 16.74 4.564 16.231 4.565 15.567 4.565 14.98 4.564 14.314 4.604 13.846 4.603 13.22 4.643 12.672 4.604 12.085 9.09 22.098 9.168 20.181 9.09 18.11 9.247 16.543 9.129 14.667 9.246 13.298 9.168 11.694 9.09 10.365 9.169 9.152 9.09 8.057 9.246 7.196 9.051 6.18 9.13 5.397 9.168 4.733 9.207 4.146 9.246 3.598 9.09 3.011 9.13 2.621 9.129 2.23 9.207 1.955 9.13 1.603 9.246 1.408 9.168 1.135 9.13.977 9.167.822 9.09.704 9.247.587 9.05.469 9.13.391 9.13.313 9.207.274 9.285.234 9.09.196 9.13.117 9.09.118 9.246.117 9.129.078 9.246.078 9.168.04 18.259.078h9.09l9.246.039h9.051l9.13.039h36.712l9.168.039h769.234" transform="matrix(.10013 0 0 .09987 -20.5 271.499)"/></g><path style="stroke:none;fill-rule:nonzero;fill:#fff;fill-opacity:1" d="M397.426 250.41h320V8.16h-320zm0 0"/><g clip-path="url(#N)"><path style="fill:none;stroke-width:5.70714;stroke-linecap:round;stroke-linejoin:miter;stroke:#bfbfbf;stroke-opacity:1;stroke-miterlimit:10" d="M1997.482-211.153V-2636.69" transform="matrix(.10013 0 0 .09987 357.424 271.499)"/></g><g clip-path="url(#O)"><path style="fill:none;stroke-width:5.70714;stroke-linecap:round;stroke-linejoin:miter;stroke:#bfbfbf;stroke-opacity:1;stroke-miterlimit:10" d="M399.518-321.408h3195.966" transform="matrix(.10013 0 0 .09987 357.424 271.499)"/></g><g clip-path="url(#P)"><path style="fill:none;stroke-width:5.70714;stroke-linecap:round;stroke-linejoin:miter;stroke:#bfbfbf;stroke-opacity:1;stroke-dasharray:11.4143,17.1214;stroke-miterlimit:10" d="M399.518-211.153V-2636.69" transform="matrix(.10013 0 0 .09987 357.424 271.499)"/></g><g clip-path="url(#Q)"><path style="fill:none;stroke-width:5.70714;stroke-linecap:round;stroke-linejoin:miter;stroke:#bfbfbf;stroke-opacity:1;stroke-dasharray:11.4143,17.1214;stroke-miterlimit:10" d="M932.173-211.153V-2636.69" transform="matrix(.10013 0 0 .09987 357.424 271.499)"/></g><g clip-path="url(#R)"><path style="fill:none;stroke-width:5.70714;stroke-linecap:round;stroke-linejoin:miter;stroke:#bfbfbf;stroke-opacity:1;stroke-dasharray:11.4143,17.1214;stroke-miterlimit:10" d="M1464.827-211.153V-2636.69" transform="matrix(.10013 0 0 .09987 357.424 271.499)"/></g><g clip-path="url(#S)"><path style="fill:none;stroke-width:5.70714;stroke-linecap:round;stroke-linejoin:miter;stroke:#bfbfbf;stroke-opacity:1;stroke-dasharray:11.4143,17.1214;stroke-miterlimit:10" d="M1997.482-211.153V-2636.69" transform="matrix(.10013 0 0 .09987 357.424 271.499)"/></g><g clip-path="url(#T)"><path style="fill:none;stroke-width:5.70714;stroke-linecap:round;stroke-linejoin:miter;stroke:#bfbfbf;stroke-opacity:1;stroke-dasharray:11.4143,17.1214;stroke-miterlimit:10" d="M2530.175-211.153V-2636.69" transform="matrix(.10013 0 0 .09987 357.424 271.499)"/></g><g clip-path="url(#U)"><path style="fill:none;stroke-width:5.70714;stroke-linecap:round;stroke-linejoin:miter;stroke:#bfbfbf;stroke-opacity:1;stroke-dasharray:11.4143,17.1214;stroke-miterlimit:10" d="M3062.83-211.153V-2636.69" transform="matrix(.10013 0 0 .09987 357.424 271.499)"/></g><g clip-path="url(#V)"><path style="fill:none;stroke-width:5.70714;stroke-linecap:round;stroke-linejoin:miter;stroke:#bfbfbf;stroke-opacity:1;stroke-dasharray:11.4143,17.1214;stroke-miterlimit:10" d="M3595.484-211.153V-2636.69" transform="matrix(.10013 0 0 .09987 357.424 271.499)"/></g><g clip-path="url(#W)"><path style="fill:none;stroke-width:5.70714;stroke-linecap:round;stroke-linejoin:miter;stroke:#bfbfbf;stroke-opacity:1;stroke-dasharray:11.4143,17.1214;stroke-miterlimit:10" d="M399.518-321.408h3195.966" transform="matrix(.10013 0 0 .09987 357.424 271.499)"/></g><g clip-path="url(#X)"><path style="fill:none;stroke-width:5.70714;stroke-linecap:round;stroke-linejoin:miter;stroke:#bfbfbf;stroke-opacity:1;stroke-dasharray:11.4143,17.1214;stroke-miterlimit:10" d="M399.518-872.684h3195.966" transform="matrix(.10013 0 0 .09987 357.424 271.499)"/></g><g clip-path="url(#Y)"><path style="fill:none;stroke-width:5.70714;stroke-linecap:round;stroke-linejoin:miter;stroke:#bfbfbf;stroke-opacity:1;stroke-dasharray:11.4143,17.1214;stroke-miterlimit:10" d="M399.518-1423.921h3195.966" transform="matrix(.10013 0 0 .09987 357.424 271.499)"/></g><g clip-path="url(#Z)"><path style="fill:none;stroke-width:5.70714;stroke-linecap:round;stroke-linejoin:miter;stroke:#bfbfbf;stroke-opacity:1;stroke-dasharray:11.4143,17.1214;stroke-miterlimit:10" d="M399.518-1975.197h3195.966" transform="matrix(.10013 0 0 .09987 357.424 271.499)"/></g><g clip-path="url(#aa)"><path style="fill:none;stroke-width:5.70714;stroke-linecap:round;stroke-linejoin:miter;stroke:#bfbfbf;stroke-opacity:1;stroke-dasharray:11.4143,17.1214;stroke-miterlimit:10" d="M399.518-2526.434h3195.966" transform="matrix(.10013 0 0 .09987 357.424 271.499)"/></g><path style="fill:none;stroke-width:11.4143;stroke-linecap:square;stroke-linejoin:miter;stroke:#000;stroke-opacity:1;stroke-miterlimit:10" d="M399.518-211.153h3195.966" transform="matrix(.10013 0 0 .09987 357.424 271.499)"/><path style="fill:none;stroke-width:5.70714;stroke-linecap:butt;stroke-linejoin:miter;stroke:#000;stroke-opacity:1;stroke-miterlimit:10" d="M399.518-211.153v-45.682m0 45.682v-22.84m53.254 22.84v-22.84m53.254 22.84v-22.84m53.293 22.84v-22.84m53.253 22.84v-22.84m53.254 22.84v-22.84m53.293 22.84v-22.84m53.254 22.84v-22.84m53.253 22.84v-22.84m106.547 22.84v-45.682m0 45.682v-22.84m53.254 22.84v-22.84m53.293 22.84v-22.84m53.253 22.84v-22.84m53.254 22.84v-22.84m53.253 22.84v-22.84m53.293 22.84v-22.84m53.254 22.84v-22.84m53.253 22.84v-22.84m106.547 22.84v-45.682m0 45.682v-22.84m53.254 22.84v-22.84m53.293 22.84v-22.84m53.254 22.84v-22.84m53.253 22.84v-22.84m53.293 22.84v-22.84m53.254 22.84v-22.84m53.254 22.84v-22.84m53.292 22.84v-22.84m106.508 22.84v-45.682m0 45.682v-22.84m53.293 22.84v-22.84m53.253 22.84v-22.84m53.254 22.84v-22.84m53.293 22.84v-22.84m53.254 22.84v-22.84m53.253 22.84v-22.84m53.293 22.84v-22.84m53.254 22.84v-22.84m106.546 22.84v-45.682m0 45.682v-22.84m53.255 22.84v-22.84m53.253 22.84v-22.84m53.293 22.84v-22.84m53.254 22.84v-22.84m53.253 22.84v-22.84m53.293 22.84v-22.84m53.254 22.84v-22.84m53.253 22.84v-22.84m106.547 22.84v-45.682m0 45.682v-22.84m53.254 22.84v-22.84m53.292 22.84v-22.84m53.254 22.84v-22.84m53.254 22.84v-22.84m53.293 22.84v-22.84m53.253 22.84v-22.84m53.254 22.84v-22.84m53.293 22.84v-22.84m106.507 22.84v-45.682m0 45.682v-22.84" transform="matrix(.10013 0 0 .09987 357.424 271.499)"/><g style="fill:#000;fill-opacity:1"><use xlink:href="#o" x="394.376" y="259.529"/><use xlink:href="#p" x="396.66" y="259.529"/></g><g style="fill:#000;fill-opacity:1"><use xlink:href="#o" x="447.519" y="259.529"/><use xlink:href="#q" x="449.802" y="259.529"/></g><g style="fill:#000;fill-opacity:1"><use xlink:href="#o" x="500.662" y="259.529"/><use xlink:href="#r" x="502.946" y="259.529"/></g><use xlink:href="#s" x="555.518" y="259.529" style="fill:#000;fill-opacity:1"/><use xlink:href="#r" x="608.661" y="259.529" style="fill:#000;fill-opacity:1"/><use xlink:href="#q" x="661.804" y="259.529" style="fill:#000;fill-opacity:1"/><use xlink:href="#p" x="715.519" y="259.529" style="fill:#000;fill-opacity:1"/><path style="fill:none;stroke-width:11.4143;stroke-linecap:square;stroke-linejoin:miter;stroke:#000;stroke-opacity:1;stroke-miterlimit:10" d="M399.518-2636.69h3195.966" transform="matrix(.10013 0 0 .09987 357.424 271.499)"/><path style="fill:none;stroke-width:5.70714;stroke-linecap:butt;stroke-linejoin:miter;stroke:#000;stroke-opacity:1;stroke-miterlimit:10" d="M399.518-2636.69v45.644m0-45.644v22.802m53.254-22.802v22.802m53.254-22.802v22.802m53.293-22.802v22.802m53.253-22.802v22.802m53.254-22.802v22.802m53.293-22.802v22.802m53.254-22.802v22.802m53.253-22.802v22.802m106.547-22.802v45.644m0-45.644v22.802m53.254-22.802v22.802m53.293-22.802v22.802m53.253-22.802v22.802m53.254-22.802v22.802m53.253-22.802v22.802m53.293-22.802v22.802m53.254-22.802v22.802m53.253-22.802v22.802m106.547-22.802v45.644m0-45.644v22.802m53.254-22.802v22.802m53.293-22.802v22.802m53.254-22.802v22.802m53.253-22.802v22.802m53.293-22.802v22.802m53.254-22.802v22.802m53.254-22.802v22.802m53.292-22.802v22.802m106.508-22.802v45.644m0-45.644v22.802m53.293-22.802v22.802m53.253-22.802v22.802m53.254-22.802v22.802m53.293-22.802v22.802m53.254-22.802v22.802m53.253-22.802v22.802m53.293-22.802v22.802m53.254-22.802v22.802m106.546-22.802v45.644m0-45.644v22.802m53.255-22.802v22.802m53.253-22.802v22.802m53.293-22.802v22.802m53.254-22.802v22.802m53.253-22.802v22.802m53.293-22.802v22.802m53.254-22.802v22.802m53.253-22.802v22.802m106.547-22.802v45.644m0-45.644v22.802m53.254-22.802v22.802m53.292-22.802v22.802m53.254-22.802v22.802m53.254-22.802v22.802m53.293-22.802v22.802m53.253-22.802v22.802m53.254-22.802v22.802m53.293-22.802v22.802m106.507-22.802v45.644m0-45.644v22.802" transform="matrix(.10013 0 0 .09987 357.424 271.499)"/><g style="fill:#000;fill-opacity:1" clip-path="url(#ab)"><use xlink:href="#o" x="394.376" y="5.879"/><use xlink:href="#p" x="396.66" y="5.879"/></g><g style="fill:#000;fill-opacity:1" clip-path="url(#ac)"><use xlink:href="#o" x="447.519" y="5.879"/><use xlink:href="#q" x="449.802" y="5.879"/></g><g style="fill:#000;fill-opacity:1" clip-path="url(#ad)"><use xlink:href="#o" x="500.662" y="5.879"/><use xlink:href="#r" x="502.946" y="5.879"/></g><g clip-path="url(#ae)"><use xlink:href="#s" x="555.518" y="5.879" style="fill:#000;fill-opacity:1"/></g><g clip-path="url(#af)"><use xlink:href="#r" x="608.661" y="5.879" style="fill:#000;fill-opacity:1"/></g><g clip-path="url(#ag)"><use xlink:href="#q" x="661.804" y="5.879" style="fill:#000;fill-opacity:1"/></g><g clip-path="url(#ah)"><use xlink:href="#p" x="715.519" y="5.879" style="fill:#000;fill-opacity:1"/></g><path style="fill:none;stroke-width:11.4143;stroke-linecap:square;stroke-linejoin:miter;stroke:#000;stroke-opacity:1;stroke-miterlimit:10" d="M399.518-211.153V-2636.69" transform="matrix(.10013 0 0 .09987 357.424 271.499)"/><path style="fill:none;stroke-width:5.70714;stroke-linecap:butt;stroke-linejoin:miter;stroke:#000;stroke-opacity:1;stroke-miterlimit:10" d="M399.518-321.408h45.646m-45.646 0h22.823m-22.823-55.147h22.823m-22.823-55.108h22.823m-22.823-55.147h22.823m-22.823-55.108h22.823m-22.823-55.148h22.823m-22.823-55.108h22.823m-22.823-55.108h22.823m-22.823-55.147h22.823m-22.823-110.255h45.646m-45.646 0h22.823m-22.823-55.108h22.823m-22.823-55.148h22.823m-22.823-55.107h22.823m-22.823-55.148h22.823m-22.823-55.108h22.823m-22.823-55.107h22.823m-22.823-55.148h22.823m-22.823-55.108h22.823m-22.823-110.255h45.646m-45.646 0h22.823m-22.823-55.147h22.823m-22.823-55.108h22.823m-22.823-55.148h22.823m-22.823-55.108h22.823m-22.823-55.147h22.823m-22.823-55.108h22.823m-22.823-55.147h22.823m-22.823-55.108h22.823m-22.823-110.255h45.646m-45.646 0h22.823m-22.823-55.108h22.823m-22.823-55.148h22.823m-22.823-55.107h22.823m-22.823-55.148h22.823m-22.823-55.108h22.823m-22.823-55.147h22.823m-22.823-55.108h22.823m-22.823-55.147h22.823m-22.823-110.216h45.646m-45.646 0h22.823m-22.823-55.148h22.823m-22.823-55.147h22.823" transform="matrix(.10013 0 0 .09987 357.424 271.499)"/><g style="fill:#000;fill-opacity:1" clip-path="url(#ai)"><use xlink:href="#s" x="378.366" y="242.429"/><use xlink:href="#B" x="382.178" y="242.429"/><use xlink:href="#s" x="384.085" y="242.429"/><use xlink:href="#s" x="387.897" y="242.429"/></g><g style="fill:#000;fill-opacity:1" clip-path="url(#aj)"><use xlink:href="#s" x="378.366" y="187.709"/><use xlink:href="#B" x="382.178" y="187.709"/><use xlink:href="#q" x="384.085" y="187.709"/><use xlink:href="#D" x="387.897" y="187.709"/></g><g style="fill:#000;fill-opacity:1" clip-path="url(#ak)"><use xlink:href="#s" x="378.366" y="132.419"/><use xlink:href="#B" x="382.178" y="132.419"/><use xlink:href="#D" x="384.085" y="132.419"/><use xlink:href="#s" x="387.897" y="132.419"/></g><g style="fill:#000;fill-opacity:1" clip-path="url(#al)"><use xlink:href="#s" x="378.366" y="77.129"/><use xlink:href="#B" x="382.178" y="77.129"/><use xlink:href="#G" x="384.085" y="77.129"/><use xlink:href="#D" x="387.897" y="77.129"/></g><g style="fill:#000;fill-opacity:1"><use xlink:href="#r" x="378.366" y="22.409"/><use xlink:href="#B" x="382.178" y="22.409"/><use xlink:href="#s" x="384.085" y="22.409"/><use xlink:href="#s" x="387.897" y="22.409"/></g><path style="fill:none;stroke-width:11.4143;stroke-linecap:square;stroke-linejoin:miter;stroke:#000;stroke-opacity:1;stroke-miterlimit:10" d="M3595.484-211.153V-2636.69" transform="matrix(.10013 0 0 .09987 357.424 271.499)"/><path style="fill:none;stroke-width:5.70714;stroke-linecap:butt;stroke-linejoin:miter;stroke:#000;stroke-opacity:1;stroke-miterlimit:10" d="M3595.484-321.408h-45.646m45.646 0h-22.823m22.823-55.147h-22.823m22.823-55.108h-22.823m22.823-55.147h-22.823m22.823-55.108h-22.823m22.823-55.148h-22.823m22.823-55.108h-22.823m22.823-55.108h-22.823m22.823-55.147h-22.823m22.823-110.255h-45.646m45.646 0h-22.823m22.823-55.108h-22.823m22.823-55.148h-22.823m22.823-55.107h-22.823m22.823-55.148h-22.823m22.823-55.108h-22.823m22.823-55.107h-22.823m22.823-55.148h-22.823m22.823-55.108h-22.823m22.823-110.255h-45.646m45.646 0h-22.823m22.823-55.147h-22.823m22.823-55.108h-22.823m22.823-55.148h-22.823m22.823-55.108h-22.823m22.823-55.147h-22.823m22.823-55.108h-22.823m22.823-55.147h-22.823m22.823-55.108h-22.823m22.823-110.255h-45.646m45.646 0h-22.823m22.823-55.108h-22.823m22.823-55.148h-22.823m22.823-55.107h-22.823m22.823-55.148h-22.823m22.823-55.108h-22.823m22.823-55.147h-22.823m22.823-55.108h-22.823m22.823-55.147h-22.823m22.823-110.216h-45.646m45.646 0h-22.823m22.823-55.148h-22.823m22.823-55.147h-22.823" transform="matrix(.10013 0 0 .09987 357.424 271.499)"/><g style="fill:#000;fill-opacity:1" clip-path="url(#am)"><use xlink:href="#s" x="723.138" y="242.429"/><use xlink:href="#B" x="726.951" y="242.429"/><use xlink:href="#s" x="728.857" y="242.429"/><use xlink:href="#s" x="732.669" y="242.429"/></g><g style="fill:#000;fill-opacity:1" clip-path="url(#an)"><use xlink:href="#s" x="723.138" y="187.709"/><use xlink:href="#B" x="726.951" y="187.709"/><use xlink:href="#q" x="728.857" y="187.709"/><use xlink:href="#D" x="732.669" y="187.709"/></g><g style="fill:#000;fill-opacity:1" clip-path="url(#ao)"><use xlink:href="#s" x="723.138" y="132.419"/><use xlink:href="#B" x="726.951" y="132.419"/><use xlink:href="#D" x="728.857" y="132.419"/><use xlink:href="#s" x="732.669" y="132.419"/></g><g style="fill:#000;fill-opacity:1" clip-path="url(#ap)"><use xlink:href="#s" x="723.138" y="77.129"/><use xlink:href="#B" x="726.951" y="77.129"/><use xlink:href="#G" x="728.857" y="77.129"/><use xlink:href="#D" x="732.669" y="77.129"/></g><g style="fill:#000;fill-opacity:1" clip-path="url(#aq)"><use xlink:href="#r" x="723.138" y="22.409"/><use xlink:href="#B" x="726.951" y="22.409"/><use xlink:href="#s" x="728.857" y="22.409"/><use xlink:href="#s" x="732.669" y="22.409"/></g><g clip-path="url(#ar)"><path style="fill:none;stroke-width:11.4143;stroke-linecap:round;stroke-linejoin:round;stroke:#00008b;stroke-opacity:1;stroke-miterlimit:10" d="M399.518-321.408h1300.406l9.13-.04h36.516l9.285-.038h9.09l9.169-.04h9.168l9.246-.038 9.13-.04 9.207-.039 9.051-.078 9.207-.078 9.13-.078 9.207-.118 9.129-.156 9.051-.157 9.168-.234 9.286-.235 9.012-.313 9.285-.39 9.09-.47 9.169-.548 9.129-.665 9.246-.821 9.13-.939 9.206-1.173 9.052-1.29 9.246-1.604 9.13-1.878 9.206-2.19 9.09-2.542 9.09-2.973 9.169-3.441 9.285-4.068 8.973-4.537 9.286-5.397 9.09-6.063 9.168-6.961 9.168-7.94 9.247-9.074 9.129-10.169 9.207-11.577 9.051-12.75 9.207-14.51 9.13-16.075 9.207-18.03 9.13-19.791 9.05-21.707 4.604-11.812 4.604-12.359 4.642-13.102 4.604-13.69 4.525-13.923 4.487-14.51 4.643-15.567 4.642-16.27 4.526-16.583 4.564-17.288 4.565-18.108 4.604-18.774 4.564-19.477 4.604-20.182 4.603-21.12 4.643-21.785 4.526-22.333 2.302-11.42 2.301-11.616 2.302-11.89 2.302-12.086 2.302-12.242 2.302-12.437 2.262-12.398 2.263-12.555 2.263-12.75 2.263-12.907 2.302-13.337 2.301-13.533 2.302-13.689 2.302-13.845 2.263-13.924 2.302-14.08 2.262-14.237 2.302-14.393 2.302-14.706 2.302-14.901 2.302-15.058 2.301-15.214 2.263-15.176 2.302-15.331 2.263-15.528 2.263-15.644 2.301-15.723 2.263-15.88 2.263-15.996 2.263-16.114 2.302-16.466 2.301-16.583 2.263-16.7 2.302-16.818 2.34-17.131 2.303-17.248 2.302-17.366 2.34-17.444 2.263-17.052 2.224-17.131 2.263-17.21 2.263-17.286 2.301-17.913 2.341-17.953 2.302-18.07 2.34-18.108 2.264-17.795 2.262-17.874 2.263-17.913 2.302-17.953 2.263-18.108 2.302-18.187 2.301-18.148 2.302-18.226 2.263-18.147 2.302-18.187 2.302-18.148 2.262-18.187 2.341-18.265 2.302-18.304 2.302-18.226 2.302-18.187 2.302-17.952 2.262-17.874 2.302-17.835 2.263-17.795 2.302-17.796 2.302-17.757 2.301-17.64 2.341-17.521 2.224-17.13 2.263-17.014 2.263-16.857 2.301-16.78 2.263-16.934 2.302-16.78 2.302-16.622 2.34-16.466 2.263-16.153 2.263-15.957 2.302-15.762 2.263-15.566 2.34-15.567 2.302-15.331 2.302-15.097 2.263-14.902 2.302-14.51 2.302-14.237 2.262-14.04 2.263-13.768 2.263-13.454 2.302-13.22 2.224-12.946 2.301-12.672 2.302-12.516 2.263-12.242 2.302-11.929 2.302-11.616 4.642-22.606 4.643-21.238 4.487-19.32 4.525-18.031 4.604-17.131 4.642-15.645 4.565-13.884 4.526-12.399 9.168-20.377 9.168-14.04 1.131-1.33 1.17-1.174 2.303-2.15 1.17-.9 1.17-.783 1.132-.704 1.17-.586 1.132-.509 1.131-.352 1.17-.313 1.132-.156 1.131-.078h1.132l1.17.117 1.131.235 1.17.313 1.132.43 1.132.547 1.17.626 1.132.743 1.17.86 2.302 1.995 2.263 2.347 2.262 2.738 4.526 6.649 9.207 18.382 4.565 11.42 4.564 12.947 4.604 14.55 4.604 16.074 4.564 17.287 4.565 18.695 4.525 19.947 4.526 21.199 4.604 22.724 2.301 11.811 2.302 12.125 2.302 12.555 2.302 12.867 2.34 13.142 2.303 13.415 2.262 13.259 2.263 13.532 2.224 13.767 2.263 14.002 2.34 14.706 2.302 14.902 2.302 15.136 2.34 15.37 2.264 15.254 2.263 15.45 2.301 15.683 2.263 15.84 2.302 16.153 2.263 16.349 2.302 16.466 2.301 16.661 2.302 16.779 2.263 16.935 2.302 17.014 2.302 17.209 2.301 17.443 2.302 17.561 2.302 17.64 2.302 17.756 2.302 17.679 2.301 17.717 2.263 17.835 2.302 17.874 2.302 18.07 2.302 18.108 4.603 36.374 2.263 17.913 6.788 53.856 2.302 18.304 6.906 54.796 2.263 18.07 2.301 17.99 2.263 17.992 2.302 17.952 2.302 18.07 2.302 17.99 2.301 17.953 2.302 17.913 2.263 17.6 2.263 17.522 2.302 17.483 2.262 17.365 2.302 17.21 2.263 17.091 2.263 17.013 2.263 16.936 2.301 16.974 2.302 16.857 2.263 16.74 2.302 16.622 2.34 16.7 2.302 16.545 2.341 16.388 2.302 16.27 2.263 15.645 2.224 15.527 2.262 15.332 2.263 15.214 2.302 15.527 2.34 15.371 2.303 15.175 2.302 15.058 2.301 14.55 2.263 14.432 2.263 14.236 2.302 14.08 2.263 14.042 2.301 13.845 2.302 13.689 2.302 13.533 2.263 13.297 2.302 13.142 2.262 12.946 2.302 12.79 2.302 12.71 2.34 12.516 2.303 12.32 2.301 12.164 2.263 11.85 2.302 11.656 4.604 22.802 4.564 22.254 4.604 21.473 4.525 20.416 4.526 19.712 4.604 19.36 4.603 18.656 4.604 17.796 4.526 17.092 4.603 16.583 4.604 15.957 4.564 15.097 4.565 14.472 4.526 13.806 4.564 13.22 4.565 12.75 4.603 12.203 4.643 11.733 4.643 11.186 8.973 20.22 9.285 18.774 9.09 16.584 9.169 15.018 9.168 13.416 9.246 12.046 9.13 10.56 9.206 9.426 9.052 8.213 9.207 7.314 9.13 6.336 9.206 5.593 9.13 4.81 9.05 4.186 9.208 3.637 9.246 3.168 9.012 2.66 9.286 2.346 9.09 1.956 9.168 1.682 9.168 1.408 9.208 1.212 9.129.978 9.246.86 9.051.704 9.207.626 9.13.47 9.207.43 9.09.313 9.09.274 9.169.234 9.285.196 9.012.156 9.246.118 9.09.078 9.169.117 9.168.04 9.246.077 9.13.04 9.207.039h9.05l9.208.039h9.13l9.206.039h36.634l9.013.039h238.178" transform="matrix(.10013 0 0 .09987 357.424 271.499)"/></g></svg>