<svg xmlns="http://www.w3.org/2000/svg" xmlns:xlink="http://www.w3.org/1999/xlink" width="1046.564" height="367.999" viewBox="0 0 784.923 275.999"><defs><clipPath id="a"><path d="M191 10h1v255h-1zm0 0"/></clipPath><clipPath id="b"><path d="M21.5 243h340v2h-340zm0 0"/></clipPath><clipPath id="c"><path d="M21.5 10h.5v255h-.5zm0 0"/></clipPath><clipPath id="d"><path d="M106 10h1v255h-1zm0 0"/></clipPath><clipPath id="e"><path d="M191 10h1v255h-1zm0 0"/></clipPath><clipPath id="f"><path d="M276 10h1v255h-1zm0 0"/></clipPath><clipPath id="g"><path d="M361 10h.5v255h-.5zm0 0"/></clipPath><clipPath id="h"><path d="M21.5 243h340v2h-340zm0 0"/></clipPath><clipPath id="i"><path d="M21.5 190h340v1h-340zm0 0"/></clipPath><clipPath id="j"><path d="M21.5 137h340v1h-340zm0 0"/></clipPath><clipPath id="k"><path d="M21.5 84h340v1h-340zm0 0"/></clipPath><clipPath id="l"><path d="M21.5 30h340v2h-340zm0 0"/></clipPath><clipPath id="p"><path d="M189 269h5v6.5h-5zm0 0"/></clipPath><clipPath id="r"><path d="M.5 242H15v6H.5zm0 0"/></clipPath><clipPath id="t"><path d="M.5 188H15v6H.5zm0 0"/></clipPath><clipPath id="v"><path d="M.5 135H15v6H.5zm0 0"/></clipPath><clipPath id="w"><path d="M.5 82H15v6H.5zm0 0"/></clipPath><clipPath id="y"><path d="M.5 29H15v6H.5zm0 0"/></clipPath><clipPath id="z"><path d="M368 188h14.5v6H368zm0 0"/></clipPath><clipPath id="A"><path d="M368 82h14.5v6H368zm0 0"/></clipPath><clipPath id="B"><path d="M21.5 41h340v193h-340zm0 0"/></clipPath><clipPath id="C"><path d="M593 10h1v255h-1zm0 0"/></clipPath><clipPath id="D"><path d="M423.426 243h340v2h-340zm0 0"/></clipPath><clipPath id="E"><path d="M423.426 10H424v255h-.574zm0 0"/></clipPath><clipPath id="F"><path d="M508 10h1v255h-1zm0 0"/></clipPath><clipPath id="G"><path d="M593 10h1v255h-1zm0 0"/></clipPath><clipPath id="H"><path d="M678 10h1v255h-1zm0 0"/></clipPath><clipPath id="I"><path d="M763 10h.426v255H763zm0 0"/></clipPath><clipPath id="J"><path d="M423.426 243h340v2h-340zm0 0"/></clipPath><clipPath id="K"><path d="M423.426 190h340v1h-340zm0 0"/></clipPath><clipPath id="L"><path d="M423.426 137h340v1h-340zm0 0"/></clipPath><clipPath id="M"><path d="M423.426 84h340v1h-340zm0 0"/></clipPath><clipPath id="N"><path d="M423.426 30h340v2h-340zm0 0"/></clipPath><clipPath id="O"><path d="M591 269h5v6.5h-5zm0 0"/></clipPath><clipPath id="P"><path d="M402.426 242H417v6h-14.574zm0 0"/></clipPath><clipPath id="Q"><path d="M402.426 188H417v6h-14.574zm0 0"/></clipPath><clipPath id="R"><path d="M402.426 135H417v6h-14.574zm0 0"/></clipPath><clipPath id="S"><path d="M402.426 82H417v6h-14.574zm0 0"/></clipPath><clipPath id="T"><path d="M402.426 29H417v6h-14.574zm0 0"/></clipPath><clipPath id="U"><path d="M423.426 32h340v211h-340zm0 0"/></clipPath><symbol overflow="visible" id="m"><path style="stroke:none" d="M2.125-2.344H.344v.547h1.781zm0 0"/></symbol><symbol overflow="visible" id="n"><path style="stroke:none" d="M3.797-.656H1c.063-.438.313-.703.953-1.094l.75-.406c.75-.406 1.125-.953 1.125-1.594 0-.453-.172-.86-.484-1.14-.328-.298-.719-.423-1.219-.423-.672 0-1.172.235-1.469.688-.187.281-.265.61-.281 1.156h.656c.032-.36.078-.578.157-.75.171-.328.515-.515.921-.515.594 0 1.047.421 1.047.984 0 .422-.25.781-.719 1.063l-.687.39C.64-1.672.312-1.172.25 0h3.547zm0 0"/></symbol><symbol overflow="visible" id="o"><path style="stroke:none" d="M1.938-3.781V0h.671v-5.313h-.437c-.235.813-.39.922-1.406 1.047v.485zm0 0"/></symbol><symbol overflow="visible" id="q"><path style="stroke:none" d="M2.063-5.313c-.5 0-.938.22-1.22.579C.5-4.266.329-3.563.329-2.578c0 1.797.594 2.75 1.734 2.75 1.126 0 1.735-.953 1.735-2.703 0-1.031-.156-1.719-.516-2.203-.281-.375-.719-.579-1.219-.579zm0 .579c.718 0 1.062.718 1.062 2.14 0 1.516-.344 2.219-1.078 2.219C1.344-.375 1-1.109 1-2.563c0-1.453.344-2.171 1.063-2.171zm0 0"/></symbol><symbol overflow="visible" id="s"><path style="stroke:none" d="M1.438-.781H.655V0h.781zm0 0"/></symbol><symbol overflow="visible" id="u"><path style="stroke:none" d="M3.563-5.313H.828L.422-2.421h.61c.312-.375.562-.5.984-.5.703 0 1.156.485 1.156 1.281 0 .766-.438 1.235-1.156 1.235-.579 0-.938-.297-1.094-.906H.266c.093.437.156.656.312.843.313.406.844.64 1.453.64 1.063 0 1.813-.78 1.813-1.905 0-1.047-.688-1.766-1.719-1.766-.375 0-.672.094-.984.313l.218-1.485h2.204zm0 0"/></symbol><symbol overflow="visible" id="x"><path style="stroke:none" d="M3.906-5.313H.344v.641h2.875C1.953-2.859 1.438-1.75 1.03 0h.703c.297-1.703.97-3.172 2.172-4.766zm0 0"/></symbol></defs><g clip-path="url(#a)"><path style="fill:none;stroke-width:6.25;stroke-linecap:round;stroke-linejoin:miter;stroke:#bfbfbf;stroke-opacity:1;stroke-miterlimit:10" d="M1910 104.99v2550" transform="matrix(.1 0 0 -.1 .5 275.499)"/></g><g clip-path="url(#b)"><path style="fill:none;stroke-width:6.25;stroke-linecap:round;stroke-linejoin:miter;stroke:#bfbfbf;stroke-opacity:1;stroke-miterlimit:10" d="M210 317.49h3400" transform="matrix(.1 0 0 -.1 .5 275.499)"/></g><g clip-path="url(#c)"><path style="fill:none;stroke-width:6.25;stroke-linecap:round;stroke-linejoin:miter;stroke:#bfbfbf;stroke-opacity:1;stroke-dasharray:12.5,18.75;stroke-miterlimit:10" d="M210 104.99v2550" transform="matrix(.1 0 0 -.1 .5 275.499)"/></g><g clip-path="url(#d)"><path style="fill:none;stroke-width:6.25;stroke-linecap:round;stroke-linejoin:miter;stroke:#bfbfbf;stroke-opacity:1;stroke-dasharray:12.5,18.75;stroke-miterlimit:10" d="M1060 104.99v2550" transform="matrix(.1 0 0 -.1 .5 275.499)"/></g><g clip-path="url(#e)"><path style="fill:none;stroke-width:6.25;stroke-linecap:round;stroke-linejoin:miter;stroke:#bfbfbf;stroke-opacity:1;stroke-dasharray:12.5,18.75;stroke-miterlimit:10" d="M1910 104.99v2550" transform="matrix(.1 0 0 -.1 .5 275.499)"/></g><g clip-path="url(#f)"><path style="fill:none;stroke-width:6.25;stroke-linecap:round;stroke-linejoin:miter;stroke:#bfbfbf;stroke-opacity:1;stroke-dasharray:12.5,18.75;stroke-miterlimit:10" d="M2760 104.99v2550" transform="matrix(.1 0 0 -.1 .5 275.499)"/></g><g clip-path="url(#g)"><path style="fill:none;stroke-width:6.25;stroke-linecap:round;stroke-linejoin:miter;stroke:#bfbfbf;stroke-opacity:1;stroke-dasharray:12.5,18.75;stroke-miterlimit:10" d="M3610 104.99v2550" transform="matrix(.1 0 0 -.1 .5 275.499)"/></g><g clip-path="url(#h)"><path style="fill:none;stroke-width:6.25;stroke-linecap:round;stroke-linejoin:miter;stroke:#bfbfbf;stroke-opacity:1;stroke-dasharray:12.5,18.75;stroke-miterlimit:10" d="M210 317.49h3400" transform="matrix(.1 0 0 -.1 .5 275.499)"/></g><g clip-path="url(#i)"><path style="fill:none;stroke-width:6.25;stroke-linecap:round;stroke-linejoin:miter;stroke:#bfbfbf;stroke-opacity:1;stroke-dasharray:12.5,18.75;stroke-miterlimit:10" d="M210 848.74h3400" transform="matrix(.1 0 0 -.1 .5 275.499)"/></g><g clip-path="url(#j)"><path style="fill:none;stroke-width:6.25;stroke-linecap:round;stroke-linejoin:miter;stroke:#bfbfbf;stroke-opacity:1;stroke-dasharray:12.5,18.75;stroke-miterlimit:10" d="M210 1379.99h3400" transform="matrix(.1 0 0 -.1 .5 275.499)"/></g><g clip-path="url(#k)"><path style="fill:none;stroke-width:6.25;stroke-linecap:round;stroke-linejoin:miter;stroke:#bfbfbf;stroke-opacity:1;stroke-dasharray:12.5,18.75;stroke-miterlimit:10" d="M210 1911.24h3400" transform="matrix(.1 0 0 -.1 .5 275.499)"/></g><g clip-path="url(#l)"><path style="fill:none;stroke-width:6.25;stroke-linecap:round;stroke-linejoin:miter;stroke:#bfbfbf;stroke-opacity:1;stroke-dasharray:12.5,18.75;stroke-miterlimit:10" d="M210 2442.49h3400" transform="matrix(.1 0 0 -.1 .5 275.499)"/></g><path style="fill:none;stroke-width:12.5;stroke-linecap:square;stroke-linejoin:miter;stroke:#000;stroke-opacity:1;stroke-miterlimit:10" d="M210 104.99h3400" transform="matrix(.1 0 0 -.1 .5 275.499)"/><path style="fill:none;stroke-width:6.25;stroke-linecap:butt;stroke-linejoin:miter;stroke:#000;stroke-opacity:1;stroke-miterlimit:10" d="M210 104.99v50m85-50v25m85-25v25m85-25v25m85-25v25m85-25v25m85-25v25m85-25v25m85-25v25m85-25v25m85-25v50m85-50v25m85-25v25m85-25v25m85-25v25m85-25v25m85-25v25m85-25v25m85-25v25m85-25v25m85-25v50m85-50v25m85-25v25m85-25v25m85-25v25m85-25v25m85-25v25m85-25v25m85-25v25m85-25v25m85-25v50m85-50v25m85-25v25m85-25v25m85-25v25m85-25v25m85-25v25m85-25v25m85-25v25m85-25v25m85-25v50" transform="matrix(.1 0 0 -.1 .5 275.499)"/><g style="fill:#000;fill-opacity:1"><use xlink:href="#m" x="17.542" y="274.999"/><use xlink:href="#n" x="20.039" y="274.999"/></g><g style="fill:#000;fill-opacity:1"><use xlink:href="#m" x="102.542" y="274.999"/><use xlink:href="#o" x="105.039" y="274.999"/></g><g clip-path="url(#p)"><use xlink:href="#q" x="189.415" y="274.999" style="fill:#000;fill-opacity:1"/></g><use xlink:href="#o" x="274.415" y="274.999" style="fill:#000;fill-opacity:1"/><use xlink:href="#n" x="359.414" y="274.999" style="fill:#000;fill-opacity:1"/><path style="fill:none;stroke-width:12.5;stroke-linecap:square;stroke-linejoin:miter;stroke:#000;stroke-opacity:1;stroke-miterlimit:10" d="M210 2654.99h3400" transform="matrix(.1 0 0 -.1 .5 275.499)"/><path style="fill:none;stroke-width:6.25;stroke-linecap:butt;stroke-linejoin:miter;stroke:#000;stroke-opacity:1;stroke-miterlimit:10" d="M210 2654.99v-50m85 50v-25m85 25v-25m85 25v-25m85 25v-25m85 25v-25m85 25v-25m85 25v-25m85 25v-25m85 25v-25m85 25v-50m85 50v-25m85 25v-25m85 25v-25m85 25v-25m85 25v-25m85 25v-25m85 25v-25m85 25v-25m85 25v-25m85 25v-50m85 50v-25m85 25v-25m85 25v-25m85 25v-25m85 25v-25m85 25v-25m85 25v-25m85 25v-25m85 25v-25m85 25v-50m85 50v-25m85 25v-25m85 25v-25m85 25v-25m85 25v-25m85 25v-25m85 25v-25m85 25v-25m85 25v-25m85 25v-50" transform="matrix(.1 0 0 -.1 .5 275.499)"/><g style="fill:#000;fill-opacity:1"><use xlink:href="#m" x="17.542" y="6.874"/><use xlink:href="#n" x="20.039" y="6.874"/></g><g style="fill:#000;fill-opacity:1"><use xlink:href="#m" x="102.542" y="6.874"/><use xlink:href="#o" x="105.039" y="6.874"/></g><use xlink:href="#q" x="189.415" y="6.874" style="fill:#000;fill-opacity:1"/><use xlink:href="#o" x="274.415" y="6.874" style="fill:#000;fill-opacity:1"/><use xlink:href="#n" x="359.414" y="6.874" style="fill:#000;fill-opacity:1"/><path style="fill:none;stroke-width:12.5;stroke-linecap:square;stroke-linejoin:miter;stroke:#000;stroke-opacity:1;stroke-miterlimit:10" d="M210 104.99v2550" transform="matrix(.1 0 0 -.1 .5 275.499)"/><path style="fill:none;stroke-width:6.25;stroke-linecap:butt;stroke-linejoin:miter;stroke:#000;stroke-opacity:1;stroke-miterlimit:10" d="M210 104.99h25m-25 53.125h25m-25 53.125h25m-25 53.125h25m-25 53.125h50m-50 53.125h25m-25 53.125h25m-25 53.125h25m-25 53.125h25m-25 53.125h25m-25 53.125h25m-25 53.125h25m-25 53.125h25m-25 53.125h25m-25 53.125h50m-50 53.125h25m-25 53.125h25m-25 53.125h25m-25 53.125h25m-25 53.125h25m-25 53.125h25m-25 53.125h25m-25 53.125h25m-25 53.125h25m-25 53.125h50m-50 53.125h25m-25 53.125h25m-25 53.125h25m-25 53.125h25m-25 53.125h25m-25 53.125h25m-25 53.125h25m-25 53.125h25m-25 53.125h25m-25 53.125h50m-50 53.125h25m-25 53.125h25m-25 53.125h25m-25 53.125h25m-25 53.125h25m-25 53.125h25m-25 53.125h25m-25 53.125h25m-25 53.125h25m-25 53.125h50m-50 53.125h25m-25 53.125h25m-25 53.125h25m-25 53.125h25" transform="matrix(.1 0 0 -.1 .5 275.499)"/><g style="fill:#000;fill-opacity:1" clip-path="url(#r)"><use xlink:href="#q" x=".031" y="247.499"/><use xlink:href="#s" x="4.201" y="247.499"/><use xlink:href="#q" x="6.286" y="247.499"/><use xlink:href="#q" x="10.456" y="247.499"/></g><g style="fill:#000;fill-opacity:1" clip-path="url(#t)"><use xlink:href="#q" x=".031" y="193.749"/><use xlink:href="#s" x="4.201" y="193.749"/><use xlink:href="#n" x="6.286" y="193.749"/><use xlink:href="#u" x="10.456" y="193.749"/></g><g style="fill:#000;fill-opacity:1" clip-path="url(#v)"><use xlink:href="#q" x=".031" y="140.624"/><use xlink:href="#s" x="4.201" y="140.624"/><use xlink:href="#u" x="6.286" y="140.624"/><use xlink:href="#q" x="10.456" y="140.624"/></g><g style="fill:#000;fill-opacity:1" clip-path="url(#w)"><use xlink:href="#q" x=".031" y="87.499"/><use xlink:href="#s" x="4.201" y="87.499"/><use xlink:href="#x" x="6.286" y="87.499"/><use xlink:href="#u" x="10.456" y="87.499"/></g><g style="fill:#000;fill-opacity:1" clip-path="url(#y)"><use xlink:href="#o" x=".031" y="34.374"/><use xlink:href="#s" x="4.201" y="34.374"/><use xlink:href="#q" x="6.286" y="34.374"/><use xlink:href="#q" x="10.456" y="34.374"/></g><path style="fill:none;stroke-width:12.5;stroke-linecap:square;stroke-linejoin:miter;stroke:#000;stroke-opacity:1;stroke-miterlimit:10" d="M3610 104.99v2550" transform="matrix(.1 0 0 -.1 .5 275.499)"/><path style="fill:none;stroke-width:6.25;stroke-linecap:butt;stroke-linejoin:miter;stroke:#000;stroke-opacity:1;stroke-miterlimit:10" d="M3610 104.99h-25m25 53.125h-25m25 53.125h-25m25 53.125h-25m25 53.125h-50m50 53.125h-25m25 53.125h-25m25 53.125h-25m25 53.125h-25m25 53.125h-25m25 53.125h-25m25 53.125h-25m25 53.125h-25m25 53.125h-25m25 53.125h-50m50 53.125h-25m25 53.125h-25m25 53.125h-25m25 53.125h-25m25 53.125h-25m25 53.125h-25m25 53.125h-25m25 53.125h-25m25 53.125h-25m25 53.125h-50m50 53.125h-25m25 53.125h-25m25 53.125h-25m25 53.125h-25m25 53.125h-25m25 53.125h-25m25 53.125h-25m25 53.125h-25m25 53.125h-25m25 53.125h-50m50 53.125h-25m25 53.125h-25m25 53.125h-25m25 53.125h-25m25 53.125h-25m25 53.125h-25m25 53.125h-25m25 53.125h-25m25 53.125h-25m25 53.125h-50m50 53.125h-25m25 53.125h-25m25 53.125h-25m25 53.125h-25" transform="matrix(.1 0 0 -.1 .5 275.499)"/><g style="fill:#000;fill-opacity:1"><use xlink:href="#q" x="367.75" y="247.499"/><use xlink:href="#s" x="371.92" y="247.499"/><use xlink:href="#q" x="374.005" y="247.499"/><use xlink:href="#q" x="378.175" y="247.499"/></g><g style="fill:#000;fill-opacity:1" clip-path="url(#z)"><use xlink:href="#q" x="367.75" y="193.749"/><use xlink:href="#s" x="371.92" y="193.749"/><use xlink:href="#n" x="374.005" y="193.749"/><use xlink:href="#u" x="378.175" y="193.749"/></g><g style="fill:#000;fill-opacity:1"><use xlink:href="#q" x="367.75" y="140.624"/><use xlink:href="#s" x="371.92" y="140.624"/><use xlink:href="#u" x="374.005" y="140.624"/><use xlink:href="#q" x="378.175" y="140.624"/></g><g style="fill:#000;fill-opacity:1" clip-path="url(#A)"><use xlink:href="#q" x="367.75" y="87.499"/><use xlink:href="#s" x="371.92" y="87.499"/><use xlink:href="#x" x="374.005" y="87.499"/><use xlink:href="#u" x="378.175" y="87.499"/></g><g style="fill:#000;fill-opacity:1"><use xlink:href="#o" x="367.75" y="34.374"/><use xlink:href="#s" x="371.92" y="34.374"/><use xlink:href="#q" x="374.005" y="34.374"/><use xlink:href="#q" x="378.175" y="34.374"/></g><g clip-path="url(#B)"><path style="fill:none;stroke-width:12.5;stroke-linecap:round;stroke-linejoin:round;stroke:#00008b;stroke-opacity:1;stroke-miterlimit:10" d="m210 423.076 6.25.469 6.25 1.367 6.25 2.305 6.25 3.203 6.25 4.101 6.25 4.961 6.25 5.86 6.25 6.718 6.25 7.578 6.25 8.399 6.25 9.18 6.25 9.96 6.25 10.704 6.25 11.445 6.25 12.148 6.25 12.813 6.25 13.437 6.25 14.024 6.25 14.61 6.25 15.116 6.25 15.625 6.25 16.094 6.25 16.524 6.25 16.875 6.25 17.265 6.25 17.54 6.25 17.812 6.25 18.086 6.25 18.28 6.25 18.438 6.25 18.555 6.25 18.633 18.75 56.25 6.25 18.71 6.25 18.673 6.25 18.594 6.25 18.437 6.25 18.36 6.25 18.202 6.25 18.008 6.25 17.852 6.25 17.617 6.25 17.422 6.25 17.187 6.25 16.954 6.25 16.718 6.25 16.446 6.25 16.21 6.25 15.977 6.25 15.742 6.25 15.47 6.25 15.233 6.25 15 6.25 14.766 6.25 14.57 6.25 14.375 6.25 14.141 6.25 14.023 6.25 13.829 6.25 13.71 6.25 13.555 6.25 13.516 12.5 26.719 6.25 13.28 6.25 13.243 12.5 26.563 6.25 13.32 6.25 13.398 6.25 13.477 6.25 13.594 6.25 13.671 6.25 13.868 6.25 13.984 6.25 14.18 6.25 14.375 6.25 14.53 6.25 14.806 6.25 15 6.25 15.234 6.25 15.469 6.25 15.703 6.25 15.976 6.25 16.211 6.25 16.485 6.25 16.68 6.25 16.992 6.25 17.187 6.25 17.383 6.25 17.656 6.25 17.852 6.25 18.008 6.25 18.203 6.25 18.32 6.25 18.477 6.25 18.593 6.25 18.672 6.25 18.711 12.5 37.5 6.25 18.711 6.25 18.672 6.25 18.555 6.25 18.437 6.25 18.281 6.25 18.047 6.25 17.852 6.25 17.539 6.25 17.265 6.25 16.875 6.25 16.524 6.25 16.055 6.25 15.664 6.25 15.117 6.25 14.61 6.25 14.023 6.25 13.437 6.25 12.813 6.25 12.11 6.25 11.444 6.25 10.703 6.25 10 6.25 9.18 6.25 8.36 6.25 7.578 6.25 6.718 6.25 5.86 6.25 5 6.25 4.101 6.25 3.203 6.25 2.305 6.25 1.367 6.25.47 6.25-.47 6.25-1.367 6.25-2.305 6.25-3.203 6.25-4.101 6.25-5 6.25-5.86 6.25-6.718 6.25-7.578 6.25-8.36 6.25-9.18 6.25-10 6.25-10.703 6.25-11.445 6.25-12.11 6.25-12.812 6.25-13.437 6.25-14.024 6.25-14.61 6.25-15.116 6.25-15.664 6.25-16.055 6.25-16.524 6.25-16.875 6.25-17.265 6.25-17.54 6.25-17.85 6.25-18.048 6.25-18.28 6.25-18.438 6.25-18.555 6.25-18.672 6.25-18.71 12.5-37.5 6.25-18.712 6.25-18.672 6.25-18.593 6.25-18.477 6.25-18.32 6.25-18.203 6.25-18.008 6.25-17.852 6.25-17.656 6.25-17.383 6.25-17.187 6.25-16.993 6.25-16.68 6.25-16.484 6.25-16.21 6.25-15.977 6.25-15.703 6.25-15.469 6.25-15.234 6.25-15 6.25-14.805 6.25-14.531 6.25-14.375 6.25-14.18 6.25-13.984 6.25-13.868 6.25-13.671 6.25-13.594 6.25-13.477 6.25-13.398 6.25-13.32 12.5-26.563 6.25-13.242 6.25-13.281 12.5-26.72 6.25-13.515 6.25-13.554 6.25-13.711 6.25-13.829 6.25-14.023 6.25-14.14 6.25-14.376 6.25-14.57 6.25-14.766 6.25-15 6.25-15.234 6.25-15.469 6.25-15.742 6.25-15.976 6.25-16.211 6.25-16.446 6.25-16.718 6.25-16.954 6.25-17.187 6.25-17.422 6.25-17.617 6.25-17.852 6.25-18.007 6.25-18.204 6.25-18.359 6.25-18.438 6.25-18.593 6.25-18.672 6.25-18.711L1710 801.2l6.25-18.633 6.25-18.555 6.25-18.437 6.25-18.281 6.25-18.086 6.25-17.813 6.25-17.539 6.25-17.265 6.25-16.875 6.25-16.524 6.25-16.094 6.25-15.625 6.25-15.117 6.25-14.61 6.25-14.023 6.25-13.437 6.25-12.813 6.25-12.148 6.25-11.445 6.25-10.703 6.25-9.961 6.25-9.18 6.25-8.399 6.25-7.578 6.25-6.718 6.25-5.86 6.25-4.96 6.25-4.102 6.25-3.203 6.25-2.305 6.25-1.367 6.25-.47 6.25.47 6.25 1.367 6.25 2.305 6.25 3.203 6.25 4.101 6.25 4.961 6.25 5.86 6.25 6.718 6.25 7.578 6.25 8.399 6.25 9.18 6.25 9.96 6.25 10.704 6.25 11.445 6.25 12.148 6.25 12.813 6.25 13.437 6.25 14.024 6.25 14.61 6.25 15.116 6.25 15.625 6.25 16.094 6.25 16.524 6.25 16.875 6.25 17.265 6.25 17.54 6.25 17.812 6.25 18.086 6.25 18.28 6.25 18.438 6.25 18.555L2110 801.2l18.75 56.25 6.25 18.71 6.25 18.673 6.25 18.594 6.25 18.437 6.25 18.36 6.25 18.202 6.25 18.008 6.25 17.852 6.25 17.617 6.25 17.422 6.25 17.187 6.25 16.954 6.25 16.718 6.25 16.446 6.25 16.21 6.25 15.977 6.25 15.742 6.25 15.47 6.25 15.233 6.25 15 6.25 14.766 6.25 14.57 6.25 14.375 6.25 14.141 6.25 14.023 6.25 13.829 6.25 13.71 6.25 13.555 6.25 13.516 12.5 26.719 6.25 13.28 6.25 13.243 12.5 26.563 6.25 13.32 6.25 13.398 6.25 13.477 6.25 13.594 6.25 13.671 6.25 13.868 6.25 13.984 6.25 14.18 6.25 14.375 6.25 14.53 6.25 14.806 6.25 15 6.25 15.234 6.25 15.469 6.25 15.703 6.25 15.976 6.25 16.211 6.25 16.485 6.25 16.68 6.25 16.992 6.25 17.187 6.25 17.383 6.25 17.656 6.25 17.852 6.25 18.008 6.25 18.203 6.25 18.32 6.25 18.477 6.25 18.593 6.25 18.672 6.25 18.711 12.5 37.5 6.25 18.711 6.25 18.672 6.25 18.555 6.25 18.437 6.25 18.281 6.25 18.047 6.25 17.852 6.25 17.539 6.25 17.265 6.25 16.875 6.25 16.524 6.25 16.055 6.25 15.664 6.25 15.117 6.25 14.61 6.25 14.023 6.25 13.437 6.25 12.813 6.25 12.11 6.25 11.444 6.25 10.703 6.25 10 6.25 9.18 6.25 8.36 6.25 7.578 6.25 6.718 6.25 5.86 6.25 5 6.25 4.101 6.25 3.203 6.25 2.305 6.25 1.367 6.25.47 6.25-.47 6.25-1.367 6.25-2.305 6.25-3.203 6.25-4.101 6.25-5 6.25-5.86 6.25-6.718 6.25-7.578 6.25-8.36 6.25-9.18 6.25-10 6.25-10.703 6.25-11.445 6.25-12.11 6.25-12.812 6.25-13.437 6.25-14.024 6.25-14.61 6.25-15.116 6.25-15.664 6.25-16.055 6.25-16.524 6.25-16.875 6.25-17.265 6.25-17.54 6.25-17.85 6.25-18.048 6.25-18.28 6.25-18.438 6.25-18.555 6.25-18.672 6.25-18.71 12.5-37.5 6.25-18.712 6.25-18.672 6.25-18.593 6.25-18.477 6.25-18.32 6.25-18.203 6.25-18.008 6.25-17.852 6.25-17.656 6.25-17.383 6.25-17.187 6.25-16.993 6.25-16.68 6.25-16.484 6.25-16.21 6.25-15.977 6.25-15.703 6.25-15.469 6.25-15.234 6.25-15 6.25-14.805 6.25-14.531 6.25-14.375 6.25-14.18 6.25-13.984 6.25-13.868 6.25-13.671 6.25-13.594 6.25-13.477 6.25-13.398 6.25-13.32 12.5-26.563 6.25-13.242 6.25-13.281 12.5-26.72 6.25-13.515 6.25-13.554 6.25-13.711 6.25-13.829 6.25-14.023 6.25-14.14 6.25-14.376 6.25-14.57 6.25-14.766 6.25-15 6.25-15.234 6.25-15.469 6.25-15.742 6.25-15.976 6.25-16.211 6.25-16.446 6.25-16.718 6.25-16.954 6.25-17.187 6.25-17.422 6.25-17.617 6.25-17.852 6.25-18.007 6.25-18.204 6.25-18.359 6.25-18.438 6.25-18.593 6.25-18.672 6.25-18.711L3410 801.2l6.25-18.633 6.25-18.555 6.25-18.437 6.25-18.281 6.25-18.086 6.25-17.813 6.25-17.539 6.25-17.265 6.25-16.875 6.25-16.524 6.25-16.094 6.25-15.625 6.25-15.117 6.25-14.61 6.25-14.023 6.25-13.437 6.25-12.813 6.25-12.148 6.25-11.445 6.25-10.703 6.25-9.961 6.25-9.18 6.25-8.399 6.25-7.578 6.25-6.718 6.25-5.86 6.25-4.96 6.25-4.102 6.25-3.203 6.25-2.305 6.25-1.367 6.25-.47" transform="matrix(.1 0 0 -.1 .5 275.499)"/></g><g clip-path="url(#C)"><path style="fill:none;stroke-width:6.25;stroke-linecap:round;stroke-linejoin:miter;stroke:#bfbfbf;stroke-opacity:1;stroke-miterlimit:10" d="M1910.018 104.99v2550" transform="matrix(.1 0 0 -.1 402.424 275.499)"/></g><g clip-path="url(#D)"><path style="fill:none;stroke-width:6.25;stroke-linecap:round;stroke-linejoin:miter;stroke:#bfbfbf;stroke-opacity:1;stroke-miterlimit:10" d="M210.018 317.49h3400" transform="matrix(.1 0 0 -.1 402.424 275.499)"/></g><g clip-path="url(#E)"><path style="fill:none;stroke-width:6.25;stroke-linecap:round;stroke-linejoin:miter;stroke:#bfbfbf;stroke-opacity:1;stroke-dasharray:12.5,18.75;stroke-miterlimit:10" d="M210.018 104.99v2550" transform="matrix(.1 0 0 -.1 402.424 275.499)"/></g><g clip-path="url(#F)"><path style="fill:none;stroke-width:6.25;stroke-linecap:round;stroke-linejoin:miter;stroke:#bfbfbf;stroke-opacity:1;stroke-dasharray:12.5,18.75;stroke-miterlimit:10" d="M1060.018 104.99v2550" transform="matrix(.1 0 0 -.1 402.424 275.499)"/></g><g clip-path="url(#G)"><path style="fill:none;stroke-width:6.25;stroke-linecap:round;stroke-linejoin:miter;stroke:#bfbfbf;stroke-opacity:1;stroke-dasharray:12.5,18.75;stroke-miterlimit:10" d="M1910.018 104.99v2550" transform="matrix(.1 0 0 -.1 402.424 275.499)"/></g><g clip-path="url(#H)"><path style="fill:none;stroke-width:6.25;stroke-linecap:round;stroke-linejoin:miter;stroke:#bfbfbf;stroke-opacity:1;stroke-dasharray:12.5,18.75;stroke-miterlimit:10" d="M2760.018 104.99v2550" transform="matrix(.1 0 0 -.1 402.424 275.499)"/></g><g clip-path="url(#I)"><path style="fill:none;stroke-width:6.25;stroke-linecap:round;stroke-linejoin:miter;stroke:#bfbfbf;stroke-opacity:1;stroke-dasharray:12.5,18.75;stroke-miterlimit:10" d="M3610.018 104.99v2550" transform="matrix(.1 0 0 -.1 402.424 275.499)"/></g><g clip-path="url(#J)"><path style="fill:none;stroke-width:6.25;stroke-linecap:round;stroke-linejoin:miter;stroke:#bfbfbf;stroke-opacity:1;stroke-dasharray:12.5,18.75;stroke-miterlimit:10" d="M210.018 317.49h3400" transform="matrix(.1 0 0 -.1 402.424 275.499)"/></g><g clip-path="url(#K)"><path style="fill:none;stroke-width:6.25;stroke-linecap:round;stroke-linejoin:miter;stroke:#bfbfbf;stroke-opacity:1;stroke-dasharray:12.5,18.75;stroke-miterlimit:10" d="M210.018 848.74h3400" transform="matrix(.1 0 0 -.1 402.424 275.499)"/></g><g clip-path="url(#L)"><path style="fill:none;stroke-width:6.25;stroke-linecap:round;stroke-linejoin:miter;stroke:#bfbfbf;stroke-opacity:1;stroke-dasharray:12.5,18.75;stroke-miterlimit:10" d="M210.018 1379.99h3400" transform="matrix(.1 0 0 -.1 402.424 275.499)"/></g><g clip-path="url(#M)"><path style="fill:none;stroke-width:6.25;stroke-linecap:round;stroke-linejoin:miter;stroke:#bfbfbf;stroke-opacity:1;stroke-dasharray:12.5,18.75;stroke-miterlimit:10" d="M210.018 1911.24h3400" transform="matrix(.1 0 0 -.1 402.424 275.499)"/></g><g clip-path="url(#N)"><path style="fill:none;stroke-width:6.25;stroke-linecap:round;stroke-linejoin:miter;stroke:#bfbfbf;stroke-opacity:1;stroke-dasharray:12.5,18.75;stroke-miterlimit:10" d="M210.018 2442.49h3400" transform="matrix(.1 0 0 -.1 402.424 275.499)"/></g><path style="fill:none;stroke-width:12.5;stroke-linecap:square;stroke-linejoin:miter;stroke:#000;stroke-opacity:1;stroke-miterlimit:10" d="M210.018 104.99h3400" transform="matrix(.1 0 0 -.1 402.424 275.499)"/><path style="fill:none;stroke-width:6.25;stroke-linecap:butt;stroke-linejoin:miter;stroke:#000;stroke-opacity:1;stroke-miterlimit:10" d="M210.018 104.99v50m84.961-50v25m85-25v25m85.039-25v25m85-25v25m85-25v25m85-25v25m84.961-25v25m85.039-25v25m84.961-25v25m85.039-25v50m85-50v25m85-25v25m85-25v25m85-25v25m85-25v25m85-25v25m85-25v25m85-25v25m85-25v25m85-25v50m85-50v25m85-25v25m85-25v25m85-25v25m85-25v25m85-25v25m85-25v25m85-25v25m85-25v25m85-25v50m85-50v25m85-25v25m85-25v25m85-25v25m85-25v25m85-25v25m85-25v25m85-25v25m85-25v25m85-25v50" transform="matrix(.1 0 0 -.1 402.424 275.499)"/><g style="fill:#000;fill-opacity:1"><use xlink:href="#m" x="419.466" y="274.999"/><use xlink:href="#n" x="421.963" y="274.999"/></g><g style="fill:#000;fill-opacity:1"><use xlink:href="#m" x="504.466" y="274.999"/><use xlink:href="#o" x="506.963" y="274.999"/></g><g clip-path="url(#O)"><use xlink:href="#q" x="591.339" y="274.999" style="fill:#000;fill-opacity:1"/></g><use xlink:href="#o" x="676.339" y="274.999" style="fill:#000;fill-opacity:1"/><use xlink:href="#n" x="761.338" y="274.999" style="fill:#000;fill-opacity:1"/><path style="fill:none;stroke-width:12.5;stroke-linecap:square;stroke-linejoin:miter;stroke:#000;stroke-opacity:1;stroke-miterlimit:10" d="M210.018 2654.99h3400" transform="matrix(.1 0 0 -.1 402.424 275.499)"/><path style="fill:none;stroke-width:6.25;stroke-linecap:butt;stroke-linejoin:miter;stroke:#000;stroke-opacity:1;stroke-miterlimit:10" d="M210.018 2654.99v-50m84.961 50v-25m85 25v-25m85.039 25v-25m85 25v-25m85 25v-25m85 25v-25m84.961 25v-25m85.039 25v-25m84.961 25v-25m85.039 25v-50m85 50v-25m85 25v-25m85 25v-25m85 25v-25m85 25v-25m85 25v-25m85 25v-25m85 25v-25m85 25v-25m85 25v-50m85 50v-25m85 25v-25m85 25v-25m85 25v-25m85 25v-25m85 25v-25m85 25v-25m85 25v-25m85 25v-25m85 25v-50m85 50v-25m85 25v-25m85 25v-25m85 25v-25m85 25v-25m85 25v-25m85 25v-25m85 25v-25m85 25v-25m85 25v-50" transform="matrix(.1 0 0 -.1 402.424 275.499)"/><g style="fill:#000;fill-opacity:1"><use xlink:href="#m" x="419.466" y="6.874"/><use xlink:href="#n" x="421.963" y="6.874"/></g><g style="fill:#000;fill-opacity:1"><use xlink:href="#m" x="504.466" y="6.874"/><use xlink:href="#o" x="506.963" y="6.874"/></g><use xlink:href="#q" x="591.339" y="6.874" style="fill:#000;fill-opacity:1"/><use xlink:href="#o" x="676.339" y="6.874" style="fill:#000;fill-opacity:1"/><use xlink:href="#n" x="761.338" y="6.874" style="fill:#000;fill-opacity:1"/><path style="fill:none;stroke-width:12.5;stroke-linecap:square;stroke-linejoin:miter;stroke:#000;stroke-opacity:1;stroke-miterlimit:10" d="M210.018 104.99v2550" transform="matrix(.1 0 0 -.1 402.424 275.499)"/><path style="fill:none;stroke-width:6.25;stroke-linecap:butt;stroke-linejoin:miter;stroke:#000;stroke-opacity:1;stroke-miterlimit:10" d="M210.018 104.99h25m-25 53.125h25m-25 53.125h25m-25 53.125h25m-25 53.125h50m-50 53.125h25m-25 53.125h25m-25 53.125h25m-25 53.125h25m-25 53.125h25m-25 53.125h25m-25 53.125h25m-25 53.125h25m-25 53.125h25m-25 53.125h50m-50 53.125h25m-25 53.125h25m-25 53.125h25m-25 53.125h25m-25 53.125h25m-25 53.125h25m-25 53.125h25m-25 53.125h25m-25 53.125h25m-25 53.125h50m-50 53.125h25m-25 53.125h25m-25 53.125h25m-25 53.125h25m-25 53.125h25m-25 53.125h25m-25 53.125h25m-25 53.125h25m-25 53.125h25m-25 53.125h50m-50 53.125h25m-25 53.125h25m-25 53.125h25m-25 53.125h25m-25 53.125h25m-25 53.125h25m-25 53.125h25m-25 53.125h25m-25 53.125h25m-25 53.125h50m-50 53.125h25m-25 53.125h25m-25 53.125h25m-25 53.125h25" transform="matrix(.1 0 0 -.1 402.424 275.499)"/><g style="fill:#000;fill-opacity:1" clip-path="url(#P)"><use xlink:href="#q" x="401.955" y="247.499"/><use xlink:href="#s" x="406.125" y="247.499"/><use xlink:href="#q" x="408.21" y="247.499"/><use xlink:href="#q" x="412.38" y="247.499"/></g><g style="fill:#000;fill-opacity:1" clip-path="url(#Q)"><use xlink:href="#q" x="401.955" y="193.749"/><use xlink:href="#s" x="406.125" y="193.749"/><use xlink:href="#n" x="408.21" y="193.749"/><use xlink:href="#u" x="412.38" y="193.749"/></g><g style="fill:#000;fill-opacity:1" clip-path="url(#R)"><use xlink:href="#q" x="401.955" y="140.624"/><use xlink:href="#s" x="406.125" y="140.624"/><use xlink:href="#u" x="408.21" y="140.624"/><use xlink:href="#q" x="412.38" y="140.624"/></g><g style="fill:#000;fill-opacity:1" clip-path="url(#S)"><use xlink:href="#q" x="401.955" y="87.499"/><use xlink:href="#s" x="406.125" y="87.499"/><use xlink:href="#x" x="408.21" y="87.499"/><use xlink:href="#u" x="412.38" y="87.499"/></g><g style="fill:#000;fill-opacity:1" clip-path="url(#T)"><use xlink:href="#o" x="401.955" y="34.374"/><use xlink:href="#s" x="406.125" y="34.374"/><use xlink:href="#q" x="408.21" y="34.374"/><use xlink:href="#q" x="412.38" y="34.374"/></g><path style="fill:none;stroke-width:12.5;stroke-linecap:square;stroke-linejoin:miter;stroke:#000;stroke-opacity:1;stroke-miterlimit:10" d="M3610.018 104.99v2550" transform="matrix(.1 0 0 -.1 402.424 275.499)"/><path style="fill:none;stroke-width:6.25;stroke-linecap:butt;stroke-linejoin:miter;stroke:#000;stroke-opacity:1;stroke-miterlimit:10" d="M3610.018 104.99h-25m25 53.125h-25m25 53.125h-25m25 53.125h-25m25 53.125h-50m50 53.125h-25m25 53.125h-25m25 53.125h-25m25 53.125h-25m25 53.125h-25m25 53.125h-25m25 53.125h-25m25 53.125h-25m25 53.125h-25m25 53.125h-50m50 53.125h-25m25 53.125h-25m25 53.125h-25m25 53.125h-25m25 53.125h-25m25 53.125h-25m25 53.125h-25m25 53.125h-25m25 53.125h-25m25 53.125h-50m50 53.125h-25m25 53.125h-25m25 53.125h-25m25 53.125h-25m25 53.125h-25m25 53.125h-25m25 53.125h-25m25 53.125h-25m25 53.125h-25m25 53.125h-50m50 53.125h-25m25 53.125h-25m25 53.125h-25m25 53.125h-25m25 53.125h-25m25 53.125h-25m25 53.125h-25m25 53.125h-25m25 53.125h-25m25 53.125h-50m50 53.125h-25m25 53.125h-25m25 53.125h-25m25 53.125h-25" transform="matrix(.1 0 0 -.1 402.424 275.499)"/><g style="fill:#000;fill-opacity:1"><use xlink:href="#q" x="769.674" y="247.499"/><use xlink:href="#s" x="773.844" y="247.499"/><use xlink:href="#q" x="775.929" y="247.499"/><use xlink:href="#q" x="780.099" y="247.499"/></g><g style="fill:#000;fill-opacity:1"><use xlink:href="#q" x="769.674" y="193.749"/><use xlink:href="#s" x="773.844" y="193.749"/><use xlink:href="#n" x="775.929" y="193.749"/><use xlink:href="#u" x="780.099" y="193.749"/></g><g style="fill:#000;fill-opacity:1"><use xlink:href="#q" x="769.674" y="140.624"/><use xlink:href="#s" x="773.844" y="140.624"/><use xlink:href="#u" x="775.929" y="140.624"/><use xlink:href="#q" x="780.099" y="140.624"/></g><g style="fill:#000;fill-opacity:1"><use xlink:href="#q" x="769.674" y="87.499"/><use xlink:href="#s" x="773.844" y="87.499"/><use xlink:href="#x" x="775.929" y="87.499"/><use xlink:href="#u" x="780.099" y="87.499"/></g><g style="fill:#000;fill-opacity:1"><use xlink:href="#o" x="769.674" y="34.374"/><use xlink:href="#s" x="773.844" y="34.374"/><use xlink:href="#q" x="775.929" y="34.374"/><use xlink:href="#q" x="780.099" y="34.374"/></g><g clip-path="url(#U)"><path style="fill:none;stroke-width:12.5;stroke-linecap:round;stroke-linejoin:round;stroke:#00008b;stroke-opacity:1;stroke-miterlimit:10" d="m210.018 339.013 6.25 2.305 6.25 6.68 6.25 10.625 6.25 13.906 6.25 16.29 6.25 17.733 6.25 18.399 6.25 18.242 6.25 17.617 6.25 16.72 6.25 15.702 6.25 14.844 6.25 14.336 6.25 14.101 6.25 14.22 6.25 14.609 6.25 15.195 6.25 15.742 6.25 16.29 6.25 16.6 6.25 16.68 6.25 16.563 6.25 16.25 6.25 15.82 6.25 15.39 6.25 15.079 6.25 14.844 6.25 14.804 6.25 14.922 6.25 15.196 6.25 15.546 6.25 15.899 6.25 16.133 6.25 16.328 6.25 16.289 6.25 16.172 6.25 15.898 6.25 15.625 6.25 15.352 6.25 15.117 6.25 15 6.25 15.078 6.25 15.195 6.25 15.43 6.25 15.664 6.25 15.938 6.25 16.093 12.5 32.344 6.25 15.938 6.25 15.78 6.25 15.509 6.25 15.312 6.25 15.156 6.25 15.079 6.25 15.195 6.25 15.312 6.25 15.547 6.25 15.782 6.25 15.976 6.25 16.094 6.25 16.133 6.25 16.015 6.25 15.899 6.25 15.625 6.25 15.43 6.25 15.273 6.25 15.117 6.25 15.156 6.25 15.235 6.25 15.43 6.25 15.663 6.25 15.86 6.25 16.054 12.5 32.188 6.25 15.976 6.25 15.782 6.25 15.547 6.25 15.351 6.25 15.156 6.25 15.118 6.25 15.156 6.25 15.312 6.25 15.508 6.25 15.742 6.25 15.977 6.25 16.133 6.25 16.172 6.25 16.132 6.25 15.899 6.25 15.703 6.25 15.43 6.25 15.195 12.5 30.078 6.25 15.117 6.25 15.313 6.25 15.664 6.25 15.898 6.25 16.172 12.5 32.578 6.25 16.172 6.25 15.86 6.25 15.546 6.25 15.235 6.25 14.922 6.25 14.804 6.25 14.844 6.25 15.04 6.25 15.429 6.25 15.82 6.25 16.25 6.25 16.563 6.25 16.68 6.25 16.6 6.25 16.25 6.25 15.782 6.25 15.195 6.25 14.61 6.25 14.219 6.25 14.101 6.25 14.297 6.25 14.883 6.25 15.703 6.25 16.68 6.25 17.617 6.25 18.281 6.25 18.36 6.25 17.773 6.25 16.289 6.25 13.867 6.25 10.664 6.25 6.68 6.25 2.305 6.25-2.305 6.25-6.68 6.25-10.664 6.25-13.867 6.25-16.29 6.25-17.773 6.25-18.359 6.25-18.281 6.25-17.617 6.25-16.68 6.25-15.703 6.25-14.883 6.25-14.297 6.25-14.101 6.25-14.22 6.25-14.609 6.25-15.195 6.25-15.781 6.25-16.25 6.25-16.602 6.25-16.68 6.25-16.562 6.25-16.25 6.25-15.82 6.25-15.43 6.25-15.039 6.25-14.844 6.25-14.804 6.25-14.922 6.25-15.235 6.25-15.546 6.25-15.86 6.25-16.172 12.5-32.578 6.25-16.172 6.25-15.898 6.25-15.664 6.25-15.313 6.25-15.117 12.5-30.078 6.25-15.195 6.25-15.43 6.25-15.703 6.25-15.899 6.25-16.132 6.25-16.172 6.25-16.133 6.25-15.977 6.25-15.742 6.25-15.508 6.25-15.312 6.25-15.156 6.25-15.118 6.25-15.156 6.25-15.351 6.25-15.547 6.25-15.782 6.25-15.976 12.5-32.188 6.25-16.054 6.25-15.86 6.25-15.664 6.25-15.43 6.25-15.234 6.25-15.156 6.25-15.117 6.25-15.274 6.25-15.43 6.25-15.624 6.25-15.899 6.25-16.015 6.25-16.133 6.25-16.094 6.25-15.976 6.25-15.782 6.25-15.547 6.25-15.312 6.25-15.195 6.25-15.079 6.25-15.156 6.25-15.312 6.25-15.508 6.25-15.781 6.25-15.938 12.5-32.344 6.25-16.093 6.25-15.938 6.25-15.664 6.25-15.43 6.25-15.195 6.25-15.078 6.25-15 6.25-15.117 6.25-15.352 6.25-15.625 6.25-15.898 6.25-16.172 6.25-16.29 6.25-16.327 6.25-16.133 6.25-15.899 6.25-15.546 6.25-15.196 6.25-14.922 6.25-14.804 6.25-14.844 6.25-15.078 6.25-15.39 6.25-15.821 6.25-16.25 6.25-16.563 6.25-16.68 6.25-16.6 6.25-16.29 6.25-15.742 6.25-15.195 6.25-14.61 6.25-14.219 6.25-14.101 6.25-14.336 6.25-14.844 6.25-15.703 6.25-16.719 6.25-17.617 6.25-18.242 6.25-18.399 6.25-17.734 6.25-16.289 6.25-13.906 6.25-10.625 6.25-6.68 6.25-2.305 6.25 2.305 6.25 6.68 6.25 10.625 6.25 13.906 6.25 16.29 6.25 17.733 6.25 18.399 6.25 18.242 6.25 17.617 6.25 16.72 6.25 15.702 6.25 14.844 6.25 14.336 6.25 14.101 6.25 14.22 6.25 14.609 6.25 15.195 6.25 15.742 6.25 16.29 6.25 16.6 6.25 16.68 6.25 16.563 6.25 16.25 6.25 15.82 6.25 15.39 6.25 15.079 6.25 14.844 6.25 14.804 6.25 14.922 6.25 15.196 6.25 15.546 6.25 15.899 6.25 16.133 6.25 16.328 6.25 16.289 6.25 16.172 6.25 15.898 6.25 15.625 6.25 15.352 6.25 15.117 6.25 15 6.25 15.078 6.25 15.195 6.25 15.43 6.25 15.664 6.25 15.938 6.25 16.093 12.5 32.344 6.25 15.938 6.25 15.78 6.25 15.509 6.25 15.312 6.25 15.156 6.25 15.079 6.25 15.195 6.25 15.312 6.25 15.547 6.25 15.782 6.25 15.976 6.25 16.094 6.25 16.133 6.25 16.015 6.25 15.899 6.25 15.625 6.25 15.43 6.25 15.273 6.25 15.117 6.25 15.156 6.25 15.235 6.25 15.43 6.25 15.663 6.25 15.86 6.25 16.054 12.5 32.188 6.25 15.976 6.25 15.782 6.25 15.547 6.25 15.351 6.25 15.156 6.25 15.118 6.25 15.156 6.25 15.312 6.25 15.508 6.25 15.742 6.25 15.977 6.25 16.133 6.25 16.172 6.25 16.132 6.25 15.899 6.25 15.703 6.25 15.43 6.25 15.195 12.5 30.078 6.25 15.117 6.25 15.313 6.25 15.664 6.25 15.898 6.25 16.172 12.5 32.578 6.25 16.172 6.25 15.86 6.25 15.546 6.25 15.235 6.25 14.922 6.25 14.804 6.25 14.844 6.25 15.04 6.25 15.429 6.25 15.82 6.25 16.25 6.25 16.563 6.25 16.68 6.25 16.6 6.25 16.25 6.25 15.782 6.25 15.195 6.25 14.61 6.25 14.219 6.25 14.101 6.25 14.297 6.25 14.883 6.25 15.703 6.25 16.68 6.25 17.617 6.25 18.281 6.25 18.36 6.25 17.773 6.25 16.289 6.25 13.867 6.25 10.664 6.25 6.68 6.25 2.305 6.25-2.305 6.25-6.68 6.25-10.664 6.25-13.867 6.25-16.29 6.25-17.773 6.25-18.359 6.25-18.281 6.25-17.617 6.25-16.68 6.25-15.703 6.25-14.883 6.25-14.297 6.25-14.101 6.25-14.22 6.25-14.609 6.25-15.195 6.25-15.781 6.25-16.25 6.25-16.602 6.25-16.68 6.25-16.562 6.25-16.25 6.25-15.82 6.25-15.43 6.25-15.039 6.25-14.844 6.25-14.804 6.25-14.922 6.25-15.235 6.25-15.546 6.25-15.86 6.25-16.172 12.5-32.578 6.25-16.172 6.25-15.898 6.25-15.664 6.25-15.313 6.25-15.117 12.5-30.078 6.25-15.195 6.25-15.43 6.25-15.703 6.25-15.899 6.25-16.132 6.25-16.172 6.25-16.133 6.25-15.977 6.25-15.742 6.25-15.508 6.25-15.312 6.25-15.156 6.25-15.118 6.25-15.156 6.25-15.351 6.25-15.547 6.25-15.782 6.25-15.976 12.5-32.188 6.25-16.054 6.25-15.86 6.25-15.664 6.25-15.43 6.25-15.234 6.25-15.156 6.25-15.117 6.25-15.274 6.25-15.43 6.25-15.624 6.25-15.899 6.25-16.015 6.25-16.133 6.25-16.094 6.25-15.976 6.25-15.782 6.25-15.547 6.25-15.312 6.25-15.195 6.25-15.079 6.25-15.156 6.25-15.312 6.25-15.508 6.25-15.781 6.25-15.938 12.5-32.344 6.25-16.093 6.25-15.938 6.25-15.664 6.25-15.43 6.25-15.195 6.25-15.078 6.25-15 6.25-15.117 6.25-15.352 6.25-15.625 6.25-15.898 6.25-16.172 6.25-16.29 6.25-16.327 6.25-16.133 6.25-15.899 6.25-15.546 6.25-15.196 6.25-14.922 6.25-14.804 6.25-14.844 6.25-15.078 6.25-15.39 6.25-15.821 6.25-16.25 6.25-16.563 6.25-16.68 6.25-16.6 6.25-16.29 6.25-15.742 6.25-15.195 6.25-14.61 6.25-14.219 6.25-14.101 6.25-14.336 6.25-14.844 6.25-15.703 6.25-16.719 6.25-17.617 6.25-18.242 6.25-18.399 6.25-17.734 6.25-16.289 6.25-13.906 6.25-10.625 6.25-6.68 6.25-2.305" transform="matrix(.1 0 0 -.1 402.424 275.499)"/></g></svg>