<svg xmlns="http://www.w3.org/2000/svg" xmlns:xlink="http://www.w3.org/1999/xlink" width="400pt" height="380" viewBox="0 0 400 285"><defs><clipPath id="a"><path d="M199 21.66h2v242.25h-2Zm0 0"/></clipPath><clipPath id="b"><path d="M40 142h320v2H40Zm0 0"/></clipPath><clipPath id="c"><path d="M40 21.66h1v242.25h-1Zm0 0"/></clipPath><clipPath id="d"><path d="M119 21.66h2v242.25h-2Zm0 0"/></clipPath><clipPath id="e"><path d="M199 21.66h2v242.25h-2Zm0 0"/></clipPath><clipPath id="f"><path d="M279 21.66h2v242.25h-2Zm0 0"/></clipPath><clipPath id="g"><path d="M359 21.66h1v242.25h-1Zm0 0"/></clipPath><clipPath id="h"><path d="M40 252h320v2H40Zm0 0"/></clipPath><clipPath id="i"><path d="M40 197h320v2H40Zm0 0"/></clipPath><clipPath id="j"><path d="M40 142h320v2H40Zm0 0"/></clipPath><clipPath id="k"><path d="M40 87h320v2H40Zm0 0"/></clipPath><clipPath id="l"><path d="M40 32h320v1H40Zm0 0"/></clipPath><clipPath id="s"><path d="M40 114h320v57H40Zm0 0"/></clipPath><clipPath id="t"><path d="M40 32h320v222H40Zm0 0"/></clipPath><path id="m" d="M1.953-2.14H.313v.5h1.64Zm0 0"/><path id="n" d="M3.469-.594H.906c.063-.406.282-.672.89-1.031l.673-.39C3.156-2.392 3.5-2.892 3.5-3.5c0-.422-.156-.797-.453-1.062-.281-.266-.64-.391-1.094-.391-.625 0-1.078.219-1.344.64-.171.266-.25.579-.265 1.079h.61c.015-.344.062-.532.14-.703a.92.92 0 0 1 .828-.485c.547 0 .969.39.969.938 0 .39-.235.734-.657.984l-.64.36C.578-1.548.28-1.095.234 0H3.47Zm0 0"/><path id="o" d="M1.781-3.531V0h.594v-4.953h-.39c-.22.766-.36.875-1.282.984v.438Zm0 0"/><path id="p" d="M1.89-4.953c-.452 0-.874.203-1.124.547-.313.437-.47 1.093-.47 2.015C.297-.719.845.156 1.892.156c1.03 0 1.593-.875 1.593-2.515 0-.953-.156-1.594-.484-2.047a1.36 1.36 0 0 0-1.11-.547m0 .531c.641 0 .97.672.97 2.016C2.86-1 2.546-.344 1.874-.344c-.64 0-.969-.687-.969-2.047 0-1.359.328-2.03.985-2.03m0 0"/><path id="q" d="M1.313-.719h-.72V0h.72Zm0 0"/><path id="r" d="M3.266-4.86H.75L.39-2.202h.563c.281-.344.516-.453.89-.453.657 0 1.063.437 1.063 1.156 0 .703-.406 1.125-1.062 1.125-.532 0-.86-.266-1-.812h-.61c.094.39.157.578.297.765.282.36.766.578 1.328.578.97 0 1.657-.703 1.657-1.734 0-.953-.641-1.625-1.563-1.625-.344 0-.625.094-.906.297l.187-1.344h2.032Zm0 0"/></defs><path fill="#fff" d="M40 263.91h320V21.66H40Zm0 0"/><g clip-path="url(#a)"><path fill="none" stroke="#bfbfbf" stroke-linecap="round" stroke-miterlimit="10" stroke-width="5.707" d="M1997.503-211.163V-2636.7" transform="matrix(.10013 0 0 .09987 0 285)"/></g><g clip-path="url(#b)"><path fill="none" stroke="#bfbfbf" stroke-linecap="round" stroke-miterlimit="10" stroke-width="5.707" d="M399.5-1423.892h3196.006" transform="matrix(.10013 0 0 .09987 0 285)"/></g><g clip-path="url(#c)"><path fill="none" stroke="#bfbfbf" stroke-dasharray="11.4143 17.1214" stroke-linecap="round" stroke-miterlimit="10" stroke-width="5.707" d="M399.5-211.163V-2636.7" transform="matrix(.10013 0 0 .09987 0 285)"/></g><g clip-path="url(#d)"><path fill="none" stroke="#bfbfbf" stroke-dasharray="11.4143 17.1214" stroke-linecap="round" stroke-miterlimit="10" stroke-width="5.707" d="M1198.502-211.163V-2636.7" transform="matrix(.10013 0 0 .09987 0 285)"/></g><g clip-path="url(#e)"><path fill="none" stroke="#bfbfbf" stroke-dasharray="11.4143 17.1214" stroke-linecap="round" stroke-miterlimit="10" stroke-width="5.707" d="M1997.503-211.163V-2636.7" transform="matrix(.10013 0 0 .09987 0 285)"/></g><g clip-path="url(#f)"><path fill="none" stroke="#bfbfbf" stroke-dasharray="11.4143 17.1214" stroke-linecap="round" stroke-miterlimit="10" stroke-width="5.707" d="M2796.504-211.163V-2636.7" transform="matrix(.10013 0 0 .09987 0 285)"/></g><g clip-path="url(#g)"><path fill="none" stroke="#bfbfbf" stroke-dasharray="11.4143 17.1214" stroke-linecap="round" stroke-miterlimit="10" stroke-width="5.707" d="M3595.506-211.163V-2636.7" transform="matrix(.10013 0 0 .09987 0 285)"/></g><g clip-path="url(#h)"><path fill="none" stroke="#bfbfbf" stroke-dasharray="11.4143 17.1214" stroke-linecap="round" stroke-miterlimit="10" stroke-width="5.707" d="M399.5-321.3h3196.006" transform="matrix(.10013 0 0 .09987 0 285)"/></g><g clip-path="url(#i)"><path fill="none" stroke="#bfbfbf" stroke-dasharray="11.4143 17.1214" stroke-linecap="round" stroke-miterlimit="10" stroke-width="5.707" d="M399.5-872.577h3196.006" transform="matrix(.10013 0 0 .09987 0 285)"/></g><g clip-path="url(#j)"><path fill="none" stroke="#bfbfbf" stroke-dasharray="11.4143 17.1214" stroke-linecap="round" stroke-miterlimit="10" stroke-width="5.707" d="M399.5-1423.892h3196.006" transform="matrix(.10013 0 0 .09987 0 285)"/></g><g clip-path="url(#k)"><path fill="none" stroke="#bfbfbf" stroke-dasharray="11.4143 17.1214" stroke-linecap="round" stroke-miterlimit="10" stroke-width="5.707" d="M399.5-1975.168h3196.006" transform="matrix(.10013 0 0 .09987 0 285)"/></g><g clip-path="url(#l)"><path fill="none" stroke="#bfbfbf" stroke-dasharray="11.4143 17.1214" stroke-linecap="round" stroke-miterlimit="10" stroke-width="5.707" d="M399.5-2526.444h3196.006" transform="matrix(.10013 0 0 .09987 0 285)"/></g><path fill="none" stroke="#000" stroke-linecap="square" stroke-miterlimit="10" stroke-width="11.414" d="M399.5-211.163h3196.006" transform="matrix(.10013 0 0 .09987 0 285)"/><path fill="none" stroke="#000" stroke-miterlimit="10" stroke-width="5.707" d="M399.501-211.163v-45.643m0 45.643v-22.841m79.9 22.841v-22.841m79.9 22.841v-22.841m79.9 22.841v-22.841m79.9 22.841v-22.841m79.9 22.841v-22.841m79.9 22.841v-22.841m79.9 22.841v-22.841m79.901 22.841v-22.841m159.8 22.841v-45.643m0 45.643v-22.841m79.9 22.841v-22.841m79.9 22.841v-22.841m79.9 22.841v-22.841m79.9 22.841v-22.841m79.9 22.841v-22.841m79.901 22.841v-22.841m79.9 22.841v-22.841m79.9 22.841v-22.841m159.8 22.841v-45.643m0 45.643v-22.841m79.9 22.841v-22.841m79.9 22.841v-22.841m79.9 22.841v-22.841m79.901 22.841v-22.841m79.9 22.841v-22.841m79.9 22.841v-22.841m79.9 22.841v-22.841m79.9 22.841v-22.841m159.8 22.841v-45.643m0 45.643v-22.841m79.9 22.841v-22.841m79.901 22.841v-22.841m79.9 22.841v-22.841m79.9 22.841v-22.841m79.9 22.841v-22.841m79.9 22.841v-22.841m79.9 22.841v-22.841m79.9 22.841v-22.841m159.801 22.841v-45.643m0 45.643v-22.841" transform="matrix(.10013 0 0 .09987 0 285)"/><use xlink:href="#m" x="36.952" y="273.03"/><use xlink:href="#n" x="39.236" y="273.03"/><use xlink:href="#m" x="116.953" y="273.03"/><use xlink:href="#o" x="119.236" y="273.03"/><use xlink:href="#p" x="198.094" y="273.03"/><use xlink:href="#o" x="277.524" y="273.03"/><use xlink:href="#n" x="358.095" y="273.03"/><path fill="none" stroke="#000" stroke-linecap="square" stroke-miterlimit="10" stroke-width="11.414" d="M399.5-2636.7h3196.006" transform="matrix(.10013 0 0 .09987 0 285)"/><path fill="none" stroke="#000" stroke-miterlimit="10" stroke-width="5.707" d="M399.501-2636.7v45.643m0-45.643v22.842m79.9-22.842v22.842m79.9-22.842v22.842m79.9-22.842v22.842m79.9-22.842v22.842m79.9-22.842v22.842m79.9-22.842v22.842m79.9-22.842v22.842m79.901-22.842v22.842m159.8-22.842v45.643m0-45.643v22.842m79.9-22.842v22.842m79.9-22.842v22.842m79.9-22.842v22.842m79.9-22.842v22.842m79.9-22.842v22.842m79.901-22.842v22.842m79.9-22.842v22.842m79.9-22.842v22.842m159.8-22.842v45.643m0-45.643v22.842m79.9-22.842v22.842m79.9-22.842v22.842m79.9-22.842v22.842m79.901-22.842v22.842m79.9-22.842v22.842m79.9-22.842v22.842m79.9-22.842v22.842m79.9-22.842v22.842m159.8-22.842v45.643m0-45.643v22.842m79.9-22.842v22.842m79.901-22.842v22.842m79.9-22.842v22.842m79.9-22.842v22.842m79.9-22.842v22.842m79.9-22.842v22.842m79.9-22.842v22.842m79.9-22.842v22.842m159.801-22.842v45.643m0-45.643v22.842" transform="matrix(.10013 0 0 .09987 0 285)"/><use xlink:href="#m" x="36.952" y="19.38"/><use xlink:href="#n" x="39.236" y="19.38"/><use xlink:href="#m" x="116.953" y="19.38"/><use xlink:href="#o" x="119.236" y="19.38"/><use xlink:href="#p" x="198.094" y="19.38"/><use xlink:href="#o" x="277.524" y="19.38"/><use xlink:href="#n" x="358.095" y="19.38"/><path fill="none" stroke="#000" stroke-linecap="square" stroke-miterlimit="10" stroke-width="11.414" d="M399.5-211.163V-2636.7" transform="matrix(.10013 0 0 .09987 0 285)"/><path fill="none" stroke="#000" stroke-miterlimit="10" stroke-width="5.707" d="M399.501-321.301h45.646m-45.646 0h22.823m-22.823-55.147h22.823m-22.823-55.108h22.823m-22.823-55.147h22.823m-22.823-55.108h22.823m-22.823-55.147h22.823m-22.823-55.108h22.823m-22.823-55.148h22.823m-22.823-55.108h22.823m-22.823-110.255h45.646m-45.646 0h22.823m-22.823-55.147h22.823m-22.823-55.147h22.823m-22.823-55.108h22.823m-22.823-55.147h22.823m-22.823-55.108h22.823m-22.823-55.148h22.823m-22.823-55.108h22.823m-22.823-55.147h22.823m-22.823-110.255h45.646m-45.646 0h22.823M399.501-1479h22.823m-22.823-55.147h22.823m-22.823-55.108h22.823m-22.823-55.148h22.823m-22.823-55.108h22.823m-22.823-55.147h22.823m-22.823-55.108h22.823m-22.823-55.147h22.823m-22.823-110.255h45.646m-45.646 0h22.823m-22.823-55.147h22.823m-22.823-55.108h22.823m-22.823-55.109h22.823m-22.823-55.147h22.823m-22.823-55.147h22.823m-22.823-55.108h22.823m-22.823-55.147h22.823m-22.823-55.108h22.823m-22.823-110.255h45.646m-45.646 0h22.823m-22.823-55.148h22.823m-22.823-55.108h22.823" transform="matrix(.10013 0 0 .09987 0 285)"/><use xlink:href="#m" x="22.471" y="255.93"/><use xlink:href="#o" x="24.755" y="255.93"/><use xlink:href="#q" x="28.567" y="255.93"/><use xlink:href="#p" x="30.473" y="255.93"/><use xlink:href="#m" x="22.471" y="201.21"/><use xlink:href="#p" x="24.755" y="201.21"/><use xlink:href="#q" x="28.567" y="201.21"/><use xlink:href="#r" x="30.473" y="201.21"/><use xlink:href="#p" x="24.755" y="145.92"/><use xlink:href="#q" x="28.567" y="145.92"/><use xlink:href="#p" x="30.474" y="145.92"/><use xlink:href="#p" x="24.755" y="90.63"/><use xlink:href="#q" x="28.567" y="90.63"/><use xlink:href="#r" x="30.474" y="90.63"/><use xlink:href="#o" x="24.755" y="35.91"/><use xlink:href="#q" x="28.567" y="35.91"/><use xlink:href="#p" x="30.474" y="35.91"/><path fill="none" stroke="#000" stroke-linecap="square" stroke-miterlimit="10" stroke-width="11.414" d="M3595.506-211.163V-2636.7" transform="matrix(.10013 0 0 .09987 0 285)"/><path fill="none" stroke="#000" stroke-miterlimit="10" stroke-width="5.707" d="M3595.506-321.301h-45.685m45.685 0h-22.823m22.823-55.147h-22.823m22.823-55.108h-22.823m22.823-55.147h-22.823m22.823-55.108h-22.823m22.823-55.147h-22.823m22.823-55.108h-22.823m22.823-55.148h-22.823m22.823-55.108h-22.823m22.823-110.255h-45.685m45.685 0h-22.823m22.823-55.147h-22.823m22.823-55.147h-22.823m22.823-55.108h-22.823m22.823-55.147h-22.823m22.823-55.108h-22.823m22.823-55.148h-22.823m22.823-55.108h-22.823m22.823-55.147h-22.823m22.823-110.255h-45.685m45.685 0h-22.823m22.823-55.108h-22.823m22.823-55.147h-22.823m22.823-55.108h-22.823m22.823-55.148h-22.823m22.823-55.108h-22.823m22.823-55.147h-22.823m22.823-55.108h-22.823m22.823-55.147h-22.823m22.823-110.255h-45.685m45.685 0h-22.823m22.823-55.147h-22.823m22.823-55.108h-22.823m22.823-55.109h-22.823m22.823-55.147h-22.823m22.823-55.147h-22.823m22.823-55.108h-22.823m22.823-55.147h-22.823m22.823-55.108h-22.823m22.823-110.255h-45.685m45.685 0h-22.823m22.823-55.148h-22.823m22.823-55.108h-22.823" transform="matrix(.10013 0 0 .09987 0 285)"/><use xlink:href="#m" x="365.714" y="255.93"/><use xlink:href="#o" x="367.997" y="255.93"/><use xlink:href="#q" x="371.81" y="255.93"/><use xlink:href="#p" x="373.716" y="255.93"/><use xlink:href="#m" x="365.714" y="201.21"/><use xlink:href="#p" x="367.997" y="201.21"/><use xlink:href="#q" x="371.81" y="201.21"/><use xlink:href="#r" x="373.716" y="201.21"/><use xlink:href="#p" x="365.714" y="145.92"/><use xlink:href="#q" x="369.527" y="145.92"/><use xlink:href="#p" x="371.433" y="145.92"/><use xlink:href="#p" x="365.714" y="90.63"/><use xlink:href="#q" x="369.527" y="90.63"/><use xlink:href="#r" x="371.433" y="90.63"/><use xlink:href="#o" x="365.714" y="35.91"/><use xlink:href="#q" x="369.527" y="35.91"/><use xlink:href="#p" x="371.433" y="35.91"/><g clip-path="url(#s)"><path fill="none" stroke="#00008b" stroke-linejoin="round" stroke-miterlimit="10" stroke-width="11.414" d="m399.5-1423.892 1.132-1.565 1.17-1.564 1.132-1.604 1.17-1.564 1.132-1.564 1.17-1.565 1.131-1.525 1.132-1.565 2.263-3.05 1.131-1.487 2.263-3.05 3.394-4.46 1.17-1.564 2.341-3.05 1.17-1.486 1.171-1.526 1.131-1.525 2.341-2.973 4.526-5.788 2.263-2.855 2.263-2.816 2.262-2.895 2.302-2.855 2.302-2.816 2.302-2.855 2.34-2.777 2.302-2.816 2.302-2.777 2.302-2.738 2.263-2.698 2.302-2.699 2.262-2.66 2.263-2.62 4.604-5.32 2.34-2.62 2.302-2.58 2.224-2.543 2.263-2.542 2.263-2.464 2.263-2.504 2.262-2.464 2.302-2.503 2.302-2.464 2.263-2.425 4.681-4.928 2.302-2.425 2.341-2.425 2.263-2.346 2.302-2.308 2.263-2.307 2.262-2.269 2.302-2.268 2.263-2.269 2.302-2.23 2.263-2.228 2.301-2.19 2.263-2.191 2.302-2.19 2.302-2.151 4.525-4.224 2.302-2.073 2.263-2.112 2.302-2.034 2.302-2.073 2.262-2.034 4.604-3.99 2.34-1.994 2.303-1.995 2.301-1.955 6.789-5.632 2.263-1.838 2.34-1.878 2.302-1.877 2.341-1.838 2.34-1.8 2.264-1.76 2.262-1.72 2.224-1.721 2.263-1.682 2.302-1.721 6.905-5.045 2.302-1.643 2.302-1.604 2.34-1.603 2.303-1.604 4.525-3.05 2.302-1.526 2.263-1.486 6.905-4.459 2.302-1.408 4.526-2.777 4.525-2.698 4.565-2.66 4.564-2.581 4.643-2.543 4.682-2.503 4.525-2.346 4.565-2.269 4.564-2.23 4.565-2.15 4.565-2.073 4.564-2.034 4.565-1.916 4.565-1.839 4.564-1.799 4.604-1.72 4.603-1.683 4.643-1.603 9.051-2.894 9.324-2.66 9.013-2.347 9.207-2.073 9.207-1.76 9.13-1.486 9.207-1.212 4.486-.47 4.526-.43 4.564-.313 2.302-.156 2.263-.157 2.34-.078 2.342-.117 2.34-.04 2.302-.077 2.302-.04h6.827l2.263.04 2.263.078 2.302.039 2.263.117 2.301.078 2.302.157 4.565.274 2.263.195 2.302.196 4.525.47 4.604.508 4.564.586 9.247 1.447 9.05 1.682 9.325 1.995 9.012 2.268 9.207 2.582 4.643 1.408 4.604 1.486 4.564 1.525 4.526 1.604 4.604 1.682 4.642 1.76 4.487 1.799 4.525 1.877 4.565 1.995 4.565 2.034 4.681 2.15 4.643 2.23 4.564 2.269 4.526 2.307 4.565 2.386 4.564 2.464 4.565 2.581 4.603 2.62 4.565 2.66 4.526 2.777 4.603 2.816 2.263 1.486 2.302 1.448 2.302 1.486 2.34 1.525 2.302 1.526 2.302 1.564 2.263 1.525 2.263 1.565 2.263 1.603 2.262 1.565 2.341 1.682 2.302 1.642 2.34 1.721 2.342 1.682 2.262 1.682 2.224 1.72 4.526 3.443 2.302 1.799 2.301 1.76 4.604 3.676 6.905 5.632 2.341 1.917 4.526 3.833 2.302 1.955 2.262 1.956 2.302 1.994 4.604 4.068 2.302 2.073 4.525 4.068 2.263 2.072 2.224 2.112 2.302 2.112 2.302 2.152 2.262 2.15 2.263 2.19 7.023 6.806 2.34 2.308 2.263 2.268 2.263 2.308 2.302 2.268 4.525 4.694 2.302 2.346 2.263 2.386 2.302 2.386 2.263 2.425 2.301 2.464 2.263 2.464 2.302 2.464 2.302 2.503 4.525 5.006 2.302 2.543 2.263 2.581 2.302 2.581 4.603 5.241 2.302 2.66 4.604 5.397 2.34 2.699 4.526 5.397 4.526 5.476 2.302 2.816 2.34 2.855 4.682 5.789 2.224 2.816 2.263 2.816 2.263 2.855 3.394 4.341 1.17 1.486 1.132 1.487 1.17 1.486 1.131 1.486 1.17 1.486 1.132 1.487 1.17 1.525 1.132 1.486 1.17 1.526 1.132 1.525 1.17 1.525 1.132 1.526 1.17 1.564 1.17 1.525 1.132 1.565 1.131 1.486 1.132 1.525 1.17 1.565 1.131 1.564 1.132 1.526 1.131 1.564 1.17 1.526 1.132 1.564 1.131 1.604 1.17 1.564 1.132 1.604 1.17 1.564 1.132 1.604 1.17 1.564 1.132 1.565 1.17 1.564 3.395 4.576 1.092 1.486 2.263 3.051 2.262 2.972 1.17 1.526 1.132 1.525 2.263 2.973 1.17 1.486 3.395 4.459 1.17 1.486 1.17 1.525 4.682 5.945 1.132 1.486 1.17 1.487 2.302 2.855 6.788 8.448 2.302 2.816 2.263 2.777 2.302 2.738 2.262 2.737 2.302 2.738 2.302 2.699 2.263 2.698 2.302 2.7 2.262 2.62 2.302 2.66 2.263 2.62 2.302 2.581 2.263 2.581 2.301 2.582 2.302 2.542 2.263 2.542 2.34 2.543 2.303 2.542 2.301 2.503 2.302 2.464 2.263 2.425 4.526 4.771 2.262 2.347 2.341 2.425 4.682 4.772 2.302 2.385 2.263 2.269 4.525 4.459 2.224 2.19 2.302 2.268 2.302 2.19 2.301 2.23 2.302 2.19 4.604 4.302 2.34 2.152 2.302 2.112 2.263 2.072 2.302 2.034 4.526 4.068 2.301 2.034 2.341 1.994 2.263 1.995 2.302 1.956 2.263 1.916 4.525 3.755 2.263 1.838 2.263 1.877 2.302 1.839 2.262 1.838 2.302 1.799 2.341 1.8 2.302 1.837 2.34 1.8 2.342 1.76 2.262 1.681 2.302 1.721 2.263 1.643 2.263 1.682 2.302 1.642 4.525 3.207 2.302 1.565 2.302 1.603 2.263 1.565 4.603 3.05 4.526 2.973 2.302 1.447 2.262 1.447 4.604 2.855 4.565 2.777 4.603 2.7 4.643 2.659 4.525 2.542 4.526 2.425 4.643 2.464 4.681 2.386 4.487 2.229 4.526 2.151 4.603 2.112 4.604 2.073 4.603 1.995 4.604 1.877 4.565 1.838 4.564 1.76 4.604 1.682 4.603 1.643 4.526 1.486 4.487 1.447 9.168 2.738 9.324 2.464 9.09 2.112 9.09 1.838 9.169 1.565 9.129 1.251 4.565.548 4.603.43 4.604.391 2.302.157 2.34.156 4.487.235 4.526.156 2.34.078h2.341l2.341.04h2.302l2.263-.04h2.263l4.525-.156 2.302-.078 2.302-.118 4.603-.273 2.302-.157 6.906-.586 4.564-.509 4.565-.547 9.207-1.37 9.012-1.603 9.13-1.916 9.324-2.23 9.129-2.503 4.526-1.33 4.564-1.447 4.565-1.486 4.603-1.565 4.565-1.642 4.565-1.721 4.564-1.8 4.565-1.837 4.642-1.956 4.604-2.034 4.526-2.073 4.525-2.112 4.682-2.268 4.643-2.347 4.525-2.347 4.487-2.425 4.603-2.503 4.604-2.62 4.604-2.66 4.642-2.738 4.565-2.816 4.525-2.855 4.604-2.972 4.604-3.05 2.262-1.487 6.789-4.693 2.263-1.604 2.301-1.604 2.263-1.642 2.302-1.682 2.34-1.721 2.303-1.72 4.681-3.52 4.526-3.52 2.302-1.76 2.262-1.8 2.302-1.838 4.526-3.677 2.302-1.877 2.302-1.917 2.262-1.916 2.302-1.917 2.263-1.955 2.302-1.995 2.263-1.955 2.301-1.995 2.263-2.034 2.302-2.034 2.263-2.073 2.302-2.072 2.301-2.112 4.604-4.303 2.34-2.19 2.303-2.19 2.262-2.151 4.526-4.38 2.263-2.23 2.302-2.269 7.022-7.04 2.263-2.307 2.224-2.308 4.525-4.693 4.604-4.85 4.603-4.928 2.302-2.503 2.302-2.542 2.302-2.504 2.34-2.581 4.526-5.084 2.302-2.582 2.263-2.581 6.905-7.979 2.302-2.699 2.263-2.66 2.263-2.698 2.263-2.66 2.223-2.737 2.302-2.738 2.263-2.816 2.302-2.777 2.263-2.816 3.51-4.341 1.171-1.487 1.17-1.447 1.171-1.486 1.17-1.447 1.17-1.486 4.526-5.789 2.263-2.972 1.17-1.447 4.526-5.945 1.17-1.487 1.132-1.525 1.131-1.486 2.263-3.05 1.17-1.526 2.263-3.051 1.17-1.564 1.132-1.526 1.17-1.564 2.264-3.13 1.13-1.524 1.132-1.565 1.17-1.564 3.395-4.694 1.17-1.564 3.395-4.694 1.17-1.525 1.131-1.564 1.132-1.526 1.17-1.525 1.132-1.565 1.13-1.525 2.342-3.05 1.17-1.565 1.132-1.486 1.17-1.565 1.131-1.486 1.17-1.525 1.171-1.487 1.132-1.486 1.131-1.447 1.131-1.486 1.132-1.447 1.092-1.447 1.132-1.448 2.262-2.855 3.512-4.458 4.681-5.789 1.132-1.447 4.525-5.554 4.526-5.475 2.302-2.777 2.262-2.738 2.341-2.738 6.906-8.096 2.302-2.66 2.301-2.62 2.263-2.62 2.302-2.582 2.263-2.542 6.905-7.627 2.263-2.503 2.302-2.503 2.263-2.425 2.262-2.386 2.263-2.425 2.263-2.346 2.302-2.386 2.263-2.386 2.262-2.347 2.302-2.307 2.341-2.386 2.34-2.347 2.342-2.307 2.301-2.308 2.302-2.23 2.263-2.229 2.263-2.19 2.263-2.151 2.301-2.19 2.263-2.112 2.302-2.151 2.263-2.112 2.302-2.073 2.262-2.112 2.302-2.073 2.302-2.034 4.526-3.99 2.301-1.994 2.263-1.956 4.604-3.91 2.263-1.917 2.302-1.917 2.301-1.877 2.341-1.878 2.302-1.877 2.302-1.838 2.263-1.8 4.525-3.52 2.263-1.72 2.34-1.8 2.303-1.72 2.34-1.76 2.341-1.721 2.263-1.604 2.224-1.642 4.525-3.208 2.302-1.603 6.906-4.693 4.603-3.051 2.341-1.486 2.302-1.448 4.525-2.894 4.565-2.777 4.604-2.737 4.603-2.7 4.526-2.541 4.526-2.504 4.564-2.424 4.565-2.347 4.642-2.347 4.682-2.268 4.565-2.151 4.525-2.073 4.565-1.995 4.564-1.916 4.565-1.878 4.565-1.799 9.129-3.364 4.564-1.564 4.604-1.486 4.604-1.447 4.642-1.37 9.052-2.463 9.324-2.269 9.012-1.877 9.207-1.643 9.207-1.369 4.565-.547 4.565-.47 4.603-.43 4.604-.352 2.263-.117 2.223-.157 4.526-.195 1.17-.04h1.132l2.263-.077 2.302-.04h6.944l2.34.04 2.342.078 2.262.039 2.263.117 2.263.078 2.302.157 4.525.313 2.302.156 2.263.196 4.604.47 4.564.508 9.13 1.251 9.129 1.565 9.246 1.877 9.051 2.112 9.324 2.464 9.052 2.66 4.564 1.486 4.643 1.525 4.603 1.643 4.604 1.72 4.565 1.722 4.525 1.838 4.643 1.877 4.604 1.995 4.486 2.034 4.526 2.073 4.564 2.19 4.565 2.268 4.682 2.386 4.642 2.425 4.565 2.464 4.525 2.542 4.565 2.62 4.565 2.7 4.564 2.737 4.604 2.855 4.525 2.895 2.302 1.486 2.263 1.486 2.302 1.525 2.302 1.565 2.262 1.525 4.604 3.207 2.34 1.604 2.303 1.643 2.301 1.681 4.526 3.286 2.263 1.682 2.263 1.72 2.34 1.76 2.302 1.8 2.341 1.799 2.341 1.838 2.263 1.76 2.263 1.8 2.223 1.837 2.263 1.839 2.302 1.877 4.604 3.833 2.301 1.955 2.302 1.995 2.302 1.956 2.34 2.034 2.303 1.994 4.525 4.068 2.302 2.073 2.263 2.073 4.603 4.224 4.604 4.302 4.526 4.302 4.525 4.38 2.263 2.23 2.302 2.268 6.905 6.923 2.302 2.386 2.34 2.386 2.342 2.425 4.525 4.771 2.302 2.425 4.526 4.85 2.302 2.464 2.262 2.503 2.302 2.503 2.263 2.543 2.302 2.542 4.603 5.163 2.263 2.62 2.263 2.581 2.302 2.66 2.263 2.62 2.262 2.7 4.604 5.396 2.302 2.738 2.302 2.777 2.301 2.816 2.302 2.777 2.341 2.855 2.263 2.777 2.263 2.816 2.223 2.816 2.302 2.855 1.132 1.487 1.17 1.447 3.511 4.458 1.17 1.526 1.171 1.486 1.17 1.525 1.093 1.448 1.131 1.447 2.263 2.972 1.132 1.447 3.394 4.459 1.131 1.525 1.17 1.526 1.132 1.564 1.17 1.525 1.132 1.565 1.17 1.525 1.132 1.565 1.17 1.564 1.131 1.565 1.17 1.564 1.132 1.565 1.17 1.603 1.132 1.565 1.17 1.603 1.17 1.565 1.132 1.603 1.132 1.565 1.17 1.564 1.131 1.525 1.132 1.565 1.131 1.525 1.132 1.565 1.17 1.525 2.263 3.05 1.17 1.565 1.132 1.526 1.17 1.525 1.131 1.525 1.17 1.526 1.132 1.486 1.17 1.525 1.132 1.447 2.263 2.973 2.263 2.894 1.092 1.447 2.263 2.894 1.131 1.487 1.17 1.447 2.263 2.894 2.302 2.855 2.263 2.855 2.34 2.895 7.023 8.565 2.263 2.777 2.263 2.699 2.263 2.737 2.302 2.699 2.262 2.66 2.263 2.698 2.302 2.66 2.263 2.62 2.302 2.62 2.262 2.582 4.604 5.163 2.263 2.542 2.302 2.542 2.262 2.504 2.263 2.464 2.302 2.503 2.302 2.464 2.302 2.425 2.262 2.425 2.341 2.464 2.302 2.385 2.302 2.425 2.302 2.347 4.525 4.615 2.263 2.269 2.263 2.229 4.681 4.615 2.302 2.269 2.341 2.229 4.526 4.302 4.525 4.224 2.263 2.151 2.302 2.112 6.905 6.219 2.341 2.034 2.302 2.034 2.302 1.994 2.263 1.956 2.301 1.955 4.526 3.833 4.604 3.833 2.301 1.839 2.341 1.877 2.224 1.799 2.263 1.76 2.263 1.8 2.262 1.76 2.263 1.72 2.302 1.76 2.263 1.682 2.302 1.72 2.34 1.722 2.302 1.682 2.341 1.681 2.34 1.643 2.264 1.643 2.302 1.564 2.262 1.565 2.263 1.525 2.302 1.525 2.263 1.526 2.262 1.486 4.604 2.972 2.263 1.447 4.604 2.816 4.525 2.777 4.565 2.7 4.603 2.62 4.565 2.542 4.604 2.503 4.642 2.425 4.526 2.307 4.525 2.23 4.643 2.23 4.682 2.19 4.486 1.994 4.526 1.956 4.603 1.916 4.604 1.838 4.604 1.76 4.642 1.682 4.526 1.604 4.565 1.564 4.603 1.447 4.604 1.408 9.051 2.543 9.13 2.268 9.323 2.034 9.09 1.682 9.13 1.408 9.13 1.134 2.3.235 2.264.195 4.564.391 2.302.157 2.263.156 4.604.235 1.13.039 1.171.039 4.604.156h2.34l2.264.04h2.262l2.263-.04h2.224l7.022-.234 2.302-.118 4.526-.273 4.525-.313 4.604-.43 4.604-.509 9.207-1.212 9.09-1.448 9.246-1.799 9.013-2.033 9.129-2.347 9.324-2.699 4.565-1.408 4.564-1.486 4.565-1.565 4.525-1.681 4.604-1.682 4.565-1.8 4.564-1.877 4.526-1.916 4.604-1.995 4.564-2.073 4.643-2.19 4.603-2.23 4.526-2.307 4.526-2.346 4.642-2.465 4.682-2.58 4.525-2.543 4.487-2.62 4.604-2.738 4.603-2.816 2.302-1.448 2.34-1.447 4.605-2.972 2.262-1.525 2.263-1.487 2.302-1.525 2.263-1.565 6.905-4.81 2.302-1.643 2.263-1.603 2.263-1.643 4.525-3.364 2.263-1.72 2.302-1.722 2.263-1.76 2.301-1.76 4.682-3.676 2.302-1.838 2.34-1.917 2.263-1.838 2.302-1.877 2.263-1.878 2.263-1.916 2.302-1.917 4.525-3.91 2.302-1.995 2.263-1.995 4.603-4.068 2.302-2.073 4.526-4.145 2.302-2.112 2.262-2.152 2.302-2.15 2.263-2.152 2.302-2.19 4.604-4.459 2.34-2.268 9.13-9.152 4.525-4.616 2.302-2.424 2.34-2.425 4.682-4.928 2.263-2.425 2.224-2.425 2.263-2.425 2.263-2.464 4.603-5.085 4.604-5.162 6.905-7.862 4.604-5.319 2.263-2.66 2.262-2.698 2.302-2.699 2.302-2.738 4.604-5.554 2.302-2.816 4.525-5.553 2.263-2.816 2.224-2.816 2.302-2.856 2.262-2.894 1.17-1.447 1.132-1.447 1.132-1.486 1.13-1.447 1.171-1.487 1.17-1.525 1.171-1.486 5.852-7.627 1.132-1.525 1.131-1.487 1.131-1.525 1.132-1.486 2.263-3.05 1.17-1.526 2.263-3.05 1.131-1.565 1.132-1.526 1.17-1.564 4.526-6.258" transform="matrix(.10013 0 0 .09987 0 285)"/></g><g clip-path="url(#t)"><path fill="none" stroke="#006400" stroke-linejoin="round" stroke-miterlimit="10" stroke-width="11.414" d="m399.54-2526.327 9.168 25.266 9.13 25.266 9.05 24.914 9.168 25.383 9.169 25.227 9.285 25.657 9.168 25.305 9.051 24.954 9.13 25.187 9.285 25.618 9.051 25.032 9.246 25.461 27.388 75.681 9.246 25.422 9.13 25.266 9.168 25.266 9.012 24.914 9.207 25.384 9.13 25.227 9.324 25.696 9.168 25.266 9.051 24.953 9.13 25.227 9.245 25.579 9.09 25.07 9.208 25.423 9.168 25.227 18.259 50.453 9.207 25.423 18.336 50.532 9.012 24.914 9.208 25.383 9.129 25.227 9.285 25.696 9.207 25.306 9.013 24.914 9.129 25.226 9.285 25.618 9.09 25.032 9.207 25.461 9.13 25.188 9.168 25.227 9.13 25.227 9.206 25.422 9.169 25.266 9.129 25.266 9.051 24.953 9.168 25.345 9.168 25.227 9.286 25.696 9.168 25.305 9.051 24.953 9.13 25.188 9.285 25.579 9.05 25.07 9.247 25.462 9.13 25.188 9.128 25.266 9.13 25.187 9.246 25.462 9.13 25.227 9.167 25.266 9.013 24.953 9.207 25.383 9.129 25.188 9.324 25.696 9.169 25.305 9.012 24.954 9.129 25.187 9.324 25.618 9.051 25.032 9.208 25.461 9.168 25.227 9.13 25.227 9.128 25.188 9.208 25.461 18.336 50.532 9.012 24.914 9.207 25.384 9.13 25.188 9.324 25.696 9.168 25.305 2.224 5.945 2.263-6.258 4.525-12.477 9.13-25.187 9.285-25.618 9.09-25.032 9.207-25.461 9.13-25.227 9.168-25.227 9.129-25.188 9.207-25.461 9.13-25.227 9.168-25.266 9.05-24.953 9.169-25.384 9.13-25.188 9.323-25.696 9.169-25.305 9.05-24.953 9.13-25.188 9.285-25.618 9.052-25.031 9.246-25.462 18.258-50.454 9.13-25.187 9.207-25.462 9.168-25.227 9.168-25.305 9.012-24.914 9.208-25.383 9.129-25.188 9.324-25.696 9.168-25.305 9.012-24.953 9.13-25.188 9.285-25.618 9.09-25.032 9.207-25.461 9.13-25.227 9.168-25.227 9.129-25.227 9.207-25.422 9.168-25.266 9.13-25.266 9.05-24.914 9.208-25.384 9.13-25.227 9.285-25.657 9.168-25.305 9.051-24.953 9.13-25.227 9.284-25.579 9.052-25.031 9.246-25.462 18.258-50.453 9.169-25.227 9.207-25.423 9.129-25.266 9.168-25.266 9.051-24.914 9.169-25.383 9.168-25.227 9.285-25.696 9.168-25.266 9.052-24.953 9.129-25.227 9.285-25.58 9.051-25.07 9.247-25.422 27.387-75.68 9.246-25.423 9.13-25.266 9.168-25.266 9.012-24.914 9.207-25.384 9.13-25.227 9.324-25.696 9.168-25.305 9.012-24.953 9.13-25.188 9.285-25.579 9.09-25.07 9.207-25.462 9.168-25.187 9.13-25.227 4.564-12.633 4.565 12.594 9.207 25.422 9.168 25.266 9.13 25.266 9.05 24.914 9.208 25.383 9.13 25.227 9.284 25.696 9.169 25.266 9.05 24.954 9.13 25.187 9.285 25.618 9.09 25.032 9.208 25.461 9.129 25.227 9.13 25.266 9.167 25.188 9.208 25.422 9.129 25.266 9.168 25.266 9.051 24.914 9.168 25.384 9.13 25.227 9.324 25.696 9.168 25.305 9.012 24.953 9.169 25.188 9.285 25.618 9.051 25.031 9.246 25.462 9.13 25.188 9.129 25.266 9.129 25.187 9.207 25.423 18.337 50.532 9.012 24.953 9.207 25.383 9.13 25.188 9.323 25.696 9.169 25.306 9.012 24.953 9.13 25.187 9.284 25.618 9.09 25.032 9.208 25.461 9.129 25.227 9.168 25.227 9.13 25.227 9.207 25.422 9.168 25.227 9.13 25.306 9.05 24.914 9.208 25.383 9.129 25.188 9.285 25.696 9.168 25.305 9.051 24.953 9.13 25.188 9.285 25.618 9.051 25.031 9.246 25.462 27.388 75.68 9.246 25.423 9.13 25.266 9.168 25.266 9.05 24.914 9.17 25.383 9.128 25.227 9.325 25.657 9.168 25.305 9.051 24.954 9.13 25.187 9.246 25.618 9.09 25.032 9.207 25.461 9.168 25.227 18.259 50.454 9.207 25.422 9.168 25.266 9.13 25.266 9.05 24.914 9.208 25.384 9.129 25.227 4.643 12.828 2.34 6.219 2.302-6.414 4.604-12.672 4.603-12.633 9.013-24.954 9.129-25.187 9.285-25.618 9.09-25.032 9.208-25.461 9.129-25.227 9.168-25.227 9.13-25.227 9.206-25.422 9.169-25.266 9.129-25.266 9.051-24.914 9.207-25.384 9.13-25.188 9.285-25.696 9.168-25.305 9.051-24.953 9.13-25.188 9.285-25.618 9.05-25.031 9.247-25.462 27.388-75.68 9.246-25.423 9.13-25.266 9.167-25.266 9.013-24.914 9.207-25.383 9.13-25.227 9.323-25.696 9.169-25.266 9.012-24.953 9.168-25.188 9.246-25.618 9.09-25.032 9.208-25.461 9.168-25.227 9.13-25.266 9.128-25.188 9.208-25.422 18.336-50.532 9.012-24.914 9.207-25.384 9.13-25.227 9.285-25.696 9.168-25.305 9.051-24.914 9.13-25.227 9.285-25.579 9.09-25.07 9.207-25.462 9.13-25.188 9.129-25.266 9.168-25.187 9.207-25.423 9.13-25.266 9.168-25.266 9.05-24.953 9.169-25.344 9.168-25.227 9.286-25.696 9.168-25.305 9.05-24.954 9.13-25.187 9.246-25.618 9.09-25.032 9.208-25.461 9.168-25.227 9.13-25.227 9.128-25.188 9.247-25.461 9.129-25.227 9.168-25.266 9.012-24.953 9.208-25.384 9.129-25.188 9.324-25.696 9.168-25.305 9.012-24.953 9.13-25.188 9.285-25.618 9.09-25.031 9.207-25.462 9.13-25.148" transform="matrix(.10013 0 0 .09987 0 285)"/></g></svg>