<svg xmlns="http://www.w3.org/2000/svg" xmlns:xlink="http://www.w3.org/1999/xlink" width="382pt" height="275pt" viewBox="0 0 382 275"><defs><clipPath id="a"><path d="M21 9.5h1v255h-1zm0 0"/></clipPath><clipPath id="b"><path d="M21 252h340v2H21zm0 0"/></clipPath><clipPath id="c"><path d="M21 9.5h1v255h-1zm0 0"/></clipPath><clipPath id="d"><path d="M105 9.5h2v255h-2zm0 0"/></clipPath><clipPath id="e"><path d="M190 9.5h2v255h-2zm0 0"/></clipPath><clipPath id="f"><path d="M275 9.5h2v255h-2zm0 0"/></clipPath><clipPath id="g"><path d="M360 9.5h1v255h-1zm0 0"/></clipPath><clipPath id="h"><path d="M21 252h340v2H21zm0 0"/></clipPath><clipPath id="i"><path d="M21 206h340v1H21zm0 0"/></clipPath><clipPath id="j"><path d="M21 159h340v2H21zm0 0"/></clipPath><clipPath id="k"><path d="M21 113h340v2H21zm0 0"/></clipPath><clipPath id="l"><path d="M21 67h340v1H21zm0 0"/></clipPath><clipPath id="m"><path d="M21 20h340v2H21zm0 0"/></clipPath><clipPath id="t"><path d="M21 20h340v234H21zm0 0"/></clipPath><symbol overflow="visible" id="n"><path style="stroke:none" d="M2.063-5.313c-.5 0-.938.22-1.22.579C.5-4.266.329-3.563.329-2.578c0 1.797.594 2.75 1.734 2.75 1.126 0 1.735-.953 1.735-2.703 0-1.031-.156-1.719-.516-2.203-.281-.375-.719-.579-1.219-.579zm0 .579c.718 0 1.062.718 1.062 2.14 0 1.516-.344 2.219-1.078 2.219C1.344-.375 1-1.109 1-2.563c0-1.453.344-2.171 1.063-2.171zm0 0"/></symbol><symbol overflow="visible" id="o"><path style="stroke:none" d="M1.438-.781H.655V0h.781zm0 0"/></symbol><symbol overflow="visible" id="p"><path style="stroke:none" d="M3.797-.656H1c.063-.438.313-.703.953-1.094l.75-.406c.75-.406 1.125-.953 1.125-1.594 0-.453-.172-.86-.484-1.14-.328-.298-.719-.423-1.219-.423-.672 0-1.172.235-1.469.688-.187.281-.265.61-.281 1.156h.656c.032-.36.078-.578.157-.75.171-.328.515-.515.921-.515.594 0 1.047.421 1.047.984 0 .422-.25.781-.719 1.063l-.687.39C.64-1.672.312-1.172.25 0h3.547zm0 0"/></symbol><symbol overflow="visible" id="q"><path style="stroke:none" d="M3.563-5.313H.828L.422-2.421h.61c.312-.375.562-.5.984-.5.703 0 1.156.485 1.156 1.281 0 .766-.438 1.235-1.156 1.235-.579 0-.938-.297-1.094-.906H.266c.093.437.156.656.312.843.313.406.844.64 1.453.64 1.063 0 1.813-.78 1.813-1.905 0-1.047-.688-1.766-1.719-1.766-.375 0-.672.094-.984.313l.218-1.485h2.204zm0 0"/></symbol><symbol overflow="visible" id="r"><path style="stroke:none" d="M3.906-5.313H.344v.641h2.875C1.953-2.859 1.438-1.75 1.03 0h.703c.297-1.703.97-3.172 2.172-4.766zm0 0"/></symbol><symbol overflow="visible" id="s"><path style="stroke:none" d="M1.938-3.781V0h.671v-5.313h-.437c-.235.813-.39.922-1.406 1.047v.485zm0 0"/></symbol></defs><g clip-path="url(#a)"><path style="fill:none;stroke-width:6.25;stroke-linecap:round;stroke-linejoin:miter;stroke:#bfbfbf;stroke-opacity:1;stroke-miterlimit:10" d="M210 105v2550" transform="matrix(.1 0 0 -.1 0 275)"/></g><g clip-path="url(#b)"><path style="fill:none;stroke-width:6.25;stroke-linecap:round;stroke-linejoin:miter;stroke:#bfbfbf;stroke-opacity:1;stroke-miterlimit:10" d="M210 220.898h3400" transform="matrix(.1 0 0 -.1 0 275)"/></g><g clip-path="url(#c)"><path style="fill:none;stroke-width:6.25;stroke-linecap:round;stroke-linejoin:miter;stroke:#bfbfbf;stroke-opacity:1;stroke-dasharray:12.5,18.75;stroke-miterlimit:10" d="M210 105v2550" transform="matrix(.1 0 0 -.1 0 275)"/></g><g clip-path="url(#d)"><path style="fill:none;stroke-width:6.25;stroke-linecap:round;stroke-linejoin:miter;stroke:#bfbfbf;stroke-opacity:1;stroke-dasharray:12.5,18.75;stroke-miterlimit:10" d="M1060 105v2550" transform="matrix(.1 0 0 -.1 0 275)"/></g><g clip-path="url(#e)"><path style="fill:none;stroke-width:6.25;stroke-linecap:round;stroke-linejoin:miter;stroke:#bfbfbf;stroke-opacity:1;stroke-dasharray:12.5,18.75;stroke-miterlimit:10" d="M1910 105v2550" transform="matrix(.1 0 0 -.1 0 275)"/></g><g clip-path="url(#f)"><path style="fill:none;stroke-width:6.25;stroke-linecap:round;stroke-linejoin:miter;stroke:#bfbfbf;stroke-opacity:1;stroke-dasharray:12.5,18.75;stroke-miterlimit:10" d="M2760 105v2550" transform="matrix(.1 0 0 -.1 0 275)"/></g><g clip-path="url(#g)"><path style="fill:none;stroke-width:6.25;stroke-linecap:round;stroke-linejoin:miter;stroke:#bfbfbf;stroke-opacity:1;stroke-dasharray:12.5,18.75;stroke-miterlimit:10" d="M3610 105v2550" transform="matrix(.1 0 0 -.1 0 275)"/></g><g clip-path="url(#h)"><path style="fill:none;stroke-width:6.25;stroke-linecap:round;stroke-linejoin:miter;stroke:#bfbfbf;stroke-opacity:1;stroke-dasharray:12.5,18.75;stroke-miterlimit:10" d="M210 220.898h3400" transform="matrix(.1 0 0 -.1 0 275)"/></g><g clip-path="url(#i)"><path style="fill:none;stroke-width:6.25;stroke-linecap:round;stroke-linejoin:miter;stroke:#bfbfbf;stroke-opacity:1;stroke-dasharray:12.5,18.75;stroke-miterlimit:10" d="M210 684.531h3400" transform="matrix(.1 0 0 -.1 0 275)"/></g><g clip-path="url(#j)"><path style="fill:none;stroke-width:6.25;stroke-linecap:round;stroke-linejoin:miter;stroke:#bfbfbf;stroke-opacity:1;stroke-dasharray:12.5,18.75;stroke-miterlimit:10" d="M210 1148.164h3400" transform="matrix(.1 0 0 -.1 0 275)"/></g><g clip-path="url(#k)"><path style="fill:none;stroke-width:6.25;stroke-linecap:round;stroke-linejoin:miter;stroke:#bfbfbf;stroke-opacity:1;stroke-dasharray:12.5,18.75;stroke-miterlimit:10" d="M210 1611.836h3400" transform="matrix(.1 0 0 -.1 0 275)"/></g><g clip-path="url(#l)"><path style="fill:none;stroke-width:6.25;stroke-linecap:round;stroke-linejoin:miter;stroke:#bfbfbf;stroke-opacity:1;stroke-dasharray:12.5,18.75;stroke-miterlimit:10" d="M210 2075.469h3400" transform="matrix(.1 0 0 -.1 0 275)"/></g><g clip-path="url(#m)"><path style="fill:none;stroke-width:6.25;stroke-linecap:round;stroke-linejoin:miter;stroke:#bfbfbf;stroke-opacity:1;stroke-dasharray:12.5,18.75;stroke-miterlimit:10" d="M210 2539.102h3400" transform="matrix(.1 0 0 -.1 0 275)"/></g><path style="fill:none;stroke-width:12.5;stroke-linecap:square;stroke-linejoin:miter;stroke:#000;stroke-opacity:1;stroke-miterlimit:10" d="M210 105h3400" transform="matrix(.1 0 0 -.1 0 275)"/><path style="fill:none;stroke-width:6.25;stroke-linecap:butt;stroke-linejoin:miter;stroke:#000;stroke-opacity:1;stroke-miterlimit:10" d="M210 105v50m85-50v25m85-25v25m85-25v25m85-25v25m85-25v25m85-25v25m85-25v25m85-25v25m85-25v25m85-25v50m85-50v25m85-25v25m85-25v25m85-25v25m85-25v25m85-25v25m85-25v25m85-25v25m85-25v25m85-25v50m85-50v25m85-25v25m85-25v25m85-25v25m85-25v25m85-25v25m85-25v25m85-25v25m85-25v25m85-25v50m85-50v25m85-25v25m85-25v25m85-25v25m85-25v25m85-25v25m85-25v25m85-25v25m85-25v25m85-25v50" transform="matrix(.1 0 0 -.1 0 275)"/><g style="fill:#000;fill-opacity:1"><use xlink:href="#n" x="13.078" y="274.5"/><use xlink:href="#o" x="17.248" y="274.5"/><use xlink:href="#n" x="19.333" y="274.5"/><use xlink:href="#n" x="23.503" y="274.5"/></g><g style="fill:#000;fill-opacity:1"><use xlink:href="#n" x="98.078" y="274.5"/><use xlink:href="#o" x="102.248" y="274.5"/><use xlink:href="#p" x="104.333" y="274.5"/><use xlink:href="#q" x="108.503" y="274.5"/></g><g style="fill:#000;fill-opacity:1"><use xlink:href="#n" x="183.703" y="274.5"/><use xlink:href="#o" x="187.873" y="274.5"/><use xlink:href="#q" x="189.958" y="274.5"/><use xlink:href="#n" x="194.128" y="274.5"/></g><g style="fill:#000;fill-opacity:1"><use xlink:href="#n" x="268.703" y="274.5"/><use xlink:href="#o" x="272.873" y="274.5"/><use xlink:href="#r" x="274.958" y="274.5"/><use xlink:href="#q" x="279.128" y="274.5"/></g><g style="fill:#000;fill-opacity:1"><use xlink:href="#s" x="353.703" y="274.5"/><use xlink:href="#o" x="357.873" y="274.5"/><use xlink:href="#n" x="359.958" y="274.5"/><use xlink:href="#n" x="364.128" y="274.5"/></g><path style="fill:none;stroke-width:12.5;stroke-linecap:square;stroke-linejoin:miter;stroke:#000;stroke-opacity:1;stroke-miterlimit:10" d="M210 2655h3400" transform="matrix(.1 0 0 -.1 0 275)"/><path style="fill:none;stroke-width:6.25;stroke-linecap:butt;stroke-linejoin:miter;stroke:#000;stroke-opacity:1;stroke-miterlimit:10" d="M210 2655v-50m85 50v-25m85 25v-25m85 25v-25m85 25v-25m85 25v-25m85 25v-25m85 25v-25m85 25v-25m85 25v-25m85 25v-50m85 50v-25m85 25v-25m85 25v-25m85 25v-25m85 25v-25m85 25v-25m85 25v-25m85 25v-25m85 25v-25m85 25v-50m85 50v-25m85 25v-25m85 25v-25m85 25v-25m85 25v-25m85 25v-25m85 25v-25m85 25v-25m85 25v-25m85 25v-50m85 50v-25m85 25v-25m85 25v-25m85 25v-25m85 25v-25m85 25v-25m85 25v-25m85 25v-25m85 25v-25m85 25v-50" transform="matrix(.1 0 0 -.1 0 275)"/><g style="fill:#000;fill-opacity:1"><use xlink:href="#n" x="13.078" y="6.375"/><use xlink:href="#o" x="17.248" y="6.375"/><use xlink:href="#n" x="19.333" y="6.375"/><use xlink:href="#n" x="23.503" y="6.375"/></g><g style="fill:#000;fill-opacity:1"><use xlink:href="#n" x="98.078" y="6.375"/><use xlink:href="#o" x="102.248" y="6.375"/><use xlink:href="#p" x="104.333" y="6.375"/><use xlink:href="#q" x="108.503" y="6.375"/></g><g style="fill:#000;fill-opacity:1"><use xlink:href="#n" x="183.703" y="6.375"/><use xlink:href="#o" x="187.873" y="6.375"/><use xlink:href="#q" x="189.958" y="6.375"/><use xlink:href="#n" x="194.128" y="6.375"/></g><g style="fill:#000;fill-opacity:1"><use xlink:href="#n" x="268.703" y="6.375"/><use xlink:href="#o" x="272.873" y="6.375"/><use xlink:href="#r" x="274.958" y="6.375"/><use xlink:href="#q" x="279.128" y="6.375"/></g><g style="fill:#000;fill-opacity:1"><use xlink:href="#s" x="353.703" y="6.375"/><use xlink:href="#o" x="357.873" y="6.375"/><use xlink:href="#n" x="359.958" y="6.375"/><use xlink:href="#n" x="364.128" y="6.375"/></g><path style="fill:none;stroke-width:12.5;stroke-linecap:square;stroke-linejoin:miter;stroke:#000;stroke-opacity:1;stroke-miterlimit:10" d="M210 105v2550" transform="matrix(.1 0 0 -.1 0 275)"/><path style="fill:none;stroke-width:6.25;stroke-linecap:butt;stroke-linejoin:miter;stroke:#000;stroke-opacity:1;stroke-miterlimit:10" d="M210 128.203h25m-25 46.328h25m-25 46.367h50m-50 46.368h25m-25 46.367h25M210 360h25m-25 46.367h25m-25 46.367h25m-25 46.368h25m-25 46.367h25m-25 46.367h25m-25 46.367h25m-25 46.328h50m-50 46.367h25m-25 46.368h25m-25 46.367h25M210 870h25m-25 46.367h25m-25 46.367h25m-25 46.368h25m-25 46.367h25m-25 46.367h25m-25 46.328h50m-50 46.367h25m-25 46.367h25m-25 46.368h25m-25 46.367h25M210 1380h25m-25 46.367h25m-25 46.367h25m-25 46.368h25m-25 46.367h25m-25 46.367h50m-50 46.328h25m-25 46.367h25m-25 46.367h25m-25 46.368h25m-25 46.367h25M210 1890h25m-25 46.367h25m-25 46.367h25m-25 46.368h25m-25 46.367h50m-50 46.367h25m-25 46.328h25m-25 46.367h25m-25 46.367h25m-25 46.368h25m-25 46.367h25M210 2400h25m-25 46.367h25m-25 46.367h25m-25 46.368h50m-50 46.367h25m-25 46.367h25" transform="matrix(.1 0 0 -.1 0 275)"/><g style="fill:#000;fill-opacity:1"><use xlink:href="#n" x="3.701" y="256.375"/><use xlink:href="#o" x="7.871" y="256.375"/><use xlink:href="#n" x="9.956" y="256.375"/></g><g style="fill:#000;fill-opacity:1"><use xlink:href="#p" x="3.701" y="210.125"/><use xlink:href="#o" x="7.871" y="210.125"/><use xlink:href="#q" x="9.956" y="210.125"/></g><g style="fill:#000;fill-opacity:1"><use xlink:href="#q" x="3.701" y="163.875"/><use xlink:href="#o" x="7.871" y="163.875"/><use xlink:href="#n" x="9.956" y="163.875"/></g><g style="fill:#000;fill-opacity:1"><use xlink:href="#r" x="3.701" y="117"/><use xlink:href="#o" x="7.871" y="117"/><use xlink:href="#q" x="9.956" y="117"/></g><g style="fill:#000;fill-opacity:1"><use xlink:href="#s" x="-.469" y="70.75"/><use xlink:href="#n" x="3.701" y="70.75"/><use xlink:href="#o" x="7.871" y="70.75"/><use xlink:href="#n" x="9.956" y="70.75"/></g><g style="fill:#000;fill-opacity:1"><use xlink:href="#s" x="-.469" y="24.5"/><use xlink:href="#p" x="3.701" y="24.5"/><use xlink:href="#o" x="7.871" y="24.5"/><use xlink:href="#q" x="9.956" y="24.5"/></g><path style="fill:none;stroke-width:12.5;stroke-linecap:square;stroke-linejoin:miter;stroke:#000;stroke-opacity:1;stroke-miterlimit:10" d="M3610 105v2550" transform="matrix(.1 0 0 -.1 0 275)"/><path style="fill:none;stroke-width:6.25;stroke-linecap:butt;stroke-linejoin:miter;stroke:#000;stroke-opacity:1;stroke-miterlimit:10" d="M3610 128.203h-25m25 46.328h-25m25 46.367h-50m50 46.368h-25m25 46.367h-25M3610 360h-25m25 46.367h-25m25 46.367h-25m25 46.368h-25m25 46.367h-25m25 46.367h-25m25 46.367h-25m25 46.328h-50m50 46.367h-25m25 46.368h-25m25 46.367h-25M3610 870h-25m25 46.367h-25m25 46.367h-25m25 46.368h-25m25 46.367h-25m25 46.367h-25m25 46.328h-50m50 46.367h-25m25 46.367h-25m25 46.368h-25m25 46.367h-25m25 46.367h-25m25 46.367h-25m25 46.367h-25m25 46.368h-25m25 46.367h-25m25 46.367h-50m50 46.328h-25m25 46.367h-25m25 46.367h-25m25 46.368h-25m25 46.367h-25m25 46.367h-25m25 46.367h-25m25 46.367h-25m25 46.368h-25m25 46.367h-50m50 46.367h-25m25 46.328h-25m25 46.367h-25m25 46.367h-25m25 46.368h-25m25 46.367h-25m25 46.367h-25m25 46.367h-25m25 46.367h-25m25 46.368h-50m50 46.367h-25m25 46.367h-25" transform="matrix(.1 0 0 -.1 0 275)"/><g style="fill:#000;fill-opacity:1"><use xlink:href="#n" x="367.25" y="256.375"/><use xlink:href="#o" x="371.42" y="256.375"/><use xlink:href="#n" x="373.505" y="256.375"/></g><g style="fill:#000;fill-opacity:1"><use xlink:href="#p" x="367.25" y="210.125"/><use xlink:href="#o" x="371.42" y="210.125"/><use xlink:href="#q" x="373.505" y="210.125"/></g><g style="fill:#000;fill-opacity:1"><use xlink:href="#q" x="367.25" y="163.875"/><use xlink:href="#o" x="371.42" y="163.875"/><use xlink:href="#n" x="373.505" y="163.875"/></g><g style="fill:#000;fill-opacity:1"><use xlink:href="#r" x="367.25" y="117"/><use xlink:href="#o" x="371.42" y="117"/><use xlink:href="#q" x="373.505" y="117"/></g><g style="fill:#000;fill-opacity:1"><use xlink:href="#s" x="367.25" y="70.75"/><use xlink:href="#n" x="371.42" y="70.75"/><use xlink:href="#o" x="375.59" y="70.75"/><use xlink:href="#n" x="377.675" y="70.75"/></g><g style="fill:#000;fill-opacity:1"><use xlink:href="#s" x="367.25" y="24.5"/><use xlink:href="#p" x="371.42" y="24.5"/><use xlink:href="#o" x="375.59" y="24.5"/><use xlink:href="#q" x="377.675" y="24.5"/></g><g clip-path="url(#t)"><path style="fill:none;stroke-width:12.5;stroke-linecap:round;stroke-linejoin:round;stroke:#00008b;stroke-opacity:1;stroke-miterlimit:10" d="m210 220.898 6.25 17.032 6.25 16.953 6.25 16.875 6.25 16.836 6.25 16.758 6.25 16.718 6.25 16.64 6.25 16.563 6.25 16.524 6.25 16.445 6.25 16.367 6.25 16.329 6.25 16.25 6.25 16.21 6.25 16.133 6.25 16.094 6.25 16.016 6.25 15.937 6.25 15.899 6.25 15.82 6.25 15.742 6.25 15.703 6.25 15.625 6.25 15.586 6.25 15.508 6.25 15.469 12.5 30.703 6.25 15.234 6.25 15.196 6.25 15.156 12.5 30.078 6.25 14.922 6.25 14.883 6.25 14.843 6.25 14.766 6.25 14.687 6.25 14.61 6.25 14.57 6.25 14.531 6.25 14.453 6.25 14.375 6.25 14.297 6.25 14.258 6.25 14.219 12.5 28.203 6.25 13.984 6.25 13.946 6.25 13.867 6.25 13.828 6.25 13.75L547.5 1050l6.25 13.633 6.25 13.554 6.25 13.516 6.25 13.438 6.25 13.398 6.25 13.32 6.25 13.243 6.25 13.164 6.25 13.125 6.25 13.086 6.25 13.007 6.25 12.93 6.25 12.89 6.25 12.813 6.25 12.735 6.25 12.695 6.25 12.617 6.25 12.578 6.25 12.5 6.25 12.461 6.25 12.383 6.25 12.305 6.25 12.226 6.25 12.188 6.25 12.148 6.25 12.07 6.25 11.993 6.25 11.953 6.25 11.875 6.25 11.797 6.25 11.757 6.25 11.68 6.25 11.64 6.25 11.563 6.25 11.485 6.25 11.445 6.25 11.367 6.25 11.29 6.25 11.25 6.25 11.21 6.25 11.133 6.25 11.055 6.25 10.976 6.25 10.938 6.25 10.898 6.25 10.781 6.25 10.743 6.25 10.703 6.25 10.625 6.25 10.547 6.25 10.507 6.25 10.43 6.25 10.39 6.25 10.313 6.25 10.235 6.25 10.195 12.5 20.156 6.25 10 6.25 9.922 6.25 9.883 6.25 9.804 6.25 9.727 6.25 9.688 6.25 9.648 6.25 9.531 6.25 9.492 6.25 9.454 6.25 9.375 6.25 9.296 6.25 9.22 6.25 9.179 6.25 9.14 6.25 9.063 6.25 8.984 6.25 8.946 12.5 17.656 6.25 8.75 6.25 8.672 6.25 8.633 12.5 17.03 12.5 16.798 6.25 8.281 6.25 8.242 6.25 8.203 12.5 16.172 6.25 7.969 6.25 7.93 6.25 7.851 6.25 7.813 6.25 7.734 6.25 7.695 6.25 7.618 6.25 7.539 6.25 7.5 6.25 7.421 6.25 7.344 6.25 7.305 6.25 7.266 6.25 7.148 6.25 7.11 6.25 7.07 6.25 6.992 6.25 6.914 6.25 6.875 6.25 6.797 6.25 6.719 6.25 6.68 6.25 6.6 6.25 6.563 6.25 6.485 6.25 6.406 6.25 6.367 6.25 6.29 6.25 6.25 6.25 6.171 6.25 6.133 12.5 12.031 6.25 5.899 6.25 5.859 6.25 5.82 6.25 5.703 6.25 5.664 6.25 5.625 6.25 5.547 6.25 5.47 6.25 5.429 6.25 5.351 6.25 5.313 6.25 5.234 6.25 5.156 6.25 5.118 6.25 5.039 6.25 5 6.25 4.922 6.25 4.843 6.25 4.805 6.25 4.727 6.25 4.648 6.25 4.61 6.25 4.53 6.25 4.493 6.25 4.414 6.25 4.375 6.25 4.297 6.25 4.218 6.25 4.18 6.25 4.102 6.25 4.023 6.25 3.985 6.25 3.906 6.25 3.867 6.25 3.79 6.25 3.75 12.5 7.265 6.25 3.515 6.25 3.477 6.25 3.437 6.25 3.36 6.25 3.281 6.25 3.203 6.25 3.164 6.25 3.125 6.25 3.047 6.25 2.969 6.25 2.89 6.25 2.852 6.25 2.813 6.25 2.734 6.25 2.656 6.25 2.578 6.25 2.54 6.25 2.5 6.25 2.421 6.25 2.344 6.25 2.266 6.25 2.226 6.25 2.149 6.25 2.109 6.25 2.031 6.25 1.992 6.25 1.914 6.25 1.836 6.25 1.797 6.25 1.719 6.25 1.64 6.25 1.602 6.25 1.563 6.25 1.484 6.25 1.406 6.25 1.328 6.25 1.29 6.25 1.21 6.25 1.172 6.25 1.094 6.25 1.016 6.25.976 6.25.938 6.25.82 6.25.781 6.25.742 6.25.665 6.25.586 6.25.546 6.25.47 6.25.39 6.25.351 6.25.274 6.25.234 6.25.156 6.25.079 6.25.039 6.25-.04 6.25-.078 6.25-.156 6.25-.234 6.25-.274 6.25-.351 6.25-.39 6.25-.47 6.25-.546 6.25-.586 6.25-.664 6.25-.743 6.25-.78 6.25-.821 6.25-.938 6.25-.976 6.25-1.016 6.25-1.094 6.25-1.172 6.25-1.21 6.25-1.29 6.25-1.328 6.25-1.406 6.25-1.484 6.25-1.563 6.25-1.601 6.25-1.641 6.25-1.719 6.25-1.797 6.25-1.836 6.25-1.914 6.25-1.992 6.25-2.031 6.25-2.11 6.25-2.148 6.25-2.226 6.25-2.266 6.25-2.344 6.25-2.422 6.25-2.5 6.25-2.539 6.25-2.578 6.25-2.656 6.25-2.735 6.25-2.812 6.25-2.852 6.25-2.89 6.25-2.969 6.25-3.047 6.25-3.125 6.25-3.164 6.25-3.203 6.25-3.281 6.25-3.36 6.25-3.437 6.25-3.477 6.25-3.515 12.5-7.266 6.25-3.75 6.25-3.789 6.25-3.867 6.25-3.906 6.25-3.985 6.25-4.023 6.25-4.102 6.25-4.18 6.25-4.218 6.25-4.297 6.25-4.375 6.25-4.414 6.25-4.492 6.25-4.532 6.25-4.609 6.25-4.648 6.25-4.727 6.25-4.805 6.25-4.843 6.25-4.922 6.25-5 6.25-5.04 6.25-5.117 6.25-5.156 6.25-5.234 6.25-5.313 6.25-5.351 6.25-5.43 6.25-5.469 6.25-5.547 6.25-5.625 6.25-5.664 6.25-5.703 6.25-5.82 6.25-5.86 6.25-5.898 12.5-12.031 6.25-6.133 6.25-6.172 6.25-6.25 6.25-6.289 6.25-6.367 6.25-6.406 6.25-6.485 6.25-6.562 6.25-6.602 6.25-6.68 6.25-6.718 6.25-6.797 6.25-6.875 6.25-6.914 6.25-6.992 6.25-7.07 6.25-7.11 6.25-7.148 6.25-7.266 6.25-7.305 6.25-7.343 6.25-7.422 6.25-7.5 6.25-7.54 6.25-7.617 6.25-7.695 6.25-7.734 6.25-7.813 6.25-7.851 6.25-7.93 6.25-7.969 12.5-16.172 6.25-8.203 6.25-8.242 6.25-8.281 12.5-16.797 12.5-17.031 6.25-8.633 6.25-8.672 6.25-8.75 12.5-17.656 6.25-8.946 6.25-8.984 6.25-9.063 6.25-9.14 6.25-9.18 6.25-9.219 6.25-9.296 6.25-9.375 6.25-9.454 6.25-9.492 6.25-9.531 6.25-9.648 6.25-9.688 6.25-9.726 6.25-9.805 6.25-9.883 6.25-9.922 6.25-10 12.5-20.156 6.25-10.195 6.25-10.235 6.25-10.312 6.25-10.39 6.25-10.43 6.25-10.508 6.25-10.547 6.25-10.625 6.25-10.703 6.25-10.743 6.25-10.78 6.25-10.9 6.25-10.937 6.25-10.976 6.25-11.055 6.25-11.133 6.25-11.21 6.25-11.25 6.25-11.29 6.25-11.367 6.25-11.445 6.25-11.485 6.25-11.562 6.25-11.64 6.25-11.68 6.25-11.758 6.25-11.797 6.25-11.875 6.25-11.953 6.25-11.993 6.25-12.07 6.25-12.148 6.25-12.188 6.25-12.226 6.25-12.305 6.25-12.383 6.25-12.46 6.25-12.5 6.25-12.579 6.25-12.617 6.25-12.695 6.25-12.735 6.25-12.812 6.25-12.89 6.25-12.93 6.25-13.008 6.25-13.086 6.25-13.125 6.25-13.164 6.25-13.243 6.25-13.32 6.25-13.398 6.25-13.438 6.25-13.515 6.25-13.555 6.25-13.633 6.25-13.71 6.25-13.75 6.25-13.83 6.25-13.866 6.25-13.946 6.25-13.984 12.5-28.203 6.25-14.219 6.25-14.258 6.25-14.297 6.25-14.375 6.25-14.453 6.25-14.53 6.25-14.571 6.25-14.61 6.25-14.687 6.25-14.766 6.25-14.843 6.25-14.883 6.25-14.922 12.5-30.078 6.25-15.157 6.25-15.195 6.25-15.234 12.5-30.703 6.25-15.47 6.25-15.507 6.25-15.586 6.25-15.625 6.25-15.703 6.25-15.742 6.25-15.82 6.25-15.899 6.25-15.937 6.25-16.016 6.25-16.094 6.25-16.133 6.25-16.21 6.25-16.25 6.25-16.329 6.25-16.367 6.25-16.445 6.25-16.524 6.25-16.562 6.25-16.64 6.25-16.72 6.25-16.757 6.25-16.836 6.25-16.875 6.25-16.953 6.25-17.032" transform="matrix(.1 0 0 -.1 0 275)"/></g></svg>