<svg xmlns="http://www.w3.org/2000/svg" xmlns:xlink="http://www.w3.org/1999/xlink" width="356pt" height="260pt" viewBox="0 0 356 260"><defs><clipPath id="a"><path d="M177 7.66h2v242.25h-2zm0 0"/></clipPath><clipPath id="b"><path d="M18 128h320v2H18zm0 0"/></clipPath><clipPath id="c"><path d="M18 7.66h1v242.25h-1zm0 0"/></clipPath><clipPath id="d"><path d="M97 7.66h2v242.25h-2zm0 0"/></clipPath><clipPath id="e"><path d="M177 7.66h2v242.25h-2zm0 0"/></clipPath><clipPath id="f"><path d="M257 7.66h2v242.25h-2zm0 0"/></clipPath><clipPath id="g"><path d="M337 7.66h1v242.25h-1zm0 0"/></clipPath><clipPath id="h"><path d="M18 246h320v1H18zm0 0"/></clipPath><clipPath id="i"><path d="M18 187h320v1H18zm0 0"/></clipPath><clipPath id="j"><path d="M18 128h320v2H18zm0 0"/></clipPath><clipPath id="k"><path d="M18 69h320v2H18zm0 0"/></clipPath><clipPath id="l"><path d="M18 10h320v2H18zm0 0"/></clipPath><clipPath id="r"><path d="M18 18h320v94H18zm0 0"/></clipPath><clipPath id="s"><path d="M18 145h320v95H18zm0 0"/></clipPath><symbol overflow="visible" id="m"><path style="stroke:none" d="M1.953-2.14H.313v.5h1.64zm0 0"/></symbol><symbol overflow="visible" id="n"><path style="stroke:none" d="M3.266-4.86H.75L.39-2.202h.563c.281-.344.516-.453.89-.453.657 0 1.063.437 1.063 1.156 0 .703-.406 1.125-1.062 1.125-.532 0-.86-.266-1-.813h-.61c.094.391.157.579.297.766.281.36.766.578 1.328.578.97 0 1.657-.703 1.657-1.734 0-.953-.641-1.625-1.563-1.625-.344 0-.625.094-.906.297l.187-1.344h2.032zm0 0"/></symbol><symbol overflow="visible" id="o"><path style="stroke:none" d="M1.313-.719h-.72V0h.72zm0 0"/></symbol><symbol overflow="visible" id="p"><path style="stroke:none" d="M1.89-4.953c-.452 0-.874.203-1.124.547-.313.437-.47 1.093-.47 2.015C.297-.719.845.156 1.892.156c1.03 0 1.593-.875 1.593-2.515 0-.954-.156-1.594-.484-2.047a1.355 1.355 0 0 0-1.11-.547zm0 .531c.641 0 .97.672.97 2.016C2.86-1 2.546-.344 1.874-.344c-.64 0-.969-.687-.969-2.047 0-1.359.328-2.03.985-2.03zm0 0"/></symbol><symbol overflow="visible" id="q"><path style="stroke:none" d="M3.469-.594H.906c.063-.406.281-.672.89-1.031l.673-.39C3.156-2.392 3.5-2.892 3.5-3.5c0-.422-.156-.797-.453-1.063-.281-.265-.64-.39-1.094-.39-.625 0-1.078.219-1.344.64-.171.266-.25.579-.265 1.079h.61c.015-.344.062-.532.14-.704a.922.922 0 0 1 .828-.484c.547 0 .969.39.969.938 0 .39-.235.734-.657.984l-.64.36C.578-1.548.28-1.095.234 0H3.47zm0 0"/></symbol></defs><path style="stroke:none;fill-rule:nonzero;fill:#fff;fill-opacity:1" d="M18 249.91h320V7.66H18zm0 0"/><g clip-path="url(#a)"><path style="fill:none;stroke-width:5.70714;stroke-linecap:round;stroke-linejoin:miter;stroke:#bfbfbf;stroke-opacity:1;stroke-miterlimit:10" d="M1997.503-211.163V-2636.7" transform="matrix(.10013 0 0 .09987 -22 271)"/></g><g clip-path="url(#b)"><path style="fill:none;stroke-width:5.70714;stroke-linecap:round;stroke-linejoin:miter;stroke:#bfbfbf;stroke-opacity:1;stroke-miterlimit:10" d="M399.5-1423.814h3196.006" transform="matrix(.10013 0 0 .09987 -22 271)"/></g><g clip-path="url(#c)"><path style="fill:none;stroke-width:5.70714;stroke-linecap:round;stroke-linejoin:miter;stroke:#bfbfbf;stroke-opacity:1;stroke-dasharray:11.4143,17.1214;stroke-miterlimit:10" d="M399.5-211.163V-2636.7" transform="matrix(.10013 0 0 .09987 -22 271)"/></g><g clip-path="url(#d)"><path style="fill:none;stroke-width:5.70714;stroke-linecap:round;stroke-linejoin:miter;stroke:#bfbfbf;stroke-opacity:1;stroke-dasharray:11.4143,17.1214;stroke-miterlimit:10" d="M1198.502-211.163V-2636.7" transform="matrix(.10013 0 0 .09987 -22 271)"/></g><g clip-path="url(#e)"><path style="fill:none;stroke-width:5.70714;stroke-linecap:round;stroke-linejoin:miter;stroke:#bfbfbf;stroke-opacity:1;stroke-dasharray:11.4143,17.1214;stroke-miterlimit:10" d="M1997.503-211.163V-2636.7" transform="matrix(.10013 0 0 .09987 -22 271)"/></g><g clip-path="url(#f)"><path style="fill:none;stroke-width:5.70714;stroke-linecap:round;stroke-linejoin:miter;stroke:#bfbfbf;stroke-opacity:1;stroke-dasharray:11.4143,17.1214;stroke-miterlimit:10" d="M2796.504-211.163V-2636.7" transform="matrix(.10013 0 0 .09987 -22 271)"/></g><g clip-path="url(#g)"><path style="fill:none;stroke-width:5.70714;stroke-linecap:round;stroke-linejoin:miter;stroke:#bfbfbf;stroke-opacity:1;stroke-dasharray:11.4143,17.1214;stroke-miterlimit:10" d="M3595.506-211.163V-2636.7" transform="matrix(.10013 0 0 .09987 -22 271)"/></g><g clip-path="url(#h)"><path style="fill:none;stroke-width:5.70714;stroke-linecap:round;stroke-linejoin:miter;stroke:#bfbfbf;stroke-opacity:1;stroke-dasharray:11.4143,17.1214;stroke-miterlimit:10" d="M399.5-246.285h3196.006" transform="matrix(.10013 0 0 .09987 -22 271)"/></g><g clip-path="url(#i)"><path style="fill:none;stroke-width:5.70714;stroke-linecap:round;stroke-linejoin:miter;stroke:#bfbfbf;stroke-opacity:1;stroke-dasharray:11.4143,17.1214;stroke-miterlimit:10" d="M399.5-835.069h3196.006" transform="matrix(.10013 0 0 .09987 -22 271)"/></g><g clip-path="url(#j)"><path style="fill:none;stroke-width:5.70714;stroke-linecap:round;stroke-linejoin:miter;stroke:#bfbfbf;stroke-opacity:1;stroke-dasharray:11.4143,17.1214;stroke-miterlimit:10" d="M399.5-1423.814h3196.006" transform="matrix(.10013 0 0 .09987 -22 271)"/></g><g clip-path="url(#k)"><path style="fill:none;stroke-width:5.70714;stroke-linecap:round;stroke-linejoin:miter;stroke:#bfbfbf;stroke-opacity:1;stroke-dasharray:11.4143,17.1214;stroke-miterlimit:10" d="M399.5-2012.598h3196.006" transform="matrix(.10013 0 0 .09987 -22 271)"/></g><g clip-path="url(#l)"><path style="fill:none;stroke-width:5.70714;stroke-linecap:round;stroke-linejoin:miter;stroke:#bfbfbf;stroke-opacity:1;stroke-dasharray:11.4143,17.1214;stroke-miterlimit:10" d="M399.5-2601.343h3196.006" transform="matrix(.10013 0 0 .09987 -22 271)"/></g><path style="fill:none;stroke-width:11.4143;stroke-linecap:square;stroke-linejoin:miter;stroke:#000;stroke-opacity:1;stroke-miterlimit:10" d="M399.5-211.163h3196.006" transform="matrix(.10013 0 0 .09987 -22 271)"/><path style="fill:none;stroke-width:5.70714;stroke-linecap:butt;stroke-linejoin:miter;stroke:#000;stroke-opacity:1;stroke-miterlimit:10" d="M399.5-211.163v-45.643m0 45.643v-22.84m79.9 22.84v-22.84m79.9 22.84v-22.84m79.901 22.84v-22.84m79.9 22.84v-22.84m79.9 22.84v-22.84m79.9 22.84v-22.84m79.9 22.84v-22.84m79.901 22.84v-22.84m159.8 22.84v-45.643m0 45.643v-22.84m79.9 22.84v-22.84m79.9 22.84v-22.84m79.9 22.84v-22.84m79.9 22.84v-22.84m79.9 22.84v-22.84m79.901 22.84v-22.84m79.9 22.84v-22.84m79.9 22.84v-22.84m159.8 22.84v-45.643m0 45.643v-22.84m79.9 22.84v-22.84m79.9 22.84v-22.84m79.9 22.84v-22.84m79.901 22.84v-22.84m79.9 22.84v-22.84m79.9 22.84v-22.84m79.9 22.84v-22.84m79.9 22.84v-22.84m159.8 22.84v-45.643m0 45.643v-22.84m79.9 22.84v-22.84m79.901 22.84v-22.84m79.9 22.84v-22.84m79.9 22.84v-22.84m79.9 22.84v-22.84m79.9 22.84v-22.84m79.9 22.84v-22.84m79.9 22.84v-22.84m159.801 22.84v-45.643m0 45.643v-22.84" transform="matrix(.10013 0 0 .09987 -22 271)"/><g style="fill:#000;fill-opacity:1"><use xlink:href="#m" x="12.093" y="259.03"/><use xlink:href="#n" x="14.376" y="259.03"/><use xlink:href="#o" x="18.189" y="259.03"/><use xlink:href="#p" x="20.095" y="259.03"/></g><g style="fill:#000;fill-opacity:1"><use xlink:href="#m" x="92.093" y="259.03"/><use xlink:href="#q" x="94.377" y="259.03"/><use xlink:href="#o" x="98.189" y="259.03"/><use xlink:href="#n" x="100.096" y="259.03"/></g><g style="fill:#000;fill-opacity:1"><use xlink:href="#p" x="173.235" y="259.03"/><use xlink:href="#o" x="177.047" y="259.03"/><use xlink:href="#p" x="178.954" y="259.03"/></g><g style="fill:#000;fill-opacity:1"><use xlink:href="#q" x="252.664" y="259.03"/><use xlink:href="#o" x="256.477" y="259.03"/><use xlink:href="#n" x="258.383" y="259.03"/></g><g style="fill:#000;fill-opacity:1"><use xlink:href="#n" x="333.236" y="259.03"/><use xlink:href="#o" x="337.048" y="259.03"/><use xlink:href="#p" x="338.955" y="259.03"/></g><path style="fill:none;stroke-width:11.4143;stroke-linecap:square;stroke-linejoin:miter;stroke:#000;stroke-opacity:1;stroke-miterlimit:10" d="M399.5-2636.7h3196.006" transform="matrix(.10013 0 0 .09987 -22 271)"/><path style="fill:none;stroke-width:5.70714;stroke-linecap:butt;stroke-linejoin:miter;stroke:#000;stroke-opacity:1;stroke-miterlimit:10" d="M399.5-2636.7v45.643m0-45.643v22.842m79.9-22.842v22.842m79.9-22.842v22.842m79.901-22.842v22.842m79.9-22.842v22.842m79.9-22.842v22.842m79.9-22.842v22.842m79.9-22.842v22.842m79.901-22.842v22.842m159.8-22.842v45.643m0-45.643v22.842m79.9-22.842v22.842m79.9-22.842v22.842m79.9-22.842v22.842m79.9-22.842v22.842m79.9-22.842v22.842m79.901-22.842v22.842m79.9-22.842v22.842m79.9-22.842v22.842m159.8-22.842v45.643m0-45.643v22.842m79.9-22.842v22.842m79.9-22.842v22.842m79.9-22.842v22.842m79.901-22.842v22.842m79.9-22.842v22.842m79.9-22.842v22.842m79.9-22.842v22.842m79.9-22.842v22.842m159.8-22.842v45.643m0-45.643v22.842m79.9-22.842v22.842m79.901-22.842v22.842m79.9-22.842v22.842m79.9-22.842v22.842m79.9-22.842v22.842m79.9-22.842v22.842m79.9-22.842v22.842m79.9-22.842v22.842m159.801-22.842v45.643m0-45.643v22.842" transform="matrix(.10013 0 0 .09987 -22 271)"/><g style="fill:#000;fill-opacity:1"><use xlink:href="#m" x="12.093" y="5.38"/><use xlink:href="#n" x="14.376" y="5.38"/><use xlink:href="#o" x="18.189" y="5.38"/><use xlink:href="#p" x="20.095" y="5.38"/></g><g style="fill:#000;fill-opacity:1"><use xlink:href="#m" x="92.093" y="5.38"/><use xlink:href="#q" x="94.377" y="5.38"/><use xlink:href="#o" x="98.189" y="5.38"/><use xlink:href="#n" x="100.096" y="5.38"/></g><g style="fill:#000;fill-opacity:1"><use xlink:href="#p" x="173.235" y="5.38"/><use xlink:href="#o" x="177.047" y="5.38"/><use xlink:href="#p" x="178.954" y="5.38"/></g><g style="fill:#000;fill-opacity:1"><use xlink:href="#q" x="252.664" y="5.38"/><use xlink:href="#o" x="256.477" y="5.38"/><use xlink:href="#n" x="258.383" y="5.38"/></g><g style="fill:#000;fill-opacity:1"><use xlink:href="#n" x="333.236" y="5.38"/><use xlink:href="#o" x="337.048" y="5.38"/><use xlink:href="#p" x="338.955" y="5.38"/></g><path style="fill:none;stroke-width:11.4143;stroke-linecap:square;stroke-linejoin:miter;stroke:#000;stroke-opacity:1;stroke-miterlimit:10" d="M399.5-211.163V-2636.7" transform="matrix(.10013 0 0 .09987 -22 271)"/><path style="fill:none;stroke-width:5.70714;stroke-linecap:butt;stroke-linejoin:miter;stroke:#000;stroke-opacity:1;stroke-miterlimit:10" d="M399.5-246.285h45.647m-45.647 0h22.824M399.5-305.148h22.824M399.5-364.05h22.824M399.5-422.912h22.824M399.5-481.814h22.824M399.5-540.677h22.824M399.5-599.54h22.824M399.5-658.402h22.824M399.5-717.304h22.824M399.5-835.069h45.647m-45.647 0h22.824M399.5-893.932h22.824M399.5-952.794h22.824m-22.824-58.902h22.824M399.5-1070.56h22.824m-22.824-58.862h22.824m-22.824-58.902h22.824m-22.824-58.862h22.824M399.5-1306.05h22.824M399.5-1423.814h45.647m-45.647 0h22.824m-22.824-58.863h22.824m-22.824-58.901h22.824m-22.824-58.863h22.824m-22.824-58.863h22.824m-22.824-58.902h22.824m-22.824-58.863h22.824m-22.824-58.862h22.824m-22.824-58.902h22.824M399.5-2012.598h45.647m-45.647 0h22.824M399.5-2071.46h22.824m-22.824-58.863h22.824m-22.824-58.902h22.824m-22.824-58.863h22.824M399.5-2306.95h22.824m-22.824-58.864h22.824m-22.824-58.901h22.824m-22.824-58.863h22.824M399.5-2601.343h45.647m-45.647 0h22.824" transform="matrix(.10013 0 0 .09987 -22 271)"/><g style="fill:#000;fill-opacity:1"><use xlink:href="#m" x=".471" y="249.34"/><use xlink:href="#n" x="2.755" y="249.34"/><use xlink:href="#o" x="6.567" y="249.34"/><use xlink:href="#p" x="8.473" y="249.34"/></g><g style="fill:#000;fill-opacity:1"><use xlink:href="#m" x=".471" y="190.63"/><use xlink:href="#q" x="2.755" y="190.63"/><use xlink:href="#o" x="6.567" y="190.63"/><use xlink:href="#n" x="8.473" y="190.63"/></g><g style="fill:#000;fill-opacity:1"><use xlink:href="#p" x="2.755" y="131.92"/><use xlink:href="#o" x="6.567" y="131.92"/><use xlink:href="#p" x="8.474" y="131.92"/></g><g style="fill:#000;fill-opacity:1"><use xlink:href="#q" x="2.755" y="73.21"/><use xlink:href="#o" x="6.567" y="73.21"/><use xlink:href="#n" x="8.474" y="73.21"/></g><g style="fill:#000;fill-opacity:1"><use xlink:href="#n" x="2.755" y="14.5"/><use xlink:href="#o" x="6.567" y="14.5"/><use xlink:href="#p" x="8.474" y="14.5"/></g><path style="fill:none;stroke-width:11.4143;stroke-linecap:square;stroke-linejoin:miter;stroke:#000;stroke-opacity:1;stroke-miterlimit:10" d="M3595.506-211.163V-2636.7" transform="matrix(.10013 0 0 .09987 -22 271)"/><path style="fill:none;stroke-width:5.70714;stroke-linecap:butt;stroke-linejoin:miter;stroke:#000;stroke-opacity:1;stroke-miterlimit:10" d="M3595.506-246.285h-45.685m45.685 0h-22.823m22.823-58.863h-22.823m22.823-58.902h-22.823m22.823-58.862h-22.823m22.823-58.902h-22.823m22.823-58.863h-22.823m22.823-58.863h-22.823m22.823-58.862h-22.823m22.823-58.902h-22.823m22.823-117.765h-45.685m45.685 0h-22.823m22.823-58.863h-22.823m22.823-58.862h-22.823m22.823-58.902h-22.823m22.823-58.864h-22.823m22.823-58.862h-22.823m22.823-58.902h-22.823m22.823-58.862h-22.823m22.823-58.864h-22.823m22.823-117.764h-45.685m45.685 0h-22.823m22.823-58.863h-22.823m22.823-58.901h-22.823m22.823-58.863h-22.823m22.823-58.863h-22.823m22.823-58.902h-22.823m22.823-58.863h-22.823m22.823-58.862h-22.823m22.823-58.902h-22.823m22.823-117.765h-45.685m45.685 0h-22.823m22.823-58.862h-22.823m22.823-58.863h-22.823m22.823-58.902h-22.823m22.823-58.863h-22.823m22.823-58.862h-22.823m22.823-58.864h-22.823m22.823-58.901h-22.823m22.823-58.863h-22.823m22.823-117.765h-45.685m45.685 0h-22.823" transform="matrix(.10013 0 0 .09987 -22 271)"/><g style="fill:#000;fill-opacity:1"><use xlink:href="#m" x="343.714" y="249.34"/><use xlink:href="#n" x="345.997" y="249.34"/><use xlink:href="#o" x="349.81" y="249.34"/><use xlink:href="#p" x="351.716" y="249.34"/></g><g style="fill:#000;fill-opacity:1"><use xlink:href="#m" x="343.714" y="190.63"/><use xlink:href="#q" x="345.997" y="190.63"/><use xlink:href="#o" x="349.81" y="190.63"/><use xlink:href="#n" x="351.716" y="190.63"/></g><g style="fill:#000;fill-opacity:1"><use xlink:href="#p" x="343.714" y="131.92"/><use xlink:href="#o" x="347.527" y="131.92"/><use xlink:href="#p" x="349.433" y="131.92"/></g><g style="fill:#000;fill-opacity:1"><use xlink:href="#q" x="343.714" y="73.21"/><use xlink:href="#o" x="347.527" y="73.21"/><use xlink:href="#n" x="349.433" y="73.21"/></g><g style="fill:#000;fill-opacity:1"><use xlink:href="#n" x="343.714" y="14.5"/><use xlink:href="#o" x="347.527" y="14.5"/><use xlink:href="#p" x="349.433" y="14.5"/></g><g clip-path="url(#r)"><path style="fill:none;stroke-width:11.4143;stroke-linecap:round;stroke-linejoin:round;stroke:#00008b;stroke-opacity:1;stroke-miterlimit:10" d="m399.54-2526.21 9.168 6.845 9.13 6.805 9.128 6.845 9.09 6.844 9.208 7.04 9.207 6.845 9.168 6.805 9.168 7.08 9.169 6.805 9.168 6.844 9.13 6.845 9.05 6.805 9.247 7.08 9.207 6.844 9.129 6.805 9.168 7.08 9.168 6.805 9.13 6.844 9.09 6.845 9.13 6.805 9.206 7.08 9.169 6.805 9.207 6.844 9.168 6.845 9.168 7.079 9.13 6.805 9.168 6.845 9.05 6.805 9.208 6.845 9.207 7.079 9.169 6.805 9.168 6.845 9.168 6.805 9.13 6.845 9.09 6.844 9.09 6.806 9.246 6.844 9.168 7.08 9.168 6.805 9.208 6.844 9.129 6.845 9.168 6.805 9.13 6.845 9.05 6.805 9.247 6.845 9.207 6.805 18.336 13.689 9.13 6.805 18.258 13.69 9.09 6.57 9.207 7.08 9.208 6.57 18.336 13.689 9.168 6.805 9.169 6.845 9.129 6.844 9.051 6.571 9.207 6.845 9.247 6.805 9.129 6.61 9.168 6.844 9.168 6.571 9.13 6.845 9.09 6.61 9.129 6.57 9.207 6.845 9.168 6.805 9.168 6.61 9.208 6.61 9.168 6.57 9.13 6.845 9.167 6.57 9.052 6.61 9.207 6.571 9.207 6.61 9.168 6.61 9.169 6.57 9.168 6.376 9.129 6.57 9.09 6.61 9.09 6.376 9.247 6.57 9.168 6.376 9.168 6.336 9.207 6.61 9.13 6.375 9.168 6.336 9.129 6.375 9.051 6.101 9.246 6.375 9.208 6.376 9.168 6.1 9.13 6.376 9.167 6.101 9.13 6.141 9.129 6.101 9.09 5.906 9.207 6.102 9.207 6.14 9.169 5.867 9.168 6.14 9.168 5.632 9.168 5.906 9.13 5.906 9.05 5.632 9.208 5.671 9.207 5.867 9.168 5.436 9.169 5.633 9.168 5.397 9.13 5.671 9.09 5.202 9.129 5.397 9.207 5.163 18.336 10.404 9.207 5.162 9.13 4.928 9.168 4.968 9.168 4.928 9.051 4.732 9.208 4.693 9.207 4.733 9.168 4.459 9.168 4.497 9.13 4.225 9.168 4.458 9.09 3.99 9.09 4.263 9.246 3.99 9.169 4.028 9.168 3.754 9.207 3.755 9.13 3.794 9.167 3.52 9.13 3.52 9.05 3.324 9.247 3.286 9.207 3.285 9.13 3.05 9.168 3.09 9.168 2.817 9.13 2.816 9.128 2.62 9.09 2.581 9.208 2.582 9.207 2.346 9.13 2.386 9.207 2.112 9.168 2.112 9.168 1.878 9.13 2.112 9.05 1.642 9.208 1.682 9.207 1.643 9.168 1.643 9.168 1.408 9.169 1.173 9.129 1.173 9.09 1.174 9.13 1.173 9.206.939 9.169.743 9.168.704 9.207.704 9.13.47 9.168.468 9.129.47 9.051.234 9.246.235h27.505l9.168-.235 9.13-.234 9.129-.47 9.09-.469 9.246-.47 18.337-1.407 9.168-.743 9.168-.94 9.168-1.172 9.13-1.174 9.05-1.173 9.247-1.173 9.207-1.408 9.13-1.643 9.168-1.643 9.168-1.682 18.258-3.754 9.09-1.878 9.208-2.112 9.168-2.112 9.168-2.386 9.207-2.346 9.169-2.582 9.129-2.58 9.168-2.621 9.051-2.816 9.207-2.816 9.208-3.09 9.168-3.05 18.336-6.572 9.13-3.324 18.18-7.04 9.246-3.794 18.337-7.51 9.207-4.028 9.13-3.99 9.167-4.262 9.13-3.99 9.05-4.458 9.247-4.225 9.207-4.497 9.168-4.694 9.13-4.498 9.168-4.693 9.13-4.967 9.128-4.693 9.09-4.968 9.247-4.928 9.168-5.162 18.336-10.404 9.169-5.163 9.168-5.397 9.13-5.437 9.05-5.436 9.208-5.397 9.207-5.633 9.168-5.67 9.168-5.633 9.169-5.67 9.129-5.633 9.09-5.906 9.13-5.632 9.206-6.14 9.169-5.906 9.207-5.867 9.168-6.14 9.168-6.102 9.13-5.906 9.168-6.101 9.05-6.14 9.208-6.102 9.207-6.375 9.169-6.101 18.336-12.75 9.13-6.337 9.09-6.14 9.09-6.336 9.246-6.376 9.168-6.61 9.168-6.335 9.208-6.61 9.129-6.336 9.168-6.61 9.13-6.375 9.05-6.571 9.247-6.61 9.207-6.57 9.13-6.376 9.206-6.61 9.13-6.57 9.129-6.61 9.13-6.571 9.09-6.61 9.207-6.805 9.207-6.61 9.168-6.845 9.168-6.57 9.168-6.61 9.169-6.806 9.129-6.61 9.051-6.844 9.207-6.57 9.247-6.845 9.129-6.845 9.168-6.57 9.168-6.845 9.13-6.844 9.09-6.571 9.129-6.845 9.207-6.805 18.337-13.689 9.207-6.805 9.129-6.61 9.168-6.806 9.168-6.844 9.013-6.845 9.246-6.805 9.207-6.845 9.168-6.844 9.169-6.805 9.129-6.845 9.168-6.805 9.09-6.845 9.09-6.805 9.247-6.845 9.168-6.844 9.168-7.04 9.207-6.845 9.13-6.844 9.168-6.806 9.129-6.844 9.051-6.845 9.246-6.805 9.208-7.08 9.168-6.805 9.168-6.844 9.13-6.845 9.129-6.805 9.129-6.845 9.09-6.805 9.207-7.08 9.207-6.844 9.169-6.844 9.168-7.04 9.168-6.845 9.13-6.805 9.168-6.845 9.05-6.844 9.208-7.04 9.207-6.845 9.169-6.805 9.168-6.845 9.168-7.079 9.13-6.805 9.09-6.845 9.129-6.844 9.207-6.806 9.168-7.079 9.168-6.805 9.208-6.845 9.129-7.04 18.336-13.689 9.051-6.805 9.208-7.08" transform="matrix(.10013 0 0 .09987 -22 271)"/></g><g clip-path="url(#s)"><path style="fill:none;stroke-width:11.4143;stroke-linecap:round;stroke-linejoin:round;stroke:#006400;stroke-opacity:1;stroke-miterlimit:10" d="m399.579-321.418 9.012-6.61 9.207-7.04 9.13-6.844 9.168-6.806 9.246-7.079 9.129-6.845 9.13-6.805 9.245-7.08 9.052-6.844 9.246-6.805 9.012-6.845 9.324-7.04 9.013-6.844 9.129-6.845 9.246-6.805 9.207-7.08 9.012-6.609 9.247-7.04 9.09-6.845 9.207-6.844 9.246-7.04 9.13-6.845 9.09-6.805 9.285-7.08 9.012-6.61 9.285-7.04 9.013-6.844 9.285-6.844 9.051-6.806 9.13-6.844 9.246-7.04 9.207-6.845 9.012-6.844 9.246-6.806 9.09-6.844 9.169-6.845 9.285-7.04 9.09-6.844 9.13-6.805 9.246-6.845 9.05-6.844 9.247-6.806 9.012-6.844 9.324-6.806 9.052-6.844 9.129-6.845 9.207-6.805 9.246-6.845 8.974-6.844 9.246-6.806 9.129-6.844 9.168-6.806 9.246-6.844 9.13-6.845 9.129-6.57 9.246-6.845 9.051-6.805 9.247-6.845 9.012-6.61 9.324-6.805 9.012-6.844 9.13-6.61 9.246-6.806 9.207-6.844 9.012-6.57 9.246-6.845 9.09-6.61 9.208-6.806 9.246-6.61 9.13-6.805 9.09-6.61 9.246-6.61 9.05-6.57 9.286-6.845 9.012-6.336 9.286-6.844 9.05-6.61 9.13-6.336 9.207-6.845 9.247-6.57 9.012-6.376 9.246-6.61 9.09-6.336 9.168-6.61 9.247-6.57 18.258-12.75 9.246-6.571 9.052-6.375 9.246-6.336 9.012-6.14 9.324-6.572 9.012-6.14 9.13-6.375 9.246-6.102 9.246-6.375 8.973-6.101 9.247-6.14 9.129-6.102 9.168-6.14 9.246-6.102 18.259-11.812 9.246-6.101 9.051-5.632 9.246-5.906 9.013-5.906 9.324-5.632 9.012-5.671 9.13-5.632 9.245-5.671 9.208-5.632 9.012-5.437 9.246-5.397 9.09-5.437 9.208-5.397 9.246-5.202 9.129-5.163 9.09-5.201 9.285-5.163 9.052-4.967 9.207-4.928 9.012-4.694 9.324-4.967 9.052-4.693 9.129-4.498 9.207-4.693 9.246-4.498 9.012-4.224 9.247-4.459 9.09-4.028 9.168-4.224 9.285-3.99 9.09-4.028 9.13-3.755 9.246-3.794 9.051-3.755 9.246-3.52 9.013-3.52 9.324-3.324 9.051-3.285 9.13-3.286 9.207-3.09 9.246-3.05 8.973-2.816 9.246-2.855 9.13-2.582 9.168-2.581 9.246-2.582 9.13-2.385 9.09-2.347 9.285-2.112 9.05-2.112 9.247-1.877 9.012-1.878 9.325-1.877 9.012-1.643 9.129-1.682 9.246-1.642 9.207-1.408 9.013-1.174 9.246-1.173 9.09-1.173 9.168-1.174 9.286-.977 9.09-.704 9.129-.704 9.285-.704 9.012-.47 9.247-.47 9.012-.468 9.324-.235 9.051-.235h27.583l9.012.235 9.207.235 9.13.469 9.168.47 9.246.469 18.259 1.408 9.246.704 9.051.977 9.246 1.174 9.012 1.173 9.325 1.173 9.012 1.174 9.168 1.408 9.207 1.642 9.208 1.682 9.012 1.643 9.246 1.877 9.13 1.878 9.167 1.877 9.247 2.112 9.129 2.112 9.09 2.347 9.285 2.385 9.052 2.582 9.246 2.581 9.012 2.582 9.324 2.855 9.012 2.816 18.376 6.14 9.207 3.286 9.012 3.285 9.247 3.324 9.09 3.52 9.168 3.52 9.285 3.755 9.13 3.794 9.09 3.755 9.246 4.028 9.051 3.99 9.246 4.224 9.013 4.028 9.324 4.459 9.051 4.224 9.13 4.498 9.206 4.693 9.247 4.498 9.012 4.693 9.207 4.967 9.13 4.694 9.168 4.928 9.246 4.967 9.129 5.163 9.13 5.201 9.246 5.163 9.05 5.202 9.247 5.397 9.012 5.202 9.324 5.632 9.013 5.437 9.129 5.397 9.246 5.671 9.246 5.867 8.973 5.671 9.247 5.632 9.129 5.906 9.168 5.906 9.246 5.867 9.13 5.866 9.09 5.906 9.285 6.14 9.051 5.867 9.247 6.14 9.012 6.102 9.324 6.14 9.012 6.102 9.13 6.375 9.246 6.102 9.207 6.375 9.012 6.14 9.246 6.336 9.09 6.376 9.169 6.336 9.285 6.61 9.09 6.336 9.13 6.375 9.246 6.61 9.05 6.336 9.247 6.61 9.012 6.336 9.325 6.61 9.05 6.375 9.13 6.57 9.207 6.61 9.246 6.57 8.974 6.61 9.246 6.61 9.13 6.571 9.167 6.845 9.247 6.57 9.129 6.61 9.09 6.61 9.285 6.806 9.051 6.61 9.247 6.805 9.012 6.61 9.324 6.844 9.012 6.57 9.13 6.845 9.246 6.806 9.207 6.61 9.012 6.844 9.246 6.805 9.09 6.61 9.208 6.845 9.246 6.805 9.13 6.845 9.09 6.805 9.285 6.845 9.012 6.61 9.246 6.805 9.012 6.844 9.325 6.806 9.05 6.844 9.13 6.845 9.207 6.805 9.247 6.845 9.012 6.844 9.246 6.806 9.09 6.844 9.168 6.806 9.247 6.844 9.129 6.845 9.13 6.805 9.245 7.08 9.052 6.804 9.246 6.845 9.012 6.844 9.324 6.806 9.051 6.844 9.09 6.845 9.247 7.04 9.246 6.844 9.012 6.806 9.208 6.844 9.129 6.845 9.168 6.805 9.246 7.08 9.13 6.844 9.129 6.805 9.246 7.08 9.051 6.61 9.246 7.04 9.013 6.844 9.324 7.04 9.012 6.61 9.13 7.079 9.245 6.805 9.208 6.845 9.012 6.844 9.246 7.04 9.09 6.845 9.169 6.805 9.285 7.08 9.13 6.844 9.09 6.805 9.246 7.08 9.05 6.61 9.286 7.04 8.973 6.844 9.324 7.04 9.052 6.61" transform="matrix(.10013 0 0 .09987 -22 271)"/></g></svg>