<svg xmlns="http://www.w3.org/2000/svg" xmlns:xlink="http://www.w3.org/1999/xlink" width="365pt" height="275pt" viewBox="0 0 365 275"><defs><clipPath id="a"><path d="M13 9.5h1v255h-1zm0 0"/></clipPath><clipPath id="b"><path d="M13 176h340v2H13zm0 0"/></clipPath><clipPath id="c"><path d="M13 9.5h1v255h-1zm0 0"/></clipPath><clipPath id="d"><path d="M80 9.5h2v255h-2zm0 0"/></clipPath><clipPath id="e"><path d="M148 9.5h2v255h-2zm0 0"/></clipPath><clipPath id="f"><path d="M216 9.5h2v255h-2zm0 0"/></clipPath><clipPath id="g"><path d="M284 9.5h2v255h-2zm0 0"/></clipPath><clipPath id="h"><path d="M352 9.5h1v255h-1zm0 0"/></clipPath><clipPath id="i"><path d="M13 228h340v2H13zm0 0"/></clipPath><clipPath id="j"><path d="M13 176h340v2H13zm0 0"/></clipPath><clipPath id="k"><path d="M13 124h340v2H13zm0 0"/></clipPath><clipPath id="l"><path d="M13 72h340v2H13zm0 0"/></clipPath><clipPath id="m"><path d="M13 20h340v2H13zm0 0"/></clipPath><clipPath id="u"><path d="M13 85h340v179.5H13zm0 0"/></clipPath><clipPath id="v"><path d="M13 9.5h340v255H13zm0 0"/></clipPath><clipPath id="w"><path d="M13 123h340v141.5H13zm0 0"/></clipPath><symbol overflow="visible" id="n"><path style="stroke:none" d="M2.063-5.313c-.5 0-.938.22-1.22.579C.5-4.266.329-3.563.329-2.578c0 1.797.594 2.75 1.734 2.75 1.126 0 1.735-.953 1.735-2.703 0-1.031-.156-1.719-.516-2.203-.281-.375-.719-.579-1.219-.579zm0 .579c.718 0 1.062.718 1.062 2.14 0 1.516-.344 2.219-1.078 2.219C1.344-.375 1-1.109 1-2.563c0-1.453.344-2.171 1.063-2.171zm0 0"/></symbol><symbol overflow="visible" id="o"><path style="stroke:none" d="M1.938-3.781V0h.671v-5.313h-.437c-.235.813-.39.922-1.406 1.047v.485zm0 0"/></symbol><symbol overflow="visible" id="p"><path style="stroke:none" d="M3.797-.656H1c.063-.438.313-.703.953-1.094l.75-.406c.75-.406 1.125-.953 1.125-1.594 0-.453-.172-.86-.484-1.14-.328-.298-.719-.423-1.219-.423-.672 0-1.172.235-1.469.688-.187.281-.265.61-.281 1.156h.656c.032-.36.078-.578.157-.75.171-.328.515-.515.921-.515.594 0 1.047.421 1.047.984 0 .422-.25.781-.719 1.063l-.687.39C.64-1.672.312-1.172.25 0h3.547zm0 0"/></symbol><symbol overflow="visible" id="q"><path style="stroke:none" d="M1.656-2.438h.36c.734 0 1.109.329 1.109.954 0 .671-.422 1.078-1.11 1.078-.718 0-1.078-.36-1.109-1.14H.234c.032.421.11.702.235.952.281.5.797.766 1.531.766 1.094 0 1.797-.656 1.797-1.656 0-.672-.266-1.047-.906-1.266.5-.203.75-.578.75-1.11 0-.906-.61-1.453-1.625-1.453-1.079 0-1.641.579-1.657 1.72h.657c0-.329.03-.516.109-.673.156-.296.484-.468.906-.468.578 0 .938.343.938.906 0 .375-.14.594-.438.719-.172.078-.406.109-.875.109zm0 0"/></symbol><symbol overflow="visible" id="r"><path style="stroke:none" d="M2.453-1.281V0h.656v-1.281h.797v-.594H3.11v-3.438h-.484L.203-1.969v.688zm0-.594H.781l1.672-2.313zm0 0"/></symbol><symbol overflow="visible" id="s"><path style="stroke:none" d="M3.563-5.313H.828L.422-2.421h.61c.312-.375.562-.5.984-.5.703 0 1.156.485 1.156 1.281 0 .766-.438 1.235-1.156 1.235-.579 0-.938-.297-1.094-.906H.266c.093.437.156.656.312.843.313.406.844.64 1.453.64 1.063 0 1.813-.78 1.813-1.905 0-1.047-.688-1.766-1.719-1.766-.375 0-.672.094-.984.313l.218-1.485h2.204zm0 0"/></symbol><symbol overflow="visible" id="t"><path style="stroke:none" d="M2.125-2.344H.344v.547h1.781zm0 0"/></symbol></defs><g clip-path="url(#a)"><path style="fill:none;stroke-width:6.25;stroke-linecap:round;stroke-linejoin:miter;stroke:#bfbfbf;stroke-opacity:1;stroke-miterlimit:10" d="M130 105v2550" transform="matrix(.1 0 0 -.1 0 275)"/></g><g clip-path="url(#b)"><path style="fill:none;stroke-width:6.25;stroke-linecap:round;stroke-linejoin:miter;stroke:#bfbfbf;stroke-opacity:1;stroke-miterlimit:10" d="M130 977.734h3400" transform="matrix(.1 0 0 -.1 0 275)"/></g><g clip-path="url(#c)"><path style="fill:none;stroke-width:6.25;stroke-linecap:round;stroke-linejoin:miter;stroke:#bfbfbf;stroke-opacity:1;stroke-dasharray:12.5,18.75;stroke-miterlimit:10" d="M130 105v2550" transform="matrix(.1 0 0 -.1 0 275)"/></g><g clip-path="url(#d)"><path style="fill:none;stroke-width:6.25;stroke-linecap:round;stroke-linejoin:miter;stroke:#bfbfbf;stroke-opacity:1;stroke-dasharray:12.5,18.75;stroke-miterlimit:10" d="M810 105v2550" transform="matrix(.1 0 0 -.1 0 275)"/></g><g clip-path="url(#e)"><path style="fill:none;stroke-width:6.25;stroke-linecap:round;stroke-linejoin:miter;stroke:#bfbfbf;stroke-opacity:1;stroke-dasharray:12.5,18.75;stroke-miterlimit:10" d="M1490 105v2550" transform="matrix(.1 0 0 -.1 0 275)"/></g><g clip-path="url(#f)"><path style="fill:none;stroke-width:6.25;stroke-linecap:round;stroke-linejoin:miter;stroke:#bfbfbf;stroke-opacity:1;stroke-dasharray:12.5,18.75;stroke-miterlimit:10" d="M2170 105v2550" transform="matrix(.1 0 0 -.1 0 275)"/></g><g clip-path="url(#g)"><path style="fill:none;stroke-width:6.25;stroke-linecap:round;stroke-linejoin:miter;stroke:#bfbfbf;stroke-opacity:1;stroke-dasharray:12.5,18.75;stroke-miterlimit:10" d="M2850 105v2550" transform="matrix(.1 0 0 -.1 0 275)"/></g><g clip-path="url(#h)"><path style="fill:none;stroke-width:6.25;stroke-linecap:round;stroke-linejoin:miter;stroke:#bfbfbf;stroke-opacity:1;stroke-dasharray:12.5,18.75;stroke-miterlimit:10" d="M3530 105v2550" transform="matrix(.1 0 0 -.1 0 275)"/></g><g clip-path="url(#i)"><path style="fill:none;stroke-width:6.25;stroke-linecap:round;stroke-linejoin:miter;stroke:#bfbfbf;stroke-opacity:1;stroke-dasharray:12.5,18.75;stroke-miterlimit:10" d="M130 457.305h3400" transform="matrix(.1 0 0 -.1 0 275)"/></g><g clip-path="url(#j)"><path style="fill:none;stroke-width:6.25;stroke-linecap:round;stroke-linejoin:miter;stroke:#bfbfbf;stroke-opacity:1;stroke-dasharray:12.5,18.75;stroke-miterlimit:10" d="M130 977.734h3400" transform="matrix(.1 0 0 -.1 0 275)"/></g><g clip-path="url(#k)"><path style="fill:none;stroke-width:6.25;stroke-linecap:round;stroke-linejoin:miter;stroke:#bfbfbf;stroke-opacity:1;stroke-dasharray:12.5,18.75;stroke-miterlimit:10" d="M130 1498.203h3400" transform="matrix(.1 0 0 -.1 0 275)"/></g><g clip-path="url(#l)"><path style="fill:none;stroke-width:6.25;stroke-linecap:round;stroke-linejoin:miter;stroke:#bfbfbf;stroke-opacity:1;stroke-dasharray:12.5,18.75;stroke-miterlimit:10" d="M130 2018.633h3400" transform="matrix(.1 0 0 -.1 0 275)"/></g><g clip-path="url(#m)"><path style="fill:none;stroke-width:6.25;stroke-linecap:round;stroke-linejoin:miter;stroke:#bfbfbf;stroke-opacity:1;stroke-dasharray:12.5,18.75;stroke-miterlimit:10" d="M130 2539.102h3400" transform="matrix(.1 0 0 -.1 0 275)"/></g><path style="fill:none;stroke-width:12.5;stroke-linecap:square;stroke-linejoin:miter;stroke:#000;stroke-opacity:1;stroke-miterlimit:10" d="M130 105h3400" transform="matrix(.1 0 0 -.1 0 275)"/><path style="fill:none;stroke-width:6.25;stroke-linecap:butt;stroke-linejoin:miter;stroke:#000;stroke-opacity:1;stroke-miterlimit:10" d="M130 105v50m68.008-50v25m68.008-25v25m67.968-25v25m68.008-25v25M470 105v25m68.008-25v25m68.008-25v25m67.968-25v25m68.008-25v25M810 105v50m68.008-50v25m67.969-25v25m68.007-25v25m68.008-25v25M1150 105v25m68.008-25v25m68.008-25v25m67.968-25v25m68.008-25v25M1490 105v50m68.008-50v25m68.008-25v25m67.968-25v25m68.008-25v25M1830 105v25m68.008-25v25m68.008-25v25m67.968-25v25m68.008-25v25M2170 105v50m68.008-50v25m68.008-25v25m67.968-25v25m68.008-25v25M2510 105v25m68.008-25v25m68.008-25v25m67.968-25v25m68.008-25v25M2850 105v50m68.008-50v25m68.008-25v25m67.968-25v25m68.008-25v25M3190 105v25m68.008-25v25m68.008-25v25m67.968-25v25m68.008-25v25M3530 105v50" transform="matrix(.1 0 0 -.1 0 275)"/><use xlink:href="#n" x="10.29" y="274.5" style="fill:#000;fill-opacity:1"/><use xlink:href="#o" x="78.415" y="274.5" style="fill:#000;fill-opacity:1"/><use xlink:href="#p" x="146.54" y="274.5" style="fill:#000;fill-opacity:1"/><use xlink:href="#q" x="214.665" y="274.5" style="fill:#000;fill-opacity:1"/><use xlink:href="#r" x="282.79" y="274.5" style="fill:#000;fill-opacity:1"/><use xlink:href="#s" x="350.915" y="274.5" style="fill:#000;fill-opacity:1"/><path style="fill:none;stroke-width:12.5;stroke-linecap:square;stroke-linejoin:miter;stroke:#000;stroke-opacity:1;stroke-miterlimit:10" d="M130 2655h3400" transform="matrix(.1 0 0 -.1 0 275)"/><path style="fill:none;stroke-width:6.25;stroke-linecap:butt;stroke-linejoin:miter;stroke:#000;stroke-opacity:1;stroke-miterlimit:10" d="M130 2655v-50m68.008 50v-25m68.008 25v-25m67.968 25v-25m68.008 25v-25M470 2655v-25m68.008 25v-25m68.008 25v-25m67.968 25v-25m68.008 25v-25M810 2655v-50m68.008 50v-25m67.969 25v-25m68.007 25v-25m68.008 25v-25m68.008 25v-25m68.008 25v-25m68.008 25v-25m67.968 25v-25m68.008 25v-25m68.008 25v-50m68.008 50v-25m68.008 25v-25m67.968 25v-25m68.008 25v-25m68.008 25v-25m68.008 25v-25m68.008 25v-25m67.968 25v-25m68.008 25v-25m68.008 25v-50m68.008 50v-25m68.008 25v-25m67.968 25v-25m68.008 25v-25m68.008 25v-25m68.008 25v-25m68.008 25v-25m67.968 25v-25m68.008 25v-25m68.008 25v-50m68.008 50v-25m68.008 25v-25m67.968 25v-25m68.008 25v-25m68.008 25v-25m68.008 25v-25m68.008 25v-25m67.968 25v-25m68.008 25v-25m68.008 25v-50" transform="matrix(.1 0 0 -.1 0 275)"/><use xlink:href="#n" x="10.29" y="6.375" style="fill:#000;fill-opacity:1"/><use xlink:href="#o" x="78.415" y="6.375" style="fill:#000;fill-opacity:1"/><use xlink:href="#p" x="146.54" y="6.375" style="fill:#000;fill-opacity:1"/><use xlink:href="#q" x="214.665" y="6.375" style="fill:#000;fill-opacity:1"/><use xlink:href="#r" x="282.79" y="6.375" style="fill:#000;fill-opacity:1"/><use xlink:href="#s" x="350.915" y="6.375" style="fill:#000;fill-opacity:1"/><path style="fill:none;stroke-width:12.5;stroke-linecap:square;stroke-linejoin:miter;stroke:#000;stroke-opacity:1;stroke-miterlimit:10" d="M130 105v2550" transform="matrix(.1 0 0 -.1 0 275)"/><path style="fill:none;stroke-width:6.25;stroke-linecap:butt;stroke-linejoin:miter;stroke:#000;stroke-opacity:1;stroke-miterlimit:10" d="M130 145.04h25m-25 52.03h25m-25 52.032h25m-25 52.07h25m-25 52.031h25m-25 52.031h25m-25 52.071h50m-50 52.031h25m-25 52.031h25m-25 52.071h25m-25 52.031h25M130 717.5h25m-25 52.07h25m-25 52.032h25m-25 52.031h25m-25 52.07h25m-25 52.031h50m-50 52.071h25m-25 52.031h25m-25 52.031h25m-25 52.071h25m-25 52.031h25m-25 52.071h25m-25 52.03h25m-25 52.032h25m-25 52.031h25m-25 52.07h50m-50 52.031h25m-25 52.071h25m-25 52.031h25m-25 52.031h25m-25 52.031h25m-25 52.071h25m-25 52.031h25m-25 52.031h25m-25 52.071h25m-25 52.031h50m-50 52.07h25m-25 52.031h25m-25 52.032h25m-25 52.07h25m-25 52.031h25m-25 52.031h25m-25 52.071h25M130 2435h25m-25 52.031h25m-25 52.071h50m-50 52.031h25m-25 52.031h25" transform="matrix(.1 0 0 -.1 0 275)"/><g style="fill:#000;fill-opacity:1"><use xlink:href="#t" x="-.542" y="232.625"/><use xlink:href="#o" x="1.956" y="232.625"/></g><use xlink:href="#n" x="1.955" y="180.75" style="fill:#000;fill-opacity:1"/><use xlink:href="#o" x="1.955" y="128.875" style="fill:#000;fill-opacity:1"/><use xlink:href="#p" x="1.955" y="76.375" style="fill:#000;fill-opacity:1"/><use xlink:href="#q" x="1.955" y="24.5" style="fill:#000;fill-opacity:1"/><path style="fill:none;stroke-width:12.5;stroke-linecap:square;stroke-linejoin:miter;stroke:#000;stroke-opacity:1;stroke-miterlimit:10" d="M3530 105v2550" transform="matrix(.1 0 0 -.1 0 275)"/><path style="fill:none;stroke-width:6.25;stroke-linecap:butt;stroke-linejoin:miter;stroke:#000;stroke-opacity:1;stroke-miterlimit:10" d="M3530 145.04h-25m25 52.03h-25m25 52.032h-25m25 52.07h-25m25 52.031h-25m25 52.031h-25m25 52.071h-50m50 52.031h-25m25 52.031h-25m25 52.071h-25m25 52.031h-25m25 52.031h-25m25 52.07h-25m25 52.032h-25m25 52.031h-25m25 52.07h-25m25 52.031h-50m50 52.071h-25m25 52.031h-25m25 52.031h-25m25 52.071h-25m25 52.031h-25m25 52.071h-25m25 52.03h-25m25 52.032h-25m25 52.031h-25m25 52.07h-50m50 52.031h-25m25 52.071h-25m25 52.031h-25m25 52.031h-25m25 52.031h-25m25 52.071h-25m25 52.031h-25m25 52.031h-25m25 52.071h-25m25 52.031h-50m50 52.07h-25m25 52.031h-25m25 52.032h-25m25 52.07h-25m25 52.031h-25m25 52.031h-25m25 52.071h-25m25 52.031h-25m25 52.031h-25m25 52.071h-50m50 52.031h-25m25 52.031h-25" transform="matrix(.1 0 0 -.1 0 275)"/><g style="fill:#000;fill-opacity:1"><use xlink:href="#t" x="359.25" y="232.625"/><use xlink:href="#o" x="361.748" y="232.625"/></g><use xlink:href="#n" x="359.25" y="180.75" style="fill:#000;fill-opacity:1"/><use xlink:href="#o" x="359.25" y="128.875" style="fill:#000;fill-opacity:1"/><use xlink:href="#p" x="359.25" y="76.375" style="fill:#000;fill-opacity:1"/><use xlink:href="#q" x="359.25" y="24.5" style="fill:#000;fill-opacity:1"/><g clip-path="url(#u)"><path style="fill:none;stroke-width:12.5;stroke-linecap:round;stroke-linejoin:miter;stroke:#00008b;stroke-opacity:1;stroke-miterlimit:10" d="m130 1498.203 6.25 4.766 12.5 9.375 12.5 9.218 6.25 4.532 6.25 4.492 6.25 4.453 12.5 8.75 12.5 8.516 6.25 4.218 6.25 4.141 6.25 4.102 6.25 4.062 6.25 4.024 6.25 3.945 6.25 3.906 6.25 3.867 6.25 3.79 6.25 3.75 6.25 3.71 6.25 3.633 6.25 3.594 6.25 3.555 6.25 3.476 6.25 3.438 6.25 3.398 6.25 3.32 6.25 3.282 6.25 3.203 6.25 3.164 6.25 3.125 6.25 3.047 6.25 3.007 6.25 2.93 6.25 2.89 6.25 2.813 6.25 2.774 6.25 2.734 6.25 2.656 12.5 5.157 6.25 2.46 6.25 2.422 6.25 2.383 6.25 2.305 6.25 2.266 6.25 2.187 6.25 2.149 6.25 2.07 6.25 2.031 6.25 1.953 6.25 1.875 6.25 1.836 6.25 1.797 6.25 1.719 6.25 1.68 12.5 3.124 6.25 1.485 6.25 1.406 6.25 1.328 6.25 1.29 6.25 1.25 6.25 1.171 6.25 1.133 12.5 2.031 6.25.938 6.25.86 6.25.78 6.25.743 6.25.703 6.25.625 6.25.546 6.25.47 6.25.429 6.25.39 6.25.313 6.25.234 6.25.196 6.25.117 6.25.078 12.5-.078 12.5-.313 6.25-.273 6.25-.313 6.25-.39 6.25-.43 6.25-.508 6.25-.546 6.25-.626 6.25-.664 12.5-1.562 12.5-1.797 6.25-1.016 6.25-1.054 6.25-1.133 6.25-1.172 6.25-1.25 6.25-1.289 6.25-1.367 6.25-1.406 6.25-1.485 6.25-1.562 6.25-1.602 6.25-1.64 6.25-1.72 6.25-1.796 6.25-1.836 6.25-1.914 6.25-1.953 6.25-2.032 12.5-4.218 6.25-2.227 6.25-2.265 6.25-2.305 6.25-2.383 6.25-2.422 6.25-2.5 6.25-2.539 6.25-2.617 6.25-2.656 6.25-2.735 6.25-2.773 6.25-2.813 6.25-2.89 6.25-2.969 6.25-3.008 6.25-3.047 6.25-3.125 6.25-3.164 12.5-6.484 6.25-3.36 12.5-6.796 6.25-3.516 6.25-3.555 6.25-3.593 6.25-3.633 6.25-3.711 6.25-3.75 6.25-3.828 6.25-3.868 6.25-3.906 6.25-3.945 6.25-4.024 6.25-4.062 6.25-4.102 12.5-8.359 6.25-4.258 6.25-4.297 12.5-8.75 6.25-4.453 12.5-9.062 6.25-4.57 12.5-9.297 6.25-4.727 6.25-4.766 12.5-9.687 6.25-4.883 6.25-4.922 6.25-5 12.5-10.078 6.25-5.117 12.5-10.313 6.25-5.234 6.25-5.273 6.25-5.313 12.5-10.703 6.25-5.43 12.5-10.937 12.5-11.094 6.25-5.625 6.25-5.586 12.5-11.406 12.5-11.485 6.25-5.78 18.75-17.579 6.25-5.937 12.5-11.954 12.5-12.03 18.75-18.282 12.5-12.344 12.5-12.422 12.5-12.5 6.25-6.289 12.5-12.656 12.5-12.734 6.25-6.407 18.75-19.336 12.5-12.968 18.75-19.57 6.25-6.563 6.25-6.602 6.25-6.562 6.25-6.602 6.25-6.64 6.25-6.602 6.25-6.64 6.25-6.68 6.25-6.64 18.75-20.04 31.25-33.594 6.25-6.757 6.25-6.72 43.75-47.304 6.25-6.797 56.25-60.82 6.25-6.719 6.25-6.758 25-26.875 31.25-33.398 12.5-13.281 6.25-6.602 6.25-6.64 6.25-6.602 6.25-6.563 6.25-6.601 6.25-6.524 6.25-6.562 6.25-6.524 18.75-19.453 12.5-12.89 12.5-12.813 12.5-12.734 6.25-6.328 18.75-18.867 6.25-6.25 6.25-6.211 12.5-12.344 12.5-12.266 6.25-6.054 6.25-6.094 12.5-12.032 6.25-5.937 6.25-5.977 12.5-11.796 6.25-5.86 6.25-5.82 6.25-5.781 12.5-11.485 12.5-11.328 6.25-5.625 6.25-5.586 12.5-11.094 6.25-5.468 12.5-10.86 12.5-10.703 12.5-10.547 12.5-10.39 6.25-5.118 12.5-10.156 6.25-5 6.25-4.96 12.5-9.844 12.5-9.61 6.25-4.765 12.5-9.375 6.25-4.61 6.25-4.57 6.25-4.531 6.25-4.493 6.25-4.414 6.25-4.375 6.25-4.336 6.25-4.296 6.25-4.258 6.25-4.18 6.25-4.14 6.25-4.102 6.25-4.063 6.25-3.984 6.25-3.945 6.25-3.907 6.25-3.828 6.25-3.789 6.25-3.75 6.25-3.71 6.25-3.634 6.25-3.593 6.25-3.516 6.25-3.476 6.25-3.438 6.25-3.36 6.25-3.32 6.25-3.242 6.25-3.203 6.25-3.164 6.25-3.125 12.5-6.016 6.25-2.93 12.5-5.702 12.5-5.47 6.25-2.655 6.25-2.579 6.25-2.539 6.25-2.46 6.25-2.422 6.25-2.344 6.25-2.305 6.25-2.265 12.5-4.297 6.25-2.07 6.25-1.993 6.25-1.953 6.25-1.875 6.25-1.836 6.25-1.758 6.25-1.719 6.25-1.64 6.25-1.602 6.25-1.523 6.25-1.445 6.25-1.407 6.25-1.367 12.5-2.5 12.5-2.266 6.25-1.015 6.25-.977 6.25-.937 12.5-1.64 6.25-.704 6.25-.664 6.25-.625 6.25-.547 6.25-.469 6.25-.43 6.25-.35 6.25-.313 6.25-.235 6.25-.156 6.25-.117 6.25-.04h6.25l6.25.079 6.25.156 6.25.195 6.25.274 6.25.312 6.25.391 6.25.469 6.25.508 6.25.546 12.5 1.329 6.25.78 6.25.821 6.25.86 6.25.976 6.25 1.016 6.25 1.054 6.25 1.133 6.25 1.172 6.25 1.25 6.25 1.328 6.25 1.367 6.25 1.446 6.25 1.484 6.25 1.563 6.25 1.601 6.25 1.68 6.25 1.758 6.25 1.796 6.25 1.836 6.25 1.914 6.25 1.993 6.25 2.03 6.25 2.071 12.5 4.375 6.25 2.266 6.25 2.344 6.25 2.382 6.25 2.461 6.25 2.5 6.25 2.54 6.25 2.617 6.25 2.695 6.25 2.734 6.25 2.774 6.25 2.851 6.25 2.89 6.25 2.97 6.25 3.007 6.25 3.086 6.25 3.125 6.25 3.164 6.25 3.243 6.25 3.28 6.25 3.36 6.25 3.399 6.25 3.437 6.25 3.516 6.25 3.555 6.25 3.593 6.25 3.672 6.25 3.711 12.5 7.578 6.25 3.867 6.25 3.946 12.5 7.969 12.5 8.203 6.25 4.18 6.25 4.218 6.25 4.258 6.25 4.297 6.25 4.375 6.25 4.414 6.25 4.453 6.25 4.492 12.5 9.14 6.25 4.65 6.25 4.687 6.25 4.726 6.25 4.766 12.5 9.687 12.5 9.844 6.25 5 6.25 5.04 6.25 5.077 6.25 5.118 6.25 5.156 6.25 5.195 6.25 5.234 6.25 5.274 6.25 5.312 12.5 10.703 6.25 5.43 6.25 5.469 6.25 5.508 12.5 11.093 12.5 11.25 6.25 5.665 6.25 5.742 6.25 5.703 6.25 5.781 12.5 11.64 6.25 5.9 6.25 5.859 6.25 5.937" transform="matrix(.1 0 0 -.1 0 275)"/></g><g clip-path="url(#v)"><path style="fill:none;stroke-width:12.5;stroke-linecap:round;stroke-linejoin:miter;stroke:#006400;stroke-opacity:1;stroke-miterlimit:10" d="m130 2539.102 6.25-4.766 6.25-4.727 6.25-4.687 12.5-9.219 6.25-4.57 6.25-4.531 18.75-13.36 6.25-4.375 12.5-8.672 6.25-4.297 12.5-8.515 6.25-4.219 12.5-8.36 6.25-4.14 18.75-12.305 6.25-4.062 18.75-12.07 18.75-11.954 18.75-11.836 31.25-19.53 6.25-3.868 6.25-3.906 56.25-34.805 6.25-3.906 12.5-7.735 12.5-7.812 6.25-3.867 12.5-7.813 6.25-3.945 6.25-3.906 12.5-7.89 6.25-3.985 6.25-3.946 12.5-7.968 18.75-12.07 18.75-12.188 12.5-8.203 12.5-8.282 18.75-12.539 6.25-4.218 6.25-4.258 6.25-4.219 12.5-8.594 18.75-13.007 18.75-13.243 6.25-4.453 12.5-8.984 12.5-9.063 6.25-4.609 6.25-4.57 18.75-13.946 12.5-9.453 12.5-9.531 6.25-4.844 6.25-4.804 12.5-9.766 6.25-4.922 6.25-4.96 12.5-10 6.25-5.04 12.5-10.156 6.25-5.117 6.25-5.157 12.5-10.39 18.75-15.82 12.5-10.704 6.25-5.39 12.5-10.86 12.5-11.015 6.25-5.547 12.5-11.172 6.25-5.625 6.25-5.703 6.25-5.664 12.5-11.485 6.25-5.78 6.25-5.821 6.25-5.86 12.5-11.796 6.25-5.938 12.5-11.953 12.5-12.11 12.5-12.187 12.5-12.344 12.5-12.422 12.5-12.578 12.5-12.656 12.5-12.812 12.5-12.891 6.25-6.484 6.25-6.524 12.5-13.125 6.25-6.601 12.5-13.282 6.25-6.718 6.25-6.68 12.5-13.516 12.5-13.593 6.25-6.836 12.5-13.75 12.5-13.829 18.75-20.976 12.5-14.063 6.25-7.07 6.25-7.11 6.25-7.148 6.25-7.11 18.75-21.562 12.5-14.453 6.25-7.265 18.75-21.914 12.5-14.688 12.5-14.766 18.75-22.265 6.25-7.461 6.25-7.5 6.25-7.461 6.25-7.5 6.25-7.54 6.25-7.5 6.25-7.577 6.25-7.54 18.75-22.734 25-30.468 25-30.625 37.5-46.172 12.5-15.47 6.25-7.694 37.5-46.407 6.25-7.773 25-30.938 6.25-7.773 18.75-23.203 6.25-7.695 18.75-23.204 37.5-46.171 25-30.625 25-30.47 12.5-15.155 6.25-7.54 6.25-7.578 6.25-7.5 6.25-7.539 12.5-15 12.5-14.922 18.75-22.265 6.25-7.383 18.75-22.031 6.25-7.305 18.75-21.797 6.25-7.226 6.25-7.188 18.75-21.445 18.75-21.211 12.5-13.985 12.5-13.906 6.25-6.914 6.25-6.875 12.5-13.672 6.25-6.797 6.25-6.757 6.25-6.72 12.5-13.359 6.25-6.64 6.25-6.602 6.25-6.562 6.25-6.524 12.5-12.968 12.5-12.813 12.5-12.656 6.25-6.29 6.25-6.25 12.5-12.343 6.25-6.133 6.25-6.093 6.25-6.055 12.5-11.953 6.25-5.938 12.5-11.719 12.5-11.562 6.25-5.703 6.25-5.664 6.25-5.625 6.25-5.586 6.25-5.547 12.5-10.938 6.25-5.39 6.25-5.352 6.25-5.312 12.5-10.469 6.25-5.156 6.25-5.117 6.25-5.079 6.25-5 6.25-4.96 6.25-4.922 6.25-4.883 6.25-4.805 6.25-4.765 6.25-4.727 6.25-4.649 6.25-4.609 6.25-4.57 6.25-4.531 6.25-4.454 6.25-4.414 6.25-4.336 6.25-4.296 6.25-4.258 6.25-4.18 6.25-4.14 6.25-4.063 6.25-4.024 6.25-3.984 6.25-3.906 6.25-3.867 6.25-3.79 6.25-3.75 6.25-3.671 6.25-3.633 6.25-3.594 6.25-3.515 12.5-6.875 6.25-3.32 6.25-3.282 6.25-3.242 6.25-3.164 6.25-3.125 6.25-3.047 6.25-2.969 6.25-2.93 6.25-2.89 12.5-5.547 6.25-2.695 6.25-2.618 6.25-2.578 6.25-2.5 12.5-4.843 6.25-2.305 6.25-2.266 6.25-2.187 6.25-2.149 6.25-2.07 6.25-2.031 12.5-3.828 6.25-1.836 6.25-1.758 6.25-1.68 6.25-1.64 6.25-1.563 6.25-1.523 6.25-1.446 6.25-1.367 6.25-1.328 6.25-1.29 6.25-1.17 6.25-1.134 6.25-1.094 6.25-.976 6.25-.938 6.25-.898 12.5-1.563 6.25-.664 6.25-.625 6.25-.546 6.25-.508 6.25-.43 6.25-.351 6.25-.313 6.25-.234 6.25-.157 6.25-.117 6.25-.039h6.25l6.25.078 6.25.156 6.25.196 12.5.625 6.25.39 6.25.47 6.25.546 6.25.586 6.25.664 6.25.703 6.25.781 6.25.86 6.25.898 6.25.977 6.25 1.015 6.25 1.094 6.25 1.172 6.25 1.211 6.25 1.29 6.25 1.327 6.25 1.406 6.25 1.485 6.25 1.523 6.25 1.602 6.25 1.64 6.25 1.72 6.25 1.757 6.25 1.836 6.25 1.914 6.25 1.953 6.25 2.031 6.25 2.07 6.25 2.15 6.25 2.187 6.25 2.226 12.5 4.688 12.5 4.922 6.25 2.578 6.25 2.617 6.25 2.656 6.25 2.735 6.25 2.773 6.25 2.812 12.5 5.86 6.25 3.008 12.5 6.171 12.5 6.407 12.5 6.64 6.25 3.399 6.25 3.437 6.25 3.516 6.25 3.555 6.25 3.593 6.25 3.672 6.25 3.711 6.25 3.79 12.5 7.656 6.25 3.945 12.5 7.969 12.5 8.203 6.25 4.18 6.25 4.218 6.25 4.258 6.25 4.336 6.25 4.375 6.25 4.414 6.25 4.453 6.25 4.492 6.25 4.531 6.25 4.61 6.25 4.648 6.25 4.688 6.25 4.726 12.5 9.61 6.25 4.844 6.25 4.921 6.25 4.961 6.25 5 6.25 5.04 12.5 10.156 6.25 5.156 6.25 5.195 6.25 5.235 6.25 5.312 6.25 5.274 6.25 5.39 6.25 5.352 6.25 5.43 6.25 5.468 12.5 11.016 6.25 5.586 12.5 11.25 6.25 5.664 6.25 5.703 6.25 5.742 12.5 11.563 12.5 11.718" transform="matrix(.1 0 0 -.1 0 275)"/></g><g clip-path="url(#w)"><path style="fill:none;stroke-width:12.5;stroke-linecap:round;stroke-linejoin:miter;stroke:#8b0000;stroke-opacity:1;stroke-miterlimit:10" d="m130 457.305 6.25 14.257 6.25 14.18 6.25 14.024 6.25 13.867 6.25 13.75 6.25 13.633 6.25 13.515 6.25 13.36 6.25 13.242 6.25 13.125 6.25 13.008 6.25 12.851 6.25 12.735 6.25 12.617 6.25 12.46 6.25 12.344 6.25 12.227 6.25 12.11 6.25 11.992 6.25 11.836 6.25 11.718 6.25 11.602 6.25 11.484L280 764.61l6.25 11.25 6.25 11.094 6.25 10.977 6.25 10.86 6.25 10.741 6.25 10.625 6.25 10.508 6.25 10.39 6.25 10.274 6.25 10.117 6.25 10.04 6.25 9.882 6.25 9.805 6.25 9.648 6.25 9.532 6.25 9.453 6.25 9.297 6.25 9.18 6.25 9.1 6.25 8.946 6.25 8.828 6.25 8.75 6.25 8.594 6.25 8.516 6.25 8.359 6.25 8.281 6.25 8.125 6.25 8.047 6.25 7.93 6.25 7.812 6.25 7.696 6.25 7.578 6.25 7.46 6.25 7.383 6.25 7.227 6.25 7.149 6.25 7.03 6.25 6.915 6.25 6.797 6.25 6.68 6.25 6.6 6.25 6.446 6.25 6.367 6.25 6.25 6.25 6.172 6.25 6.016 6.25 5.937 6.25 5.82 6.25 5.743 6.25 5.586 6.25 5.508 6.25 5.43 6.25 5.273 6.25 5.195 6.25 5.078 6.25 4.961 6.25 4.883 6.25 4.766 6.25 4.648 6.25 4.57 6.25 4.454 6.25 4.374 6.25 4.258 6.25 4.14 6.25 4.063 6.25 3.946 6.25 3.867 6.25 3.75 6.25 3.633 6.25 3.554 6.25 3.438 6.25 3.36 6.25 3.242 6.25 3.164 6.25 3.085 6.25 2.97 6.25 2.85 6.25 2.774 6.25 2.657 6.25 2.578 6.25 2.5 6.25 2.382 6.25 2.305 6.25 2.188 6.25 2.109 6.25 2.031 6.25 1.914 6.25 1.836 6.25 1.719 6.25 1.64 6.25 1.563 6.25 1.445 6.25 1.368 6.25 1.328 6.25 1.172 6.25 1.093 6.25 1.055 6.25.899 6.25.859 6.25.742 6.25.703 6.25.586 6.25.469 6.25.43 6.25.312 6.25.274 6.25.156 6.25.078h6.25l6.25-.078 6.25-.196 6.25-.234 6.25-.351 6.25-.391 6.25-.508 6.25-.547 6.25-.664 6.25-.742 6.25-.781 6.25-.899 6.25-.937 6.25-1.055 6.25-1.094 6.25-1.21 6.25-1.25 6.25-1.329 6.25-1.406 6.25-1.484 6.25-1.563 6.25-1.64 6.25-1.68 6.25-1.797 6.25-1.836 6.25-1.914 6.25-1.953 6.25-2.031 6.25-2.149 6.25-2.187 6.25-2.227 6.25-2.305 12.5-4.843 6.25-2.54 6.25-2.578 6.25-2.617 6.25-2.734 6.25-2.774 6.25-2.812 6.25-2.89 6.25-2.97 6.25-3.007 6.25-3.086 6.25-3.125 6.25-3.203 6.25-3.243 6.25-3.32 6.25-3.36 6.25-3.398 12.5-7.03 6.25-3.595 6.25-3.632 6.25-3.711 6.25-3.75 6.25-3.79 6.25-3.828 6.25-3.906 6.25-3.945 6.25-4.024 6.25-4.062 6.25-4.102 6.25-4.14 6.25-4.18 12.5-8.516 6.25-4.335 6.25-4.376 12.5-8.906 6.25-4.492 12.5-9.14 6.25-4.649 12.5-9.375 6.25-4.766 12.5-9.609 12.5-9.766 12.5-9.921 6.25-5 6.25-5.04 6.25-5.078 6.25-5.117 12.5-10.312 6.25-5.196 6.25-5.234 12.5-10.547 6.25-5.312 6.25-5.352 12.5-10.781 6.25-5.43 18.75-16.406 6.25-5.547 6.25-5.508 18.75-16.758 6.25-5.625 18.75-16.992 6.25-5.703 6.25-5.742 6.25-5.703 6.25-5.742 6.25-5.782 6.25-5.742 6.25-5.82 6.25-5.782 18.75-17.46 6.25-5.86 6.25-5.82 12.5-11.719 6.25-5.898 6.25-5.86 31.25-29.492 6.25-5.937 18.75-17.696 6.25-5.937 12.5-11.797 6.25-5.938 37.5-35.39 12.5-11.719 6.25-5.898 6.25-5.82 12.5-11.72 18.75-17.46 18.75-17.344 18.75-17.227 18.75-17.11 6.25-5.663 6.25-5.625 6.25-5.664 18.75-16.758 12.5-11.094 6.25-5.508 12.5-10.937 12.5-10.86 6.25-5.39 12.5-10.703 12.5-10.625 6.25-5.235 6.25-5.273 6.25-5.195 12.5-10.313 12.5-10.234 12.5-10.078 6.25-5 6.25-4.961 6.25-4.922 12.5-9.766 6.25-4.844 12.5-9.53 6.25-4.727 6.25-4.688 6.25-4.648 12.5-9.219 6.25-4.531 6.25-4.492 6.25-4.454 12.5-8.828 6.25-4.336 6.25-4.296 6.25-4.258 6.25-4.22 6.25-4.179 6.25-4.14 12.5-8.125 6.25-4.024 6.25-3.945 6.25-3.906 6.25-3.868 6.25-3.828 6.25-3.789 6.25-3.75 12.5-7.344 6.25-3.593 12.5-7.031 6.25-3.438 6.25-3.398 6.25-3.36 6.25-3.32 6.25-3.242 6.25-3.203 6.25-3.164 12.5-6.172 12.5-5.938 6.25-2.89 6.25-2.852 6.25-2.813 6.25-2.734 6.25-2.695 6.25-2.617 6.25-2.579 6.25-2.539 6.25-2.46 6.25-2.422 6.25-2.383 6.25-2.305 6.25-2.266 6.25-2.187 6.25-2.149 12.5-4.14 6.25-1.953 6.25-1.914 6.25-1.875 6.25-1.836 12.5-3.438 6.25-1.64 6.25-1.563 6.25-1.523 6.25-1.446 6.25-1.406 6.25-1.367 6.25-1.29 6.25-1.21 6.25-1.172 6.25-1.133 6.25-1.054 6.25-.977 6.25-.938 6.25-.898 6.25-.82 6.25-.742 6.25-.704 6.25-.625 6.25-.585 6.25-.547 12.5-.86 6.25-.312 6.25-.274 6.25-.234 6.25-.156 6.25-.118 6.25-.039 6.25.04 6.25.078 6.25.156 6.25.195 6.25.274 6.25.312 6.25.39 6.25.43 6.25.508 6.25.586 6.25.625 6.25.664 6.25.742 6.25.82 6.25.86 6.25.938 6.25.976 6.25 1.055 6.25 1.094 6.25 1.172 6.25 1.25 6.25 1.289 6.25 1.328 6.25 1.406 6.25 1.484 6.25 1.524 6.25 1.601 6.25 1.64 6.25 1.68 12.5 3.594 12.5 3.828 6.25 1.993 6.25 2.07 6.25 2.11 6.25 2.187 6.25 2.226 6.25 2.305 6.25 2.344 6.25 2.383 6.25 2.46 6.25 2.54 6.25 2.578 6.25 2.617 6.25 2.695 6.25 2.735 6.25 2.812 6.25 2.852 6.25 2.93 6.25 2.968 6.25 3.008 6.25 3.086 6.25 3.125 6.25 3.203 6.25 3.242 6.25 3.281 6.25 3.36 6.25 3.398 6.25 3.438 6.25 3.515 6.25 3.555 12.5 7.266 12.5 7.5 6.25 3.828 6.25 3.867 12.5 7.89 6.25 4.024 6.25 4.063 6.25 4.14 12.5 8.36 12.5 8.593 6.25 4.375 6.25 4.414 6.25 4.454 6.25 4.492 6.25 4.531 6.25 4.61 6.25 4.648 6.25 4.687 6.25 4.727 6.25 4.765 6.25 4.805 12.5 9.766 6.25 4.96 12.5 10 6.25 5.079 6.25 5.117 6.25 5.156 6.25 5.196 6.25 5.234 6.25 5.273 6.25 5.313 6.25 5.351 6.25 5.391 12.5 10.86 6.25 5.507 6.25 5.547 12.5 11.172 12.5 11.328 6.25 5.703 6.25 5.742 6.25 5.782 12.5 11.64 6.25 5.86 18.75 17.812 6.25 6.016" transform="matrix(.1 0 0 -.1 0 275)"/></g></svg>