<svg xmlns="http://www.w3.org/2000/svg" xmlns:xlink="http://www.w3.org/1999/xlink" width="516" height="275pt" viewBox="0 0 387 275"><defs><clipPath id="a"><path d="M24 9.5h1v255h-1zm0 0"/></clipPath><clipPath id="b"><path d="M24 256h340v1H24zm0 0"/></clipPath><clipPath id="c"><path d="M24 9.5h1v255h-1zm0 0"/></clipPath><clipPath id="d"><path d="M80 9.5h1v255h-1zm0 0"/></clipPath><clipPath id="e"><path d="M137 9.5h1v255h-1zm0 0"/></clipPath><clipPath id="f"><path d="M193 9.5h2v255h-2zm0 0"/></clipPath><clipPath id="g"><path d="M250 9.5h1v255h-1zm0 0"/></clipPath><clipPath id="h"><path d="M307 9.5h1v255h-1zm0 0"/></clipPath><clipPath id="i"><path d="M363 9.5h1v255h-1zm0 0"/></clipPath><clipPath id="j"><path d="M24 256h340v1H24zm0 0"/></clipPath><clipPath id="k"><path d="M24 218h340v2H24zm0 0"/></clipPath><clipPath id="l"><path d="M24 181h340v1H24zm0 0"/></clipPath><clipPath id="m"><path d="M24 143h340v2H24zm0 0"/></clipPath><clipPath id="n"><path d="M24 106h340v1H24zm0 0"/></clipPath><clipPath id="o"><path d="M24 68h340v2H24zm0 0"/></clipPath><clipPath id="p"><path d="M24 31h340v1H24zm0 0"/></clipPath><clipPath id="x"><path d="M24 9.5h340v255H24zm0 0"/></clipPath><symbol overflow="visible" id="q"><path style="stroke:none" d="M2.063-5.313c-.5 0-.938.22-1.22.579C.5-4.266.329-3.563.329-2.578c0 1.797.594 2.75 1.734 2.75 1.126 0 1.735-.953 1.735-2.703 0-1.031-.156-1.719-.516-2.203-.281-.375-.719-.579-1.219-.579zm0 .579c.718 0 1.062.718 1.062 2.14 0 1.516-.344 2.219-1.078 2.219C1.344-.375 1-1.109 1-2.563c0-1.453.344-2.171 1.063-2.171zm0 0"/></symbol><symbol overflow="visible" id="r"><path style="stroke:none" d="M1.938-3.781V0h.671v-5.313h-.437c-.235.813-.39.922-1.406 1.047v.485zm0 0"/></symbol><symbol overflow="visible" id="s"><path style="stroke:none" d="M3.797-.656H1c.063-.438.313-.703.953-1.094l.75-.406c.75-.406 1.125-.953 1.125-1.594 0-.453-.172-.86-.484-1.14-.328-.298-.719-.423-1.219-.423-.672 0-1.172.235-1.469.688-.187.281-.265.61-.281 1.156h.656c.032-.36.078-.578.157-.75.171-.328.515-.515.921-.515.594 0 1.047.421 1.047.984 0 .422-.25.781-.719 1.063l-.687.39C.64-1.672.312-1.172.25 0h3.547zm0 0"/></symbol><symbol overflow="visible" id="t"><path style="stroke:none" d="M1.656-2.438h.36c.734 0 1.109.329 1.109.954 0 .671-.422 1.078-1.11 1.078-.718 0-1.078-.36-1.109-1.14H.234c.032.421.11.702.235.952.281.5.797.766 1.531.766 1.094 0 1.797-.656 1.797-1.656 0-.672-.266-1.047-.906-1.266.5-.203.75-.578.75-1.11 0-.906-.61-1.453-1.625-1.453-1.079 0-1.641.579-1.657 1.72h.657c0-.329.03-.516.109-.673.156-.296.484-.468.906-.468.578 0 .938.343.938.906 0 .375-.14.594-.438.719-.172.078-.406.109-.875.109zm0 0"/></symbol><symbol overflow="visible" id="u"><path style="stroke:none" d="M2.453-1.281V0h.656v-1.281h.797v-.594H3.11v-3.438h-.484L.203-1.969v.688zm0-.594H.781l1.672-2.313zm0 0"/></symbol><symbol overflow="visible" id="v"><path style="stroke:none" d="M3.563-5.313H.828L.422-2.421h.61c.312-.375.562-.5.984-.5.703 0 1.156.485 1.156 1.281 0 .766-.438 1.235-1.156 1.235-.579 0-.938-.297-1.094-.906H.266c.093.437.156.656.312.843.313.406.844.64 1.453.64 1.063 0 1.813-.78 1.813-1.905 0-1.047-.688-1.766-1.719-1.766-.375 0-.672.094-.984.313l.218-1.485h2.204zm0 0"/></symbol><symbol overflow="visible" id="w"><path style="stroke:none" d="M3.734-3.938c-.125-.859-.703-1.374-1.5-1.374-.593 0-1.109.28-1.437.75-.328.515-.469 1.171-.469 2.14 0 .89.125 1.469.438 1.938.296.421.75.656 1.343.656 1.016 0 1.735-.75 1.735-1.797 0-.984-.672-1.688-1.625-1.688-.531 0-.938.204-1.219.594 0-1.297.422-2.015 1.188-2.015.453 0 .78.296.89.796zm-1.593 1.22c.64 0 1.03.437 1.03 1.155 0 .657-.452 1.157-1.062 1.157-.609 0-1.078-.516-1.078-1.203 0-.657.453-1.11 1.11-1.11zm0 0"/></symbol></defs><g clip-path="url(#a)"><path style="fill:none;stroke-width:6.25;stroke-linecap:round;stroke-linejoin:miter;stroke:#bfbfbf;stroke-opacity:1;stroke-miterlimit:10" d="M240 105v2550" transform="matrix(.1 0 0 -.1 0 275)"/></g><g clip-path="url(#b)"><path style="fill:none;stroke-width:6.25;stroke-linecap:round;stroke-linejoin:miter;stroke:#bfbfbf;stroke-opacity:1;stroke-miterlimit:10" d="M240 183.398h3400" transform="matrix(.1 0 0 -.1 0 275)"/></g><g clip-path="url(#c)"><path style="fill:none;stroke-width:6.25;stroke-linecap:round;stroke-linejoin:miter;stroke:#bfbfbf;stroke-opacity:1;stroke-dasharray:12.5,18.75;stroke-miterlimit:10" d="M240 105v2550" transform="matrix(.1 0 0 -.1 0 275)"/></g><g clip-path="url(#d)"><path style="fill:none;stroke-width:6.25;stroke-linecap:round;stroke-linejoin:miter;stroke:#bfbfbf;stroke-opacity:1;stroke-dasharray:12.5,18.75;stroke-miterlimit:10" d="M806.68 105v2550" transform="matrix(.1 0 0 -.1 0 275)"/></g><g clip-path="url(#e)"><path style="fill:none;stroke-width:6.25;stroke-linecap:round;stroke-linejoin:miter;stroke:#bfbfbf;stroke-opacity:1;stroke-dasharray:12.5,18.75;stroke-miterlimit:10" d="M1373.32 105v2550" transform="matrix(.1 0 0 -.1 0 275)"/></g><g clip-path="url(#f)"><path style="fill:none;stroke-width:6.25;stroke-linecap:round;stroke-linejoin:miter;stroke:#bfbfbf;stroke-opacity:1;stroke-dasharray:12.5,18.75;stroke-miterlimit:10" d="M1940 105v2550" transform="matrix(.1 0 0 -.1 0 275)"/></g><g clip-path="url(#g)"><path style="fill:none;stroke-width:6.25;stroke-linecap:round;stroke-linejoin:miter;stroke:#bfbfbf;stroke-opacity:1;stroke-dasharray:12.5,18.75;stroke-miterlimit:10" d="M2506.68 105v2550" transform="matrix(.1 0 0 -.1 0 275)"/></g><g clip-path="url(#h)"><path style="fill:none;stroke-width:6.25;stroke-linecap:round;stroke-linejoin:miter;stroke:#bfbfbf;stroke-opacity:1;stroke-dasharray:12.5,18.75;stroke-miterlimit:10" d="M3073.32 105v2550" transform="matrix(.1 0 0 -.1 0 275)"/></g><g clip-path="url(#i)"><path style="fill:none;stroke-width:6.25;stroke-linecap:round;stroke-linejoin:miter;stroke:#bfbfbf;stroke-opacity:1;stroke-dasharray:12.5,18.75;stroke-miterlimit:10" d="M3640 105v2550" transform="matrix(.1 0 0 -.1 0 275)"/></g><g clip-path="url(#j)"><path style="fill:none;stroke-width:6.25;stroke-linecap:round;stroke-linejoin:miter;stroke:#bfbfbf;stroke-opacity:1;stroke-dasharray:12.5,18.75;stroke-miterlimit:10" d="M240 183.398h3400" transform="matrix(.1 0 0 -.1 0 275)"/></g><g clip-path="url(#k)"><path style="fill:none;stroke-width:6.25;stroke-linecap:round;stroke-linejoin:miter;stroke:#bfbfbf;stroke-opacity:1;stroke-dasharray:12.5,18.75;stroke-miterlimit:10" d="M240 558.477h3400" transform="matrix(.1 0 0 -.1 0 275)"/></g><g clip-path="url(#l)"><path style="fill:none;stroke-width:6.25;stroke-linecap:round;stroke-linejoin:miter;stroke:#bfbfbf;stroke-opacity:1;stroke-dasharray:12.5,18.75;stroke-miterlimit:10" d="M240 933.594h3400" transform="matrix(.1 0 0 -.1 0 275)"/></g><g clip-path="url(#m)"><path style="fill:none;stroke-width:6.25;stroke-linecap:round;stroke-linejoin:miter;stroke:#bfbfbf;stroke-opacity:1;stroke-dasharray:12.5,18.75;stroke-miterlimit:10" d="M240 1308.672h3400" transform="matrix(.1 0 0 -.1 0 275)"/></g><g clip-path="url(#n)"><path style="fill:none;stroke-width:6.25;stroke-linecap:round;stroke-linejoin:miter;stroke:#bfbfbf;stroke-opacity:1;stroke-dasharray:12.5,18.75;stroke-miterlimit:10" d="M240 1683.79h3400" transform="matrix(.1 0 0 -.1 0 275)"/></g><g clip-path="url(#o)"><path style="fill:none;stroke-width:6.25;stroke-linecap:round;stroke-linejoin:miter;stroke:#bfbfbf;stroke-opacity:1;stroke-dasharray:12.5,18.75;stroke-miterlimit:10" d="M240 2058.867h3400" transform="matrix(.1 0 0 -.1 0 275)"/></g><g clip-path="url(#p)"><path style="fill:none;stroke-width:6.25;stroke-linecap:round;stroke-linejoin:miter;stroke:#bfbfbf;stroke-opacity:1;stroke-dasharray:12.5,18.75;stroke-miterlimit:10" d="M240 2433.945h3400" transform="matrix(.1 0 0 -.1 0 275)"/></g><path style="fill:none;stroke-width:12.5;stroke-linecap:square;stroke-linejoin:miter;stroke:#000;stroke-opacity:1;stroke-miterlimit:10" d="M240 105h3400" transform="matrix(.1 0 0 -.1 0 275)"/><path style="fill:none;stroke-width:6.25;stroke-linecap:butt;stroke-linejoin:miter;stroke:#000;stroke-opacity:1;stroke-miterlimit:10" d="M240 105v50m56.68-50v25m56.64-25v25M410 105v25m56.68-25v25m56.64-25v25M580 105v25m56.68-25v25m56.64-25v25M750 105v25m56.68-25v50m56.64-50v25M920 105v25m56.68-25v25m56.64-25v25m56.68-25v25m56.68-25v25m56.64-25v25m56.68-25v25m56.68-25v25m56.64-25v50m56.68-50v25m56.68-25v25m56.64-25v25m56.68-25v25m56.68-25v25m56.64-25v25m56.68-25v25m56.68-25v25m56.64-25v25m56.68-25v50m56.68-50v25m56.64-25v25m56.68-25v25m56.68-25v25m56.64-25v25m56.68-25v25m56.68-25v25m56.64-25v25m56.68-25v25m56.68-25v50m56.64-50v25m56.68-25v25m56.68-25v25m56.64-25v25m56.68-25v25m56.68-25v25m56.64-25v25m56.68-25v25m56.68-25v25m56.64-25v50m56.68-50v25m56.68-25v25m56.64-25v25m56.68-25v25m56.68-25v25m56.64-25v25m56.68-25v25m56.68-25v25m56.64-25v25m56.68-25v50" transform="matrix(.1 0 0 -.1 0 275)"/><use xlink:href="#q" x="21.29" y="274.5" style="fill:#000;fill-opacity:1"/><g style="fill:#000;fill-opacity:1"><use xlink:href="#r" x="76.08" y="274.5"/><use xlink:href="#q" x="80.25" y="274.5"/></g><g style="fill:#000;fill-opacity:1"><use xlink:href="#s" x="132.955" y="274.5"/><use xlink:href="#q" x="137.125" y="274.5"/></g><g style="fill:#000;fill-opacity:1"><use xlink:href="#t" x="189.83" y="274.5"/><use xlink:href="#q" x="194" y="274.5"/></g><g style="fill:#000;fill-opacity:1"><use xlink:href="#u" x="246.08" y="274.5"/><use xlink:href="#q" x="250.25" y="274.5"/></g><g style="fill:#000;fill-opacity:1"><use xlink:href="#v" x="302.955" y="274.5"/><use xlink:href="#q" x="307.125" y="274.5"/></g><g style="fill:#000;fill-opacity:1"><use xlink:href="#w" x="359.83" y="274.5"/><use xlink:href="#q" x="364" y="274.5"/></g><path style="fill:none;stroke-width:12.5;stroke-linecap:square;stroke-linejoin:miter;stroke:#000;stroke-opacity:1;stroke-miterlimit:10" d="M240 2655h3400" transform="matrix(.1 0 0 -.1 0 275)"/><path style="fill:none;stroke-width:6.25;stroke-linecap:butt;stroke-linejoin:miter;stroke:#000;stroke-opacity:1;stroke-miterlimit:10" d="M240 2655v-50m56.68 50v-25m56.64 25v-25m56.68 25v-25m56.68 25v-25m56.64 25v-25m56.68 25v-25m56.68 25v-25m56.64 25v-25m56.68 25v-25m56.68 25v-50m56.64 50v-25m56.68 25v-25m56.68 25v-25m56.64 25v-25m56.68 25v-25m56.68 25v-25m56.64 25v-25m56.68 25v-25m56.68 25v-25m56.64 25v-50m56.68 50v-25m56.68 25v-25m56.64 25v-25m56.68 25v-25m56.68 25v-25m56.64 25v-25m56.68 25v-25m56.68 25v-25m56.64 25v-25m56.68 25v-50m56.68 50v-25m56.64 25v-25m56.68 25v-25m56.68 25v-25m56.64 25v-25m56.68 25v-25m56.68 25v-25m56.64 25v-25m56.68 25v-25m56.68 25v-50m56.64 50v-25m56.68 25v-25m56.68 25v-25m56.64 25v-25m56.68 25v-25m56.68 25v-25m56.64 25v-25m56.68 25v-25m56.68 25v-25m56.64 25v-50m56.68 50v-25m56.68 25v-25m56.64 25v-25m56.68 25v-25m56.68 25v-25m56.64 25v-25m56.68 25v-25m56.68 25v-25m56.64 25v-25m56.68 25v-50" transform="matrix(.1 0 0 -.1 0 275)"/><use xlink:href="#q" x="21.29" y="6.375" style="fill:#000;fill-opacity:1"/><g style="fill:#000;fill-opacity:1"><use xlink:href="#r" x="76.08" y="6.375"/><use xlink:href="#q" x="80.25" y="6.375"/></g><g style="fill:#000;fill-opacity:1"><use xlink:href="#s" x="132.955" y="6.375"/><use xlink:href="#q" x="137.125" y="6.375"/></g><g style="fill:#000;fill-opacity:1"><use xlink:href="#t" x="189.83" y="6.375"/><use xlink:href="#q" x="194" y="6.375"/></g><g style="fill:#000;fill-opacity:1"><use xlink:href="#u" x="246.08" y="6.375"/><use xlink:href="#q" x="250.25" y="6.375"/></g><g style="fill:#000;fill-opacity:1"><use xlink:href="#v" x="302.955" y="6.375"/><use xlink:href="#q" x="307.125" y="6.375"/></g><g style="fill:#000;fill-opacity:1"><use xlink:href="#w" x="359.83" y="6.375"/><use xlink:href="#q" x="364" y="6.375"/></g><path style="fill:none;stroke-width:12.5;stroke-linecap:square;stroke-linejoin:miter;stroke:#000;stroke-opacity:1;stroke-miterlimit:10" d="M240 105v2550" transform="matrix(.1 0 0 -.1 0 275)"/><path style="fill:none;stroke-width:6.25;stroke-linecap:butt;stroke-linejoin:miter;stroke:#000;stroke-opacity:1;stroke-miterlimit:10" d="M240 108.398h25m-25 37.5h25m-25 37.5h50m-50 37.5h25m-25 37.54h25m-25 37.5h25m-25 37.5h25m-25 37.5h25m-25 37.5h25m-25 37.539h25m-25 37.5h25m-25 37.5h25m-25 37.5h50m-50 37.539h25m-25 37.5h25m-25 37.5h25m-25 37.5h25m-25 37.539h25m-25 37.5h25m-25 37.5h25m-25 37.5h25m-25 37.539h25m-25 37.5h50m-50 37.5h25m-25 37.5h25m-25 37.5h25m-25 37.539h25m-25 37.5h25m-25 37.5h25m-25 37.5h25m-25 37.539h25m-25 37.5h25m-25 37.5h50m-50 37.5h25m-25 37.538h25m-25 37.5h25m-25 37.5h25m-25 37.5h25m-25 37.54h25m-25 37.5h25m-25 37.5h25m-25 37.54h25m-25 37.5h50m-50 37.5h25m-25 37.5h25m-25 37.5h25m-25 37.538h25m-25 37.5h25m-25 37.5h25m-25 37.5h25m-25 37.539h25m-25 37.5h25m-25 37.5h50m-50 37.5h25m-25 37.539h25m-25 37.5h25m-25 37.5h25m-25 37.5h25m-25 37.539h25m-25 37.5h25m-25 37.5h25m-25 37.5h25m-25 37.5h50m-50 37.539h25m-25 37.5h25m-25 37.5h25m-25 37.5h25m-25 37.539h25" transform="matrix(.1 0 0 -.1 0 275)"/><use xlink:href="#q" x="12.955" y="260.125" style="fill:#000;fill-opacity:1"/><g style="fill:#000;fill-opacity:1"><use xlink:href="#r" x=".445" y="222.625"/><use xlink:href="#q" x="4.615" y="222.625"/><use xlink:href="#q" x="8.785" y="222.625"/><use xlink:href="#q" x="12.955" y="222.625"/></g><g style="fill:#000;fill-opacity:1"><use xlink:href="#s" x=".445" y="185.125"/><use xlink:href="#q" x="4.615" y="185.125"/><use xlink:href="#q" x="8.785" y="185.125"/><use xlink:href="#q" x="12.955" y="185.125"/></g><g style="fill:#000;fill-opacity:1"><use xlink:href="#t" x=".445" y="147.625"/><use xlink:href="#q" x="4.615" y="147.625"/><use xlink:href="#q" x="8.785" y="147.625"/><use xlink:href="#q" x="12.955" y="147.625"/></g><g style="fill:#000;fill-opacity:1"><use xlink:href="#u" x=".445" y="110.125"/><use xlink:href="#q" x="4.615" y="110.125"/><use xlink:href="#q" x="8.785" y="110.125"/><use xlink:href="#q" x="12.955" y="110.125"/></g><g style="fill:#000;fill-opacity:1"><use xlink:href="#v" x=".445" y="72.625"/><use xlink:href="#q" x="4.615" y="72.625"/><use xlink:href="#q" x="8.785" y="72.625"/><use xlink:href="#q" x="12.955" y="72.625"/></g><g style="fill:#000;fill-opacity:1"><use xlink:href="#w" x=".445" y="35.125"/><use xlink:href="#q" x="4.615" y="35.125"/><use xlink:href="#q" x="8.785" y="35.125"/><use xlink:href="#q" x="12.955" y="35.125"/></g><path style="fill:none;stroke-width:12.5;stroke-linecap:square;stroke-linejoin:miter;stroke:#000;stroke-opacity:1;stroke-miterlimit:10" d="M3640 105v2550" transform="matrix(.1 0 0 -.1 0 275)"/><path style="fill:none;stroke-width:6.25;stroke-linecap:butt;stroke-linejoin:miter;stroke:#000;stroke-opacity:1;stroke-miterlimit:10" d="M3640 108.398h-25m25 37.5h-25m25 37.5h-50m50 37.5h-25m25 37.54h-25m25 37.5h-25m25 37.5h-25m25 37.5h-25m25 37.5h-25m25 37.539h-25m25 37.5h-25m25 37.5h-25m25 37.5h-50m50 37.539h-25m25 37.5h-25m25 37.5h-25m25 37.5h-25m25 37.539h-25m25 37.5h-25m25 37.5h-25m25 37.5h-25m25 37.539h-25m25 37.5h-50m50 37.5h-25m25 37.5h-25m25 37.5h-25m25 37.539h-25m25 37.5h-25m25 37.5h-25m25 37.5h-25m25 37.539h-25m25 37.5h-25m25 37.5h-50m50 37.5h-25m25 37.538h-25m25 37.5h-25m25 37.5h-25m25 37.5h-25m25 37.54h-25m25 37.5h-25m25 37.5h-25m25 37.54h-25m25 37.5h-50m50 37.5h-25m25 37.5h-25m25 37.5h-25m25 37.538h-25m25 37.5h-25m25 37.5h-25m25 37.5h-25m25 37.539h-25m25 37.5h-25m25 37.5h-50m50 37.5h-25m25 37.539h-25m25 37.5h-25m25 37.5h-25m25 37.5h-25m25 37.539h-25m25 37.5h-25m25 37.5h-25m25 37.5h-25m25 37.5h-50m50 37.539h-25m25 37.5h-25m25 37.5h-25m25 37.5h-25m25 37.539h-25" transform="matrix(.1 0 0 -.1 0 275)"/><use xlink:href="#q" x="370.25" y="260.125" style="fill:#000;fill-opacity:1"/><g style="fill:#000;fill-opacity:1"><use xlink:href="#r" x="370.25" y="222.625"/><use xlink:href="#q" x="374.42" y="222.625"/><use xlink:href="#q" x="378.59" y="222.625"/><use xlink:href="#q" x="382.76" y="222.625"/></g><g style="fill:#000;fill-opacity:1"><use xlink:href="#s" x="370.25" y="185.125"/><use xlink:href="#q" x="374.42" y="185.125"/><use xlink:href="#q" x="378.59" y="185.125"/><use xlink:href="#q" x="382.76" y="185.125"/></g><g style="fill:#000;fill-opacity:1"><use xlink:href="#t" x="370.25" y="147.625"/><use xlink:href="#q" x="374.42" y="147.625"/><use xlink:href="#q" x="378.59" y="147.625"/><use xlink:href="#q" x="382.76" y="147.625"/></g><g style="fill:#000;fill-opacity:1"><use xlink:href="#u" x="370.25" y="110.125"/><use xlink:href="#q" x="374.42" y="110.125"/><use xlink:href="#q" x="378.59" y="110.125"/><use xlink:href="#q" x="382.76" y="110.125"/></g><g style="fill:#000;fill-opacity:1"><use xlink:href="#v" x="370.25" y="72.625"/><use xlink:href="#q" x="374.42" y="72.625"/><use xlink:href="#q" x="378.59" y="72.625"/><use xlink:href="#q" x="382.76" y="72.625"/></g><g style="fill:#000;fill-opacity:1"><use xlink:href="#w" x="370.25" y="35.125"/><use xlink:href="#q" x="374.42" y="35.125"/><use xlink:href="#q" x="378.59" y="35.125"/><use xlink:href="#q" x="382.76" y="35.125"/></g><g clip-path="url(#x)"><path style="fill:none;stroke-width:12.5;stroke-linecap:round;stroke-linejoin:miter;stroke:#00008b;stroke-opacity:1;stroke-miterlimit:10" d="m240 220.898 6.25.313 12.5.547 6.25.312 6.25.274 18.75.937 6.25.274 37.5 1.875 6.25.351 12.5.625 6.25.352 6.25.312 6.25.352 6.25.312 18.75 1.055 6.25.313 12.5.703 6.25.39 25 1.407 6.25.39 6.25.352 12.5.781 6.25.352 37.5 2.343 6.25.43 12.5.781 6.25.43 6.25.39 12.5.86 6.25.39 18.75 1.29 6.25.468 12.5.86 6.25.469 6.25.43 6.25.468 6.25.43 43.75 3.28 6.25.509 6.25.468 12.5 1.016 6.25.469 18.75 1.523 6.25.547 12.5 1.016 6.25.547 6.25.507 43.75 3.829 12.5 1.171 6.25.547 37.5 3.516 6.25.625 6.25.586 37.5 3.75 6.25.664 6.25.625 31.25 3.32 6.25.703 12.5 1.329 25 2.812 6.25.742 6.25.703 6.25.743 6.25.703 18.75 2.226 6.25.781 6.25.743 6.25.78 6.25.743 18.75 2.344 6.25.82 6.25.781 31.25 4.102 6.25.86 6.25.82 25 3.437 6.25.899 6.25.859 18.75 2.695 6.25.938 6.25.898 31.25 4.688 31.25 4.882 31.25 5.079 6.25 1.054 6.25 1.016 12.5 2.11 6.25 1.093 6.25 1.055 18.75 3.281 6.25 1.133 6.25 1.094 12.5 2.265 6.25 1.172 6.25 1.133 18.75 3.515 6.25 1.211 6.25 1.172 12.5 2.422 6.25 1.25 6.25 1.211 12.5 2.5 6.25 1.29 6.25 1.25 12.5 2.577 6.25 1.328 6.25 1.29 12.5 2.656 6.25 1.367 6.25 1.328 12.5 2.734 6.25 1.407 6.25 1.367 6.25 1.406 6.25 1.445 6.25 1.407 12.5 2.89 6.25 1.485 6.25 1.445 12.5 2.969 25 6.094 12.5 3.125 6.25 1.601 6.25 1.563 12.5 3.203 18.75 4.922 25 6.718 12.5 3.438 18.75 5.273 25 7.188 6.25 1.836 6.25 1.875 6.25 1.836 6.25 1.875 25 7.656 6.25 1.953 6.25 1.992 6.25 1.953 6.25 1.993 18.75 6.093 18.75 6.211 12.5 4.219 12.5 4.297 18.75 6.562 12.5 4.453 12.5 4.532 18.75 6.914 12.5 4.687 12.5 4.766 6.25 2.422 6.25 2.46 6.25 2.423 6.25 2.46 12.5 5 12.5 5.079 12.5 5.156 12.5 5.234 12.5 5.313 12.5 5.39 12.5 5.47 12.5 5.546 6.25 2.813 6.25 2.851 6.25 2.813 12.5 5.78 12.5 5.86 6.25 2.969 18.75 9.023 6.25 3.086 6.25 3.047 18.75 9.375 18.75 9.61 6.25 3.242 12.5 6.562 6.25 3.32 6.25 3.36 6.25 3.398 6.25 3.36 12.5 6.875 6.25 3.515 6.25 3.477 12.5 7.11 12.5 7.187 6.25 3.633 6.25 3.672 12.5 7.421 6.25 3.75 12.5 7.578 12.5 7.735 12.5 7.812 6.25 3.946 6.25 4.023 6.25 3.985 12.5 8.125 12.5 8.28 12.5 8.36 12.5 8.516 6.25 4.297 6.25 4.336 6.25 4.375 12.5 8.828 12.5 8.984 6.25 4.57 6.25 4.532 6.25 4.648 6.25 4.61 6.25 4.687 6.25 4.726 12.5 9.532 12.5 9.687 6.25 4.883 12.5 9.922 6.25 5 12.5 10.156 6.25 5.117 6.25 5.157 12.5 10.468 6.25 5.274 12.5 10.703 6.25 5.39 12.5 10.938 12.5 11.094 6.25 5.625 6.25 5.664 6.25 5.703 6.25 5.742 12.5 11.64 6.25 5.86 6.25 5.938 6.25 5.976 6.25 6.016 6.25 6.055 12.5 12.265 6.25 6.211 6.25 6.25 6.25 6.29 6.25 6.327 6.25 6.407 6.25 6.445 6.25 6.484 6.25 6.524 6.25 6.601 6.25 6.64 6.25 6.68 6.25 6.758 6.25 6.797 6.25 6.836 6.25 6.914 6.25 6.953 6.25 6.993 6.25 7.07 6.25 7.11 6.25 7.148 6.25 7.226 6.25 7.266 6.25 7.344 6.25 7.382 6.25 7.461 6.25 7.5 6.25 7.54 6.25 7.617 6.25 7.656 6.25 7.734 6.25 7.813 6.25 7.851 6.25 7.89 6.25 7.97 6.25 8.047 6.25 8.085 6.25 8.165 6.25 8.203 6.25 8.28 6.25 8.36 6.25 8.399 6.25 8.476 6.25 8.555 6.25 8.594 6.25 8.672 6.25 8.71 6.25 8.79 12.5 17.812 6.25 9.024 6.25 9.062 6.25 9.14 6.25 9.22 6.25 9.296 6.25 9.336 6.25 9.414 6.25 9.493 6.25 9.57 6.25 9.648 6.25 9.727 6.25 9.765 6.25 9.883 6.25 9.922 6.25 10.04 6.25 10.077 6.25 10.196 6.25 10.234 6.25 10.313 6.25 10.39 6.25 10.508 6.25 10.547 6.25 10.664 6.25 10.703 6.25 10.82 6.25 10.899 6.25 10.976 6.25 11.055 6.25 11.133 6.25 11.25 6.25 11.289 6.25 11.406 6.25 11.485 6.25 11.562 6.25 11.68 6.25 11.757 6.25 11.836 6.25 11.915 6.25 12.03 6.25 12.11 6.25 12.227 6.25 12.304 6.25 12.383 6.25 12.461 6.25 12.617 6.25 12.657 6.25 12.812 6.25 12.852 6.25 12.968 6.25 13.086 6.25 13.164 6.25 13.282 6.25 13.359 6.25 13.477 6.25 13.593 6.25 13.672 6.25 13.79 6.25 13.906 6.25 13.984 6.25 14.101 6.25 14.22 6.25 14.335 6.25 14.414 6.25 14.531 6.25 14.688 6.25 14.766 6.25 14.882 6.25 14.961 6.25 15.117 6.25 15.235 6.25 15.312 6.25 15.47 6.25 15.585 6.25 15.664 6.25 15.82 6.25 15.938 6.25 16.055 6.25 16.171 6.25 16.29 6.25 16.445 6.25 16.562 6.25 16.68 6.25 16.797 6.25 16.914 6.25 17.07 6.25 17.188 6.25 17.344 6.25 17.46 6.25 17.579 6.25 17.695 6.25 17.89" transform="matrix(.1 0 0 -.1 0 275)"/></g></svg>