<svg xmlns="http://www.w3.org/2000/svg" xmlns:xlink="http://www.w3.org/1999/xlink" width="358pt" height="260pt" viewBox="0 0 358 260"><defs><clipPath id="a"><path d="M19 7.66h1v242.25h-1zm0 0"/></clipPath><clipPath id="b"><path d="M98 7.66h2v242.25h-2zm0 0"/></clipPath><clipPath id="c"><path d="M178 7.66h2v242.25h-2zm0 0"/></clipPath><clipPath id="d"><path d="M258 7.66h2v242.25h-2zm0 0"/></clipPath><clipPath id="e"><path d="M338 7.66h1v242.25h-1zm0 0"/></clipPath><clipPath id="f"><path d="M19 238h320v2H19zm0 0"/></clipPath><clipPath id="g"><path d="M19 179h320v1H19zm0 0"/></clipPath><clipPath id="h"><path d="M19 120h320v1H19zm0 0"/></clipPath><clipPath id="i"><path d="M19 60h320v2H19zm0 0"/></clipPath><clipPath id="o"><path d="M19 18h320v222H19zm0 0"/></clipPath><symbol overflow="visible" id="j"><path style="stroke:none" d="M1.89-4.86c-.452 0-.874.204-1.124.548-.313.421-.47 1.062-.47 1.968 0 1.64.548 2.5 1.595 2.5 1.03 0 1.593-.875 1.593-2.469 0-.937-.156-1.562-.484-2a1.355 1.355 0 0 0-1.11-.546zm0 .548c.641 0 .97.64.97 1.953 0 1.375-.313 2.015-.985 2.015-.64 0-.969-.672-.969-2 0-1.328.328-1.969.985-1.969zm0 0"/></symbol><symbol overflow="visible" id="k"><path style="stroke:none" d="M3.266-4.86H.75L.39-2.202h.563c.281-.344.516-.453.89-.453.657 0 1.063.437 1.063 1.156 0 .703-.406 1.125-1.062 1.125-.532 0-.86-.266-1-.813h-.61c.094.391.157.579.297.766.281.36.766.578 1.328.578.97 0 1.657-.703 1.657-1.734 0-.953-.641-1.625-1.563-1.625-.344 0-.625.094-.906.297l.187-1.344h2.032zm0 0"/></symbol><symbol overflow="visible" id="l"><path style="stroke:none" d="M1.781-3.453V0h.594v-4.86h-.39c-.22.75-.36.86-1.282.97v.437zm0 0"/></symbol><symbol overflow="visible" id="m"><path style="stroke:none" d="M3.469-.594H.906c.063-.406.281-.656.89-1l.673-.375c.687-.36 1.031-.86 1.031-1.453 0-.406-.156-.781-.453-1.047-.281-.265-.625-.39-1.094-.39-.625 0-1.078.218-1.344.64-.171.25-.25.563-.265 1.047h.61c.015-.328.062-.531.14-.687a.94.94 0 0 1 .828-.47c.547 0 .969.391.969.907 0 .39-.235.719-.657.969l-.64.36C.578-1.532.28-1.064.234 0H3.47zm0 0"/></symbol><symbol overflow="visible" id="n"><path style="stroke:none" d="M1.313-.719h-.72V0h.72zm0 0"/></symbol></defs><path style="stroke:none;fill-rule:nonzero;fill:#fff;fill-opacity:1" d="M19 249.91h320V7.66H19zm0 0"/><g clip-path="url(#a)"><path style="fill:none;stroke-width:5.70714;stroke-linecap:round;stroke-linejoin:miter;stroke:#bfbfbf;stroke-opacity:1;stroke-miterlimit:10" d="M399.5-211.163V-2636.7" transform="matrix(.10013 0 0 .09987 -21 271)"/><path style="fill:none;stroke-width:5.70714;stroke-linecap:round;stroke-linejoin:miter;stroke:#bfbfbf;stroke-opacity:1;stroke-dasharray:11.4143,17.1214;stroke-miterlimit:10" d="M399.5-211.163V-2636.7" transform="matrix(.10013 0 0 .09987 -21 271)"/></g><g clip-path="url(#b)"><path style="fill:none;stroke-width:5.70714;stroke-linecap:round;stroke-linejoin:miter;stroke:#bfbfbf;stroke-opacity:1;stroke-dasharray:11.4143,17.1214;stroke-miterlimit:10" d="M1198.502-211.163V-2636.7" transform="matrix(.10013 0 0 .09987 -21 271)"/></g><g clip-path="url(#c)"><path style="fill:none;stroke-width:5.70714;stroke-linecap:round;stroke-linejoin:miter;stroke:#bfbfbf;stroke-opacity:1;stroke-dasharray:11.4143,17.1214;stroke-miterlimit:10" d="M1997.503-211.163V-2636.7" transform="matrix(.10013 0 0 .09987 -21 271)"/></g><g clip-path="url(#d)"><path style="fill:none;stroke-width:5.70714;stroke-linecap:round;stroke-linejoin:miter;stroke:#bfbfbf;stroke-opacity:1;stroke-dasharray:11.4143,17.1214;stroke-miterlimit:10" d="M2796.504-211.163V-2636.7" transform="matrix(.10013 0 0 .09987 -21 271)"/></g><g clip-path="url(#e)"><path style="fill:none;stroke-width:5.70714;stroke-linecap:round;stroke-linejoin:miter;stroke:#bfbfbf;stroke-opacity:1;stroke-dasharray:11.4143,17.1214;stroke-miterlimit:10" d="M3595.506-211.163V-2636.7" transform="matrix(.10013 0 0 .09987 -21 271)"/></g><g clip-path="url(#f)"><path style="fill:none;stroke-width:5.70714;stroke-linecap:round;stroke-linejoin:miter;stroke:#bfbfbf;stroke-opacity:1;stroke-dasharray:11.4143,17.1214;stroke-miterlimit:10" d="M399.5-321.418h3196.006" transform="matrix(.10013 0 0 .09987 -21 271)"/></g><g clip-path="url(#g)"><path style="fill:none;stroke-width:5.70714;stroke-linecap:round;stroke-linejoin:miter;stroke:#bfbfbf;stroke-opacity:1;stroke-dasharray:11.4143,17.1214;stroke-miterlimit:10" d="M399.5-914.465h3196.006" transform="matrix(.10013 0 0 .09987 -21 271)"/></g><g clip-path="url(#h)"><path style="fill:none;stroke-width:5.70714;stroke-linecap:round;stroke-linejoin:miter;stroke:#bfbfbf;stroke-opacity:1;stroke-dasharray:11.4143,17.1214;stroke-miterlimit:10" d="M399.5-1507.552h3196.006" transform="matrix(.10013 0 0 .09987 -21 271)"/></g><g clip-path="url(#i)"><path style="fill:none;stroke-width:5.70714;stroke-linecap:round;stroke-linejoin:miter;stroke:#bfbfbf;stroke-opacity:1;stroke-dasharray:11.4143,17.1214;stroke-miterlimit:10" d="M399.5-2100.599h3196.006" transform="matrix(.10013 0 0 .09987 -21 271)"/></g><path style="fill:none;stroke-width:11.4143;stroke-linecap:square;stroke-linejoin:miter;stroke:#000;stroke-opacity:1;stroke-miterlimit:10" d="M399.5-211.163h3196.006" transform="matrix(.10013 0 0 .09987 -21 271)"/><path style="fill:none;stroke-width:5.70714;stroke-linecap:butt;stroke-linejoin:miter;stroke:#000;stroke-opacity:1;stroke-miterlimit:10" d="M399.5-211.163v-45.643m0 45.643v-22.84m79.9 22.84v-22.84m79.9 22.84v-22.84m79.901 22.84v-22.84m79.9 22.84v-22.84m79.9 22.84v-22.84m79.9 22.84v-22.84m79.9 22.84v-22.84m79.901 22.84v-22.84m159.8 22.84v-45.643m0 45.643v-22.84m79.9 22.84v-22.84m79.9 22.84v-22.84m79.9 22.84v-22.84m79.9 22.84v-22.84m79.9 22.84v-22.84m79.901 22.84v-22.84m79.9 22.84v-22.84m79.9 22.84v-22.84m159.8 22.84v-45.643m0 45.643v-22.84m79.9 22.84v-22.84m79.9 22.84v-22.84m79.9 22.84v-22.84m79.901 22.84v-22.84m79.9 22.84v-22.84m79.9 22.84v-22.84m79.9 22.84v-22.84m79.9 22.84v-22.84m159.8 22.84v-45.643m0 45.643v-22.84m79.9 22.84v-22.84m79.901 22.84v-22.84m79.9 22.84v-22.84m79.9 22.84v-22.84m79.9 22.84v-22.84m79.9 22.84v-22.84m79.9 22.84v-22.84m79.9 22.84v-22.84m159.801 22.84v-45.643m0 45.643v-22.84" transform="matrix(.10013 0 0 .09987 -21 271)"/><use xlink:href="#j" x="17.094" y="259.03" style="fill:#000;fill-opacity:1"/><use xlink:href="#k" x="97.094" y="259.03" style="fill:#000;fill-opacity:1"/><g style="fill:#000;fill-opacity:1"><use xlink:href="#l" x="175.189" y="259.03"/><use xlink:href="#j" x="179.001" y="259.03"/></g><g style="fill:#000;fill-opacity:1"><use xlink:href="#l" x="254.618" y="259.03"/><use xlink:href="#k" x="258.43" y="259.03"/></g><g style="fill:#000;fill-opacity:1"><use xlink:href="#m" x="335.19" y="259.03"/><use xlink:href="#j" x="339.002" y="259.03"/></g><path style="fill:none;stroke-width:11.4143;stroke-linecap:square;stroke-linejoin:miter;stroke:#000;stroke-opacity:1;stroke-miterlimit:10" d="M399.5-2636.7h3196.006" transform="matrix(.10013 0 0 .09987 -21 271)"/><path style="fill:none;stroke-width:5.70714;stroke-linecap:butt;stroke-linejoin:miter;stroke:#000;stroke-opacity:1;stroke-miterlimit:10" d="M399.5-2636.7v45.643m0-45.643v22.842m79.9-22.842v22.842m79.9-22.842v22.842m79.901-22.842v22.842m79.9-22.842v22.842m79.9-22.842v22.842m79.9-22.842v22.842m79.9-22.842v22.842m79.901-22.842v22.842m159.8-22.842v45.643m0-45.643v22.842m79.9-22.842v22.842m79.9-22.842v22.842m79.9-22.842v22.842m79.9-22.842v22.842m79.9-22.842v22.842m79.901-22.842v22.842m79.9-22.842v22.842m79.9-22.842v22.842m159.8-22.842v45.643m0-45.643v22.842m79.9-22.842v22.842m79.9-22.842v22.842m79.9-22.842v22.842m79.901-22.842v22.842m79.9-22.842v22.842m79.9-22.842v22.842m79.9-22.842v22.842m79.9-22.842v22.842m159.8-22.842v45.643m0-45.643v22.842m79.9-22.842v22.842m79.901-22.842v22.842m79.9-22.842v22.842m79.9-22.842v22.842m79.9-22.842v22.842m79.9-22.842v22.842m79.9-22.842v22.842m79.9-22.842v22.842m159.801-22.842v45.643m0-45.643v22.842" transform="matrix(.10013 0 0 .09987 -21 271)"/><use xlink:href="#j" x="17.094" y="5.38" style="fill:#000;fill-opacity:1"/><use xlink:href="#k" x="97.094" y="5.38" style="fill:#000;fill-opacity:1"/><g style="fill:#000;fill-opacity:1"><use xlink:href="#l" x="175.189" y="5.38"/><use xlink:href="#j" x="179.001" y="5.38"/></g><g style="fill:#000;fill-opacity:1"><use xlink:href="#l" x="254.618" y="5.38"/><use xlink:href="#k" x="258.43" y="5.38"/></g><g style="fill:#000;fill-opacity:1"><use xlink:href="#m" x="335.19" y="5.38"/><use xlink:href="#j" x="339.002" y="5.38"/></g><path style="fill:none;stroke-width:11.4143;stroke-linecap:square;stroke-linejoin:miter;stroke:#000;stroke-opacity:1;stroke-miterlimit:10" d="M399.5-211.163V-2636.7" transform="matrix(.10013 0 0 .09987 -21 271)"/><path style="fill:none;stroke-width:5.70714;stroke-linecap:butt;stroke-linejoin:miter;stroke:#000;stroke-opacity:1;stroke-miterlimit:10" d="M399.5-321.418h45.647m-45.647 0h22.824M399.5-380.711h22.824M399.5-440.043h22.824M399.5-499.336h22.824M399.5-558.63h22.824M399.5-617.961h22.824M399.5-677.254h22.824M399.5-736.547h22.824M399.5-795.88h22.824M399.5-914.465h45.647m-45.647 0h22.824M399.5-973.797h22.824M399.5-1033.09h22.824m-22.824-59.293h22.824m-22.824-59.332h22.824m-22.824-59.293h22.824m-22.824-59.293h22.824m-22.824-59.332h22.824m-22.824-59.293h22.824M399.5-1507.552h45.647m-45.647 0h22.824m-22.824-59.293h22.824m-22.824-59.292h22.824M399.5-1685.43h22.824m-22.824-59.333h22.824m-22.824-59.293h22.824m-22.824-59.332h22.824M399.5-1922.68h22.824m-22.824-59.294h22.824M399.5-2100.599h45.647m-45.647 0h22.824m-22.824-59.293h22.824m-22.824-59.332h22.824m-22.824-59.293h22.824M399.5-2337.81h22.824m-22.824-59.332h22.824m-22.824-59.293h22.824m-22.824-59.293h22.824M399.5-2575.02h22.824" transform="matrix(.10013 0 0 .09987 -21 271)"/><g style="fill:#000;fill-opacity:1"><use xlink:href="#l" x="-.058" y="241.93"/><use xlink:href="#j" x="3.754" y="241.93"/><use xlink:href="#n" x="7.567" y="241.93"/><use xlink:href="#j" x="9.473" y="241.93"/></g><g style="fill:#000;fill-opacity:1"><use xlink:href="#l" x="-.058" y="182.65"/><use xlink:href="#j" x="3.754" y="182.65"/><use xlink:href="#n" x="7.567" y="182.65"/><use xlink:href="#k" x="9.473" y="182.65"/></g><g style="fill:#000;fill-opacity:1"><use xlink:href="#l" x="-.058" y="123.37"/><use xlink:href="#l" x="3.754" y="123.37"/><use xlink:href="#n" x="7.567" y="123.37"/><use xlink:href="#j" x="9.473" y="123.37"/></g><g style="fill:#000;fill-opacity:1"><use xlink:href="#l" x="-.058" y="64.09"/><use xlink:href="#l" x="3.754" y="64.09"/><use xlink:href="#n" x="7.567" y="64.09"/><use xlink:href="#k" x="9.473" y="64.09"/></g><path style="fill:none;stroke-width:11.4143;stroke-linecap:square;stroke-linejoin:miter;stroke:#000;stroke-opacity:1;stroke-miterlimit:10" d="M3595.506-211.163V-2636.7" transform="matrix(.10013 0 0 .09987 -21 271)"/><path style="fill:none;stroke-width:5.70714;stroke-linecap:butt;stroke-linejoin:miter;stroke:#000;stroke-opacity:1;stroke-miterlimit:10" d="M3595.506-321.418h-45.685m45.685 0h-22.823m22.823-59.293h-22.823m22.823-59.332h-22.823m22.823-59.293h-22.823m22.823-59.294h-22.823m22.823-59.331h-22.823m22.823-59.293h-22.823m22.823-59.293h-22.823m22.823-59.333h-22.823m22.823-118.585h-45.685m45.685 0h-22.823m22.823-59.332h-22.823m22.823-59.293h-22.823m22.823-59.293h-22.823m22.823-59.332h-22.823m22.823-59.293h-22.823m22.823-59.293h-22.823m22.823-59.332h-22.823m22.823-59.293h-22.823m22.823-118.626h-45.685m45.685 0h-22.823m22.823-59.293h-22.823m22.823-59.292h-22.823m22.823-59.293h-22.823m22.823-59.333h-22.823m22.823-59.293h-22.823m22.823-59.332h-22.823m22.823-59.292h-22.823m22.823-59.294h-22.823m22.823-118.625h-45.685m45.685 0h-22.823m22.823-59.293h-22.823m22.823-59.332h-22.823m22.823-59.293h-22.823m22.823-59.293h-22.823m22.823-59.332h-22.823m22.823-59.293h-22.823m22.823-59.293h-22.823m22.823-59.292h-22.823" transform="matrix(.10013 0 0 .09987 -21 271)"/><g style="fill:#000;fill-opacity:1"><use xlink:href="#l" x="344.714" y="241.93"/><use xlink:href="#j" x="348.527" y="241.93"/><use xlink:href="#n" x="352.339" y="241.93"/><use xlink:href="#j" x="354.245" y="241.93"/></g><g style="fill:#000;fill-opacity:1"><use xlink:href="#l" x="344.714" y="182.65"/><use xlink:href="#j" x="348.527" y="182.65"/><use xlink:href="#n" x="352.339" y="182.65"/><use xlink:href="#k" x="354.245" y="182.65"/></g><g style="fill:#000;fill-opacity:1"><use xlink:href="#l" x="344.714" y="123.37"/><use xlink:href="#l" x="348.527" y="123.37"/><use xlink:href="#n" x="352.339" y="123.37"/><use xlink:href="#j" x="354.245" y="123.37"/></g><g style="fill:#000;fill-opacity:1"><use xlink:href="#l" x="344.714" y="64.09"/><use xlink:href="#l" x="348.527" y="64.09"/><use xlink:href="#n" x="352.339" y="64.09"/><use xlink:href="#k" x="354.245" y="64.09"/></g><g clip-path="url(#o)"><path style="fill:none;stroke-width:11.4143;stroke-linecap:round;stroke-linejoin:round;stroke:#00008b;stroke-opacity:1;stroke-miterlimit:10" d="m399.5-321.418 9.09-.04 9.247-.077 9.207-.157 9.13-.234 9.168-.313 9.09-.313 9.13-.43 9.284-.47 9.13-.547 9.129-.587 9.13-.665 9.128-.704 9.208-.782 9.207-.86 9.129-.9 9.13-.939 9.09-1.017 9.246-1.056 18.336-2.346 9.168-1.252 9.09-1.29 9.09-1.33 9.325-1.448 9.13-1.447 9.128-1.525 18.259-3.207 9.168-1.721 9.207-1.721 9.169-1.8 9.09-1.837 9.09-1.878 9.246-1.994 9.207-1.995 9.13-2.073 9.207-2.112 9.051-2.151 9.13-2.19 9.285-2.269 9.168-2.307 9.09-2.386 9.13-2.386 9.128-2.464 9.208-2.503 9.207-2.582 9.13-2.581 9.128-2.66 9.09-2.66 9.247-2.776 9.207-2.816 9.13-2.855 9.167-2.894 9.09-2.895 9.13-2.972 9.285-3.09 9.13-3.05 9.129-3.09 9.129-3.169 9.129-3.207 9.207-3.246 9.208-3.324 9.129-3.325 9.09-3.363 9.13-3.442 9.206-3.481 9.208-3.52 9.168-3.56 9.168-3.598 9.051-3.598 9.13-3.676 9.324-3.794 9.129-3.755 9.13-3.794 9.128-3.833 9.13-3.872 9.168-3.95 9.207-3.99 9.168-3.989 9.09-4.028 9.09-4.068 9.247-4.145 9.207-4.185 9.13-4.224 9.207-4.225 9.05-4.263 9.13-4.302 9.285-4.42 9.169-4.38 9.09-4.42 9.129-4.458 9.13-4.498 9.206-4.537 9.208-4.615 18.258-9.23 9.09-4.655 9.247-4.771 9.168-4.772 9.168-4.81 9.168-4.85 9.09-4.811 9.13-4.89 9.285-5.005 18.258-9.935 18.259-10.09 9.168-5.124 9.246-5.163 9.13-5.163 9.09-5.162 9.129-5.202 9.246-5.32 9.168-5.357 9.13-5.32 9.207-5.358 9.051-5.358 9.13-5.398 9.323-5.553 9.13-5.515 9.129-5.476 18.258-11.107 9.169-5.672 9.207-5.67 9.168-5.672 9.09-5.671 9.09-5.71 9.247-5.828 9.207-5.828 9.13-5.827 9.206-5.867 9.052-5.827 9.129-5.906 9.285-6.023 18.258-11.969 18.259-12.046 9.207-6.101 9.207-6.18 18.259-12.28 9.09-6.141 9.246-6.297 9.168-6.297 9.169-6.258 9.168-6.336 9.09-6.297 9.13-6.336 9.285-6.493 18.258-12.828 18.258-12.907 9.169-6.57 9.207-6.571 9.168-6.571 9.13-6.57 9.05-6.61 9.247-6.689 9.207-6.688 9.13-6.727 9.207-6.727 9.05-6.688 9.13-6.767 9.324-6.922 9.13-6.806 9.09-6.805 9.129-6.845 9.129-6.883 18.415-13.924 9.168-7 18.18-13.925 9.246-7.079 9.208-7.118 9.129-7.08 9.207-7.117 9.051-7.08 9.13-7.118 9.285-7.314 27.387-21.59 9.13-7.274 9.207-7.314 9.207-7.353 18.259-14.628 9.09-7.352 9.246-7.47 18.336-14.863 9.169-7.51 9.09-7.43 9.13-7.471 9.284-7.627 27.388-22.645 9.13-7.588 9.167-7.666 9.208-7.705 9.168-7.666 9.09-7.665 9.13-7.666 18.414-15.567 9.129-7.783 9.207-7.783 9.051-7.744 9.13-7.822 9.285-7.98 9.168-7.86 9.09-7.862 9.13-7.861 9.129-7.9 9.207-7.98 9.207-8.017 18.259-15.958 9.09-7.94 9.246-8.135 9.207-8.096 9.13-8.057 9.168-8.135 9.09-8.018 9.13-8.096 9.285-8.291 9.129-8.175 9.129-8.135 9.13-8.174 9.128-8.214 9.208-8.252 9.207-8.33 18.258-16.506 9.09-8.252 9.247-8.41 27.504-25.109 9.052-8.33 9.129-8.37 9.324-8.566 9.13-8.448 9.129-8.41 9.129-8.447 9.129-8.487 9.168-8.527 9.207-8.604 9.169-8.526 18.18-17.053 9.246-8.644 9.208-8.643 9.129-8.605 9.207-8.683 9.051-8.565 9.13-8.644 9.285-8.839 27.387-26.048 9.13-8.722 9.207-8.8 9.207-8.84 9.13-8.8 9.128-8.76 9.09-8.761 9.247-8.918 9.207-8.878 9.13-8.878 9.168-8.918 9.09-8.8 9.129-8.878 9.285-9.074 18.259-17.835 18.258-17.913 9.168-9.035 9.247-9.073 18.258-17.992 9.09-9.034 9.207-9.152 9.208-9.113 9.129-9.074 9.207-9.152 9.09-9.035 9.09-9.113 9.325-9.27 27.387-27.456 9.13-9.191 9.168-9.23 9.207-9.309 9.168-9.23 9.09-9.23 9.09-9.192 9.247-9.386 9.207-9.348 9.13-9.27 9.207-9.347 9.05-9.27 9.13-9.308 9.285-9.504 9.169-9.348 9.09-9.387 9.129-9.347 9.13-9.387 18.414-18.93 9.129-9.465 9.13-9.426 9.09-9.386 9.246-9.583 9.168-9.543 9.168-9.504 9.168-9.543 9.09-9.465 9.13-9.504 9.285-9.7 27.388-28.63 9.129-9.582 9.207-9.66 9.207-9.7 9.13-9.621 9.09-9.622 9.129-9.582 9.207-9.778 9.207-9.7 9.169-9.7 9.168-9.738 9.051-9.622 9.13-9.7 9.324-9.894 9.129-9.74 9.129-9.699 9.13-9.778 9.128-9.738 9.169-9.817" transform="matrix(.10013 0 0 .09987 -21 271)"/></g></svg>