<svg xmlns="http://www.w3.org/2000/svg" xmlns:xlink="http://www.w3.org/1999/xlink" width="382pt" height="275pt" viewBox="0 0 382 275"><defs><clipPath id="a"><path d="M190 9.5h2v255h-2zm0 0"/></clipPath><clipPath id="b"><path d="M21 227h340v2H21zm0 0"/></clipPath><clipPath id="c"><path d="M21 9.5h1v255h-1zm0 0"/></clipPath><clipPath id="d"><path d="M105 9.5h2v255h-2zm0 0"/></clipPath><clipPath id="e"><path d="M190 9.5h2v255h-2zm0 0"/></clipPath><clipPath id="f"><path d="M275 9.5h2v255h-2zm0 0"/></clipPath><clipPath id="g"><path d="M360 9.5h1v255h-1zm0 0"/></clipPath><clipPath id="h"><path d="M21 227h340v2H21zm0 0"/></clipPath><clipPath id="i"><path d="M21 182h340v1H21zm0 0"/></clipPath><clipPath id="j"><path d="M21 136h340v2H21zm0 0"/></clipPath><clipPath id="k"><path d="M21 91h340v1H21zm0 0"/></clipPath><clipPath id="l"><path d="M21 45h340v2H21zm0 0"/></clipPath><clipPath id="t"><path d="M21 227h171v2H21zm0 0"/></clipPath><clipPath id="u"><path d="M190 45h171v2H190zm0 0"/></clipPath><symbol overflow="visible" id="m"><path style="stroke:none" d="M2.125-2.344H.344v.547h1.781zm0 0"/></symbol><symbol overflow="visible" id="n"><path style="stroke:none" d="M1.938-3.781V0h.671v-5.313h-.437c-.235.813-.39.922-1.406 1.047v.485zm0 0"/></symbol><symbol overflow="visible" id="o"><path style="stroke:none" d="M1.438-.781H.655V0h.781zm0 0"/></symbol><symbol overflow="visible" id="p"><path style="stroke:none" d="M2.063-5.313c-.5 0-.938.22-1.22.579C.5-4.266.329-3.563.329-2.578c0 1.797.594 2.75 1.734 2.75 1.126 0 1.735-.953 1.735-2.703 0-1.031-.156-1.719-.516-2.203-.281-.375-.719-.579-1.219-.579zm0 .579c.718 0 1.062.718 1.062 2.14 0 1.516-.344 2.219-1.078 2.219C1.344-.375 1-1.109 1-2.563c0-1.453.344-2.171 1.063-2.171zm0 0"/></symbol><symbol overflow="visible" id="q"><path style="stroke:none" d="M3.563-5.313H.828L.422-2.421h.61c.312-.375.562-.5.984-.5.703 0 1.156.485 1.156 1.281 0 .766-.438 1.235-1.156 1.235-.579 0-.938-.297-1.094-.906H.266c.093.437.156.656.312.843.313.406.844.64 1.453.64 1.063 0 1.813-.78 1.813-1.905 0-1.047-.688-1.766-1.719-1.766-.375 0-.672.094-.984.313l.218-1.485h2.204zm0 0"/></symbol><symbol overflow="visible" id="r"><path style="stroke:none" d="M3.797-.656H1c.063-.438.313-.703.953-1.094l.75-.406c.75-.406 1.125-.953 1.125-1.594 0-.453-.172-.86-.484-1.14-.328-.298-.719-.423-1.219-.423-.672 0-1.172.235-1.469.688-.187.281-.265.61-.281 1.156h.656c.032-.36.078-.578.157-.75.171-.328.515-.515.921-.515.594 0 1.047.421 1.047.984 0 .422-.25.781-.719 1.063l-.687.39C.64-1.672.312-1.172.25 0h3.547zm0 0"/></symbol><symbol overflow="visible" id="s"><path style="stroke:none" d="M3.906-5.313H.344v.641h2.875C1.953-2.859 1.438-1.75 1.03 0h.703c.297-1.703.97-3.172 2.172-4.766zm0 0"/></symbol></defs><g clip-path="url(#a)"><path style="fill:none;stroke-width:6.25;stroke-linecap:round;stroke-linejoin:miter;stroke:#bfbfbf;stroke-opacity:1;stroke-miterlimit:10" d="M1910 105v2550" transform="matrix(.1 0 0 -.1 0 275)"/></g><g clip-path="url(#b)"><path style="fill:none;stroke-width:6.25;stroke-linecap:round;stroke-linejoin:miter;stroke:#bfbfbf;stroke-opacity:1;stroke-miterlimit:10" d="M210 469.297h3400" transform="matrix(.1 0 0 -.1 0 275)"/></g><g clip-path="url(#c)"><path style="fill:none;stroke-width:6.25;stroke-linecap:round;stroke-linejoin:miter;stroke:#bfbfbf;stroke-opacity:1;stroke-dasharray:12.5,18.75;stroke-miterlimit:10" d="M210 105v2550" transform="matrix(.1 0 0 -.1 0 275)"/></g><g clip-path="url(#d)"><path style="fill:none;stroke-width:6.25;stroke-linecap:round;stroke-linejoin:miter;stroke:#bfbfbf;stroke-opacity:1;stroke-dasharray:12.5,18.75;stroke-miterlimit:10" d="M1060 105v2550" transform="matrix(.1 0 0 -.1 0 275)"/></g><g clip-path="url(#e)"><path style="fill:none;stroke-width:6.25;stroke-linecap:round;stroke-linejoin:miter;stroke:#bfbfbf;stroke-opacity:1;stroke-dasharray:12.5,18.75;stroke-miterlimit:10" d="M1910 105v2550" transform="matrix(.1 0 0 -.1 0 275)"/></g><g clip-path="url(#f)"><path style="fill:none;stroke-width:6.25;stroke-linecap:round;stroke-linejoin:miter;stroke:#bfbfbf;stroke-opacity:1;stroke-dasharray:12.5,18.75;stroke-miterlimit:10" d="M2760 105v2550" transform="matrix(.1 0 0 -.1 0 275)"/></g><g clip-path="url(#g)"><path style="fill:none;stroke-width:6.25;stroke-linecap:round;stroke-linejoin:miter;stroke:#bfbfbf;stroke-opacity:1;stroke-dasharray:12.5,18.75;stroke-miterlimit:10" d="M3610 105v2550" transform="matrix(.1 0 0 -.1 0 275)"/></g><g clip-path="url(#h)"><path style="fill:none;stroke-width:6.25;stroke-linecap:round;stroke-linejoin:miter;stroke:#bfbfbf;stroke-opacity:1;stroke-dasharray:12.5,18.75;stroke-miterlimit:10" d="M210 469.297h3400" transform="matrix(.1 0 0 -.1 0 275)"/></g><g clip-path="url(#i)"><path style="fill:none;stroke-width:6.25;stroke-linecap:round;stroke-linejoin:miter;stroke:#bfbfbf;stroke-opacity:1;stroke-dasharray:12.5,18.75;stroke-miterlimit:10" d="M210 924.648h3400" transform="matrix(.1 0 0 -.1 0 275)"/></g><g clip-path="url(#j)"><path style="fill:none;stroke-width:6.25;stroke-linecap:round;stroke-linejoin:miter;stroke:#bfbfbf;stroke-opacity:1;stroke-dasharray:12.5,18.75;stroke-miterlimit:10" d="M210 1380h3400" transform="matrix(.1 0 0 -.1 0 275)"/></g><g clip-path="url(#k)"><path style="fill:none;stroke-width:6.25;stroke-linecap:round;stroke-linejoin:miter;stroke:#bfbfbf;stroke-opacity:1;stroke-dasharray:12.5,18.75;stroke-miterlimit:10" d="M210 1835.352h3400" transform="matrix(.1 0 0 -.1 0 275)"/></g><g clip-path="url(#l)"><path style="fill:none;stroke-width:6.25;stroke-linecap:round;stroke-linejoin:miter;stroke:#bfbfbf;stroke-opacity:1;stroke-dasharray:12.5,18.75;stroke-miterlimit:10" d="M210 2290.703h3400" transform="matrix(.1 0 0 -.1 0 275)"/></g><path style="fill:none;stroke-width:12.5;stroke-linecap:square;stroke-linejoin:miter;stroke:#000;stroke-opacity:1;stroke-miterlimit:10" d="M210 105h3400" transform="matrix(.1 0 0 -.1 0 275)"/><path style="fill:none;stroke-width:6.25;stroke-linecap:butt;stroke-linejoin:miter;stroke:#000;stroke-opacity:1;stroke-miterlimit:10" d="M210 105v50m85-50v25m85-25v25m85-25v25m85-25v25m85-25v25m85-25v25m85-25v25m85-25v25m85-25v25m85-25v50m85-50v25m85-25v25m85-25v25m85-25v25m85-25v25m85-25v25m85-25v25m85-25v25m85-25v25m85-25v50m85-50v25m85-25v25m85-25v25m85-25v25m85-25v25m85-25v25m85-25v25m85-25v25m85-25v25m85-25v50m85-50v25m85-25v25m85-25v25m85-25v25m85-25v25m85-25v25m85-25v25m85-25v25m85-25v25m85-25v50" transform="matrix(.1 0 0 -.1 0 275)"/><g style="fill:#000;fill-opacity:1"><use xlink:href="#m" x="13.915" y="274.5"/><use xlink:href="#n" x="16.412" y="274.5"/><use xlink:href="#o" x="20.582" y="274.5"/><use xlink:href="#p" x="22.667" y="274.5"/></g><g style="fill:#000;fill-opacity:1"><use xlink:href="#m" x="98.914" y="274.5"/><use xlink:href="#p" x="101.412" y="274.5"/><use xlink:href="#o" x="105.582" y="274.5"/><use xlink:href="#q" x="107.667" y="274.5"/></g><g style="fill:#000;fill-opacity:1"><use xlink:href="#p" x="185.788" y="274.5"/><use xlink:href="#o" x="189.958" y="274.5"/><use xlink:href="#p" x="192.043" y="274.5"/></g><g style="fill:#000;fill-opacity:1"><use xlink:href="#p" x="270.788" y="274.5"/><use xlink:href="#o" x="274.958" y="274.5"/><use xlink:href="#q" x="277.043" y="274.5"/></g><g style="fill:#000;fill-opacity:1"><use xlink:href="#n" x="355.788" y="274.5"/><use xlink:href="#o" x="359.958" y="274.5"/><use xlink:href="#p" x="362.043" y="274.5"/></g><path style="fill:none;stroke-width:12.5;stroke-linecap:square;stroke-linejoin:miter;stroke:#000;stroke-opacity:1;stroke-miterlimit:10" d="M210 2655h3400" transform="matrix(.1 0 0 -.1 0 275)"/><path style="fill:none;stroke-width:6.25;stroke-linecap:butt;stroke-linejoin:miter;stroke:#000;stroke-opacity:1;stroke-miterlimit:10" d="M210 2655v-50m85 50v-25m85 25v-25m85 25v-25m85 25v-25m85 25v-25m85 25v-25m85 25v-25m85 25v-25m85 25v-25m85 25v-50m85 50v-25m85 25v-25m85 25v-25m85 25v-25m85 25v-25m85 25v-25m85 25v-25m85 25v-25m85 25v-25m85 25v-50m85 50v-25m85 25v-25m85 25v-25m85 25v-25m85 25v-25m85 25v-25m85 25v-25m85 25v-25m85 25v-25m85 25v-50m85 50v-25m85 25v-25m85 25v-25m85 25v-25m85 25v-25m85 25v-25m85 25v-25m85 25v-25m85 25v-25m85 25v-50" transform="matrix(.1 0 0 -.1 0 275)"/><g style="fill:#000;fill-opacity:1"><use xlink:href="#m" x="13.915" y="6.375"/><use xlink:href="#n" x="16.412" y="6.375"/><use xlink:href="#o" x="20.582" y="6.375"/><use xlink:href="#p" x="22.667" y="6.375"/></g><g style="fill:#000;fill-opacity:1"><use xlink:href="#m" x="98.914" y="6.375"/><use xlink:href="#p" x="101.412" y="6.375"/><use xlink:href="#o" x="105.582" y="6.375"/><use xlink:href="#q" x="107.667" y="6.375"/></g><g style="fill:#000;fill-opacity:1"><use xlink:href="#p" x="185.788" y="6.375"/><use xlink:href="#o" x="189.958" y="6.375"/><use xlink:href="#p" x="192.043" y="6.375"/></g><g style="fill:#000;fill-opacity:1"><use xlink:href="#p" x="270.788" y="6.375"/><use xlink:href="#o" x="274.958" y="6.375"/><use xlink:href="#q" x="277.043" y="6.375"/></g><g style="fill:#000;fill-opacity:1"><use xlink:href="#n" x="355.788" y="6.375"/><use xlink:href="#o" x="359.958" y="6.375"/><use xlink:href="#p" x="362.043" y="6.375"/></g><path style="fill:none;stroke-width:12.5;stroke-linecap:square;stroke-linejoin:miter;stroke:#000;stroke-opacity:1;stroke-miterlimit:10" d="M210 105v2550" transform="matrix(.1 0 0 -.1 0 275)"/><path style="fill:none;stroke-width:6.25;stroke-linecap:butt;stroke-linejoin:miter;stroke:#000;stroke-opacity:1;stroke-miterlimit:10" d="M210 105h25m-25 45.547h25m-25 45.508h25m-25 45.547h25m-25 45.546h25m-25 45.547h25m-25 45.508h25m-25 45.547h25m-25 45.547h50m-50 45.508h25m-25 45.547h25m-25 45.546h25m-25 45.547h25m-25 45.508h25M210 742.5h25m-25 45.547h25m-25 45.508h25m-25 45.547h25m-25 45.546h50m-50 45.547h25m-25 45.508h25m-25 45.547h25m-25 45.547h25m-25 45.508h25m-25 45.547h25m-25 45.546h25m-25 45.547h25m-25 45.508h25M210 1380h50m-50 45.547h25m-25 45.508h25m-25 45.547h25m-25 45.546h25m-25 45.547h25m-25 45.508h25m-25 45.547h25m-25 45.547h25m-25 45.508h25m-25 45.547h50m-50 45.546h25m-25 45.547h25m-25 45.508h25m-25 45.547h25m-25 45.547h25m-25 45.508h25m-25 45.547h25m-25 45.546h25m-25 45.547h25m-25 45.508h50m-50 45.547h25m-25 45.547h25m-25 45.508h25m-25 45.547h25m-25 45.546h25m-25 45.547h25m-25 45.508h25M210 2655h25" transform="matrix(.1 0 0 -.1 0 275)"/><g style="fill:#000;fill-opacity:1"><use xlink:href="#p" x="-.469" y="231.375"/><use xlink:href="#o" x="3.701" y="231.375"/><use xlink:href="#p" x="5.786" y="231.375"/><use xlink:href="#p" x="9.956" y="231.375"/></g><g style="fill:#000;fill-opacity:1"><use xlink:href="#p" x="-.469" y="185.75"/><use xlink:href="#o" x="3.701" y="185.75"/><use xlink:href="#r" x="5.786" y="185.75"/><use xlink:href="#q" x="9.956" y="185.75"/></g><g style="fill:#000;fill-opacity:1"><use xlink:href="#p" x="-.469" y="140.125"/><use xlink:href="#o" x="3.701" y="140.125"/><use xlink:href="#q" x="5.786" y="140.125"/><use xlink:href="#p" x="9.956" y="140.125"/></g><g style="fill:#000;fill-opacity:1"><use xlink:href="#p" x="-.469" y="95.125"/><use xlink:href="#o" x="3.701" y="95.125"/><use xlink:href="#s" x="5.786" y="95.125"/><use xlink:href="#q" x="9.956" y="95.125"/></g><g style="fill:#000;fill-opacity:1"><use xlink:href="#n" x="-.469" y="49.5"/><use xlink:href="#o" x="3.701" y="49.5"/><use xlink:href="#p" x="5.786" y="49.5"/><use xlink:href="#p" x="9.956" y="49.5"/></g><path style="fill:none;stroke-width:12.5;stroke-linecap:square;stroke-linejoin:miter;stroke:#000;stroke-opacity:1;stroke-miterlimit:10" d="M3610 105v2550" transform="matrix(.1 0 0 -.1 0 275)"/><path style="fill:none;stroke-width:6.25;stroke-linecap:butt;stroke-linejoin:miter;stroke:#000;stroke-opacity:1;stroke-miterlimit:10" d="M3610 105h-25m25 45.547h-25m25 45.508h-25m25 45.547h-25m25 45.546h-25m25 45.547h-25m25 45.508h-25m25 45.547h-25m25 45.547h-50m50 45.508h-25m25 45.547h-25m25 45.546h-25m25 45.547h-25m25 45.508h-25m25 45.547h-25m25 45.547h-25m25 45.508h-25m25 45.547h-25m25 45.546h-50m50 45.547h-25m25 45.508h-25m25 45.547h-25m25 45.547h-25m25 45.508h-25m25 45.547h-25m25 45.546h-25m25 45.547h-25m25 45.508h-25m25 45.547h-50m50 45.547h-25m25 45.508h-25m25 45.547h-25m25 45.546h-25m25 45.547h-25m25 45.508h-25m25 45.547h-25m25 45.547h-25m25 45.508h-25m25 45.547h-50m50 45.546h-25m25 45.547h-25m25 45.508h-25m25 45.547h-25m25 45.547h-25m25 45.508h-25m25 45.547h-25m25 45.546h-25m25 45.547h-25m25 45.508h-50m50 45.547h-25m25 45.547h-25m25 45.508h-25m25 45.547h-25m25 45.546h-25m25 45.547h-25m25 45.508h-25m25 45.547h-25" transform="matrix(.1 0 0 -.1 0 275)"/><g style="fill:#000;fill-opacity:1"><use xlink:href="#p" x="367.25" y="231.375"/><use xlink:href="#o" x="371.42" y="231.375"/><use xlink:href="#p" x="373.505" y="231.375"/><use xlink:href="#p" x="377.675" y="231.375"/></g><g style="fill:#000;fill-opacity:1"><use xlink:href="#p" x="367.25" y="185.75"/><use xlink:href="#o" x="371.42" y="185.75"/><use xlink:href="#r" x="373.505" y="185.75"/><use xlink:href="#q" x="377.675" y="185.75"/></g><g style="fill:#000;fill-opacity:1"><use xlink:href="#p" x="367.25" y="140.125"/><use xlink:href="#o" x="371.42" y="140.125"/><use xlink:href="#q" x="373.505" y="140.125"/><use xlink:href="#p" x="377.675" y="140.125"/></g><g style="fill:#000;fill-opacity:1"><use xlink:href="#p" x="367.25" y="95.125"/><use xlink:href="#o" x="371.42" y="95.125"/><use xlink:href="#s" x="373.505" y="95.125"/><use xlink:href="#q" x="377.675" y="95.125"/></g><g style="fill:#000;fill-opacity:1"><use xlink:href="#n" x="367.25" y="49.5"/><use xlink:href="#o" x="371.42" y="49.5"/><use xlink:href="#p" x="373.505" y="49.5"/><use xlink:href="#p" x="377.675" y="49.5"/></g><g clip-path="url(#t)"><path style="fill:none;stroke-width:12.5;stroke-linecap:round;stroke-linejoin:round;stroke:#00008b;stroke-opacity:1;stroke-miterlimit:10" d="M210 469.297h1700" transform="matrix(.1 0 0 -.1 0 275)"/></g><g clip-path="url(#u)"><path style="fill:none;stroke-width:12.5;stroke-linecap:round;stroke-linejoin:round;stroke:#00008b;stroke-opacity:1;stroke-miterlimit:10" d="M1910 2290.703h1700" transform="matrix(.1 0 0 -.1 0 275)"/></g></svg>