<svg xmlns="http://www.w3.org/2000/svg" xmlns:xlink="http://www.w3.org/1999/xlink" width="400pt" height="400" viewBox="0 0 400 300"><defs><clipPath id="a"><path d="M30 22.5h1v255h-1zm0 0"/></clipPath><clipPath id="b"><path d="M30 265h340v2H30zm0 0"/></clipPath><clipPath id="c"><path d="M30 22.5h1v255h-1zm0 0"/></clipPath><clipPath id="d"><path d="M86 22.5h1v255h-1zm0 0"/></clipPath><clipPath id="e"><path d="M143 22.5h1v255h-1zm0 0"/></clipPath><clipPath id="f"><path d="M199 22.5h2v255h-2zm0 0"/></clipPath><clipPath id="g"><path d="M256 22.5h1v255h-1zm0 0"/></clipPath><clipPath id="h"><path d="M313 22.5h1v255h-1zm0 0"/></clipPath><clipPath id="i"><path d="M369 22.5h1v255h-1zm0 0"/></clipPath><clipPath id="j"><path d="M30 265h340v2H30zm0 0"/></clipPath><clipPath id="k"><path d="M30 207h340v2H30zm0 0"/></clipPath><clipPath id="l"><path d="M30 149h340v2H30zm0 0"/></clipPath><clipPath id="m"><path d="M30 91h340v2H30zm0 0"/></clipPath><clipPath id="n"><path d="M30 33h340v2H30zm0 0"/></clipPath><clipPath id="u"><path d="M30 33h340v234H30zm0 0"/></clipPath><symbol overflow="visible" id="o"><path style="stroke:none" d="M2.063-5.313c-.5 0-.938.22-1.22.579C.5-4.266.329-3.563.329-2.578c0 1.797.594 2.75 1.734 2.75 1.126 0 1.735-.953 1.735-2.703 0-1.031-.156-1.719-.516-2.203-.281-.375-.719-.579-1.219-.579zm0 .579c.718 0 1.062.718 1.062 2.14 0 1.516-.344 2.219-1.078 2.219C1.344-.375 1-1.109 1-2.563c0-1.453.344-2.171 1.063-2.171zm0 0"/></symbol><symbol overflow="visible" id="p"><path style="stroke:none" d="M1.438-.781H.655V0h.781zm0 0"/></symbol><symbol overflow="visible" id="q"><path style="stroke:none" d="M3.563-5.313H.828L.422-2.421h.61c.312-.375.562-.5.984-.5.703 0 1.156.485 1.156 1.281 0 .766-.438 1.235-1.156 1.235-.579 0-.938-.297-1.094-.906H.266c.093.437.156.656.312.843.313.406.844.64 1.453.64 1.063 0 1.813-.78 1.813-1.905 0-1.047-.688-1.766-1.719-1.766-.375 0-.672.094-.984.313l.218-1.485h2.204zm0 0"/></symbol><symbol overflow="visible" id="r"><path style="stroke:none" d="M1.938-3.781V0h.671v-5.313h-.437c-.235.813-.39.922-1.406 1.047v.485zm0 0"/></symbol><symbol overflow="visible" id="s"><path style="stroke:none" d="M3.797-.656H1c.063-.438.313-.703.953-1.094l.75-.406c.75-.406 1.125-.953 1.125-1.594 0-.453-.172-.86-.484-1.14-.328-.298-.719-.423-1.219-.423-.672 0-1.172.235-1.469.688-.187.281-.265.61-.281 1.156h.656c.032-.36.078-.578.157-.75.171-.328.515-.515.921-.515.594 0 1.047.421 1.047.984 0 .422-.25.781-.719 1.063l-.687.39C.64-1.672.312-1.172.25 0h3.547zm0 0"/></symbol><symbol overflow="visible" id="t"><path style="stroke:none" d="M1.656-2.438h.36c.734 0 1.109.329 1.109.954 0 .671-.422 1.078-1.11 1.078-.718 0-1.078-.36-1.109-1.14H.234c.032.421.11.702.235.952.281.5.797.766 1.531.766 1.094 0 1.797-.656 1.797-1.656 0-.672-.266-1.047-.906-1.266.5-.203.75-.578.75-1.11 0-.906-.61-1.453-1.625-1.453-1.079 0-1.641.579-1.657 1.72h.657c0-.329.03-.516.109-.673.156-.296.484-.468.906-.468.578 0 .938.343.938.906 0 .375-.14.594-.438.719-.172.078-.406.109-.875.109zm0 0"/></symbol></defs><path style="stroke:none;fill-rule:nonzero;fill:#fff;fill-opacity:1" d="M30 277.5h340v-255H30zm0 0"/><g clip-path="url(#a)"><path style="fill:none;stroke-width:6.25;stroke-linecap:round;stroke-linejoin:miter;stroke:#bfbfbf;stroke-opacity:1;stroke-miterlimit:10" d="M300 225v2550" transform="matrix(.1 0 0 -.1 0 300)"/></g><g clip-path="url(#b)"><path style="fill:none;stroke-width:6.25;stroke-linecap:round;stroke-linejoin:miter;stroke:#bfbfbf;stroke-opacity:1;stroke-miterlimit:10" d="M300 340.898h3400" transform="matrix(.1 0 0 -.1 0 300)"/></g><g clip-path="url(#c)"><path style="fill:none;stroke-width:6.25;stroke-linecap:round;stroke-linejoin:miter;stroke:#bfbfbf;stroke-opacity:1;stroke-dasharray:12.5,18.75;stroke-miterlimit:10" d="M300 225v2550" transform="matrix(.1 0 0 -.1 0 300)"/></g><g clip-path="url(#d)"><path style="fill:none;stroke-width:6.25;stroke-linecap:round;stroke-linejoin:miter;stroke:#bfbfbf;stroke-opacity:1;stroke-dasharray:12.5,18.75;stroke-miterlimit:10" d="M866.68 225v2550" transform="matrix(.1 0 0 -.1 0 300)"/></g><g clip-path="url(#e)"><path style="fill:none;stroke-width:6.25;stroke-linecap:round;stroke-linejoin:miter;stroke:#bfbfbf;stroke-opacity:1;stroke-dasharray:12.5,18.75;stroke-miterlimit:10" d="M1433.32 225v2550" transform="matrix(.1 0 0 -.1 0 300)"/></g><g clip-path="url(#f)"><path style="fill:none;stroke-width:6.25;stroke-linecap:round;stroke-linejoin:miter;stroke:#bfbfbf;stroke-opacity:1;stroke-dasharray:12.5,18.75;stroke-miterlimit:10" d="M2000 225v2550" transform="matrix(.1 0 0 -.1 0 300)"/></g><g clip-path="url(#g)"><path style="fill:none;stroke-width:6.25;stroke-linecap:round;stroke-linejoin:miter;stroke:#bfbfbf;stroke-opacity:1;stroke-dasharray:12.5,18.75;stroke-miterlimit:10" d="M2566.68 225v2550" transform="matrix(.1 0 0 -.1 0 300)"/></g><g clip-path="url(#h)"><path style="fill:none;stroke-width:6.25;stroke-linecap:round;stroke-linejoin:miter;stroke:#bfbfbf;stroke-opacity:1;stroke-dasharray:12.5,18.75;stroke-miterlimit:10" d="M3133.32 225v2550" transform="matrix(.1 0 0 -.1 0 300)"/></g><g clip-path="url(#i)"><path style="fill:none;stroke-width:6.25;stroke-linecap:round;stroke-linejoin:miter;stroke:#bfbfbf;stroke-opacity:1;stroke-dasharray:12.5,18.75;stroke-miterlimit:10" d="M3700 225v2550" transform="matrix(.1 0 0 -.1 0 300)"/></g><g clip-path="url(#j)"><path style="fill:none;stroke-width:6.25;stroke-linecap:round;stroke-linejoin:miter;stroke:#bfbfbf;stroke-opacity:1;stroke-dasharray:12.5,18.75;stroke-miterlimit:10" d="M300 340.898h3400" transform="matrix(.1 0 0 -.1 0 300)"/></g><g clip-path="url(#k)"><path style="fill:none;stroke-width:6.25;stroke-linecap:round;stroke-linejoin:miter;stroke:#bfbfbf;stroke-opacity:1;stroke-dasharray:12.5,18.75;stroke-miterlimit:10" d="M300 920.469h3400" transform="matrix(.1 0 0 -.1 0 300)"/></g><g clip-path="url(#l)"><path style="fill:none;stroke-width:6.25;stroke-linecap:round;stroke-linejoin:miter;stroke:#bfbfbf;stroke-opacity:1;stroke-dasharray:12.5,18.75;stroke-miterlimit:10" d="M300 1500h3400" transform="matrix(.1 0 0 -.1 0 300)"/></g><g clip-path="url(#m)"><path style="fill:none;stroke-width:6.25;stroke-linecap:round;stroke-linejoin:miter;stroke:#bfbfbf;stroke-opacity:1;stroke-dasharray:12.5,18.75;stroke-miterlimit:10" d="M300 2079.531h3400" transform="matrix(.1 0 0 -.1 0 300)"/></g><g clip-path="url(#n)"><path style="fill:none;stroke-width:6.25;stroke-linecap:round;stroke-linejoin:miter;stroke:#bfbfbf;stroke-opacity:1;stroke-dasharray:12.5,18.75;stroke-miterlimit:10" d="M300 2659.102h3400" transform="matrix(.1 0 0 -.1 0 300)"/></g><path style="fill:none;stroke-width:12.5;stroke-linecap:square;stroke-linejoin:miter;stroke:#000;stroke-opacity:1;stroke-miterlimit:10" d="M300 225h3400" transform="matrix(.1 0 0 -.1 0 300)"/><path style="fill:none;stroke-width:6.25;stroke-linecap:butt;stroke-linejoin:miter;stroke:#000;stroke-opacity:1;stroke-miterlimit:10" d="M300 225v50m56.68-50v25m56.64-25v25M470 225v25m56.68-25v25m56.64-25v25M640 225v25m56.68-25v25m56.64-25v25M810 225v25m56.68-25v50m56.64-50v25M980 225v25m56.68-25v25m56.64-25v25m56.68-25v25m56.68-25v25m56.64-25v25m56.68-25v25m56.68-25v25m56.64-25v50m56.68-50v25m56.68-25v25m56.64-25v25m56.68-25v25m56.68-25v25m56.64-25v25m56.68-25v25m56.68-25v25m56.64-25v25m56.68-25v50m56.68-50v25m56.64-25v25m56.68-25v25m56.68-25v25m56.64-25v25m56.68-25v25m56.68-25v25m56.64-25v25m56.68-25v25m56.68-25v50m56.64-50v25m56.68-25v25m56.68-25v25m56.64-25v25m56.68-25v25m56.68-25v25m56.64-25v25m56.68-25v25m56.68-25v25m56.64-25v50m56.68-50v25m56.68-25v25m56.64-25v25m56.68-25v25m56.68-25v25m56.64-25v25m56.68-25v25m56.68-25v25m56.64-25v25m56.68-25v50" transform="matrix(.1 0 0 -.1 0 300)"/><g style="fill:#000;fill-opacity:1"><use xlink:href="#o" x="24.788" y="287.5"/><use xlink:href="#p" x="28.958" y="287.5"/><use xlink:href="#o" x="31.043" y="287.5"/></g><g style="fill:#000;fill-opacity:1"><use xlink:href="#o" x="81.038" y="287.5"/><use xlink:href="#p" x="85.208" y="287.5"/><use xlink:href="#q" x="87.293" y="287.5"/></g><g style="fill:#000;fill-opacity:1"><use xlink:href="#r" x="137.913" y="287.5"/><use xlink:href="#p" x="142.083" y="287.5"/><use xlink:href="#o" x="144.168" y="287.5"/></g><g style="fill:#000;fill-opacity:1"><use xlink:href="#r" x="194.788" y="287.5"/><use xlink:href="#p" x="198.958" y="287.5"/><use xlink:href="#q" x="201.043" y="287.5"/></g><g style="fill:#000;fill-opacity:1"><use xlink:href="#s" x="251.038" y="287.5"/><use xlink:href="#p" x="255.208" y="287.5"/><use xlink:href="#o" x="257.293" y="287.5"/></g><g style="fill:#000;fill-opacity:1"><use xlink:href="#s" x="307.913" y="287.5"/><use xlink:href="#p" x="312.083" y="287.5"/><use xlink:href="#q" x="314.168" y="287.5"/></g><g style="fill:#000;fill-opacity:1"><use xlink:href="#t" x="364.788" y="287.5"/><use xlink:href="#p" x="368.958" y="287.5"/><use xlink:href="#o" x="371.043" y="287.5"/></g><path style="fill:none;stroke-width:12.5;stroke-linecap:square;stroke-linejoin:miter;stroke:#000;stroke-opacity:1;stroke-miterlimit:10" d="M300 2775h3400" transform="matrix(.1 0 0 -.1 0 300)"/><path style="fill:none;stroke-width:6.25;stroke-linecap:butt;stroke-linejoin:miter;stroke:#000;stroke-opacity:1;stroke-miterlimit:10" d="M300 2775v-50m56.68 50v-25m56.64 25v-25m56.68 25v-25m56.68 25v-25m56.64 25v-25m56.68 25v-25m56.68 25v-25m56.64 25v-25m56.68 25v-25m56.68 25v-50m56.64 50v-25m56.68 25v-25m56.68 25v-25m56.64 25v-25m56.68 25v-25m56.68 25v-25m56.64 25v-25m56.68 25v-25m56.68 25v-25m56.64 25v-50m56.68 50v-25m56.68 25v-25m56.64 25v-25m56.68 25v-25m56.68 25v-25m56.64 25v-25m56.68 25v-25m56.68 25v-25m56.64 25v-25m56.68 25v-50m56.68 50v-25m56.64 25v-25m56.68 25v-25m56.68 25v-25m56.64 25v-25m56.68 25v-25m56.68 25v-25m56.64 25v-25m56.68 25v-25m56.68 25v-50m56.64 50v-25m56.68 25v-25m56.68 25v-25m56.64 25v-25m56.68 25v-25m56.68 25v-25m56.64 25v-25m56.68 25v-25m56.68 25v-25m56.64 25v-50m56.68 50v-25m56.68 25v-25m56.64 25v-25m56.68 25v-25m56.68 25v-25m56.64 25v-25m56.68 25v-25m56.68 25v-25m56.64 25v-25m56.68 25v-50" transform="matrix(.1 0 0 -.1 0 300)"/><g style="fill:#000;fill-opacity:1"><use xlink:href="#o" x="24.788" y="20"/><use xlink:href="#p" x="28.958" y="20"/><use xlink:href="#o" x="31.043" y="20"/></g><g style="fill:#000;fill-opacity:1"><use xlink:href="#o" x="81.038" y="20"/><use xlink:href="#p" x="85.208" y="20"/><use xlink:href="#q" x="87.293" y="20"/></g><g style="fill:#000;fill-opacity:1"><use xlink:href="#r" x="137.913" y="20"/><use xlink:href="#p" x="142.083" y="20"/><use xlink:href="#o" x="144.168" y="20"/></g><g style="fill:#000;fill-opacity:1"><use xlink:href="#r" x="194.788" y="20"/><use xlink:href="#p" x="198.958" y="20"/><use xlink:href="#q" x="201.043" y="20"/></g><g style="fill:#000;fill-opacity:1"><use xlink:href="#s" x="251.038" y="20"/><use xlink:href="#p" x="255.208" y="20"/><use xlink:href="#o" x="257.293" y="20"/></g><g style="fill:#000;fill-opacity:1"><use xlink:href="#s" x="307.913" y="20"/><use xlink:href="#p" x="312.083" y="20"/><use xlink:href="#q" x="314.168" y="20"/></g><g style="fill:#000;fill-opacity:1"><use xlink:href="#t" x="364.788" y="20"/><use xlink:href="#p" x="368.958" y="20"/><use xlink:href="#o" x="371.043" y="20"/></g><path style="fill:none;stroke-width:12.5;stroke-linecap:square;stroke-linejoin:miter;stroke:#000;stroke-opacity:1;stroke-miterlimit:10" d="M300 225v2550" transform="matrix(.1 0 0 -.1 0 300)"/><path style="fill:none;stroke-width:6.25;stroke-linecap:butt;stroke-linejoin:miter;stroke:#000;stroke-opacity:1;stroke-miterlimit:10" d="M300 282.969h25m-25 57.929h50m-50 57.969h25m-25 57.969h25m-25 57.93h25m-25 57.968h25m-25 57.93h25m-25 57.969h25m-25 57.969h25m-25 57.929h25M300 862.5h25m-25 57.969h50m-50 57.929h25m-25 57.969h25m-25 57.969h25m-25 57.93h25m-25 57.968h25m-25 57.93h25m-25 57.969h25m-25 57.969h25m-25 57.929h25M300 1500h50m-50 57.969h25m-25 57.929h25m-25 57.969h25m-25 57.969h25m-25 57.93h25m-25 57.968h25m-25 57.93h25m-25 57.969h25m-25 57.969h25m-25 57.929h50m-50 57.969h25m-25 57.969h25m-25 57.929h25m-25 57.969h25m-25 57.969h25m-25 57.93h25m-25 57.968h25m-25 57.93h25m-25 57.969h25m-25 57.969h50m-50 57.929h25M300 2775h25" transform="matrix(.1 0 0 -.1 0 300)"/><g style="fill:#000;fill-opacity:1"><use xlink:href="#o" x="13.325" y="269.375"/><use xlink:href="#p" x="17.495" y="269.375"/><use xlink:href="#o" x="19.58" y="269.375"/></g><g style="fill:#000;fill-opacity:1"><use xlink:href="#o" x="13.325" y="211.25"/><use xlink:href="#p" x="17.495" y="211.25"/><use xlink:href="#q" x="19.58" y="211.25"/></g><g style="fill:#000;fill-opacity:1"><use xlink:href="#r" x="13.325" y="153.125"/><use xlink:href="#p" x="17.495" y="153.125"/><use xlink:href="#o" x="19.58" y="153.125"/></g><g style="fill:#000;fill-opacity:1"><use xlink:href="#r" x="13.325" y="95.625"/><use xlink:href="#p" x="17.495" y="95.625"/><use xlink:href="#q" x="19.58" y="95.625"/></g><g style="fill:#000;fill-opacity:1"><use xlink:href="#s" x="13.325" y="37.5"/><use xlink:href="#p" x="17.495" y="37.5"/><use xlink:href="#o" x="19.58" y="37.5"/></g><path style="fill:none;stroke-width:12.5;stroke-linecap:square;stroke-linejoin:miter;stroke:#000;stroke-opacity:1;stroke-miterlimit:10" d="M3700 225v2550" transform="matrix(.1 0 0 -.1 0 300)"/><path style="fill:none;stroke-width:6.25;stroke-linecap:butt;stroke-linejoin:miter;stroke:#000;stroke-opacity:1;stroke-miterlimit:10" d="M3700 282.969h-25m25 57.929h-50m50 57.969h-25m25 57.969h-25m25 57.93h-25m25 57.968h-25m25 57.93h-25m25 57.969h-25m25 57.969h-25m25 57.929h-25m25 57.969h-25m25 57.969h-50m50 57.929h-25m25 57.969h-25m25 57.969h-25m25 57.93h-25m25 57.968h-25m25 57.93h-25m25 57.969h-25m25 57.969h-25m25 57.929h-25m25 57.969h-50m50 57.969h-25m25 57.929h-25m25 57.969h-25m25 57.969h-25m25 57.93h-25m25 57.968h-25m25 57.93h-25m25 57.969h-25m25 57.969h-25m25 57.929h-50m50 57.969h-25m25 57.969h-25m25 57.929h-25m25 57.969h-25m25 57.969h-25m25 57.93h-25m25 57.968h-25m25 57.93h-25m25 57.969h-25m25 57.969h-50m50 57.929h-25m25 57.969h-25" transform="matrix(.1 0 0 -.1 0 300)"/><g style="fill:#000;fill-opacity:1"><use xlink:href="#o" x="376.25" y="269.375"/><use xlink:href="#p" x="380.42" y="269.375"/><use xlink:href="#o" x="382.505" y="269.375"/></g><g style="fill:#000;fill-opacity:1"><use xlink:href="#o" x="376.25" y="211.25"/><use xlink:href="#p" x="380.42" y="211.25"/><use xlink:href="#q" x="382.505" y="211.25"/></g><g style="fill:#000;fill-opacity:1"><use xlink:href="#r" x="376.25" y="153.125"/><use xlink:href="#p" x="380.42" y="153.125"/><use xlink:href="#o" x="382.505" y="153.125"/></g><g style="fill:#000;fill-opacity:1"><use xlink:href="#r" x="376.25" y="95.625"/><use xlink:href="#p" x="380.42" y="95.625"/><use xlink:href="#q" x="382.505" y="95.625"/></g><g style="fill:#000;fill-opacity:1"><use xlink:href="#s" x="376.25" y="37.5"/><use xlink:href="#p" x="380.42" y="37.5"/><use xlink:href="#o" x="382.505" y="37.5"/></g><g clip-path="url(#u)"><path style="fill:none;stroke-width:12.5;stroke-linecap:round;stroke-linejoin:round;stroke:#00008b;stroke-opacity:1;stroke-miterlimit:10" d="M300 340.898h562.5l6.25 2318.204h562.5l6.25-2318.204H3700" transform="matrix(.1 0 0 -.1 0 300)"/></g></svg>