<svg xmlns="http://www.w3.org/2000/svg" xmlns:xlink="http://www.w3.org/1999/xlink" width="379pt" height="274pt" viewBox="0 0 379 274"><defs><clipPath id="a"><path d="M20 8.5h1v255h-1zm0 0"/></clipPath><clipPath id="b"><path d="M20 135h340v2H20zm0 0"/></clipPath><clipPath id="c"><path d="M20 8.5h1v255h-1zm0 0"/></clipPath><clipPath id="d"><path d="M104 8.5h2v255h-2zm0 0"/></clipPath><clipPath id="e"><path d="M189 8.5h2v255h-2zm0 0"/></clipPath><clipPath id="f"><path d="M274 8.5h2v255h-2zm0 0"/></clipPath><clipPath id="g"><path d="M359 8.5h1v255h-1zm0 0"/></clipPath><clipPath id="h"><path d="M20 263h340v.5H20zm0 0"/></clipPath><clipPath id="i"><path d="M20 199h340v2H20zm0 0"/></clipPath><clipPath id="j"><path d="M20 135h340v2H20zm0 0"/></clipPath><clipPath id="k"><path d="M20 71h340v2H20zm0 0"/></clipPath><clipPath id="l"><path d="M20 8.5h340V9H20zm0 0"/></clipPath><clipPath id="t"><path d="M20 45h340v182H20zm0 0"/></clipPath><symbol overflow="visible" id="m"><path style="stroke:none" d="M2.063-5.313c-.5 0-.938.22-1.22.579C.5-4.266.329-3.563.329-2.578c0 1.797.594 2.75 1.734 2.75 1.126 0 1.735-.953 1.735-2.703 0-1.031-.156-1.719-.516-2.203-.281-.375-.719-.579-1.219-.579zm0 .579c.718 0 1.062.718 1.062 2.14 0 1.516-.344 2.219-1.078 2.219C1.344-.375 1-1.109 1-2.563c0-1.453.344-2.171 1.063-2.171zm0 0"/></symbol><symbol overflow="visible" id="n"><path style="stroke:none" d="M1.438-.781H.655V0h.781zm0 0"/></symbol><symbol overflow="visible" id="o"><path style="stroke:none" d="M3.797-.656H1c.063-.438.313-.703.953-1.094l.75-.406c.75-.406 1.125-.953 1.125-1.594 0-.453-.172-.86-.484-1.14-.328-.298-.719-.423-1.219-.423-.672 0-1.172.235-1.469.688-.187.281-.265.61-.281 1.156h.656c.032-.36.078-.578.157-.75.171-.328.515-.515.921-.515.594 0 1.047.421 1.047.984 0 .422-.25.781-.719 1.063l-.687.39C.64-1.672.312-1.172.25 0h3.547zm0 0"/></symbol><symbol overflow="visible" id="p"><path style="stroke:none" d="M3.563-5.313H.828L.422-2.421h.61c.312-.375.562-.5.984-.5.703 0 1.156.485 1.156 1.281 0 .766-.438 1.235-1.156 1.235-.579 0-.938-.297-1.094-.906H.266c.093.437.156.656.312.843.313.406.844.64 1.453.64 1.063 0 1.813-.78 1.813-1.905 0-1.047-.688-1.766-1.719-1.766-.375 0-.672.094-.984.313l.218-1.485h2.204zm0 0"/></symbol><symbol overflow="visible" id="q"><path style="stroke:none" d="M3.906-5.313H.344v.641h2.875C1.953-2.859 1.438-1.75 1.03 0h.703c.297-1.703.97-3.172 2.172-4.766zm0 0"/></symbol><symbol overflow="visible" id="r"><path style="stroke:none" d="M1.938-3.781V0h.671v-5.313h-.437c-.235.813-.39.922-1.406 1.047v.485zm0 0"/></symbol><symbol overflow="visible" id="s"><path style="stroke:none" d="M2.125-2.344H.344v.547h1.781zm0 0"/></symbol></defs><path style="stroke:none;fill-rule:nonzero;fill:#fff;fill-opacity:1" d="M20 263.5h340V8.5H20zm0 0"/><g clip-path="url(#a)"><path style="fill:none;stroke-width:6.25;stroke-linecap:round;stroke-linejoin:miter;stroke:#bfbfbf;stroke-opacity:1;stroke-miterlimit:10" d="M200 105v2550" transform="matrix(.1 0 0 -.1 0 274)"/></g><g clip-path="url(#b)"><path style="fill:none;stroke-width:6.25;stroke-linecap:round;stroke-linejoin:miter;stroke:#bfbfbf;stroke-opacity:1;stroke-miterlimit:10" d="M200 1380h3400" transform="matrix(.1 0 0 -.1 0 274)"/></g><g clip-path="url(#c)"><path style="fill:none;stroke-width:6.25;stroke-linecap:round;stroke-linejoin:miter;stroke:#bfbfbf;stroke-opacity:1;stroke-dasharray:12.5,18.75;stroke-miterlimit:10" d="M200 105v2550" transform="matrix(.1 0 0 -.1 0 274)"/></g><g clip-path="url(#d)"><path style="fill:none;stroke-width:6.25;stroke-linecap:round;stroke-linejoin:miter;stroke:#bfbfbf;stroke-opacity:1;stroke-dasharray:12.5,18.75;stroke-miterlimit:10" d="M1050 105v2550" transform="matrix(.1 0 0 -.1 0 274)"/></g><g clip-path="url(#e)"><path style="fill:none;stroke-width:6.25;stroke-linecap:round;stroke-linejoin:miter;stroke:#bfbfbf;stroke-opacity:1;stroke-dasharray:12.5,18.75;stroke-miterlimit:10" d="M1900 105v2550" transform="matrix(.1 0 0 -.1 0 274)"/></g><g clip-path="url(#f)"><path style="fill:none;stroke-width:6.25;stroke-linecap:round;stroke-linejoin:miter;stroke:#bfbfbf;stroke-opacity:1;stroke-dasharray:12.5,18.75;stroke-miterlimit:10" d="M2750 105v2550" transform="matrix(.1 0 0 -.1 0 274)"/></g><g clip-path="url(#g)"><path style="fill:none;stroke-width:6.25;stroke-linecap:round;stroke-linejoin:miter;stroke:#bfbfbf;stroke-opacity:1;stroke-dasharray:12.5,18.75;stroke-miterlimit:10" d="M3600 105v2550" transform="matrix(.1 0 0 -.1 0 274)"/></g><g clip-path="url(#h)"><path style="fill:none;stroke-width:6.25;stroke-linecap:round;stroke-linejoin:miter;stroke:#bfbfbf;stroke-opacity:1;stroke-dasharray:12.5,18.75;stroke-miterlimit:10" d="M200 105h3400" transform="matrix(.1 0 0 -.1 0 274)"/></g><g clip-path="url(#i)"><path style="fill:none;stroke-width:6.25;stroke-linecap:round;stroke-linejoin:miter;stroke:#bfbfbf;stroke-opacity:1;stroke-dasharray:12.5,18.75;stroke-miterlimit:10" d="M200 742.5h3400" transform="matrix(.1 0 0 -.1 0 274)"/></g><g clip-path="url(#j)"><path style="fill:none;stroke-width:6.25;stroke-linecap:round;stroke-linejoin:miter;stroke:#bfbfbf;stroke-opacity:1;stroke-dasharray:12.5,18.75;stroke-miterlimit:10" d="M200 1380h3400" transform="matrix(.1 0 0 -.1 0 274)"/></g><g clip-path="url(#k)"><path style="fill:none;stroke-width:6.25;stroke-linecap:round;stroke-linejoin:miter;stroke:#bfbfbf;stroke-opacity:1;stroke-dasharray:12.5,18.75;stroke-miterlimit:10" d="M200 2017.5h3400" transform="matrix(.1 0 0 -.1 0 274)"/></g><g clip-path="url(#l)"><path style="fill:none;stroke-width:6.25;stroke-linecap:round;stroke-linejoin:miter;stroke:#bfbfbf;stroke-opacity:1;stroke-dasharray:12.5,18.75;stroke-miterlimit:10" d="M200 2655h3400" transform="matrix(.1 0 0 -.1 0 274)"/></g><path style="fill:none;stroke-width:12.5;stroke-linecap:square;stroke-linejoin:miter;stroke:#000;stroke-opacity:1;stroke-miterlimit:10" d="M200 105h3400" transform="matrix(.1 0 0 -.1 0 274)"/><path style="fill:none;stroke-width:6.25;stroke-linecap:butt;stroke-linejoin:miter;stroke:#000;stroke-opacity:1;stroke-miterlimit:10" d="M200 105v50m85-50v25m85-25v25m85-25v25m85-25v25m85-25v25m85-25v25m85-25v25m85-25v25m85-25v25m85-25v50m85-50v25m85-25v25m85-25v25m85-25v25m85-25v25m85-25v25m85-25v25m85-25v25m85-25v25m85-25v50m85-50v25m85-25v25m85-25v25m85-25v25m85-25v25m85-25v25m85-25v25m85-25v25m85-25v25m85-25v50m85-50v25m85-25v25m85-25v25m85-25v25m85-25v25m85-25v25m85-25v25m85-25v25m85-25v25m85-25v50" transform="matrix(.1 0 0 -.1 0 274)"/><g style="fill:#000;fill-opacity:1"><use xlink:href="#m" x="14.163" y="273.5"/><use xlink:href="#n" x="18.333" y="273.5"/><use xlink:href="#m" x="20.418" y="273.5"/></g><g style="fill:#000;fill-opacity:1"><use xlink:href="#o" x="99.163" y="273.5"/><use xlink:href="#n" x="103.333" y="273.5"/><use xlink:href="#p" x="105.418" y="273.5"/></g><g style="fill:#000;fill-opacity:1"><use xlink:href="#p" x="184.788" y="273.5"/><use xlink:href="#n" x="188.958" y="273.5"/><use xlink:href="#m" x="191.043" y="273.5"/></g><g style="fill:#000;fill-opacity:1"><use xlink:href="#q" x="269.788" y="273.5"/><use xlink:href="#n" x="273.958" y="273.5"/><use xlink:href="#p" x="276.043" y="273.5"/></g><g style="fill:#000;fill-opacity:1"><use xlink:href="#r" x="352.703" y="273.5"/><use xlink:href="#m" x="356.873" y="273.5"/><use xlink:href="#n" x="361.043" y="273.5"/><use xlink:href="#m" x="363.128" y="273.5"/></g><path style="fill:none;stroke-width:12.5;stroke-linecap:square;stroke-linejoin:miter;stroke:#000;stroke-opacity:1;stroke-miterlimit:10" d="M200 2655h3400" transform="matrix(.1 0 0 -.1 0 274)"/><path style="fill:none;stroke-width:6.25;stroke-linecap:butt;stroke-linejoin:miter;stroke:#000;stroke-opacity:1;stroke-miterlimit:10" d="M200 2655v-50m85 50v-25m85 25v-25m85 25v-25m85 25v-25m85 25v-25m85 25v-25m85 25v-25m85 25v-25m85 25v-25m85 25v-50m85 50v-25m85 25v-25m85 25v-25m85 25v-25m85 25v-25m85 25v-25m85 25v-25m85 25v-25m85 25v-25m85 25v-50m85 50v-25m85 25v-25m85 25v-25m85 25v-25m85 25v-25m85 25v-25m85 25v-25m85 25v-25m85 25v-25m85 25v-50m85 50v-25m85 25v-25m85 25v-25m85 25v-25m85 25v-25m85 25v-25m85 25v-25m85 25v-25m85 25v-25m85 25v-50" transform="matrix(.1 0 0 -.1 0 274)"/><g style="fill:#000;fill-opacity:1"><use xlink:href="#m" x="14.163" y="5.375"/><use xlink:href="#n" x="18.333" y="5.375"/><use xlink:href="#m" x="20.418" y="5.375"/></g><g style="fill:#000;fill-opacity:1"><use xlink:href="#o" x="99.163" y="5.375"/><use xlink:href="#n" x="103.333" y="5.375"/><use xlink:href="#p" x="105.418" y="5.375"/></g><g style="fill:#000;fill-opacity:1"><use xlink:href="#p" x="184.788" y="5.375"/><use xlink:href="#n" x="188.958" y="5.375"/><use xlink:href="#m" x="191.043" y="5.375"/></g><g style="fill:#000;fill-opacity:1"><use xlink:href="#q" x="269.788" y="5.375"/><use xlink:href="#n" x="273.958" y="5.375"/><use xlink:href="#p" x="276.043" y="5.375"/></g><g style="fill:#000;fill-opacity:1"><use xlink:href="#r" x="352.703" y="5.375"/><use xlink:href="#m" x="356.873" y="5.375"/><use xlink:href="#n" x="361.043" y="5.375"/><use xlink:href="#m" x="363.128" y="5.375"/></g><path style="fill:none;stroke-width:12.5;stroke-linecap:square;stroke-linejoin:miter;stroke:#000;stroke-opacity:1;stroke-miterlimit:10" d="M200 105v2550" transform="matrix(.1 0 0 -.1 0 274)"/><path style="fill:none;stroke-width:6.25;stroke-linecap:butt;stroke-linejoin:miter;stroke:#000;stroke-opacity:1;stroke-miterlimit:10" d="M200 105h50m-50 63.75h25m-25 63.75h25m-25 63.75h25M200 360h25m-25 63.75h25m-25 63.75h25m-25 63.75h25M200 615h25m-25 63.75h25m-25 63.75h50m-50 63.75h25M200 870h25m-25 63.75h25m-25 63.75h25m-25 63.75h25M200 1125h25m-25 63.75h25m-25 63.75h25m-25 63.75h25M200 1380h50m-50 63.75h25m-25 63.75h25m-25 63.75h25M200 1635h25m-25 63.75h25m-25 63.75h25m-25 63.75h25M200 1890h25m-25 63.75h25m-25 63.75h50m-50 63.75h25M200 2145h25m-25 63.75h25m-25 63.75h25m-25 63.75h25M200 2400h25m-25 63.75h25m-25 63.75h25m-25 63.75h25M200 2655h50" transform="matrix(.1 0 0 -.1 0 274)"/><g style="fill:#000;fill-opacity:1"><use xlink:href="#s" x=".203" y="267.25"/><use xlink:href="#r" x="2.701" y="267.25"/><use xlink:href="#n" x="6.871" y="267.25"/><use xlink:href="#m" x="8.956" y="267.25"/></g><g style="fill:#000;fill-opacity:1"><use xlink:href="#s" x=".203" y="202.875"/><use xlink:href="#m" x="2.701" y="202.875"/><use xlink:href="#n" x="6.871" y="202.875"/><use xlink:href="#p" x="8.956" y="202.875"/></g><g style="fill:#000;fill-opacity:1"><use xlink:href="#m" x="2.7" y="139.125"/><use xlink:href="#n" x="6.87" y="139.125"/><use xlink:href="#m" x="8.955" y="139.125"/></g><g style="fill:#000;fill-opacity:1"><use xlink:href="#m" x="2.7" y="75.375"/><use xlink:href="#n" x="6.87" y="75.375"/><use xlink:href="#p" x="8.955" y="75.375"/></g><g style="fill:#000;fill-opacity:1"><use xlink:href="#r" x="2.7" y="11.625"/><use xlink:href="#n" x="6.87" y="11.625"/><use xlink:href="#m" x="8.955" y="11.625"/></g><path style="fill:none;stroke-width:12.5;stroke-linecap:square;stroke-linejoin:miter;stroke:#000;stroke-opacity:1;stroke-miterlimit:10" d="M3600 105v2550" transform="matrix(.1 0 0 -.1 0 274)"/><path style="fill:none;stroke-width:6.25;stroke-linecap:butt;stroke-linejoin:miter;stroke:#000;stroke-opacity:1;stroke-miterlimit:10" d="M3600 105h-50m50 63.75h-25m25 63.75h-25m25 63.75h-25m25 63.75h-25m25 63.75h-25m25 63.75h-25m25 63.75h-25m25 63.75h-25m25 63.75h-25m25 63.75h-50m50 63.75h-25m25 63.75h-25m25 63.75h-25m25 63.75h-25m25 63.75h-25m25 63.75h-25m25 63.75h-25m25 63.75h-25m25 63.75h-25m25 63.75h-50m50 63.75h-25m25 63.75h-25m25 63.75h-25m25 63.75h-25m25 63.75h-25m25 63.75h-25m25 63.75h-25m25 63.75h-25m25 63.75h-25m25 63.75h-50m50 63.75h-25m25 63.75h-25m25 63.75h-25m25 63.75h-25m25 63.75h-25m25 63.75h-25m25 63.75h-25m25 63.75h-25m25 63.75h-25m25 63.75h-50" transform="matrix(.1 0 0 -.1 0 274)"/><g style="fill:#000;fill-opacity:1"><use xlink:href="#s" x="366.25" y="267.25"/><use xlink:href="#r" x="368.748" y="267.25"/><use xlink:href="#n" x="372.918" y="267.25"/><use xlink:href="#m" x="375.002" y="267.25"/></g><g style="fill:#000;fill-opacity:1"><use xlink:href="#s" x="366.25" y="202.875"/><use xlink:href="#m" x="368.748" y="202.875"/><use xlink:href="#n" x="372.918" y="202.875"/><use xlink:href="#p" x="375.002" y="202.875"/></g><g style="fill:#000;fill-opacity:1"><use xlink:href="#m" x="366.25" y="139.125"/><use xlink:href="#n" x="370.42" y="139.125"/><use xlink:href="#m" x="372.505" y="139.125"/></g><g style="fill:#000;fill-opacity:1"><use xlink:href="#m" x="366.25" y="75.375"/><use xlink:href="#n" x="370.42" y="75.375"/><use xlink:href="#p" x="372.505" y="75.375"/></g><g style="fill:#000;fill-opacity:1"><use xlink:href="#r" x="366.25" y="11.625"/><use xlink:href="#n" x="370.42" y="11.625"/><use xlink:href="#m" x="372.505" y="11.625"/></g><g clip-path="url(#t)"><path style="fill:none;stroke-width:12.5;stroke-linecap:round;stroke-linejoin:round;stroke:#00008b;stroke-opacity:1;stroke-miterlimit:10" d="m200 2017.5 6.25 23.008 6.25 22.11 6.25 21.171 6.25 20.234 6.25 19.258 6.25 18.242 6.25 17.227 6.25 16.172 6.25 15.117 6.25 13.984 6.25 12.891 6.25 11.758 6.25 10.625 6.25 9.414 6.25 8.281 6.25 7.11 6.25 5.898 6.25 4.688 6.25 3.476 6.25 2.266 6.25 1.054 6.25-.156 6.25-1.406 6.25-2.578 6.25-3.828 6.25-5.04 6.25-6.21 6.25-7.422 6.25-8.594 6.25-9.766 6.25-10.937 6.25-12.07 6.25-13.164 6.25-14.336 6.25-15.391 6.25-16.445 6.25-17.5 6.25-18.516 6.25-19.57 6.25-20.47 6.25-21.444 6.25-22.344 6.25-23.242 6.25-24.102 6.25-24.922 6.25-25.703 6.25-26.445 6.25-27.188 6.25-27.851 6.25-28.477 6.25-29.101 6.25-29.649 6.25-30.195 6.25-30.664 6.25-31.094 6.25-31.523 6.25-31.836 6.25-32.188 6.25-32.422L575 1515l6.25-32.852 6.25-33.007 6.25-33.086 12.5-66.25 6.25-33.086 6.25-33.047 6.25-32.89 6.25-32.696 6.25-32.5 6.25-32.227 6.25-31.914 6.25-31.562 6.25-31.172 6.25-30.742 6.25-30.274 6.25-29.765 6.25-29.18 6.25-28.594 6.25-27.968 6.25-27.305 6.25-26.563 6.25-25.86 6.25-25.038 6.25-24.258 6.25-23.398 6.25-22.5 6.25-21.602 6.25-20.703 6.25-19.688 6.25-18.71 6.25-17.696 6.25-16.64 6.25-15.586 6.25-14.493L800 548.75l6.25-12.266 6.25-11.132 6.25-9.961 6.25-8.828 6.25-7.618 6.25-6.406 6.25-5.234 6.25-4.024 6.25-2.851 6.25-1.602 6.25-.351 6.25.82 6.25 2.07 6.25 3.242 6.25 4.493 6.25 5.664 6.25 6.875 6.25 8.086 6.25 9.218 6.25 10.43 6.25 11.563 6.25 12.656 6.25 13.828 6.25 14.883 6.25 16.015 6.25 17.032 6.25 18.046L975 652.5l6.25 20.04 6.25 21.015 6.25 21.953 6.25 22.851 6.25 23.711 6.25 24.57 6.25 25.352 6.25 26.094 6.25 26.875 6.25 27.539 6.25 28.203 6.25 28.828 6.25 29.414 6.25 29.922 6.25 30.469 6.25 30.898 6.25 31.329 6.25 31.718 6.25 32.032 6.25 32.343 6.25 32.578 6.25 32.774 6.25 32.93 6.25 33.046 12.5 66.25 6.25 33.164 6.25 33.047 6.25 32.93 6.25 32.813 6.25 32.578 6.25 32.343 6.25 32.07 6.25 31.758 6.25 31.329 6.25 30.976 6.25 30.469 6.25 30 6.25 29.453 6.25 28.867 6.25 28.242 6.25 27.618 6.25 26.914 6.25 26.172 6.25 25.39 6.25 24.649 6.25 23.75 6.25 22.93 6.25 22.03 6.25 21.055 6.25 20.157 6.25 19.18 6.25 18.124 6.25 17.149 6.25 16.054 6.25 15 6.25 13.867 6.25 12.813 6.25 11.64 6.25 10.508 6.25 9.336 6.25 8.125 6.25 6.993 6.25 5.78 6.25 4.571 6.25 3.36 6.25 2.148 6.25.937 6.25-.312 6.25-1.484 6.25-2.735 6.25-3.906 6.25-5.156 6.25-6.328 6.25-7.54 6.25-8.71 6.25-9.883 6.25-11.016 6.25-12.187 6.25-13.32 6.25-14.415 6.25-15.468 6.25-16.602 6.25-17.578 6.25-18.633 6.25-19.648 6.25-20.586 6.25-21.524 6.25-22.46 6.25-23.321 6.25-24.18 6.25-24.96 6.25-25.782 6.25-26.523 6.25-27.227 6.25-27.93 6.25-28.554 6.25-29.14 6.25-29.688 6.25-30.235 6.25-30.742 6.25-31.133 6.25-31.562 6.25-31.875 6.25-32.188 6.25-32.5 6.25-32.695 6.25-32.852 6.25-33.007 6.25-33.086 6.25-33.125 6.25-33.165 6.25-33.085 6.25-33.008 6.25-32.852 6.25-32.695 6.25-32.461 6.25-32.227 6.25-31.875 6.25-31.523 6.25-31.133 6.25-30.703 6.25-30.234 6.25-29.688 6.25-29.14 6.25-28.555 6.25-27.89 6.25-27.227 6.25-26.524L1787.5 800l6.25-25 6.25-24.14 6.25-23.32 6.25-22.423 6.25-21.523 6.25-20.586 6.25-19.61 6.25-18.593 6.25-17.578 6.25-16.563 6.25-15.469 6.25-14.375 6.25-13.32 6.25-12.148 6.25-11.016 6.25-9.844 6.25-8.71 6.25-7.5 6.25-6.329 6.25-5.117 6.25-3.906 6.25-2.696 6.25-1.484 6.25-.273 6.25.976 6.25 2.149 6.25 3.398 6.25 4.61 6.25 5.78 6.25 6.993 6.25 8.203 6.25 9.336 6.25 10.508 6.25 11.68 6.25 12.773 6.25 13.945 6.25 15 6.25 16.094 6.25 17.148 6.25 18.164 6.25 19.18 6.25 20.156 6.25 21.094 6.25 22.031 6.25 22.93 6.25 23.79 6.25 24.648 6.25 25.43 6.25 26.171 6.25 26.914 6.25 27.617 6.25 28.282 6.25 28.867 6.25 29.492 6.25 30 6.25 30.469 6.25 30.976 6.25 31.367 6.25 31.72 6.25 32.07 6.25 32.343 6.25 32.617 6.25 32.813 6.25 32.93 6.25 33.086 18.75 99.375 6.25 33.046 6.25 32.93 6.25 32.774 6.25 32.578 6.25 32.343 6.25 32.032 6.25 31.68 6.25 31.328 6.25 30.898 6.25 30.43 6.25 29.96 6.25 29.376 6.25 28.828 6.25 28.203 6.25 27.539 6.25 26.836 6.25 26.094 6.25 25.351 6.25 24.531 6.25 23.672 6.25 22.852 6.25 21.914 6.25 21.015 6.25 20.04 6.25 19.062 6.25 18.047 6.25 17.031 6.25 15.977 6.25 14.883 6.25 13.75 6.25 12.695 6.25 11.523 6.25 10.39 6.25 9.22 6.25 8.047 6.25 6.875 6.25 5.664 6.25 4.453 6.25 3.242 6.25 2.031 6.25.781 6.25-.39 6.25-1.602 6.25-2.851 6.25-4.063 6.25-5.234 6.25-6.445 6.25-7.657 6.25-8.828 6.25-10 6.25-11.172 6.25-12.265 6.25-13.399 6.25-14.531 6.25-15.625 6.25-16.64 6.25-17.696 6.25-18.75 6.25-19.727 6.25-20.664 6.25-21.64 6.25-22.54 6.25-23.398 6.25-24.258 6.25-25.039 6.25-25.859 6.25-26.602 6.25-27.304 6.25-27.969 6.25-28.633 6.25-29.219 6.25-29.726 6.25-30.274 6.25-30.78 6.25-31.173 6.25-31.562 6.25-31.953 6.25-32.227 6.25-32.5 6.25-32.695 6.25-32.89 6.25-33.009 18.75-99.375 6.25-33.086 6.25-33.007 6.25-32.852 6.25-32.656 6.25-32.461 6.25-32.149 6.25-31.875 6.25-31.484 6.25-31.094 6.25-30.664 6.25-30.195 6.25-29.649 6.25-29.062 6.25-28.477 6.25-27.851 6.25-27.149 6.25-26.445 6.25-25.664 6.25-24.922 6.25-24.062 6.25-23.242 6.25-22.344 6.25-21.407 6.25-20.507 6.25-19.492 6.25-18.516 6.25-17.5 6.25-16.445 6.25-15.352 6.25-14.297 6.25-13.164 6.25-12.07 6.25-10.899 6.25-9.726 6.25-8.594 6.25-7.383 6.25-6.21 6.25-5 6.25-3.79 6.25-2.578 6.25-1.367 6.25-.156 6.25 1.093 6.25 2.266 6.25 3.516 6.25 4.726 6.25 5.899 6.25 7.109 6.25 8.32 6.25 9.453 6.25 10.625 6.25 11.797 6.25 12.89 6.25 14.024 6.25 15.118 6.25 16.171 6.25 17.266 6.25 18.242 6.25 19.297 6.25 20.235 6.25 21.21 6.25 22.11 6.25 23.047 6.25 23.867 6.25 24.687 6.25 25.508 6.25 26.29 6.25 26.991 6.25 27.657 6.25 28.32 6.25 28.945 6.25 29.532 6.25 30.039 6.25 30.547 6.25 30.976 6.25 31.445 6.25 31.758 6.25 32.11 6.25 32.382 6.25 32.618 6.25 32.812 6.25 32.969 6.25 33.047 6.25 33.125 6.25 33.164 6.25 33.086 6.25 33.047 6.25 32.93 6.25 32.773 6.25 32.539 6.25 32.304 6.25 31.993 6.25 31.64 6.25 31.328 6.25 30.86 6.25 30.39 6.25 29.883 6.25 29.336 6.25 28.75 6.25 28.125 6.25 27.461 6.25 26.797 6.25 26.016 6.25 25.273 6.25 24.453 6.25 23.594 6.25 22.734 6.25 21.875 6.25 20.899 6.25 19.96 6.25 18.946 6.25 17.969 6.25 16.914 6.25 15.86 6.25 14.765 6.25 13.672 6.25 12.578 6.25 11.406 6.25 10.273 6.25 9.141 6.25 7.93 6.25 6.718 6.25 5.547 6.25 4.336 6.25 3.125 6.25 1.914 6.25.704 6.25-.508 6.25-1.758 6.25-2.969 6.25-4.14 6.25-5.391 6.25-6.563 6.25-7.773 6.25-8.945 6.25-10.079 6.25-11.289" transform="matrix(.1 0 0 -.1 0 274)"/></g></svg>