<svg xmlns="http://www.w3.org/2000/svg" xmlns:xlink="http://www.w3.org/1999/xlink" width="379pt" height="275pt" viewBox="0 0 379 275"><defs><clipPath id="a"><path d="M20 9.5h1v255h-1zm0 0"/></clipPath><clipPath id="b"><path d="M20 136h340v2H20zm0 0"/></clipPath><clipPath id="c"><path d="M20 9.5h1v255h-1zm0 0"/></clipPath><clipPath id="d"><path d="M76 9.5h1v255h-1zm0 0"/></clipPath><clipPath id="e"><path d="M133 9.5h1v255h-1zm0 0"/></clipPath><clipPath id="f"><path d="M189 9.5h2v255h-2zm0 0"/></clipPath><clipPath id="g"><path d="M246 9.5h1v255h-1zm0 0"/></clipPath><clipPath id="h"><path d="M303 9.5h1v255h-1zm0 0"/></clipPath><clipPath id="i"><path d="M359 9.5h1v255h-1zm0 0"/></clipPath><clipPath id="j"><path d="M20 264h340v.5H20zm0 0"/></clipPath><clipPath id="k"><path d="M20 200h340v2H20zm0 0"/></clipPath><clipPath id="l"><path d="M20 136h340v2H20zm0 0"/></clipPath><clipPath id="m"><path d="M20 72h340v2H20zm0 0"/></clipPath><clipPath id="n"><path d="M20 9.5h340v.5H20zm0 0"/></clipPath><clipPath id="v"><path d="M20 9.5h340V249H20zm0 0"/></clipPath><clipPath id="w"><path d="M20 9.5h340V149H20zm0 0"/></clipPath><clipPath id="x"><path d="M20 125h340v139.5H20zm0 0"/></clipPath><symbol overflow="visible" id="o"><path style="stroke:none" d="M2.063-5.313c-.5 0-.938.22-1.22.579C.5-4.266.329-3.563.329-2.578c0 1.797.594 2.75 1.734 2.75 1.126 0 1.735-.953 1.735-2.703 0-1.031-.156-1.719-.516-2.203-.281-.375-.719-.579-1.219-.579zm0 .579c.718 0 1.062.718 1.062 2.14 0 1.516-.344 2.219-1.078 2.219C1.344-.375 1-1.109 1-2.563c0-1.453.344-2.171 1.063-2.171zm0 0"/></symbol><symbol overflow="visible" id="p"><path style="stroke:none" d="M3.563-5.313H.828L.422-2.421h.61c.312-.375.562-.5.984-.5.703 0 1.156.485 1.156 1.281 0 .766-.438 1.235-1.156 1.235-.579 0-.938-.297-1.094-.906H.266c.093.437.156.656.312.843.313.406.844.64 1.453.64 1.063 0 1.813-.78 1.813-1.905 0-1.047-.688-1.766-1.719-1.766-.375 0-.672.094-.984.313l.218-1.485h2.204zm0 0"/></symbol><symbol overflow="visible" id="q"><path style="stroke:none" d="M1.938-3.781V0h.671v-5.313h-.437c-.235.813-.39.922-1.406 1.047v.485zm0 0"/></symbol><symbol overflow="visible" id="r"><path style="stroke:none" d="M3.797-.656H1c.063-.438.313-.703.953-1.094l.75-.406c.75-.406 1.125-.953 1.125-1.594 0-.453-.172-.86-.484-1.14-.328-.298-.719-.423-1.219-.423-.672 0-1.172.235-1.469.688-.187.281-.265.61-.281 1.156h.656c.032-.36.078-.578.157-.75.171-.328.515-.515.921-.515.594 0 1.047.421 1.047.984 0 .422-.25.781-.719 1.063l-.687.39C.64-1.672.312-1.172.25 0h3.547zm0 0"/></symbol><symbol overflow="visible" id="s"><path style="stroke:none" d="M1.656-2.438h.36c.734 0 1.109.329 1.109.954 0 .671-.422 1.078-1.11 1.078-.718 0-1.078-.36-1.109-1.14H.234c.032.421.11.702.235.952.281.5.797.766 1.531.766 1.094 0 1.797-.656 1.797-1.656 0-.672-.266-1.047-.906-1.266.5-.203.75-.578.75-1.11 0-.906-.61-1.453-1.625-1.453-1.079 0-1.641.579-1.657 1.72h.657c0-.329.03-.516.109-.673.156-.296.484-.468.906-.468.578 0 .938.343.938.906 0 .375-.14.594-.438.719-.172.078-.406.109-.875.109zm0 0"/></symbol><symbol overflow="visible" id="t"><path style="stroke:none" d="M2.125-2.344H.344v.547h1.781zm0 0"/></symbol><symbol overflow="visible" id="u"><path style="stroke:none" d="M1.438-.781H.655V0h.781zm0 0"/></symbol></defs><g clip-path="url(#a)"><path style="fill:none;stroke-width:6.25;stroke-linecap:round;stroke-linejoin:miter;stroke:#bfbfbf;stroke-opacity:1;stroke-miterlimit:10" d="M200 105v2550" transform="matrix(.1 0 0 -.1 0 275)"/></g><g clip-path="url(#b)"><path style="fill:none;stroke-width:6.25;stroke-linecap:round;stroke-linejoin:miter;stroke:#bfbfbf;stroke-opacity:1;stroke-miterlimit:10" d="M200 1380h3400" transform="matrix(.1 0 0 -.1 0 275)"/></g><g clip-path="url(#c)"><path style="fill:none;stroke-width:6.25;stroke-linecap:round;stroke-linejoin:miter;stroke:#bfbfbf;stroke-opacity:1;stroke-dasharray:12.5,18.75;stroke-miterlimit:10" d="M200 105v2550" transform="matrix(.1 0 0 -.1 0 275)"/></g><g clip-path="url(#d)"><path style="fill:none;stroke-width:6.25;stroke-linecap:round;stroke-linejoin:miter;stroke:#bfbfbf;stroke-opacity:1;stroke-dasharray:12.5,18.75;stroke-miterlimit:10" d="M766.68 105v2550" transform="matrix(.1 0 0 -.1 0 275)"/></g><g clip-path="url(#e)"><path style="fill:none;stroke-width:6.25;stroke-linecap:round;stroke-linejoin:miter;stroke:#bfbfbf;stroke-opacity:1;stroke-dasharray:12.5,18.75;stroke-miterlimit:10" d="M1333.32 105v2550" transform="matrix(.1 0 0 -.1 0 275)"/></g><g clip-path="url(#f)"><path style="fill:none;stroke-width:6.25;stroke-linecap:round;stroke-linejoin:miter;stroke:#bfbfbf;stroke-opacity:1;stroke-dasharray:12.5,18.75;stroke-miterlimit:10" d="M1900 105v2550" transform="matrix(.1 0 0 -.1 0 275)"/></g><g clip-path="url(#g)"><path style="fill:none;stroke-width:6.25;stroke-linecap:round;stroke-linejoin:miter;stroke:#bfbfbf;stroke-opacity:1;stroke-dasharray:12.5,18.75;stroke-miterlimit:10" d="M2466.68 105v2550" transform="matrix(.1 0 0 -.1 0 275)"/></g><g clip-path="url(#h)"><path style="fill:none;stroke-width:6.25;stroke-linecap:round;stroke-linejoin:miter;stroke:#bfbfbf;stroke-opacity:1;stroke-dasharray:12.5,18.75;stroke-miterlimit:10" d="M3033.32 105v2550" transform="matrix(.1 0 0 -.1 0 275)"/></g><g clip-path="url(#i)"><path style="fill:none;stroke-width:6.25;stroke-linecap:round;stroke-linejoin:miter;stroke:#bfbfbf;stroke-opacity:1;stroke-dasharray:12.5,18.75;stroke-miterlimit:10" d="M3600 105v2550" transform="matrix(.1 0 0 -.1 0 275)"/></g><g clip-path="url(#j)"><path style="fill:none;stroke-width:6.25;stroke-linecap:round;stroke-linejoin:miter;stroke:#bfbfbf;stroke-opacity:1;stroke-dasharray:12.5,18.75;stroke-miterlimit:10" d="M200 105h3400" transform="matrix(.1 0 0 -.1 0 275)"/></g><g clip-path="url(#k)"><path style="fill:none;stroke-width:6.25;stroke-linecap:round;stroke-linejoin:miter;stroke:#bfbfbf;stroke-opacity:1;stroke-dasharray:12.5,18.75;stroke-miterlimit:10" d="M200 742.5h3400" transform="matrix(.1 0 0 -.1 0 275)"/></g><g clip-path="url(#l)"><path style="fill:none;stroke-width:6.25;stroke-linecap:round;stroke-linejoin:miter;stroke:#bfbfbf;stroke-opacity:1;stroke-dasharray:12.5,18.75;stroke-miterlimit:10" d="M200 1380h3400" transform="matrix(.1 0 0 -.1 0 275)"/></g><g clip-path="url(#m)"><path style="fill:none;stroke-width:6.25;stroke-linecap:round;stroke-linejoin:miter;stroke:#bfbfbf;stroke-opacity:1;stroke-dasharray:12.5,18.75;stroke-miterlimit:10" d="M200 2017.5h3400" transform="matrix(.1 0 0 -.1 0 275)"/></g><g clip-path="url(#n)"><path style="fill:none;stroke-width:6.25;stroke-linecap:round;stroke-linejoin:miter;stroke:#bfbfbf;stroke-opacity:1;stroke-dasharray:12.5,18.75;stroke-miterlimit:10" d="M200 2655h3400" transform="matrix(.1 0 0 -.1 0 275)"/></g><path style="fill:none;stroke-width:12.5;stroke-linecap:square;stroke-linejoin:miter;stroke:#000;stroke-opacity:1;stroke-miterlimit:10" d="M200 105h3400" transform="matrix(.1 0 0 -.1 0 275)"/><path style="fill:none;stroke-width:6.25;stroke-linecap:butt;stroke-linejoin:miter;stroke:#000;stroke-opacity:1;stroke-miterlimit:10" d="M200 105v50m56.68-50v25m56.64-25v25M370 105v25m56.68-25v25m56.64-25v25M540 105v25m56.68-25v25m56.64-25v25M710 105v25m56.68-25v50m56.64-50v25M880 105v25m56.68-25v25m56.64-25v25m56.68-25v25m56.68-25v25m56.64-25v25m56.68-25v25m56.68-25v25m56.64-25v50m56.68-50v25m56.68-25v25m56.64-25v25m56.68-25v25m56.68-25v25m56.64-25v25m56.68-25v25m56.68-25v25m56.64-25v25m56.68-25v50m56.68-50v25m56.64-25v25m56.68-25v25m56.68-25v25m56.64-25v25m56.68-25v25m56.68-25v25m56.64-25v25m56.68-25v25m56.68-25v50m56.64-50v25m56.68-25v25m56.68-25v25m56.64-25v25m56.68-25v25m56.68-25v25m56.64-25v25m56.68-25v25m56.68-25v25m56.64-25v50m56.68-50v25m56.68-25v25m56.64-25v25m56.68-25v25m56.68-25v25m56.64-25v25m56.68-25v25m56.68-25v25m56.64-25v25m56.68-25v50" transform="matrix(.1 0 0 -.1 0 275)"/><use xlink:href="#o" x="17.29" y="274.5" style="fill:#000;fill-opacity:1"/><use xlink:href="#p" x="74.165" y="274.5" style="fill:#000;fill-opacity:1"/><g style="fill:#000;fill-opacity:1"><use xlink:href="#q" x="128.955" y="274.5"/><use xlink:href="#o" x="133.125" y="274.5"/></g><g style="fill:#000;fill-opacity:1"><use xlink:href="#q" x="185.83" y="274.5"/><use xlink:href="#p" x="190" y="274.5"/></g><g style="fill:#000;fill-opacity:1"><use xlink:href="#r" x="242.08" y="274.5"/><use xlink:href="#o" x="246.25" y="274.5"/></g><g style="fill:#000;fill-opacity:1"><use xlink:href="#r" x="298.955" y="274.5"/><use xlink:href="#p" x="303.125" y="274.5"/></g><g style="fill:#000;fill-opacity:1"><use xlink:href="#s" x="355.83" y="274.5"/><use xlink:href="#o" x="360" y="274.5"/></g><path style="fill:none;stroke-width:12.5;stroke-linecap:square;stroke-linejoin:miter;stroke:#000;stroke-opacity:1;stroke-miterlimit:10" d="M200 2655h3400" transform="matrix(.1 0 0 -.1 0 275)"/><path style="fill:none;stroke-width:6.25;stroke-linecap:butt;stroke-linejoin:miter;stroke:#000;stroke-opacity:1;stroke-miterlimit:10" d="M200 2655v-50m56.68 50v-25m56.64 25v-25m56.68 25v-25m56.68 25v-25m56.64 25v-25m56.68 25v-25m56.68 25v-25m56.64 25v-25m56.68 25v-25m56.68 25v-50m56.64 50v-25m56.68 25v-25m56.68 25v-25m56.64 25v-25m56.68 25v-25m56.68 25v-25m56.64 25v-25m56.68 25v-25m56.68 25v-25m56.64 25v-50m56.68 50v-25m56.68 25v-25m56.64 25v-25m56.68 25v-25m56.68 25v-25m56.64 25v-25m56.68 25v-25m56.68 25v-25m56.64 25v-25m56.68 25v-50m56.68 50v-25m56.64 25v-25m56.68 25v-25m56.68 25v-25m56.64 25v-25m56.68 25v-25m56.68 25v-25m56.64 25v-25m56.68 25v-25m56.68 25v-50m56.64 50v-25m56.68 25v-25m56.68 25v-25m56.64 25v-25m56.68 25v-25m56.68 25v-25m56.64 25v-25m56.68 25v-25m56.68 25v-25m56.64 25v-50m56.68 50v-25m56.68 25v-25m56.64 25v-25m56.68 25v-25m56.68 25v-25m56.64 25v-25m56.68 25v-25m56.68 25v-25m56.64 25v-25m56.68 25v-50" transform="matrix(.1 0 0 -.1 0 275)"/><use xlink:href="#o" x="17.29" y="6.375" style="fill:#000;fill-opacity:1"/><use xlink:href="#p" x="74.165" y="6.375" style="fill:#000;fill-opacity:1"/><g style="fill:#000;fill-opacity:1"><use xlink:href="#q" x="128.955" y="6.375"/><use xlink:href="#o" x="133.125" y="6.375"/></g><g style="fill:#000;fill-opacity:1"><use xlink:href="#q" x="185.83" y="6.375"/><use xlink:href="#p" x="190" y="6.375"/></g><g style="fill:#000;fill-opacity:1"><use xlink:href="#r" x="242.08" y="6.375"/><use xlink:href="#o" x="246.25" y="6.375"/></g><g style="fill:#000;fill-opacity:1"><use xlink:href="#r" x="298.955" y="6.375"/><use xlink:href="#p" x="303.125" y="6.375"/></g><g style="fill:#000;fill-opacity:1"><use xlink:href="#s" x="355.83" y="6.375"/><use xlink:href="#o" x="360" y="6.375"/></g><path style="fill:none;stroke-width:12.5;stroke-linecap:square;stroke-linejoin:miter;stroke:#000;stroke-opacity:1;stroke-miterlimit:10" d="M200 105v2550" transform="matrix(.1 0 0 -.1 0 275)"/><path style="fill:none;stroke-width:6.25;stroke-linecap:butt;stroke-linejoin:miter;stroke:#000;stroke-opacity:1;stroke-miterlimit:10" d="M200 105h50m-50 63.75h25m-25 63.75h25m-25 63.75h25M200 360h25m-25 63.75h25m-25 63.75h25m-25 63.75h25M200 615h25m-25 63.75h25m-25 63.75h50m-50 63.75h25M200 870h25m-25 63.75h25m-25 63.75h25m-25 63.75h25M200 1125h25m-25 63.75h25m-25 63.75h25m-25 63.75h25M200 1380h50m-50 63.75h25m-25 63.75h25m-25 63.75h25M200 1635h25m-25 63.75h25m-25 63.75h25m-25 63.75h25M200 1890h25m-25 63.75h25m-25 63.75h50m-50 63.75h25M200 2145h25m-25 63.75h25m-25 63.75h25m-25 63.75h25M200 2400h25m-25 63.75h25m-25 63.75h25m-25 63.75h25M200 2655h50" transform="matrix(.1 0 0 -.1 0 275)"/><g style="fill:#000;fill-opacity:1"><use xlink:href="#t" x=".204" y="268.25"/><use xlink:href="#q" x="2.701" y="268.25"/><use xlink:href="#u" x="6.871" y="268.25"/><use xlink:href="#o" x="8.956" y="268.25"/></g><g style="fill:#000;fill-opacity:1"><use xlink:href="#t" x=".204" y="203.875"/><use xlink:href="#o" x="2.701" y="203.875"/><use xlink:href="#u" x="6.871" y="203.875"/><use xlink:href="#p" x="8.956" y="203.875"/></g><g style="fill:#000;fill-opacity:1"><use xlink:href="#o" x="2.701" y="140.125"/><use xlink:href="#u" x="6.871" y="140.125"/><use xlink:href="#o" x="8.956" y="140.125"/></g><g style="fill:#000;fill-opacity:1"><use xlink:href="#o" x="2.701" y="76.375"/><use xlink:href="#u" x="6.871" y="76.375"/><use xlink:href="#p" x="8.956" y="76.375"/></g><g style="fill:#000;fill-opacity:1"><use xlink:href="#q" x="2.701" y="12.625"/><use xlink:href="#u" x="6.871" y="12.625"/><use xlink:href="#o" x="8.956" y="12.625"/></g><path style="fill:none;stroke-width:12.5;stroke-linecap:square;stroke-linejoin:miter;stroke:#000;stroke-opacity:1;stroke-miterlimit:10" d="M3600 105v2550" transform="matrix(.1 0 0 -.1 0 275)"/><path style="fill:none;stroke-width:6.25;stroke-linecap:butt;stroke-linejoin:miter;stroke:#000;stroke-opacity:1;stroke-miterlimit:10" d="M3600 105h-50m50 63.75h-25m25 63.75h-25m25 63.75h-25m25 63.75h-25m25 63.75h-25m25 63.75h-25m25 63.75h-25m25 63.75h-25m25 63.75h-25m25 63.75h-50m50 63.75h-25m25 63.75h-25m25 63.75h-25m25 63.75h-25m25 63.75h-25m25 63.75h-25m25 63.75h-25m25 63.75h-25m25 63.75h-25m25 63.75h-50m50 63.75h-25m25 63.75h-25m25 63.75h-25m25 63.75h-25m25 63.75h-25m25 63.75h-25m25 63.75h-25m25 63.75h-25m25 63.75h-25m25 63.75h-50m50 63.75h-25m25 63.75h-25m25 63.75h-25m25 63.75h-25m25 63.75h-25m25 63.75h-25m25 63.75h-25m25 63.75h-25m25 63.75h-25m25 63.75h-50" transform="matrix(.1 0 0 -.1 0 275)"/><g style="fill:#000;fill-opacity:1"><use xlink:href="#t" x="366.25" y="268.25"/><use xlink:href="#q" x="368.748" y="268.25"/><use xlink:href="#u" x="372.918" y="268.25"/><use xlink:href="#o" x="375.002" y="268.25"/></g><g style="fill:#000;fill-opacity:1"><use xlink:href="#t" x="366.25" y="203.875"/><use xlink:href="#o" x="368.748" y="203.875"/><use xlink:href="#u" x="372.918" y="203.875"/><use xlink:href="#p" x="375.002" y="203.875"/></g><g style="fill:#000;fill-opacity:1"><use xlink:href="#o" x="366.25" y="140.125"/><use xlink:href="#u" x="370.42" y="140.125"/><use xlink:href="#o" x="372.505" y="140.125"/></g><g style="fill:#000;fill-opacity:1"><use xlink:href="#o" x="366.25" y="76.375"/><use xlink:href="#u" x="370.42" y="76.375"/><use xlink:href="#p" x="372.505" y="76.375"/></g><g style="fill:#000;fill-opacity:1"><use xlink:href="#q" x="366.25" y="12.625"/><use xlink:href="#u" x="370.42" y="12.625"/><use xlink:href="#o" x="372.505" y="12.625"/></g><g clip-path="url(#v)"><path style="fill:none;stroke-width:12.5;stroke-linecap:round;stroke-linejoin:miter;stroke:#00008b;stroke-opacity:1;stroke-miterlimit:10" d="m200 2655 6.25-8.945 6.25-12.696 6.25-16.406 6.25-20 6.25-23.476 6.25-26.875 6.25-30.157 6.25-33.28 6.25-36.29 6.25-39.14 6.25-41.876 6.25-44.414 6.25-46.797 6.25-49.023 6.25-51.055 6.25-52.93 6.25-54.609 6.25-56.133 6.25-57.421 6.25-58.516 6.25-59.492 6.25-60.196 6.25-60.78 6.25-61.095 6.25-61.289 6.25-61.25 6.25-61.054 6.25-60.664 6.25-60.079 6.25-59.296 6.25-58.399 6.25-57.304 6.25-56.055 6.25-54.61 6.25-53.085 6.25-51.329 6.25-49.492 6.25-47.539 6.25-45.43L450 773.36l6.25-40.898 6.25-38.438 6.25-35.937 6.25-33.32 6.25-30.664 6.25-27.93 6.25-25.117L500 518.75l6.25-19.414 6.25-16.524 6.25-13.593 6.25-10.664 6.25-7.735 6.25-4.804 6.25-1.914 6.25.976 6.25 3.828 6.25 6.602 6.25 9.375 6.25 12.07 6.25 14.688 6.25 17.226 6.25 19.727 6.25 22.11 6.25 24.374 6.25 26.563 6.25 28.672 6.25 30.625 6.25 32.5 6.25 34.257 6.25 35.86 6.25 37.304 6.25 38.711 6.25 39.922 6.25 41.016L675 962.5l6.25 42.773 6.25 43.477 6.25 43.984 6.25 44.414 6.25 44.649 6.25 44.726 6.25 44.766 6.25 44.57 6.25 44.297 6.25 43.867 6.25 43.282 6.25 42.617 6.25 41.836 6.25 40.898 6.25 39.883 6.25 38.711 6.25 37.46 6.25 36.095 6.25 34.687 6.25 33.125 6.25 31.485 6.25 29.804 6.25 28.008 6.25 26.211 6.25 24.258 6.25 22.344 6.25 20.312 6.25 18.281 6.25 16.211 6.25 14.14 6.25 11.993 6.25 9.844 6.25 7.734 6.25 5.586 6.25 3.438 6.25 1.328 6.25-.782 6.25-2.851 6.25-4.922 6.25-6.914 6.25-8.867 6.25-10.781 6.25-12.657 6.25-14.453 6.25-16.172 6.25-17.89 6.25-19.453 6.25-20.977 6.25-22.422 6.25-23.789 6.25-25.039 6.25-26.21 6.25-27.306 6.25-28.32 6.25-29.18 6.25-30 6.25-30.664 6.25-31.289 6.25-31.758 6.25-32.109 6.25-32.46 6.25-32.618 6.25-32.695 6.25-32.657 6.25-32.578 6.25-32.304 6.25-32.032 6.25-31.64 6.25-31.094 6.25-30.547 6.25-29.844 6.25-29.101 6.25-28.242 6.25-27.344 6.25-26.328 6.25-25.274 6.25-24.18 6.25-22.968 6.25-21.719 6.25-20.39 6.25-19.102 6.25-17.695 6.25-16.25 6.25-14.805 6.25-13.32 6.25-11.797 6.25-10.235 6.25-8.71 6.25-7.15 6.25-5.585 6.25-4.023 6.25-2.5 6.25-.899 6.25.625 6.25 2.11 6.25 3.632 6.25 5.117 6.25 6.524 6.25 7.93 6.25 9.257 6.25 10.625 6.25 11.875 6.25 13.086 6.25 14.22 6.25 15.39 6.25 16.406 6.25 17.383 6.25 18.32 6.25 19.18 6.25 19.96 6.25 20.704 6.25 21.328 6.25 21.953 6.25 22.422 6.25 22.852 6.25 23.203 6.25 23.476 6.25 23.711 6.25 23.79 6.25 23.906 6.25 23.867 6.25 23.75 6.25 23.632 6.25 23.399 6.25 23.047 6.25 22.734 6.25 22.266 6.25 21.797 6.25 21.21 6.25 20.626 6.25 19.96 6.25 19.22 6.25 18.437 6.25 17.617 6.25 16.719 6.25 15.86 6.25 14.882 6.25 13.906 6.25 12.89 6.25 11.837 6.25 10.781 6.25 9.688 6.25 8.554 6.25 7.461 6.25 6.328 6.25 5.196 6.25 4.023 6.25 2.93 6.25 1.757 6.25.626 6.25-.47 6.25-1.6 6.25-2.696 6.25-3.75 6.25-4.805 6.25-5.82 6.25-6.836 6.25-7.734 6.25-8.711 6.25-9.57 6.25-10.47 6.25-11.21 6.25-12.032 6.25-12.734 6.25-13.398 6.25-14.024 6.25-14.61 6.25-15.116 6.25-15.625 6.25-16.016 6.25-16.367 6.25-16.719 6.25-16.953 6.25-17.149 6.25-17.304 6.25-17.422 6.25-17.461 6.25-17.422 6.25-17.344 6.25-17.265 6.25-17.07 6.25-16.837 6.25-16.601 6.25-16.25 6.25-15.899 6.25-15.507 6.25-15.04 6.25-14.53 6.25-14.024 6.25-13.438 6.25-12.851 6.25-12.227 6.25-11.523 6.25-10.86 6.25-10.117 6.25-9.414 6.25-8.633 6.25-7.812 6.25-7.07 6.25-6.25 6.25-5.391 6.25-4.61 6.25-3.75 6.25-2.93 6.25-2.109 6.25-1.25 6.25-.43 6.25.391 6.25 1.172 6.25 1.993 6.25 2.773 6.25 3.516 6.25 4.296 6.25 5 6.25 5.704 6.25 6.367 6.25 7.031 6.25 7.617 6.25 8.242 6.25 8.79 6.25 9.335 6.25 9.766 6.25 10.273 6.25 10.704 6.25 11.054 6.25 11.407 6.25 11.718 6.25 11.953 6.25 12.227 6.25 12.383 6.25 12.539 6.25 12.656 6.25 12.695 12.5 25.47 6.25 12.694 6.25 12.579 6.25 12.46 6.25 12.305 6.25 12.11 6.25 11.875 6.25 11.601 6.25 11.29 6.25 10.976 6.25 10.625 6.25 10.234 6.25 9.805 6.25 9.375 6.25 8.906 6.25 8.399 6.25 7.93 6.25 7.343 6.25 6.875 6.25 6.25 6.25 5.742 6.25 5.117 6.25 4.532 6.25 3.945 6.25 3.32 6.25 2.735 6.25 2.109 6.25 1.523 6.25.899 6.25.312 6.25-.312 6.25-.899 6.25-1.445 6.25-2.07 6.25-2.578 6.25-3.125 6.25-3.672 6.25-4.18 6.25-4.687 6.25-5.157 6.25-5.586 6.25-6.015 6.25-6.446 6.25-6.796 6.25-7.188 6.25-7.5 6.25-7.812 6.25-8.086 6.25-8.32 6.25-8.594 6.25-8.75 6.25-8.907 6.25-9.062 6.25-9.14 6.25-9.259 18.75-27.89 6.25-9.258 6.25-9.18 6.25-9.101 6.25-8.985 6.25-8.828 6.25-8.672 6.25-8.476 6.25-8.242 6.25-8.008 6.25-7.735 6.25-7.46 6.25-7.188 6.25-6.836 6.25-6.484 6.25-6.133 6.25-5.742 6.25-5.391 6.25-5 6.25-4.57 6.25-4.14 6.25-3.75 6.25-3.282 6.25-2.852 6.25-2.422 6.25-1.992 6.25-1.523 6.25-1.094 6.25-.664 6.25-.195 6.25.234 6.25.664 6.25 1.094 6.25 1.484 6.25 1.914 6.25 2.305 6.25 2.695 6.25 3.086 6.25 3.399 6.25 3.789 6.25 4.101 6.25 4.414 6.25 4.688 6.25 5 6.25 5.234 6.25 5.508 6.25 5.703 6.25 5.899 6.25 6.093 6.25 6.25 6.25 6.407 6.25 6.523 6.25 6.64 6.25 6.68 12.5 13.516 6.25 6.836 12.5 13.515 6.25 6.72 6.25 6.64 6.25 6.562 6.25 6.446 6.25 6.328 6.25 6.21 6.25 5.977 6.25 5.86 6.25 5.664 6.25 5.43 6.25 5.234 6.25 4.96 6.25 4.727 6.25 4.493 6.25 4.18 6.25 3.945 6.25 3.632 6.25 3.32 6.25 3.008 6.25 2.735 6.25 2.422 6.25 2.07 6.25 1.758 6.25 1.406 6.25 1.133 6.25.781 6.25.469 6.25.117 6.25-.195 6.25-.469 6.25-.82 6.25-1.094 6.25-1.406 6.25-1.68 6.25-1.992 6.25-2.227 6.25-2.539 6.25-2.734 6.25-3.008 6.25-3.242 6.25-3.438 6.25-3.632 6.25-3.868 6.25-4.023 6.25-4.14 6.25-4.337 6.25-4.453 6.25-4.57 6.25-4.688 6.25-4.765 6.25-4.844 6.25-4.883 6.25-4.922 18.75-14.882 12.5-9.844 6.25-4.844 6.25-4.805 6.25-4.687 6.25-4.61 6.25-4.53 6.25-4.376 6.25-4.297 6.25-4.101 6.25-3.985 6.25-3.789 6.25-3.632 6.25-3.477 6.25-3.242 6.25-3.047 6.25-2.89 6.25-2.618 6.25-2.422 6.25-2.226 6.25-1.954 6.25-1.757 6.25-1.524 6.25-1.25 6.25-1.054 6.25-.782 6.25-.586 6.25-.312 6.25-.117 6.25.156 6.25.351 6.25.626 6.25.78 6.25 1.055 6.25 1.25 6.25 1.446 6.25 1.64 6.25 1.836 6.25 2.032 6.25 2.187 6.25 2.344 6.25 2.539 6.25 2.656 6.25 2.813 6.25 2.968 6.25 3.047 6.25 3.164 6.25 3.243 6.25 3.359 6.25 3.398 6.25 3.477 12.5 7.11 6.25 3.632 6.25 3.594 12.5 7.265 12.5 7.188 12.5 7.031 6.25 3.438" transform="matrix(.1 0 0 -.1 0 275)"/></g><g clip-path="url(#w)"><path style="fill:none;stroke-width:12.5;stroke-linecap:round;stroke-linejoin:miter;stroke:#006400;stroke-opacity:1;stroke-miterlimit:10" d="m200 2655 12.5-13.984 6.25-6.954 12.5-13.75 12.5-13.593 6.25-6.758 12.5-13.36 6.25-6.64 6.25-6.602 6.25-6.562 6.25-6.524 12.5-12.968 6.25-6.407 12.5-12.734 12.5-12.578 6.25-6.25 6.25-6.211 12.5-12.344 6.25-6.093 12.5-12.11 6.25-6.015 6.25-5.977 6.25-5.938 12.5-11.796 12.5-11.641 6.25-5.781 12.5-11.485 12.5-11.328 6.25-5.625 12.5-11.172 12.5-11.015 6.25-5.47 12.5-10.858 6.25-5.391 6.25-5.352 6.25-5.312 12.5-10.547 6.25-5.234 12.5-10.391 6.25-5.156 6.25-5.117 12.5-10.157 6.25-5.039 12.5-10 6.25-4.922 6.25-4.96 12.5-9.766 6.25-4.844 12.5-9.61 6.25-4.765 12.5-9.453 6.25-4.688 12.5-9.296 6.25-4.61 12.5-9.14 12.5-9.063 6.25-4.492 6.25-4.453 18.75-13.242 18.75-13.008 6.25-4.297 12.5-8.516 6.25-4.218 18.75-12.54 18.75-12.304 6.25-4.063 18.75-12.07 6.25-3.945 6.25-3.985 18.75-11.718 6.25-3.868 12.5-7.656 12.5-7.578 12.5-7.5 12.5-7.422 12.5-7.344 6.25-3.632 18.75-10.782 12.5-7.11 12.5-7.03 6.25-3.477 18.75-10.312 12.5-6.797 12.5-6.72 12.5-6.64 18.75-9.843 6.25-3.204 6.25-3.242 6.25-3.203 18.75-9.492 18.75-9.375 6.25-3.047 6.25-3.086 12.5-6.094 12.5-6.015 12.5-5.938 18.75-8.789 18.75-8.672 12.5-5.703 12.5-5.625 18.75-8.32 18.75-8.203 12.5-5.39 18.75-7.97 12.5-5.234 25-10.313 6.25-2.539 6.25-2.5 6.25-2.539 6.25-2.5 6.25-2.46 6.25-2.5 6.25-2.461 6.25-2.422 6.25-2.461 6.25-2.422 25-9.531 12.5-4.688 6.25-2.305 6.25-2.343 6.25-2.305 6.25-2.266 6.25-2.304 6.25-2.266 6.25-2.227 6.25-2.265 6.25-2.188 12.5-4.453 6.25-2.187 6.25-2.149 6.25-2.187 12.5-4.297 6.25-2.11 6.25-2.148 6.25-2.11 6.25-2.07 6.25-2.109 6.25-2.07 6.25-2.032 6.25-2.07 18.75-6.094 18.75-5.976 25-7.813 6.25-1.914 6.25-1.953 6.25-1.875 6.25-1.914 25-7.5 18.75-5.508 31.25-8.984 12.5-3.516 6.25-1.718 6.25-1.758 18.75-5.157 6.25-1.68 6.25-1.718 6.25-1.68 6.25-1.64 6.25-1.68 25-6.563 31.25-8.007 18.75-4.688 6.25-1.523 6.25-1.563 18.75-4.57 6.25-1.484 6.25-1.524 12.5-2.969 6.25-1.445 6.25-1.484 25-5.782 12.5-2.812 6.25-1.445 6.25-1.368 12.5-2.812 25-5.469 12.5-2.656 6.25-1.367 6.25-1.29 12.5-2.656 31.25-6.445 6.25-1.25 6.25-1.289 18.75-3.75 6.25-1.21 6.25-1.25 18.75-3.634 6.25-1.172 6.25-1.21 6.25-1.172 6.25-1.211 12.5-2.344 6.25-1.133 6.25-1.172 6.25-1.133 6.25-1.171 12.5-2.266 6.25-1.094 6.25-1.133 6.25-1.093 6.25-1.133 18.75-3.281 6.25-1.055 6.25-1.094 6.25-1.055 6.25-1.093 6.25-1.016 6.25-1.094 6.25-1.054 12.5-2.032 6.25-1.054 25-4.063 6.25-.976 6.25-1.016 12.5-1.953 6.25-1.016 6.25-.937 12.5-1.953 6.25-.938 6.25-.976 31.25-4.688 6.25-.898 6.25-.938 37.5-5.39 6.25-.86 6.25-.898 37.5-5.157 6.25-.82 6.25-.86 12.5-1.64 6.25-.86 6.25-.82 6.25-.78 18.75-2.462 12.5-1.562 6.25-.82 12.5-1.563 6.25-.742 18.75-2.344 18.75-2.227 6.25-.78 18.75-2.227 6.25-.704 6.25-.742 12.5-1.406 6.25-.742 37.5-4.219 6.25-.664 6.25-.703 6.25-.664 6.25-.703 31.25-3.32 6.25-.626 12.5-1.328 6.25-.625 6.25-.664 50-5 6.25-.586 6.25-.625 12.5-1.172 6.25-.625 31.25-2.93 6.25-.546 12.5-1.172 6.25-.547 6.25-.586 12.5-1.094 6.25-.585 25-2.188 6.25-.508 12.5-1.094 6.25-.507 6.25-.547 6.25-.508 6.25-.547 12.5-1.016 6.25-.546 12.5-1.016 6.25-.469 18.75-1.523 6.25-.469 6.25-.508 6.25-.469 6.25-.507 6.25-.47 6.25-.507 56.25-4.219 6.25-.43 6.25-.468 6.25-.43 6.25-.469 12.5-.859 6.25-.469 50-3.437 6.25-.39 12.5-.86 6.25-.39 6.25-.43 12.5-.782 6.25-.43 62.5-3.906 6.25-.351 12.5-.782 6.25-.351 6.25-.39 12.5-.704 6.25-.39 12.5-.704 6.25-.39 25-1.406" transform="matrix(.1 0 0 -.1 0 275)"/></g><g clip-path="url(#x)"><path style="fill:none;stroke-width:12.5;stroke-linecap:round;stroke-linejoin:miter;stroke:#8b0000;stroke-opacity:1;stroke-miterlimit:10" d="m200 105 6.25 7.031 12.5 13.906 12.5 13.75 6.25 6.836L250 160.04l12.5 13.36 6.25 6.64 6.25 6.602 6.25 6.562 6.25 6.524 12.5 12.968 6.25 6.407 12.5 12.734 6.25 6.328 12.5 12.5 6.25 6.211 12.5 12.344 12.5 12.187 12.5 12.031 6.25 5.977 6.25 5.938 12.5 11.796 12.5 11.641 6.25 5.781 12.5 11.485 12.5 11.328 6.25 5.625 12.5 11.172 12.5 11.015 6.25 5.47 12.5 10.858 6.25 5.391 6.25 5.352L525 422.89l18.75 15.703 12.5 10.312 6.25 5.117L575 464.18l6.25 5.039 12.5 10 6.25 4.96 6.25 4.923 12.5 9.765 6.25 4.844 12.5 9.61 6.25 4.765 12.5 9.453 6.25 4.688 12.5 9.296 12.5 9.22 18.75 13.593 6.25 4.492 12.5 8.906 6.25 4.375 6.25 4.414 6.25 4.336 6.25 4.375 12.5 8.594 12.5 8.516 6.25 4.218 18.75 12.54 6.25 4.14 6.25 4.102 18.75 12.187 6.25 3.985 6.25 4.023 6.25 3.945 6.25 3.985L875 677.187l6.25 3.868 12.5 7.656 12.5 7.578 12.5 7.5 12.5 7.422 12.5 7.344 6.25 3.633 6.25 3.593 6.25 3.633 18.75 10.664 12.5 7.031 6.25 3.477 18.75 10.312 12.5 6.797 12.5 6.72 12.5 6.64 12.5 6.562 18.75 9.727 6.25 3.203 6.25 3.164 6.25 3.203 6.25 3.125 6.25 3.164 6.25 3.086 6.25 3.125 6.25 3.086 18.75 9.14 12.5 6.016 18.75 8.907 6.25 2.93 6.25 2.89 6.25 2.93 6.25 2.89 18.75 8.555 12.5 5.625 18.75 8.32 18.75 8.203 12.5 5.39 18.75 7.97 18.75 7.851 6.25 2.578 6.25 2.54 6.25 2.577 6.25 2.54 6.25 2.5 6.25 2.539 6.25 2.5 6.25 2.46 6.25 2.5 6.25 2.462 6.25 2.421 6.25 2.461 6.25 2.422 25 9.531 18.75 7.032 12.5 4.61 6.25 2.265 6.25 2.304 6.25 2.266 6.25 2.227 6.25 2.265 6.25 2.227 6.25 2.187 6.25 2.227 6.25 2.187 6.25 2.149 6.25 2.187 12.5 4.297 6.25 2.11 6.25 2.148 6.25 2.11 6.25 2.07 6.25 2.109 12.5 4.14 25 8.126 18.75 5.976 6.25 1.953 6.25 1.992 6.25 1.954 12.5 3.828 6.25 1.953 6.25 1.914 31.25 9.375 18.75 5.508 6.25 1.797 6.25 1.836 6.25 1.757 12.5 3.594 12.5 3.516 6.25 1.718 6.25 1.758 25 6.875 18.75 5.04 6.25 1.64 6.25 1.68 12.5 3.28 6.25 1.602 6.25 1.641 6.25 1.563 6.25 1.64 6.25 1.563 6.25 1.601 25 6.25 25 6.094 6.25 1.484 6.25 1.524 12.5 2.969 6.25 1.445 6.25 1.484 25 5.782 6.25 1.406 6.25 1.445 6.25 1.406 6.25 1.368 12.5 2.812 25 5.469 6.25 1.328 6.25 1.367 6.25 1.328 6.25 1.29 12.5 2.656 6.25 1.289 6.25 1.328 6.25 1.289 6.25 1.25 12.5 2.578 25 5 6.25 1.21 6.25 1.25 25 4.845 6.25 1.171 6.25 1.211 18.75 3.516 6.25 1.133 12.5 2.344 25 4.53 6.25 1.095 6.25 1.132 31.25 5.47 12.5 2.109 6.25 1.093 18.75 3.164 12.5 2.032 6.25 1.054 25 4.063 6.25.976 6.25 1.016 12.5 1.953 6.25 1.016 6.25.976 6.25.938 12.5 1.953 37.5 5.625 6.25.898 6.25.938 37.5 5.39 6.25.86 6.25.898 43.75 6.016 12.5 1.64 6.25.86 18.75 2.46 6.25.782 12.5 1.64 6.25.782 6.25.82 25 3.125 6.25.743 12.5 1.562 6.25.742 6.25.781 31.25 3.711 6.25.704 6.25.742 6.25.703 6.25.742 12.5 1.406 6.25.742 6.25.665 18.75 2.109 6.25.664 6.25.703 6.25.664 6.25.703 31.25 3.32 6.25.626 12.5 1.328 6.25.625 6.25.664 50 5 6.25.586 6.25.625 12.5 1.172 6.25.625 37.5 3.515 6.25.547 6.25.586 6.25.547 6.25.586 12.5 1.094 6.25.585 25 2.188 6.25.508 18.75 1.64 6.25.508 6.25.547 18.75 1.524 6.25.546 12.5 1.016 6.25.469 18.75 1.523 6.25.469 12.5 1.016 12.5.937 6.25.508 56.25 4.219 6.25.43 6.25.468 6.25.43 6.25.469 12.5.859 6.25.469 50 3.437 6.25.39 12.5.86 6.25.39 6.25.43 6.25.391 6.25.43 75 4.687 6.25.352 6.25.39 6.25.352 6.25.39 6.25.352 6.25.39 12.5.704 6.25.39 31.25 1.758" transform="matrix(.1 0 0 -.1 0 275)"/></g></svg>