<svg xmlns="http://www.w3.org/2000/svg" xmlns:xlink="http://www.w3.org/1999/xlink" width="496" height="130pt" viewBox="0 0 372 130"><defs><clipPath id="a"><path d="M6 3.793h1v120.7H6zm0 0"/></clipPath><clipPath id="b"><path d="M6 64h360v1H6zm0 0"/></clipPath><clipPath id="c"><path d="M6 3.793h1v120.7H6zm0 0"/></clipPath><clipPath id="d"><path d="M77 3.793h2v120.7h-2zm0 0"/></clipPath><clipPath id="e"><path d="M149 3.793h2v120.7h-2zm0 0"/></clipPath><clipPath id="f"><path d="M222 3.793h1v120.7h-1zm0 0"/></clipPath><clipPath id="g"><path d="M294 3.793h1v120.7h-1zm0 0"/></clipPath><clipPath id="h"><path d="M6 97h360v1H6zm0 0"/></clipPath><clipPath id="i"><path d="M6 64h360v1H6zm0 0"/></clipPath><clipPath id="j"><path d="M6 32h360v1H6zm0 0"/></clipPath><clipPath id="r"><path d="M6 8h360v112H6zm0 0"/></clipPath><symbol overflow="visible" id="k"><path style="stroke:none" d="M.938-2.422a.713.713 0 0 0-.547.266c-.172.219-.25.547-.25.984 0 .813.28 1.25.796 1.25s.797-.437.797-1.219c0-.484-.078-.796-.234-1.015a.72.72 0 0 0-.563-.266zm0 .266c.328 0 .484.328.484.984 0 .688-.156 1-.484 1-.329 0-.485-.328-.485-1 0-.656.156-.984.484-.984zm0 0"/></symbol><symbol overflow="visible" id="l"><path style="stroke:none" d="M1.734-.297H.454c.03-.203.14-.328.437-.5l.343-.187c.344-.172.516-.422.516-.72a.645.645 0 0 0-.234-.515c-.141-.14-.313-.203-.547-.203-.313 0-.531.11-.672.313a.987.987 0 0 0-.125.53h.297c.015-.155.031-.265.078-.343a.473.473 0 0 1 .422-.234c.265 0 .469.203.469.453 0 .187-.11.36-.329.484l-.312.172C.297-.766.14-.53.109 0h1.625zm0 0"/></symbol><symbol overflow="visible" id="m"><path style="stroke:none" d="M1.125-.578V0h.297v-.578h.36v-.266h-.36v-1.578h-.219L.093-.89v.313zm0-.266H.359l.766-1.062zm0 0"/></symbol><symbol overflow="visible" id="n"><path style="stroke:none" d="M1.703-1.781c-.062-.407-.312-.64-.687-.64-.266 0-.5.14-.657.343-.14.234-.218.531-.218.984 0 .407.062.657.218.875.125.188.329.297.61.297.453 0 .781-.344.781-.812 0-.454-.297-.766-.734-.766-.25 0-.438.094-.563.266 0-.594.203-.922.547-.922.203 0 .36.14.406.375zm-.734.547c.297 0 .484.203.484.515 0 .313-.219.531-.484.531-.281 0-.5-.234-.5-.546 0-.297.203-.5.5-.5zm0 0"/></symbol><symbol overflow="visible" id="o"><path style="stroke:none" d="M1.344-1.266c.25-.156.328-.28.328-.5 0-.39-.297-.656-.734-.656-.422 0-.72.266-.72.656 0 .22.079.344.329.5-.281.125-.422.329-.422.594 0 .438.344.75.813.75.484 0 .812-.312.812-.75 0-.265-.125-.469-.406-.594zm-.407-.89c.266 0 .422.156.422.39 0 .22-.171.375-.421.375-.25 0-.422-.156-.422-.375 0-.234.171-.39.421-.39zm0 1.015c.297 0 .516.188.516.47 0 .296-.219.484-.516.484-.296 0-.5-.188-.5-.485 0-.281.204-.469.5-.469zm0 0"/></symbol><symbol overflow="visible" id="p"><path style="stroke:none" d="M.89-1.719V0h.297v-2.422H.984c-.093.375-.171.422-.64.485v.218zm0 0"/></symbol><symbol overflow="visible" id="q"><path style="stroke:none" d="M.969-1.063H.156v.25H.97zm0 0"/></symbol></defs><path style="stroke:none;fill-rule:nonzero;fill:#fff;fill-opacity:1" d="M6 124.492h360V3.793H6zm0 0"/><g clip-path="url(#a)"><path style="fill:none;stroke-width:2.84857;stroke-linecap:round;stroke-linejoin:miter;stroke:#bfbfbf;stroke-opacity:1;stroke-miterlimit:10" d="M199.4-105.395V-1316.03" transform="matrix(.1003 0 0 .0997 -14 135)"/></g><g clip-path="url(#b)"><path style="fill:none;stroke-width:2.84857;stroke-linecap:round;stroke-linejoin:miter;stroke:#bfbfbf;stroke-opacity:1;stroke-miterlimit:10" d="M199.4-704.659h3589.196" transform="matrix(.1003 0 0 .0997 -14 135)"/></g><g clip-path="url(#c)"><path style="fill:none;stroke-width:2.84857;stroke-linecap:round;stroke-linejoin:miter;stroke:#bfbfbf;stroke-opacity:1;stroke-dasharray:5.69714,8.54571;stroke-miterlimit:10" d="M199.4-105.395V-1316.03" transform="matrix(.1003 0 0 .0997 -14 135)"/></g><g clip-path="url(#d)"><path style="fill:none;stroke-width:2.84857;stroke-linecap:round;stroke-linejoin:miter;stroke:#bfbfbf;stroke-opacity:1;stroke-dasharray:5.69714,8.54571;stroke-miterlimit:10" d="M917.823-105.395V-1316.03" transform="matrix(.1003 0 0 .0997 -14 135)"/></g><g clip-path="url(#e)"><path style="fill:none;stroke-width:2.84857;stroke-linecap:round;stroke-linejoin:miter;stroke:#bfbfbf;stroke-opacity:1;stroke-dasharray:5.69714,8.54571;stroke-miterlimit:10" d="M1636.286-105.395V-1316.03" transform="matrix(.1003 0 0 .0997 -14 135)"/></g><g clip-path="url(#f)"><path style="fill:none;stroke-width:2.84857;stroke-linecap:round;stroke-linejoin:miter;stroke:#bfbfbf;stroke-opacity:1;stroke-dasharray:5.69714,8.54571;stroke-miterlimit:10" d="M2354.71-105.395V-1316.03" transform="matrix(.1003 0 0 .0997 -14 135)"/></g><g clip-path="url(#g)"><path style="fill:none;stroke-width:2.84857;stroke-linecap:round;stroke-linejoin:miter;stroke:#bfbfbf;stroke-opacity:1;stroke-dasharray:5.69714,8.54571;stroke-miterlimit:10" d="M3073.133-105.395V-1316.03" transform="matrix(.1003 0 0 .0997 -14 135)"/></g><g clip-path="url(#h)"><path style="fill:none;stroke-width:2.84857;stroke-linecap:round;stroke-linejoin:miter;stroke:#bfbfbf;stroke-opacity:1;stroke-dasharray:5.69714,8.54571;stroke-miterlimit:10" d="M199.4-378.326h3589.196" transform="matrix(.1003 0 0 .0997 -14 135)"/></g><g clip-path="url(#i)"><path style="fill:none;stroke-width:2.84857;stroke-linecap:round;stroke-linejoin:miter;stroke:#bfbfbf;stroke-opacity:1;stroke-dasharray:5.69714,8.54571;stroke-miterlimit:10" d="M199.4-704.659h3589.196" transform="matrix(.1003 0 0 .0997 -14 135)"/></g><g clip-path="url(#j)"><path style="fill:none;stroke-width:2.84857;stroke-linecap:round;stroke-linejoin:miter;stroke:#bfbfbf;stroke-opacity:1;stroke-dasharray:5.69714,8.54571;stroke-miterlimit:10" d="M199.4-1030.992h3589.196" transform="matrix(.1003 0 0 .0997 -14 135)"/></g><path style="fill:none;stroke-width:5.69714;stroke-linecap:square;stroke-linejoin:miter;stroke:#000;stroke-opacity:1;stroke-miterlimit:10" d="M199.4-105.395h3589.196" transform="matrix(.1003 0 0 .0997 -14 135)"/><path style="fill:none;stroke-width:2.84857;stroke-linecap:butt;stroke-linejoin:miter;stroke:#000;stroke-opacity:1;stroke-miterlimit:10" d="M199.4-105.395v-22.803m0 22.803v-11.402m71.854 11.402v-11.402m71.854 11.402v-11.402m71.815 11.402v-11.402m71.854 11.402v-11.402m71.854 11.402v-11.402m71.815 11.402v-11.402m71.854 11.402v-11.402m71.854 11.402v-11.402m143.669 11.402v-22.803m0 22.803v-11.402m71.854 11.402v-11.402m71.854 11.402v-11.402m71.854 11.402v-11.402m71.815 11.402v-11.402m71.855 11.402v-11.402m71.854 11.402v-11.402m71.854 11.402v-11.402m71.815 11.402v-11.402m143.708 11.402v-22.803m0 22.803v-11.402m71.814 11.402v-11.402m71.855 11.402v-11.402m71.854 11.402v-11.402m71.854 11.402v-11.402m71.854 11.402v-11.402m71.815 11.402v-11.402m71.854 11.402v-11.402m71.854 11.402v-11.402m143.67 11.402v-22.803m0 22.803v-11.402m71.853 11.402v-11.402m71.854 11.402v-11.402m71.815 11.402v-11.402m71.854 11.402v-11.402m71.854 11.402v-11.402m71.854 11.402v-11.402m71.854 11.402v-11.402m71.816 11.402v-11.402m143.669 11.402v-22.803m0 22.803v-11.402m71.854 11.402v-11.402m71.853 11.402v-11.402m71.816 11.402v-11.402m71.854 11.402v-11.402m71.854 11.402v-11.402m71.854 11.402v-11.402m71.854 11.402v-11.402m71.854 11.402v-11.402m143.669 11.402v-22.803m0 22.803v-11.402" transform="matrix(.1003 0 0 .0997 -14 135)"/><use xlink:href="#k" x="5.047" y="129.036" style="fill:#000;fill-opacity:1"/><g style="fill:#000;fill-opacity:1"><use xlink:href="#l" x="76.094" y="129.036"/><use xlink:href="#k" x="78" y="129.036"/></g><g style="fill:#000;fill-opacity:1"><use xlink:href="#m" x="148.095" y="129.036"/><use xlink:href="#k" x="150.001" y="129.036"/></g><g style="fill:#000;fill-opacity:1"><use xlink:href="#n" x="220.094" y="129.036"/><use xlink:href="#k" x="222.001" y="129.036"/></g><g style="fill:#000;fill-opacity:1"><use xlink:href="#o" x="292.095" y="129.036"/><use xlink:href="#k" x="294.001" y="129.036"/></g><g style="fill:#000;fill-opacity:1"><use xlink:href="#p" x="363.428" y="129.036"/><use xlink:href="#k" x="365.334" y="129.036"/><use xlink:href="#k" x="367.241" y="129.036"/></g><path style="fill:none;stroke-width:5.69714;stroke-linecap:square;stroke-linejoin:miter;stroke:#000;stroke-opacity:1;stroke-miterlimit:10" d="M199.4-1316.029h3589.196" transform="matrix(.1003 0 0 .0997 -14 135)"/><path style="fill:none;stroke-width:2.84857;stroke-linecap:butt;stroke-linejoin:miter;stroke:#000;stroke-opacity:1;stroke-miterlimit:10" d="M199.4-1316.029v22.764m0-22.764v11.402m71.854-11.402v11.402m71.854-11.402v11.402m71.815-11.402v11.402m71.854-11.402v11.402m71.854-11.402v11.402m71.815-11.402v11.402m71.854-11.402v11.402m71.854-11.402v11.402m143.669-11.402v22.764m0-22.764v11.402m71.854-11.402v11.402m71.854-11.402v11.402m71.854-11.402v11.402m71.815-11.402v11.402m71.855-11.402v11.402m71.854-11.402v11.402m71.854-11.402v11.402m71.815-11.402v11.402m143.708-11.402v22.764m0-22.764v11.402m71.814-11.402v11.402m71.855-11.402v11.402m71.854-11.402v11.402m71.854-11.402v11.402m71.854-11.402v11.402m71.815-11.402v11.402m71.854-11.402v11.402m71.854-11.402v11.402m143.67-11.402v22.764m0-22.764v11.402m71.853-11.402v11.402m71.854-11.402v11.402m71.815-11.402v11.402m71.854-11.402v11.402m71.854-11.402v11.402m71.854-11.402v11.402m71.854-11.402v11.402m71.816-11.402v11.402m143.669-11.402v22.764m0-22.764v11.402m71.854-11.402v11.402m71.853-11.402v11.402m71.816-11.402v11.402m71.854-11.402v11.402m71.854-11.402v11.402m71.854-11.402v11.402m71.854-11.402v11.402m71.854-11.402v11.402m143.669-11.402v22.764m0-22.764v11.402" transform="matrix(.1003 0 0 .0997 -14 135)"/><use xlink:href="#k" x="5.047" y="2.656" style="fill:#000;fill-opacity:1"/><g style="fill:#000;fill-opacity:1"><use xlink:href="#l" x="76.094" y="2.656"/><use xlink:href="#k" x="78" y="2.656"/></g><g style="fill:#000;fill-opacity:1"><use xlink:href="#m" x="148.095" y="2.656"/><use xlink:href="#k" x="150.001" y="2.656"/></g><g style="fill:#000;fill-opacity:1"><use xlink:href="#n" x="220.094" y="2.656"/><use xlink:href="#k" x="222.001" y="2.656"/></g><g style="fill:#000;fill-opacity:1"><use xlink:href="#o" x="292.095" y="2.656"/><use xlink:href="#k" x="294.001" y="2.656"/></g><g style="fill:#000;fill-opacity:1"><use xlink:href="#p" x="363.428" y="2.656"/><use xlink:href="#k" x="365.334" y="2.656"/><use xlink:href="#k" x="367.241" y="2.656"/></g><path style="fill:none;stroke-width:5.69714;stroke-linecap:square;stroke-linejoin:miter;stroke:#000;stroke-opacity:1;stroke-miterlimit:10" d="M199.4-105.395V-1316.03" transform="matrix(.1003 0 0 .0997 -14 135)"/><path style="fill:none;stroke-width:2.84857;stroke-linecap:butt;stroke-linejoin:miter;stroke:#000;stroke-opacity:1;stroke-miterlimit:10" d="M199.4-117.228h11.41m-11.41-32.637h11.41m-11.41-32.637h11.41M199.4-215.14h11.41m-11.41-32.637h11.41m-11.41-32.637h11.41m-11.41-32.637h11.41m-11.41-65.275h22.783m-22.783 0h11.41m-11.41-32.637h11.41M199.4-443.6h11.41m-11.41-32.637h11.41m-11.41-32.637h11.41m-11.41-32.598h11.41m-11.41-32.677h11.41m-11.41-32.598h11.41m-11.41-32.637h11.41m-11.41-65.275h22.783m-22.783 0h11.41m-11.41-32.637h11.41m-11.41-32.637h11.41M199.4-802.57h11.41m-11.41-32.638h11.41m-11.41-32.637h11.41m-11.41-32.637h11.41M199.4-933.12h11.41m-11.41-32.637h11.41m-11.41-65.235h22.783m-22.783 0h11.41m-11.41-32.676h11.41m-11.41-32.598h11.41m-11.41-32.638h11.41m-11.41-32.636h11.41m-11.41-32.638h11.41m-11.41-32.637h11.41m-11.41-32.637h11.41m-11.41-32.638h11.41" transform="matrix(.1003 0 0 .0997 -14 135)"/><g style="fill:#000;fill-opacity:1"><use xlink:href="#q" x=".095" y="98.932"/><use xlink:href="#l" x="1.237" y="98.932"/></g><use xlink:href="#k" x="1.237" y="66.272" style="fill:#000;fill-opacity:1"/><use xlink:href="#l" x="1.237" y="33.896" style="fill:#000;fill-opacity:1"/><path style="fill:none;stroke-width:5.69714;stroke-linecap:square;stroke-linejoin:miter;stroke:#000;stroke-opacity:1;stroke-miterlimit:10" d="M3788.596-105.395V-1316.03" transform="matrix(.1003 0 0 .0997 -14 135)"/><path style="fill:none;stroke-width:2.84857;stroke-linecap:butt;stroke-linejoin:miter;stroke:#000;stroke-opacity:1;stroke-miterlimit:10" d="M3788.596-117.228h-11.41m11.41-32.637h-11.41m11.41-32.637h-11.41m11.41-32.638h-11.41m11.41-32.637h-11.41m11.41-32.637h-11.41m11.41-32.637h-11.41m11.41-65.275h-22.783m22.783 0h-11.41m11.41-32.637h-11.41m11.41-32.637h-11.41m11.41-32.637h-11.41m11.41-32.637h-11.41m11.41-32.598h-11.41m11.41-32.677h-11.41m11.41-32.598h-11.41m11.41-32.637h-11.41m11.41-65.275h-22.783m22.783 0h-11.41m11.41-32.637h-11.41m11.41-32.637h-11.41m11.41-32.637h-11.41m11.41-32.638h-11.41m11.41-32.637h-11.41m11.41-32.637h-11.41m11.41-32.638h-11.41m11.41-32.637h-11.41m11.41-65.235h-22.783m22.783 0h-11.41m11.41-32.676h-11.41m11.41-32.598h-11.41m11.41-32.638h-11.41m11.41-32.636h-11.41m11.41-32.638h-11.41m11.41-32.637h-11.41m11.41-32.637h-11.41m11.41-32.638h-11.41" transform="matrix(.1003 0 0 .0997 -14 135)"/><g style="fill:#000;fill-opacity:1"><use xlink:href="#q" x="368.857" y="98.932"/><use xlink:href="#l" x="369.999" y="98.932"/></g><use xlink:href="#k" x="368.857" y="66.272" style="fill:#000;fill-opacity:1"/><use xlink:href="#l" x="368.857" y="33.896" style="fill:#000;fill-opacity:1"/><g clip-path="url(#r)"><path style="fill:none;stroke-width:5.69714;stroke-linecap:round;stroke-linejoin:round;stroke:#00f;stroke-opacity:1;stroke-miterlimit:10" d="m199.4-1030.992 2.999-40.12 2.998-36.125 3-27.896 2.998-15.907 2.96-1.45 2.999 13.517 2.998 26.682 3 36.594 2.998 42.668 2.999 45.136 2.96 44.9 2.998 42.785 3 39.69 2.998 36.36 2.999 33.067 2.998 30.287 3 28.092 2.998 26.604 2.96 25.82 2.999 25.859 2.998 26.564 3 27.935 2.998 29.856 2.999 32.128 2.999 34.557 2.998 36.633 2.96 38.045 2.999 38.044 2.999 36.006 2.999 31.462 2.998 24.135 3 14.458 2.998 3.213 2.96-7.993 2.999-17.906 2.998-25.31 3-29.66 2.998-30.952 2.999-29.738 2.999-26.447 2.96-21.862 2.998-16.417 2.999-10.54 2.999-4.662 2.999 1.058 2.998 6.269 3 10.814 2.998 14.457 2.96 16.926 2.998 18.023 3 17.553 2.998 15.359 2.999 11.48 2.999 6.072 2.998-.548 2.96-7.797 3-15.163 2.998-22.176 2.999-28.523 2.998-34.126 3-39.024 2.998-43.49 2.96-47.879 2.999-52.501 2.998-57.517 3-63.12 2.998-68.996 2.999-74.443 2.999-77.89 2.998-77.107 2.96-69.232 2.999-52.11 2.999-25.976 2.999 5.171 2.998 34.95 3 57.673 2.998 70.642 2.96 74.717 2.999 72.484 2.998 66.528 3 58.966 2.998 50.895 2.999 43.06 2.998 35.575 2.96 28.563 3 22.137 2.998 16.103 2.999 10.696 2.998 5.799 3 1.528 2.998-2.037 2.999-4.859 2.96-6.856 2.998-8.032 3-8.463 2.998-7.993 2.999-6.817 2.999-4.78 2.998-2.116 2.96 1.332 2.999 5.407 2.999 10.108 2.999 15.359 2.998 21.08 3 27.112 2.998 33.186 2.999 39.023 2.96 44 2.998 47.251 3 47.761 2.998 44.352 2.999 36.203 2.998 23.312 3 6.935 2.96-10.54 2.998-26.329 2.999-38.2 2.998-45.332 3-47.84 2.998-46.82 2.999-43.294 2.96-38.475 2.998-32.95 3-27.427 2.998-22.137 2.999-17.24 2.999-13.007 2.998-9.364 3-6.426 2.959-4.231 2.999-2.782 2.999-2.077 2.998-2.115 3-2.9 2.998-4.427 2.999-6.66 2.96-9.678 2.998-13.322 3-17.63 2.998-22.569 2.999-28.053 2.998-34.048 3-40.238 2.96-46.39 2.998-51.874 2.999-55.636 2.998-56.42 3-52.737 2.998-43.216 2.999-27.661 2.96-7.758 2.998 13.478 3 32.285 2.998 45.92 2.999 53.52 2.999 55.518 2.998 53.481 3 48.937 2.959 42.98 2.999 36.634 2.999 30.287 2.998 24.37 3 18.885 2.998 14.065 2.999 9.913 2.96 6.465 2.998 3.761 3 1.724 2.998.51h2.999l2.998.274 3 1.332 2.998 3.017 2.96 5.563 2.999 8.698 2.998 12.577 3 17.083 2.998 22.176 2.999 27.779 2.999 33.734 2.96 39.768 2.998 45.489 2.999 50.15 2.999 52.816 2.999 52.07 2.998 46.664 3 35.732 2.998 19.708 2.96.588 2.999-18.572 2.998-34.635 3-45.606 2.998-51.052 2.999-51.757 2.999-49.015 2.96-44.274 2.998-38.396 2.999-32.167 2.999-26.095 2.999-20.373 2.998-15.202 3-10.579 2.959-6.66 2.999-3.449 2.999-.94 2.998.784 3 1.802 2.998 2.037 2.999 1.528 2.96.275 2.998-1.724 3-4.467 2.998-7.836 2.999-11.91 2.998-16.652 3-21.941 2.998-27.858 2.96-34.165 2.999-40.826 2.998-47.486 3-53.56 2.998-58.183 2.999-59.906 2.999-57.047 2.96-47.996 2.998-32.285 2.999-11.244 2.999 11.754 2.999 32.637 2.998 48.035 3 56.85 2.959 59.555 2.999 57.79 2.999 53.325 2.998 47.487 3 41.179 2.998 35.066 2.999 29.346 2.998 24.253 2.96 19.747 3 15.985 2.998 12.93 2.999 10.578 2.998 8.933 3 8.032 2.998 7.876 2.96 8.423 2.999 9.639 2.998 11.558 3 14.066 2.998 17.122 2.999 20.57 2.999 24.252 2.96 28.014 2.998 31.344 2.999 33.93 2.999 35.106 2.999 34.244 2.998 30.874 3 24.644 2.998 15.75 2.96 5.055 2.999-6.151 2.998-16.339 3-24.409 2.998-29.542 2.999-31.736 2.998-31.305 2.96-28.915 3-25.076 2.998-20.413 2.999-15.358 2.998-10.266 3-5.406 2.998-.902 2.999 2.939 2.96 6.151 2.998 8.502 3 9.874 2.998 10.265 2.999 9.56 2.999 7.719 2.998 4.819 2.96 1.018 2.999-3.604 2.999-8.816 2.999-14.3 2.998-19.943 3-25.663 2.998-31.306 2.999-37.064 2.96-42.903 2.998-49.093 3-55.714 2.998-62.728 2.999-69.74 2.998-75.932 2.96-79.458 3-77.773 2.998-67.86 2.999-47.8 2.998-18.807 3 14.105 2.998 43.92 2.999 65.08 2.96 76.088 2.998 78.517 3 75.305 2.998 69.27 2.999 62.18 2.999 55.127 2.998 48.466 2.96 42.393 2.999 36.83 2.999 31.54 2.999 26.525 2.998 21.666 3 16.966 2.998 12.341 2.999 8.11 2.96 4.232 2.998.98 3-1.607 2.998-3.33 5.998-8.306 2.998-3.213 3-1.567 2.959.823 2.999 3.682 2.998 7.014 3 10.5 2.998 13.91 2.96 17.043 2.999 19.55 2.998 21.04 3 21.275 2.998 19.786 2.999 16.613 2.999 11.793 2.998 5.603 2.96-1.254 2.999-8.11 2.999-14.183 2.999-18.885 2.998-22.059 3-23.586 2.998-23.705 2.999-22.646 2.96-20.922 2.998-18.65 3-16.299 2.998-14.027 2.999-11.95 2.999-10.304 2.998-9.168 3-8.502 2.959-8.502 2.999-9.09 2.999-10.305 2.998-12.106 3-14.536 2.998-17.553 2.96-21.158 3.037-25.35 2.96-30.168 3-35.537 2.998-41.453 2.999-47.8 2.998-54.108 2.96-59.906 2.999-63.904 2.999-64.569 2.999-59.867 2.998-48.153 3-29.19 2.998-5.171 2.999 19.786 2.999 40.865 2.96 55.244 2.998 62.18 2.999 62.962 2.999 59.594 2.999 53.912 2.998 47.134 3 40.238 2.959 33.5 2.999 27.347 2.999 21.706 2.998 16.73 3 12.46 2.998 8.815 2.999 5.877 2.998 3.683 2.96 2.233 3 1.528 2.998 1.568 2.999 2.35 2.998 3.84 3 6.073 2.96 9.011 2.998 12.538 2.999 16.613 2.998 21.235 3 26.055 2.998 30.992 2.999 35.615 2.999 39.376 2.96 41.57 2.998 41.375 2.999 37.848 2.999 30.56 2.999 19.63 2.998 5.995 3-8.346 2.959-21.392 2.999-31.384 2.999-37.573 2.998-39.964 3-39.18 2.998-36.086 2.999-31.54 2.998-26.212 2.96-20.648 3-15.123 2.998-9.874 2.999-5.132 2.998-.94 3 2.546 2.998 5.328 2.96 7.327 2.999 8.463 2.998 8.698 3 8.071 2.998 6.504 2.999 3.997 2.999.783 2.96-3.29 2.998-7.876 2.999-13.008 2.999-18.572 2.999-24.33 2.998-30.483 3-36.869 2.998-43.725 2.96-50.856 2.999-58.418 2.998-65.901 3-72.523 2.998-76.715 2.999-76.05 2.998-67.664 2.96-49.641 3-22.49 2.998 9.247 2.999 39.063 2.998 61.239 3 73.62 2.998 77.459 2.999 75.344 2.96 70.211 2.998 63.786 3 57.399 2.998 51.404 2.999 46.077 2.999 41.178 2.998 36.673 2.96 32.285 2.999 27.818 2.999 23.234 2.999 18.336 2.998 13.36 3 8.385 2.959 3.683 2.999-.51 2.999-3.917 2.998-6.387 3-7.757 2.998-8.032 2.999-7.21 2.999-5.485 2.96-2.938 2.998.235 2.999 3.8 2.999 7.601 2.998 11.323 3 14.654 2.998 17.396 2.999 19.041 2.96 19.395 2.998 18.14 3 15.124 2.998 10.54 2.999 4.583 2.999-1.998 2.998-8.659 3-14.614 2.959-19.394 2.999-22.725 2.999-24.566 2.998-25.114 3-24.684 2.959-23.547 2.999-22.098 2.999-20.492 2.998-19.002 3-17.866 2.998-17.122 2.999-16.848 2.999-17.2 2.998-18.101 2.96-19.708 2.999-21.94 2.999-24.88 2.999-28.484 2.998-32.716 3-37.535 2.998-42.824 2.96-48.153 2.998-53.05 3-56.537 2.998-57.32 2.999-53.952 2.999-44.98 2.998-30.129 3-10.657 2.959 10.54 2.999 29.62 2.999 43.843 2.998 51.953 3 54.343 2.998 52.462 2.999 47.722 2.999 41.414 2.96 34.44 2.998 27.347 2.999 20.413 2.999 13.987 2.999 7.993 2.998 2.665 2.96-2.116 2.999-6.112 2.999-9.482 2.999-12.028 2.998-13.831 3-14.771 2.998-14.85 2.999-14.065 2.96-12.264 2.998-9.599 3-6.034 2.998-1.606 2.999 3.487 2.998 9.168 3 15.32 2.96 21.706 2.998 28.406 2.999 35.38 2.998 42.588 3 50.151 2.998 58.066 2.999 65.9 2.999 73.072 2.96 77.93 2.998 78.282 2.999 70.956 2.999 53.716 2.999 26.76 2.998-5.837 3-37.183 2.959-61.2 2.999-75.108 2.999-79.928 2.998-78.557 3-73.815 2.998-67.86 2.999-61.906 2.96-56.459 2.998-51.6 3-47.173 2.998-42.824 2.999-38.201 2.998-32.99 3-26.878 2.96-19.982 2.998-12.42 2.999-4.702 2.998 2.704 3 9.05 2.998 13.988 2.999 17.2 2.999 18.493 2.96 18.14 2.998 16.221 2.999 13.008 2.999 8.777 2.999 3.8 2.998-1.685 3-7.444 2.998-13.164 2.96-18.611 2.999-23.352 2.998-26.838 3-28.72 2.998-28.327 2.999-25.31 2.96-19.434 2.998-11.127 3-1.136 2.998 9.207 2.999 18.728 2.998 26.447 3 31.697 2.998 34.635 2.96 35.498 2.999 34.831 2.998 33.304 3 31.265 2.998 29.229 2.999 27.387 2.999 26.055 2.96 25.31 2.998 25.193 2.999 25.82 2.999 27.191 2.999 29.268 2.998 32.05 3 35.34 2.998 38.985 2.96 42.589 2.999 45.645 2.998 47.408 3 46.82 2.998 42.982 2.999 35.105 2.999 23.195 2.998 8.345 2.96-7.483 2.999-21.902 2.999-32.872 2.998-39.572 3-41.884 2.96-40.709 2.998-36.868 2.999-31.345 2.998-24.918 3-18.102 2.998-11.166 2.999-4.506 2.999 1.763 2.96 7.523 2.998 12.538 2.999 16.73 2.999 19.864 2.999 21.784 2.998 22.177 3 20.961 2.998 17.945 2.96 13.164 2.999 6.778 2.998-.862 3-9.05 2.998-17.396 2.999-25.31 2.999-32.56 2.998-39.062 2.96-44.98 2.999-50.62 2.999-56.342 2.999-62.414 2.998-68.997 3-75.618 2.998-81.377 2.96-84.356 2.998-81.534 3-69.624 2.998-46.78 2.999-14.733 2.999 20.413 2.998 50.896 2.96 71.347 3 80.79 2.998 81.69 2.999 77.265 2.998 70.29 3 62.61 2.998 55.009 2.999 47.878 2.96 41.178 2.998 34.871 3 28.798 2.998 22.842 2.999 17.004 2.999 11.44 2.998 6.113 2.96 1.371 2.999-2.703 2.999-5.838 2.999-8.071 2.998-9.247 3-9.325 2.998-8.463 2.999-6.621 2.96-3.958 2.998-.548 3 3.487 2.998 7.993 2.999 12.85 2.998 17.828 3 22.646 2.96 26.917 2.998 30.287 2.999 32.01 2.998 31.658 3 28.601 2.998 22.647 2.999 14.026 2.96 3.605 2.998-7.327 3-17.396 2.998-25.35 2.999-30.639 2.999-33.186 2.998-33.225 2.96-31.54 2.999-28.562 2.999-24.958 2.999-21.08 2.998-17.238 3-13.753 2.998-10.696 2.999-8.15 2.96-6.268 2.998-5.015 3-4.545 2.998-4.741 2.999-5.603 2.998-7.248 3-9.521 2.96-12.499 2.998-16.064 2.999-20.295 2.998-25.115 3-30.521 2.998-36.477 2.999-42.863 2.96-49.485 2.998-55.793 3-61.004 2.998-63.668 2.999-62.062 2.999-54.225 2.998-39.102 2.96-17.631 2.999 7.052 2.999 30.287 2.999 48.152 2.998 58.81 3 62.65 2.998 61.356 2.999 56.89 2.96 50.777 2.998 44.078 3 37.496 2.998 31.344 2.999 25.702 2.998 20.688 3 16.416 2.998 12.773 2.96 9.834 2.999 7.601 2.998 6.112 3 5.29 2.998 5.25 2.999 5.916 2.999 7.249 2.96 9.285 2.998 11.99 2.999 15.123 2.999 18.846 2.999 22.724 2.998 26.76 3 30.483 2.959 33.538 2.999 35.302 2.999 35.145 2.998 32.52 3 26.916 2.998 18.454 2.999 7.915 2.96-3.644 2.998-14.497 3-23.39 2.998-29.464 2.999-32.402 2.998-32.638 3-30.6 2.998-27.112 2.96-22.568 2.999-17.631 2.998-12.538 3-7.64 2.998-3.095 2.999.9 2.999 4.193 2.998 6.778 2.96 8.424 2.999 9.207 2.999 8.894 2.999 7.601 2.998 5.29 2.96 2.037 3.038-2.037 2.96-6.779 2.999-11.95 2.998-17.356 3-23.039 2.998-28.68 2.999-34.517 2.999-40.513 2.96-46.82 2.998-53.56 2.999-60.69 2.999-67.9 2.999-74.403 2.998-78.596 3-78.047 2.959-69.742 2.999-51.522 2.998-23.978 3 8.62 2.998 39.22 2.999 61.982 2.999 74.678 2.998 78.4 2.96 76.088 3 70.486 2.998 63.668 2.999 56.694 2.998 50.23 3 44.234 2.998 38.788 2.96 33.695 2.999 28.837 2.998 24.018 3 19.316 2.998 14.614 2.999 10.148 2.999 5.877 2.998 2.194 2.96-.901 2.999-3.174 2.999-4.584 2.999-5.054 2.998-4.545 3-3.291 2.998-1.176 2.96 1.489 2.999 4.623 2.998 8.071 3 11.559 2.998 14.81 2.999 17.553 2.998 19.511 2.96 20.257 3 19.55 2.998 17.162 2.999 13.086 2.998 7.6 3 1.215 2.998-5.485 2.999-11.715 2.96-16.886 2.998-20.61 3-22.841 2.998-23.626 2.999-23.195 2.999-21.902 2.998-20.1 2.96-18.022 2.999-15.947 2.999-14.105 2.999-12.537 2.998-11.48 3-10.892 2.998-10.853 2.999-11.48 2.998-12.655 2.96-14.497 3-16.887 2.998-19.982 2.999-23.626 2.96-27.935 2.998-32.833 3-38.319 2.998-44.234 3.038-50.425 2.96-56.185 2.998-60.808 2.999-62.689 2.999-60.22 2.96-51.522 2.998-35.85 3-14.418 2.998 9.638 2.96 31.658 3.038 48.23 2.998 57.713 3 60.73 2.998 58.927 2.96 54.07 2.999 47.642 2.998 40.709 3 33.773 2.959 27.191 2.999 21.158 2.999 15.672 2.998 10.892 3 6.74 2.998 3.33 2.999.587 2.998-1.332 3-2.586 2.96-3.056 2.998-2.743 2.999-1.723 2.998.078 3 2.547 2.998 5.798 2.96 9.678 3.038 14.183 2.998 19.355 2.96 24.958 2.999 31.031 2.999 37.3 2.999 43.45 2.998 48.78 2.96 52.541 2.999 53.364 2.999 49.955 2.999 41.178 2.998 26.76 3 8.228 2.998-11.675 2.999-29.542 2.999-42.825 2.96-50.464 2.998-52.933 2.999-51.365 2.999-47.251 2.96-41.767 2.998-35.771 3-29.7 3.037-24.017 2.999-18.806 2.96-14.184 2.998-10.265 3-7.052 2.998-4.506 2.96-2.782 2.998-1.763 3-1.528 2.998-1.998 2.999-3.252 2.999-5.25 2.998-7.954 3-11.323 2.998-15.398 2.96-20.1 2.999-25.35 2.998-31.03 3-36.986 2.998-42.863 2.96-48.075 2.999-51.796 2.998-52.815 3-49.877 2.998-41.688 2.999-28.053 2.999-10.226 2.998 9.286 3 27.073 2.959 40.709 2.999 48.74 2.999 51.6 2.998 50.426 2.96 46.468 3.038 40.943 2.999 34.831 2.998 28.563 3 22.568 2.96 17.004 2.998 11.99 2.999 7.6 2.998 3.957 2.96.94 2.999-1.292 2.999-2.821 2.999-3.526 3.037-3.527 2.96-2.742 2.999-1.215 2.999 1.058 2.999 4.036 2.96 7.64 2.998 11.989 2.999 16.887 2.999 22.372 2.96 28.484 3.037 34.949 3 41.884 2.998 48.857 2.999 55.362 2.96 60.495 2.998 62.884 3 60.573 2.998 51.875 2.96 35.928 2.999 13.988 2.998-10.58 3-33.146 2.998-49.955 2.999-59.671 2.998-62.846 3-61.239 2.998-56.772 2.96-50.895 2.999-44.627 2.998-38.592 3-33.03 2.998-28.052 2.96-23.822 2.999-20.217 3.037-17.279 3-15.006 2.959-13.4 2.999-12.459 2.999-12.067 2.998-12.342 3-13.126 2.959-14.34 2.999-16.063 2.999-17.906 2.998-19.943 3-21.784 2.998-23.273 2.999-23.978 2.998-23.705 3-22.137 2.96-19.002 2.998-14.458 2.999-8.698 2.998-2.194 2.96 4.31 3 10.187 2.998 14.81 3.038 17.906 2.96 19.276 2.998 19.199 2.999 17.748 2.999 15.36 2.999 12.38 2.96 9.09 2.998 5.72 2.999 2.547 2.999-.157 2.999-2.35 2.998-3.801 3-4.427 2.998-4.232 2.999-3.056 2.96-1.097 2.998 1.646 3 5.093 2.998 8.972 2.999 13.165 2.96 17.514 2.998 21.94 3 26.29 2.998 30.757 2.999 35.38 2.998 40.16 3 45.41 2.998 51.17 2.999 57.36 2.96 63.863 2.998 69.898 3 74.13 2.998 74.599 2.96 68.605 3.038 53.951 2.998 30.404 3 1.058 2.998-28.406 2.96-51.992 2.999-66.724 2.998-72.523 3-71.7 2.959-66.803 2.999-59.946 2.999-52.462 3.037-45.097 3-38.161 2.959-31.776 2.999-25.898 2.999-20.648 2.998-15.829 2.96-11.636 2.999-7.954 2.999-4.976 2.998-2.625 3-.98 2.998-.078 2.999.04 2.999-.55 2.998-1.92 2.96-3.917 2.999-6.582 2.999-9.756 2.999-13.4 2.998-17.279 2.96-21.235 2.999-24.997 2.999-28.171 2.999-30.286 2.998-30.796 3-29.19 2.998-25.193 2.999-18.61 2.96-9.991 2.998-.196 3 9.52 2.998 18.063 2.999 24.41 2.96 28.21 2.998 29.58 3.038 28.798 2.999 26.368 2.96 23 2.999 18.923 2.998 14.732 3 10.54 2.998 6.66 2.96 3.252 2.998.431 3-1.724 2.998-3.095 2.999-3.683 2.999-3.448 2.998-2.35 3-.47 2.998 2.193 2.96 5.525 2.999 9.403 2.998 13.791 3 18.533 2.959 23.625 2.999 29.033 2.999 34.831 3.037 40.944 2.96 47.565 2.999 54.617 2.999 61.827 2.999 68.566 2.998 73.737 2.96 75.109 2.999 70.25 2.999 56.655 2.999 33.773 2.998 4.31 3-25.976 2.998-50.974 2.999-66.998 2.96-74.051 2.998-74.051 3-69.859 2.998-63.59 2.999-56.772 2.998-50.19 2.96-44.078 3-38.514 3.037-33.578 2.96-29.032 2.998-24.801 3-20.844 2.998-17.161 2.999-13.674 2.999-10.461 2.96-7.64 2.998-5.25 2.999-3.37 2.999-2.077 2.96-1.371 3.037-1.293 3-1.88 2.998-2.9 2.999-4.428 2.96-6.23 2.998-8.227" transform="matrix(.1003 0 0 .0997 -14 135)"/></g></svg>