<svg xmlns="http://www.w3.org/2000/svg" xmlns:xlink="http://www.w3.org/1999/xlink" width="352pt" height="260pt" viewBox="0 0 352 260"><defs><clipPath id="a"><path d="M16 7.66h1v242.25h-1zm0 0"/></clipPath><clipPath id="b"><path d="M16 132h320v2H16zm0 0"/></clipPath><clipPath id="c"><path d="M16 7.66h1v242.25h-1zm0 0"/></clipPath><clipPath id="d"><path d="M69 7.66h1v242.25h-1zm0 0"/></clipPath><clipPath id="e"><path d="M122 7.66h1v242.25h-1zm0 0"/></clipPath><clipPath id="f"><path d="M175 7.66h2v242.25h-2zm0 0"/></clipPath><clipPath id="g"><path d="M229 7.66h1v242.25h-1zm0 0"/></clipPath><clipPath id="h"><path d="M282 7.66h1v242.25h-1zm0 0"/></clipPath><clipPath id="i"><path d="M335 7.66h1v242.25h-1zm0 0"/></clipPath><clipPath id="j"><path d="M16 197h320v2H16zm0 0"/></clipPath><clipPath id="k"><path d="M16 132h320v2H16zm0 0"/></clipPath><clipPath id="l"><path d="M16 68h320v1H16zm0 0"/></clipPath><clipPath id="t"><path d="M16 18h320v222H16zm0 0"/></clipPath><symbol overflow="visible" id="m"><path style="stroke:none" d="M1.89-4.86c-.452 0-.874.204-1.124.548-.313.421-.47 1.062-.47 1.968 0 1.625.548 2.5 1.595 2.5 1.03 0 1.593-.875 1.593-2.469 0-.937-.156-1.562-.484-2a1.355 1.355 0 0 0-1.11-.546zm0 .548c.641 0 .97.656.97 1.953 0 1.375-.313 2.015-.985 2.015-.64 0-.969-.672-.969-2 0-1.328.328-1.969.985-1.969zm0 0"/></symbol><symbol overflow="visible" id="n"><path style="stroke:none" d="M1.313-.719h-.72V0h.72zm0 0"/></symbol><symbol overflow="visible" id="o"><path style="stroke:none" d="M3.469-.594H.906c.063-.406.281-.656.89-1l.673-.375c.687-.36 1.031-.86 1.031-1.453 0-.406-.156-.781-.453-1.047-.281-.265-.64-.39-1.094-.39-.625 0-1.078.218-1.344.64-.171.25-.25.563-.265 1.047h.61c.015-.328.062-.531.14-.687a.94.94 0 0 1 .828-.47c.547 0 .969.391.969.907 0 .39-.235.719-.657.969l-.64.36C.578-1.532.28-1.064.234 0H3.47zm0 0"/></symbol><symbol overflow="visible" id="p"><path style="stroke:none" d="M3.266-4.86H.75L.39-2.202h.563c.281-.344.516-.453.89-.453.641 0 1.063.437 1.063 1.156 0 .703-.406 1.125-1.062 1.125-.532 0-.86-.266-1-.813h-.61c.094.391.157.579.297.766.281.36.766.578 1.328.578.97 0 1.657-.703 1.657-1.734 0-.953-.641-1.625-1.563-1.625-.344 0-.625.094-.906.297l.187-1.344h2.032zm0 0"/></symbol><symbol overflow="visible" id="q"><path style="stroke:none" d="M3.563-4.86H.313v.61h2.624C1.782-2.61 1.313-1.594.954 0h.64c.266-1.547.876-2.89 1.97-4.344zm0 0"/></symbol><symbol overflow="visible" id="r"><path style="stroke:none" d="M1.781-3.453V0h.594v-4.86h-.39c-.22.75-.36.86-1.282.97v.437zm0 0"/></symbol><symbol overflow="visible" id="s"><path style="stroke:none" d="M1.953-2.14H.313v.5h1.64zm0 0"/></symbol></defs><path style="stroke:none;fill-rule:nonzero;fill:#fff;fill-opacity:1" d="M16 249.91h320V7.66H16zm0 0"/><g clip-path="url(#a)"><path style="fill:none;stroke-width:5.70714;stroke-linecap:round;stroke-linejoin:miter;stroke:#bfbfbf;stroke-opacity:1;stroke-miterlimit:10" d="M399.5-211.163V-2636.7" transform="matrix(.10013 0 0 .09987 -24 271)"/></g><g clip-path="url(#b)"><path style="fill:none;stroke-width:5.70714;stroke-linecap:round;stroke-linejoin:miter;stroke:#bfbfbf;stroke-opacity:1;stroke-miterlimit:10" d="M399.5-1379.813h3196.006" transform="matrix(.10013 0 0 .09987 -24 271)"/></g><g clip-path="url(#c)"><path style="fill:none;stroke-width:5.70714;stroke-linecap:round;stroke-linejoin:miter;stroke:#bfbfbf;stroke-opacity:1;stroke-dasharray:11.4143,17.1214;stroke-miterlimit:10" d="M399.5-211.163V-2636.7" transform="matrix(.10013 0 0 .09987 -24 271)"/></g><g clip-path="url(#d)"><path style="fill:none;stroke-width:5.70714;stroke-linecap:round;stroke-linejoin:miter;stroke:#bfbfbf;stroke-opacity:1;stroke-dasharray:11.4143,17.1214;stroke-miterlimit:10" d="M932.155-211.163V-2636.7" transform="matrix(.10013 0 0 .09987 -24 271)"/></g><g clip-path="url(#e)"><path style="fill:none;stroke-width:5.70714;stroke-linecap:round;stroke-linejoin:miter;stroke:#bfbfbf;stroke-opacity:1;stroke-dasharray:11.4143,17.1214;stroke-miterlimit:10" d="M1464.849-211.163V-2636.7" transform="matrix(.10013 0 0 .09987 -24 271)"/></g><g clip-path="url(#f)"><path style="fill:none;stroke-width:5.70714;stroke-linecap:round;stroke-linejoin:miter;stroke:#bfbfbf;stroke-opacity:1;stroke-dasharray:11.4143,17.1214;stroke-miterlimit:10" d="M1997.503-211.163V-2636.7" transform="matrix(.10013 0 0 .09987 -24 271)"/></g><g clip-path="url(#g)"><path style="fill:none;stroke-width:5.70714;stroke-linecap:round;stroke-linejoin:miter;stroke:#bfbfbf;stroke-opacity:1;stroke-dasharray:11.4143,17.1214;stroke-miterlimit:10" d="M2530.158-211.163V-2636.7" transform="matrix(.10013 0 0 .09987 -24 271)"/></g><g clip-path="url(#h)"><path style="fill:none;stroke-width:5.70714;stroke-linecap:round;stroke-linejoin:miter;stroke:#bfbfbf;stroke-opacity:1;stroke-dasharray:11.4143,17.1214;stroke-miterlimit:10" d="M3062.851-211.163V-2636.7" transform="matrix(.10013 0 0 .09987 -24 271)"/></g><g clip-path="url(#i)"><path style="fill:none;stroke-width:5.70714;stroke-linecap:round;stroke-linejoin:miter;stroke:#bfbfbf;stroke-opacity:1;stroke-dasharray:11.4143,17.1214;stroke-miterlimit:10" d="M3595.506-211.163V-2636.7" transform="matrix(.10013 0 0 .09987 -24 271)"/></g><g clip-path="url(#j)"><path style="fill:none;stroke-width:5.70714;stroke-linecap:round;stroke-linejoin:miter;stroke:#bfbfbf;stroke-opacity:1;stroke-dasharray:11.4143,17.1214;stroke-miterlimit:10" d="M399.5-731.11h3196.006" transform="matrix(.10013 0 0 .09987 -24 271)"/></g><g clip-path="url(#k)"><path style="fill:none;stroke-width:5.70714;stroke-linecap:round;stroke-linejoin:miter;stroke:#bfbfbf;stroke-opacity:1;stroke-dasharray:11.4143,17.1214;stroke-miterlimit:10" d="M399.5-1379.813h3196.006" transform="matrix(.10013 0 0 .09987 -24 271)"/></g><g clip-path="url(#l)"><path style="fill:none;stroke-width:5.70714;stroke-linecap:round;stroke-linejoin:miter;stroke:#bfbfbf;stroke-opacity:1;stroke-dasharray:11.4143,17.1214;stroke-miterlimit:10" d="M399.5-2028.516h3196.006" transform="matrix(.10013 0 0 .09987 -24 271)"/></g><path style="fill:none;stroke-width:11.4143;stroke-linecap:square;stroke-linejoin:miter;stroke:#000;stroke-opacity:1;stroke-miterlimit:10" d="M399.5-211.163h3196.006" transform="matrix(.10013 0 0 .09987 -24 271)"/><path style="fill:none;stroke-width:5.70714;stroke-linecap:butt;stroke-linejoin:miter;stroke:#000;stroke-opacity:1;stroke-miterlimit:10" d="M399.5-211.163v-45.643m0 45.643v-22.84m53.254 22.84v-22.84m53.293 22.84v-22.84m53.253 22.84v-22.84m53.255 22.84v-22.84m53.292 22.84v-22.84m53.254 22.84v-22.84m53.254 22.84v-22.84m53.293 22.84v-22.84m106.507 22.84v-45.643m0 45.643v-22.84m53.293 22.84v-22.84m53.254 22.84v-22.84m53.253 22.84v-22.84m53.293 22.84v-22.84m53.254 22.84v-22.84m53.254 22.84v-22.84m53.292 22.84v-22.84m53.254 22.84v-22.84m106.547 22.84v-45.643m0 45.643v-22.84m53.253 22.84v-22.84m53.254 22.84v-22.84m53.293 22.84v-22.84m53.254 22.84v-22.84m53.253 22.84v-22.84m53.294 22.84v-22.84m53.253 22.84v-22.84m53.254 22.84v-22.84m106.546 22.84v-45.643m0 45.643v-22.84m53.254 22.84v-22.84m53.293 22.84v-22.84m53.253 22.84v-22.84m53.254 22.84v-22.84m53.293 22.84v-22.84m53.254 22.84v-22.84m53.253 22.84v-22.84m53.293 22.84v-22.84m106.508 22.84v-45.643m0 45.643v-22.84m53.292 22.84v-22.84m53.254 22.84v-22.84m53.254 22.84v-22.84m53.292 22.84v-22.84m53.254 22.84v-22.84m53.254 22.84v-22.84m53.292 22.84v-22.84m53.255 22.84v-22.84m106.546 22.84v-45.643m0 45.643v-22.84m53.254 22.84v-22.84m53.254 22.84v-22.84m53.292 22.84v-22.84m53.254 22.84v-22.84m53.254 22.84v-22.84m53.293 22.84v-22.84m53.253 22.84v-22.84m53.255 22.84v-22.84m106.546 22.84v-45.643m0 45.643v-22.84" transform="matrix(.10013 0 0 .09987 -24 271)"/><g style="fill:#000;fill-opacity:1"><use xlink:href="#m" x="11.234" y="259.03"/><use xlink:href="#n" x="15.047" y="259.03"/><use xlink:href="#m" x="16.953" y="259.03"/></g><g style="fill:#000;fill-opacity:1"><use xlink:href="#o" x="64.378" y="259.03"/><use xlink:href="#n" x="68.19" y="259.03"/><use xlink:href="#p" x="70.096" y="259.03"/></g><g style="fill:#000;fill-opacity:1"><use xlink:href="#p" x="117.521" y="259.03"/><use xlink:href="#n" x="121.333" y="259.03"/><use xlink:href="#m" x="123.24" y="259.03"/></g><g style="fill:#000;fill-opacity:1"><use xlink:href="#q" x="171.235" y="259.03"/><use xlink:href="#n" x="175.047" y="259.03"/><use xlink:href="#p" x="176.954" y="259.03"/></g><g style="fill:#000;fill-opacity:1"><use xlink:href="#r" x="222.472" y="259.03"/><use xlink:href="#m" x="226.284" y="259.03"/><use xlink:href="#n" x="230.097" y="259.03"/><use xlink:href="#m" x="232.003" y="259.03"/></g><g style="fill:#000;fill-opacity:1"><use xlink:href="#r" x="275.615" y="259.03"/><use xlink:href="#o" x="279.428" y="259.03"/><use xlink:href="#n" x="283.24" y="259.03"/><use xlink:href="#p" x="285.146" y="259.03"/></g><g style="fill:#000;fill-opacity:1"><use xlink:href="#r" x="329.33" y="259.03"/><use xlink:href="#p" x="333.142" y="259.03"/><use xlink:href="#n" x="336.955" y="259.03"/><use xlink:href="#m" x="338.861" y="259.03"/></g><path style="fill:none;stroke-width:11.4143;stroke-linecap:square;stroke-linejoin:miter;stroke:#000;stroke-opacity:1;stroke-miterlimit:10" d="M399.5-2636.7h3196.006" transform="matrix(.10013 0 0 .09987 -24 271)"/><path style="fill:none;stroke-width:5.70714;stroke-linecap:butt;stroke-linejoin:miter;stroke:#000;stroke-opacity:1;stroke-miterlimit:10" d="M399.5-2636.7v45.643m0-45.643v22.842m53.254-22.842v22.842m53.293-22.842v22.842M559.3-2636.7v22.842m53.255-22.842v22.842m53.292-22.842v22.842m53.254-22.842v22.842m53.254-22.842v22.842m53.293-22.842v22.842m106.507-22.842v45.643m0-45.643v22.842m53.293-22.842v22.842m53.254-22.842v22.842m53.253-22.842v22.842m53.293-22.842v22.842m53.254-22.842v22.842m53.254-22.842v22.842m53.292-22.842v22.842m53.254-22.842v22.842m106.547-22.842v45.643m0-45.643v22.842m53.253-22.842v22.842m53.254-22.842v22.842m53.293-22.842v22.842m53.254-22.842v22.842m53.253-22.842v22.842m53.294-22.842v22.842m53.253-22.842v22.842m53.254-22.842v22.842m106.546-22.842v45.643m0-45.643v22.842m53.254-22.842v22.842m53.293-22.842v22.842m53.253-22.842v22.842m53.254-22.842v22.842m53.293-22.842v22.842m53.254-22.842v22.842m53.253-22.842v22.842m53.293-22.842v22.842m106.508-22.842v45.643m0-45.643v22.842m53.292-22.842v22.842m53.254-22.842v22.842m53.254-22.842v22.842m53.292-22.842v22.842m53.254-22.842v22.842m53.254-22.842v22.842m53.292-22.842v22.842m53.255-22.842v22.842m106.546-22.842v45.643m0-45.643v22.842m53.254-22.842v22.842m53.254-22.842v22.842m53.292-22.842v22.842m53.254-22.842v22.842m53.254-22.842v22.842m53.293-22.842v22.842m53.253-22.842v22.842m53.255-22.842v22.842m106.546-22.842v45.643m0-45.643v22.842" transform="matrix(.10013 0 0 .09987 -24 271)"/><g style="fill:#000;fill-opacity:1"><use xlink:href="#m" x="11.234" y="5.38"/><use xlink:href="#n" x="15.047" y="5.38"/><use xlink:href="#m" x="16.953" y="5.38"/></g><g style="fill:#000;fill-opacity:1"><use xlink:href="#o" x="64.378" y="5.38"/><use xlink:href="#n" x="68.19" y="5.38"/><use xlink:href="#p" x="70.096" y="5.38"/></g><g style="fill:#000;fill-opacity:1"><use xlink:href="#p" x="117.521" y="5.38"/><use xlink:href="#n" x="121.333" y="5.38"/><use xlink:href="#m" x="123.24" y="5.38"/></g><g style="fill:#000;fill-opacity:1"><use xlink:href="#q" x="171.235" y="5.38"/><use xlink:href="#n" x="175.047" y="5.38"/><use xlink:href="#p" x="176.954" y="5.38"/></g><g style="fill:#000;fill-opacity:1"><use xlink:href="#r" x="222.472" y="5.38"/><use xlink:href="#m" x="226.284" y="5.38"/><use xlink:href="#n" x="230.097" y="5.38"/><use xlink:href="#m" x="232.003" y="5.38"/></g><g style="fill:#000;fill-opacity:1"><use xlink:href="#r" x="275.615" y="5.38"/><use xlink:href="#o" x="279.428" y="5.38"/><use xlink:href="#n" x="283.24" y="5.38"/><use xlink:href="#p" x="285.146" y="5.38"/></g><g style="fill:#000;fill-opacity:1"><use xlink:href="#r" x="329.33" y="5.38"/><use xlink:href="#p" x="333.142" y="5.38"/><use xlink:href="#n" x="336.955" y="5.38"/><use xlink:href="#m" x="338.861" y="5.38"/></g><path style="fill:none;stroke-width:11.4143;stroke-linecap:square;stroke-linejoin:miter;stroke:#000;stroke-opacity:1;stroke-miterlimit:10" d="M399.5-211.163V-2636.7" transform="matrix(.10013 0 0 .09987 -24 271)"/><path style="fill:none;stroke-width:5.70714;stroke-linecap:butt;stroke-linejoin:miter;stroke:#000;stroke-opacity:1;stroke-miterlimit:10" d="M399.5-212.18h22.824M399.5-277.027h22.824M399.5-341.912h22.824M399.5-406.798h22.824M399.5-471.645h22.824M399.5-536.531h22.824M399.5-601.378h22.824M399.5-731.11h45.647m-45.647 0h22.824M399.5-795.997h22.824M399.5-860.883h22.824M399.5-925.73h22.824M399.5-990.615h22.824m-22.824-64.847h22.824m-22.824-64.886h22.824m-22.824-64.847h22.824M399.5-1250.08h22.824M399.5-1379.813h45.647m-45.647 0h22.824M399.5-1444.7h22.824m-22.824-64.846h22.824m-22.824-64.886h22.824m-22.824-64.886h22.824m-22.824-64.847h22.824m-22.824-64.847h22.824m-22.824-64.886h22.824m-22.824-64.886h22.824M399.5-2028.516h45.647m-45.647 0h22.824m-22.824-64.847h22.824m-22.824-64.886h22.824m-22.824-64.886h22.824m-22.824-64.847h22.824m-22.824-64.886h22.824m-22.824-64.846h22.824M399.5-2482.6h22.824m-22.824-64.886h22.824" transform="matrix(.10013 0 0 .09987 -24 271)"/><g style="fill:#000;fill-opacity:1"><use xlink:href="#s" x=".377" y="200.89"/><use xlink:href="#r" x="2.661" y="200.89"/><use xlink:href="#m" x="6.473" y="200.89"/></g><use xlink:href="#m" x="6.473" y="136.48" style="fill:#000;fill-opacity:1"/><g style="fill:#000;fill-opacity:1"><use xlink:href="#r" x="2.661" y="71.5"/><use xlink:href="#m" x="6.473" y="71.5"/></g><path style="fill:none;stroke-width:11.4143;stroke-linecap:square;stroke-linejoin:miter;stroke:#000;stroke-opacity:1;stroke-miterlimit:10" d="M3595.506-211.163V-2636.7" transform="matrix(.10013 0 0 .09987 -24 271)"/><path style="fill:none;stroke-width:5.70714;stroke-linecap:butt;stroke-linejoin:miter;stroke:#000;stroke-opacity:1;stroke-miterlimit:10" d="M3595.506-212.18h-22.823m22.823-64.847h-22.823m22.823-64.885h-22.823m22.823-64.886h-22.823m22.823-64.847h-22.823m22.823-64.886h-22.823m22.823-64.847h-22.823m22.823-129.732h-45.685m45.685 0h-22.823m22.823-64.887h-22.823m22.823-64.886h-22.823m22.823-64.847h-22.823m22.823-64.885h-22.823m22.823-64.847h-22.823m22.823-64.886h-22.823m22.823-64.847h-22.823m22.823-64.885h-22.823m22.823-129.733h-45.685m45.685 0h-22.823m22.823-64.887h-22.823m22.823-64.846h-22.823m22.823-64.886h-22.823m22.823-64.886h-22.823m22.823-64.847h-22.823m22.823-64.847h-22.823m22.823-64.886h-22.823m22.823-64.886h-22.823m22.823-129.732h-45.685m45.685 0h-22.823m22.823-64.847h-22.823m22.823-64.886h-22.823m22.823-64.886h-22.823m22.823-64.847h-22.823m22.823-64.886h-22.823m22.823-64.846h-22.823m22.823-64.886h-22.823m22.823-64.886h-22.823" transform="matrix(.10013 0 0 .09987 -24 271)"/><g style="fill:#000;fill-opacity:1"><use xlink:href="#s" x="341.714" y="200.89"/><use xlink:href="#r" x="343.997" y="200.89"/><use xlink:href="#m" x="347.81" y="200.89"/></g><use xlink:href="#m" x="341.714" y="136.48" style="fill:#000;fill-opacity:1"/><g style="fill:#000;fill-opacity:1"><use xlink:href="#r" x="341.714" y="71.5"/><use xlink:href="#m" x="345.527" y="71.5"/></g><g clip-path="url(#t)"><path style="fill:none;stroke-width:11.4143;stroke-linecap:round;stroke-linejoin:round;stroke:#00f;stroke-opacity:1;stroke-miterlimit:10" d="M399.5-1444.7h.625l.351-.038.936-.118.625-.156.35-.079.313-.117.312-.078.624-.235.351-.156.312-.118.312-.156.313-.196.312-.156.35-.196.313-.156.312-.196.312-.234.312-.196.351-.274.625-.469.312-.274.312-.234.35-.313.625-.548.624-.626.312-.352.352-.312.624-.704.312-.392.312-.352.351-.39.624-.783.312-.43.313-.391.35-.47.625-.86.624-.939.351-.508.312-.47.625-1.016.312-.548.35-.508.625-1.096.936-1.76.351-.586.313-.587.624-1.251.312-.665.351-.665.624-1.33.312-.704.312-.665.352-.743.312-.704.624-1.486.312-.783.351-.743.312-.782.937-2.464.35-.821.937-2.582.624-1.799.351-.938.313-.9.312-.978.312-.938.312-.978.351-.978.936-3.05.312-1.057.352-1.056.624-2.19.312-1.134.312-1.095.351-1.174.312-1.134.312-1.173.625-2.425.35-1.213.313-1.251.312-1.29.312-1.252.312-1.33.312-1.29.351-1.37.312-1.33.313-1.368.312-1.408.312-1.448.35-1.408.313-1.447.624-2.972.312-1.526.351-1.564.625-3.129.624-3.207.351-1.682.624-3.363.624-3.442.313-1.76.35-1.8.313-1.838.312-1.799.312-1.877.312-1.917.351-1.916.312-1.917.937-5.984.35-2.072.313-2.073.624-4.224.312-2.19.351-2.19.625-4.46.624-4.615.351-2.346.624-4.772.624-4.928.313-2.503.35-2.542.313-2.582.624-5.24.312-2.7.351-2.698.624-5.554.313-2.816.312-2.855.35-2.934.313-2.894.624-6.023.312-3.05.351-3.09.312-3.13.313-3.167.312-3.208.312-3.285.35-3.285.313-3.325.624-6.805.312-3.481.312-3.52.352-3.56.312-3.597.312-3.638.624-7.431.351-3.794.312-3.833.624-7.822.313-3.99.35-4.028.313-4.067.312-4.107.312-4.185.312-4.224.351-4.263.312-4.342.312-4.38.313-4.42.312-4.458.35-4.537.625-9.23.312-4.694.312-4.733.312-4.81.351-4.85.313-4.889.312-4.967.312-5.006.312-5.046.351-5.123.624-10.404.312-5.28.312-5.358.352-5.398.312-5.436.312-5.515.312-5.554.312-5.593.351-5.67.312-5.711.312-5.75.312-5.827.313-5.867.35-5.945.313-5.984.312-6.023.312-6.062.312-6.14.312-6.18.351-6.22.313-6.296.312-6.336.312-6.375.312-6.415.351-6.453.312-6.493.624-13.141.312-6.649.352-6.688.312-6.688.624-13.533.312-6.844.351-6.806.312-6.883.624-13.846.625-13.923.35-7.001.313-7.04.312-7.001.312-7.04.312-7.08.351-7.04.625-14.158.312-7.04.312-7.08.35-7.078.625-14.08.624-14.002.351-7.001.625-13.846.312-6.883.312-6.845.351-6.805.312-6.767.312-6.688.312-6.649.312-6.61.313-6.531.35-6.414.313-6.415.312-6.297.312-6.218.312-6.14.351-6.063.312-5.945.312-5.828.313-5.749.312-5.632.35-5.515.313-5.397.312-5.28.312-5.124.312-5.006.351-4.889.312-4.732.313-4.577.312-4.38.312-4.263.35-4.107.313-3.911.312-3.755.312-3.598.312-3.364.312-3.207.352-3.05.312-2.816.312-2.62.312-2.426.312-2.23.351-2.033.312-1.8.312-1.564.313-1.368.312-1.174.35-.9.313-.742.312-.47.312-.234.312-.04.351.235.312.43.313.665.312.939.312 1.134.35 1.369.313 1.604.312 1.877.312 2.073.312 2.307.312 2.543.352 2.777.312 3.011.312 3.246.312 3.481.312 3.677.351 3.911.312 4.146.312 4.341.312 4.537.313 4.772.35 4.967.313 5.202.312 5.358.312 5.593.312 5.75.351 5.983.312 6.14.312 6.298.313 6.492.312 6.65.35 6.844.313 6.962.312 7.118.312 7.314.312 7.392.312 7.587.351 7.705.313 7.784.312 7.978.312 8.057.312 8.175.351 8.252.312 8.37.312 8.487.312 8.566.312 8.643.352 8.722.312 8.761.312 8.878.312 8.918.312 8.956.351 9.035.312 9.074.624 18.226.625 18.382.35 9.23.313 9.23.312 9.27.312 9.23.312 9.27.351 9.27 1.249 36.92.351 9.192.624 18.304.624 18.148.352 9.034.312 8.996.312 8.917.624 17.757.351 8.761.312 8.761.312 8.683.312 8.604.313 8.566.312 8.487.35 8.448.313 8.33.312 8.292.312 8.253.312 8.135.351 8.057.312 8.018.313 7.9.312 7.862.312 7.783.35 7.666.313 7.587.312 7.549.312 7.431.312 7.392.351 7.275.313 7.157.312 7.119.312 7.04.312 6.922.351 6.884.312 6.766.312 6.688.312 6.571.312 6.532.313 6.414.35 6.336.313 6.258.312 6.18.312 6.1.312 5.985.351 5.906.312 5.866.312 5.75.313 5.671.312 5.554.35 5.515.313 5.436.312 5.32.312 5.28.312 5.162.351 5.124.312 5.006.313 4.928.312 4.889.312 4.771.35 4.733.313 4.654.312 4.537.312 4.498.312 4.42.312 4.34.352 4.303.312 4.185.312 4.146.312 4.067.312 4.029.351 3.911.312 3.911.312 3.794.312 3.716.313 3.676.35 3.637.313 3.56.312 3.52.312 3.441.312 3.364.351 3.325.312 3.246.313 3.207.312 3.168.312 3.09.35 3.05.313 3.012.312 2.933.312 2.895.312 2.855.312 2.777.352 2.777.312 2.698.312 2.66.312 2.62.312 2.582.351 2.503.624 4.928.312 2.386.313 2.346.35 2.347.625 4.537.624 4.38.351 2.152.312 2.112.312 2.033.313 2.073.312 1.995.312 1.956.35 1.955.313 1.917.624 3.754.312 1.8.351 1.838.625 3.52.624 3.442.351 1.681.624 3.286.624 3.207.352 1.603.936 4.576.312 1.487.351 1.486.312 1.486.624 2.894.625 2.816.35 1.37.313 1.407.312 1.37.312 1.329.312 1.369.351 1.33.312 1.33.937 3.872.35 1.29.313 1.29.624 2.504.312 1.29.352 1.213.624 2.503.312 1.213.312 1.251.351 1.213 1.56 6.062.352 1.213 1.248 4.85.351 1.212.312 1.173.937 3.638.35 1.212.313 1.252.624 2.424.312 1.252.351 1.212.313 1.252.312 1.212.624 2.504.351 1.29.312 1.252.312 1.29.312 1.252.625 2.581.35 1.291.313 1.33.312 1.29.312 1.33.312 1.37.351 1.33 1.249 5.475.35 1.408.625 2.816.624 2.894.351 1.486.312 1.447.625 2.973.312 1.525.35 1.526.937 4.693.624 3.207.352 1.604.624 3.285.624 3.364.351 1.72.312 1.721.937 5.28.35 1.839.313 1.799.312 1.838.624 3.755.351 1.916.312 1.917.625 3.91.312 1.995.312 2.034.351 2.034.624 4.146.312 2.112.312 2.151.352 2.151.624 4.38.312 2.27.312 2.228.351 2.308.312 2.308.312 2.346.625 4.772.35 2.464.313 2.425.312 2.503.312 2.542.312 2.503.351 2.582.624 5.24.625 5.398.312 2.738.35 2.777.313 2.777.624 5.71.312 2.894.351 2.934.625 5.944.312 3.051.312 3.09.351 3.09.624 6.336.312 3.207.312 3.285.352 3.286.312 3.324.312 3.364.312 3.402.312 3.442.351 3.481.312 3.52.624 7.197.313 3.637.312 3.677.35 3.754.313 3.755.312 3.794.624 7.744.351 3.95.625 7.979.312 4.067.312 4.146.35 4.146.313 4.185.312 4.224.624 8.605.351 4.38.313 4.42.312 4.458.312 4.498.312 4.537.351 4.576.624 9.309.312 4.732.312 4.772.313 4.81.35 4.85.313 4.89.624 9.934.312 5.045.351 5.045.312 5.124.313 5.163.312 5.201.312 5.241.35 5.28.313 5.32.312 5.358.312 5.397.312 5.476.351 5.475.313 5.515.312 5.554.312 5.593.312 5.632.351 5.671.624 11.42.624 11.578.313 5.827.35 5.867.313 5.867.312 5.906.312 5.945.312 5.984.351 5.984.312 5.984.312 6.023.625 12.124.35 6.063.625 12.202.312 6.141.312 6.101.351 6.14.312 6.102.625 12.281.312 6.102.312 6.14.351 6.102.624 12.202.624 12.125.352 6.062.624 11.968.624 11.89.351 5.867.312 5.867.312 5.788.312 5.75.313 5.71.35 5.67.313 5.594.312 5.554.312 5.475.312 5.437.351 5.319.312 5.28.312 5.202.313 5.123.312 5.007.312 4.967.35 4.85.313 4.732.312 4.654.312 4.576.312 4.46.352 4.301.312 4.224.312 4.107.312 3.99.312 3.872.351 3.715.312 3.598.312 3.481.312 3.325.313 3.168.35 3.05.313 2.895.312 2.738.312 2.58.312 2.426.351 2.268.312 2.112.312 1.917.313 1.799.312 1.603.312 1.408.35 1.252.313 1.056.312.9.312.704.312.547.351.352.313.157.312-.04.312-.234.312-.391.351-.587.312-.782.312-.978.312-1.173.312-1.33.352-1.525.312-1.76.312-1.917.312-2.112.312-2.268.351-2.504.312-2.66.312-2.854.312-3.012.313-3.207.312-3.403.35-3.559.313-3.754.312-3.873.312-4.106.312-4.224.351-4.42.312-4.576.313-4.732.312-4.89.312-5.006.35-5.201.313-5.32.312-5.475.312-5.593.312-5.75.351-5.866.313-5.984.312-6.14.312-6.22.312-6.375.351-6.453.312-6.57.312-6.65.312-6.766.312-6.845.313-6.961.35-7.04.313-7.119.312-7.196.312-7.236.312-7.314.351-7.392.312-7.47.312-7.51.313-7.548.312-7.588.35-7.665.313-7.666.312-7.705.312-7.783.312-7.745.351-7.822.937-23.467.312-7.861.351-7.861.936-23.585.312-7.822.313-7.861.35-7.784.313-7.822.312-7.783.624-15.488.351-7.705.312-7.666.625-15.253.312-7.549.35-7.51.313-7.509.312-7.431.312-7.392.312-7.353.351-7.275.312-7.235.313-7.197.312-7.157.312-7.08.312-7 .351-6.962.312-6.923.312-6.844.312-6.767.312-6.727.352-6.649.312-6.57.312-6.532.312-6.454.312-6.375.351-6.336.312-6.258.312-6.18.312-6.1.313-6.063.35-5.945.313-5.906.312-5.827.312-5.75.312-5.71.351-5.593.312-5.554.312-5.475.313-5.398.312-5.319.312-5.28.35-5.163.313-5.123.312-5.046.312-4.967.312-4.928.351-4.81.313-4.772.312-4.694.312-4.615.312-4.537.351-4.497.312-4.42.312-4.341.312-4.303.312-4.185.352-4.185.312-4.067.624-7.979.312-3.872.351-3.833.312-3.755.312-3.715.313-3.637.312-3.56.312-3.52.35-3.441.313-3.403.312-3.325.312-3.285.312-3.246.351-3.168.313-3.09.312-3.05.312-3.012.312-2.934.351-2.894.312-2.855.312-2.777.312-2.738.312-2.699.352-2.62.312-2.62.312-2.543.624-4.928.351-2.386.312-2.346.312-2.308.312-2.268.313-2.23.312-2.15.35-2.152.313-2.112.312-2.034.624-3.99.351-1.916.312-1.916.625-3.676.312-1.76.35-1.76.313-1.721.312-1.682.312-1.643.312-1.603.351-1.565.313-1.564.312-1.526.312-1.486.312-1.447.351-1.408.312-1.369.312-1.408.312-1.33.312-1.29.313-1.252.35-1.29.625-2.426.312-1.173.312-1.134.351-1.134.624-2.19.313-1.057.312-1.017.35-1.016.313-1.017.312-.94.312-.977.312-.9.351-.899.313-.9.624-1.72.624-1.643.351-.821.312-.783.937-2.23.35-.703.625-1.408.624-1.33.351-.626.312-.665.312-.586.313-.626.312-.587.35-.586 1.25-2.19.35-.509.937-1.525.624-.94.351-.468 1.248-1.721.352-.43.312-.43.312-.353.312-.43.312-.352.351-.391.312-.391.937-1.056.35-.352.313-.352.624-.626.312-.352.351-.313.312-.313.312-.274.625-.625.312-.274.35-.274.313-.313.624-.547.312-.235.351-.274.313-.274.312-.234.312-.274.312-.235.351-.273.624-.47.312-.274.312-.195.352-.274.312-.196.936-.704.351-.195.624-.47.312-.195.313-.235.312-.195.35-.235.313-.195.312-.235.624-.391.351-.235 1.249-.782.351-.235 1.248-.782.352-.196.312-.234.936-.587.351-.195.312-.196.312-.235.937-.586.35-.196.313-.235.936-.586.351-.235.312-.195.313-.235.312-.196.312-.234.35-.196.313-.195.624-.47.312-.195.351-.235.625-.47.312-.195.624-.47.351-.234 1.249-.939.35-.273.625-.47.312-.274.312-.234.351-.274.312-.235.937-.821.35-.274 1.25-1.095.35-.274.312-.313.313-.273.312-.313.312-.274.312-.313.351-.313.624-.626.312-.352.312-.312.352-.313.312-.352.312-.313.624-.704.351-.352.937-1.056.312-.391.35-.352 1.25-1.565.35-.391.312-.391.313-.43.312-.391.624-.86.351-.431.312-.43.624-.939.312-.43.352-.47.312-.469.312-.508.624-.939.351-.508.936-1.526.313-.547.35-.548.937-1.643.312-.586.351-.548.624-1.173.313-.626.312-.587.312-.625.35-.626.313-.626.936-1.995.351-.665.313-.664.624-1.409.312-.743.351-.704.624-1.486.312-.782.312-.743.352-.782.312-.783.936-2.464.351-.86.936-2.582.625-1.799.35-.938.937-2.816.312-.978.351-1.017.313-.978.312-1.017.624-2.112.351-1.056.624-2.19.624-2.268.352-1.135.624-2.346.624-2.425.312-1.252.351-1.251.624-2.582.625-2.66.35-1.368.625-2.738.624-2.894.351-1.447.312-1.487.625-3.05.312-1.565.35-1.564.313-1.604.624-3.285.312-1.682.351-1.682.313-1.76.312-1.72.624-3.599.312-1.838.351-1.878.312-1.877.312-1.916.312-1.956.313-1.995.35-1.994.313-2.034.312-2.073.312-2.112.312-2.151.351-2.151.624-4.459.625-4.537.35-2.347.313-2.385.624-4.85.312-2.503.351-2.504.625-5.162.624-5.32.312-2.698.351-2.777.624-5.632.312-2.894.312-2.934.352-2.972.312-3.012.312-3.05.312-3.13.312-3.167.351-3.207.312-3.247.312-3.285.312-3.364.313-3.402.35-3.442.313-3.481.312-3.56.312-3.598.312-3.676.351-3.676.312-3.794.313-3.833.312-3.872.312-3.911.312-3.99.351-4.067.312-4.107.312-4.185.312-4.224.312-4.263.352-4.38.312-4.381.312-4.498.312-4.537.312-4.615.351-4.654.312-4.733.312-4.81.312-4.85.313-4.928.35-5.046.313-5.045.312-5.163.312-5.202.312-5.28.351-5.358.312-5.436.312-5.515.313-5.554.312-5.632.312-5.75.35-5.788.313-5.867.312-5.945.312-6.062.312-6.101.351-6.18.313-6.219.312-6.336.312-6.414.312-6.492.351-6.571.312-6.65.312-6.726.312-6.806.312-6.883.352-6.962.312-7.04.312-7.119.312-7.196.312-7.275.312-7.353.351-7.43.312-7.51.312-7.588.313-7.666.312-7.705.35-7.822.313-7.9.312-7.94.312-8.018.312-8.096.351-8.174.312-8.214.313-8.291.312-8.37.312-8.41.35-8.486.625-17.131.624-17.366.352-8.76.312-8.8.312-8.84.624-17.835.312-8.956.351-8.996.624-18.07.625-18.147.35-9.113.937-27.34.312-9.073.351-9.113.625-18.148.312-8.995.312-9.035.35-8.917.313-8.918.312-8.878.312-8.8.312-8.722.351-8.683.313-8.604.312-8.488.312-8.409.312-8.33.312-8.214.351-8.096.312-7.978.312-7.823.312-7.705.313-7.587.35-7.392.313-7.275.312-7.08.312-6.883.312-6.727.351-6.532.312-6.336.312-6.101.313-5.906.312-5.671.35-5.476.313-5.202.312-4.967.312-4.693.312-4.459.351-4.185.312-3.872.313-3.637.312-3.364.312-3.011.312-2.738.351-2.464.312-2.112.312-1.838.312-1.487.312-1.173.352-.86.312-.509.312-.156.312.156.312.47.351.86.312 1.173.312 1.526.312 1.838.313 2.23.35 2.541.313 2.895.312 3.207.312 3.559.312 3.911.351 4.263.312 4.576.312 4.89.313 5.201.312 5.554.312 5.867.351 6.18.312 6.492.312 6.766.312 7.08.312 7.352.352 7.627.312 7.94.312 8.174.312 8.448.312 8.683.351 8.956.312 9.152.312 9.426.312 9.621.313 9.857.35 10.012.313 10.247.312 10.443.312 10.6.312 10.755.312 10.912.351 11.069.312 11.225.313 11.342.312 11.499.312 11.577.35 11.694.313 11.812.312 11.85.312 11.969.312 12.046.351 12.085.313 12.164.312 12.203.312 12.242.312 12.28.351 12.32.936 36.961.312 12.36.352 12.32.312 12.32.624 24.562.624 24.405.351 12.164.312 12.085.312 12.047.313 11.968.312 11.929.35 11.85.313 11.812.312 11.694.312 11.656.312 11.538.351 11.46.312 11.38.313 11.304.312 11.186.312 11.068.35 10.99.313 10.913.312 10.794.312 10.678.312 10.56.351 10.482.313 10.364.312 10.248.312 10.13.312 10.012.312 9.895.351 9.778.312 9.66.312 9.583.312 9.426.313 9.308.35 9.192.313 9.073.312 8.957.312 8.84.312 8.76.351 8.565.312 8.527.313 8.37.312 8.252.312 8.096.35 8.018.313 7.9.312 7.823.312 7.666.312 7.548.351 7.431.313 7.353.312 7.197.312 7.118.312 7.001.312 6.884.351 6.805.312 6.688.312 6.57.312 6.454.313 6.375.35 6.258.313 6.18.312 6.062.312 5.984.312 5.867.351 5.788.312 5.672.312 5.593.313 5.514.312 5.398.35 5.319.313 5.24.312 5.163.312 5.046.312 5.006.351 4.89.312 4.81.313 4.732.312 4.655.312 4.615.312 4.497.351 4.42.312 4.38.312 4.303.312 4.224.312 4.146.352 4.106.312 4.029.312 3.95.312 3.872.312 3.833.351 3.794.312 3.715.312 3.638.312 3.598.313 3.56.35 3.48.313 3.442.312 3.403.312 3.324.312 3.286.312 3.246.351 3.207.625 6.258.312 3.05.312 3.012.35 2.973.313 2.933.624 5.788.312 2.816.352 2.777.312 2.777.624 5.398.312 2.62.351 2.66.624 5.162.312 2.543.313 2.503.35 2.464.625 4.928.312 2.425.312 2.386.312 2.346.351 2.386.937 6.923.312 2.268.35 2.269.937 6.688.312 2.19.351 2.23.313 2.15.312 2.19.624 4.303.351 2.151.936 6.336.312 2.151.352 2.073.624 4.224.312 2.073.312 2.112.312 2.073.351 2.073.312 2.112.937 6.219.35 2.112.937 6.218.312 2.112.351 2.112.312 2.073.937 6.336.35 2.112.313 2.112.312 2.152.312 2.112.312 2.15.351 2.152.313 2.151 1.248 8.761.351 2.19.936 6.688.313 2.269.35 2.268.625 4.537.624 4.615.351 2.347.312 2.308.312 2.385.313 2.347.312 2.386.35 2.386.625 4.85.312 2.464.312 2.424.351 2.504.313 2.464.312 2.503.936 7.626.351 2.582.312 2.581.624 5.241.313 2.66.35 2.66.313 2.659.312 2.699.624 5.475.351 2.738.624 5.554.625 5.632.35 2.816.313 2.894.312 2.855.312 2.894.624 5.867.351 2.934.313 3.011.312 2.973.624 6.023.351 3.05.312 3.051.624 6.18.312 3.129.352 3.129.936 9.504.312 3.207.351 3.207.624 6.492.625 6.571.35 3.286.313 3.324.312 3.285.936 10.091.351 3.364.937 10.208.312 3.442.35 3.441.313 3.442.312 3.481.312 3.442.312 3.48.351 3.482.313 3.48.624 7.04.312 3.482.351 3.52.936 10.56.312 3.559.352 3.52.312 3.52.312 3.56.936 10.56.351 3.52.625 7.04.312 3.48.312 3.52.35 3.481.313 3.481.312 3.442.312 3.481.312 3.442.351 3.402.313 3.442.312 3.403.624 6.727.351 3.364.312 3.324.624 6.57.312 3.247.352 3.246.312 3.208.312 3.168.624 6.257.312 3.09.351 3.05.312 3.013.312 2.972.625 5.867.35 2.855.625 5.632.312 2.738.312 2.698.351 2.62.312 2.621.313 2.543.312 2.503.312 2.464.35 2.386.313 2.346.312 2.308.312 2.23.312 2.19.351 2.111.313 2.034.312 1.995.312 1.955.624 3.677.351 1.72.312 1.683.312 1.603.312 1.526.313 1.447.35 1.408.313 1.33.312 1.251.312 1.173.312 1.096.351 1.016.312.94.312.86.313.782.312.704.35.626.313.586.312.47.312.39.312.274.312.235.352.157.312.039h.312l.312-.118.312-.195.351-.274.312-.352.312-.47.312-.508.313-.626.35-.664.313-.783.312-.9.312-.938.312-1.017.351-1.095.312-1.212.312-1.291.313-1.33.312-1.447.35-1.525.313-1.604.312-1.682.312-1.76.312-1.838.312-1.877.351-1.995.313-2.073.312-2.151.312-2.19.312-2.269.351-2.386.312-2.385.312-2.503.312-2.543.312-2.66.352-2.659.312-2.777.312-2.816.312-2.855.312-2.972.351-2.973.312-3.05.312-3.13.312-3.168.313-3.207.35-3.246.313-3.324.312-3.364.624-6.884.312-3.52.351-3.52.312-3.598.625-7.275.312-3.715.35-3.716.625-7.587.624-7.666.351-3.911.313-3.872.624-7.901.312-3.99.351-3.989.312-3.99.624-8.056.312-4.068.352-4.067.624-8.135.312-4.107.312-4.068.312-4.106.351-4.107.312-4.068.937-12.32.35-4.067.313-4.107.936-12.203.351-4.068.937-12.085.312-3.99.351-3.989.312-3.99.312-3.95.624-7.822.352-3.91.312-3.873.624-7.666.624-7.587.351-3.755.624-7.431.313-3.677.312-3.637.35-3.637.937-10.678.312-3.48.351-3.443.312-3.441.313-3.403.312-3.364.312-3.324.35-3.325.625-6.492.624-6.336.351-3.13.313-3.089.312-3.05.312-3.012.312-2.973.312-2.933.351-2.894.312-2.894.312-2.816.312-2.777.313-2.738.35-2.738.625-5.32.312-2.58.312-2.543.351-2.542.624-4.928.313-2.386.312-2.347.35-2.346.625-4.537.312-2.19.624-4.303.351-2.073.313-2.072.312-1.995.624-3.911.351-1.878.312-1.877.624-3.598.312-1.721.352-1.721.312-1.682.624-3.207.312-1.564.351-1.487.312-1.486.312-1.447.313-1.408.312-1.369.35-1.33.313-1.29.312-1.252.312-1.212.312-1.174.312-1.134.351-1.134.625-2.112.312-1.017.312-.939.351-.939.312-.9.624-1.72.312-.782.352-.743.312-.743.312-.704.624-1.252.351-.587.312-.586.624-1.017.313-.43.35-.43.625-.783.624-.626.312-.234.351-.274.312-.196.625-.313.312-.078.35-.078.625-.078.624.078.351.078.313.078.624.313.312.196.351.234.624.548.312.313.312.352.352.391.312.391.312.43.312.47.624 1.017.351.547.312.587.625 1.251.312.665.35.704.313.704.312.783.312.743.312.821.351.821.313.9.312.86.624 1.878.351.977.624 2.034.312 1.095.312 1.056.352 1.135.312 1.134.312 1.173.624 2.425.312 1.29.351 1.291.312 1.291.312 1.33.313 1.369.312 1.408.35 1.447.313 1.447.624 2.973.312 1.564.351 1.565.625 3.207.312 1.642.312 1.682.35 1.721.313 1.72.312 1.761.624 3.598.312 1.838.352 1.878.624 3.833.312 1.955.312 1.995.351 1.995.936 6.218.313 2.112.35 2.19.313 2.152.624 4.458.312 2.269.351 2.308.312 2.307.312 2.347.313 2.386.312 2.425.35 2.424.313 2.464.624 5.007.312 2.542.312 2.581.351 2.62.313 2.621.312 2.66.624 5.397.351 2.738.624 5.554.312 2.855.312 2.816.352 2.894.312 2.894.312 2.934.624 5.945.351 3.011.624 6.102.625 6.18.35 3.167.313 3.13.624 6.414.624 6.492.351 3.285.625 6.65.624 6.727.351 3.402.936 10.326.312 3.48.352 3.52.312 3.52.936 10.678.351 3.598.936 10.912.313 3.677.35 3.676.313 3.677.624 7.431.312 3.755.312 3.715.351 3.755.312 3.794.313 3.755.624 7.587.35 3.794.313 3.794.312 3.833.312 3.794.312 3.833.351 3.793.937 11.5.312 3.793.351 3.833.312 3.794.312 3.833.624 7.587.352 3.794 1.248 15.019.312 3.715.351 3.716.937 11.03.312 3.598.35 3.637.625 7.118.624 7.04.351 3.481.312 3.442.313 3.403.312 3.363.312 3.325.35 3.285.313 3.286.312 3.207.312 3.168.312 3.129.312 3.09.352 3.011.312 3.012.312 2.933.312 2.894.312 2.816.351 2.777.624 5.398.313 2.581.312 2.542.35 2.464.313 2.425.312 2.347.312 2.268.312 2.23.351 2.112.312 2.073.313 1.994.312 1.917.312 1.877.35 1.76.313 1.682.312 1.603.312 1.526.312 1.447.312 1.369.352 1.29.312 1.174.312 1.134.312.978.312.939.351.86.312.743.312.665.312.587.313.469.35.391.313.274.312.195.312.118h.312l.351-.078.312-.196.312-.274.313-.352.312-.47.35-.586.313-.665.312-.743.312-.86.312-.939.312-1.056.351-1.134.313-1.213.312-1.33.312-1.447.312-1.486.351-1.642.312-1.682.312-1.8.312-1.877.312-1.955.352-2.073.312-2.151.312-2.23.312-2.307.312-2.386.351-2.503.312-2.582.312-2.66.312-2.698.313-2.816.35-2.894.313-2.933.312-3.051.312-3.09.312-3.207.312-3.246.351-3.325.312-3.363.313-3.442.312-3.52.312-3.56.351-3.637.312-3.676.312-3.755.312-3.794.312-3.872.352-3.872.624-7.979.312-4.028.312-4.068.351-4.145.624-8.37.625-8.527.35-4.302.625-8.683.312-4.42.312-4.38.312-4.458.351-4.46.312-4.458.313-4.498.624-9.073.35-4.537.625-9.074.624-9.152.351-4.576 1.249-18.305.351-4.576.312-4.576.624-9.074.312-4.576.313-4.536.35-4.498.625-8.996.312-4.459.312-4.497.351-4.42.312-4.42.937-13.141.35-4.302.313-4.342.624-8.526.312-4.224.351-4.185.312-4.185.313-4.146.312-4.106.312-4.068.35-4.029.313-4.028.312-3.99.624-7.822.312-3.872.352-3.833.312-3.833.312-3.754.624-7.431.351-3.638.624-7.196.312-3.52.313-3.481.35-3.442.625-6.805.312-3.325.312-3.285.351-3.247.312-3.207.313-3.168.312-3.129.312-3.05.35-3.051.313-3.012.312-2.933.624-5.788.312-2.817.352-2.776.312-2.738.312-2.699.312-2.66.312-2.58.351-2.582.624-5.006.312-2.425.313-2.386.35-2.386.313-2.308.312-2.268.312-2.23.312-2.19.351-2.112.312-2.112.312-2.073.625-3.989.35-1.956.313-1.877.624-3.676.312-1.76.312-1.721.351-1.721.313-1.643.312-1.603.624-3.13.351-1.486.312-1.447.624-2.816.312-1.33.352-1.33.312-1.25.624-2.426.312-1.134.351-1.134.624-2.112.312-1.017.313-.939.35-.978.313-.9.312-.86.312-.821.624-1.564.351-.704.312-.704.313-.665.624-1.174.35-.586.313-.509.624-.938.312-.43.352-.392.312-.352.624-.626.312-.273.351-.196.312-.235.312-.156.625-.235.312-.078.35-.04h.625l.312.04.312.078.351.118.625.312.312.196.312.235.35.274.313.273.312.313.312.352.312.391.351.391.313.43.624.94.312.508.351.547.312.587.624 1.252.625 1.33.35.742.313.744.624 1.564.312.821.351.86.624 1.8.313.939.312.977.35.978.937 3.168.312 1.095.351 1.135.312 1.173.625 2.425.312 1.251.35 1.252.937 3.99.624 2.815.352 1.448.312 1.447.624 3.05.312 1.565.351 1.564.312 1.604.312 1.642.625 3.364.35 1.721.313 1.76.624 3.598.312 1.838.351 1.878.312 1.877.312 1.917.313 1.994.312 1.956.35 2.034.313 2.034.624 4.145.624 4.303.352 2.19.624 4.459.312 2.268.312 2.308.351 2.346.624 4.772.312 2.425.313 2.464.35 2.464.937 7.627.312 2.62.351 2.62.312 2.66.312 2.738.313 2.699.312 2.776.35 2.777.313 2.816.624 5.71.624 5.867.351 2.973.313 2.972.624 6.102.312 3.09.351 3.128.312 3.13.312 3.167.312 3.208.312 3.246.352 3.285.312 3.286.312 3.324.624 6.727.351 3.403.312 3.442.312 3.48.625 7.04.312 3.56.35 3.559.313 3.598.312 3.638.624 7.353.351 3.715.625 7.51.312 3.793.312 3.833.35 3.833.625 7.744.312 3.911.312 3.95.351 3.95.313 3.951.312 3.99.624 8.057.351 4.067.312 4.068.936 12.32.313 4.146.35 4.145 1.25 16.74.35 4.224.625 8.448.312 4.263.312 4.224.35 4.264.313 4.263.312 4.224.312 4.263.312 4.302.351 4.224.937 12.79.312 4.224.351 4.263.936 12.672.625 8.37.35 4.185.625 8.291.312 4.107.312 4.068.351 4.067.312 4.068.625 7.979.312 3.95.35 3.95.625 7.744.624 7.588.351 3.755.312 3.676.313 3.637.312 3.599.312 3.559.35 3.52.313 3.442.312 3.402.312 3.325.312 3.285.312 3.246.352 3.13.312 3.128.312 3.012.312 2.972.312 2.895.351 2.816.312 2.737.312 2.7.312 2.58.313 2.504.35 2.464.313 2.346.312 2.269.312 2.19.312 2.073.351 2.034.312 1.916.312 1.838.313 1.721.312 1.643.35 1.525.313 1.447.312 1.33.312 1.252.312 1.173.312 1.017.352.939.312.821.312.743.312.626.312.508.351.392.312.312.312.196.312.078.313-.039.35-.156.313-.274.312-.352.312-.47.663-1.33.312-.782.312-.938.313-1.056.312-1.134.312-1.252.35-1.369.313-1.486.312-1.604.312-1.681.312-1.839.351-1.916.313-1.995.312-2.151.312-2.23.312-2.346.351-2.425.312-2.542.312-2.66.312-2.738.312-2.816.352-2.933.312-3.012.312-3.128.312-3.208.312-3.324.351-3.364.312-3.48.312-3.56.312-3.637.313-3.716.312-3.794.35-3.872.313-3.95.312-4.028.312-4.068.312-4.185.351-4.224.312-4.263.625-8.761.312-4.459.35-4.537.313-4.576.312-4.615.624-9.387.351-4.771.625-9.622.312-4.888.312-4.929.351-4.928.936-15.018.312-5.085.313-5.045.35-5.124.937-15.37.312-5.163.351-5.163.312-5.163.312-5.202.313-5.162.312-5.202.35-5.163.313-5.202.936-15.488.351-5.163.313-5.123.312-5.163.312-5.123.312-5.085.351-5.084.312-5.085.312-5.045.937-15.02.35-4.966.313-4.928.624-9.778.312-4.85.351-4.81.624-9.544.625-9.387.35-4.654.313-4.615.312-4.576.312-4.537.312-4.498.351-4.459.312-4.42.313-4.38.312-4.341.312-4.302.35-4.224.313-4.224.312-4.185.312-4.107.624-8.135.352-3.95.312-3.95.312-3.912.312-3.872.312-3.794.351-3.754.312-3.716.312-3.676.625-7.197.35-3.52.313-3.481.312-3.442.312-3.363.312-3.325.351-3.285.312-3.246.312-3.208.313-3.129.312-3.09.312-3.05.35-3.012.313-2.972.312-2.894.312-2.855.312-2.816.351-2.777.625-5.398.312-2.62.312-2.582.351-2.503.312-2.503.624-4.85.312-2.346.352-2.308.312-2.268.624-4.38.312-2.113.351-2.073.312-2.073.312-1.994.313-1.956.624-3.755.35-1.838.625-3.52.624-3.364.351-1.603.625-3.129.624-2.973.351-1.408.312-1.368.312-1.33.624-2.582.352-1.212.624-2.347.624-2.19.351-1.017.312-1.017.312-.978.312-.938.313-.9.312-.86.35-.822.313-.782.624-1.486.312-.704.351-.626.312-.626.625-1.173.312-.508.35-.509.625-.86.624-.783.351-.312.313-.313.312-.274.312-.235.312-.195.351-.196.312-.156.312-.118.624-.156h.976l.624.156.312.118.351.117.624.391.625.47.35.273.313.313.624.704.312.391.351.43.313.43.312.47.312.508.312.548.351.548.624 1.173.312.626.312.704.313.665.35.704.313.743.624 1.564.312.822.351.86.312.86.312.9.625 1.877.35.978.625 2.034.312 1.056.312 1.095.351 1.134.312 1.135.625 2.346.312 1.213.312 1.251.351 1.291.312 1.29.624 2.66.312 1.37.352 1.407.624 2.894.312 1.487.312 1.525.351 1.525.312 1.604.312 1.564.625 3.286.35 1.681.625 3.442.312 1.8.312 1.76.351 1.838.312 1.838.312 1.877.313 1.917.624 3.91.35 1.996.625 4.067.624 4.224.351 2.112.625 4.38.312 2.23.312 2.269.351 2.307.312 2.308.624 4.771.312 2.425.352 2.425.624 5.006.312 2.543.312 2.581.351 2.581.624 5.32.312 2.698.313 2.738.312 2.777.35 2.816.313 2.816.312 2.894.312 2.855.312 2.973.351 2.933.313 3.012.624 6.101.312 3.09.351 3.129.312 3.168.312 3.207.624 6.493.352 3.324.312 3.324.312 3.364.312 3.403.312 3.442.351 3.48.624 7.04.312 3.56.625 7.274.35 3.677.625 7.431.624 7.588.351 3.833.312 3.91.313 3.873.312 3.95.312 3.99.35 3.989.937 12.203.312 4.145.351 4.185.313 4.185.312 4.224.624 8.527.351 4.302.312 4.38.312 4.342.624 8.839.313 4.459.35 4.458.313 4.498.624 9.074.312 4.576.351 4.615.312 4.615.937 13.963.35 4.733.313 4.693.312 4.732.312 4.772.312 4.733.351 4.771 1.56 24.054.352 4.85.312 4.85.312 4.81.624 9.7.352 4.85.624 9.7.312 4.81.312 4.85.351 4.81.312 4.811.312 4.772.313 4.81.312 4.772.35 4.733.313 4.732.624 9.387.312 4.654.351 4.654.625 9.152.312 4.537.312 4.498.312 4.459.351 4.42.312 4.38.312 4.341.624 8.527.352 4.185.312 4.145.312 4.068.312 3.99.312 3.95.351 3.91.312 3.834.312 3.754.312 3.677.313 3.598.35 3.56.313 3.441.312 3.364.312 3.285.312 3.207.351 3.129.312 3.05.312 2.934.313 2.816.312 2.777.312 2.62.35 2.543.313 2.464.312 2.346.312 2.23.312 2.112.351 1.995.313 1.916.312 1.8.312 1.642.312 1.564.351 1.408.312 1.29.312 1.213.312 1.056.312.94.352.781.312.704.312.548.312.391.312.313.351.156h.312l.312-.117.312-.235.313-.352.312-.547.35-.626.313-.782.312-.9.312-1.056.312-1.212.351-1.291.312-1.447.313-1.604.312-1.72.312-1.839.351-1.994.312-2.113.312-2.229.312-2.347.312-2.503.352-2.62.312-2.777.312-2.855.312-2.973.312-3.129.351-3.207.312-3.363.312-3.442.312-3.56.313-3.676.312-3.794.35-3.91.313-3.99.312-4.107.312-4.185.312-4.302.351-4.38.312-4.498.313-4.576.312-4.655.312-4.732.35-4.85.313-4.889.312-4.967.312-5.084.312-5.124.351-5.163.313-5.28.312-5.319.312-5.358.312-5.437.351-5.514.312-5.515.312-5.593.312-5.632.625-11.42.35-5.75.313-5.789.624-11.655.312-5.906.351-5.905.312-5.906.625-11.89.312-5.984.35-5.984.313-5.984.312-6.024.624-11.968.351-6.023.312-5.984.313-6.023.624-11.968.312-5.945.351-5.984.312-5.906.312-5.945.312-5.906.312-5.866.352-5.867.624-11.655.312-5.789.312-5.75.351-5.71.312-5.71.624-11.264.313-5.593.35-5.554.313-5.514.312-5.476.312-5.437.312-5.397.351-5.358.625-10.56.624-10.404.312-5.124.351-5.045.312-5.045.312-4.967.312-4.928.312-4.89.352-4.85.312-4.77.312-4.733.312-4.655.312-4.615.351-4.576.312-4.537.312-4.458.312-4.42.313-4.341.35-4.303.313-4.263.312-4.185.312-4.146.312-4.067.351-4.029.312-3.989.312-3.911.313-3.872.312-3.794.312-3.755.35-3.715.313-3.638.312-3.598.312-3.559.312-3.481.351-3.403.313-3.402.312-3.325.312-3.285.312-3.207.351-3.168.312-3.13.624-6.022.312-2.973.352-2.933.624-5.632.312-2.777.312-2.699.351-2.66.624-5.162.312-2.503.313-2.464.312-2.386.35-2.386.313-2.308.312-2.268.312-2.23.312-2.15.351-2.152.312-2.073.313-2.033.312-1.995.312-1.956.35-1.916.313-1.877.624-3.599.312-1.76.352-1.681.624-3.286.312-1.564.312-1.526.312-1.486.351-1.486.312-1.408.625-2.738.312-1.29.35-1.252.313-1.252.624-2.346.312-1.135.351-1.095.937-3.05.312-.94.35-.899.313-.9.312-.86.624-1.564.351-.782.625-1.408.312-.665.312-.626.312-.587.351-.586.936-1.526.313-.43.35-.43.313-.391.624-.704.312-.313.351-.274.312-.274.312-.235.313-.195.312-.157.35-.156.625-.235.312-.078.312-.039h.663l.625.078.312.078.312.118.351.117.624.313.312.235.312.195.352.274.624.548.312.313.312.352.351.352.312.39.937 1.291.35.509.625 1.017.312.547.312.587.351.587.312.586.937 1.995.312.704.351.743.312.743.624 1.565.312.821.352.86.624 1.721.312.9.312.939.351.938.312.978.624 2.034.313 1.056.35 1.056.313 1.095.312 1.134.312 1.095.312 1.174.351 1.173.312 1.212.937 3.755.312 1.33.35 1.33.313 1.33.312 1.368.312 1.408.312 1.448.351 1.408.625 2.972.312 1.525.312 1.565.351 1.564.624 3.207.312 1.643.312 1.682.352 1.72.312 1.722.312 1.76.624 3.598.312 1.838.351 1.838.937 5.75.312 1.995.35 1.994.313 2.034.624 4.146.312 2.112.351 2.151.625 4.38.624 4.537.35 2.308.313 2.308.312 2.346.624 4.85.351 2.425.625 5.006.624 5.163.312 2.62.351 2.66.312 2.66.624 5.475.313 2.816.35 2.816.313 2.855.312 2.895.312 2.933.312 2.972.351 2.973.312 3.05.625 6.18.312 3.168.35 3.168.625 6.493.312 3.285.312 3.364.351 3.363.313 3.403.312 3.442.624 7.04.312 3.56.351 3.597.312 3.638.624 7.43.313 3.756.35 3.832.313 3.833.624 7.823.312 3.99.351 3.988.624 8.136.313 4.145.312 4.185.35 4.224.313 4.224.312 4.303.312 4.341.312 4.38.351 4.42.312 4.459.313 4.498.312 4.537.624 9.23.351 4.654.312 4.694.624 9.543.312 4.81.352 4.85.624 9.856.312 4.968.312 5.006.351 5.045.312 5.085.312 5.123.625 10.326.35 5.24.313 5.242.312 5.28.312 5.319.312 5.358.351 5.397.312 5.398.312 5.436.625 10.952.312 5.514.35 5.515.313 5.593.312 5.554.312 5.593.312 5.632.352 5.632 1.248 22.684.351 5.71.936 17.132.313 5.749.35 5.71 1.25 22.841.35 5.71.624 11.343.625 11.264.312 5.593.35 5.593.313 5.554.624 11.03.312 5.436.351 5.397.313 5.397.312 5.32.312 5.28.312 5.24.351 5.202.312 5.124.312 5.045.312 5.007.312 4.928.352 4.85.312 4.81.312 4.733.312 4.615.312 4.576.312 4.459.351 4.42.312 4.301.312 4.185.313 4.107.312 3.99.35 3.91.313 3.794.312 3.677.312 3.559.312 3.442.351 3.324.312 3.207.313 3.051.312 2.973.312 2.816.35 2.66.313 2.541.312 2.425.312 2.23.312 2.112.351 1.994.313 1.8.312 1.681.312 1.487.312 1.368.312 1.174.351 1.056.312.86.312.704.312.548.313.391.35.196.313.039.312-.118.312-.313.312-.469.351-.626.312-.821.312-.978.313-1.173.312-1.33.35-1.486.313-1.643.312-1.877.312-1.995.312-2.19.351-2.347.313-2.503.312-2.66.312-2.855.312-3.011.312-3.168.351-3.286.312-3.48.312-3.638.312-3.794.313-3.95.35-4.068.313-4.224.312-4.38.312-4.498.312-4.654.351-4.772.312-4.928.312-5.045.313-5.163.312-5.28.35-5.437.313-5.514.312-5.632.312-5.71.312-5.867.351-5.945.312-6.023.313-6.14.312-6.22.312-6.297.312-6.414.351-6.453.312-6.532.312-6.61.312-6.688.312-6.727.352-6.805.624-13.768.312-6.961.312-7.001.351-7.04.312-7.08.312-7.118.625-14.315.35-7.196.313-7.197.624-14.47.312-7.276.351-7.274.312-7.236.937-21.824.312-7.236.35-7.235.313-7.236.624-14.393.312-7.158.351-7.157.625-14.236.624-14.08.351-7.002.312-6.961.312-6.923.312-6.884.312-6.844.352-6.767.312-6.766.312-6.727.312-6.649.312-6.61.312-6.57.351-6.493.312-6.453.625-12.75.312-6.259.35-6.257.625-12.281.312-6.024.312-5.984.351-5.945.313-5.866.312-5.828.312-5.71.312-5.671.351-5.632.312-5.554.312-5.476.312-5.397.312-5.358.352-5.32.312-5.201.312-5.163.312-5.085.312-5.006.312-4.967.351-4.889.312-4.85.625-9.465.312-4.615.35-4.576.313-4.498.312-4.42.312-4.38.312-4.302.351-4.224.312-4.185.313-4.107.312-4.028.312-3.99.35-3.91.313-3.873.312-3.794.312-3.754.312-3.677.351-3.637.625-7.04.312-3.442.312-3.364.312-3.324.351-3.286.312-3.207.624-6.258.313-3.011.35-2.973.313-2.972.312-2.855.312-2.816.312-2.777.351-2.738.312-2.699.312-2.62.313-2.581.312-2.504.35-2.464.313-2.425.312-2.385.312-2.347.312-2.268.351-2.23.313-2.19.312-2.151.312-2.112.312-2.073.312-2.034.351-1.995.624-3.833.312-1.838.313-1.799.35-1.799.625-3.442.624-3.285.351-1.604.624-3.05.313-1.487.312-1.447.35-1.408.313-1.408.624-2.66.312-1.29.351-1.252.312-1.212.625-2.347.312-1.134.312-1.095.351-1.095.312-1.056.312-1.017.624-1.956.352-.938.624-1.8.312-.86.312-.821.351-.822.624-1.564.312-.743.313-.704.35-.704.625-1.33.624-1.252.312-.586.351-.587.312-.548.937-1.525.35-.47.313-.43.312-.469.312-.39.312-.431.351-.352.313-.391.312-.313.312-.352.312-.313.351-.313.624-.547.624-.47.352-.195.312-.235.312-.196.936-.469.351-.156.312-.118.625-.156.312-.118.35-.039.937-.117h.976l.936.117.351.04.312.117.624.156.312.118.352.117.312.117.936.47.312.195.351.196.624.39.625.47.35.235.313.274.312.234.312.313.312.274.351.313.312.274.313.352.312.313.312.352.35.352.313.352.936 1.173.351.391.313.391.312.43.312.47.312.43.312.47.351.469.312.469.937 1.525.35.509.937 1.642.312.587.351.587.312.586.625 1.252.312.587.35.665.313.625.312.704.312.665.312.704.351.665.312.743.313.704.624 1.486.312.783.351.743.312.821.312.782.624 1.643.352.86.624 1.721.624 1.8.351.9.312.899.312.938.625 1.956.35.978.313 1.017.312.977.936 3.168.351 1.056.313 1.096.936 3.402.351 1.174.624 2.346.312 1.252.312 1.212.352 1.252.312 1.251.312 1.291.624 2.66.351 1.33.312 1.368.312 1.408.312 1.37.313 1.446.35 1.448.313 1.447.312 1.486.624 3.05.312 1.565.351 1.565.625 3.207.312 1.642.312 1.682.35 1.682.625 3.442.312 1.76.312 1.799.351 1.838.625 3.677.624 3.833.351 1.955.312 1.956.312 1.994.312 2.034.312 2.073.352 2.073.312 2.112.312 2.151.624 4.38.312 2.27.351 2.268.312 2.268.625 4.693.312 2.425.35 2.425.313 2.464.312 2.503.312 2.543.312 2.581.351 2.581.625 5.32.312 2.698.312 2.777.351 2.777.624 5.71.312 2.895.312 2.972.352 2.972.312 3.012.624 6.18.312 3.168.312 3.207.351 3.207.312 3.285.312 3.325.313 3.363.312 3.442.35 3.442.313 3.52.312 3.56.312 3.597.312 3.638.351 3.715.312 3.716.313 3.794.312 3.833.312 3.91.35 3.951.313 3.99.312 4.028.312 4.107.312 4.146.351 4.224.274 4.263.35 4.302.313 4.38.312 4.42.312 4.459.351 4.537.312 4.576.312 4.654.312 4.693.313 4.772.35 4.81.313 4.85.624 9.935.312 5.045.351 5.124.312 5.163.312 5.24.313 5.28.312 5.32.35 5.436.313 5.476.312 5.514.312 5.593.312 5.632.312 5.71.351 5.79.313 5.827.312 5.906.312 5.945.312 6.023.351 6.062.312 6.14.312 6.18.312 6.258.312 6.297.352 6.375.624 12.907.312 6.57.312 6.61.351 6.65.312 6.687.312 6.767.625 13.689.35 6.923.625 14.001.312 7.08.312 7.118.312 7.157.351 7.197.625 14.55.312 7.313.312 7.392.351 7.392.312 7.431.624 14.941.312 7.51.352 7.548 1.248 30.35.351 7.627.624 15.254.312 7.665.313 7.627.35 7.588.313 7.627.624 15.175.624 15.097.351 7.51.312 7.47.313 7.43.624 14.707.35 7.274.313 7.236.312 7.157.312 7.119.312 7 .351 6.962.313 6.884.312 6.766.312 6.65.312 6.61.351 6.453.312 6.375.312 6.258.312 6.1.312 6.024.352 5.867.312 5.75.312 5.553.312 5.437.312 5.28.312 5.123.351 4.967.312 4.772.312 4.576.313 4.42.312 4.263.35 4.028.313 3.833.312 3.637.312 3.442.312 3.207.351 2.973.312 2.777.313 2.542.312 2.308.312 2.112.35 1.838.313 1.603.312 1.37.312 1.094.312.861.352.587.273.39.35.079.313-.156.312-.43.312-.666.351-.977.312-1.174.312-1.486.313-1.72.312-2.035.35-2.229.313-2.542.312-2.777.312-3.05.312-3.286.351-3.56.312-3.832.313-4.029.312-4.341.312-4.537.35-4.81.313-5.007.312-5.28.312-5.515.312-5.71.351-5.945.274-6.18.35-6.375.313-6.57.312-6.806.312-7 .351-7.158.312-7.392.312-7.549.312-7.705.313-7.9.35-8.057.313-8.175.312-8.37.312-8.487.312-8.643.351-8.8.312-8.879.312-9.034.313-9.113.312-9.23.35-9.348.313-9.426.312-9.504.312-9.583.312-9.66.312-9.739.351-9.817.313-9.856.312-9.895.312-9.934.312-9.974.351-10.012.312-10.052.936-30.272.352-10.091 1.248-40.363.351-10.052.312-10.051.312-10.013.312-9.973.313-9.935.35-9.895.313-9.895.312-9.817.312-9.778.624-19.4.351-9.582.312-9.582.313-9.465.312-9.426.312-9.347.351-9.309.312-9.191.312-9.152.312-9.035.312-8.996.352-8.878.312-8.84.312-8.72.312-8.684.312-8.565.351-8.448.312-8.41.312-8.29.312-8.214.313-8.135.35-8.018.313-7.94.312-7.822.312-7.783.312-7.627.312-7.588.351-7.47.312-7.392.313-7.275.312-7.157.312-7.118.35-6.962.313-6.923.312-6.805.312-6.728.312-6.61.351-6.531.313-6.453.312-6.336.312-6.258.312-6.18.351-6.062.312-5.984.312-5.906.312-5.789.312-5.749.352-5.632.273-5.515.35-5.475.313-5.359.312-5.319.312-5.202.351-5.123.312-5.046.312-4.967.313-4.889.312-4.81.35-4.733.313-4.654.312-4.576.312-4.498.312-4.42.351-4.341.312-4.302.313-4.224.312-4.146.312-4.068.35-4.028.313-3.911.312-3.872.312-3.833.312-3.755.351-3.676.274-3.638.35-3.559.313-3.52.312-3.442.312-3.402.351-3.325.312-3.285.312-3.247.312-3.168.313-3.129.35-3.05.313-3.05.312-2.973.312-2.934.312-2.855.351-2.855.312-2.777.313-2.738.312-2.698.312-2.66.35-2.62.313-2.582.312-2.542.312-2.503.312-2.464.312-2.425.313-2.386.35-2.347.313-2.346.624-4.537.351-2.23.624-4.38.625-4.224.35-2.073.313-2.073.312-2.034.624-3.99.351-1.955.937-5.75.312-1.876.35-1.839.313-1.838.936-5.397.312-1.76.351-1.76.937-5.163.312-1.682.351-1.682.312-1.681.936-4.928.352-1.643 1.248-6.414.351-1.604.312-1.604.624-3.128.313-1.604.35-1.564.937-4.694.312-1.525.312-1.565.351-1.564.937-4.694.312-1.525.35-1.564.625-3.13.312-1.603.312-1.564.352-1.565.312-1.603.312-1.565.312-1.603.312-1.565.351-1.603.312-1.643.624-3.207.313-1.643.35-1.643.274-1.642.35-1.682.313-1.682.312-1.642.312-1.721.351-1.682.312-1.682.313-1.76.624-3.442.35-1.76.313-1.799.312-1.76.624-3.598.351-1.838.313-1.839.936-5.632.351-1.916.624-3.833.624-3.911.352-2.034.273-1.995.35-2.034.313-2.033.624-4.146.351-2.112.312-2.112.312-2.151.625-4.38.35-2.191.313-2.23.624-4.536.312-2.308.351-2.307.312-2.386.313-2.347.312-2.425.312-2.386.35-2.464.313-2.464.312-2.503.624-5.084.625-5.163.35-2.66.625-5.319.312-2.738.351-2.737.312-2.777.624-5.632.313-2.856.35-2.894.625-5.866.312-2.973.312-3.012.351-3.05.624-6.18.625-6.336.35-3.207.625-6.493.624-6.649.312-3.363.312-3.403.352-3.442.624-6.961.312-3.56.351-3.559.624-7.274.312-3.677.313-3.716.35-3.754.313-3.755.312-3.833.624-7.744.351-3.95.312-3.95.312-3.99.313-4.067.312-4.029.35-4.107.313-4.145.312-4.185.624-8.448.312-4.303.351-4.302.313-4.341.312-4.42.312-4.38.312-4.46.351-4.497.312-4.498.624-9.152.312-4.615.352-4.654.624-9.387.624-9.543.351-4.772.624-9.7.312-4.888.313-4.928.35-4.928.274-4.968.35-5.006.313-5.006.312-5.046.312-5.084.351-5.084.312-5.085.313-5.124.624-10.325.35-5.163.937-15.605.312-5.241.351-5.241.313-5.202.312-5.28.312-5.24.312-5.28.351-5.242.624-10.56.624-10.482.352-5.24.273-5.242.35-5.24.313-5.242.312-5.162.312-5.202.351-5.163.312-5.163.313-5.123.624-10.17.35-5.045.313-5.006.312-4.967.312-4.928.312-4.889.351-4.889.313-4.81.624-9.466.312-4.654.351-4.615.312-4.537.312-4.498.312-4.42.312-4.34.313-4.303.312-4.224.35-4.146.313-4.067.312-3.99.312-3.91.351-3.795.312-3.715.312-3.638.313-3.559.312-3.442.35-3.363.313-3.246.312-3.13.312-3.05.312-2.933.351-2.816.312-2.66.313-2.62.312-2.465.312-2.307.35-2.23.313-2.111.312-1.956.312-1.8.312-1.72.312-1.565.313-1.408.35-1.29.313-1.174.312-1.016.312-.86.351-.705.312-.587.312-.43.312-.274.313-.156h.35l.313.196.312.273.312.47.312.625.351.744.312.938.312 1.056.313 1.213.312 1.369.35 1.525.313 1.682.312 1.838.312 1.956.312 2.112.312 2.268.352 2.425.312 2.542.312 2.699.312 2.855.312 2.972.351 3.09.312 3.286.312 3.363.312 3.52.313 3.677.35 3.754.313 3.912.312 4.028.312 4.185.312 4.263.351 4.38.312 4.538.312 4.615.313 4.693.312 4.85.35 4.928.274 5.045.351 5.124.312 5.202.312 5.319.312 5.436.351 5.476.313 5.554.312 5.671.312 5.71.312 5.789.351 5.866.312 5.945.312 5.984.312 6.063.312 6.101.352 6.14.312 6.22.312 6.257.312 6.297.312 6.336.351 6.375.312 6.415.624 12.906.313 6.493.35 6.492.274 6.532.35 6.57.313 6.532.624 13.142.351 6.61.625 13.141.312 6.61.312 6.57.35 6.571 1.25 26.127.35 6.492.313 6.493.936 19.243.351 6.375.312 6.336.312 6.297.312 6.258.625 12.437.312 6.14.35 6.141.313 6.062.312 6.024.312 5.984.351 5.945.312 5.905.625 11.656.312 5.71.35 5.71.313 5.671.312 5.593.624 11.03.351 5.436.313 5.359.312 5.319.312 5.28.312 5.202.351 5.162.312 5.085.312 5.045.312 4.967.312 4.928.313 4.85.312 4.81.35 4.733.313 4.694.312 4.615.312 4.576.351 4.498.312 4.458.312 4.381.313 4.341.312 4.263.35 4.185.313 4.146.312 4.107.312 4.028.312 3.95.351 3.912.312 3.872.313 3.794.312 3.715.312 3.677.35 3.637.313 3.56.624 6.961.624 6.727.313 3.247.35 3.246.313 3.168.312 3.129.312 3.05.351 3.012.312 2.933.312 2.895.312 2.855.313 2.777.35 2.777.313 2.698.312 2.62.624 5.163.351 2.464.312 2.464.312 2.386.313 2.347.312 2.308.35 2.268.313 2.19.624 4.303.312 2.033.312 2.073.351 1.956.313 1.955.624 3.755.312 1.8.351 1.798.312 1.721.312 1.682.624 3.285.352 1.565.312 1.525.312 1.486.624 2.895.351 1.408.624 2.66.625 2.502.35 1.213.274 1.173.351 1.134.312 1.135.624 2.112.351 1.017.313.977.312.939.624 1.8.351.86.312.821.624 1.564.312.744.352.704.312.704.312.664.312.626.312.587.351.587.312.547.624 1.017.625.939.312.39.35.431.937 1.056.351.274.625.547.312.235.312.196.35.195.625.313.624.235.351.078.937.117h.312l.351-.039.312-.039.624-.156.625-.235.312-.156.35-.157.313-.195.312-.157.312-.235.351-.234.624-.548.625-.626.35-.313.313-.352.936-1.173.351-.43.312-.43.313-.47.312-.508.312-.47.351-.547.312-.508.312-.587.312-.548.312-.586.625-1.252.35-.626.625-1.33.312-.703.351-.744.312-.704.312-.782.313-.743.312-.821.35-.783.313-.82.624-1.722.312-.9.351-.899.312-.9.313-.938.624-1.956.35-.977.313-1.017.936-3.168.625-2.19.35-1.174.313-1.134.312-1.174.312-1.212.351-1.173.624-2.504.625-2.58.35-1.33.313-1.33.624-2.738.312-1.408.351-1.447.312-1.448.625-2.972.312-1.525.35-1.565.274-1.525.351-1.604.312-1.603.312-1.643.312-1.682.351-1.682.625-3.441.312-1.76.312-1.8.351-1.799.312-1.838.624-3.755.312-1.916.352-1.956.624-3.989.312-2.034.312-2.073.351-2.073.312-2.112.624-4.302.937-6.688.35-2.308.625-4.693.312-2.386.351-2.425.313-2.425.624-5.006.312-2.581.351-2.581.312-2.582.312-2.699.312-2.66.312-2.737.352-2.738.624-5.632.312-2.855.312-2.894.351-2.973.312-2.972.312-3.012.312-3.05.313-3.09.312-3.13.312-3.167.35-3.207.313-3.247.312-3.285.312-3.324.351-3.364.312-3.403.313-3.441.624-7.04.35-3.56.313-3.637.624-7.353.312-3.794.351-3.794.313-3.833.312-3.872.312-3.91.312-3.99.351-4.029.312-4.067.312-4.107.312-4.146.625-8.448.312-4.302.35-4.341.313-4.38.312-4.46.312-4.497.351-4.537.312-4.576.312-4.616.625-9.386.35-4.772.625-9.7.312-4.928.312-4.967.351-5.006.312-5.045.313-5.124.312-5.163.312-5.202.35-5.24.313-5.28.312-5.359.312-5.397.312-5.437.312-5.475.313-5.515.35-5.593.313-5.593.312-5.671.312-5.71.351-5.75.312-5.788.625-11.655.312-5.906.35-5.984.313-5.945.312-6.023.312-6.063.312-6.101.351-6.101.625-12.36.312-6.218.312-6.258.35-6.258.274-6.297.351-6.297.312-6.336.624-12.75.313-6.415.35-6.414.625-12.828.312-6.454.351-6.453 1.249-25.814.35-6.453 1.25-25.657.35-6.375.624-12.673.625-12.515.312-6.219.312-6.18.351-6.14.312-6.102.312-6.023.312-5.984.351-5.945.313-5.866.312-5.789.312-5.75.312-5.631.351-5.593.312-5.515.312-5.397.312-5.359.312-5.201.352-5.124.312-5.045.312-4.928.312-4.811.312-4.733.351-4.576.312-4.458.312-4.342.312-4.185.313-4.067.312-3.95.312-3.794.35-3.638.313-3.52.312-3.324.312-3.168.351-3.051.312-2.855.313-2.699.312-2.542.312-2.347.351-2.15.312-1.996.312-1.838.312-1.603.312-1.448.352-1.251.312-1.056.312-.86.312-.665.312-.47.351-.274.312-.039.312.118.312.352.313.508.312.782.312.939.35 1.134.313 1.37.312 1.564.312 1.76.351 1.994.312 2.19.313 2.347.312 2.582.312 2.777.35 3.011.313 3.168.312 3.364.312 3.559.312 3.755.351 3.95.313 4.146.312 4.302.312 4.498.312 4.654.351 4.85.312 5.006.312 5.202.312 5.32.312 5.514.313 5.67.312 5.829.35 5.944.313 6.102.312 6.258.312 6.375.351 6.532.312 6.648.312 6.767.313 6.844.312 7.001.35 7.118.313 7.197.312 7.314.312 7.392.312 7.51.351 7.548.312 7.666.313 7.744.312 7.783.312 7.9.35 7.901.625 16.036.312 8.096.312 8.135.312 8.174.313 8.214.35 8.252.313 8.253.624 16.583.351 8.33.312 8.331.312 8.37.625 16.662.35 8.33.625 16.662.624 16.583.351 8.253.312 8.252.313 8.214.624 16.348.624 16.192.351 8.018.312 8.018.312 7.94.312 7.9.313 7.862.35 7.783.313 7.783.312 7.666.312 7.627.351 7.587.312 7.549.624 14.862.313 7.314.35 7.275.625 14.314.312 7.04.312 7.002.351 6.922.312 6.845.312 6.766.313 6.727.312 6.61.312 6.57.312 6.493.351 6.415.312 6.336.312 6.257.312 6.18.351 6.101.313 6.024.312 5.945.312 5.866.312 5.828.351 5.71.312 5.632.312 5.593.312 5.476.312 5.436.352 5.32.312 5.28.312 5.201.312 5.124.312 5.045.351 4.967.312 4.89.312 4.81.312 4.772.313 4.693.312 4.576.312 4.537.35 4.498.313 4.38.312 4.303.312 4.263.351 4.224.312 4.106.313 4.029.312 3.99.312 3.95.35 3.872.313 3.793.312 3.716.312 3.676.312 3.599.352 3.559.312 3.48.312 3.404.312 3.363.312 3.325.351 3.246.312 3.207.312 3.129.312 3.09.313 3.011.312 2.973.312 2.933.35 2.855.313 2.816.312 2.777.312 2.699.351 2.699.312 2.62.625 5.085.312 2.464.35 2.464.313 2.385.312 2.347.312 2.308.312 2.229.351 2.23.313 2.19.624 4.224.312 2.073.351 1.994.312 1.995.312 1.955.312 1.917.312 1.877.313 1.839.312 1.799.35 1.76.313 1.76.624 3.363.351 1.643.312 1.643.625 3.129.312 1.525.35 1.525.937 4.342.312 1.408.351 1.369.625 2.66.624 2.58.35 1.252.274 1.252.351 1.173.312 1.212.312 1.174.312 1.134.313 1.173.35 1.095.625 2.19.312 1.057.351 1.056.936 3.05.313.978.35.978.937 2.816.312.9.351.9.624 1.798.625 1.721.312.821.312.86.351.822.312.822.312.782.312.821.312.782.352.783.312.782.312.743.312.782.351.743.624 1.487.312.704.313.743.35.743 1.25 2.816.35.704.624 1.408.313.665.312.704.624 1.33.351.704.624 1.33.312.703.351.665 1.249 2.66.351.665.312.704.936 1.994.352.665.312.704.936 1.995.351.704.312.665.312.704.312.665.937 2.112.35.704.937 2.112.351.743.312.704.937 2.23.35.742.937 2.23.312.782.351.782.937 2.347.312.821.351.783.624 1.642.312.86.312.822.625 1.72.35.861.313.86.624 1.8.351.9.625 1.799.624 1.877.35.978.313.978.312.938.312 1.017.312.978.351 1.017.625 2.034.624 2.112.351 1.056.273 1.095.351 1.095.312 1.134.312 1.095.313 1.174.312 1.134.35 1.173.313 1.173.624 2.425.351 1.213.624 2.503.625 2.581.35 1.291.625 2.66.624 2.737.351 1.408.312 1.408.937 4.342.312 1.525.312 1.486.351 1.526.624 3.129.625 3.207.35 1.642.313 1.643.624 3.364.351 1.76.312 1.72.312 1.8.312 1.76.313 1.838.35 1.838.625 3.755.312 1.916.312 1.956.351 1.956.312 1.994.312 2.034.625 4.146.624 4.224.351 2.19.312 2.19.624 4.46.352 2.307.312 2.307.312 2.347.312 2.386.312 2.425.351 2.425.624 5.006.312 2.542.313 2.581.35 2.62.625 5.32.624 5.476.351 2.816.624 5.71.313 2.894.624 5.945.312 3.05.351 3.052.624 6.257.312 3.208.351 3.246.313 3.285.312 3.325.312 3.363.312 3.403.351 3.442.312 3.52.624 7.118.312 3.637.352 3.716.312 3.716.312 3.793.312 3.833.312 3.872.351 3.95.312 3.95.312 4.03.312 4.106.313 4.146.312 4.185.312 4.224.35 4.302.313 4.341.312 4.381.312 4.459.351 4.497.312 4.577.313 4.615.312 4.654.312 4.732.35 4.811.313 4.81.624 9.857.312 5.045.351 5.046.313 5.123.312 5.202.312 5.241.312 5.32.351 5.358.273 5.397.351 5.475.312 5.554.312 5.593.313 5.671.312 5.71.35 5.79.313 5.827.312 5.906.312 5.945.351 6.023.312 6.062.312 6.14.313 6.18.312 6.219.35 6.297.313 6.375.312 6.414.312 6.454.312 6.531.351 6.571.313 6.61.312 6.688.312 6.727.624 13.61.312 6.884.351 6.923.624 14.002.625 14.158.35 7.158.625 14.393.312 7.235.351 7.314.312 7.314.625 14.706.312 7.392.35 7.431.313 7.432.936 22.41.351 7.47.625 15.02.312 7.47.312 7.51.624 14.94.351 7.47.624 14.862.312 7.353.313 7.392.35 7.314.313 7.275.312 7.236.312 7.196.351 7.118.312 7.08.312 7.04.312 6.922.313 6.884.35 6.805.313 6.728.312 6.61.312 6.531.312 6.453.351 6.336.312 6.22.312 6.1.313 5.985.312 5.866.312 5.75.312 5.593.351 5.475.312 5.28.312 5.163.312 5.006.351 4.85.313 4.654.312 4.498.312 4.303.312 4.145.351 3.911.312 3.755.312 3.56.312 3.324.312 3.168.352 2.933.312 2.699.312 2.464.312 2.268.312 2.034.351 1.8.312 1.564.312 1.33.313 1.095.312.86.312.587.312.352.351.117.312-.156.312-.391.312-.665.351-.939.313-1.173.312-1.408.312-1.682.312-1.956.351-2.19.312-2.425.312-2.699.312-2.972.312-3.207.352-3.442.312-3.716.312-3.95.312-4.185.312-4.42.351-4.654.273-4.928.351-5.123.312-5.359.313-5.553.312-5.789.312-6.023.35-6.18.313-6.414.312-6.649.312-6.805.351-6.962.312-7.197.313-7.353.312-7.509.312-7.705.35-7.822.313-8.018.312-8.135.312-8.292.312-8.448.351-8.565.313-8.683.312-8.8.312-8.879.312-9.034.312-9.113.312-9.191.351-9.309.312-9.348.312-9.465.313-9.504.312-9.582.35-9.66.313-9.661.312-9.739.312-9.778.351-9.778.937-29.568.312-9.895.35-9.895.937-29.686.312-9.856.351-9.895.937-29.451.624-19.478.312-9.7.351-9.62.312-9.622.312-9.543.313-9.504.312-9.426.35-9.387.313-9.308.312-9.27.312-9.191.351-9.152.312-9.074.312-8.957.313-8.917.312-8.84.35-8.76.313-8.683.312-8.604.312-8.527.312-8.448.351-8.37.312-8.252.313-8.174.312-8.097.312-8.017.312-7.9.312-7.823.351-7.744.312-7.666.312-7.549.312-7.47.313-7.353.35-7.275.313-7.196.312-7.08.312-7.04.351-6.883.312-6.844.312-6.728.312-6.61.313-6.57.35-6.454.313-6.375.312-6.258.312-6.18.312-6.1.351-5.985.312-5.945.312-5.827.313-5.75.312-5.632.312-5.593.312-5.475.351-5.398.312-5.319.312-5.24.312-5.163.351-5.046.313-5.006.312-4.928.312-4.81.312-4.772.351-4.694.312-4.576.312-4.537.312-4.458.312-4.38.352-4.303.312-4.263.312-4.185.312-4.107.312-4.028.351-3.95.273-3.912.351-3.833.312-3.794.625-7.353.312-3.598.35-3.52.625-6.883.312-3.325.351-3.324.313-3.247.624-6.336.312-3.05.351-3.051.312-3.012.312-2.933.312-2.894.312-2.816.352-2.816.312-2.738.624-5.398.312-2.62.624-5.084.351-2.504.312-2.464.313-2.425.624-4.771.35-2.308.625-4.537.312-2.19.351-2.19.312-2.151.625-4.224.312-2.073.35-2.034.313-2.034.312-1.955.312-1.995.312-1.917.351-1.916.625-3.755.624-3.676.312-1.8.312-1.76.351-1.798.312-1.721.312-1.76.313-1.682.312-1.721.35-1.682.937-4.928.351-1.643.937-4.81.312-1.565.35-1.603.313-1.526.312-1.564.312-1.525.312-1.565.351-1.525.312-1.526.313-1.486.312-1.525.312-1.486.312-1.526.312-1.486.351-1.486 1.249-5.945.35-1.486.937-4.46.351-1.485.312-1.487.312-1.447.625-2.972.35-1.526.625-2.972.312-1.525.312-1.487.351-1.525.937-4.576.312-1.564.312-1.526.312-1.564.351-1.526.312-1.603.312-1.565.312-1.603.313-1.565.35-1.603.313-1.643.312-1.604.312-1.642.351-1.643 1.249-6.727.35-1.721.313-1.72.312-1.76.312-1.722.312-1.799.351-1.76.273-1.799.351-1.838.937-5.515.312-1.877.351-1.917.624-3.833.312-1.955.351-1.995.625-3.99.312-2.033.312-2.073.351-2.034.624-4.224.624-4.302.352-2.19.312-2.19.624-4.46.312-2.268.624-4.615.351-2.347.625-4.771.312-2.425.312-2.464.35-2.464.313-2.503.624-5.085.351-2.581.625-5.241.312-2.66.312-2.698.351-2.738.312-2.738.312-2.777.312-2.855.312-2.816.352-2.894.312-2.895.312-2.933.312-2.972.624-6.024.312-3.09.351-3.09.312-3.128.313-3.168.624-6.414.35-3.286.313-3.285.312-3.325.312-3.363.351-3.403.312-3.442.313-3.48.312-3.52.312-3.56.35-3.559.625-7.275.312-3.676.312-3.755.351-3.755.313-3.793.312-3.833.312-3.872.312-3.911.312-3.95.312-3.99.351-4.029.312-4.067.312-4.107.625-8.292.35-4.224.313-4.224.312-4.302.312-4.341.351-4.342.312-4.38.625-8.918.312-4.497.35-4.576.313-4.537.312-4.655.312-4.615.312-4.693.351-4.733.625-9.543.312-4.81.312-4.85.312-4.928.312-4.89.351-4.966.312-4.968.312-5.045.312-5.006.313-5.085.35-5.123.313-5.124.624-10.325.351-5.202.624-10.482.312-5.28.313-5.32.35-5.318.313-5.32.624-10.716.312-5.398.351-5.397.273-5.397.352-5.437.624-10.873.312-5.475.312-5.437.351-5.475.624-10.873.312-5.476.313-5.437.35-5.436.937-16.31.351-5.397.936-16.075.313-5.319.35-5.28.313-5.28.936-15.605.624-10.17.351-5.045.313-5.006.312-4.967.312-4.89.312-4.81.351-4.81.312-4.694.312-4.654.312-4.615.351-4.498.313-4.459.312-4.341.312-4.303.312-4.224.351-4.145.312-4.029.312-3.95.312-3.833.312-3.755.352-3.676.312-3.56.312-3.441.312-3.364.312-3.246.312-3.09.312-3.011.351-2.895.312-2.777.313-2.62.312-2.542.312-2.386.35-2.23.313-2.111.312-1.995.312-1.838.351-1.721.312-1.565.313-1.408.312-1.29.312-1.135.35-.977.313-.822.312-.665.312-.508.312-.391.352-.196.312-.039.312.117.312.235.312.43.312.587.312.743.351.9.312 1.056.313 1.212.312 1.408.312 1.525.35 1.682.313 1.878.312 1.994.312 2.19.351 2.308.312 2.464.313 2.66.312 2.777.312 2.933.35 3.09.313 3.207.312 3.364.312 3.52.312 3.676.351 3.794.313 3.911.312 4.068.312 4.185.312 4.34.312 4.42.312 4.616.351 4.654.312 4.85.312 4.928.313 5.006.312 5.163.35 5.24.313 5.359.312 5.436.312 5.554.351 5.671.312 5.71.312 5.828.313 5.906.312 5.984.35 6.023.313 6.14.312 6.18.312 6.258.312 6.336.351 6.376.273 6.414.352 6.492.312 6.532.624 13.22.312 6.649.351 6.688.624 13.454.625 13.61.35 6.806.313 6.806.312 6.844.312 6.884.351 6.844.312 6.845.312 6.883.312 6.845.313 6.883.35 6.845.625 13.689.936 20.416.312 6.727.351 6.767.625 13.376.624 13.298.351 6.57.312 6.571.624 12.985.312 6.453.352 6.376.312 6.375.312 6.297.312 6.258.351 6.218.312 6.18.312 6.101.312 6.063.313 6.023.35 5.984.313 5.906.312 5.866.312 5.789.312 5.75.312 5.67.312 5.632.351 5.593.313 5.515.312 5.437.312 5.397.312 5.358.351 5.241.312 5.241.312 5.163.312 5.084.351 5.007.313 4.967.312 4.928.312 4.85.312 4.771.351 4.733.312 4.654.312 4.576.312 4.537.312 4.459.352 4.42.312 4.34.312 4.303.312 4.224.312 4.146.312 4.106.312 4.029.351 3.99.312 3.91.313 3.872.312 3.794.312 3.716.35 3.676.313 3.638.312 3.559.312 3.48.351 3.443.312 3.402.313 3.325.312 3.285.312 3.207.35 3.168.313 3.09.312 3.05.312 3.012.312 2.934.351 2.894.313 2.855.312 2.777.312 2.738.312 2.699.312 2.62.312 2.581.351 2.543.312 2.464.312 2.425.313 2.385.312 2.347.35 2.308.625 4.458.312 2.151.351 2.073.312 2.073.313 2.034.312 1.995.312 1.916.35 1.917.313 1.838.624 3.598.312 1.721.351 1.682.274 1.643.35 1.642.625 3.13.312 1.485.312 1.448.351 1.447.624 2.737.313 1.33.312 1.29.35 1.252.625 2.425.312 1.135.351 1.134.312 1.095.312 1.056.625 2.034.35.978.313.938.624 1.8.312.86.624 1.642.352.783.312.743.624 1.408.312.665.351.626.624 1.251.625 1.095.35.548.313.47.312.508.312.43.351.43.312.43.312.352.312.391.313.352.35.313.313.313.312.274.312.235.312.273.624.391.351.196.625.313.624.235.351.078.312.078.624.078h.664l.936-.117.351-.078.312-.078.624-.235.313-.157.35-.156.313-.157.624-.39.624-.47.312-.274.351-.274.313-.273.624-.626.312-.352.351-.313.936-1.173.351-.391.313-.43.312-.47.312-.43.312-.47.351-.508.624-1.017.624-1.095.352-.548.312-.586.312-.626.312-.587.312-.626.624-1.33.351-.664.312-.665.313-.743.312-.704.312-.743.35-.743.625-1.565.312-.821.351-.822.312-.82.937-2.582.35-.939.313-.9.312-.938.312-.978.312-.939.351-.977.274-1.017.35-1.017.937-3.168.312-1.095.351-1.135.624-2.268.625-2.347.35-1.212.313-1.213.624-2.503.351-1.29.312-1.291.625-2.66.312-1.408.35-1.369.625-2.816.312-1.447.624-2.972.312-1.526.352-1.525.624-3.129.312-1.603.312-1.643.351-1.643.312-1.682.937-5.162.35-1.8.625-3.598.312-1.877.351-1.877.312-1.878.937-5.866.35-2.034.313-2.034.624-4.146.624-4.302.312-2.19.352-2.19.624-4.538.624-4.615.351-2.386.312-2.385.937-7.392.35-2.543.625-5.162.312-2.66.351-2.66.312-2.698.312-2.738.312-2.777.313-2.816.35-2.855.313-2.894.624-5.867.312-3.012.312-3.05.312-3.09.351-3.13.313-3.128.312-3.207.312-3.246.312-3.286.351-3.324.312-3.364.312-3.402.312-3.481.351-3.481.625-7.119.312-3.637.312-3.676.351-3.716.312-3.755.624-7.666.312-3.91.352-3.951.312-3.99.312-4.067.624-8.213.624-8.448.351-4.303.313-4.341.312-4.38.312-4.42.312-4.498.351-4.537.312-4.615.312-4.654.312-4.694.351-4.732.313-4.81.312-4.85.312-4.89.312-4.967.351-5.006.312-5.045.312-5.124.312-5.163.312-5.202.352-5.28.312-5.319.312-5.358.312-5.437.312-5.475.624-11.108.351-5.671.312-5.671.313-5.71.312-5.789.312-5.867.35-5.866.313-5.945.312-5.984.312-6.024.351-6.062.312-6.101.313-6.18.312-6.219.312-6.257.35-6.297.313-6.336.312-6.376.624-12.906.312-6.493.313-6.531.35-6.571.313-6.61.624-13.298.312-6.688.351-6.727.312-6.727.312-6.767.625-13.61.35-6.845.313-6.805.312-6.884.312-6.844.351-6.884.312-6.845.937-20.65.35-6.845.313-6.884.624-13.689.312-6.766.312-6.805.312-6.767.352-6.727.624-13.376.624-13.22.351-6.492.312-6.492.312-6.415.313-6.375.312-6.297.35-6.219.313-6.18.312-6.061.312-6.024.351-5.866.312-5.828.312-5.75.313-5.592.312-5.554.35-5.398.313-5.28.312-5.162.312-5.085.312-4.928.312-4.771.312-4.655.352-4.498.312-4.38.312-4.224.312-4.068.312-3.91.351-3.716.312-3.56.312-3.402.312-3.246.313-3.012.35-2.855.313-2.699.312-2.464.312-2.268.663-3.99.312-1.682.312-1.486.313-1.251.35-1.056.313-.822.312-.665.312-.39.312-.196.312.039.312.274.351.469.313.704.312.939.312 1.134.312 1.369.351 1.642.312 1.8.312 2.073.312 2.268.351 2.503.313 2.738.312 2.933.312 3.168.312 3.364.351 3.598.312 3.794.312 4.028.312 4.224.312 4.46.352 4.614.312 4.811.312 5.045.312 5.202.312 5.398.312 5.593.312 5.788.351 5.906.312 6.14.313 6.258.312 6.454.312 6.61.35 6.727.313 6.922.312 7.04.312 7.158.351 7.314.313 7.47.312 7.548.312 7.666.312 7.823.351 7.9.312 7.979.312 8.135.312 8.174.312 8.253.352 8.37.273 8.448.35 8.487.313 8.565.312 8.644.312 8.683.312 8.722.351 8.76.625 17.679.312 8.878.312 8.918.35 8.956.313 8.918.312 8.956.312 8.996.351 8.956.312 8.957.313 8.996.312 8.917.312 8.956.35 8.957.313 8.878.312 8.918.624 17.678.312 8.8.313 8.761.35 8.722.313 8.683.312 8.643.312 8.605.312 8.526.351 8.487.312 8.448.312 8.37.313 8.331.312 8.292.35 8.174.313 8.135.312 8.057.312 8.018.351 7.94.312 7.861.312 7.783.313 7.744.312 7.627.35 7.549.313 7.509.312 7.431.312 7.314.312 7.275.312 7.157.312 7.118.352 7.001.312 6.962.312 6.845.312 6.766.312 6.727.351 6.61.312 6.492.312 6.454.312 6.375.313 6.258.35 6.219.313 6.101.312 6.023.312 5.984.351 5.828.312 5.788.312 5.71.313 5.633.312 5.553.35 5.476.313 5.358.312 5.32.312 5.201.312 5.163.312 5.085.312 4.967.352 4.928.312 4.85.312 4.771.312 4.694.312 4.615.351 4.537.312 4.458.312 4.38.312 4.342.313 4.263.35 4.185.313 4.146.312 4.029.312 3.989.351 3.911.312 3.872.312 3.794.312 3.715.313 3.677.35 3.598.313 3.52.312 3.481.312 3.442.312 3.364.312 3.285.312 3.246.351 3.207.313 3.13.312 3.09.312 3.01.312 2.973.351 2.933.312 2.895.312 2.816.312 2.777.351 2.737.625 5.32.312 2.581.312 2.542.351 2.503.312 2.464.624 4.772.312 2.347.352 2.268.273 2.269.35 2.19.313 2.19.624 4.224.312 2.073.351 2.034.625 3.99.624 3.832.35 1.877.313 1.839.624 3.598.351 1.72.312 1.76.625 3.364.312 1.643.351 1.643.312 1.603.624 3.13.625 3.05.312 1.486.35 1.486.313 1.408.312 1.448.624 2.816.351 1.369.312 1.368.937 3.99.35 1.29.313 1.291.624 2.503.351 1.252 1.249 4.85.35 1.173.937 3.52.937 3.403.35 1.134.313 1.095.312 1.134.624 2.19.351 1.096.624 2.19.313 1.056.312 1.095.35 1.056.313 1.095.312 1.056.312 1.095.351 1.056.937 3.168.312 1.096.35 1.056 1.25 4.224.311 1.095.312 1.056.352 1.056.312 1.095.312 1.056.624 2.19.351 1.095.312 1.095.312 1.056.312 1.135.313 1.095.35 1.095.937 3.403.351 1.134.624 2.268.625 2.347.35 1.173.313 1.174.312 1.212.312 1.173.312 1.213.312 1.251.312 1.213.352 1.251.624 2.504.624 2.58.351 1.292.312 1.29.624 2.66.313 1.369.35 1.33.313 1.368.624 2.816.351 1.408.312 1.408.312 1.487.312 1.447.313 1.486.35 1.486.274 1.487.35 1.525.313 1.564.312 1.526.624 3.207.351 1.603.313 1.604.312 1.682.312 1.642.312 1.682.351 1.721.312 1.721.624 3.52.351 1.8.625 3.597.624 3.755.351 1.878.312 1.955.312 1.917.312 1.955.312 1.995.625 4.067.35 2.073.313 2.073.312 2.112.624 4.303.351 2.19.625 4.458.312 2.269.312 2.347.35 2.307.313 2.347.312 2.425.312 2.386.351 2.464.312 2.464.313 2.503.312 2.542.312 2.581.35 2.62.313 2.621.312 2.66.312 2.699.312 2.737.312 2.777.313 2.816.35 2.816.625 5.789.312 2.933.312 2.973.351 3.011.312 3.051.313 3.09.312 3.129.312 3.168.35 3.207.313 3.207.312 3.285.312 3.325.351 3.363.312 3.403.313 3.442.312 3.48.312 3.52.35 3.56.313 3.598.312 3.638.312 3.676.624 7.51.313 3.832.35 3.872.313 3.912.312 3.95.312 3.99.312 4.028.351 4.106.312 4.107.312 4.185.313 4.224.312 4.263.35 4.342.313 4.341.312 4.42.312 4.458.351 4.498.624 9.152.313 4.654.312 4.694.35 4.732.625 9.622.624 9.856.312 4.967.312 5.045.352 5.085.312 5.123.312 5.163.624 10.482.351 5.32.312 5.357.312 5.398.312 5.475.313 5.515.35 5.515.313 5.593.312 5.632.312 5.71.351 5.71.312 5.75.624 11.655.313 5.906.35 5.906.274 5.984.35 5.984.625 12.124.624 12.281.351 6.18.625 12.437.312 6.258.312 6.297.351 6.336.312 6.336.624 12.75.312 6.415.352 6.414.936 19.36.351 6.493.312 6.453 1.249 25.97.312 6.454.35 6.453.313 6.493.312 6.414.312 6.453.312 6.375.351 6.376.313 6.375.312 6.336.312 6.297.312 6.258.351 6.218.624 12.281.312 6.063.351 6.062.313 5.945.312 5.906.312 5.827.312 5.789.351 5.71.312 5.593.312 5.554.312 5.436.312 5.359.313 5.28.312 5.201.35 5.046.313 4.967.312 4.85.312 4.771.312 4.616.351 4.497.312 4.38.313 4.225.312 4.107.312 3.989.35 3.833.313 3.676.312 3.52.312 3.403.351 3.207.312 3.051.313 2.894.312 2.738.312 2.542.35 2.386.313 2.19.312 2.034.312 1.838.312 1.643.312 1.486.313 1.252.35 1.095.313.9.312.664.312.509.312.274.351.078.312-.117.312-.313.313-.509.312-.743.35-.939.313-1.134.312-1.369.663-3.324.312-1.956.313-2.15.312-2.387.312-2.581.35-2.777.313-3.012.312-3.168.312-3.363.312-3.598.312-3.755.313-3.95.35-4.146.313-4.302.312-4.498.312-4.694.312-4.85.351-5.045.312-5.202.312-5.358.313-5.554.312-5.671.35-5.828.313-5.984.312-6.14.312-6.297.351-6.375.312-6.571.312-6.649.313-6.805.312-6.923.35-7.001.274-7.157.351-7.236.312-7.353.312-7.431.312-7.51.312-7.626.352-7.705.312-7.744.312-7.862.312-7.9.312-7.979.351-8.018.312-8.096.312-8.135.312-8.174.313-8.214.35-8.252.313-8.253.624-16.661.351-8.37.312-8.33.312-8.37.312-8.41.313-8.37.312-8.409.312-8.37.35-8.37.313-8.37.624-16.66.312-8.292.351-8.292.313-8.252.624-16.427.312-8.135.351-8.136.624-16.113.312-7.98.352-7.939.312-7.9.624-15.645.312-7.705.351-7.666.312-7.627.312-7.548.312-7.51.313-7.43.312-7.354.312-7.313.35-7.236.313-7.157.312-7.08.312-7.04.312-6.962.351-6.883.313-6.806.312-6.727.312-6.649.312-6.61.351-6.492.312-6.453.312-6.336.312-6.297.351-6.22.313-6.14.312-6.023.312-5.984.312-5.906.351-5.827.312-5.75.312-5.67.312-5.594.312-5.514.313-5.437.312-5.397.35-5.28.313-5.202.312-5.163.312-5.045.312-5.007.351-4.928.625-9.621.312-4.693.312-4.616.35-4.537.313-4.497.312-4.42.312-4.341.351-4.263.312-4.224.313-4.146.312-4.068.312-4.028.35-3.912.313-3.872.312-3.832.624-7.432.312-3.598.313-3.56.35-3.52.313-3.44.312-3.404.624-6.57.351-3.207.624-6.258.625-6.023.35-2.934.313-2.894.312-2.816.312-2.777.351-2.738.624-5.319.313-2.581.312-2.543.35-2.464.274-2.464.351-2.385.312-2.386.312-2.308.312-2.268.312-2.23.352-2.19.312-2.151.312-2.112.312-2.073.312-2.034.351-1.994.312-1.956.312-1.916.625-3.755.35-1.8.313-1.798.312-1.76.312-1.721.351-1.682.312-1.682.625-3.207.624-3.129.312-1.525.351-1.487.312-1.447.312-1.408.312-1.447.312-1.369.352-1.369.624-2.66.312-1.29.312-1.251.351-1.252.312-1.252.312-1.212.625-2.347.35-1.134.625-2.268.312-1.096.351-1.056.312-1.095.624-2.033.313-1.056.624-1.956.35-.978.313-.978.624-1.877.312-.9.351-.938.313-.9.312-.86.312-.9.312-.86.351-.86.312-.822.312-.86.312-.822.351-.821.313-.782.312-.822.312-.782.312-.821.351-.783.312-.743.312-.782.312-.743.312-.782.625-1.486.35-.744.313-.743.312-.704.624-1.486.351-.704.313-.704.312-.743.624-1.408.351-.704.936-2.112.351-.704 1.249-2.816.351-.704.312-.704.312-.665.312-.743.937-2.112.35-.704.937-2.112.312-.743.351-.704.312-.743.313-.704.624-1.487.35-.743.937-2.23.351-.742.312-.783.313-.743.624-1.564.35-.782.274-.783.351-.782.624-1.642.312-.783.313-.821.35-.821.625-1.721.312-.822.312-.86.351-.9.312-.86.312-.9.313-.86.312-.939.35-.9.313-.899.624-1.877.351-.978.312-.939.625-1.955.312-1.017.312-.978.312-1.017.351-1.056.312-1.017.624-2.112.312-1.095.352-1.095.312-1.095.312-1.134.312-1.096.312-1.173.351-1.134.312-1.173.312-1.213.313-1.173.312-1.252.35-1.212.625-2.503.312-1.291.351-1.29.312-1.33.312-1.291.937-4.107.312-1.408.351-1.408.936-4.341.312-1.487.352-1.525.312-1.525.624-3.13.312-1.603.351-1.603.624-3.286.625-3.363.35-1.721.625-3.52.312-1.8.351-1.838.312-1.838.624-3.754.313-1.917.624-3.911.35-1.995.313-1.994.624-4.146.312-2.112.351-2.112.313-2.151.312-2.19.312-2.23.312-2.269.351-2.268.312-2.308.312-2.346.312-2.386.351-2.386.625-4.928.312-2.503.312-2.542.351-2.543.312-2.62.624-5.32.312-2.698.625-5.554.35-2.816.313-2.855.312-2.933.312-2.894.312-3.012.351-3.012.312-3.05.313-3.09.312-3.129.312-3.207.35-3.207.313-3.247.312-3.324.312-3.364.351-3.363.313-3.442.312-3.48.312-3.521.312-3.598.351-3.598.273-3.677.351-3.716.312-3.754.625-7.666.312-3.911.35-3.95.313-3.99.312-4.067.312-4.107.312-4.185.351-4.185.312-4.263.625-8.683.312-4.42.35-4.497.313-4.537.312-4.576.312-4.615.351-4.733.312-4.732.313-4.811.312-4.85.312-4.928.312-4.967.312-5.006.351-5.124.312-5.124.312-5.201.312-5.28.313-5.32.35-5.358.313-5.436.312-5.476.312-5.554.312-5.632.351-5.671.312-5.71.312-5.789.313-5.827.312-5.906.35-5.945.313-6.023.312-6.063.312-6.14.351-6.18.312-6.219.312-6.296.313-6.376.624-12.828.312-6.532.351-6.57.312-6.61.312-6.65.312-6.726.312-6.767.352-6.805.312-6.845.312-6.883.312-6.962.312-7.001.351-7.001.624-14.158.625-14.315.35-7.236.625-14.471.312-7.314.351-7.314.312-7.314.312-7.353 1.249-29.568.351-7.392.312-7.431.312-7.392.312-7.431.312-7.392.352-7.392.936-22.06.312-7.274.351-7.275.312-7.235.312-7.197.312-7.157.313-7.119.35-7.079.313-7 .312-6.923.312-6.884.351-6.805.312-6.728.312-6.61.312-6.57.313-6.493.312-6.336.312-6.297.35-6.18.313-6.022.312-5.945.312-5.828.312-5.671.351-5.554.313-5.397.312-5.28.312-5.124.312-4.967.351-4.81.312-4.616.312-4.498.312-4.263.351-4.146.313-3.911.312-3.755.312-3.52.312-3.363.351-3.13.273-2.933.351-2.737.312-2.504.312-2.307.313-2.034.312-1.838.35-1.604.313-1.369.312-1.173.312-.86.312-.665.351-.43.312-.157.313.078.312.313.312.587.35.86.313 1.056.312 1.33.312 1.604.351 1.838.312 2.073.313 2.346.312 2.582.312 2.855.351 3.05.273 3.364.351 3.56.312 3.832.312 4.029.313 4.302.312 4.537.35 4.732.313 5.007.312 5.202.312 5.397.312 5.632.351 5.867.312 6.023.313 6.258.312 6.453.312 6.649.35 6.845.313 7 .312 7.197.312 7.353.351 7.51.312 7.704.313 7.823.312 7.978.312 8.136.312 8.252.312 8.409.351 8.487.312 8.644.312 8.76.312 8.84.313 8.957.35 9.034.313 9.152.312 9.23.312 9.27.312 9.348.351 9.426.312 9.504.312 9.543.313 9.582.312 9.622.35 9.66.313 9.66.624 19.478.351 9.739.312 9.778.312 9.739.625 19.555.312 9.74.312 9.777.351 9.7.624 19.399.624 19.243.352 9.582.312 9.543.312 9.504.312 9.465.312 9.387.351 9.387.624 18.539.312 9.152.313 9.113.35 9.074.313 8.956.312 8.917.312 8.879.351 8.722.312 8.721.312 8.605.312 8.526.313 8.488.312 8.37.312 8.291.35 8.213.313 8.136.312 8.057.312 7.94.312 7.86.352 7.784.312 7.705.312 7.587.312 7.51.312 7.43.351 7.354.312 7.236.312 7.157.312 7.04.313 6.962.35 6.883.313 6.806.312 6.688.312 6.61.351 6.531.273 6.415.351 6.336.312 6.258.313 6.18.312 6.061.312 5.984.35 5.906.313 5.789.312 5.75.312 5.631.312 5.554.351 5.476.313 5.358.312 5.32.312 5.24.312 5.124.351 5.045.312 4.967.312 4.928.312 4.81.351 4.773.313 4.654.312 4.576.312 4.537.312 4.42.351 4.38.273 4.302.351 4.263.312 4.146.312 4.107.313 4.028.312 3.95.35 3.873.313 3.832.312 3.794.312 3.677.312 3.637.351 3.56.312 3.558.313 3.442.312 3.403.312 3.363.35 3.286.625 6.414.312 3.13.351 3.05.312 3.05.313 2.973.312 2.933.624 5.71.312 2.777.351 2.738.312 2.699.312 2.66.625 5.162.35 2.503.313 2.504.624 4.85.312 2.385.351 2.347.312 2.307.937 6.688.35 2.152.313 2.15.312 2.113.312 2.073.351 2.033.312 2.034.313 1.956.312 1.995.936 5.749.351 1.838.624 3.677.312 1.799.313 1.76.35 1.76.313 1.76.312 1.72.624 3.364.351 1.682.937 4.928.312 1.565.35 1.603.313 1.604.312 1.564.312 1.526.351 1.564.937 4.576.624 2.972.312 1.526.351 1.447.624 2.972.624 2.895.352 1.486.312 1.447.312 1.408.624 2.894.351 1.447.312 1.408.624 2.895.313 1.408.35 1.447.313 1.408.624 2.894.351 1.408 1.873 8.683.35 1.447.313 1.486.312 1.447.624 2.973.351 1.486.313 1.486.312 1.526.312 1.486.312 1.525.351 1.526.312 1.525.936 4.693.352 1.565.312 1.603.312 1.565.312 1.642.351 1.604.273 1.643.351 1.642.312 1.643.625 3.364.312 1.72.35 1.721.625 3.442.312 1.76.312 1.8.351 1.799.625 3.598.312 1.877.312 1.838.351 1.878.936 5.75.351 1.955.937 5.984.312 2.034.624 4.145.351 2.073.312 2.151.312 2.112.625 4.38.35 2.191.313 2.23.312 2.268.624 4.615.351 2.347.312 2.346.625 4.772.312 2.464.35 2.464.313 2.464.624 5.085.351 2.581.312 2.581.937 7.98.624 5.475.351 2.777.312 2.816.624 5.71.313 2.894.35 2.934.313 2.972.312 3.012.624 6.101.351 3.09.312 3.129.312 3.168.313 3.207.312 3.246.35 3.246.625 6.65.312 3.402.351 3.403.312 3.442.313 3.48.312 3.52.312 3.56.312 3.598.312 3.637.351 3.638.312 3.715.312 3.755.625 7.588.35 3.872.313 3.872.624 7.9.312 4.029.351 4.028.624 8.213.625 8.37.35 4.263.313 4.264.624 8.682.351 4.38.624 8.918.313 4.498.624 9.152.312 4.615.351 4.655.312 4.693.312 4.732.312 4.811.312 4.772.352 4.85.312 4.889.624 9.856.312 5.006.351 5.006.312 5.046.312 5.084.625 10.247.35 5.202.625 10.404.312 5.28.351 5.28.273 5.319.351 5.358.312 5.358.625 10.795.312 5.437.35 5.436.313 5.476.312 5.515.312 5.475.312 5.554.351 5.515.937 16.661.312 5.593.351 5.554.312 5.593.312 5.554.312 5.593.352 5.593.312 5.553.312 5.593.936 16.662.312 5.515.351 5.514.625 10.952.624 10.873.35 5.397.313 5.358.312 5.32.312 5.28.312 5.24.351 5.202.313 5.163.312 5.123.312 5.046.312 5.006.351 4.967.312 4.89.312 4.81.312 4.771.351 4.694.313 4.615.312 4.576.312 4.459.312 4.38.312 4.303.312 4.224.351 4.145.312 4.029.312 3.911.313 3.833.312 3.755.35 3.637.313 3.48.312 3.443.312 3.285.312 3.168.351 3.05.312 2.934.313 2.816.312 2.66.312 2.542.35 2.425.313 2.268.312 2.152.312 1.955.351 1.877.312 1.682.313 1.565.312 1.408.312 1.251.312 1.095.312.978.351.782.312.626.312.47.312.312.313.157h.35l.313-.196.312-.313.312-.508.312-.665.351-.86.312-.978.312-1.173.313-1.33.312-1.487.35-1.642.313-1.838.312-1.995.312-2.112.351-2.308.312-2.503.312-2.62.313-2.777.312-2.934.312-3.09.312-3.246.351-3.402.312-3.56.312-3.676.312-3.833.312-3.99.352-4.106.312-4.263.312-4.38.312-4.538.312-4.615.351-4.81.312-4.89.312-5.006.313-5.123.312-5.241.35-5.398.313-5.436.312-5.554.312-5.671.351-5.789.273-5.866.351-5.945.313-6.023.312-6.102.312-6.218.312-6.258.351-6.336.312-6.415.312-6.492.312-6.532.312-6.57.352-6.65.624-13.454.624-13.61.351-6.884.312-6.884.312-6.923.625-13.923.35-7.001.313-7.04.312-7.001.624-14.08.312-7.08.351-7.04 1.249-28.16.35-7 .625-14.003.624-13.923.351-6.884.313-6.923.624-13.689.312-6.805.351-6.766.312-6.728.312-6.688.312-6.649.351-6.61.313-6.57.312-6.532.312-6.492.312-6.415.312-6.375.312-6.336.351-6.297.312-6.218.312-6.18.313-6.14.312-6.063.35-6.023.313-5.945.312-5.906.312-5.827.312-5.789.351-5.71.313-5.671.312-5.593.312-5.515.312-5.476.351-5.436.312-5.358.312-5.28.312-5.202.351-5.163.313-5.084.312-5.046.312-4.967.312-4.928.624-9.621.351-4.694.312-4.654.312-4.576.313-4.537.312-4.459.35-4.38.313-4.342.312-4.263.312-4.185.312-4.145.351-4.107.625-7.979.312-3.872.312-3.833.35-3.794.313-3.715.312-3.638.312-3.598.351-3.52.312-3.48.313-3.443.624-6.649.312-3.246.312-3.207.351-3.129.624-6.101.312-2.973.313-2.894.35-2.855.313-2.816.312-2.777.312-2.699.312-2.66.351-2.62.312-2.542.312-2.503.313-2.464.312-2.425.35-2.347.313-2.307.312-2.269.312-2.23.351-2.19.273-2.112.351-2.112.313-2.033.624-3.99.312-1.916.351-1.838.312-1.878.312-1.799.624-3.442.352-1.681.312-1.643.312-1.604.312-1.564.312-1.526.351-1.486.624-2.894.625-2.738.35-1.33.313-1.29.312-1.252.312-1.212.624-2.347.351-1.134.313-1.095.624-2.112.312-1.017.351-.978.624-1.877.312-.86.312-.9.352-.822.312-.821.624-1.565.312-.743.351-.704.312-.704.624-1.33.313-.586.35-.626.313-.587.312-.547.624-1.017.312-.47.351-.469.312-.47.313-.43.624-.782.35-.352.625-.704.312-.273.312-.313.351-.274.625-.47.312-.195.312-.235.351-.156.624-.313.312-.117.351-.118.937-.234.624-.078h.975l.625.078.312.078.35.078.313.078.624.235.312.157.351.117.312.156.937.587.35.235.625.469.312.274.351.274.313.273.312.313.312.352.312.313.624.704.351.352.624.782.625.86.35.431.313.43.312.47.312.508.312.47.351.508.312.508.937 1.643.35.587.625 1.173.312.626.351.626.273.625.352.665.312.665.312.704.312.665.312.743.351.704.624 1.486.625 1.565.35.782.625 1.643.624 1.72.351.861.937 2.699.312.938.35.94.625 1.955.936 3.05.351 1.056.313 1.056.936 3.286.351 1.134.936 3.52.312 1.213.352 1.212.312 1.252.312 1.29.312 1.252.312 1.29.351 1.33.312 1.33.624 2.738.313 1.408.35 1.408.313 1.447.936 4.459.312 1.525.351 1.565.313 1.564.624 3.207.312 1.643.351 1.682.312 1.681.624 3.442.312 1.76.352 1.8.312 1.798.312 1.839.624 3.754.351 1.917.312 1.916.624 3.99.313 2.034.35 2.033.313 2.073.312 2.112.312 2.151.624 4.38.351 2.23.625 4.537.312 2.308.312 2.386.35 2.385.313 2.386.312 2.464.624 5.006.351 2.543.313 2.581.312 2.62.312 2.66.312 2.699.351 2.738.312 2.776.624 5.633.351 2.894.313 2.894.624 5.945.312 3.05.624 6.18.351 3.168.312 3.207.312 3.247.313 3.285.312 3.325.35 3.363.313 3.403.312 3.442.624 7.04.351 3.598.312 3.637.313 3.677.624 7.51.35 3.832.313 3.872.312 3.911.312 3.99.351 4.028.273 4.068.352 4.106.312 4.146.312 4.224.312 4.263.312 4.342.351 4.38.312 4.42.312 4.459.313 4.537.312 4.576.35 4.654.313 4.693.312 4.733.312 4.81.312 4.85.351 4.928.312 4.967.313 5.007.312 5.084.312 5.124.35 5.202.313 5.24.312 5.28.312 5.359.312 5.397.312 5.476.352 5.515.312 5.593.312 5.632.312 5.67.312 5.75.351 5.789.312 5.866.312 5.906.625 11.968.35 6.102.313 6.101.312 6.18.312 6.218.312 6.297.351 6.336.312 6.376.312 6.414.625 12.985.35 6.57.625 13.298.312 6.689.312 6.727.312 6.805.351 6.805.625 13.768.312 6.922.312 6.962.351 7.001.624 14.08.312 7.08.312 7.118.352 7.118.312 7.118.624 14.315.312 7.197.351 7.196.312 7.158.312 7.235.312 7.158.313 7.196.35 7.197.937 21.472.624 14.236.351 7.08.312 7 .313 7.04.312 6.962.312 6.884.35 6.884.313 6.844.624 13.455.312 6.61.352 6.57.312 6.493.312 6.414.312 6.336.312 6.219.351 6.14.312 6.023.312 5.945.312 5.828.313 5.71.35 5.593.313 5.476.312 5.319.312 5.202.312 5.045.312 4.928.351 4.772.312 4.615.313 4.459.312 4.263.312 4.106.35 3.95.313 3.795.312 3.559.312 3.402.312 3.208.351 3.011.313 2.816.312 2.581.312 2.386.312 2.19.351 1.995.312 1.721.312 1.525.312 1.33.351 1.095.274.822.35.625.313.392.312.156.312-.078.312-.352.351-.548.312-.782.312-1.056.313-1.29.312-1.526.35-1.76.313-1.995.312-2.268.312-2.464.312-2.738.351-2.972.312-3.168.313-3.442.312-3.677.312-3.872.35-4.107.313-4.34.312-4.577.312-4.772.312-4.967.312-5.202.352-5.436.312-5.593.312-5.828.312-5.984.312-6.18.351-6.374.312-6.571.312-6.727.312-6.884.313-7.08.35-7.235.313-7.392.312-7.51.312-7.665.312-7.822.351-7.94.312-8.057.313-8.213.312-8.292.312-8.409.35-8.526.313-8.605.312-8.722.312-8.8.312-8.878.312-8.917.352-9.035.624-18.226.312-9.191.312-9.27.351-9.27.312-9.308.937-28.16.35-9.426.313-9.426.312-9.465.312-9.425.312-9.465.351-9.426.624-18.852.625-18.774.35-9.347.625-18.617.312-9.27.624-18.382.351-9.113.313-9.074.312-9.035.312-8.995.312-8.918.351-8.839.312-8.8.312-8.76.312-8.645.312-8.604.352-8.565.312-8.449.312-8.409.312-8.291.312-8.253.351-8.174.312-8.057.312-8.018.312-7.94.313-7.86.35-7.745.313-7.666.312-7.626.312-7.51.312-7.392.312-7.353.351-7.275.312-7.157.313-7.08.312-7 .312-6.923.35-6.805.313-6.727.312-6.65.312-6.531.312-6.493.351-6.375.313-6.297.312-6.218.312-6.102.312-6.062.351-5.945.312-5.867.312-5.788.312-5.71.312-5.593.313-5.515.35-5.437.313-5.397.312-5.28.312-5.202.312-5.123.351-5.046.312-4.967.313-4.889.312-4.81.312-4.733.35-4.654.313-4.576.312-4.498.312-4.459.312-4.341.351-4.303.313-4.224.312-4.145.312-4.107.312-4.029.351-3.95.312-3.872.312-3.833.312-3.755.351-3.676.274-3.637.35-3.56.313-3.52.312-3.441.312-3.403.312-3.325.351-3.285.624-6.414.625-6.18.35-3.011.625-5.867.312-2.855.312-2.816.351-2.738.312-2.738.625-5.32.312-2.58.35-2.543.313-2.503.312-2.464.312-2.425.312-2.386.312-2.307.352-2.347.312-2.23.312-2.268.312-2.19.312-2.151.351-2.151.624-4.146.312-2.034.313-1.994.35-1.995.313-1.917.312-1.955.312-1.877.312-1.839.351-1.838.312-1.838.312-1.76.313-1.8.312-1.72.35-1.721.937-5.046.312-1.603.312-1.643.352-1.603.624-3.13.312-1.525.312-1.564.351-1.486.312-1.526.312-1.486.312-1.447.313-1.486.35-1.408.625-2.895.312-1.408.312-1.368.351-1.408 1.249-5.476.35-1.369 1.25-5.32.311-1.29.351-1.33.313-1.33.624-2.58.312-1.33.351-1.291 1.248-5.163.352-1.29.624-2.582.312-1.33.312-1.29.351-1.291.312-1.29.312-1.33.312-1.291.313-1.33.312-1.29.35-1.33 1.25-5.32.35-1.369.312-1.33.937-4.106.35-1.369 1.25-5.632.35-1.408.937-4.341.312-1.487.351-1.486.624-2.972.312-1.526.352-1.525.273-1.525.35-1.565.313-1.564.936-4.811.351-1.604.625-3.285.624-3.364.35-1.72.313-1.721.936-5.28.351-1.8.313-1.799.624-3.676.312-1.877.351-1.917.312-1.877.936-5.867.313-1.995.35-2.033.313-2.034.624-4.146.312-2.112.351-2.151.312-2.151.625-4.38.312-2.23.35-2.269.313-2.268.312-2.308.624-4.693.351-2.386.312-2.425.625-4.928.312-2.503.35-2.542.313-2.542.312-2.582.312-2.62.624-5.32.352-2.737.312-2.738.624-5.554.312-2.855.351-2.855.312-2.894.624-5.945.313-3.012.35-3.012.625-6.18.624-6.335.351-3.207.312-3.247.312-3.285.313-3.324.312-3.364.35-3.403.313-3.442.312-3.48.312-3.52.624-7.119.351-3.637.313-3.677.624-7.43.312-3.795.351-3.833.312-3.872.312-3.91.312-3.951.312-3.99.352-4.028.312-4.067.624-8.292.312-4.185.351-4.263.312-4.263.312-4.303.313-4.38.312-4.42.312-4.458.35-4.498.313-4.537.312-4.576.312-4.615.312-4.655.351-4.693.313-4.732.624-9.622.312-4.889.351-4.889.624-9.934.624-10.09.352-5.124.624-10.326.624-10.482.351-5.319.312-5.319.624-10.795.313-5.436.312-5.476.35-5.475.625-11.108.312-5.593.312-5.632.351-5.671.312-5.671.313-5.71.624-11.5.35-5.749.313-5.788.312-5.828.312-5.867.312-5.827.351-5.867.313-5.906.312-5.867.624-11.811.351-5.906.624-11.812.312-5.945.625-11.811.35-5.906.313-5.906.936-17.6.351-5.828.312-5.827.312-5.789.625-11.499.35-5.67.313-5.672.312-5.632.312-5.593.312-5.515.351-5.475.313-5.476.624-10.716.312-5.241.351-5.202.312-5.124.312-5.084.312-5.007.312-4.888.313-4.85.35-4.733.313-4.654.312-4.576.312-4.459.312-4.38.351-4.303.312-4.145.312-4.068.313-3.95.312-3.833.35-3.716.313-3.559.312-3.48.312-3.325.312-3.207.351-3.09.312-2.934.313-2.776.312-2.66.312-2.464.35-2.386.313-2.19.312-2.034.312-1.877.312-1.721.312-1.565.352-1.408.312-1.212.312-1.056.312-.9.312-.743.351-.547.312-.352.312-.235h.312l.313.156.35.352.313.509.312.665.312.9.312 1.055.351 1.213.312 1.408.312 1.603.313 1.76.312 1.956.312 2.151.35 2.308.313 2.464.312 2.66.312 2.815.312 3.012.351 3.168.313 3.364.312 3.48.312 3.677.312 3.833.351 3.99.312 4.145.312 4.302.312 4.459.312 4.576.352 4.772.312 4.889.312 5.006.312 5.163.312 5.319.351 5.397.312 5.554.312 5.671.313 5.789.312 5.945.312 5.984.35 6.14.313 6.219.312 6.336.312 6.414.312 6.532.351 6.57.313 6.689.624 13.61.312 6.923.351 7.001.312 7.04.312 7.08.312 7.157.312 7.235.352 7.236.624 14.628.312 7.392.312 7.43.351 7.432.624 14.94.625 15.02.312 7.548.35 7.548.313 7.51.936 22.645.351 7.51.312 7.548.313 7.51.624 14.94.35 7.47.313 7.432.312 7.392.624 14.706.351 7.274.313 7.275.312 7.236.312 7.196.312 7.158.351 7.118.312 7.04.312 7.001.312 6.962.312 6.923.313 6.883.35 6.806.625 13.454.312 6.649.312 6.57.351 6.532.312 6.454.312 6.414.313 6.336.312 6.297.35 6.18.313 6.18.312 6.061.312 6.024.312 5.984.351 5.866.312 5.828.313 5.75.312 5.71.312 5.632.35 5.514.313 5.515.312 5.397.312 5.359.312 5.28.312 5.202.352 5.123.312 5.085.312 5.006.312 4.928.312 4.889.351 4.772.312 4.732.312 4.654.313 4.615.312 4.537.35 4.46.313 4.38.312 4.341.312 4.263.312 4.185.351 4.146.312 4.067.313 3.99.312 3.95.312 3.872.35 3.794.313 3.794.312 3.676.624 7.197.312 3.48.352 3.482.624 6.727.312 3.246.312 3.207.351 3.207.312 3.09.312 3.05.312 2.973.313 2.934.35 2.894.313 2.855.312 2.777.312 2.738.312 2.66.351 2.659.624 5.084.313 2.503.312 2.425.312 2.386.35 2.347.313 2.307.624 4.46.312 2.15.351 2.112.625 4.146.312 1.956.312 1.994.351 1.878.312 1.877.312 1.838.312 1.8.312 1.76.352 1.72.312 1.682.624 3.286.312 1.564.351 1.564.624 2.973.312 1.447.313 1.408.312 1.369.35 1.369.313 1.33.312 1.29.312 1.252.312 1.212.351 1.213.625 2.347.624 2.19.351 1.056.312 1.056.312 1.017.624 1.955.352.939.312.939.312.9.624 1.72.351.821.312.822.624 1.564.313.743.312.704.35.743.937 1.995.312.626.351.626.625 1.173.624 1.095.35.548.625 1.017.624.938.351.47.625.86.624.782.351.391.312.392.312.312.624.704.313.313.35.313 1.25 1.095.35.235.624.47.625.39.35.235.313.157.312.195.624.313.351.117.312.157.937.352.35.078 1.25.313.311.039.352.04.936.116h1.6l.312-.039.35-.039.937-.117.312-.078.351-.079.312-.039.313-.078.312-.117.312-.078.312-.118.351-.078.624-.235.312-.156.312-.117.352-.157.312-.117.624-.313.312-.196.351-.156.312-.196.312-.156.312-.196.313-.234.35-.196.313-.195.312-.235.312-.196.312-.234.351-.235.312-.235.312-.273.313-.235.624-.548.35-.273.313-.274.312-.313.312-.274.312-.313.351-.313.937-.938.312-.352.351-.352 1.248-1.408.352-.392 1.248-1.564.351-.43.312-.391.624-.86.313-.47.312-.43.35-.47 1.25-1.877.35-.508.937-1.526.312-.547.35-.548.937-1.643.312-.586.352-.587.624-1.173.624-1.252.351-.626.312-.625.312-.665.312-.626.313-.704.312-.665.35-.665.625-1.408.312-.743.312-.704.351-.743.312-.782.313-.744.624-1.564.35-.821.313-.783.312-.86.624-1.643.351-.86.313-.9.312-.86.312-.9.312-.938.351-.939.624-1.877.624-1.956.313-1.017.35-.978.313-1.017.936-3.168.351-1.095.312-1.134.312-1.095.313-1.134.312-1.174.35-1.173.313-1.173.624-2.425.312-1.252.351-1.251.625-2.582.624-2.66.312-1.368.351-1.37.312-1.368.312-1.408.624-2.894.352-1.487.312-1.486.312-1.525.624-3.129.351-1.604.312-1.603.624-3.286.313-1.72.35-1.682.313-1.721.312-1.76.312-1.8.312-1.837.351-1.839.312-1.838.625-3.833.624-3.911.351-2.034.312-2.034.624-4.145.312-2.152.352-2.15.624-4.381.312-2.269.312-2.307.351-2.308.312-2.347.312-2.385.312-2.425.313-2.464.35-2.503.625-5.085.312-2.62.312-2.66.351-2.66.624-5.475.625-5.632.312-2.894.35-2.934.625-5.945.312-3.05.312-3.13.351-3.128.313-3.168.312-3.247.624-6.57.351-3.364.312-3.442.624-6.961.312-3.56.352-3.637.312-3.637.624-7.51.312-3.833.351-3.872.312-3.91.312-3.99.312-4.029.313-4.106.312-4.146.35-4.185.313-4.263.312-4.342.312-4.38.312-4.459.351-4.498.312-4.537.313-4.615.312-4.693.312-4.733.35-4.81.313-4.89.312-4.927.312-5.007.312-5.045.351-5.124.313-5.201.312-5.28.312-5.32.312-5.397.351-5.436.312-5.554.312-5.593.312-5.671.312-5.75.313-5.788.35-5.867.313-5.945.312-6.023.312-6.062.312-6.18.351-6.219.312-6.297.313-6.336.312-6.453.312-6.493.35-6.57.313-6.65.312-6.726.312-6.767.312-6.883.351-6.884.313-7.001.312-7.08.312-7.117.312-7.197.312-7.236.351-7.313.312-7.392.312-7.47.312-7.51.313-7.588.35-7.627.313-7.665.312-7.744.312-7.823.312-7.861.351-7.94.312-7.94.312-8.017.313-8.057.312-8.096.35-8.135.625-16.427.312-8.253.312-8.291.351-8.331.312-8.33.313-8.37.624-16.819.312-8.448.351-8.409.312-8.448.312-8.409.624-16.896.352-8.409.312-8.409.624-16.74.312-8.33.351-8.292.312-8.252.312-8.214.312-8.135.313-8.096.35-8.057.313-7.94.312-7.9.312-7.823.312-7.704.351-7.627.312-7.549.312-7.43.313-7.276.312-7.196.312-7.08.35-6.922.313-6.805.312-6.65.312-6.492.312-6.336.352-6.14.312-5.985" transform="matrix(.10013 0 0 .09987 -24 271)"/></g></svg>