<svg xmlns="http://www.w3.org/2000/svg" xmlns:xlink="http://www.w3.org/1999/xlink" width="983.899" height="347.999" viewBox="0 0 737.924 260.999"><defs><clipPath id="a"><path d="M16.5 8.16h.5v242.25h-.5zm0 0"/></clipPath><clipPath id="b"><path d="M67 8.16h1v242.25h-1zm0 0"/></clipPath><clipPath id="c"><path d="M118 8.16h1v242.25h-1zm0 0"/></clipPath><clipPath id="d"><path d="M169 8.16h1v242.25h-1zm0 0"/></clipPath><clipPath id="e"><path d="M220 8.16h1v242.25h-1zm0 0"/></clipPath><clipPath id="f"><path d="M270 8.16h2v242.25h-2zm0 0"/></clipPath><clipPath id="g"><path d="M321 8.16h2v242.25h-2zm0 0"/></clipPath><clipPath id="h"><path d="M16.5 250h320v.41h-320zm0 0"/></clipPath><clipPath id="i"><path d="M16.5 209h320v2h-320zm0 0"/></clipPath><clipPath id="j"><path d="M16.5 169h320v1h-320zm0 0"/></clipPath><clipPath id="k"><path d="M16.5 129h320v1h-320zm0 0"/></clipPath><clipPath id="l"><path d="M16.5 88h320v2h-320zm0 0"/></clipPath><clipPath id="m"><path d="M16.5 48h320v1h-320zm0 0"/></clipPath><clipPath id="n"><path d="M16.5 8.16h320V9h-320zm0 0"/></clipPath><clipPath id="w"><path d="M342 248h9.5v6H342zm0 0"/></clipPath><clipPath id="x"><path d="M342 208h9.5v6H342zm0 0"/></clipPath><clipPath id="y"><path d="M342 168h9.5v6H342zm0 0"/></clipPath><clipPath id="z"><path d="M342 127h9.5v6H342zm0 0"/></clipPath><clipPath id="A"><path d="M342 87h9.5v6H342zm0 0"/></clipPath><clipPath id="B"><path d="M342 46h9.5v6H342zm0 0"/></clipPath><clipPath id="C"><path d="M342 6h9.5v6H342zm0 0"/></clipPath><clipPath id="D"><path d="M16.5 54h320v94h-320zm0 0"/></clipPath><clipPath id="E"><path d="M16.5 146h320v2h-320zm0 0"/></clipPath><clipPath id="F"><path d="M394.426 8.16H395v242.25h-.574zm0 0"/></clipPath><clipPath id="G"><path d="M394.426 239h320v1h-320zm0 0"/></clipPath><clipPath id="H"><path d="M394.426 8.16H395v242.25h-.574zm0 0"/></clipPath><clipPath id="I"><path d="M445 8.16h1v242.25h-1zm0 0"/></clipPath><clipPath id="J"><path d="M496 8.16h1v242.25h-1zm0 0"/></clipPath><clipPath id="K"><path d="M547 8.16h1v242.25h-1zm0 0"/></clipPath><clipPath id="L"><path d="M597 8.16h2v242.25h-2zm0 0"/></clipPath><clipPath id="M"><path d="M648 8.16h2v242.25h-2zm0 0"/></clipPath><clipPath id="N"><path d="M699 8.16h2v242.25h-2zm0 0"/></clipPath><clipPath id="O"><path d="M394.426 239h320v1h-320zm0 0"/></clipPath><clipPath id="P"><path d="M394.426 203h320v1h-320zm0 0"/></clipPath><clipPath id="Q"><path d="M394.426 166h320v2h-320zm0 0"/></clipPath><clipPath id="R"><path d="M394.426 130h320v2h-320zm0 0"/></clipPath><clipPath id="S"><path d="M394.426 94h320v2h-320zm0 0"/></clipPath><clipPath id="T"><path d="M394.426 58h320v2h-320zm0 0"/></clipPath><clipPath id="U"><path d="M394.426 22h320v2h-320zm0 0"/></clipPath><clipPath id="ab"><path d="M371.426 237H389v6h-17.574zm0 0"/></clipPath><clipPath id="ac"><path d="M371.426 201H389v6h-17.574zm0 0"/></clipPath><clipPath id="ad"><path d="M371.426 165H389v6h-17.574zm0 0"/></clipPath><clipPath id="ae"><path d="M371.426 129H389v6h-17.574zm0 0"/></clipPath><clipPath id="af"><path d="M371.426 93H389v6h-17.574zm0 0"/></clipPath><clipPath id="ag"><path d="M371.426 57H389v6h-17.574zm0 0"/></clipPath><clipPath id="ah"><path d="M371.426 20H389v6h-17.574zm0 0"/></clipPath><clipPath id="ai"><path d="M394.426 18h320v222h-320zm0 0"/></clipPath><symbol overflow="visible" id="o"><path style="stroke:none" d="M1.89-4.86c-.452 0-.874.204-1.124.548-.313.421-.47 1.062-.47 1.968 0 1.625.548 2.5 1.595 2.5 1.03 0 1.593-.875 1.593-2.469 0-.937-.156-1.562-.484-2a1.355 1.355 0 0 0-1.11-.546zm0 .548c.641 0 .97.656.97 1.953 0 1.375-.313 2.015-.985 2.015-.64 0-.969-.672-.969-2 0-1.328.328-1.969.985-1.969zm0 0"/></symbol><symbol overflow="visible" id="p"><path style="stroke:none" d="M1.313-.719h-.72V0h.72zm0 0"/></symbol><symbol overflow="visible" id="q"><path style="stroke:none" d="M3.469-.594H.906c.063-.406.281-.656.89-1l.673-.375c.687-.36 1.031-.86 1.031-1.453 0-.406-.156-.781-.453-1.047-.281-.265-.64-.39-1.094-.39-.625 0-1.078.218-1.344.64-.171.25-.25.563-.265 1.047h.61c.015-.328.062-.531.14-.687a.94.94 0 0 1 .828-.47c.547 0 .969.391.969.907 0 .39-.235.719-.657.969l-.64.36C.578-1.532.28-1.064.234 0H3.47zm0 0"/></symbol><symbol overflow="visible" id="r"><path style="stroke:none" d="M3.266-4.86H.75L.39-2.202h.563c.281-.344.516-.453.89-.453.641 0 1.063.437 1.063 1.156 0 .703-.406 1.125-1.062 1.125-.532 0-.86-.266-1-.813h-.61c.094.391.157.579.297.766.281.36.766.578 1.328.578.97 0 1.657-.703 1.657-1.734 0-.953-.641-1.625-1.563-1.625-.344 0-.625.094-.906.297l.187-1.344h2.032zm0 0"/></symbol><symbol overflow="visible" id="s"><path style="stroke:none" d="M3.563-4.86H.313v.61h2.624C1.782-2.61 1.313-1.594.954 0h.64c.266-1.547.876-2.89 1.97-4.344zm0 0"/></symbol><symbol overflow="visible" id="t"><path style="stroke:none" d="M1.781-3.453V0h.594v-4.86h-.39c-.22.75-.36.86-1.282.97v.437zm0 0"/></symbol><symbol overflow="visible" id="u"><path style="stroke:none" d="M3.422-3.594c-.125-.781-.64-1.265-1.39-1.265-.532 0-1.016.265-1.298.703-.296.468-.437 1.062-.437 1.953 0 .812.125 1.328.406 1.765.266.376.688.594 1.219.594.937 0 1.594-.687 1.594-1.64 0-.891-.61-1.532-1.485-1.532-.484 0-.86.188-1.125.532.016-1.172.39-1.829 1.094-1.829.422 0 .719.266.813.72zm-1.469 1.11c.578 0 .953.406.953 1.046 0 .61-.422 1.063-.969 1.063-.562 0-.984-.469-.984-1.094 0-.593.406-1.015 1-1.015zm0 0"/></symbol><symbol overflow="visible" id="v"><path style="stroke:none" d="M2.688-2.547c.5-.312.656-.547.656-1.015 0-.75-.594-1.297-1.453-1.297-.86 0-1.47.546-1.47 1.296 0 .454.173.704.657 1.016C.531-2.28.25-1.875.25-1.344c0 .89.672 1.5 1.64 1.5.954 0 1.626-.61 1.626-1.5 0-.531-.266-.937-.829-1.203zM1.89-4.312c.515 0 .843.296.843.765 0 .453-.343.75-.843.75-.516 0-.844-.297-.844-.75 0-.469.328-.765.844-.765zm0 2.03c.593 0 1.015.376 1.015.954 0 .562-.422.953-1.031.953-.594 0-1-.39-1-.953 0-.578.406-.953 1.016-.953zm0 0"/></symbol><symbol overflow="visible" id="V"><path style="stroke:none" d="M1.89-4.86c-.452 0-.874.204-1.124.548-.313.421-.47 1.062-.47 1.968 0 1.625.548 2.5 1.595 2.5 1.03 0 1.593-.875 1.593-2.469 0-.937-.156-1.562-.484-2a1.355 1.355 0 0 0-1.11-.546zm0 .548c.641 0 .97.656.97 1.953 0 1.375-.313 2.015-.985 2.015-.64 0-.969-.672-.969-2 0-1.328.328-1.969.985-1.969zm0 0"/></symbol><symbol overflow="visible" id="W"><path style="stroke:none" d="M1.313-.719h-.72V0h.72zm0 0"/></symbol><symbol overflow="visible" id="X"><path style="stroke:none" d="M3.469-.594H.906c.063-.406.281-.656.89-1l.673-.375c.687-.36 1.031-.86 1.031-1.453 0-.406-.156-.781-.453-1.047-.281-.265-.64-.39-1.094-.39-.625 0-1.078.218-1.344.64-.171.25-.25.563-.265 1.047h.61c.015-.328.062-.531.14-.687a.94.94 0 0 1 .828-.47c.547 0 .969.391.969.907 0 .39-.235.719-.657.969l-.64.36C.578-1.532.28-1.064.234 0H3.47zm0 0"/></symbol><symbol overflow="visible" id="Y"><path style="stroke:none" d="M3.266-4.86H.75L.39-2.202h.563c.281-.344.516-.453.89-.453.641 0 1.063.437 1.063 1.156 0 .703-.406 1.125-1.062 1.125-.532 0-.86-.266-1-.813h-.61c.094.391.157.579.297.766.281.36.766.578 1.328.578.97 0 1.657-.703 1.657-1.734 0-.953-.641-1.625-1.563-1.625-.344 0-.625.094-.906.297l.187-1.344h2.032zm0 0"/></symbol><symbol overflow="visible" id="Z"><path style="stroke:none" d="M3.563-4.86H.313v.61h2.624C1.782-2.61 1.313-1.594.954 0h.64c.266-1.547.876-2.89 1.97-4.344zm0 0"/></symbol><symbol overflow="visible" id="aa"><path style="stroke:none" d="M1.781-3.453V0h.594v-4.86h-.39c-.22.75-.36.86-1.282.97v.437zm0 0"/></symbol></defs><path style="stroke:none;fill-rule:nonzero;fill:#fff;fill-opacity:1" d="M16.5 250.41h320V8.16h-320zm0 0"/><g clip-path="url(#a)"><path style="fill:none;stroke-width:5.70714;stroke-linecap:round;stroke-linejoin:miter;stroke:#bfbfbf;stroke-opacity:1;stroke-miterlimit:10" d="M399.5-211.153V-2636.69" transform="matrix(.10013 0 0 .09987 -23.5 271.499)"/><path style="fill:none;stroke-width:5.70714;stroke-linecap:round;stroke-linejoin:miter;stroke:#bfbfbf;stroke-opacity:1;stroke-dasharray:11.4143,17.1214;stroke-miterlimit:10" d="M399.5-211.153V-2636.69" transform="matrix(.10013 0 0 .09987 -23.5 271.499)"/></g><g clip-path="url(#b)"><path style="fill:none;stroke-width:5.70714;stroke-linecap:round;stroke-linejoin:miter;stroke:#bfbfbf;stroke-opacity:1;stroke-dasharray:11.4143,17.1214;stroke-miterlimit:10" d="M908.435-211.153V-2636.69" transform="matrix(.10013 0 0 .09987 -23.5 271.499)"/></g><g clip-path="url(#c)"><path style="fill:none;stroke-width:5.70714;stroke-linecap:round;stroke-linejoin:miter;stroke:#bfbfbf;stroke-opacity:1;stroke-dasharray:11.4143,17.1214;stroke-miterlimit:10" d="M1417.33-211.153V-2636.69" transform="matrix(.10013 0 0 .09987 -23.5 271.499)"/></g><g clip-path="url(#d)"><path style="fill:none;stroke-width:5.70714;stroke-linecap:round;stroke-linejoin:miter;stroke:#bfbfbf;stroke-opacity:1;stroke-dasharray:11.4143,17.1214;stroke-miterlimit:10" d="M1926.264-211.153V-2636.69" transform="matrix(.10013 0 0 .09987 -23.5 271.499)"/></g><g clip-path="url(#e)"><path style="fill:none;stroke-width:5.70714;stroke-linecap:round;stroke-linejoin:miter;stroke:#bfbfbf;stroke-opacity:1;stroke-dasharray:11.4143,17.1214;stroke-miterlimit:10" d="M2435.16-211.153V-2636.69" transform="matrix(.10013 0 0 .09987 -23.5 271.499)"/></g><g clip-path="url(#f)"><path style="fill:none;stroke-width:5.70714;stroke-linecap:round;stroke-linejoin:miter;stroke:#bfbfbf;stroke-opacity:1;stroke-dasharray:11.4143,17.1214;stroke-miterlimit:10" d="M2944.093-211.153V-2636.69" transform="matrix(.10013 0 0 .09987 -23.5 271.499)"/></g><g clip-path="url(#g)"><path style="fill:none;stroke-width:5.70714;stroke-linecap:round;stroke-linejoin:miter;stroke:#bfbfbf;stroke-opacity:1;stroke-dasharray:11.4143,17.1214;stroke-miterlimit:10" d="M3453.027-211.153V-2636.69" transform="matrix(.10013 0 0 .09987 -23.5 271.499)"/></g><g clip-path="url(#h)"><path style="fill:none;stroke-width:5.70714;stroke-linecap:round;stroke-linejoin:miter;stroke:#bfbfbf;stroke-opacity:1;stroke-dasharray:11.4143,17.1214;stroke-miterlimit:10" d="M399.5-211.153h3196.006" transform="matrix(.10013 0 0 .09987 -23.5 271.499)"/></g><g clip-path="url(#i)"><path style="fill:none;stroke-width:5.70714;stroke-linecap:round;stroke-linejoin:miter;stroke:#bfbfbf;stroke-opacity:1;stroke-dasharray:11.4143,17.1214;stroke-miterlimit:10" d="M399.5-615.409h3196.006" transform="matrix(.10013 0 0 .09987 -23.5 271.499)"/></g><g clip-path="url(#j)"><path style="fill:none;stroke-width:5.70714;stroke-linecap:round;stroke-linejoin:miter;stroke:#bfbfbf;stroke-opacity:1;stroke-dasharray:11.4143,17.1214;stroke-miterlimit:10" d="M399.5-1019.665h3196.006" transform="matrix(.10013 0 0 .09987 -23.5 271.499)"/></g><g clip-path="url(#k)"><path style="fill:none;stroke-width:5.70714;stroke-linecap:round;stroke-linejoin:miter;stroke:#bfbfbf;stroke-opacity:1;stroke-dasharray:11.4143,17.1214;stroke-miterlimit:10" d="M399.5-1423.921h3196.006" transform="matrix(.10013 0 0 .09987 -23.5 271.499)"/></g><g clip-path="url(#l)"><path style="fill:none;stroke-width:5.70714;stroke-linecap:round;stroke-linejoin:miter;stroke:#bfbfbf;stroke-opacity:1;stroke-dasharray:11.4143,17.1214;stroke-miterlimit:10" d="M399.5-1828.177h3196.006" transform="matrix(.10013 0 0 .09987 -23.5 271.499)"/></g><g clip-path="url(#m)"><path style="fill:none;stroke-width:5.70714;stroke-linecap:round;stroke-linejoin:miter;stroke:#bfbfbf;stroke-opacity:1;stroke-dasharray:11.4143,17.1214;stroke-miterlimit:10" d="M399.5-2232.433h3196.006" transform="matrix(.10013 0 0 .09987 -23.5 271.499)"/></g><g clip-path="url(#n)"><path style="fill:none;stroke-width:5.70714;stroke-linecap:round;stroke-linejoin:miter;stroke:#bfbfbf;stroke-opacity:1;stroke-dasharray:11.4143,17.1214;stroke-miterlimit:10" d="M399.5-2636.69h3196.006" transform="matrix(.10013 0 0 .09987 -23.5 271.499)"/></g><path style="fill:none;stroke-width:11.4143;stroke-linecap:square;stroke-linejoin:miter;stroke:#000;stroke-opacity:1;stroke-miterlimit:10" d="M399.5-211.153h3196.006" transform="matrix(.10013 0 0 .09987 -23.5 271.499)"/><path style="fill:none;stroke-width:5.70714;stroke-linecap:butt;stroke-linejoin:miter;stroke:#000;stroke-opacity:1;stroke-miterlimit:10" d="M399.5-211.153v-45.682m0 45.682v-22.84m50.875 22.84v-22.84m50.912 22.84v-22.84m50.874 22.84v-22.84m50.913 22.84v-22.84m50.874 22.84v-22.84m50.913 22.84v-22.84m50.874 22.84v-22.84m50.913 22.84v-22.84m101.787 22.84v-45.682m0 45.682v-22.84m50.874 22.84v-22.84m50.874 22.84v-22.84m50.913 22.84v-22.84m50.912 22.84v-22.84m50.874 22.84v-22.84m50.874 22.84v-22.84m50.914 22.84v-22.84m50.873 22.84v-22.84m101.787 22.84v-45.682m0 45.682v-22.84m50.874 22.84v-22.84m50.913 22.84v-22.84m50.873 22.84v-22.84m50.914 22.84v-22.84m50.873 22.84v-22.84m50.913 22.84v-22.84m50.874 22.84v-22.84m50.913 22.84v-22.84m101.787 22.84v-45.682m0 45.682v-22.84m50.874 22.84v-22.84m50.912 22.84v-22.84m50.875 22.84v-22.84m50.913 22.84v-22.84m50.874 22.84v-22.84m50.874 22.84v-22.84m50.912 22.84v-22.84m50.874 22.84v-22.84m101.788 22.84v-45.682m0 45.682v-22.84m50.912 22.84v-22.84m50.874 22.84v-22.84m50.913 22.84v-22.84m50.874 22.84v-22.84m50.913 22.84v-22.84m50.874 22.84v-22.84m50.874 22.84v-22.84m50.912 22.84v-22.84m101.787 22.84v-45.682m0 45.682v-22.84m50.874 22.84v-22.84m50.913 22.84v-22.84m50.874 22.84v-22.84m50.913 22.84v-22.84m50.873 22.84v-22.84m50.914 22.84v-22.84m50.874 22.84v-22.84m50.874 22.84v-22.84m101.825 22.84v-45.682m0 45.682v-22.84m50.874 22.84v-22.84m50.874 22.84v-22.84" transform="matrix(.10013 0 0 .09987 -23.5 271.499)"/><g style="fill:#000;fill-opacity:1"><use xlink:href="#o" x="9.828" y="259.529"/><use xlink:href="#p" x="13.641" y="259.529"/><use xlink:href="#o" x="15.547" y="259.529"/><use xlink:href="#o" x="19.36" y="259.529"/></g><g style="fill:#000;fill-opacity:1"><use xlink:href="#o" x="60.685" y="259.529"/><use xlink:href="#p" x="64.498" y="259.529"/><use xlink:href="#q" x="66.404" y="259.529"/><use xlink:href="#r" x="70.217" y="259.529"/></g><g style="fill:#000;fill-opacity:1"><use xlink:href="#o" x="111.543" y="259.529"/><use xlink:href="#p" x="115.355" y="259.529"/><use xlink:href="#r" x="117.262" y="259.529"/><use xlink:href="#o" x="121.074" y="259.529"/></g><g style="fill:#000;fill-opacity:1"><use xlink:href="#o" x="162.4" y="259.529"/><use xlink:href="#p" x="166.213" y="259.529"/><use xlink:href="#s" x="168.119" y="259.529"/><use xlink:href="#r" x="171.932" y="259.529"/></g><g style="fill:#000;fill-opacity:1"><use xlink:href="#t" x="213.258" y="259.529"/><use xlink:href="#p" x="217.07" y="259.529"/><use xlink:href="#o" x="218.977" y="259.529"/><use xlink:href="#o" x="222.789" y="259.529"/></g><g style="fill:#000;fill-opacity:1"><use xlink:href="#t" x="264.115" y="259.529"/><use xlink:href="#p" x="267.927" y="259.529"/><use xlink:href="#q" x="269.834" y="259.529"/><use xlink:href="#r" x="273.646" y="259.529"/></g><g style="fill:#000;fill-opacity:1"><use xlink:href="#t" x="315.543" y="259.529"/><use xlink:href="#p" x="319.356" y="259.529"/><use xlink:href="#r" x="321.262" y="259.529"/><use xlink:href="#o" x="325.075" y="259.529"/></g><path style="fill:none;stroke-width:11.4143;stroke-linecap:square;stroke-linejoin:miter;stroke:#000;stroke-opacity:1;stroke-miterlimit:10" d="M399.5-2636.69h3196.006" transform="matrix(.10013 0 0 .09987 -23.5 271.499)"/><path style="fill:none;stroke-width:5.70714;stroke-linecap:butt;stroke-linejoin:miter;stroke:#000;stroke-opacity:1;stroke-miterlimit:10" d="M399.5-2636.69v45.644m0-45.644v22.802m50.875-22.802v22.802m50.912-22.802v22.802m50.874-22.802v22.802m50.913-22.802v22.802m50.874-22.802v22.802m50.913-22.802v22.802m50.874-22.802v22.802m50.913-22.802v22.802m101.787-22.802v45.644m0-45.644v22.802m50.874-22.802v22.802m50.874-22.802v22.802m50.913-22.802v22.802m50.912-22.802v22.802m50.874-22.802v22.802m50.874-22.802v22.802m50.914-22.802v22.802m50.873-22.802v22.802m101.787-22.802v45.644m0-45.644v22.802m50.874-22.802v22.802m50.913-22.802v22.802m50.873-22.802v22.802m50.914-22.802v22.802m50.873-22.802v22.802m50.913-22.802v22.802m50.874-22.802v22.802m50.913-22.802v22.802m101.787-22.802v45.644m0-45.644v22.802m50.874-22.802v22.802m50.912-22.802v22.802m50.875-22.802v22.802m50.913-22.802v22.802m50.874-22.802v22.802m50.874-22.802v22.802m50.912-22.802v22.802m50.874-22.802v22.802m101.788-22.802v45.644m0-45.644v22.802m50.912-22.802v22.802m50.874-22.802v22.802m50.913-22.802v22.802m50.874-22.802v22.802m50.913-22.802v22.802m50.874-22.802v22.802m50.874-22.802v22.802m50.912-22.802v22.802m101.787-22.802v45.644m0-45.644v22.802m50.874-22.802v22.802m50.913-22.802v22.802m50.874-22.802v22.802m50.913-22.802v22.802m50.873-22.802v22.802m50.914-22.802v22.802m50.874-22.802v22.802m50.874-22.802v22.802m101.825-22.802v45.644m0-45.644v22.802m50.874-22.802v22.802m50.874-22.802v22.802" transform="matrix(.10013 0 0 .09987 -23.5 271.499)"/><g style="fill:#000;fill-opacity:1"><use xlink:href="#o" x="9.828" y="5.879"/><use xlink:href="#p" x="13.641" y="5.879"/><use xlink:href="#o" x="15.547" y="5.879"/><use xlink:href="#o" x="19.36" y="5.879"/></g><g style="fill:#000;fill-opacity:1"><use xlink:href="#o" x="60.685" y="5.879"/><use xlink:href="#p" x="64.498" y="5.879"/><use xlink:href="#q" x="66.404" y="5.879"/><use xlink:href="#r" x="70.217" y="5.879"/></g><g style="fill:#000;fill-opacity:1"><use xlink:href="#o" x="111.543" y="5.879"/><use xlink:href="#p" x="115.355" y="5.879"/><use xlink:href="#r" x="117.262" y="5.879"/><use xlink:href="#o" x="121.074" y="5.879"/></g><g style="fill:#000;fill-opacity:1"><use xlink:href="#o" x="162.4" y="5.879"/><use xlink:href="#p" x="166.213" y="5.879"/><use xlink:href="#s" x="168.119" y="5.879"/><use xlink:href="#r" x="171.932" y="5.879"/></g><g style="fill:#000;fill-opacity:1"><use xlink:href="#t" x="213.258" y="5.879"/><use xlink:href="#p" x="217.07" y="5.879"/><use xlink:href="#o" x="218.977" y="5.879"/><use xlink:href="#o" x="222.789" y="5.879"/></g><g style="fill:#000;fill-opacity:1"><use xlink:href="#t" x="264.115" y="5.879"/><use xlink:href="#p" x="267.927" y="5.879"/><use xlink:href="#q" x="269.834" y="5.879"/><use xlink:href="#r" x="273.646" y="5.879"/></g><g style="fill:#000;fill-opacity:1"><use xlink:href="#t" x="315.543" y="5.879"/><use xlink:href="#p" x="319.356" y="5.879"/><use xlink:href="#r" x="321.262" y="5.879"/><use xlink:href="#o" x="325.075" y="5.879"/></g><path style="fill:none;stroke-width:11.4143;stroke-linecap:square;stroke-linejoin:miter;stroke:#000;stroke-opacity:1;stroke-miterlimit:10" d="M399.5-211.153V-2636.69" transform="matrix(.10013 0 0 .09987 -23.5 271.499)"/><path style="fill:none;stroke-width:5.70714;stroke-linecap:butt;stroke-linejoin:miter;stroke:#000;stroke-opacity:1;stroke-miterlimit:10" d="M399.5-211.153h45.647m-45.647 0h22.824M399.5-251.594h22.824M399.5-292.035h22.824M399.5-332.437h22.824M399.5-372.879h22.824M399.5-413.28h22.824M399.5-453.722h22.824M399.5-494.124h22.824M399.5-534.566h22.824M399.5-615.409h45.647m-45.647 0h22.824M399.5-655.85h22.824M399.5-696.252h22.824M399.5-736.694h22.824M399.5-777.135h22.824M399.5-817.537h22.824M399.5-857.978h22.824M399.5-898.42h22.824M399.5-938.822h22.824m-22.824-80.843h45.647m-45.647 0h22.824m-22.824-40.441h22.824m-22.824-40.442h22.824M399.5-1140.95h22.824m-22.824-40.441h22.824m-22.824-40.402h22.824m-22.824-40.441h22.824m-22.824-40.403h22.824m-22.824-40.441h22.824m-22.824-80.843h45.647m-45.647 0h22.824m-22.824-40.441h22.824m-22.824-40.442h22.824m-22.824-40.402h22.824m-22.824-40.441h22.824M399.5-1626.05h22.824m-22.824-40.44h22.824m-22.824-40.403h22.824m-22.824-40.441h22.824m-22.824-80.843h45.647m-45.647 0h22.824m-22.824-40.442h22.824M399.5-1909.02h22.824m-22.824-40.442h22.824m-22.824-40.441h22.824m-22.824-40.402h22.824m-22.824-40.442h22.824m-22.824-40.441h22.824M399.5-2151.59h22.824m-22.824-80.843h45.647m-45.647 0h22.824m-22.824-40.442h22.824m-22.824-40.402h22.824m-22.824-40.441h22.824M399.5-2394.16h22.824m-22.824-40.402h22.824m-22.824-40.441h22.824m-22.824-40.402h22.824m-22.824-40.441h22.824M399.5-2636.69h45.647m-45.647 0h22.824" transform="matrix(.10013 0 0 .09987 -23.5 271.499)"/><g style="fill:#000;fill-opacity:1"><use xlink:href="#r" x="1.255" y="253.829"/><use xlink:href="#p" x="5.067" y="253.829"/><use xlink:href="#o" x="6.974" y="253.829"/></g><g style="fill:#000;fill-opacity:1"><use xlink:href="#r" x="1.255" y="213.359"/><use xlink:href="#p" x="5.067" y="213.359"/><use xlink:href="#r" x="6.974" y="213.359"/></g><g style="fill:#000;fill-opacity:1"><use xlink:href="#u" x="1.255" y="172.889"/><use xlink:href="#p" x="5.067" y="172.889"/><use xlink:href="#o" x="6.974" y="172.889"/></g><g style="fill:#000;fill-opacity:1"><use xlink:href="#u" x="1.255" y="132.419"/><use xlink:href="#p" x="5.067" y="132.419"/><use xlink:href="#r" x="6.974" y="132.419"/></g><g style="fill:#000;fill-opacity:1"><use xlink:href="#s" x="1.255" y="91.949"/><use xlink:href="#p" x="5.067" y="91.949"/><use xlink:href="#o" x="6.974" y="91.949"/></g><g style="fill:#000;fill-opacity:1"><use xlink:href="#s" x="1.255" y="51.479"/><use xlink:href="#p" x="5.067" y="51.479"/><use xlink:href="#r" x="6.974" y="51.479"/></g><g style="fill:#000;fill-opacity:1"><use xlink:href="#v" x="1.255" y="11.579"/><use xlink:href="#p" x="5.067" y="11.579"/><use xlink:href="#o" x="6.974" y="11.579"/></g><path style="fill:none;stroke-width:11.4143;stroke-linecap:square;stroke-linejoin:miter;stroke:#000;stroke-opacity:1;stroke-miterlimit:10" d="M3595.506-211.153V-2636.69" transform="matrix(.10013 0 0 .09987 -23.5 271.499)"/><path style="fill:none;stroke-width:5.70714;stroke-linecap:butt;stroke-linejoin:miter;stroke:#000;stroke-opacity:1;stroke-miterlimit:10" d="M3595.506-211.153h-45.685m45.685 0h-22.823m22.823-40.441h-22.823m22.823-40.441h-22.823m22.823-40.402h-22.823m22.823-40.442h-22.823m22.823-40.401h-22.823m22.823-40.442h-22.823m22.823-40.402h-22.823m22.823-40.442h-22.823m22.823-80.843h-45.685m45.685 0h-22.823m22.823-40.441h-22.823m22.823-40.402h-22.823m22.823-40.442h-22.823m22.823-40.441h-22.823m22.823-40.402h-22.823m22.823-40.441h-22.823m22.823-40.442h-22.823m22.823-40.402h-22.823m22.823-80.843h-45.685m45.685 0h-22.823m22.823-40.441h-22.823m22.823-40.442h-22.823m22.823-40.402h-22.823m22.823-40.441h-22.823m22.823-40.402h-22.823m22.823-40.441h-22.823m22.823-40.403h-22.823m22.823-40.441h-22.823m22.823-80.843h-45.685m45.685 0h-22.823m22.823-40.441h-22.823m22.823-40.442h-22.823m22.823-40.402h-22.823m22.823-40.441h-22.823m22.823-40.403h-22.823m22.823-40.44h-22.823m22.823-40.403h-22.823m22.823-40.441h-22.823m22.823-80.843h-45.685m45.685 0h-22.823m22.823-40.442h-22.823m22.823-40.401h-22.823m22.823-40.442h-22.823m22.823-40.441h-22.823m22.823-40.402h-22.823m22.823-40.442h-22.823m22.823-40.441h-22.823m22.823-40.402h-22.823m22.823-80.843h-45.685m45.685 0h-22.823m22.823-40.442h-22.823m22.823-40.402h-22.823m22.823-40.441h-22.823m22.823-40.442h-22.823m22.823-40.402h-22.823m22.823-40.441h-22.823m22.823-40.402h-22.823m22.823-40.441h-22.823m22.823-80.844h-45.685m45.685 0h-22.823" transform="matrix(.10013 0 0 .09987 -23.5 271.499)"/><g style="fill:#000;fill-opacity:1" clip-path="url(#w)"><use xlink:href="#r" x="342.214" y="253.829"/><use xlink:href="#p" x="346.027" y="253.829"/><use xlink:href="#o" x="347.933" y="253.829"/></g><g style="fill:#000;fill-opacity:1" clip-path="url(#x)"><use xlink:href="#r" x="342.214" y="213.359"/><use xlink:href="#p" x="346.027" y="213.359"/><use xlink:href="#r" x="347.933" y="213.359"/></g><g style="fill:#000;fill-opacity:1" clip-path="url(#y)"><use xlink:href="#u" x="342.214" y="172.889"/><use xlink:href="#p" x="346.027" y="172.889"/><use xlink:href="#o" x="347.933" y="172.889"/></g><g style="fill:#000;fill-opacity:1" clip-path="url(#z)"><use xlink:href="#u" x="342.214" y="132.419"/><use xlink:href="#p" x="346.027" y="132.419"/><use xlink:href="#r" x="347.933" y="132.419"/></g><g style="fill:#000;fill-opacity:1" clip-path="url(#A)"><use xlink:href="#s" x="342.214" y="91.949"/><use xlink:href="#p" x="346.027" y="91.949"/><use xlink:href="#o" x="347.933" y="91.949"/></g><g style="fill:#000;fill-opacity:1" clip-path="url(#B)"><use xlink:href="#s" x="342.214" y="51.479"/><use xlink:href="#p" x="346.027" y="51.479"/><use xlink:href="#r" x="347.933" y="51.479"/></g><g style="fill:#000;fill-opacity:1" clip-path="url(#C)"><use xlink:href="#v" x="342.214" y="11.579"/><use xlink:href="#p" x="346.027" y="11.579"/><use xlink:href="#o" x="347.933" y="11.579"/></g><g clip-path="url(#D)"><path style="fill:none;stroke-width:11.4143;stroke-linecap:round;stroke-linejoin:round;stroke:#00008b;stroke-opacity:1;stroke-miterlimit:10" d="m399.5-1248.624 9.247-.039h9.13l18.336-.078 9.129-.078 9.129-.04 9.09-.077 9.13-.118 18.414-.234 9.051-.118 9.168-.156 9.208-.157 9.246-.195 9.168-.157 9.012-.195 9.285-.235 27.505-.704 9.13-.274 9.09-.274 9.129-.273 9.129-.313 9.168-.313 9.246-.313 9.052-.352 9.168-.352 9.207-.352 9.246-.391 9.13-.391 9.05-.43 9.286-.43 9.168-.392 9.13-.47 9.168-.468 18.258-.94 9.13-.508 9.09-.508 9.207-.508 9.207-.548 9.051-.548 9.207-.547 9.169-.587 9.285-.586 9.13-.587 9.05-.626 9.247-.626 9.168-.626 18.336-1.33 9.13-.664 9.129-.704 9.09-.704 9.13-.704 18.414-1.486 9.05-.744 9.169-.782 9.207-.782 9.247-.821 9.168-.783 9.012-.82 9.285-.861 27.505-2.582 9.09-.9 18.258-1.798 9.09-.94 9.208-.938 9.246-.978 9.051-.938 9.169-.978 9.207-1.017 9.246-1.017 9.13-1.017 9.05-1.017 9.286-1.095 9.168-1.056 9.13-1.056 9.167-1.095 9.13-1.134 9.129-1.095 9.13-1.134 9.09-1.135 9.207-1.134 9.207-1.212 9.05-1.174 9.208-1.173 9.168-1.252 9.247-1.212 9.168-1.252 9.051-1.212 9.246-1.29 18.337-2.582 9.168-1.33 9.13-1.29 9.128-1.33 9.09-1.37 9.13-1.368 9.207-1.37 9.207-1.407 9.052-1.369 9.168-1.447 9.207-1.408 9.246-1.486 9.168-1.448 9.013-1.447 9.285-1.525 9.168-1.486 9.13-1.526 9.207-1.525 9.09-1.564 9.129-1.565 9.13-1.525 9.09-1.604 9.207-1.603 9.246-1.643 9.051-1.604 9.168-1.642 9.208-1.682 9.246-1.682 9.129-1.682 9.051-1.681 9.285-1.721 9.13-1.76 9.168-1.721 9.168-1.8 18.259-3.52 9.129-1.799 9.09-1.799 9.207-1.838 9.207-1.877 9.052-1.839 9.168-1.877 9.207-1.916 9.246-1.917 9.169-1.916 9.05-1.917 9.247-1.994 9.168-1.917 18.337-3.99 9.129-2.033 9.09-1.995 18.259-4.067 9.168-2.073 9.246-2.112 9.051-2.073 9.168-2.151 9.208-2.112 9.246-2.19 9.168-2.152 9.012-2.15 9.286-2.23 9.168-2.19 9.13-2.23 9.167-2.23 27.388-6.804 9.09-2.269 18.415-4.693 9.09-2.308 9.168-2.347 9.168-2.425 9.286-2.385 9.129-2.425 9.05-2.386 9.286-2.503 9.13-2.425 18.336-5.006 9.13-2.464 9.128-2.543 9.13-2.503 9.09-2.542 9.207-2.62 9.207-2.582 9.051-2.581 9.169-2.62 9.207-2.66 9.246-2.66 9.168-2.66 9.013-2.659 9.285-2.738 27.504-8.213 9.09-2.777 18.26-5.554 9.128-2.816 9.169-2.855 9.246-2.855 9.051-2.855 9.168-2.895 9.207-2.933 9.247-2.933 9.168-2.934 9.012-2.933 9.285-3.012 9.169-2.972 9.129-3.012 9.207-3.05 9.09-3.051 9.13-3.012 9.129-3.09 9.09-3.09 18.414-6.257 9.052-3.129 9.207-3.168 9.207-3.207 9.246-3.246 9.13-3.208 9.05-3.207 9.247-3.285 9.168-3.285 9.168-3.325 9.169-3.285 9.129-3.325 9.129-3.363 9.09-3.325 9.13-3.403 9.168-3.402 9.246-3.442 9.051-3.403 9.168-3.48 9.208-3.52 9.246-3.52 9.168-3.52 9.012-3.482 9.286-3.598 18.336-7.196 9.168-3.638 9.09-3.598 9.13-3.637 18.258-7.353 9.168-3.716 9.247-3.755 9.05-3.715 9.169-3.794 9.207-3.794 9.246-3.872 9.13-3.833 9.05-3.794 9.286-3.91 9.168-3.912 9.13-3.911 9.168-3.95 18.258-7.9 9.13-3.99 9.09-3.99 18.414-8.135 9.051-4.067 9.208-4.107 9.168-4.146 9.246-4.185 9.168-4.146 9.051-4.145 9.286-4.264 9.129-4.224 18.336-8.526 9.13-4.263 9.129-4.341 9.09-4.303 9.13-4.341 18.414-8.84 9.05-4.38 9.17-4.458 9.206-4.498 9.247-4.537 9.168-4.537 9.012-4.459 9.285-4.615 9.168-4.615 9.13-4.615 9.207-4.615 9.13-4.655 9.09-4.654 18.258-9.387 9.168-4.771 9.246-4.811 9.051-4.733 9.169-4.85 9.207-4.888 9.246-4.89 9.13-4.888 9.05-4.89 9.286-5.005 9.168-4.968 9.13-4.967 9.167-5.045 9.13-5.006 9.129-5.085 9.13-5.045 9.09-5.085 9.207-5.162 9.207-5.241 9.051-5.124 9.168-5.24 9.207-5.28 9.247-5.32 9.168-5.28 9.012-5.241 9.285-5.437 18.337-10.794 9.168-5.437 9.13-5.436 9.128-5.476 9.09-5.476 9.13-5.514 9.168-5.593 9.246-5.632 9.052-5.554 9.168-5.671 9.207-5.71 9.246-5.75 9.169-5.71 9.012-5.71 9.285-5.867 9.168-5.828 9.13-5.827 9.207-5.906 9.09-5.867 9.13-5.906 9.128-5.945 9.09-5.945 9.208-6.062 9.246-6.101 9.012-6.023 9.207-6.102 9.208-6.18" transform="matrix(.10013 0 0 .09987 -23.5 271.499)"/></g><g clip-path="url(#E)"><path style="fill:none;stroke-width:11.4143;stroke-linecap:round;stroke-linejoin:round;stroke:#006400;stroke-opacity:1;stroke-miterlimit:10" d="M399.5-1248.624h3196.006" transform="matrix(.10013 0 0 .09987 -23.5 271.499)"/></g><path style="stroke:none;fill-rule:nonzero;fill:#fff;fill-opacity:1" d="M394.426 250.41h320V8.16h-320zm0 0"/><g clip-path="url(#F)"><path style="fill:none;stroke-width:5.70714;stroke-linecap:round;stroke-linejoin:miter;stroke:#bfbfbf;stroke-opacity:1;stroke-miterlimit:10" d="M399.518-211.153V-2636.69" transform="matrix(.10013 0 0 .09987 354.424 271.499)"/></g><g clip-path="url(#G)"><path style="fill:none;stroke-width:5.70714;stroke-linecap:round;stroke-linejoin:miter;stroke:#bfbfbf;stroke-opacity:1;stroke-miterlimit:10" d="M399.518-321.408h3195.966" transform="matrix(.10013 0 0 .09987 354.424 271.499)"/></g><g clip-path="url(#H)"><path style="fill:none;stroke-width:5.70714;stroke-linecap:round;stroke-linejoin:miter;stroke:#bfbfbf;stroke-opacity:1;stroke-dasharray:11.4143,17.1214;stroke-miterlimit:10" d="M399.518-211.153V-2636.69" transform="matrix(.10013 0 0 .09987 354.424 271.499)"/></g><g clip-path="url(#I)"><path style="fill:none;stroke-width:5.70714;stroke-linecap:round;stroke-linejoin:miter;stroke:#bfbfbf;stroke-opacity:1;stroke-dasharray:11.4143,17.1214;stroke-miterlimit:10" d="M908.414-211.153V-2636.69" transform="matrix(.10013 0 0 .09987 354.424 271.499)"/></g><g clip-path="url(#J)"><path style="fill:none;stroke-width:5.70714;stroke-linecap:round;stroke-linejoin:miter;stroke:#bfbfbf;stroke-opacity:1;stroke-dasharray:11.4143,17.1214;stroke-miterlimit:10" d="M1417.348-211.153V-2636.69" transform="matrix(.10013 0 0 .09987 354.424 271.499)"/></g><g clip-path="url(#K)"><path style="fill:none;stroke-width:5.70714;stroke-linecap:round;stroke-linejoin:miter;stroke:#bfbfbf;stroke-opacity:1;stroke-dasharray:11.4143,17.1214;stroke-miterlimit:10" d="M1926.243-211.153V-2636.69" transform="matrix(.10013 0 0 .09987 354.424 271.499)"/></g><g clip-path="url(#L)"><path style="fill:none;stroke-width:5.70714;stroke-linecap:round;stroke-linejoin:miter;stroke:#bfbfbf;stroke-opacity:1;stroke-dasharray:11.4143,17.1214;stroke-miterlimit:10" d="M2435.177-211.153V-2636.69" transform="matrix(.10013 0 0 .09987 354.424 271.499)"/></g><g clip-path="url(#M)"><path style="fill:none;stroke-width:5.70714;stroke-linecap:round;stroke-linejoin:miter;stroke:#bfbfbf;stroke-opacity:1;stroke-dasharray:11.4143,17.1214;stroke-miterlimit:10" d="M2944.072-211.153V-2636.69" transform="matrix(.10013 0 0 .09987 354.424 271.499)"/></g><g clip-path="url(#N)"><path style="fill:none;stroke-width:5.70714;stroke-linecap:round;stroke-linejoin:miter;stroke:#bfbfbf;stroke-opacity:1;stroke-dasharray:11.4143,17.1214;stroke-miterlimit:10" d="M3453.006-211.153V-2636.69" transform="matrix(.10013 0 0 .09987 354.424 271.499)"/></g><g clip-path="url(#O)"><path style="fill:none;stroke-width:5.70714;stroke-linecap:round;stroke-linejoin:miter;stroke:#bfbfbf;stroke-opacity:1;stroke-dasharray:11.4143,17.1214;stroke-miterlimit:10" d="M399.518-321.408h3195.966" transform="matrix(.10013 0 0 .09987 354.424 271.499)"/></g><g clip-path="url(#P)"><path style="fill:none;stroke-width:5.70714;stroke-linecap:round;stroke-linejoin:miter;stroke:#bfbfbf;stroke-opacity:1;stroke-dasharray:11.4143,17.1214;stroke-miterlimit:10" d="M399.518-682.602h3195.966" transform="matrix(.10013 0 0 .09987 354.424 271.499)"/></g><g clip-path="url(#Q)"><path style="fill:none;stroke-width:5.70714;stroke-linecap:round;stroke-linejoin:miter;stroke:#bfbfbf;stroke-opacity:1;stroke-dasharray:11.4143,17.1214;stroke-miterlimit:10" d="M399.518-1043.797h3195.966" transform="matrix(.10013 0 0 .09987 354.424 271.499)"/></g><g clip-path="url(#R)"><path style="fill:none;stroke-width:5.70714;stroke-linecap:round;stroke-linejoin:miter;stroke:#bfbfbf;stroke-opacity:1;stroke-dasharray:11.4143,17.1214;stroke-miterlimit:10" d="M399.518-1404.952h3195.966" transform="matrix(.10013 0 0 .09987 354.424 271.499)"/></g><g clip-path="url(#S)"><path style="fill:none;stroke-width:5.70714;stroke-linecap:round;stroke-linejoin:miter;stroke:#bfbfbf;stroke-opacity:1;stroke-dasharray:11.4143,17.1214;stroke-miterlimit:10" d="M399.518-1766.147h3195.966" transform="matrix(.10013 0 0 .09987 354.424 271.499)"/></g><g clip-path="url(#T)"><path style="fill:none;stroke-width:5.70714;stroke-linecap:round;stroke-linejoin:miter;stroke:#bfbfbf;stroke-opacity:1;stroke-dasharray:11.4143,17.1214;stroke-miterlimit:10" d="M399.518-2127.302h3195.966" transform="matrix(.10013 0 0 .09987 354.424 271.499)"/></g><g clip-path="url(#U)"><path style="fill:none;stroke-width:5.70714;stroke-linecap:round;stroke-linejoin:miter;stroke:#bfbfbf;stroke-opacity:1;stroke-dasharray:11.4143,17.1214;stroke-miterlimit:10" d="M399.518-2488.496h3195.966" transform="matrix(.10013 0 0 .09987 354.424 271.499)"/></g><path style="fill:none;stroke-width:11.4143;stroke-linecap:square;stroke-linejoin:miter;stroke:#000;stroke-opacity:1;stroke-miterlimit:10" d="M399.518-211.153h3195.966" transform="matrix(.10013 0 0 .09987 354.424 271.499)"/><path style="fill:none;stroke-width:5.70714;stroke-linecap:butt;stroke-linejoin:miter;stroke:#000;stroke-opacity:1;stroke-miterlimit:10" d="M399.518-211.153v-45.682m0 45.682v-22.84m50.874 22.84v-22.84m50.874 22.84v-22.84m50.914 22.84v-22.84m50.873 22.84v-22.84m50.913 22.84v-22.84m50.874 22.84v-22.84m50.913 22.84v-22.84m50.874 22.84v-22.84m101.787 22.84v-45.682m0 45.682v-22.84m50.912 22.84v-22.84m50.874 22.84v-22.84m50.874 22.84v-22.84m50.913 22.84v-22.84m50.874 22.84v-22.84m50.913 22.84v-22.84m50.874 22.84v-22.84m50.912 22.84v-22.84m101.788 22.84v-45.682m0 45.682v-22.84m50.874 22.84v-22.84m50.913 22.84v-22.84m50.873 22.84v-22.84m50.874 22.84v-22.84m50.913 22.84v-22.84m50.875 22.84v-22.84m50.912 22.84v-22.84m50.874 22.84v-22.84m101.787 22.84v-45.682m0 45.682v-22.84m50.913 22.84v-22.84m50.874 22.84v-22.84m50.913 22.84v-22.84m50.873 22.84v-22.84m50.914 22.84v-22.84m50.873 22.84v-22.84m50.874 22.84v-22.84m50.913 22.84v-22.84m101.787 22.84v-45.682m0 45.682v-22.84m50.873 22.84v-22.84m50.914 22.84v-22.84m50.874 22.84v-22.84m50.912 22.84v-22.84m50.875 22.84v-22.84m50.912 22.84v-22.84m50.874 22.84v-22.84m50.874 22.84v-22.84m101.787 22.84v-45.682m0 45.682v-22.84m50.913 22.84v-22.84m50.874 22.84v-22.84m50.913 22.84v-22.84m50.874 22.84v-22.84m50.913 22.84v-22.84m50.874 22.84v-22.84m50.913 22.84v-22.84m50.874 22.84v-22.84m101.786 22.84v-45.682m0 45.682v-22.84m50.874 22.84v-22.84m50.913 22.84v-22.84" transform="matrix(.10013 0 0 .09987 354.424 271.499)"/><g style="fill:#000;fill-opacity:1"><use xlink:href="#V" x="387.752" y="259.529"/><use xlink:href="#W" x="391.565" y="259.529"/><use xlink:href="#V" x="393.471" y="259.529"/><use xlink:href="#V" x="397.284" y="259.529"/></g><g style="fill:#000;fill-opacity:1"><use xlink:href="#V" x="438.609" y="259.529"/><use xlink:href="#W" x="442.422" y="259.529"/><use xlink:href="#X" x="444.328" y="259.529"/><use xlink:href="#Y" x="448.141" y="259.529"/></g><g style="fill:#000;fill-opacity:1"><use xlink:href="#V" x="489.467" y="259.529"/><use xlink:href="#W" x="493.279" y="259.529"/><use xlink:href="#Y" x="495.186" y="259.529"/><use xlink:href="#V" x="498.998" y="259.529"/></g><g style="fill:#000;fill-opacity:1"><use xlink:href="#V" x="540.324" y="259.529"/><use xlink:href="#W" x="544.137" y="259.529"/><use xlink:href="#Z" x="546.043" y="259.529"/><use xlink:href="#Y" x="549.856" y="259.529"/></g><g style="fill:#000;fill-opacity:1"><use xlink:href="#aa" x="591.182" y="259.529"/><use xlink:href="#W" x="594.994" y="259.529"/><use xlink:href="#V" x="596.901" y="259.529"/><use xlink:href="#V" x="600.713" y="259.529"/></g><g style="fill:#000;fill-opacity:1"><use xlink:href="#aa" x="642.039" y="259.529"/><use xlink:href="#W" x="645.851" y="259.529"/><use xlink:href="#X" x="647.758" y="259.529"/><use xlink:href="#Y" x="651.57" y="259.529"/></g><g style="fill:#000;fill-opacity:1"><use xlink:href="#aa" x="693.467" y="259.529"/><use xlink:href="#W" x="697.28" y="259.529"/><use xlink:href="#Y" x="699.186" y="259.529"/><use xlink:href="#V" x="702.999" y="259.529"/></g><path style="fill:none;stroke-width:11.4143;stroke-linecap:square;stroke-linejoin:miter;stroke:#000;stroke-opacity:1;stroke-miterlimit:10" d="M399.518-2636.69h3195.966" transform="matrix(.10013 0 0 .09987 354.424 271.499)"/><path style="fill:none;stroke-width:5.70714;stroke-linecap:butt;stroke-linejoin:miter;stroke:#000;stroke-opacity:1;stroke-miterlimit:10" d="M399.518-2636.69v45.644m0-45.644v22.802m50.874-22.802v22.802m50.874-22.802v22.802m50.914-22.802v22.802m50.873-22.802v22.802m50.913-22.802v22.802m50.874-22.802v22.802m50.913-22.802v22.802m50.874-22.802v22.802m101.787-22.802v45.644m0-45.644v22.802m50.912-22.802v22.802m50.874-22.802v22.802m50.874-22.802v22.802m50.913-22.802v22.802m50.874-22.802v22.802m50.913-22.802v22.802m50.874-22.802v22.802m50.912-22.802v22.802m101.788-22.802v45.644m0-45.644v22.802m50.874-22.802v22.802m50.913-22.802v22.802m50.873-22.802v22.802m50.874-22.802v22.802m50.913-22.802v22.802m50.875-22.802v22.802m50.912-22.802v22.802m50.874-22.802v22.802m101.787-22.802v45.644m0-45.644v22.802m50.913-22.802v22.802m50.874-22.802v22.802m50.913-22.802v22.802m50.873-22.802v22.802m50.914-22.802v22.802m50.873-22.802v22.802m50.874-22.802v22.802m50.913-22.802v22.802m101.787-22.802v45.644m0-45.644v22.802m50.873-22.802v22.802m50.914-22.802v22.802m50.874-22.802v22.802m50.912-22.802v22.802m50.875-22.802v22.802m50.912-22.802v22.802m50.874-22.802v22.802m50.874-22.802v22.802m101.787-22.802v45.644m0-45.644v22.802m50.913-22.802v22.802m50.874-22.802v22.802m50.913-22.802v22.802m50.874-22.802v22.802m50.913-22.802v22.802m50.874-22.802v22.802m50.913-22.802v22.802m50.874-22.802v22.802m101.786-22.802v45.644m0-45.644v22.802m50.874-22.802v22.802m50.913-22.802v22.802" transform="matrix(.10013 0 0 .09987 354.424 271.499)"/><g style="fill:#000;fill-opacity:1"><use xlink:href="#V" x="387.752" y="5.879"/><use xlink:href="#W" x="391.565" y="5.879"/><use xlink:href="#V" x="393.471" y="5.879"/><use xlink:href="#V" x="397.284" y="5.879"/></g><g style="fill:#000;fill-opacity:1"><use xlink:href="#V" x="438.609" y="5.879"/><use xlink:href="#W" x="442.422" y="5.879"/><use xlink:href="#X" x="444.328" y="5.879"/><use xlink:href="#Y" x="448.141" y="5.879"/></g><g style="fill:#000;fill-opacity:1"><use xlink:href="#V" x="489.467" y="5.879"/><use xlink:href="#W" x="493.279" y="5.879"/><use xlink:href="#Y" x="495.186" y="5.879"/><use xlink:href="#V" x="498.998" y="5.879"/></g><g style="fill:#000;fill-opacity:1"><use xlink:href="#V" x="540.324" y="5.879"/><use xlink:href="#W" x="544.137" y="5.879"/><use xlink:href="#Z" x="546.043" y="5.879"/><use xlink:href="#Y" x="549.856" y="5.879"/></g><g style="fill:#000;fill-opacity:1"><use xlink:href="#aa" x="591.182" y="5.879"/><use xlink:href="#W" x="594.994" y="5.879"/><use xlink:href="#V" x="596.901" y="5.879"/><use xlink:href="#V" x="600.713" y="5.879"/></g><g style="fill:#000;fill-opacity:1"><use xlink:href="#aa" x="642.039" y="5.879"/><use xlink:href="#W" x="645.851" y="5.879"/><use xlink:href="#X" x="647.758" y="5.879"/><use xlink:href="#Y" x="651.57" y="5.879"/></g><g style="fill:#000;fill-opacity:1"><use xlink:href="#aa" x="693.467" y="5.879"/><use xlink:href="#W" x="697.28" y="5.879"/><use xlink:href="#Y" x="699.186" y="5.879"/><use xlink:href="#V" x="702.999" y="5.879"/></g><path style="fill:none;stroke-width:11.4143;stroke-linecap:square;stroke-linejoin:miter;stroke:#000;stroke-opacity:1;stroke-miterlimit:10" d="M399.518-211.153V-2636.69" transform="matrix(.10013 0 0 .09987 354.424 271.499)"/><path style="fill:none;stroke-width:5.70714;stroke-linecap:butt;stroke-linejoin:miter;stroke:#000;stroke-opacity:1;stroke-miterlimit:10" d="M399.518-213.07h22.823m-22.823-36.1h22.823m-22.823-72.238h45.646m-45.646 0h22.823m-22.823-36.139h22.823m-22.823-36.1h22.823m-22.823-36.139h22.823m-22.823-36.1h22.823m-22.823-36.139h22.823m-22.823-36.1h22.823m-22.823-36.1h22.823m-22.823-36.139h22.823m-22.823-72.238h45.646m-45.646 0h22.823m-22.823-36.1h22.823m-22.823-36.139h22.823m-22.823-36.1h22.823m-22.823-36.139h22.823m-22.823-36.1h22.823m-22.823-36.14h22.823m-22.823-36.099h22.823m-22.823-36.139h22.823m-22.823-72.239h45.646m-45.646 0h22.823m-22.823-36.1h22.823m-22.823-36.1h22.823m-22.823-36.139h22.823m-22.823-36.099h22.823m-22.823-36.139h22.823m-22.823-36.1h22.823m-22.823-36.139h22.823m-22.823-36.1h22.823m-22.823-72.239h45.646m-45.646 0h22.823m-22.823-36.139h22.823m-22.823-36.1h22.823m-22.823-36.099h22.823m-22.823-36.14h22.823m-22.823-36.139h22.823m-22.823-36.1h22.823m-22.823-36.1h22.823m-22.823-36.139h22.823m-22.823-72.239h45.646m-45.646 0h22.823m-22.823-36.099h22.823m-22.823-36.139h22.823m-22.823-36.1h22.823m-22.823-36.139h22.823m-22.823-36.1h22.823m-22.823-36.139h22.823m-22.823-36.1h22.823m-22.823-36.1h22.823m-22.823-72.239h45.646m-45.646 0h22.823m-22.823-36.138h22.823m-22.823-36.1h22.823m-22.823-36.14h22.823m-22.823-36.1h22.823m-22.823-36.139h22.823m-22.823-36.099h22.823m-22.823-36.139h22.823m-22.823-36.1h22.823m-22.823-72.239h45.646m-45.646 0h22.823m-22.823-36.139h22.823m-22.823-36.1h22.823m-22.823-36.1h22.823m-22.823-36.139h22.823" transform="matrix(.10013 0 0 .09987 354.424 271.499)"/><g style="fill:#000;fill-opacity:1" clip-path="url(#ab)"><use xlink:href="#V" x="371.553" y="242.429"/><use xlink:href="#W" x="375.366" y="242.429"/><use xlink:href="#V" x="377.272" y="242.429"/><use xlink:href="#V" x="381.085" y="242.429"/><use xlink:href="#V" x="384.897" y="242.429"/></g><g style="fill:#000;fill-opacity:1" clip-path="url(#ac)"><use xlink:href="#V" x="371.553" y="206.519"/><use xlink:href="#W" x="375.366" y="206.519"/><use xlink:href="#V" x="377.272" y="206.519"/><use xlink:href="#X" x="381.085" y="206.519"/><use xlink:href="#Y" x="384.897" y="206.519"/></g><g style="fill:#000;fill-opacity:1" clip-path="url(#ad)"><use xlink:href="#V" x="371.553" y="170.609"/><use xlink:href="#W" x="375.366" y="170.609"/><use xlink:href="#V" x="377.272" y="170.609"/><use xlink:href="#Y" x="381.085" y="170.609"/><use xlink:href="#V" x="384.897" y="170.609"/></g><g style="fill:#000;fill-opacity:1" clip-path="url(#ae)"><use xlink:href="#V" x="371.553" y="134.129"/><use xlink:href="#W" x="375.366" y="134.129"/><use xlink:href="#V" x="377.272" y="134.129"/><use xlink:href="#Z" x="381.085" y="134.129"/><use xlink:href="#Y" x="384.897" y="134.129"/></g><g style="fill:#000;fill-opacity:1" clip-path="url(#af)"><use xlink:href="#V" x="371.553" y="98.219"/><use xlink:href="#W" x="375.366" y="98.219"/><use xlink:href="#aa" x="377.272" y="98.219"/><use xlink:href="#V" x="381.085" y="98.219"/><use xlink:href="#V" x="384.897" y="98.219"/></g><g style="fill:#000;fill-opacity:1" clip-path="url(#ag)"><use xlink:href="#V" x="371.553" y="62.309"/><use xlink:href="#W" x="375.366" y="62.309"/><use xlink:href="#aa" x="377.272" y="62.309"/><use xlink:href="#X" x="381.085" y="62.309"/><use xlink:href="#Y" x="384.897" y="62.309"/></g><g style="fill:#000;fill-opacity:1" clip-path="url(#ah)"><use xlink:href="#V" x="371.553" y="25.829"/><use xlink:href="#W" x="375.366" y="25.829"/><use xlink:href="#aa" x="377.272" y="25.829"/><use xlink:href="#Y" x="381.085" y="25.829"/><use xlink:href="#V" x="384.897" y="25.829"/></g><path style="fill:none;stroke-width:11.4143;stroke-linecap:square;stroke-linejoin:miter;stroke:#000;stroke-opacity:1;stroke-miterlimit:10" d="M3595.484-211.153V-2636.69" transform="matrix(.10013 0 0 .09987 354.424 271.499)"/><path style="fill:none;stroke-width:5.70714;stroke-linecap:butt;stroke-linejoin:miter;stroke:#000;stroke-opacity:1;stroke-miterlimit:10" d="M3595.484-213.07h-22.823m22.823-36.1h-22.823m22.823-72.238h-45.646m45.646 0h-22.823m22.823-36.139h-22.823m22.823-36.1h-22.823m22.823-36.139h-22.823m22.823-36.1h-22.823m22.823-36.139h-22.823m22.823-36.1h-22.823m22.823-36.1h-22.823m22.823-36.139h-22.823m22.823-72.238h-45.646m45.646 0h-22.823m22.823-36.1h-22.823m22.823-36.139h-22.823m22.823-36.1h-22.823m22.823-36.139h-22.823m22.823-36.1h-22.823m22.823-36.14h-22.823m22.823-36.099h-22.823m22.823-36.139h-22.823m22.823-72.239h-45.646m45.646 0h-22.823m22.823-36.1h-22.823m22.823-36.1h-22.823m22.823-36.139h-22.823m22.823-36.099h-22.823m22.823-36.139h-22.823m22.823-36.1h-22.823m22.823-36.139h-22.823m22.823-36.1h-22.823m22.823-72.239h-45.646m45.646 0h-22.823m22.823-36.139h-22.823m22.823-36.1h-22.823m22.823-36.099h-22.823m22.823-36.14h-22.823m22.823-36.139h-22.823m22.823-36.1h-22.823m22.823-36.1h-22.823m22.823-36.139h-22.823m22.823-72.239h-45.646m45.646 0h-22.823m22.823-36.099h-22.823m22.823-36.139h-22.823m22.823-36.1h-22.823m22.823-36.139h-22.823m22.823-36.1h-22.823m22.823-36.139h-22.823m22.823-36.1h-22.823m22.823-36.1h-22.823m22.823-72.239h-45.646m45.646 0h-22.823m22.823-36.138h-22.823m22.823-36.1h-22.823m22.823-36.14h-22.823m22.823-36.1h-22.823m22.823-36.139h-22.823m22.823-36.099h-22.823m22.823-36.139h-22.823m22.823-36.1h-22.823m22.823-72.239h-45.646m45.646 0h-22.823m22.823-36.139h-22.823m22.823-36.1h-22.823m22.823-36.1h-22.823m22.823-36.139h-22.823" transform="matrix(.10013 0 0 .09987 354.424 271.499)"/><g style="fill:#000;fill-opacity:1"><use xlink:href="#V" x="720.138" y="242.429"/><use xlink:href="#W" x="723.951" y="242.429"/><use xlink:href="#V" x="725.857" y="242.429"/><use xlink:href="#V" x="729.669" y="242.429"/><use xlink:href="#V" x="733.482" y="242.429"/></g><g style="fill:#000;fill-opacity:1"><use xlink:href="#V" x="720.138" y="206.519"/><use xlink:href="#W" x="723.951" y="206.519"/><use xlink:href="#V" x="725.857" y="206.519"/><use xlink:href="#X" x="729.669" y="206.519"/><use xlink:href="#Y" x="733.482" y="206.519"/></g><g style="fill:#000;fill-opacity:1"><use xlink:href="#V" x="720.138" y="170.609"/><use xlink:href="#W" x="723.951" y="170.609"/><use xlink:href="#V" x="725.857" y="170.609"/><use xlink:href="#Y" x="729.669" y="170.609"/><use xlink:href="#V" x="733.482" y="170.609"/></g><g style="fill:#000;fill-opacity:1"><use xlink:href="#V" x="720.138" y="134.129"/><use xlink:href="#W" x="723.951" y="134.129"/><use xlink:href="#V" x="725.857" y="134.129"/><use xlink:href="#Z" x="729.669" y="134.129"/><use xlink:href="#Y" x="733.482" y="134.129"/></g><g style="fill:#000;fill-opacity:1"><use xlink:href="#V" x="720.138" y="98.219"/><use xlink:href="#W" x="723.951" y="98.219"/><use xlink:href="#aa" x="725.857" y="98.219"/><use xlink:href="#V" x="729.669" y="98.219"/><use xlink:href="#V" x="733.482" y="98.219"/></g><g style="fill:#000;fill-opacity:1"><use xlink:href="#V" x="720.138" y="62.309"/><use xlink:href="#W" x="723.951" y="62.309"/><use xlink:href="#aa" x="725.857" y="62.309"/><use xlink:href="#X" x="729.669" y="62.309"/><use xlink:href="#Y" x="733.482" y="62.309"/></g><g style="fill:#000;fill-opacity:1"><use xlink:href="#V" x="720.138" y="25.829"/><use xlink:href="#W" x="723.951" y="25.829"/><use xlink:href="#aa" x="725.857" y="25.829"/><use xlink:href="#Y" x="729.669" y="25.829"/><use xlink:href="#V" x="733.482" y="25.829"/></g><g clip-path="url(#ai)"><path style="fill:none;stroke-width:11.4143;stroke-linecap:round;stroke-linejoin:round;stroke:#00008b;stroke-opacity:1;stroke-miterlimit:10" d="m399.557-321.408 9.09-.04 9.13-.038 9.207-.078 18.337-.313 9.05-.196 9.208-.235 9.09-.273 9.207-.313 9.286-.352 18.18-.782 9.13-.47 9.285-.508 9.129-.509 9.207-.586 9.09-.587 9.13-.626 18.336-1.408 9.168-.743 9.09-.782 9.208-.822 9.09-.86 9.168-.9 9.285-.938 9.13-.978 9.09-.978 9.129-1.056 9.246-1.095 9.13-1.095 9.207-1.173 9.129-1.174 9.129-1.212 9.168-1.252 18.337-2.66 9.09-1.33 9.168-1.446 9.13-1.408 9.168-1.487 9.285-1.525 9.09-1.564 9.13-1.565 9.128-1.642 9.247-1.682 9.129-1.682 9.207-1.76 9.09-1.76 9.13-1.8 9.207-1.837 9.168-1.878 9.13-1.916 9.09-1.956 9.207-1.995 9.09-1.994 9.207-2.073 9.285-2.151 9.09-2.112 9.09-2.151 9.13-2.23 9.285-2.268 9.13-2.269 9.168-2.307 9.129-2.347 9.13-2.386 9.167-2.425 18.337-5.006 9.09-2.503 9.168-2.581 9.13-2.582 9.168-2.66 9.285-2.737 9.13-2.699 9.09-2.738 9.129-2.777 9.246-2.855 9.13-2.855 9.206-2.933 9.09-2.894 9.169-2.973 9.168-3.05 9.168-3.012 9.168-3.09 9.052-3.09 9.207-3.168 9.13-3.207 9.167-3.207 9.286-3.325 9.09-3.285 9.09-3.324 9.13-3.364 9.284-3.442 9.13-3.442 4.603-1.76 4.604-1.72 4.525-1.76 9.13-3.52 4.564-1.8 4.604-1.799 4.565-1.799 4.603-1.8 4.565-1.798 4.603-1.838 9.13-3.677 4.525-1.838 9.207-3.755 4.526-1.877 4.565-1.878 9.207-3.833 4.642-1.916 4.643-1.995 4.526-1.916 4.564-1.917 4.526-1.955 9.13-3.911 4.564-1.995 4.642-1.995 4.643-2.033 4.565-1.995 4.525-1.995 4.604-2.073 4.603-2.034 9.13-4.067 13.693-6.219 4.604-2.112 4.604-2.073 4.564-2.112 4.604-2.151 4.565-2.112 4.525-2.112 4.565-2.151 4.603-2.151 4.565-2.151 4.565-2.19 4.564-2.152 4.604-2.19 4.564-2.23 4.643-2.229 4.643-2.268 4.564-2.19 4.526-2.23 9.13-4.458 9.128-4.537 4.604-2.308 4.643-2.308 9.129-4.615 4.603-2.307 4.604-2.347 4.526-2.308 4.564-2.346 4.604-2.347 4.564-2.347 4.565-2.385 4.604-2.386 9.129-4.772 9.207-4.85 4.526-2.385 4.525-2.425 9.208-4.928 4.564-2.425 4.526-2.464 9.207-5.007 9.285-5.084 4.526-2.503 9.13-5.006 4.525-2.543 4.564-2.542 4.604-2.542 4.604-2.62 4.642-2.582 9.13-5.163 4.603-2.62 4.565-2.66 4.564-2.581 4.565-2.62 4.564-2.66 4.565-2.62 4.604-2.7 4.603-2.659 4.565-2.699 4.564-2.66 4.604-2.698 4.565-2.738 4.564-2.698 4.526-2.7 4.604-2.737 13.693-8.213 4.604-2.777 4.565-2.777 4.642-2.855 4.643-2.816 4.564-2.816 4.565-2.777 4.526-2.816 9.129-5.632 4.564-2.855 4.643-2.895 4.604-2.894 4.564-2.855 4.604-2.894 4.565-2.895 4.603-2.933 9.13-5.788 9.129-5.867 4.603-2.973 4.565-2.933 4.603-2.972 4.565-3.012 4.565-2.973 4.603-3.011 4.526-2.973 4.564-2.972 4.565-3.05 4.604-3.012 4.564-3.051 4.565-3.012 4.565-3.09 4.603-3.05 9.285-6.258 4.565-3.09 4.526-3.09 4.564-3.05 13.694-9.387 4.604-3.168 4.642-3.207 4.565-3.13 4.565-3.167 9.207-6.414 4.564-3.168 4.526-3.208 9.13-6.414 4.603-3.285 4.603-3.246 4.565-3.247 4.604-3.246 4.564-3.285 4.604-3.286 4.525-3.285 4.526-3.246 9.207-6.65 4.565-3.324 4.525-3.324 9.208-6.727 9.285-6.806 4.526-3.363 4.564-3.364 4.565-3.403 4.525-3.363 4.565-3.403 4.565-3.442 9.285-6.962 9.13-6.883 9.206-6.962 4.526-3.481 4.565-3.48 2.262-1.76 2.302-1.722 2.302-1.76 2.263-1.76 4.603-3.52 2.302-1.799 2.263-1.76 4.604-3.52 2.262-1.8 2.302-1.798 2.302-1.76 2.302-1.8 2.263-1.76 2.301-1.799 2.263-1.76 2.302-1.799 2.263-1.76 2.263-1.799 6.905-5.397 2.263-1.8 2.302-1.799 2.262-1.799 2.302-1.799 2.263-1.838 2.302-1.8 2.302-1.837 2.302-1.8 2.262-1.838 2.341-1.838 2.302-1.877 2.34-1.839 4.604-3.676 4.526-3.677 2.302-1.799 4.525-3.676 2.302-1.838 4.526-3.677 4.603-3.676 2.263-1.878 2.302-1.877 2.34-1.877 6.906-5.632 2.263-1.878 2.302-1.877 2.263-1.838 2.301-1.878 2.302-1.916 4.604-3.755 2.302-1.916 2.263-1.839 2.262-1.916 2.302-1.838 2.263-1.917 2.302-1.877 2.263-1.917 2.301-1.916 2.302-1.877 2.263-1.917 6.905-5.75 2.263-1.916 6.906-5.75 2.262-1.955 4.604-3.833 6.788-5.749 2.302-1.916 2.263-1.956 9.207-7.822 2.263-1.917 2.263-1.955 4.603-3.911 2.263-1.956 2.302-1.956 2.302-1.994 2.34-1.995 2.303-1.995 2.34-1.994 2.302-1.995 2.263-1.956 2.302-1.994 4.525-3.911 2.302-1.995 2.263-1.956 2.263-1.994 2.302-1.956 2.262-1.995 2.302-1.994 2.263-1.995 2.302-1.995 4.603-4.067 2.341-2.034 2.302-1.995 2.263-2.034 2.302-1.994 2.262-1.995 11.51-10.169 2.262-1.995 2.302-2.033 2.263-2.034 2.263-1.995 2.301-2.034 2.263-2.033 2.302-2.073 2.302-2.034 2.263-2.034 4.603-4.146 2.302-2.034 2.302-2.072 2.263-2.034 4.603-4.146 2.263-2.073 2.302-2.073 2.302-2.034 2.263-2.112 2.301-2.034 4.526-4.145 2.263-2.034 2.302-2.112 2.301-2.073 4.604-4.224 2.263-2.034 2.263-2.112 2.301-2.073 2.263-2.112 2.302-2.073 6.905-6.336 2.302-2.15 2.341-2.152 2.302-2.151 2.34-2.112 4.526-4.224 2.302-2.112 6.789-6.336 2.301-2.151 2.263-2.112 2.302-2.112 2.263-2.152 2.302-2.112 2.262-2.15 2.341-2.191 2.302-2.151 2.302-2.19 2.34-2.152 2.263-2.15 2.302-2.152 2.263-2.15 2.302-2.152 2.263-2.19 2.301-2.151 2.302-2.19 2.341-2.19 4.526-4.303 2.262-2.19 2.302-2.152 2.302-2.19 2.263-2.19 2.302-2.151 2.262-2.19 4.604-4.38 2.263-2.23 6.905-6.571 2.302-2.23 2.263-2.19 2.302-2.229 2.302-2.19 2.262-2.23 2.302-2.229 2.263-2.19 2.302-2.19 2.263-2.19 2.262-2.23 6.906-6.688 2.263-2.23 2.301-2.229 2.263-2.23 2.302-2.228 2.263-2.23 2.302-2.23 2.262-2.268 4.604-4.537 2.34-2.268 2.303-2.268 2.34-2.308 2.302-2.308 2.302-2.229 2.263-2.268 2.263-2.23 2.302-2.268 2.262-2.23 2.263-2.268 2.302-2.269 4.526-4.536 4.603-4.537 2.263-2.269 2.302-2.347 2.34-2.307 6.906-6.923 2.263-2.307 2.302-2.269 2.262-2.307 2.302-2.308 2.302-2.347 6.905-6.922 6.789-6.923 2.302-2.308 2.301-2.346 2.263-2.308 2.302-2.308 2.263-2.346 9.207-9.387 2.263-2.347 6.905-7.04 2.263-2.346 2.302-2.347 2.302-2.386 2.263-2.347 2.262-2.307 2.263-2.347 2.302-2.347 2.302-2.385 2.263-2.386 4.603-4.772 2.263-2.346 2.302-2.386 2.263-2.347 2.262-2.386 6.906-7.157 4.603-4.85 4.682-4.85 2.302-2.464 2.263-2.386 2.301-2.385 4.526-4.772 2.302-2.425 4.525-4.772 2.302-2.424 2.263-2.425 2.302-2.386 2.263-2.425 2.302-2.425 6.905-7.392 2.34-2.464 2.264-2.425 2.301-2.425 2.263-2.425 6.906-7.392 2.301-2.425 2.302-2.503 4.526-4.85 2.302-2.464 4.525-4.928 2.302-2.425 2.302-2.503 2.263-2.464 2.301-2.464 2.302-2.503 2.302-2.464 2.302-2.503 2.263-2.464 2.301-2.503 2.302-2.464 2.263-2.504 6.906-7.509 2.262-2.503 2.302-2.464 2.263-2.503 2.263-2.464 2.263-2.503 4.603-5.007 2.302-2.542 2.263-2.542 2.302-2.503 2.262-2.503 2.302-2.504 2.263-2.503 9.207-10.169 4.604-5.162 2.34-2.543 2.341-2.581 6.789-7.627 2.302-2.503 2.262-2.542 2.302-2.581 2.263-2.543 2.263-2.503 2.302-2.581 2.262-2.542 2.302-2.582 2.263-2.542 2.34-2.62 2.303-2.582 2.302-2.62 2.34-2.62 2.263-2.582 2.302-2.542 2.263-2.582 2.302-2.581 2.301-2.62 2.263-2.621 2.302-2.581 2.302-2.62 2.302-2.582 4.525-5.163 2.302-2.581 2.263-2.62 2.302-2.621 2.262-2.582 6.906-7.861 2.263-2.62 2.301-2.62 2.302-2.66 2.302-2.621 2.263-2.62 2.302-2.62 2.301-2.66 2.263-2.62 4.604-5.32 4.525-5.241 2.302-2.62 2.263-2.621 4.604-5.32 2.263-2.659 2.301-2.698 2.302-2.62 4.526-5.32 4.603-5.32 2.302-2.698 2.263-2.66 2.302-2.698 2.34-2.738 2.302-2.699 2.341-2.737 2.302-2.7 2.263-2.698 2.302-2.66 2.262-2.659 2.302-2.699 2.263-2.66 2.263-2.698 2.302-2.699 2.262-2.66 2.263-2.698 2.302-2.738 2.263-2.698 2.302-2.7 4.603-5.475 2.341-2.738 2.302-2.776 2.302-2.7 2.263-2.737 2.301-2.699 2.263-2.737 4.604-5.476 2.302-2.777 2.301-2.738 2.263-2.738 2.302-2.698 4.526-5.476 2.301-2.738 2.302-2.777 2.263-2.737 2.302-2.738 2.263-2.777 4.603-5.554 2.302-2.738 2.302-2.777 2.263-2.777 4.603-5.553 2.263-2.777 2.302-2.777 2.302-2.816 2.301-2.777 2.263-2.738 6.789-8.33 2.301-2.778 6.906-8.448 2.263-2.777 2.302-2.777 2.262-2.816 2.263-2.776 2.302-2.816 2.302-2.856 4.603-5.632 2.302-2.855 2.341-2.894 2.302-2.855 2.34-2.855 2.263-2.816 2.302-2.816 4.526-5.632 2.302-2.856 6.788-8.448 4.604-5.71 2.262-2.816 2.263-2.855 2.341-2.894 2.302-2.895 2.34-2.894 2.302-2.894 2.263-2.855 2.302-2.855 2.263-2.895 2.302-2.855 2.302-2.894 2.301-2.855 2.302-2.933 2.302-2.856 2.263-2.894 2.263-2.855 2.301-2.894 2.263-2.855 2.302-2.895 2.263-2.894 2.302-2.894 2.262-2.894 2.302-2.895 2.302-2.933 2.302-2.894 2.302-2.934 2.262-2.894 2.302-2.894 2.302-2.933 2.263-2.934 2.302-2.894 4.603-5.867 2.263-2.933 2.263-2.894 2.302-2.934 2.262-2.894 2.263-2.933 4.604-5.867 2.302-2.973 2.301-2.933 4.526-5.867 2.302-2.933 2.263-2.933 9.207-11.89 2.302-3.012 2.34-3.011 4.604-6.024 2.302-2.933 2.263-2.972 2.302-2.973 2.262-2.933 4.526-5.945 2.302-2.973 2.263-2.972 2.301-2.973 2.263-3.011 2.302-2.973 2.263-3.011 2.302-3.012 2.34-3.05 2.302-3.012 2.302-3.05 2.302-3.012 2.263-3.012 2.301-3.012 2.263-2.972 2.341-3.05 2.302-3.012 2.263-3.051 2.302-3.05 2.301-3.012 6.789-9.035 2.302-3.012 2.301-3.05 2.263-3.051 2.302-3.012 4.604-6.1 2.262-3.09 6.906-9.153 2.263-3.05 2.301-3.09 2.302-3.051 2.263-3.05 4.604-6.18 2.262-3.012 2.263-3.05 2.302-3.09 2.263-3.051 4.603-6.18 2.263-3.09 4.604-6.18 2.263-3.05 2.262-3.09 4.604-6.18 2.263-3.128 2.302-3.09 2.301-3.129 2.341-3.168 2.302-3.129 2.34-3.168 2.303-3.168 2.302-3.09 2.262-3.09 2.263-3.128 2.302-3.09 2.263-3.09 4.525-6.258 2.302-3.09 2.263-3.129 2.302-3.129 2.263-3.128 2.301-3.13" transform="matrix(.10013 0 0 .09987 354.424 271.499)"/></g></svg>