<svg xmlns="http://www.w3.org/2000/svg" width="322pt" height="245pt" viewBox="0 0 322 245"><defs><clipPath id="a"><path d="M160 1.66h2v242.25h-2zm0 0"/></clipPath><clipPath id="b"><path d="M1 122h320v2H1zm0 0"/></clipPath><clipPath id="c"><path d="M1 1.66h1v242.25H1zm0 0"/></clipPath><clipPath id="d"><path d="M80 1.66h2v242.25h-2zm0 0"/></clipPath><clipPath id="e"><path d="M160 1.66h2v242.25h-2zm0 0"/></clipPath><clipPath id="f"><path d="M240 1.66h2v242.25h-2zm0 0"/></clipPath><clipPath id="g"><path d="M320 1.66h1v242.25h-1zm0 0"/></clipPath><clipPath id="h"><path d="M1 243h320v.91H1zm0 0"/></clipPath><clipPath id="i"><path d="M1 183h320v1H1zm0 0"/></clipPath><clipPath id="j"><path d="M1 122h320v2H1zm0 0"/></clipPath><clipPath id="k"><path d="M1 61h320v2H1zm0 0"/></clipPath><clipPath id="l"><path d="M1 1.66h320V2H1zm0 0"/></clipPath></defs><path style="stroke:none;fill-rule:nonzero;fill:#fff;fill-opacity:1" d="M1 243.91h320V1.66H1zm0 0"/><g clip-path="url(#a)"><path style="fill:none;stroke-width:5.70714;stroke-linecap:round;stroke-linejoin:miter;stroke:#bfbfbf;stroke-opacity:1;stroke-miterlimit:10" d="M1997.503-211.163V-2636.7" transform="matrix(.10013 0 0 .09987 -39 265)"/></g><g clip-path="url(#b)"><path style="fill:none;stroke-width:5.70714;stroke-linecap:round;stroke-linejoin:miter;stroke:#bfbfbf;stroke-opacity:1;stroke-miterlimit:10" d="M399.5-1423.931h3196.006" transform="matrix(.10013 0 0 .09987 -39 265)"/></g><g clip-path="url(#c)"><path style="fill:none;stroke-width:5.70714;stroke-linecap:round;stroke-linejoin:miter;stroke:#bfbfbf;stroke-opacity:1;stroke-dasharray:11.4143,17.1214;stroke-miterlimit:10" d="M399.5-211.163V-2636.7" transform="matrix(.10013 0 0 .09987 -39 265)"/></g><g clip-path="url(#d)"><path style="fill:none;stroke-width:5.70714;stroke-linecap:round;stroke-linejoin:miter;stroke:#bfbfbf;stroke-opacity:1;stroke-dasharray:11.4143,17.1214;stroke-miterlimit:10" d="M1198.502-211.163V-2636.7" transform="matrix(.10013 0 0 .09987 -39 265)"/></g><g clip-path="url(#e)"><path style="fill:none;stroke-width:5.70714;stroke-linecap:round;stroke-linejoin:miter;stroke:#bfbfbf;stroke-opacity:1;stroke-dasharray:11.4143,17.1214;stroke-miterlimit:10" d="M1997.503-211.163V-2636.7" transform="matrix(.10013 0 0 .09987 -39 265)"/></g><g clip-path="url(#f)"><path style="fill:none;stroke-width:5.70714;stroke-linecap:round;stroke-linejoin:miter;stroke:#bfbfbf;stroke-opacity:1;stroke-dasharray:11.4143,17.1214;stroke-miterlimit:10" d="M2796.504-211.163V-2636.7" transform="matrix(.10013 0 0 .09987 -39 265)"/></g><g clip-path="url(#g)"><path style="fill:none;stroke-width:5.70714;stroke-linecap:round;stroke-linejoin:miter;stroke:#bfbfbf;stroke-opacity:1;stroke-dasharray:11.4143,17.1214;stroke-miterlimit:10" d="M3595.506-211.163V-2636.7" transform="matrix(.10013 0 0 .09987 -39 265)"/></g><g clip-path="url(#h)"><path style="fill:none;stroke-width:5.70714;stroke-linecap:round;stroke-linejoin:miter;stroke:#bfbfbf;stroke-opacity:1;stroke-dasharray:11.4143,17.1214;stroke-miterlimit:10" d="M399.5-211.163h3196.006" transform="matrix(.10013 0 0 .09987 -39 265)"/></g><g clip-path="url(#i)"><path style="fill:none;stroke-width:5.70714;stroke-linecap:round;stroke-linejoin:miter;stroke:#bfbfbf;stroke-opacity:1;stroke-dasharray:11.4143,17.1214;stroke-miterlimit:10" d="M399.5-817.547h3196.006" transform="matrix(.10013 0 0 .09987 -39 265)"/></g><g clip-path="url(#j)"><path style="fill:none;stroke-width:5.70714;stroke-linecap:round;stroke-linejoin:miter;stroke:#bfbfbf;stroke-opacity:1;stroke-dasharray:11.4143,17.1214;stroke-miterlimit:10" d="M399.5-1423.931h3196.006" transform="matrix(.10013 0 0 .09987 -39 265)"/></g><g clip-path="url(#k)"><path style="fill:none;stroke-width:5.70714;stroke-linecap:round;stroke-linejoin:miter;stroke:#bfbfbf;stroke-opacity:1;stroke-dasharray:11.4143,17.1214;stroke-miterlimit:10" d="M399.5-2030.315h3196.006" transform="matrix(.10013 0 0 .09987 -39 265)"/></g><g clip-path="url(#l)"><path style="fill:none;stroke-width:5.70714;stroke-linecap:round;stroke-linejoin:miter;stroke:#bfbfbf;stroke-opacity:1;stroke-dasharray:11.4143,17.1214;stroke-miterlimit:10" d="M399.5-2636.7h3196.006" transform="matrix(.10013 0 0 .09987 -39 265)"/></g><path style="fill:none;stroke-width:11.4143;stroke-linecap:square;stroke-linejoin:miter;stroke:#000;stroke-opacity:1;stroke-miterlimit:10" d="M399.5-211.163h3196.006" transform="matrix(.10013 0 0 .09987 -39 265)"/><path style="fill:none;stroke-width:5.70714;stroke-linecap:butt;stroke-linejoin:miter;stroke:#000;stroke-opacity:1;stroke-miterlimit:10" d="M399.5-211.163v-45.643m0 45.643v-22.84m79.9 22.84v-22.84m79.9 22.84v-22.84m79.901 22.84v-22.84m79.9 22.84v-22.84m79.9 22.84v-22.84m79.9 22.84v-22.84m79.9 22.84v-22.84m79.901 22.84v-22.84m159.8 22.84v-45.643m0 45.643v-22.84m79.9 22.84v-22.84m79.9 22.84v-22.84m79.9 22.84v-22.84m79.9 22.84v-22.84m79.9 22.84v-22.84m79.901 22.84v-22.84m79.9 22.84v-22.84m79.9 22.84v-22.84m159.8 22.84v-45.643m0 45.643v-22.84m79.9 22.84v-22.84m79.9 22.84v-22.84m79.9 22.84v-22.84m79.901 22.84v-22.84m79.9 22.84v-22.84m79.9 22.84v-22.84m79.9 22.84v-22.84m79.9 22.84v-22.84m159.8 22.84v-45.643m0 45.643v-22.84m79.9 22.84v-22.84m79.901 22.84v-22.84m79.9 22.84v-22.84m79.9 22.84v-22.84m79.9 22.84v-22.84m79.9 22.84v-22.84m79.9 22.84v-22.84m79.9 22.84v-22.84m159.801 22.84v-45.643m0 45.643v-22.84" transform="matrix(.10013 0 0 .09987 -39 265)"/><path style="fill:none;stroke-width:11.4143;stroke-linecap:square;stroke-linejoin:miter;stroke:#000;stroke-opacity:1;stroke-miterlimit:10" d="M399.5-2636.7h3196.006" transform="matrix(.10013 0 0 .09987 -39 265)"/><path style="fill:none;stroke-width:5.70714;stroke-linecap:butt;stroke-linejoin:miter;stroke:#000;stroke-opacity:1;stroke-miterlimit:10" d="M399.5-2636.7v45.643m0-45.643v22.842m79.9-22.842v22.842m79.9-22.842v22.842m79.901-22.842v22.842m79.9-22.842v22.842m79.9-22.842v22.842m79.9-22.842v22.842m79.9-22.842v22.842m79.901-22.842v22.842m159.8-22.842v45.643m0-45.643v22.842m79.9-22.842v22.842m79.9-22.842v22.842m79.9-22.842v22.842m79.9-22.842v22.842m79.9-22.842v22.842m79.901-22.842v22.842m79.9-22.842v22.842m79.9-22.842v22.842m159.8-22.842v45.643m0-45.643v22.842m79.9-22.842v22.842m79.9-22.842v22.842m79.9-22.842v22.842m79.901-22.842v22.842m79.9-22.842v22.842m79.9-22.842v22.842m79.9-22.842v22.842m79.9-22.842v22.842m159.8-22.842v45.643m0-45.643v22.842m79.9-22.842v22.842m79.901-22.842v22.842m79.9-22.842v22.842m79.9-22.842v22.842m79.9-22.842v22.842m79.9-22.842v22.842m79.9-22.842v22.842m79.9-22.842v22.842m159.801-22.842v45.643m0-45.643v22.842" transform="matrix(.10013 0 0 .09987 -39 265)"/><path style="fill:none;stroke-width:11.4143;stroke-linecap:square;stroke-linejoin:miter;stroke:#000;stroke-opacity:1;stroke-miterlimit:10" d="M399.5-211.163V-2636.7" transform="matrix(.10013 0 0 .09987 -39 265)"/><path style="fill:none;stroke-width:5.70714;stroke-linecap:butt;stroke-linejoin:miter;stroke:#000;stroke-opacity:1;stroke-miterlimit:10" d="M399.5-211.163h45.647m-45.647 0h22.824M399.5-271.786h22.824M399.5-332.447h22.824M399.5-393.07h22.824M399.5-453.732h22.824M399.5-514.355h22.824M399.5-574.978h22.824M399.5-635.64h22.824M399.5-696.262h22.824M399.5-817.547h45.647m-45.647 0h22.824M399.5-878.17h22.824M399.5-938.832h22.824M399.5-999.454h22.824m-22.824-60.662h22.824M399.5-1120.74h22.824m-22.824-60.622h22.824m-22.824-60.662h22.824m-22.824-60.623h22.824M399.5-1423.931h45.647m-45.647 0h22.824m-22.824-60.623h22.824m-22.824-60.662h22.824m-22.824-60.623h22.824m-22.824-60.622h22.824m-22.824-60.662h22.824m-22.824-60.623h22.824m-22.824-60.662h22.824M399.5-1909.03h22.824M399.5-2030.315h45.647m-45.647 0h22.824m-22.824-60.623h22.824M399.5-2151.6h22.824m-22.824-60.623h22.824m-22.824-60.662h22.824m-22.824-60.622h22.824M399.5-2394.17h22.824m-22.824-60.622h22.824m-22.824-60.623h22.824M399.5-2636.7h45.647m-45.647 0h22.824" transform="matrix(.10013 0 0 .09987 -39 265)"/><path style="fill:none;stroke-width:11.4143;stroke-linecap:square;stroke-linejoin:miter;stroke:#000;stroke-opacity:1;stroke-miterlimit:10" d="M3595.506-211.163V-2636.7" transform="matrix(.10013 0 0 .09987 -39 265)"/><path style="fill:none;stroke-width:5.70714;stroke-linecap:butt;stroke-linejoin:miter;stroke:#000;stroke-opacity:1;stroke-miterlimit:10" d="M3595.506-211.163h-45.685m45.685 0h-22.823m22.823-60.623h-22.823m22.823-60.661h-22.823m22.823-60.623h-22.823m22.823-60.662h-22.823m22.823-60.623h-22.823m22.823-60.623h-22.823m22.823-60.662h-22.823m22.823-60.622h-22.823m22.823-121.285h-45.685m45.685 0h-22.823m22.823-60.623h-22.823m22.823-60.662h-22.823m22.823-60.622h-22.823m22.823-60.662h-22.823m22.823-60.624h-22.823m22.823-60.622h-22.823m22.823-60.662h-22.823m22.823-60.623h-22.823m22.823-121.284h-45.685m45.685 0h-22.823m22.823-60.623h-22.823m22.823-60.662h-22.823m22.823-60.623h-22.823m22.823-60.622h-22.823m22.823-60.662h-22.823m22.823-60.623h-22.823m22.823-60.662h-22.823m22.823-60.622h-22.823m22.823-121.285h-45.685m45.685 0h-22.823m22.823-60.623h-22.823m22.823-60.662h-22.823m22.823-60.623h-22.823m22.823-60.662h-22.823m22.823-60.622h-22.823m22.823-60.663h-22.823m22.823-60.622h-22.823m22.823-60.623h-22.823m22.823-121.285h-45.685m45.685 0h-22.823" transform="matrix(.10013 0 0 .09987 -39 265)"/><path style="fill:none;stroke-width:11.4143;stroke-linecap:round;stroke-linejoin:miter;stroke:#00f;stroke-opacity:1;stroke-miterlimit:10" d="M461.337-384.74 628.2-258.097m-37.61-7.079 37.61 7.08-16.933-34.34M491.378-605.25l106.78 126.643m-35.151-15.136 35.152 15.136-8.974-37.195M514.747-825.76l60.042 126.643m-30.119-23.585 30.12 23.585.819-38.251m-44.203-308.864 26.724 126.643m-23.837-29.998 23.837 29.998 9.676-37.038m-26.373-310.115 6.67 126.643m-18.882-33.323 18.883 33.323 15.293-35.122m-18.609-312.032v126.643m-17.128-34.261 17.128 34.261 17.088-34.261m-20.443-312.892 6.67 126.643m-18.882-33.284 18.883 33.284 15.293-35.083m-31.991-312.071 26.724 126.643m-23.837-29.959 23.837 29.96 9.676-37.04m-53.059-310.075 60.042 126.643m-30.119-23.623 30.12 23.623.819-38.29m-84.231-308.863 106.78 126.643m-35.151-15.176 35.152 15.176-8.974-37.235m-127.848-309.919L628.2-2463.123m-37.61-7.079 37.61 7.08-16.933-34.34M751.873-361.938l166.861 81.04m-38.272.43 38.272-.43-23.29-30.351M781.913-582.448l106.82 81.039m-37.648-7.041 37.648 7.041-16.932-34.34m-66.519-267.209 60.082 81.078m-34.137-17.327 34.137 17.327-6.633-37.704m-36.751-263.885 26.686 81.078m-26.959-27.182 26.959 27.182 5.54-37.899m-22.238-263.65 6.671 81.039m-19.858-32.737 19.858 32.737 14.28-35.553m-17.596-265.996v81.038m-17.127-34.222 17.127 34.222 17.127-34.222m-20.482-267.327 6.671 81.039m-19.858-32.698 19.858 32.698 14.28-35.513m-30.939-266.037 26.686 81.078m-26.959-27.182 26.959 27.182 5.54-37.899m-48.924-263.689 60.082 81.078m-34.137-17.326 34.137 17.326-6.633-37.703m-76.818-263.846 106.82 81.039m-37.648-7.08 37.648 7.08-16.932-34.34m-119.928-267.21 166.861 81.04m-38.272.429 38.272-.43-23.29-30.35M1042.447-344.22l166.862 45.604m-37.571 7.509 37.57-7.51-28.518-25.539M1072.488-564.73l106.78 45.603m-38.233 2.308 38.233-2.308-24.774-29.177m-58.676-236.898 60.08 45.565m-37.648-7.04 37.649 7.04-16.932-34.34m-26.451-231.735 26.685 45.565m-32.069-20.886 32.069 20.886-2.536-38.173m-14.123-227.903 6.671 45.565m-21.925-31.367 21.925 31.367 11.978-36.334m-15.333-229.741v45.604m-17.127-34.261 17.127 34.26 17.127-34.26m-20.443-231.854 6.671 45.604m-21.925-31.406 21.925 31.406 11.978-36.373m-28.675-229.702 26.685 45.565m-32.069-20.886 32.069 20.886-2.536-38.212m-40.847-227.863 60.08 45.564m-37.648-7.039 37.649 7.04-16.932-34.34m-66.479-231.736 106.78 45.604m-38.233 2.269 38.233-2.269-24.774-29.216m-112.047-236.898 166.862 45.604m-37.571 7.47 37.57-7.47-28.518-25.54m152.192 2197.634 166.862 20.26m-36.049 12.868 36.049-12.868-31.952-21.12m-104.869-219.65 106.78 20.26m-36.829 10.442 36.83-10.443-30.47-23.193m-52.981-217.577 60.081 20.26m-37.921 5.28 37.921-5.28-26.958-27.143M1403.05-993.04l26.725 20.26m-37.648-7.08 37.648 7.08-16.932-34.38m.234-206.39 6.672 20.26m-26.998-27.183 26.998 27.182 5.54-37.899m-8.895-202.871v20.26m-17.088-34.262 17.088 34.262 17.127-34.262m-20.444-206.509 6.672 20.26m-26.998-27.143 26.998 27.143 5.54-37.86m-22.239-202.91 26.725 20.26m-37.648-7.04 37.648 7.04-16.932-34.34m-26.49-206.391 60.081 20.26m-37.921 5.279 37.921-5.28-26.958-27.182m-56.453-213.588 106.78 20.26m-36.829 10.443 36.83-10.443-30.47-23.232m-106.352-217.538 166.862 20.26m-36.049 12.867 36.049-12.867-31.952-21.12M1623.517-323.96l166.862 5.084m-34.722 16.075 34.722-16.075-33.708-18.148m-103.113-207.408 106.78 5.046m-34.995 15.488 34.996-15.488-33.396-18.735m-50.016-206.821 60.081 5.045m-35.58 14.197 35.58-14.197-32.693-19.947m-10.69-205.609 26.686 5.046m-36.829 10.443 36.829-10.443-30.47-23.193m13.772-202.363 6.671 5.045m-37.609-7.04 37.609 7.04-16.932-34.34m13.616-191.215v5.084m-17.128-34.261 17.128 34.261 17.127-34.262m-20.482-191.333 6.671 5.085m-37.609-7.08 37.609 7.08-16.932-34.34m.273-191.216 26.686 5.045m-36.829 10.443 36.829-10.443-30.47-23.193m-12.914-202.363 60.081 5.046m-35.58 14.197 35.58-14.197-32.693-19.947m-50.757-205.609 106.78 5.045m-34.995 15.488 34.996-15.488-33.396-18.695m-103.426-206.861 166.862 5.085m-34.722 16.075 34.722-16.075-33.708-18.187m157.382 2220.671h166.861m-34.214 17.131 34.214-17.131-34.215-17.13m-102.606-203.38h106.82m-34.254 17.13 34.254-17.13-34.254-17.131m-49.196-203.38h60.08m-34.253 17.131 34.254-17.13-34.254-17.093m-9.13-203.379h26.686m-34.254 17.091 34.254-17.091-34.254-17.131m17.556-203.379h6.71m-34.254 17.091 34.254-17.092-34.254-17.13m27.544-423.891h6.71m-34.254 17.132 34.254-17.132-34.254-17.13m17.556-203.38h26.686m-34.254 17.131 34.254-17.131-34.254-17.092m-9.129-203.379h60.08m-34.253 17.091 34.254-17.091-34.254-17.131m-49.197-203.38h106.82m-34.254 17.092 34.254-17.092-34.254-17.13m-102.606-203.38h166.861m-34.214 17.13 34.214-17.13-34.215-17.131M2204.627-323.96l166.862 5.084m-34.761 16.075 34.76-16.075-33.707-18.148m-103.113-207.408 106.78 5.046m-35.034 15.488 35.034-15.488-33.396-18.735m-50.054-206.821 60.081 5.045m-35.542 14.197 35.542-14.197-32.694-19.947m-10.689-205.609 26.685 5.046m-36.829 10.443 36.83-10.443-30.432-23.193m13.772-202.363 6.672 5.045m-37.649-7.04 37.649 7.04-16.932-34.34m13.576-191.215v5.084m-17.127-34.261 17.127 34.261 17.127-34.262m-20.443-191.333 6.672 5.085m-37.649-7.08 37.649 7.08-16.932-34.34m.234-191.216 26.685 5.045m-36.829 10.443 36.83-10.443-30.432-23.193m-12.952-202.363 60.081 5.046m-35.542 14.197 35.542-14.197-32.694-19.947m-50.717-205.609 106.78 5.045m-35.034 15.488 35.034-15.488-33.396-18.695m-103.425-206.861 166.862 5.085m-34.761 16.075 34.76-16.075-33.707-18.187m157.381 2210.541 166.862 20.26m-36.049 12.868 36.049-12.868-31.952-21.12m-104.869-219.65 106.78 20.26m-36.829 10.442 36.83-10.443-30.431-23.193m-52.981-217.577 60.042 20.26m-37.921 5.28 37.921-5.28-26.958-27.143m-16.425-213.588 26.724 20.26m-37.648-7.08 37.648 7.08-16.932-34.38m.234-206.39 6.672 20.26m-26.998-27.183 26.998 27.182 5.54-37.899m-8.895-202.871v20.26m-17.088-34.262 17.088 34.262 17.127-34.262m-20.444-206.509 6.672 20.26m-26.998-27.143 26.998 27.143 5.54-37.86m-22.238-202.91 26.724 20.26m-37.648-7.04 37.648 7.04-16.932-34.34m-26.451-206.391 60.042 20.26m-37.921 5.279 37.921-5.28-26.958-27.182m-56.453-213.588 106.78 20.26m-36.829 10.443 36.83-10.443-30.431-23.232m-106.391-217.538 166.862 20.26m-36.049 12.867 36.049-12.867-31.952-21.12M2785.698-344.22l166.861 45.604m-37.531 7.509 37.531-7.51-28.519-25.539M2815.738-564.73l106.78 45.603m-38.194 2.308 38.195-2.308-24.774-29.177m-58.638-236.898 60.082 45.565m-37.649-7.04 37.649 7.04-16.932-34.34m-26.452-231.735 26.686 45.565m-32.109-20.886 32.109 20.886-2.536-38.173m-14.162-227.903 6.671 45.565m-21.887-31.367 21.887 31.367 11.977-36.334m-15.293-229.741v45.604m-17.128-34.261 17.128 34.26 17.127-34.26m-20.482-231.854 6.671 45.604m-21.887-31.406 21.887 31.406 11.977-36.373m-28.636-229.702 26.686 45.565m-32.109-20.886 32.109 20.886-2.536-38.212m-40.848-227.863 60.082 45.564m-37.649-7.039 37.649 7.04-16.932-34.34m-66.519-231.736 106.78 45.604m-38.194 2.269 38.195-2.269-24.774-29.216m-112.047-236.898 166.861 45.604m-37.531 7.47 37.531-7.47-28.519-25.54m152.193 2167.244 166.9 81.04m-38.311.43 38.312-.43-23.33-30.351m-113.531-271.199 106.82 81.039m-37.648-7.041 37.648 7.041-16.932-34.34m-66.518-267.209 60.08 81.078m-34.136-17.327 34.137 17.327-6.633-37.704m-36.751-263.885 26.686 81.078m-26.959-27.182 26.959 27.182 5.54-37.899m-22.199-263.65 6.671 81.039m-19.897-32.737 19.897 32.737 14.24-35.553m-17.595-265.996v81.038m-17.127-34.222 17.127 34.222 17.127-34.222m-20.443-267.327 6.671 81.039m-19.897-32.698 19.897 32.698 14.24-35.513m-30.938-266.037 26.686 81.078m-26.959-27.182 26.959 27.182 5.54-37.899m-48.923-263.689 60.08 81.078m-34.136-17.326 34.137 17.326-6.633-37.703m-76.818-263.846 106.82 81.039m-37.648-7.08 37.648 7.08-16.932-34.34m-119.928-267.21 166.9 81.04m-38.311.429 38.312-.43-23.33-30.35M3366.807-384.74l166.862 126.643m-37.649-7.079 37.649 7.08-16.932-34.34M3396.848-605.25l106.78 126.643m-35.151-15.136 35.151 15.136-8.973-37.195m-74.477-309.958 60.081 126.643m-30.158-23.585 30.158 23.585.82-38.251m-44.203-308.864 26.685 126.643m-23.798-29.998 23.798 29.998 9.715-37.038m-26.374-310.115 6.672 126.643m-18.922-33.323 18.922 33.323 15.293-35.122m-18.649-312.032v126.643m-17.127-34.261 17.127 34.261 17.128-34.261m-20.444-312.892 6.672 126.643m-18.922-33.284 18.922 33.284 15.293-35.083m-31.991-312.071 26.685 126.643m-23.798-29.959 23.798 29.96 9.715-37.04m-53.098-310.075 60.081 126.643m-30.158-23.623 30.158 23.623.82-38.29m-84.231-308.863 106.78 126.643m-35.151-15.176 35.151 15.176-8.973-37.235m-127.848-309.919 166.862 126.643m-37.649-7.079 37.649 7.08-16.932-34.34" transform="matrix(.10013 0 0 .09987 -39 265)"/></svg>