<svg xmlns="http://www.w3.org/2000/svg" width="322pt" height="245pt" viewBox="0 0 322 245"><defs><clipPath id="a"><path d="M160 1.66h2v242.25h-2zm0 0"/></clipPath><clipPath id="b"><path d="M1 122h320v2H1zm0 0"/></clipPath><clipPath id="c"><path d="M1 1.66h1v242.25H1zm0 0"/></clipPath><clipPath id="d"><path d="M80 1.66h2v242.25h-2zm0 0"/></clipPath><clipPath id="e"><path d="M160 1.66h2v242.25h-2zm0 0"/></clipPath><clipPath id="f"><path d="M240 1.66h2v242.25h-2zm0 0"/></clipPath><clipPath id="g"><path d="M320 1.66h1v242.25h-1zm0 0"/></clipPath><clipPath id="h"><path d="M1 243h320v.91H1zm0 0"/></clipPath><clipPath id="i"><path d="M1 183h320v1H1zm0 0"/></clipPath><clipPath id="j"><path d="M1 122h320v2H1zm0 0"/></clipPath><clipPath id="k"><path d="M1 61h320v2H1zm0 0"/></clipPath><clipPath id="l"><path d="M1 1.66h320V2H1zm0 0"/></clipPath></defs><path style="stroke:none;fill-rule:nonzero;fill:#fff;fill-opacity:1" d="M1 243.91h320V1.66H1zm0 0"/><g clip-path="url(#a)"><path style="fill:none;stroke-width:5.70714;stroke-linecap:round;stroke-linejoin:miter;stroke:#bfbfbf;stroke-opacity:1;stroke-miterlimit:10" d="M1997.503-211.163V-2636.7" transform="matrix(.10013 0 0 .09987 -39 265)"/></g><g clip-path="url(#b)"><path style="fill:none;stroke-width:5.70714;stroke-linecap:round;stroke-linejoin:miter;stroke:#bfbfbf;stroke-opacity:1;stroke-miterlimit:10" d="M399.5-1423.931h3196.006" transform="matrix(.10013 0 0 .09987 -39 265)"/></g><g clip-path="url(#c)"><path style="fill:none;stroke-width:5.70714;stroke-linecap:round;stroke-linejoin:miter;stroke:#bfbfbf;stroke-opacity:1;stroke-dasharray:11.4143,17.1214;stroke-miterlimit:10" d="M399.5-211.163V-2636.7" transform="matrix(.10013 0 0 .09987 -39 265)"/></g><g clip-path="url(#d)"><path style="fill:none;stroke-width:5.70714;stroke-linecap:round;stroke-linejoin:miter;stroke:#bfbfbf;stroke-opacity:1;stroke-dasharray:11.4143,17.1214;stroke-miterlimit:10" d="M1198.502-211.163V-2636.7" transform="matrix(.10013 0 0 .09987 -39 265)"/></g><g clip-path="url(#e)"><path style="fill:none;stroke-width:5.70714;stroke-linecap:round;stroke-linejoin:miter;stroke:#bfbfbf;stroke-opacity:1;stroke-dasharray:11.4143,17.1214;stroke-miterlimit:10" d="M1997.503-211.163V-2636.7" transform="matrix(.10013 0 0 .09987 -39 265)"/></g><g clip-path="url(#f)"><path style="fill:none;stroke-width:5.70714;stroke-linecap:round;stroke-linejoin:miter;stroke:#bfbfbf;stroke-opacity:1;stroke-dasharray:11.4143,17.1214;stroke-miterlimit:10" d="M2796.504-211.163V-2636.7" transform="matrix(.10013 0 0 .09987 -39 265)"/></g><g clip-path="url(#g)"><path style="fill:none;stroke-width:5.70714;stroke-linecap:round;stroke-linejoin:miter;stroke:#bfbfbf;stroke-opacity:1;stroke-dasharray:11.4143,17.1214;stroke-miterlimit:10" d="M3595.506-211.163V-2636.7" transform="matrix(.10013 0 0 .09987 -39 265)"/></g><g clip-path="url(#h)"><path style="fill:none;stroke-width:5.70714;stroke-linecap:round;stroke-linejoin:miter;stroke:#bfbfbf;stroke-opacity:1;stroke-dasharray:11.4143,17.1214;stroke-miterlimit:10" d="M399.5-211.163h3196.006" transform="matrix(.10013 0 0 .09987 -39 265)"/></g><g clip-path="url(#i)"><path style="fill:none;stroke-width:5.70714;stroke-linecap:round;stroke-linejoin:miter;stroke:#bfbfbf;stroke-opacity:1;stroke-dasharray:11.4143,17.1214;stroke-miterlimit:10" d="M399.5-817.547h3196.006" transform="matrix(.10013 0 0 .09987 -39 265)"/></g><g clip-path="url(#j)"><path style="fill:none;stroke-width:5.70714;stroke-linecap:round;stroke-linejoin:miter;stroke:#bfbfbf;stroke-opacity:1;stroke-dasharray:11.4143,17.1214;stroke-miterlimit:10" d="M399.5-1423.931h3196.006" transform="matrix(.10013 0 0 .09987 -39 265)"/></g><g clip-path="url(#k)"><path style="fill:none;stroke-width:5.70714;stroke-linecap:round;stroke-linejoin:miter;stroke:#bfbfbf;stroke-opacity:1;stroke-dasharray:11.4143,17.1214;stroke-miterlimit:10" d="M399.5-2030.315h3196.006" transform="matrix(.10013 0 0 .09987 -39 265)"/></g><g clip-path="url(#l)"><path style="fill:none;stroke-width:5.70714;stroke-linecap:round;stroke-linejoin:miter;stroke:#bfbfbf;stroke-opacity:1;stroke-dasharray:11.4143,17.1214;stroke-miterlimit:10" d="M399.5-2636.7h3196.006" transform="matrix(.10013 0 0 .09987 -39 265)"/></g><path style="fill:none;stroke-width:11.4143;stroke-linecap:square;stroke-linejoin:miter;stroke:#000;stroke-opacity:1;stroke-miterlimit:10" d="M399.5-211.163h3196.006" transform="matrix(.10013 0 0 .09987 -39 265)"/><path style="fill:none;stroke-width:5.70714;stroke-linecap:butt;stroke-linejoin:miter;stroke:#000;stroke-opacity:1;stroke-miterlimit:10" d="M399.5-211.163v-45.643m0 45.643v-22.84m79.9 22.84v-22.84m79.9 22.84v-22.84m79.901 22.84v-22.84m79.9 22.84v-22.84m79.9 22.84v-22.84m79.9 22.84v-22.84m79.9 22.84v-22.84m79.901 22.84v-22.84m159.8 22.84v-45.643m0 45.643v-22.84m79.9 22.84v-22.84m79.9 22.84v-22.84m79.9 22.84v-22.84m79.9 22.84v-22.84m79.9 22.84v-22.84m79.901 22.84v-22.84m79.9 22.84v-22.84m79.9 22.84v-22.84m159.8 22.84v-45.643m0 45.643v-22.84m79.9 22.84v-22.84m79.9 22.84v-22.84m79.9 22.84v-22.84m79.901 22.84v-22.84m79.9 22.84v-22.84m79.9 22.84v-22.84m79.9 22.84v-22.84m79.9 22.84v-22.84m159.8 22.84v-45.643m0 45.643v-22.84m79.9 22.84v-22.84m79.901 22.84v-22.84m79.9 22.84v-22.84m79.9 22.84v-22.84m79.9 22.84v-22.84m79.9 22.84v-22.84m79.9 22.84v-22.84m79.9 22.84v-22.84m159.801 22.84v-45.643m0 45.643v-22.84" transform="matrix(.10013 0 0 .09987 -39 265)"/><path style="fill:none;stroke-width:11.4143;stroke-linecap:square;stroke-linejoin:miter;stroke:#000;stroke-opacity:1;stroke-miterlimit:10" d="M399.5-2636.7h3196.006" transform="matrix(.10013 0 0 .09987 -39 265)"/><path style="fill:none;stroke-width:5.70714;stroke-linecap:butt;stroke-linejoin:miter;stroke:#000;stroke-opacity:1;stroke-miterlimit:10" d="M399.5-2636.7v45.643m0-45.643v22.842m79.9-22.842v22.842m79.9-22.842v22.842m79.901-22.842v22.842m79.9-22.842v22.842m79.9-22.842v22.842m79.9-22.842v22.842m79.9-22.842v22.842m79.901-22.842v22.842m159.8-22.842v45.643m0-45.643v22.842m79.9-22.842v22.842m79.9-22.842v22.842m79.9-22.842v22.842m79.9-22.842v22.842m79.9-22.842v22.842m79.901-22.842v22.842m79.9-22.842v22.842m79.9-22.842v22.842m159.8-22.842v45.643m0-45.643v22.842m79.9-22.842v22.842m79.9-22.842v22.842m79.9-22.842v22.842m79.901-22.842v22.842m79.9-22.842v22.842m79.9-22.842v22.842m79.9-22.842v22.842m79.9-22.842v22.842m159.8-22.842v45.643m0-45.643v22.842m79.9-22.842v22.842m79.901-22.842v22.842m79.9-22.842v22.842m79.9-22.842v22.842m79.9-22.842v22.842m79.9-22.842v22.842m79.9-22.842v22.842m79.9-22.842v22.842m159.801-22.842v45.643m0-45.643v22.842" transform="matrix(.10013 0 0 .09987 -39 265)"/><path style="fill:none;stroke-width:11.4143;stroke-linecap:square;stroke-linejoin:miter;stroke:#000;stroke-opacity:1;stroke-miterlimit:10" d="M399.5-211.163V-2636.7" transform="matrix(.10013 0 0 .09987 -39 265)"/><path style="fill:none;stroke-width:5.70714;stroke-linecap:butt;stroke-linejoin:miter;stroke:#000;stroke-opacity:1;stroke-miterlimit:10" d="M399.5-211.163h45.647m-45.647 0h22.824M399.5-271.786h22.824M399.5-332.447h22.824M399.5-393.07h22.824M399.5-453.732h22.824M399.5-514.355h22.824M399.5-574.978h22.824M399.5-635.64h22.824M399.5-696.262h22.824M399.5-817.547h45.647m-45.647 0h22.824M399.5-878.17h22.824M399.5-938.832h22.824M399.5-999.454h22.824m-22.824-60.662h22.824M399.5-1120.74h22.824m-22.824-60.622h22.824m-22.824-60.662h22.824m-22.824-60.623h22.824M399.5-1423.931h45.647m-45.647 0h22.824m-22.824-60.623h22.824m-22.824-60.662h22.824m-22.824-60.623h22.824m-22.824-60.622h22.824m-22.824-60.662h22.824m-22.824-60.623h22.824m-22.824-60.662h22.824M399.5-1909.03h22.824M399.5-2030.315h45.647m-45.647 0h22.824m-22.824-60.623h22.824M399.5-2151.6h22.824m-22.824-60.623h22.824m-22.824-60.662h22.824m-22.824-60.622h22.824M399.5-2394.17h22.824m-22.824-60.622h22.824m-22.824-60.623h22.824M399.5-2636.7h45.647m-45.647 0h22.824" transform="matrix(.10013 0 0 .09987 -39 265)"/><path style="fill:none;stroke-width:11.4143;stroke-linecap:square;stroke-linejoin:miter;stroke:#000;stroke-opacity:1;stroke-miterlimit:10" d="M3595.506-211.163V-2636.7" transform="matrix(.10013 0 0 .09987 -39 265)"/><path style="fill:none;stroke-width:5.70714;stroke-linecap:butt;stroke-linejoin:miter;stroke:#000;stroke-opacity:1;stroke-miterlimit:10" d="M3595.506-211.163h-45.685m45.685 0h-22.823m22.823-60.623h-22.823m22.823-60.661h-22.823m22.823-60.623h-22.823m22.823-60.662h-22.823m22.823-60.623h-22.823m22.823-60.623h-22.823m22.823-60.662h-22.823m22.823-60.622h-22.823m22.823-121.285h-45.685m45.685 0h-22.823m22.823-60.623h-22.823m22.823-60.662h-22.823m22.823-60.622h-22.823m22.823-60.662h-22.823m22.823-60.624h-22.823m22.823-60.622h-22.823m22.823-60.662h-22.823m22.823-60.623h-22.823m22.823-121.284h-45.685m45.685 0h-22.823m22.823-60.623h-22.823m22.823-60.662h-22.823m22.823-60.623h-22.823m22.823-60.622h-22.823m22.823-60.662h-22.823m22.823-60.623h-22.823m22.823-60.662h-22.823m22.823-60.622h-22.823m22.823-121.285h-45.685m45.685 0h-22.823m22.823-60.623h-22.823m22.823-60.662h-22.823m22.823-60.623h-22.823m22.823-60.662h-22.823m22.823-60.622h-22.823m22.823-60.663h-22.823m22.823-60.622h-22.823m22.823-60.623h-22.823m22.823-121.285h-45.685m45.685 0h-22.823" transform="matrix(.10013 0 0 .09987 -39 265)"/><path style="fill:none;stroke-width:11.4143;stroke-linecap:round;stroke-linejoin:miter;stroke:#00f;stroke-opacity:1;stroke-miterlimit:10" d="M461.337-258.097 628.2-384.74m-16.933 34.34 16.932-34.34-37.61 7.08M461.337-501.409 628.2-582.448m-23.331 30.351 23.33-30.351-38.272-.43m-128.59-156.759L628.2-785.202m-28.52 25.54 28.52-25.54-37.532-7.51M461.337-972.78 628.2-993.04m-31.914 21.12 31.913-21.12-36.049-12.868m-130.813-195.01 166.862-5.045m-33.708 18.148 33.708-18.148-34.761-16.075m-132.101-201.893H628.2m-34.255 17.131 34.254-17.131-34.254-17.131M461.337-1641.9l166.862-5.084m-33.708 18.187 33.708-18.187-34.761-16.075m-132.101-191.763 166.862-20.26m-31.913 21.159 31.913-21.159-36.049-12.868m-130.813-174.71 166.862-45.565m-28.519 25.539 28.52-25.54-37.532-7.509m-129.331-149.679 166.862-81.04m-23.33 30.351 23.33-30.35-38.272-.47m-128.59-116.2L628.2-2589.766m-16.933 34.34 16.932-34.34-37.61 7.04M781.913-258.097l106.82-126.643m-9.013 37.235 9.013-37.235-35.19 15.137m-71.63-131.806 106.82-81.039m-16.933 34.34 16.933-34.34-37.648 7.08m-69.172-164.269 106.82-45.565m-24.773 29.177 24.773-29.177-38.234-2.307M781.913-972.78l106.82-20.26m-30.47 23.193 30.47-23.193-36.868-10.443m-69.952-197.435 106.82-5.045m-33.396 18.734 33.396-18.734-35.034-15.488m-71.786-202.48h106.82m-34.254 17.131 34.254-17.131-34.254-17.131M781.913-1641.9l106.82-5.084m-33.396 18.734 33.396-18.734-35.034-15.449m-71.786-192.389 106.82-20.26m-30.47 23.193 30.47-23.193-36.868-10.443m-69.952-177.135 106.82-45.565m-24.773 29.177 24.773-29.177-38.234-2.308m-68.586-154.881 106.82-81.04m-16.933 34.34 16.933-34.34-37.648 7.04m-69.172-123.709 106.82-126.643m-9.013 37.196 9.013-37.196-35.19 15.136m242.275 2316.533 60.08-126.643m.82 38.29-.82-38.29-30.157 23.585m-29.923-140.254 60.08-81.039m-6.631 37.703 6.632-37.703-34.137 17.326m-25.944-174.515 60.08-45.565m-16.931 34.34 16.932-34.34-37.648 7.04m-22.433-194.618 60.08-20.26m-26.958 27.143 26.959-27.143-37.921-5.28m-22.16-202.598 60.08-5.045m-32.693 19.947 32.694-19.947-35.542-14.197m-24.539-203.771h60.08m-34.253 17.131 34.254-17.131-34.254-17.131m-25.827-200.838 60.08-5.084m-32.693 19.947 32.694-19.947-35.542-14.158m-24.539-193.68 60.08-20.26m-26.958 27.182 26.959-27.182-37.921-5.28m-22.16-182.298 60.08-45.565m-16.931 34.339 16.932-34.34-37.648 7.04m-22.433-164.228 60.08-81.04m-6.631 37.665 6.632-37.664-34.137 17.287m-25.944-133.957 60.08-126.643m.82 38.29-.82-38.29-30.157 23.584M1403.05-258.097l26.725-126.643m9.675 37.04-9.675-37.04-23.837 29.96m-2.888-146.629 26.725-81.039m5.54 37.899-5.54-37.899-26.997 27.182m.272-184.371 26.725-45.565m-2.535 38.173 2.535-38.173-32.108 20.886m5.383-208.464 26.725-20.26m-16.932 34.34 16.932-34.34-37.648 7.04m10.923-214.918 26.725-5.045m-30.469 23.193 30.47-23.193-36.869-10.443m10.143-207.525h26.725m-34.254 17.131 34.254-17.131-34.254-17.131m7.529-200.838 26.725-5.084m-30.469 23.232 30.47-23.232-36.869-10.443m10.143-197.395 26.725-20.26m-16.932 34.34 16.932-34.34-37.648 7.08m10.923-194.658 26.725-45.565m-2.535 38.172 2.535-38.172-32.108 20.885m5.383-178.074 26.725-81.04m5.54 37.861-5.54-37.86-26.997 27.143m.272-143.813 26.725-126.643m9.675 37.039-9.675-37.039-23.837 29.96m297.675 2301.709 6.671-126.643m15.293 35.083-15.293-35.083-18.883 33.284m12.212-149.953 6.671-81.039m14.24 35.552-14.24-35.552-19.858 32.736m13.187-189.925 6.671-45.565m11.977 36.335-11.977-36.335-21.887 31.368m15.216-218.946 6.671-20.26m5.54 37.86-5.54-37.86-26.958 27.143m20.287-235.021 6.671-5.045m-16.932 34.34 16.932-34.34-37.61 7.08m30.939-225.048h6.671m-34.215 17.131 34.215-17.131-34.215-17.131m27.544-200.838 6.671-5.084m-16.932 34.34 16.932-34.34-37.61 7.08m30.939-214.918 6.671-20.26m5.54 37.899-5.54-37.899-26.958 27.182m20.287-214.76 6.671-45.565m11.977 36.335-11.977-36.335-21.887 31.406m15.216-188.595 6.671-81.04m14.24 35.514-14.24-35.513-19.858 32.697m13.187-149.367 6.671-126.643m15.293 35.083-15.293-35.083-18.883 33.284m306.102 2298.385V-384.74m17.127 34.262-17.127-34.262-17.127 34.262m17.127-150.931v-81.039m17.127 34.262-17.127-34.262-17.127 34.262m17.127-191.451v-45.565m17.127 34.222-17.127-34.222-17.127 34.223m17.127-221.801v-20.26m17.127 34.222-17.127-34.222-17.127 34.222m17.127-242.1v-5.045m17.127 34.262-17.127-34.262-17.127 34.262m17.127-470.199v-5.084m17.127 34.262-17.127-34.262-17.127 34.262m17.127-242.1v-20.26m17.127 34.262-17.127-34.262-17.127 34.262m17.127-221.84v-45.565m17.127 34.222-17.127-34.222-17.127 34.222m17.127-191.411v-81.04m17.127 34.224-17.127-34.223-17.127 34.222m17.127-150.892v-126.643m17.127 34.223-17.127-34.223-17.127 34.223m304.346 2297.446 6.672-126.643m15.293 35.083-15.293-35.083-18.922 33.284m12.25-149.953 6.672-81.039m14.24 35.552-14.24-35.552-19.897 32.736m13.225-189.925 6.672-45.565m11.976 36.335-11.976-36.335-21.926 31.368m15.254-218.946 6.672-20.26m5.54 37.86-5.54-37.86-26.998 27.143m20.326-235.021 6.672-5.045m-16.932 34.34 16.932-34.34-37.649 7.08m30.977-225.048h6.672m-34.254 17.131 34.254-17.131-34.254-17.131m27.582-200.838 6.672-5.084m-16.932 34.34 16.932-34.34-37.649 7.08m30.977-214.918 6.672-20.26m5.54 37.899-5.54-37.899-26.998 27.182m20.326-214.76 6.672-45.565m11.976 36.335-11.976-36.335-21.926 31.406m15.254-188.595 6.672-81.04m14.24 35.514-14.24-35.513-19.897 32.697m13.225-149.367 6.672-126.643m15.293 35.083-15.293-35.083-18.922 33.284m292.759 2298.385 26.724-126.643m9.675 37.04-9.675-37.04-23.837 29.96m-2.887-146.629 26.724-81.039m5.54 37.899-5.54-37.899-26.997 27.182m.273-184.371 26.724-45.565m-2.535 38.173 2.535-38.173-32.108 20.886m5.384-208.464 26.724-20.26m-16.932 34.34 16.932-34.34-37.648 7.04m10.924-214.918 26.724-5.045m-30.469 23.193 30.47-23.193-36.83-10.443m10.105-207.525h26.724m-34.254 17.131 34.254-17.131-34.254-17.131m7.53-200.838 26.724-5.084m-30.469 23.232 30.47-23.232-36.83-10.443m10.105-197.395 26.724-20.26m-16.932 34.34 16.932-34.34-37.648 7.08m10.924-194.658 26.724-45.565m-2.535 38.172 2.535-38.172-32.108 20.885m5.384-178.074 26.724-81.04m5.54 37.861-5.54-37.86-26.997 27.143m.273-143.813 26.724-126.643m9.675 37.039-9.675-37.039-23.837 29.96m270.989 2301.709 60.082-126.643m.78 38.29-.78-38.29-30.158 23.585m-29.924-140.254 60.082-81.039m-6.633 37.703 6.633-37.703-34.177 17.326m-25.905-174.515 60.082-45.565m-16.932 34.34 16.932-34.34-37.649 7.04m-22.433-194.618 60.082-20.26m-26.998 27.143 26.998-27.143-37.922-5.28m-22.16-202.598 60.082-5.045m-32.694 19.947 32.694-19.947-35.581-14.197m-24.501-203.771h60.082m-34.255 17.131 34.255-17.131-34.255-17.131m-25.827-200.838 60.082-5.084m-32.694 19.947 32.694-19.947-35.581-14.158m-24.501-193.68 60.082-20.26m-26.998 27.182 26.998-27.182-37.922-5.28m-22.16-182.298 60.082-45.565m-16.932 34.339 16.932-34.34-37.649 7.04m-22.433-164.228 60.082-81.04m-6.633 37.665 6.633-37.664-34.177 17.287m-25.905-133.957 60.082-126.643m.78 38.29-.78-38.29-30.158 23.584m237.242 2308.085 106.82-126.643m-9.013 37.235 9.013-37.235-35.19 15.137m-71.63-131.806 106.82-81.039m-16.932 34.34 16.932-34.34-37.648 7.08m-69.172-164.269 106.82-45.565m-24.773 29.177 24.773-29.177-38.233-2.307m-68.587-185.271 106.82-20.26m-30.47 23.193 30.47-23.193-36.868-10.443m-69.952-197.435 106.82-5.045m-33.396 18.734 33.396-18.734-35.034-15.488m-71.786-202.48h106.82m-34.254 17.131 34.254-17.131-34.254-17.131m-72.566-200.838 106.82-5.084m-33.396 18.734 33.396-18.734-35.034-15.449m-71.786-192.389 106.82-20.26m-30.47 23.193 30.47-23.193-36.868-10.443m-69.952-177.135 106.82-45.565m-24.773 29.177 24.773-29.177-38.233-2.308m-68.587-154.881 106.82-81.04m-16.932 34.34 16.932-34.34-37.648 7.04m-69.172-123.709 106.82-126.643m-9.013 37.196 9.013-37.196-35.19 15.136m188.904 2316.533L3533.67-384.74m-16.933 34.34 16.932-34.34-37.648 7.08m-129.214-123.749 166.862-81.039m-23.33 30.351 23.33-30.351-38.273-.43m-128.589-156.759 166.862-45.565m-28.519 25.54 28.519-25.54-37.531-7.51M3366.807-972.78l166.862-20.26m-31.952 21.12 31.952-21.12-36.049-12.868m-130.813-195.01 166.862-5.045m-33.708 18.148 33.708-18.148-34.761-16.075m-132.101-201.893h166.862m-34.254 17.131 34.254-17.131-34.254-17.131M3366.807-1641.9l166.862-5.084m-33.708 18.187 33.708-18.187-34.761-16.075m-132.101-191.763 166.862-20.26m-31.952 21.159 31.952-21.159-36.049-12.868m-130.813-174.71 166.862-45.565m-28.519 25.539 28.519-25.54-37.531-7.509m-129.331-149.679 166.862-81.04m-23.33 30.351 23.33-30.35-38.273-.47m-128.589-116.2 166.862-126.643m-16.932 34.34 16.932-34.34-37.648 7.04" transform="matrix(.10013 0 0 .09987 -39 265)"/></svg>