<svg xmlns="http://www.w3.org/2000/svg" width="322pt" height="245pt" viewBox="0 0 322 245"><defs><clipPath id="a"><path d="M160 1.66h2v242.25h-2zm0 0"/></clipPath><clipPath id="b"><path d="M1 122h320v2H1zm0 0"/></clipPath><clipPath id="c"><path d="M1 1.66h1v242.25H1zm0 0"/></clipPath><clipPath id="d"><path d="M80 1.66h2v242.25h-2zm0 0"/></clipPath><clipPath id="e"><path d="M160 1.66h2v242.25h-2zm0 0"/></clipPath><clipPath id="f"><path d="M240 1.66h2v242.25h-2zm0 0"/></clipPath><clipPath id="g"><path d="M320 1.66h1v242.25h-1zm0 0"/></clipPath><clipPath id="h"><path d="M1 243h320v.91H1zm0 0"/></clipPath><clipPath id="i"><path d="M1 183h320v1H1zm0 0"/></clipPath><clipPath id="j"><path d="M1 122h320v2H1zm0 0"/></clipPath><clipPath id="k"><path d="M1 61h320v2H1zm0 0"/></clipPath><clipPath id="l"><path d="M1 1.66h320V2H1zm0 0"/></clipPath></defs><path style="stroke:none;fill-rule:nonzero;fill:#fff;fill-opacity:1" d="M1 243.91h320V1.66H1zm0 0"/><g clip-path="url(#a)"><path style="fill:none;stroke-width:5.70714;stroke-linecap:round;stroke-linejoin:miter;stroke:#bfbfbf;stroke-opacity:1;stroke-miterlimit:10" d="M1997.503-211.163V-2636.7" transform="matrix(.10013 0 0 .09987 -39 265)"/></g><g clip-path="url(#b)"><path style="fill:none;stroke-width:5.70714;stroke-linecap:round;stroke-linejoin:miter;stroke:#bfbfbf;stroke-opacity:1;stroke-miterlimit:10" d="M399.5-1423.931h3196.006" transform="matrix(.10013 0 0 .09987 -39 265)"/></g><g clip-path="url(#c)"><path style="fill:none;stroke-width:5.70714;stroke-linecap:round;stroke-linejoin:miter;stroke:#bfbfbf;stroke-opacity:1;stroke-dasharray:11.4143,17.1214;stroke-miterlimit:10" d="M399.5-211.163V-2636.7" transform="matrix(.10013 0 0 .09987 -39 265)"/></g><g clip-path="url(#d)"><path style="fill:none;stroke-width:5.70714;stroke-linecap:round;stroke-linejoin:miter;stroke:#bfbfbf;stroke-opacity:1;stroke-dasharray:11.4143,17.1214;stroke-miterlimit:10" d="M1198.502-211.163V-2636.7" transform="matrix(.10013 0 0 .09987 -39 265)"/></g><g clip-path="url(#e)"><path style="fill:none;stroke-width:5.70714;stroke-linecap:round;stroke-linejoin:miter;stroke:#bfbfbf;stroke-opacity:1;stroke-dasharray:11.4143,17.1214;stroke-miterlimit:10" d="M1997.503-211.163V-2636.7" transform="matrix(.10013 0 0 .09987 -39 265)"/></g><g clip-path="url(#f)"><path style="fill:none;stroke-width:5.70714;stroke-linecap:round;stroke-linejoin:miter;stroke:#bfbfbf;stroke-opacity:1;stroke-dasharray:11.4143,17.1214;stroke-miterlimit:10" d="M2796.504-211.163V-2636.7" transform="matrix(.10013 0 0 .09987 -39 265)"/></g><g clip-path="url(#g)"><path style="fill:none;stroke-width:5.70714;stroke-linecap:round;stroke-linejoin:miter;stroke:#bfbfbf;stroke-opacity:1;stroke-dasharray:11.4143,17.1214;stroke-miterlimit:10" d="M3595.506-211.163V-2636.7" transform="matrix(.10013 0 0 .09987 -39 265)"/></g><g clip-path="url(#h)"><path style="fill:none;stroke-width:5.70714;stroke-linecap:round;stroke-linejoin:miter;stroke:#bfbfbf;stroke-opacity:1;stroke-dasharray:11.4143,17.1214;stroke-miterlimit:10" d="M399.5-211.163h3196.006" transform="matrix(.10013 0 0 .09987 -39 265)"/></g><g clip-path="url(#i)"><path style="fill:none;stroke-width:5.70714;stroke-linecap:round;stroke-linejoin:miter;stroke:#bfbfbf;stroke-opacity:1;stroke-dasharray:11.4143,17.1214;stroke-miterlimit:10" d="M399.5-817.547h3196.006" transform="matrix(.10013 0 0 .09987 -39 265)"/></g><g clip-path="url(#j)"><path style="fill:none;stroke-width:5.70714;stroke-linecap:round;stroke-linejoin:miter;stroke:#bfbfbf;stroke-opacity:1;stroke-dasharray:11.4143,17.1214;stroke-miterlimit:10" d="M399.5-1423.931h3196.006" transform="matrix(.10013 0 0 .09987 -39 265)"/></g><g clip-path="url(#k)"><path style="fill:none;stroke-width:5.70714;stroke-linecap:round;stroke-linejoin:miter;stroke:#bfbfbf;stroke-opacity:1;stroke-dasharray:11.4143,17.1214;stroke-miterlimit:10" d="M399.5-2030.315h3196.006" transform="matrix(.10013 0 0 .09987 -39 265)"/></g><g clip-path="url(#l)"><path style="fill:none;stroke-width:5.70714;stroke-linecap:round;stroke-linejoin:miter;stroke:#bfbfbf;stroke-opacity:1;stroke-dasharray:11.4143,17.1214;stroke-miterlimit:10" d="M399.5-2636.7h3196.006" transform="matrix(.10013 0 0 .09987 -39 265)"/></g><path style="fill:none;stroke-width:11.4143;stroke-linecap:square;stroke-linejoin:miter;stroke:#000;stroke-opacity:1;stroke-miterlimit:10" d="M399.5-211.163h3196.006" transform="matrix(.10013 0 0 .09987 -39 265)"/><path style="fill:none;stroke-width:5.70714;stroke-linecap:butt;stroke-linejoin:miter;stroke:#000;stroke-opacity:1;stroke-miterlimit:10" d="M399.5-211.163v-45.643m0 45.643v-22.84m79.9 22.84v-22.84m79.9 22.84v-22.84m79.901 22.84v-22.84m79.9 22.84v-22.84m79.9 22.84v-22.84m79.9 22.84v-22.84m79.9 22.84v-22.84m79.901 22.84v-22.84m159.8 22.84v-45.643m0 45.643v-22.84m79.9 22.84v-22.84m79.9 22.84v-22.84m79.9 22.84v-22.84m79.9 22.84v-22.84m79.9 22.84v-22.84m79.901 22.84v-22.84m79.9 22.84v-22.84m79.9 22.84v-22.84m159.8 22.84v-45.643m0 45.643v-22.84m79.9 22.84v-22.84m79.9 22.84v-22.84m79.9 22.84v-22.84m79.901 22.84v-22.84m79.9 22.84v-22.84m79.9 22.84v-22.84m79.9 22.84v-22.84m79.9 22.84v-22.84m159.8 22.84v-45.643m0 45.643v-22.84m79.9 22.84v-22.84m79.901 22.84v-22.84m79.9 22.84v-22.84m79.9 22.84v-22.84m79.9 22.84v-22.84m79.9 22.84v-22.84m79.9 22.84v-22.84m79.9 22.84v-22.84m159.801 22.84v-45.643m0 45.643v-22.84" transform="matrix(.10013 0 0 .09987 -39 265)"/><path style="fill:none;stroke-width:11.4143;stroke-linecap:square;stroke-linejoin:miter;stroke:#000;stroke-opacity:1;stroke-miterlimit:10" d="M399.5-2636.7h3196.006" transform="matrix(.10013 0 0 .09987 -39 265)"/><path style="fill:none;stroke-width:5.70714;stroke-linecap:butt;stroke-linejoin:miter;stroke:#000;stroke-opacity:1;stroke-miterlimit:10" d="M399.5-2636.7v45.643m0-45.643v22.842m79.9-22.842v22.842m79.9-22.842v22.842m79.901-22.842v22.842m79.9-22.842v22.842m79.9-22.842v22.842m79.9-22.842v22.842m79.9-22.842v22.842m79.901-22.842v22.842m159.8-22.842v45.643m0-45.643v22.842m79.9-22.842v22.842m79.9-22.842v22.842m79.9-22.842v22.842m79.9-22.842v22.842m79.9-22.842v22.842m79.901-22.842v22.842m79.9-22.842v22.842m79.9-22.842v22.842m159.8-22.842v45.643m0-45.643v22.842m79.9-22.842v22.842m79.9-22.842v22.842m79.9-22.842v22.842m79.901-22.842v22.842m79.9-22.842v22.842m79.9-22.842v22.842m79.9-22.842v22.842m79.9-22.842v22.842m159.8-22.842v45.643m0-45.643v22.842m79.9-22.842v22.842m79.901-22.842v22.842m79.9-22.842v22.842m79.9-22.842v22.842m79.9-22.842v22.842m79.9-22.842v22.842m79.9-22.842v22.842m79.9-22.842v22.842m159.801-22.842v45.643m0-45.643v22.842" transform="matrix(.10013 0 0 .09987 -39 265)"/><path style="fill:none;stroke-width:11.4143;stroke-linecap:square;stroke-linejoin:miter;stroke:#000;stroke-opacity:1;stroke-miterlimit:10" d="M399.5-211.163V-2636.7" transform="matrix(.10013 0 0 .09987 -39 265)"/><path style="fill:none;stroke-width:5.70714;stroke-linecap:butt;stroke-linejoin:miter;stroke:#000;stroke-opacity:1;stroke-miterlimit:10" d="M399.5-211.163h45.647m-45.647 0h22.824M399.5-271.786h22.824M399.5-332.447h22.824M399.5-393.07h22.824M399.5-453.732h22.824M399.5-514.355h22.824M399.5-574.978h22.824M399.5-635.64h22.824M399.5-696.262h22.824M399.5-817.547h45.647m-45.647 0h22.824M399.5-878.17h22.824M399.5-938.832h22.824M399.5-999.454h22.824m-22.824-60.662h22.824M399.5-1120.74h22.824m-22.824-60.622h22.824m-22.824-60.662h22.824m-22.824-60.623h22.824M399.5-1423.931h45.647m-45.647 0h22.824m-22.824-60.623h22.824m-22.824-60.662h22.824m-22.824-60.623h22.824m-22.824-60.622h22.824m-22.824-60.662h22.824m-22.824-60.623h22.824m-22.824-60.662h22.824M399.5-1909.03h22.824M399.5-2030.315h45.647m-45.647 0h22.824m-22.824-60.623h22.824M399.5-2151.6h22.824m-22.824-60.623h22.824m-22.824-60.662h22.824m-22.824-60.622h22.824M399.5-2394.17h22.824m-22.824-60.622h22.824m-22.824-60.623h22.824M399.5-2636.7h45.647m-45.647 0h22.824" transform="matrix(.10013 0 0 .09987 -39 265)"/><path style="fill:none;stroke-width:11.4143;stroke-linecap:square;stroke-linejoin:miter;stroke:#000;stroke-opacity:1;stroke-miterlimit:10" d="M3595.506-211.163V-2636.7" transform="matrix(.10013 0 0 .09987 -39 265)"/><path style="fill:none;stroke-width:5.70714;stroke-linecap:butt;stroke-linejoin:miter;stroke:#000;stroke-opacity:1;stroke-miterlimit:10" d="M3595.506-211.163h-45.685m45.685 0h-22.823m22.823-60.623h-22.823m22.823-60.661h-22.823m22.823-60.623h-22.823m22.823-60.662h-22.823m22.823-60.623h-22.823m22.823-60.623h-22.823m22.823-60.662h-22.823m22.823-60.622h-22.823m22.823-121.285h-45.685m45.685 0h-22.823m22.823-60.623h-22.823m22.823-60.662h-22.823m22.823-60.622h-22.823m22.823-60.662h-22.823m22.823-60.624h-22.823m22.823-60.622h-22.823m22.823-60.662h-22.823m22.823-60.623h-22.823m22.823-121.284h-45.685m45.685 0h-22.823m22.823-60.623h-22.823m22.823-60.662h-22.823m22.823-60.623h-22.823m22.823-60.622h-22.823m22.823-60.662h-22.823m22.823-60.623h-22.823m22.823-60.662h-22.823m22.823-60.622h-22.823m22.823-121.285h-45.685m45.685 0h-22.823m22.823-60.623h-22.823m22.823-60.662h-22.823m22.823-60.623h-22.823m22.823-60.662h-22.823m22.823-60.622h-22.823m22.823-60.663h-22.823m22.823-60.622h-22.823m22.823-60.623h-22.823m22.823-121.285h-45.685m45.685 0h-22.823" transform="matrix(.10013 0 0 .09987 -39 265)"/><path style="fill:none;stroke-width:11.4143;stroke-linecap:round;stroke-linejoin:miter;stroke:#00f;stroke-opacity:1;stroke-miterlimit:10" d="m620.24-248.788-150.944-145.26m36.556 11.421-36.556-11.421 12.797 36.1m123.049-111.35-120.747-145.26m35.073 15.409-35.073-15.41 8.739 37.274m96.91-112.485-90.551-145.299m32.654 20.025-32.654-20.025 3.59 38.134m71.862-113.345-60.354-145.3m28.949 25.071-28.949-25.07-2.692 38.212m47.948-113.423-30.158-145.26m23.721 30.037-23.72-30.038-9.793 37m24.891-112.25v-145.26m17.088 34.222-17.088-34.222-17.127 34.222m2.029-109.473 30.157-145.26m9.832 37-9.832-37-23.72 30.038m-21.536-105.288 60.354-145.26m2.692 38.212-2.692-38.212-28.948 25.07m-46.504-100.281 90.55-145.3m-3.589 38.134 3.59-38.134-32.655 20.026m-72.994-95.237 120.747-145.26m-8.7 37.274 8.7-37.274-35.034 15.37m-100.812-90.62 150.944-145.26m-12.796 36.06 12.796-36.06-36.556 11.42M910.776-286.257 759.87-356.579m38.234-1.056-38.234 1.056 23.799 29.998m112.008-180.186L774.93-577.051m38.233 2.425-38.233-2.425 20.99 31.994m84.659-182.221-90.55-70.283m37.569 7.471-37.57-7.471 16.58 34.535m58.912-184.762-60.394-70.284m35.308 14.824-35.308-14.824 9.325 37.117m35.97-187.344-30.196-70.283m29.26 24.718-29.26-24.718-2.224 38.251m17.322-188.479v-70.282m17.127 34.262-17.127-34.262-17.127 34.261m2.029-184.449 30.196-70.284m2.224 38.212-2.224-38.212-29.26 24.68m-16.035-174.906 60.394-70.284m-9.325 37.117 9.325-37.117-35.308 14.823m-40.184-165.05 90.551-70.284m-16.542 34.535 16.542-34.535-37.531 7.47m-68.118-157.697 120.747-70.283m-20.95 32.032 20.95-32.032-38.194 2.425m-97.613-152.652 150.906-70.284m-23.799 29.999 23.799-29.999-38.273-1.056M1201.31-315.434l-150.904-11.968m35.502-14.354-35.502 14.354 32.771 19.79m103.075-228.332-120.748-11.969m35.736-13.649-35.736 13.65 32.381 20.416m73.268-228.92-90.59-12.007m36.205-12.477-36.205 12.477 31.719 21.472m43.773-229.975-60.393-11.968m36.946-10.169-36.946 10.169 30.274 23.427m15.021-231.97-30.197-11.968m38.155-3.325-38.155 3.325 25.515 28.512m-10.417-237.054v-11.968m17.127 34.222-17.127-34.222-17.127 34.222m2.029-242.765 30.197-11.968m-25.515 28.552 25.515-28.552-38.156-3.285m-7.139-205.257 60.393-11.968m-30.275 23.466 30.275-23.466-36.907-10.13m-38.585-198.413 90.59-11.968m-31.718 21.473 31.718-21.473-36.204-12.476m-69.445-196.027 120.748-11.968m-32.421 20.416 32.42-20.416-35.775-13.689m-100.07-194.853 150.905-11.968m-32.771 19.751 32.77-19.751-35.463-14.354m326.038 2210.541-150.944 29.685m30.314-23.427-30.314 23.427 36.907 10.17m98.939-260.366-120.748 29.686m29.144-24.797-29.144 24.797 37.336 8.448m68.314-258.644-90.551 29.685m27.192-26.947-27.192 26.947 37.843 5.593m37.609-255.789-60.354 29.686m23.174-30.468-23.174 30.468 38.272.274m6.984-250.47-30.158 29.686m12.406-36.218-12.406 36.218 36.4-11.812m-21.34-238.345v29.646m-17.088-34.222 17.088 34.222 17.127-34.222m-32.187-215.935 30.158 29.686m-36.4-11.812 36.4 11.812-12.406-36.218m-32.85-213.978 60.354 29.685m-38.272.235 38.272-.235-23.174-30.468m-52.278-219.728 90.55 29.686m-37.882 5.593 37.883-5.593-27.193-26.948m-78.456-223.248 120.747 29.685m-37.337 8.448 37.337-8.448-29.182-24.796m-106.664-225.4 150.944 29.686m-36.907 10.208 36.907-10.208-30.314-23.389M1782.42-348.757l-150.944 54.678m26.374-27.769-26.374 27.769 38.039 4.42m97.807-279.608-120.747 54.677m24.149-29.724-24.15 29.724 38.273 1.487m67.377-276.636-90.551 54.639m20.482-32.345-20.482 32.345 38.155-3.012m37.297-272.138-60.354 54.64m13.889-35.67-13.889 35.67 36.868-10.287m8.427-264.863-30.196 54.678m1.56-38.251-1.56 38.251 31.523-21.707m-16.425-253.481v54.678m-17.128-34.262 17.128 34.262 17.127-34.262m-32.225-240.926 30.196 54.677m-31.562-21.707 31.562 21.707-1.56-38.25m-43.735-236.899 60.354 54.639m-36.868-10.287 36.868 10.287-13.888-35.67m-61.564-239.479 90.55 54.638m-38.155-3.011 38.156 3.011-20.443-32.345m-85.206-242.804 120.747 54.678m-38.233 1.447 38.233-1.447-24.11-29.725m-111.736-245.463 150.944 54.678m-38.038 4.419 38.038-4.42-26.373-27.769m316.909 2173.972-150.905 62.97m25.007-28.982-25.007 28.982 38.194 2.62m97.612-286.1-120.708 63.008m22.433-31.015-22.433 31.015 38.272-.665m67.377-282.854-90.59 63.009m18.337-33.636-18.337 33.636 37.883-5.515m37.569-278.004-60.354 63.008m11.354-36.569-11.354 36.57 36.05-12.868m9.245-270.652-30.196 63.009m-.625-38.29.625 38.29 30.235-23.467m-15.137-260.013v62.97m-17.127-34.223 17.127 34.223 17.127-34.223m-32.225-249.257 30.196 62.97m-30.235-23.468 30.235 23.467.625-38.25m-45.92-245.23 60.355 63.009m-36.01-12.907 36.01 12.907-11.314-36.57m-64.139-246.949 90.59 63.008m-37.921-5.514 37.921 5.514-18.336-33.636m-87.313-249.883 120.708 63.009m-38.272-.665 38.272.665-22.433-31.016m-113.374-252.503 150.906 63.008m-38.195 2.62 38.195-2.62-25.008-28.981M2363.49-348.757l-150.904 54.678m26.374-27.769-26.374 27.769 38.038 4.42m97.808-279.608-120.748 54.677m24.111-29.724-24.11 29.724 38.233 1.487m67.415-276.636-90.55 54.639m20.443-32.345-20.444 32.345 38.156-3.012m37.297-272.138-60.393 54.64m13.888-35.67-13.888 35.67 36.907-10.287m8.388-264.863-30.158 54.678m1.521-38.251-1.52 38.251 31.522-21.707m-16.464-253.481v54.678m-17.127-34.262 17.127 34.262 17.127-34.262m-32.185-240.926 30.157 54.677m-31.523-21.707 31.523 21.707-1.56-38.25m-43.735-236.899 60.393 54.639m-36.868-10.287 36.868 10.287-13.889-35.67m-61.564-239.479 90.551 54.638m-38.155-3.011 38.155 3.011-20.482-32.345m-85.167-242.804 120.748 54.678m-38.272 1.447 38.272-1.447-24.15-29.725m-111.696-245.463 150.905 54.678m-37.999 4.419 37.999-4.42-26.334-27.769m316.908 2190.634-150.944 29.685m30.314-23.427-30.314 23.427 36.907 10.17m98.939-260.366-120.748 29.686m29.183-24.797-29.183 24.797 37.337 8.448m68.313-258.644-90.551 29.685m27.192-26.947-27.192 26.947 37.843 5.593m37.609-255.789-60.354 29.686m23.174-30.468-23.174 30.468 38.273.274m6.983-250.47-30.158 29.686m12.406-36.218-12.406 36.218 36.4-11.812m-21.34-238.345v29.646m-17.088-34.222 17.088 34.222 17.127-34.222m-32.187-215.935 30.158 29.686m-36.4-11.812 36.4 11.812-12.406-36.218m-32.85-213.978 60.354 29.685m-38.272.235 38.272-.235-23.174-30.468m-52.278-219.728 90.55 29.686m-37.882 5.593 37.883-5.593-27.193-26.948m-78.456-223.248 120.747 29.685m-37.337 8.448 37.337-8.448-29.182-24.796m-106.664-225.4 150.944 29.686m-36.907 10.208 36.907-10.208-30.313-23.389M2944.6-315.434l-150.944-11.968m35.503-14.354-35.503 14.354 32.81 19.79m103.036-228.332-120.747-11.969m35.775-13.649-35.775 13.65 32.381 20.416m73.268-228.92-90.551-12.007m36.205-12.477-36.205 12.477 31.718 21.472m43.735-229.975-60.355-11.968m36.907-10.169-36.907 10.169 30.275 23.427m15.02-231.97-30.196-11.968m38.155-3.325-38.155 3.325 25.515 28.512m-10.417-237.054v-11.968m17.127 34.222-17.127-34.222-17.127 34.222m2.029-242.765 30.196-11.968m-25.554 28.552 25.554-28.552-38.155-3.285m-7.14-205.257 60.355-11.968m-30.236 23.466 30.236-23.466-36.907-10.13m-38.546-198.413 90.55-11.968m-31.678 21.473 31.679-21.473-36.166-12.476m-69.483-196.027 120.747-11.968m-32.382 20.416 32.382-20.416-35.775-13.689m-100.071-194.853 150.944-11.968m-32.771 19.751 32.771-19.751-35.463-14.354m325.999 2260.525-150.905-70.322m38.272-1.056-38.272 1.056 23.798 29.998m112.047-180.186-120.747-70.284m38.194 2.425-38.194-2.425 20.95 31.994m84.699-182.221-90.55-70.283m37.53 7.471-37.53-7.471 16.541 34.535m58.911-184.762-60.393-70.284m35.307 14.824-35.307-14.824 9.324 37.117m35.971-187.344-30.197-70.283m29.26 24.718-29.26-24.718-2.224 38.251m17.322-188.479v-70.282m17.127 34.262-17.127-34.262-17.127 34.261m2.029-184.449 30.197-70.284m2.223 38.212-2.223-38.212-29.26 24.68m-16.035-174.906 60.393-70.284m-9.324 37.117 9.324-37.117-35.308 14.823m-40.145-165.05 90.551-70.284m-16.581 34.535 16.581-34.535-37.57 7.47m-68.079-157.697 120.747-70.283m-20.989 32.032 20.99-32.032-38.234 2.425m-97.613-152.652 150.906-70.284m-23.799 29.999 23.799-29.999-38.273-1.056m328.808 2313.874-150.905-145.26m36.556 11.421-36.556-11.421 12.796 36.1m123.05-111.35-120.748-145.26m35.074 15.409-35.074-15.41 8.7 37.274m96.949-112.485-90.55-145.299m32.615 20.025-32.615-20.025 3.55 38.134m71.902-113.345-60.393-145.3m28.988 25.071-28.988-25.07-2.653 38.212m47.948-113.423-30.158-145.26m23.721 30.037-23.72-30.038-9.832 37m24.89-112.25v-145.26m17.128 34.222-17.128-34.222-17.127 34.222m2.069-109.473 30.157-145.26m9.793 37-9.793-37-23.72 30.038m-21.575-105.288 60.393-145.26m2.653 38.212-2.653-38.212-28.948 25.07m-46.504-100.281 90.55-145.3m-3.589 38.134 3.59-38.134-32.655 20.026m-72.995-95.237 120.748-145.26m-8.739 37.274 8.739-37.274-35.074 15.37m-100.772-90.62 150.905-145.26m-12.757 36.06 12.757-36.06-36.517 11.42" transform="matrix(.10013 0 0 .09987 -39 265)"/></svg>