<svg xmlns="http://www.w3.org/2000/svg" width="322pt" height="245pt" viewBox="0 0 322 245"><defs><clipPath id="a"><path d="M160 1.66h2v242.25h-2zm0 0"/></clipPath><clipPath id="b"><path d="M1 122h320v2H1zm0 0"/></clipPath><clipPath id="c"><path d="M1 1.66h1v242.25H1zm0 0"/></clipPath><clipPath id="d"><path d="M80 1.66h2v242.25h-2zm0 0"/></clipPath><clipPath id="e"><path d="M160 1.66h2v242.25h-2zm0 0"/></clipPath><clipPath id="f"><path d="M240 1.66h2v242.25h-2zm0 0"/></clipPath><clipPath id="g"><path d="M320 1.66h1v242.25h-1zm0 0"/></clipPath><clipPath id="h"><path d="M1 243h320v.91H1zm0 0"/></clipPath><clipPath id="i"><path d="M1 183h320v1H1zm0 0"/></clipPath><clipPath id="j"><path d="M1 122h320v2H1zm0 0"/></clipPath><clipPath id="k"><path d="M1 61h320v2H1zm0 0"/></clipPath><clipPath id="l"><path d="M1 1.66h320V2H1zm0 0"/></clipPath></defs><path style="stroke:none;fill-rule:nonzero;fill:#fff;fill-opacity:1" d="M1 243.91h320V1.66H1zm0 0"/><g clip-path="url(#a)"><path style="fill:none;stroke-width:5.70714;stroke-linecap:round;stroke-linejoin:miter;stroke:#bfbfbf;stroke-opacity:1;stroke-miterlimit:10" d="M1997.503-211.163V-2636.7" transform="matrix(.10013 0 0 .09987 -39 265)"/></g><g clip-path="url(#b)"><path style="fill:none;stroke-width:5.70714;stroke-linecap:round;stroke-linejoin:miter;stroke:#bfbfbf;stroke-opacity:1;stroke-miterlimit:10" d="M399.5-1423.931h3196.006" transform="matrix(.10013 0 0 .09987 -39 265)"/></g><g clip-path="url(#c)"><path style="fill:none;stroke-width:5.70714;stroke-linecap:round;stroke-linejoin:miter;stroke:#bfbfbf;stroke-opacity:1;stroke-dasharray:11.4143,17.1214;stroke-miterlimit:10" d="M399.5-211.163V-2636.7" transform="matrix(.10013 0 0 .09987 -39 265)"/></g><g clip-path="url(#d)"><path style="fill:none;stroke-width:5.70714;stroke-linecap:round;stroke-linejoin:miter;stroke:#bfbfbf;stroke-opacity:1;stroke-dasharray:11.4143,17.1214;stroke-miterlimit:10" d="M1198.502-211.163V-2636.7" transform="matrix(.10013 0 0 .09987 -39 265)"/></g><g clip-path="url(#e)"><path style="fill:none;stroke-width:5.70714;stroke-linecap:round;stroke-linejoin:miter;stroke:#bfbfbf;stroke-opacity:1;stroke-dasharray:11.4143,17.1214;stroke-miterlimit:10" d="M1997.503-211.163V-2636.7" transform="matrix(.10013 0 0 .09987 -39 265)"/></g><g clip-path="url(#f)"><path style="fill:none;stroke-width:5.70714;stroke-linecap:round;stroke-linejoin:miter;stroke:#bfbfbf;stroke-opacity:1;stroke-dasharray:11.4143,17.1214;stroke-miterlimit:10" d="M2796.504-211.163V-2636.7" transform="matrix(.10013 0 0 .09987 -39 265)"/></g><g clip-path="url(#g)"><path style="fill:none;stroke-width:5.70714;stroke-linecap:round;stroke-linejoin:miter;stroke:#bfbfbf;stroke-opacity:1;stroke-dasharray:11.4143,17.1214;stroke-miterlimit:10" d="M3595.506-211.163V-2636.7" transform="matrix(.10013 0 0 .09987 -39 265)"/></g><g clip-path="url(#h)"><path style="fill:none;stroke-width:5.70714;stroke-linecap:round;stroke-linejoin:miter;stroke:#bfbfbf;stroke-opacity:1;stroke-dasharray:11.4143,17.1214;stroke-miterlimit:10" d="M399.5-211.163h3196.006" transform="matrix(.10013 0 0 .09987 -39 265)"/></g><g clip-path="url(#i)"><path style="fill:none;stroke-width:5.70714;stroke-linecap:round;stroke-linejoin:miter;stroke:#bfbfbf;stroke-opacity:1;stroke-dasharray:11.4143,17.1214;stroke-miterlimit:10" d="M399.5-817.547h3196.006" transform="matrix(.10013 0 0 .09987 -39 265)"/></g><g clip-path="url(#j)"><path style="fill:none;stroke-width:5.70714;stroke-linecap:round;stroke-linejoin:miter;stroke:#bfbfbf;stroke-opacity:1;stroke-dasharray:11.4143,17.1214;stroke-miterlimit:10" d="M399.5-1423.931h3196.006" transform="matrix(.10013 0 0 .09987 -39 265)"/></g><g clip-path="url(#k)"><path style="fill:none;stroke-width:5.70714;stroke-linecap:round;stroke-linejoin:miter;stroke:#bfbfbf;stroke-opacity:1;stroke-dasharray:11.4143,17.1214;stroke-miterlimit:10" d="M399.5-2030.315h3196.006" transform="matrix(.10013 0 0 .09987 -39 265)"/></g><g clip-path="url(#l)"><path style="fill:none;stroke-width:5.70714;stroke-linecap:round;stroke-linejoin:miter;stroke:#bfbfbf;stroke-opacity:1;stroke-dasharray:11.4143,17.1214;stroke-miterlimit:10" d="M399.5-2636.7h3196.006" transform="matrix(.10013 0 0 .09987 -39 265)"/></g><path style="fill:none;stroke-width:11.4143;stroke-linecap:square;stroke-linejoin:miter;stroke:#000;stroke-opacity:1;stroke-miterlimit:10" d="M399.5-211.163h3196.006" transform="matrix(.10013 0 0 .09987 -39 265)"/><path style="fill:none;stroke-width:5.70714;stroke-linecap:butt;stroke-linejoin:miter;stroke:#000;stroke-opacity:1;stroke-miterlimit:10" d="M399.5-211.163v-45.643m0 45.643v-22.84m79.9 22.84v-22.84m79.9 22.84v-22.84m79.901 22.84v-22.84m79.9 22.84v-22.84m79.9 22.84v-22.84m79.9 22.84v-22.84m79.9 22.84v-22.84m79.901 22.84v-22.84m159.8 22.84v-45.643m0 45.643v-22.84m79.9 22.84v-22.84m79.9 22.84v-22.84m79.9 22.84v-22.84m79.9 22.84v-22.84m79.9 22.84v-22.84m79.901 22.84v-22.84m79.9 22.84v-22.84m79.9 22.84v-22.84m159.8 22.84v-45.643m0 45.643v-22.84m79.9 22.84v-22.84m79.9 22.84v-22.84m79.9 22.84v-22.84m79.901 22.84v-22.84m79.9 22.84v-22.84m79.9 22.84v-22.84m79.9 22.84v-22.84m79.9 22.84v-22.84m159.8 22.84v-45.643m0 45.643v-22.84m79.9 22.84v-22.84m79.901 22.84v-22.84m79.9 22.84v-22.84m79.9 22.84v-22.84m79.9 22.84v-22.84m79.9 22.84v-22.84m79.9 22.84v-22.84m79.9 22.84v-22.84m159.801 22.84v-45.643m0 45.643v-22.84" transform="matrix(.10013 0 0 .09987 -39 265)"/><path style="fill:none;stroke-width:11.4143;stroke-linecap:square;stroke-linejoin:miter;stroke:#000;stroke-opacity:1;stroke-miterlimit:10" d="M399.5-2636.7h3196.006" transform="matrix(.10013 0 0 .09987 -39 265)"/><path style="fill:none;stroke-width:5.70714;stroke-linecap:butt;stroke-linejoin:miter;stroke:#000;stroke-opacity:1;stroke-miterlimit:10" d="M399.5-2636.7v45.643m0-45.643v22.842m79.9-22.842v22.842m79.9-22.842v22.842m79.901-22.842v22.842m79.9-22.842v22.842m79.9-22.842v22.842m79.9-22.842v22.842m79.9-22.842v22.842m79.901-22.842v22.842m159.8-22.842v45.643m0-45.643v22.842m79.9-22.842v22.842m79.9-22.842v22.842m79.9-22.842v22.842m79.9-22.842v22.842m79.9-22.842v22.842m79.901-22.842v22.842m79.9-22.842v22.842m79.9-22.842v22.842m159.8-22.842v45.643m0-45.643v22.842m79.9-22.842v22.842m79.9-22.842v22.842m79.9-22.842v22.842m79.901-22.842v22.842m79.9-22.842v22.842m79.9-22.842v22.842m79.9-22.842v22.842m79.9-22.842v22.842m159.8-22.842v45.643m0-45.643v22.842m79.9-22.842v22.842m79.901-22.842v22.842m79.9-22.842v22.842m79.9-22.842v22.842m79.9-22.842v22.842m79.9-22.842v22.842m79.9-22.842v22.842m79.9-22.842v22.842m159.801-22.842v45.643m0-45.643v22.842" transform="matrix(.10013 0 0 .09987 -39 265)"/><path style="fill:none;stroke-width:11.4143;stroke-linecap:square;stroke-linejoin:miter;stroke:#000;stroke-opacity:1;stroke-miterlimit:10" d="M399.5-211.163V-2636.7" transform="matrix(.10013 0 0 .09987 -39 265)"/><path style="fill:none;stroke-width:5.70714;stroke-linecap:butt;stroke-linejoin:miter;stroke:#000;stroke-opacity:1;stroke-miterlimit:10" d="M399.5-211.163h45.647m-45.647 0h22.824M399.5-271.786h22.824M399.5-332.447h22.824M399.5-393.07h22.824M399.5-453.732h22.824M399.5-514.355h22.824M399.5-574.978h22.824M399.5-635.64h22.824M399.5-696.262h22.824M399.5-817.547h45.647m-45.647 0h22.824M399.5-878.17h22.824M399.5-938.832h22.824M399.5-999.454h22.824m-22.824-60.662h22.824M399.5-1120.74h22.824m-22.824-60.622h22.824m-22.824-60.662h22.824m-22.824-60.623h22.824M399.5-1423.931h45.647m-45.647 0h22.824m-22.824-60.623h22.824m-22.824-60.662h22.824m-22.824-60.623h22.824m-22.824-60.622h22.824m-22.824-60.662h22.824m-22.824-60.623h22.824m-22.824-60.662h22.824M399.5-1909.03h22.824M399.5-2030.315h45.647m-45.647 0h22.824m-22.824-60.623h22.824M399.5-2151.6h22.824m-22.824-60.623h22.824m-22.824-60.662h22.824m-22.824-60.622h22.824M399.5-2394.17h22.824m-22.824-60.622h22.824m-22.824-60.623h22.824M399.5-2636.7h45.647m-45.647 0h22.824" transform="matrix(.10013 0 0 .09987 -39 265)"/><path style="fill:none;stroke-width:11.4143;stroke-linecap:square;stroke-linejoin:miter;stroke:#000;stroke-opacity:1;stroke-miterlimit:10" d="M3595.506-211.163V-2636.7" transform="matrix(.10013 0 0 .09987 -39 265)"/><path style="fill:none;stroke-width:5.70714;stroke-linecap:butt;stroke-linejoin:miter;stroke:#000;stroke-opacity:1;stroke-miterlimit:10" d="M3595.506-211.163h-45.685m45.685 0h-22.823m22.823-60.623h-22.823m22.823-60.661h-22.823m22.823-60.623h-22.823m22.823-60.662h-22.823m22.823-60.623h-22.823m22.823-60.623h-22.823m22.823-60.662h-22.823m22.823-60.622h-22.823m22.823-121.285h-45.685m45.685 0h-22.823m22.823-60.623h-22.823m22.823-60.662h-22.823m22.823-60.622h-22.823m22.823-60.662h-22.823m22.823-60.624h-22.823m22.823-60.622h-22.823m22.823-60.662h-22.823m22.823-60.623h-22.823m22.823-121.284h-45.685m45.685 0h-22.823m22.823-60.623h-22.823m22.823-60.662h-22.823m22.823-60.623h-22.823m22.823-60.622h-22.823m22.823-60.662h-22.823m22.823-60.623h-22.823m22.823-60.662h-22.823m22.823-60.622h-22.823m22.823-121.285h-45.685m45.685 0h-22.823m22.823-60.623h-22.823m22.823-60.662h-22.823m22.823-60.623h-22.823m22.823-60.662h-22.823m22.823-60.622h-22.823m22.823-60.663h-22.823m22.823-60.622h-22.823m22.823-60.623h-22.823m22.823-121.285h-45.685m45.685 0h-22.823" transform="matrix(.10013 0 0 .09987 -39 265)"/><path style="fill:none;stroke-width:11.4143;stroke-linecap:round;stroke-linejoin:miter;stroke:#00f;stroke-opacity:1;stroke-miterlimit:10" d="m515.41-294.196 58.716-54.444m-13.46 35.826 13.46-35.826-36.75 10.717m-29.144-176.745 73.073-54.482M564.1-534.967l17.205-34.183-37.688 6.727m-42.564-172.755 87.43-54.483m-20.013 32.659 20.013-32.659-38.116 3.56m-56.492-169.588 101.787-54.482M573.54-978.92l22.122-31.251-38.273 1.056M486.696-1176.2l116.144-54.481m-23.72 30.076 23.72-30.076-38.272-.94m-85.05-165.089 130.5-54.443m-25.008 28.982 25.009-28.982-38.195-2.62m-99.484-163.408 144.857-54.482m-26.022 28.082 26.022-28.082-38.077-3.99m-113.96-162.038 159.216-54.483m-26.842 27.3 26.842-27.3-37.922-5.123m-128.472-160.905 173.572-54.482m-27.544 26.596 27.544-26.596-37.804-6.062m-142.946-159.966 187.929-54.483m-28.129 25.97 28.129-25.97-37.648-6.883m-157.46-159.145 202.286-54.482m-28.597 25.462 28.597-25.462-37.53-7.588m221.051 2261.66 11.743-43.57m7.647 37.508-7.647-37.508-25.437 28.59m6.515-205.53 26.1-43.57m-2.886 38.173 2.887-38.174-32.265 20.573m-1.014-197.474 40.457-43.609m-10.729 36.764 10.73-36.764-35.815 13.454m-11.822-190.355 54.815-43.57m-16.152 34.691 16.152-34.691-37.454 7.9m-24.539-184.841 69.171-43.57m-19.819 32.736 19.82-32.736-38.078 3.755m-38.234-180.695 83.49-43.57m-22.433 31.016 22.433-31.016-38.273.665M786.4-1622.657l97.846-43.57m-24.306 29.569 24.306-29.569-38.233-1.72m-66.792-175.22 112.204-43.57m-25.71 28.356 25.71-28.356-38.117-3.56m-81.265-173.341 126.56-43.61m-26.803 27.339 26.803-27.339-37.96-5.006m-95.779-171.895 140.918-43.57m-27.661 26.479 27.66-26.479-37.764-6.258M757.686-2504.66l155.274-43.57m-28.324 25.736 28.324-25.735-37.609-7.236M1138.265-305.07l-24.813-32.697m34.371 16.936-34.371-16.936 7.061 37.626m10.573-225.439-10.456-32.697m26.764 27.417-26.764-27.417-5.89 37.82m9.168-225.633 3.901-32.658m12.953 36.021-12.953-36.021-21.067 31.954m9.988-219.806 18.258-32.659m-1.756 38.251 1.756-38.25-31.64 21.51m6.202-209.324 32.616-32.697m-12.056 36.334 12.056-36.334-36.283 12.124m-3.511-199.938 46.973-32.697m-18.337 33.636 18.337-33.636-37.883 5.515m-16.268-193.328 61.33-32.697m-22.161 31.21 22.16-31.21-38.272 1.017m-30.236-188.831 75.687-32.658m-24.657 29.256 24.657-29.256-38.234-2.15m-44.632-185.702 90.044-32.658m-26.334 27.769 26.334-27.769-38.038-4.42m-59.184-183.393 104.4-32.697m-27.543 26.556 27.544-26.556-37.805-6.102m-73.774-181.712 118.757-32.697m-28.48 25.579 28.48-25.579-37.57-7.431M1441.87-310.506l-50.913-21.824m38.233-2.23-38.233 2.23 24.734 29.255m19-227.941-36.556-21.785m38.195 2.816-38.195-2.816 20.638 32.227m8.739-230.953-22.198-21.785m36.438 11.772-36.438-11.772 12.445 36.217m2.575-234.942-7.842-21.785m27.7 26.439-27.7-26.44-4.525 38.017m5.188-236.742 6.516-21.785m6.593 37.703-6.593-37.703-26.218 27.887m12.524-226.612 20.872-21.785m-11.314 36.608 11.314-36.608-36.048 12.906m7.997-211.593 35.23-21.785m-20.131 32.541 20.13-32.54-38.116 3.441m-4.291-202.167 49.586-21.785m-24.461 29.451 24.461-29.451-38.233-1.917m-18.532-196.808 63.944-21.786m-26.881 27.261 26.88-27.26-37.92-5.163m-33.201-193.562 78.3-21.786m-28.402 25.657 28.402-25.657-37.57-7.314m-47.909-191.411 92.658-21.785m-29.416 24.522 29.416-24.522-37.258-8.8m314.763 2230.174-66.558-10.873m36.556-11.381-36.556 11.381 31.016 22.411m28.363-232.009-52.2-10.912m36.985-9.778-36.985 9.778 30.001 23.74m14.981-233.338-37.804-10.912m37.648-6.962-37.648 6.962 28.168 25.93m2.497-235.529-23.486-10.912m38.272-1.134-38.272 1.134 23.837 29.96m-7.53-239.558-9.129-10.912m35.113 15.253-35.113-15.253 8.856 37.273m-6.905-246.872 5.189-10.873m.663 38.251-.663-38.25-30.197 23.466m17.829-233.104 19.585-10.873m-21.613 31.602 21.613-31.602-38.272 1.682m11.509-211.281 33.942-10.912m-27.388 26.753 27.388-26.753-37.843-5.827m-3.278-203.771 48.3-10.912m-29.651 24.249 29.65-24.25-37.18-9.151m-18.297-200.446 62.656-10.913m-30.821 22.763 30.82-22.763-36.711-10.99m-33.123-198.608 76.974-10.873m-31.484 21.746 31.484-21.746-36.282-12.164m324.243 2222.627h-71.786m34.255-17.131-34.255 17.131 34.255 17.13m30.352-237.64h-57.428m34.254-17.132-34.254 17.132 34.254 17.13m15.996-237.641h-43.071m34.254-17.091-34.254 17.091 34.254 17.13m1.638-237.601h-28.714m34.254-17.131-34.254 17.13 34.254 17.092m-12.718-237.601h-14.357m34.254-17.132-34.254 17.131 34.254 17.092m-34.254-458.113h14.357m-34.254 17.132 34.254-17.132-34.254-17.13m12.718-203.38h28.714m-34.254 17.131 34.254-17.131-34.254-17.092m-1.638-203.379h43.07m-34.253 17.091 34.254-17.091-34.254-17.131m-15.996-203.38h57.428m-34.254 17.092 34.254-17.092-34.254-17.13m-30.353-203.38h71.786m-34.254 17.13 34.254-17.13-34.254-17.131m322.175 2216.72-66.557 10.873m31.055-22.41-31.055 22.41 36.556 11.382m22.823-242.765-52.2 10.912m30.04-23.78-30.04 23.78 37.023 9.739m7.998-241.161-37.843 10.912m28.168-25.931-28.168 25.93 37.648 6.962m-6.983-238.384-23.487 10.912m23.877-29.959-23.877 29.96 38.273 1.133m-21.965-232.556-9.13 10.912m8.896-37.234-8.895 37.234 35.112-15.254m-33.162-216.13 5.228 10.873m-30.235-23.467 30.235 23.467.664-38.29m-13.07-193.093 19.585 10.873m-38.234-1.682 38.234 1.682-21.575-31.602m-5.189-199.782 33.942 10.912m-37.843 5.828 37.843-5.828-27.387-26.79m-13.733-204.633 48.299 10.913m-37.18 9.152 37.18-9.152-29.612-24.25m-25.826-207.173 62.616 10.913m-36.672 10.99 36.672-10.99-30.82-22.724m-39.014-208.659 77.013 10.872m-36.322 12.164 36.322-12.164-31.523-21.746M2604.05-332.33l-50.913 21.824m24.734-29.255-24.734 29.255 38.233 2.23m5.501-244.525-36.556 21.785m20.638-32.267-20.638 32.267 38.195-2.856m-8.817-239.44-22.2 21.785m12.447-36.217-12.446 36.217 36.439-11.772m-21.419-230.523-7.842 21.785m-4.525-38.017 4.525 38.017 27.7-26.44m-27.036-215.856 6.515 21.785m-26.217-27.886 26.217 27.886 6.593-37.703m-20.287-204.592 20.872 21.785m-36.049-12.868 36.05 12.868-11.315-36.57m-16.737-205.687 35.23 21.785m-38.117-3.441 38.117 3.441-20.131-32.58m-22.277-209.715 49.586 21.785m-38.233 1.877 38.233-1.877-24.461-29.45m-32.304-212.846 63.944 21.786m-37.921 5.162 37.92-5.162-26.88-27.261m-44.241-215.035 78.3 21.785m-37.57 7.314 37.57-7.314-28.402-25.657m-57.077-216.638 92.658 21.785m-37.258 8.839 37.258-8.84-29.416-24.483m286.048 2202.288-24.812 32.698m7.061-37.626-7.061 37.626 34.332-16.936m-16.698-236.272-10.456 32.697m-5.891-37.82 5.891 37.82 26.725-27.417m-23.448-225.751 3.902 32.658m-21.068-31.954 21.068 31.954 12.913-36.022m-23.993-217.147 18.258 32.658m-31.64-21.511 31.64 21.511-1.755-38.212m-23.682-214.957 32.616 32.698m-36.322-12.164 36.322 12.164-12.095-36.335m-27.738-216.873 47.011 32.697m-37.882-5.514 37.882 5.514-18.336-33.635m-35.815-219.572 61.33 32.697m-38.273-.977 38.273.977-22.16-31.211m-46.348-221.958 75.686 32.658m-38.233 2.152 38.233-2.152-24.656-29.294m-58.209-223.874 90.044 32.658m-38.039 4.42 38.039-4.42-26.373-27.77m-70.849-225.398 104.4 32.697m-37.804 6.101 37.804-6.101-27.582-26.596m-83.997-226.612 118.758 32.697m-37.57 7.392 37.57-7.392-28.48-25.618m253.745 2192.511 11.743 43.57m-25.437-28.59 25.437 28.59 7.647-37.508m-26.568-226.573 26.1 43.57m-32.264-20.572 32.264 20.573-2.887-38.173m-30.353-225.908 40.418 43.61m-35.814-13.456 35.814 13.455-10.728-36.765m-36.868-227.315 54.775 43.57m-37.453-7.901 37.453 7.9-16.113-34.73m-45.841-229.35 69.171 43.57m-38.116-3.794 38.116 3.794-19.858-32.736m-56.491-231.344 83.489 43.57m-38.273-.665 38.273.665-22.433-31.016m-68.235-233.065 97.846 43.57m-38.233 1.721 38.233-1.72-24.305-29.569m-80.72-234.512 112.204 43.57m-38.116 3.598 38.116-3.598-25.71-28.317m-93.672-235.764 126.56 43.61m-37.96 5.045 37.96-5.045-26.802-27.34m-106.937-236.741 140.918 43.57m-37.765 6.258 37.765-6.258-27.66-26.478m-120.436-237.603 155.275 43.57m-37.61 7.236 37.61-7.235-28.324-25.736M3420.88-348.64l58.716 54.444m-36.751-10.717 36.75 10.717-13.459-35.827m-52.434-239.127 73.072 54.482m-37.687-6.766 37.687 6.766-17.244-34.222m-63.007-240.77 87.43 54.482m-38.117-3.599 38.117 3.599-20.014-32.658m-74.594-242.335 101.786 54.482m-38.272-1.056 38.272 1.056-22.12-31.25m-86.845-243.742 116.144 54.482m-38.273.978 38.273-.978-23.76-30.038m-99.562-244.916 130.5 54.443m-38.194 2.62 38.194-2.62-25.007-28.981m-112.672-245.972 144.858 54.482m-38.077 3.951 38.077-3.951-26.022-28.082m-126.015-246.911 159.216 54.483m-37.961 5.084 37.96-5.084-26.88-27.3m-139.513-247.693 173.572 54.482m-37.804 6.102 37.804-6.102-27.544-26.596m-153.207-248.397 187.93 54.483m-37.688 6.922 37.688-6.922-28.13-25.97m-166.978-249.023 202.247 54.482m-37.492 7.627 37.492-7.627-28.597-25.422" transform="matrix(.10013 0 0 .09987 -39 265)"/></svg>