<svg xmlns="http://www.w3.org/2000/svg" width="322pt" height="245pt" viewBox="0 0 322 245"><defs><clipPath id="a"><path d="M160 1.66h2v242.25h-2zm0 0"/></clipPath><clipPath id="b"><path d="M1 122h320v2H1zm0 0"/></clipPath><clipPath id="c"><path d="M1 1.66h1v242.25H1zm0 0"/></clipPath><clipPath id="d"><path d="M80 1.66h2v242.25h-2zm0 0"/></clipPath><clipPath id="e"><path d="M160 1.66h2v242.25h-2zm0 0"/></clipPath><clipPath id="f"><path d="M240 1.66h2v242.25h-2zm0 0"/></clipPath><clipPath id="g"><path d="M320 1.66h1v242.25h-1zm0 0"/></clipPath><clipPath id="h"><path d="M1 243h320v.91H1zm0 0"/></clipPath><clipPath id="i"><path d="M1 183h320v1H1zm0 0"/></clipPath><clipPath id="j"><path d="M1 122h320v2H1zm0 0"/></clipPath><clipPath id="k"><path d="M1 61h320v2H1zm0 0"/></clipPath><clipPath id="l"><path d="M1 1.66h320V2H1zm0 0"/></clipPath></defs><path style="stroke:none;fill-rule:nonzero;fill:#fff;fill-opacity:1" d="M1 243.91h320V1.66H1zm0 0"/><g clip-path="url(#a)"><path style="fill:none;stroke-width:5.70714;stroke-linecap:round;stroke-linejoin:miter;stroke:#bfbfbf;stroke-opacity:1;stroke-miterlimit:10" d="M1997.503-211.163V-2636.7" transform="matrix(.10013 0 0 .09987 -39 265)"/></g><g clip-path="url(#b)"><path style="fill:none;stroke-width:5.70714;stroke-linecap:round;stroke-linejoin:miter;stroke:#bfbfbf;stroke-opacity:1;stroke-miterlimit:10" d="M399.5-1423.931h3196.006" transform="matrix(.10013 0 0 .09987 -39 265)"/></g><g clip-path="url(#c)"><path style="fill:none;stroke-width:5.70714;stroke-linecap:round;stroke-linejoin:miter;stroke:#bfbfbf;stroke-opacity:1;stroke-dasharray:11.4143,17.1214;stroke-miterlimit:10" d="M399.5-211.163V-2636.7" transform="matrix(.10013 0 0 .09987 -39 265)"/></g><g clip-path="url(#d)"><path style="fill:none;stroke-width:5.70714;stroke-linecap:round;stroke-linejoin:miter;stroke:#bfbfbf;stroke-opacity:1;stroke-dasharray:11.4143,17.1214;stroke-miterlimit:10" d="M1198.502-211.163V-2636.7" transform="matrix(.10013 0 0 .09987 -39 265)"/></g><g clip-path="url(#e)"><path style="fill:none;stroke-width:5.70714;stroke-linecap:round;stroke-linejoin:miter;stroke:#bfbfbf;stroke-opacity:1;stroke-dasharray:11.4143,17.1214;stroke-miterlimit:10" d="M1997.503-211.163V-2636.7" transform="matrix(.10013 0 0 .09987 -39 265)"/></g><g clip-path="url(#f)"><path style="fill:none;stroke-width:5.70714;stroke-linecap:round;stroke-linejoin:miter;stroke:#bfbfbf;stroke-opacity:1;stroke-dasharray:11.4143,17.1214;stroke-miterlimit:10" d="M2796.504-211.163V-2636.7" transform="matrix(.10013 0 0 .09987 -39 265)"/></g><g clip-path="url(#g)"><path style="fill:none;stroke-width:5.70714;stroke-linecap:round;stroke-linejoin:miter;stroke:#bfbfbf;stroke-opacity:1;stroke-dasharray:11.4143,17.1214;stroke-miterlimit:10" d="M3595.506-211.163V-2636.7" transform="matrix(.10013 0 0 .09987 -39 265)"/></g><g clip-path="url(#h)"><path style="fill:none;stroke-width:5.70714;stroke-linecap:round;stroke-linejoin:miter;stroke:#bfbfbf;stroke-opacity:1;stroke-dasharray:11.4143,17.1214;stroke-miterlimit:10" d="M399.5-211.163h3196.006" transform="matrix(.10013 0 0 .09987 -39 265)"/></g><g clip-path="url(#i)"><path style="fill:none;stroke-width:5.70714;stroke-linecap:round;stroke-linejoin:miter;stroke:#bfbfbf;stroke-opacity:1;stroke-dasharray:11.4143,17.1214;stroke-miterlimit:10" d="M399.5-817.547h3196.006" transform="matrix(.10013 0 0 .09987 -39 265)"/></g><g clip-path="url(#j)"><path style="fill:none;stroke-width:5.70714;stroke-linecap:round;stroke-linejoin:miter;stroke:#bfbfbf;stroke-opacity:1;stroke-dasharray:11.4143,17.1214;stroke-miterlimit:10" d="M399.5-1423.931h3196.006" transform="matrix(.10013 0 0 .09987 -39 265)"/></g><g clip-path="url(#k)"><path style="fill:none;stroke-width:5.70714;stroke-linecap:round;stroke-linejoin:miter;stroke:#bfbfbf;stroke-opacity:1;stroke-dasharray:11.4143,17.1214;stroke-miterlimit:10" d="M399.5-2030.315h3196.006" transform="matrix(.10013 0 0 .09987 -39 265)"/></g><g clip-path="url(#l)"><path style="fill:none;stroke-width:5.70714;stroke-linecap:round;stroke-linejoin:miter;stroke:#bfbfbf;stroke-opacity:1;stroke-dasharray:11.4143,17.1214;stroke-miterlimit:10" d="M399.5-2636.7h3196.006" transform="matrix(.10013 0 0 .09987 -39 265)"/></g><path style="fill:none;stroke-width:11.4143;stroke-linecap:square;stroke-linejoin:miter;stroke:#000;stroke-opacity:1;stroke-miterlimit:10" d="M399.5-211.163h3196.006" transform="matrix(.10013 0 0 .09987 -39 265)"/><path style="fill:none;stroke-width:5.70714;stroke-linecap:butt;stroke-linejoin:miter;stroke:#000;stroke-opacity:1;stroke-miterlimit:10" d="M399.5-211.163v-45.643m0 45.643v-22.84m79.9 22.84v-22.84m79.9 22.84v-22.84m79.901 22.84v-22.84m79.9 22.84v-22.84m79.9 22.84v-22.84m79.9 22.84v-22.84m79.9 22.84v-22.84m79.901 22.84v-22.84m159.8 22.84v-45.643m0 45.643v-22.84m79.9 22.84v-22.84m79.9 22.84v-22.84m79.9 22.84v-22.84m79.9 22.84v-22.84m79.9 22.84v-22.84m79.901 22.84v-22.84m79.9 22.84v-22.84m79.9 22.84v-22.84m159.8 22.84v-45.643m0 45.643v-22.84m79.9 22.84v-22.84m79.9 22.84v-22.84m79.9 22.84v-22.84m79.901 22.84v-22.84m79.9 22.84v-22.84m79.9 22.84v-22.84m79.9 22.84v-22.84m79.9 22.84v-22.84m159.8 22.84v-45.643m0 45.643v-22.84m79.9 22.84v-22.84m79.901 22.84v-22.84m79.9 22.84v-22.84m79.9 22.84v-22.84m79.9 22.84v-22.84m79.9 22.84v-22.84m79.9 22.84v-22.84m79.9 22.84v-22.84m159.801 22.84v-45.643m0 45.643v-22.84" transform="matrix(.10013 0 0 .09987 -39 265)"/><path style="fill:none;stroke-width:11.4143;stroke-linecap:square;stroke-linejoin:miter;stroke:#000;stroke-opacity:1;stroke-miterlimit:10" d="M399.5-2636.7h3196.006" transform="matrix(.10013 0 0 .09987 -39 265)"/><path style="fill:none;stroke-width:5.70714;stroke-linecap:butt;stroke-linejoin:miter;stroke:#000;stroke-opacity:1;stroke-miterlimit:10" d="M399.5-2636.7v45.643m0-45.643v22.842m79.9-22.842v22.842m79.9-22.842v22.842m79.901-22.842v22.842m79.9-22.842v22.842m79.9-22.842v22.842m79.9-22.842v22.842m79.9-22.842v22.842m79.901-22.842v22.842m159.8-22.842v45.643m0-45.643v22.842m79.9-22.842v22.842m79.9-22.842v22.842m79.9-22.842v22.842m79.9-22.842v22.842m79.9-22.842v22.842m79.901-22.842v22.842m79.9-22.842v22.842m79.9-22.842v22.842m159.8-22.842v45.643m0-45.643v22.842m79.9-22.842v22.842m79.9-22.842v22.842m79.9-22.842v22.842m79.901-22.842v22.842m79.9-22.842v22.842m79.9-22.842v22.842m79.9-22.842v22.842m79.9-22.842v22.842m159.8-22.842v45.643m0-45.643v22.842m79.9-22.842v22.842m79.901-22.842v22.842m79.9-22.842v22.842m79.9-22.842v22.842m79.9-22.842v22.842m79.9-22.842v22.842m79.9-22.842v22.842m79.9-22.842v22.842m159.801-22.842v45.643m0-45.643v22.842" transform="matrix(.10013 0 0 .09987 -39 265)"/><path style="fill:none;stroke-width:11.4143;stroke-linecap:square;stroke-linejoin:miter;stroke:#000;stroke-opacity:1;stroke-miterlimit:10" d="M399.5-211.163V-2636.7" transform="matrix(.10013 0 0 .09987 -39 265)"/><path style="fill:none;stroke-width:5.70714;stroke-linecap:butt;stroke-linejoin:miter;stroke:#000;stroke-opacity:1;stroke-miterlimit:10" d="M399.5-211.163h45.647m-45.647 0h22.824M399.5-271.786h22.824M399.5-332.447h22.824M399.5-393.07h22.824M399.5-453.732h22.824M399.5-514.355h22.824M399.5-574.978h22.824M399.5-635.64h22.824M399.5-696.262h22.824M399.5-817.547h45.647m-45.647 0h22.824M399.5-878.17h22.824M399.5-938.832h22.824M399.5-999.454h22.824m-22.824-60.662h22.824M399.5-1120.74h22.824m-22.824-60.622h22.824m-22.824-60.662h22.824m-22.824-60.623h22.824M399.5-1423.931h45.647m-45.647 0h22.824m-22.824-60.623h22.824m-22.824-60.662h22.824m-22.824-60.623h22.824m-22.824-60.622h22.824m-22.824-60.662h22.824m-22.824-60.623h22.824m-22.824-60.662h22.824M399.5-1909.03h22.824M399.5-2030.315h45.647m-45.647 0h22.824m-22.824-60.623h22.824M399.5-2151.6h22.824m-22.824-60.623h22.824m-22.824-60.662h22.824m-22.824-60.622h22.824M399.5-2394.17h22.824m-22.824-60.622h22.824m-22.824-60.623h22.824M399.5-2636.7h45.647m-45.647 0h22.824" transform="matrix(.10013 0 0 .09987 -39 265)"/><path style="fill:none;stroke-width:11.4143;stroke-linecap:square;stroke-linejoin:miter;stroke:#000;stroke-opacity:1;stroke-miterlimit:10" d="M3595.506-211.163V-2636.7" transform="matrix(.10013 0 0 .09987 -39 265)"/><path style="fill:none;stroke-width:5.70714;stroke-linecap:butt;stroke-linejoin:miter;stroke:#000;stroke-opacity:1;stroke-miterlimit:10" d="M3595.506-211.163h-45.685m45.685 0h-22.823m22.823-60.623h-22.823m22.823-60.661h-22.823m22.823-60.623h-22.823m22.823-60.662h-22.823m22.823-60.623h-22.823m22.823-60.623h-22.823m22.823-60.662h-22.823m22.823-60.622h-22.823m22.823-121.285h-45.685m45.685 0h-22.823m22.823-60.623h-22.823m22.823-60.662h-22.823m22.823-60.622h-22.823m22.823-60.662h-22.823m22.823-60.624h-22.823m22.823-60.622h-22.823m22.823-60.662h-22.823m22.823-60.623h-22.823m22.823-121.284h-45.685m45.685 0h-22.823m22.823-60.623h-22.823m22.823-60.662h-22.823m22.823-60.623h-22.823m22.823-60.622h-22.823m22.823-60.662h-22.823m22.823-60.623h-22.823m22.823-60.662h-22.823m22.823-60.622h-22.823m22.823-121.285h-45.685m45.685 0h-22.823m22.823-60.623h-22.823m22.823-60.662h-22.823m22.823-60.623h-22.823m22.823-60.662h-22.823m22.823-60.622h-22.823m22.823-60.663h-22.823m22.823-60.622h-22.823m22.823-60.623h-22.823m22.823-121.285h-45.685m45.685 0h-22.823" transform="matrix(.10013 0 0 .09987 -39 265)"/><path style="fill:none;stroke-width:11.4143;stroke-linecap:round;stroke-linejoin:miter;stroke:#00f;stroke-opacity:1;stroke-miterlimit:10" d="m511.431-406.525 66.674 170.214m-28.441-25.619 28.441 25.619 3.473-38.134m-97.847-352.59 122.074 170.213m-33.864-17.835 33.864 17.835-6.047-37.782m-72.37-352.942 34.76 170.214m-23.641-30.116 23.642 30.116 9.91-36.96m19.311-353.764-93.204 170.252m1.444-38.251-1.444 38.251 31.445-21.824m71.279-368.899-112.204 170.213m4.526-38.016-4.526 38.016 33.123-19.165m22.979-371.559v170.213m-17.128-34.261 17.128 34.261 17.088-34.261m-73.19-356.462 112.204 170.213m-33.162-19.165 33.162 19.165-4.565-38.016m-98.159-352.708 93.204 170.213m-31.445-21.784 31.445 21.784-1.404-38.25m-27.817-352.474-34.761 170.214m-9.91-36.96 9.91 36.96 23.642-30.116m54.775-360.568-122.074 170.213m6.047-37.821-6.047 37.82 33.864-17.873m60.51-372.849-66.674 170.212m-3.472-38.133 3.472 38.133 28.441-25.657M801.966-389.511l66.714 136.186m-30.47-23.232 30.47 23.232.312-38.29m-94.725-318.367L896.38-473.835m-35.62-14.081 35.62 14.08-10.105-36.92m-68.352-319.737 34.761 136.147m-25.047-28.942 25.047 28.942 8.115-37.39m21.145-319.267-93.242 136.147m5.228-37.899-5.228 37.899 33.473-18.578m69.25-338.08L779.22-1135.367m8.545-37.313-8.544 37.313 34.996-15.527m21.106-341.13v136.186m-17.127-34.262 17.127 34.262 17.127-34.262m-73.229-322.435 112.204 136.186m-34.995-15.527 34.995 15.527-8.583-37.312m-94.14-319.384 93.242 136.186m-33.474-18.578 33.474 18.578-5.227-37.938m-24.033-318.72-34.761 136.148m-8.115-37.391 8.115 37.39 25.086-28.942m53.371-327.715-122.113 136.186m10.104-36.96-10.104 36.96 35.62-14.08m58.793-342.616-66.714 136.186m-.312-38.29.312 38.29 30.431-23.233m260.105 2109.086 66.713 102.16m-33.084-19.322 33.084 19.322-4.409-38.056m-90.004-284.575 122.113 102.12m-37.258-8.839 37.258 8.84-15.294-35.123m-63.124-287.509 34.761 102.12m-27.27-26.908 27.27 26.909 5.15-37.938m24.072-284.693-93.243 102.12m10.456-36.843-10.456 36.843 35.736-13.728m66.987-308.902-112.203 102.159m13.81-35.749-13.81 35.749 36.868-10.404m19.233-312.265v102.158m-17.127-34.261 17.127 34.261 17.127-34.261m-73.228-288.369 112.203 102.12m-36.829-10.404 36.829 10.404-13.772-35.709m-88.951-286.922 93.243 102.12m-35.737-13.727 35.737 13.727-10.456-36.843m-18.766-285.787-34.76 102.12m-5.19-37.938 5.19 37.938 27.23-26.909m51.187-295.721-122.113 102.12m15.293-35.083-15.293 35.083 37.258-8.84m57.155-313.791-66.713 102.16m4.408-38.056-4.408 38.055 33.083-19.32m257.491 2139.24 66.674 68.054m-36.204-12.477 36.204 12.477-11.743-36.413m-82.631-252.151 122.074 68.093m-38.233-1.76 38.233 1.76-21.575-31.642m-56.843-256.962 34.762 68.093m-30.821-22.724 30.82 22.724-.311-38.29m29.533-250.313-93.243 68.093m17.595-34.027-17.595 34.027 37.765-6.375m64.958-282.229-112.203 68.093m20.404-32.384-20.404 32.384 38.155-3.129m17.947-285.474v68.093m-17.088-34.223 17.088 34.223 17.127-34.223m-73.229-254.342 112.203 68.093m-38.155-3.128 38.155 3.128-20.365-32.423m-82.358-256.181 93.243 68.094m-37.726-6.375 37.726 6.375-17.556-34.027m-11.665-254.577-34.762 68.094m.313-38.291-.313 38.29 30.821-22.723M1477.45-2340l-122.074 68.093m21.536-31.641-21.536 31.641 38.234-1.72m56.14-286.844-66.674 68.054m11.704-36.453-11.704 36.453 36.166-12.477m254.369 2166.462 66.675 34.027m-38.273-.312 38.273.312-22.706-30.82m-71.669-223.717 122.113 34.027m-37.609 7.314 37.61-7.314-28.403-25.657m-50.054-228.88 34.761 34.066m-36.439-11.734 36.439 11.734-12.484-36.218m41.745-218.359-93.244 34.066m26.296-27.847-26.296 27.847 38.039 4.342m64.685-258.879-112.204 34.027m27.778-26.323-27.778 26.323 37.726 6.453m18.376-260.991v34.027m-17.128-34.262 17.128 34.262 17.127-34.261m-73.229-220.276 112.204 34.027m-37.766 6.453 37.766-6.453-27.817-26.322m-74.907-228.216 93.243 34.027m-38.077 4.342 38.077-4.342-26.295-27.808m-2.965-226.729-34.761 34.027m12.484-36.178-12.484 36.178 36.439-11.694m42.017-242.844-122.113 34.067m28.363-25.697-28.363 25.697 37.57 7.274m56.805-261.812-66.675 34.027m22.706-30.819-22.706 30.82 38.273-.314m252.262 2188.326h66.714m-34.254 17.131 34.254-17.131-34.254-17.13m-60.159-203.38h122.113m-34.254 17.13 34.254-17.13-34.254-17.131m-44.203-203.38h34.761m-34.214 17.131 34.214-17.13-34.215-17.093m63.476-203.379h-93.243m34.254-17.131-34.254 17.13 34.254 17.092m68.469-237.601H1941.4m34.255-17.132-34.254 17.131 34.254 17.092m-34.254-458.113h112.204m-34.255 17.132 34.255-17.132-34.254-17.13m-68.469-203.38h93.243m-34.255 17.131 34.255-17.131-34.255-17.092m4.994-203.379h-34.761m34.254-17.131-34.254 17.13 34.254 17.092m44.203-237.602h-122.113m34.253-17.131-34.253 17.131 34.254 17.092m60.159-237.602h-66.714m34.254-17.131-34.254 17.13 34.254 17.131m256.282 2204.909 66.713-34.027m-22.705 30.82 22.705-30.82-38.272.313m-56.141-186.796 122.113-34.027m-28.402 25.696 28.402-25.696-37.57-7.275m-40.848-179.169 34.762-34.066m-12.485 36.178 12.485-36.178-36.478 11.733m65.699-198.178-93.204-34.066m37.999-4.302-37.999 4.302 26.256 27.847m76.428-214.291-112.203-34.027m37.726-6.454-37.726 6.454 27.816 26.322m28.285-212.806v-34.027m17.127 34.223-17.127-34.223-17.127 34.223m-38.974-220.706 112.203-34.027m-27.778 26.322 27.778-26.322-37.726-6.454m-64.958-180.03 93.204-34.027m-26.295 27.848 26.295-27.848-38.039-4.341m8.818-182.143-34.762-34.026m36.439 11.733-36.439-11.733 12.485 36.217m65.933-222.661-122.113-34.067m37.609-7.274-37.61 7.274 28.403 25.697m66.011-212.14-66.713-34.028m38.311.313-38.311-.313 22.745 30.82m267.829 2225.247 66.674-68.054m-11.704 36.413 11.704-36.413-36.204 12.477m-58.17-164.894 122.074-68.093m-21.574 31.641 21.574-31.641-38.233 1.72m-40.184-154.138 34.76-68.093m-.311 38.29.312-38.29-30.821 22.724m60.042-175.141-93.204-68.093m37.727 6.375-37.727-6.375 17.556 34.027m85.167-186.445-112.242-68.093m38.194 3.129-38.194-3.129 20.404 32.424m35.698-184.841v-68.093m17.126 34.261-17.126-34.261-17.088 34.261m-39.014-186.64 112.242-68.093m-20.404 32.385 20.404-32.385-38.155 3.09m-64.568-155.507 93.204-68.093m-17.556 34.027 17.556-34.027-37.726 6.375m8.505-158.792-34.761-68.094m30.82 22.724-30.82-22.724.312 38.29m78.105-190.707L2517.556-2340m38.234 1.72-38.234-1.72 21.536 31.641m72.838-184.058-66.674-68.054m36.166 12.476-36.166-12.476 11.743 36.412m278.792 2253.721 66.675-102.16m-4.37 38.056 4.37-38.056-33.045 19.321m-61.33-137.672 122.113-102.12m-15.293 35.083 15.293-35.083-37.258 8.84m-41.198-127.231 34.761-102.12m5.189 37.939-5.189-37.938-27.232 26.908m56.493-145.299-93.243-102.12m35.736 13.767-35.736-13.767 10.455 36.843m92.268-155.194-112.204-102.16m36.829 10.404-36.829-10.403 13.811 35.708m42.291-154.06v-102.159m17.127 34.261-17.127-34.26-17.127 34.26m-38.975-152.612 112.204-102.12m-13.811 35.709 13.81-35.71-36.867 10.365m-65.855-128.755 93.242-102.12m-10.455 36.804 10.455-36.804-35.736 13.729m6.477-132.119-34.762-102.12m27.27 26.909-27.27-26.909-5.15 37.938m83.606-156.328-122.113-102.12m37.259 8.839-37.259-8.84 15.294 35.123m79.081-153.474-66.675-102.159m33.045 19.321-33.045-19.32 4.37 38.055m286.165 2286.143 66.714-136.186m.312 38.29-.312-38.29-30.43 23.232m-63.983-107.556 122.113-136.147m-10.105 36.921 10.105-36.921-35.62 14.04m-42.798-98.404 34.722-136.147m8.154 37.391-8.154-37.39-25.046 28.942m54.307-113.306-93.243-136.147m33.474 18.578-33.474-18.578 5.228 37.899m97.495-122.263-112.204-136.147m34.996 15.527-34.996-15.527 8.544 37.313m47.558-121.637v-136.186m17.127 34.261-17.127-34.261-17.127 34.261m-38.975-118.586 112.204-136.186m-8.583 37.313 8.583-37.313-34.995 15.567m-67.728-99.891 93.243-136.186m-5.228 37.938 5.228-37.938-33.474 18.617m4.213-102.942-34.722-136.147m25.047 28.943-25.047-28.943-8.115 37.391m86.533-121.714-122.113-136.187m35.619 14.041-35.62-14.041 10.105 36.921m84.309-121.245-66.714-136.186m30.431 23.232-30.43-23.232-.313 38.29M3416.9-236.311l66.675-170.214m3.472 38.135-3.472-38.135-28.44 25.658m-65.973-75.955 122.113-170.213m-6.047 37.821 6.047-37.821-33.864 17.835m-44.554-68.132 34.762-170.214m9.909 37-9.91-37-23.642 30.155m52.864-80.413-93.204-170.252m31.445 21.824-31.445-21.824 1.405 38.29m101.279-88.548-112.203-170.213m33.161 19.164-33.161-19.164 4.564 38.016m51.537-88.314v-170.213m17.128 34.223-17.128-34.223-17.127 34.223m-38.974-84.52 112.203-170.213m-4.525 38.016 4.525-38.016-33.122 19.164m-69.562-69.462 93.204-170.213m-1.444 38.251 1.444-38.25-31.484 21.824m2.263-72.122-34.762-170.213m23.603 30.155-23.603-30.155-9.91 37m88.328-87.258-122.113-170.213m33.903 17.834-33.903-17.834 6.086 37.781m88.327-88.079-66.674-170.213m28.402 25.618-28.402-25.618-3.472 38.134" transform="matrix(.10013 0 0 .09987 -39 265)"/></svg>