<svg xmlns="http://www.w3.org/2000/svg" xmlns:xlink="http://www.w3.org/1999/xlink" width="344pt" height="260pt" viewBox="0 0 344 260"><defs><clipPath id="a"><path d="M171 7.66h2v242.25h-2zm0 0"/></clipPath><clipPath id="b"><path d="M12 128h320v2H12zm0 0"/></clipPath><clipPath id="c"><path d="M12 7.66h1v242.25h-1zm0 0"/></clipPath><clipPath id="d"><path d="M91 7.66h2v242.25h-2zm0 0"/></clipPath><clipPath id="e"><path d="M171 7.66h2v242.25h-2zm0 0"/></clipPath><clipPath id="f"><path d="M251 7.66h2v242.25h-2zm0 0"/></clipPath><clipPath id="g"><path d="M331 7.66h1v242.25h-1zm0 0"/></clipPath><clipPath id="h"><path d="M12 249h320v.91H12zm0 0"/></clipPath><clipPath id="i"><path d="M12 189h320v1H12zm0 0"/></clipPath><clipPath id="j"><path d="M12 128h320v2H12zm0 0"/></clipPath><clipPath id="k"><path d="M12 67h320v2H12zm0 0"/></clipPath><clipPath id="l"><path d="M12 7.66h320V8H12zm0 0"/></clipPath><clipPath id="q"><path d="M12 25h112v224.91H12zm0 0"/></clipPath><clipPath id="r"><path d="M12 19h320v84H12zm0 0"/></clipPath><clipPath id="s"><path d="M154 80h178v134H154zm0 0"/></clipPath><clipPath id="t"><path d="M57 165h133v84.91H57zm0 0"/></clipPath><symbol overflow="visible" id="m"><path style="stroke:none" d="M1.953-2.14H.313v.5h1.64zm0 0"/></symbol><symbol overflow="visible" id="n"><path style="stroke:none" d="M3.469-.594H.906c.063-.406.281-.656.89-1l.673-.375c.687-.36 1.031-.86 1.031-1.453 0-.406-.156-.781-.453-1.047-.281-.265-.64-.39-1.094-.39-.625 0-1.078.218-1.344.64-.171.25-.25.563-.265 1.047h.61c.015-.328.062-.531.14-.687a.94.94 0 0 1 .828-.47c.547 0 .969.391.969.907 0 .39-.235.719-.657.969l-.64.36C.578-1.532.28-1.064.234 0H3.47zm0 0"/></symbol><symbol overflow="visible" id="o"><path style="stroke:none" d="M1.781-3.453V0h.594v-4.86h-.39c-.22.75-.36.86-1.282.97v.437zm0 0"/></symbol><symbol overflow="visible" id="p"><path style="stroke:none" d="M1.89-4.86c-.452 0-.874.204-1.124.548-.313.421-.47 1.062-.47 1.968 0 1.625.548 2.5 1.595 2.5 1.03 0 1.593-.875 1.593-2.469 0-.937-.156-1.562-.484-2a1.355 1.355 0 0 0-1.11-.546zm0 .548c.641 0 .97.656.97 1.953 0 1.375-.313 2.015-.985 2.015-.64 0-.969-.672-.969-2 0-1.328.328-1.969.985-1.969zm0 0"/></symbol></defs><path style="stroke:none;fill-rule:nonzero;fill:#fff;fill-opacity:1" d="M12 249.91h320V7.66H12zm0 0"/><g clip-path="url(#a)"><path style="fill:none;stroke-width:5.70714;stroke-linecap:round;stroke-linejoin:miter;stroke:#bfbfbf;stroke-opacity:1;stroke-miterlimit:10" d="M1997.503-211.163V-2636.7" transform="matrix(.10013 0 0 .09987 -28 271)"/></g><g clip-path="url(#b)"><path style="fill:none;stroke-width:5.70714;stroke-linecap:round;stroke-linejoin:miter;stroke:#bfbfbf;stroke-opacity:1;stroke-miterlimit:10" d="M399.5-1423.931h3196.006" transform="matrix(.10013 0 0 .09987 -28 271)"/></g><g clip-path="url(#c)"><path style="fill:none;stroke-width:5.70714;stroke-linecap:round;stroke-linejoin:miter;stroke:#bfbfbf;stroke-opacity:1;stroke-dasharray:11.4143,17.1214;stroke-miterlimit:10" d="M399.5-211.163V-2636.7" transform="matrix(.10013 0 0 .09987 -28 271)"/></g><g clip-path="url(#d)"><path style="fill:none;stroke-width:5.70714;stroke-linecap:round;stroke-linejoin:miter;stroke:#bfbfbf;stroke-opacity:1;stroke-dasharray:11.4143,17.1214;stroke-miterlimit:10" d="M1198.502-211.163V-2636.7" transform="matrix(.10013 0 0 .09987 -28 271)"/></g><g clip-path="url(#e)"><path style="fill:none;stroke-width:5.70714;stroke-linecap:round;stroke-linejoin:miter;stroke:#bfbfbf;stroke-opacity:1;stroke-dasharray:11.4143,17.1214;stroke-miterlimit:10" d="M1997.503-211.163V-2636.7" transform="matrix(.10013 0 0 .09987 -28 271)"/></g><g clip-path="url(#f)"><path style="fill:none;stroke-width:5.70714;stroke-linecap:round;stroke-linejoin:miter;stroke:#bfbfbf;stroke-opacity:1;stroke-dasharray:11.4143,17.1214;stroke-miterlimit:10" d="M2796.504-211.163V-2636.7" transform="matrix(.10013 0 0 .09987 -28 271)"/></g><g clip-path="url(#g)"><path style="fill:none;stroke-width:5.70714;stroke-linecap:round;stroke-linejoin:miter;stroke:#bfbfbf;stroke-opacity:1;stroke-dasharray:11.4143,17.1214;stroke-miterlimit:10" d="M3595.506-211.163V-2636.7" transform="matrix(.10013 0 0 .09987 -28 271)"/></g><g clip-path="url(#h)"><path style="fill:none;stroke-width:5.70714;stroke-linecap:round;stroke-linejoin:miter;stroke:#bfbfbf;stroke-opacity:1;stroke-dasharray:11.4143,17.1214;stroke-miterlimit:10" d="M399.5-211.163h3196.006" transform="matrix(.10013 0 0 .09987 -28 271)"/></g><g clip-path="url(#i)"><path style="fill:none;stroke-width:5.70714;stroke-linecap:round;stroke-linejoin:miter;stroke:#bfbfbf;stroke-opacity:1;stroke-dasharray:11.4143,17.1214;stroke-miterlimit:10" d="M399.5-817.547h3196.006" transform="matrix(.10013 0 0 .09987 -28 271)"/></g><g clip-path="url(#j)"><path style="fill:none;stroke-width:5.70714;stroke-linecap:round;stroke-linejoin:miter;stroke:#bfbfbf;stroke-opacity:1;stroke-dasharray:11.4143,17.1214;stroke-miterlimit:10" d="M399.5-1423.931h3196.006" transform="matrix(.10013 0 0 .09987 -28 271)"/></g><g clip-path="url(#k)"><path style="fill:none;stroke-width:5.70714;stroke-linecap:round;stroke-linejoin:miter;stroke:#bfbfbf;stroke-opacity:1;stroke-dasharray:11.4143,17.1214;stroke-miterlimit:10" d="M399.5-2030.315h3196.006" transform="matrix(.10013 0 0 .09987 -28 271)"/></g><g clip-path="url(#l)"><path style="fill:none;stroke-width:5.70714;stroke-linecap:round;stroke-linejoin:miter;stroke:#bfbfbf;stroke-opacity:1;stroke-dasharray:11.4143,17.1214;stroke-miterlimit:10" d="M399.5-2636.7h3196.006" transform="matrix(.10013 0 0 .09987 -28 271)"/></g><path style="fill:none;stroke-width:11.4143;stroke-linecap:square;stroke-linejoin:miter;stroke:#000;stroke-opacity:1;stroke-miterlimit:10" d="M399.5-211.163h3196.006" transform="matrix(.10013 0 0 .09987 -28 271)"/><path style="fill:none;stroke-width:5.70714;stroke-linecap:butt;stroke-linejoin:miter;stroke:#000;stroke-opacity:1;stroke-miterlimit:10" d="M399.5-211.163v-45.643m0 45.643v-22.84m79.9 22.84v-22.84m79.9 22.84v-22.84m79.901 22.84v-22.84m79.9 22.84v-22.84m79.9 22.84v-22.84m79.9 22.84v-22.84m79.9 22.84v-22.84m79.901 22.84v-22.84m159.8 22.84v-45.643m0 45.643v-22.84m79.9 22.84v-22.84m79.9 22.84v-22.84m79.9 22.84v-22.84m79.9 22.84v-22.84m79.9 22.84v-22.84m79.901 22.84v-22.84m79.9 22.84v-22.84m79.9 22.84v-22.84m159.8 22.84v-45.643m0 45.643v-22.84m79.9 22.84v-22.84m79.9 22.84v-22.84m79.9 22.84v-22.84m79.901 22.84v-22.84m79.9 22.84v-22.84m79.9 22.84v-22.84m79.9 22.84v-22.84m79.9 22.84v-22.84m159.8 22.84v-45.643m0 45.643v-22.84m79.9 22.84v-22.84m79.901 22.84v-22.84m79.9 22.84v-22.84m79.9 22.84v-22.84m79.9 22.84v-22.84m79.9 22.84v-22.84m79.9 22.84v-22.84m79.9 22.84v-22.84m159.801 22.84v-45.643m0 45.643v-22.84" transform="matrix(.10013 0 0 .09987 -28 271)"/><g style="fill:#000;fill-opacity:1"><use xlink:href="#m" x="8.952" y="259.03"/><use xlink:href="#n" x="11.236" y="259.03"/></g><g style="fill:#000;fill-opacity:1"><use xlink:href="#m" x="88.953" y="259.03"/><use xlink:href="#o" x="91.236" y="259.03"/></g><use xlink:href="#p" x="170.094" y="259.03" style="fill:#000;fill-opacity:1"/><use xlink:href="#o" x="249.524" y="259.03" style="fill:#000;fill-opacity:1"/><use xlink:href="#n" x="330.095" y="259.03" style="fill:#000;fill-opacity:1"/><path style="fill:none;stroke-width:11.4143;stroke-linecap:square;stroke-linejoin:miter;stroke:#000;stroke-opacity:1;stroke-miterlimit:10" d="M399.5-2636.7h3196.006" transform="matrix(.10013 0 0 .09987 -28 271)"/><path style="fill:none;stroke-width:5.70714;stroke-linecap:butt;stroke-linejoin:miter;stroke:#000;stroke-opacity:1;stroke-miterlimit:10" d="M399.5-2636.7v45.643m0-45.643v22.842m79.9-22.842v22.842m79.9-22.842v22.842m79.901-22.842v22.842m79.9-22.842v22.842m79.9-22.842v22.842m79.9-22.842v22.842m79.9-22.842v22.842m79.901-22.842v22.842m159.8-22.842v45.643m0-45.643v22.842m79.9-22.842v22.842m79.9-22.842v22.842m79.9-22.842v22.842m79.9-22.842v22.842m79.9-22.842v22.842m79.901-22.842v22.842m79.9-22.842v22.842m79.9-22.842v22.842m159.8-22.842v45.643m0-45.643v22.842m79.9-22.842v22.842m79.9-22.842v22.842m79.9-22.842v22.842m79.901-22.842v22.842m79.9-22.842v22.842m79.9-22.842v22.842m79.9-22.842v22.842m79.9-22.842v22.842m159.8-22.842v45.643m0-45.643v22.842m79.9-22.842v22.842m79.901-22.842v22.842m79.9-22.842v22.842m79.9-22.842v22.842m79.9-22.842v22.842m79.9-22.842v22.842m79.9-22.842v22.842m79.9-22.842v22.842m159.801-22.842v45.643m0-45.643v22.842" transform="matrix(.10013 0 0 .09987 -28 271)"/><g style="fill:#000;fill-opacity:1"><use xlink:href="#m" x="8.952" y="5.38"/><use xlink:href="#n" x="11.236" y="5.38"/></g><g style="fill:#000;fill-opacity:1"><use xlink:href="#m" x="88.953" y="5.38"/><use xlink:href="#o" x="91.236" y="5.38"/></g><use xlink:href="#p" x="170.094" y="5.38" style="fill:#000;fill-opacity:1"/><use xlink:href="#o" x="249.524" y="5.38" style="fill:#000;fill-opacity:1"/><use xlink:href="#n" x="330.095" y="5.38" style="fill:#000;fill-opacity:1"/><path style="fill:none;stroke-width:11.4143;stroke-linecap:square;stroke-linejoin:miter;stroke:#000;stroke-opacity:1;stroke-miterlimit:10" d="M399.5-211.163V-2636.7" transform="matrix(.10013 0 0 .09987 -28 271)"/><path style="fill:none;stroke-width:5.70714;stroke-linecap:butt;stroke-linejoin:miter;stroke:#000;stroke-opacity:1;stroke-miterlimit:10" d="M399.5-211.163h45.647m-45.647 0h22.824M399.5-271.786h22.824M399.5-332.447h22.824M399.5-393.07h22.824M399.5-453.732h22.824M399.5-514.355h22.824M399.5-574.978h22.824M399.5-635.64h22.824M399.5-696.262h22.824M399.5-817.547h45.647m-45.647 0h22.824M399.5-878.17h22.824M399.5-938.832h22.824M399.5-999.454h22.824m-22.824-60.662h22.824M399.5-1120.74h22.824m-22.824-60.622h22.824m-22.824-60.662h22.824m-22.824-60.623h22.824M399.5-1423.931h45.647m-45.647 0h22.824m-22.824-60.623h22.824m-22.824-60.662h22.824m-22.824-60.623h22.824m-22.824-60.622h22.824m-22.824-60.662h22.824m-22.824-60.623h22.824m-22.824-60.662h22.824M399.5-1909.03h22.824M399.5-2030.315h45.647m-45.647 0h22.824m-22.824-60.623h22.824M399.5-2151.6h22.824m-22.824-60.623h22.824m-22.824-60.662h22.824m-22.824-60.622h22.824M399.5-2394.17h22.824m-22.824-60.622h22.824m-22.824-60.623h22.824M399.5-2636.7h45.647m-45.647 0h22.824" transform="matrix(.10013 0 0 .09987 -28 271)"/><g style="fill:#000;fill-opacity:1"><use xlink:href="#m" x=".19" y="253.33"/><use xlink:href="#n" x="2.474" y="253.33"/></g><g style="fill:#000;fill-opacity:1"><use xlink:href="#m" x=".19" y="192.34"/><use xlink:href="#o" x="2.474" y="192.34"/></g><use xlink:href="#p" x="2.473" y="131.92" style="fill:#000;fill-opacity:1"/><use xlink:href="#o" x="2.473" y="71.5" style="fill:#000;fill-opacity:1"/><use xlink:href="#n" x="2.473" y="11.08" style="fill:#000;fill-opacity:1"/><path style="fill:none;stroke-width:11.4143;stroke-linecap:square;stroke-linejoin:miter;stroke:#000;stroke-opacity:1;stroke-miterlimit:10" d="M3595.506-211.163V-2636.7" transform="matrix(.10013 0 0 .09987 -28 271)"/><path style="fill:none;stroke-width:5.70714;stroke-linecap:butt;stroke-linejoin:miter;stroke:#000;stroke-opacity:1;stroke-miterlimit:10" d="M3595.506-211.163h-45.685m45.685 0h-22.823m22.823-60.623h-22.823m22.823-60.661h-22.823m22.823-60.623h-22.823m22.823-60.662h-22.823m22.823-60.623h-22.823m22.823-60.623h-22.823m22.823-60.662h-22.823m22.823-60.622h-22.823m22.823-121.285h-45.685m45.685 0h-22.823m22.823-60.623h-22.823m22.823-60.662h-22.823m22.823-60.622h-22.823m22.823-60.662h-22.823m22.823-60.624h-22.823m22.823-60.622h-22.823m22.823-60.662h-22.823m22.823-60.623h-22.823m22.823-121.284h-45.685m45.685 0h-22.823m22.823-60.623h-22.823m22.823-60.662h-22.823m22.823-60.623h-22.823m22.823-60.622h-22.823m22.823-60.662h-22.823m22.823-60.623h-22.823m22.823-60.662h-22.823m22.823-60.622h-22.823m22.823-121.285h-45.685m45.685 0h-22.823m22.823-60.623h-22.823m22.823-60.662h-22.823m22.823-60.623h-22.823m22.823-60.662h-22.823m22.823-60.622h-22.823m22.823-60.663h-22.823m22.823-60.622h-22.823m22.823-60.623h-22.823m22.823-121.285h-45.685m45.685 0h-22.823" transform="matrix(.10013 0 0 .09987 -28 271)"/><g style="fill:#000;fill-opacity:1"><use xlink:href="#m" x="337.714" y="253.33"/><use xlink:href="#n" x="339.997" y="253.33"/></g><g style="fill:#000;fill-opacity:1"><use xlink:href="#m" x="337.714" y="192.34"/><use xlink:href="#o" x="339.997" y="192.34"/></g><use xlink:href="#p" x="337.714" y="131.92" style="fill:#000;fill-opacity:1"/><use xlink:href="#o" x="337.714" y="71.5" style="fill:#000;fill-opacity:1"/><use xlink:href="#n" x="337.714" y="11.08" style="fill:#000;fill-opacity:1"/><path style="fill:none;stroke-width:5.70714;stroke-linecap:round;stroke-linejoin:miter;stroke:#00f;stroke-opacity:1;stroke-miterlimit:10" d="m482.405-274.993-6.008 6.375m11.041-36.647-11.041 36.647 35.931-13.18M482.21-396.277l-5.618 6.375m9.753-37-9.753 37 35.463-14.393m-30.079-113.228-5.15 6.336m8.193-37.39-8.193 37.39 34.84-15.88m-29.963-111.741-4.604 6.376m6.242-37.782-6.242 37.782 33.98-17.679M481.43-760.092l-4.058 6.375m3.979-38.095-3.979 38.095 32.85-19.673m-29.105-107.987-3.433 6.375m1.21-38.251-1.21 38.251 31.328-21.98m-28.246-105.68-2.77 6.376m-2.028-38.212 2.028 38.212 29.378-24.562m-26.959-103.098-2.029 6.375m-5.852-37.821 5.852 37.82 26.764-27.377m-25.125-100.243-1.248 6.375m-10.144-36.921 10.144 36.921 23.447-30.272m-22.589-97.387-.468 6.375m-14.747-35.357 14.747 35.357 19.429-33.01m-19.429-94.65.468 6.375m-19.507-32.971 19.507 32.971 14.669-35.357m-15.605-92.303 1.404 6.375m-24.033-29.803 24.033 29.803 9.441-37.077m-11.314-90.543 2.341 6.336m-27.973-26.088 27.973 26.088 4.097-38.056m-6.984-89.565 3.433 6.375m-31.289-22.098 31.29 22.098-1.093-38.29m-2.887-89.369 4.526 6.375m-33.786-18.07 33.786 18.07-5.814-37.86m.703-89.8 5.696 6.375m-35.581-14.237 35.58 14.237-9.948-36.96m3.668-90.7 6.866 6.375m-36.751-10.755 36.751 10.755-13.46-35.826m5.969-91.834 8.115 6.376m-37.492-7.666 37.492 7.666-16.347-34.614m7.569-93.007 9.441 6.375m-37.96-5.006 37.96 5.006-18.804-33.401m8.7-94.259 10.768 6.375m-38.195-2.698 38.195 2.698-20.756-32.188M641.932-274.64l-5.462 5.67m11.392-36.53-11.392 36.53 36.049-12.789m-30.743-114.166-5.15 5.71m10.339-36.882-10.339 36.882 35.698-13.846M641.62-517.21l-4.838 5.71m9.012-37.234-9.012 37.234 35.19-15.136m-30.586-111.859-4.37 5.71m7.296-37.585-7.296 37.586 34.45-16.74M641.152-759.78l-3.902 5.71m5.15-37.937-5.15 37.938 33.435-18.656m-29.806-108.3-3.356 5.671m2.458-38.173-2.458 38.173 32.03-20.964m-29.026-105.992-2.691 5.71m-.82-38.29.82 38.29 30.157-23.623m-27.778-103.371-2.028 5.71m-4.76-37.977 4.76 37.977 27.543-26.635m-25.905-100.36-1.248 5.71m-9.364-37.116 9.364 37.116 24.071-29.763m-23.213-97.192-.468 5.67m-14.474-35.434 14.474 35.435 19.702-32.854m-19.702-94.103.468 5.672m-19.78-32.775 19.78 32.775 14.357-35.474m-15.293-91.482 1.404 5.71m-24.773-29.176 24.773 29.177 8.466-37.352m-10.377-89.643 2.418 5.71m-29.104-24.875 29.104 24.875 2.42-38.212m-5.385-88.783 3.512 5.71m-32.499-20.26 32.499 20.26-3.278-38.133m-.779-88.862 4.603 5.71m-34.878-15.762 34.878 15.763-8.271-37.352m3.043-89.604 5.852 5.67m-36.477-11.654 36.477 11.655-12.562-36.14m6.085-90.816 7.101 5.71m-37.414-8.096 37.414 8.096-15.995-34.809m8.232-92.186 8.426 5.71m-37.96-4.967 37.96 4.968-18.804-33.362m9.675-93.633 9.832 5.71m-38.195-2.347 38.195 2.347-21.029-31.954m10.456-95.002 11.314 5.671m-38.272-.117 38.272.117-22.862-30.702M801.42-274.328l-4.838 5.046m11.392-36.57-11.392 36.57 36.088-12.829m-31.328-113.501-4.682 5.045m10.73-36.765-10.73 36.765 35.854-13.454m-31.328-112.837-4.37 5.006m9.676-37.038-9.676 37.038 35.425-14.471m-31.211-111.82-4.057 5.007m8.27-37.352-8.27 37.352 34.839-15.801m-30.977-110.49-3.667 5.045m6.32-37.782-6.32 37.782 34.02-17.6M800.6-880.712l-3.198 5.045m3.823-38.094-3.823 38.094 32.771-19.79m-29.884-106.54-2.614 5.046m.585-38.29-.585 38.29 30.977-22.529m-28.675-103.762-1.951 5.006m-3.511-38.094 3.51 38.094 28.403-25.657m-26.803-100.634-1.248 5.045m-8.427-37.351 8.427 37.351 24.813-29.177m-23.955-97.153-.468 5.046m-14.123-35.592 14.123 35.592 20.014-32.658m-20.014-93.672.468 5.045m-20.131-32.579 20.131 32.58 13.967-35.631m-14.903-90.699 1.404 5.044m-25.749-28.316 25.75 28.316 7.217-37.586m-9.129-88.704 2.419 5.006m-30.392-23.232 30.392 23.232.39-38.251m-3.394-88.04 3.589 5.006m-33.786-17.952 33.786 17.952-5.891-37.82m1.716-88.471 4.76 5.046m-35.971-13.064 35.971 13.064-11.158-36.648m5.735-89.682 6.047 5.045m-37.258-8.722 37.258 8.722-15.371-35.044m8.661-91.286 7.413 5.045m-37.961-5.045 37.96 5.045-18.726-33.4m10.612-92.89 8.817 5.006m-38.234-2.034 38.234 2.034-21.302-31.798m11.704-94.493 10.378 5.006m-38.272.469 38.272-.469-23.33-30.35m12.172-95.941 11.938 5.045m-38.194 2.504 38.194-2.504-24.93-29.06M960.83-273.976l-4.057 4.342m10.767-36.726-10.767 36.726 35.853-13.416M960.83-395.26l-4.057 4.34m10.69-36.725-10.69 36.726 35.814-13.494m-31.835-112.132-3.901 4.38m10.143-36.921-10.143 36.921 35.62-14.04M960.674-637.83l-3.745 4.38m9.168-37.194-9.168 37.195 35.23-14.98m-31.641-110.646-3.433 4.341m7.569-37.508-7.57 37.508 34.567-16.466m-31.367-109.16-3.004 4.341m5.345-37.899-5.345 37.9 33.552-18.5m-30.782-107.127-2.497 4.342m2.185-38.212-2.185 38.212 31.913-21.16m-29.728-104.467-1.873 4.381m-1.951-38.251 1.951 38.251 29.378-24.523m-27.817-101.142-1.249 4.38m-7.257-37.586 7.257 37.586 25.71-28.394m-24.851-97.271-.469 4.38m-13.654-35.747 13.654 35.748 20.405-32.384m-20.405-93.242.469 4.341m-20.6-32.267 20.6 32.267 13.46-35.826m-14.396-89.8 1.404 4.341m-26.959-27.142 26.959 27.142 5.579-37.86m-7.53-87.766 2.497 4.38m-31.913-21.158 31.913 21.159-2.224-38.212m-.858-87.453 3.667 4.38m-35.151-15.097 35.151 15.097-9.012-37.195m4.682-88.431 4.954 4.342m-36.985-9.778 36.985 9.778-14.357-35.474m8.739-90.152 6.32 4.341m-37.921-5.358 37.922 5.358-18.454-33.519m11.392-92.107 7.803 4.38m-38.273-1.837 38.273 1.837-21.497-31.68m12.914-93.985 9.363 4.38m-38.273 1.018 38.273-1.017-23.798-29.999m13.615-95.666 11.002 4.38m-38.155 3.285 38.155-3.285-25.515-28.551m13.655-97.075 12.719 4.341m-37.921 5.124 37.92-5.124-26.84-27.3m181.803 2327.524-3.082 3.716m8.856-37.273-8.856 37.273 35.113-15.293m-31.914-109.668-3.277 3.676m9.871-36.999-9.87 36.999 35.502-14.315m-32.186-110.646-3.356 3.676m10.183-36.921-10.183 36.921 35.659-14.002m-32.343-110.959-3.277 3.677m9.832-36.999-9.832 36.999 35.503-14.315m-32.343-110.646-3.082 3.715m8.817-37.273-8.817 37.273 35.113-15.332m-32.148-109.668-2.809 3.715m6.983-37.664-6.983 37.664 34.332-17.013m-31.757-107.948-2.38 3.677m4.136-38.056-4.136 38.056 32.967-19.556m-30.821-105.405-1.873 3.676m0-38.29v38.29l30.626-22.997m-29.104-101.964-1.17 3.676m-5.774-37.859 5.774 37.86 26.802-27.3m-26.022-97.662-.39 3.716m-13.07-35.983 13.07 35.983 20.95-32.071m-20.989-92.929.468 3.715m-21.224-31.876 21.224 31.876 12.757-36.1m-13.733-88.861 1.483 3.677m-28.519-25.58 28.519 25.58 3.316-38.134m-5.345-86.828 2.575 3.677m-33.629-18.265 33.63 18.265-5.58-37.86m2.38-87.101 3.823 3.676m-36.516-11.498 36.516 11.498-12.718-36.1m8.232-88.86 5.15 3.715m-37.805-5.985 37.805 5.985-17.908-33.832m12.017-91.169 6.632 3.716m-38.234-1.682 38.234 1.682-21.614-31.602m14.201-93.359 8.232 3.676m-38.272 1.604 38.272-1.604-24.266-29.646m15.176-95.315 9.91 3.677m-38.039 4.146 38.038-4.146-26.139-27.965m15.293-96.996 11.783 3.676m-37.804 6.101 37.804-6.1-27.544-26.558m14.786-98.404 13.733 3.676m-37.531 7.666 37.531-7.666-28.636-25.422M1279.377-273.31l-1.911 3.01m3.823-38.094-3.823 38.095 32.771-19.752m-30.665-104.545-2.34 3.012m7.295-37.586-7.295 37.586 34.449-16.7M1279.69-515.88l-2.575 3.05m9.285-37.155-9.285 37.155 35.268-14.862m-32.616-109.434-2.73 3.012m10.143-36.921-10.143 36.92 35.62-14.08m-32.929-110.215-2.652 3.011m9.948-36.961-9.948 36.961 35.541-14.197m-32.967-110.099-2.496 3.011m8.816-37.234-8.816 37.234 35.073-15.292m-32.733-109.004-2.223 3.012m6.476-37.704-6.476 37.704 34.098-17.483m-32.069-106.813-1.795 3.05m2.458-38.212-2.458 38.212 32.069-20.964m-30.587-103.372-1.17 3.052m-3.628-38.134 3.628 38.134 28.285-25.814m-27.505-98.483-.39 3.012m-12.211-36.296 12.21 36.296 21.693-31.524m-21.731-92.773.468 3.012m-22.082-31.25 22.082 31.25 11.782-36.413m-12.758-87.883 1.483 3.012m-30.508-23.154 30.508 23.154.234-38.29m-2.301-86.007 2.652 3.012m-35.463-14.354 35.463 14.354-9.792-37m6.476-87.257 3.98 3.011m-37.649-7.079 37.649 7.08-16.893-34.34m12.172-89.957 5.462 3.012m-38.273-1.683 38.273 1.683-21.614-31.602m15.371-92.695 7.023 3.012m-38.194 2.229 38.194-2.229-24.695-29.216m16.775-95.08 8.779 3.011m-37.922 5.085 37.922-5.085-26.803-27.3m17.088-96.996 10.69 3.05m-37.609 7.158 37.609-7.157-28.285-25.814m16.581-98.482 12.718 3.011m-37.297 8.722 37.297-8.722-29.377-24.6m15.566-99.696 14.904 3.012m-36.985 9.973 36.985-9.973-30.158-23.585m182.74 2325.177-.468 2.347m-10.026-36.961 10.026 36.96 23.564-30.193m-22.745-93.438-1.17 2.347m-.039-38.29.039 38.29 30.587-22.997m-29.144-100.634-1.716 2.346m6.126-37.781-6.126 37.781 33.903-17.795m-32.03-105.836-2.03 2.347m9.52-37.078-9.52 37.078 35.347-14.628m-33.239-109.004-2.185 2.347m10.963-36.647-10.963 36.647 35.932-13.22m-33.747-110.411-2.185 2.386m10.924-36.726-10.924 36.726 35.892-13.298m-33.785-110.334-2.03 2.347m9.325-37.156-9.324 37.156 35.307-14.823m-33.473-108.808-1.639 2.346m5.774-37.86-5.774 37.86 33.747-18.07m-32.343-105.561-1.17 2.347m-.585-38.251.585 38.25 30.275-23.427m-29.495-100.204-.39 2.347m-10.846-36.725 10.846 36.725 22.862-30.663m-22.901-92.968.468 2.385m-23.446-30.272 23.446 30.272 10.144-36.92m-11.158-86.711 1.522 2.347m-32.967-19.4 32.967 19.4-4.253-38.056m2.146-85.576 2.73 2.347m-37.179-9.152 37.18 9.152-14.982-35.24m11.549-88.391 4.135 2.346m-38.233-1.877 38.233 1.877-21.419-31.719m16.464-91.912 5.774 2.347m-38.194 2.933 38.194-2.933-25.242-28.786m18.61-94.807 7.49 2.347m-37.765 6.102 37.766-6.102-27.583-26.557m19.117-97.074 9.44 2.347m-37.335 8.33 37.336-8.33-29.104-24.875m18.609-98.756 11.548 2.346m-36.946 9.974 36.946-9.974-30.157-23.584m17.439-100.047 13.889 2.346m-36.634 11.186 36.634-11.186-30.9-22.606m15.801-100.986 16.308 2.308m-36.322 12.085 36.322-12.085-31.445-21.825m182.467 2324.082 1.249 1.682m-34.371-16.857 34.37 16.857-7.139-37.625m6.398-85.341.235 1.681m-21.692-31.563 21.692 31.563 12.21-36.256m-12.015-86.71-.625 1.681m-4.603-37.976 4.603 37.976 27.622-26.478m-26.724-96.448-1.21 1.68m6.242-37.78-6.242 37.78 33.981-17.678m-32.537-105.288-1.639 1.682m11.47-36.53-11.47 36.53 36.088-12.75M1598.9-879.03l-1.795 1.682m13.46-35.827-13.46 35.827 36.751-10.756m-34.956-112.211-1.795 1.682m13.187-35.944-13.187 35.944 36.673-11.03m-34.995-111.937-1.56 1.682m10.572-36.804-10.573 36.804 35.776-13.65m-34.449-109.277-1.093 1.682m4.214-38.056-4.214 38.056 32.967-19.478m-32.225-103.489-.39 1.682m-8.388-37.352 8.387 37.352 24.852-29.138m-24.891-93.828.469 1.681m-25.71-28.355 25.71 28.355 7.256-37.586m-8.271-85.381 1.56 1.683m-35.892-13.337 35.893 13.337-10.885-36.687m8.661-86.241 2.887 1.643m-38.194-2.425 38.194 2.425-20.99-31.993m17.362-90.935 4.37 1.682m-38.078 3.794 38.077-3.794-25.905-28.199m20.638-94.767 6.165 1.682m-37.571 7.509 37.57-7.51-28.557-25.539m21.418-97.427 8.115 1.682m-37.024 9.817 37.024-9.817-30.08-23.701m20.873-99.265 10.3 1.682m-36.557 11.381 36.556-11.381-31.055-22.411m19.585-100.556 12.64 1.682m-36.204 12.516 36.205-12.516-31.68-21.472m17.713-101.455 15.293 1.681m-35.931 13.259 35.931-13.259-32.186-20.768m15.488-102.198 18.064 1.682m-35.659 13.884 35.659-13.884-32.499-20.221m181.57 2323.143 3.433.978m-37.687 6.806 37.687-6.806-28.012-26.088m25.32-96.175 1.951 1.017m-38.272-.508 38.272.508-22.55-30.937m21.185-91.364.74 1.017m-34.019-17.522 34.02 17.522-6.398-37.743m6.164-84.559-.234 1.017m-9.676-37.039 9.676 37.039 23.837-29.96m-23.291-92.303-.897.978m10.105-36.921-10.105 36.921 35.62-14.08m-34.489-108.182-1.326.978m16.931-34.34-16.931 34.34 37.609-7.04m-36.205-115.223-1.483 1.017m18.805-33.362-18.805 33.362 37.96-5.006m-36.516-117.296-1.405 1.017m17.713-33.949-17.713 33.95 37.805-6.22m-36.595-116.082-1.014 1.017m12.562-36.178-12.562 36.178 36.438-11.656m-35.736-110.646-.39 1.017m-2.965-38.173 2.965 38.173 28.753-25.266m-28.792-96.996.468.977m-30.08-23.662 30.08 23.662.897-38.25m-1.951-84.012 1.639.978m-38.116-3.481 38.116 3.48-20.053-32.58m17.712-89.682 3.043 1.017m-37.921 5.437 37.921-5.437-27.114-27.065m23.252-95.236 4.682 1.016m-37.064 9.583 37.064-9.583-29.885-23.897m24.228-98.365 6.632.978m-36.439 11.811 36.439-11.811-31.29-22.059m23.565-100.204 8.817.978m-35.971 13.142 35.971-13.142-32.069-20.885m22.004-101.377 11.275 1.017m-35.62 14.002 35.62-14.002-32.577-20.104m19.976-102.198 13.966 1.017m-35.386 14.628 35.386-14.628-32.927-19.556m17.439-102.745 17.01 1.016m-35.23 15.058 35.23-15.058-33.2-19.125m14.59-103.176 20.21 1.017m-35.074 15.41 35.073-15.41-33.356-18.774m180.048 2322.361 6.008.352m-35.112 15.175 35.112-15.175-33.24-19.008m28.207-102.59 4.058.313m-35.542 14.237 35.542-14.237-32.694-19.908m29.495-101.689 2.34.313m-36.283 12.163 36.283-12.163-31.484-21.746m29.807-99.852 1.014.313m-37.882 5.515 37.882-5.515-27.114-26.987m26.607-94.61v.351m-14.786-35.356 14.786 35.356 19.39-33.01m-19.039-88.626-.741.352m24.11-29.764-24.11 29.764 38.272 1.408M1918.15-999.61l-1.093.312m27.973-26.126-27.973 26.126 37.648 6.727m-36.517-128.325-1.21.313m28.442-25.617-28.441 25.617 37.57 7.353m-36.478-128.95-.936.313m26.725-27.378-26.725 27.378 37.96 4.967m-37.297-126.565-.39.352m15.293-35.083-15.293 35.083 37.258-8.8m-37.297-112.837.468.352m-37.882-5.514 37.882 5.514-18.336-33.596m17.244-88.001 1.716.313m-36.946 10.13 36.946-10.13-30.274-23.467m27.816-98.131 3.2.313m-35.815 13.494 35.815-13.494-32.265-20.572m28.129-101.025 5.072.312m-35.308 14.824 35.308-14.824-33.045-19.32m26.881-102.278 7.217.353m-34.995 15.488 34.995-15.488-33.395-18.695m24.968-102.942 9.676.352m-34.801 15.919 34.8-15.919-33.63-18.304m22.55-103.332 12.485.352m-34.683 16.192 34.683-16.192-33.747-18.03m19.702-103.568 15.606.313m-34.606 16.388 34.606-16.388-33.864-17.835m16.542-103.763 19.038.313m-34.527 16.544 34.527-16.544-33.903-17.717m12.953-103.88 22.823.352m-34.488 16.583 34.488-16.583-33.981-17.64M2072.76-271.63l9.247-.351m-33.591 18.382 33.59-18.382-34.838-15.88m26.919-105.053 6.632-.313m-33.356 18.813 33.356-18.813-35.073-15.37m29.572-105.601 4.37-.313m-32.85 19.673 32.85-19.673-35.463-14.472m32.03-106.5 2.497-.313m-31.679 21.511 31.679-21.511-36.205-12.437m34.449-108.496 1.053-.352m-27.426 26.753 27.426-26.753-37.843-5.866m37.297-115.066v-.352m19.234 33.088-19.234-33.088-14.942 35.278m15.293-156.211-.702-.313m38.273-.665-38.273.665 23.486 30.233m-22.628-151.205-1.014-.313m37.921-5.24-37.92 5.24 26.919 27.222m-25.984-148.193-.897-.313m38.116-3.911-38.116 3.91 25.983 28.122m-25.32-149.054-.39-.352m37.142 9.191-37.142-9.19 14.942 35.239m-14.98-156.173.467-.352m-18.609 33.48 18.61-33.48-37.922 5.202m36.79-126.134 1.756-.313m-30.432 23.193 30.432-23.193-36.83-10.443m34.255-110.529 3.433-.313m-32.42 20.377 32.42-20.377-35.737-13.728m31.289-107.244 5.462-.312m-33.122 19.164 33.122-19.164-35.23-15.02m28.52-105.913 7.959-.352m-33.513 18.578 33.513-18.578-34.957-15.645m25.594-105.288 10.767-.352m-33.707 18.187 33.707-18.187-34.761-16.035m22.354-104.897 14.007-.352m-33.825 17.952 33.825-17.952-34.644-16.27m18.843-104.663 17.634-.313m-33.942 17.757 33.942-17.757-34.566-16.466m14.942-104.506 21.614-.313m-33.98 17.639 33.98-17.639-34.488-16.583m10.651-104.349 26.022-.352m-34.02 17.561 34.02-17.561-34.45-16.662M2230.65-271.316l13.108-.978m-32.811 19.673 32.81-19.673-35.424-14.471m23.994-105.797 9.714-1.017m-32.264 20.534 32.264-20.534-35.814-13.532m27.583-106.735 6.788-1.017m-31.368 21.98 31.368-21.98-36.4-11.93m30.821-108.338 4.37-1.017m-29.495 24.445 29.494-24.445-37.258-8.917m33.903-111.351 2.34-.978m-24.773 29.178 24.774-29.178-38.195-2.307m36.595-117.999.859-.978m-9.13 37.156 9.13-37.156-35.23 15.019m34.879-135.287-.157-1.017m22.589 30.898-22.589-30.898-11.157 36.608m11.587-156.875-.703-1.018m33.825 17.914-33.825-17.914 5.97 37.821m-5.228-158.088-.78-1.017m34.605 16.387-34.606-16.387 7.647 37.508m-7.061-157.776-.39-1.017m28.167 25.931-28.168-25.93-3.823 38.094m3.785-158.363.468-.977m.078 38.29-.078-38.29-30.587 22.997m29.416-143.305 1.873-.977m-22.004 31.328 22.004-31.328-38.273 1.212m35.463-121.48 3.707-1.017m-28.519 25.501 28.52-25.5-37.532-7.51M2234.2-1847.9l6.008-1.016m-30.938 22.528 30.938-22.528-36.595-11.225m29.182-109.043 8.817-.978m-32.069 20.886 32.069-20.886-35.97-13.141m25.514-107.166 12.095-.978m-32.694 19.908 32.694-19.908-35.542-14.236m21.575-106.031 15.84-1.017m-33.084 19.243 33.083-19.243-35.268-14.902m17.322-105.366 20.053-1.017m-33.357 18.813 33.357-18.813-35.073-15.37m12.679-104.898 24.735-1.017m-33.513 18.501 33.513-18.5-34.917-15.684m7.568-104.584 29.924-1.017m-33.63 18.304 33.63-18.304-34.8-15.958M2388.03-270.964l17.908-1.682m-32.498 20.26 32.498-20.26-35.659-13.845m19.936-105.758 13.538-1.682m-31.874 21.199 31.874-21.199-36.088-12.79m24.462-106.813 9.753-1.681m-30.86 22.685 30.86-22.685-36.633-11.069m28.48-108.496 6.554-1.68m-28.948 25.03 28.948-25.03-37.414-8.136m32.147-111.468 3.98-1.682m-24.852 29.138 24.851-29.138-38.233-2.385m35.268-117.217 1.951-1.682m-14.591 35.396 14.591-35.396-37.063 9.582m35.854-129.185.468-1.682m7.1 37.625-7.1-37.625-25.827 28.278m25.788-147.881-.39-1.682m24.383 29.53-24.383-29.53-8.973 37.235m9.519-156.798-.702-1.682m28.636 25.422-28.636-25.422-3.2 38.134m3.746-157.737-.39-1.682m24.111 29.764-24.111-29.764-9.364 37.117m9.285-156.72.547-1.681m6.32 37.781-6.32-37.781-26.451 27.73m25.202-147.333 1.951-1.682m-15.059 35.2 15.06-35.2-37.181 9.074m34.176-128.677 4.057-1.643m-25.046 28.943 25.046-28.943-38.194-2.66m32.85-116.943 6.632-1.681m-29.026 24.953 29.026-24.953-37.375-8.253m29.104-111.35 9.91-1.682m-30.939 22.606 30.938-22.606-36.633-11.147m24.851-108.456 13.655-1.682m-31.874 21.159 31.874-21.159-36.049-12.828m20.171-106.774 18.063-1.682m-32.499 20.22 32.499-20.22-35.659-13.885m15.138-105.718 23.018-1.682m-32.928 19.595 32.928-19.595-35.386-14.589m9.598-104.975 28.558-1.681m-33.201 19.086 33.2-19.086-35.19-15.098m3.551-104.505 34.683-1.682m-33.356 18.734 33.356-18.734-34.995-15.45m165.613 2321.736 23.72-2.347m-32.381 20.416 32.381-20.416-35.775-13.689m14.825-105.249 18.18-2.347m-31.757 21.355 31.757-21.355-36.127-12.593m20.327-106.345 13.381-2.346m-30.742 22.763 30.742-22.763-36.673-10.951m25.359-107.987 9.286-2.347m-28.987 24.993 28.987-24.993-37.415-8.213m29.807-110.724 5.93-2.348m-25.515 28.552 25.515-28.552-38.155-3.246m33.59-115.652 3.2-2.386m-17.634 33.988 17.634-33.988-37.766 6.297m35.542-125.196 1.248-2.347m-1.17 38.251 1.17-38.25-31.328 21.98m30.704-140.919v-2.346m16.893 34.339-16.893-34.34-17.322 34.145m17.595-153.082-.546-2.347m24.189 29.685-24.19-29.685-9.245 37.156m9.715-156.094-.391-2.347m22.043 31.329-22.043-31.329-11.821 36.413m11.742-155.311.547-2.386m9.129 37.195-9.129-37.195-24.266 29.646m22.939-148.545 2.107-2.347m-10.299 36.843 10.3-36.843-35.66 13.885m32.382-132.823 4.448-2.347m-22.278 31.172 22.278-31.172-38.273.9m32.304-119.838 7.49-2.346m-27.543 26.635 27.543-26.635-37.843-6.023m28.519-112.916 11.158-2.346m-30.002 23.819 30.002-23.819-37.024-9.7m23.642-109.199 15.606-2.347m-31.328 22.02 31.328-22.02-36.4-11.85m18.219-107.088 20.756-2.346m-32.109 20.846 32.109-20.846-35.932-13.18m12.211-105.758 26.686-2.347m-32.616 20.064 32.616-20.064-35.62-14.04m5.657-104.898 33.24-2.346m-32.967 19.477 32.967-19.477-35.386-14.667m-1.482-104.271 40.496-2.308m-33.201 19.047 33.201-19.047-35.19-15.136M2701.194-270.3l30.82-3.01m-32.42 20.376 32.42-20.377-35.736-13.728m8.388-104.545 23.876-3.012m-31.835 21.277 31.835-21.277-36.126-12.672m15.294-105.562 17.828-3.05m-30.938 22.606 30.938-22.606-36.634-11.147m21.38-107.087 12.64-3.012m-29.338 24.601 29.338-24.6-37.297-8.723m26.842-109.551 8.27-3.011m-26.295 27.808 26.296-27.808-38.039-4.381m31.484-113.893 4.838-3.011m-19.975 32.658 19.975-32.658-38.116 3.637m34.566-121.91 2.263-3.012m-6.633 37.704 6.633-37.704-34.137 17.366m32.732-135.6.507-3.05m11.236 36.608-11.236-36.608-22.55 30.937m22.472-149.171-.312-3.051m20.912 32.071-20.912-32.071-13.108 35.982m13.42-154.216-.312-3.012m20.755 32.15-20.755-32.15-13.264 35.905m13.147-154.178.546-3.011m10.69 36.764-10.69-36.764-22.979 30.624m21.536-148.897 2.302-3.012m-7.14 37.625 7.14-37.625-34.371 16.857m30.781-135.13 4.916-3.012m-20.248 32.502 20.248-32.502-38.155 3.325m31.483-121.559 8.428-3.011m-26.452 27.652 26.452-27.652-38-4.576m27.388-113.697 12.796-3.012m-29.416 24.523 29.416-24.523-37.258-8.8m21.848-109.473 18.024-3.012m-30.937 22.529 30.937-22.529-36.594-11.225m15.527-107.048 24.11-3.011m-31.874 21.238 31.874-21.238-36.126-12.75m8.544-105.484 31.055-3.05m-32.421 20.376 32.42-20.377-35.736-13.728m.741-104.506 38.936-3.011m-32.849 19.712 32.85-19.712-35.464-14.433m-7.803-103.84 47.597-3.012m-33.084 19.243 33.084-19.243-35.23-14.94m151.452 2322.556 39.52-3.716m-32.498 20.26 32.498-20.26-35.658-13.845m.468-103.724 30.86-3.676m-31.952 21.041 31.952-21.041-36.01-12.946m8.973-104.663 23.253-3.676m-31.133 22.254 31.133-22.254-36.517-11.538m16.542-106.07 16.697-3.677m-29.767 24.093 29.767-24.093-37.14-9.347m23.174-108.222 11.196-3.715m-27.153 26.986 27.153-26.986-37.882-5.554m28.909-112.016 6.789-3.715m-21.887 31.445 21.887-31.445-38.273 1.369m33.162-118.938 3.433-3.677m-10.69 36.765 10.69-36.765-35.815 13.494m33.552-131.101 1.093-3.677m6.554 37.703-6.554-37.703-26.257 27.847m25.789-145.456-.157-3.676m18.337 33.597-18.337-33.597-15.878 34.81m16.112-152.379-.312-3.716m19.897 32.697-19.897-32.697-14.2 35.553m14.044-153.122.586-3.715m11.665 36.491-11.665-36.491-22.16 31.21M2875.156-1604l2.497-3.677m-5.189 37.899 5.189-37.899-33.435 18.578m29.417-136.186 5.54-3.677m-19 33.245 19-33.245-38 4.772m30.431-122.38 9.597-3.676m-25.827 28.277 25.827-28.277-38.116-3.677m25.943-113.892 14.748-3.716m-29.065 24.953 29.065-24.953-37.375-8.291m19.546-109.278 20.911-3.716m-30.743 22.842 30.743-22.842-36.673-10.912m12.133-106.657 28.168-3.676m-31.718 21.394 31.718-21.394-36.165-12.555m3.823-105.054 36.517-3.676m-32.381 20.495 32.38-20.495-35.814-13.61m-5.384-103.998 45.88-3.676m-32.771 19.83 32.772-19.83-35.503-14.315m-15.605-103.294 56.335-3.676m-33.083 19.321 33.083-19.321-35.307-14.823m141.893 2323.104 50.094-4.342m-32.616 20.026 32.616-20.026-35.581-14.12m-9.129-102.824 39.326-4.34m-32.148 20.807 32.148-20.807-35.932-13.26m1.326-103.645 29.885-4.38m-31.445 21.902 31.445-21.902-36.36-11.968m10.611-104.937 21.614-4.38m-30.158 23.545 30.158-23.545-36.946-10.012m18.765-106.892 14.747-4.341m-27.973 26.126 27.973-26.126-37.687-6.728m25.71-110.216 9.168-4.341m-23.564 30.155 23.564-30.155-38.272-.743m31.289-116.2 4.838-4.342m-14.006 35.631 14.006-35.63-36.907 10.168m33.551-127.073 1.873-4.38m2.419 38.212-2.419-38.212-29.104 24.875m28.09-141.78.156-4.38m16.034 34.77-16.034-34.77-18.18 33.714m18.219-150.618-.273-4.38m19.272 33.127-19.272-33.128-14.865 35.318m14.709-152.222.624-4.341m12.25 36.256-12.25-36.256-21.653 31.563m19.936-148.507 2.81-4.34m-4.02 38.055 4.02-38.056-32.89 19.634m28.364-136.538 6.242-4.38m-18.298 33.635 18.298-33.636-37.882 5.515m29.221-122.419 11.04-4.38m-25.553 28.512 25.554-28.512-38.117-3.325m24.071-113.579 17.089-4.342m-28.949 25.032 28.949-25.032-37.414-8.174m16.619-108.769 24.501-4.341m-30.743 22.841 30.743-22.841-36.75-10.873m7.919-106.032 33.162-4.38m-31.719 21.433 31.719-21.433-36.205-12.516m-1.911-104.388 43.07-4.38m-32.342 20.494 32.342-20.495-35.775-13.571m-12.953-103.333 54.385-4.38m-32.771 19.829 32.771-19.83-35.502-14.314m-25.164-102.59 66.948-4.34m-33.084 19.281 33.084-19.282-35.308-14.862m130.072 2323.808 63.124-5.046m-32.81 19.791 32.81-19.79-35.502-14.316m-20.912-101.924 49.704-5.045m-32.343 20.494 32.343-20.494-35.776-13.572m-8.037-102.668 37.922-5.006m-31.679 21.472 31.679-21.472-36.205-12.477m3.394-103.801 27.7-5.007m-30.625 22.959 30.625-22.959-36.751-10.755m13.343-105.484 19.116-5.045m-28.753 25.266 28.753-25.266-37.492-7.823m21.887-108.417 12.055-5.045m-25.008 28.982 25.008-28.982-38.155-2.62m28.831-113.619 6.632-5.046m-16.893 34.379 16.893-34.379-37.648 7.119m32.967-123.358 2.73-5.006m-1.365 38.251 1.365-38.251-31.406 21.863m29.806-138.103.47-5.045m13.927 35.631-13.928-35.63-20.17 32.54m20.053-148.78-.234-5.046m18.766 33.362-18.766-33.362-15.45 35.044m15.255-151.282.624-5.046m12.68 36.139-12.68-36.14-21.301 31.798m19.428-148.037 3.122-5.045m-3.434 38.134 3.434-38.134-32.577 20.143m27.427-136.382 7.178-5.006m-18.18 33.675 18.18-33.675-37.882 5.67m27.895-121.949 12.796-5.006m-25.632 28.434 25.632-28.434-38.116-3.403m21.691-112.836 20.015-5.046m-29.027 24.953 29.027-24.953-37.376-8.252m12.992-107.987 28.792-5.045m-30.781 22.762 30.781-22.762-36.673-10.952m2.653-105.288 39.248-5.045m-31.796 21.355 31.796-21.355-36.166-12.594m-9.051-103.645 51.186-5.007m-32.42 20.377 32.42-20.377-35.776-13.728m-22.198-102.55 64.762-5.006m-32.81 19.712 32.81-19.712-35.502-14.432m-36.829-101.808 79.9-5.045m-33.123 19.243 33.123-19.243-35.268-14.94m115.636 2324.55 78.925-5.67m-32.928 19.516 32.928-19.517-35.385-14.627m-35.269-100.947 62.422-5.71m-32.576 20.181 32.576-20.181-35.658-13.924M3331.929-511.5l47.753-5.71m-31.952 21.042 31.952-21.042-36.01-12.946m-5.422-102.628 35.111-5.71m-31.055 22.41 31.055-22.41-36.516-11.421m6.749-104.155 24.423-5.71m-29.456 24.484 29.456-24.483-37.259-8.879m17.244-106.696 15.606-5.67m-26.295 27.807 26.295-27.808-38.038-4.341m25.866-111.234 8.739-5.71m-19.351 33.01 19.35-33.01-38.038 4.342m31.758-119.916 3.823-5.71m-4.916 37.977 4.916-37.977-33.318 18.851m30.977-134.426.858-5.71m11.861 36.413-11.86-36.413-22.004 31.367m21.652-146.941-.195-5.671m18.337 33.596-18.337-33.596-15.917 34.809m15.683-150.423.702-5.671m12.914 36.022-12.914-36.022-21.067 31.954m18.961-147.528 3.51-5.71m-3.354 38.133 3.355-38.134-32.538 20.22m26.647-135.794 8.27-5.71m-18.453 33.558 18.454-33.558-37.922 5.358m26.296-120.933 14.942-5.71m-25.867 28.199 25.867-28.2-38.078-3.793m18.844-111.78 23.564-5.71m-29.26 24.717 29.26-24.718-37.297-8.565m8.466-107.009 34.098-5.671m-30.938 22.528 30.938-22.528-36.595-11.264m-3.784-104.311 46.621-5.71m-31.913 21.159 31.913-21.159-36.048-12.829m-17.751-102.745 61.017-5.71m-32.498 20.22 32.498-20.22-35.659-13.846m-33.551-101.729 77.403-5.71m-32.889 19.595 32.889-19.595-35.425-14.55m-51.147-101.025 95.74-5.67m-33.201 19.086 33.201-19.087-35.23-15.058m98.042 2325.333 98.237-6.375m-33.044 19.321 33.044-19.32-35.269-14.863m-52.785-100.047 77.871-6.375m-32.732 19.868 32.732-19.868L3519-410.553m-33.318-100.634 59.847-6.336m-32.225 20.612 32.225-20.612-35.854-13.415m-16.151-101.494 44.163-6.376m-31.445 21.825 31.445-21.825-36.322-12.085m-1.209-102.824 30.899-6.375m-30.08 23.702 30.08-23.702-37.024-9.856m11.587-105.054 19.975-6.375m-27.427 26.752 27.427-26.752-37.843-5.906m22.16-109.003 11.391-6.376m-21.535 31.681 21.535-31.68-38.233 1.799m29.962-116.709 5.15-6.375m-8.27 37.39 8.27-37.39-34.878 15.8m31.64-130.671 1.327-6.375m9.753 37-9.753-37-23.76 29.999m23.175-144.908-.157-6.375m17.908 33.831-17.908-33.831-16.346 34.613m16.034-149.523.742-6.375m13.069 35.982-13.07-35.982-20.91 32.032m18.57-146.941 3.98-6.376m-3.629 38.134 3.628-38.134-32.693 19.947m25.905-134.856 9.597-6.336m-19.039 33.166 19.04-33.166-38 4.654m24.422-119.563 17.557-6.376m-26.334 27.769 26.334-27.769-38.039-4.42m15.294-110.489 27.894-6.376m-29.572 24.328 29.572-24.328-37.18-9.074m2.965-105.835 40.575-6.375m-31.173 22.215 31.173-22.215-36.478-11.616m-11.626-103.294 55.633-6.375m-32.069 20.925 32.07-20.925-35.971-13.102m-28.402-101.808 73.111-6.375m-32.654 20.065 32.654-20.065-35.62-14.08m-47.361-100.79 92.852-6.375m-32.967 19.4 32.967-19.4-35.308-14.745M3458.1-2572.87l115.012-6.375m-33.24 18.969 33.24-18.969-35.113-15.214" transform="matrix(.10013 0 0 .09987 -28 271)"/><g clip-path="url(#q)"><path style="fill:none;stroke-width:11.4143;stroke-linecap:round;stroke-linejoin:round;stroke:red;stroke-opacity:1;stroke-miterlimit:10" d="m399.5-2454.792 16.62 12.085 16.464 11.93 16.269 11.811 16.152 11.694 15.956 11.577 15.8 11.42 15.645 11.343 15.45 11.225 15.332 11.069 15.138 10.99 15.02 10.873 14.825 10.756 14.67 10.638 14.512 10.521 14.396 10.443 14.201 10.286 14.045 10.208 13.928 10.09 13.733 10.013 13.616 9.896 13.46 9.777 13.303 9.661 13.148 9.621 12.991 9.465 12.875 9.387 12.718 9.309 12.563 9.19 12.445 9.075 12.29 9.035 12.133 8.878 11.977 8.839 11.86 8.722 11.704 8.643 11.587 8.566 11.431 8.448 11.314 8.37 11.158 8.291 11.041 8.214 10.885 8.135 10.768 8.057 10.612 7.94 10.494 7.9 10.378 7.783 10.222 7.744 10.104 7.666 9.988 7.549 9.831 7.51 9.754 7.43 9.597 7.353 9.441 7.275 9.364 7.197 9.207 7.118 9.09 7.079 8.973 7.001 8.856 6.923 8.74 6.844 8.621 6.806 8.505 6.727 8.35 6.688 8.27 6.61 8.154 6.531 8.037 6.493 7.92 6.414 7.802 6.375 7.686 6.297 7.569 6.219 7.49 6.18 7.335 6.14 7.257 6.101 7.14 6.024 7.022 5.945 6.944 5.905 6.827 5.867 6.71 5.828 6.633 5.75 6.515 5.71 6.399 5.67 6.32 5.593 6.203 5.593 6.086 5.515 6.008 5.476 5.93 5.397 5.813 5.397 5.696 5.359 5.657 5.28 5.501 5.24 5.423 5.203 5.345 5.201 5.267 5.124 5.15 5.084 5.072 5.046 4.954 5.045 4.877 4.967 4.799 4.928 4.72 4.928 4.604 4.85 4.526 4.85 4.486 4.81 4.33 4.772 4.292 4.694 4.175 4.732 4.135 4.655 4.019 4.654 3.94 4.615 3.862 4.576 3.785 4.537 3.706 4.537 3.667 4.498 3.55 4.458 6.867 8.84 3.316 4.38 3.238 4.38 3.16 4.342 3.082 4.302 3.044 4.302 2.965 4.264 2.848 4.263 2.809 4.224 2.77 4.185 2.652 4.185 2.575 4.185 2.536 4.145 2.458 4.146 2.38 4.107 2.34 4.068 2.264 4.067 2.184 4.068 2.107 4.028 2.068 4.029 1.99 4.028 1.911 3.99 1.873 3.95 1.834 3.99 1.716 3.95 1.678 3.91 1.6 3.95 1.56 3.912 1.482 3.911 1.444 3.872 1.365 3.911 1.327 3.833 1.248 3.872 1.21 3.872 1.131 3.833 1.092 3.833 1.015 3.833.975 3.833.897 3.794.859 3.794.82 3.833.74 3.754.703 3.794.624 3.794.585 3.794.546 3.754.468 3.755.39 3.794.39 3.755.313 3.754.273 3.755.234 3.755.156 3.754.117 3.755.078 3.755v3.754l-.039 3.755-.078 3.755-.117 3.755-.39 7.509-.273 3.755-.351 3.754-.352 3.794-.429 3.755-.468 3.755-.507 3.793-.546 3.794-.624 3.755-.625 3.794-.702 3.794-.741 3.793-.78 3.794-.82 3.833-.858 3.794-1.873 7.666-1.014 3.833-1.053 3.833-1.093 3.872-1.131 3.872-1.132 3.833-1.248 3.91-1.248 3.873-1.288 3.91-2.73 7.823-1.444 3.911-1.444 3.95-3.043 7.901-1.6 3.99-1.638 3.989-1.678 3.99-1.716 4.028-3.512 8.057-1.833 4.067-1.873 4.068-1.912 4.067-1.95 4.107-1.99 4.107-2.029 4.146-2.067 4.106-2.068 4.185-2.146 4.146-2.185 4.185-2.223 4.224-4.526 8.448-2.34 4.263-2.38 4.303-2.42 4.263-2.457 4.341-2.458 4.302-5.072 8.761-2.614 4.38-2.614 4.42-5.384 8.84-2.73 4.497-2.77 4.498-2.849 4.498-2.848 4.537-2.887 4.537-2.926 4.576-2.965 4.615-3.004 4.615-6.086 9.309-3.121 4.693-6.32 9.465-6.477 9.543-3.316 4.85-3.316 4.81-3.355 4.89-3.394 4.889-3.473 4.889-3.472 4.967-3.511 4.967-3.55 4.967-3.55 5.046-3.629 5.045-3.667 5.084-3.706 5.085-3.707 5.124-3.784 5.162-3.823 5.202-3.824 5.241-3.901 5.24-3.901 5.281-3.94 5.32-4.02 5.318-4.018 5.359-4.057 5.397-4.096 5.436-4.136 5.476-4.213 5.476-4.214 5.553-4.252 5.554-4.292 5.593-4.33 5.632-4.37 5.632-4.409 5.71-4.447 5.71-4.487 5.75-4.525 5.789-4.565 5.827-4.604 5.867-4.642 5.906-4.682 5.906-9.52 11.968-4.798 6.062-4.877 6.062-4.876 6.102-4.916 6.18-4.994 6.179-4.994 6.219-5.071 6.258-5.111 6.297-5.15 6.375-5.189 6.375-5.228 6.414-5.266 6.454-5.306 6.492-5.384 6.532-5.423 6.61-5.462 6.61-5.501 6.648-5.54 6.727-5.579 6.728-5.657 6.805-5.657 6.845-11.548 13.767-11.704 14.002-5.97 7.04-5.968 7.118-6.047 7.118-6.087 7.197-6.125 7.235-6.203 7.314-6.242 7.314-6.32 7.392-6.36 7.431-6.398 7.47-6.476 7.51-6.515 7.588-6.594 7.626-6.632 7.666-6.71 7.744-6.75 7.744-6.827 7.823-6.867 7.9-6.944 7.94-7.022 7.979-7.062 8.017-7.14 8.097-7.178 8.174-7.257 8.174-7.334 8.253-7.413 8.33-7.451 8.37-7.53 8.41-7.608 8.486-7.685 8.566-7.764 8.604-7.803 8.644-7.92 8.722-7.958 8.76-8.076 8.84-8.115 8.917-8.232 8.957-8.271 9.035-8.388 9.074-8.466 9.152-8.544 9.23-8.622 9.27-8.7 9.347-8.817 9.426-8.895 9.465-8.973 9.582-9.09 9.582-9.169 9.7-9.285 9.778-9.363 9.817-9.442 9.895-9.558 9.974-9.675 10.051-9.793 10.13-9.87 10.17-9.988 10.285-10.065 10.326-10.222 10.443-10.3 10.481-10.455 10.6-10.534 10.638-10.65 10.756L566.4-165.13l-10.884 10.912-11.041 10.99-11.158 11.07-11.275 11.146-11.392 11.264-11.548 11.303-11.704 11.421-11.822 11.499-11.938 11.616-12.094 11.694-12.25 11.773-12.368 11.85-12.562 11.969-12.68 12.085L388.85 7.627" transform="matrix(.10013 0 0 .09987 -28 271)"/></g><g clip-path="url(#r)"><path style="fill:none;stroke-width:11.4143;stroke-linecap:round;stroke-linejoin:round;stroke:red;stroke-opacity:1;stroke-miterlimit:10" d="m399.5-2515.415 17.79 12.046 17.674 11.93 17.478 11.772 17.322 11.694 17.205 11.5 17.01 11.42 16.893 11.264 16.698 11.146 16.581 11.03 16.425 10.873 16.269 10.756 16.112 10.677 15.996 10.521 15.84 10.404 15.683 10.247 15.527 10.169 15.41 10.051 15.255 9.935 15.138 9.817 14.98 9.7 14.826 9.582 14.708 9.465 14.591 9.386 14.396 9.23 14.318 9.153 14.162 9.035 14.045 8.956 13.89 8.8 13.771 8.722 13.616 8.605 13.538 8.526 13.381 8.409 13.265 8.33 13.109 8.175 12.991 8.135 12.914 8.018 12.757 7.9 12.64 7.823 12.485 7.705 12.407 7.626 12.289 7.549 12.172 7.431 12.016 7.353 11.939 7.275 11.82 7.157 11.705 7.08 11.587 7 11.47 6.884 11.353 6.844 11.275 6.728 11.119 6.649 11.04 6.57 10.964 6.454 10.806 6.414 10.73 6.297 10.61 6.219 10.535 6.18 10.377 6.062 10.339 5.984 10.221 5.945 10.105 5.827 9.988 5.75 9.948 5.71 9.832 5.593 9.714 5.554 9.636 5.475 9.559 5.398 9.441 5.319 9.363 5.24 9.247 5.163 9.207 5.124 9.09 5.006 9.012 5.006 8.934 4.89 8.817 4.85 8.779 4.77 8.66 4.694 8.584 4.615 8.505 4.576 8.427 4.498 8.388 4.459 8.27 4.38 8.193 4.303 8.115 4.263 8.037 4.185 7.959 4.146 7.92 4.067 7.841 4.029 7.764 3.95 7.686 3.911 7.607 3.833 7.57 3.755 7.45 3.754 7.452 3.638 7.335 3.637 7.296 3.56 7.217 3.48 7.179 3.442 7.1 3.403 7.062 3.324 6.983 3.286 6.905 3.246 6.867 3.168 6.827 3.129 6.75 3.09 6.71 3.011 6.632 2.973 6.594 2.933 6.554 2.855 6.476 2.855 6.477 2.777 12.718 5.398 6.281 2.62 6.281 2.581 6.204 2.543 6.164 2.503 6.086 2.425 6.086 2.385 6.008 2.347 6.008 2.308 5.93 2.268 5.93 2.19 5.853 2.19 5.852 2.113 5.774 2.112 5.774 2.033 5.735 1.995 5.696 1.917 5.657 1.916 5.618 1.877 11.158 3.599 5.54 1.72 5.5 1.721 5.462 1.643 5.462 1.604 5.423 1.564 5.384 1.526 5.345 1.525 5.345 1.447 5.345 1.369 5.306 1.369 5.266 1.33 5.267 1.29 5.228 1.252 5.228 1.212 5.189 1.174 5.189 1.134 5.15 1.095 5.15 1.056 5.15 1.017 5.11.978 5.11.9 5.072.899 5.111.86 5.072.822 5.072.782 5.033.743 5.032.704 5.033.665 5.033.626 5.033.586 5.032.548 5.033.508 4.994.47 5.033.43 4.994.391 5.032.391 4.994.313 10.066.548 4.993.195 10.066.313 5.072.078 5.032.04 5.072.038 10.144-.078 5.072-.117 5.11-.117 5.111-.196 5.15-.196 10.3-.547 5.188-.352 10.456-.782 5.228-.47 5.267-.469 5.306-.548 5.306-.586 5.344-.587 5.384-.665 10.846-1.408 5.501-.782 5.501-.821 5.54-.86 5.579-.9 5.618-.94 5.657-1.016 5.696-1.017 5.735-1.056 5.813-1.134 5.813-1.173 5.891-1.213 5.93-1.251 6.008-1.291 6.047-1.33 6.087-1.408 6.164-1.408 6.242-1.486 6.281-1.526 6.32-1.603 6.438-1.604 6.476-1.681 6.554-1.721 6.633-1.8 6.71-1.799 6.827-1.877 6.867-1.916 6.944-1.995 7.062-2.034 7.14-2.073 7.256-2.151 7.334-2.19 7.452-2.269 7.569-2.307 7.646-2.386 7.803-2.425 7.88-2.464 8.038-2.581 8.115-2.582 8.31-2.698 8.426-2.7 8.544-2.815 8.74-2.855 8.856-2.934 9.05-3.011 9.208-3.05 9.363-3.13 9.559-3.246 9.753-3.285 9.949-3.325 10.143-3.442 10.339-3.52 10.612-3.598 10.806-3.676 11.041-3.755 11.353-3.833 11.548-3.911 11.86-4.029 12.173-4.106 12.484-4.224 12.758-4.303 13.147-4.38 13.46-4.498 13.85-4.615 14.279-4.694 14.63-4.81 15.098-4.928 15.606-5.046 16.035-5.162 16.62-5.28 17.126-5.437 17.752-5.554 18.375-5.67 19.039-5.829 19.74-5.984 20.561-6.14 21.34-6.297 22.238-6.414 23.253-6.65 24.266-6.805 25.398-7 26.646-7.197 27.973-7.392 29.456-7.627 31.094-7.822 32.888-8.096 34.917-8.37 37.18-8.605 39.678-8.917 42.563-9.23 45.842-9.544 49.625-9.934 54.034-10.286 59.184-10.756 65.426-11.225 72.956-11.733 82.28-12.32 94.179-12.985 109.823-13.768 131.204-14.666" transform="matrix(.10013 0 0 .09987 -28 271)"/></g><g clip-path="url(#s)"><path style="fill:none;stroke-width:11.4143;stroke-linecap:round;stroke-linejoin:round;stroke:red;stroke-opacity:1;stroke-miterlimit:10" d="M1997.503-811.485h.663l.078-.039h.39l.079-.039h.273l.117-.04h.195l.078-.038h.117l.078-.04h.195l.117-.038h.078l.117-.04h.117l.078-.039h.117l.117-.039h.117l.078-.039.234-.078h.117l.078-.04.156-.038h.078l.352-.118h.117l.819-.273.156-.04.585-.195.117-.078.156-.04.351-.117.156-.078.235-.078.156-.078.117-.04.156-.039.117-.078.117-.039.156-.078.117-.04.156-.078.117-.039.156-.078.117-.078.156-.04.117-.077.156-.079.117-.039.156-.078.117-.078.156-.078.117-.04.313-.156.117-.078.312-.157.117-.078.312-.156.117-.079.312-.156.156-.117.117-.079.312-.156.117-.117.312-.157.156-.117.156-.078.118-.079.156-.117.156-.078.156-.117.117-.079.156-.117.156-.078.312-.235.117-.078.468-.352.156-.078.117-.118.78-.586.118-.118.624-.469.117-.117.156-.118.156-.156.312-.235.117-.117.156-.117.156-.157.156-.117.117-.157.312-.234.43-.43.117-.157.156-.117.585-.587.117-.156.156-.118.117-.156.312-.313.117-.157.156-.117.117-.195.156-.118.234-.313.156-.156.235-.313.156-.157.117-.195.117-.157.156-.156.234-.313.117-.195.156-.157.117-.156.117-.196.234-.313.117-.195.117-.157.117-.195.234-.313.117-.196.117-.156.117-.196.078-.195.117-.157.117-.195.079-.157.234-.39.078-.157.117-.196.078-.195.117-.157.156-.391.117-.196.156-.39.078-.157.117-.196.39-.977.04-.196.311-.782.04-.196.077-.195.04-.196.077-.195.078-.392.078-.195.117-.587.04-.234.234-1.174.039-.235v-.39l.039-.196v-.196l.039-.234v-1.8l-.04-.234v-.196l-.038-.195v-.196l-.04-.195v-.196l-.078-.235v-.195l-.156-.782-.078-.196-.039-.196-.039-.234-.156-.391-.039-.196-.156-.391-.039-.196-.117-.195-.234-.587-.117-.195-.156-.391-.117-.157-.117-.195-.078-.196-.351-.587-.117-.156-.117-.196-.156-.195-.117-.157-.117-.195-.157-.196-.156-.156-.117-.196-.156-.195-.663-.665-.156-.196-.156-.156-.195-.157-.156-.195-.585-.47-.195-.195-.39-.313-.235-.157-.39-.312-.468-.313-.195-.118-.468-.313-.234-.117-.273-.156-.234-.157-.234-.117-.274-.157-.234-.117-.273-.156-.546-.235-.273-.156-.546-.235-.312-.117-.273-.118-.313-.117-.273-.117-.312-.079-.312-.156-.312-.078-.312-.118-.312-.078-.312-.117-.351-.078-.313-.118-.35-.078-.313-.078-.35-.118-1.405-.312-.39-.079-.352-.078-.39-.039-.39-.078-.351-.078-.78-.079-.39-.078-.39-.039-.43-.04-.39-.038-.43-.078h-.39l-1.287-.118h-.429l-.858-.078h-.858l-.469-.04h-1.365l-.468.04h-1.444l-.468.04-.507.038h-.468l-3.043.235-.507.078-.547.04-1.014.156-.546.039-1.639.234-.546.118-1.092.156-.586.118-.546.117-.585.078-.585.117-.546.118-1.17.234-.586.157-.585.117-.624.157-.586.117-.585.156-.624.157-.585.156-1.249.313-.585.196-.663.156-1.249.391-.624.157-.624.195-.663.196-.624.235-.664.195-.624.196-4.643 1.642-.663.274-.702.235-.663.274-.703.273-.663.274-.702.274-.702.313-.702.274-.703.313-.702.273-2.809 1.252-.702.352-.741.313-.742.352-.702.352-.741.352-.702.352-.742.352-.741.39-.741.353-.742.391-.702.391-.78.391-2.224 1.174-.78.43-.741.39-.742.431-.78.43-.741.43-.78.47-.742.43-.78.47-.741.43-2.341 1.408-.78.508-.78.47-1.561 1.016-.78.47-.78.547-2.342 1.526-.819.547-2.34 1.643-.82.547-.78.587-.82.587-.78.547-.82.587-.78.587-.819.586-.78.626-.82.587-.78.626-.819.625-.78.626-1.639 1.252-.78.665-.82.625-.818.665-.78.665-1.64 1.33-.819.704-.78.665-1.638 1.408-.78.704-.82.704-.82.743-.819.704-.78.743-1.638 1.486-.78.744-.82.743-.78.743-1.639 1.564-.78.782-.82.783-.78.782-.819.782-.78.822-.82.782-.78.821-.82.821-.78.822-.78.86-.819.822-4.682 5.162-.78.9-.78.86-2.341 2.699-.741.939-.78.9-.742.938-.78.9-.741.938-.78.939-.742.938-.741.978-.741.939-.742.978-.74.938-1.483 1.956-.703 1.017-.74.978-.703.977-.741 1.017-.703 1.017-.702.978-.702 1.017-.702 1.056-1.405 2.034-.663 1.056-.702 1.017-.664 1.056-.702 1.056-1.326 2.112-.664 1.095-.624 1.056-1.326 2.19-.624 1.056-1.249 2.19-.624 1.135-.585 1.095-.625 1.095-1.17 2.268-.585 1.095-1.756 3.403-.546 1.173-1.092 2.269-.508 1.173-.546 1.134-.507 1.174-.546 1.173-.507 1.173-.468 1.174-.508 1.173-.468 1.174-.468 1.212-.468 1.173-.43 1.174-.467 1.212-.859 2.425-.39 1.173-.429 1.213-.39 1.212-.351 1.213-.39 1.212-.352 1.252-.702 2.425-.312 1.251-.351 1.213-.273 1.251-.312 1.213-.82 3.754-.234 1.213-.468 2.503-.39 2.503-.624 5.006-.234 2.504-.078 1.29-.156 2.503-.078 2.503v2.543l.117 3.754.078 1.291.078 1.252.234 2.503.312 2.503.39 2.503.468 2.503.546 2.503.313 1.213 1.053 3.754.39 1.213.43 1.212.428 1.252.937 2.425.507 1.212.546 1.213 1.17 2.425.586 1.173.663 1.213.663 1.173 1.405 2.347.74 1.173.781 1.173.82 1.174.819 1.134.858 1.173.936 1.134.898 1.135.975 1.095.975 1.134 1.015 1.134 1.053 1.095 1.093 1.095 1.13 1.096 1.132 1.056 1.17 1.056 1.25 1.095 1.248 1.017 1.287 1.056 1.327 1.017 1.365 1.056 1.404.977 1.444 1.017 1.483.978 1.521.978 1.56.978 3.278 1.877 1.677.939 1.717.938 1.795.86 1.794.9 1.873.9 1.912.86 1.95.822 1.99.821 2.029.821 2.106.822 2.146.782 2.185.743 2.263.782 2.302.704 2.34.743 2.38.704 2.458.665 2.497.665 2.575.626 2.614.626 2.692.586 2.73.587 2.77.587 2.849.508 2.926.509 3.004.508 3.043.47 3.082.469 3.16.39 3.238.431 3.277.352 3.394.352 3.434.352 3.51.274 3.59.274 3.628.234 3.707.235 3.823.196 3.862.156 3.94.117 4.02.079 4.096.078 4.174.039h4.292l4.33-.04 4.448-.038 4.486-.118 4.604-.117 4.72-.156 4.76-.235 4.877-.196 4.955-.313 5.072-.312 5.15-.352 5.227-.392 5.345-.43 5.462-.47 5.54-.508 5.618-.547 5.774-.626 5.852-.626 5.93-.704 6.086-.743 6.164-.782 6.32-.821 6.399-.86 6.515-.94 6.633-.977 6.749-1.017 6.866-1.095 7.023-1.095 7.1-1.213 7.257-1.251 7.373-1.291 7.491-1.33 7.647-1.408 7.764-1.486 7.88-1.526 8.037-1.564 8.154-1.643 8.31-1.72 8.466-1.8 8.583-1.838 8.739-1.877 8.895-1.995 9.012-2.034 9.169-2.112 9.363-2.19 9.48-2.23 9.637-2.346 9.792-2.386 9.949-2.464 10.104-2.542 10.3-2.62 10.416-2.7 10.612-2.815 10.768-2.855 10.924-2.934 11.119-3.05 11.236-3.09 11.47-3.207 11.587-3.286 11.782-3.403 11.938-3.441 12.133-3.56 12.29-3.676 12.484-3.716 12.64-3.872 12.797-3.91 12.992-4.068 13.147-4.107 13.304-4.263 13.499-4.302 13.654-4.46 13.811-4.536 14.006-4.654 14.162-4.772 14.28-4.85 14.473-4.967 14.591-5.084 14.748-5.202 14.903-5.32 15.06-5.397 15.137-5.554 15.293-5.632 15.41-5.788 15.528-5.867 15.644-6.023 15.723-6.101 15.8-6.258 15.879-6.375 15.957-6.454 15.995-6.61 16.035-6.727 16.074-6.883 16.073-6.962 16.113-7.08 16.074-7.235 16.034-7.314 15.996-7.47 15.917-7.549 15.879-7.705 15.762-7.822 15.605-7.94 15.489-8.057 15.332-8.174 15.137-8.292 14.943-8.408 14.708-8.527 14.513-8.604 14.2-8.761 13.89-8.84 13.615-8.956 13.304-9.035 12.914-9.152 12.562-9.23 12.133-9.348 11.783-9.426 11.314-9.504 10.923-9.621 10.456-9.66 9.949-9.779 9.519-9.856 9.012-9.895 8.544-9.973 8.037-10.013 7.53-10.09 7.022-10.17 6.554-10.208 6.047-10.247 5.58-10.286 5.11-10.326 4.604-10.364 4.174-10.404 3.746-10.443 3.277-10.442 2.926-10.482 2.497-10.521 2.145-10.521 1.795-10.521 1.483-10.56 1.209-10.56.897-10.56.664-10.56.429-10.6.234-10.56.078-10.599-.078-10.56-.156-10.6-.273-10.56-.312-10.599-.703-21.12-.312-10.56-.234-10.56-.195-10.6-.078-10.56.078-10.56.234-10.56.43-10.56.663-10.56.897-10.599 1.17-10.56 1.483-10.6 1.833-10.598 2.185-10.639 2.575-10.638 3.004-10.638 3.472-10.717 3.98-10.716 4.486-10.717 5.072-10.795 5.696-10.834 6.32-10.873 7.023-10.912 7.764-10.99 8.583-11.03 9.402-11.107 10.339-11.186 11.314-11.264 12.367-11.342 13.538-11.46 14.747-11.538 16.113-11.694 17.595-11.773 19.155-11.968 20.95-12.085 22.902-12.242 25.008-12.438 27.426-12.672 30.119-12.868 33.162-13.063 36.634-13.376 40.652-13.65 45.295-14.002 50.796-14.354 57.31-14.745 65.388-15.214" transform="matrix(.10013 0 0 .09987 -28 271)"/></g><g clip-path="url(#t)"><path style="fill:none;stroke-width:11.4143;stroke-linecap:round;stroke-linejoin:round;stroke:red;stroke-opacity:1;stroke-miterlimit:10" d="M1997.503-823.61h-.663l-.078.04h-.43l-.116.039h-.195l-.078.04h-.156l-.118.038h-.195l-.078.04h-.117l-.117.038h-.195l-.078.04h-.117l-.078.039-.117.039h-.078l-.117.039h-.117l-.234.078h-.078l-.351.117h-.117l-.078.04-.234.078h-.117l-.469.156-.078.04-.156.038-.468.157-.117.078-.702.235-.156.078-.234.078-.117.078-.156.04-.117.039-.117.078-.118.039-.156.078-.117.04-.117.078-.156.039-.234.156-.156.04-.117.077-.156.04-.234.156-.156.078-.117.04-.156.078-.117.078-.156.078-.117.078-.156.078-.117.04-.156.078-.117.078-.157.078-.117.078-.156.079-.117.078-.156.117-.156.078-.117.079-.156.078-.117.078-.156.117-.156.079-.117.078-.156.117-.156.078-.117.079-.156.117-.117.078-.156.118-.156.078-.117.117-.157.078-.156.118-.156.078-.117.117-.156.118-.117.078-.312.234-.117.118-.156.078-.156.117-.117.118-.312.234-.117.118-.312.234-.117.118-.312.234-.118.118-.312.234-.273.274-.312.235-.117.156-.156.118-.546.547-.156.117-.273.274-.117.157-.156.117-.43.43-.117.157-.156.117-.117.156-.156.157-.117.156-.273.274-.117.157-.156.156-.234.313-.156.156-.234.313-.156.157-.351.47-.156.155-.117.196-.469.626-.117.195-.234.313-.117.196-.234.313-.117.195-.117.157-.117.195-.117.157-.117.195-.078.157-.117.195-.117.157-.078.195-.117.196-.117.156-.078.196-.117.195-.078.157-.117.195-.078.196-.118.156-.234.587-.117.157-.78 1.955-.078.157-.039.234-.078.157-.039.234-.078.157-.078.234-.04.196-.077.196-.117.586-.078.196-.117.586-.04.235-.116.587v.195l-.078.391v.235l-.04.196v.39l-.038.196v.43l-.04.196v.587l.04.235v.39l.039.196v.196l.039.234v.196l.117.587v.234l.117.587.078.196.078.39.078.196.039.196.078.234.234.587.039.196.117.195.156.391.273.548.234.391.078.196.351.586.157.157.234.39.156.157.117.196.156.195.156.157.156.195.156.157.156.195.156.157.156.195.195.157.156.195.585.47.195.195.586.47.234.156.195.157 1.404.938.273.118.235.156.273.156.273.118.234.156.273.118.312.156.546.235.312.156.273.117 1.249.47.35.117.313.117.351.079.312.117.351.117.352.079.35.117.352.078.39.117.351.079 2.34.469.86.156.39.04.428.039.43.078.429.039.468.078.43.04 1.404.117h.468l.936.078h.507l.468.039h1.015l.546.04h1.014l.547-.04h1.053l.546-.04h.546l.585-.038.547-.04 2.926-.195.585-.078.624-.078.624-.04 2.497-.312.663-.118.625-.078.663-.117.663-.078 1.327-.235.702-.117.663-.118.702-.156.703-.118.663-.156.741-.156.702-.118.703-.195 1.482-.313.741-.196.742-.156 1.482-.391.78-.196.742-.195.78-.196.78-.235.78-.195 1.561-.47 1.639-.469.78-.274.82-.274.818-.234.82-.274.858-.274.82-.274.858-.312.819-.274 4.291-1.565 1.795-.704.858-.352 2.692-1.056 1.795-.782.936-.391.898-.391 1.872-.782.937-.43.897-.43 1.873-.861.975-.43 1.873-.94.975-.468.936-.47 1.95-.939.937-.508 1.015-.508.936-.509 1.014-.508.976-.548.975-.508 1.95-1.095 1.015-.548.975-.587.976-.547 2.028-1.174.976-.586 1.014-.587 1.014-.626.976-.625 3.043-1.878 1.014-.665.976-.626 2.028-1.33 1.015-.703 1.014-.665 4.057-2.816.976-.743 1.014-.704 3.043-2.23 1.015-.782.975-.782 1.014-.743 1.015-.783.975-.82 1.014-.783.976-.821 1.014-.783.975-.86 1.015-.821.975-.822.975-.86.976-.822.975-.86.975-.9.937-.86.975-.86.975-.9 1.873-1.8.975-.899.937-.938.936-.9 1.873-1.877.897-.939.936-.978.898-.938 3.589-3.912.858-1.017.859-.977 3.433-4.068.82-1.017 1.638-2.112.819-1.017.78-1.056.82-1.095.78-1.056.741-1.056.78-1.095 2.965-4.38.703-1.096.702-1.134.702-1.095.663-1.134.703-1.134.663-1.135.624-1.134.624-1.173.664-1.134.585-1.135.624-1.173 1.17-2.347 2.185-4.693.507-1.173.508-1.213.468-1.212.468-1.174.936-2.425.858-2.425 1.17-3.637.352-1.251.351-1.213.312-1.251.351-1.213.273-1.251.313-1.213.273-1.252.234-1.251.273-1.213.195-1.251.234-1.252.39-2.503.312-2.503.234-2.503.078-1.252.117-1.251.04-1.252.077-1.29v-1.252l.04-1.252v-2.503l-.079-2.503-.078-1.29-.078-1.252-.35-3.755-.313-2.503-.39-2.503-.468-2.503-.234-1.213-.546-2.503-.313-1.212-.312-1.252-.35-1.251-.703-2.425-.39-1.252-.43-1.212-.39-1.213-.468-1.212-.429-1.213-.468-1.212-.507-1.213-.507-1.173-.507-1.212-.508-1.174-.585-1.212-.546-1.174-.624-1.173-.585-1.173-1.249-2.347-.663-1.173-.663-1.134-.664-1.174-.702-1.134-.741-1.134-.702-1.135-.78-1.134-.742-1.134-.78-1.095-.78-1.134-1.639-2.19-1.717-2.19-.858-1.057-.858-1.095-.937-1.056-.897-1.056-1.873-2.112-.975-1.017-.975-1.056-.976-1.017-2.028-2.034-1.015-.977-1.053-1.017-1.053-.978-1.093-.978-1.053-.978-1.093-.938-2.262-1.878-1.132-.977-1.17-.9-1.17-.939-2.341-1.799-1.21-.9-1.21-.86-4.993-3.442-3.862-2.464-1.327-.782-1.326-.821-1.327-.782-1.365-.783-2.731-1.486-1.366-.782-1.404-.704-1.405-.743-1.404-.704-1.444-.704-1.443-.665-1.444-.704-1.443-.665-1.483-.626-1.482-.665-2.965-1.251-1.522-.626-3.043-1.173-1.56-.587-1.522-.548-3.121-1.095-1.6-.547-1.6-.509-1.56-.508-1.638-.47-1.6-.508-1.638-.43-1.6-.47-1.639-.469-1.677-.43-1.639-.391-1.677-.43-3.356-.783-1.716-.352-1.678-.352-1.716-.352-3.434-.626-1.755-.312-1.717-.274-5.267-.822-1.794-.234-1.795-.196-1.755-.234-1.834-.196-1.795-.156-1.794-.196-1.834-.117-1.834-.157-5.5-.352-3.746-.156-5.618-.118h-5.696l-1.912.04-1.95.039-1.912.078-1.95.078-1.912.078-3.902.235-1.99.117-1.95.157-1.99.156-1.99.196-1.99.156-1.989.235-1.99.195-2.028.274-2.029.235-1.99.274-2.028.273-2.068.313-2.029.313-2.068.313-2.028.352-2.068.391-2.068.352-2.068.391-2.106.43-2.068.43-2.107.431-6.32 1.408-2.146.508-2.106.509-4.292 1.095-4.291 1.173-2.185.587-2.146.626-2.185.665-2.185.626-2.184.664-2.224.704-2.185.704-2.224.704-2.223.744-2.185.743-2.263.782-4.448 1.564-2.262.822-6.789 2.581-2.302.9-2.262.9-2.302.899-2.302.978-2.302.938-2.302.978-2.34.978-2.302 1.017-2.341 1.056-2.34 1.017-2.342 1.095-2.34 1.056-2.38 1.095-4.76 2.268-7.14 3.52-4.837 2.425-4.838 2.503-2.458 1.291-2.419 1.33-2.458 1.29-2.457 1.37-2.458 1.33-2.458 1.368-4.994 2.816-7.49 4.342-2.497 1.486-5.072 3.05-2.536 1.565-2.575 1.564-2.536 1.565-2.575 1.603-7.724 4.928-2.614 1.682-5.228 3.442-5.228 3.52-2.653 1.76-2.653 1.8-7.959 5.514-2.692 1.916-2.692 1.878-2.692 1.955-2.692 1.917-2.73 1.994-2.731 1.956-2.731 2.034-2.731 1.995-2.731 2.072-5.54 4.146-2.77 2.112-2.77 2.151-5.618 4.303-2.81 2.19-5.617 4.459-5.696 4.537-2.848 2.307-2.887 2.347-2.848 2.346-2.887 2.347-2.887 2.425-2.926 2.386-2.887 2.425-2.926 2.464-2.965 2.503-2.926 2.503-2.965 2.503-2.965 2.542-5.93 5.163-6.009 5.241-3.004 2.66-3.004 2.698-3.043 2.7-3.004 2.737-3.082 2.738-3.043 2.777-9.246 8.448-9.364 8.682-3.12 2.934-6.321 5.945-3.16 3.011-3.16 3.051-3.2 3.05-3.198 3.09-3.2 3.13-6.476 6.257-6.476 6.415-3.277 3.207-3.277 3.246-3.317 3.285-3.277 3.325-3.316 3.324-3.316 3.364-3.355 3.363-3.355 3.403-3.356 3.442-3.394 3.442-3.355 3.48-3.433 3.52-3.394 3.52-3.434 3.599-3.433 3.56-3.433 3.636-6.944 7.275-3.512 3.716-3.472 3.715-3.55 3.755-3.511 3.755-3.55 3.794-7.101 7.665-3.59 3.912-3.628 3.872-3.589 3.95-3.628 3.95-3.629 3.99-7.334 8.056-3.667 4.107-3.707 4.068-3.745 4.146-3.706 4.145-3.746 4.185-3.745 4.224-7.569 8.527-3.823 4.263-3.823 4.341-3.824 4.38-3.862 4.381-3.901 4.42-3.863 4.42-3.94 4.497-3.902 4.498-3.94 4.537-3.94 4.576-3.98 4.576-12.055 13.963-8.115 9.465-4.096 4.771-4.136 4.811-4.096 4.85-8.35 9.778-4.174 4.928-4.213 5.006-4.214 4.967-4.252 5.046-4.292 5.045-8.583 10.247-4.37 5.163-8.738 10.404-4.409 5.28-4.447 5.28-4.448 5.319-8.973 10.795-4.565 5.436-4.525 5.437-4.604 5.514-4.603 5.554-4.643 5.554-4.643 5.593-9.441 11.342-4.72 5.71-4.8 5.75-4.798 5.788-4.838 5.789-4.876 5.867-4.877 5.905-9.91 11.89-4.993 6.023-10.066 12.125-5.11 6.14-5.15 6.141-5.15 6.219-5.19 6.218-5.227 6.297-10.612 12.673-5.345 6.414-5.384 6.453-5.462 6.454-5.461 6.531-5.501 6.571-5.58 6.61-5.578 6.649-5.657 6.688-5.696 6.727-5.735 6.805-5.774 6.806-11.704 13.767-5.93 6.962-5.97 7-6.047 7.04-6.086 7.12-6.125 7.117-6.164 7.197-6.281 7.236-6.282 7.274-6.359 7.353-6.437 7.353-6.476 7.431-6.516 7.47-6.593 7.55-6.671 7.548-6.75 7.626-6.788 7.705-6.867 7.705-6.905 7.784-7.023 7.822-7.061 7.9-7.14 7.94-7.217 8.018-7.296 8.057-7.373 8.096-7.452 8.174-7.53 8.214-7.607 8.291-7.686 8.331-7.803 8.37-7.88 8.448-7.96 8.526-8.036 8.566" transform="matrix(.10013 0 0 .09987 -28 271)"/></g></svg>