<svg xmlns="http://www.w3.org/2000/svg" width="322pt" height="245pt" viewBox="0 0 322 245"><defs><clipPath id="a"><path d="M160 1.66h2v242.25h-2zm0 0"/></clipPath><clipPath id="b"><path d="M1 122h320v2H1zm0 0"/></clipPath><clipPath id="c"><path d="M1 1.66h1v242.25H1zm0 0"/></clipPath><clipPath id="d"><path d="M80 1.66h2v242.25h-2zm0 0"/></clipPath><clipPath id="e"><path d="M160 1.66h2v242.25h-2zm0 0"/></clipPath><clipPath id="f"><path d="M240 1.66h2v242.25h-2zm0 0"/></clipPath><clipPath id="g"><path d="M320 1.66h1v242.25h-1zm0 0"/></clipPath><clipPath id="h"><path d="M1 243h320v.91H1zm0 0"/></clipPath><clipPath id="i"><path d="M1 183h320v1H1zm0 0"/></clipPath><clipPath id="j"><path d="M1 122h320v2H1zm0 0"/></clipPath><clipPath id="k"><path d="M1 61h320v2H1zm0 0"/></clipPath><clipPath id="l"><path d="M1 1.66h320V2H1zm0 0"/></clipPath></defs><path style="stroke:none;fill-rule:nonzero;fill:#fff;fill-opacity:1" d="M1 243.91h320V1.66H1zm0 0"/><g clip-path="url(#a)"><path style="fill:none;stroke-width:5.70714;stroke-linecap:round;stroke-linejoin:miter;stroke:#bfbfbf;stroke-opacity:1;stroke-miterlimit:10" d="M1997.503-211.163V-2636.7" transform="matrix(.10013 0 0 .09987 -39 265)"/></g><g clip-path="url(#b)"><path style="fill:none;stroke-width:5.70714;stroke-linecap:round;stroke-linejoin:miter;stroke:#bfbfbf;stroke-opacity:1;stroke-miterlimit:10" d="M399.5-1423.931h3196.006" transform="matrix(.10013 0 0 .09987 -39 265)"/></g><g clip-path="url(#c)"><path style="fill:none;stroke-width:5.70714;stroke-linecap:round;stroke-linejoin:miter;stroke:#bfbfbf;stroke-opacity:1;stroke-dasharray:11.4143,17.1214;stroke-miterlimit:10" d="M399.5-211.163V-2636.7" transform="matrix(.10013 0 0 .09987 -39 265)"/></g><g clip-path="url(#d)"><path style="fill:none;stroke-width:5.70714;stroke-linecap:round;stroke-linejoin:miter;stroke:#bfbfbf;stroke-opacity:1;stroke-dasharray:11.4143,17.1214;stroke-miterlimit:10" d="M1198.502-211.163V-2636.7" transform="matrix(.10013 0 0 .09987 -39 265)"/></g><g clip-path="url(#e)"><path style="fill:none;stroke-width:5.70714;stroke-linecap:round;stroke-linejoin:miter;stroke:#bfbfbf;stroke-opacity:1;stroke-dasharray:11.4143,17.1214;stroke-miterlimit:10" d="M1997.503-211.163V-2636.7" transform="matrix(.10013 0 0 .09987 -39 265)"/></g><g clip-path="url(#f)"><path style="fill:none;stroke-width:5.70714;stroke-linecap:round;stroke-linejoin:miter;stroke:#bfbfbf;stroke-opacity:1;stroke-dasharray:11.4143,17.1214;stroke-miterlimit:10" d="M2796.504-211.163V-2636.7" transform="matrix(.10013 0 0 .09987 -39 265)"/></g><g clip-path="url(#g)"><path style="fill:none;stroke-width:5.70714;stroke-linecap:round;stroke-linejoin:miter;stroke:#bfbfbf;stroke-opacity:1;stroke-dasharray:11.4143,17.1214;stroke-miterlimit:10" d="M3595.506-211.163V-2636.7" transform="matrix(.10013 0 0 .09987 -39 265)"/></g><g clip-path="url(#h)"><path style="fill:none;stroke-width:5.70714;stroke-linecap:round;stroke-linejoin:miter;stroke:#bfbfbf;stroke-opacity:1;stroke-dasharray:11.4143,17.1214;stroke-miterlimit:10" d="M399.5-211.163h3196.006" transform="matrix(.10013 0 0 .09987 -39 265)"/></g><g clip-path="url(#i)"><path style="fill:none;stroke-width:5.70714;stroke-linecap:round;stroke-linejoin:miter;stroke:#bfbfbf;stroke-opacity:1;stroke-dasharray:11.4143,17.1214;stroke-miterlimit:10" d="M399.5-817.547h3196.006" transform="matrix(.10013 0 0 .09987 -39 265)"/></g><g clip-path="url(#j)"><path style="fill:none;stroke-width:5.70714;stroke-linecap:round;stroke-linejoin:miter;stroke:#bfbfbf;stroke-opacity:1;stroke-dasharray:11.4143,17.1214;stroke-miterlimit:10" d="M399.5-1423.931h3196.006" transform="matrix(.10013 0 0 .09987 -39 265)"/></g><g clip-path="url(#k)"><path style="fill:none;stroke-width:5.70714;stroke-linecap:round;stroke-linejoin:miter;stroke:#bfbfbf;stroke-opacity:1;stroke-dasharray:11.4143,17.1214;stroke-miterlimit:10" d="M399.5-2030.315h3196.006" transform="matrix(.10013 0 0 .09987 -39 265)"/></g><g clip-path="url(#l)"><path style="fill:none;stroke-width:5.70714;stroke-linecap:round;stroke-linejoin:miter;stroke:#bfbfbf;stroke-opacity:1;stroke-dasharray:11.4143,17.1214;stroke-miterlimit:10" d="M399.5-2636.7h3196.006" transform="matrix(.10013 0 0 .09987 -39 265)"/></g><path style="fill:none;stroke-width:11.4143;stroke-linecap:square;stroke-linejoin:miter;stroke:#000;stroke-opacity:1;stroke-miterlimit:10" d="M399.5-211.163h3196.006" transform="matrix(.10013 0 0 .09987 -39 265)"/><path style="fill:none;stroke-width:5.70714;stroke-linecap:butt;stroke-linejoin:miter;stroke:#000;stroke-opacity:1;stroke-miterlimit:10" d="M399.5-211.163v-45.643m0 45.643v-22.84m79.9 22.84v-22.84m79.9 22.84v-22.84m79.901 22.84v-22.84m79.9 22.84v-22.84m79.9 22.84v-22.84m79.9 22.84v-22.84m79.9 22.84v-22.84m79.901 22.84v-22.84m159.8 22.84v-45.643m0 45.643v-22.84m79.9 22.84v-22.84m79.9 22.84v-22.84m79.9 22.84v-22.84m79.9 22.84v-22.84m79.9 22.84v-22.84m79.901 22.84v-22.84m79.9 22.84v-22.84m79.9 22.84v-22.84m159.8 22.84v-45.643m0 45.643v-22.84m79.9 22.84v-22.84m79.9 22.84v-22.84m79.9 22.84v-22.84m79.901 22.84v-22.84m79.9 22.84v-22.84m79.9 22.84v-22.84m79.9 22.84v-22.84m79.9 22.84v-22.84m159.8 22.84v-45.643m0 45.643v-22.84m79.9 22.84v-22.84m79.901 22.84v-22.84m79.9 22.84v-22.84m79.9 22.84v-22.84m79.9 22.84v-22.84m79.9 22.84v-22.84m79.9 22.84v-22.84m79.9 22.84v-22.84m159.801 22.84v-45.643m0 45.643v-22.84" transform="matrix(.10013 0 0 .09987 -39 265)"/><path style="fill:none;stroke-width:11.4143;stroke-linecap:square;stroke-linejoin:miter;stroke:#000;stroke-opacity:1;stroke-miterlimit:10" d="M399.5-2636.7h3196.006" transform="matrix(.10013 0 0 .09987 -39 265)"/><path style="fill:none;stroke-width:5.70714;stroke-linecap:butt;stroke-linejoin:miter;stroke:#000;stroke-opacity:1;stroke-miterlimit:10" d="M399.5-2636.7v45.643m0-45.643v22.842m79.9-22.842v22.842m79.9-22.842v22.842m79.901-22.842v22.842m79.9-22.842v22.842m79.9-22.842v22.842m79.9-22.842v22.842m79.9-22.842v22.842m79.901-22.842v22.842m159.8-22.842v45.643m0-45.643v22.842m79.9-22.842v22.842m79.9-22.842v22.842m79.9-22.842v22.842m79.9-22.842v22.842m79.9-22.842v22.842m79.901-22.842v22.842m79.9-22.842v22.842m79.9-22.842v22.842m159.8-22.842v45.643m0-45.643v22.842m79.9-22.842v22.842m79.9-22.842v22.842m79.9-22.842v22.842m79.901-22.842v22.842m79.9-22.842v22.842m79.9-22.842v22.842m79.9-22.842v22.842m79.9-22.842v22.842m159.8-22.842v45.643m0-45.643v22.842m79.9-22.842v22.842m79.901-22.842v22.842m79.9-22.842v22.842m79.9-22.842v22.842m79.9-22.842v22.842m79.9-22.842v22.842m79.9-22.842v22.842m79.9-22.842v22.842m159.801-22.842v45.643m0-45.643v22.842" transform="matrix(.10013 0 0 .09987 -39 265)"/><path style="fill:none;stroke-width:11.4143;stroke-linecap:square;stroke-linejoin:miter;stroke:#000;stroke-opacity:1;stroke-miterlimit:10" d="M399.5-211.163V-2636.7" transform="matrix(.10013 0 0 .09987 -39 265)"/><path style="fill:none;stroke-width:5.70714;stroke-linecap:butt;stroke-linejoin:miter;stroke:#000;stroke-opacity:1;stroke-miterlimit:10" d="M399.5-211.163h45.647m-45.647 0h22.824M399.5-271.786h22.824M399.5-332.447h22.824M399.5-393.07h22.824M399.5-453.732h22.824M399.5-514.355h22.824M399.5-574.978h22.824M399.5-635.64h22.824M399.5-696.262h22.824M399.5-817.547h45.647m-45.647 0h22.824M399.5-878.17h22.824M399.5-938.832h22.824M399.5-999.454h22.824m-22.824-60.662h22.824M399.5-1120.74h22.824m-22.824-60.622h22.824m-22.824-60.662h22.824m-22.824-60.623h22.824M399.5-1423.931h45.647m-45.647 0h22.824m-22.824-60.623h22.824m-22.824-60.662h22.824m-22.824-60.623h22.824m-22.824-60.622h22.824m-22.824-60.662h22.824m-22.824-60.623h22.824m-22.824-60.662h22.824M399.5-1909.03h22.824M399.5-2030.315h45.647m-45.647 0h22.824m-22.824-60.623h22.824M399.5-2151.6h22.824m-22.824-60.623h22.824m-22.824-60.662h22.824m-22.824-60.622h22.824M399.5-2394.17h22.824m-22.824-60.622h22.824m-22.824-60.623h22.824M399.5-2636.7h45.647m-45.647 0h22.824" transform="matrix(.10013 0 0 .09987 -39 265)"/><path style="fill:none;stroke-width:11.4143;stroke-linecap:square;stroke-linejoin:miter;stroke:#000;stroke-opacity:1;stroke-miterlimit:10" d="M3595.506-211.163V-2636.7" transform="matrix(.10013 0 0 .09987 -39 265)"/><path style="fill:none;stroke-width:5.70714;stroke-linecap:butt;stroke-linejoin:miter;stroke:#000;stroke-opacity:1;stroke-miterlimit:10" d="M3595.506-211.163h-45.685m45.685 0h-22.823m22.823-60.623h-22.823m22.823-60.661h-22.823m22.823-60.623h-22.823m22.823-60.662h-22.823m22.823-60.623h-22.823m22.823-60.623h-22.823m22.823-60.662h-22.823m22.823-60.622h-22.823m22.823-121.285h-45.685m45.685 0h-22.823m22.823-60.623h-22.823m22.823-60.662h-22.823m22.823-60.622h-22.823m22.823-60.662h-22.823m22.823-60.624h-22.823m22.823-60.622h-22.823m22.823-60.662h-22.823m22.823-60.623h-22.823m22.823-121.284h-45.685m45.685 0h-22.823m22.823-60.623h-22.823m22.823-60.662h-22.823m22.823-60.623h-22.823m22.823-60.622h-22.823m22.823-60.662h-22.823m22.823-60.623h-22.823m22.823-60.662h-22.823m22.823-60.622h-22.823m22.823-121.285h-45.685m45.685 0h-22.823m22.823-60.623h-22.823m22.823-60.662h-22.823m22.823-60.623h-22.823m22.823-60.662h-22.823m22.823-60.622h-22.823m22.823-60.663h-22.823m22.823-60.622h-22.823m22.823-60.623h-22.823m22.823-121.285h-45.685m45.685 0h-22.823" transform="matrix(.10013 0 0 .09987 -39 265)"/><path style="fill:none;stroke-width:11.4143;stroke-linecap:round;stroke-linejoin:miter;stroke:#00f;stroke-opacity:1;stroke-miterlimit:10" d="m470.272-247.771 148.993-147.294m-12.328 36.256 12.328-36.256-36.4 11.93m-97.69-105.485 119.187-106.578m-14.123 35.591 14.123-35.591-36.946 10.051M500.078-724.97l89.38-74.899m-15.254 35.122 15.254-35.122-37.219 8.879m-37.258-165.794 59.574-52.292m-14.435 35.474 14.435-35.474-37.024 9.7m-7.646-184.684 29.767-38.72m-7.296 37.585 7.296-37.586-34.45 16.7m19.586-200.759v-34.183m17.088 34.223-17.088-34.223-17.127 34.223m31.991-218.281-29.767-38.72m34.449 16.7-34.45-16.7 7.296 37.585m37.375-212.571-59.574-52.292m37.024 9.7-37.024-9.7 14.435 35.435m60.042-192.35-89.38-74.898m37.258 8.878-37.258-8.878 15.254 35.122m89.03-164.894-119.187-106.579m36.945 10.091-36.945-10.09 14.123 35.59m119.967-129.185L470.272-2600.09m36.399 11.889-36.4-11.89 12.329 36.256M775.71-247.771l119.187-147.294m-8.232 37.391 8.232-37.39-34.84 15.878M787.648-488.62l95.35-106.578m-10.066 36.921 10.066-36.921-35.62 14.119M799.547-724.97l71.513-74.899M859.824-763.3l11.236-36.569-36.01 12.946m-23.564-169.861 47.674-52.292m-10.416 36.843 10.416-36.843-35.736 13.767m-.039-188.751 23.837-38.72m-3.355 38.133 3.355-38.134-32.498 20.182m20.599-204.241v-34.183m17.127 34.223-17.127-34.223-17.127 34.223m29.026-218.281-23.837-38.72m32.537 20.181-32.537-20.182 3.394 38.134m32.381-213.119-47.674-52.292m35.697 13.768-35.697-13.768 10.416 36.843m49.158-193.758-71.513-74.898m36.049 12.946-36.049-12.946 11.275 36.608m72.176-166.38-95.35-106.579m35.581 14.119-35.58-14.119 10.065 36.96m97.183-130.554L775.71-2600.09m34.878 15.839-34.878-15.84 8.271 37.39m297.207 2314.93 89.38-147.294m-3.121 38.173 3.121-38.173-32.42 20.416m-48.026-113.971 71.512-106.578m-4.877 37.977 4.877-37.977-33.318 18.89m-29.26-148.662 53.605-74.899m-6.008 37.821 6.008-37.82-33.825 17.873m-10.846-174.789 35.737-52.292m-5.189 37.938 5.189-37.938-33.435 18.617m6.632-193.601 17.868-38.72m1.21 38.25-1.21-38.25-29.884 23.896m20.95-207.956v-34.183m17.127 34.223-17.127-34.223-17.127 34.223m26.061-218.281-17.868-38.72m29.885 23.896-29.885-23.897-1.17 38.29m27.973-213.275-35.737-52.292m33.474 18.617-33.474-18.617 5.189 37.939m39.481-194.854-53.604-74.898m33.824 17.874-33.824-17.874 6.008 37.82m56.57-167.592-71.512-106.579m33.278 18.93-33.278-18.93 4.837 37.977m75.609-131.571-89.38-147.254m32.381 20.416-32.381-20.416 3.12 38.173m302.318 2314.147 59.574-147.294m3.043 38.173-3.043-38.173-28.714 25.344m-24.93-118.899 47.675-106.578m1.678 38.251-1.678-38.251-29.572 24.249m-12.134-154.021 35.776-74.899m.702 38.291-.702-38.29-30.236 23.505m.429-180.421 23.838-52.292m1.365 38.251-1.365-38.25-29.768 24.053m11.899-199.038 11.9-38.72m6.281 37.742-6.281-37.743-26.452 27.691m20.483-211.75v-34.183m17.126 34.223-17.126-34.223-17.088 34.223m23.057-218.281-11.9-38.72m26.413 27.691-26.413-27.692-6.32 37.743m24.189-212.728-23.838-52.292m29.768 24.054-29.768-24.054-1.365 38.251m31.171-195.166-35.775-74.898m30.197 23.506-30.197-23.506-.702 38.29m42.408-168.062-47.675-106.579m29.651 24.288-29.65-24.288-1.64 38.251m55.283-131.845-59.574-147.254m28.714 25.344-28.714-25.344-3.043 38.173m308.482 2314.147 29.767-147.294m10.027 36.96-10.027-36.96-23.564 30.194m-3.238-123.749 23.837-106.578m9.246 37.156-9.246-37.156-24.188 29.685m3.355-159.457 17.868-74.899m8.7 37.274-8.7-37.274-24.618 29.334m9.715-186.249 11.899-52.292m9.09 37.196-9.09-37.196-24.306 29.608m15.372-204.592 5.969-38.72m11.704 36.451-11.704-36.452-22.12 31.25m19.155-215.309v-34.183m17.127 34.223-17.127-34.223-17.127 34.223m20.092-218.281-5.97-38.72m22.161 31.249-22.16-31.25-11.704 36.452m20.638-211.437-11.9-52.292m24.306 29.569L1701-1891.08l-9.09 37.195m23.992-194.109-17.868-74.898m24.578 29.333-24.578-29.333-8.74 37.273m29.573-167.045-23.837-106.579m24.188 29.686-24.188-29.686-9.247 37.156m36.049-130.75-29.767-147.254m23.564 30.194-23.564-30.194-9.988 36.96m315.426 2315.36v-147.294m17.127 34.262-17.127-34.262-17.127 34.262m17.127-127.817v-106.578m17.127 34.261-17.127-34.261-17.127 34.261m17.127-164.033v-74.899m17.127 34.223-17.127-34.223-17.127 34.223m17.127-191.138v-52.292m17.127 34.223-17.127-34.223-17.127 34.223m17.127-209.207v-38.72m17.127 34.222-17.127-34.223-17.127 34.223m17.127-218.282v-34.183m17.127 34.223-17.127-34.223-17.127 34.223m17.127-218.281v-38.72m17.127 34.221-17.127-34.222-17.127 34.223m17.127-209.208v-52.292m17.127 34.223-17.127-34.223-17.127 34.223m17.127-191.138v-74.898m17.127 34.262-17.127-34.262-17.127 34.261m17.127-164.033v-106.579m17.127 34.262-17.127-34.262-17.127 34.262m17.127-127.856v-147.254m17.127 34.261-17.127-34.261-17.127 34.261m322.566 2318.059-29.807-147.294m23.603 30.195-23.603-30.195-9.987 36.96m36.829-130.515-23.838-106.578m24.189 29.685-24.189-29.685-9.246 37.156m30.08-166.928-17.869-74.899m24.618 29.334-24.618-29.334-8.7 37.274m23.603-194.189-11.899-52.292m24.267 29.608-24.267-29.608-9.09 37.195m18.024-212.179-5.969-38.72m22.121 31.25-22.12-31.25-11.705 36.451m14.669-220.511v-34.183m17.127 34.223-17.127-34.223-17.127 34.223m14.162-218.281 5.97-38.72m11.704 36.451-11.705-36.452-22.16 31.25m13.226-206.235 11.9-52.292m9.09 37.195-9.09-37.195-24.306 29.569m9.402-186.484 17.869-74.898m8.7 37.273-8.7-37.273-24.58 29.333m3.747-159.105 23.837-106.579m9.207 37.156-9.207-37.156-24.189 29.686m-2.653-123.28 29.807-147.254m9.988 36.961-9.988-36.961-23.565 30.194M2608.38-247.771l-59.574-147.294m28.714 25.345-28.714-25.345-3.043 38.173m56.648-131.728-47.636-106.578m29.612 24.248-29.612-24.248-1.677 38.25m43.383-168.022-35.776-74.899m30.197 23.506-30.197-23.506-.702 38.29m30.509-195.205-23.838-52.292m29.768 24.054-29.768-24.054-1.365 38.251m19.234-213.235-11.9-38.72m26.413 27.69-26.412-27.69-6.32 37.742m12.25-221.802v-34.183m17.126 34.223-17.126-34.223-17.088 34.223m11.158-218.281 11.899-38.72m6.281 37.741-6.281-37.742-26.452 27.691m8.583-202.676 23.838-52.292m1.365 38.251-1.365-38.25-29.768 24.053m-.039-180.969 35.776-74.898m.702 38.29-.702-38.29-30.197 23.506m-11.509-153.278 47.636-106.579m1.678 38.251-1.678-38.25-29.611 24.287m-23.994-117.882 59.574-147.254m3.043 38.173-3.043-38.173-28.714 25.344m334.153 2326.976-89.38-147.294m32.42 20.416-32.42-20.416 3.16 38.173m77.286-131.728-71.513-106.578m33.318 18.891-33.318-18.891 4.877 37.977m57.701-167.749-53.644-74.899m33.864 17.874-33.864-17.874 6.009 37.821m38.701-194.736-35.775-52.292m33.473 18.617-33.473-18.617 5.227 37.938m21.614-212.922-17.868-38.72m29.884 23.896-29.884-23.897-1.21 38.251m10.144-222.31v-34.183m17.127 34.223-17.127-34.223-17.127 34.223m8.193-218.281 17.868-38.72m1.17 38.289-1.17-38.29-29.884 23.897m3.042-198.882 35.776-52.292m-5.189 37.939 5.19-37.939-33.475 18.617m-11.236-175.532 53.644-74.898m-6.008 37.821 6.008-37.821-33.864 17.874m-28.714-147.646 71.513-106.579m-4.838 37.977 4.838-37.977-33.28 18.93m-47.167-112.524 89.38-147.254m-3.12 38.173 3.12-38.173-32.38 20.416m337.819 2331.904L3100.11-395.065m34.839 15.879-34.84-15.879 8.193 37.39m99.056-130.945-95.35-106.578m35.62 14.118-35.62-14.118 10.066 36.92m73.385-166.692-71.551-74.899m36.048 12.946-36.048-12.946 11.275 36.57m48.337-193.485-47.674-52.292m35.736 13.767-35.736-13.767 10.416 36.843m25.32-211.827-23.798-38.72m32.498 20.18-32.498-20.18 3.355 38.133m8.544-222.193v-34.183m17.127 34.223-17.127-34.223-17.127 34.223m5.228-218.281 23.798-38.72m-3.355 38.133 3.355-38.134-32.498 20.182m-3.238-195.167 47.675-52.292m-10.417 36.843 10.417-36.843-35.737 13.768m-23.876-170.683 71.55-74.898m-11.274 36.608 11.275-36.608-36.049 12.946m-47.402-142.718 95.35-106.579m-10.066 36.961 10.066-36.96-35.58 14.118m-71.668-107.713 119.147-147.254m-8.232 37.391 8.232-37.391-34.84 15.84m340.318 2336.48L3375.74-395.065m36.401 11.929-36.4-11.929 12.329 36.256m121.761-129.811-119.186-106.578m36.945 10.051-36.945-10.051 14.122 35.591m90.161-165.363-89.38-74.899m37.219 8.879-37.22-8.879 15.216 35.122m59.262-192.037-59.574-52.292m37.024 9.7-37.024-9.7 14.435 35.474m30.236-210.458-29.807-38.72m34.449 16.7-34.449-16.7 7.335 37.585m7.568-221.645v-34.183m17.128 34.223-17.128-34.223-17.127 34.223m2.224-218.281 29.807-38.72m-7.296 37.585 7.296-37.586-34.45 16.7m-10.221-191.685 59.574-52.292m-14.435 35.435 14.435-35.435-37.024 9.7m-37.453-166.615 89.38-74.898m-15.254 35.122 15.254-35.122-37.258 8.878m-67.025-138.65 119.186-106.579m-14.123 35.592 14.123-35.592-36.946 10.09m-97.144-103.684 148.994-147.254m-12.329 36.256 12.329-36.256-36.4 11.89" transform="matrix(.10013 0 0 .09987 -39 265)"/></svg>