<svg xmlns="http://www.w3.org/2000/svg" xmlns:xlink="http://www.w3.org/1999/xlink" width="344pt" height="260pt" viewBox="0 0 344 260"><defs><clipPath id="a"><path d="M171 7.66h2v242.25h-2zm0 0"/></clipPath><clipPath id="b"><path d="M12 128h320v2H12zm0 0"/></clipPath><clipPath id="c"><path d="M12 7.66h1v242.25h-1zm0 0"/></clipPath><clipPath id="d"><path d="M91 7.66h2v242.25h-2zm0 0"/></clipPath><clipPath id="e"><path d="M171 7.66h2v242.25h-2zm0 0"/></clipPath><clipPath id="f"><path d="M251 7.66h2v242.25h-2zm0 0"/></clipPath><clipPath id="g"><path d="M331 7.66h1v242.25h-1zm0 0"/></clipPath><clipPath id="h"><path d="M12 249h320v.91H12zm0 0"/></clipPath><clipPath id="i"><path d="M12 189h320v1H12zm0 0"/></clipPath><clipPath id="j"><path d="M12 128h320v2H12zm0 0"/></clipPath><clipPath id="k"><path d="M12 67h320v2H12zm0 0"/></clipPath><clipPath id="l"><path d="M12 7.66h320V8H12zm0 0"/></clipPath><clipPath id="q"><path d="M131 7.66h201V208H131zm0 0"/></clipPath><clipPath id="r"><path d="M311 10h21v174h-21zm0 0"/></clipPath><clipPath id="s"><path d="M297 7.66h35V196h-35zm0 0"/></clipPath><clipPath id="t"><path d="M109 7.66h223V221H109zm0 0"/></clipPath><clipPath id="u"><path d="M80 7.66h252V245H80zm0 0"/></clipPath><clipPath id="v"><path d="M69 7.66h263v242.25H69zm0 0"/></clipPath><symbol overflow="visible" id="m"><path style="stroke:none" d="M1.953-2.14H.313v.5h1.64zm0 0"/></symbol><symbol overflow="visible" id="n"><path style="stroke:none" d="M3.469-.594H.906c.063-.406.281-.656.89-1l.673-.375c.687-.36 1.031-.86 1.031-1.453 0-.406-.156-.781-.453-1.047-.281-.265-.64-.39-1.094-.39-.625 0-1.078.218-1.344.64-.171.25-.25.563-.265 1.047h.61c.015-.328.062-.531.14-.687a.94.94 0 0 1 .828-.47c.547 0 .969.391.969.907 0 .39-.235.719-.657.969l-.64.36C.578-1.532.28-1.064.234 0H3.47zm0 0"/></symbol><symbol overflow="visible" id="o"><path style="stroke:none" d="M1.781-3.453V0h.594v-4.86h-.39c-.22.75-.36.86-1.282.97v.437zm0 0"/></symbol><symbol overflow="visible" id="p"><path style="stroke:none" d="M1.89-4.86c-.452 0-.874.204-1.124.548-.313.421-.47 1.062-.47 1.968 0 1.625.548 2.5 1.595 2.5 1.03 0 1.593-.875 1.593-2.469 0-.937-.156-1.562-.484-2a1.355 1.355 0 0 0-1.11-.546zm0 .548c.641 0 .97.656.97 1.953 0 1.375-.313 2.015-.985 2.015-.64 0-.969-.672-.969-2 0-1.328.328-1.969.985-1.969zm0 0"/></symbol></defs><path style="stroke:none;fill-rule:nonzero;fill:#fff;fill-opacity:1" d="M12 249.91h320V7.66H12zm0 0"/><g clip-path="url(#a)"><path style="fill:none;stroke-width:5.70714;stroke-linecap:round;stroke-linejoin:miter;stroke:#bfbfbf;stroke-opacity:1;stroke-miterlimit:10" d="M1997.503-211.163V-2636.7" transform="matrix(.10013 0 0 .09987 -28 271)"/></g><g clip-path="url(#b)"><path style="fill:none;stroke-width:5.70714;stroke-linecap:round;stroke-linejoin:miter;stroke:#bfbfbf;stroke-opacity:1;stroke-miterlimit:10" d="M399.5-1423.931h3196.006" transform="matrix(.10013 0 0 .09987 -28 271)"/></g><g clip-path="url(#c)"><path style="fill:none;stroke-width:5.70714;stroke-linecap:round;stroke-linejoin:miter;stroke:#bfbfbf;stroke-opacity:1;stroke-dasharray:11.4143,17.1214;stroke-miterlimit:10" d="M399.5-211.163V-2636.7" transform="matrix(.10013 0 0 .09987 -28 271)"/></g><g clip-path="url(#d)"><path style="fill:none;stroke-width:5.70714;stroke-linecap:round;stroke-linejoin:miter;stroke:#bfbfbf;stroke-opacity:1;stroke-dasharray:11.4143,17.1214;stroke-miterlimit:10" d="M1198.502-211.163V-2636.7" transform="matrix(.10013 0 0 .09987 -28 271)"/></g><g clip-path="url(#e)"><path style="fill:none;stroke-width:5.70714;stroke-linecap:round;stroke-linejoin:miter;stroke:#bfbfbf;stroke-opacity:1;stroke-dasharray:11.4143,17.1214;stroke-miterlimit:10" d="M1997.503-211.163V-2636.7" transform="matrix(.10013 0 0 .09987 -28 271)"/></g><g clip-path="url(#f)"><path style="fill:none;stroke-width:5.70714;stroke-linecap:round;stroke-linejoin:miter;stroke:#bfbfbf;stroke-opacity:1;stroke-dasharray:11.4143,17.1214;stroke-miterlimit:10" d="M2796.504-211.163V-2636.7" transform="matrix(.10013 0 0 .09987 -28 271)"/></g><g clip-path="url(#g)"><path style="fill:none;stroke-width:5.70714;stroke-linecap:round;stroke-linejoin:miter;stroke:#bfbfbf;stroke-opacity:1;stroke-dasharray:11.4143,17.1214;stroke-miterlimit:10" d="M3595.506-211.163V-2636.7" transform="matrix(.10013 0 0 .09987 -28 271)"/></g><g clip-path="url(#h)"><path style="fill:none;stroke-width:5.70714;stroke-linecap:round;stroke-linejoin:miter;stroke:#bfbfbf;stroke-opacity:1;stroke-dasharray:11.4143,17.1214;stroke-miterlimit:10" d="M399.5-211.163h3196.006" transform="matrix(.10013 0 0 .09987 -28 271)"/></g><g clip-path="url(#i)"><path style="fill:none;stroke-width:5.70714;stroke-linecap:round;stroke-linejoin:miter;stroke:#bfbfbf;stroke-opacity:1;stroke-dasharray:11.4143,17.1214;stroke-miterlimit:10" d="M399.5-817.547h3196.006" transform="matrix(.10013 0 0 .09987 -28 271)"/></g><g clip-path="url(#j)"><path style="fill:none;stroke-width:5.70714;stroke-linecap:round;stroke-linejoin:miter;stroke:#bfbfbf;stroke-opacity:1;stroke-dasharray:11.4143,17.1214;stroke-miterlimit:10" d="M399.5-1423.931h3196.006" transform="matrix(.10013 0 0 .09987 -28 271)"/></g><g clip-path="url(#k)"><path style="fill:none;stroke-width:5.70714;stroke-linecap:round;stroke-linejoin:miter;stroke:#bfbfbf;stroke-opacity:1;stroke-dasharray:11.4143,17.1214;stroke-miterlimit:10" d="M399.5-2030.315h3196.006" transform="matrix(.10013 0 0 .09987 -28 271)"/></g><g clip-path="url(#l)"><path style="fill:none;stroke-width:5.70714;stroke-linecap:round;stroke-linejoin:miter;stroke:#bfbfbf;stroke-opacity:1;stroke-dasharray:11.4143,17.1214;stroke-miterlimit:10" d="M399.5-2636.7h3196.006" transform="matrix(.10013 0 0 .09987 -28 271)"/></g><path style="fill:none;stroke-width:11.4143;stroke-linecap:square;stroke-linejoin:miter;stroke:#000;stroke-opacity:1;stroke-miterlimit:10" d="M399.5-211.163h3196.006" transform="matrix(.10013 0 0 .09987 -28 271)"/><path style="fill:none;stroke-width:5.70714;stroke-linecap:butt;stroke-linejoin:miter;stroke:#000;stroke-opacity:1;stroke-miterlimit:10" d="M399.5-211.163v-45.643m0 45.643v-22.84m79.9 22.84v-22.84m79.9 22.84v-22.84m79.901 22.84v-22.84m79.9 22.84v-22.84m79.9 22.84v-22.84m79.9 22.84v-22.84m79.9 22.84v-22.84m79.901 22.84v-22.84m159.8 22.84v-45.643m0 45.643v-22.84m79.9 22.84v-22.84m79.9 22.84v-22.84m79.9 22.84v-22.84m79.9 22.84v-22.84m79.9 22.84v-22.84m79.901 22.84v-22.84m79.9 22.84v-22.84m79.9 22.84v-22.84m159.8 22.84v-45.643m0 45.643v-22.84m79.9 22.84v-22.84m79.9 22.84v-22.84m79.9 22.84v-22.84m79.901 22.84v-22.84m79.9 22.84v-22.84m79.9 22.84v-22.84m79.9 22.84v-22.84m79.9 22.84v-22.84m159.8 22.84v-45.643m0 45.643v-22.84m79.9 22.84v-22.84m79.901 22.84v-22.84m79.9 22.84v-22.84m79.9 22.84v-22.84m79.9 22.84v-22.84m79.9 22.84v-22.84m79.9 22.84v-22.84m79.9 22.84v-22.84m159.801 22.84v-45.643m0 45.643v-22.84" transform="matrix(.10013 0 0 .09987 -28 271)"/><g style="fill:#000;fill-opacity:1"><use xlink:href="#m" x="8.952" y="259.03"/><use xlink:href="#n" x="11.236" y="259.03"/></g><g style="fill:#000;fill-opacity:1"><use xlink:href="#m" x="88.953" y="259.03"/><use xlink:href="#o" x="91.236" y="259.03"/></g><use xlink:href="#p" x="170.094" y="259.03" style="fill:#000;fill-opacity:1"/><use xlink:href="#o" x="249.524" y="259.03" style="fill:#000;fill-opacity:1"/><use xlink:href="#n" x="330.095" y="259.03" style="fill:#000;fill-opacity:1"/><path style="fill:none;stroke-width:11.4143;stroke-linecap:square;stroke-linejoin:miter;stroke:#000;stroke-opacity:1;stroke-miterlimit:10" d="M399.5-2636.7h3196.006" transform="matrix(.10013 0 0 .09987 -28 271)"/><path style="fill:none;stroke-width:5.70714;stroke-linecap:butt;stroke-linejoin:miter;stroke:#000;stroke-opacity:1;stroke-miterlimit:10" d="M399.5-2636.7v45.643m0-45.643v22.842m79.9-22.842v22.842m79.9-22.842v22.842m79.901-22.842v22.842m79.9-22.842v22.842m79.9-22.842v22.842m79.9-22.842v22.842m79.9-22.842v22.842m79.901-22.842v22.842m159.8-22.842v45.643m0-45.643v22.842m79.9-22.842v22.842m79.9-22.842v22.842m79.9-22.842v22.842m79.9-22.842v22.842m79.9-22.842v22.842m79.901-22.842v22.842m79.9-22.842v22.842m79.9-22.842v22.842m159.8-22.842v45.643m0-45.643v22.842m79.9-22.842v22.842m79.9-22.842v22.842m79.9-22.842v22.842m79.901-22.842v22.842m79.9-22.842v22.842m79.9-22.842v22.842m79.9-22.842v22.842m79.9-22.842v22.842m159.8-22.842v45.643m0-45.643v22.842m79.9-22.842v22.842m79.901-22.842v22.842m79.9-22.842v22.842m79.9-22.842v22.842m79.9-22.842v22.842m79.9-22.842v22.842m79.9-22.842v22.842m79.9-22.842v22.842m159.801-22.842v45.643m0-45.643v22.842" transform="matrix(.10013 0 0 .09987 -28 271)"/><g style="fill:#000;fill-opacity:1"><use xlink:href="#m" x="8.952" y="5.38"/><use xlink:href="#n" x="11.236" y="5.38"/></g><g style="fill:#000;fill-opacity:1"><use xlink:href="#m" x="88.953" y="5.38"/><use xlink:href="#o" x="91.236" y="5.38"/></g><use xlink:href="#p" x="170.094" y="5.38" style="fill:#000;fill-opacity:1"/><use xlink:href="#o" x="249.524" y="5.38" style="fill:#000;fill-opacity:1"/><use xlink:href="#n" x="330.095" y="5.38" style="fill:#000;fill-opacity:1"/><path style="fill:none;stroke-width:11.4143;stroke-linecap:square;stroke-linejoin:miter;stroke:#000;stroke-opacity:1;stroke-miterlimit:10" d="M399.5-211.163V-2636.7" transform="matrix(.10013 0 0 .09987 -28 271)"/><path style="fill:none;stroke-width:5.70714;stroke-linecap:butt;stroke-linejoin:miter;stroke:#000;stroke-opacity:1;stroke-miterlimit:10" d="M399.5-211.163h45.647m-45.647 0h22.824M399.5-271.786h22.824M399.5-332.447h22.824M399.5-393.07h22.824M399.5-453.732h22.824M399.5-514.355h22.824M399.5-574.978h22.824M399.5-635.64h22.824M399.5-696.262h22.824M399.5-817.547h45.647m-45.647 0h22.824M399.5-878.17h22.824M399.5-938.832h22.824M399.5-999.454h22.824m-22.824-60.662h22.824M399.5-1120.74h22.824m-22.824-60.622h22.824m-22.824-60.662h22.824m-22.824-60.623h22.824M399.5-1423.931h45.647m-45.647 0h22.824m-22.824-60.623h22.824m-22.824-60.662h22.824m-22.824-60.623h22.824m-22.824-60.622h22.824m-22.824-60.662h22.824m-22.824-60.623h22.824m-22.824-60.662h22.824M399.5-1909.03h22.824M399.5-2030.315h45.647m-45.647 0h22.824m-22.824-60.623h22.824M399.5-2151.6h22.824m-22.824-60.623h22.824m-22.824-60.662h22.824m-22.824-60.622h22.824M399.5-2394.17h22.824m-22.824-60.622h22.824m-22.824-60.623h22.824M399.5-2636.7h45.647m-45.647 0h22.824" transform="matrix(.10013 0 0 .09987 -28 271)"/><g style="fill:#000;fill-opacity:1"><use xlink:href="#m" x=".19" y="253.33"/><use xlink:href="#n" x="2.474" y="253.33"/></g><g style="fill:#000;fill-opacity:1"><use xlink:href="#m" x=".19" y="192.34"/><use xlink:href="#o" x="2.474" y="192.34"/></g><use xlink:href="#p" x="2.473" y="131.92" style="fill:#000;fill-opacity:1"/><use xlink:href="#o" x="2.473" y="71.5" style="fill:#000;fill-opacity:1"/><use xlink:href="#n" x="2.473" y="11.08" style="fill:#000;fill-opacity:1"/><path style="fill:none;stroke-width:11.4143;stroke-linecap:square;stroke-linejoin:miter;stroke:#000;stroke-opacity:1;stroke-miterlimit:10" d="M3595.506-211.163V-2636.7" transform="matrix(.10013 0 0 .09987 -28 271)"/><path style="fill:none;stroke-width:5.70714;stroke-linecap:butt;stroke-linejoin:miter;stroke:#000;stroke-opacity:1;stroke-miterlimit:10" d="M3595.506-211.163h-45.685m45.685 0h-22.823m22.823-60.623h-22.823m22.823-60.661h-22.823m22.823-60.623h-22.823m22.823-60.662h-22.823m22.823-60.623h-22.823m22.823-60.623h-22.823m22.823-60.662h-22.823m22.823-60.622h-22.823m22.823-121.285h-45.685m45.685 0h-22.823m22.823-60.623h-22.823m22.823-60.662h-22.823m22.823-60.622h-22.823m22.823-60.662h-22.823m22.823-60.624h-22.823m22.823-60.622h-22.823m22.823-60.662h-22.823m22.823-60.623h-22.823m22.823-121.284h-45.685m45.685 0h-22.823m22.823-60.623h-22.823m22.823-60.662h-22.823m22.823-60.623h-22.823m22.823-60.622h-22.823m22.823-60.662h-22.823m22.823-60.623h-22.823m22.823-60.662h-22.823m22.823-60.622h-22.823m22.823-121.285h-45.685m45.685 0h-22.823m22.823-60.623h-22.823m22.823-60.662h-22.823m22.823-60.623h-22.823m22.823-60.662h-22.823m22.823-60.622h-22.823m22.823-60.663h-22.823m22.823-60.622h-22.823m22.823-60.623h-22.823m22.823-121.285h-45.685m45.685 0h-22.823" transform="matrix(.10013 0 0 .09987 -28 271)"/><g style="fill:#000;fill-opacity:1"><use xlink:href="#m" x="337.714" y="253.33"/><use xlink:href="#n" x="339.997" y="253.33"/></g><g style="fill:#000;fill-opacity:1"><use xlink:href="#m" x="337.714" y="192.34"/><use xlink:href="#o" x="339.997" y="192.34"/></g><use xlink:href="#p" x="337.714" y="131.92" style="fill:#000;fill-opacity:1"/><use xlink:href="#o" x="337.714" y="71.5" style="fill:#000;fill-opacity:1"/><use xlink:href="#n" x="337.714" y="11.08" style="fill:#000;fill-opacity:1"/><path style="fill:none;stroke-width:5.70714;stroke-linecap:round;stroke-linejoin:miter;stroke:#00f;stroke-opacity:1;stroke-miterlimit:10" d="m503.238-219.337-47.675-104.936m29.767 24.132-29.767-24.132-1.404 38.29m46.543-54.639L458.06-445.519m28.792 25.266-28.792-25.266-2.965 38.173m43.11-54.56-37.609-104.897m27.661 26.439-27.66-26.44-4.565 38.017m39.676-54.404-32.615-104.897m26.529 27.613-26.529-27.613-6.164 37.782m36.283-54.17L465.59-809.373m25.28 28.786-25.28-28.786-7.842 37.508m32.928-53.856-22.55-104.897m23.915 29.842-23.915-29.842-9.559 37.077m29.612-53.465-17.556-104.897m22.55 30.937-22.55-30.937-11.236 36.608m26.295-52.995-12.562-104.898m21.067 31.954-21.067-31.954-12.914 36.022m22.94-52.409-7.49-104.897m19.506 32.932-19.507-32.932-14.63 35.396m19.625-51.744-2.498-104.937m17.947 33.832-17.947-33.832-16.307 34.653m16.307-51.001 2.497-104.897m16.308 34.613-16.308-34.613-17.946 33.831m12.952-50.219 7.491-104.897m14.63 35.396-14.63-35.396-19.507 32.932m9.481-49.32 12.562-104.897m12.914 36.022-12.914-36.022-21.067 31.954m6.008-48.342 17.556-104.896m11.236 36.608-11.236-36.608-22.55 30.937m2.497-47.325 22.55-104.897m9.558 37.078-9.558-37.078-23.916 29.881m-1.17-46.269 27.622-104.858m7.841 37.469-7.841-37.469-25.281 28.747m-4.838-45.134 32.615-104.897m6.165 37.781-6.165-37.781-26.529 27.612m-8.583-44 37.61-104.897m4.564 38.016-4.565-38.016-27.66 26.44m-12.485-42.828 42.642-104.897m2.965 38.173-2.965-38.173-28.753 25.266m-16.386-41.653 47.675-104.897m1.405 38.29-1.405-38.29-29.767 24.092M663.038-228.098l-47.674-87.414m31.445 21.902-31.445-21.902 1.365 38.29m43.773-72.161-42.642-87.375m30.431 23.232-30.43-23.232-.352 38.29m40.497-72.199-37.61-87.375m29.261 24.679-29.26-24.68-2.185 38.212m37.297-72.121-32.616-87.375m28.012 26.087-28.012-26.087-4.057 38.055m34.176-71.965-27.622-87.375m26.647 27.496-26.647-27.496-6.008 37.821m31.094-71.691-22.55-87.414m25.124 28.903-25.124-28.903-8.037 37.468m28.091-71.339-17.557-87.375m23.525 30.194-23.525-30.194-10.027 36.921m25.086-70.831-12.562-87.375m21.808 31.446-21.808-31.446-12.055 36.335m22.081-70.244-7.49-87.375m19.974 32.658-19.974-32.658-14.123 35.591m19.117-69.5-2.497-87.376m18.102 33.753-18.102-33.753-16.152 34.731m16.152-68.601 2.496-87.375m16.152 34.691-16.152-34.691-18.102 33.714m13.109-67.624 7.49-87.375m14.124 35.591-14.124-35.591-19.975 32.619m9.949-66.529 12.562-87.375m12.055 36.335-12.055-36.335-21.808 31.446m6.749-65.355 17.556-87.375m10.027 36.96-10.027-36.96-23.525 30.194m3.472-64.104 22.55-87.375m8.037 37.469-8.037-37.47-25.125 28.865m.039-62.734 27.622-87.415m6.008 37.821-6.008-37.82-26.647 27.495m-3.472-61.366 32.616-87.375m4.057 38.055-4.057-38.055-28.012 26.087m-7.101-59.997 37.61-87.375m2.184 38.212-2.184-38.212-29.26 24.68m-10.886-58.59 42.642-87.375m.391 38.29-.39-38.29-30.392 23.272m-14.747-57.182 47.674-87.374m-1.365 38.29 1.365-38.29-31.445 21.863M822.839-236.116l-47.675-71.378m33.24 18.969-33.24-18.97 4.799 37.978m40.34-87.883-42.643-71.38m32.265 20.613-32.264-20.612 2.887 38.173m37.258-88.079-37.61-71.379m31.094 22.333-31.093-22.333.819 38.29m34.293-88.156-32.615-71.38m29.806 24.015-29.806-24.014-1.327 38.25m31.445-88.156-27.622-71.379m28.324 25.774-28.324-25.774-3.589 38.095m28.675-88.001-22.55-71.379m26.647 27.496-26.647-27.496-6.008 37.821m26.062-87.727-17.557-71.378m24.813 29.177-24.813-29.177-8.466 37.351m23.525-87.258-12.562-71.378m22.784 30.781-22.784-30.78-10.924 36.686m20.951-86.554-7.491-71.378m20.599 32.227-20.6-32.227-13.459 35.826m18.454-85.733-2.497-71.378m18.297 33.597-18.297-33.597-15.918 34.81m15.918-84.716 2.497-71.379m15.917 34.809-15.917-34.809-18.298 33.636m13.304-83.542 7.49-71.378m13.46 35.865-13.46-35.865-20.599 32.267m10.573-82.135 12.562-71.417m10.924 36.686-10.924-36.686-22.784 30.78m7.725-80.648 17.556-71.378m8.427 37.313-8.427-37.313-24.812 29.138m4.759-79.044 22.55-71.378m6.008 37.821-6.008-37.821-26.646 27.456m1.56-77.363 27.622-71.378m3.589 38.095-3.589-38.095-28.324 25.775m-1.794-75.681 32.615-71.379m1.326 38.291-1.326-38.29-29.807 24.053m-5.305-73.921 37.609-71.417m-.819 38.29.819-38.29-31.094 22.332m-9.052-72.199 42.643-71.379m-2.848 38.173 2.848-38.173-32.226 20.612m-12.913-70.518 47.675-71.378m-4.799 37.976 4.799-37.976-33.28 18.969m193.08 2349.425-47.675-56.907m35.112 15.254-35.112-15.254 8.856 37.234m36.283-101.611-42.642-56.907m34.254 17.13-34.254-17.13 6.866 37.664m33.279-102.003-37.61-56.946m33.163 19.125-33.162-19.125 4.603 38.016m30.51-102.354-32.616-56.908m31.874 21.16-31.874-21.16 2.185 38.212m27.933-102.589-27.621-56.907m30.352 23.349-30.352-23.35-.469 38.252m25.554-102.629-22.55-56.907m28.52 25.501-28.52-25.5-3.316 38.133m23.37-102.511-17.557-56.908m26.452 27.691-26.452-27.69-6.28 37.781m21.34-102.12-12.563-56.946m24.11 29.764-24.11-29.764-9.324 37.117m19.351-101.455-7.49-56.947m21.457 31.719-21.458-31.719-12.523 36.217m17.517-100.555-2.497-56.907m18.61 33.44-18.61-33.44-15.605 34.965m15.605-99.343 2.497-56.907m15.605 34.966-15.605-34.966-18.61 33.44m13.616-97.818 7.49-56.907m12.485 36.217-12.484-36.217-21.458 31.72m11.431-96.058 12.563-56.946m9.324 37.156-9.324-37.156-24.11 29.763m9.05-94.102 17.557-56.907m6.28 37.742-6.28-37.742-26.452 27.652m6.399-92.03 22.55-56.907m3.316 38.134-3.317-38.134-28.519 25.501m3.433-89.878 27.622-56.907m.468 38.29-.468-38.29-30.352 23.35m.234-87.728 32.615-56.907m-2.185 38.212 2.185-38.212-31.874 21.198m-3.238-85.536 37.61-56.947m-4.605 38.017 4.604-38.017-33.162 19.126m-6.983-83.464 42.642-56.946m-6.827 37.703 6.827-37.703-34.215 17.17m-10.924-81.509 47.675-56.907m-8.856 37.234 8.856-37.234-35.112 15.254M1142.44-249.805l-47.676-44m36.79 10.638-36.79-10.638 13.577 35.826m31.562-113.111-42.642-43.96m36.166 12.632-36.166-12.633 11.548 36.491m28.597-113.814-37.609-43.962m35.269 14.863-35.269-14.863 9.246 37.156m25.867-114.479-32.616-43.961m34.137 17.326-34.137-17.326 6.632 37.703m23.448-114.987-27.583-44m32.732 19.907-32.732-19.908 3.706 38.095m21.38-115.38-22.55-44m30.86 22.646-30.86-22.646.39 38.29m19.663-115.574-17.556-43.961m28.596 25.422-28.596-25.422-3.2 38.134m18.259-115.457-12.562-43.962m25.866 28.239-25.866-28.239-7.062 37.625m17.088-114.948-7.49-43.961m22.627 30.859-22.628-30.86-11.118 36.648m16.112-113.932-2.497-44m19.039 33.206-19.039-33.206-15.137 35.161m15.137-112.445 2.497-44m15.138 35.16-15.138-35.16-19.039 33.244m14.045-110.529 7.491-44m11.119 36.648-11.119-36.648-22.628 30.898m12.601-108.183 12.563-43.96m7.061 37.624-7.061-37.625-25.866 28.239m10.807-105.562 17.556-43.962m3.199 38.134-3.2-38.134-28.596 25.462m8.544-102.746 22.55-44m-.39 38.29.39-38.29-30.86 22.645m5.773-99.93 27.584-44m-3.668 38.134 3.668-38.134-32.694 19.908m2.614-97.192 32.615-43.961m-6.632 37.663 6.632-37.663-34.176 17.287m-.936-94.611 37.61-43.961m-9.247 37.156 9.246-37.156-35.268 14.862m-4.877-92.186 42.642-43.96m-11.509 36.49 11.51-36.49-36.127 12.671m-9.013-89.995 47.675-43.961m-13.577 35.826 13.577-35.826-36.79 10.638M1302.24-255.515l-47.675-32.58m37.921 5.202-37.921-5.202 18.61 33.48m26.528-122.185-42.642-32.54m37.609 7.157-37.609-7.158 16.854 34.38m23.292-123.124-37.61-32.54m37.103 9.465-37.103-9.465 14.67 35.356m20.443-124.101-32.616-32.54m36.322 12.086-36.322-12.086 12.134 36.296m17.946-125.001-27.583-32.58m35.229 15.058-35.229-15.058 9.09 37.195m15.996-125.9-22.55-32.58m33.591 18.383-33.591-18.382 5.423 37.899m14.63-126.604-17.556-32.54m31.328 21.98-31.328-21.98 1.17 38.25m13.889-126.995-12.562-32.54m28.285 25.774-28.285-25.774-3.668 38.094m13.694-126.838-7.49-32.541m24.383 29.49-24.383-29.49-8.973 37.234m13.966-125.978-2.496-32.54m19.701 32.853-19.701-32.854-14.436 35.474m14.436-124.179 2.496-32.58m14.436 35.474-14.436-35.473-19.701 32.853m14.708-121.558 7.49-32.541m8.973 37.195-8.973-37.195-24.383 29.49m14.356-118.234 12.563-32.54m3.667 38.093-3.667-38.094-28.285 25.775m13.226-114.519 17.556-32.54m-1.21 38.251 1.21-38.251-31.328 22.02m11.275-110.725 22.55-32.58m-5.423 37.899 5.423-37.899-33.59 18.382m8.504-107.087 27.583-32.58m-9.051 37.195 9.05-37.195-35.19 15.058m5.111-103.762 32.616-32.541m-12.134 36.295 12.134-36.295-36.322 12.046m1.209-100.79 37.61-32.54m-14.67 35.356 14.67-35.357-37.102 9.465m-3.044-98.209 42.642-32.54m-16.814 34.378 16.814-34.379-37.609 7.158m-7.529-95.901 47.674-32.541m-18.649 33.44 18.65-33.44-37.922 5.202M1462.04-260.482l-47.675-22.646m38.272-.782-38.272.782 23.603 30.155m21.536-128.794-42.642-22.646m38.272.939-38.272-.939 22.238 31.211m17.907-129.811-37.61-22.684m38.156 3.011-38.155-3.011 20.482 32.345m14.63-130.945-32.615-22.646m37.882 5.476-37.882-5.476 18.336 33.558m11.743-132.197-27.583-22.645m37.337 8.487-37.337-8.487 15.606 34.965m9.48-133.605-22.55-22.645m36.283 12.164-36.283-12.164 12.017 36.334m8.036-134.973-17.556-22.646m34.488 16.583-34.488-16.583 7.452 37.547m7.607-136.147-12.562-22.684m31.562 21.667-31.562-21.667 1.6 38.29m8.427-136.89-7.491-22.685m27.036 27.143-27.036-27.143-5.462 37.899m10.455-136.499-2.496-22.646m20.794 32.15-20.794-32.15-13.265 35.905m13.265-134.543 2.497-22.646m13.264 35.904-13.264-35.904-20.795 32.15m15.801-130.789 7.49-22.646m5.463 37.899-5.462-37.899-27.037 27.104m17.01-125.704 12.562-22.685m-1.638 38.251 1.638-38.25-31.562 21.667m16.503-120.268 17.556-22.645m-7.451 37.547 7.451-37.547-34.527 16.544m14.474-115.183 22.55-22.646m-12.016 36.335 12.016-36.335-36.283 12.164m11.197-110.803 27.583-22.645m-15.566 34.965 15.566-34.965-37.297 8.487m7.218-107.087 32.615-22.685m-18.375 33.597 18.375-33.597-37.882 5.475m2.77-104.075 37.609-22.685m-20.482 32.345 20.482-32.345-38.156 3.012m-1.989-101.612 42.642-22.645m-22.199 31.171 22.199-31.171-38.273.938m-6.866-99.577 47.675-22.646m-23.604 30.155 23.604-30.155-38.273-.782M1621.84-264.667l-47.675-14.276m37.726-6.571-37.726 6.571 27.895 26.244m17.244-133.253-42.642-14.276m37.921-5.358-37.921 5.358 27.037 27.105m13.108-134.075-37.61-14.314m38.078-3.833-38.077 3.833 25.944 28.16m9.168-135.13-32.615-14.276m38.233-1.955-38.233 1.955 24.5 29.412m5.579-136.421-27.582-14.276m38.272.509-38.272-.509 22.55 30.938m2.535-137.946-22.55-14.276m38.078 3.833-38.077-3.833 19.78 32.775m.272-139.784-17.556-14.276m37.376 8.331-37.376-8.33 15.762 34.887m-.702-141.858-12.563-14.315m35.464 14.433-35.464-14.433 9.754 37.04m.273-144.009-7.49-14.276m31.093 22.293-31.094-22.293.82 38.251m4.173-145.26-2.496-14.276m22.784 30.742-22.784-30.742-10.963 36.687m10.963-143.696 2.497-14.275m10.924 36.686-10.924-36.686-22.784 30.78m17.79-137.789 7.49-14.276m-.818 38.29.819-38.29-31.094 22.333m21.067-129.342 12.563-14.276m-9.754 37.039 9.754-37.039-35.464 14.432m20.404-121.401 17.557-14.276m-15.762 34.887 15.762-34.887-37.376 8.291m17.323-115.3 22.55-14.276m-19.78 32.776 19.78-32.776-38.078 3.833m12.992-110.842 27.582-14.276m-22.511 30.938 22.511-30.938-38.272.548m8.193-107.557 32.615-14.275m-24.5 29.412 24.5-29.412-38.233-1.956m3.121-105.054 37.61-14.275m-25.945 28.16 25.944-28.16-38.077-3.833m-2.068-103.137 42.642-14.315m-26.998 27.144 26.998-27.144-37.882-5.358m-7.257-101.612 47.675-14.275m-27.895 26.244 27.895-26.244-37.726-6.57M1781.64-268.11l-47.675-7.391m36.478-11.655-36.478 11.655 31.211 22.176m13.928-136.03-42.642-7.43m36.673-10.991-36.673 10.99 30.821 22.724m9.324-136.578-37.609-7.43m36.907-10.17-36.907 10.17 30.275 23.427m4.837-137.281-32.615-7.431m37.18-9.074-37.18 9.074 29.572 24.327m.508-138.181-27.583-7.392m37.531-7.666-37.531 7.666 28.636 25.423m-3.55-139.315-22.55-7.392m37.843-5.593-37.843 5.593 27.153 26.947m-7.101-140.801-17.555-7.431m38.195-2.425-38.195 2.425 24.89 29.099m-9.831-142.953-12.562-7.43m38.194 2.698-38.194-2.699 20.755 32.189m-10.729-146.042-7.49-7.431m36.399 11.85-36.4-11.85 12.329 36.256m-7.335-150.11-2.497-7.392m27.193 26.948-27.193-26.948-5.267 37.9m5.267-151.792 2.497-7.393m5.267 37.9-5.267-37.9-27.192 26.948m22.198-140.801 7.491-7.431m-12.328 36.217 12.328-36.217-36.4 11.85m26.374-125.704 12.562-7.43m-20.755 32.188 20.755-32.189-38.194 2.699m23.135-116.552 17.556-7.432m-24.851 29.099 24.85-29.099-38.194-2.424m18.142-111.429 22.55-7.431m-27.154 26.987 27.154-26.987-37.883-5.554m12.797-108.3 27.583-7.392m-28.597 25.423 28.597-25.423-37.493-7.626m7.413-106.227 32.615-7.431m-29.572 24.288 29.572-24.288-37.18-9.113m2.068-104.741 37.61-7.431m-30.275 23.428 30.274-23.428-36.907-10.17m-3.238-103.684 42.642-7.43m-30.782 22.762 30.782-22.763-36.673-10.99m-8.466-102.863 47.675-7.392m-31.21 22.176 31.21-22.176-36.478-11.656m196.278 2320.64-47.674-2.073m34.956-15.605-34.956 15.605 33.473 18.617m11.665-137.828-42.642-2.073m35.074-15.41-35.074 15.41 33.396 18.773m6.75-137.946-37.61-2.112m35.112-15.175-35.112 15.175 33.24 19.008m1.872-138.181-32.615-2.112m35.269-14.862-35.269 14.862 33.084 19.282m-3.004-138.454-27.583-2.073m35.464-14.51-35.464 14.51 32.85 19.634m-7.764-138.846-22.55-2.073m35.659-13.884-35.659 13.884 32.498 20.22m-12.445-139.432-17.556-2.072m36.01-12.946-36.01 12.946 31.952 21.042m-16.893-140.215-12.562-2.112m36.595-11.265-36.595 11.265 30.977 22.528m-20.951-141.701-7.49-2.073m37.57-7.353-37.57 7.353 28.363 25.657m-23.37-144.868-2.496-2.073m37.258 8.8-37.258-8.8 15.293 35.083m-15.293-154.295 2.496-2.073m-15.293 35.083 15.293-35.083-37.258 8.8m32.265-127.973 7.49-2.112m-28.402 25.657 28.402-25.657-37.57-7.313m27.544-111.859 12.562-2.112m-30.977 22.528 30.977-22.528-36.595-11.225m21.536-107.948 17.556-2.073m-31.952 21.042 31.952-21.042-36.049-12.946m15.996-106.266 22.55-2.073m-32.498 20.182 32.498-20.182-35.659-13.884m10.573-105.327 27.583-2.073m-32.811 19.673 32.81-19.673-35.424-14.471m5.345-104.741 32.616-2.073m-33.084 19.282 33.084-19.282-35.269-14.901m.156-104.271 37.61-2.112m-33.24 19.008 33.24-19.008-35.152-15.176m-4.994-103.997 42.642-2.112m-33.356 18.812 33.356-18.812-35.034-15.41m-10.104-103.762 47.674-2.074m-33.473 18.578 33.473-18.578-34.956-15.605M2101.24-272.646l-47.674 1.682m33.63-18.344-33.63 18.344 34.84 15.918m10.299-138.884-42.642 1.72m33.552-18.5-33.552 18.5 34.917 15.723m5.228-138.728-37.61 1.72m33.435-18.655-33.434 18.656 34.956 15.527m.156-138.533-32.615 1.72m33.278-18.89-33.278 18.89 35.112 15.293m-5.033-138.259-27.583 1.682m33.123-19.204-33.123 19.204 35.23 14.98m-10.144-137.946-22.55 1.682m32.85-19.634-32.85 19.634 35.425 14.51m-15.372-137.477-17.556 1.721m32.421-20.377-32.42 20.377 35.736 13.689m-20.678-136.695-12.562 1.721m31.601-21.589-31.601 21.59 36.244 12.32m-26.217-135.326-7.491 1.72m29.572-24.288-29.572 24.289 37.18 9.074m-32.186-132.08-2.497 1.721m18.609-33.44-18.61 33.44 37.922-5.163m-37.921-117.803 2.497 1.681m-37.922-5.162 37.922 5.162-18.61-33.44m13.616-89.527 7.49 1.722m-37.18 9.074 37.18-9.074-29.572-24.328m19.546-98.678 12.562 1.721m-36.244 12.32 36.244-12.32-31.64-21.59m16.581-101.415 17.556 1.72m-35.736 13.728 35.736-13.728-32.42-20.377m12.367-102.589 22.55 1.682m-35.424 14.472 35.424-14.472-32.85-19.634m7.764-103.333 27.583 1.682m-35.229 14.98 35.23-14.98-33.085-19.204m3.005-103.762 32.615 1.72m-35.112 15.293 35.112-15.292-33.318-18.891m-1.794-104.115 37.609 1.721m-34.995 15.527 34.995-15.527-33.435-18.656m-6.71-104.35 42.642 1.721m-34.879 15.723 34.879-15.723-33.513-18.46m-11.626-104.545 47.675 1.72m-34.84 15.88 34.84-15.88-33.63-18.343M2261.04-273.82l-47.674 4.03m32.694-19.948-32.694 19.947 35.542 14.198m9.597-139.472-42.642 3.99m32.498-20.26-32.498 20.26 35.698 13.845m4.447-139.12-37.61 3.99m32.226-20.651-32.225 20.65 35.853 13.416m-.741-138.689-32.615 3.99m31.913-21.16-31.913 21.16 36.087 12.828m-6.008-138.103-27.582 3.99m31.445-21.825-31.445 21.824 36.36 12.047m-11.275-137.281-22.55 3.989m30.704-22.841-30.703 22.84 36.672 10.874m-16.619-136.148-17.557 3.99m29.573-24.288-29.573 24.288 37.18 9.074m-22.12-134.348-12.563 3.99m27.427-26.714-27.427 26.714 37.844 5.905m-27.817-131.179-7.49 3.989m22.198-31.171-22.199 31.17 38.234-.938m-33.24-124.335-2.497 3.99m3.706-38.095-3.706 38.094 32.694-19.868m-32.694-105.406 2.497 4.029m-32.694-19.908 32.694 19.908-3.706-38.134m-1.288-87.14 7.49 3.99m-38.272-.94 38.273.939-22.199-31.21m12.172-94.064 12.563 3.99m-37.844 5.905 37.844-5.906-27.427-26.713m12.367-98.561 17.557 3.99m-37.181 9.113 37.18-9.113-29.572-24.288m9.52-100.986 22.55 3.99m-36.673 10.911 36.672-10.912-30.742-22.802m5.657-102.433 27.582 3.99m-36.321 12.007 36.321-12.007-31.406-21.864m1.327-103.411 32.615 3.99m-36.087 12.828 36.087-12.828-31.913-21.16m-3.199-104.114 37.61 3.99m-35.855 13.414 35.854-13.415-32.225-20.65m-7.92-104.624 42.642 3.99m-35.659 13.845 35.659-13.845-32.46-20.221m-12.679-105.053 47.675 4.028m-35.541 14.158 35.54-14.158-32.693-19.947m192.494 2319.819-47.675 4.732m32.382-20.416-32.382 20.416 35.776 13.65m9.363-139.667-42.642 4.772m32.147-20.846-32.147 20.846 35.932 13.22m4.213-139.276-37.609 4.77m31.796-21.276-31.796 21.277 36.127 12.672m-1.015-138.728-32.615 4.771m31.406-21.902-31.406 21.902 36.36 12.007m-6.28-138.023-27.583 4.732m30.86-22.685-30.86 22.685 36.673 11.068m-11.587-137.086-22.55 4.733m29.962-23.78-29.962 23.78 37.024 9.7m-16.971-135.717-17.556 4.771m28.558-25.501-28.558 25.501 37.53 7.549m-22.471-133.605-12.562 4.772m25.944-28.161-25.944 28.16 38.116 3.873m-28.089-129.929-7.492 4.772m19.78-32.775-19.78 32.775 38.078-3.833m-33.084-122.184-2.497 4.732m.82-38.251-.82 38.251 31.094-22.293m-31.094-103.724 2.497 4.733m-31.094-22.293 31.094 22.293-.82-38.251m-4.174-87.766 7.491 4.771m-38.077-3.872 38.077 3.872-19.78-32.775m9.754-93.282 12.562 4.773m-38.116 3.832 38.116-3.832-25.944-28.16m10.885-97.897 17.556 4.772m-37.532 7.587 37.532-7.587-28.558-25.462m8.505-100.594 22.55 4.771m-37.024 9.7 37.024-9.7-29.963-23.819m4.877-102.198 27.583 4.733m-36.634 11.068 36.634-11.068-30.821-22.685m.741-103.333 32.615 4.772m-36.361 11.968 36.361-11.968-31.406-21.902m-3.705-104.154 37.608 4.771m-36.126 12.672 36.126-12.672-31.835-21.276m-8.31-104.78 42.642 4.772m-35.931 13.219 35.931-13.22-32.108-20.807m-13.031-105.209 47.675 4.732m-35.775 13.65 35.775-13.65-32.381-20.416M2580.641-273.82l-47.674 4.03m32.693-19.948-32.693 19.947 35.541 14.198m9.597-139.472-42.642 3.99m32.499-20.26-32.499 20.26 35.698 13.845m4.448-139.12-37.61 3.99m32.226-20.651-32.226 20.65 35.854 13.416m-.741-138.689-32.616 3.99m31.914-21.16-31.914 21.16 36.088 12.828m-6.008-138.103-27.583 3.99m31.445-21.825-31.445 21.824 36.36 12.047m-11.274-137.281-22.55 3.989m30.704-22.841-30.704 22.84 36.673 10.874m-16.62-136.148-17.556 3.99m29.572-24.288-29.572 24.288 37.18 9.074m-22.121-134.348-12.562 3.99m27.427-26.714-27.427 26.714 37.843 5.905m-27.816-131.179-7.491 3.989m22.198-31.171-22.198 31.17 38.233-.938m-33.24-124.335-2.496 3.99m3.706-38.095-3.706 38.094 32.693-19.868m-32.693-105.406 2.496 4.029m-32.693-19.908 32.693 19.908-3.706-38.134m-1.287-87.14 7.49 3.99m-38.272-.94 38.272.939-22.199-31.21m12.173-94.064 12.562 3.99m-37.843 5.905 37.843-5.906-27.426-26.713m12.367-98.561 17.556 3.99m-37.18 9.113 37.18-9.113-29.611-24.288m9.558-100.986 22.55 3.99m-36.673 10.911 36.673-10.912-30.704-22.802m5.618-102.433 27.583 3.99m-36.322 12.007 36.322-12.007-31.406-21.864m1.326-103.411 32.616 3.99m-36.088 12.828 36.088-12.828-31.913-21.16M2538-2335.502l37.609 3.99m-35.854 13.414 35.854-13.415-32.226-20.65m-7.92-104.624 42.642 3.99m-35.658 13.845 35.658-13.845-32.459-20.221m-12.679-105.053 47.674 4.028m-35.581 14.158 35.581-14.158-32.693-19.947m192.494 2321.344-47.675 1.682m33.63-18.344-33.63 18.344 34.84 15.918m10.299-138.884-42.642 1.72m33.552-18.5-33.552 18.5 34.917 15.723m5.228-138.728-37.61 1.72m33.435-18.655-33.434 18.656 34.956 15.527m.156-138.533-32.615 1.72m33.278-18.89-33.278 18.89 35.112 15.293m-5.033-138.259-27.583 1.682m33.123-19.204-33.123 19.204 35.23 14.98M2727.88-879.03l-22.55 1.682m32.849-19.634-32.85 19.634 35.425 14.51m-15.372-137.477-17.556 1.721m32.421-20.377-32.42 20.377 35.736 13.689m-20.678-136.695-12.562 1.721m31.601-21.589-31.601 21.59 36.244 12.32m-26.217-135.326-7.491 1.72m29.572-24.288-29.572 24.289 37.18 9.074m-32.186-132.08-2.497 1.721m18.609-33.44-18.61 33.44 37.922-5.163m-37.921-117.803 2.497 1.681m-37.922-5.162 37.922 5.162-18.61-33.44m13.616-89.527 7.49 1.722m-37.179 9.074 37.18-9.074-29.573-24.328m19.546-98.678 12.562 1.721m-36.243 12.32 36.243-12.32-31.64-21.59m16.581-101.415 17.556 1.72m-35.736 13.728 35.736-13.728-32.42-20.377m12.368-102.589 22.55 1.682m-35.425 14.472 35.424-14.472-32.85-19.634m7.764-103.333 27.583 1.682m-35.229 14.98 35.23-14.98-33.085-19.204m3.005-103.762 32.615 1.72m-35.112 15.293 35.112-15.292-33.318-18.891m-1.794-104.115 37.609 1.721m-34.995 15.527 34.995-15.527-33.435-18.656m-6.71-104.35 42.642 1.721m-34.879 15.723 34.879-15.723-33.513-18.46m-11.626-104.545 47.675 1.72m-34.84 15.88 34.84-15.88-33.63-18.343m193.43 2322.791-47.675-2.073m34.956-15.605-34.956 15.605 33.474 18.617m11.665-137.828-42.642-2.073m35.073-15.41-35.073 15.41 33.357 18.773m6.789-137.946-37.61-2.112m35.112-15.175-35.112 15.175 33.24 19.008m1.872-138.181-32.615-2.112m35.268-14.862-35.268 14.862 33.083 19.282m-3.004-138.454-27.582-2.073m35.463-14.51-35.463 14.51 32.85 19.634m-7.764-138.846-22.59-2.073m35.698-13.884-35.697 13.884 32.537 20.22m-12.445-139.432-17.557-2.072m36.01-12.946-36.01 12.946 31.992 21.042m-16.932-140.215-12.563-2.112m36.595-11.265-36.595 11.265 30.938 22.528m-20.911-141.701-7.49-2.073m37.57-7.353-37.57 7.353 28.362 25.657m-23.369-144.868-2.497-2.073m37.258 8.8-37.258-8.8 15.293 35.083m-15.293-154.295 2.497-2.073m-15.333 35.083 15.333-35.083-37.258 8.8m32.265-127.973 7.49-2.112m-28.402 25.657 28.402-25.657-37.57-7.313m27.543-111.859 12.563-2.112m-30.977 22.528 30.977-22.528-36.595-11.225m21.535-107.948 17.557-2.073m-31.992 21.042 31.992-21.042-36.05-12.946m15.957-106.266 22.59-2.073m-32.499 20.182 32.498-20.182-35.658-13.884m10.573-105.327 27.582-2.073m-32.81 19.673 32.81-19.673-35.424-14.471m5.345-104.741 32.615-2.073m-33.083 19.282 33.083-19.282-35.268-14.901m.156-104.271 37.61-2.112m-33.24 19.008 33.24-19.008-35.152-15.176m-4.994-103.997 42.642-2.112m-33.356 18.812 33.356-18.812-35.034-15.41m-10.105-103.762 47.675-2.074m-33.474 18.578 33.474-18.578-34.956-15.605M3060.042-268.11l-47.675-7.391m36.478-11.655-36.478 11.655 31.211 22.176m13.928-136.03-42.642-7.43m36.673-10.991-36.673 10.99 30.821 22.724m9.325-136.578-37.61-7.43m36.907-10.17-36.907 10.17 30.275 23.427m4.837-137.281-32.615-7.431m37.18-9.074-37.18 9.074 29.572 24.327m.508-138.181-27.583-7.392m37.531-7.666-37.531 7.666 28.636 25.423m-3.55-139.315-22.59-7.392m37.883-5.593-37.882 5.593 27.192 26.947m-7.1-140.801-17.556-7.431m38.194-2.425-38.194 2.425 24.89 29.099m-9.831-142.953-12.562-7.43m38.194 2.698-38.194-2.699 20.755 32.189m-10.729-146.042-7.49-7.431m36.4 11.85-36.4-11.85 12.328 36.256m-7.335-150.11-2.497-7.392m27.193 26.948-27.193-26.948-5.267 37.9m5.267-151.792 2.497-7.393m5.267 37.9-5.267-37.9-27.192 26.948m22.199-140.801 7.49-7.431m-12.328 36.217 12.328-36.217-36.4 11.85m26.374-125.704 12.562-7.43m-20.756 32.188 20.756-32.189-38.194 2.699m23.135-116.552 17.556-7.432m-24.891 29.099 24.89-29.099-38.194-2.424m18.102-111.429 22.59-7.431m-27.154 26.987 27.154-26.987-37.883-5.554m12.797-108.3 27.583-7.392m-28.597 25.423 28.597-25.423-37.493-7.626m7.413-106.227 32.615-7.431m-29.611 24.288 29.611-24.288-37.18-9.113m2.068-104.741 37.61-7.431m-30.275 23.428 30.274-23.428-36.907-10.17m-3.238-103.684 42.642-7.43m-30.782 22.762 30.782-22.763-36.673-10.99m-8.466-102.863 47.675-7.392m-31.211 22.176 31.211-22.176-36.478-11.656m196.278 2326.742-47.674-14.276m37.726-6.571-37.726 6.571 27.894 26.244m17.244-133.253-42.642-14.276m37.922-5.358-37.922 5.358 27.037 27.105m13.109-134.075-37.61-14.314m38.078-3.833-38.078 3.833 25.945 28.16m9.168-135.13-32.616-14.276m38.233-1.955-38.233 1.955 24.5 29.412m5.58-136.421-27.583-14.276m38.273.509-38.273-.509 22.55 30.938m2.536-137.946-22.589-14.276m38.116 3.833-38.116-3.833 19.819 32.775m.273-139.784-17.556-14.276m37.375 8.331-37.375-8.33 15.761 34.887m-.702-141.858-12.562-14.315m35.463 14.433-35.463-14.433 9.753 37.04m.273-144.009-7.53-14.276m31.134 22.293-31.133-22.293.858 38.251m4.174-145.26-2.496-14.276m22.783 30.742-22.783-30.742-10.963 36.687m10.963-143.696 2.496-14.275m10.924 36.686-10.924-36.686-22.784 30.78m17.751-137.789 7.53-14.276m-.819 38.29.82-38.29-31.095 22.333m21.068-129.342 12.562-14.276m-9.753 37.039 9.753-37.039-35.463 14.432m20.404-121.401 17.556-14.276m-15.761 34.887 15.761-34.887-37.375 8.291m17.283-115.3 22.589-14.276m-19.78 32.776 19.78-32.776-38.077 3.833m12.991-110.842 27.583-14.276m-22.511 30.938 22.51-30.938-38.272.548m8.193-107.557 32.616-14.275m-24.501 29.412 24.5-29.412-38.233-1.956m3.121-105.054 37.61-14.275m-25.945 28.16 25.945-28.16-38.078-3.833m-2.068-103.137 42.642-14.315m-26.997 27.144 26.997-27.144-37.882-5.358m-7.256-101.612 47.674-14.275m-27.894 26.244 27.894-26.244-37.726-6.57m197.527 2329.283-47.675-22.646m38.272-.782-38.272.782 23.564 30.155m21.575-128.794-42.642-22.646m38.272.939-38.272-.939 22.199 31.211m17.946-129.811L3337-525.697m38.156 3.011-38.155-3.011 20.482 32.345m14.63-130.945-32.615-22.646m37.882 5.476-37.882-5.476 18.336 33.558m11.743-132.197-27.583-22.645m37.336 8.487-37.336-8.487 15.606 34.965m9.48-133.605-22.589-22.645m36.322 12.164-36.322-12.164 12.056 36.334m8.036-134.973-17.556-22.646m34.527 16.583-34.527-16.583 7.452 37.547m7.607-136.147-12.562-22.684m31.562 21.667-31.562-21.667 1.6 38.29m8.426-136.89-7.53-22.685m27.076 27.143-27.075-27.143-5.423 37.899m10.456-136.499-2.497-22.646m20.755 32.15-20.755-32.15-13.265 35.905m13.265-134.543 2.497-22.646m13.264 35.904-13.264-35.904-20.795 32.15m15.761-130.789 7.53-22.646m5.462 37.899-5.461-37.899-27.037 27.104m17.01-125.704 12.562-22.685m-1.638 38.251 1.638-38.25-31.562 21.667m16.503-120.268 17.556-22.645m-7.451 37.547 7.451-37.547-34.527 16.544m14.435-115.183 22.59-22.646m-12.017 36.335 12.016-36.335-36.283 12.164m11.197-110.803 27.583-22.645m-15.567 34.965 15.567-34.965-37.297 8.487m7.218-107.087 32.615-22.685m-18.375 33.597 18.375-33.597-37.882 5.475m2.769-104.075 37.61-22.685m-20.482 32.345 20.482-32.345-38.156 3.012m-1.989-101.612 42.642-22.645m-22.199 31.171 22.199-31.171-38.273.938m-6.866-99.577 47.675-22.646m-23.603 30.155 23.603-30.155-38.273-.782m198.073 2332.647-47.675-32.58m37.922 5.202-37.922-5.202 18.61 33.48m26.529-122.185-42.642-32.54m37.609 7.157-37.609-7.158 16.854 34.38m23.291-123.124-37.61-32.54m37.103 9.465-37.102-9.465 14.669 35.356m20.443-124.101-32.615-32.54m36.322 12.086-36.322-12.086 12.133 36.296m17.946-125.001-27.582-32.58m35.229 15.058-35.23-15.058 9.09 37.195m15.996-125.9-22.588-32.58m33.59 18.383-33.59-18.382 5.461 37.899m14.631-126.604-17.557-32.54m31.328 21.98-31.328-21.98 1.17 38.25m13.89-126.995-12.563-32.54m28.286 25.774-28.286-25.774-3.667 38.094m13.693-126.838-7.529-32.541m24.423 29.49-24.423-29.49-8.934 37.234m13.967-125.978-2.497-32.54m19.702 32.853-19.702-32.854-14.435 35.474m14.435-124.179 2.497-32.58m14.435 35.474-14.435-35.473-19.702 32.853m14.669-121.558 7.53-32.541m8.973 37.195-8.973-37.195-24.384 29.49m14.357-118.234 12.563-32.54m3.667 38.093-3.667-38.094-28.324 25.775m13.264-114.519 17.557-32.54m-1.21 38.251 1.21-38.251-31.328 22.02m11.236-110.725 22.588-32.58m-5.422 37.899 5.422-37.899-33.59 18.382m8.505-107.087 27.582-32.58m-9.051 37.195 9.051-37.195-35.19 15.058m5.111-103.762 32.615-32.541m-12.133 36.295 12.133-36.295-36.322 12.046m1.209-100.79 37.61-32.54m-14.708 35.356 14.708-35.357-37.102 9.465m-3.043-98.209 42.642-32.54m-16.815 34.378 16.815-34.379-37.61 7.158m-7.529-95.901 47.675-32.541m-18.649 33.44 18.649-33.44-37.96 5.202" transform="matrix(.10013 0 0 .09987 -28 271)"/><g clip-path="url(#q)"><path style="fill:none;stroke-width:11.4143;stroke-linecap:round;stroke-linejoin:round;stroke:red;stroke-opacity:1;stroke-miterlimit:10" d="m3595.506-641.076-49.665-57.846-45.997-52.566-42.681-47.95-39.677-43.805-36.907-40.09-34.41-36.764-32.07-33.753-29.923-31.094-27.973-28.59-26.139-26.44-24.5-24.405-22.94-22.568-21.497-20.924-20.17-19.439-18.922-18.03-17.83-16.779-16.697-15.606-15.762-14.549-14.786-13.572-13.967-12.672-13.147-11.811-12.368-11.069-11.665-10.365-11.04-9.7-10.418-9.112-9.792-8.526-9.285-8.018-8.74-7.51-8.31-7.04-7.841-6.649-7.413-6.258-6.983-5.905-6.632-5.515-6.282-5.241-5.93-4.928-5.657-4.654-5.306-4.342-5.071-4.146-4.799-3.91-4.526-3.677-4.291-3.481-4.058-3.285-3.9-3.13-3.668-2.933-3.472-2.777-3.317-2.66-3.12-2.463-2.966-2.386-2.809-2.23-2.692-2.111-2.536-1.995-2.418-1.917-2.263-1.799-2.185-1.681-2.068-1.643-1.99-1.525-1.833-1.448-1.795-1.369-1.677-1.33-1.6-1.212-1.521-1.173-1.444-1.134-1.365-1.056-1.288-1.017-1.248-.939-1.17-.9-1.132-.86-1.053-.821-1.015-.783-.975-.704-.936-.704-.859-.664-.82-.626-1.56-1.174-.702-.547-.663-.509-.663-.469-.625-.47-.585-.43-1.092-.782-.507-.39-.468-.353-.469-.313-.429-.352-.429-.273-.78-.548-.351-.274-.703-.47-.624-.39-.546-.391-.546-.313-.468-.313-.469-.235-.39-.235-.39-.195-.39-.157-.156-.078-.195-.078-.312-.078-.156-.078-.156-.04h-.156l-.312-.078h-.313l-.117-.039h-.156l-.156.04h-.312l-.156.038-.117.04-.156.039h-.156l-.156.078-.195.039-.156.039-.195.078-.312.157-.39.156-.39.235-.703.352-.468.313-.546.313-.546.39-.625.392-.312.235-.35.234-.391.235-.351.274-.43.273-.39.313-.936.626-.468.352-.507.352-.507.391-.547.391-.585.43-1.248.94-.702.469-.703.508-.74.548-.781.586-.82.587-.858.626-.858.665-.975.704-.976.743-1.053.743-1.093.821-1.13.822-1.21.9-1.249.938-1.326.978-1.405 1.016-1.443 1.096-1.56 1.134-1.6 1.173-1.678 1.252-1.795 1.29-1.872 1.37-1.95 1.407-2.03 1.526-2.145 1.564-2.263 1.643-2.38 1.72-2.458 1.76-2.614 1.917-2.73 1.956-2.849 2.073-3.004 2.15-3.16 2.27-3.316 2.346-3.433 2.464-3.629 2.581-3.784 2.66-3.98 2.816-4.174 2.933-4.37 3.051-4.564 3.168-4.799 3.324-4.993 3.442-5.228 3.599-5.501 3.754-5.735 3.911-6.008 4.029-6.243 4.185-6.554 4.38-6.827 4.537-7.179 4.694-7.451 4.85-7.764 5.045-8.115 5.202-8.466 5.358-8.856 5.554-9.207 5.71-9.559 5.906-9.987 6.062-10.378 6.258-10.807 6.375-11.236 6.57-11.665 6.689-12.094 6.844-12.562 7.001-13.031 7.119-13.499 7.235-14.006 7.353-14.435 7.431-14.981 7.47-15.45 7.55-15.956 7.587-16.464 7.587-16.932 7.549-17.478 7.51-17.946 7.43-18.415 7.314-18.921 7.158-19.351 6.962-19.82 6.766-20.247 6.492-20.678 6.14-21.067 5.829-21.458 5.397-21.77 4.889-22.081 4.42-22.394 3.871-22.589 3.208-22.784 2.542-22.9 1.799-23.058 1.056-23.057.196-23.018-.704-22.98-1.643-22.822-2.62-22.628-3.677-22.355-4.693-22.004-5.789-21.575-6.923-21.067-8.096-20.521-9.191-19.897-10.404-19.156-11.537-18.336-12.673-17.479-13.845-16.541-14.902-15.528-15.957-14.396-16.974-13.304-17.953-12.055-18.812-10.807-19.673-9.48-20.377-8.115-21.042-6.71-21.55-5.267-22.02-3.823-22.372-2.341-22.607-.82-22.723.664-22.724 2.145-22.607 3.629-22.41 5.11-22.06 6.555-21.628 7.959-21.081 9.324-20.494 10.65-19.713 11.9-18.93 13.148-18.07 14.279-17.09 15.41-16.076 16.386-15.058 17.4-13.962 18.258-12.79 19.039-11.694 19.819-10.521 20.404-9.348 21.068-8.213 21.496-7.08 21.965-5.905 22.316-4.85 22.589-3.755 22.823-2.737 22.94-1.76 23.057-.822 23.057.118 23.018.9 22.94 1.72 22.784 2.464 22.628 3.168 22.394 3.755 22.12 4.341 21.81 4.889 21.496 5.32 21.107 5.788 20.716 6.101 20.326 6.453 19.897 6.728 19.429 6.961 18.921 7.119 18.493 7.314 18.024 7.43 17.478 7.471 17.01 7.588 16.542 7.548 15.996 7.588 15.527 7.548 15.02 7.51 14.514 7.43 14.045 7.354 13.576 7.236 13.07 7.118 12.64 7 12.173 6.884 11.704 6.728 11.275 6.57 10.846 6.415 10.416 6.257 10.027 6.102 9.636 5.906 9.247 5.749 8.856 5.554 8.544 5.397 8.154 5.241 7.802 5.046 7.491 4.888 7.178 4.694 6.906 4.537 6.554 4.42 6.32 4.184 6.009 4.068 5.774 3.911 5.5 3.794 5.267 3.598 5.033 3.481 4.799 3.324 4.603 3.208 4.409 3.05 4.174 2.934 4.019 2.816 3.823 2.698 3.629 2.582 3.472 2.503 3.316 2.347 3.16 2.268 3.043 2.19 2.887 2.073 2.731 1.956 2.614 1.916 2.497 1.8 2.38 1.72 2.263 1.643 2.184 1.604 2.029 1.486 1.99 1.447 1.872 1.369 1.756 1.33 1.717 1.212 1.6 1.212 1.56 1.135 1.482 1.056 1.405 1.056 1.326.978 1.249.938 1.209.9 1.17.86 1.093.782 1.053.783.976.743.975.704.897.665.859.625.819.587.78.587.741.547.703.509.663.508.663.47.624.43.585.43.547.43.546.352.507.391.468.352.468.313.43.313.429.274.39.313.39.274.39.234.312.235.351.235.312.234.625.391.273.157.273.195.234.157.273.117.468.313.195.117.234.118.195.117.39.157.196.117.195.039.156.117.156.04.195.078.78.195h.156l.156.04h.117l.156.038h.312l.156-.039h.118l.195-.039h.117l.312-.078.156-.078.195-.04.156-.038.156-.079.195-.039.156-.117.39-.157.39-.234.195-.078.235-.118.234-.156.234-.118.234-.156.273-.156.273-.196.273-.156.273-.196.312-.196.312-.234.312-.196.352-.274.39-.234.35-.274.43-.274.39-.274.43-.352.467-.312.469-.352.507-.352.546-.392.546-.43.585-.43.625-.43.624-.509 1.404-1.017.742-.586.78-.587.82-.587.857-.665.898-.704.975-.743 1.014-.743 1.054-.821 1.131-.86 1.17-.9 1.21-.939 1.288-.978 1.365-1.056 1.444-1.134 1.482-1.134 1.6-1.252 1.677-1.29 1.756-1.37 1.833-1.446 1.951-1.526 2.068-1.603 2.146-1.682 2.301-1.8 2.38-1.877 2.536-1.994 2.653-2.073 2.81-2.23 2.925-2.346 3.121-2.464 3.277-2.62 3.434-2.778 3.667-2.894 3.823-3.09 4.058-3.285 4.252-3.442 4.526-3.637 4.72-3.911 5.033-4.068 5.267-4.341 5.618-4.615 5.891-4.89 6.203-5.162 6.594-5.515 6.944-5.827 7.374-6.18 7.763-6.61 8.232-7 8.661-7.471 9.208-7.9 9.753-8.488 10.3-8.995 10.923-9.622 11.588-10.247 12.289-10.99 13.03-11.695 13.811-12.555 14.708-13.415 15.606-14.432 16.58-15.449 17.635-16.583 18.766-17.835 20.014-19.243 21.301-20.69 22.706-22.372 24.267-24.131 25.905-26.127 27.7-28.277 29.65-30.703 31.757-33.362 34.06-36.295 36.516-39.62 39.287-43.218 42.252-47.364 45.529-51.901 49.08-57.025 53.058-62.813 57.389-69.345 62.227-76.736 67.494-85.146 73.462-94.728 80.057-105.718 87.39-118.312" transform="matrix(.10013 0 0 .09987 -28 271)"/></g><path style="fill:none;stroke-width:11.4143;stroke-linecap:round;stroke-linejoin:round;stroke:red;stroke-opacity:1;stroke-miterlimit:10" d="m2533.981-1429.641.156 6.688-.312 6.688-.702 6.688-1.17 6.727-1.6 6.727-2.068 6.727-2.497 6.767-2.926 6.844-3.394 6.845-3.863 6.883-4.33 6.923-4.76 7-5.189 7.04-5.735 7.08-6.125 7.118-6.632 7.197-7.1 7.275-7.608 7.313-8.076 7.353-8.544 7.432-9.051 7.47-9.52 7.51-10.065 7.509-10.534 7.548-11.04 7.588-11.51 7.587-12.055 7.588-12.523 7.549-12.992 7.47-13.538 7.47-14.006 7.392-14.474 7.275-14.981 7.157-15.41 7.001-15.918 6.845-16.308 6.61-16.776 6.414-17.166 6.14-17.595 5.828-17.907 5.476-18.298 5.084-18.61 4.733-18.92 4.224-19.157 3.754-19.429 3.168-19.584 2.62-19.741 2.035-19.858 1.33-19.897.625-19.936-.117-19.936-.9-19.82-1.681-19.662-2.582-19.468-3.403-19.234-4.34-18.922-5.242-18.531-6.219-18.102-7.157-17.557-8.096-17.049-9.074-16.385-10.052-15.684-10.95-14.981-11.89-14.123-12.79-13.265-13.65-12.367-14.432-11.353-15.254-10.3-15.957-9.285-16.622-8.154-17.21-6.983-17.717-5.813-18.187-4.604-18.539-3.355-18.812-2.146-19.048-.858-19.125.39-19.126 1.677-19.086 2.887-18.89 4.136-18.657 5.384-18.343 6.554-17.913 7.725-17.405 8.856-16.857 9.91-16.192 11.001-15.527 11.977-14.745 12.914-13.963 13.85-13.103 14.63-12.241 15.45-11.304 16.151-10.364 16.776-9.426 17.4-8.487 17.908-7.51 18.375-6.531 18.766-5.632 19.116-4.655 19.39-3.793 19.624-2.855 19.78-2.034 19.858-1.174 19.936-.39 19.936.351 19.897 1.095 19.78 1.721 19.663 2.425 19.468 2.973 19.273 3.559 19 4.067 18.726 4.498 18.414 4.967 18.064 5.359 17.712 5.71 17.322 6.023 16.932 6.297 16.464 6.532 16.073 6.766 15.606 6.962 15.137 7.118 14.67 7.236 14.2 7.314 13.694 7.43 13.187 7.51 12.718 7.51 12.212 7.587 11.743 7.549 11.197 7.587 10.728 7.588 10.222 7.548 9.715 7.51 9.246 7.47 8.739 7.431 8.232 7.392 7.802 7.314 7.257 7.275 6.827 7.236 6.32 7.157 5.892 7.118 5.384 7.08 4.915 6.961 4.487 6.962 4.018 6.923 3.55 6.844 3.122 6.845 2.692 6.766 2.184 6.766 1.795 6.728 1.327 6.727.897 6.688.429 6.688.039 6.688-.43 6.688-.896 6.688-1.327 6.727-1.756 6.727-2.184 6.767-2.653 6.805-3.082 6.805-3.55 6.845-4.019 6.923-4.448 6.962-4.915 7-5.384 7.04-5.852 7.119-6.32 7.157-6.789 7.236-7.256 7.236-7.764 7.352-8.232 7.393-8.7 7.43-9.207 7.471-9.715 7.51-10.221 7.548-10.69 7.548-11.197 7.588-11.704 7.588-12.172 7.548-12.719 7.549-13.187 7.47-13.693 7.431-14.162 7.353-14.63 7.236-15.138 7.118-15.566 6.962-16.035 6.766-16.503 6.57-16.893 6.298-17.322 6.023-17.673 5.71-18.063 5.398-18.415 4.967-18.687 4.537-19 4.067-19.273 3.56-19.468 3.011-19.624 2.425-19.819 1.8-19.858 1.094-19.936.391" transform="matrix(.10013 0 0 .09987 -28 271)"/><path style="fill:none;stroke-width:11.4143;stroke-linecap:round;stroke-linejoin:round;stroke:red;stroke-opacity:1;stroke-miterlimit:10" d="m2322.8-1429.641.156 7.313-.351 7.314-.82 7.314-1.326 7.314-1.795 7.314-2.263 7.274-2.77 7.275-3.238 7.197-3.667 7.235-4.214 7.158-4.642 7.157-5.11 7.08-5.58 7.04-6.047 6.961-6.515 6.923-6.945 6.805-7.412 6.728-7.842 6.648-8.271 6.532-8.7 6.414-9.13 6.258-9.519 6.14-9.948 5.946-10.3 5.788-10.69 5.554-11.04 5.358-11.392 5.085-11.705 4.889-12.055 4.576-12.328 4.263-12.563 3.99-12.874 3.597-13.07 3.286-13.264 2.855-13.421 2.464-13.616 2.034-13.694 1.564-13.81 1.134-13.89.626-13.888.078-13.89-.43-13.81-.978-13.733-1.525-13.655-2.151-13.46-2.699-13.264-3.324-13.03-3.911-12.758-4.537-12.407-5.163-12.094-5.75-11.665-6.335-11.236-6.962-10.768-7.549-10.221-8.096-9.715-8.643-9.09-9.192-8.466-9.66-7.842-10.17-7.14-10.56-6.436-10.99-5.696-11.381-4.955-11.655-4.136-11.968-3.355-12.164-2.575-12.36-1.755-12.476-.898-12.594-.078-12.594.742-12.554 1.56-12.555 2.419-12.36 3.2-12.241 3.978-11.968 4.8-11.734 5.54-11.42 6.28-11.069 7.023-10.677 7.685-10.248 8.35-9.777 8.973-9.27 9.597-8.76 10.144-8.214 10.65-7.666 11.12-7.08 11.625-6.453 11.978-5.905 12.367-5.241 12.68-4.655 12.99-4.028 13.227-3.442 13.42-2.855 13.577-2.23 13.733-1.642 13.81-1.095 13.89-.548h13.889l13.888.509 13.811 1.017 13.733 1.486 13.616 1.916 13.499 2.425 13.303 2.777 13.109 3.168 12.874 3.56 12.64 3.91 12.368 4.224 12.134 4.498 11.782 4.811 11.43 5.045 11.12 5.32 10.767 5.514 10.378 5.75 10.027 5.905 9.597 6.102 9.207 6.219 8.778 6.414 8.388 6.492 7.92 6.61 7.49 6.727 7.023 6.806 6.594 6.883 6.164 6.962 5.657 7.04 5.228 7.08 4.72 7.118 4.292 7.157 3.784 7.236 3.355 7.196 2.848 7.275 2.341 7.275 1.912 7.274 1.404 7.314.937 7.314.429 7.314-.04 7.314-.546 7.314-.975 7.314-1.482 7.313-1.951 7.314-2.458 7.236-2.926 7.275-3.394 7.235-3.902 7.197-4.33 7.157-4.838 7.118-5.267 7.08-5.735 7-6.242 6.962-6.632 6.884-7.14 6.805-7.568 6.688-7.998 6.61-8.427 6.493-8.856 6.336-9.247 6.219-9.675 6.062-10.065 5.867-10.456 5.71-10.846 5.515-11.158 5.24-11.509 5.046-11.821 4.771-12.133 4.46-12.446 4.184-12.68 3.833-12.913 3.48-13.147 3.13-13.343 2.738-13.499 2.307-13.655 1.878-13.771 1.408-13.811.938-13.85.43-13.928-.078-13.85-.626-13.81-1.173-13.695-1.76-13.576-2.347-13.382-2.933-13.187-3.52-12.952-4.146-12.64-4.732-12.29-5.359-11.938-5.984-11.548-6.57-11.041-7.158-10.573-7.744-10.066-8.291-9.48-8.879-8.895-9.347-8.232-9.856-7.608-10.326-6.866-10.716-6.203-11.147-5.423-11.46-4.643-11.772-3.901-12.047-3.043-12.242-2.302-12.398-1.405-12.516" transform="matrix(.10013 0 0 .09987 -28 271)"/><path style="fill:none;stroke-width:11.4143;stroke-linecap:round;stroke-linejoin:round;stroke:red;stroke-opacity:1;stroke-miterlimit:10" d="m2128.745-1429.641.273 4.184-.039 4.146-.312 4.185-.585 4.146-.858 4.146-1.132 4.067-1.404 4.107-1.639 4.029-1.95 3.989-2.185 3.95-2.458 3.872-2.692 3.794-2.965 3.755-3.2 3.637-3.432 3.56-3.668 3.441-3.862 3.364-4.135 3.207-4.292 3.129-4.526 2.972-4.681 2.855-4.916 2.699-5.033 2.581-5.228 2.347-5.383 2.269-5.54 2.033-5.618 1.839-5.774 1.681-5.852 1.487-5.97 1.29-6.047 1.056-6.086.86-6.125.627-6.203.39-6.203.196-6.204-.078-6.164-.274-6.203-.547-6.086-.783-6.086-1.056-5.97-1.251-5.89-1.526-5.774-1.76-5.696-1.994-5.501-2.269-5.384-2.464-5.189-2.698-4.994-2.934-4.798-3.168-4.604-3.363-4.37-3.599-4.135-3.754-3.862-3.99-3.59-4.145-3.316-4.264-3.043-4.458-2.73-4.616-2.42-4.693-2.107-4.85-1.794-4.889-1.483-5.006-1.131-5.084-.82-5.085-.429-5.163-.117-5.162.196-5.163.546-5.124.897-5.084 1.248-5.046 1.561-5.006 1.873-4.889 2.223-4.771 2.497-4.694 2.81-4.537 3.12-4.42 3.395-4.262 3.706-4.107 3.94-3.911 4.175-3.716 4.447-3.52 4.643-3.285 4.877-3.13 5.032-2.854 5.267-2.66 5.384-2.425 5.58-2.15 5.695-1.956 5.813-1.682 5.93-1.447 6.008-1.213 6.087-.938 6.125-.744 6.164-.43 6.203-.235h6.203l6.203.235 6.165.47 6.125.704 6.086.9 6.008 1.133 5.97 1.33 5.812 1.525 5.735 1.721 5.618 1.917 5.462 2.112 5.345 2.268 5.189 2.425 4.994 2.62 4.837 2.738 4.643 2.895 4.486 3.011 4.253 3.168 4.057 3.247 3.785 3.402 3.628 3.481 3.355 3.56 3.121 3.676 2.887 3.755 2.614 3.832 2.38 3.872 2.107 3.99 1.872 3.99 1.6 4.028 1.327 4.106 1.053 4.107.78 4.146.507 4.146.234 4.185-.039 4.145-.35 4.185-.586 4.146-.858 4.146-1.132 4.107-1.404 4.067-1.678 4.029-1.911 3.99-2.224 3.95-2.458 3.871-2.692 3.794-2.965 3.755-3.2 3.637-3.432 3.56-3.668 3.441-3.862 3.364-4.135 3.207-4.331 3.129-4.487 2.972-4.72 2.856-4.877 2.698-5.072 2.543-5.228 2.385-5.383 2.23-5.501 2.033-5.657 1.839-5.774 1.681-5.892 1.487-5.93 1.29-6.047 1.056-6.086.822-6.164.626-6.164.39-6.203.196-6.204-.078-6.203-.313-6.164-.547-6.125-.783-6.047-1.017-6.008-1.29-5.852-1.526-5.813-1.76-5.657-1.994-5.501-2.269-5.384-2.464-5.19-2.738-4.993-2.933-4.799-3.168-4.603-3.364-4.33-3.598-4.136-3.794-3.862-3.95-3.59-4.146-3.316-4.302-3.004-4.459-2.73-4.576-2.42-4.732-2.146-4.81-1.755-4.929-1.483-5.006-1.131-5.046-.78-5.123-.469-5.163-.078-5.124.196-5.162.585-5.163.897-5.084 1.248-5.046 1.561-4.967 1.873-4.889 2.223-4.81 2.536-4.694" transform="matrix(.10013 0 0 .09987 -28 271)"/><g clip-path="url(#r)"><path style="fill:none;stroke-width:11.4143;stroke-linecap:round;stroke-linejoin:round;stroke:red;stroke-opacity:1;stroke-miterlimit:10" d="m3595.506-878.17-34.02-58.706-30.236-55.147-26.724-52.019-23.37-49.436-20.209-47.208-17.166-45.291-14.24-43.727-11.392-42.475-8.622-41.497-5.93-40.793-3.238-40.363-.585-40.207 2.028-40.246 4.721-40.558 7.413-41.185 10.143-41.966 12.953-43.14 15.84-44.548 18.843-46.308 21.926-48.38 25.203-50.807 28.675-53.7 32.264-57.024 36.205-60.897 40.301-65.316 44.788-70.4 49.625-76.229 54.854-82.955 60.588-90.7 66.83-99.578 73.736-109.864" transform="matrix(.10013 0 0 .09987 -28 271)"/></g><g clip-path="url(#s)"><path style="fill:none;stroke-width:11.4143;stroke-linecap:round;stroke-linejoin:round;stroke:red;stroke-opacity:1;stroke-miterlimit:10" d="m3595.506-756.924-42.018-58.237-38.312-53.818-34.878-49.945-31.718-46.503-28.753-43.492-25.983-40.833-23.37-38.485-20.911-36.452-18.57-34.653-16.347-33.128-14.201-31.758-12.134-30.663-10.143-29.725-8.232-28.943-6.32-28.316-4.487-27.887-2.653-27.613-.858-27.456.975-27.456 2.77-27.613 4.604-27.925 6.437-28.356 8.35-28.982 10.299-29.764 12.25-30.741 14.357-31.837 16.464-33.206 18.726-34.77 21.068-36.608 23.525-38.603 26.14-40.989 28.948-43.687 31.913-46.738 35.151-50.18 38.507-54.092 42.252-58.55 46.27-63.595 50.679-69.344 55.4-75.877 60.666-83.346 66.44-91.912 72.8-101.69 79.86-112.954" transform="matrix(.10013 0 0 .09987 -28 271)"/></g><g clip-path="url(#t)"><path style="fill:none;stroke-width:11.4143;stroke-linecap:round;stroke-linejoin:round;stroke:red;stroke-opacity:1;stroke-miterlimit:10" d="m3595.506-514.355-58.014-57.376-54.424-51.236-51.225-45.84-48.377-40.91-45.841-36.49-43.54-32.502-41.55-28.904-39.754-25.579-38.156-22.567-36.75-19.79-35.542-17.248-34.488-14.902-33.59-12.75-32.811-10.717-32.148-8.878-31.64-7.118-31.21-5.515-30.939-3.99-30.665-2.62-30.586-1.29-30.51-.118-30.547 1.017-30.665 2.073-30.782 3.011-31.054 3.872-31.328 4.616-31.64 5.358-32.03 5.945-32.46 6.492-32.889 6.884-33.318 7.236-33.825 7.43-34.332 7.55-34.8 7.587-35.307 7.431-35.815 7.236-36.283 6.883-36.673 6.375-37.102 5.75-37.492 5.006-37.726 4.068-38 3.09-38.155 1.877-38.233.547-38.234-.938-38.116-2.503-37.883-4.264-37.57-6.1-37.063-8.097-36.517-10.13-35.736-12.32-34.84-14.55-33.824-16.817-32.655-19.126-31.328-21.472-29.806-23.74-28.168-26.088-26.374-28.239-24.461-30.428-22.394-32.424-20.17-34.261-17.869-36.022-15.449-37.547-12.914-38.838-10.338-39.972-7.647-40.832-4.955-41.419-2.223-41.771.546-41.85 3.277-41.653 6.047-41.224 8.7-40.519 11.353-39.542 13.928-38.368 16.425-36.96 18.804-35.318 21.068-33.597 23.213-31.641 25.203-29.568 27.114-27.417 28.832-25.15 30.43-22.88 31.836-20.533 33.161-18.226 34.254-15.918 35.23-13.65 36.048-11.46 36.712-9.308 37.297-7.275 37.688-5.358 37.999-3.56 38.194-1.877 38.234-.313 38.194 1.056 38.117 2.386 37.921 3.481 37.648 4.459 37.298 5.319 36.946 6.023 36.555 6.57 36.088 7.041 35.62 7.314 35.112 7.51 34.605 7.587 34.137 7.51 33.63 7.391 33.162 7.08 32.693 6.766 32.265 6.258 31.874 5.749 31.523 5.045 31.21 4.38 30.939 3.52 30.743 2.66 30.625 1.643 30.51.587 30.508-.548 30.626-1.799 30.742-3.168 31.055-4.576 31.367-6.14 31.836-7.784 32.381-9.582 33.084-11.499 33.942-13.571 34.878-15.801 36.01-18.226 37.297-20.886 38.78-23.701 40.418-26.83 42.29-30.273 44.437-34.066 46.778-38.173 49.469-42.788 52.434-47.872 55.79-53.583 59.535-59.958 63.71-67.115 68.352-75.173 73.657-84.324 79.51-94.689 86.143-106.579 93.594-120.189" transform="matrix(.10013 0 0 .09987 -28 271)"/></g><g clip-path="url(#u)"><path style="fill:none;stroke-width:11.4143;stroke-linecap:round;stroke-linejoin:round;stroke:red;stroke-opacity:1;stroke-miterlimit:10" d="m3595.506-271.786-74.01-56.477-70.536-48.772-67.533-41.849-65.036-35.63-62.851-30.038-61.018-24.992-59.573-20.416-58.326-16.27-57.39-12.556-56.686-9.19-56.18-6.141-55.829-3.442-55.711-1.056-55.75 1.056-55.83 2.894-56.101 4.38-56.414 5.633-56.804 6.57-57.272 7.197-57.78 7.548-58.286 7.51-58.755 7.236-59.184 6.57-59.613 5.593-59.925 4.224-60.198 2.582-60.237.586-60.237-1.838-60.003-4.537-59.652-7.548-58.99-10.913-58.208-14.549-57.077-18.46-55.75-22.529-54.112-26.87-52.2-31.289-50.016-35.826-47.48-40.363-44.67-44.86-41.59-49.242-38.194-53.465-34.527-57.416-30.626-61.131-26.49-64.417-22.16-67.31-17.634-69.697-12.953-71.535-8.232-72.865-3.394-73.568 1.444-73.686 6.32-73.217 11.08-72.16 15.8-70.48 20.405-68.327 24.773-65.59 28.987-62.5 33.045-58.941 36.751-55.07 40.262-50.962 43.5-46.62 46.388-42.123 49.04-37.626 51.342-33.088 53.41-28.63 55.126-24.249 56.57-20.064 57.78-16.075 58.715-12.32 59.418-8.839 59.886-5.71 60.16-2.855 60.276-.352 60.237 1.838 60.042 3.637 59.73 5.085 59.379 6.218 58.95 7.001 58.442 7.432 57.975 7.587 57.467 7.353 56.999 6.845 56.57 6.023 56.219 4.967 55.945 3.48 55.751 1.84 55.712-.157 55.75-2.464 56.024-5.046 56.453-7.94 57.077-11.146 57.935-14.745 59.028-18.735 60.432-23.114 62.071-27.965 64.139-33.362 66.48-39.268 69.288-45.917 72.565-53.309 76.35-61.561 80.68-70.87 85.714-81.352 91.448-93.203" transform="matrix(.10013 0 0 .09987 -28 271)"/></g><g clip-path="url(#v)"><path style="fill:none;stroke-width:11.4143;stroke-linecap:round;stroke-linejoin:round;stroke:red;stroke-opacity:1;stroke-miterlimit:10" d="m3515.605-211.163-78.3-47.755-75.375-40.167-72.994-33.362-70.966-27.261-69.367-21.785-68.079-16.896-67.142-12.516-66.44-8.565-65.973-5.124-65.777-2.112-65.7.508-65.815 2.699-66.05 4.537-66.402 5.867-66.791 6.883-67.3 7.431-67.805 7.549-68.274 7.236-68.742 6.492-69.094 5.28-69.444 3.598-69.6 1.487-69.601-1.135-69.405-4.185-69.055-7.665-68.39-11.577-67.534-15.919-66.284-20.611-64.802-25.618-62.89-30.86-60.744-36.334-58.13-41.888-55.166-47.599-51.888-53.192-48.182-58.667-44.125-63.986-39.755-68.915-35.073-73.53-30.08-77.635-24.852-81.118-19.428-84.05-13.772-86.24-8.076-87.728-2.224-88.392 3.55-88.314 9.364-87.453 15.098-85.81 20.677-83.464 26.061-80.374 31.211-76.737 36.166-72.513 40.77-67.858 45.1-62.774 49.079-57.455 52.63-51.94 55.906-46.269 58.755-40.636 61.251-35.083 63.358-29.647 65.153-24.445 66.597-19.477 67.767-14.902 68.586-10.677 69.132-6.844 69.484-3.442 69.6-.509 69.562 1.995 69.366 4.028 69.054 5.593 68.625 6.728 68.196 7.313 67.65 7.588 67.182 7.314 66.713 6.688 66.324 5.632 65.972 4.146 65.777 2.23 65.7-.04 65.815-2.777 66.05-5.867 66.597-9.425 67.299-13.455 68.39-17.952 69.68-22.998 71.394-28.59 73.502-34.848 76-41.81 79.002-49.594 82.553-58.354 86.728-68.132 91.565-79.201" transform="matrix(.10013 0 0 .09987 -28 271)"/></g></svg>