<svg xmlns="http://www.w3.org/2000/svg" xmlns:xlink="http://www.w3.org/1999/xlink" width="961.232" height="347.999" viewBox="0 0 720.924 260.999"><defs><clipPath id="a"><path d="M178 8.16h1v242.25h-1zm0 0"/></clipPath><clipPath id="b"><path d="M18.5 129h320v1h-320zm0 0"/></clipPath><clipPath id="c"><path d="M86 8.16h2v242.25h-2zm0 0"/></clipPath><clipPath id="d"><path d="M178 8.16h1v242.25h-1zm0 0"/></clipPath><clipPath id="e"><path d="M269 8.16h2v242.25h-2zm0 0"/></clipPath><clipPath id="f"><path d="M18.5 222h320v1h-320zm0 0"/></clipPath><clipPath id="g"><path d="M18.5 175h320v2h-320zm0 0"/></clipPath><clipPath id="h"><path d="M18.5 129h320v1h-320zm0 0"/></clipPath><clipPath id="i"><path d="M18.5 82h320v1h-320zm0 0"/></clipPath><clipPath id="j"><path d="M18.5 35h320v2h-320zm0 0"/></clipPath><clipPath id="p"><path d="M388.426 8.16H389v242.25h-.574zm0 0"/></clipPath><clipPath id="q"><path d="M388.426 136h320v2h-320zm0 0"/></clipPath><clipPath id="r"><path d="M388.426 8.16H389v242.25h-.574zm0 0"/></clipPath><clipPath id="s"><path d="M441 8.16h2v242.25h-2zm0 0"/></clipPath><clipPath id="t"><path d="M494 8.16h2v242.25h-2zm0 0"/></clipPath><clipPath id="u"><path d="M548 8.16h1v242.25h-1zm0 0"/></clipPath><clipPath id="v"><path d="M601 8.16h2v242.25h-2zm0 0"/></clipPath><clipPath id="w"><path d="M654 8.16h2v242.25h-2zm0 0"/></clipPath><clipPath id="x"><path d="M708 8.16h.426v242.25H708zm0 0"/></clipPath><clipPath id="y"><path d="M388.426 243h320v2h-320zm0 0"/></clipPath><clipPath id="z"><path d="M388.426 208h320v1h-320zm0 0"/></clipPath><clipPath id="A"><path d="M388.426 172h320v2h-320zm0 0"/></clipPath><clipPath id="B"><path d="M388.426 136h320v2h-320zm0 0"/></clipPath><clipPath id="C"><path d="M388.426 101h320v1h-320zm0 0"/></clipPath><clipPath id="D"><path d="M388.426 65h320v2h-320zm0 0"/></clipPath><clipPath id="E"><path d="M388.426 29h320v2h-320zm0 0"/></clipPath><clipPath id="L"><path d="M376.426 242H383v6h-6.574zm0 0"/></clipPath><clipPath id="O"><path d="M376.426 206H383v6h-6.574zm0 0"/></clipPath><clipPath id="P"><path d="M376.426 170H382v6h-5.574zm0 0"/></clipPath><clipPath id="Q"><path d="M388.426 17h320v221h-320zm0 0"/></clipPath><clipPath id="R"><path d="M388.426 18h320v222h-320zm0 0"/></clipPath><symbol overflow="visible" id="k"><path style="stroke:none" d="M1.953-2.14H.313v.5h1.64zm0 0"/></symbol><symbol overflow="visible" id="l"><path style="stroke:none" d="M3.469-.594H.906c.063-.406.281-.656.89-1l.673-.375c.687-.36 1.031-.86 1.031-1.453 0-.406-.156-.781-.453-1.047-.281-.265-.64-.39-1.094-.39-.625 0-1.078.218-1.344.64-.171.25-.25.563-.265 1.047h.61c.015-.328.062-.531.14-.687a.94.94 0 0 1 .828-.47c.547 0 .969.391.969.907 0 .39-.235.719-.657.969l-.64.36C.578-1.532.28-1.064.234 0H3.47zm0 0"/></symbol><symbol overflow="visible" id="m"><path style="stroke:none" d="M1.89-4.86c-.452 0-.874.204-1.124.548-.313.421-.47 1.062-.47 1.968 0 1.625.548 2.5 1.595 2.5 1.03 0 1.593-.875 1.593-2.469 0-.937-.156-1.562-.484-2a1.355 1.355 0 0 0-1.11-.546zm0 .548c.641 0 .97.656.97 1.953 0 1.375-.313 2.015-.985 2.015-.64 0-.969-.672-.969-2 0-1.328.328-1.969.985-1.969zm0 0"/></symbol><symbol overflow="visible" id="n"><path style="stroke:none" d="M3.266-4.86H.75L.39-2.202h.563c.281-.344.516-.453.89-.453.641 0 1.063.437 1.063 1.156 0 .703-.406 1.125-1.062 1.125-.532 0-.86-.266-1-.813h-.61c.094.391.157.579.297.766.281.36.766.578 1.328.578.97 0 1.657-.703 1.657-1.734 0-.953-.641-1.625-1.563-1.625-.344 0-.625.094-.906.297l.187-1.344h2.032zm0 0"/></symbol><symbol overflow="visible" id="o"><path style="stroke:none" d="M1.313-.719h-.72V0h.72zm0 0"/></symbol><symbol overflow="visible" id="F"><path style="stroke:none" d="M1.89-4.86c-.452 0-.874.204-1.124.548-.313.421-.47 1.062-.47 1.968 0 1.625.548 2.5 1.595 2.5 1.03 0 1.593-.875 1.593-2.469 0-.937-.156-1.562-.484-2a1.355 1.355 0 0 0-1.11-.546zm0 .548c.641 0 .97.656.97 1.953 0 1.375-.313 2.015-.985 2.015-.64 0-.969-.672-.969-2 0-1.328.328-1.969.985-1.969zm0 0"/></symbol><symbol overflow="visible" id="G"><path style="stroke:none" d="M1.313-.719h-.72V0h.72zm0 0"/></symbol><symbol overflow="visible" id="H"><path style="stroke:none" d="M3.469-.594H.906c.063-.406.281-.656.89-1l.673-.375c.687-.36 1.031-.86 1.031-1.453 0-.406-.156-.781-.453-1.047-.281-.265-.64-.39-1.094-.39-.625 0-1.078.218-1.344.64-.171.25-.25.563-.265 1.047h.61c.015-.328.062-.531.14-.687a.94.94 0 0 1 .828-.47c.547 0 .969.391.969.907 0 .39-.235.719-.657.969l-.64.36C.578-1.532.28-1.064.234 0H3.47zm0 0"/></symbol><symbol overflow="visible" id="I"><path style="stroke:none" d="M3.266-4.86H.75L.39-2.202h.563c.281-.344.516-.453.89-.453.641 0 1.063.437 1.063 1.156 0 .703-.406 1.125-1.062 1.125-.532 0-.86-.266-1-.813h-.61c.094.391.157.579.297.766.281.36.766.578 1.328.578.97 0 1.657-.703 1.657-1.734 0-.953-.641-1.625-1.563-1.625-.344 0-.625.094-.906.297l.187-1.344h2.032zm0 0"/></symbol><symbol overflow="visible" id="J"><path style="stroke:none" d="M3.563-4.86H.313v.61h2.624C1.782-2.61 1.313-1.594.954 0h.64c.266-1.547.876-2.89 1.97-4.344zm0 0"/></symbol><symbol overflow="visible" id="K"><path style="stroke:none" d="M1.781-3.453V0h.594v-4.86h-.39c-.22.75-.36.86-1.282.97v.437zm0 0"/></symbol><symbol overflow="visible" id="M"><path style="stroke:none" d="M1.953-2.14H.313v.5h1.64zm0 0"/></symbol><symbol overflow="visible" id="N"><path style="stroke:none" d="M1.516-2.219h.078l.25-.015c.672 0 1.015.296 1.015.89 0 .61-.39.969-1.015.969-.657 0-.985-.328-1.016-1.031h-.61c.032.39.095.64.22.86.234.468.718.702 1.39.702 1 0 1.64-.594 1.64-1.515 0-.61-.234-.954-.827-1.157.453-.171.687-.515.687-1 0-.843-.562-1.343-1.484-1.343-.985 0-1.5.546-1.516 1.578h.594c.015-.297.031-.469.11-.61.14-.265.437-.437.827-.437.532 0 .844.312.844.828 0 .344-.11.547-.39.656-.157.078-.376.094-.797.11zm0 0"/></symbol></defs><path style="stroke:none;fill-rule:nonzero;fill:#fff;fill-opacity:1" d="M18.5 250.41h320V8.16h-320zm0 0"/><g clip-path="url(#a)"><path style="fill:none;stroke-width:5.70714;stroke-linecap:round;stroke-linejoin:miter;stroke:#bfbfbf;stroke-opacity:1;stroke-miterlimit:10" d="M1997.503-211.153V-2636.69" transform="matrix(.10013 0 0 .09987 -21.5 271.499)"/></g><g clip-path="url(#b)"><path style="fill:none;stroke-width:5.70714;stroke-linecap:round;stroke-linejoin:miter;stroke:#bfbfbf;stroke-opacity:1;stroke-miterlimit:10" d="M399.5-1423.921h3196.006" transform="matrix(.10013 0 0 .09987 -21.5 271.499)"/></g><g clip-path="url(#c)"><path style="fill:none;stroke-width:5.70714;stroke-linecap:round;stroke-linejoin:miter;stroke:#bfbfbf;stroke-opacity:1;stroke-dasharray:11.4143,17.1214;stroke-miterlimit:10" d="M1084.348-211.153V-2636.69" transform="matrix(.10013 0 0 .09987 -21.5 271.499)"/></g><g clip-path="url(#d)"><path style="fill:none;stroke-width:5.70714;stroke-linecap:round;stroke-linejoin:miter;stroke:#bfbfbf;stroke-opacity:1;stroke-dasharray:11.4143,17.1214;stroke-miterlimit:10" d="M1997.503-211.153V-2636.69" transform="matrix(.10013 0 0 .09987 -21.5 271.499)"/></g><g clip-path="url(#e)"><path style="fill:none;stroke-width:5.70714;stroke-linecap:round;stroke-linejoin:miter;stroke:#bfbfbf;stroke-opacity:1;stroke-dasharray:11.4143,17.1214;stroke-miterlimit:10" d="M2910.659-211.153V-2636.69" transform="matrix(.10013 0 0 .09987 -21.5 271.499)"/></g><g clip-path="url(#f)"><path style="fill:none;stroke-width:5.70714;stroke-linecap:round;stroke-linejoin:miter;stroke:#bfbfbf;stroke-opacity:1;stroke-dasharray:11.4143,17.1214;stroke-miterlimit:10" d="M399.5-491.034h3196.006" transform="matrix(.10013 0 0 .09987 -21.5 271.499)"/></g><g clip-path="url(#g)"><path style="fill:none;stroke-width:5.70714;stroke-linecap:round;stroke-linejoin:miter;stroke:#bfbfbf;stroke-opacity:1;stroke-dasharray:11.4143,17.1214;stroke-miterlimit:10" d="M399.5-957.478h3196.006" transform="matrix(.10013 0 0 .09987 -21.5 271.499)"/></g><g clip-path="url(#h)"><path style="fill:none;stroke-width:5.70714;stroke-linecap:round;stroke-linejoin:miter;stroke:#bfbfbf;stroke-opacity:1;stroke-dasharray:11.4143,17.1214;stroke-miterlimit:10" d="M399.5-1423.921h3196.006" transform="matrix(.10013 0 0 .09987 -21.5 271.499)"/></g><g clip-path="url(#i)"><path style="fill:none;stroke-width:5.70714;stroke-linecap:round;stroke-linejoin:miter;stroke:#bfbfbf;stroke-opacity:1;stroke-dasharray:11.4143,17.1214;stroke-miterlimit:10" d="M399.5-1890.365h3196.006" transform="matrix(.10013 0 0 .09987 -21.5 271.499)"/></g><g clip-path="url(#j)"><path style="fill:none;stroke-width:5.70714;stroke-linecap:round;stroke-linejoin:miter;stroke:#bfbfbf;stroke-opacity:1;stroke-dasharray:11.4143,17.1214;stroke-miterlimit:10" d="M399.5-2356.847h3196.006" transform="matrix(.10013 0 0 .09987 -21.5 271.499)"/></g><path style="fill:none;stroke-width:11.4143;stroke-linecap:square;stroke-linejoin:miter;stroke:#000;stroke-opacity:1;stroke-miterlimit:10" d="M399.5-211.153h3196.006" transform="matrix(.10013 0 0 .09987 -21.5 271.499)"/><path style="fill:none;stroke-width:5.70714;stroke-linecap:butt;stroke-linejoin:miter;stroke:#000;stroke-opacity:1;stroke-miterlimit:10" d="M445.147-211.153v-22.84m91.331 22.84v-22.84m91.292 22.84v-22.84m91.331 22.84v-22.84m91.331 22.84v-22.84m91.292 22.84v-22.84m182.624 22.84v-45.682m0 45.682v-22.84m91.331 22.84v-22.84m91.292 22.84v-22.84m91.331 22.84v-22.84m91.292 22.84v-22.84m91.331 22.84v-22.84m91.332 22.84v-22.84m91.292 22.84v-22.84m91.331 22.84v-22.84m182.623 22.84v-45.682m0 45.682v-22.84m91.292 22.84v-22.84m91.331 22.84v-22.84m91.332 22.84v-22.84m91.292 22.84v-22.84m91.33 22.84v-22.84m91.293 22.84v-22.84m91.331 22.84v-22.84m91.292 22.84v-22.84m182.663 22.84v-45.682m0 45.682v-22.84m91.291 22.84v-22.84m91.332 22.84v-22.84m91.292 22.84v-22.84m91.331 22.84v-22.84m91.292 22.84v-22.84m91.331 22.84v-22.84m91.292 22.84v-22.84" transform="matrix(.10013 0 0 .09987 -21.5 271.499)"/><g style="fill:#000;fill-opacity:1"><use xlink:href="#k" x="83.452" y="259.529"/><use xlink:href="#l" x="85.735" y="259.529"/></g><use xlink:href="#m" x="176.594" y="259.529" style="fill:#000;fill-opacity:1"/><use xlink:href="#l" x="268.023" y="259.529" style="fill:#000;fill-opacity:1"/><path style="fill:none;stroke-width:11.4143;stroke-linecap:square;stroke-linejoin:miter;stroke:#000;stroke-opacity:1;stroke-miterlimit:10" d="M399.5-2636.69h3196.006" transform="matrix(.10013 0 0 .09987 -21.5 271.499)"/><path style="fill:none;stroke-width:5.70714;stroke-linecap:butt;stroke-linejoin:miter;stroke:#000;stroke-opacity:1;stroke-miterlimit:10" d="M445.147-2636.69v22.802m91.331-22.802v22.802m91.292-22.802v22.802m91.331-22.802v22.802m91.331-22.802v22.802m91.292-22.802v22.802m182.624-22.802v45.644m0-45.644v22.802m91.331-22.802v22.802m91.292-22.802v22.802m91.331-22.802v22.802m91.292-22.802v22.802m91.331-22.802v22.802m91.332-22.802v22.802m91.292-22.802v22.802m91.331-22.802v22.802m182.623-22.802v45.644m0-45.644v22.802m91.292-22.802v22.802m91.331-22.802v22.802m91.332-22.802v22.802m91.292-22.802v22.802m91.33-22.802v22.802m91.293-22.802v22.802m91.331-22.802v22.802m91.292-22.802v22.802m182.663-22.802v45.644m0-45.644v22.802m91.291-22.802v22.802m91.332-22.802v22.802m91.292-22.802v22.802m91.331-22.802v22.802m91.292-22.802v22.802m91.331-22.802v22.802m91.292-22.802v22.802" transform="matrix(.10013 0 0 .09987 -21.5 271.499)"/><g style="fill:#000;fill-opacity:1"><use xlink:href="#k" x="83.452" y="5.879"/><use xlink:href="#l" x="85.735" y="5.879"/></g><use xlink:href="#m" x="176.594" y="5.879" style="fill:#000;fill-opacity:1"/><use xlink:href="#l" x="268.023" y="5.879" style="fill:#000;fill-opacity:1"/><path style="fill:none;stroke-width:11.4143;stroke-linecap:square;stroke-linejoin:miter;stroke:#000;stroke-opacity:1;stroke-miterlimit:10" d="M399.5-211.153V-2636.69" transform="matrix(.10013 0 0 .09987 -21.5 271.499)"/><path style="fill:none;stroke-width:5.70714;stroke-linecap:butt;stroke-linejoin:miter;stroke:#000;stroke-opacity:1;stroke-miterlimit:10" d="M399.5-211.153h22.824m-22.824-46.66h22.824m-22.824-46.66h22.824M399.5-351.094h22.824m-22.824-46.66h22.824m-22.824-93.28h45.647m-45.647 0h22.824m-22.824-46.66h22.824M399.5-584.315h22.824m-22.824-46.66h22.824M399.5-677.596h22.824m-22.824-46.66h22.824m-22.824-46.66h22.824M399.5-817.537h22.824m-22.824-46.66h22.824M399.5-957.478h45.647m-45.647 0h22.824m-22.824-46.66h22.824m-22.824-46.621h22.824m-22.824-46.66h22.824m-22.824-46.66h22.824M399.5-1190.7h22.824m-22.824-46.66h22.824m-22.824-46.66h22.824m-22.824-46.62h22.824m-22.824-93.281h45.647m-45.647 0h22.824m-22.824-46.66h22.824m-22.824-46.621h22.824m-22.824-46.66h22.824m-22.824-46.66h22.824m-22.824-46.621h22.824m-22.824-46.66h22.824m-22.824-46.66h22.824m-22.824-46.621h22.824m-22.824-93.281h45.647m-45.647 0h22.824m-22.824-46.66h22.824m-22.824-46.66h22.824m-22.824-46.62h22.824m-22.824-46.66h22.824m-22.824-46.66h22.824m-22.824-46.621h22.824m-22.824-46.66h22.824m-22.824-46.621h22.824m-22.824-93.32h45.647m-45.647 0h22.824m-22.824-46.621h22.824m-22.824-46.66h22.824m-22.824-46.66h22.824m-22.824-46.621h22.824m-22.824-46.66h22.824M399.5-2636.69h22.824" transform="matrix(.10013 0 0 .09987 -21.5 271.499)"/><g style="fill:#000;fill-opacity:1"><use xlink:href="#k" x=".971" y="225.329"/><use xlink:href="#n" x="3.255" y="225.329"/><use xlink:href="#o" x="7.067" y="225.329"/><use xlink:href="#m" x="8.973" y="225.329"/></g><g style="fill:#000;fill-opacity:1"><use xlink:href="#k" x=".971" y="179.159"/><use xlink:href="#l" x="3.255" y="179.159"/><use xlink:href="#o" x="7.067" y="179.159"/><use xlink:href="#n" x="8.973" y="179.159"/></g><g style="fill:#000;fill-opacity:1"><use xlink:href="#m" x="3.255" y="132.419"/><use xlink:href="#o" x="7.067" y="132.419"/><use xlink:href="#m" x="8.974" y="132.419"/></g><g style="fill:#000;fill-opacity:1"><use xlink:href="#l" x="3.255" y="85.679"/><use xlink:href="#o" x="7.067" y="85.679"/><use xlink:href="#n" x="8.974" y="85.679"/></g><g style="fill:#000;fill-opacity:1"><use xlink:href="#n" x="3.255" y="39.509"/><use xlink:href="#o" x="7.067" y="39.509"/><use xlink:href="#m" x="8.974" y="39.509"/></g><path style="fill:none;stroke-width:11.4143;stroke-linecap:square;stroke-linejoin:miter;stroke:#000;stroke-opacity:1;stroke-miterlimit:10" d="M3595.506-211.153V-2636.69" transform="matrix(.10013 0 0 .09987 -21.5 271.499)"/><path style="fill:none;stroke-width:5.70714;stroke-linecap:butt;stroke-linejoin:miter;stroke:#000;stroke-opacity:1;stroke-miterlimit:10" d="M3595.506-211.153h-22.823m22.823-46.66h-22.823m22.823-46.66h-22.823m22.823-46.621h-22.823m22.823-46.66h-22.823m22.823-93.28h-45.685m45.685 0h-22.823m22.823-46.66h-22.823m22.823-46.621h-22.823m22.823-46.66h-22.823m22.823-46.621h-22.823m22.823-46.66h-22.823m22.823-46.66h-22.823m22.823-46.621h-22.823m22.823-46.66h-22.823m22.823-93.281h-45.685m45.685 0h-22.823m22.823-46.66h-22.823m22.823-46.621h-22.823m22.823-46.66h-22.823m22.823-46.66h-22.823m22.823-46.621h-22.823m22.823-46.66h-22.823m22.823-46.66h-22.823m22.823-46.62h-22.823m22.823-93.281h-45.685m45.685 0h-22.823m22.823-46.66h-22.823m22.823-46.621h-22.823m22.823-46.66h-22.823m22.823-46.66h-22.823m22.823-46.621h-22.823m22.823-46.66h-22.823m22.823-46.66h-22.823m22.823-46.621h-22.823m22.823-93.281h-45.685m45.685 0h-22.823m22.823-46.66h-22.823m22.823-46.66h-22.823m22.823-46.62h-22.823m22.823-46.66h-22.823m22.823-46.66h-22.823m22.823-46.621h-22.823m22.823-46.66h-22.823m22.823-46.621h-22.823m22.823-93.32h-45.685m45.685 0h-22.823m22.823-46.621h-22.823m22.823-46.66h-22.823m22.823-46.66h-22.823m22.823-46.621h-22.823m22.823-46.66h-22.823m22.823-46.621h-22.823" transform="matrix(.10013 0 0 .09987 -21.5 271.499)"/><g style="fill:#000;fill-opacity:1"><use xlink:href="#k" x="344.214" y="225.329"/><use xlink:href="#n" x="346.497" y="225.329"/><use xlink:href="#o" x="350.31" y="225.329"/><use xlink:href="#m" x="352.216" y="225.329"/></g><g style="fill:#000;fill-opacity:1"><use xlink:href="#k" x="344.214" y="179.159"/><use xlink:href="#l" x="346.497" y="179.159"/><use xlink:href="#o" x="350.31" y="179.159"/><use xlink:href="#n" x="352.216" y="179.159"/></g><g style="fill:#000;fill-opacity:1"><use xlink:href="#m" x="344.214" y="132.419"/><use xlink:href="#o" x="348.027" y="132.419"/><use xlink:href="#m" x="349.933" y="132.419"/></g><g style="fill:#000;fill-opacity:1"><use xlink:href="#l" x="344.214" y="85.679"/><use xlink:href="#o" x="348.027" y="85.679"/><use xlink:href="#n" x="349.933" y="85.679"/></g><g style="fill:#000;fill-opacity:1"><use xlink:href="#n" x="344.214" y="39.509"/><use xlink:href="#o" x="348.027" y="39.509"/><use xlink:href="#m" x="349.933" y="39.509"/></g><path style="fill:none;stroke-width:11.4143;stroke-linecap:round;stroke-linejoin:round;stroke:red;stroke-opacity:1;stroke-miterlimit:10" d="m2910.659-1965.028 19.819 1.173 19.78 2.66 19.662 4.263 19.468 5.906 19.195 7.587 18.922 9.348 18.531 11.107 18.064 12.907 17.595 14.706 17.01 16.544 16.346 18.383 15.645 20.181 14.903 21.98 14.045 23.702 13.148 25.345 12.172 26.947 11.158 28.474 10.105 29.88 8.973 31.173 7.802 32.345 6.633 33.362 5.345 34.262 4.096 34.965 2.81 35.553 1.482 35.904.156 36.1-1.17 36.178-2.498 35.982-3.823 35.71-5.11 35.2-6.36 34.535-7.647 33.753-8.856 32.775-10.065 31.72-11.197 30.507-12.29 29.177-13.303 27.73-14.318 26.283-15.294 24.718-16.112 23.076-16.971 21.433-17.713 19.79-18.375 18.07-19.039 16.388-19.624 14.745-20.13 13.063-20.561 11.46-20.95 9.895-21.302 8.409-21.574 6.884-21.81 5.514-21.964 4.185-22.12 2.894-22.2 1.721-22.237.626-22.238-.47-22.199-1.407-22.16-2.308-22.042-3.168-21.887-3.872-21.77-4.576-21.574-5.163-21.38-5.749-21.145-6.18-20.912-6.649-20.677-7-20.404-7.314-20.131-7.549-19.858-7.783-19.546-7.94-19.273-8.057-18.96-8.135-18.688-8.174-18.376-8.174-18.063-8.175-17.751-8.096-17.478-8.018-17.205-7.9-16.893-7.783-16.62-7.627-16.347-7.431-16.035-7.275-15.84-7.04-15.527-6.805-15.293-6.571-15.098-6.336-14.826-6.063-14.63-5.788-14.396-5.515-14.24-5.202-14.045-4.928-13.85-4.615-13.654-4.302-13.577-3.99-13.382-3.637-13.265-3.363-13.186-2.973-13.03-2.699-12.953-2.346-12.914-2.034-12.796-1.643-12.758-1.369-12.718-1.016-12.68-.665-12.68-.313h-12.64l-12.68.313-12.679.665-12.718 1.016-12.719 1.33-12.835 1.643-12.875 1.955-12.952 2.269-13.03 2.581-13.149 2.895-13.264 3.168-13.382 3.48-13.499 3.794-13.654 4.029-13.811 4.302-13.967 4.576-14.162 4.81-14.318 5.046-14.513 5.28-14.709 5.476-14.903 5.671-15.137 5.867-15.333 6.023-15.566 6.18-15.8 6.296-16.035 6.415-16.269 6.453-16.503 6.57-16.776 6.532-16.97 6.61-17.245 6.532-17.439 6.492-17.712 6.415-17.946 6.258-18.18 6.1-18.376 5.907-18.61 5.67-18.804 5.36-19 5.045-19.156 4.654-19.312 4.185-19.507 3.754-19.584 3.168-19.741 2.62-19.78 1.957-19.858 1.251-19.897.47-19.858-.313-19.897-1.213-19.78-2.151-19.702-3.168-19.585-4.146-19.39-5.28-19.195-6.414-18.921-7.588-18.61-8.839-18.297-10.09-17.869-11.382-17.439-12.711-16.932-14.002-16.425-15.371-15.84-16.7-15.175-18.031-14.514-19.321-13.771-20.612-12.953-21.824-12.172-23.037-11.314-24.132-10.378-25.187-9.441-26.166-8.505-27.026-7.452-27.808-6.437-28.512-5.384-29.021-4.291-29.49-3.239-29.764-2.106-29.96-1.015-29.998.078-29.881 1.17-29.686 2.264-29.294 3.316-28.825 4.408-28.239 5.384-27.456 6.398-26.635 7.335-25.657 8.27-24.64 9.17-23.506 9.987-22.255 10.767-20.964 11.548-19.633 12.25-18.266 12.875-16.817 13.46-15.332 14.006-13.885 14.474-12.398 14.903-10.912 15.294-9.465 15.605-7.94 15.879-6.57 16.073-5.124 16.23-3.755 16.386-2.425 16.425-1.134 16.424.078 16.425 1.33 16.347 2.425 16.269 3.52 16.073 4.576 15.918 5.515 15.684 6.453 15.41 7.314 15.176 8.135 14.826 8.879 14.513 9.582 14.123 10.247 13.732 10.873 13.343 11.381 12.914 11.93 12.484 12.359 11.977 12.79 11.548 13.18 11.041 13.493 10.534 13.806 10.026 14.08 9.48 14.315 9.013 14.472 8.427 14.666 7.88 14.785 7.374 14.901 6.789 14.98 6.242 15.058 5.696 15.058 5.15 15.057 4.603 15.02 4.058 15.018 3.511 14.94 2.926 14.863 2.419 14.784 1.834 14.628 1.365 14.51.78 14.315.273 14.158-.234 13.963-.741 13.767-1.248 13.533-1.756 13.298-2.224 13.024-2.692 12.75-3.16 12.438-3.59 12.124-4.057 11.812-4.486 11.46-4.877 11.107-5.306 10.717-5.696 10.286-6.047 9.895-6.398 9.465-6.71 9.035-7.101 8.526-7.374 8.018-7.646 7.549-7.92 7-8.154 6.454-8.388 5.906-8.622 5.32-8.778 4.692-8.934 4.107-9.09 3.442-9.208 2.816-9.285 2.112-9.363 1.447-9.402.704-9.403.04-9.402-.744-9.363-1.447-9.286-2.23-9.168-2.972-9.09-3.755-8.895-4.536-8.74-5.32-8.543-6.101-8.31-6.844-7.998-7.666-7.725-8.41-7.412-9.19-7.062-9.935-6.671-10.677-6.281-11.382-5.813-12.124-5.384-12.75-4.916-13.455-4.409-14.04-3.862-14.668-3.316-15.214-2.77-15.723-2.146-16.231-1.56-16.662-.976-17.052-.312-17.444.351-17.757.976-18.03 1.677-18.265 2.341-18.422 3.004-18.577 3.706-18.696 4.37-18.695 5.072-18.734 5.735-18.696 6.437-18.578 7.14-18.5 7.802-18.343 8.466-18.147 9.13-17.953 9.753-17.678 10.456-17.444 11.04-17.13 11.705-16.818 12.289-16.505 12.913-16.193 13.46-15.8 14.084-15.489 14.591-15.136 15.177-14.784 15.722-14.432 16.23-14.08 16.737-13.768 17.244-13.454 17.712-13.141 18.18-12.868 18.688-12.594 19.117-12.32 19.585-12.164 20.053-11.89 20.443-11.772 20.872-11.577 21.302-11.499 21.73-11.342 22.121-11.343 22.59-11.264 22.94-11.264 23.407-11.264 23.799-11.303 24.188-11.42 24.657-11.46 25.047-11.616 25.476-11.734 25.905-11.89 26.373-12.124 26.803-12.281 27.27-12.516 27.739-12.75 28.207-12.985 28.675-13.22 29.143-13.493 29.69-13.729 30.196-14.001 30.665-14.198 31.211-14.432 31.796-14.589 32.265-14.784 32.85-14.94 33.395-14.98 33.942-15.019 34.488-14.98 35.034-14.901 35.581-14.706 36.127-14.432 36.634-14.041 37.14-13.533 37.61-12.906 38.116-12.125 38.507-11.147 38.936-10.09 39.247-8.761 39.521-7.275 39.794-5.593 39.99-3.637 40.027-1.448 40.068.94 39.989 3.597 39.794 6.454 39.52 9.66 39.053 13.024 38.546 16.701 37.882 20.534 37.024 24.562 36.049 28.786 34.917 33.166 33.63 37.625 32.147 42.162 30.51 46.7 28.713 51.196 26.764 55.578 24.656 59.84 22.394 63.791 19.936 67.507 17.44 70.87 14.747 73.803 12.016 76.306 9.168 78.262 6.281 79.67 3.355 80.57.352 80.765-2.575 80.492-5.54 79.513-8.427 78.028-11.275 75.993-14.006 73.413-16.62 70.4-19.156 66.998-21.535 63.165-23.799 59.098-25.905 54.795-27.817 50.297-29.572 45.721-31.172 41.067-32.577 36.452-33.863 31.915-34.918 27.378-35.892 23.115-36.595 18.891-37.258 14.98-37.727 11.186-38.077 7.705-38.312 4.42-38.389 1.368-38.429-1.408-38.311-3.95-38.116-6.258-37.844-8.33-37.492-10.17-37.102-11.811-36.673-13.298-36.127-14.51-35.58-15.606-34.956-16.544-34.372-17.366-33.746-17.991-33.045-18.5-32.342-18.969-31.64-19.321-30.978-19.517-30.196-19.75-29.495-19.83-28.792-19.869-28.012-19.908-27.31-19.83-26.568-19.75-25.866-19.674-25.163-19.516-24.384-19.36-23.72-19.204-23.018-19.008-22.316-18.813-21.653-18.617-20.95-18.382-20.287-18.187-19.624-17.992-18.961-17.717-18.298-17.522-17.673-17.287-17.049-17.092-16.425-16.857-15.8-16.661-15.215-16.427-14.592-16.232-14.045-15.996-13.42-15.801-12.836-15.606-12.29-15.41-11.703-15.175-11.158-14.94-10.65-14.785-10.066-14.549-9.559-14.315-9.012-14.158-8.544-13.924-7.998-13.689-7.53-13.454-7.022-13.259-6.515-13.024-6.086-12.79-5.58-12.515-5.15-12.32-4.72-12.047-4.252-11.772-3.824-11.538-3.394-11.264-3.004-10.99-2.614-10.717-2.224-10.404-1.833-10.169-1.483-9.817-1.131-9.543-.78-9.191-.43-8.917-.117-8.566.156-8.252.508-7.94.78-7.588 1.014-7.235 1.327-6.923 1.521-6.532 1.795-6.218 1.99-5.828 2.223-5.476 2.42-5.123 2.574-4.772 2.77-4.38 2.887-4.029 3.043-3.637 3.2-3.285 3.276-2.895 3.395-2.542 3.472-2.151 3.55-1.8 3.59-1.407 3.667-1.017 3.667-.665 3.706-.313 3.707.078 3.706.43 3.667.822 3.628 1.173 3.59 1.526 3.55 1.916 3.433 2.23 3.355 2.62 3.239 2.972 3.16 3.325 3.004 3.676 2.848 4.029 2.73 4.341 2.537 4.733 2.38 5.045 2.184 5.358 1.99 5.71 1.755 6.063 1.522 6.375 1.287 6.688 1.054 7.001.78 7.314.507 7.666.195 7.94-.078 8.252-.39 8.526-.702 8.878-1.053 9.113-1.366 9.465-1.717 9.7-2.106 9.973-2.458 10.248-2.848 10.56-3.238 10.755-3.629 11.03-4.057 11.303-4.448 11.538-4.915 11.773-5.306 11.968-5.774 12.242-6.242 12.398-6.672 12.633-7.14 12.828-7.646 12.985-8.115 13.181-8.583 13.337-9.09 13.454-9.558 13.611-10.105 13.69-10.573 13.845-11.119 13.884-11.587 13.963-12.133 14.002-12.64 14.002-13.148 14.002-13.655 13.962-14.162 13.924-14.708 13.807-15.176 13.689-15.684 13.532-16.19 13.337-16.66 13.102-17.126 12.79-17.635 12.476-18.063 12.125-18.453 11.655-18.922 11.147-19.312 10.638-19.702 10.013-20.053 9.347-20.365 8.605-20.677 7.783-20.95 6.923-21.185 5.906-21.38 4.889-21.574 3.794-21.653 2.58-21.73 1.292-21.731-.04-21.73-1.486-21.654-3.011-21.496-4.576-21.302-6.22-21.067-7.939-20.716-9.7-20.326-11.537-19.858-13.376-19.351-15.254-18.766-17.17-18.102-19.047-17.361-20.964-16.542-22.841-15.684-24.64-14.747-26.479-13.733-28.12-12.68-29.804-11.547-31.289-10.378-32.697-9.168-33.949-7.88-35.122-6.594-36.022-5.267-36.882-3.862-37.43-2.497-37.898-1.093-38.134.273-38.173 1.717-38.016 3.082-37.665 4.448-37.155 5.852-36.374 7.1-35.552 8.427-34.458 9.676-33.284 10.845-31.914 12.017-30.468 13.07-28.904 14.122-27.182 15.099-25.5 15.995-23.663 16.815-21.785 17.595-19.947 18.298-18.03 18.921-16.154 19.468-14.275 19.975-12.399 20.404-10.599 20.717-8.839 21.067-7.08 21.263-5.436 21.418-3.872 21.536-2.307 21.613-.86 21.614.469 21.575 1.799 21.496 3.011 21.34 4.107 21.185 5.202 20.99 6.14 20.716 7.08 20.443 7.86 20.17 8.605 19.82 9.309 19.467 9.895 19.117 10.482 18.687 10.912 18.298 11.382 17.868 11.733 17.44 12.085 16.97 12.32 16.542 12.555 16.074 12.75 15.605 12.907 15.098 13.025 14.63 13.063 14.162 13.141 13.694 13.142 13.187 13.141 12.718 13.063 12.212 13.025 11.782 12.985 11.275 12.828 10.807 12.711 10.338 12.555 9.91 12.438 9.441 12.241 8.973 12.086 8.544 11.89 8.154 11.655 7.686 11.46 7.256 11.225 6.867 10.99 6.476 10.756 6.086 10.481 5.696 10.248 5.345 9.973 4.955 9.7 4.642 9.426 4.253 9.152 3.98 8.839 3.589 8.565 3.316 8.292 3.043 7.979 2.73 7.666 2.459 7.352 2.184 7.08 1.912 6.727 1.717 6.453 1.482 6.102 1.249 5.788 1.014 5.476.858 5.123.664 4.811.507 4.498.312 4.185.195 3.794.039 3.52-.039 3.168-.195 2.816-.273 2.503-.39 2.15-.43 1.8-.468 1.486-.546 1.135-.585.82-.585.47-.624.118-.625-.196-.585-.548-.585-.9-.546-1.25-.468-1.526-.43-1.917-.312-2.229-.273-2.581-.156-2.894-.039-3.247.078-3.559.234-3.911.39-4.224.508-4.537.702-4.85.897-5.202 1.092-5.514 1.288-5.828 1.482-6.101 1.756-6.454 1.99-6.766 2.224-7.08 2.496-7.352 2.81-7.666 3.043-7.979 3.355-8.252 3.706-8.527 3.98-8.878 4.33-9.113 4.682-9.426 4.993-9.66 5.384-9.974 5.735-10.247 6.125-10.52 6.516-10.796 6.905-11.068 7.335-11.303 7.763-11.577 8.154-11.851 8.622-12.125 9.09-12.359 9.52-12.633 9.987-12.868 10.456-13.141 10.963-13.376 11.47-13.611 11.938-13.885 12.485-14.119 12.991-14.354 13.538-14.627 14.045-14.824 14.63-15.058 15.176-15.331 15.723-15.527 16.308-15.762 16.932-15.958 17.478-16.192 18.063-16.349 18.688-16.583 19.311-16.74 19.936-16.896 20.522-17.052 21.184-17.17 21.77-17.248 22.472-17.366 23.057-17.405 23.72-17.443 24.345-17.366 25.008-17.365 25.593-17.21 26.256-17.052 26.88-16.818 27.466-16.544 28.09-16.192 28.714-15.723 29.221-15.175 29.807-14.55 30.274-13.806 30.821-12.946 31.25-11.968 31.68-10.873 32.069-9.621 32.381-8.214 32.655-6.649 32.85-4.967 33.044-3.05 33.044-.978 33.123 1.251 32.967 3.638 32.81 6.257 32.577 8.996 32.147 11.89 31.64 14.98 31.055 18.147 30.353 21.472 29.455 24.914 28.52 28.356 27.387 31.915 26.139 35.474 24.813 38.916 23.29 42.436 21.654 45.722 19.936 48.967 18.102 51.94 16.113 54.717 14.084 57.26 11.938 59.449 9.714 61.287 7.413 62.774 5.11 63.908 2.77 64.573.352 64.847-1.99 64.651-4.37 64.065-6.71 63.087-8.973 61.679-11.236 59.88-13.382 57.767-15.488 55.343-17.44 52.605-19.311 49.671-21.107 46.504-22.745 43.218-24.227 39.815-25.671 36.335-26.92 32.775-28.05 29.295-29.105 25.813-29.962 22.411-30.704 19.048-31.367 15.918-31.874 12.79-32.304 9.895-32.615 7.157-32.85 4.537-32.966 2.151-33.006-.117-32.928-2.151-32.85-4.029-32.615-5.75-32.42-7.313-32.147-8.683-31.758-9.934-31.406-11.03-30.976-11.968-30.51-12.828-30.04-13.494-29.494-14.158-29.026-14.628-28.441-15.019-27.895-15.37-27.31-15.606-26.763-15.801-26.178-15.88-25.593-15.996-24.97-15.957-24.422-15.958-23.837-15.84-23.213-15.8-22.667-15.606-22.121-15.45-21.536-15.292-20.95-15.058-20.443-14.823-19.897-14.628-19.351-14.354-18.805-14.08-18.336-13.806-17.83-13.572-17.322-13.259-16.854-12.985-16.346-12.672-15.918-12.398-15.488-12.125-15.02-11.811-14.592-11.538-14.162-11.225-13.772-10.912-13.381-10.678-12.992-10.325-12.64-10.091-12.25-9.778-11.9-9.465-11.548-9.23-11.236-8.918-10.885-8.643-10.572-8.33-10.3-8.097-9.988-7.783-9.714-7.51-9.441-7.235-9.208-6.962-8.895-6.727-8.7-6.415-8.466-6.14-8.232-5.867-8.036-5.632-7.842-5.319-7.647-5.084-7.451-4.772-7.257-4.576-7.14-4.263-6.983-3.99-6.827-3.754-6.672-3.481-6.593-3.207-6.437-2.973-6.36-2.699-6.28-2.464-6.165-2.19-6.086-1.916-6.047-1.682-5.97-1.447-5.93-1.173-5.89-.94-5.853-.703-5.852-.43-5.813-.235-5.852.039-5.813.235-5.852.469-5.852.704-5.891.9-5.93 1.134-5.97 1.369-6.046 1.525-6.086 1.76-6.165 1.917-6.203 2.15-6.32 2.308-6.398 2.464-6.516 2.66-6.593 2.777-6.71 2.972-6.789 3.09-6.905 3.207-7.062 3.325-7.178 3.48-7.296 3.52-7.451 3.677-7.569 3.716-7.686 3.794-7.841 3.832-7.998 3.872-8.154 3.912-8.271 3.91-8.388 3.912-8.583 3.872-8.7 3.872-8.817 3.794-9.012 3.755-9.09 3.637-9.247 3.52-9.402 3.442-9.48 3.246-9.637 3.129-9.714 2.933-9.832 2.699-9.948 2.542-9.988 2.23-10.104 1.994-10.144 1.721-10.221 1.408-10.261 1.095-10.3.743-10.338.352-10.339-.039-10.3-.39" transform="matrix(.10013 0 0 .09987 -21.5 271.499)"/><path style="fill:none;stroke-width:11.4143;stroke-linecap:round;stroke-linejoin:round;stroke:#00f;stroke-opacity:1;stroke-miterlimit:10" d="m2910.659-1983.685 20.52 1.213 20.444 2.738 20.326 4.42 20.131 6.14 19.897 7.861 19.546 9.7 19.156 11.538 18.687 13.415 18.18 15.293 17.596 17.248 16.893 19.125 16.19 21.003 15.372 22.841 14.513 24.68 13.577 26.439 12.562 28.082 11.47 29.646 10.378 31.172 9.246 32.463 7.998 33.714 6.71 34.77 5.462 35.67 4.136 36.452 2.77 36.96 1.404 37.351.04 37.586-1.327 37.547-2.731 37.391-4.057 37.039-5.462 36.49-6.75 35.788-8.037 34.887-9.324 33.87-10.573 32.698-11.704 31.406-12.835 30.038-13.928 28.512-14.942 26.909-15.918 25.266-16.776 23.584-17.634 21.824-18.376 20.064-19.116 18.305-19.741 16.544-20.326 14.784-20.834 13.102-21.262 11.382-21.653 9.777-22.004 8.214-22.276 6.727-22.472 5.241-22.667 3.911-22.784 2.581-22.823 1.37-22.901.234-22.863-.86-22.823-1.8-22.706-2.698-22.628-3.56-22.471-4.302-22.316-4.967-22.121-5.593-21.887-6.101-21.652-6.61-21.419-7-21.106-7.354-20.912-7.666-20.56-7.9-20.287-8.096-20.014-8.253-19.663-8.33-19.39-8.449-19.078-8.409-18.765-8.448-18.454-8.409-18.141-8.33-17.83-8.214-17.517-8.096-17.244-7.94-16.97-7.783-16.698-7.587-16.386-7.392-16.113-7.158-15.878-6.962-15.645-6.649-15.371-6.414-15.138-6.14-14.942-5.867-14.747-5.554-14.513-5.28-14.318-4.967-14.162-4.654-14.006-4.342-13.85-3.99-13.694-3.715-13.577-3.324-13.46-3.05-13.342-2.66-13.265-2.386-13.147-1.995-13.11-1.682-13.069-1.369-12.991-1.017-12.992-.664-12.952-.352h-12.953l-12.952.312-12.992.665-12.992.939-13.07 1.29-13.069 1.604-13.186 1.917-13.226 2.23-13.343 2.502-13.42 2.816-13.538 3.09-13.655 3.364-13.772 3.676-13.928 3.872-14.084 4.185-14.2 4.38-14.397 4.616-14.552 4.81-14.747 5.046-14.942 5.202-15.138 5.397-15.293 5.554-15.567 5.632-15.722 5.788-15.957 5.867-16.19 5.945-16.386 5.984-16.62 5.984-16.815 5.984-17.088 5.945-17.244 5.867-17.478 5.75-17.674 5.631-17.907 5.437-18.102 5.24-18.259 4.929-18.453 4.693-18.649 4.302-18.765 3.912-18.883 3.48-19.039 2.973-19.116 2.425-19.195 1.877-19.273 1.174-19.273.508-19.311-.235-19.273-1.095-19.195-1.916-19.156-2.816-19-3.794-18.843-4.81-18.649-5.867-18.414-6.962-18.142-8.096-17.829-9.27-17.478-10.482-17.049-11.694-16.58-12.907-16.113-14.197-15.567-15.41-14.981-16.7-14.357-17.914-13.655-19.086-12.914-20.3-12.172-21.432-11.353-22.49-10.534-23.466-9.636-24.484-8.74-25.305-7.763-26.087-6.827-26.753-5.813-27.339-4.799-27.847-3.784-28.16-2.731-28.356-1.678-28.512-.663-28.473.39-28.356 1.444-28.082 2.457-27.691 3.434-27.183 4.447-26.595 5.423-25.814 6.36-24.992 7.217-24.093 8.115-23.076 8.934-21.941 9.753-20.807 10.456-19.595 11.158-18.265 11.782-16.975 12.406-15.605 12.953-14.237 13.46-12.828 13.889-11.42 14.318-10.053 14.59-8.604 14.943-7.275 15.176-5.867 15.333-4.576 15.488-3.285 15.606-1.995 15.644-.782 15.645.391 15.644 1.526 15.528 2.581 15.45 3.637 15.254 4.615 15.098 5.554 14.864 6.415 14.63 7.235 14.318 8.018 14.045 8.761 13.694 9.426 13.343 10.012 12.952 10.639 12.563 11.147 12.133 11.655 11.704 12.085 11.275 12.516 10.768 12.868 10.339 13.18 9.831 13.454 9.285 13.729 8.817 13.962 8.31 14.159 7.764 14.315 7.257 14.432 6.71 14.55 6.203 14.588 5.618 14.666 5.11 14.667 4.566 14.706 4.018 14.667 3.511 14.628 2.926 14.55 2.419 14.47 1.912 14.354 1.365 14.237.859 14.08.312 13.924-.156 13.728-.664 13.571-1.17 13.298-1.678 13.103-2.106 12.828-2.614 12.516-3.043 12.281-3.473 11.929-3.94 11.655-4.33 11.264-4.76 10.912-5.15 10.56-5.54 10.13-5.891 9.7-6.242 9.309-6.555 8.8-6.905 8.37-7.179 7.86-7.49 7.354-7.725 6.805-7.959 6.297-8.193 5.71-8.388 5.085-8.544 4.498-8.739 3.91-8.817 3.247-8.973 2.581-9.012 1.878-9.09 1.212-9.13.509-9.129-.196-9.129-.938-9.051-1.721-8.973-2.425-8.895-3.207-8.74-3.99-8.582-4.732-8.427-5.515-8.154-6.297-7.96-7.08-7.646-7.86-7.373-8.605-7.023-9.348-6.71-10.09-6.281-10.795-5.852-11.538-5.462-12.203-4.994-12.868-4.487-13.493-4.018-14.08-3.472-14.667-2.887-15.214-2.38-15.684-1.756-16.153-1.17-16.583-.546-16.975.078-17.287.702-17.561 1.365-17.835 2.029-18.03 2.692-18.187 3.355-18.265 4.058-18.382 4.681-18.383 5.384-18.343 6.047-18.304 6.75-18.148 7.373-18.07 8.037-17.873 8.7-17.679 9.363-17.483 9.988-17.17 10.573-16.896 11.236-16.622 11.82-16.27 12.407-15.958 13.03-15.605 13.538-15.254 14.123-14.901 14.67-14.55 15.176-14.236 15.722-13.846 16.191-13.493 16.698-13.18 17.166-12.908 17.634-12.555 18.103-12.28 18.531-12.008 18.96-11.811 19.43-11.538 19.819-11.382 20.248-11.186 20.638-11.029 21.028-10.951 21.458-10.834 21.848-10.756 22.238-10.716 22.628-10.717 23.057-10.756 23.408-10.794 23.837-10.834 24.189-10.951 24.656-11.069 25.008-11.225 25.437-11.381 25.905-11.577 26.296-11.734 26.724-12.007 27.154-12.203 27.66-12.476 28.09-12.712 28.558-12.985 29.026-13.22 29.534-13.454 30.04-13.728 30.548-13.963 31.055-14.158 31.562-14.315 32.109-14.51 32.654-14.589 33.2-14.705 33.709-14.667 34.254-14.628 34.8-14.51 35.307-14.315 35.854-13.963 36.36-13.572 36.83-13.024 37.297-12.359 37.726-11.538 38.156-10.56 38.506-9.387 38.858-8.096 39.092-6.531 39.325-4.811 39.443-2.816 39.521-.626 39.482 1.76 39.404 4.459 39.17 7.392 38.818 10.52 38.39 13.885 37.843 17.522 37.102 21.355 36.244 25.344 35.23 29.49 34.097 33.754 32.733 38.173 31.289 42.592 29.65 46.973 27.817 51.353 25.866 55.617 23.76 59.606 21.496 63.477 19.078 67.037 16.58 70.166 13.968 72.943 11.197 75.25 8.427 77.011 5.579 78.301 2.73 79.006-.234 79.161-3.12 78.692-5.97 77.676-8.817 76.072-11.548 73.999-14.24 71.417-16.815 68.445-19.273 64.964-21.535 61.249-23.76 57.22-25.788 52.996-27.621 48.576-29.339 44.118-30.86 39.581-32.264 35.083-33.435 30.624-34.488 26.283-35.385 22.02-36.088 18.03-36.712 14.12-37.141 10.52-37.492 7.08-37.648 3.872-37.766.938-37.765-1.76-37.61-4.263-37.452-6.492-37.142-8.527-36.828-10.325-36.4-11.968-35.932-13.337-35.424-14.628-34.879-15.644-34.254-16.584-33.669-17.404-33.005-18.03-32.343-18.54-31.64-19.008-30.938-19.36-30.235-19.595-29.456-19.751-28.792-19.908-28.05-19.986-27.31-19.946-26.569-19.947-25.827-19.908-25.125-19.751-24.383-19.673-23.681-19.517-22.94-19.36-22.277-19.165-21.536-18.969-20.833-18.813-20.21-18.577-19.467-18.344-18.844-18.147-18.141-17.953-17.517-17.717-16.854-17.483-16.23-17.248-15.606-17.053-14.942-16.818-14.357-16.622-13.772-16.388-13.147-16.153-12.563-15.957-11.977-15.723-11.431-15.488-10.846-15.293-10.26-15.058-9.754-14.862-9.207-14.589-8.661-14.393-8.154-14.158-7.608-13.924-7.14-13.689-6.632-13.454-6.125-13.22-5.657-12.946-5.189-12.71-4.72-12.438-4.253-12.203-3.823-11.93-3.394-11.654-2.965-11.343-2.575-11.107-2.146-10.795-1.795-10.521-1.365-10.208-1.014-9.934-.664-9.583-.312-9.27.04-8.995.35-8.643.625-8.292.975-8.018 1.248-7.627 1.522-7.313 1.756-6.962 2.067-6.61 2.224-6.258 2.536-5.945 2.692-5.554 2.887-5.202 3.082-4.85 3.238-4.458 3.433-4.146 3.55-3.755 3.707-3.363 3.784-3.05 3.902-2.66 4.018-2.308 4.057-1.917 4.136-1.603 4.213-1.173 4.214-.86 4.252-.47 4.292-.118 4.252.235 4.253.587 4.213.978 4.175 1.33 4.135 1.642 4.058 2.034 3.98 2.386 3.861 2.698 3.785 3.09 3.667 3.403 3.511 3.755 3.394 4.106 3.239 4.42 3.043 4.771 2.887 5.124 2.653 5.437 2.497 5.788 2.223 6.101 2.029 6.415 1.795 6.727 1.56 7.079 1.249 7.353 1.014 7.705.663 7.979.43 8.33.077 8.605-.234 8.917-.546 9.192-.897 9.504-1.288 9.817-1.6 10.051-1.989 10.365-2.419 10.638-2.77 10.951-3.199 11.186-3.59 11.46-4.018 11.733-4.486 11.968-4.877 12.203-5.384 12.516-5.813 12.672-6.281 12.985-6.788 13.141-7.257 13.416-7.764 13.61-8.232 13.807-8.778 13.963-9.285 14.197-9.831 14.354-10.339 14.471-10.846 14.667-11.43 14.784-11.939 14.902-12.523 14.98-13.07 15.096-13.616 15.097-14.162 15.176-14.747 15.175-15.254 15.175-15.84 15.097-16.425 15.019-16.932 14.94-17.478 14.785-18.024 14.55-18.57 14.353-19.078 14.08-19.585 13.728-20.092 13.376-20.56 12.868-21.03 12.398-21.496 11.851-21.886 11.147-22.316 10.443-22.667 9.66-22.98 8.761-23.33 7.823-23.564 6.727-23.798 5.593-23.994 4.341-24.11 3.012-24.228 1.564-24.227.04-24.189-1.604-24.11-3.325-23.994-5.123-23.72-7.04-23.447-8.996-23.096-11.069-22.628-13.18-22.082-15.332-21.536-17.522-20.794-19.79-20.053-21.981-19.234-24.21-18.258-26.44-17.283-28.55-16.152-30.664-15.02-32.62-13.811-34.574-12.485-36.295-11.118-37.938-9.676-39.346-8.232-40.637-6.75-41.732-5.149-42.553-3.628-43.218-1.99-43.61-.39-43.766 1.21-43.687 2.77-43.414 4.408-42.866 5.969-42.084 7.452-41.106 8.973-39.894 10.416-38.564 11.783-37 13.108-35.317 14.396-33.48 15.567-31.523 16.698-29.45 17.712-27.379 18.726-25.188 19.585-22.997 20.366-20.768 21.145-18.578 21.73-16.349 22.316-14.237 22.785-12.085 23.213-10.052 23.564-8.057 23.76-6.18 23.993-4.34 24.15-2.621 24.149-.978 24.188.587 24.15 1.994 24.032 3.403 23.916 4.576 23.681 5.789 23.486 6.805 23.213 7.783 22.902 8.683 22.55 9.465 22.237 10.169 21.809 10.795 21.419 11.381 20.989 11.89 20.56 12.281 20.092 12.672 19.624 12.946 19.117 13.22 18.648 13.454 18.142 13.61 17.673 13.69 17.127 13.806 16.62 13.846 16.152 13.845 15.605 13.807 15.137 13.806 14.592 13.689 14.123 13.65 13.615 13.493 13.109 13.337 12.64 13.22 12.134 13.024 11.665 12.868 11.236 12.633 10.728 12.437 10.3 12.203 9.832 12.007 9.402 11.734 9.012 11.498 8.544 11.265 8.154 10.95 7.764 10.717 7.373 10.404 7.023 10.169 6.632 9.856 6.281 9.543 5.93 9.27 5.58 8.995 5.266 8.644 4.955 8.37 4.643 8.057 4.37 7.744 4.096 7.43 3.823 7.12 3.55 6.805 3.316 6.453 3.121 6.14 2.848 5.867 2.653 5.476 2.458 5.163 2.302 4.85 2.107 4.536 1.95 4.185 1.795 3.833 1.678 3.52 1.56 3.207 1.444 2.855 1.326 2.504 1.249 2.19 1.17 1.877 1.092 1.486 1.093 1.213 1.014.821.975.509 1.015.195.975-.156 1.015-.509 1.014-.821 1.053-1.173 1.093-1.487 1.21-1.838 1.248-2.15 1.326-2.504 2.965-5.945 1.639-3.48 1.794-3.834 1.95-4.146 2.069-4.458 2.262-4.772 2.458-5.124 2.653-5.397 2.848-5.75 3.043-6.062 3.316-6.414 3.512-6.688 3.784-7 4.057-7.315 4.292-7.627 4.604-7.978 4.915-8.214 5.228-8.565 5.54-8.84 5.852-9.151 6.203-9.465 6.555-9.74 6.905-10.05 7.296-10.326 7.646-10.6 8.115-10.911 8.466-11.186 8.895-11.46 9.286-11.733 9.753-12.008 10.222-12.28 10.65-12.516 11.12-12.79 11.586-13.063 12.056-13.298 12.601-13.532 13.07-13.768 13.576-14.002 14.084-14.197 14.63-14.432 15.138-14.589 15.722-14.784 16.23-14.94 16.776-15.098 17.361-15.253 17.907-15.332 18.493-15.41 19.039-15.488 19.585-15.527 20.209-15.527 20.755-15.45 21.301-15.41 21.887-15.292 22.433-15.097 22.98-14.901 23.524-14.628 24.072-14.315 24.579-13.845 25.085-13.415 25.554-12.868 26.023-12.203 26.45-11.46 26.881-10.638 27.232-9.7 27.544-8.682 27.894-7.51 28.13-6.218 28.323-4.811 28.48-3.325 28.558-1.642 28.597.117 28.558 2.034 28.442 4.067 28.284 6.258 27.973 8.566 27.622 10.912 27.193 13.454 26.607 16.036 26.022 18.734 25.281 21.433 24.423 24.25 23.486 27.025 22.433 29.803 21.301 32.58 20.053 35.279 18.688 37.899 17.283 40.402 15.723 42.749 14.162 44.939 12.445 46.934 10.69 48.654 8.895 50.18 6.983 51.393 5.111 52.33 3.16 52.958 1.249 53.309-.742 53.27-2.692 52.996-4.603 52.33-6.516 51.432-8.387 50.18-10.222 48.694-11.977 46.934-13.616 44.939-15.254 42.749-16.815 40.402-18.18 37.899-19.586 35.278-20.794 32.541-21.965 29.803-23.018 26.987-23.915 24.171-24.774 21.394-25.515 18.656-26.14 15.918-26.685 13.377-27.114 10.794-27.466 8.41-27.738 6.062-27.934 3.91-28.012 1.839-28.051-.078-28.05-1.878-27.896-3.559-27.778-5.084-27.543-6.493-27.27-7.822-26.998-8.957-26.608-10.012-26.256-10.951-25.827-11.812-25.398-12.555-24.89-13.18-24.423-13.768-23.877-14.275-23.369-14.667-22.823-14.98-22.277-15.292-21.691-15.528-21.146-15.644-20.56-15.801-19.936-15.88-19.39-15.918-18.805-15.918-18.219-15.84-17.634-15.84-17.05-15.723-16.502-15.567-15.918-15.488-15.332-15.292-14.786-15.136-14.24-14.98-13.694-14.745-13.148-14.55-12.64-14.275-12.094-14.08-11.587-13.846-11.08-13.572-10.612-13.337-10.105-13.024-9.636-12.79-9.168-12.515-8.7-12.203-8.271-11.968-7.842-11.616-7.413-11.381-7.022-11.03-6.632-10.794-6.204-10.443-5.852-10.13-5.462-9.856-5.11-9.504-4.76-9.23-4.448-8.918-4.135-8.565-3.823-8.292-3.512-7.94-3.199-7.626-2.965-7.314-2.692-7.001-2.458-6.65-2.184-6.335-1.99-5.984-1.756-5.71-1.56-5.32-1.366-5.045-1.17-4.654-1.054-4.38-.858-3.99-.702-3.716-.624-3.324-.469-3.012-.39-2.699-.273-2.346-.234-1.995-.117-1.682-.117-1.33-.039-1.016v-.978h.04v1.017l-.04 1.017-.117 1.369-.117 1.681-.234 1.995-.273 2.347-.39 2.698-.468 3.012-.625 3.324-.702 3.677-.897 3.99-1.015 4.34-1.21 4.655-1.365 4.967-1.521 5.28-1.795 5.632-1.95 5.945-2.185 6.258-2.419 6.57-2.692 6.884-2.926 7.197-3.2 7.51-3.471 7.821-3.785 8.136-4.096 8.448-4.37 8.722-4.72 9.034-5.072 9.309-5.423 9.66-5.735 9.896-6.164 10.208-6.515 10.52-6.906 10.756-7.295 11.069-7.725 11.303-8.115 11.616-8.583 11.851-9.012 12.125-9.442 12.398-9.948 12.633-10.378 12.868-10.846 13.102-11.353 13.337-11.82 13.532-12.368 13.768-12.836 13.963-13.381 14.158-13.89 14.315-14.434 14.51-14.943 14.628-15.488 14.745-16.035 14.862-16.58 14.94-17.127 15.02-17.713 15.018-18.22 15.058" transform="matrix(.10013 0 0 .09987 -21.5 271.499)"/><path style="stroke:none;fill-rule:nonzero;fill:#fff;fill-opacity:1" d="M388.426 250.41h320V8.16h-320zm0 0"/><g clip-path="url(#p)"><path style="fill:none;stroke-width:5.70714;stroke-linecap:round;stroke-linejoin:miter;stroke:#bfbfbf;stroke-opacity:1;stroke-miterlimit:10" d="M399.518-211.153V-2636.69" transform="matrix(.10013 0 0 .09987 348.424 271.499)"/></g><g clip-path="url(#q)"><path style="fill:none;stroke-width:5.70714;stroke-linecap:round;stroke-linejoin:miter;stroke:#bfbfbf;stroke-opacity:1;stroke-miterlimit:10" d="M399.518-1345.894h3195.966" transform="matrix(.10013 0 0 .09987 348.424 271.499)"/></g><g clip-path="url(#r)"><path style="fill:none;stroke-width:5.70714;stroke-linecap:round;stroke-linejoin:miter;stroke:#bfbfbf;stroke-opacity:1;stroke-dasharray:11.4143,17.1214;stroke-miterlimit:10" d="M399.518-211.153V-2636.69" transform="matrix(.10013 0 0 .09987 348.424 271.499)"/></g><g clip-path="url(#s)"><path style="fill:none;stroke-width:5.70714;stroke-linecap:round;stroke-linejoin:miter;stroke:#bfbfbf;stroke-opacity:1;stroke-dasharray:11.4143,17.1214;stroke-miterlimit:10" d="M932.173-211.153V-2636.69" transform="matrix(.10013 0 0 .09987 348.424 271.499)"/></g><g clip-path="url(#t)"><path style="fill:none;stroke-width:5.70714;stroke-linecap:round;stroke-linejoin:miter;stroke:#bfbfbf;stroke-opacity:1;stroke-dasharray:11.4143,17.1214;stroke-miterlimit:10" d="M1464.827-211.153V-2636.69" transform="matrix(.10013 0 0 .09987 348.424 271.499)"/></g><g clip-path="url(#u)"><path style="fill:none;stroke-width:5.70714;stroke-linecap:round;stroke-linejoin:miter;stroke:#bfbfbf;stroke-opacity:1;stroke-dasharray:11.4143,17.1214;stroke-miterlimit:10" d="M1997.482-211.153V-2636.69" transform="matrix(.10013 0 0 .09987 348.424 271.499)"/></g><g clip-path="url(#v)"><path style="fill:none;stroke-width:5.70714;stroke-linecap:round;stroke-linejoin:miter;stroke:#bfbfbf;stroke-opacity:1;stroke-dasharray:11.4143,17.1214;stroke-miterlimit:10" d="M2530.175-211.153V-2636.69" transform="matrix(.10013 0 0 .09987 348.424 271.499)"/></g><g clip-path="url(#w)"><path style="fill:none;stroke-width:5.70714;stroke-linecap:round;stroke-linejoin:miter;stroke:#bfbfbf;stroke-opacity:1;stroke-dasharray:11.4143,17.1214;stroke-miterlimit:10" d="M3062.83-211.153V-2636.69" transform="matrix(.10013 0 0 .09987 348.424 271.499)"/></g><g clip-path="url(#x)"><path style="fill:none;stroke-width:5.70714;stroke-linecap:round;stroke-linejoin:miter;stroke:#bfbfbf;stroke-opacity:1;stroke-dasharray:11.4143,17.1214;stroke-miterlimit:10" d="M3595.484-211.153V-2636.69" transform="matrix(.10013 0 0 .09987 348.424 271.499)"/></g><g clip-path="url(#y)"><path style="fill:none;stroke-width:5.70714;stroke-linecap:round;stroke-linejoin:miter;stroke:#bfbfbf;stroke-opacity:1;stroke-dasharray:11.4143,17.1214;stroke-miterlimit:10" d="M399.518-274.787h3195.966" transform="matrix(.10013 0 0 .09987 348.424 271.499)"/></g><g clip-path="url(#z)"><path style="fill:none;stroke-width:5.70714;stroke-linecap:round;stroke-linejoin:miter;stroke:#bfbfbf;stroke-opacity:1;stroke-dasharray:11.4143,17.1214;stroke-miterlimit:10" d="M399.518-631.836h3195.966" transform="matrix(.10013 0 0 .09987 348.424 271.499)"/></g><g clip-path="url(#A)"><path style="fill:none;stroke-width:5.70714;stroke-linecap:round;stroke-linejoin:miter;stroke:#bfbfbf;stroke-opacity:1;stroke-dasharray:11.4143,17.1214;stroke-miterlimit:10" d="M399.518-988.845h3195.966" transform="matrix(.10013 0 0 .09987 348.424 271.499)"/></g><g clip-path="url(#B)"><path style="fill:none;stroke-width:5.70714;stroke-linecap:round;stroke-linejoin:miter;stroke:#bfbfbf;stroke-opacity:1;stroke-dasharray:11.4143,17.1214;stroke-miterlimit:10" d="M399.518-1345.894h3195.966" transform="matrix(.10013 0 0 .09987 348.424 271.499)"/></g><g clip-path="url(#C)"><path style="fill:none;stroke-width:5.70714;stroke-linecap:round;stroke-linejoin:miter;stroke:#bfbfbf;stroke-opacity:1;stroke-dasharray:11.4143,17.1214;stroke-miterlimit:10" d="M399.518-1702.903h3195.966" transform="matrix(.10013 0 0 .09987 348.424 271.499)"/></g><g clip-path="url(#D)"><path style="fill:none;stroke-width:5.70714;stroke-linecap:round;stroke-linejoin:miter;stroke:#bfbfbf;stroke-opacity:1;stroke-dasharray:11.4143,17.1214;stroke-miterlimit:10" d="M399.518-2059.952h3195.966" transform="matrix(.10013 0 0 .09987 348.424 271.499)"/></g><g clip-path="url(#E)"><path style="fill:none;stroke-width:5.70714;stroke-linecap:round;stroke-linejoin:miter;stroke:#bfbfbf;stroke-opacity:1;stroke-dasharray:11.4143,17.1214;stroke-miterlimit:10" d="M399.518-2417h3195.966" transform="matrix(.10013 0 0 .09987 348.424 271.499)"/></g><path style="fill:none;stroke-width:11.4143;stroke-linecap:square;stroke-linejoin:miter;stroke:#000;stroke-opacity:1;stroke-miterlimit:10" d="M399.518-211.153h3195.966" transform="matrix(.10013 0 0 .09987 348.424 271.499)"/><path style="fill:none;stroke-width:5.70714;stroke-linecap:butt;stroke-linejoin:miter;stroke:#000;stroke-opacity:1;stroke-miterlimit:10" d="M399.518-211.153v-45.682m0 45.682v-22.84m53.254 22.84v-22.84m53.254 22.84v-22.84m53.293 22.84v-22.84m53.253 22.84v-22.84m53.254 22.84v-22.84m53.293 22.84v-22.84m53.254 22.84v-22.84m53.253 22.84v-22.84m106.547 22.84v-45.682m0 45.682v-22.84m53.254 22.84v-22.84m53.293 22.84v-22.84m53.253 22.84v-22.84m53.254 22.84v-22.84m53.253 22.84v-22.84m53.293 22.84v-22.84m53.254 22.84v-22.84m53.253 22.84v-22.84m106.547 22.84v-45.682m0 45.682v-22.84m53.254 22.84v-22.84m53.293 22.84v-22.84m53.254 22.84v-22.84m53.253 22.84v-22.84m53.293 22.84v-22.84m53.254 22.84v-22.84m53.254 22.84v-22.84m53.292 22.84v-22.84m106.508 22.84v-45.682m0 45.682v-22.84m53.293 22.84v-22.84m53.253 22.84v-22.84m53.254 22.84v-22.84m53.293 22.84v-22.84m53.254 22.84v-22.84m53.253 22.84v-22.84m53.293 22.84v-22.84m53.254 22.84v-22.84m106.546 22.84v-45.682m0 45.682v-22.84m53.255 22.84v-22.84m53.253 22.84v-22.84m53.293 22.84v-22.84m53.254 22.84v-22.84m53.253 22.84v-22.84m53.293 22.84v-22.84m53.254 22.84v-22.84m53.253 22.84v-22.84m106.547 22.84v-45.682m0 45.682v-22.84m53.254 22.84v-22.84m53.292 22.84v-22.84m53.254 22.84v-22.84m53.254 22.84v-22.84m53.293 22.84v-22.84m53.253 22.84v-22.84m53.254 22.84v-22.84m53.293 22.84v-22.84m106.507 22.84v-45.682m0 45.682v-22.84" transform="matrix(.10013 0 0 .09987 348.424 271.499)"/><g style="fill:#000;fill-opacity:1"><use xlink:href="#F" x="383.658" y="259.529"/><use xlink:href="#G" x="387.471" y="259.529"/><use xlink:href="#F" x="389.377" y="259.529"/></g><g style="fill:#000;fill-opacity:1"><use xlink:href="#H" x="436.802" y="259.529"/><use xlink:href="#G" x="440.614" y="259.529"/><use xlink:href="#I" x="442.52" y="259.529"/></g><g style="fill:#000;fill-opacity:1"><use xlink:href="#I" x="489.945" y="259.529"/><use xlink:href="#G" x="493.757" y="259.529"/><use xlink:href="#F" x="495.664" y="259.529"/></g><g style="fill:#000;fill-opacity:1"><use xlink:href="#J" x="543.659" y="259.529"/><use xlink:href="#G" x="547.471" y="259.529"/><use xlink:href="#I" x="549.378" y="259.529"/></g><g style="fill:#000;fill-opacity:1"><use xlink:href="#K" x="594.896" y="259.529"/><use xlink:href="#F" x="598.708" y="259.529"/><use xlink:href="#G" x="602.521" y="259.529"/><use xlink:href="#F" x="604.427" y="259.529"/></g><g style="fill:#000;fill-opacity:1"><use xlink:href="#K" x="648.039" y="259.529"/><use xlink:href="#H" x="651.852" y="259.529"/><use xlink:href="#G" x="655.664" y="259.529"/><use xlink:href="#I" x="657.57" y="259.529"/></g><g style="fill:#000;fill-opacity:1"><use xlink:href="#K" x="701.754" y="259.529"/><use xlink:href="#I" x="705.566" y="259.529"/><use xlink:href="#G" x="709.379" y="259.529"/><use xlink:href="#F" x="711.285" y="259.529"/></g><path style="fill:none;stroke-width:11.4143;stroke-linecap:square;stroke-linejoin:miter;stroke:#000;stroke-opacity:1;stroke-miterlimit:10" d="M399.518-2636.69h3195.966" transform="matrix(.10013 0 0 .09987 348.424 271.499)"/><path style="fill:none;stroke-width:5.70714;stroke-linecap:butt;stroke-linejoin:miter;stroke:#000;stroke-opacity:1;stroke-miterlimit:10" d="M399.518-2636.69v45.644m0-45.644v22.802m53.254-22.802v22.802m53.254-22.802v22.802m53.293-22.802v22.802m53.253-22.802v22.802m53.254-22.802v22.802m53.293-22.802v22.802m53.254-22.802v22.802m53.253-22.802v22.802m106.547-22.802v45.644m0-45.644v22.802m53.254-22.802v22.802m53.293-22.802v22.802m53.253-22.802v22.802m53.254-22.802v22.802m53.253-22.802v22.802m53.293-22.802v22.802m53.254-22.802v22.802m53.253-22.802v22.802m106.547-22.802v45.644m0-45.644v22.802m53.254-22.802v22.802m53.293-22.802v22.802m53.254-22.802v22.802m53.253-22.802v22.802m53.293-22.802v22.802m53.254-22.802v22.802m53.254-22.802v22.802m53.292-22.802v22.802m106.508-22.802v45.644m0-45.644v22.802m53.293-22.802v22.802m53.253-22.802v22.802m53.254-22.802v22.802m53.293-22.802v22.802m53.254-22.802v22.802m53.253-22.802v22.802m53.293-22.802v22.802m53.254-22.802v22.802m106.546-22.802v45.644m0-45.644v22.802m53.255-22.802v22.802m53.253-22.802v22.802m53.293-22.802v22.802m53.254-22.802v22.802m53.253-22.802v22.802m53.293-22.802v22.802m53.254-22.802v22.802m53.253-22.802v22.802m106.547-22.802v45.644m0-45.644v22.802m53.254-22.802v22.802m53.292-22.802v22.802m53.254-22.802v22.802m53.254-22.802v22.802m53.293-22.802v22.802m53.253-22.802v22.802m53.254-22.802v22.802m53.293-22.802v22.802m106.507-22.802v45.644m0-45.644v22.802" transform="matrix(.10013 0 0 .09987 348.424 271.499)"/><g style="fill:#000;fill-opacity:1"><use xlink:href="#F" x="383.658" y="5.879"/><use xlink:href="#G" x="387.471" y="5.879"/><use xlink:href="#F" x="389.377" y="5.879"/></g><g style="fill:#000;fill-opacity:1"><use xlink:href="#H" x="436.802" y="5.879"/><use xlink:href="#G" x="440.614" y="5.879"/><use xlink:href="#I" x="442.52" y="5.879"/></g><g style="fill:#000;fill-opacity:1"><use xlink:href="#I" x="489.945" y="5.879"/><use xlink:href="#G" x="493.757" y="5.879"/><use xlink:href="#F" x="495.664" y="5.879"/></g><g style="fill:#000;fill-opacity:1"><use xlink:href="#J" x="543.659" y="5.879"/><use xlink:href="#G" x="547.471" y="5.879"/><use xlink:href="#I" x="549.378" y="5.879"/></g><g style="fill:#000;fill-opacity:1"><use xlink:href="#K" x="594.896" y="5.879"/><use xlink:href="#F" x="598.708" y="5.879"/><use xlink:href="#G" x="602.521" y="5.879"/><use xlink:href="#F" x="604.427" y="5.879"/></g><g style="fill:#000;fill-opacity:1"><use xlink:href="#K" x="648.039" y="5.879"/><use xlink:href="#H" x="651.852" y="5.879"/><use xlink:href="#G" x="655.664" y="5.879"/><use xlink:href="#I" x="657.57" y="5.879"/></g><g style="fill:#000;fill-opacity:1"><use xlink:href="#K" x="701.754" y="5.879"/><use xlink:href="#I" x="705.566" y="5.879"/><use xlink:href="#G" x="709.379" y="5.879"/><use xlink:href="#F" x="711.285" y="5.879"/></g><path style="fill:none;stroke-width:11.4143;stroke-linecap:square;stroke-linejoin:miter;stroke:#000;stroke-opacity:1;stroke-miterlimit:10" d="M399.518-211.153V-2636.69" transform="matrix(.10013 0 0 .09987 348.424 271.499)"/><path style="fill:none;stroke-width:5.70714;stroke-linecap:butt;stroke-linejoin:miter;stroke:#000;stroke-opacity:1;stroke-miterlimit:10" d="M399.518-274.787h45.646m-45.646 0h22.823m-22.823-35.709h22.823m-22.823-35.709h22.823m-22.823-35.708h22.823m-22.823-35.709h22.823m-22.823-35.67h22.823M399.518-489h22.823m-22.823-35.71h22.823m-22.823-35.708h22.823m-22.823-71.418h45.646m-45.646 0h22.823m-22.823-35.669h22.823m-22.823-35.709h22.823m-22.823-35.709h22.823m-22.823-35.709h22.823m-22.823-35.708h22.823m-22.823-35.71h22.823m-22.823-35.708h22.823m-22.823-35.67h22.823m-22.823-71.417h45.646m-45.646 0h22.823m-22.823-35.709h22.823m-22.823-35.709h22.823m-22.823-35.709h22.823m-22.823-35.708h22.823m-22.823-35.71h22.823m-22.823-35.708h22.823m-22.823-35.669h22.823m-22.823-35.709h22.823m-22.823-71.418h45.646m-45.646 0h22.823m-22.823-35.709h22.823m-22.823-35.669h22.823m-22.823-35.709h22.823m-22.823-35.709h22.823m-22.823-35.709h22.823m-22.823-35.708h22.823m-22.823-35.709h22.823m-22.823-35.709h22.823m-22.823-71.378h45.646m-45.646 0h22.823m-22.823-35.709h22.823m-22.823-35.708h22.823m-22.823-35.71h22.823m-22.823-35.708h22.823m-22.823-35.709h22.823m-22.823-35.709h22.823m-22.823-35.709h22.823m-22.823-35.669h22.823m-22.823-71.418h45.646m-45.646 0h22.823m-22.823-35.708h22.823m-22.823-35.71h22.823m-22.823-35.708h22.823m-22.823-35.709h22.823m-22.823-35.67h22.823m-22.823-35.708h22.823m-22.823-35.709h22.823m-22.823-35.709h22.823M399.518-2417h45.646m-45.646 0h22.823m-22.823-35.71h22.823m-22.823-35.708h22.823m-22.823-35.67h22.823m-22.823-35.708h22.823m-22.823-35.709h22.823m-22.823-35.709h22.823" transform="matrix(.10013 0 0 .09987 348.424 271.499)"/><g style="fill:#000;fill-opacity:1" clip-path="url(#L)"><use xlink:href="#M" x="376.614" y="246.989"/><use xlink:href="#N" x="378.898" y="246.989"/></g><g style="fill:#000;fill-opacity:1" clip-path="url(#O)"><use xlink:href="#M" x="376.614" y="211.649"/><use xlink:href="#H" x="378.898" y="211.649"/></g><g style="fill:#000;fill-opacity:1" clip-path="url(#P)"><use xlink:href="#M" x="376.614" y="175.739"/><use xlink:href="#K" x="378.898" y="175.739"/></g><use xlink:href="#F" x="378.897" y="140.399" style="fill:#000;fill-opacity:1"/><use xlink:href="#K" x="378.897" y="104.489" style="fill:#000;fill-opacity:1"/><use xlink:href="#H" x="378.897" y="69.149" style="fill:#000;fill-opacity:1"/><use xlink:href="#N" x="378.897" y="33.239" style="fill:#000;fill-opacity:1"/><path style="fill:none;stroke-width:11.4143;stroke-linecap:square;stroke-linejoin:miter;stroke:#000;stroke-opacity:1;stroke-miterlimit:10" d="M3595.484-211.153V-2636.69" transform="matrix(.10013 0 0 .09987 348.424 271.499)"/><path style="fill:none;stroke-width:5.70714;stroke-linecap:butt;stroke-linejoin:miter;stroke:#000;stroke-opacity:1;stroke-miterlimit:10" d="M3595.484-274.787h-45.646m45.646 0h-22.823m22.823-35.709h-22.823m22.823-35.709h-22.823m22.823-35.708h-22.823m22.823-35.709h-22.823m22.823-35.67h-22.823M3595.484-489h-22.823m22.823-35.71h-22.823m22.823-35.708h-22.823m22.823-71.418h-45.646m45.646 0h-22.823m22.823-35.669h-22.823m22.823-35.709h-22.823m22.823-35.709h-22.823m22.823-35.709h-22.823m22.823-35.708h-22.823m22.823-35.71h-22.823m22.823-35.708h-22.823m22.823-35.67h-22.823m22.823-71.417h-45.646m45.646 0h-22.823m22.823-35.709h-22.823m22.823-35.709h-22.823m22.823-35.709h-22.823m22.823-35.708h-22.823m22.823-35.71h-22.823m22.823-35.708h-22.823m22.823-35.669h-22.823m22.823-35.709h-22.823m22.823-71.418h-45.646m45.646 0h-22.823m22.823-35.709h-22.823m22.823-35.669h-22.823m22.823-35.709h-22.823m22.823-35.709h-22.823m22.823-35.709h-22.823m22.823-35.708h-22.823m22.823-35.709h-22.823m22.823-35.709h-22.823m22.823-71.378h-45.646m45.646 0h-22.823m22.823-35.709h-22.823m22.823-35.708h-22.823m22.823-35.71h-22.823m22.823-35.708h-22.823m22.823-35.709h-22.823m22.823-35.709h-22.823m22.823-35.709h-22.823m22.823-35.669h-22.823m22.823-71.418h-45.646m45.646 0h-22.823m22.823-35.708h-22.823m22.823-35.71h-22.823m22.823-35.708h-22.823m22.823-35.709h-22.823m22.823-35.67h-22.823m22.823-35.708h-22.823m22.823-35.709h-22.823m22.823-35.709h-22.823m22.823-71.417h-45.646m45.646 0h-22.823m22.823-35.71h-22.823m22.823-35.708h-22.823m22.823-35.67h-22.823m22.823-35.708h-22.823m22.823-35.709h-22.823m22.823-35.709h-22.823" transform="matrix(.10013 0 0 .09987 348.424 271.499)"/><g style="fill:#000;fill-opacity:1"><use xlink:href="#M" x="714.138" y="246.989"/><use xlink:href="#N" x="716.421" y="246.989"/></g><g style="fill:#000;fill-opacity:1"><use xlink:href="#M" x="714.138" y="211.649"/><use xlink:href="#H" x="716.421" y="211.649"/></g><g style="fill:#000;fill-opacity:1"><use xlink:href="#M" x="714.138" y="175.739"/><use xlink:href="#K" x="716.421" y="175.739"/></g><use xlink:href="#F" x="714.138" y="140.399" style="fill:#000;fill-opacity:1"/><use xlink:href="#K" x="714.138" y="104.489" style="fill:#000;fill-opacity:1"/><use xlink:href="#H" x="714.138" y="69.149" style="fill:#000;fill-opacity:1"/><use xlink:href="#N" x="714.138" y="33.239" style="fill:#000;fill-opacity:1"/><g clip-path="url(#Q)"><path style="fill:none;stroke-width:11.4143;stroke-linecap:round;stroke-linejoin:round;stroke:red;stroke-opacity:1;stroke-miterlimit:10" d="m399.518-2059.952 3.16-15.527 3.2-15.45 3.199-15.37 3.199-15.214 3.199-15.02 3.2-14.783 3.198-14.51 3.2-14.12 3.199-13.767 3.199-13.298 3.199-12.79 3.199-12.241 3.199-11.656 3.16-10.99 3.2-10.247 3.198-9.543 3.2-8.722 3.199-7.9 3.199-7.002 3.199-6.14 3.199-5.163 3.2-4.185 3.198-3.207 3.2-2.19 3.199-1.134 3.16-.157 3.199.939 3.199 1.955 3.199 2.973 3.2 3.99 3.198 5.006 3.2 5.984 3.199 6.922 3.199 7.823 3.199 8.76 3.199 9.622 3.199 10.443 3.2 11.186 3.16 11.929 3.198 12.633 3.2 13.258 3.199 13.846 3.199 14.393 3.199 14.862 3.199 15.332 3.2 15.723 3.198 16.114 3.2 16.387 3.199 16.662 3.199 16.857 3.16 17.053 3.199 17.17 3.199 17.287 3.2 17.365 6.397 34.81 6.399 34.652 3.199 17.248 3.199 17.131 3.199 17.014 3.2 16.857 3.198 16.74 3.16 16.504 3.2 16.388 3.199 16.153 3.199 15.958 3.199 15.723 3.199 15.527 3.2 15.292 3.198 15.097 3.2 14.824 3.199 14.588 3.199 14.393 3.199 14.12 3.16 13.884 3.199 13.689 3.2 13.415 3.198 13.22 3.2 12.985 3.199 12.79 3.199 12.554 3.199 12.36 3.199 12.163 3.199 11.968 3.2 11.773 3.198 11.616 3.2 11.42 3.16 11.304 3.199 11.107 3.199 10.99 3.199 10.834 3.199 10.678 3.2 10.6 3.198 10.481 3.2 10.365 3.199 10.325 3.199 10.208 3.199 10.13 3.199 10.052 3.16 10.012 6.398 19.947 9.598 29.686 3.199 9.934 3.199 9.895 6.398 19.947 3.2 10.012 3.198 10.052 3.16 10.13 3.2 10.208 3.199 10.286 3.199 10.365 3.199 10.443 3.2 10.56 3.198 10.677 3.2 10.795 3.199 10.951 3.199 11.03 3.199 11.225 3.199 11.342 3.199 11.499 3.16 11.655 3.2 11.85 3.198 12.008 3.2 12.164 3.199 12.359 3.199 12.515 3.199 12.75 3.199 12.908 3.2 13.063 3.198 13.298 3.2 13.493 3.199 13.65 3.16 13.846 3.199 14.04 3.199 14.198 3.199 14.354 3.2 14.55 3.198 14.705 3.2 14.863 3.199 14.98 3.199 15.135 3.199 15.215 3.199 15.332 3.199 15.41 3.2 15.488 3.16 15.527 3.198 15.566 3.2 15.527 3.199 15.567 3.199 15.449 3.199 15.41 3.199 15.331 3.2 15.137 3.198 15.018 3.2 14.785 3.199 14.588 3.199 14.276 3.16 14.002 3.199 13.61 3.199 13.26 3.2 12.828 3.198 12.398 3.2 11.851 3.199 11.342 3.199 10.795 3.199 10.13 3.199 9.504 3.199 8.84 3.2 8.134 3.198 7.392 3.16 6.65 3.2 5.827 3.199 5.045 3.199 4.185 3.199 3.364 3.199 2.503 3.2 1.682 3.198.782 3.2-.078 3.199-.9 3.199-1.76 3.199-2.62 3.199-3.403 3.16-4.224 3.2-5.006 3.198-5.75 3.2-6.453 3.199-7.157 3.199-7.823 3.199-8.448 3.199-8.995 3.199-9.583 3.2-10.051 3.16-10.56 3.237-10.913 3.16-11.342 3.2-11.655 3.199-11.968 3.199-12.203 3.199-12.398 3.2-12.594 3.198-12.711 3.2-12.79 3.199-12.828 3.199-12.868 3.16-12.829 3.199-12.79 3.238-12.71 3.16-12.594 3.2-12.438 3.198-12.242 3.2-12.085 3.199-11.85 3.199-11.578 3.199-11.342 3.199-11.069 3.2-10.755 3.198-10.443 3.16-10.09 3.2-9.74 3.199-9.386 3.199-8.996 3.199-8.644 3.199-8.252 3.2-7.822 3.198-7.432 3.2-7 3.199-6.61 3.199-6.18 3.199-5.75 3.16-5.319 3.199-4.888 3.238-4.46 3.16-4.028 3.2-3.598 3.199-3.168 3.199-2.738 3.199-2.307 3.199-1.878 3.199-1.447 3.2-1.056 3.198-.626 3.2-.195 3.16.195 3.199.587 3.199.939 3.199 1.369 3.199 1.76 3.2 2.112 3.198 2.464 3.2 2.816 3.199 3.168 3.199 3.52 3.199 3.794 3.199 4.145 3.16 4.46 3.2 4.732 3.237 5.006 3.16 5.24 3.2 5.555 3.199 5.749 3.199 5.984 3.199 6.18 3.199 6.414 3.2 6.57 3.198 6.728 3.2 6.844 3.199 7.001 3.16 7.119 3.199 7.196 3.199 7.275 6.398 14.628 3.2 7.392 3.198 7.353 3.2 7.313 3.199 7.236 3.199 7.197 3.199 7.079 3.199 7 3.16 6.806 3.2 6.688 3.237 6.493 3.16 6.257 3.2 6.063 3.199 5.788 3.199 5.515 3.199 5.202 3.2 4.928 3.198 4.537 3.2 4.224 3.199 3.833 3.199 3.442 3.16 3.011 3.199 2.62 3.199 2.152 3.2 1.682 3.198 1.212 3.2.743 3.199.235 3.199-.235 3.199-.782 3.199-1.29 3.199-1.84 3.2-2.346 3.16-2.894 3.198-3.403 3.2-3.99 3.199-4.497 3.199-5.045 3.199-5.554 3.199-6.101 3.2-6.61 3.198-7.158 3.2-7.626 3.199-8.175 3.199-8.643 3.199-9.113 3.16-9.622 3.199-10.09 3.2-10.56 3.198-10.991 3.2-11.42 3.199-11.851 3.199-12.281 3.199-12.712 3.199-13.102 3.199-13.454 3.2-13.885 3.198-14.236 3.2-14.589 3.16-14.98 3.199-15.292 3.199-15.645 3.199-15.996 3.199-16.349 3.2-16.661 3.198-16.975 3.2-17.326 3.199-17.64 3.199-17.952 3.199-18.304 3.199-18.578 3.16-18.93 3.2-19.282 3.237-19.595 3.16-19.946 3.2-20.26 3.199-20.612 3.199-20.964 3.199-21.315 3.199-21.668 3.2-22.059 3.198-22.41 3.2-22.842 3.199-23.193 3.16-23.584 3.199-24.015 3.199-24.405 3.199-24.836 3.2-25.266 3.198-25.657 3.2-26.127 3.199-26.517 3.199-26.987 3.199-27.417 3.199-27.808 3.199-28.239 3.16-28.669 3.2-29.02 3.237-29.451 3.16-29.803 3.2-30.116 3.199-30.429 3.199-30.702 3.199-30.898 3.2-31.133 3.198-31.25 3.2-31.29 3.199-31.328 3.199-31.289 3.16-31.133 3.199-30.858 3.199-30.586 3.2-30.115 3.198-29.608 3.2-28.981 3.199-28.2 3.199-27.3 3.199-26.283 3.199-25.148 3.199-23.858 3.2-22.45 3.16-20.925 3.198-19.282 3.2-17.483 3.199-15.644 3.199-13.611 3.199-11.538 3.199-9.387 3.2-7.196 3.198-4.889 3.2-2.62 3.199-.274 3.199 2.034 3.199 4.302 3.16 6.61 3.199 8.8 3.2 10.95 3.198 12.986 3.2 14.98 3.199 16.857 3.199 18.617 3.199 20.22 3.199 21.785 3.199 23.115 3.2 24.367 3.198 25.5 3.16 26.479 3.2 27.3 3.199 28.043 3.199 28.63 3.199 29.137 3.199 29.53 3.2 29.763 3.198 29.96 6.399 60.075 3.199 29.92 3.199 29.842 3.199 29.568 3.16 29.334 3.2 29.02 3.198 28.67 3.2 28.238 3.199 27.808 3.199 27.378 3.199 26.87 3.199 26.36 3.199 25.854 3.2 25.305 3.198 24.757 3.2 24.171 3.16 23.663 3.199 23.036 3.199 22.528 3.199 21.903 3.199 21.355 3.2 20.768 3.198 20.22 3.2 19.674 3.199 19.086 3.199 18.539 3.199 18.03 3.199 17.444 3.199 16.896 3.16 16.388 3.2 15.88 3.198 15.33 3.2 14.824 3.199 14.315 3.199 13.845 3.199 13.337 3.199 12.829 3.2 12.359 3.198 11.89 3.2 11.42 3.199 10.952 3.16 10.52 3.199 10.052 3.199 9.583 3.199 9.19 3.2 8.723 3.198 8.291 3.2 7.9 3.199 7.471 3.199 7.04 3.199 6.688 3.199 6.258 3.199 5.867 3.2 5.475 3.16 5.124 3.198 4.732 3.2 4.381 3.199 4.028 3.199 3.677 3.199 3.324 3.199 3.012 3.2 2.66 3.198 2.346 3.2 2.034 3.199 1.76 3.199 1.447 3.16 1.134 3.199.86 3.199.627 3.2.352 3.198.078 3.2-.157 3.199-.352 3.199-.625 3.199-.822 3.199-.977 3.199-1.213 3.2-1.408 3.198-1.564 3.16-1.721 3.2-1.878 3.199-2.033 3.199-2.152 3.199-2.268 3.199-2.386 3.2-2.503 3.198-2.542 3.2-2.66 3.199-2.738 3.199-2.777 3.199-2.816 3.16-2.855 3.199-2.855 3.2-2.933 3.198-2.855 6.399-5.789 3.199-2.855 3.199-2.777 6.398-5.475 3.2-2.62 3.198-2.543 3.2-2.464 3.16-2.347 3.199-2.23 3.199-2.111 3.199-1.995 3.199-1.877 3.2-1.721 3.198-1.526 3.2-1.368 3.199-1.213 3.199-.978 3.199-.821 3.199-.626 3.16-.39 3.2-.157 3.198.039 3.2.313 3.199.547 3.199.822 3.199 1.095 3.199 1.33 3.199 1.642 3.2 1.917 3.198 2.229 3.2 2.542 3.199 2.855 3.16 3.168 3.199 3.481 3.199 3.833 3.199 4.146 3.2 4.498 3.198 4.889 3.2 5.24 3.199 5.594 3.199 5.945 3.199 6.336 3.199 6.727 3.199 7.118 3.16 7.47 3.2 7.9 3.198 8.253 3.2 8.683 3.199 9.113 3.199 9.465 3.199 9.895 3.199 10.248 3.2 10.716 3.198 11.069 3.2 11.498 3.199 11.851 3.199 12.281 3.16 12.633 3.199 13.063 3.199 13.377 3.2 13.767 3.198 14.119 3.2 14.471 3.199 14.784 3.199 15.097 3.199 15.41 3.199 15.684 3.199 15.918 3.2 16.193 3.16 16.387 3.198 16.544 3.2 16.74 3.199 16.818 6.398 33.949 3.199 17.013 3.2 16.975 3.198 16.935 3.2 16.818 3.199 16.661 3.199 16.466 3.199 16.192 3.16 15.919 3.199 15.527 3.2 15.136 3.198 14.667 3.2 14.158 3.199 13.572 3.199 12.946 3.199 12.242 3.199 11.538 3.199 10.755 3.2 9.896 3.198 9.034 3.16 8.135 3.2 7.158 3.199 6.18 3.199 5.123 3.199 4.107 3.199 3.05 3.2 1.956 3.198.86 3.2-.234 3.199-1.33 3.199-2.425 3.199-3.48 3.199-4.577 3.16-5.554 3.2-6.57 3.198-7.588 3.2-8.487 3.199-9.387 3.199-10.208 3.199-11.069 3.199-11.811 3.199-12.477 3.2-13.18 3.198-13.768 3.2-14.275 3.16-14.824 3.199-15.214 3.199-15.605 3.199-15.958 3.199-16.192 3.2-16.466 3.198-16.622 3.2-16.78 3.199-16.856 6.398-33.793 3.199-16.857 3.199-16.817 3.16-16.701 3.2-16.544 3.198-16.388 3.2-16.231 3.199-15.997 3.199-15.762 3.199-15.488 3.199-15.253 3.2-14.902 3.198-14.627 3.2-14.315 3.199-14.002 3.16-13.611 3.199-13.298 3.199-12.907 3.199-12.554 3.2-12.203 3.198-11.812 3.2-11.46 3.199-11.068 3.199-10.717 3.199-10.286 3.199-9.973 3.199-9.544 3.2-9.19 3.16-8.84 3.198-8.448 3.2-8.096 3.199-7.705 3.199-7.392 3.199-7.04 3.199-6.688 3.2-6.336 3.198-6.023 3.2-5.71 3.199-5.359 3.199-5.045 3.16-4.772 3.199-4.459 3.199-4.185 3.2-3.872 3.198-3.598 3.2-3.363 3.199-3.09 3.199-2.816 3.199-2.582 3.199-2.385 3.199-2.152 3.2-1.916 3.198-1.721 3.16-1.486 3.2-1.33 3.199-1.173 3.199-.939 3.199-.821 3.199-.665 3.2-.509 3.198-.39 3.2-.275 3.199-.156 3.199-.04 3.199.08 3.16.116 3.199.235 3.2.274 3.198.352 3.2.391 6.398.86 3.199.47 3.199.508 6.398.939 6.398.86 3.16.352 3.2.352 3.199.274 3.199.196 3.199.117h3.2l3.198-.04 3.2-.195 3.199-.273 3.199-.43 3.199-.548 3.199-.665 3.16-.86 3.2-1.017 3.198-1.174 3.2-1.369 3.199-1.564 3.199-1.76 3.199-1.917 3.199-2.19 3.199-2.386 3.2-2.66 3.198-2.854 3.2-3.13 3.199-3.363 3.16-3.676 3.199-3.912 3.199-4.184 3.199-4.498 3.2-4.811 3.198-5.084 3.2-5.398 3.199-5.75 3.199-6.062 3.199-6.375 3.199-6.727 3.199-7.118 3.16-7.431 3.2-7.823 3.198-8.174 3.2-8.604 3.199-8.918 3.199-9.387 3.199-9.738 3.199-10.17 3.2-10.56 3.198-11.029 3.2-11.42 3.199-11.851 3.199-12.32 3.16-12.75 3.199-13.22 3.199-13.69 3.2-14.119 3.198-14.627 3.2-15.058 3.199-15.606 3.199-16.035 3.199-16.584 3.199-17.052 3.199-17.522 3.2-18.03 3.16-18.579 3.198-19.008 3.2-19.555 3.199-20.025 3.199-20.534 3.199-21.003 3.199-21.511 3.2-21.98 3.198-22.412 3.2-22.88 3.199-23.271 3.199-23.702 3.199-24.092 3.16-24.445 3.199-24.758 3.2-25.07 3.198-25.344 3.2-25.501 3.199-25.735 3.199-25.814 3.199-25.853 3.199-25.891 3.199-25.814 3.2-25.657 3.198-25.462 3.16-25.11 3.2-24.757 3.199-24.288 3.199-23.74 3.199-23.037 3.199-22.294 3.2-21.394 3.198-20.455 3.2-19.4 3.199-18.225 3.199-16.936 3.199-15.605 3.199-14.12 3.16-12.632 3.2-10.99 3.198-9.348 3.2-7.588 3.199-5.828 3.199-3.989 3.199-2.151 3.199-.274 3.199 1.565 3.2 3.402 3.198 5.241 3.2 7.04 3.16 8.761 3.199 10.482 3.199 12.086 3.199 13.65 3.199 15.136 3.2 16.466 3.198 17.795 3.2 18.97 3.199 20.064 3.199 21.042 3.199 21.941 3.199 22.763 3.199 23.428 3.16 24.014 3.2 24.523 3.198 24.953 3.2 25.227 3.199 25.54 3.199 25.657 3.199 25.774 3.199 25.814 3.2 25.735 3.198 25.697 3.2 25.54 3.199 25.344 3.16 25.11 3.199 24.874 3.199 24.523 3.199 24.249 3.2 23.858 3.198 23.467 3.2 23.076 3.199 22.684 3.199 22.255 3.199 21.824 3.199 21.355 3.199 20.924 3.2 20.456 3.16 19.986 3.198 19.555 3.2 19.087 3.199 18.617 3.199 18.187 3.199 17.717 3.199 17.287 3.2 16.858 3.198 16.387 3.2 15.997 3.199 15.527 3.199 15.136 3.16 14.745 3.199 14.315 3.199 13.924 3.2 13.571 3.198 13.181 3.2 12.79 3.199 12.437 3.199 12.085 3.199 11.773 3.199 11.42 3.199 11.069 3.2 10.756 3.198 10.481 3.16 10.17 3.2 9.856 3.199 9.582 3.199 9.308 3.199 9.035 3.199 8.761 3.2 8.526 3.198 8.292 3.2 8.018 3.199 7.822 3.199 7.588 3.199 7.392 3.199 7.196 3.16 6.962 3.2 6.806 3.198 6.61 3.2 6.453 3.199 6.297 3.199 6.101 3.199 5.984 3.199 5.828 3.199 5.671 3.2 5.593 3.198 5.436 3.2 5.359 3.16 5.24 3.199 5.124 3.199 5.046 3.199 5.006 3.199 4.889 3.2 4.81 3.198 4.772 3.2 4.733 6.398 9.308 3.199 4.615 3.199 4.576 3.199 4.537 3.16 4.576 3.2 4.537 9.597 13.728 6.398 9.23 6.398 9.387 3.2 4.772 3.198 4.81 3.2 4.89 3.16 4.928 3.199 5.006 3.199 5.084 3.199 5.163 3.2 5.241 3.198 5.32 3.2 5.397 3.199 5.514 3.199 5.632 3.199 5.672 3.199 5.827 3.199 5.906 3.2 6.062 3.16 6.102 3.198 6.258 3.2 6.375 3.199 6.453 3.199 6.57 3.199 6.689 3.199 6.805 3.2 6.923 3.198 7.04 3.2 7.118 3.199 7.236 3.199 7.353 3.16 7.431 3.199 7.51 3.199 7.587 3.2 7.705 3.198 7.744 6.399 15.723 6.398 15.957 3.199 8.018 6.398 16.114 3.2 8.096 3.16 8.057" transform="matrix(.10013 0 0 .09987 348.424 271.499)"/></g><g clip-path="url(#R)"><path style="fill:none;stroke-width:11.4143;stroke-linecap:round;stroke-linejoin:round;stroke:#00f;stroke-opacity:1;stroke-miterlimit:10" d="m399.518-2059.952 3.16-16.075 3.2-15.996 3.199-15.88 3.199-15.722 3.199-15.567 3.2-15.292 3.198-14.98 3.2-14.628 3.199-14.197 3.199-13.767 3.199-13.22 3.199-12.672 3.199-12.007 3.16-11.343 3.2-10.599 3.198-9.817 3.2-8.996 3.199-8.135 3.199-7.196 3.199-6.258 3.199-5.28 3.2-4.224 3.198-3.246 3.2-2.19 3.199-1.096 3.16-.039 3.199 1.056 3.199 2.151 3.199 3.168 3.2 4.263 3.198 5.28 3.2 6.297 3.199 7.275 3.199 8.253 3.199 9.19 3.199 10.013 3.199 10.913 3.2 11.694 3.16 12.398 3.198 13.142 3.2 13.806 3.199 14.393 3.199 14.901 3.199 15.45 3.199 15.879 3.2 16.31 3.198 16.622 3.2 16.935 3.199 17.209 3.199 17.405 3.16 17.6 3.199 17.717 3.199 17.796 12.797 71.496 3.199 17.756 3.199 17.679 3.199 17.6 3.199 17.444 3.2 17.287 3.198 17.092 3.16 16.935 3.2 16.74 3.199 16.544 3.199 16.348 3.199 16.075 3.199 15.88 3.2 15.605 3.198 15.41 3.2 15.175 3.199 14.901 3.199 14.667 3.199 14.432 3.16 14.198 3.199 13.923 3.2 13.729 3.198 13.493 3.2 13.259 3.199 13.024 3.199 12.829 3.199 12.633 3.199 12.398 3.199 12.203 3.2 12.046 3.198 11.85 3.2 11.695 3.16 11.499 3.199 11.342 3.199 11.225 3.199 11.069 3.199 10.95 3.2 10.835 3.198 10.677 3.2 10.639 3.199 10.52 3.199 10.443 3.199 10.365 3.199 10.286 3.16 10.247 3.2 10.208 6.397 20.338 12.797 40.52 3.199 10.208 3.2 10.169 3.198 10.247 3.2 10.286 3.16 10.365 3.199 10.443 3.199 10.482 3.199 10.599 3.199 10.677 3.2 10.756 3.198 10.912 3.2 10.99 3.199 11.108 3.199 11.264 3.199 11.382 3.199 11.537 3.199 11.656 3.16 11.85 3.2 11.969 3.198 12.163 3.2 12.32 3.199 12.477 3.199 12.633 3.199 12.828 3.199 12.985 3.2 13.181 3.198 13.337 3.2 13.494 3.199 13.65 3.16 13.845 3.199 14.002 3.199 14.158 3.199 14.276 3.2 14.432 3.198 14.55 3.2 14.666 3.199 14.784 3.199 14.902 3.199 14.94 3.199 15.02 3.199 15.057 3.2 15.097 3.16 15.097 3.198 15.058 3.2 15.019 3.199 14.94 3.199 14.863 3.199 14.745 3.199 14.588 3.2 14.433 3.198 14.158 3.2 13.963 3.199 13.65 3.199 13.337 3.16 12.985 3.199 12.594 3.199 12.163 3.2 11.695 3.198 11.224 3.2 10.678 3.199 10.13 3.199 9.504 3.199 8.878 3.199 8.253 3.199 7.51 3.2 6.844 3.198 6.062 3.16 5.358 3.2 4.537 3.199 3.755 3.199 2.933 3.199 2.151 3.199 1.33 3.2.509 3.198-.313 3.2-1.135 3.199-1.916 3.199-2.699 3.199-3.48 3.199-4.225 3.16-4.967 3.2-5.671 3.198-6.336 3.2-7.001 3.199-7.588 3.199-8.174 3.199-8.722 3.199-9.23 3.199-9.7 3.2-10.13 3.16-10.52 3.237-10.874 3.16-11.185 3.2-11.421 3.199-11.655 3.199-11.89 3.199-12.007 3.2-12.125 3.198-12.164 6.399-24.483 3.199-12.203 3.16-12.164 3.199-12.046 3.238-11.968 3.16-11.812 3.2-11.616 3.198-11.42 3.2-11.226 3.199-10.95 3.199-10.717 3.199-10.443 3.199-10.13 3.2-9.817 3.198-9.504 3.16-9.152 3.2-8.8 3.199-8.448 3.199-8.057 3.199-7.666 3.199-7.314 3.2-6.884 3.198-6.492 3.2-6.062 3.199-5.671 3.199-5.28 3.199-4.811 3.16-4.42 3.199-3.99 3.238-3.558 3.16-3.168 3.2-2.738 3.199-2.308 3.199-1.877 3.199-1.486 3.199-1.056 3.199-.665 3.2-.274 3.198.156 3.2.509 3.16.939 3.199 1.29 3.199 1.643 3.199 2.034 3.199 2.386 3.2 2.737 3.198 3.051 3.2 3.403 3.199 3.715 3.199 4.029 3.199 4.341 3.199 4.615 3.16 4.85 3.2 5.163 3.237 5.358 3.16 5.632 3.2 5.867 3.199 6.023 3.199 6.219 3.199 6.414 3.199 6.57 3.2 6.689 3.198 6.805 3.2 6.923 3.199 7 3.16 7.08 3.199 7.08 3.199 7.157 9.597 21.355 3.2 7 3.199 6.962 3.199 6.845 3.199 6.688 3.199 6.57 3.199 6.415 3.16 6.219 3.2 5.984 3.237 5.75 3.16 5.514 3.2 5.202 3.199 4.928 3.199 4.615 3.199 4.224 3.2 3.911 3.198 3.52 3.2 3.129 3.199 2.699 3.199 2.307 3.16 1.838 3.199 1.37 3.199.938 3.2.43 3.198-.078 3.2-.548 3.199-1.095 3.199-1.564 3.199-2.112 3.199-2.62 3.199-3.169 3.2-3.676 3.16-4.185 3.198-4.733 3.2-5.28 3.199-5.788 3.199-6.258 3.199-6.805 3.199-7.314 3.2-7.822 3.198-8.292 3.2-8.761 3.199-9.27 3.199-9.7 3.199-10.168 3.16-10.6 3.199-11.029 3.2-11.46 3.198-11.89 3.2-12.28 3.199-12.672 3.199-13.025 3.199-13.454 3.199-13.806 3.199-14.12 3.2-14.51 3.198-14.823 3.2-15.175 3.16-15.528 3.199-15.8 3.199-16.154 3.199-16.466 3.199-16.778 3.2-17.092 3.198-17.366 3.2-17.717 3.199-17.991 3.199-18.344 3.199-18.617 3.199-18.93 3.16-19.282 3.2-19.555 3.237-19.908 3.16-20.22 3.2-20.573 3.199-20.886 3.199-21.276 3.199-21.59 3.199-21.98 3.2-22.333 3.198-22.724 3.2-23.076 3.199-23.467 3.16-23.897 3.199-24.288 3.199-24.68 3.199-25.148 3.2-25.5 3.198-25.932 3.2-26.4 3.199-26.791 3.199-27.183 3.199-27.651 3.199-28.004 3.199-28.434 3.16-28.786 3.2-29.178 3.237-29.529 3.16-29.842 3.2-30.116 3.199-30.35 3.199-30.585 3.199-30.742 3.2-30.859 6.397-61.796 3.2-30.78 3.199-30.625 3.16-30.39 3.199-29.998 3.199-29.568 3.2-29.021 3.198-28.356 3.2-27.573 3.199-26.635 3.199-25.618 3.199-24.445 3.199-23.193 3.199-21.746 3.2-20.22 3.16-18.579 3.198-16.818 3.2-14.94 3.199-12.946 3.199-10.912 3.199-8.761 3.199-6.61 3.2-4.38 3.198-2.073 3.2.156 3.199 2.425 3.199 4.693 3.199 6.884 3.16 9.035 3.199 11.147 3.2 13.141 3.198 15.058 3.2 16.857 3.199 18.578 3.199 20.142 3.199 21.59 3.199 22.958 3.199 24.132 3.2 25.227 3.198 26.126 3.16 26.987 3.2 27.652 3.199 28.239 3.199 28.707 3.199 29.06 3.199 29.295 3.2 29.45 6.397 59.059 3.2 29.412 3.199 29.294 3.199 29.06 3.199 28.786 3.16 28.473 3.2 28.082 3.198 27.691 3.2 27.3 3.199 26.791 3.199 26.322 3.199 25.814 3.199 25.266 3.199 24.758 3.2 24.17 3.198 23.663 3.2 23.037 3.16 22.528 3.199 21.902 3.199 21.355 3.199 20.807 3.199 20.182 3.2 19.634 3.198 19.086 3.2 18.5 3.199 17.952 3.199 17.405 3.199 16.857 3.199 16.31 3.199 15.761 3.16 15.254 3.2 14.706 3.198 14.236 3.2 13.69 3.199 13.18 3.199 12.672 3.199 12.203 3.199 11.694 3.2 11.225 3.198 10.756 3.2 10.286 3.199 9.817 3.16 9.387 3.199 8.917 3.199 8.487 3.199 8.057 3.2 7.627 3.198 7.157 3.2 6.806 3.199 6.375 3.199 5.945 3.199 5.554 3.199 5.201 3.199 4.811 3.2 4.42 3.16 4.028 3.198 3.716 3.2 3.324 3.199 3.012 3.199 2.62 3.199 2.347 3.199 1.995 3.2 1.682 3.198 1.368 3.2 1.096 3.199.782 3.199.508 3.16.274 3.199-.04 3.199-.273 3.2-.508 3.198-.743 3.2-.978 3.199-1.174 3.199-1.408 3.199-1.564 3.199-1.8 3.199-1.955 3.2-2.112 3.198-2.23 3.16-2.424 3.2-2.542 3.199-2.66 3.199-2.777 3.199-2.894 3.199-2.973 6.398-6.18 3.2-3.206 3.199-3.247 6.398-6.57 3.16-3.325 3.199-3.363 6.398-6.65 6.399-6.57 3.199-3.207 3.199-3.168 3.199-3.13 3.199-3.01 3.2-2.973 3.198-2.855 3.2-2.777 3.16-2.62 3.199-2.504 3.199-2.425 3.199-2.229 3.199-2.112 3.2-1.917 3.198-1.76 3.2-1.603 3.199-1.408 3.199-1.173 3.199-1.017 3.199-.743 3.16-.548 3.2-.313 3.198-.078 3.2.156 3.199.43 3.199.705 3.199 1.016 3.199 1.252 3.199 1.564 3.2 1.878 3.198 2.15 3.2 2.504 3.199 2.816 3.16 3.168 3.199 3.481 3.199 3.833 3.199 4.185 3.2 4.576 3.198 4.928 3.2 5.28 3.199 5.671 3.199 6.062 3.199 6.454 3.199 6.883 3.199 7.236 3.16 7.666 3.2 8.096 3.198 8.526 3.2 8.918 3.199 9.347 3.199 9.778 3.199 10.208 3.199 10.639 3.2 11.107 3.198 11.5 3.2 11.967 3.199 12.36 3.199 12.828 3.16 13.259 3.199 13.689 3.199 14.08 3.2 14.51 3.198 14.94 3.2 15.293 3.199 15.723 3.199 16.075 3.199 16.466 3.199 16.779 3.199 17.13 3.2 17.444 3.16 17.718 3.198 17.991 3.2 18.226 3.199 18.422 3.199 18.617 3.199 18.773 3.199 18.852 3.2 18.93 3.198 18.969 3.2 18.93 3.199 18.852 3.199 18.734 3.199 18.539 3.16 18.343 3.199 18.03 3.2 17.718 3.198 17.287 3.2 16.818 3.199 16.27 3.199 15.684 3.199 15.019 3.199 14.315 3.199 13.493 3.2 12.672 3.198 11.734 3.16 10.755 3.2 9.778 3.199 8.683 3.199 7.588 3.199 6.453 3.199 5.241 3.2 4.068 3.198 2.816 3.2 1.564 3.199.313 3.199-.939 3.199-2.19 3.199-3.442 3.16-4.654 3.2-5.828 3.198-7.04 3.2-8.135 3.199-9.23 3.199-10.247 3.199-11.225 3.199-12.203 3.199-13.024 3.2-13.885 3.198-14.628 3.2-15.331 3.16-15.919 3.199-16.505 3.199-17.013 3.199-17.444 3.199-17.835 3.2-18.147 3.198-18.422 3.2-18.617 3.199-18.734 3.199-18.852 6.398-37.86 3.199-18.852 3.16-18.812 3.2-18.696 3.198-18.538 3.2-18.344 3.199-18.147 3.199-17.913 3.199-17.64 3.199-17.365 3.2-17.053 3.198-16.779 3.2-16.387 3.199-16.075 3.16-15.723 3.199-15.332 3.199-14.98 3.199-14.549 3.2-14.197 3.198-13.807 3.2-13.415 3.199-13.024 3.199-12.594 3.199-12.203 3.199-11.85 3.199-11.421 3.2-11.03 3.16-10.638 3.198-10.247 3.2-9.895 3.199-9.504 3.199-9.113 3.199-8.761 3.199-8.41 3.2-8.056 3.198-7.666 3.2-7.392 3.199-7.001 3.199-6.727 3.16-6.375 3.199-6.063 3.199-5.788 3.2-5.437 3.198-5.201 3.2-4.89 3.199-4.654 3.199-4.38 3.199-4.107 3.199-3.872 3.199-3.637 3.2-3.442 3.198-3.168 3.16-3.012 3.2-2.777 3.199-2.58 3.199-2.426 3.199-2.23 3.199-2.111 3.2-1.917 3.198-1.799 3.2-1.642 3.199-1.526 3.199-1.408 3.199-1.29 3.16-1.213 3.199-1.134 3.2-1.056 6.397-1.878 6.399-1.72 9.597-2.347 3.2-.743 3.198-.822 3.2-.782 3.16-.821 3.199-.86 3.199-.94 3.199-.977 3.199-1.017 3.2-1.134 3.198-1.174 3.2-1.29 3.199-1.408 3.199-1.526 3.199-1.642 3.199-1.76 3.16-1.917 3.2-2.073 3.198-2.229 3.2-2.386 3.199-2.581 3.199-2.738 3.199-2.972 3.199-3.168 3.199-3.364 3.2-3.598 3.198-3.872 3.2-4.068 3.199-4.302 3.16-4.576 3.199-4.85 3.199-5.163 3.199-5.397 3.2-5.71 3.198-5.984 3.2-6.297 3.199-6.65 3.199-6.961 3.199-7.275 3.199-7.627 3.199-7.978 3.16-8.331 3.2-8.683 3.198-9.074 3.2-9.426 3.199-9.856 3.199-10.208 3.199-10.599 3.199-11.03 3.2-11.46 3.198-11.85 3.2-12.28 3.199-12.673 3.199-13.141 3.16-13.572 3.199-14.002 3.199-14.432 3.2-14.902 3.198-15.331 3.2-15.801 3.199-16.232 3.199-16.661 3.199-17.092 3.199-17.56 3.199-17.953 3.2-18.422 3.16-18.812 3.198-19.204 3.2-19.634 3.199-19.986 3.199-20.338 3.199-20.69 3.199-21.003 3.2-21.315 3.198-21.55 3.2-21.786 3.199-22.02 3.199-22.137 3.199-22.254 3.16-22.372 6.398-44.665 3.2-22.255 3.198-22.098 3.2-21.902 3.199-21.59 3.199-21.237 3.199-20.846 3.199-20.338 3.2-19.752 3.198-19.086 3.16-18.383 3.2-17.521 3.199-16.662 3.199-15.684 3.199-14.627 3.199-13.533 3.2-12.28 3.198-11.07 3.2-9.738 3.199-8.37 3.199-6.923 3.199-5.475 3.199-4.029 3.16-2.464 3.2-.978 3.198.587 3.2 2.112 3.199 3.598 3.199 5.124 3.199 6.531 3.199 7.98 3.199 9.347 3.2 10.677 3.198 11.93 3.2 13.14 3.16 14.237 3.199 15.293 3.199 16.27 3.199 17.17 3.199 17.991 3.2 18.735 3.198 19.36 3.2 19.947 3.199 20.455 3.199 20.847 3.199 21.198 3.199 21.511 3.199 21.668 3.16 21.863 3.2 21.903 3.198 21.941 3.2 21.903 3.199 21.824 3.199 21.707 3.199 21.55 3.199 21.355 3.2 21.081 3.198 20.847 3.2 20.494 3.199 20.22 3.16 19.83 3.199 19.478 3.199 19.086 3.199 18.695 3.2 18.265 3.198 17.835 3.2 17.444 3.199 16.935 3.199 16.544 3.199 16.075 3.199 15.606 3.199 15.136 3.2 14.745 3.16 14.236 3.198 13.768 3.2 13.376 3.199 12.867 3.199 12.438 3.199 12.007 3.199 11.577 3.2 11.108 3.198 10.716 3.2 10.287 3.199 9.856 3.199 9.504 3.16 9.035 3.199 8.682 3.199 8.292 3.2 7.9 3.198 7.51 3.2 7.196 3.199 6.806 3.199 6.453 3.199 6.14 3.199 5.828 3.199 5.476 3.2 5.163 3.198 4.85 3.16 4.575 3.2 4.264 3.199 4.028 3.199 3.716 3.199 3.48 3.199 3.208 3.2 3.011 3.198 2.738 3.2 2.503 3.199 2.308 3.199 2.112 3.199 1.916 3.199 1.721 3.16 1.526 3.2 1.368 3.198 1.252 3.2 1.056 3.199.939 3.199.782 3.199.704 3.199.547 3.199.47 3.2.39 3.198.314 3.2.195 3.16.196 6.398.156 3.199.04h9.597l3.2-.04 3.199.04h3.199l3.199.078 3.199.117 3.199.156 3.16.235 3.2.313 3.198.352 3.2.47 3.199.586 3.199.704 3.199.782 3.199.939 3.2 1.056 3.198 1.212 3.2 1.37 3.199 1.564 3.16 1.72 3.199 1.878 3.199 2.112 3.199 2.269 3.2 2.503 3.198 2.737 3.2 2.934 3.199 3.207 3.199 3.442 3.199 3.676 3.199 3.95 3.199 4.264 3.2 4.497 3.16 4.811 3.198 5.046 3.2 5.436 3.199 5.71 3.199 6.024 3.199 6.375 3.199 6.688 3.2 7.04 3.198 7.392 3.2 7.744 3.199 8.135 3.199 8.487 3.16 8.879 3.199 9.269 3.199 9.66 3.2 10.052 3.198 10.443 3.2 10.873 3.199 11.264 3.199 11.694 3.199 12.125 3.199 12.516 3.199 12.985 3.2 13.415 3.198 13.806 3.16 14.237" transform="matrix(.10013 0 0 .09987 348.424 271.499)"/></g></svg>