<svg xmlns="http://www.w3.org/2000/svg" xmlns:xlink="http://www.w3.org/1999/xlink" width="344pt" height="260pt" viewBox="0 0 344 260"><defs><clipPath id="a"><path d="M171 7.66h2v242.25h-2zm0 0"/></clipPath><clipPath id="b"><path d="M12 128h320v2H12zm0 0"/></clipPath><clipPath id="c"><path d="M12 7.66h1v242.25h-1zm0 0"/></clipPath><clipPath id="d"><path d="M91 7.66h2v242.25h-2zm0 0"/></clipPath><clipPath id="e"><path d="M171 7.66h2v242.25h-2zm0 0"/></clipPath><clipPath id="f"><path d="M251 7.66h2v242.25h-2zm0 0"/></clipPath><clipPath id="g"><path d="M331 7.66h1v242.25h-1zm0 0"/></clipPath><clipPath id="h"><path d="M12 249h320v.91H12zm0 0"/></clipPath><clipPath id="i"><path d="M12 189h320v1H12zm0 0"/></clipPath><clipPath id="j"><path d="M12 128h320v2H12zm0 0"/></clipPath><clipPath id="k"><path d="M12 67h320v2H12zm0 0"/></clipPath><clipPath id="l"><path d="M12 7.66h320V8H12zm0 0"/></clipPath><clipPath id="q"><path d="M96 7.66h236V87H96zm0 0"/></clipPath><clipPath id="r"><path d="M211 79h121v111H211zm0 0"/></clipPath><clipPath id="s"><path d="M251 176h81v20h-81zm0 0"/></clipPath><clipPath id="t"><path d="M251 188h42v61.91h-42zm0 0"/></clipPath><clipPath id="u"><path d="M211 188h44v61.91h-44zm0 0"/></clipPath><clipPath id="v"><path d="M12 46h104v203.91H12zm0 0"/></clipPath><clipPath id="w"><path d="M171 186h82v63.91h-82zm0 0"/></clipPath><clipPath id="x"><path d="M131 175h122v74.91H131zm0 0"/></clipPath><clipPath id="y"><path d="M107 158h146v91.91H107zm0 0"/></clipPath><clipPath id="z"><path d="M99 140h154v109.91H99zm0 0"/></clipPath><clipPath id="A"><path d="M187 73h145v117H187zm0 0"/></clipPath><clipPath id="B"><path d="M12 7.66h160V129H12zm0 0"/></clipPath><symbol overflow="visible" id="m"><path style="stroke:none" d="M1.953-2.14H.313v.5h1.64zm0 0"/></symbol><symbol overflow="visible" id="n"><path style="stroke:none" d="M3.469-.594H.906c.063-.406.281-.656.89-1l.673-.375c.687-.36 1.031-.86 1.031-1.453 0-.406-.156-.781-.453-1.047-.281-.265-.64-.39-1.094-.39-.625 0-1.078.218-1.344.64-.171.25-.25.563-.265 1.047h.61c.015-.328.062-.531.14-.687a.94.94 0 0 1 .828-.47c.547 0 .969.391.969.907 0 .39-.235.719-.657.969l-.64.36C.578-1.532.28-1.064.234 0H3.47zm0 0"/></symbol><symbol overflow="visible" id="o"><path style="stroke:none" d="M1.781-3.453V0h.594v-4.86h-.39c-.22.75-.36.86-1.282.97v.437zm0 0"/></symbol><symbol overflow="visible" id="p"><path style="stroke:none" d="M1.89-4.86c-.452 0-.874.204-1.124.548-.313.421-.47 1.062-.47 1.968 0 1.625.548 2.5 1.595 2.5 1.03 0 1.593-.875 1.593-2.469 0-.937-.156-1.562-.484-2a1.355 1.355 0 0 0-1.11-.546zm0 .548c.641 0 .97.656.97 1.953 0 1.375-.313 2.015-.985 2.015-.64 0-.969-.672-.969-2 0-1.328.328-1.969.985-1.969zm0 0"/></symbol></defs><path style="stroke:none;fill-rule:nonzero;fill:#fff;fill-opacity:1" d="M12 249.91h320V7.66H12zm0 0"/><g clip-path="url(#a)"><path style="fill:none;stroke-width:5.70714;stroke-linecap:round;stroke-linejoin:miter;stroke:#bfbfbf;stroke-opacity:1;stroke-miterlimit:10" d="M1997.503-211.163V-2636.7" transform="matrix(.10013 0 0 .09987 -28 271)"/></g><g clip-path="url(#b)"><path style="fill:none;stroke-width:5.70714;stroke-linecap:round;stroke-linejoin:miter;stroke:#bfbfbf;stroke-opacity:1;stroke-miterlimit:10" d="M399.5-1423.931h3196.006" transform="matrix(.10013 0 0 .09987 -28 271)"/></g><g clip-path="url(#c)"><path style="fill:none;stroke-width:5.70714;stroke-linecap:round;stroke-linejoin:miter;stroke:#bfbfbf;stroke-opacity:1;stroke-dasharray:11.4143,17.1214;stroke-miterlimit:10" d="M399.5-211.163V-2636.7" transform="matrix(.10013 0 0 .09987 -28 271)"/></g><g clip-path="url(#d)"><path style="fill:none;stroke-width:5.70714;stroke-linecap:round;stroke-linejoin:miter;stroke:#bfbfbf;stroke-opacity:1;stroke-dasharray:11.4143,17.1214;stroke-miterlimit:10" d="M1198.502-211.163V-2636.7" transform="matrix(.10013 0 0 .09987 -28 271)"/></g><g clip-path="url(#e)"><path style="fill:none;stroke-width:5.70714;stroke-linecap:round;stroke-linejoin:miter;stroke:#bfbfbf;stroke-opacity:1;stroke-dasharray:11.4143,17.1214;stroke-miterlimit:10" d="M1997.503-211.163V-2636.7" transform="matrix(.10013 0 0 .09987 -28 271)"/></g><g clip-path="url(#f)"><path style="fill:none;stroke-width:5.70714;stroke-linecap:round;stroke-linejoin:miter;stroke:#bfbfbf;stroke-opacity:1;stroke-dasharray:11.4143,17.1214;stroke-miterlimit:10" d="M2796.504-211.163V-2636.7" transform="matrix(.10013 0 0 .09987 -28 271)"/></g><g clip-path="url(#g)"><path style="fill:none;stroke-width:5.70714;stroke-linecap:round;stroke-linejoin:miter;stroke:#bfbfbf;stroke-opacity:1;stroke-dasharray:11.4143,17.1214;stroke-miterlimit:10" d="M3595.506-211.163V-2636.7" transform="matrix(.10013 0 0 .09987 -28 271)"/></g><g clip-path="url(#h)"><path style="fill:none;stroke-width:5.70714;stroke-linecap:round;stroke-linejoin:miter;stroke:#bfbfbf;stroke-opacity:1;stroke-dasharray:11.4143,17.1214;stroke-miterlimit:10" d="M399.5-211.163h3196.006" transform="matrix(.10013 0 0 .09987 -28 271)"/></g><g clip-path="url(#i)"><path style="fill:none;stroke-width:5.70714;stroke-linecap:round;stroke-linejoin:miter;stroke:#bfbfbf;stroke-opacity:1;stroke-dasharray:11.4143,17.1214;stroke-miterlimit:10" d="M399.5-817.547h3196.006" transform="matrix(.10013 0 0 .09987 -28 271)"/></g><g clip-path="url(#j)"><path style="fill:none;stroke-width:5.70714;stroke-linecap:round;stroke-linejoin:miter;stroke:#bfbfbf;stroke-opacity:1;stroke-dasharray:11.4143,17.1214;stroke-miterlimit:10" d="M399.5-1423.931h3196.006" transform="matrix(.10013 0 0 .09987 -28 271)"/></g><g clip-path="url(#k)"><path style="fill:none;stroke-width:5.70714;stroke-linecap:round;stroke-linejoin:miter;stroke:#bfbfbf;stroke-opacity:1;stroke-dasharray:11.4143,17.1214;stroke-miterlimit:10" d="M399.5-2030.315h3196.006" transform="matrix(.10013 0 0 .09987 -28 271)"/></g><g clip-path="url(#l)"><path style="fill:none;stroke-width:5.70714;stroke-linecap:round;stroke-linejoin:miter;stroke:#bfbfbf;stroke-opacity:1;stroke-dasharray:11.4143,17.1214;stroke-miterlimit:10" d="M399.5-2636.7h3196.006" transform="matrix(.10013 0 0 .09987 -28 271)"/></g><path style="fill:none;stroke-width:11.4143;stroke-linecap:square;stroke-linejoin:miter;stroke:#000;stroke-opacity:1;stroke-miterlimit:10" d="M399.5-211.163h3196.006" transform="matrix(.10013 0 0 .09987 -28 271)"/><path style="fill:none;stroke-width:5.70714;stroke-linecap:butt;stroke-linejoin:miter;stroke:#000;stroke-opacity:1;stroke-miterlimit:10" d="M399.5-211.163v-45.643m0 45.643v-22.84m79.9 22.84v-22.84m79.9 22.84v-22.84m79.901 22.84v-22.84m79.9 22.84v-22.84m79.9 22.84v-22.84m79.9 22.84v-22.84m79.9 22.84v-22.84m79.901 22.84v-22.84m159.8 22.84v-45.643m0 45.643v-22.84m79.9 22.84v-22.84m79.9 22.84v-22.84m79.9 22.84v-22.84m79.9 22.84v-22.84m79.9 22.84v-22.84m79.901 22.84v-22.84m79.9 22.84v-22.84m79.9 22.84v-22.84m159.8 22.84v-45.643m0 45.643v-22.84m79.9 22.84v-22.84m79.9 22.84v-22.84m79.9 22.84v-22.84m79.901 22.84v-22.84m79.9 22.84v-22.84m79.9 22.84v-22.84m79.9 22.84v-22.84m79.9 22.84v-22.84m159.8 22.84v-45.643m0 45.643v-22.84m79.9 22.84v-22.84m79.901 22.84v-22.84m79.9 22.84v-22.84m79.9 22.84v-22.84m79.9 22.84v-22.84m79.9 22.84v-22.84m79.9 22.84v-22.84m79.9 22.84v-22.84m159.801 22.84v-45.643m0 45.643v-22.84" transform="matrix(.10013 0 0 .09987 -28 271)"/><g style="fill:#000;fill-opacity:1"><use xlink:href="#m" x="8.952" y="259.03"/><use xlink:href="#n" x="11.236" y="259.03"/></g><g style="fill:#000;fill-opacity:1"><use xlink:href="#m" x="88.953" y="259.03"/><use xlink:href="#o" x="91.236" y="259.03"/></g><use xlink:href="#p" x="170.094" y="259.03" style="fill:#000;fill-opacity:1"/><use xlink:href="#o" x="249.524" y="259.03" style="fill:#000;fill-opacity:1"/><use xlink:href="#n" x="330.095" y="259.03" style="fill:#000;fill-opacity:1"/><path style="fill:none;stroke-width:11.4143;stroke-linecap:square;stroke-linejoin:miter;stroke:#000;stroke-opacity:1;stroke-miterlimit:10" d="M399.5-2636.7h3196.006" transform="matrix(.10013 0 0 .09987 -28 271)"/><path style="fill:none;stroke-width:5.70714;stroke-linecap:butt;stroke-linejoin:miter;stroke:#000;stroke-opacity:1;stroke-miterlimit:10" d="M399.5-2636.7v45.643m0-45.643v22.842m79.9-22.842v22.842m79.9-22.842v22.842m79.901-22.842v22.842m79.9-22.842v22.842m79.9-22.842v22.842m79.9-22.842v22.842m79.9-22.842v22.842m79.901-22.842v22.842m159.8-22.842v45.643m0-45.643v22.842m79.9-22.842v22.842m79.9-22.842v22.842m79.9-22.842v22.842m79.9-22.842v22.842m79.9-22.842v22.842m79.901-22.842v22.842m79.9-22.842v22.842m79.9-22.842v22.842m159.8-22.842v45.643m0-45.643v22.842m79.9-22.842v22.842m79.9-22.842v22.842m79.9-22.842v22.842m79.901-22.842v22.842m79.9-22.842v22.842m79.9-22.842v22.842m79.9-22.842v22.842m79.9-22.842v22.842m159.8-22.842v45.643m0-45.643v22.842m79.9-22.842v22.842m79.901-22.842v22.842m79.9-22.842v22.842m79.9-22.842v22.842m79.9-22.842v22.842m79.9-22.842v22.842m79.9-22.842v22.842m79.9-22.842v22.842m159.801-22.842v45.643m0-45.643v22.842" transform="matrix(.10013 0 0 .09987 -28 271)"/><g style="fill:#000;fill-opacity:1"><use xlink:href="#m" x="8.952" y="5.38"/><use xlink:href="#n" x="11.236" y="5.38"/></g><g style="fill:#000;fill-opacity:1"><use xlink:href="#m" x="88.953" y="5.38"/><use xlink:href="#o" x="91.236" y="5.38"/></g><use xlink:href="#p" x="170.094" y="5.38" style="fill:#000;fill-opacity:1"/><use xlink:href="#o" x="249.524" y="5.38" style="fill:#000;fill-opacity:1"/><use xlink:href="#n" x="330.095" y="5.38" style="fill:#000;fill-opacity:1"/><path style="fill:none;stroke-width:11.4143;stroke-linecap:square;stroke-linejoin:miter;stroke:#000;stroke-opacity:1;stroke-miterlimit:10" d="M399.5-211.163V-2636.7" transform="matrix(.10013 0 0 .09987 -28 271)"/><path style="fill:none;stroke-width:5.70714;stroke-linecap:butt;stroke-linejoin:miter;stroke:#000;stroke-opacity:1;stroke-miterlimit:10" d="M399.5-211.163h45.647m-45.647 0h22.824M399.5-271.786h22.824M399.5-332.447h22.824M399.5-393.07h22.824M399.5-453.732h22.824M399.5-514.355h22.824M399.5-574.978h22.824M399.5-635.64h22.824M399.5-696.262h22.824M399.5-817.547h45.647m-45.647 0h22.824M399.5-878.17h22.824M399.5-938.832h22.824M399.5-999.454h22.824m-22.824-60.662h22.824M399.5-1120.74h22.824m-22.824-60.622h22.824m-22.824-60.662h22.824m-22.824-60.623h22.824M399.5-1423.931h45.647m-45.647 0h22.824m-22.824-60.623h22.824m-22.824-60.662h22.824m-22.824-60.623h22.824m-22.824-60.622h22.824m-22.824-60.662h22.824m-22.824-60.623h22.824m-22.824-60.662h22.824M399.5-1909.03h22.824M399.5-2030.315h45.647m-45.647 0h22.824m-22.824-60.623h22.824M399.5-2151.6h22.824m-22.824-60.623h22.824m-22.824-60.662h22.824m-22.824-60.622h22.824M399.5-2394.17h22.824m-22.824-60.622h22.824m-22.824-60.623h22.824M399.5-2636.7h45.647m-45.647 0h22.824" transform="matrix(.10013 0 0 .09987 -28 271)"/><g style="fill:#000;fill-opacity:1"><use xlink:href="#m" x=".19" y="253.33"/><use xlink:href="#n" x="2.474" y="253.33"/></g><g style="fill:#000;fill-opacity:1"><use xlink:href="#m" x=".19" y="192.34"/><use xlink:href="#o" x="2.474" y="192.34"/></g><use xlink:href="#p" x="2.473" y="131.92" style="fill:#000;fill-opacity:1"/><use xlink:href="#o" x="2.473" y="71.5" style="fill:#000;fill-opacity:1"/><use xlink:href="#n" x="2.473" y="11.08" style="fill:#000;fill-opacity:1"/><path style="fill:none;stroke-width:11.4143;stroke-linecap:square;stroke-linejoin:miter;stroke:#000;stroke-opacity:1;stroke-miterlimit:10" d="M3595.506-211.163V-2636.7" transform="matrix(.10013 0 0 .09987 -28 271)"/><path style="fill:none;stroke-width:5.70714;stroke-linecap:butt;stroke-linejoin:miter;stroke:#000;stroke-opacity:1;stroke-miterlimit:10" d="M3595.506-211.163h-45.685m45.685 0h-22.823m22.823-60.623h-22.823m22.823-60.661h-22.823m22.823-60.623h-22.823m22.823-60.662h-22.823m22.823-60.623h-22.823m22.823-60.623h-22.823m22.823-60.662h-22.823m22.823-60.622h-22.823m22.823-121.285h-45.685m45.685 0h-22.823m22.823-60.623h-22.823m22.823-60.662h-22.823m22.823-60.622h-22.823m22.823-60.662h-22.823m22.823-60.624h-22.823m22.823-60.622h-22.823m22.823-60.662h-22.823m22.823-60.623h-22.823m22.823-121.284h-45.685m45.685 0h-22.823m22.823-60.623h-22.823m22.823-60.662h-22.823m22.823-60.623h-22.823m22.823-60.622h-22.823m22.823-60.662h-22.823m22.823-60.623h-22.823m22.823-60.662h-22.823m22.823-60.622h-22.823m22.823-121.285h-45.685m45.685 0h-22.823m22.823-60.623h-22.823m22.823-60.662h-22.823m22.823-60.623h-22.823m22.823-60.662h-22.823m22.823-60.622h-22.823m22.823-60.663h-22.823m22.823-60.622h-22.823m22.823-60.623h-22.823m22.823-121.285h-45.685m45.685 0h-22.823" transform="matrix(.10013 0 0 .09987 -28 271)"/><g style="fill:#000;fill-opacity:1"><use xlink:href="#m" x="337.714" y="253.33"/><use xlink:href="#n" x="339.997" y="253.33"/></g><g style="fill:#000;fill-opacity:1"><use xlink:href="#m" x="337.714" y="192.34"/><use xlink:href="#o" x="339.997" y="192.34"/></g><use xlink:href="#p" x="337.714" y="131.92" style="fill:#000;fill-opacity:1"/><use xlink:href="#o" x="337.714" y="71.5" style="fill:#000;fill-opacity:1"/><use xlink:href="#n" x="337.714" y="11.08" style="fill:#000;fill-opacity:1"/><path style="fill:none;stroke-width:5.70714;stroke-linecap:round;stroke-linejoin:miter;stroke:#00f;stroke-opacity:1;stroke-miterlimit:10" d="m493.64-236.976-28.48-69.658m28.793 25.227-28.792-25.227-2.887 38.173m33.044-94.337-31.835-60.545m31.094 22.333-31.094-22.333.78 38.251m32.694-103.019L461.845-540.6m33.278 18.931-33.278-18.93 4.798 37.978m31.992-110.334-38.468-45.37m35.19 15.059-35.19-15.058 9.09 37.195m31.055-116.122-41.823-39.307m36.673 10.99-36.673-10.99 13.226 35.943m30.235-120.463-45.138-34.223m37.648 7.041-37.648-7.04 16.932 34.34m29.884-123.397-48.455-30.194m38.117 3.559-38.117-3.56 20.014 32.62m30.119-125.235-51.81-27.144m38.272.743-38.272-.743 22.354 31.055m31.133-126.174-55.165-25.188m38.272-1.329-38.272 1.33 24.072 29.802m32.732-126.408-58.443-24.132m38.156-2.777-38.156 2.777 25.086 28.904m35.035-126.057-61.798-24.131m38.116-3.481-38.116 3.48 25.67 28.396m37.805-125.04-65.153-25.149m38.116-3.637-38.116 3.637 25.788 28.317m41.004-123.436-68.43-27.143m38.116-3.285-38.116 3.285 25.476 28.512m44.631-121.127-71.785-30.195m38.195-2.503-38.195 2.503 24.93 29.06m48.533-118.117-75.14-34.261m38.272-1.369-38.272 1.369 24.071 29.802m52.708-114.283-78.418-39.307m38.272.039-38.272-.04 22.94 30.664m57.155-109.59-81.773-45.37m38.234 1.643-38.234-1.642 21.614 31.562m61.837-103.919-85.128-52.487m38.155 3.402-38.155-3.402 20.17 32.58m66.596-97.349-88.444-60.544m37.961 5.241-37.96-5.241 18.609 33.479m71.511-89.643-91.76-69.658m37.61 7.04-37.61-7.04 16.933 34.34m196.98 2338.318-16.464-67.154m24.774 29.177-24.774-29.177-8.466 37.351m26.607-96.019-19.818-58.041m27.27 26.87-27.27-26.87-5.15 37.938m26.646-105.249-23.174-49.906m29.962 23.858-29.962-23.858-1.131 38.251m25.944-113.149-26.452-42.867m32.538 20.143-32.538-20.143 3.434 38.134m24.695-119.564-29.806-36.804m34.878 15.841-34.878-15.84 8.27 37.39m23.214-124.414-33.162-31.719m36.595 11.303-36.595-11.303 12.914 36.022m21.886-127.582-36.477-27.69m37.647 7.079-37.647-7.08 16.932 34.34m21.223-129.459-39.794-24.64m38.116 3.481-38.116-3.481 20.092 32.58m21.38-130.202-43.15-22.646m38.273.743-38.273-.743 22.394 31.055m22.394-130.203-46.465-21.628m38.272-1.095-38.272 1.095 23.837 29.96m24.306-129.617-49.782-21.628m38.234-2.072-38.234 2.072 24.579 29.334m26.881-128.481-53.137-22.607m38.233-2.347-38.233 2.347 24.812 29.138m30.002-126.799-56.492-24.64m38.234-1.995-38.234 1.995 24.54 29.372m33.591-124.491-59.77-27.691m38.273-1.135-38.273 1.135 23.877 29.92m37.57-121.48-63.124-31.72m38.272.078-38.272-.078 22.9 30.664m41.901-117.687-66.479-36.804m38.273 1.604-38.273-1.604 21.692 31.563m46.427-113.032-69.757-42.827m38.117 3.325-38.117-3.325 20.209 32.502m51.225-107.4-73.112-49.907m37.921 5.163-37.92-5.163 18.609 33.44m56.179-100.75-76.466-58.042m37.648 7.079-37.648-7.079 16.932 34.34m61.212-93.047-79.822-67.114m37.258 8.956-37.258-8.956 15.215 35.16M801.927-239.519l-5.852-64.573m20.131 32.542-20.13-32.542-13.968 35.63m21.458-96.878-9.13-55.5m22.473 31.016-22.472-31.015-11.314 36.569m22.12-106.383-12.484-47.403m25.281 28.746-25.28-28.746-7.843 37.468m22.004-114.87-15.84-40.324m28.441 25.618-28.44-25.618-3.434 38.095m20.912-122.106-19.156-34.262m31.679 21.55-31.68-21.55 1.796 38.251m19.038-127.777-22.472-29.216m34.449 16.7-34.449-16.7 7.335 37.586M811.915-986.9l-25.827-25.148m36.478 11.655-36.478-11.655 12.562 36.178m14.942-133.8-29.182-22.138m37.648 7.08-37.648-7.08 16.932 34.34m13.889-134.504-32.46-20.103m38.117 3.481-38.116-3.481 20.092 32.58m14.045-134.27-35.815-19.087m38.272 1.017-38.272-1.017 22.16 31.211m15.332-133.369-39.17-19.087m38.312-.391-38.312.39 23.292 30.39m17.517-132.079-42.447-20.103m38.272-.822-38.272.822 23.603 30.116m20.521-130.281-45.802-22.137m38.273-.508-38.273.508 23.37 30.312m24.11-127.934-49.157-25.149m38.272.353-38.272-.353 22.706 30.82m28.089-124.922-52.473-29.216m38.272 1.681-38.272-1.681 21.614 31.602m32.537-121.167-55.79-34.223m38.117 3.324-38.117-3.324 20.21 32.502m37.258-116.513-59.145-40.324m37.961 5.162-37.961-5.162 18.648 33.44m42.135-110.842-62.46-47.403m37.648 7.04-37.649-7.04 16.932 34.34m47.207-104.154-65.777-55.5m37.219 8.996-37.22-8.995 15.138 35.161m52.317-96.409-69.132-64.574m36.712 10.874-36.712-10.874 13.343 35.865M957.046-240.77l3.511-62.07m15.176 35.161-15.176-35.161-19.039 33.245m17.205-96.997.157-52.957m17.01 34.262-17.01-34.262-17.206 34.184m18.688-106.54-3.16-44.9m19.507 32.971-19.507-32.97-14.67 35.356m19.508-115.301-6.477-37.781m22.667 30.859-22.667-30.86-11.08 36.648m19.234-123.162-9.831-31.72m26.49 27.652-26.49-27.651-6.203 37.781m17.712-129.85-13.187-26.674m30.509 23.115-30.509-23.115-.195 38.251m15.02-134.895-16.463-22.646m33.98 17.6-33.98-17.6 6.32 37.782m11.821-137.907-19.819-19.634m36.4 11.929-36.4-11.93 12.328 36.257m9.169-138.924-23.175-17.56m37.649 7.039-37.649-7.04 16.932 34.34m7.881-138.572-26.451-16.544m38.077 3.637-38.077-3.637 19.936 32.658m8.193-137.398-29.807-16.545m38.234 1.643-38.234-1.643 21.614 31.602m9.87-135.834-33.161-17.56m38.272.898-38.272-.899 22.237 31.172m12.562-133.878-36.477-19.556m38.273 1.095-38.273-1.095 22.082 31.25m16.074-131.454-39.795-22.606m38.234 2.034-38.234-2.034 21.302 31.797m20.17-128.442-43.15-26.674m38.117 3.442-38.116-3.442 20.131 32.58m24.657-124.648-46.466-31.72m37.961 5.163-37.96-5.162 18.648 33.44m29.494-119.955-49.781-37.782m37.609 7.04-37.61-7.04 16.933 34.34m34.527-114.284-53.137-44.9m37.219 9.035-37.219-9.034 15.098 35.2m39.716-107.557-56.491-52.957m36.711 10.951-36.711-10.95 13.264 35.904m44.866-99.656-59.769-62.07m36.088 12.789-36.088-12.79 11.431 36.53m172.519 2328.541 11.47-59.567m10.338 36.883-10.338-36.883-23.291 30.39m13.459-96.644 8.193-50.454m11.432 36.53-11.432-36.53-22.394 31.054m15.879-105.953 4.838-42.318m13.147 35.944-13.147-35.944-20.873 32.071M1117.86-618l1.483-35.279m15.645 34.966-15.645-34.966-18.57 33.48m18.765-122.498-1.873-29.216m19.273 33.088-19.273-33.088-14.942 35.24m18.454-129.85-5.15-24.132m23.876 29.92-23.876-29.92-9.598 37.077m16.425-136.225-8.505-20.103m29.104 24.875-29.104-24.875-2.458 38.212m12.602-140.919-11.821-17.052m33.59 18.382-33.59-18.382 5.462 37.899m8.036-143.109-15.137-15.058m36.361 11.968-36.36-11.968 12.25 36.256m4.564-142.991-18.493-14.041m37.61 7.039-37.61-7.04 16.932 34.34m3.239-141.583-21.848-14.041m38.077 4.146-38.077-4.146 19.546 32.932m3.94-139.668-25.125-15.057m38.156 2.894-38.156-2.894 20.6 32.306m6.203-137.516-28.48-17.053m38.155 2.895-38.155-2.895 20.56 32.267m9.598-134.973-31.836-20.104m38.116 3.833-38.116-3.833 19.82 32.776m13.654-131.923-35.112-24.132m37.921 5.28-37.921-5.28 18.531 33.48m18.259-128.091-38.468-29.216m37.609 7.079-37.609-7.079 16.932 34.34m23.213-123.358-41.823-35.278m37.22 8.996-37.22-8.996 15.138 35.161m28.324-117.647-45.14-42.319m36.713 10.912-36.712-10.912 13.264 35.905m33.553-110.803-48.456-50.454m36.049 12.829-36.049-12.829 11.392 36.57m38.741-102.825-51.81-59.567m35.385 14.589-35.385-14.589 9.558 37.078m167.057 2325.451 18.18-56.986m5.891 37.821-5.89-37.82-26.725 27.416m10.222-96.253 14.825-47.912m6.242 37.782-6.242-37.782-26.49 27.652m13.342-105.053 11.47-39.816m6.944 37.626-6.944-37.626-25.944 28.16m16.113-113.149 8.192-32.736m8.31 37.351-8.31-37.351-24.89 29.06m18.375-120.659 4.838-26.674m10.729 36.765-10.73-36.765-22.94 30.663m19.78-127.777 1.483-21.629m14.708 35.357-14.708-35.357-19.429 32.971m19.624-134.66-1.872-17.562m20.599 32.307-20.6-32.307-13.46 35.827m16.972-141.036-5.15-14.55m27.583 26.557-27.583-26.557-4.682 38.017m11.509-145.769-8.504-12.516m33.395 18.735-33.395-18.735 5.071 37.978m5.072-147.255-11.821-11.499m36.517 11.616-36.517-11.616 12.601 36.14m.897-145.887-15.137-11.498m37.61 7.04-37.61-7.04 16.932 34.34m-.117-143.617-18.492-12.516m37.96 5.006-37.96-5.006 18.765 33.362m1.405-141.115-21.848-14.549m38 4.732-38-4.732 19 33.245m4.486-138.455-25.124-17.56m37.843 5.553-37.843-5.554 18.258 33.636m8.544-135.326-28.48-21.628m37.609 7.079-37.609-7.08 16.932 34.34m13.226-131.453-31.836-26.674m37.259 8.878-37.259-8.878 15.255 35.122m18.219-126.721-35.112-32.737m36.712 10.834-36.712-10.834 13.382 35.866m23.408-120.855-38.468-39.815m36.088 12.711-36.088-12.711 11.47 36.53m28.675-113.932-41.822-47.911m35.424 14.51-35.424-14.51 9.636 37.038m33.825-105.875-45.139-57.024m34.683 16.231-34.683-16.231 7.842 37.508M1426.46-244.564l23.485-54.482m2.146 38.212-2.146-38.212-29.299 24.68m7.491-96.02 20.13-45.369m1.756 38.212-1.755-38.212-29.534 24.327m11.041-104.271 16.854-37.312m1.521 38.251-1.52-38.251-29.69 24.17m14.513-111.702 13.499-30.194m1.678 38.251-1.678-38.25-29.612 24.288m17.79-118.391 10.144-24.132m2.496 38.212-2.496-38.212-29.065 24.914m20.599-124.57 6.788-19.086m4.604 37.977-4.604-37.977-27.621 26.44m22.472-130.672 3.51-15.058m8.896 37.234-8.895-37.234-24.462 29.49m22.628-137.242.156-12.007m16.66 34.496-16.66-34.496-17.595 34.027m19.078-144.282-3.16-9.974m26.685 27.456-26.685-27.456-5.97 37.782m10.807-149.601-6.476-8.957m33.942 17.678-33.942-17.678 6.203 37.742m1.951-150.07-9.831-8.957m36.828 10.443-36.828-10.443 13.732 35.748m-2.223-147.567-13.187-9.974m37.648 7.079-37.648-7.079 16.932 34.34m-2.107-144.635-16.503-12.006m37.805 6.336-37.805-6.336 17.635 34.027m.546-141.78-19.82-15.018m37.61 7.04-37.61-7.04 16.933 34.34m4.565-138.573-23.175-19.086m37.336 8.605-37.336-8.605 15.528 35.005m9.285-134.661-26.451-24.132m36.829 10.404-36.83-10.404 13.772 35.71m14.357-129.812-29.806-30.233m36.244 12.359-36.244-12.359 11.86 36.413m19.624-123.905-33.162-37.313m35.542 14.237-35.542-14.237 9.949 36.96m24.852-116.903-36.478-45.37m34.8 15.957-34.8-15.957 8.115 37.43m30.041-108.769-39.795-54.482m34.02 17.522-34.02-17.522 6.36 37.742m159.605 2319.74 27.465-51.979m-.858 38.29.858-38.29-31.133 22.294m5.306-96.175 24.189-42.827m-1.912 38.251 1.912-38.251-31.757 21.433m9.246-103.92 20.833-34.77m-2.926 38.212 2.926-38.212-32.303 20.612m13.147-110.646 17.479-27.691m-3.824 38.095 3.824-38.095-32.772 19.83m16.932-116.435 14.162-21.629m-4.409 38.016 4.409-38.016-33.084 19.282m20.6-121.48 10.845-16.544m-4.408 38.016 4.408-38.016-33.083 19.282m23.915-126.018 7.49-12.515m-2.925 38.172 2.926-38.172-32.304 20.572m26.491-130.867 4.135-9.465m1.912 38.252-1.912-38.252-29.416 24.445m26.919-137.281.859-7.431m13.186 35.904-13.186-35.904-20.834 32.11m21.652-146.433-2.496-6.454m28.324 25.736-28.324-25.736-3.59 38.134m7.765-152.965-5.853-6.453m35.698 13.923-35.698-13.923 10.261 36.882m-2.77-151.205-9.13-7.431m37.337 8.331-37.336-8.331 15.722 34.887m-4.915-147.723-12.485-9.466m37.649 7.04-37.649-7.04 16.932 34.34m-2.77-144.634-15.84-12.516m37.493 7.823-37.492-7.823 16.23 34.692m1.247-141.427-19.116-16.544m37.102 9.425-37.102-9.425 14.67 35.318m6.124-137.516-22.471-21.629m36.555 11.421-36.555-11.421 12.796 36.1m11.353-132.705-25.827-27.691m35.893 13.376-35.893-13.376 10.846 36.725m16.62-126.799-29.144-34.731m35.152 15.214-35.152-15.214 8.895 37.234m21.926-119.721-32.46-42.865m34.333 16.975-34.332-16.975 7.022 37.664m27.115-111.546-35.815-51.94m33.552 18.5-33.552-18.5 5.345 37.9m157.303 2317.041 30.119-49.398m-3.199 38.134 3.199-38.134-32.42 20.299m3.94-96.723 26.841-40.324m-4.72 38.017 4.72-38.017-33.24 19.048m8.077-104.037 23.486-32.228m-6.32 37.743 6.32-37.743-34.02 17.6m12.211-110.177 20.131-25.187m-8.037 37.468 8.037-37.468-34.76 16.035m16.268-115.183 16.815-19.086m-9.793 37.038 9.793-37.038-35.464 14.393m20.326-119.095 13.5-14.04m-11.393 36.569 11.392-36.57-36.088 12.829m24.267-122.106 10.144-9.974m-12.407 36.218 12.407-36.218-36.4 11.773m27.934-124.57 6.788-6.962m-11.782 36.413 11.782-36.413-36.205 12.437m31.055-127.777 3.511-4.928m-5.852 37.821 5.852-37.82-33.786 18.03m31.953-134.896.156-3.911m15.644 34.966-15.644-34.966-18.532 33.48m20.014-150.814-3.16-3.95m34.839 15.878-34.839-15.879 8.232 37.43m-3.395-154.256-6.475-4.928m37.609 7.04-37.61-7.04 16.933 34.34m-8.779-149.679-9.831-6.962m37.843 5.788-37.843-5.788 18.063 33.753m-6.554-146.551-13.187-9.973m37.649 7.04-37.649-7.04 16.932 34.34m-2.106-143.618-16.464-14.04m37.141 9.152-37.141-9.153 14.981 35.24m3.16-139.941-19.819-19.086m36.557 11.421-36.557-11.421 12.797 36.06m8.66-135.247-23.134-25.149m35.775 13.611-35.775-13.61 10.611 36.803m14.201-129.381-26.45-32.227m34.955 15.566-34.956-15.566 8.505 37.312m19.624-122.301-29.806-40.325m34.137 17.327-34.137-17.327 6.593 37.704m24.891-114.127-33.162-49.437m33.278 18.93-33.278-18.93 4.877 37.977m155.742 2314.46 31.485-46.894m-4.838 37.977 4.838-37.977-33.28 18.89m3.473-97.818 28.168-37.781m-6.749 37.664 6.749-37.664-34.215 17.209m7.725-104.741 24.812-29.724m-8.817 37.273 8.817-37.273-35.073 15.331m11.938-110.45 21.458-22.607m-11.158 36.609 11.158-36.609-35.97 13.024m16.151-114.714 18.18-16.544m-13.772 35.709 13.772-35.709-36.868 10.404m20.365-117.647 14.826-11.538m-16.542 34.535 16.542-34.535-37.57 7.47m24.422-119.251 11.47-7.47m-19.39 33.009 19.39-33.01-38.038 4.303m28.207-119.642 8.192-4.42m-21.964 31.407 21.964-31.406-38.272 1.29m31.757-119.133 4.838-2.425m-23.057 30.585 23.057-30.585-38.273-.078m35.113-119.29 1.482-1.37m-13.459 35.827 13.46-35.826-36.752 10.716m36.947-130.633-1.873-1.368m37.648 7.04-37.648-7.04 16.932 34.34m-13.421-153.747-5.15-2.386m38.272-1.095-38.272 1.095 23.837 29.96m-17.01-147.803-8.505-4.459m38.273.626-38.273-.626 22.472 31.016m-12.328-146.355-11.821-7.432m38.117 3.755-38.117-3.755 19.858 32.737m-6.359-144.556-15.138-11.499m37.61 7.079-37.61-7.079 16.932 34.34m-.116-141.584-18.493-16.544m36.946 10.091-36.946-10.09 14.084 35.59m6.086-137.281-21.848-22.645m36.127 12.789-36.127-12.79 11.47 36.57m12.016-131.649-25.124-29.725m35.19 15.097-35.19-15.097 9.05 37.195m17.752-124.726-28.48-37.782m34.293 17.053-34.293-17.053 6.944 37.664m23.213-116.591-31.835-46.895m33.396 18.695-33.396-18.695 5.072 37.939M2061.642-249.61l31.484-44.39m-5.852 37.859 5.852-37.86-33.747 18.03m3.941-99.46 28.167-35.279m-7.997 37.43 7.997-37.43-34.761 16.075m8.271-106.148 24.813-27.144m-10.456 36.804 10.456-36.804-35.737 13.729m12.601-111.39 21.458-20.103m-13.304 35.904 13.304-35.904-36.673 10.912m16.854-115.105 18.18-14.041m-16.619 34.496 16.62-34.496-37.57 7.392m21.066-117.178 14.826-8.957m-20.443 32.385 20.443-32.385-38.156 3.09m25.008-117.412 11.47-4.928m-24.734 29.216 24.734-29.216-38.194-2.269m28.363-115.613 8.154-1.878m-29.456 24.406 29.456-24.406-37.22-8.956m30.743-111.429 4.838.117m-34.683 16.232 34.683-16.232-33.786-18.03m30.626-103.88 1.483 1.134m-37.61-7.078 37.61 7.078-16.932-34.34m17.087-88.078-1.833 1.134m20.092-32.619-20.092 32.619 38.155-3.52m-34.644-118.391-5.15.117m33.786-17.952-33.786 17.952 34.645 16.27m-27.817-136.655-8.505-1.877m37.141-9.269-37.141 9.269 29.69 24.17m-19.547-142.052-11.82-4.928m38.194-2.62-38.195 2.62 25.047 28.982m-11.548-143.305-15.137-8.956m38.194 2.698-38.194-2.698 20.716 32.15m-3.901-141.936-18.493-14.041m37.609 7.078-37.609-7.078 16.932 34.34m3.238-138.533-21.848-20.103m36.791 10.599-36.79-10.6 13.615 35.788m9.871-133.449-25.125-27.182m35.814 13.532-35.814-13.532 10.69 36.764m16.112-126.799-28.48-35.278m34.839 15.879-34.839-15.88 8.193 37.43m21.964-118.859-31.834-44.392m33.864 17.873-33.864-17.873 6.047 37.82M2222.144-250.9l30.119-41.81m-6.125 37.781 6.125-37.781-33.903 17.756m5.423-101.768 26.841-32.736m-8.466 37.351 8.466-37.351-34.956 15.645m9.792-108.222 23.487-24.64m-11.237 36.608 11.237-36.608-36.01 12.985m14.201-113.15 20.131-17.56m-14.552 35.395 14.552-35.396-37.063 9.583m18.571-116.357 16.814-11.499m-18.571 33.48 18.571-33.48-37.882 5.202m22.745-117.491 13.499-6.453m-23.525 30.233 23.525-30.233-38.273-.665m26.452-116.2 10.143-2.386m-29.377 24.523 29.377-24.523-37.258-8.8m28.793-111.585 6.788.626m-35.658 13.884 35.658-13.884-32.499-20.22m27.349-102.708 3.511 2.66m-37.649-7.04 37.65 7.04-16.933-34.34m15.098-90.113.157 3.677m-18.649-33.401 18.649 33.4 15.566-34.965m-14.084-89.956-3.16 3.637m9.441-37.078-9.441 37.078 35.346-14.706m-30.508-109.707-6.477 2.66m25.203-28.826-25.203 28.825 38.156 2.894m-30.001-125.821-9.832.626m33.083-19.282-33.083 19.282 35.268 14.901m-23.759-135.287-13.187-2.385m36.751-10.717-36.75 10.717 30.625 22.958m-15.801-139.823-16.463-6.454m38.116-3.48-38.116 3.48 25.632 28.395m-7.491-140.684-19.819-11.538m38.194 2.387-38.194-2.387 21.028 32.033m.43-138.768-23.136-17.56m37.649 7.078-37.649-7.079 16.932 34.34m7.882-134.504-26.452-24.64m36.712 10.794-36.712-10.795 13.382 35.866m14.747-128.442-29.807-32.737m35.698 13.767-35.698-13.767 10.378 36.843m21.106-120.854-33.161-41.81m34.683 16.192-34.683-16.192 7.841 37.468M2383.27-252.152l27.467-39.307m-5.579 37.86 5.579-37.86-33.63 18.265m7.803-104.779 24.188-30.233m-8.037 37.468 8.037-37.468-34.761 16.074m12.25-111.154 20.833-22.137m-11.001 36.686 11.001-36.686-35.931 13.22m16.776-115.927 17.478-15.019m-14.786 35.318 14.786-35.318-37.141 9.348m21.34-118.625 14.123-8.957m-19.741 32.775 19.741-32.775-38.077 3.872m25.592-118.703 10.847-3.95m-26.374 27.769 26.374-27.77-38.039-4.42m28.87-114.948 7.491.118m-34.527 16.544 34.527-16.544-33.942-17.679m28.129-105.21 4.135 3.13m-37.609-7.041 37.61 7.04-16.893-34.34m14.396-91.09.858 5.163m-22.355-31.094 22.355 31.094 11.47-36.491m-10.651-90.465-2.497 6.18m-3.082-38.134 3.082 38.133 28.675-25.344m-24.5-102.12-5.852 6.219m11.002-36.686-11.002 36.686 35.931-13.22m-28.441-113.776-9.129 5.203m21.341-31.759-21.34 31.759 38.233-1.956m-27.427-123.514-12.484 3.168m28.987-24.992-28.987 24.992 37.375 8.214m-23.213-131.102-15.84.117m34.098-17.404-34.098 17.404 34.371 16.857m-16.893-136.264-19.117-3.911m36.946-9.895-36.946 9.895 30.08 23.662m-9.285-138.494-22.472-8.956m38.155-3.207-38.155 3.207 25.437 28.59m-1.288-137.867-25.827-15.058m38.195 2.464-38.195-2.464 20.95 32.032m6.555-134.7-29.182-22.137m37.647 7.079-37.647-7.079 16.932 34.34m13.888-129.459-32.459-30.194m36.712 10.795-36.712-10.795 13.382 35.865m20.755-122.38-35.815-39.307m35.698 13.767-35.698-13.767 10.417 36.843M2545.06-253.403l23.487-36.804m-3.979 38.094 3.98-38.094-32.85 19.673m11.04-108.691 20.132-27.69m-6.282 37.742 6.282-37.743-33.981 17.6m15.488-115.222 16.815-19.634m-9.285 37.156 9.285-37.156-35.268 14.862m20.131-120.072 13.498-12.515m-13.459 35.826 13.46-35.826-36.752 10.755m24.93-122.536 10.144-6.453m-19.741 32.814 19.74-32.814-38.077 3.872m29.572-121.246 6.828-1.369m-30.118 23.584 30.118-23.584-36.946-9.934m31.796-111.976 3.512 2.66m-37.649-7.08 37.649 7.08-16.932-34.34m15.098-91.13.156 5.71m-18.102-33.753 18.102 33.753 16.113-34.73m-14.63-93.282-3.16 7.744m-2.81-38.173 2.81 38.173 28.87-25.188m-24.033-104.31-6.476 8.722m6.71-37.703-6.71 37.703 34.176-17.248m-26.022-112.758-9.832 8.721m14.24-35.552-14.24 35.552 36.985-9.934m-25.476-119.563-13.186 7.704m20.911-32.071-20.911 32.071 38.194-2.542m-23.369-125.43-16.464 5.71m26.764-27.378-26.764 27.378 37.921 5.006m-19.78-130.476-19.818 2.66m31.679-21.512-31.68 21.512 36.205 12.437m-14.747-134.348-23.135-1.369m35.229-15.057-35.23 15.057 33.163 19.126m-8.349-136.499-26.452-6.453m37.297-8.526-37.297 8.526 29.183 24.718m-1.054-136.499-29.806-12.516m38.194-2.542-38.194 2.542 24.93 29.021m6.554-134.23-33.162-19.595m38.195 2.659-38.195-2.66 20.794 32.15m14.006-129.811-36.477-27.69m37.648 7.079-37.648-7.08 16.932 34.34m21.223-123.357-39.794-36.804m36.751 10.677-36.751-10.677 13.538 35.826m157.069 2303.978 18.18-34.261m-.936 38.251.936-38.251-31.172 22.215m14.67-113.814 14.825-25.15m-2.653 38.213 2.653-38.212-32.147 20.807m19-120.972 11.47-17.052m-4.916 37.938 4.915-37.938-33.317 18.852m23.486-126.604 8.154-9.974m-8.388 37.313 8.388-37.313-34.918 15.645m28.441-130.007 4.838-3.91m-15.8 34.887 15.8-34.888-37.375 8.292m34.215-128.168 1.483 1.134m-37.61-7.079 37.61 7.079-16.932-34.34m17.088-90.113-1.834 5.202m-4.721-38.017 4.72 38.017 27.584-26.596m-24.071-101.377-5.15 8.214m3.706-38.095-3.707 38.095 32.694-19.869m-25.866-110.646-8.505 10.247m8.7-37.273-8.7 37.273 35.034-15.41m-24.891-116.591-11.82 11.225m13.03-35.983-13.03 35.983 36.633-11.186m-23.135-121.324-15.137 11.225m17.283-34.144-17.283 34.144 37.687-6.649m-20.873-125.352-18.492 10.247m21.652-31.563-21.652 31.563 38.233-1.643m-18.063-128.872-21.848 8.213m26.023-28.082-26.023 28.082 38.078 3.95m-14.591-131.923-25.125 5.163m30.079-23.662-30.08 23.662 36.986 9.896m-10.183-134.309-28.48 1.134m33.513-18.461-33.513 18.461 34.879 15.723m-4.721-135.6-31.835-3.91m36.087-12.829-36.087 12.828 31.913 21.16m1.56-135.522-35.112-9.973m37.609-7.118-37.609 7.118 28.246 25.813m8.544-133.565-38.468-17.053m38.234-1.76-38.234 1.76 24.345 29.53m15.801-129.694-41.823-25.149m38.194 2.973-38.194-2.973 20.521 32.306m22.94-123.905-45.139-34.262m37.649 7.08-37.649-7.08 16.932 34.34M2870.67-255.945l11.47-31.72m4.447 38.017-4.447-38.017-27.74 26.361m17.908-120.463 8.154-22.606m4.526 38.016-4.526-38.016-27.7 26.4m21.224-129.107 4.837-14.55m5.423 37.9-5.423-37.9-27.036 27.105m23.876-137.399 1.483-7.431m10.026 36.921-10.026-36.921-23.526 30.194m23.682-147.059-1.834-1.37m37.648 7.04-37.648-7.04 16.932 34.34m-13.42-156.758-5.15 3.637m17.985-33.753-17.985 33.753 37.843-5.866m-31.016-121.089-8.505 7.704m13.85-35.669-13.85 35.67 36.868-10.326m-26.724-120.15-11.822 10.716m13.85-35.669-13.85 35.67 36.868-10.326m-23.369-122.693-15.137 12.75m15.137-35.121-15.137 35.121 37.219-8.956m-20.405-125.587-18.492 13.767m17.205-34.183-17.205 34.183 37.688-6.727m-17.518-128.325-21.847 13.807m19.819-32.776-19.82 32.776 38.117-3.833m-14.63-130.711-25.125 12.75m22.784-30.78-22.784 30.78 38.273-.234m-11.47-132.784-28.48 10.717m25.983-28.082-25.984 28.082 38.078 3.95m-7.92-134.425-31.835 7.704m29.26-24.718-29.26 24.718 37.336 8.565m-3.863-135.521-35.112 3.638m32.265-20.573-32.265 20.573 35.815 13.493m.975-135.912-38.467-1.37m34.839-15.878-34.84 15.879 33.592 18.343m6.554-135.208-41.823-7.47m36.712-10.834-36.712 10.833 30.704 22.88m12.757-133.135-45.138-14.55m37.843-5.787-37.843 5.788 27.348 26.791m19.468-129.498-48.455-22.606m38.273-1.017-38.273 1.017 23.76 29.998m26.373-124.101-51.81-31.719m38.155 3.285-38.156-3.285 20.249 32.463M3034.45-257.197l3.51-29.216m12.914 36.06-12.914-36.06-21.067 31.954m19.234-128.56.156-20.103m16.854 34.379-16.854-34.379-17.4 34.105m18.882-139.315-3.16-12.046m25.281 28.747-25.28-28.747-7.804 37.508m12.641-150.306-6.476-4.928m37.609 7.08-37.61-7.08 16.933 34.34m-8.779-153.708-9.831 1.134m32.031-20.963-32.031 20.963 35.97 13.064m-24.461-138.025-13.187 6.219m23.682-30.077-23.682 30.077 38.273.9m-23.447-130.398-16.464 10.247m20.053-32.619-20.053 32.62 38.116-3.52m-19.975-129.538-19.819 13.298m18.922-33.284-18.922 33.284 37.96-4.85m-16.502-130.71-23.135 15.292m19.155-33.166-19.155 33.166 37.999-4.615m-13.187-132.471-26.45 16.31m20.17-32.541-20.17 32.54 38.116-3.402m-9.988-134.191-29.807 16.31m21.809-31.446-21.809 31.445 38.273-1.408m-6.788-135.677-33.162 15.292m23.916-29.881-23.916 29.881 38.272 1.213m-3.472-136.773-36.478 13.298m26.334-27.809-26.334 27.809 38.039 4.38m.117-137.438-39.794 10.248m28.909-25.11-28.91 25.11 37.415 8.057m4.058-137.555-43.15 6.218m31.445-21.824-31.445 21.824 36.322 12.047m8.505-137.008-46.504 1.134m33.824-17.952-33.824 17.952 34.644 16.27m13.499-135.638-49.782-4.928m35.736-13.689-35.736 13.69 32.381 20.415m19.078-133.213-53.137-12.008m37.18-9.152-37.18 9.152 29.612 24.21m25.164-129.458-56.453-20.104m37.999-4.654-38 4.654 26.53 27.613m31.602-124.219-59.809-29.215m38.312-.352-38.312.352 23.291 30.428m169.359 2301.788-5.852-26.674m24.032 29.764-24.032-29.764-9.402 37.078m16.893-136.265-9.169-17.56m31.016 22.45-31.016-22.45.664 38.29m10.182-146.042-12.484-9.465m37.609 7.04-37.61-7.04 16.933 34.34m-2.77-149.68-15.84-2.386m36.439-11.812-36.439 11.812 31.29 22.059m-13.812-144.008-19.155 3.676m30.43-23.232-30.43 23.232 36.868 10.404M3207.24-882.55l-22.471 8.722m25.711-28.356-25.711 28.356 38.116 3.559m-13.966-135.6-25.828 12.79m23.097-30.546-23.097 30.546 38.273.156m-10.768-135.717-29.182 15.801m21.965-31.367-21.965 31.367 38.272-1.29m-7.451-136.812-32.46 17.835m21.77-31.485-21.77 31.485 38.234-1.447m-4.097-138.142-35.814 18.812m22.316-31.093-22.316 31.093 38.272-.782m-.82-139.315-39.13 18.813m23.447-30.273-23.447 30.273 38.273.586m2.535-140.175-42.485 17.835m24.968-29.06-24.968 29.06 38.233 2.503m5.93-140.606-45.802 15.801m26.802-27.339-26.802 27.34 37.96 5.005m9.52-140.566-49.158 12.75m28.831-25.148-28.83 25.148 37.453 7.979m13.342-139.98-52.434 8.722m30.938-22.489-30.938 22.489 36.556 11.264m17.556-138.728-55.79 3.637m33.045-19.321-33.045 19.321 35.269 14.862m22.198-136.773-59.144-2.385m34.917-15.723-34.917 15.723 33.512 18.5m27.271-133.84-62.461-9.465m36.439-11.812-36.439 11.812 31.289 22.059m32.85-129.811-65.778-17.561m37.493-7.744-37.493 7.744 28.636 25.344m38.819-124.531-69.132-26.674m38.116-3.637-38.116 3.637 25.788 28.317m176.81 2301.357-16.464-24.131m33.435 18.617-33.435-18.617 5.15 37.938m12.992-139.627-19.82-15.059m37.61 7.079-37.61-7.079 16.933 34.34m4.525-144.595-23.135-6.962m37.726-6.531-37.726 6.531 27.856 26.244m-3.044-144.087-26.49.118m34.177-17.288-34.176 17.288 34.332 16.935m-6.165-141.388-29.806 6.219m30.041-23.741-30.041 23.74 36.985 9.779m-5.501-139.785-33.162 11.225m26.92-27.221-26.92 27.221 37.922 5.241m-3.121-139.784-36.478 15.292m24.969-29.02-24.97 29.02 38.234 2.543m-.078-140.606-39.794 18.304m23.916-29.881-23.916 29.881 38.234 1.252m3.238-141.858-43.15 20.338m23.682-30.077-23.681 30.077 38.272.9m6.554-143.031-46.504 21.394m23.994-29.881-23.994 29.881 38.273 1.213m9.87-143.852-49.782 21.354m24.696-29.255-24.696 29.255 38.195 2.23m13.265-144.361-53.137 20.338m25.866-28.238-25.866 28.238 38.116 3.755m16.659-144.36-56.453 18.304m27.31-26.831-27.31 26.83 37.844 5.711m20.287-143.774-59.808 15.293m28.948-25.071-28.948 25.07 37.453 8.097m24.032-142.679-63.124 11.264m30.704-22.841-30.704 22.841 36.712 10.834m28.09-140.84-66.48 6.219m32.499-20.221-32.498 20.22 35.697 13.846m32.421-138.298-69.757.117m34.176-17.17-34.176 17.17 34.254 17.092m37.18-134.935-73.112-6.961m35.698-13.807-35.698 13.807 32.46 20.298m42.33-130.554-76.467-15.058m36.907-10.168-36.907 10.168 30.313 23.39m47.792-125.079-79.783-24.132m37.766-6.493-37.766 6.493 27.817 26.283m186.135 2300.85-28.48-21.63m37.609 7.08-37.61-7.08 16.932 34.34m13.226-138.532-31.835-12.516m38.155-3.402-38.155 3.402 25.593 28.473m7.881-141.271-35.113-4.458m36.088-12.711-36.088 12.71 31.797 21.277m4.994-141.662-38.468 2.66m32.966-19.438-32.966 19.438 35.346 14.745m4.799-141.701-41.823 8.722m30.041-23.78-30.04 23.78 37.023 9.778m6.437-142.327-45.138 13.807m27.777-26.4-27.777 26.4 37.765 6.375m9.051-143.461-48.455 17.835m26.217-27.887-26.217 27.887 38.038 4.224m12.094-144.869-51.81 20.886m25.36-28.669-25.36 28.669 38.156 3.09m15.332-146.238-55.165 22.88m25.086-28.943-25.086 28.943 38.194 2.699m18.61-147.372-58.443 23.897m25.203-28.825-25.203 28.825 38.156 2.894m21.964-148.076-61.797 23.897m25.749-28.317-25.75 28.317 38.117 3.637m25.359-148.31-65.153 22.88m26.646-27.495-26.646 27.495 38 4.81m28.791-147.958-68.43 20.885m27.74-26.361-27.74 26.361 37.727 6.376m32.381-147.02-71.785 17.834m29.104-24.874-29.104 24.874 37.375 8.37m36.088-145.455-75.14 13.767m30.586-22.998-30.587 22.998 36.79 10.677m39.989-143.187-78.417 8.722m32.108-20.807-32.108 20.807 35.892 13.22m44.203-140.176-81.773 2.66m33.669-18.226-33.669 18.226 34.761 15.997m48.69-136.421-85.128-4.42m35.073-15.293-35.073 15.293 33.317 18.891m53.449-131.688-88.444-12.516m36.322-12.164-36.322 12.164 31.523 21.746m58.599-125.939-91.76-21.629m37.257-8.8-37.258 8.8 29.378 24.523" transform="matrix(.10013 0 0 .09987 -28 271)"/><g clip-path="url(#q)"><path style="fill:none;stroke-width:11.4143;stroke-linecap:round;stroke-linejoin:round;stroke:red;stroke-opacity:1;stroke-miterlimit:10" d="m3595.506-2030.315-330.603 52.644-234.59 39.972-176.654 30.507-139.24 22.88-113.88 16.31-96.247 10.286-83.802 4.576-75.18-1.174-69.405-7.275-66.05-13.884-64.919-21.472-65.933-30.507-69.289-41.615-75.452-55.812-85.323-74.86-100.343-101.533-123.245-141.075-158.942-204.044-217.696-314.222" transform="matrix(.10013 0 0 .09987 -28 271)"/></g><g clip-path="url(#r)"><path style="fill:none;stroke-width:11.4143;stroke-linecap:round;stroke-linejoin:round;stroke:red;stroke-opacity:1;stroke-miterlimit:10" d="m3595.506-1909.03-315.739 75.563-220.271 65.081-161.322 57.768-122.113 52.33-94.335 48.03-73.853 44.587-58.052 41.614-45.608 39.034-35.424 36.725-27.076 34.653-20.014 32.776-14.005 31.054-8.818 29.451-4.408 27.965-.585 26.595 2.77 25.345 5.579 24.17 7.997 23.076 10.027 22.06 11.743 21.08 13.07 20.143 14.162 19.282 14.942 18.421 15.527 17.64 15.84 16.856 15.996 16.036 15.956 15.293 15.762 14.55 15.45 13.806 15.058 13.063 14.592 12.398 13.967 11.616 13.381 10.99 12.719 10.287 12.055 9.66 11.392 9.035 10.69 8.41 9.987 7.821 9.364 7.275 8.7 6.727 8.075 6.22 7.452 5.748 6.945 5.32 6.359 4.889 5.89 4.497 5.385 4.146 4.993 3.755 4.526 3.48 4.175 3.169 3.784 2.894 3.511 2.66 3.16 2.425 2.926 2.19 2.614 2.034 2.419 1.799 2.185 1.682 1.99 1.525 1.833 1.369 1.639 1.251 1.482 1.135 1.366 1.016 1.248.94 1.132.86 1.014.782.936.704.82.626.74.586.703.509.624.47.546.43.508.39.468.352.429.313.39.313.351.235.312.235.273.234.235.196.468.313.156.156.195.117.312.235.117.117.234.157.078.039.156.156.156.079.117.117.078.04.04.038v.04h.038l.04.038h.038v.04h.04l.077.078h.04v.039h.038v.039h.04" transform="matrix(.10013 0 0 .09987 -28 271)"/></g><g clip-path="url(#s)"><path style="fill:none;stroke-width:11.4143;stroke-linecap:round;stroke-linejoin:round;stroke:red;stroke-opacity:1;stroke-miterlimit:10" d="m3595.506-938.832-208.334 67.898-140.605 44.86-98.588 28.787-71.239 17.717-52.786 10.13-39.95 5.045-30.82 1.682-24.228-.508-19.312-1.878-15.644-2.698-12.875-3.13-10.69-3.324-8.973-3.363-7.646-3.246-6.516-3.13-5.657-2.933-4.876-2.777-4.292-2.542-3.784-2.347-3.316-2.112-2.966-1.955-2.613-1.8-2.341-1.603-2.107-1.486-1.834-1.33-1.677-1.212-1.522-1.095-1.326-.978-1.21-.9-1.092-.821-1.014-.743-.898-.665-.78-.587-.702-.547-.663-.509-.586-.43-.546-.391-.468-.352-.43-.352-.39-.274-.35-.274-.625-.47-.273-.195-.234-.195-.195-.157-.195-.117-.195-.156-.156-.118-.117-.117-.156-.078-.117-.079-.078-.078-.117-.078-.156-.156-.078-.04-.04-.039-.077-.039-.04-.039-.077-.039-.079-.078v-.04h-.039l-.039-.038h-.039v-.04h-.039l-.039-.039h-.039v-.039h-.039v-.039h-.039l-.039-.039" transform="matrix(.10013 0 0 .09987 -28 271)"/></g><g clip-path="url(#t)"><path style="fill:none;stroke-width:11.4143;stroke-linecap:round;stroke-linejoin:round;stroke:red;stroke-opacity:1;stroke-miterlimit:10" d="m3196.005-211.163-25.32-126.604-30.977-90.152-32.108-66.88-31.016-51.275-28.91-40.324-26.373-32.424-23.837-26.517-21.34-22.02-19.078-18.5-16.971-15.723-15.098-13.454-13.46-11.655-11.977-10.052-10.651-8.839-9.52-7.705-8.465-6.805-7.57-6.023-6.748-5.32-6.048-4.732-5.423-4.224-4.837-3.755-4.37-3.363-3.901-2.973-3.511-2.699-3.121-2.424-2.848-2.152-2.536-1.955-2.302-1.721-2.068-1.565-1.834-1.447-1.677-1.251-1.522-1.134-1.365-1.056-1.21-.94-1.131-.82-.975-.783-.898-.665-.819-.625-.741-.548-.663-.508-.625-.47-.546-.39-.468-.392-.43-.352-.428-.274-.703-.547-.273-.235-.273-.196-.234-.195-.234-.157-.195-.156-.195-.117-.156-.118-.117-.117-.156-.117-.234-.157-.156-.156-.078-.04-.078-.078-.156-.078-.156-.156h-.04l-.078-.078h-.039l-.078-.079h-.039v-.039h-.039v-.039h-.039l-.039-.039" transform="matrix(.10013 0 0 .09987 -28 271)"/></g><g clip-path="url(#u)"><path style="fill:none;stroke-width:11.4143;stroke-linecap:round;stroke-linejoin:round;stroke:red;stroke-opacity:1;stroke-miterlimit:10" d="m2397.004-211.163 120.63-172.325 88.717-115.261 64.568-79.827 46.466-56.75 32.966-41.068 23.135-30.233 15.957-22.567 10.729-17.014 7.022-13.024 4.33-10.09 2.498-7.901 1.209-6.258.312-5.045-.273-4.029-.663-3.363-.937-2.777-1.014-2.308-1.131-1.955-1.093-1.682-1.092-1.447-1.053-1.252-1.015-1.095-1.794-1.8-.82-.742-.741-.665-.663-.587-.663-.547-.547-.47-.507-.39-.468-.392-.43-.352-.39-.313-.35-.274-.625-.469-.273-.196-.234-.195-.234-.157-.156-.156-.195-.117-.312-.235-.117-.117-.234-.157-.078-.078-.117-.078-.078-.04-.04-.078-.155-.078-.196-.195h-.039l-.039-.04h-.039v-.039h-.039l-.039-.039h-.039v-.039h-.039v-.039h-.039l-.039-.039" transform="matrix(.10013 0 0 .09987 -28 271)"/></g><g clip-path="url(#v)"><path style="fill:none;stroke-width:11.4143;stroke-linecap:round;stroke-linejoin:round;stroke:red;stroke-opacity:1;stroke-miterlimit:10" d="m1198.502-211.163 69.366-250.9 52.669-178.035 40.184-134.074 30.158-105.68 21.457-86.436 13.616-73.021 6.008-63.595-1.56-57.064-9.559-52.683-18.297-50.141-28.324-49.241-40.184-50.024-54.815-52.605-73.58-57.259-98.626-64.769-133.778-76.15-185.9-93.515-268.844-120.62L104.44-1992.22l-706.773-245.229" transform="matrix(.10013 0 0 .09987 -28 271)"/></g><g clip-path="url(#w)"><path style="fill:none;stroke-width:11.4143;stroke-linecap:round;stroke-linejoin:round;stroke:red;stroke-opacity:1;stroke-miterlimit:10" d="m1997.503-211.163 144.975-197.043 119.07-132.002 97.573-91.325 79.588-64.338 64.49-45.722 52.083-32.54 41.98-23.076 33.746-16.153 27.193-11.147 21.925-7.47 17.752-4.772 14.435-2.855 11.86-1.408 9.753-.47 8.115.235 6.789.744 5.735 1.016 4.876 1.174 4.175 1.33 3.628 1.33 3.121 1.33 2.731 1.29 2.419 1.29 2.146 1.174 1.872 1.095 1.717 1.056 1.483.939 1.365.9 1.21.82 1.053.744.975.665.897.664.78.548.742.509.624.469.585.43.547.43.468.352.429.313.39.274.351.274.312.234.273.235.273.196.469.313.195.156.156.156.156.118.156.078.117.117.234.157.078.078.117.078.078.04.04.078.155.078.156.156h.04l.116.118h.04l.038.039h.04v.039h.038v.039h.04v.039h.038" transform="matrix(.10013 0 0 .09987 -28 271)"/></g><g clip-path="url(#x)"><path style="fill:none;stroke-width:11.4143;stroke-linecap:round;stroke-linejoin:round;stroke:red;stroke-opacity:1;stroke-miterlimit:10" d="m1598.002-211.163 130.033-223.17 113.998-152.574 101.32-108.338 90.472-78.614 80.836-57.533 72.137-41.967 64.216-30.311 57.038-21.277 50.562-14.276 44.749-8.839 39.638-4.615 35.073-1.29 31.133 1.173 27.661 3.09 24.618 4.458 22.003 5.437 19.741 6.1 17.713 6.493 15.956 6.688 14.435 6.728 13.07 6.649 11.86 6.492 10.729 6.219 9.831 5.945 8.895 5.632 8.154 5.319 7.413 4.967 6.788 4.615 6.164 4.303 5.618 3.989 5.15 3.676 4.682 3.403 4.252 3.129 3.902 2.855 3.55 2.62 3.238 2.386 2.926 2.19 2.692 2.034 2.419 1.8 2.224 1.681 2.028 1.487 1.795 1.408 1.678 1.251 1.521 1.134 1.366 1.017 1.248.939 1.093.86 1.053.783.897.704.859.625.74.587.703.509.624.508.585.43.508.391.468.352.429.313.702.548.312.235.312.195.469.391.39.313.195.117.156.118.117.117.156.078.117.079.078.078.117.078.156.156.156.079.117.117.078.04.04.038v.04h.038l.04.038h.038v.04h.04l.077.078h.04v.039h.038v.039h.04" transform="matrix(.10013 0 0 .09987 -28 271)"/></g><g clip-path="url(#y)"><path style="fill:none;stroke-width:11.4143;stroke-linecap:round;stroke-linejoin:round;stroke:red;stroke-opacity:1;stroke-miterlimit:10" d="m1358.302-211.163 99.602-239.597 85.752-167.162 76.116-122.458 68.937-92.655 63.32-71.613 58.715-56.047 54.815-44.079 51.42-34.574 48.416-26.909 45.685-20.572 43.188-15.176 40.886-10.599 38.82-6.727 36.828-3.325 35.073-.43 33.396 2.073 31.835 4.224 30.392 6.102 29.065 7.626 27.74 8.879 26.606 9.934 25.398 10.716 24.267 11.343 23.252 11.811 22.16 12.008 21.184 12.124 20.131 12.125 19.195 11.968 18.18 11.733 17.206 11.42 16.307 11.07 15.372 10.599 14.435 10.169 13.577 9.66 12.718 9.152 11.86 8.605 11.08 8.135 10.339 7.588 9.558 7.079 8.895 6.61 8.193 6.14 7.608 5.671 6.983 5.241 6.438 4.85 11.392 8.565 4.954 3.755 4.604 3.442 4.175 3.168 3.823 2.894 3.472 2.66 3.2 2.386 2.886 2.19 2.653 2.034 2.419 1.838 2.185 1.643 1.99 1.525 1.833 1.369 1.639 1.251 1.482 1.135 1.366 1.016 1.248.94 1.132.86 1.014.782.897.704.859.626.74.586.703.509.624.47.546.43.508.39.468.352.429.313.39.313.351.235.312.235.273.234.235.196.468.313.156.156.195.117.312.235.117.117.234.157.078.039.156.156.156.079.117.117.078.04.04.038v.04h.038l.04.038h.038v.04h.04l.077.078h.04v.039h.038v.039h.04" transform="matrix(.10013 0 0 .09987 -28 271)"/></g><g clip-path="url(#z)"><path style="fill:none;stroke-width:11.4143;stroke-linecap:round;stroke-linejoin:round;stroke:red;stroke-opacity:1;stroke-miterlimit:10" d="m1278.402-211.163 85.518-245.229 70.81-172.481 60.51-128.012 52.825-98.717 46.855-78.302 42.057-63.478 38.078-52.252 34.722-43.57 31.835-36.687 29.377-31.055 27.154-26.4 25.32-22.528 23.603-19.204 22.121-16.31 20.872-13.767 19.741-11.577 18.766-9.543 17.946-7.783 17.244-6.101 16.698-4.616 16.269-3.168 15.917-1.877 15.684-.626 15.605.587 15.567 1.682 15.566 2.816 15.762 3.833 15.918 4.889 16.23 5.827 16.541 6.806 16.893 7.744 17.283 8.565 17.712 9.465 18.103 10.247 18.57 10.99 19 11.734 19.35 12.32 19.703 12.907 20.014 13.454 20.248 13.846 20.404 14.197 20.56 14.51 20.522 14.667 20.482 14.745 20.365 14.785 20.053 14.705 19.78 14.55 19.39 14.354 18.882 14.002 18.337 13.689 17.712 13.259 17.088 12.789 16.347 12.32 15.644 11.734 14.904 11.225 14.084 10.638 13.342 10.09 12.602 9.505 11.782 8.917 11.04 8.37 10.3 7.783 9.637 7.275 8.895 6.766 8.31 6.297 7.647 5.789 7.061 5.358 6.554 4.967 5.97 4.537 5.54 4.185 5.032 3.833 4.682 3.52 4.213 3.246 3.902 2.934 3.55 2.698 3.238 2.464 2.965 2.23 2.692 2.072 2.458 1.839 2.224 1.72 3.901 2.934 1.678 1.29 1.521 1.135 1.405 1.056 1.248.978 1.131.86 1.054.782.936.704.858.665.742.587.702.508.663.509.546.43.547.391.468.352.429.313.39.313.351.274.312.234.273.235.273.196.469.313.195.156.156.156.156.118.156.078.117.117.234.157.078.078.117.078.078.04.04.078.155.078.156.156h.04l.116.118h.04l.038.039h.04v.039h.038v.039h.04v.039h.038" transform="matrix(.10013 0 0 .09987 -28 271)"/></g><g clip-path="url(#A)"><path style="fill:none;stroke-width:11.4143;stroke-linecap:round;stroke-linejoin:round;stroke:red;stroke-opacity:1;stroke-miterlimit:10" d="m3595.506-1969.693-323.112 64.925-227.255 53.74-168.695 45.916-130.072 40.09-103.192 35.552-83.606 31.915-68.898 28.903-57.39 26.361-48.337 24.132-40.926 22.294-34.8 20.65-29.69 19.204-25.28 17.913-21.458 16.78-18.18 15.84-15.216 14.98-12.601 14.236-10.26 13.61-8.038 13.103-6.086 12.672-4.174 12.36-2.458 12.085-.82 11.89.742 11.85 2.263 11.773 3.667 11.85 5.072 11.969 6.398 12.085 7.725 12.32 8.973 12.516 10.143 12.828 11.353 13.142 12.446 13.415 13.499 13.767 14.474 14.08 15.449 14.394 16.269 14.705 17.01 14.941 17.673 15.214 18.297 15.371 18.727 15.488 19.078 15.567 19.312 15.605 19.467 15.567 19.468 15.41 19.39 15.253 19.156 15.019 18.882 14.667 18.493 14.353 18.024 13.924 17.44 13.454 16.892 12.946 16.191 12.438 15.528 11.85 14.747 11.304 14.045 10.716 13.264 10.13 12.524 9.504 11.743 8.957 11.04 8.409 10.3 7.822 9.559 7.275 8.934 6.805 8.27 6.258 7.648 5.828 7.061 5.358 6.515 4.967 6.008 4.537 5.501 4.185 5.072 3.833 4.643 3.52 4.252 3.246 3.863 2.934 3.55 2.698 3.238 2.464 2.965 2.23 2.692 2.072 2.458 1.839 2.224 1.72 3.901 2.934 1.678 1.29 1.521 1.135 1.405 1.056 1.248.978 1.131.86 1.054.782.936.704.858.665.742.587.702.508.663.509.546.43.547.391.468.352.429.313.39.313.351.274.312.234.273.235.273.196.469.313.195.156.156.156.156.118.156.078.117.117.234.157.078.078.117.078.078.04.04.078.155.078.156.156h.04l.116.118h.04l.038.039h.04v.039h.038v.039h.04v.039h.038" transform="matrix(.10013 0 0 .09987 -28 271)"/></g><g clip-path="url(#B)"><path style="fill:none;stroke-width:11.4143;stroke-linecap:round;stroke-linejoin:round;stroke:red;stroke-opacity:1;stroke-miterlimit:10" d="m1989.505-1429.993-.858-.665-.936-.704-1.015-.783-1.17-.86-1.288-.978-1.404-1.095-1.6-1.173-1.716-1.33-1.95-1.486-2.186-1.643-2.38-1.8-2.652-2.033-2.965-2.268-3.317-2.464-3.667-2.816-4.096-3.09-4.604-3.481-5.11-3.911-5.736-4.342-6.437-4.889-7.179-5.475-8.153-6.18-9.13-6.923-10.338-7.822-11.704-8.917-13.304-10.091-15.176-11.499-17.323-13.141-19.936-15.136-23.018-17.483-26.724-20.26-31.29-23.74-36.828-27.965-43.852-33.284-52.707-40.011-64.295-48.772-79.666-60.467-100.694-76.423-130.618-99.109-175.094-132.9-245.591-186.406-366.963-278.513-603.933-458.308" transform="matrix(.10013 0 0 .09987 -28 271)"/></g></svg>