<svg xmlns="http://www.w3.org/2000/svg" xmlns:xlink="http://www.w3.org/1999/xlink" width="488" height="275pt" viewBox="0 0 366 275"><defs><clipPath id="a"><path d="M182 9.5h2v255h-2zm0 0"/></clipPath><clipPath id="b"><path d="M13 136h340v2H13zm0 0"/></clipPath><clipPath id="c"><path d="M13 9.5h1v255h-1zm0 0"/></clipPath><clipPath id="d"><path d="M69 9.5h1v255h-1zm0 0"/></clipPath><clipPath id="e"><path d="M126 9.5h1v255h-1zm0 0"/></clipPath><clipPath id="f"><path d="M182 9.5h2v255h-2zm0 0"/></clipPath><clipPath id="g"><path d="M239 9.5h1v255h-1zm0 0"/></clipPath><clipPath id="h"><path d="M296 9.5h1v255h-1zm0 0"/></clipPath><clipPath id="i"><path d="M352 9.5h1v255h-1zm0 0"/></clipPath><clipPath id="j"><path d="M13 264h340v.5H13zm0 0"/></clipPath><clipPath id="k"><path d="M13 221h340v2H13zm0 0"/></clipPath><clipPath id="l"><path d="M13 179h340v1H13zm0 0"/></clipPath><clipPath id="m"><path d="M13 136h340v2H13zm0 0"/></clipPath><clipPath id="n"><path d="M13 94h340v1H13zm0 0"/></clipPath><clipPath id="o"><path d="M13 51h340v2H13zm0 0"/></clipPath><clipPath id="p"><path d="M13 9.5h340v.5H13zm0 0"/></clipPath><clipPath id="v"><path d="M13 9.5h223v255H13zm0 0"/></clipPath><clipPath id="w"><path d="M130 9.5h223v255H130zm0 0"/></clipPath><clipPath id="x"><path d="M150 71h121v193.5H150zm0 0"/></clipPath><clipPath id="y"><path d="M95 9.5h121V203H95zm0 0"/></clipPath><symbol overflow="visible" id="q"><path style="stroke:none" d="M2.125-2.344H.344v.547h1.781zm0 0"/></symbol><symbol overflow="visible" id="r"><path style="stroke:none" d="M1.656-2.438h.36c.734 0 1.109.329 1.109.954 0 .671-.422 1.078-1.11 1.078-.718 0-1.078-.36-1.109-1.14H.234c.032.421.11.702.235.952.281.5.797.766 1.531.766 1.094 0 1.797-.656 1.797-1.656 0-.672-.266-1.047-.906-1.266.5-.203.75-.578.75-1.11 0-.906-.61-1.453-1.625-1.453-1.079 0-1.641.579-1.657 1.72h.657c0-.329.03-.516.109-.673.156-.296.484-.468.906-.468.578 0 .938.343.938.906 0 .375-.14.594-.438.719-.172.078-.406.109-.875.109zm0 0"/></symbol><symbol overflow="visible" id="s"><path style="stroke:none" d="M3.797-.656H1c.063-.438.313-.703.953-1.094l.75-.406c.75-.406 1.125-.953 1.125-1.594 0-.453-.172-.86-.484-1.14-.328-.298-.719-.423-1.219-.423-.672 0-1.172.235-1.469.688-.187.281-.265.61-.281 1.156h.656c.032-.36.078-.578.157-.75.171-.328.515-.515.921-.515.594 0 1.047.421 1.047.984 0 .422-.25.781-.719 1.063l-.687.39C.64-1.672.312-1.172.25 0h3.547zm0 0"/></symbol><symbol overflow="visible" id="t"><path style="stroke:none" d="M1.938-3.781V0h.671v-5.313h-.437c-.235.813-.39.922-1.406 1.047v.485zm0 0"/></symbol><symbol overflow="visible" id="u"><path style="stroke:none" d="M2.063-5.313c-.5 0-.938.22-1.22.579C.5-4.266.329-3.563.329-2.578c0 1.797.594 2.75 1.734 2.75 1.126 0 1.735-.953 1.735-2.703 0-1.031-.156-1.719-.516-2.203-.281-.375-.719-.579-1.219-.579zm0 .579c.718 0 1.062.718 1.062 2.14 0 1.516-.344 2.219-1.078 2.219C1.344-.375 1-1.109 1-2.563c0-1.453.344-2.171 1.063-2.171zm0 0"/></symbol></defs><g clip-path="url(#a)"><path style="fill:none;stroke-width:6.25;stroke-linecap:round;stroke-linejoin:miter;stroke:#bfbfbf;stroke-opacity:1;stroke-miterlimit:10" d="M1830 105v2550" transform="matrix(.1 0 0 -.1 0 275)"/></g><g clip-path="url(#b)"><path style="fill:none;stroke-width:6.25;stroke-linecap:round;stroke-linejoin:miter;stroke:#bfbfbf;stroke-opacity:1;stroke-miterlimit:10" d="M130 1380h3400" transform="matrix(.1 0 0 -.1 0 275)"/></g><g clip-path="url(#c)"><path style="fill:none;stroke-width:6.25;stroke-linecap:round;stroke-linejoin:miter;stroke:#bfbfbf;stroke-opacity:1;stroke-dasharray:12.5,18.75;stroke-miterlimit:10" d="M130 105v2550" transform="matrix(.1 0 0 -.1 0 275)"/></g><g clip-path="url(#d)"><path style="fill:none;stroke-width:6.25;stroke-linecap:round;stroke-linejoin:miter;stroke:#bfbfbf;stroke-opacity:1;stroke-dasharray:12.5,18.75;stroke-miterlimit:10" d="M696.68 105v2550" transform="matrix(.1 0 0 -.1 0 275)"/></g><g clip-path="url(#e)"><path style="fill:none;stroke-width:6.25;stroke-linecap:round;stroke-linejoin:miter;stroke:#bfbfbf;stroke-opacity:1;stroke-dasharray:12.5,18.75;stroke-miterlimit:10" d="M1263.32 105v2550" transform="matrix(.1 0 0 -.1 0 275)"/></g><g clip-path="url(#f)"><path style="fill:none;stroke-width:6.25;stroke-linecap:round;stroke-linejoin:miter;stroke:#bfbfbf;stroke-opacity:1;stroke-dasharray:12.5,18.75;stroke-miterlimit:10" d="M1830 105v2550" transform="matrix(.1 0 0 -.1 0 275)"/></g><g clip-path="url(#g)"><path style="fill:none;stroke-width:6.25;stroke-linecap:round;stroke-linejoin:miter;stroke:#bfbfbf;stroke-opacity:1;stroke-dasharray:12.5,18.75;stroke-miterlimit:10" d="M2396.68 105v2550" transform="matrix(.1 0 0 -.1 0 275)"/></g><g clip-path="url(#h)"><path style="fill:none;stroke-width:6.25;stroke-linecap:round;stroke-linejoin:miter;stroke:#bfbfbf;stroke-opacity:1;stroke-dasharray:12.5,18.75;stroke-miterlimit:10" d="M2963.32 105v2550" transform="matrix(.1 0 0 -.1 0 275)"/></g><g clip-path="url(#i)"><path style="fill:none;stroke-width:6.25;stroke-linecap:round;stroke-linejoin:miter;stroke:#bfbfbf;stroke-opacity:1;stroke-dasharray:12.5,18.75;stroke-miterlimit:10" d="M3530 105v2550" transform="matrix(.1 0 0 -.1 0 275)"/></g><g clip-path="url(#j)"><path style="fill:none;stroke-width:6.25;stroke-linecap:round;stroke-linejoin:miter;stroke:#bfbfbf;stroke-opacity:1;stroke-dasharray:12.5,18.75;stroke-miterlimit:10" d="M130 105h3400" transform="matrix(.1 0 0 -.1 0 275)"/></g><g clip-path="url(#k)"><path style="fill:none;stroke-width:6.25;stroke-linecap:round;stroke-linejoin:miter;stroke:#bfbfbf;stroke-opacity:1;stroke-dasharray:12.5,18.75;stroke-miterlimit:10" d="M130 530h3400" transform="matrix(.1 0 0 -.1 0 275)"/></g><g clip-path="url(#l)"><path style="fill:none;stroke-width:6.25;stroke-linecap:round;stroke-linejoin:miter;stroke:#bfbfbf;stroke-opacity:1;stroke-dasharray:12.5,18.75;stroke-miterlimit:10" d="M130 955h3400" transform="matrix(.1 0 0 -.1 0 275)"/></g><g clip-path="url(#m)"><path style="fill:none;stroke-width:6.25;stroke-linecap:round;stroke-linejoin:miter;stroke:#bfbfbf;stroke-opacity:1;stroke-dasharray:12.5,18.75;stroke-miterlimit:10" d="M130 1380h3400" transform="matrix(.1 0 0 -.1 0 275)"/></g><g clip-path="url(#n)"><path style="fill:none;stroke-width:6.25;stroke-linecap:round;stroke-linejoin:miter;stroke:#bfbfbf;stroke-opacity:1;stroke-dasharray:12.5,18.75;stroke-miterlimit:10" d="M130 1805h3400" transform="matrix(.1 0 0 -.1 0 275)"/></g><g clip-path="url(#o)"><path style="fill:none;stroke-width:6.25;stroke-linecap:round;stroke-linejoin:miter;stroke:#bfbfbf;stroke-opacity:1;stroke-dasharray:12.5,18.75;stroke-miterlimit:10" d="M130 2230h3400" transform="matrix(.1 0 0 -.1 0 275)"/></g><g clip-path="url(#p)"><path style="fill:none;stroke-width:6.25;stroke-linecap:round;stroke-linejoin:miter;stroke:#bfbfbf;stroke-opacity:1;stroke-dasharray:12.5,18.75;stroke-miterlimit:10" d="M130 2655h3400" transform="matrix(.1 0 0 -.1 0 275)"/></g><path style="fill:none;stroke-width:12.5;stroke-linecap:square;stroke-linejoin:miter;stroke:#000;stroke-opacity:1;stroke-miterlimit:10" d="M130 105h3400" transform="matrix(.1 0 0 -.1 0 275)"/><path style="fill:none;stroke-width:6.25;stroke-linecap:butt;stroke-linejoin:miter;stroke:#000;stroke-opacity:1;stroke-miterlimit:10" d="M130 105v50m56.68-50v25m56.64-25v25M300 105v25m56.68-25v25m56.64-25v25M470 105v25m56.68-25v25m56.64-25v25M640 105v25m56.68-25v50m56.64-50v25M810 105v25m56.68-25v25m56.64-25v25M980 105v25m56.68-25v25m56.64-25v25m56.68-25v25m56.68-25v25m56.64-25v50m56.68-50v25m56.68-25v25m56.64-25v25m56.68-25v25m56.68-25v25m56.64-25v25m56.68-25v25m56.68-25v25m56.64-25v25m56.68-25v50m56.68-50v25m56.64-25v25m56.68-25v25m56.68-25v25m56.64-25v25m56.68-25v25m56.68-25v25m56.64-25v25m56.68-25v25m56.68-25v50m56.64-50v25m56.68-25v25m56.68-25v25m56.64-25v25m56.68-25v25m56.68-25v25m56.64-25v25m56.68-25v25m56.68-25v25m56.64-25v50m56.68-50v25m56.68-25v25m56.64-25v25m56.68-25v25m56.68-25v25m56.64-25v25m56.68-25v25m56.68-25v25m56.64-25v25m56.68-25v50" transform="matrix(.1 0 0 -.1 0 275)"/><g style="fill:#000;fill-opacity:1"><use xlink:href="#q" x="9.042" y="274.5"/><use xlink:href="#r" x="11.539" y="274.5"/></g><g style="fill:#000;fill-opacity:1"><use xlink:href="#q" x="65.917" y="274.5"/><use xlink:href="#s" x="68.414" y="274.5"/></g><g style="fill:#000;fill-opacity:1"><use xlink:href="#q" x="122.792" y="274.5"/><use xlink:href="#t" x="125.289" y="274.5"/></g><use xlink:href="#u" x="180.915" y="274.5" style="fill:#000;fill-opacity:1"/><use xlink:href="#t" x="237.165" y="274.5" style="fill:#000;fill-opacity:1"/><use xlink:href="#s" x="294.04" y="274.5" style="fill:#000;fill-opacity:1"/><use xlink:href="#r" x="350.915" y="274.5" style="fill:#000;fill-opacity:1"/><path style="fill:none;stroke-width:12.5;stroke-linecap:square;stroke-linejoin:miter;stroke:#000;stroke-opacity:1;stroke-miterlimit:10" d="M130 2655h3400" transform="matrix(.1 0 0 -.1 0 275)"/><path style="fill:none;stroke-width:6.25;stroke-linecap:butt;stroke-linejoin:miter;stroke:#000;stroke-opacity:1;stroke-miterlimit:10" d="M130 2655v-50m56.68 50v-25m56.64 25v-25m56.68 25v-25m56.68 25v-25m56.64 25v-25m56.68 25v-25m56.68 25v-25m56.64 25v-25m56.68 25v-25m56.68 25v-50m56.64 50v-25m56.68 25v-25m56.68 25v-25m56.64 25v-25m56.68 25v-25m56.68 25v-25m56.64 25v-25m56.68 25v-25m56.68 25v-25m56.64 25v-50m56.68 50v-25m56.68 25v-25m56.64 25v-25m56.68 25v-25m56.68 25v-25m56.64 25v-25m56.68 25v-25m56.68 25v-25m56.64 25v-25m56.68 25v-50m56.68 50v-25m56.64 25v-25m56.68 25v-25m56.68 25v-25m56.64 25v-25m56.68 25v-25m56.68 25v-25m56.64 25v-25m56.68 25v-25m56.68 25v-50m56.64 50v-25m56.68 25v-25m56.68 25v-25m56.64 25v-25m56.68 25v-25m56.68 25v-25m56.64 25v-25m56.68 25v-25m56.68 25v-25m56.64 25v-50m56.68 50v-25m56.68 25v-25m56.64 25v-25m56.68 25v-25m56.68 25v-25m56.64 25v-25m56.68 25v-25m56.68 25v-25m56.64 25v-25m56.68 25v-50" transform="matrix(.1 0 0 -.1 0 275)"/><g style="fill:#000;fill-opacity:1"><use xlink:href="#q" x="9.042" y="6.375"/><use xlink:href="#r" x="11.539" y="6.375"/></g><g style="fill:#000;fill-opacity:1"><use xlink:href="#q" x="65.917" y="6.375"/><use xlink:href="#s" x="68.414" y="6.375"/></g><g style="fill:#000;fill-opacity:1"><use xlink:href="#q" x="122.792" y="6.375"/><use xlink:href="#t" x="125.289" y="6.375"/></g><use xlink:href="#u" x="180.915" y="6.375" style="fill:#000;fill-opacity:1"/><use xlink:href="#t" x="237.165" y="6.375" style="fill:#000;fill-opacity:1"/><use xlink:href="#s" x="294.04" y="6.375" style="fill:#000;fill-opacity:1"/><use xlink:href="#r" x="350.915" y="6.375" style="fill:#000;fill-opacity:1"/><path style="fill:none;stroke-width:12.5;stroke-linecap:square;stroke-linejoin:miter;stroke:#000;stroke-opacity:1;stroke-miterlimit:10" d="M130 105v2550" transform="matrix(.1 0 0 -.1 0 275)"/><path style="fill:none;stroke-width:6.25;stroke-linecap:butt;stroke-linejoin:miter;stroke:#000;stroke-opacity:1;stroke-miterlimit:10" d="M130 105h50m-50 42.5h25M130 190h25m-25 42.5h25M130 275h25m-25 42.5h25M130 360h25m-25 42.5h25M130 445h25m-25 42.5h25M130 530h50m-50 42.5h25M130 615h25m-25 42.5h25M130 700h25m-25 42.5h25M130 785h25m-25 42.5h25M130 870h25m-25 42.5h25M130 955h50m-50 42.5h25m-25 42.5h25m-25 42.5h25m-25 42.5h25m-25 42.5h25m-25 42.5h25m-25 42.5h25m-25 42.5h25m-25 42.5h25m-25 42.5h50m-50 42.5h25m-25 42.5h25m-25 42.5h25m-25 42.5h25m-25 42.5h25m-25 42.5h25m-25 42.5h25m-25 42.5h25m-25 42.5h25m-25 42.5h50m-50 42.5h25m-25 42.5h25m-25 42.5h25m-25 42.5h25m-25 42.5h25m-25 42.5h25m-25 42.5h25m-25 42.5h25m-25 42.5h25m-25 42.5h50m-50 42.5h25m-25 42.5h25m-25 42.5h25m-25 42.5h25m-25 42.5h25m-25 42.5h25m-25 42.5h25m-25 42.5h25m-25 42.5h25m-25 42.5h50" transform="matrix(.1 0 0 -.1 0 275)"/><g style="fill:#000;fill-opacity:1"><use xlink:href="#q" x="-.542" y="268.25"/><use xlink:href="#r" x="1.956" y="268.25"/></g><g style="fill:#000;fill-opacity:1"><use xlink:href="#q" x="-.542" y="225.125"/><use xlink:href="#s" x="1.956" y="225.125"/></g><g style="fill:#000;fill-opacity:1"><use xlink:href="#q" x="-.542" y="183.25"/><use xlink:href="#t" x="1.956" y="183.25"/></g><use xlink:href="#u" x="1.955" y="140.125" style="fill:#000;fill-opacity:1"/><use xlink:href="#t" x="1.955" y="98.25" style="fill:#000;fill-opacity:1"/><use xlink:href="#s" x="1.955" y="55.125" style="fill:#000;fill-opacity:1"/><use xlink:href="#r" x="1.955" y="12.625" style="fill:#000;fill-opacity:1"/><path style="fill:none;stroke-width:12.5;stroke-linecap:square;stroke-linejoin:miter;stroke:#000;stroke-opacity:1;stroke-miterlimit:10" d="M3530 105v2550" transform="matrix(.1 0 0 -.1 0 275)"/><path style="fill:none;stroke-width:6.25;stroke-linecap:butt;stroke-linejoin:miter;stroke:#000;stroke-opacity:1;stroke-miterlimit:10" d="M3530 105h-50m50 42.5h-25m25 42.5h-25m25 42.5h-25m25 42.5h-25m25 42.5h-25m25 42.5h-25m25 42.5h-25m25 42.5h-25m25 42.5h-25m25 42.5h-50m50 42.5h-25m25 42.5h-25m25 42.5h-25m25 42.5h-25m25 42.5h-25m25 42.5h-25m25 42.5h-25m25 42.5h-25m25 42.5h-25m25 42.5h-50m50 42.5h-25m25 42.5h-25m25 42.5h-25m25 42.5h-25m25 42.5h-25m25 42.5h-25m25 42.5h-25m25 42.5h-25m25 42.5h-25m25 42.5h-50m50 42.5h-25m25 42.5h-25m25 42.5h-25m25 42.5h-25m25 42.5h-25m25 42.5h-25m25 42.5h-25m25 42.5h-25m25 42.5h-25m25 42.5h-50m50 42.5h-25m25 42.5h-25m25 42.5h-25m25 42.5h-25m25 42.5h-25m25 42.5h-25m25 42.5h-25m25 42.5h-25m25 42.5h-25m25 42.5h-50m50 42.5h-25m25 42.5h-25m25 42.5h-25m25 42.5h-25m25 42.5h-25m25 42.5h-25m25 42.5h-25m25 42.5h-25m25 42.5h-25m25 42.5h-50" transform="matrix(.1 0 0 -.1 0 275)"/><g style="fill:#000;fill-opacity:1"><use xlink:href="#q" x="359.25" y="268.25"/><use xlink:href="#r" x="361.748" y="268.25"/></g><g style="fill:#000;fill-opacity:1"><use xlink:href="#q" x="359.25" y="225.125"/><use xlink:href="#s" x="361.748" y="225.125"/></g><g style="fill:#000;fill-opacity:1"><use xlink:href="#q" x="359.25" y="183.25"/><use xlink:href="#t" x="361.748" y="183.25"/></g><use xlink:href="#u" x="359.25" y="140.125" style="fill:#000;fill-opacity:1"/><use xlink:href="#t" x="359.25" y="98.25" style="fill:#000;fill-opacity:1"/><use xlink:href="#s" x="359.25" y="55.125" style="fill:#000;fill-opacity:1"/><use xlink:href="#r" x="359.25" y="12.625" style="fill:#000;fill-opacity:1"/><path style="fill:none;stroke-width:6.25;stroke-linecap:round;stroke-linejoin:miter;stroke:#00f;stroke-opacity:1;stroke-miterlimit:10" d="m182.695 205.078 64.61-72.656m-38.945 15.547 38.945-15.547-10.899 40.469m-51.992 160.976 61.172-75.234m-38.203 17.265 38.203-17.265-9.102 40.937m-50.39 163.086 57.812-77.812m-37.422 18.946 37.422-18.946-7.344 41.289m-48.749 165.273 54.375-80.312m-36.524 20.546 36.524-20.546-5.508 41.562m-47.188 167.539 51.016-82.89m-35.625 22.109 35.625-22.11-3.711 41.759M191.21 848.984l47.58-85.43m-34.61 23.634 34.61-23.633-1.876 41.875M192.89 977.734l44.22-87.968m-33.594 25.078 33.593-25.078-.078 41.914m-42.421 174.843 40.78-90.546m-32.5 26.483 32.5-26.483 1.68 41.914m-40.78 177.382 37.42-93.046m-31.405 27.813 31.406-27.813 3.398 41.757m-39.101 180.079 33.984-95.626m-30.234 29.063 30.234-29.063 5.117 41.602m-37.421 182.813 30.625-98.204m-29.063 30.235 29.063-30.235 6.718 41.407m-35.625 185.547 27.188-100.704m-27.891 31.29 27.89-31.29 8.321 41.094m-33.828 188.398 23.828-103.28m-26.719 32.343 26.72-32.344 9.843 40.743m-31.953 191.288 20.39-105.78m-25.507 33.242 25.507-33.243 11.328 40.352m-30.039 194.219 16.993-108.36m-24.297 34.14 24.297-34.14 12.734 39.961m-28.008 197.188 13.594-110.938m-23.164 34.961 23.164-34.96 14.062 39.491m-25.976 200.235 10.234-113.477m-22.07 35.664 22.07-35.664 15.313 39.024m-23.828 203.203 6.796-116.016M197.5 2314.57l20.898-36.328 16.524 38.516m-21.641 206.289 3.399-118.594m-19.805 36.953 19.805-36.953 17.695 38.008M215 2651.836v-121.133m-18.75 37.5 18.75-37.5 18.75 37.5M354.414 200l61.172-62.5m-39.609 13.672 39.609-13.672-12.852 39.922m-46.64 151.328 57.812-65m-38.946 15.547 38.946-15.547-10.898 40.469M357.813 457.54l54.375-67.58m-38.125 17.462 38.125-17.461-8.907 40.976m-43.789 155.391 51.016-70.156m-37.227 19.297 37.227-19.297-6.914 41.367M361.21 715.078l47.58-72.656m-36.212 21.094 36.211-21.094-4.844 41.64M362.89 843.867l44.22-75.234m-35.157 22.851 35.156-22.851-2.851 41.836M364.61 972.656l40.78-77.812m-34.023 24.531 34.024-24.531-.82 41.953m-38.281 164.609 37.42-80.312m-32.85 26.094 32.85-26.094 1.173 41.914m-36.875 167.187 33.984-82.89m-31.562 27.578 31.562-27.578 3.125 41.797m-35.429 169.843 30.625-85.39M370 1302.54l30.313-28.985 5 41.601m-33.907 172.578 27.188-87.968m-28.984 30.274 28.984-30.274 6.836 41.367m-32.344 175.39 23.828-90.546m-27.695 31.523 27.695-31.523 8.594 41.054m-30.703 178.242 20.39-93.046m-26.328 32.617 26.328-32.617 10.274 40.625m-28.985 181.211 17.032-95.626m-25.039 33.633 25.039-33.632 11.875 40.195m-27.188 184.219 13.594-98.204m-23.711 34.61 23.71-34.61 13.438 39.727m-25.351 187.227 10.234-100.704m-22.461 35.43 22.461-35.43 14.844 39.18m-23.359 190.312 6.796-103.28m-21.171 36.171 21.171-36.172 16.25 38.672m-21.367 193.359 3.399-105.78m-19.922 36.874 19.922-36.875 17.539 38.047M385 2517.93v-108.36m-18.75 37.5 18.75-37.5 18.75 37.5m-17.07 199.649-3.399-110.938m-17.578 38.086 17.578-38.086 19.922 36.914M526.094 194.883l57.812-52.266m-40.39 11.25 40.39-11.25-15.234 39.063m-40.859 141.992 54.375-54.844m-39.728 13.438 39.727-13.438-13.085 39.844m-39.61 143.75 51.016-57.344m-38.945 15.547 38.945-15.547-10.899 40.469M531.21 581.21l47.58-59.92m-38.009 17.694 38.008-17.695-8.633 41.016M532.89 710l44.22-62.5m-36.954 19.805L577.11 647.5l-6.367 41.445M534.61 838.75l40.78-65m-35.82 21.797 35.82-21.797-4.023 41.719M536.29 967.54l37.42-67.58m-34.57 23.75 34.57-23.75-1.757 41.876m-33.945 154.492 33.984-70.156m-33.242 25.586 33.242-25.586.508 41.953m-32.812 156.953 30.625-72.656m-31.836 27.266 31.836-27.266 2.734 41.836m-31.641 159.609 27.188-75.234m-30.391 28.907 30.39-28.907 4.884 41.64m-30.391 162.383 23.828-77.812m-28.906 30.39 28.906-30.39 6.953 41.367m-29.062 165.195 20.39-80.312m-27.382 31.719 27.382-31.72 8.946 40.938m-27.657 168.164 17.032-82.89m-25.899 32.968 25.899-32.968 10.82 40.507m-26.133 171.133 13.594-85.39m-24.414 34.062 24.414-34.062 12.617 39.96m-24.531 174.219 10.234-87.968m-22.969 35.078 22.97-35.078 14.296 39.414m-22.812 177.343 6.796-90.546m-21.523 36.015 21.523-36.015 15.899 38.828m-21.016 180.468 3.399-93.046m-20.078 36.757 20.078-36.757 17.383 38.164M555 2384.063v-95.626m-18.75 37.501 18.75-37.5 18.75 37.5m-17.07 186.914-3.399-98.204m-17.421 38.125 17.421-38.125 20.04 36.836m-14.923 190.118-6.796-100.704m-16.172 38.672 16.172-38.672 21.21 36.133M697.813 189.805l54.375-42.07m-41.133 8.085 41.133-8.086-18.165 37.735m-34.531 133.086 51.016-44.61m-40.586 10.586 40.586-10.586-15.899 38.79M701.21 447.344l47.58-47.188m-39.806 13.086 39.805-13.086-13.437 39.727M702.89 576.094l44.22-49.688m-38.946 15.547 38.945-15.547-10.898 40.469M704.61 704.883l40.78-52.266m-37.85 18.008 37.85-18.008-8.28 41.094m-30.82 139.961 37.42-54.844m-36.64 20.43 36.64-20.43-5.663 41.563m-30.039 142.031 33.984-57.344m-35.234 22.695 35.234-22.695-2.969 41.797m-29.335 144.335 30.625-59.92m-33.75 24.882 33.75-24.883-.391 41.914M711.406 1220l27.188-62.46m-32.149 26.874 32.149-26.875 2.226 41.836m-27.734 149.415 23.828-65.04m-30.508 28.75 30.508-28.75 4.688 41.64m-26.797 152.15 20.39-67.58m-28.789 30.509 28.79-30.508 7.109 41.328m-25.821 155.039 16.993-70.156m-27.032 32.031 27.032-32.031 9.414 40.86m-24.688 158.046 13.594-72.656m-25.313 33.398 25.313-33.398 11.523 40.312m-23.437 161.133 10.234-75.234m-23.633 34.648 23.633-34.648 13.516 39.687m-22.031 164.336 6.796-77.812m-21.953 35.742 21.953-35.742 15.43 39.023m-20.547 167.539 3.399-80.312m-20.313 36.679 20.313-36.68 17.187 38.243M725 2250.195v-82.89m-18.75 37.5 18.75-37.5 18.75 37.5m-17.07 174.14-3.399-85.39m-17.226 38.203 17.226-38.203 20.235 36.718m-15.118 177.461-6.796-87.968m-15.821 38.828 15.82-38.828 21.563 35.937m-13.047 180.82-10.234-90.546m-14.414 39.375 14.414-39.375 22.851 35.195M869.492 184.688l51.016-31.875m-41.758 3.984 41.758-3.984-21.875 35.78M871.21 313.477l47.58-34.454m-41.368 6.797 41.367-6.797-19.375 37.188M872.89 442.227l44.22-36.954m-40.82 9.687 40.82-9.687-16.758 38.438M874.61 571.016l40.78-39.532m-39.96 12.618 39.96-12.618-13.867 39.57M876.29 699.805l37.42-42.07m-38.944 15.546 38.945-15.547-10.899 40.47m-24.804 130.351 33.984-44.61m-37.656 18.438 37.656-18.438-7.812 41.172m-24.492 132.227 30.625-47.188m-36.173 21.25 36.173-21.25-4.688 41.68m-24.219 134.258 27.188-49.688m-34.454 23.867 34.454-23.867-1.524 41.875m-23.984 136.602 23.828-52.266m-32.617 26.367 32.617-26.367 1.524 41.914m-23.633 139.141 20.39-54.844m-30.664 28.632 30.664-28.632 4.492 41.719m-23.203 141.875 16.993-57.344m-28.594 30.625 28.594-30.625 7.343 41.25m-22.617 144.882 13.594-59.92m-26.602 32.42 26.602-32.42 10 40.702M889.883 1730l10.234-62.46m-24.57 33.944 24.57-33.945 12.461 40m-20.976 151.251 6.796-65.04m-22.538 35.313 22.538-35.313 14.766 39.219m-19.883 154.571 3.399-67.58m-20.586 36.524 20.586-36.523 16.875 38.398M895 2116.328v-70.156m-18.75 37.5 18.75-37.5 18.75 37.5m-17.07 161.406-3.399-72.656m-16.953 38.32 16.953-38.32 20.508 36.562m-15.391 164.883-6.796-75.234m-15.312 39.062 15.312-39.062 22.03 35.664m-13.515 168.359-10.234-77.812m-13.711 39.648 13.71-39.648 23.477 34.765m-11.562 171.797-13.594-80.312m-12.226 40.078 12.226-40.078 24.727 33.828M1041.21 179.61l47.58-21.68m-41.876-1.524 41.875 1.524-26.367 32.578M1042.89 308.36l44.22-24.22m-41.915 1.602 41.914-1.601-23.906 34.453m-18.593 118.554 40.78-26.796m-41.64 4.921 41.64-4.921-21.054 36.25m-18.046 119.296 37.42-29.296m-41.093 8.358 41.094-8.358-17.969 37.89m-17.734 120.196 33.984-31.875m-40.156 11.953 40.156-11.953-14.531 39.335m-17.773 121.329 30.624-34.454m-38.945 15.587 38.946-15.587-10.899 40.508m-18.008 122.696 27.188-36.954m-37.304 19.102 37.304-19.102-7.11 41.29m-18.398 124.453 23.828-39.532m-35.43 22.461 35.43-22.46-3.281 41.796m-18.828 126.524 20.39-42.11m-33.242 25.586 33.242-25.586.508 41.953m-19.219 128.907 17.032-44.61m-30.899 28.36 30.899-28.36 4.14 41.72m-19.453 131.679 13.594-47.188m-28.399 30.86 28.399-30.86 7.617 41.25m-19.531 134.688 10.234-49.688m-25.898 32.969 25.898-32.969 10.82 40.469m-19.335 138.008 6.796-52.266m-23.438 34.766 23.438-34.766 13.75 39.61m-18.867 141.445 3.438-54.844m-21.055 36.289 21.055-36.289 16.367 38.594m-18.086 145v-57.344m-18.75 37.5 18.75-37.5 18.75 37.5m-17.031 148.632-3.438-59.92m-16.562 38.515 16.562-38.516 20.86 36.367M1068.398 2240l-6.796-62.46m-14.571 39.296 14.57-39.297 22.696 35.234m-14.18 156.017-10.234-65.04m-12.695 39.922 12.695-39.922 24.336 34.14m-12.422 159.65-13.594-67.58m-10.976 40.47 10.976-40.47 25.781 33.087m-10.468 163.281-17.032-70.156m-9.374 40.859 9.374-40.86 27.07 32.032M1212.89 174.492l44.22-11.484m-41.016-8.711 41.015 8.71-31.601 27.579m-10.898 112.695 40.78-14.062m-41.562-5.509 41.563 5.509-29.375 29.96m-9.726 112.852 37.42-16.562m-41.874-1.953 41.875 1.953-26.719 32.344m-8.984 113.007 33.984-19.14m-41.875 2.07 41.875-2.07-23.476 34.726m-8.828 113.204 30.624-21.68m-41.445 6.367 41.446-6.367-19.766 36.953m-9.141 113.477 27.188-24.22m-40.469 10.938 40.469-10.937-15.508 38.945m-10 114.062 23.828-26.796m-38.945 15.586 38.945-15.586-10.898 40.507m-11.211 115.039 20.39-29.296m-36.797 20.038 36.797-20.038-6.015 41.484m-12.696 116.602 17.032-31.876m-34.219 24.258 34.219-24.257-1.133 41.914m-14.18 118.75 13.594-34.454m-31.211 28.008 31.21-28.008 3.673 41.797m-15.586 121.407 10.234-36.954m-28.086 31.172 28.086-31.172 8.086 41.133m-16.601 124.61 6.796-39.532m-24.843 33.789 24.843-33.789 12.11 40.157m-17.227 128.164 3.438-42.11m-21.759 35.899 21.759-35.899 15.664 38.907M1235 1848.555v-44.61m-18.75 37.5 18.75-37.5 18.75 37.5m-17.031 135.899-3.438-47.188m-15.976 38.75 15.976-38.75 21.407 36.055m-16.29 139.883-6.796-49.688m-13.477 39.688 13.477-39.688 23.632 34.61m-15.117 143.867-10.234-52.266m-11.211 40.391 11.21-40.39 25.587 33.202m-13.672 147.852-13.594-54.844m-9.18 40.938 9.18-40.938 27.227 31.875m-11.914 151.719-17.032-57.344m-7.304 41.289 7.304-41.289 28.633 30.625m-9.922 155.507-20.39-59.92m-5.665 41.523 5.665-41.524 29.843 29.453M1384.61 169.375l40.78-1.25m-38.046-17.578 38.047 17.578-36.875 19.883m-2.226 110.156 37.42-3.828m-39.218-14.844 39.219 14.844-35.43 22.46m-.273 110.157 33.984-6.406m-40.312-11.484 40.312 11.484-33.398 25.351m1.094 109.805 30.624-8.906m-41.249-7.5 41.25 7.5-30.782 28.476m1.875 109.219 27.188-11.484m-41.836-2.695 41.836 2.695-27.266 31.836m1.758 108.437 23.828-14.062m-41.836 2.929 41.836-2.93-22.812 35.235m.703 107.578 20.39-16.562m-40.937 9.101 40.937-9.101-17.265 38.203m-1.446 107.148 17.032-19.14m-38.946 15.586 38.946-15.586-10.899 40.507m-4.414 107.423 13.594-21.72m-35.82 21.837 35.82-21.836-4.063 41.757m-7.851 108.712 10.234-24.22m-31.836 27.305 31.836-27.304 2.696 41.836m-11.211 111.171 6.796-26.796m-27.421 31.758 27.421-31.758 8.946 40.976m-14.063 114.57 3.438-29.296m-22.969 35.078 22.969-35.078 14.297 39.414M1405 1714.688v-31.876m-18.75 37.501 18.75-37.5 18.75 37.5m-17.031 123.164-3.438-34.454m-14.961 39.18 14.961-39.18 22.344 35.508m-17.227 127.696-6.796-36.954m-11.68 40.274 11.68-40.274 25.234 33.477m-16.719 132.266-10.234-39.532m-8.789 40.976 8.789-40.976 27.539 31.641m-15.625 136.68-13.594-42.11m-6.328 41.445 6.328-41.445 29.375 29.922m-14.062 140.938-17.032-44.61m-4.14 41.719 4.14-41.719 30.899 28.36m-12.188 145.039-20.39-47.188m-2.345 41.875 2.345-41.875 32.07 26.992m-9.961 148.946-23.828-49.688m-.703 41.914.703-41.914 33.125 25.703M1556.29 164.297l37.42 8.906m-32.147-26.913 32.148 26.913-40.82 9.531m5.117 110.313 33.984 6.406m-33.398-25.351 33.398 25.351-40.312 11.485m8.008 110.898 30.624 3.828m-34.922-23.242 34.922 23.242-39.57 13.945m10.664 111.016 27.188 1.25m-36.563-20.469 36.563 20.469-38.32 16.992m12.812 110.508 23.828-1.25m-38.476-16.719 38.476 16.719-36.445 20.742m14.336 109.297 20.39-3.828m-40.312-11.523 40.312 11.523-33.398 25.351m14.687 107.266 17.032-6.406m-41.719-4.375 41.719 4.375-28.555 30.742m13.242 104.414 13.594-8.906m-41.641 4.883 41.64-4.883-21.054 36.25m9.141 101.445 10.234-11.484m-38.945 15.586 38.945-15.586-10.898 40.508m2.383 99.765 6.796-14.023m-33.242 25.547 33.242-25.547.508 41.914m-5.625 100.859 3.438-16.562m-25.938 32.969 25.938-32.97 10.82 40.509M1575 1580.82v-19.14m-18.75 37.5 18.75-37.5 18.75 37.5m-17.031 110.43-3.438-21.72m-12.695 39.962 12.695-39.961 24.375 34.18m-19.258 116.289-6.796-24.22m-7.93 41.173 7.93-41.172 28.203 31.054m-19.688 121.953-10.234-26.796m-4.141 41.718 4.14-41.718 30.9 28.359m-18.985 127.187-13.594-29.296m-1.25 41.914 1.25-41.914 32.774 26.132m-17.461 131.954-17.032-31.876m1.133 41.915-1.133-41.914 34.22 24.257m-15.509 136.407-20.39-34.454m2.968 41.837-2.968-41.837 35.234 22.735m-13.125 140.469-23.828-36.954m4.531 41.68-4.531-41.68 36.055 21.368m-10.547 144.375-27.188-39.532m5.821 41.524-5.82-41.524 36.718 20.274M1728.008 159.18l33.984 19.14m-23.476-34.726 23.476 34.726-41.875-2.03m9.571 111.679 30.624 16.562m-24.062-34.336 24.063 34.336-41.915-1.367m13.008 113.555 27.188 14.062m-24.727-33.867 24.727 33.867-41.914-.547m16.406 115.274 23.828 11.484m-25.664-33.164 25.664 33.164-41.953.625m19.844 116.68 20.39 8.906m-26.835-32.187 26.835 32.187-41.875 2.149m23.164 117.695 17.032 6.406m-28.556-30.743 28.556 30.743-41.72 4.375m26.407 118.008 13.594 3.828m-31.016-28.204 31.016 28.204-41.172 7.89m29.258 117.071 10.234 1.25m-34.922-23.242 34.922 23.242-39.57 13.984m31.055 113.516 6.796-1.25m-40.312-11.523 40.312 11.523-33.398 25.313m28.281 104.726 3.438-3.828m-38.946 15.586 38.946-15.586-10.938 40.508m9.219 92.109v-6.367m-18.75 37.5 18.75-37.5 18.75 37.5m-17.031 97.617-3.438-8.906m-4.141 41.719 4.141-41.72 30.899 28.36m-25.782 109.336-6.796-11.484m3.008 41.836-3.008-41.836 35.234 22.695m-26.719 117.578-10.234-14.023m6.914 41.328-6.914-41.328 37.226 19.297m-25.312 123.476-13.594-16.562m9.297 40.859-9.297-40.86 38.281 17.11m-22.968 128.242-17.032-19.14m10.899 40.508-10.899-40.508 38.946 15.586m-20.235 132.344-20.39-21.72m12.031 40.196-12.031-40.195 39.336 14.492m-17.227 135.977-23.828-24.22m12.93 39.883-12.93-39.882 39.648 13.593m-14.14 139.414-27.188-26.796m13.554 39.688-13.554-39.688 39.883 12.968m-10.976 142.578-30.626-29.296m14.103 39.453-14.102-39.453 40.078 12.382m129.922-2434.882 30.624 29.296m-14.102-39.453 14.102 39.453-40.078-12.382m11.172 111.836 27.188 26.796m-13.554-39.688 13.554 39.688-39.883-12.968m14.375 114.96 23.828 24.22m-12.93-39.883 12.93 39.882-39.687-13.593m17.578 118.164 20.39 21.68m-12.031-40.157 12.031 40.156-39.336-14.492m20.625 121.563 17.032 19.14m-10.899-40.507 10.899 40.507-38.946-15.586m23.633 125.235 13.594 16.562m-9.297-40.859 9.297 40.86-38.281-17.071m26.367 129.258 10.234 14.062m-6.914-41.367 6.914 41.367-37.226-19.297m28.711 134.024 6.796 11.484m-3.008-41.836 3.008 41.836-35.234-22.695m30.117 140 3.438 8.906m4.141-41.719-4.141 41.72-30.899-28.36m29.18 148.203v6.406m18.75-37.5-18.75 37.5-18.75-37.5m20.469 159.883-3.438 3.828m38.946-15.586-38.946 15.586 10.938-40.469m-5.821 165.43-6.796 1.25m40.312 11.523-40.312-11.523 33.398-25.313m-24.883 152.813-10.234-1.25m34.922 23.242-34.922-23.242 39.531-13.984m-27.617 144.023-13.594-3.828m31.016 28.204-31.016-28.204 41.172-7.89m-25.859 140.507-17.032-6.406m28.556 30.743-28.556-30.743 41.72-4.375m-23.009 139.531-20.39-8.906m26.835 32.187-26.835-32.187 41.875-2.149m-19.766 139.844-23.828-11.484m25.624 33.164-25.624-33.164 41.953-.586m-16.445 140.859-27.188-14.023m24.727 33.828-24.727-33.828 41.914.508m-13.007 142.265-30.626-16.562m24.063 34.336-24.063-34.336 41.915 1.367m-9.61 143.984-33.984-19.14m23.476 34.726-23.476-34.726 41.875 2.03m131.523-2434.726 27.188 39.532m-5.821-41.524 5.82 41.524-36.718-20.274m11.211 109.531 23.828 36.954m-4.531-41.68 4.531 41.68-36.055-21.368m13.946 113.164 20.39 34.454m-2.968-41.837 2.968 41.837-35.234-22.696m16.523 117.032 17.032 31.875m-1.133-41.915 1.133 41.914-34.22-24.257m18.907 121.172 13.594 29.296m1.25-41.875-1.25 41.875-32.774-26.132m20.86 125.586 10.234 26.796m4.141-41.718-4.14 41.718-30.9-28.359m22.384 130.351 6.796 24.22m7.93-41.172-7.93 41.171-28.203-31.015m23.086 135.546 3.438 21.72m12.695-39.962-12.695 39.961-24.375-34.14M2085 1179.18v19.14m18.75-37.5-18.75 37.5-18.75-37.5m20.469 147.149-3.438 16.562m25.938-32.968-25.938 32.968-10.82-40.508m15.937 152.735-6.796 14.023m33.242-25.586-33.242 25.586-.508-41.953m9.023 156.68-10.234 11.484m38.945-15.586-38.945 15.586 10.898-40.508m1.016 157.813-13.594 8.906m41.641-4.883-41.64 4.883 21.054-36.25m-5.742 156.094-17.032 6.406m41.719 4.375-41.719-4.375 28.555-30.742m-9.844 153.125-20.39 3.828m40.312 11.524-40.312-11.524 33.398-25.351m-11.289 150.312-23.828 1.25m38.477 16.719-38.477-16.719 36.445-20.703m-10.937 148.203-27.188-1.25m36.563 20.469-36.563-20.469 38.32-16.992m-9.413 147.031-30.626-3.828m34.923 23.281-34.923-23.281 39.532-13.945m-7.227 146.562-33.984-6.406m33.398 25.351-33.398-25.351 40.312-11.485m-4.61 146.641-37.42-8.906m32.148 26.913-32.149-26.913 40.82-9.531m135.977-2433.36 23.828 49.688m.703-41.914-.703 41.914-33.125-25.703m11.016 104.765 20.39 47.188m2.345-41.875-2.345 41.875-32.07-26.992m13.359 108.593 17.032 44.61m4.14-41.719-4.14 41.719-30.899-28.36m15.586 112.539 13.594 42.07m6.328-41.444-6.328 41.445-29.375-29.922m17.461 116.601 10.234 39.532m8.789-40.976-8.789 40.976-27.539-31.641m19.024 120.898 6.796 36.954m11.642-40.274-11.642 40.274-25.234-33.477m20.117 125.273 3.438 34.454m14.961-39.18-14.961 39.18-22.344-35.508M2255 1045.313v31.874m18.75-37.499-18.75 37.5-18.75-37.5m20.469 134.414-3.438 29.296m22.969-35.078-22.969 35.078-14.297-39.414m19.414 138.868-6.796 26.796m27.382-31.758-27.382 31.758-8.946-40.976m17.461 142.968-10.234 24.22m31.836-27.266-31.836 27.265-2.695-41.836m14.609 146.367-13.594 21.72m35.82-21.837-35.82 21.836 4.063-41.757m11.25 148.828-17.032 19.14m38.946-15.586-38.946 15.586 10.899-40.507m7.812 150.156-20.39 16.562m40.898-9.062-40.898 9.062 17.265-38.203m4.844 150.43-23.828 14.023m41.836-2.891-41.836 2.891 22.812-35.195m2.696 149.922-27.188 11.484m41.836 2.696-41.836-2.696 27.266-31.836m1.641 149.141-30.626 8.906m41.251 7.5-41.25-7.5 30.78-28.476m1.524 148.32-33.984 6.406m40.312 11.524-40.312-11.524 33.398-25.351m2.304 147.734-37.42 3.828m39.218 14.844-39.219-14.844 35.43-22.46m3.671 147.421-40.78 1.25m38.046 17.578-38.047-17.578 36.875-19.883M2414.805 138.79l20.39 59.92m5.665-41.522-5.665 41.523-29.843-29.453m11.132 98.32 17.032 57.344m7.304-41.25-7.304 41.25-28.633-30.625m13.32 102.031 13.594 54.844m9.18-40.938-9.18 40.938-27.227-31.875m15.313 105.82 10.234 52.266m11.211-40.391-11.21 40.39-25.626-33.202m17.11 109.726 6.796 49.688m13.477-39.688-13.477 39.688-23.671-34.61m18.554 113.672 3.438 47.188m15.976-38.75-15.976 38.75-21.407-36.055M2425 911.445v44.61m18.75-37.5-18.75 37.5-18.75-37.5m20.469 121.64-3.438 42.11m21.719-35.899-21.719 35.899-15.664-38.907m20.781 125.586-6.796 39.532m24.843-33.789-24.843 33.789-12.11-40.118m20.625 129.375-10.234 36.954m28.086-31.133-28.086 31.133-8.086-41.133m20 132.929-13.594 34.454m31.211-28.008-31.21 28.008-3.673-41.758m18.985 136.094-17.032 31.874m34.219-24.257-34.219 24.257 1.133-41.914m17.578 138.829-20.39 29.296m36.797-20.038-36.797 20.038 6.015-41.484m16.094 140.938-23.828 26.796m38.945-15.585-38.945 15.585 10.898-40.507m14.61 142.499-27.188 24.22m40.469-10.938-40.469 10.937 15.508-38.945m13.399 143.476-30.626 21.72m41.446-6.407-41.445 6.406 19.765-36.992m12.539 144.063-33.984 19.14m41.875-2.03-41.875 2.03 23.476-34.726m12.226 144.375-37.42 16.562m41.874 1.953-41.875-1.953 26.68-32.343m12.421 144.57-40.78 14.023m41.523 5.509-41.524-5.509 29.375-29.922m13.126 144.649-44.22 11.484m41.016 8.711-41.015-8.71 31.601-27.579m151.992-2435.742 17.032 70.156m9.374-40.859-9.374 40.86-27.07-32.032m11.757 90.663 13.594 67.58m10.976-40.47-10.976 40.47-25.781-33.048m13.867 94.258 10.234 65m12.696-39.922-12.696 39.922-24.375-34.14m15.86 97.89 6.796 62.5m14.571-39.297-14.57 39.297-22.696-35.273m17.578 101.563 3.438 59.92m16.562-38.476-16.562 38.477-20.86-36.367M2595 777.578v57.344m18.75-37.5-18.75 37.5-18.75-37.5m20.469 108.906-3.438 54.844m21.055-36.289-21.055 36.289-16.367-38.594m21.484 112.539-6.796 52.266m23.438-34.766-23.438 34.766-13.75-39.61m22.265 116.133-10.234 49.688m25.898-32.969-25.898 32.969-10.82-40.469m22.734 119.531-13.594 47.188m28.399-30.86-28.399 30.86-7.617-41.25m22.93 122.851-17.032 44.61m30.899-28.36-30.899 28.36-4.14-41.72m22.851 125.86-20.39 42.11m33.242-25.586-33.242 25.586-.508-41.953m22.617 128.632-23.828 39.532m35.43-22.461-35.43 22.46 3.281-41.796m22.227 131.054-27.188 36.954m37.304-19.102-37.304 19.102 7.11-41.29m21.797 133.086-30.626 34.454m38.946-15.587-38.945 15.587 10.898-40.508m21.406 134.844-33.984 31.874m40.156-11.953-40.156 11.954 14.531-39.336m21.171 136.25-37.42 29.296m41.093-8.358-41.094 8.358 17.969-37.89m21.132 137.344-40.78 26.796m41.6-4.921-41.6 4.921 21.054-36.25m21.446 138.242-44.22 24.22m41.915-1.563-41.914 1.562 23.867-34.453m22.032 138.984-47.58 21.72m41.876 1.484-41.875-1.485 26.328-32.617m160.664-2440.898 13.594 80.312m12.226-40.078-12.226 40.078-24.766-33.828m12.852 82.266 10.234 77.812m13.711-39.648-13.71 39.648-23.477-34.765m14.961 85.742 6.796 75.234m15.312-39.023-15.312 39.023-22.03-35.664m16.913 89.219 3.438 72.656m16.953-38.32-16.953 38.32-20.508-36.562M2765 643.672v70.156m18.75-37.5-18.75 37.5-18.75-37.5m20.469 96.132-3.438 67.58m20.625-36.524-20.625 36.523-16.836-38.398m21.953 99.609-6.796 65m22.538-35.312-22.538 35.312-14.766-39.219m23.281 103.009-10.234 62.46m24.57-33.984-24.57 33.984-12.461-40.04m24.375 106.33-13.594 59.92m26.602-32.42-26.602 32.42-10-40.702m25.313 109.57-17.032 57.344m28.633-30.625-28.633 30.625-7.304-41.25m26.015 112.656-20.39 54.844m30.664-28.594-30.664 28.594-4.492-41.68m26.601 115.625-23.828 52.266m32.617-26.367-32.617 26.367-1.523-41.875m27.031 118.398-27.188 49.688m34.454-23.867-34.454 23.867 1.524-41.875m27.383 120.937-30.626 47.188m36.173-21.25-36.173 21.25 4.688-41.68m27.617 123.281-33.984 44.61m37.617-18.438-37.617 18.438 7.812-41.172m27.89 125.312-37.42 42.11m38.944-15.586-38.945 15.586 10.898-40.508m28.203 127.187-40.78 39.532m39.96-12.618-39.96 12.618 13.867-39.57m28.633 128.827-44.22 36.954m40.782-9.649-40.781 9.649 16.757-38.438m29.142 130.234-47.58 34.454m41.368-6.797-41.367 6.797 19.375-37.188m29.922 131.524-51.016 31.874m41.718-3.984-41.718 3.985 21.875-35.782m168.516-2447.929 10.234 90.546m14.414-39.375-14.414 39.375-22.851-35.156m14.336 73.399 6.796 87.968m15.821-38.828-15.82 38.828-21.563-35.937m16.445 76.758 3.438 85.43m17.226-38.243-17.226 38.242-20.235-36.757M2935 509.805v82.89m18.75-37.5-18.75 37.5-18.75-37.5m20.469 83.399-3.438 80.312m20.352-36.679-20.352 36.68-17.148-38.243m22.265 86.68-6.796 77.812m21.953-35.742-21.953 35.742-15.43-39.023m23.945 90-10.234 75.234m23.633-34.648-23.633 34.648-13.516-39.687m25.43 93.242-13.594 72.656m25.313-33.398-25.313 33.398-11.523-40.312m26.836 96.406-17.032 70.156m27.071-32.031-27.07 32.031-9.376-40.86m28.086 99.492-20.39 67.58m28.789-30.47-28.79 30.47-7.109-41.33m29.219 102.54-23.828 65.04m30.508-28.79-30.508 28.79-4.688-41.68m30.196 105.43-27.188 62.46m32.149-26.914-32.149 26.914-2.226-41.875m31.133 108.165-30.626 59.92m33.751-24.843-33.75 24.844.351-41.914m31.953 110.781-33.984 57.344m35.234-22.695-35.234 22.695 2.969-41.797m32.733 113.203-37.42 54.844m36.64-20.43-36.64 20.43 5.663-41.563m33.437 115.508-40.78 52.266m37.85-18.008-37.85 18.008 8.28-41.094m34.22 117.617-44.22 49.688m38.946-15.547-38.945 15.547 10.898-40.469m35.001 119.531-47.58 47.188m39.806-13.086-39.805 13.086 13.437-39.727m35.86 121.328-51.016 44.61m40.586-10.586-40.586 10.586 15.899-38.79m36.797 122.93-54.376 42.11m41.133-8.125-41.133 8.125 18.165-37.774m175.625-2456.133 6.796 100.704m16.172-38.672-16.172 38.672-21.21-36.133m16.093 64.179 3.438 98.204m17.421-38.125-17.421 38.125-20.078-36.836M3105 375.938v95.625m18.75-37.5-18.75 37.5-18.75-37.5m20.469 70.664-3.438 93.046m20.117-36.757-20.117 36.757-17.343-38.164m22.46 73.868-6.796 90.546m21.523-36.015-21.523 36.015-15.899-38.789m24.414 77.032-10.234 87.968m22.969-35.078-22.97 35.078-14.296-39.414m26.211 80.235-13.594 85.43m24.414-34.102-24.414 34.101-12.617-40m27.93 83.321-17.032 82.89m25.899-32.968-25.899 32.968-10.82-40.507m29.531 86.406-20.39 80.312m27.383-31.718-27.383 31.718-8.946-40.937m31.055 89.375-23.828 77.812m28.906-30.39-28.906 30.39-6.953-41.367m32.461 92.344-27.188 75.234m30.391-28.907-30.39 28.907-4.884-41.64m33.79 95.195-30.626 72.656m31.836-27.265-31.836 27.265-2.734-41.836m35.039 97.93-33.984 70.156m33.202-25.586-33.202 25.586-.547-41.953m36.249 100.585-37.42 67.58m34.57-23.712-34.57 23.711 1.757-41.875m37.343 103.086-40.78 65.04m35.78-21.837-35.78 21.836 4.023-41.758m38.477 105.509-44.22 62.46m36.954-19.805-36.953 19.805 6.367-41.445m39.532 107.735-47.58 59.92m38.009-17.694-38.008 17.695 8.633-41.016m40.664 109.883-51.016 57.344m38.946-15.547-38.946 15.547 10.899-40.469m41.797 111.875-54.376 54.844m39.728-13.438-39.727 13.438 13.085-39.844m43.008 113.789-57.812 52.266m40.39-11.25-40.39 11.25 15.234-39.063m181.953-2465.039 3.438 110.938m17.578-38.047-17.578 38.047-19.922-36.914M3275 242.07v108.36m18.75-37.5-18.75 37.5-18.75-37.5m20.469 57.93-3.438 105.82m19.961-36.914-19.96 36.914-17.54-38.086m22.656 61.016-6.796 103.28m21.171-36.171-21.171 36.172-16.25-38.672m24.765 64.179-10.234 100.704m22.461-35.392-22.461 35.392-14.844-39.18m26.758 67.226-13.594 98.204m23.711-34.571-23.71 34.57-13.438-39.726m28.75 70.313-17.032 95.625m25.039-33.633-25.039 33.633-11.875-40.196m30.586 73.36-20.39 93.046m26.328-32.617-26.328 32.617-10.313-40.625m32.422 76.329-23.828 90.546m27.695-31.483-27.695 31.483-8.594-41.054m34.102 79.297-27.188 87.968m28.984-30.274-28.984 30.274-6.836-41.367m35.743 82.188-30.626 85.39M3290 1457.46l-30.313 28.985-5-41.601m37.305 84.961-33.984 82.89m31.562-27.578-31.562 27.578-3.125-41.797m38.827 87.696-37.42 80.312m32.812-26.093-32.813 26.093-1.172-41.914m40.273 90.352-40.78 77.812m34.023-24.531-34.024 24.531.82-41.953m41.681 92.93-44.22 75.234m35.157-22.851-35.156 22.851 2.851-41.836m43.048 95.391-47.58 72.656m36.212-21.094-36.211 21.094 4.844-41.64m44.453 97.734-51.016 70.156m37.227-19.297-37.227 19.297 6.914-41.367m45.782 99.999-54.376 67.58m38.126-17.462-38.126 17.461 8.907-40.977m47.187 102.188-57.812 65.04m38.946-15.587-38.946 15.586 10.898-40.508m48.594 104.259-61.172 62.46m39.609-13.672-39.609 13.672 12.852-39.922M3445 108.203v121.094m18.75-37.5-18.75 37.5-18.75-37.5m20.469 45.156-3.438 118.594m19.844-36.953-19.844 36.953-17.656-38.047m22.773 48.242-6.796 116.016m20.898-36.328-20.898 36.328-16.524-38.516m25.039 51.289-10.234 113.438m22.031-35.664-22.031 35.664-15.313-38.985m27.227 54.297-13.594 110.938m23.164-34.961-23.164 34.96-14.062-39.491m29.375 57.343-17.032 108.36m24.376-34.14-24.376 34.14-12.695-39.961m31.406 60.391-20.39 105.82m25.508-33.282-25.508 33.282-11.328-40.39m33.437 63.32-23.828 103.28m26.719-32.343-26.72 32.344-9.843-40.743m35.352 66.25-27.188 100.704m27.852-31.289-27.852 31.289-8.32-41.094m37.227 69.14-30.626 98.204m29.063-30.235-29.063 30.235-6.718-41.407m39.023 71.993-33.984 95.624m30.234-29.022-30.234 29.023-5.117-41.602m40.819 74.766-37.42 93.046m31.405-27.813-31.406 27.813-3.398-41.757m42.499 77.461-40.78 90.546m32.5-26.483-32.5 26.483-1.72-41.914m44.22 80.157-44.22 87.968m33.594-25.078-33.593 25.078.078-41.914m45.821 82.735-47.58 85.39m34.61-23.632-34.61 23.632 1.876-41.875m47.422 85.235-51.016 82.89m35.625-22.109-35.625 22.11 3.672-41.758m49.024 87.656-54.376 80.312m36.524-20.508-36.523 20.508 5.468-41.562m50.625 90-57.812 77.812m37.422-18.946-37.422 18.946 7.343-41.289m52.149 92.266-61.172 75.234m38.203-17.265-38.203 17.265 9.102-40.937m53.789 94.492-64.61 72.656m38.907-15.547-38.907 15.547 10.899-40.469" transform="matrix(.1 0 0 -.1 0 275)"/><g clip-path="url(#v)"><path style="fill:none;stroke-width:12.5;stroke-linecap:round;stroke-linejoin:miter;stroke:red;stroke-opacity:1;stroke-miterlimit:10" d="m130 2655 39.648-602.734 107.344-523.79L435 1092.892 627.305 749.22l211.758-252.89 218.085-167.188 213.399-89.454 200-21.757 179.96 34.61 155.43 79.218 128.36 112.187 100.39 134.063 72.93 145.976 47.188 149.102 23.984 144.96 3.906 135.04-12.734 120.781-25.781 103.711-35.274 85-41.445 65.86-44.688 47.226-45.234 29.844-43.75 14.258-40.469.82-36.015-10.156-30.703-18.711-25-24.883-19.18-28.79-13.555-30.741-8.32-30.86-3.711-29.648.273-27.305 3.516-24.101 6.016-20.47 7.773-16.484 8.867-12.539 9.414-8.75 9.336-5.195 8.946-2.11 8.164.548 7.148 2.695 6.055 4.297 4.843 5.469 3.633 6.132 2.5 6.446 1.446 6.367.507 6.015-.273 5.508-.898 4.805-1.368 4.023-1.718 3.165-1.875 2.382-1.954 1.602-1.953.898-1.796.274-1.641-.274-1.445-.664-1.172-.976-.938-1.211-.664-1.29-.469-1.327-.234-1.329-.04-1.21.08-1.094.233-.977.313-.781.351-.625.391-.43.43-.273.39-.156.352-.04.352.079.273.195.234.195.313.547.078.274.04.273v.234l-.04.235-.04.195-.077.156-.078.118-.078.078-.157.078h-.078l-.156-.078-.04-.04-.038-.078v-.117l-.04-.039v-.039l.04-.039v-.078l.039-.04" transform="matrix(.1 0 0 -.1 0 275)"/></g><g clip-path="url(#w)"><path style="fill:none;stroke-width:12.5;stroke-linecap:round;stroke-linejoin:miter;stroke:red;stroke-opacity:1;stroke-miterlimit:10" d="m3530 105-39.648 602.734-107.383 523.828-158.008 435.547-192.305 343.672-211.718 252.89-218.086 167.188-213.399 89.454-200 21.757-179.96-34.61-155.43-79.218-128.36-112.187-100.39-134.063-72.93-145.976-47.188-149.102-23.984-144.96-3.906-135.04 12.734-120.781 25.742-103.672 35.274-85 41.484-65.899 44.688-47.226 45.234-29.805 43.75-14.258 40.469-.859 36.015 10.156 30.703 18.711 25 24.883 19.18 28.79 13.555 30.741 8.32 30.899 3.711 29.61-.273 27.304-3.516 24.101-6.016 20.47-7.773 16.484-8.906 12.539-9.375 8.75-9.336 5.234-8.946 2.07-8.164-.547-7.187-2.695-6.016-4.297-4.843-5.469-3.633-6.132-2.5-6.446-1.446-6.367-.507-6.015.273-5.508.898-4.805 1.368-4.023 1.68-3.165 1.913-2.382 1.954-1.602 1.914-.898 1.835-.274 1.641.274 1.406.664 1.172.976.977 1.211.664 1.29.469 1.327.234 1.329.04 1.21-.08 1.094-.233.977-.313.781-.351.625-.391.43-.43.273-.39.156-.352.04-.352-.079-.273-.195-.234-.195-.313-.547-.078-.274-.04-.273v-.234l.04-.235.04-.195.155-.234.157-.157.078-.039h.078l.078.04.039.038.078.04v.078l.04.039v.078l.038.039v.039l-.039.039v.078l-.039.04" transform="matrix(.1 0 0 -.1 0 275)"/></g><g clip-path="url(#x)"><path style="fill:none;stroke-width:12.5;stroke-linecap:round;stroke-linejoin:miter;stroke:red;stroke-opacity:1;stroke-miterlimit:10" d="m2396.68 105 88.633 297.148 43.046 287.383 3.672 266.446-28.633 237.304-53.867 202.735-72.07 165.234-83.672 127.11-89.453 90.156-90.117 55.82-86.64 25.234-79.845-1.015-70.664-22.422-60-38.946-48.515-50.703-36.993-58.046-25.82-61.485-15.508-61.445-6.406-58.672 1.328-53.79 7.657-47.343 12.421-39.883 15.82-32.03 17.891-24.142 18.75-16.601 18.594-9.649 17.656-3.554 16.094 1.601 14.063 5.782 11.796 8.906 9.375 11.094 6.993 12.343 4.726 12.852 2.656 12.656.82 11.953-.702 10.82-1.914 9.415-2.813 7.812-3.437 6.172-3.79 4.531-3.906 3.047-3.828 1.602-3.594.39-3.242-.586-2.773-1.406-2.305-2.031-1.797-2.383-1.328-2.617-.86-2.695-.429-2.579-.078-2.421.234-2.188.469-1.836.625-1.523.742-1.211.781-.86.82-.507.782-.274h.742l.625.156.547.352.469.43.351.507.235.547.156.586.078.508-.039.508-.039.43-.117.351-.117.313-.157.234-.195.156-.156.078-.156.04h-.157l-.117-.04-.117-.078-.156-.234-.04-.078-.038-.157v-.195l.039-.078v-.078l.039-.04.039-.077h.039v-.04h.078l.078.079v.156" transform="matrix(.1 0 0 -.1 0 275)"/></g><g clip-path="url(#y)"><path style="fill:none;stroke-width:12.5;stroke-linecap:round;stroke-linejoin:miter;stroke:red;stroke-opacity:1;stroke-miterlimit:10" d="m1263.32 2655-88.632-297.11-43.047-287.421-3.672-266.446 28.633-237.304 53.867-202.735 72.031-165.234 83.71-127.11 89.454-90.156 90.117-55.82 86.64-25.234 79.845 1.015 70.664 22.422 60 38.946 48.515 50.703 36.993 58.047 25.82 61.484 15.508 61.445 6.406 58.672-1.328 53.79-7.657 47.343-12.421 39.883-15.82 32.03-17.891 24.142-18.75 16.601-18.594 9.649-17.656 3.554-16.094-1.601-14.063-5.782-11.796-8.906-9.375-11.094-6.993-12.343-4.726-12.852-2.656-12.656-.82-11.953.702-10.82 1.914-9.376 2.813-7.851 3.437-6.172 3.79-4.531 3.906-3.008 3.828-1.64 3.594-.391 3.242.586 2.773 1.445 2.305 1.992 1.797 2.383 1.328 2.617.86 2.695.429 2.579.078 2.421-.234 2.188-.469 1.836-.625 1.523-.742 1.211-.781.86-.82.507-.782.274-.742.039-.625-.195-.586-.352-.43-.43-.351-.507-.235-.547-.156-.586-.078-.508v-.508l.078-.43.117-.351.117-.313.157-.234.195-.156.156-.078.156-.04h.157l.117.04.195.195.078.117.078.235v.195l-.039.078v.078l-.039.04-.039.077h-.039l-.039.04h-.039l-.039-.04h-.04v-.078h-.038v-.039l.039-.039" transform="matrix(.1 0 0 -.1 0 275)"/></g></svg>