<svg xmlns="http://www.w3.org/2000/svg" xmlns:xlink="http://www.w3.org/1999/xlink" width="488" height="275pt" viewBox="0 0 366 275"><defs><clipPath id="a"><path d="M182 9.5h2v255h-2zm0 0"/></clipPath><clipPath id="b"><path d="M13 136h340v2H13zm0 0"/></clipPath><clipPath id="c"><path d="M13 9.5h1v255h-1zm0 0"/></clipPath><clipPath id="d"><path d="M69 9.5h1v255h-1zm0 0"/></clipPath><clipPath id="e"><path d="M126 9.5h1v255h-1zm0 0"/></clipPath><clipPath id="f"><path d="M182 9.5h2v255h-2zm0 0"/></clipPath><clipPath id="g"><path d="M239 9.5h1v255h-1zm0 0"/></clipPath><clipPath id="h"><path d="M296 9.5h1v255h-1zm0 0"/></clipPath><clipPath id="i"><path d="M352 9.5h1v255h-1zm0 0"/></clipPath><clipPath id="j"><path d="M13 264h340v.5H13zm0 0"/></clipPath><clipPath id="k"><path d="M13 221h340v2H13zm0 0"/></clipPath><clipPath id="l"><path d="M13 179h340v1H13zm0 0"/></clipPath><clipPath id="m"><path d="M13 136h340v2H13zm0 0"/></clipPath><clipPath id="n"><path d="M13 94h340v1H13zm0 0"/></clipPath><clipPath id="o"><path d="M13 51h340v2H13zm0 0"/></clipPath><clipPath id="p"><path d="M13 9.5h340v.5H13zm0 0"/></clipPath><clipPath id="v"><path d="M13 136h340v2H13zm0 0"/></clipPath><clipPath id="w"><path d="M13 9.5h340v255H13zm0 0"/></clipPath><clipPath id="x"><path d="M102 9.5h88V155h-88zm0 0"/></clipPath><clipPath id="y"><path d="M148 9.5h141V155H148zm0 0"/></clipPath><clipPath id="z"><path d="M13 119h183v130H13zm0 0"/></clipPath><clipPath id="A"><path d="M13 119h188v145.5H13zm0 0"/></clipPath><clipPath id="B"><path d="M13 136h171v2H13zm0 0"/></clipPath><clipPath id="C"><path d="M168 9.5h185V155H168zm0 0"/></clipPath><clipPath id="D"><path d="M23 119h183v145.5H23zm0 0"/></clipPath><clipPath id="E"><path d="M77 119h141v145.5H77zm0 0"/></clipPath><clipPath id="F"><path d="M176 119h88v145.5h-88zm0 0"/></clipPath><clipPath id="G"><path d="M170 9.5h183V151H170zm0 0"/></clipPath><clipPath id="H"><path d="M188 136h165v2H188zm0 0"/></clipPath><symbol overflow="visible" id="q"><path style="stroke:none" d="M2.125-2.344H.344v.547h1.781zm0 0"/></symbol><symbol overflow="visible" id="r"><path style="stroke:none" d="M1.656-2.438h.36c.734 0 1.109.329 1.109.954 0 .671-.422 1.078-1.11 1.078-.718 0-1.078-.36-1.109-1.14H.234c.032.421.11.702.235.952.281.5.797.766 1.531.766 1.094 0 1.797-.656 1.797-1.656 0-.672-.266-1.047-.906-1.266.5-.203.75-.578.75-1.11 0-.906-.61-1.453-1.625-1.453-1.079 0-1.641.579-1.657 1.72h.657c0-.329.03-.516.109-.673.156-.296.484-.468.906-.468.578 0 .938.343.938.906 0 .375-.14.594-.438.719-.172.078-.406.109-.875.109zm0 0"/></symbol><symbol overflow="visible" id="s"><path style="stroke:none" d="M3.797-.656H1c.063-.438.313-.703.953-1.094l.75-.406c.75-.406 1.125-.953 1.125-1.594 0-.453-.172-.86-.484-1.14-.328-.298-.719-.423-1.219-.423-.672 0-1.172.235-1.469.688-.187.281-.265.61-.281 1.156h.656c.032-.36.078-.578.157-.75.171-.328.515-.515.921-.515.594 0 1.047.421 1.047.984 0 .422-.25.781-.719 1.063l-.687.39C.64-1.672.312-1.172.25 0h3.547zm0 0"/></symbol><symbol overflow="visible" id="t"><path style="stroke:none" d="M1.938-3.781V0h.671v-5.313h-.437c-.235.813-.39.922-1.406 1.047v.485zm0 0"/></symbol><symbol overflow="visible" id="u"><path style="stroke:none" d="M2.063-5.313c-.5 0-.938.22-1.22.579C.5-4.266.329-3.563.329-2.578c0 1.797.594 2.75 1.734 2.75 1.126 0 1.735-.953 1.735-2.703 0-1.031-.156-1.719-.516-2.203-.281-.375-.719-.579-1.219-.579zm0 .579c.718 0 1.062.718 1.062 2.14 0 1.516-.344 2.219-1.078 2.219C1.344-.375 1-1.109 1-2.563c0-1.453.344-2.171 1.063-2.171zm0 0"/></symbol></defs><g clip-path="url(#a)"><path style="fill:none;stroke-width:6.25;stroke-linecap:round;stroke-linejoin:miter;stroke:#bfbfbf;stroke-opacity:1;stroke-miterlimit:10" d="M1830 105v2550" transform="matrix(.1 0 0 -.1 0 275)"/></g><g clip-path="url(#b)"><path style="fill:none;stroke-width:6.25;stroke-linecap:round;stroke-linejoin:miter;stroke:#bfbfbf;stroke-opacity:1;stroke-miterlimit:10" d="M130 1380h3400" transform="matrix(.1 0 0 -.1 0 275)"/></g><g clip-path="url(#c)"><path style="fill:none;stroke-width:6.25;stroke-linecap:round;stroke-linejoin:miter;stroke:#bfbfbf;stroke-opacity:1;stroke-dasharray:12.5,18.75;stroke-miterlimit:10" d="M130 105v2550" transform="matrix(.1 0 0 -.1 0 275)"/></g><g clip-path="url(#d)"><path style="fill:none;stroke-width:6.25;stroke-linecap:round;stroke-linejoin:miter;stroke:#bfbfbf;stroke-opacity:1;stroke-dasharray:12.5,18.75;stroke-miterlimit:10" d="M696.68 105v2550" transform="matrix(.1 0 0 -.1 0 275)"/></g><g clip-path="url(#e)"><path style="fill:none;stroke-width:6.25;stroke-linecap:round;stroke-linejoin:miter;stroke:#bfbfbf;stroke-opacity:1;stroke-dasharray:12.5,18.75;stroke-miterlimit:10" d="M1263.32 105v2550" transform="matrix(.1 0 0 -.1 0 275)"/></g><g clip-path="url(#f)"><path style="fill:none;stroke-width:6.25;stroke-linecap:round;stroke-linejoin:miter;stroke:#bfbfbf;stroke-opacity:1;stroke-dasharray:12.5,18.75;stroke-miterlimit:10" d="M1830 105v2550" transform="matrix(.1 0 0 -.1 0 275)"/></g><g clip-path="url(#g)"><path style="fill:none;stroke-width:6.25;stroke-linecap:round;stroke-linejoin:miter;stroke:#bfbfbf;stroke-opacity:1;stroke-dasharray:12.5,18.75;stroke-miterlimit:10" d="M2396.68 105v2550" transform="matrix(.1 0 0 -.1 0 275)"/></g><g clip-path="url(#h)"><path style="fill:none;stroke-width:6.25;stroke-linecap:round;stroke-linejoin:miter;stroke:#bfbfbf;stroke-opacity:1;stroke-dasharray:12.5,18.75;stroke-miterlimit:10" d="M2963.32 105v2550" transform="matrix(.1 0 0 -.1 0 275)"/></g><g clip-path="url(#i)"><path style="fill:none;stroke-width:6.25;stroke-linecap:round;stroke-linejoin:miter;stroke:#bfbfbf;stroke-opacity:1;stroke-dasharray:12.5,18.75;stroke-miterlimit:10" d="M3530 105v2550" transform="matrix(.1 0 0 -.1 0 275)"/></g><g clip-path="url(#j)"><path style="fill:none;stroke-width:6.25;stroke-linecap:round;stroke-linejoin:miter;stroke:#bfbfbf;stroke-opacity:1;stroke-dasharray:12.5,18.75;stroke-miterlimit:10" d="M130 105h3400" transform="matrix(.1 0 0 -.1 0 275)"/></g><g clip-path="url(#k)"><path style="fill:none;stroke-width:6.25;stroke-linecap:round;stroke-linejoin:miter;stroke:#bfbfbf;stroke-opacity:1;stroke-dasharray:12.5,18.75;stroke-miterlimit:10" d="M130 530h3400" transform="matrix(.1 0 0 -.1 0 275)"/></g><g clip-path="url(#l)"><path style="fill:none;stroke-width:6.25;stroke-linecap:round;stroke-linejoin:miter;stroke:#bfbfbf;stroke-opacity:1;stroke-dasharray:12.5,18.75;stroke-miterlimit:10" d="M130 955h3400" transform="matrix(.1 0 0 -.1 0 275)"/></g><g clip-path="url(#m)"><path style="fill:none;stroke-width:6.25;stroke-linecap:round;stroke-linejoin:miter;stroke:#bfbfbf;stroke-opacity:1;stroke-dasharray:12.5,18.75;stroke-miterlimit:10" d="M130 1380h3400" transform="matrix(.1 0 0 -.1 0 275)"/></g><g clip-path="url(#n)"><path style="fill:none;stroke-width:6.25;stroke-linecap:round;stroke-linejoin:miter;stroke:#bfbfbf;stroke-opacity:1;stroke-dasharray:12.5,18.75;stroke-miterlimit:10" d="M130 1805h3400" transform="matrix(.1 0 0 -.1 0 275)"/></g><g clip-path="url(#o)"><path style="fill:none;stroke-width:6.25;stroke-linecap:round;stroke-linejoin:miter;stroke:#bfbfbf;stroke-opacity:1;stroke-dasharray:12.5,18.75;stroke-miterlimit:10" d="M130 2230h3400" transform="matrix(.1 0 0 -.1 0 275)"/></g><g clip-path="url(#p)"><path style="fill:none;stroke-width:6.25;stroke-linecap:round;stroke-linejoin:miter;stroke:#bfbfbf;stroke-opacity:1;stroke-dasharray:12.5,18.75;stroke-miterlimit:10" d="M130 2655h3400" transform="matrix(.1 0 0 -.1 0 275)"/></g><path style="fill:none;stroke-width:12.5;stroke-linecap:square;stroke-linejoin:miter;stroke:#000;stroke-opacity:1;stroke-miterlimit:10" d="M130 105h3400" transform="matrix(.1 0 0 -.1 0 275)"/><path style="fill:none;stroke-width:6.25;stroke-linecap:butt;stroke-linejoin:miter;stroke:#000;stroke-opacity:1;stroke-miterlimit:10" d="M130 105v50m56.68-50v25m56.64-25v25M300 105v25m56.68-25v25m56.64-25v25M470 105v25m56.68-25v25m56.64-25v25M640 105v25m56.68-25v50m56.64-50v25M810 105v25m56.68-25v25m56.64-25v25M980 105v25m56.68-25v25m56.64-25v25m56.68-25v25m56.68-25v25m56.64-25v50m56.68-50v25m56.68-25v25m56.64-25v25m56.68-25v25m56.68-25v25m56.64-25v25m56.68-25v25m56.68-25v25m56.64-25v25m56.68-25v50m56.68-50v25m56.64-25v25m56.68-25v25m56.68-25v25m56.64-25v25m56.68-25v25m56.68-25v25m56.64-25v25m56.68-25v25m56.68-25v50m56.64-50v25m56.68-25v25m56.68-25v25m56.64-25v25m56.68-25v25m56.68-25v25m56.64-25v25m56.68-25v25m56.68-25v25m56.64-25v50m56.68-50v25m56.68-25v25m56.64-25v25m56.68-25v25m56.68-25v25m56.64-25v25m56.68-25v25m56.68-25v25m56.64-25v25m56.68-25v50" transform="matrix(.1 0 0 -.1 0 275)"/><g style="fill:#000;fill-opacity:1"><use xlink:href="#q" x="9.042" y="274.5"/><use xlink:href="#r" x="11.539" y="274.5"/></g><g style="fill:#000;fill-opacity:1"><use xlink:href="#q" x="65.917" y="274.5"/><use xlink:href="#s" x="68.414" y="274.5"/></g><g style="fill:#000;fill-opacity:1"><use xlink:href="#q" x="122.792" y="274.5"/><use xlink:href="#t" x="125.289" y="274.5"/></g><use xlink:href="#u" x="180.915" y="274.5" style="fill:#000;fill-opacity:1"/><use xlink:href="#t" x="237.165" y="274.5" style="fill:#000;fill-opacity:1"/><use xlink:href="#s" x="294.04" y="274.5" style="fill:#000;fill-opacity:1"/><use xlink:href="#r" x="350.915" y="274.5" style="fill:#000;fill-opacity:1"/><path style="fill:none;stroke-width:12.5;stroke-linecap:square;stroke-linejoin:miter;stroke:#000;stroke-opacity:1;stroke-miterlimit:10" d="M130 2655h3400" transform="matrix(.1 0 0 -.1 0 275)"/><path style="fill:none;stroke-width:6.25;stroke-linecap:butt;stroke-linejoin:miter;stroke:#000;stroke-opacity:1;stroke-miterlimit:10" d="M130 2655v-50m56.68 50v-25m56.64 25v-25m56.68 25v-25m56.68 25v-25m56.64 25v-25m56.68 25v-25m56.68 25v-25m56.64 25v-25m56.68 25v-25m56.68 25v-50m56.64 50v-25m56.68 25v-25m56.68 25v-25m56.64 25v-25m56.68 25v-25m56.68 25v-25m56.64 25v-25m56.68 25v-25m56.68 25v-25m56.64 25v-50m56.68 50v-25m56.68 25v-25m56.64 25v-25m56.68 25v-25m56.68 25v-25m56.64 25v-25m56.68 25v-25m56.68 25v-25m56.64 25v-25m56.68 25v-50m56.68 50v-25m56.64 25v-25m56.68 25v-25m56.68 25v-25m56.64 25v-25m56.68 25v-25m56.68 25v-25m56.64 25v-25m56.68 25v-25m56.68 25v-50m56.64 50v-25m56.68 25v-25m56.68 25v-25m56.64 25v-25m56.68 25v-25m56.68 25v-25m56.64 25v-25m56.68 25v-25m56.68 25v-25m56.64 25v-50m56.68 50v-25m56.68 25v-25m56.64 25v-25m56.68 25v-25m56.68 25v-25m56.64 25v-25m56.68 25v-25m56.68 25v-25m56.64 25v-25m56.68 25v-50" transform="matrix(.1 0 0 -.1 0 275)"/><g style="fill:#000;fill-opacity:1"><use xlink:href="#q" x="9.042" y="6.375"/><use xlink:href="#r" x="11.539" y="6.375"/></g><g style="fill:#000;fill-opacity:1"><use xlink:href="#q" x="65.917" y="6.375"/><use xlink:href="#s" x="68.414" y="6.375"/></g><g style="fill:#000;fill-opacity:1"><use xlink:href="#q" x="122.792" y="6.375"/><use xlink:href="#t" x="125.289" y="6.375"/></g><use xlink:href="#u" x="180.915" y="6.375" style="fill:#000;fill-opacity:1"/><use xlink:href="#t" x="237.165" y="6.375" style="fill:#000;fill-opacity:1"/><use xlink:href="#s" x="294.04" y="6.375" style="fill:#000;fill-opacity:1"/><use xlink:href="#r" x="350.915" y="6.375" style="fill:#000;fill-opacity:1"/><path style="fill:none;stroke-width:12.5;stroke-linecap:square;stroke-linejoin:miter;stroke:#000;stroke-opacity:1;stroke-miterlimit:10" d="M130 105v2550" transform="matrix(.1 0 0 -.1 0 275)"/><path style="fill:none;stroke-width:6.25;stroke-linecap:butt;stroke-linejoin:miter;stroke:#000;stroke-opacity:1;stroke-miterlimit:10" d="M130 105h50m-50 42.5h25M130 190h25m-25 42.5h25M130 275h25m-25 42.5h25M130 360h25m-25 42.5h25M130 445h25m-25 42.5h25M130 530h50m-50 42.5h25M130 615h25m-25 42.5h25M130 700h25m-25 42.5h25M130 785h25m-25 42.5h25M130 870h25m-25 42.5h25M130 955h50m-50 42.5h25m-25 42.5h25m-25 42.5h25m-25 42.5h25m-25 42.5h25m-25 42.5h25m-25 42.5h25m-25 42.5h25m-25 42.5h25m-25 42.5h50m-50 42.5h25m-25 42.5h25m-25 42.5h25m-25 42.5h25m-25 42.5h25m-25 42.5h25m-25 42.5h25m-25 42.5h25m-25 42.5h25m-25 42.5h50m-50 42.5h25m-25 42.5h25m-25 42.5h25m-25 42.5h25m-25 42.5h25m-25 42.5h25m-25 42.5h25m-25 42.5h25m-25 42.5h25m-25 42.5h50m-50 42.5h25m-25 42.5h25m-25 42.5h25m-25 42.5h25m-25 42.5h25m-25 42.5h25m-25 42.5h25m-25 42.5h25m-25 42.5h25m-25 42.5h50" transform="matrix(.1 0 0 -.1 0 275)"/><g style="fill:#000;fill-opacity:1"><use xlink:href="#q" x="-.542" y="268.25"/><use xlink:href="#r" x="1.956" y="268.25"/></g><g style="fill:#000;fill-opacity:1"><use xlink:href="#q" x="-.542" y="225.125"/><use xlink:href="#s" x="1.956" y="225.125"/></g><g style="fill:#000;fill-opacity:1"><use xlink:href="#q" x="-.542" y="183.25"/><use xlink:href="#t" x="1.956" y="183.25"/></g><use xlink:href="#u" x="1.955" y="140.125" style="fill:#000;fill-opacity:1"/><use xlink:href="#t" x="1.955" y="98.25" style="fill:#000;fill-opacity:1"/><use xlink:href="#s" x="1.955" y="55.125" style="fill:#000;fill-opacity:1"/><use xlink:href="#r" x="1.955" y="12.625" style="fill:#000;fill-opacity:1"/><path style="fill:none;stroke-width:12.5;stroke-linecap:square;stroke-linejoin:miter;stroke:#000;stroke-opacity:1;stroke-miterlimit:10" d="M3530 105v2550" transform="matrix(.1 0 0 -.1 0 275)"/><path style="fill:none;stroke-width:6.25;stroke-linecap:butt;stroke-linejoin:miter;stroke:#000;stroke-opacity:1;stroke-miterlimit:10" d="M3530 105h-50m50 42.5h-25m25 42.5h-25m25 42.5h-25m25 42.5h-25m25 42.5h-25m25 42.5h-25m25 42.5h-25m25 42.5h-25m25 42.5h-25m25 42.5h-50m50 42.5h-25m25 42.5h-25m25 42.5h-25m25 42.5h-25m25 42.5h-25m25 42.5h-25m25 42.5h-25m25 42.5h-25m25 42.5h-25m25 42.5h-50m50 42.5h-25m25 42.5h-25m25 42.5h-25m25 42.5h-25m25 42.5h-25m25 42.5h-25m25 42.5h-25m25 42.5h-25m25 42.5h-25m25 42.5h-50m50 42.5h-25m25 42.5h-25m25 42.5h-25m25 42.5h-25m25 42.5h-25m25 42.5h-25m25 42.5h-25m25 42.5h-25m25 42.5h-25m25 42.5h-50m50 42.5h-25m25 42.5h-25m25 42.5h-25m25 42.5h-25m25 42.5h-25m25 42.5h-25m25 42.5h-25m25 42.5h-25m25 42.5h-25m25 42.5h-50m50 42.5h-25m25 42.5h-25m25 42.5h-25m25 42.5h-25m25 42.5h-25m25 42.5h-25m25 42.5h-25m25 42.5h-25m25 42.5h-25m25 42.5h-50" transform="matrix(.1 0 0 -.1 0 275)"/><g style="fill:#000;fill-opacity:1"><use xlink:href="#q" x="359.25" y="268.25"/><use xlink:href="#r" x="361.748" y="268.25"/></g><g style="fill:#000;fill-opacity:1"><use xlink:href="#q" x="359.25" y="225.125"/><use xlink:href="#s" x="361.748" y="225.125"/></g><g style="fill:#000;fill-opacity:1"><use xlink:href="#q" x="359.25" y="183.25"/><use xlink:href="#t" x="361.748" y="183.25"/></g><use xlink:href="#u" x="359.25" y="140.125" style="fill:#000;fill-opacity:1"/><use xlink:href="#t" x="359.25" y="98.25" style="fill:#000;fill-opacity:1"/><use xlink:href="#s" x="359.25" y="55.125" style="fill:#000;fill-opacity:1"/><use xlink:href="#r" x="359.25" y="12.625" style="fill:#000;fill-opacity:1"/><path style="fill:none;stroke-width:6.25;stroke-linecap:round;stroke-linejoin:miter;stroke:#00f;stroke-opacity:1;stroke-miterlimit:10" d="m263.438 205.078-96.875-72.656m18.75 37.5-18.75-37.5 41.25 7.5m53.085 188.828-91.796-65m19.765 36.953-19.765-36.953 41.445 6.367m47.813 182.305-86.72-57.344m20.938 36.328-20.937-36.328 41.64 5.04m42.5 175.976-81.601-49.688m22.304 35.508-22.304-35.508 41.797 3.477m37.265 169.922-76.484-42.07m23.828 34.492-23.828-34.493 41.875 1.641m32.07 164.102-71.406-34.454m25.625 33.204-25.625-33.204 41.914-.586m26.953 158.711-66.328-26.796m27.774 31.445-27.774-31.445 41.797-3.32m21.953 153.788-61.172-19.14m30.196 29.101-30.196-29.101 41.367-6.72m17.266 149.532-56.094-11.484m32.969 25.898-32.969-25.898 40.508-10.86m13.047 146.016-51.016-3.828m36.016 21.524-36.016-21.524 38.79-15.899m9.648 143.399-45.899 3.828m38.946 15.546-38.946-15.546 35.82-21.797m7.539 141.641-40.78 11.484m41.171 7.891-41.172-7.89 31.016-28.204m7.227 140.391-35.704 19.14m41.915-1.172-41.915 1.172 24.22-34.257m8.945 138.789-30.625 26.796m40.585-10.585-40.585 10.585 15.898-38.828m12.148 135.703-25.468 34.454m37.382-18.985-37.382 18.985 7.226-41.29m15.703 130.508-20.39 42.11m33.242-25.586-33.242 25.586-.508-41.953m18.359 123.554-15.312 49.688m28.946-30.313-28.946 30.313-6.875-41.328m19.648 115.312-10.234 57.344m25.039-33.632-25.04 33.632-11.874-40.195m19.532 106.523-5.08 65.04m21.603-35.938-21.602 35.937-15.781-38.867m18.32 97.5v72.656m18.75-37.5-18.75 37.5-18.75-37.5m234.648-2385-91.796-72.656m17.773 37.968-17.773-37.968 41.054 8.555M428.36 328.75l-86.72-65m18.75 37.5-18.75-37.5 41.25 7.5m42.891 181.172-81.601-57.344m19.922 36.914-19.922-36.914 41.484 6.211m37.578 174.805-76.484-49.688m21.211 36.134-21.211-36.134 41.64 4.688m32.305 168.711-71.406-42.07m22.773 35.155-22.773-35.156 41.836 2.852m27.031 162.891-66.328-34.454m24.648 33.946-24.648-33.946 41.953.664m21.797 157.461-61.172-26.796m26.836 32.226-26.836-32.226 41.875-2.149m16.758 152.617-56.094-19.14m29.453 29.843-29.453-29.843 41.524-5.625m12.031 148.437-51.016-11.484m32.461 26.523-32.46-26.523 40.702-10.04m7.735 145.196-45.899-3.828m35.821 21.797-35.82-21.797 38.945-15.547m4.413 143.047-40.78 3.828m39.062 15.156-39.063-15.156 35.586-22.148m2.657 141.992-35.704 11.484m41.446 6.368-41.446-6.368 29.961-29.336m3.204 141.524-30.625 19.14m41.757-3.984-41.757 3.984 21.875-35.78m6.171 140.312-25.468 26.796m39.414-14.258-39.414 14.258 12.265-40.117m10.664 136.992-20.39 34.454m35.235-22.696-35.235 22.696 2.968-41.836m14.883 131.054-15.312 42.11m30.429-28.867-30.43 28.867-4.804-41.68m17.578 123.281-10.234 49.688m25.937-32.969-25.937 32.969-10.82-40.469m18.477 114.453-5.08 57.344m21.993-35.664-21.992 35.664-15.352-38.985M385 2431.25v65.04m18.75-37.5-18.75 37.5-18.75-37.5m16.21 96.132 5.08 72.656m16.093-38.711-16.094 38.711-21.328-36.094M598.36 205.078l-86.72-72.656m16.72 38.476-16.72-38.476 40.782 9.726m43.359 186.602-81.601-65m17.656 38.008L514.18 263.75l41.015 8.71m38.047 179.962-76.484-57.344m18.75 37.5-18.75-37.5 41.25 7.5m32.695 173.516-71.406-49.688m20.039 36.797-20.04-36.797 41.485 6.016m27.383 167.383-66.328-42.07m21.641 35.898-21.641-35.899 41.719 4.258m22.031 161.485-61.172-34.454m23.476 34.727-23.476-34.727 41.875 2.07m16.758 156.055-56.094-26.796m25.781 33.086-25.78-33.086 41.913-.743m11.641 151.211-51.016-19.14m28.555 30.742-28.555-30.742 41.68-4.375m6.758 147.187-45.899-11.484m31.836 27.305-31.836-27.305 40.938-9.102m2.421 144.258-40.78-3.828m35.585 22.187-35.586-22.187 39.063-15.156m-.82 142.656-35.704 3.828m39.297 14.649-39.297-14.649 35.274-22.617m-2.109 142.461-30.625 11.484m41.718 4.375-41.718-4.375 28.554-30.703m-.508 142.891-25.507 19.14m41.25-7.5-41.25 7.5 18.75-37.5m4.218 142.032-20.39 26.796m37.617-18.476-37.617 18.476 7.812-41.21m10.039 138.085-15.312 34.454m32.383-26.68-32.383 26.68-1.914-41.915m14.687 131.133-10.234 42.11m27.07-32.032-27.07 32.032-9.375-40.86m17.032 122.461-5.08 49.688m22.462-35.391-22.461 35.39-14.844-39.218M555 2307.578v57.344m18.75-37.5-18.75 37.5-18.75-37.5m16.21 103.828 5.08 65.04m15.78-38.868-15.78 38.867-21.602-35.937m13.945 94.57 10.234 72.656m13.321-39.726-13.32 39.726-23.79-34.531M765.781 205.078l-81.601-72.656m15.547 38.945-15.547-38.945 40.508 10.937m38.554 185.391-76.484-65m16.406 38.555-16.406-38.555 40.703 10m33.242 178.672-71.406-57.344m17.5 38.086-17.5-38.086 40.976 8.867m27.891 172.149-66.328-49.688m18.75 37.5-18.75-37.5 41.25 7.5m22.5 165.899-61.172-42.07m20.274 36.679-20.274-36.68 41.524 5.782m17.109 159.961-56.094-34.454m22.149 35.625-22.149-35.625 41.758 3.633m11.797 154.492-51.016-26.796m24.492 34.062-24.492-34.062 41.914.859m6.524 149.609-45.899-19.14m27.422 31.758-27.422-31.758 41.836-2.89m1.523 145.702-40.78-11.484m31.015 28.202-31.016-28.202 41.172-7.89m-2.929 143.046-35.704-3.828m35.274 22.656-35.274-22.656 39.297-14.649m-6.132 142.149-30.625 3.828m39.531 13.946-39.532-13.946 34.883-23.242m-6.836 143.086-25.468 11.484m41.874 1.718-41.874-1.718 26.484-32.5m-3.555 144.688-20.39 19.14m40.155-11.953-40.155 11.953 14.53-39.336m3.321 143.868-15.312 26.796m34.883-23.281-34.883 23.281 2.343-41.875m10.43 138.75-10.234 34.454m28.633-30.664-28.633 30.664-7.305-41.29m14.962 130.508-5.08 42.11m23.126-35-23.125 35-14.102-39.492M725 2183.906v49.688m18.75-37.5-18.75 37.5-18.75-37.5m16.21 111.484 5.08 57.344m15.35-38.984-15.35 38.984-21.993-35.664m14.336 101.992 10.234 65.04m12.696-39.962-12.696 39.961-24.336-34.18m11.563 92.813 15.312 72.656m10.625-40.547-10.625 40.547-26.093-32.812M933.242 205.078l-76.484-72.656m14.258 39.414-14.258-39.414 40.078 12.226m33.867 184.102-71.406-65m15.117 39.102-15.117-39.102 40.351 11.367m28.516 177.305-66.328-57.344m16.094 38.712-16.094-38.712 40.625 10.352m23.125 170.664-61.172-49.688m17.266 38.204-17.266-38.204 40.899 9.063m17.734 164.336-56.094-42.07m18.75 37.499-18.75-37.5 41.25 7.5m12.305 158.243-51.016-34.454m20.586 36.524-20.586-36.524 41.563 5.47m6.875 152.655-45.899-26.796M895 955.469l-22.969-35.117 41.875 2.695m1.484 147.773-40.78-19.14m25.976 32.89-25.977-32.89 41.914-1.055m-3.671 143.867-35.704-11.484m29.962 29.336-29.962-29.336 41.446-6.367m-8.281 141.523-30.625-3.828m34.882 23.242-34.883-23.242 39.532-13.945m-11.485 141.445-25.468 3.828m39.844 12.969-39.844-12.969 34.297-24.101m-11.368 143.945-20.39 11.484m41.875-2.032-41.875 2.032 23.476-34.726m-5.625 146.914-15.312 19.14m38.086-17.578-38.086 17.578 8.789-41.015m3.984 145.547-10.234 26.796m30.898-28.358-30.898 28.358-4.14-41.718m11.797 138.593-5.08 34.454m24.024-34.375-24.023 34.375-13.047-39.844M895 2060.195v42.11m18.75-37.5-18.75 37.5-18.75-37.5m16.21 119.101 5.08 49.688m14.843-39.219-14.844 39.219-22.46-35.39m14.804 109.374 10.234 57.344m11.875-40.195-11.875 40.195-25.039-33.633m12.266 99.961 15.312 65.04m9.649-40.821-9.649 40.82-26.836-32.227m8.985 90.86 20.39 72.656m7.93-41.172-7.93 41.172-28.164-31.015m223.672-2391.485-71.406-72.656m12.891 39.883-12.891-39.883 39.648 13.594m29.219 182.734-66.328-65m13.672 39.648-13.672-39.648 39.922 12.852m23.828 175.82-61.172-57.344m14.531 39.297-14.53-39.297 40.155 11.953m18.477 169.063-56.094-49.688m15.625 38.907-15.625-38.907 40.508 10.82m13.047 162.579-51.016-42.07m16.992 38.32-16.992-38.32 40.86 9.374m7.617 156.368-45.938-34.454m18.75 37.5-18.75-37.5 41.25 7.5m2.109 150.625-40.78-26.796m21.054 36.25-21.055-36.25 41.602 4.921m-3.359 145.547-35.704-19.14m24.219 34.258-24.219-34.258 41.915 1.172m-8.75 141.64-30.626-11.484m28.555 30.742-28.554-30.742 41.718-4.375m-13.672 139.531-25.468-3.828m34.297 24.102-34.297-24.102 39.843-12.969m-16.914 140.469-20.39 3.828m40.312 11.524-40.312-11.524 33.398-25.351m-15.547 145.195-15.312 11.484m41.25-7.5-41.25 7.5 18.75-37.5m-5.977 149.688-10.234 19.14m34.219-24.257-34.22 24.257 1.134-41.914m6.524 146.446-5.08 26.796m25.43-33.32-25.43 33.32-11.405-40.351M1065 1936.523v34.454m18.75-37.5-18.75 37.5-18.75-37.5m16.21 126.718 5.08 42.11m14.1-39.492-14.1 39.492-23.126-35m15.469 116.601 10.234 49.688m10.821-40.469-10.82 40.469-25.9-32.969m13.126 106.953 15.312 57.344m8.438-41.055-8.438 41.055-27.773-31.367m9.922 97.695 20.39 65.04m6.68-41.407-6.68 41.406-29.101-30.195m6.172 88.828 25.468 72.656m5.274-41.562-5.274 41.562-30.078-29.18m220.508-2393.32-66.328-72.656m11.445 40.312-11.445-40.312 39.14 15.078m24.61 181.25-61.172-65m12.031 40.156-12.03-40.156 39.335 14.453m19.297 174.219-56.094-57.344M1219.766 435l-12.813-39.922 39.61 13.711m13.945 167.305-51.016-49.688m13.75 39.571-13.75-39.57 39.961 12.734m8.516 160.664-45.938-42.07m15 39.14-15-39.14 40.313 11.484m3.046 154.258-40.78-34.454m16.562 38.517-16.563-38.517 40.743 9.883m-2.5 148.242-35.704-26.796m18.75 37.5-18.75-37.5 41.25 7.5m-8.085 142.968-30.626-19.14m21.876 35.78-21.876-35.78 41.758 3.984m-13.711 138.828-25.468-11.484m26.484 32.5-26.484-32.5 41.875-1.719m-18.946 136.875-20.39-3.828m33.398 25.352-33.398-25.352 40.312-11.524m-22.461 139.024-15.312 3.828m40.937 9.102-40.937-9.102 31.836-27.266m-19.063 147.11-10.234 11.484m38.945-15.586-38.945 15.586 10.898-40.508m-3.241 152.696-5.08 19.14m27.774-31.406-27.773 31.406-8.477-41.054M1235 1812.852v26.796m18.75-37.5-18.75 37.5-18.75-37.5m16.21 134.375 5.08 34.454m13.046-39.844-13.047 39.844-24.023-34.375m16.367 123.593 10.234 42.11m9.375-40.86-9.375 40.86-27.07-32.032m14.297 113.633 15.312 49.688m6.875-41.328-6.875 41.328-28.945-30.313m11.094 104.297 20.39 57.344m5.118-41.602-5.118 41.602-30.234-29.024m7.305 95.352 25.468 65.04m3.789-41.798-3.789 41.797-31.132-28.086m3.086 86.719 30.624 72.656m2.735-41.836-2.735 41.836-31.835-27.265m217.109-2395.235-61.172-72.656m9.805 40.742-9.805-40.742 38.477 16.601m20.156 179.727-56.094-65m10.313 40.625-10.313-40.625 38.672 16.133m14.883 172.539-51.016-57.344m10.898 40.469-10.898-40.469 38.946 15.547m9.531 165.469-45.938-49.688m11.679 40.274-11.679-40.274 39.219 14.805m4.14 158.594-40.78-42.07m12.617 39.96-12.618-39.96 39.57 13.827m-1.327 151.915-35.704-34.454m13.985 39.532-13.985-39.532 40 12.54m-6.835 145.585-30.626-26.796m15.899 38.828-15.899-38.828 40.586 10.586m-12.539 139.882-25.468-19.14m18.75 37.5-18.75-37.5 41.25 7.5m-18.321 135.312-20.39-11.484m23.476 34.726-23.476-34.726 41.875 2.07m-24.024 133.086-15.312-3.828m31.836 27.304-31.836-27.304 40.937-9.102m-28.164 136.602-10.234 3.828m41.719 4.376-41.72-4.376 28.555-30.742m-20.897 150.586-5.08 11.484m32.345-26.64-32.344 26.64-1.914-41.875M1405 1689.18v19.14m18.75-37.5-18.75 37.5-18.75-37.5m16.21 142.032 5.08 26.796m11.405-40.351-11.406 40.351-25.43-33.32m17.774 130.195 10.234 34.454m7.305-41.289-7.305 41.289-28.633-30.665m15.86 119.883 15.312 42.11m4.804-41.68-4.804 41.68-30.43-28.867m12.579 110.468 20.39 49.688m3.125-41.797-3.125 41.797-31.562-27.54m8.633 101.524 25.468 57.344m1.914-41.875-1.914 41.875-32.343-26.64m4.297 92.968 30.624 65.04m.978-41.954-.977 41.953-32.93-25.977m-.235 84.61 35.704 72.656m.273-41.914-.273 41.914-33.36-25.39m213.555-2397.11-56.094-72.656m8.087 41.133-8.087-41.133 37.735 18.203m15.82 178.125-51.016-65m8.398 41.055-8.398-41.055 37.89 17.93m10.587 170.742-45.938-57.344m8.829 40.977-8.829-40.977 38.086 17.54m5.273 163.476-40.78-49.688m9.296 40.86-9.297-40.86 38.282 17.07m-.039 156.329-35.704-42.07m9.962 40.703-9.962-40.704 38.555 16.446m-5.39 149.297-30.626-34.454m10.899 40.508-10.899-40.508 38.946 15.586m-10.899 142.539-25.468-26.796m12.265 40.117-12.265-40.117 39.414 14.257m-16.485 136.211-20.39-19.14m14.531 39.336-14.531-39.336 40.156 11.992m-22.305 130.82-15.312-11.484m18.75 37.5-18.75-37.5 41.25 7.5m-28.477 127.656-10.234-3.828m28.555 30.742-28.555-30.742 41.719-4.375m-34.062 131.875-5.08 3.828m41.25-7.5-41.25 7.5 18.75-37.5M1575 1565.508v11.484m18.75-37.5-18.75 37.5-18.75-37.5m16.21 149.688 5.08 19.14m8.476-41.054-8.477 41.054-27.773-31.406m20.117 135.938 10.234 26.796m4.141-41.718-4.14 41.718-30.9-28.359m18.126 125.234 15.312 34.454m1.875-41.914-1.875 41.914-32.383-26.68m14.532 115.898 20.39 42.11m.508-41.953-.508 41.953-33.242-25.586m10.313 107.187 25.468 49.688m-.429-41.914.43 41.914-33.79-24.805m5.743 98.789 30.624 57.344m-1.093-41.875 1.093 41.875-34.218-24.258m1.054 90.586 35.704 65.04m-1.642-41.915 1.642 41.914-34.493-23.867m-3.749 82.5 40.78 72.656m-1.992-41.875 1.993 41.875-34.688-23.515m209.805-2398.985-51.016-72.656m6.211 41.445-6.21-41.445 36.913 19.922m11.563 176.406-45.938-65m6.329 41.445-6.329-41.445 36.953 19.805m6.406 168.867-40.78-57.344m6.445 41.406-6.446-41.406 36.993 19.688m1.25 161.328-35.704-49.688m6.642 41.367-6.642-41.367 37.11 19.492m-3.945 153.907-30.626-42.07m6.915 41.328-6.915-41.329 37.227 19.297m-9.18 146.446-25.468-34.454m7.226 41.29-7.226-41.29 37.382 18.985m-14.453 139.14-20.39-26.796m7.812 41.211-7.812-41.211 37.617 18.476m-19.766 131.992-15.312-19.14m8.789 41.015-8.79-41.015 38.087 17.578m-25.313 125.234-10.234-11.484m10.898 40.508-10.898-40.508 38.945 15.586m-31.288 119.57-5.08-3.828m18.75 37.5-18.75-37.5 41.25 7.5m-38.71 120v3.828m18.75-37.5-18.75 37.5-18.75-37.5m16.21 157.344 5.08 11.484m1.913-41.875-1.914 41.875-32.344-26.64m24.688 138.828 10.234 19.14m-1.133-41.914 1.133 41.914-34.219-24.257m21.446 128.789 15.312 26.796m-2.343-41.875 2.343 41.875-34.883-23.28m17.032 120.155 20.39 34.454m-2.968-41.837 2.968 41.837-35.234-22.696m12.305 111.914 25.468 42.11m-3.398-41.797 3.398 41.797-35.468-22.383m7.422 103.984 30.624 49.688m-3.71-41.758 3.71 41.758-35.624-22.11m2.46 96.094 35.704 57.344m-3.907-41.719 3.907 41.719-35.743-21.914m-2.499 88.242 40.78 65.04m-4.023-41.759 4.024 41.758-35.782-21.836m-7.578 80.469 45.938 72.656m-4.179-41.718 4.179 41.718-35.899-21.68m205.899-2400.82-45.938-72.656m4.179 41.718-4.179-41.718 35.899 21.68m7.46 174.648-40.78-65m4.023 41.719-4.024-41.719 35.782 21.797m2.461 166.875-35.704-57.344m3.907 41.719-3.907-41.719 35.743 21.914m-2.578 159.102-30.626-49.688m3.711 41.758-3.71-41.758 35.624 22.11m-7.578 151.289-25.468-42.07m3.398 41.757-3.398-41.758 35.43 22.344m-12.501 143.399-20.39-34.454m2.968 41.837-2.968-41.837 35.234 22.696m-17.383 135.429-15.312-26.796m2.344 41.875-2.344-41.875 34.883 23.28m-22.11 127.188-10.234-19.14m1.133 41.914-1.133-41.914 34.219 24.257m-26.562 118.555-5.08-11.484m-1.913 41.875 1.914-41.875 32.344 26.64M1915 1318.164v-3.828m-18.75 37.5 18.75-37.5 18.75 37.5m-21.29 90 5.08 3.828m-18.75-37.5 18.75 37.5-41.25-7.5m33.593 127.344 10.234 11.484m-10.898-40.508 10.898 40.508-38.945-15.586m26.172 127.774 15.312 19.14m-8.789-41.015 8.79 41.015-38.087-17.578m20.235 122.11 20.39 26.796m-7.812-41.21 7.812 41.21-37.656-18.476m14.727 115.351 25.468 34.454m-7.226-41.289 7.226 41.289-37.382-18.985m9.336 108.203 30.624 42.11m-6.914-41.367 6.915 41.367-37.227-19.297m4.062 100.898 35.704 49.688m-6.642-41.367 6.642 41.367-37.11-19.492m-1.132 93.476 40.78 57.344m-6.445-41.406 6.446 41.406-36.993-19.688m-6.367 86.016 45.938 65.04m-6.329-41.485 6.329 41.484-36.953-19.844m-11.524 78.477 51.016 72.656m-6.211-41.445 6.21 41.445-36.913-19.922M2105.39 205.078l-40.78-72.656m1.992 41.875-1.993-41.875 34.688 23.516m3.555 172.812-35.704-65m1.602 41.875-1.602-41.875 34.493 23.828m-1.328 164.844-30.626-57.344m1.094 41.914-1.093-41.914 34.218 24.258m-6.172 156.758-25.468-49.688m.39 41.914-.39-41.914 33.789 24.805m-10.86 148.594-20.39-42.07m-.508 41.913.508-41.914 33.242 25.547m-15.391 140.196-15.312-34.454m-1.914 41.915 1.914-41.915 32.383 26.68m-19.61 131.445-10.234-26.796m-4.141 41.718 4.14-41.718 30.9 28.398m-23.242 122.07-5.08-19.14m-8.476 41.054 8.477-41.054 27.773 31.406M2085 1194.492v-11.484m-18.75 37.5 18.75-37.5 18.75 37.5m-21.29 97.656 5.08-3.828m-41.25 7.5 41.25-7.5-18.75 37.5m11.093 90 10.234 3.828m-28.554-30.742 28.554 30.742-41.719 4.375m28.946 115.469 15.312 11.484m-18.75-37.5 18.75 37.5-41.25-7.5m23.399 119.688 20.39 19.14m-14.531-39.336 14.531 39.336-40.156-11.953m17.227 116.485 25.468 26.796m-12.265-40.117 12.265 40.117-39.414-14.257m11.368 111.132 30.624 34.454m-10.898-40.508 10.898 40.508-38.945-15.586m5.781 104.804 35.704 42.11m-9.962-40.742 9.962 40.742-38.555-16.485m.313 98.086 40.78 49.688m-9.296-40.86 9.297 40.86-38.282-17.07m-5.078 91.054 45.938 57.344m-8.829-40.977 8.829 40.977-38.086-17.54m-10.391 83.868 51.016 65.04m-8.398-41.095 8.398 41.094-37.89-17.969m-15.665 76.602 56.094 72.656m-8.087-41.133 8.087 41.133-37.774-18.203m197.579-2404.297-35.704-72.656m-.273 41.914.273-41.914 33.36 25.39m-.195 170.938-30.626-65m-.977 41.914.977-41.914 32.93 25.938m-4.883 162.734-25.468-57.344m-1.914 41.875 1.914-41.875 32.343 26.64m-9.414 154.376-20.39-49.688m-3.125 41.797 3.125-41.797 31.562 27.578m-13.711 145.821-15.312-42.07m-4.804 41.64 4.804-41.64 30.43 28.827m-17.657 136.915-10.234-34.454m-7.305 41.29 7.305-41.29 28.633 30.664m-20.976 127.461-5.08-26.796m-11.405 40.351 11.406-40.351 25.43 33.359M2255 1070.82v-19.14m-18.75 37.5 18.75-37.5 18.75 37.5m-21.29 105.312 5.08-11.484m-32.345 26.64 32.344-26.64 1.914 41.875m-9.57 93.281 10.234-3.828m-41.719-4.376 41.72 4.376-28.555 30.742m15.781 96.758 15.312 3.828m-31.836-27.266 31.836 27.266-40.937 9.102m23.086 110.742 20.39 11.484m-23.476-34.726 23.476 34.726-41.875-2.031m18.946 114.219 25.468 19.14m-18.75-37.5 18.75 37.5-41.25-7.5m13.204 112.032 30.624 26.796m-15.898-38.828 15.898 38.828-40.585-10.585m7.421 107.46 35.704 34.454m-13.985-39.532 13.985 39.532-40-12.54m1.758 101.758 40.78 42.11m-12.656-40 12.657 40-39.57-13.867m-3.79 95.468 45.938 49.688m-11.679-40.234 11.679 40.234-39.258-14.805m-9.219 88.789 51.016 57.344m-10.898-40.469 10.898 40.469-38.945-15.547m-14.61 81.875 56.094 65.04m-10.313-40.665 10.313 40.664-38.672-16.172m-19.961 74.805 61.172 72.656m-9.805-40.742 9.805 40.742-38.477-16.601m193.204-2405.899-30.626-72.656m-2.734 41.836 2.735-41.836 31.835 27.266m-3.789 169.062-25.468-65m-3.789 41.758 3.789-41.758 31.132 28.047m-8.203 160.625-20.39-57.344m-5.117 41.602 5.117-41.602 30.234 29.024m-12.383 151.992-15.312-49.688m-6.875 41.328 6.875-41.328 28.945 30.313m-16.172 143.086-10.234-42.07m-9.375 40.859 9.375-40.86 27.07 31.993m-19.413 133.75-5.08-34.454m-13.046 39.844 13.047-39.844 24.023 34.375M2425 947.148v-26.796m-18.75 37.5 18.75-37.5 18.75 37.5m-21.29 112.968 5.08-19.14m-27.774 31.406 27.773-31.406 8.477 41.054m-16.133 101.758 10.234-11.484m-38.945 15.586 38.945-15.586-10.898 40.508m-1.875 94.648 15.312-3.828m-40.937-9.102 40.937 9.102-31.836 27.305m13.985 100.195 20.39 3.828m-33.398-25.351 33.398 25.351-40.312 11.524m17.383 108.32 25.468 11.484m-26.484-32.5 26.484 32.5-41.875 1.719m13.829 110.469 30.624 19.14m-21.874-35.78 21.874 35.78-41.757-3.984m8.593 108.516 35.704 26.796m-18.75-37.5 18.75 37.5-41.25-7.5m3.008 104.375 40.78 34.454m-16.562-38.517 16.563 38.517-40.743-9.883m-2.617 99.101 45.938 42.11m-15-39.18 15 39.18-40.313-11.524m-8.164 93.125 51.016 49.688m-13.789-39.571 13.789 39.57-39.961-12.734m-13.594 86.719 56.094 57.344m-12.813-39.882 12.813 39.882-39.61-13.711m-19.023 80.039 61.172 65.04m-12.031-40.196 12.03 40.195-39.335-14.492m-24.414 73.125 66.328 72.656m-11.445-40.312 11.445 40.312-39.14-15.039m188.71-2407.461-25.468-72.656m-5.313 41.601 5.313-41.601 30.078 29.18m-7.149 167.148-20.39-65m-6.68 41.367 6.68-41.367 29.101 30.156m-11.25 158.516-15.312-57.344m-8.438 41.055 8.438-41.055 27.773 31.406m-15 149.61-10.234-49.688m-10.82 40.469 10.82-40.469 25.898 32.969m-18.241 140.43-5.08-42.07m-14.1 39.453 14.1-39.454 23.126 34.961M2595 823.477v-34.454m-18.75 37.5 18.75-37.5 18.75 37.5m-21.29 120.625 5.08-26.796m-25.43 33.358 25.43-33.358 11.405 40.351m-19.062 110.117 10.234-19.14m-34.219 24.258 34.22-24.258-1.134 41.914m-11.64 100.898 15.312-11.484m-41.25 7.5 41.25-7.5-18.75 37.5m.899 97.656 20.39-3.828m-40.312-11.523 40.312 11.523-33.398 25.351m10.469 102.149 25.468 3.828m-34.296-24.101 34.296 24.101-39.843 12.969m11.797 106.875 30.624 11.484m-28.554-30.702 28.555 30.702-41.72 4.375m8.555 107.813 35.704 19.14m-24.219-34.257 24.219 34.257-41.914-1.172m3.672 105.704 40.78 26.796m-21.054-36.25 21.055 36.25-41.641-4.921m-1.719 101.796 45.938 34.454m-18.75-37.5 18.75 37.5-41.25-7.5m-7.227 96.718 51.016 42.11m-16.992-38.36 16.992 38.36-40.86-9.414m-12.695 91.015 56.094 49.688m-15.625-38.867 15.625 38.867-40.508-10.82m-18.125 84.804 61.172 57.344m-14.531-39.297 14.53 39.297-40.155-11.953m-23.594 78.281 66.328 65.04m-13.672-39.688 13.672 39.687-39.922-12.89m-28.945 71.523 71.406 72.656m-12.93-39.883 12.93 39.883-39.648-13.594m184.14-2408.906-20.39-72.656m-7.93 41.172 7.93-41.172 28.164 31.016m-10.313 165.312-15.312-65m-9.649 40.781 9.649-40.781 26.836 32.188m-14.063 156.484-10.234-57.344m-11.875 40.195 11.875-40.195 25.039 33.633m-17.382 147.383-5.08-49.688m-14.843 39.219 14.844-39.219 22.46 35.39M2765 699.805v-42.07m-18.75 37.499 18.75-37.5 18.75 37.5m-21.29 128.243 5.08-34.454m-24.024 34.375 24.023-34.375 13.047 39.844m-20.703 118.281 10.234-26.796m-30.898 28.398 30.898-28.398 4.14 41.718m-16.913 108.75 15.312-19.14m-38.086 17.578 38.086-17.578-8.789 41.015m-9.062 101.797 20.39-11.484m-41.875 2.07 41.875-2.07-23.476 34.726m.547 100.43 25.468-3.828m-39.844-12.969 39.844 12.969-34.296 24.101m6.25 103.399 30.624 3.828m-34.922-23.242 34.923 23.242-39.57 13.945m6.405 105.899 35.704 11.484m-29.962-29.336 29.962 29.336-41.446 6.367m3.204 105.821 40.78 19.14m-25.976-32.89 25.977 32.89-41.914 1.055m-1.446 103.477 45.938 26.796M2765 1804.531l22.969 35.117-41.875-2.695m-6.602 99.57 51.016 34.454m-20.586-36.524 20.586 36.524-41.602-5.43m-11.953 94.648 56.094 42.11m-18.75-37.5 18.75 37.5-41.25-7.5m-17.383 89.101 61.172 49.688m-17.266-38.204 17.266 38.204-40.898-9.063m-22.852 83.047 66.328 57.344m-16.094-38.712 16.094 38.712-40.625-10.352m-28.242 76.68 71.406 65.04m-15.117-39.142 15.117 39.141-40.351-11.406m-33.594 70.039 76.484 72.656m-14.258-39.414 14.258 39.414-40.078-12.226m179.492-2410.274-15.312-72.656m-10.625 40.547 10.625-40.547 26.093 32.812m-13.32 163.516-10.234-65m-12.695 39.922 12.695-39.922 24.336 34.14m-16.679 154.532-5.08-57.344m-15.35 38.985 15.35-38.985 21.993 35.664M2935 576.094v-49.688m-18.75 37.5 18.75-37.5 18.75 37.5m-21.29 135.899 5.08-42.07m-23.126 34.96 23.125-34.96 14.102 39.452m-21.758 126.29 10.234-34.454m-28.633 30.665 28.633-30.665 7.305 41.29m-20.078 116.835 15.312-26.796m-34.883 23.281 34.883-23.281-2.343 41.875m-15.508 108.593 20.39-19.14m-40.155 11.992 40.155-11.992-14.53 39.336m-8.399 103.476 25.468-11.484m-41.874-1.718 41.874 1.718-26.484 32.5m-1.562 102.656 30.624-3.828m-39.57-13.946 39.57 13.946-34.921 23.242m1.757 104.258 35.704 3.828m-35.274-22.617 35.274 22.617-39.297 14.649m1.055 105.195 40.78 11.484m-31.015-28.202 31.016 28.202-41.172 7.89m-2.188 104.298 45.938 19.14m-27.422-31.757 27.422 31.757-41.836 2.89m-6.641 101.642 51.016 26.796m-24.492-34.023 24.492 34.023-41.914-.82m-11.641 97.695 56.094 34.454m-22.149-35.625 22.149 35.625-41.758-3.633m-16.875 92.851 61.172 42.11m-20.273-36.719 20.273 36.719-41.523-5.82m-22.227 87.421 66.328 49.688m-18.75-37.5 18.75 37.5-41.25-7.5m-27.617 81.484 71.406 57.344m-17.5-38.086 17.5 38.086-40.976-8.867m-32.969 75.195 76.484 65.04m-16.406-38.595 16.406 38.594-40.703-10m-38.32 68.633 81.562 72.656m-15.508-38.945 15.508 38.945-40.468-10.937m174.804-2411.563-10.234-72.656m-13.36 39.726 13.36-39.726 23.789 34.531M3107.54 328.75l-5.08-65m-15.78 38.828 15.78-38.828 21.602 35.898M3105 452.422v-57.344m-18.75 37.5 18.75-37.5 18.75 37.5m-21.29 143.516 5.08-49.688m-22.462 35.391 22.461-35.39 14.844 39.218m-22.5 134.18 10.234-42.07m-27.07 31.992 27.07-31.993 9.375 40.86m-22.148 124.883 15.312-34.454m-32.383 26.68 32.383-26.68 1.875 41.914m-19.726 116.211 20.39-26.796m-37.655 18.476 37.655-18.476-7.812 41.21m-15.117 109.258 25.468-19.14m-41.25 7.5 41.25-7.5-18.75 37.5m-9.296 105.312 30.624-11.484m-41.718-4.375 41.718 4.375-28.554 30.742m-4.61 104.414 35.704-3.828m-39.297-14.648 39.297 14.648-35.274 22.656m-2.968 104.844 40.78 3.828m-35.585-22.148 35.586 22.148-39.063 15.156m-4.297 104.688 45.938 11.484m-31.836-27.304 31.836 27.304-40.938 9.102m-7.539 103.086 51.016 19.14m-28.555-30.742 28.555 30.742-41.719 4.375m-11.836 100.157 56.094 26.796m-25.781-33.085 25.78 33.085-41.913.743m-16.719 96.132 61.172 34.454m-23.476-34.727 23.476 34.727-41.875-2.07m-21.875 91.288 66.328 42.11m-21.641-35.938 21.641 35.938-41.719-4.258m-27.148 85.859 71.406 49.688m-20.078-36.797 20.078 36.797-41.484-6.016m-32.461 80 76.484 57.344m-18.75-37.5 18.75 37.5-41.25-7.5m-37.773 73.828 81.562 65.04m-17.617-38.048 17.617 38.047-40.976-8.71m-43.165 67.343 86.72 72.656m-16.72-38.438 16.72 38.438-40.782-9.726M3277.54 205.078l-5.08-72.656m-16.093 38.711 16.094-38.711 21.328 36.094M3275 328.75v-65m-18.75 37.5 18.75-37.5 18.75 37.5m-21.29 151.172 5.08-57.344m-21.993 35.664 21.992-35.664 15.352 38.985m-23.008 142.031 10.234-49.688m-25.898 32.969 25.898-32.969 10.82 40.469m-23.593 132.93 15.312-42.07m-30.429 28.828 30.43-28.829 4.804 41.641m-22.656 124.102 20.39-34.454m-35.235 22.696 35.235-22.696-2.968 41.836m-19.961 116.289 25.468-26.796m-39.414 14.258 39.414-14.258-12.265 40.117m-15.781 110.351 30.624-19.14m-41.757 3.984 41.758-3.984-21.876 35.78m-11.289 107.032 35.704-11.484m-41.446-6.368 41.446 6.368-29.961 29.336m-8.281 105.82 40.78-3.828m-39.062-15.156 39.063 15.156-35.586 22.187m-7.774 105.313 45.938 3.828m-35.821-21.797 35.82 21.797-38.945 15.547m-9.531 104.297 51.016 11.484m-32.461-26.523 32.46 26.523-40.702 10.04m-12.852 102.148 56.094 19.14m-29.453-29.843 29.453 29.843-41.563 5.625m-17.07 98.907 61.172 26.796m-26.836-32.226 26.836 32.226-41.875 2.149m-21.875 94.726 66.328 34.454m-24.648-33.946 24.648 33.946-41.953-.665m-26.914 89.883 71.406 42.11m-22.813-35.195 22.813 35.195-41.836-2.89m-32.109 84.491 76.484 49.688m-21.211-36.134 21.211 36.134-41.64-4.688m-37.383 78.672 81.562 57.344m-19.883-36.875 19.883 36.875-41.445-6.211m-42.696 72.539 86.72 65.04m-18.75-37.5 18.75 37.5-41.25-7.5m-48.008 66.132 91.796 72.656m-17.773-37.968 17.773 37.968-41.054-8.555M3445 205.078v-72.656m-18.75 37.5 18.75-37.5 18.75 37.5m-21.29 158.828 5.08-65m-21.602 35.898 21.601-35.898 15.781 38.828m-23.437 149.844 10.234-57.344m-25.039 33.632 25.04-33.632 11.874 40.195m-24.648 140.821 15.312-49.688m-28.946 30.313 28.946-30.313 6.875 41.328m-24.726 132.071 20.39-42.07m-33.242 25.546 33.242-25.547.508 41.914m-23.437 123.829 25.468-34.454m-37.382 18.985 37.382-18.985-7.226 41.29m-20.82 116.835 30.624-26.796m-40.585 10.586 40.586-10.586-15.899 38.828m-17.266 111.64 35.704-19.14m-41.914 1.172 41.914-1.172-24.22 34.257m-14.022 108.555 40.78-11.484m-41.171-7.891 41.172 7.89-31.016 28.204m-12.344 106.953 45.938-3.828m-38.946-15.546 38.946 15.546-35.82 21.797m-12.657 105.703 51.016 3.828m-36.016-21.524 36.016 21.524-38.79 15.899m-14.765 103.945 56.094 11.484m-32.969-25.898 32.969 25.898-40.508 10.86m-18.125 101.328 61.172 19.14m-30.196-29.101 30.196 29.101-41.367 6.72m-22.383 97.812 66.328 26.796m-27.774-31.445 27.774 31.445-41.797 3.32m-27.07 93.555 71.406 34.454m-25.625-33.204 25.625 33.204-41.914.585m-32.031 88.633 76.484 42.11m-23.828-34.532 23.828 34.532-41.875-1.68m-37.148 83.281 81.562 49.688m-22.265-35.508 22.265 35.508-41.758-3.477m-42.383 77.461 86.72 57.344m-20.938-36.328 20.937 36.328-41.64-5.04m-47.617 71.368 91.796 65.04m-19.765-36.993 19.765 36.992-41.445-6.406m-52.89 65.039 96.874 72.656m-18.749-37.5 18.75 37.5-41.25-7.5" transform="matrix(.1 0 0 -.1 0 275)"/><g clip-path="url(#v)"><path style="fill:none;stroke-width:6.25;stroke-linecap:round;stroke-linejoin:miter;stroke:#000;stroke-opacity:1;stroke-miterlimit:10" d="M-3836.68 1380H7496.68" transform="matrix(.1 0 0 -.1 0 275)"/></g><g clip-path="url(#w)"><path style="fill:none;stroke-width:6.25;stroke-linecap:round;stroke-linejoin:miter;stroke:#000;stroke-opacity:1;stroke-miterlimit:10" d="M-3836.68-2870 7496.68 5630" transform="matrix(.1 0 0 -.1 0 275)"/></g><path style="fill:none;stroke-width:18.75;stroke-linecap:round;stroke-linejoin:miter;stroke:red;stroke-opacity:1;stroke-miterlimit:10" d="M1830 1380h566.68m-97.93-43.75 97.93 43.75-97.93 50M1830 1380l566.68 425m-47.93-93.75 47.93 93.75-104.18-18.75" transform="matrix(.1 0 0 -.1 0 275)"/><g clip-path="url(#x)"><path style="fill:none;stroke-width:12.5;stroke-linecap:round;stroke-linejoin:miter;stroke:red;stroke-opacity:1;stroke-miterlimit:10" d="m1716.68 1384.258-5.508.43-5.781.507-6.016.547-6.25.586-6.602.664-6.835.742-7.149.82-7.46.9-7.774 1.015-8.086 1.093-8.438 1.211-8.789 1.329-9.14 1.484-9.493 1.64-9.882 1.836-10.274 1.993-10.586 2.226-11.015 2.422-11.407 2.695-11.797 3.008-12.187 3.32-12.578 3.633-12.93 4.024-13.32 4.453-13.711 4.96-14.024 5.43-14.375 6.016-14.648 6.64-14.96 7.345-15.157 8.125-15.39 8.984-15.509 9.922-15.625 10.976-15.586 12.11-15.546 13.398-15.391 14.805-15.078 16.367-14.688 18.047-14.18 20-13.437 22.07-12.539 24.414-11.445 26.993-10.078 29.804-8.438 32.93-6.523 36.406-4.258 40.235-1.563 44.453 1.563 49.14 5.156 54.336 9.336 60 14.102 66.367 19.648 73.282 25.86 81.054 33.046 89.532 41.172 98.945 50.39 109.375 60.821 120.898 72.617 133.594 85.977 147.617" transform="matrix(.1 0 0 -.1 0 275)"/></g><g clip-path="url(#y)"><path style="fill:none;stroke-width:12.5;stroke-linecap:round;stroke-linejoin:miter;stroke:red;stroke-opacity:1;stroke-miterlimit:10" d="m1773.32 1384.258-2.578.43-2.695.507-2.813.547-2.93.586-3.007.664-3.125.742-3.203.82-3.36.9-3.437 1.015-3.555 1.093-3.633 1.211-3.75 1.329-3.828 1.484-3.945 1.64-4.024 1.836-4.101 1.993-4.14 2.226-4.22 2.422-4.257 2.695-4.297 3.008-4.258 3.32-4.297 3.633-4.219 4.024-4.14 4.453-4.063 4.96-3.867 5.43-3.71 6.016-3.477 6.64-3.125 7.345-2.813 8.125-2.344 8.984-1.836 9.922-1.21 10.976-.47 12.11.352 13.398 1.328 14.805 2.5 16.367 3.79 18.047 5.273 20 6.953 22.07 8.945 24.414 11.133 26.993 13.633 29.804 16.484 32.93 19.688 36.406 23.36 40.235 27.382 44.453 32.031 49.14 37.188 54.336 43.008 60 49.492 66.367 56.836 73.282 65 81.054 74.14 89.532 84.414 98.945 95.82 109.375 108.634 120.898 122.851 133.594 138.79 147.617" transform="matrix(.1 0 0 -.1 0 275)"/></g><g clip-path="url(#z)"><path style="fill:none;stroke-width:12.5;stroke-linecap:round;stroke-linejoin:miter;stroke:red;stroke-opacity:1;stroke-miterlimit:10" d="m1773.32 1375.742-3.203-.43-3.398-.507-3.633-.547-3.828-.586-4.102-.664-4.336-.742-4.61-.82-4.92-.9-5.196-1.015-5.586-1.093-5.938-1.211-6.328-1.329-6.719-1.484-7.187-1.64-7.695-1.836-8.204-1.993-8.789-2.187-9.375-2.461-10.039-2.695-10.742-3.008-11.523-3.282-12.344-3.671-13.203-4.024-14.219-4.453-15.234-4.922-16.407-5.469-17.617-6.015-18.945-6.64-20.39-7.345-21.993-8.125-23.71-8.984-25.548-9.922-27.578-10.976-29.765-12.11-32.149-13.398-34.804-14.805-37.618-16.367-40.742-18.047-44.101-20-47.813-22.07-51.875-24.414-56.289-26.993-61.094-29.765-66.367-32.969-72.148-36.406-78.438-40.235-85.39-44.453-92.93-49.14-101.25-54.336-110.313-60-120.312-66.328-131.25-73.32-143.242-81.016-156.368-89.57" transform="matrix(.1 0 0 -.1 0 275)"/></g><g clip-path="url(#A)"><path style="fill:none;stroke-width:12.5;stroke-linecap:round;stroke-linejoin:miter;stroke:red;stroke-opacity:1;stroke-miterlimit:10" d="m1824.336 1375.742-.625-.43-.625-.507-.742-.547-.82-.586-.86-.664-.976-.742-1.094-.82-1.211-.9-1.328-1.015-1.446-1.093-1.64-1.211-1.797-1.329-1.953-1.484-2.188-1.64-2.422-1.836-2.695-1.993-2.93-2.187-6.875-5.156-3.984-3.008-4.414-3.282-4.844-3.671-5.39-4.024-12.5-9.375-7.266-5.469-8.047-6.015-8.867-6.64-9.805-7.345-10.82-8.125-11.953-8.984-13.242-9.922-14.61-10.976-16.172-12.11-17.851-13.398-19.727-14.805-21.836-16.367-24.101-18.047-26.64-20-29.415-22.07-32.54-24.414-35.976-26.993-39.726-29.765-43.946-32.969-48.554-36.406-53.633-40.235-59.297-44.453-65.508-49.14-72.422-54.336-80.039-60-88.437-66.328-97.735-73.32-108.046-81.016-119.414-89.57-131.914-98.946-145.86-109.375-161.172-120.898L-41.68-23.75l-196.836-147.656" transform="matrix(.1 0 0 -.1 0 275)"/></g><g clip-path="url(#B)"><path style="fill:none;stroke-width:12.5;stroke-linecap:round;stroke-linejoin:miter;stroke:red;stroke-opacity:1;stroke-miterlimit:10" d="M1824.336 1380h-2062.89" transform="matrix(.1 0 0 -.1 0 275)"/></g><g clip-path="url(#C)"><path style="fill:none;stroke-width:12.5;stroke-linecap:round;stroke-linejoin:miter;stroke:red;stroke-opacity:1;stroke-miterlimit:10" d="m1858.32 1384.258 1.758.43 1.875.507 2.031.547 2.149.586 2.304.664 2.5.742 2.618.82 2.851.9 3.086 1.015 3.281 1.093 3.555 1.211 3.79 1.329 4.1 1.484 4.415 1.64 4.765 1.836 5.118 1.993 5.546 2.226 5.977 2.422 6.445 2.695 6.993 3.008 7.578 3.32 8.164 3.633 8.906 4.024 9.61 4.453 10.43 4.96 11.288 5.43 12.305 6.016 13.36 6.64 14.491 7.345 15.782 8.125 17.187 8.984 18.711 9.922 20.352 10.976 22.226 12.11 24.219 13.398 26.406 14.805 28.867 16.367 31.485 18.047 34.414 20 37.617 22.07 41.133 24.414 44.96 26.993 49.259 29.804 53.906 32.93 59.023 36.406 64.649 40.235 70.898 44.453 77.695 49.14 85.235 54.336 93.515 60 102.618 66.367 112.617 73.282 123.672 81.054 135.86 89.532 149.218 98.945 164.023 109.375 180.274 120.898" transform="matrix(.1 0 0 -.1 0 275)"/></g><g clip-path="url(#D)"><path style="fill:none;stroke-width:12.5;stroke-linecap:round;stroke-linejoin:miter;stroke:red;stroke-opacity:1;stroke-miterlimit:10" d="m1858.32 1375.742 1.172-.43 1.172-.507 1.211-.547 1.21-.586 1.212-.664 1.289-.742 1.25-.82 1.289-.9 1.25-1.015 1.29-1.093 1.25-1.211 1.21-1.329 1.21-1.484 1.134-1.64 1.093-1.836 1.055-1.993.899-2.187.82-2.461.703-2.695.508-3.008.351-3.282.118-3.671-.157-4.024-.43-4.453-.78-4.922-1.172-5.469-1.641-6.015-2.149-6.64-2.734-7.345-3.398-8.125-4.14-8.984-5.04-9.922-5.977-10.976-7.07-12.11-8.32-13.398-9.727-14.805-11.25-16.367-13.008-18.047-15-20-17.187-22.07-19.649-24.414-22.421-26.993-25.508-29.765-28.946-32.969-32.851-36.406-37.07-40.235-41.914-44.453-47.266-49.14-53.164-54.336-59.844-60-67.226-66.328-75.43-73.32-84.531-81.016-94.727-89.57-106.016-98.946L856.72 230.703l-132.5-120.898L576.21-23.75 411.055-171.406" transform="matrix(.1 0 0 -.1 0 275)"/></g><g clip-path="url(#E)"><path style="fill:none;stroke-width:12.5;stroke-linecap:round;stroke-linejoin:miter;stroke:red;stroke-opacity:1;stroke-miterlimit:10" d="m1886.68 1375.742 2.578-.43 2.695-.507 2.813-.547 2.93-.586 3.007-.664 3.125-.742 3.203-.82 3.36-.9 3.437-1.015 3.555-1.093 3.633-1.211 3.75-1.329 3.828-1.484 3.945-1.64 4.024-1.836 4.101-1.993 4.14-2.187 4.22-2.461 4.257-2.695 4.297-3.008 4.258-3.282 4.297-3.671 4.219-4.024 4.14-4.453 4.024-4.922 3.906-5.469 3.71-6.015 3.477-6.64 3.125-7.345 2.813-8.125 2.344-8.984 1.836-9.922 1.21-10.976.47-12.11-.352-13.398-1.368-14.805-2.46-16.367-3.79-18.047-5.273-20-6.992-22.07-8.906-24.414-11.133-26.993-13.633-29.765-16.484-32.969-19.727-36.406-23.32-40.235-27.383-44.453-32.031-49.14-37.188-54.336-43.008-60-49.492-66.328-56.836-73.32-65-81.016-74.14-89.57-84.414-98.946-95.82-109.375-108.634-120.898L1091.172-23.75l-138.79-147.656" transform="matrix(.1 0 0 -.1 0 275)"/></g><g clip-path="url(#F)"><path style="fill:none;stroke-width:12.5;stroke-linecap:round;stroke-linejoin:miter;stroke:red;stroke-opacity:1;stroke-miterlimit:10" d="m1943.32 1375.742 5.508-.43 5.781-.507 6.016-.547 6.25-.586 6.563-.664 6.874-.742 7.149-.82 7.46-.9 7.774-1.015 8.086-1.093 8.438-1.211 8.789-1.329 9.14-1.484 9.493-1.64 9.882-1.836 10.235-1.993 10.625-2.187 11.015-2.461 11.407-2.695 11.797-3.008 12.187-3.282 12.578-3.671 12.93-4.024 13.32-4.453 13.711-4.922 14.024-5.469 14.375-6.015 14.648-6.64 14.96-7.345 15.157-8.125 15.39-8.984 15.509-9.922 15.586-10.976 15.625-12.11 15.546-13.398 15.391-14.805 15.078-16.367 14.688-18.047 14.18-20 13.398-22.07 12.578-24.414 11.445-26.993 10.078-29.765 8.438-32.969 6.523-36.406 4.22-40.235 1.6-44.453-1.562-49.14-5.156-54.336-9.336-60-14.102-66.328-19.648-73.32-25.86-81.016-33.046-89.57-41.172-98.946-50.39-109.375-60.821-120.898-72.656-133.555-85.938-147.656" transform="matrix(.1 0 0 -.1 0 275)"/></g><g clip-path="url(#G)"><path style="fill:none;stroke-width:12.5;stroke-linecap:round;stroke-linejoin:miter;stroke:red;stroke-opacity:1;stroke-miterlimit:10" d="m1886.68 1422.5 5.937 4.453 6.602 4.961 7.265 5.469 8.047 6.015 8.907 6.68 9.804 7.344 10.86 8.164 11.992 9.023 13.281 9.922 14.648 11.016 16.211 12.148 17.891 13.399 19.805 14.843 21.875 16.407 24.14 18.125 56.25 42.187 32.617 24.453 36.055 27.032 39.844 29.882 44.023 33.047 48.672 36.485 53.79 40.351 59.452 44.57 65.704 49.297 72.578 54.454 80.234 60.156 88.711 66.523 98.008 73.477 108.281 81.25 119.727 89.765 132.265 99.22 146.211 109.687 161.602 121.172 178.554 133.945 197.383 148.008" transform="matrix(.1 0 0 -.1 0 275)"/></g><g clip-path="url(#H)"><path style="fill:none;stroke-width:12.5;stroke-linecap:round;stroke-linejoin:miter;stroke:red;stroke-opacity:1;stroke-miterlimit:10" d="M1886.68 1380h2017.226" transform="matrix(.1 0 0 -.1 0 275)"/></g></svg>