<svg xmlns="http://www.w3.org/2000/svg" xmlns:xlink="http://www.w3.org/1999/xlink" width="488" height="275pt" viewBox="0 0 366 275"><defs><clipPath id="a"><path d="M182 9.5h2v255h-2zm0 0"/></clipPath><clipPath id="b"><path d="M13 136h340v2H13zm0 0"/></clipPath><clipPath id="c"><path d="M13 9.5h1v255h-1zm0 0"/></clipPath><clipPath id="d"><path d="M69 9.5h1v255h-1zm0 0"/></clipPath><clipPath id="e"><path d="M126 9.5h1v255h-1zm0 0"/></clipPath><clipPath id="f"><path d="M182 9.5h2v255h-2zm0 0"/></clipPath><clipPath id="g"><path d="M239 9.5h1v255h-1zm0 0"/></clipPath><clipPath id="h"><path d="M296 9.5h1v255h-1zm0 0"/></clipPath><clipPath id="i"><path d="M352 9.5h1v255h-1zm0 0"/></clipPath><clipPath id="j"><path d="M13 264h340v.5H13zm0 0"/></clipPath><clipPath id="k"><path d="M13 221h340v2H13zm0 0"/></clipPath><clipPath id="l"><path d="M13 179h340v1H13zm0 0"/></clipPath><clipPath id="m"><path d="M13 136h340v2H13zm0 0"/></clipPath><clipPath id="n"><path d="M13 94h340v1H13zm0 0"/></clipPath><clipPath id="o"><path d="M13 51h340v2H13zm0 0"/></clipPath><clipPath id="p"><path d="M13 9.5h340v.5H13zm0 0"/></clipPath><clipPath id="v"><path d="M13 136h340v2H13zm0 0"/></clipPath><clipPath id="w"><path d="M13 9.5h340v255H13zm0 0"/></clipPath><clipPath id="x"><path d="M156 110h111v154.5H156zm0 0"/></clipPath><clipPath id="y"><path d="M184 174h83v90.5h-83zm0 0"/></clipPath><clipPath id="z"><path d="M13 121h217v143.5H13zm0 0"/></clipPath><clipPath id="A"><path d="M13 153h132v111.5H13zm0 0"/></clipPath><clipPath id="B"><path d="M272 129h81v135.5h-81zm0 0"/></clipPath><clipPath id="C"><path d="M165 9.5h188V146H165zm0 0"/></clipPath><clipPath id="D"><path d="M13 9.5h81V145H13zm0 0"/></clipPath><clipPath id="E"><path d="M13 9.5h121V153H13zm0 0"/></clipPath><clipPath id="F"><path d="M136 9.5h217V153H136zm0 0"/></clipPath><clipPath id="G"><path d="M221 9.5h132V121H221zm0 0"/></clipPath><symbol overflow="visible" id="q"><path style="stroke:none" d="M2.125-2.344H.344v.547h1.781zm0 0"/></symbol><symbol overflow="visible" id="r"><path style="stroke:none" d="M1.656-2.438h.36c.734 0 1.109.329 1.109.954 0 .671-.422 1.078-1.11 1.078-.718 0-1.078-.36-1.109-1.14H.234c.032.421.11.702.235.952.281.5.797.766 1.531.766 1.094 0 1.797-.656 1.797-1.656 0-.672-.266-1.047-.906-1.266.5-.203.75-.578.75-1.11 0-.906-.61-1.453-1.625-1.453-1.079 0-1.641.579-1.657 1.72h.657c0-.329.03-.516.109-.673.156-.296.484-.468.906-.468.578 0 .938.343.938.906 0 .375-.14.594-.438.719-.172.078-.406.109-.875.109zm0 0"/></symbol><symbol overflow="visible" id="s"><path style="stroke:none" d="M3.797-.656H1c.063-.438.313-.703.953-1.094l.75-.406c.75-.406 1.125-.953 1.125-1.594 0-.453-.172-.86-.484-1.14-.328-.298-.719-.423-1.219-.423-.672 0-1.172.235-1.469.688-.187.281-.265.61-.281 1.156h.656c.032-.36.078-.578.157-.75.171-.328.515-.515.921-.515.594 0 1.047.421 1.047.984 0 .422-.25.781-.719 1.063l-.687.39C.64-1.672.312-1.172.25 0h3.547zm0 0"/></symbol><symbol overflow="visible" id="t"><path style="stroke:none" d="M1.938-3.781V0h.671v-5.313h-.437c-.235.813-.39.922-1.406 1.047v.485zm0 0"/></symbol><symbol overflow="visible" id="u"><path style="stroke:none" d="M2.063-5.313c-.5 0-.938.22-1.22.579C.5-4.266.329-3.563.329-2.578c0 1.797.594 2.75 1.734 2.75 1.126 0 1.735-.953 1.735-2.703 0-1.031-.156-1.719-.516-2.203-.281-.375-.719-.579-1.219-.579zm0 .579c.718 0 1.062.718 1.062 2.14 0 1.516-.344 2.219-1.078 2.219C1.344-.375 1-1.109 1-2.563c0-1.453.344-2.171 1.063-2.171zm0 0"/></symbol></defs><g clip-path="url(#a)"><path style="fill:none;stroke-width:6.25;stroke-linecap:round;stroke-linejoin:miter;stroke:#bfbfbf;stroke-opacity:1;stroke-miterlimit:10" d="M1830 105v2550" transform="matrix(.1 0 0 -.1 0 275)"/></g><g clip-path="url(#b)"><path style="fill:none;stroke-width:6.25;stroke-linecap:round;stroke-linejoin:miter;stroke:#bfbfbf;stroke-opacity:1;stroke-miterlimit:10" d="M130 1380h3400" transform="matrix(.1 0 0 -.1 0 275)"/></g><g clip-path="url(#c)"><path style="fill:none;stroke-width:6.25;stroke-linecap:round;stroke-linejoin:miter;stroke:#bfbfbf;stroke-opacity:1;stroke-dasharray:12.5,18.75;stroke-miterlimit:10" d="M130 105v2550" transform="matrix(.1 0 0 -.1 0 275)"/></g><g clip-path="url(#d)"><path style="fill:none;stroke-width:6.25;stroke-linecap:round;stroke-linejoin:miter;stroke:#bfbfbf;stroke-opacity:1;stroke-dasharray:12.5,18.75;stroke-miterlimit:10" d="M696.68 105v2550" transform="matrix(.1 0 0 -.1 0 275)"/></g><g clip-path="url(#e)"><path style="fill:none;stroke-width:6.25;stroke-linecap:round;stroke-linejoin:miter;stroke:#bfbfbf;stroke-opacity:1;stroke-dasharray:12.5,18.75;stroke-miterlimit:10" d="M1263.32 105v2550" transform="matrix(.1 0 0 -.1 0 275)"/></g><g clip-path="url(#f)"><path style="fill:none;stroke-width:6.25;stroke-linecap:round;stroke-linejoin:miter;stroke:#bfbfbf;stroke-opacity:1;stroke-dasharray:12.5,18.75;stroke-miterlimit:10" d="M1830 105v2550" transform="matrix(.1 0 0 -.1 0 275)"/></g><g clip-path="url(#g)"><path style="fill:none;stroke-width:6.25;stroke-linecap:round;stroke-linejoin:miter;stroke:#bfbfbf;stroke-opacity:1;stroke-dasharray:12.5,18.75;stroke-miterlimit:10" d="M2396.68 105v2550" transform="matrix(.1 0 0 -.1 0 275)"/></g><g clip-path="url(#h)"><path style="fill:none;stroke-width:6.25;stroke-linecap:round;stroke-linejoin:miter;stroke:#bfbfbf;stroke-opacity:1;stroke-dasharray:12.5,18.75;stroke-miterlimit:10" d="M2963.32 105v2550" transform="matrix(.1 0 0 -.1 0 275)"/></g><g clip-path="url(#i)"><path style="fill:none;stroke-width:6.25;stroke-linecap:round;stroke-linejoin:miter;stroke:#bfbfbf;stroke-opacity:1;stroke-dasharray:12.5,18.75;stroke-miterlimit:10" d="M3530 105v2550" transform="matrix(.1 0 0 -.1 0 275)"/></g><g clip-path="url(#j)"><path style="fill:none;stroke-width:6.25;stroke-linecap:round;stroke-linejoin:miter;stroke:#bfbfbf;stroke-opacity:1;stroke-dasharray:12.5,18.75;stroke-miterlimit:10" d="M130 105h3400" transform="matrix(.1 0 0 -.1 0 275)"/></g><g clip-path="url(#k)"><path style="fill:none;stroke-width:6.25;stroke-linecap:round;stroke-linejoin:miter;stroke:#bfbfbf;stroke-opacity:1;stroke-dasharray:12.5,18.75;stroke-miterlimit:10" d="M130 530h3400" transform="matrix(.1 0 0 -.1 0 275)"/></g><g clip-path="url(#l)"><path style="fill:none;stroke-width:6.25;stroke-linecap:round;stroke-linejoin:miter;stroke:#bfbfbf;stroke-opacity:1;stroke-dasharray:12.5,18.75;stroke-miterlimit:10" d="M130 955h3400" transform="matrix(.1 0 0 -.1 0 275)"/></g><g clip-path="url(#m)"><path style="fill:none;stroke-width:6.25;stroke-linecap:round;stroke-linejoin:miter;stroke:#bfbfbf;stroke-opacity:1;stroke-dasharray:12.5,18.75;stroke-miterlimit:10" d="M130 1380h3400" transform="matrix(.1 0 0 -.1 0 275)"/></g><g clip-path="url(#n)"><path style="fill:none;stroke-width:6.25;stroke-linecap:round;stroke-linejoin:miter;stroke:#bfbfbf;stroke-opacity:1;stroke-dasharray:12.5,18.75;stroke-miterlimit:10" d="M130 1805h3400" transform="matrix(.1 0 0 -.1 0 275)"/></g><g clip-path="url(#o)"><path style="fill:none;stroke-width:6.25;stroke-linecap:round;stroke-linejoin:miter;stroke:#bfbfbf;stroke-opacity:1;stroke-dasharray:12.5,18.75;stroke-miterlimit:10" d="M130 2230h3400" transform="matrix(.1 0 0 -.1 0 275)"/></g><g clip-path="url(#p)"><path style="fill:none;stroke-width:6.25;stroke-linecap:round;stroke-linejoin:miter;stroke:#bfbfbf;stroke-opacity:1;stroke-dasharray:12.5,18.75;stroke-miterlimit:10" d="M130 2655h3400" transform="matrix(.1 0 0 -.1 0 275)"/></g><path style="fill:none;stroke-width:12.5;stroke-linecap:square;stroke-linejoin:miter;stroke:#000;stroke-opacity:1;stroke-miterlimit:10" d="M130 105h3400" transform="matrix(.1 0 0 -.1 0 275)"/><path style="fill:none;stroke-width:6.25;stroke-linecap:butt;stroke-linejoin:miter;stroke:#000;stroke-opacity:1;stroke-miterlimit:10" d="M130 105v50m56.68-50v25m56.64-25v25M300 105v25m56.68-25v25m56.64-25v25M470 105v25m56.68-25v25m56.64-25v25M640 105v25m56.68-25v50m56.64-50v25M810 105v25m56.68-25v25m56.64-25v25M980 105v25m56.68-25v25m56.64-25v25m56.68-25v25m56.68-25v25m56.64-25v50m56.68-50v25m56.68-25v25m56.64-25v25m56.68-25v25m56.68-25v25m56.64-25v25m56.68-25v25m56.68-25v25m56.64-25v25m56.68-25v50m56.68-50v25m56.64-25v25m56.68-25v25m56.68-25v25m56.64-25v25m56.68-25v25m56.68-25v25m56.64-25v25m56.68-25v25m56.68-25v50m56.64-50v25m56.68-25v25m56.68-25v25m56.64-25v25m56.68-25v25m56.68-25v25m56.64-25v25m56.68-25v25m56.68-25v25m56.64-25v50m56.68-50v25m56.68-25v25m56.64-25v25m56.68-25v25m56.68-25v25m56.64-25v25m56.68-25v25m56.68-25v25m56.64-25v25m56.68-25v50" transform="matrix(.1 0 0 -.1 0 275)"/><g style="fill:#000;fill-opacity:1"><use xlink:href="#q" x="9.042" y="274.5"/><use xlink:href="#r" x="11.539" y="274.5"/></g><g style="fill:#000;fill-opacity:1"><use xlink:href="#q" x="65.917" y="274.5"/><use xlink:href="#s" x="68.414" y="274.5"/></g><g style="fill:#000;fill-opacity:1"><use xlink:href="#q" x="122.792" y="274.5"/><use xlink:href="#t" x="125.289" y="274.5"/></g><use xlink:href="#u" x="180.915" y="274.5" style="fill:#000;fill-opacity:1"/><use xlink:href="#t" x="237.165" y="274.5" style="fill:#000;fill-opacity:1"/><use xlink:href="#s" x="294.04" y="274.5" style="fill:#000;fill-opacity:1"/><use xlink:href="#r" x="350.915" y="274.5" style="fill:#000;fill-opacity:1"/><path style="fill:none;stroke-width:12.5;stroke-linecap:square;stroke-linejoin:miter;stroke:#000;stroke-opacity:1;stroke-miterlimit:10" d="M130 2655h3400" transform="matrix(.1 0 0 -.1 0 275)"/><path style="fill:none;stroke-width:6.25;stroke-linecap:butt;stroke-linejoin:miter;stroke:#000;stroke-opacity:1;stroke-miterlimit:10" d="M130 2655v-50m56.68 50v-25m56.64 25v-25m56.68 25v-25m56.68 25v-25m56.64 25v-25m56.68 25v-25m56.68 25v-25m56.64 25v-25m56.68 25v-25m56.68 25v-50m56.64 50v-25m56.68 25v-25m56.68 25v-25m56.64 25v-25m56.68 25v-25m56.68 25v-25m56.64 25v-25m56.68 25v-25m56.68 25v-25m56.64 25v-50m56.68 50v-25m56.68 25v-25m56.64 25v-25m56.68 25v-25m56.68 25v-25m56.64 25v-25m56.68 25v-25m56.68 25v-25m56.64 25v-25m56.68 25v-50m56.68 50v-25m56.64 25v-25m56.68 25v-25m56.68 25v-25m56.64 25v-25m56.68 25v-25m56.68 25v-25m56.64 25v-25m56.68 25v-25m56.68 25v-50m56.64 50v-25m56.68 25v-25m56.68 25v-25m56.64 25v-25m56.68 25v-25m56.68 25v-25m56.64 25v-25m56.68 25v-25m56.68 25v-25m56.64 25v-50m56.68 50v-25m56.68 25v-25m56.64 25v-25m56.68 25v-25m56.68 25v-25m56.64 25v-25m56.68 25v-25m56.68 25v-25m56.64 25v-25m56.68 25v-50" transform="matrix(.1 0 0 -.1 0 275)"/><g style="fill:#000;fill-opacity:1"><use xlink:href="#q" x="9.042" y="6.375"/><use xlink:href="#r" x="11.539" y="6.375"/></g><g style="fill:#000;fill-opacity:1"><use xlink:href="#q" x="65.917" y="6.375"/><use xlink:href="#s" x="68.414" y="6.375"/></g><g style="fill:#000;fill-opacity:1"><use xlink:href="#q" x="122.792" y="6.375"/><use xlink:href="#t" x="125.289" y="6.375"/></g><use xlink:href="#u" x="180.915" y="6.375" style="fill:#000;fill-opacity:1"/><use xlink:href="#t" x="237.165" y="6.375" style="fill:#000;fill-opacity:1"/><use xlink:href="#s" x="294.04" y="6.375" style="fill:#000;fill-opacity:1"/><use xlink:href="#r" x="350.915" y="6.375" style="fill:#000;fill-opacity:1"/><path style="fill:none;stroke-width:12.5;stroke-linecap:square;stroke-linejoin:miter;stroke:#000;stroke-opacity:1;stroke-miterlimit:10" d="M130 105v2550" transform="matrix(.1 0 0 -.1 0 275)"/><path style="fill:none;stroke-width:6.25;stroke-linecap:butt;stroke-linejoin:miter;stroke:#000;stroke-opacity:1;stroke-miterlimit:10" d="M130 105h50m-50 42.5h25M130 190h25m-25 42.5h25M130 275h25m-25 42.5h25M130 360h25m-25 42.5h25M130 445h25m-25 42.5h25M130 530h50m-50 42.5h25M130 615h25m-25 42.5h25M130 700h25m-25 42.5h25M130 785h25m-25 42.5h25M130 870h25m-25 42.5h25M130 955h50m-50 42.5h25m-25 42.5h25m-25 42.5h25m-25 42.5h25m-25 42.5h25m-25 42.5h25m-25 42.5h25m-25 42.5h25m-25 42.5h25m-25 42.5h50m-50 42.5h25m-25 42.5h25m-25 42.5h25m-25 42.5h25m-25 42.5h25m-25 42.5h25m-25 42.5h25m-25 42.5h25m-25 42.5h25m-25 42.5h50m-50 42.5h25m-25 42.5h25m-25 42.5h25m-25 42.5h25m-25 42.5h25m-25 42.5h25m-25 42.5h25m-25 42.5h25m-25 42.5h25m-25 42.5h50m-50 42.5h25m-25 42.5h25m-25 42.5h25m-25 42.5h25m-25 42.5h25m-25 42.5h25m-25 42.5h25m-25 42.5h25m-25 42.5h25m-25 42.5h50" transform="matrix(.1 0 0 -.1 0 275)"/><g style="fill:#000;fill-opacity:1"><use xlink:href="#q" x="-.542" y="268.25"/><use xlink:href="#r" x="1.956" y="268.25"/></g><g style="fill:#000;fill-opacity:1"><use xlink:href="#q" x="-.542" y="225.125"/><use xlink:href="#s" x="1.956" y="225.125"/></g><g style="fill:#000;fill-opacity:1"><use xlink:href="#q" x="-.542" y="183.25"/><use xlink:href="#t" x="1.956" y="183.25"/></g><use xlink:href="#u" x="1.955" y="140.125" style="fill:#000;fill-opacity:1"/><use xlink:href="#t" x="1.955" y="98.25" style="fill:#000;fill-opacity:1"/><use xlink:href="#s" x="1.955" y="55.125" style="fill:#000;fill-opacity:1"/><use xlink:href="#r" x="1.955" y="12.625" style="fill:#000;fill-opacity:1"/><path style="fill:none;stroke-width:12.5;stroke-linecap:square;stroke-linejoin:miter;stroke:#000;stroke-opacity:1;stroke-miterlimit:10" d="M3530 105v2550" transform="matrix(.1 0 0 -.1 0 275)"/><path style="fill:none;stroke-width:6.25;stroke-linecap:butt;stroke-linejoin:miter;stroke:#000;stroke-opacity:1;stroke-miterlimit:10" d="M3530 105h-50m50 42.5h-25m25 42.5h-25m25 42.5h-25m25 42.5h-25m25 42.5h-25m25 42.5h-25m25 42.5h-25m25 42.5h-25m25 42.5h-25m25 42.5h-50m50 42.5h-25m25 42.5h-25m25 42.5h-25m25 42.5h-25m25 42.5h-25m25 42.5h-25m25 42.5h-25m25 42.5h-25m25 42.5h-25m25 42.5h-50m50 42.5h-25m25 42.5h-25m25 42.5h-25m25 42.5h-25m25 42.5h-25m25 42.5h-25m25 42.5h-25m25 42.5h-25m25 42.5h-25m25 42.5h-50m50 42.5h-25m25 42.5h-25m25 42.5h-25m25 42.5h-25m25 42.5h-25m25 42.5h-25m25 42.5h-25m25 42.5h-25m25 42.5h-25m25 42.5h-50m50 42.5h-25m25 42.5h-25m25 42.5h-25m25 42.5h-25m25 42.5h-25m25 42.5h-25m25 42.5h-25m25 42.5h-25m25 42.5h-25m25 42.5h-50m50 42.5h-25m25 42.5h-25m25 42.5h-25m25 42.5h-25m25 42.5h-25m25 42.5h-25m25 42.5h-25m25 42.5h-25m25 42.5h-25m25 42.5h-50" transform="matrix(.1 0 0 -.1 0 275)"/><g style="fill:#000;fill-opacity:1"><use xlink:href="#q" x="359.25" y="268.25"/><use xlink:href="#r" x="361.748" y="268.25"/></g><g style="fill:#000;fill-opacity:1"><use xlink:href="#q" x="359.25" y="225.125"/><use xlink:href="#s" x="361.748" y="225.125"/></g><g style="fill:#000;fill-opacity:1"><use xlink:href="#q" x="359.25" y="183.25"/><use xlink:href="#t" x="361.748" y="183.25"/></g><use xlink:href="#u" x="359.25" y="140.125" style="fill:#000;fill-opacity:1"/><use xlink:href="#t" x="359.25" y="98.25" style="fill:#000;fill-opacity:1"/><use xlink:href="#s" x="359.25" y="55.125" style="fill:#000;fill-opacity:1"/><use xlink:href="#r" x="359.25" y="12.625" style="fill:#000;fill-opacity:1"/><path style="fill:none;stroke-width:6.25;stroke-linecap:round;stroke-linejoin:miter;stroke:#00f;stroke-opacity:1;stroke-miterlimit:10" d="m263.438 132.422-96.875 72.656m41.25-7.5-41.25 7.5 18.75-37.5m75.585 96.172-91.796 65m41.445-6.367-41.445 6.367 19.765-36.953m69.493 103.281-86.72 57.344m41.641-5.039-41.64 5.039 20.937-36.328m63.203 110.312-81.601 49.688m41.797-3.477-41.797 3.477 22.304-35.508m56.758 117.148-76.484 42.07m41.875-1.64-41.875 1.64 23.828-34.53m50.117 123.749-71.406 34.454m41.913.586-41.913-.586 25.625-33.204m43.242 130.079-66.328 26.796m41.797 3.321-41.797-3.32 27.773-31.446m35.977 135.977-61.172 19.14m41.367 6.72-41.367-6.72 30.195-29.101m28.438 141.289-56.094 11.484m40.507 10.86-40.507-10.86 32.969-25.898m20.586 145.742-51.016 3.828m38.789 15.899-38.789-15.899 36.016-21.523m12.422 149.023-45.899-3.828m35.821 21.797-35.82-21.797 38.945-15.547m4.413 150.703-40.78-11.484m31.015 28.202-31.016-28.202 41.172-7.89m-2.929 150.702-35.704-19.14m24.219 34.258-24.219-34.258 41.915 1.172m-8.75 149.296-30.625-26.796m15.898 38.828-15.899-38.828 40.586 10.585m-12.539 147.54-25.468-34.454m7.226 41.29-7.226-41.29 37.382 18.985m-14.453 146.797-20.39-42.11m-.508 41.953.508-41.953 33.242 25.586m-15.391 147.813-15.312-49.688m-6.875 41.328 6.875-41.328 28.945 30.313m-16.172 150.703-10.234-57.344m-11.875 40.195 11.875-40.195 25.039 33.633M217.54 2496.29l-5.08-65.04m-15.78 38.828 15.78-38.828 21.602 35.898M215 2627.578v-72.656m-18.75 37.5 18.75-37.5 18.75 37.5m197.148-2460-91.796 72.656m41.054-8.555-41.054 8.555 17.773-37.969m71.485 96.641-86.72 65m41.25-7.5-41.25 7.5 18.75-37.5m65.391 103.828-81.601 57.344m41.484-6.212-41.484 6.212 19.922-36.875m59.14 110.859-76.484 49.688m41.64-4.688-41.64 4.688 21.21-36.133m52.735 117.773-71.406 42.07m41.836-2.89-41.836 2.89 22.773-35.195m46.094 124.414-66.328 34.454m41.954-.664-41.954.664 24.648-33.946m39.102 130.821-61.172 26.796m41.876 2.149-41.876-2.149 26.836-32.226m31.797 136.758-56.094 19.14m41.524 5.625-41.524-5.625 29.453-29.843m24.102 142.031-51.016 11.484m40.703 10.039-40.703-10.039 32.461-26.523m15.977 146.367-45.899 3.828m38.946 15.546-38.946-15.546 35.82-21.797m7.539 149.297-40.78-3.828m35.585 22.187-35.586-22.187 39.063-15.156m-.82 150.312-35.704-11.484m29.962 29.336-29.962-29.336 41.446-6.367m-8.281 149.179-30.625-19.14m21.875 35.78-21.875-35.78 41.757 3.984m-13.711 146.484-25.468-26.796m12.265 40.117-12.265-40.117 39.414 14.257m-16.485 143.868-20.39-34.454m2.968 41.837-2.968-41.837 35.234 22.735m-17.383 143.047-15.312-42.11m-4.804 41.68 4.804-41.68 30.43 28.867m-17.657 144.532-10.234-49.688m-10.82 40.469 10.82-40.469 25.937 32.969m-18.28 148.047-5.08-57.344m-15.35 38.985 15.35-38.985 21.993 35.664M385 2496.29v-65.04m-18.75 37.5 18.75-37.5 18.75 37.5m-21.29 158.828 5.08-72.656m-21.33 36.094 21.33-36.094 16.093 38.71M598.36 132.422l-86.72 72.656m40.782-9.726-40.781 9.726 16.718-38.437m67.422 97.109-81.601 65m41.015-8.672-41.015 8.672 17.656-38.008m61.406 104.336-76.484 57.344m41.25-7.5-41.25 7.5 18.75-37.5m55.195 111.484-71.406 49.688m41.484-6.016-41.484 6.016 20.039-36.797m48.828 118.437-66.328 42.07m41.719-4.296-41.72 4.297 21.642-35.938m42.109 125.156-61.172 34.454m41.876-2.071-41.876 2.07 23.477-34.726m35.156 131.602-56.094 26.796m41.914.742-41.914-.742 25.781-33.086m27.774 137.618-51.016 19.14m41.68 4.375-41.68-4.375 28.555-30.742m19.883 142.93-45.899 11.484m40.938 9.102-40.938-9.102 31.836-27.304m11.523 147.148-40.78 3.828m39.062 15.156-39.063-15.156 35.586-22.148m2.657 149.648-35.704-3.828m35.274 22.656-35.274-22.656 39.297-14.649m-6.132 149.805-30.625-11.484m28.554 30.742-28.554-30.742 41.718-4.375m-13.672 147.187-25.507-19.14m18.75 37.5-18.75-37.5 41.25 7.5m-18.282 142.968-20.39-26.796m7.812 41.211-7.812-41.211 37.617 18.476m-19.766 139.649-15.312-34.454m-1.914 41.915 1.914-41.915 32.383 26.68m-19.61 139.102-10.234-42.11m-9.375 40.899 9.375-40.899 27.07 32.032m-19.413 141.367-5.08-49.688m-14.843 39.219 14.844-39.219 22.46 35.39M555 2364.922v-57.344m-18.75 37.5 18.75-37.5 18.75 37.5m-21.29 151.212 5.08-65.04m-21.602 35.898 21.601-35.898 15.781 38.828m-23.437 157.5 10.234-72.656m-23.789 34.531 23.79-34.531 13.32 39.726M765.781 132.422l-81.601 72.656m40.508-10.938-40.508 10.938 15.547-38.945m63.515 97.617-76.484 65m40.702-10-40.702 10 16.406-38.555m57.539 104.883-71.406 57.344m40.976-8.867-40.976 8.867 17.5-38.086m51.367 112.07-66.328 49.688m41.25-7.5-41.25 7.5 18.75-37.5m45 119.14-61.172 42.07m41.524-5.82-41.524 5.82 20.274-36.718m38.359 125.937-56.094 34.454m41.757-3.633-41.757 3.633 22.149-35.625m31.406 132.5-51.016 26.796m41.914-.82-41.914.82 24.492-34.023m23.946 138.555-45.899 19.14m41.836 2.89-41.836-2.89 27.422-31.757m15.937 143.945-40.78 11.484m41.171 7.891-41.172-7.89 31.016-28.204m7.227 148.047-35.704 3.828m39.297 14.649-39.297-14.649 35.274-22.617m-2.109 150.117-30.625-3.828m34.882 23.281-34.883-23.281 39.532-13.945m-11.485 149.101-25.468-11.484m26.484 32.5-26.484-32.5 41.875-1.719m-18.946 144.531-20.39-19.14m14.531 39.336-14.531-39.336 40.156 11.992m-22.305 138.476-15.312-26.796m2.344 41.875-2.344-41.875 34.883 23.28m-22.11 134.845-10.234-34.454m-7.305 41.29 7.305-41.29 28.633 30.665m-20.976 135.117-5.08-42.11m-14.1 39.493 14.1-39.493 23.126 35M725 2233.594v-49.688m-18.75 37.5 18.75-37.5 18.75 37.5m-21.29 143.516 5.08-57.344m-21.993 35.664 21.992-35.664 15.352 38.985m-23.008 149.727 10.234-65.04m-24.336 34.14 24.336-34.14 12.696 39.922m-25.469 156.406 15.312-72.656m-26.093 32.812 26.093-32.812 10.625 40.547M933.242 132.422l-76.484 72.656m40.078-12.226-40.078 12.226 14.258-39.414m59.687 98.086-71.406 65m40.351-11.367-40.351 11.367 15.117-39.102m53.75 105.43-66.328 57.344m40.624-10.352-40.624 10.352 16.094-38.711m47.656 112.695-61.172 49.688m40.899-9.063-40.899 9.063 17.266-38.164m41.367 119.804-56.094 42.07m41.25-7.499-41.25 7.5 18.75-37.5m34.805 126.718-51.016 34.454m41.563-5.469-41.563 5.469 20.586-36.524m27.852 133.399-45.899 26.796m41.875-2.695-41.875 2.695L895 912.031m20.39 139.649-40.78 19.14m41.913 1.055-41.914-1.055 25.977-32.89m12.266 145.078-35.704 11.484m41.446 6.368-41.446-6.368 29.961-29.336m3.204 149.18-30.625 3.828m39.531 13.946-39.532-13.946 34.883-23.242m-6.836 150.742-25.468-3.828m34.297 24.102-34.297-24.102 39.843-12.969m-16.914 148.125-20.39-11.484m23.476 34.726-23.476-34.726 41.875 2.07m-24.024 140.742-15.312-19.14m8.789 41.015-8.79-41.015 38.087 17.578m-25.313 132.89-10.234-26.796m-4.141 41.718 4.14-41.718 30.9 28.359m-23.242 129.766-5.08-34.454m-13.046 39.844 13.047-39.844 24.023 34.375M895 2102.305v-42.11m-18.75 37.5 18.75-37.5 18.75 37.5m-21.29 135.899 5.08-49.688m-22.462 35.391 22.461-35.39 14.844 39.218m-22.5 141.797 10.234-57.344m-25.039 33.632 25.04-33.632 11.874 40.195m-24.648 148.517 15.312-65.04m-26.836 32.188 26.836-32.188 9.649 40.781m-27.5 155.547 20.39-72.656m-28.164 31.016 28.164-31.016 7.93 41.172m187.578-2463.672-71.406 72.656m39.648-13.594-39.648 13.594 12.89-39.883m55.977 98.555-66.328 65m39.922-12.852-39.922 12.852 13.672-39.648m50.078 105.976-61.172 57.344m40.156-11.953-40.156 11.953 14.531-39.297m44.102 113.281-56.094 49.688m40.507-10.821-40.507 10.82 15.625-38.905m37.93 120.546-51.016 42.07m40.86-9.414-40.86 9.415 16.992-38.32m31.485 127.538-45.938 34.454m41.25-7.5-41.25 7.5 18.75-37.5m24.609 134.375-40.78 26.796m41.6-4.921-41.6 4.921 21.054-36.25m17.188 140.782-35.704 19.14m41.915-1.172-41.915 1.172 24.22-34.257m8.945 146.445-30.626 11.484m41.719 4.375-41.718-4.375 28.554-30.703m-.508 150.547-25.468 3.828m39.844 12.969-39.844-12.969 34.296-24.101m-11.367 151.601-20.39-3.828m33.398 25.352-33.398-25.352 40.312-11.524m-22.461 146.68-15.312-11.484m18.75 37.5-18.75-37.5 41.25 7.5m-28.477 135.312-10.234-19.14m1.133 41.914-1.133-41.914 34.219 24.257m-26.562 126.211-5.08-26.796m-11.405 40.351 11.406-40.351 25.43 33.359M1065 1970.977v-34.454m-18.75 37.5 18.75-37.5 18.75 37.5m-21.29 128.282 5.08-42.11m-23.126 35 23.125-35 14.102 39.492m-21.758 133.907 10.234-49.688m-25.898 32.969 25.898-32.969 10.82 40.469m-23.593 140.547 15.312-57.344m-27.773 31.406 27.773-31.406 8.438 41.055m-26.289 147.657 20.39-65.04m-29.101 30.156 29.101-30.156 6.68 41.367m-29.609 154.961 25.468-72.656m-30.078 29.18 30.078-29.18 5.274 41.601m185.156-2464.101-66.328 72.656m39.141-15.038-39.141 15.038 11.445-40.312m52.305 98.984-61.172 65m39.336-14.453-39.336 14.453 12.031-40.156m46.602 106.484-56.094 57.344m39.61-13.672-39.61 13.672 12.813-39.883m40.742 113.867-51.016 49.688m39.961-12.734-39.96 12.734 13.75-39.57m34.726 121.21-45.938 42.07m40.313-11.523-40.313 11.524 15-39.18m28.359 128.398-40.78 34.454m40.742-9.883-40.743 9.883 16.563-38.516m21.68 135.391-35.704 26.796m41.25-7.5-41.25 7.5 18.75-37.5m14.415 142.032-30.626 19.14m41.758-3.984-41.757 3.984 21.874-35.78m6.172 147.968-25.468 11.484m41.874 1.718-41.874-1.718 26.484-32.5m-3.555 152.344-20.39 3.828m40.312 11.524-40.312-11.524 33.398-25.351m-15.547 152.851-15.312-3.828m31.836 27.266-31.836-27.266 40.937-9.102m-28.164 144.258-10.234-11.484m10.898 40.508-10.898-40.508 38.945 15.586m-31.288 127.226-5.08-19.14m-8.476 41.054 8.477-41.054 27.773 31.406M1235 1839.648v-26.796m-18.75 37.5 18.75-37.5 18.75 37.5m-21.29 120.625 5.08-34.454m-24.024 34.375 24.023-34.375 13.047 39.844m-20.703 125.938 10.234-42.11m-27.07 32.032 27.07-32.032 9.375 40.899m-22.148 132.5 15.312-49.688m-28.946 30.313 28.946-30.313 6.875 41.328m-24.726 139.688 20.39-57.344m-30.235 29.024 30.235-29.024 5.118 41.602m-28.047 147.11 25.468-65.04m-31.132 28.047 31.132-28.047 3.79 41.758m-31.836 154.57 30.624-72.656m-31.835 27.266 31.835-27.266 2.735 41.836m182.539-2464.336-61.172 72.656m38.476-16.601-38.476 16.601 9.805-40.742m48.828 99.414-56.094 65m38.672-16.133-38.672 16.133 10.313-40.625m43.242 106.953-51.016 57.344m38.946-15.547-38.946 15.547 10.899-40.469m37.578 114.453-45.938 49.688m39.219-14.804-39.219 14.804 11.68-40.235m31.679 121.875-40.78 42.07m39.57-13.866-39.57 13.867 12.617-40m25.625 129.218-35.704 34.454m40-12.539-40 12.539 13.985-39.532m19.18 136.407-30.626 26.796m40.586-10.585-40.585 10.585 15.898-38.828m12.148 143.36-25.468 19.14m41.25-7.5-41.25 7.5 18.75-37.5m4.179 149.688-20.39 11.484m41.875-2.032-41.875 2.032 23.476-34.726m-5.625 154.57-15.312 3.828m40.937 9.102-40.937-9.102 31.836-27.266m-19.063 154.766-10.234-3.828m28.555 30.742-28.555-30.742 41.719-4.375m-34.062 139.531-5.08-11.484m-1.913 41.875 1.914-41.875 32.344 26.64M1405 1708.32v-19.14m-18.75 37.5 18.75-37.5 18.75 37.5m-21.29 112.968 5.08-26.796m-25.43 33.358 25.43-33.358 11.405 40.351m-19.062 117.774 10.234-34.454m-28.633 30.665 28.633-30.665 7.305 41.29m-20.078 124.492 15.312-42.11m-30.429 28.868 30.43-28.868 4.804 41.68m-22.656 131.719 20.39-49.688m-31.562 27.539 31.562-27.539 3.125 41.797m-26.054 139.219 25.468-57.344m-32.344 26.641 32.344-26.64 1.914 41.874m-29.96 146.837 30.624-65.04m-32.929 25.938 32.93-25.938.976 41.914m-34.141 154.414 35.704-72.656m-33.36 25.391 33.36-25.391.273 41.914m179.922-2464.414-56.094 72.656m37.735-18.203-37.735 18.203 8.086-41.133m45.469 99.805-51.016 65m37.891-17.93-37.89 17.93 8.398-41.055m40.078 107.383-45.938 57.344m38.086-17.539-38.086 17.539 8.828-40.977m34.531 114.961-40.78 49.688m38.28-17.071-38.28 17.07 9.296-40.859m28.946 122.5-35.704 42.07m38.555-16.484-38.555 16.485 9.961-40.742m23.204 129.96-30.626 34.454m38.946-15.587-38.946 15.587 10.899-40.508m17.148 137.383-25.468 26.796m39.414-14.218-39.414 14.218 12.265-40.078m10.664 144.61-20.39 19.14m40.155-11.992-40.155 11.992 14.53-39.336m3.321 151.524-15.312 11.484m41.25-7.5-41.25 7.5 18.75-37.5m-5.977 157.344-10.234 3.828m41.719 4.376-41.72-4.376 28.555-30.742m-20.897 158.242-5.08-3.828m18.75 37.5-18.75-37.5 41.25 7.5M1575 1576.992v-11.484m-18.75 37.5 18.75-37.5 18.75 37.5m-21.29 105.312 5.08-19.14m-27.774 31.406 27.773-31.406 8.477 41.054m-16.133 109.414 10.234-26.796m-30.898 28.358 30.898-28.358 4.14 41.718m-16.913 116.407 15.312-34.454m-32.383 26.68 32.383-26.68 1.875 41.915m-19.726 123.867 20.39-42.11m-33.242 25.586 33.242-25.586.508 41.953m-23.437 131.446 25.468-49.688m-33.789 24.804 33.79-24.804-.43 41.914m-27.617 139.102 30.624-57.344m-34.218 24.258 34.218-24.258-1.093 41.914m-32.071 146.798 35.704-65.04m-34.492 23.828 34.492-23.828-1.641 41.875m-36.601 154.453 40.78-72.656m-34.687 23.516 34.688-23.516-1.993 41.875m177.11-2464.375-51.016 72.656m36.914-19.922-36.914 19.922 6.211-41.445m42.266 100.117-45.938 65m36.953-19.805-36.953 19.805 6.328-41.445m37.031 107.773-40.78 57.344m36.992-19.688-36.993 19.688 6.446-41.406m31.797 115.39-35.704 49.688m37.11-19.492-37.11 19.492 6.641-41.367m26.524 123.007-30.626 42.07m37.227-19.335-37.226 19.336 6.914-41.367m21.132 130.585-25.468 34.454m37.382-18.985-37.382 18.985 7.226-41.29m15.703 138.165-20.39 26.796m37.617-18.476-37.617 18.476 7.812-41.21m10.039 145.742-15.312 19.14m38.086-17.578-38.086 17.578 8.789-41.015m3.984 153.203-10.234 11.484m38.945-15.586-38.945 15.586 10.898-40.508m-3.241 160.352-5.08 3.828m41.25-7.5-41.25 7.5 18.75-37.5m-16.21 165v-3.828m-18.75 37.5 18.75-37.5 18.75 37.5m-21.29 97.656 5.08-11.484m-32.345 26.64 32.344-26.64 1.914 41.875m-9.57 100.937 10.234-19.14m-34.219 24.258 34.22-24.258-1.134 41.914m-11.64 108.554 15.312-26.796m-34.883 23.281 34.883-23.281-2.343 41.875m-15.508 116.25 20.39-34.454m-35.235 22.735 35.235-22.735-2.968 41.836m-19.961 123.946 25.468-42.11m-35.468 22.383 35.468-22.383-3.398 41.797m-24.648 131.602 30.624-49.688m-35.624 22.11 35.624-22.11-3.71 41.758m-29.454 139.258 35.704-57.344m-35.742 21.914 35.742-21.914-3.907 41.719m-34.335 146.993 40.78-65.04m-35.78 21.797 35.78-21.797-4.023 41.719m-39.336 154.609 45.938-72.656m-35.899 21.68 35.899-21.68-4.18 41.719m174.18-2464.219-45.938 72.656m35.899-21.68-35.899 21.68 4.18-41.719m39.179 100.391-40.78 65m35.78-21.797-35.78 21.797 4.023-41.719m34.219 108.047-35.704 57.344m35.742-21.914-35.742 21.914 3.907-41.719m29.258 115.703-30.626 49.688m35.626-22.11-35.626 22.11 3.711-41.758m24.336 123.398-25.468 42.07m35.429-22.382-35.43 22.383 3.4-41.797m19.53 131.015-20.39 34.454m35.235-22.696-35.235 22.696 2.968-41.836m14.883 138.711-15.312 26.796m34.883-23.281-34.883 23.281 2.343-41.875m10.43 146.407-10.234 19.14m34.219-24.257-34.22 24.257 1.134-41.914m6.524 154.102-5.08 11.484m32.345-26.64-32.344 26.64-1.914-41.875m4.453 161.719v3.828m18.75-37.5-18.75 37.5-18.75-37.5m16.21 165 5.08-3.828m-41.25 7.5 41.25-7.5-18.75 37.5m11.093 97.656 10.234-11.484m-38.945 15.586 38.945-15.586-10.898 40.508m-1.875 102.304 15.312-19.14m-38.086 17.578 38.086-17.578-8.789 41.015m-9.062 109.453 20.39-26.796m-37.655 18.476 37.655-18.476-7.812 41.21m-15.117 116.915 25.468-34.454m-37.382 18.985 37.382-18.985-7.226 41.29m-20.82 124.492 30.624-42.11m-37.226 19.336 37.226-19.336-6.914 41.367m-26.25 132.032 35.704-49.688m-37.11 19.492 37.11-19.492-6.641 41.367m-31.601 139.649 40.78-57.344m-36.992 19.688 36.993-19.688-6.446 41.406m-36.914 147.306 45.938-65.04m-36.953 19.805 36.953-19.805-6.328 41.445m-42.149 154.883 51.016-72.656m-36.914 19.922 36.914-19.922-6.211 41.445M2105.39 132.422l-40.78 72.656m34.687-23.515-34.688 23.515 1.993-41.875m36.25 100.547-35.704 65m34.492-23.828-34.492 23.828 1.602-41.875m31.563 108.203-30.626 57.344m34.219-24.258-34.218 24.258 1.093-41.914m26.953 115.898-25.468 49.688m33.789-24.804-33.79 24.804.391-41.914m22.539 123.554-20.39 42.07m33.242-25.585-33.242 25.586-.508-41.953m18.359 131.171-15.312 34.454m32.383-26.68-32.383 26.68-1.914-41.914m14.687 138.789-10.234 26.796m30.898-28.358-30.898 28.358-4.14-41.718m11.797 146.25-5.08 19.14m27.774-31.406-27.773 31.406-8.477-41.054M2085 1183.008v11.484m18.75-37.5-18.75 37.5-18.75-37.5m16.21 157.344 5.08 3.828m-18.75-37.5 18.75 37.5-41.25-7.5m33.593 135 10.234-3.828m-41.719-4.376 41.72 4.376-28.555 30.742m15.781 104.414 15.312-11.484m-41.25 7.5 41.25-7.5-18.75 37.5m.899 105.312 20.39-19.14m-40.155 11.992 40.155-11.992-14.53 39.336m-8.399 111.132 25.468-26.796m-39.414 14.258 39.414-14.258-12.265 40.117m-15.781 118.008 30.624-34.454m-38.945 15.587 38.945-15.587-10.898 40.508m-22.266 125.274 35.704-42.11m-38.555 16.485 38.555-16.485-9.961 40.742m-28.281 132.657 40.78-49.688m-38.28 17.071 38.28-17.07-9.296 40.859m-34.063 140.156 45.938-57.344m-38.086 17.539 38.086-17.539-8.828 40.977m-39.649 147.735 51.016-65.04m-37.891 17.93 37.89-17.93-8.398 41.055m-45.156 155.273 56.094-72.656m-37.774 18.203 37.774-18.203-8.086 41.133m167.891-2463.633-35.704 72.656m33.36-25.39-33.36 25.39-.273-41.914m33.438 100.586-30.626 65m32.93-25.937-32.93 25.937-.976-41.914m29.023 108.242-25.468 57.344m32.344-26.641-32.344 26.64-1.914-41.874m24.843 115.859-20.39 49.688m31.562-27.539-31.562 27.539-3.125-41.797m20.976 123.437-15.312 42.07m30.429-28.866-30.43 28.867-4.804-41.68m17.578 130.898-10.234 34.454m28.633-30.664-28.633 30.664-7.305-41.29m14.962 138.165-5.08 26.796m25.43-33.32-25.43 33.32-11.405-40.351M2255 1051.68v19.14m18.75-37.5-18.75 37.5-18.75-37.5m16.21 149.688 5.08 11.484m1.913-41.875-1.914 41.875-32.344-26.64m24.688 146.484 10.234 3.828m-28.554-30.742 28.554 30.742-41.719 4.375m28.946 123.125 15.312-3.828m-40.937-9.102 40.937 9.102-31.836 27.266m13.985 107.89 20.39-11.484m-41.875 2.07 41.875-2.07-23.476 34.726m.547 108.086 25.468-19.14m-41.25 7.5 41.25-7.5-18.75 37.5m-9.296 112.968 30.624-26.796m-40.585 10.586 40.586-10.586-15.899 38.828m-17.266 119.297 35.704-34.454m-40 12.54 40-12.54-13.985 39.532m-24.257 126.25 40.78-42.11m-39.57 13.868 39.57-13.868-12.656 40m-30.703 133.399 45.938-49.688m-39.259 14.804 39.259-14.804-11.68 40.235m-36.797 140.781 51.016-57.344m-38.945 15.547 38.945-15.547-10.899 40.469m-42.656 148.243 56.094-65.04m-38.672 16.133 38.672-16.133-10.313 40.625m-48.32 155.703 61.172-72.656m-38.476 16.601 38.476-16.601-9.805 40.742m164.532-2463.242-30.626 72.656m31.836-27.265-31.836 27.265-2.734-41.836m30.781 100.508-25.468 65m31.132-28.047-31.132 28.047-3.79-41.758m26.719 108.086-20.39 57.344m30.235-29.024-30.235 29.024-5.117-41.602m22.968 115.586-15.312 49.688m28.946-30.313-28.946 30.313-6.875-41.328m19.648 122.968-10.234 42.07m27.07-32.031-27.07 32.032-9.375-40.86m17.032 130.078-5.08 34.454m24.024-34.375-24.023 34.375-13.047-39.844M2425 920.352v26.796m18.75-37.5-18.75 37.5-18.75-37.5m16.21 142.032 5.08 19.14m8.476-41.054-8.477 41.054-27.773-31.406m20.117 143.594 10.234 11.484m-10.898-40.508 10.898 40.508-38.945-15.586m26.172 135.43 15.312 3.828m-31.836-27.266 31.836 27.266-40.937 9.102m23.086 118.398 20.39-3.828m-40.312-11.523 40.312 11.523-33.398 25.351m10.469 109.805 25.468-11.484m-41.874-1.718 41.874 1.718-26.484 32.5m-1.562 110.312 30.624-19.14m-41.757 3.984 41.758-3.984-21.876 35.78m-11.289 114.688 35.704-26.796m-41.25 7.5 41.25-7.5-18.75 37.5m-19.492 120.625 40.78-34.454m-40.742 9.883 40.743-9.883-16.563 38.516m-26.797 127.266 45.938-42.11m-40.313 11.524 40.313-11.524-15 39.18m-33.477 134.219 51.016-49.688m-39.961 12.734 39.96-12.734-13.788 39.61m-39.766 141.406 56.094-57.344m-39.609 13.712 39.609-13.712-12.813 39.883m-45.82 148.829 61.172-65.04m-39.336 14.453 39.336-14.453-12.031 40.156m-51.719 156.172 66.328-72.656m-39.141 15.038 39.141-15.038-11.445 40.312m161.015-2462.812-25.468 72.656m30.078-29.18-30.078 29.18-5.313-41.601m28.242 100.273-20.39 65m29.101-30.156-29.101 30.156-6.68-41.367m24.531 107.695-15.312 57.344m27.773-31.367-27.773 31.367-8.438-41.055m21.211 115.039-10.234 49.688m25.898-32.93-25.898 32.93-10.82-40.469m18.477 122.109-5.08 42.07m23.126-34.999-23.125 35-14.102-39.492M2595 789.023v34.454m18.75-37.5-18.75 37.5-18.75-37.5m16.21 134.375 5.08 26.796m11.405-40.351-11.406 40.351-25.43-33.32m17.774 137.852 10.234 19.14m-1.133-41.914 1.133 41.914-34.219-24.257m21.446 136.445 15.312 11.484m-18.75-37.5 18.75 37.5-41.25-7.5m23.399 127.344 20.39 3.828m-33.398-25.351 33.398 25.351-40.312 11.524m17.383 115.976 25.468-3.828m-39.844-12.969 39.844 12.969-34.296 24.101m6.25 111.055 30.624-11.484m-41.718-4.375 41.718 4.375-28.554 30.742m-4.61 112.07 35.704-19.14m-41.914 1.172 41.914-1.172-24.22 34.257m-14.022 116.211 40.78-26.796m-41.64 4.921 41.64-4.921-21.054 36.25m-22.305 121.875 45.938-34.454m-41.25 7.5 41.25-7.5-18.75 37.5m-29.727 128.282 51.016-42.11m-40.86 9.415 40.86-9.415-16.992 38.36m-36.563 135.039 56.094-49.688m-40.507 10.821 40.507-10.82-15.625 38.905m-43.008 142.11 61.172-57.344m-40.156 11.953 40.156-11.953-14.531 39.297m-49.219 149.415 66.328-65.04m-39.922 12.852 39.922-12.852-13.672 39.648m-55.195 156.68 71.406-72.656m-39.648 13.594 39.648-13.594-12.93 39.883m157.422-2462.383-20.39 72.656m28.164-31.015-28.164 31.015-7.93-41.172m25.781 99.844-15.312 65m26.836-32.187-26.836 32.187-9.649-40.781m22.422 107.109-10.234 57.344m25.039-33.632-25.04 33.632-11.874-40.195m19.532 114.179-5.08 49.688m22.462-35.391-22.461 35.39-14.844-39.179M2765 657.734v42.07m18.75-37.499-18.75 37.5-18.75-37.5m16.21 126.718 5.08 34.454m13.046-39.844-13.047 39.844-24.023-34.375m16.367 131.25 10.234 26.796m4.141-41.718-4.14 41.718-30.9-28.359m18.126 132.891 15.312 19.14m-8.789-41.015 8.79 41.015-38.087-17.578m20.235 129.766 20.39 11.484m-23.476-34.726 23.476 34.726-41.875-2.031m18.946 121.875 25.468 3.828m-34.296-24.101 34.296 24.101-39.843 12.969m11.797 114.531 30.624-3.828m-39.57-13.946 39.57 13.946-34.921 23.281m1.757 111.875 35.704-11.484m-41.446-6.368 41.446 6.368-29.961 29.336m-8.281 113.476 40.78-19.14m-41.913-1.055 41.914 1.055-25.977 32.89m-17.383 117.578 45.938-26.796m-41.875 2.734 41.875-2.734-22.969 35.117m-25.508 123.008 51.016-34.454m-41.602 5.469 41.602-5.469-20.586 36.524m-32.969 129.258 56.094-42.11m-41.25 7.5 41.25-7.5-18.75 37.5m-39.883 135.899 61.172-49.688m-40.898 9.063 40.898-9.063-17.266 38.203m-46.484 142.813 66.328-57.344m-40.624 10.352 40.624-10.352-16.094 38.711m-52.773 150.001 71.406-65.04m-40.351 11.367 40.351-11.367-15.117 39.102m-58.828 157.226 76.484-72.656m-40.078 12.226 40.078-12.226-14.258 39.414m153.672-2461.914-15.312 72.656m26.094-32.812-26.094 32.812-10.625-40.547m23.398 99.219-10.234 65m24.336-34.14-24.336 34.14-12.695-39.922m20.352 106.25-5.08 57.344m21.993-35.664-21.992 35.664-15.352-38.985M2935 526.406v49.688m18.75-37.5-18.75 37.5-18.75-37.5m16.21 119.14 5.08 42.07m14.1-39.491-14.1 39.492-23.126-35m15.469 124.218 10.234 34.454m7.305-41.289-7.305 41.289-28.633-30.664m15.86 127.539 15.312 26.796m-2.343-41.875 2.343 41.875-34.883-23.28m17.032 127.812 20.39 19.14m-14.531-39.336 14.531 39.336-40.156-11.992m17.227 124.18 25.468 11.484m-26.484-32.5 26.484 32.5-41.875 1.719m13.829 118.125 30.624 3.828m-34.922-23.242 34.923 23.242-39.57 13.945m6.405 113.555 35.704-3.828m-39.297-14.648 39.297 14.648-35.274 22.656m-2.968 112.5 40.78-11.484m-41.171-7.891 41.172 7.89-31.016 28.204m-12.344 114.609 45.938-19.14m-41.836-2.89 41.836 2.89-27.422 31.757m-21.055 118.711 51.016-26.796m-41.914.858 41.914-.858-24.492 34.023m-29.063 124.102 56.094-34.454m-41.757 3.633 41.757-3.633-22.149 35.625m-36.484 130.157 61.172-42.11m-41.523 5.821 41.523-5.82-20.273 36.718m-43.477 136.68 66.328-49.688m-41.25 7.5 41.25-7.5-18.75 37.5m-50.117 143.516 71.406-57.344m-40.976 8.867 40.976-8.867-17.5 38.086m-56.445 150.626 76.484-65.04m-40.702 10 40.702-10-16.406 38.555m-62.617 157.773 81.562-72.656m-40.468 10.938 40.468-10.938-15.508 38.945m149.844-2461.445-10.234 72.656m23.789-34.531-23.79 34.531-13.359-39.726m21.017 98.398-5.08 65m21.603-35.898-21.602 35.898-15.781-38.828M3105 395.078v57.344m18.75-37.5-18.75 37.5-18.75-37.5m16.21 111.484 5.08 49.688m14.843-39.18-14.844 39.18-22.46-35.39m14.804 117.03 10.234 42.07m9.375-40.859-9.375 40.86-27.07-32.032m14.297 121.25 15.312 34.454m1.875-41.914-1.875 41.914-32.383-26.68m14.532 123.555 20.39 26.796m-7.812-41.21 7.812 41.21-37.656-18.476m14.727 123.008 25.468 19.14m-18.75-37.5 18.75 37.5-41.25-7.5m13.204 119.688 30.624 11.484m-28.554-30.702 28.555 30.702-41.72 4.375m8.555 115.469 35.704 3.828m-35.274-22.617 35.274 22.617-39.297 14.649m1.055 112.851 40.78-3.828m-39.062-15.156 39.063 15.156-35.586 22.187m-7.774 112.969 45.938-11.484m-40.938-9.102 40.938 9.102-31.836 27.304m-16.641 115.508 51.016-19.14m-41.718-4.375 41.718 4.375-28.555 30.742m-25 119.726 56.094-26.796m-41.914-.742 41.914.742-25.781 33.085m-32.852 125.04 61.172-34.454m-41.876 2.071 41.876-2.07-23.477 34.765m-40.273 131.016 66.328-42.11m-41.719 4.297 41.72-4.297-21.642 35.938m-47.226 137.461 71.406-49.688m-41.484 6.016 41.484-6.016-20.078 36.797m-53.867 144.219 76.484-57.344m-41.25 7.5 41.25-7.5-18.75 37.5m-60.273 151.212 81.562-65.04m-40.976 8.71 40.976-8.71-17.617 38.008m-66.524 158.32 86.72-72.656m-40.782 9.726 40.781-9.726-16.718 38.476M3277.54 132.422l-5.08 72.656m21.33-36.094-21.33 36.094-16.093-38.71M3275 263.75v65m18.75-37.5-18.75 37.5-18.75-37.5m16.21 103.828 5.08 57.344m15.35-38.984-15.35 38.984-21.993-35.664m14.336 109.648 10.234 49.688m10.821-40.469-10.82 40.469-25.9-32.93m13.126 114.57 15.312 42.07m4.804-41.679-4.804 41.68-30.43-28.867m12.579 118.085 20.39 34.454m-2.968-41.837 2.968 41.837-35.234-22.696m12.305 119.571 25.468 26.796m-12.265-40.078 12.265 40.078-39.414-14.218m11.368 118.75 30.624 19.14m-21.874-35.78 21.874 35.78-41.757-3.984m8.593 116.172 35.704 11.484m-29.962-29.336 29.962 29.336-41.446 6.367m3.204 113.477 40.78 3.828m-35.585-22.148 35.586 22.148-39.063 15.156m-4.297 112.344 45.938-3.828m-38.946-15.546 38.946 15.546-35.82 21.797m-12.657 113.359 51.016-11.484m-40.703-10.039 40.703 10.039-32.461 26.523m-21.094 116.289 56.094-19.14m-41.563-5.625 41.563 5.625-29.453 29.843m-29.18 120.625 61.172-26.796m-41.876-2.149 41.876 2.149-26.836 32.226m-36.914 125.899 66.328-34.454m-41.954.665 41.954-.665-24.648 33.946m-44.219 131.836 71.406-42.11m-41.836 2.891 41.836-2.89-22.812 35.195m-51.133 138.203 76.484-49.688m-41.64 4.688 41.64-4.688-21.21 36.133m-57.813 144.883 81.562-57.344m-41.445 6.212 41.445-6.212-19.883 36.875m-64.258 151.837 86.72-65.04m-41.25 7.5 41.25-7.5-18.75 37.5m-70.508 158.828 91.796-72.656m-41.054 8.555 41.054-8.555-17.773 37.969M3445 132.422v72.656m18.75-37.5-18.75 37.5-18.75-37.5m16.21 96.172 5.08 65m15.78-38.828-15.78 38.828-21.602-35.898m13.945 102.226 10.234 57.344m11.875-40.195-11.875 40.195-25.039-33.633m12.266 107.617 15.312 49.688m6.875-41.328-6.875 41.328-28.945-30.313m11.094 111.953 20.39 42.07m.508-41.952-.508 41.953-33.242-25.586m10.313 114.804 25.468 34.454m-7.226-41.289 7.226 41.289-37.382-18.985m9.336 115.86 30.624 26.796m-15.898-38.828 15.898 38.828-40.585-10.586m7.421 115.118 35.704 19.14m-24.219-34.257 24.219 34.257-41.914-1.172m3.672 113.36 40.78 11.484m-31.015-28.202 31.016 28.202-41.172 7.89m-2.188 111.954 45.938 3.828m-35.821-21.797 35.82 21.797-38.945 15.547m-9.531 111.953 51.016-3.828m-38.789-15.898 38.789 15.898-36.016 21.523m-17.539 113.633 56.094-11.484m-40.507-10.86 40.507 10.86-32.969 25.898m-25.664 116.914 61.172-19.14m-41.367-6.72 41.367 6.72-30.195 29.101m-33.555 121.367 66.328-26.796m-41.797-3.321 41.797 3.32-27.773 31.446m-41.094 126.68 71.406-34.454m-41.913-.585 41.913.585-25.625 33.204m-48.32 132.578 76.484-42.11m-41.875 1.68 41.875-1.68-23.828 34.532m-55.195 138.867 81.562-49.688m-41.758 3.477 41.758-3.477-22.265 35.508m-61.876 145.508 86.72-57.344m-41.641 5.039 41.64-5.039-20.937 36.328m-68.32 152.384 91.796-65.04m-41.445 6.367 41.445-6.367-19.765 36.953m-74.57 159.375 96.874-72.656m-41.249 7.5 41.25-7.5-18.75 37.5" transform="matrix(.1 0 0 -.1 0 275)"/><g clip-path="url(#v)"><path style="fill:none;stroke-width:6.25;stroke-linecap:round;stroke-linejoin:miter;stroke:#000;stroke-opacity:1;stroke-miterlimit:10" d="M-3836.68 1380H7496.68" transform="matrix(.1 0 0 -.1 0 275)"/></g><g clip-path="url(#w)"><path style="fill:none;stroke-width:6.25;stroke-linecap:round;stroke-linejoin:miter;stroke:#000;stroke-opacity:1;stroke-miterlimit:10" d="M-3836.68 14130 7496.68-11370" transform="matrix(.1 0 0 -.1 0 275)"/></g><path style="fill:none;stroke-width:18.75;stroke-linecap:round;stroke-linejoin:miter;stroke:red;stroke-opacity:1;stroke-miterlimit:10" d="M1830 1380h566.68m-97.93-43.75 97.93 43.75-97.93 50" transform="matrix(.1 0 0 -.1 0 275)"/><g clip-path="url(#x)"><path style="fill:none;stroke-width:18.75;stroke-linecap:round;stroke-linejoin:miter;stroke:red;stroke-opacity:1;stroke-miterlimit:10" d="m1830 1380 566.68-1275" transform="matrix(.1 0 0 -.1 0 275)"/></g><g clip-path="url(#y)"><path style="fill:none;stroke-width:18.75;stroke-linecap:round;stroke-linejoin:miter;stroke:red;stroke-opacity:1;stroke-miterlimit:10" d="M2113.32 742.5 2396.68 105" transform="matrix(.1 0 0 -.1 0 275)"/></g><path style="fill:none;stroke-width:18.75;stroke-linecap:round;stroke-linejoin:miter;stroke:red;stroke-opacity:1;stroke-miterlimit:10" d="m2192.5 680-79.18 62.5-8.32-100" transform="matrix(.1 0 0 -.1 0 275)"/><g clip-path="url(#z)"><path style="fill:none;stroke-width:12.5;stroke-linecap:round;stroke-linejoin:miter;stroke:red;stroke-opacity:1;stroke-miterlimit:10" d="m2113.32 105-41.601 74.258-40 69.922-38.438 65.86-36.992 62.03-35.664 58.399-34.492 55-33.36 51.797-32.304 48.789-31.407 45.937-30.546 43.281-29.727 40.743-29.062 38.398-28.438 36.133-27.89 34.023-27.344 32.07-26.953 30.157-26.602 28.437-26.29 26.797-26.015 25.196-25.78 23.75-25.665 22.382-25.547 21.055-25.547 19.844-25.468 18.672-25.586 17.578-25.625 16.562-25.743 15.625-25.937 14.688-26.133 13.828-26.367 13.047-26.68 12.265-27.031 11.563-27.383 10.86-27.773 10.273-28.203 9.648-28.711 9.102-29.22 8.554-29.765 8.086-30.351 7.579-30.977 7.148-31.64 6.719-32.344 6.367-33.086 5.976-33.828 5.625-34.649 5.274-35.508 5-36.406 4.687-37.304 4.454-38.282 4.14-39.258 3.945-40.312 3.711-41.406 3.477-42.5 3.281-43.711 3.086-44.883 2.89-46.133 2.735-47.46 2.578-48.79 2.422-50.156 2.305-51.64 2.148-53.087 2.032-54.648 1.914-56.25 1.796-57.852 1.72-59.57 1.6-61.29 1.485" transform="matrix(.1 0 0 -.1 0 275)"/></g><g clip-path="url(#A)"><path style="fill:none;stroke-width:12.5;stroke-linecap:round;stroke-linejoin:miter;stroke:red;stroke-opacity:1;stroke-miterlimit:10" d="m1263.32 105-67.5 74.258-66.64 69.922-65.938 65.86-65.312 62.03-64.883 58.399-64.531 55-64.375 51.797-64.258 48.789-64.297 45.937-64.414 43.281-64.727 40.743-65.039 38.398-65.547 36.133-66.132 34.023-66.758 32.07-67.54 30.157-68.437 28.437-69.375 26.797-70.43 25.196-71.562 23.75-72.852 22.382-74.18 21.055" transform="matrix(.1 0 0 -.1 0 275)"/></g><g clip-path="url(#B)"><path style="fill:none;stroke-width:12.5;stroke-linecap:round;stroke-linejoin:miter;stroke:red;stroke-opacity:1;stroke-miterlimit:10" d="m2963.32 105-15.742 74.258-13.281 69.922-10.938 65.86-8.671 62.03-6.524 58.399-4.375 55-2.383 51.797-.39 48.789 1.523 45.937 3.36 43.281 5.195 40.743 6.953 38.398 8.672 36.133 10.351 34.023 12.032 32.07 13.632 30.157 15.274 28.437 16.836 26.797 18.398 25.196 19.961 23.75 21.524 22.382 23.007 21.055 24.61 19.844 26.093 18.672 27.618 17.578 29.18 16.562 30.702 15.625 32.266 14.688 33.828 13.828 35.39 13.047 36.993 12.265 38.633 11.563 40.234 10.86 41.875 10.273 43.555 9.648 45.273 9.102 47.032 8.554 48.789 8.086 50.586 7.579 52.421 7.148 54.297 6.719 56.211 6.367" transform="matrix(.1 0 0 -.1 0 275)"/></g><g clip-path="url(#C)"><path style="fill:none;stroke-width:12.5;stroke-linecap:round;stroke-linejoin:miter;stroke:red;stroke-opacity:1;stroke-miterlimit:10" d="m1830 2655 50.234-74.258 48.868-69.922 47.617-65.86 46.445-61.991 45.39-58.438 44.532-55 43.672-51.797 42.969-48.789 42.382-45.937 41.797-43.281 41.407-40.743 41.093-38.359 40.782-36.172 40.624-34.023 40.508-32.032 40.47-30.195 40.546-28.437 40.625-26.797 40.82-25.196 41.094-23.75 41.367-22.382 41.758-21.055 42.227-19.805 42.695-18.71 43.281-17.579 43.906-16.562 44.57-15.625 45.313-14.688 46.133-13.828 46.992-13.047 47.89-12.265 48.868-11.563 49.922-10.86 50.976-10.273 52.149-9.648 53.36-9.102 54.648-8.554 55.937-8.086 57.344-7.579 58.789-7.148 60.273-6.719 61.875-6.367 63.477-5.976" transform="matrix(.1 0 0 -.1 0 275)"/></g><g clip-path="url(#D)"><path style="fill:none;stroke-width:12.5;stroke-linecap:round;stroke-linejoin:miter;stroke:red;stroke-opacity:1;stroke-miterlimit:10" d="m696.68 2655 15.703-74.258 13.32-69.922 10.938-65.86 8.672-61.991 6.523-58.438 4.375-55 2.383-51.797.39-48.789-1.523-45.937-3.36-43.281-5.195-40.743-6.953-38.359-8.672-36.172-10.351-34.023-12.032-32.032-13.671-30.195-15.235-28.437-16.836-26.797-18.398-25.196-19.961-23.75-21.524-22.382-23.046-21.055-24.57-19.805-26.095-18.71-27.656-17.579-29.14-16.562-30.704-15.625-32.304-14.688-33.79-13.828-35.429-13.047-36.992-12.265-38.594-11.563-40.234-10.86-41.875-10.273-43.555-9.648-45.273-9.102-47.032-8.554-48.789-8.086-50.586-7.579-52.422-7.148-54.296-6.719-56.211-6.367" transform="matrix(.1 0 0 -.1 0 275)"/></g><g clip-path="url(#E)"><path style="fill:none;stroke-width:12.5;stroke-linecap:round;stroke-linejoin:miter;stroke:red;stroke-opacity:1;stroke-miterlimit:10" d="m980 2655 24.375-74.258 22.188-69.922 20.078-65.86 18.164-61.991 16.21-58.438 14.415-55 12.695-51.797 11.055-48.789 9.453-45.937 7.89-43.281 6.485-40.743 5.039-38.359 3.71-36.172 2.384-34.023 1.093-32.032-.078-30.195-1.328-28.437-2.46-26.797-3.595-25.196-4.726-23.75-5.781-22.382-6.836-21.055-7.89-19.805-8.907-18.71-9.883-17.579-10.898-16.562-11.915-15.625-12.851-14.688-13.828-13.828-14.805-13.047-15.781-12.265-16.719-11.563-17.695-10.86-18.672-10.273-19.649-9.648-20.625-9.102-21.601-8.554-22.578-8.086-23.633-7.579-24.61-7.148-25.663-6.719-26.68-6.367-27.774-5.976-28.867-5.625-29.922-5.274-31.093-5-32.188-4.687-33.398-4.454-34.532-4.14-35.78-3.945-37.032-3.672-38.32-3.516-39.61-3.281-40.937-3.086-42.305-2.89-43.71-2.735-45.157-2.578-46.64-2.422-48.126-2.305-49.726-2.148-51.29-2.032-52.93-1.914-54.648-1.796-56.328-1.68-58.164-1.602" transform="matrix(.1 0 0 -.1 0 275)"/></g><g clip-path="url(#F)"><path style="fill:none;stroke-width:12.5;stroke-linecap:round;stroke-linejoin:miter;stroke:red;stroke-opacity:1;stroke-miterlimit:10" d="m1546.68 2655 41.601-74.258 39.961-69.922 38.438-65.86 37.03-61.991 35.665-58.438 34.492-55 33.36-51.797 32.304-48.789 31.407-45.937 30.507-43.281 29.766-40.743 29.062-38.359 28.438-36.172 27.89-34.023 27.344-32.032 26.953-30.195 26.602-28.437 26.25-26.797 26.016-25.196 25.82-23.75 25.664-22.382 25.547-21.055 25.508-19.805 25.508-18.71 25.546-17.579 25.625-16.562 25.782-15.625 25.937-14.688 26.133-13.828 26.367-13.047 26.68-12.265 27.031-11.563 27.344-10.86 27.773-10.273 28.242-9.648 28.711-9.102 29.18-8.554 29.805-8.086 30.351-7.579 30.977-7.148 31.64-6.719 32.344-6.367 33.086-5.976 33.828-5.625 34.649-5.274 35.508-5 36.406-4.687 37.305-4.454 38.242-4.14 39.297-3.945 40.312-3.672 41.406-3.516 42.5-3.281 43.711-3.086 44.883-2.89 46.133-2.735 47.46-2.578 48.79-2.422 50.156-2.305 51.64-2.148 53.087-2.032 54.648-1.914 56.211-1.796 57.89-1.68 59.571-1.602 61.29-1.523" transform="matrix(.1 0 0 -.1 0 275)"/></g><g clip-path="url(#G)"><path style="fill:none;stroke-width:12.5;stroke-linecap:round;stroke-linejoin:miter;stroke:red;stroke-opacity:1;stroke-miterlimit:10" d="m2396.68 2655 67.5-74.258 66.64-69.922 65.938-65.86 65.312-61.991 64.883-58.438 64.531-55 64.375-51.797 64.258-48.789 64.297-45.937 64.414-43.281 64.727-40.743 65.039-38.359 65.547-36.172 66.093-34.023 66.797-32.032 67.54-30.195 68.437-28.437 69.375-26.797 70.43-25.196 71.562-23.75 72.852-22.382 74.18-21.055" transform="matrix(.1 0 0 -.1 0 275)"/></g></svg>