<svg xmlns="http://www.w3.org/2000/svg" xmlns:xlink="http://www.w3.org/1999/xlink" width="488" height="275pt" viewBox="0 0 366 275"><defs><clipPath id="a"><path d="M182 9.5h2v255h-2zm0 0"/></clipPath><clipPath id="b"><path d="M13 136h340v2H13zm0 0"/></clipPath><clipPath id="c"><path d="M13 9.5h1v255h-1zm0 0"/></clipPath><clipPath id="d"><path d="M69 9.5h1v255h-1zm0 0"/></clipPath><clipPath id="e"><path d="M126 9.5h1v255h-1zm0 0"/></clipPath><clipPath id="f"><path d="M182 9.5h2v255h-2zm0 0"/></clipPath><clipPath id="g"><path d="M239 9.5h1v255h-1zm0 0"/></clipPath><clipPath id="h"><path d="M296 9.5h1v255h-1zm0 0"/></clipPath><clipPath id="i"><path d="M352 9.5h1v255h-1zm0 0"/></clipPath><clipPath id="j"><path d="M13 264h340v.5H13zm0 0"/></clipPath><clipPath id="k"><path d="M13 221h340v2H13zm0 0"/></clipPath><clipPath id="l"><path d="M13 179h340v1H13zm0 0"/></clipPath><clipPath id="m"><path d="M13 136h340v2H13zm0 0"/></clipPath><clipPath id="n"><path d="M13 94h340v1H13zm0 0"/></clipPath><clipPath id="o"><path d="M13 51h340v2H13zm0 0"/></clipPath><clipPath id="p"><path d="M13 9.5h340v.5H13zm0 0"/></clipPath><clipPath id="v"><path d="M144 50h157v214.5H144zm0 0"/></clipPath><clipPath id="w"><path d="M152 76h112v188.5H152zm0 0"/></clipPath><clipPath id="x"><path d="M13 222h5v42.5h-5zm0 0"/></clipPath><clipPath id="y"><path d="M102 9.5h112V198H102zm0 0"/></clipPath><clipPath id="z"><path d="M348 9.5h5V52h-5zm0 0"/></clipPath><clipPath id="A"><path d="M65 9.5h157V224H65zm0 0"/></clipPath><symbol overflow="visible" id="q"><path style="stroke:none" d="M2.125-2.344H.344v.547h1.781zm0 0"/></symbol><symbol overflow="visible" id="r"><path style="stroke:none" d="M1.656-2.438h.36c.734 0 1.109.329 1.109.954 0 .671-.422 1.078-1.11 1.078-.718 0-1.078-.36-1.109-1.14H.234c.032.421.11.702.235.952.281.5.797.766 1.531.766 1.094 0 1.797-.656 1.797-1.656 0-.672-.266-1.047-.906-1.266.5-.203.75-.578.75-1.11 0-.906-.61-1.453-1.625-1.453-1.079 0-1.641.579-1.657 1.72h.657c0-.329.03-.516.109-.673.156-.296.484-.468.906-.468.578 0 .938.343.938.906 0 .375-.14.594-.438.719-.172.078-.406.109-.875.109zm0 0"/></symbol><symbol overflow="visible" id="s"><path style="stroke:none" d="M3.797-.656H1c.063-.438.313-.703.953-1.094l.75-.406c.75-.406 1.125-.953 1.125-1.594 0-.453-.172-.86-.484-1.14-.328-.298-.719-.423-1.219-.423-.672 0-1.172.235-1.469.688-.187.281-.265.61-.281 1.156h.656c.032-.36.078-.578.157-.75.171-.328.515-.515.921-.515.594 0 1.047.421 1.047.984 0 .422-.25.781-.719 1.063l-.687.39C.64-1.672.312-1.172.25 0h3.547zm0 0"/></symbol><symbol overflow="visible" id="t"><path style="stroke:none" d="M1.938-3.781V0h.671v-5.313h-.437c-.235.813-.39.922-1.406 1.047v.485zm0 0"/></symbol><symbol overflow="visible" id="u"><path style="stroke:none" d="M2.063-5.313c-.5 0-.938.22-1.22.579C.5-4.266.329-3.563.329-2.578c0 1.797.594 2.75 1.734 2.75 1.126 0 1.735-.953 1.735-2.703 0-1.031-.156-1.719-.516-2.203-.281-.375-.719-.579-1.219-.579zm0 .579c.718 0 1.062.718 1.062 2.14 0 1.516-.344 2.219-1.078 2.219C1.344-.375 1-1.109 1-2.563c0-1.453.344-2.171 1.063-2.171zm0 0"/></symbol></defs><g clip-path="url(#a)"><path style="fill:none;stroke-width:6.25;stroke-linecap:round;stroke-linejoin:miter;stroke:#bfbfbf;stroke-opacity:1;stroke-miterlimit:10" d="M1830 105v2550" transform="matrix(.1 0 0 -.1 0 275)"/></g><g clip-path="url(#b)"><path style="fill:none;stroke-width:6.25;stroke-linecap:round;stroke-linejoin:miter;stroke:#bfbfbf;stroke-opacity:1;stroke-miterlimit:10" d="M130 1380h3400" transform="matrix(.1 0 0 -.1 0 275)"/></g><g clip-path="url(#c)"><path style="fill:none;stroke-width:6.25;stroke-linecap:round;stroke-linejoin:miter;stroke:#bfbfbf;stroke-opacity:1;stroke-dasharray:12.5,18.75;stroke-miterlimit:10" d="M130 105v2550" transform="matrix(.1 0 0 -.1 0 275)"/></g><g clip-path="url(#d)"><path style="fill:none;stroke-width:6.25;stroke-linecap:round;stroke-linejoin:miter;stroke:#bfbfbf;stroke-opacity:1;stroke-dasharray:12.5,18.75;stroke-miterlimit:10" d="M696.68 105v2550" transform="matrix(.1 0 0 -.1 0 275)"/></g><g clip-path="url(#e)"><path style="fill:none;stroke-width:6.25;stroke-linecap:round;stroke-linejoin:miter;stroke:#bfbfbf;stroke-opacity:1;stroke-dasharray:12.5,18.75;stroke-miterlimit:10" d="M1263.32 105v2550" transform="matrix(.1 0 0 -.1 0 275)"/></g><g clip-path="url(#f)"><path style="fill:none;stroke-width:6.25;stroke-linecap:round;stroke-linejoin:miter;stroke:#bfbfbf;stroke-opacity:1;stroke-dasharray:12.5,18.75;stroke-miterlimit:10" d="M1830 105v2550" transform="matrix(.1 0 0 -.1 0 275)"/></g><g clip-path="url(#g)"><path style="fill:none;stroke-width:6.25;stroke-linecap:round;stroke-linejoin:miter;stroke:#bfbfbf;stroke-opacity:1;stroke-dasharray:12.5,18.75;stroke-miterlimit:10" d="M2396.68 105v2550" transform="matrix(.1 0 0 -.1 0 275)"/></g><g clip-path="url(#h)"><path style="fill:none;stroke-width:6.25;stroke-linecap:round;stroke-linejoin:miter;stroke:#bfbfbf;stroke-opacity:1;stroke-dasharray:12.5,18.75;stroke-miterlimit:10" d="M2963.32 105v2550" transform="matrix(.1 0 0 -.1 0 275)"/></g><g clip-path="url(#i)"><path style="fill:none;stroke-width:6.25;stroke-linecap:round;stroke-linejoin:miter;stroke:#bfbfbf;stroke-opacity:1;stroke-dasharray:12.5,18.75;stroke-miterlimit:10" d="M3530 105v2550" transform="matrix(.1 0 0 -.1 0 275)"/></g><g clip-path="url(#j)"><path style="fill:none;stroke-width:6.25;stroke-linecap:round;stroke-linejoin:miter;stroke:#bfbfbf;stroke-opacity:1;stroke-dasharray:12.5,18.75;stroke-miterlimit:10" d="M130 105h3400" transform="matrix(.1 0 0 -.1 0 275)"/></g><g clip-path="url(#k)"><path style="fill:none;stroke-width:6.25;stroke-linecap:round;stroke-linejoin:miter;stroke:#bfbfbf;stroke-opacity:1;stroke-dasharray:12.5,18.75;stroke-miterlimit:10" d="M130 530h3400" transform="matrix(.1 0 0 -.1 0 275)"/></g><g clip-path="url(#l)"><path style="fill:none;stroke-width:6.25;stroke-linecap:round;stroke-linejoin:miter;stroke:#bfbfbf;stroke-opacity:1;stroke-dasharray:12.5,18.75;stroke-miterlimit:10" d="M130 955h3400" transform="matrix(.1 0 0 -.1 0 275)"/></g><g clip-path="url(#m)"><path style="fill:none;stroke-width:6.25;stroke-linecap:round;stroke-linejoin:miter;stroke:#bfbfbf;stroke-opacity:1;stroke-dasharray:12.5,18.75;stroke-miterlimit:10" d="M130 1380h3400" transform="matrix(.1 0 0 -.1 0 275)"/></g><g clip-path="url(#n)"><path style="fill:none;stroke-width:6.25;stroke-linecap:round;stroke-linejoin:miter;stroke:#bfbfbf;stroke-opacity:1;stroke-dasharray:12.5,18.75;stroke-miterlimit:10" d="M130 1805h3400" transform="matrix(.1 0 0 -.1 0 275)"/></g><g clip-path="url(#o)"><path style="fill:none;stroke-width:6.25;stroke-linecap:round;stroke-linejoin:miter;stroke:#bfbfbf;stroke-opacity:1;stroke-dasharray:12.5,18.75;stroke-miterlimit:10" d="M130 2230h3400" transform="matrix(.1 0 0 -.1 0 275)"/></g><g clip-path="url(#p)"><path style="fill:none;stroke-width:6.25;stroke-linecap:round;stroke-linejoin:miter;stroke:#bfbfbf;stroke-opacity:1;stroke-dasharray:12.5,18.75;stroke-miterlimit:10" d="M130 2655h3400" transform="matrix(.1 0 0 -.1 0 275)"/></g><path style="fill:none;stroke-width:12.5;stroke-linecap:square;stroke-linejoin:miter;stroke:#000;stroke-opacity:1;stroke-miterlimit:10" d="M130 105h3400" transform="matrix(.1 0 0 -.1 0 275)"/><path style="fill:none;stroke-width:6.25;stroke-linecap:butt;stroke-linejoin:miter;stroke:#000;stroke-opacity:1;stroke-miterlimit:10" d="M130 105v50m56.68-50v25m56.64-25v25M300 105v25m56.68-25v25m56.64-25v25M470 105v25m56.68-25v25m56.64-25v25M640 105v25m56.68-25v50m56.64-50v25M810 105v25m56.68-25v25m56.64-25v25M980 105v25m56.68-25v25m56.64-25v25m56.68-25v25m56.68-25v25m56.64-25v50m56.68-50v25m56.68-25v25m56.64-25v25m56.68-25v25m56.68-25v25m56.64-25v25m56.68-25v25m56.68-25v25m56.64-25v25m56.68-25v50m56.68-50v25m56.64-25v25m56.68-25v25m56.68-25v25m56.64-25v25m56.68-25v25m56.68-25v25m56.64-25v25m56.68-25v25m56.68-25v50m56.64-50v25m56.68-25v25m56.68-25v25m56.64-25v25m56.68-25v25m56.68-25v25m56.64-25v25m56.68-25v25m56.68-25v25m56.64-25v50m56.68-50v25m56.68-25v25m56.64-25v25m56.68-25v25m56.68-25v25m56.64-25v25m56.68-25v25m56.68-25v25m56.64-25v25m56.68-25v50" transform="matrix(.1 0 0 -.1 0 275)"/><g style="fill:#000;fill-opacity:1"><use xlink:href="#q" x="9.042" y="274.5"/><use xlink:href="#r" x="11.539" y="274.5"/></g><g style="fill:#000;fill-opacity:1"><use xlink:href="#q" x="65.917" y="274.5"/><use xlink:href="#s" x="68.414" y="274.5"/></g><g style="fill:#000;fill-opacity:1"><use xlink:href="#q" x="122.792" y="274.5"/><use xlink:href="#t" x="125.289" y="274.5"/></g><use xlink:href="#u" x="180.915" y="274.5" style="fill:#000;fill-opacity:1"/><use xlink:href="#t" x="237.165" y="274.5" style="fill:#000;fill-opacity:1"/><use xlink:href="#s" x="294.04" y="274.5" style="fill:#000;fill-opacity:1"/><use xlink:href="#r" x="350.915" y="274.5" style="fill:#000;fill-opacity:1"/><path style="fill:none;stroke-width:12.5;stroke-linecap:square;stroke-linejoin:miter;stroke:#000;stroke-opacity:1;stroke-miterlimit:10" d="M130 2655h3400" transform="matrix(.1 0 0 -.1 0 275)"/><path style="fill:none;stroke-width:6.25;stroke-linecap:butt;stroke-linejoin:miter;stroke:#000;stroke-opacity:1;stroke-miterlimit:10" d="M130 2655v-50m56.68 50v-25m56.64 25v-25m56.68 25v-25m56.68 25v-25m56.64 25v-25m56.68 25v-25m56.68 25v-25m56.64 25v-25m56.68 25v-25m56.68 25v-50m56.64 50v-25m56.68 25v-25m56.68 25v-25m56.64 25v-25m56.68 25v-25m56.68 25v-25m56.64 25v-25m56.68 25v-25m56.68 25v-25m56.64 25v-50m56.68 50v-25m56.68 25v-25m56.64 25v-25m56.68 25v-25m56.68 25v-25m56.64 25v-25m56.68 25v-25m56.68 25v-25m56.64 25v-25m56.68 25v-50m56.68 50v-25m56.64 25v-25m56.68 25v-25m56.68 25v-25m56.64 25v-25m56.68 25v-25m56.68 25v-25m56.64 25v-25m56.68 25v-25m56.68 25v-50m56.64 50v-25m56.68 25v-25m56.68 25v-25m56.64 25v-25m56.68 25v-25m56.68 25v-25m56.64 25v-25m56.68 25v-25m56.68 25v-25m56.64 25v-50m56.68 50v-25m56.68 25v-25m56.64 25v-25m56.68 25v-25m56.68 25v-25m56.64 25v-25m56.68 25v-25m56.68 25v-25m56.64 25v-25m56.68 25v-50" transform="matrix(.1 0 0 -.1 0 275)"/><g style="fill:#000;fill-opacity:1"><use xlink:href="#q" x="9.042" y="6.375"/><use xlink:href="#r" x="11.539" y="6.375"/></g><g style="fill:#000;fill-opacity:1"><use xlink:href="#q" x="65.917" y="6.375"/><use xlink:href="#s" x="68.414" y="6.375"/></g><g style="fill:#000;fill-opacity:1"><use xlink:href="#q" x="122.792" y="6.375"/><use xlink:href="#t" x="125.289" y="6.375"/></g><use xlink:href="#u" x="180.915" y="6.375" style="fill:#000;fill-opacity:1"/><use xlink:href="#t" x="237.165" y="6.375" style="fill:#000;fill-opacity:1"/><use xlink:href="#s" x="294.04" y="6.375" style="fill:#000;fill-opacity:1"/><use xlink:href="#r" x="350.915" y="6.375" style="fill:#000;fill-opacity:1"/><path style="fill:none;stroke-width:12.5;stroke-linecap:square;stroke-linejoin:miter;stroke:#000;stroke-opacity:1;stroke-miterlimit:10" d="M130 105v2550" transform="matrix(.1 0 0 -.1 0 275)"/><path style="fill:none;stroke-width:6.25;stroke-linecap:butt;stroke-linejoin:miter;stroke:#000;stroke-opacity:1;stroke-miterlimit:10" d="M130 105h50m-50 42.5h25M130 190h25m-25 42.5h25M130 275h25m-25 42.5h25M130 360h25m-25 42.5h25M130 445h25m-25 42.5h25M130 530h50m-50 42.5h25M130 615h25m-25 42.5h25M130 700h25m-25 42.5h25M130 785h25m-25 42.5h25M130 870h25m-25 42.5h25M130 955h50m-50 42.5h25m-25 42.5h25m-25 42.5h25m-25 42.5h25m-25 42.5h25m-25 42.5h25m-25 42.5h25m-25 42.5h25m-25 42.5h25m-25 42.5h50m-50 42.5h25m-25 42.5h25m-25 42.5h25m-25 42.5h25m-25 42.5h25m-25 42.5h25m-25 42.5h25m-25 42.5h25m-25 42.5h25m-25 42.5h50m-50 42.5h25m-25 42.5h25m-25 42.5h25m-25 42.5h25m-25 42.5h25m-25 42.5h25m-25 42.5h25m-25 42.5h25m-25 42.5h25m-25 42.5h50m-50 42.5h25m-25 42.5h25m-25 42.5h25m-25 42.5h25m-25 42.5h25m-25 42.5h25m-25 42.5h25m-25 42.5h25m-25 42.5h25m-25 42.5h50" transform="matrix(.1 0 0 -.1 0 275)"/><g style="fill:#000;fill-opacity:1"><use xlink:href="#q" x="-.542" y="268.25"/><use xlink:href="#r" x="1.956" y="268.25"/></g><g style="fill:#000;fill-opacity:1"><use xlink:href="#q" x="-.542" y="225.125"/><use xlink:href="#s" x="1.956" y="225.125"/></g><g style="fill:#000;fill-opacity:1"><use xlink:href="#q" x="-.542" y="183.25"/><use xlink:href="#t" x="1.956" y="183.25"/></g><use xlink:href="#u" x="1.955" y="140.125" style="fill:#000;fill-opacity:1"/><use xlink:href="#t" x="1.955" y="98.25" style="fill:#000;fill-opacity:1"/><use xlink:href="#s" x="1.955" y="55.125" style="fill:#000;fill-opacity:1"/><use xlink:href="#r" x="1.955" y="12.625" style="fill:#000;fill-opacity:1"/><path style="fill:none;stroke-width:12.5;stroke-linecap:square;stroke-linejoin:miter;stroke:#000;stroke-opacity:1;stroke-miterlimit:10" d="M3530 105v2550" transform="matrix(.1 0 0 -.1 0 275)"/><path style="fill:none;stroke-width:6.25;stroke-linecap:butt;stroke-linejoin:miter;stroke:#000;stroke-opacity:1;stroke-miterlimit:10" d="M3530 105h-50m50 42.5h-25m25 42.5h-25m25 42.5h-25m25 42.5h-25m25 42.5h-25m25 42.5h-25m25 42.5h-25m25 42.5h-25m25 42.5h-25m25 42.5h-50m50 42.5h-25m25 42.5h-25m25 42.5h-25m25 42.5h-25m25 42.5h-25m25 42.5h-25m25 42.5h-25m25 42.5h-25m25 42.5h-25m25 42.5h-50m50 42.5h-25m25 42.5h-25m25 42.5h-25m25 42.5h-25m25 42.5h-25m25 42.5h-25m25 42.5h-25m25 42.5h-25m25 42.5h-25m25 42.5h-50m50 42.5h-25m25 42.5h-25m25 42.5h-25m25 42.5h-25m25 42.5h-25m25 42.5h-25m25 42.5h-25m25 42.5h-25m25 42.5h-25m25 42.5h-50m50 42.5h-25m25 42.5h-25m25 42.5h-25m25 42.5h-25m25 42.5h-25m25 42.5h-25m25 42.5h-25m25 42.5h-25m25 42.5h-25m25 42.5h-50m50 42.5h-25m25 42.5h-25m25 42.5h-25m25 42.5h-25m25 42.5h-25m25 42.5h-25m25 42.5h-25m25 42.5h-25m25 42.5h-25m25 42.5h-50" transform="matrix(.1 0 0 -.1 0 275)"/><g style="fill:#000;fill-opacity:1"><use xlink:href="#q" x="359.25" y="268.25"/><use xlink:href="#r" x="361.748" y="268.25"/></g><g style="fill:#000;fill-opacity:1"><use xlink:href="#q" x="359.25" y="225.125"/><use xlink:href="#s" x="361.748" y="225.125"/></g><g style="fill:#000;fill-opacity:1"><use xlink:href="#q" x="359.25" y="183.25"/><use xlink:href="#t" x="361.748" y="183.25"/></g><use xlink:href="#u" x="359.25" y="140.125" style="fill:#000;fill-opacity:1"/><use xlink:href="#t" x="359.25" y="98.25" style="fill:#000;fill-opacity:1"/><use xlink:href="#s" x="359.25" y="55.125" style="fill:#000;fill-opacity:1"/><use xlink:href="#r" x="359.25" y="12.625" style="fill:#000;fill-opacity:1"/><path style="fill:none;stroke-width:6.25;stroke-linecap:round;stroke-linejoin:miter;stroke:#00f;stroke-opacity:1;stroke-miterlimit:10" d="m247.305 132.422-64.61 72.656m38.945-15.547-38.945 15.547 10.899-40.469m51.992 94.024-61.172 75.234m38.203-17.265-38.203 17.265 9.102-40.937m50.39 91.914-57.812 77.812m37.422-18.946-37.422 18.946 7.344-41.289m48.75 89.727-54.375 80.312m36.523-20.508-36.524 20.508 5.508-41.562m47.188 87.461-51.016 82.89m35.625-22.109-35.625 22.11 3.711-41.759m45.587 85.118-47.58 85.43m34.61-23.672-34.61 23.671 1.876-41.914m44.024 82.696-44.22 87.968m33.594-25.078-33.593 25.078.078-41.914m42.421 80.157-40.78 90.546m32.5-26.483-32.5 26.483-1.68-41.914m40.78 77.618-37.42 93.046m31.405-27.813-31.406 27.813-3.398-41.757m39.101 74.922-33.984 95.624m30.234-29.022-30.234 29.023-5.117-41.602m37.422 72.187-30.625 98.204m29.062-30.235-29.063 30.235-6.718-41.407m35.625 69.453-27.188 100.704m27.852-31.289-27.852 31.289-8.32-41.094m33.828 66.602-23.828 103.28m26.719-32.343-26.72 32.344-9.843-40.743m31.953 63.712-20.39 105.78m25.508-33.242-25.508 33.243-11.328-40.352m30 60.781-16.993 108.36m24.336-34.14-24.336 34.14-12.695-39.922m28.008 57.773-13.594 110.938m23.164-34.922-23.164 34.922-14.062-39.492m25.976 54.804-10.234 113.477m22.031-35.703-22.031 35.703-15.313-39.063m23.828 51.797-6.796 116.016m20.898-36.328-20.898 36.328-16.524-38.516m21.602 48.711-3.399 118.594m19.844-36.953-19.844 36.953-17.656-38.008M215 2530.703v121.133m18.75-37.5-18.75 37.5-18.75-37.5M415.586 137.5 354.414 200m39.609-13.672L354.414 200l12.813-39.922m46.679 103.672-57.812 65m38.946-15.547-38.946 15.547 10.898-40.469m45.196 101.679-54.375 67.58m38.125-17.462-38.125 17.461 8.906-40.976m43.789 99.609-51.016 70.156m37.227-19.297-37.227 19.297 6.914-41.367m42.384 97.461-47.58 72.656m36.212-21.094-36.211 21.094 4.844-41.64m41.055 95.195-44.22 75.234m35.157-22.851-35.156 22.851 2.851-41.836m39.648 92.813-40.78 77.812m34.023-24.531-34.024 24.531.82-41.953m38.281 90.391-37.42 80.312m32.85-26.093-32.85 26.093-1.173-41.914m36.875 87.813-33.984 82.89m31.562-27.578-31.562 27.578-3.125-41.797m35.43 85.157-30.625 85.39M400 1329.96l-30.313 28.985-5-41.601m33.907 82.422-27.188 87.968m28.984-30.274-28.984 30.274-6.836-41.367m32.344 79.61-23.828 90.546m27.695-31.483-27.695 31.483-8.594-41.054m30.703 76.758-20.39 93.046m26.328-32.617-26.328 32.617-10.274-40.625m28.985 73.79-17.032 95.624m25.039-33.632-25.039 33.632-11.875-40.195m27.188 70.781-13.594 98.204m23.711-34.571-23.71 34.57-13.438-39.726m25.351 67.773-10.234 100.704m22.461-35.392-22.461 35.392-14.844-39.18m23.359 64.688-6.796 103.28m21.171-36.171-21.171 36.172-16.25-38.633m21.328 61.602-3.399 105.78m19.961-36.835-19.96 36.836-17.5-38.047M385 2409.57v108.36m18.75-37.5-18.75 37.5-18.75-37.5m17.031 55.351 3.399 110.938m17.617-38.047-17.617 38.047-19.883-36.914M583.906 142.617l-57.812 52.266m40.39-11.25-40.39 11.25 15.234-39.063m40.86 113.008-54.375 54.844m39.727-13.438-39.727 13.438 13.085-39.844m39.61 111.25-51.016 57.344m38.946-15.547-38.946 15.547 10.899-40.469M578.79 521.29l-47.58 59.92m38.009-17.694L531.21 581.21l8.633-41.016M577.11 647.5 532.89 710m36.954-19.805L532.89 710l6.367-41.445M575.39 773.75l-40.78 65m35.78-21.797-35.78 21.797 4.023-41.719M573.71 899.96l-37.42 67.58m34.57-23.712-34.57 23.711 1.757-41.875m33.945 100.508-33.984 70.156m33.202-25.586-33.202 25.586-.508-41.953m32.813 98.047-30.625 72.656m31.835-27.265-31.836 27.265-2.734-41.836m31.641 95.391-27.188 75.234m30.352-28.907-30.352 28.907-4.883-41.64m30.391 92.617-23.828 77.812m28.906-30.39-28.906 30.39-6.953-41.367m29.062 89.805-20.39 80.312m27.383-31.718-27.383 31.718-8.946-40.937m27.657 86.836-17.032 82.89m25.899-32.968-25.899 32.968-10.82-40.507m26.133 83.867-13.594 85.39m24.414-34.062-24.414 34.062-12.617-39.96m24.531 80.781-10.234 87.968m22.969-35.078-22.97 35.078-14.296-39.414m22.812 77.657-6.796 90.546m21.484-35.976-21.484 35.976-15.899-38.828m20.977 74.532-3.399 93.046m20.117-36.757-20.117 36.757-17.343-38.125m19.062 71.29v95.624m18.75-37.499-18.75 37.5-18.75-37.5m17.031 68.085 3.399 98.204m17.46-38.125-17.46 38.125-20.04-36.836m14.962 64.882 6.796 100.704m16.172-38.672-16.172 38.672-21.21-36.133m215-2457.735-54.375 42.07m41.132-8.124-41.133 8.125 18.165-37.774m34.531 121.914-51.016 44.61m40.586-10.586-40.586 10.586 15.899-38.79m33.399 120.391-47.58 47.188m39.806-13.086-39.805 13.086 13.437-39.727m32.462 118.789-44.22 49.688m38.946-15.547-38.945 15.547 10.898-40.469m31.601 116.992-40.78 52.266m37.85-18.008-37.85 18.008 8.28-41.094m30.82 115.039-37.42 54.844m36.64-20.43-36.64 20.43 5.663-41.563m30.039 112.969-33.984 57.344m35.234-22.695-35.234 22.695 2.969-41.797m29.336 110.665-30.625 59.92m33.75-24.843-33.75 24.844.351-41.914m28.555 108.243L711.406 1220m32.149-26.914L711.406 1220l-2.226-41.875m27.734 105.625-23.828 65.04m30.508-28.79-30.508 28.79-4.688-41.68m26.797 102.85-20.39 67.58m28.789-30.47-28.79 30.47-7.109-41.33m25.782 99.962-16.993 70.156m27.071-32.031-27.07 32.031-9.376-40.86m24.688 96.954-13.594 72.656m25.313-33.398-25.313 33.398-11.523-40.273m23.437 93.828-10.234 75.234m23.633-34.648-23.633 34.648-13.516-39.687m22.031 90.664-6.796 77.812m21.953-35.742-21.953 35.742-15.43-39.023m20.508 87.461-3.399 80.312m20.352-36.679-20.352 36.68-17.148-38.243M725 2167.305v82.89m18.75-37.5-18.75 37.5-18.75-37.5m17.031 80.86 3.399 85.39m17.265-38.203-17.265 38.203-20.196-36.718m15.118 77.539 6.796 87.968m15.821-38.828-15.82 38.828-21.602-35.937m13.086 74.18 10.234 90.546m14.414-39.375-14.414 39.375-22.851-35.156M920.508 152.813l-51.016 31.875m41.758-3.985-41.758 3.984 21.875-35.78m27.423 130.116-47.58 34.454m41.368-6.797-41.367 6.797 19.375-37.188m26.524 128.984-44.22 36.954m40.782-9.649-40.781 9.649 16.757-38.438m25.742 127.695-40.78 39.532m39.96-12.618-39.96 12.618 13.867-39.57m25.233 126.288-37.42 42.07m38.944-15.585-38.945 15.586 10.899-40.508m24.804 124.648-33.984 44.61m37.617-18.438-37.617 18.438 7.812-41.172m24.493 122.773-30.625 47.188m36.132-21.25-36.133 21.25 4.688-41.68m24.219 120.742-27.188 49.688m34.454-23.867-34.454 23.867 1.524-41.875m23.984 118.398-23.828 52.266m32.617-26.367-32.617 26.367-1.524-41.875m23.633 115.82-20.39 54.844m30.625-28.594-30.625 28.594-4.492-41.68m23.164 113.086-16.993 57.344m28.633-30.625-28.633 30.625-7.304-41.25m22.617 110.118-13.594 59.92m26.563-32.42-26.563 32.42-10-40.702m21.914 107.032L889.883 1730m24.57-33.984L889.883 1730l-12.461-40.04m20.976 103.79-6.796 65.04m22.538-35.352-22.538 35.351-14.766-39.258m19.844 100.429-3.399 67.58m20.625-36.524-20.625 36.523-16.836-38.398M895 2046.172v70.156m18.75-37.5-18.75 37.5-18.75-37.5m17.031 93.594 3.399 72.656m16.992-38.32-16.992 38.32-20.47-36.562m15.392 90.117 6.796 75.234m15.312-39.023-15.312 39.023-22.03-35.664m13.515 86.641 10.234 77.812m13.711-39.648-13.71 39.648-23.477-34.765m11.562 83.203 13.594 80.312m12.226-40.078-12.226 40.078-24.766-33.828M1088.79 157.93l-47.58 21.68m41.876 1.484-41.875-1.485 26.328-32.617m19.571 137.148-44.22 24.22m41.915-1.563-41.914 1.562 23.867-34.453m18.632 136.446-40.78 26.796m41.6-4.921-41.6 4.921 21.054-36.25m18.046 135.704-37.42 29.296m41.093-8.358-41.094 8.358 17.969-37.89m17.734 134.805-33.984 31.875m40.156-11.954-40.156 11.953 14.531-39.335m17.774 133.671-30.626 34.454m38.946-15.587-38.946 15.587 10.899-40.508m18.008 132.304-27.188 36.954m37.304-19.063-37.304 19.063 7.11-41.29m18.398 130.547-23.828 39.532m35.43-22.461-35.43 22.46 3.281-41.796m18.828 128.476-20.39 42.11m33.242-25.586-33.242 25.586-.508-41.953m19.219 126.093-17.032 44.61m30.899-28.36-30.899 28.36-4.14-41.72m19.453 123.321-13.594 47.188m28.399-30.86-28.399 30.86-7.617-41.25m19.531 120.312-10.234 49.688m25.898-32.969-25.898 32.969-10.82-40.469m19.335 116.992-6.796 52.266m23.438-34.766-23.438 34.766-13.75-39.61m18.867 113.555-3.438 54.844m21.055-36.289-21.055 36.289-16.367-38.594m18.086 110v57.344m18.75-37.5-18.75 37.5-18.75-37.5m17.031 106.368 3.438 59.92m16.562-38.515-16.562 38.516-20.86-36.367m15.743 102.696 6.796 62.46m14.571-39.336-14.57 39.336-22.696-35.273m14.18 99.023 10.234 65.04m12.696-39.962-12.696 39.961-24.375-34.18m12.461 95.351 13.594 67.58m10.976-40.47-10.976 40.47-25.781-33.048m10.468 91.68 17.032 70.156m9.374-40.859-9.374 40.86-27.07-32.032M1257.11 163.008l-44.22 11.484m41.016 8.711-41.015-8.71 31.601-27.579m10.898 142.305-40.78 14.062m41.523 5.547-41.524-5.547 29.375-29.922m9.726 142.11-37.42 16.562m41.874 1.953-41.875-1.953 26.68-32.344m9.023 141.993-33.984 19.14m41.875-2.03-41.875 2.03 23.476-34.726m8.829 141.836-30.626 21.68m41.446-6.407-41.446 6.406 19.766-36.992m9.141 141.523-27.188 24.22m40.469-10.938-40.469 10.937 15.508-38.945m10 140.938-23.828 26.796m38.945-15.585-38.945 15.585 10.898-40.507m11.211 139.961-20.39 29.296m36.797-20.038-36.797 20.038 6.015-41.484m12.696 138.399-17.032 31.874m34.219-24.257-34.219 24.257 1.133-41.914m14.18 136.25-13.594 34.454m31.211-28.008-31.21 28.008-3.673-41.758m15.586 133.554-10.234 36.954m28.086-31.133-28.086 31.133-8.086-41.133m16.601 130.39-6.796 39.532m24.843-33.789-24.843 33.789-12.11-40.118m17.227 126.797-3.438 42.11m21.719-35.899-21.719 35.899-15.664-38.907M1235 1803.945v44.61m18.75-37.5-18.75 37.5-18.75-37.5m17.031 119.101 3.438 47.188m15.976-38.75-15.976 38.75-21.407-36.055m16.29 115.117 6.796 49.688m13.477-39.688-13.477 39.688-23.671-34.61m15.156 111.133 10.234 52.266m11.211-40.391-11.21 40.39-25.626-33.202m13.711 107.148 13.594 54.844m9.18-40.938-9.18 40.938-27.227-31.875m11.914 103.281 17.032 57.344m7.304-41.25-7.304 41.25-28.633-30.625m9.922 99.493 20.39 59.92m5.665-41.522-5.665 41.523-29.843-29.453M1425.39 168.125l-40.78 1.25m38.046 17.578-38.047-17.578 36.875-19.883m2.226 144.844-37.42 3.828m39.218 14.844-39.219-14.844 35.43-22.46m.273 144.843-33.984 6.406m40.312 11.485-40.312-11.485 33.398-25.351m-1.093 145.195-30.626 8.906m41.251 7.5-41.25-7.5 30.78-28.476m-1.874 145.781-27.188 11.484m41.836 2.696-41.836-2.696 27.266-31.836m-1.758 146.563-23.828 14.062m41.836-2.891-41.836 2.891 22.812-35.195m-.703 147.383-20.39 16.562m40.898-9.101-40.898 9.101 17.265-38.203m1.446 147.852-17.032 19.14m38.946-15.586-38.946 15.586 10.899-40.507m4.414 147.577-13.594 21.72m35.82-21.837-35.82 21.836 4.063-41.757m7.851 146.288-10.234 24.22m31.836-27.266-31.836 27.265-2.696-41.836m11.211 143.829-6.796 26.796m27.382-31.758-27.382 31.758-8.946-40.976m14.063 140.43-3.438 29.296m22.969-35.078-22.969 35.078-14.297-39.414M1405 1682.813v31.874m18.75-37.499-18.75 37.5-18.75-37.5m17.031 131.835 3.438 34.454m14.961-39.18-14.961 39.18-22.344-35.47m17.227 127.266 6.796 36.954m11.642-40.274-11.642 40.274-25.234-33.477m16.719 122.734 10.234 39.532m8.789-40.976-8.789 40.976-27.539-31.641m15.625 118.32 13.594 42.11m6.328-41.445-6.328 41.445-29.375-29.922m14.062 114.062 17.032 44.61m4.14-41.719-4.14 41.719-30.899-28.36m12.188 109.961 20.39 47.188m2.345-41.875-2.345 41.875-32.07-26.992m9.961 106.054 23.828 49.688m.703-41.875-.703 41.875-33.125-25.703M1593.71 173.203l-37.42-8.906m32.148 26.953-32.149-26.953 40.82-9.531m-5.117 144.687-33.984-6.406m33.398 25.351-33.398-25.351 40.312-11.485m-8.007 144.102-30.626-3.828m34.923 23.281-34.922-23.281 39.53-13.945m-10.624 143.984-27.188-1.25m36.563 20.469-36.563-20.469 38.32-16.992m-12.812 144.492-23.828 1.25m38.477 16.719-38.477-16.719 36.445-20.703m-14.336 145.664-20.39 3.828m40.312 11.524-40.312-11.524 33.398-25.351m-14.687 147.734-17.032 6.406m41.719 4.375-41.719-4.375 28.555-30.742m-13.242 150.586-13.594 8.906m41.641-4.883-41.64 4.883 21.054-36.25m-9.141 153.555-10.234 11.484m38.945-15.586-38.945 15.586 10.898-40.508m-2.383 155.274-6.796 14.023m33.242-25.586-33.242 25.586-.508-41.953m5.625 154.141-3.438 16.562m25.938-32.968-25.938 32.968-10.82-40.508M1575 1561.68v19.14m18.75-37.5-18.75 37.5-18.75-37.5m17.031 144.57 3.438 21.72m12.695-39.962-12.695 39.961-24.375-34.14m19.258 138.671 6.796 24.22m7.93-41.172-7.93 41.171-28.203-31.015m19.688 133.008 10.234 26.796m4.141-41.718-4.14 41.718-30.9-28.359m18.985 127.813 13.594 29.296m1.25-41.875-1.25 41.875-32.774-26.093m17.461 123.008 17.032 31.874m-1.133-41.914 1.133 41.914-34.22-24.257m15.509 118.593 20.39 34.454m-2.968-41.837 2.968 41.837-35.234-22.735m13.125 114.531 23.828 36.954m-4.531-41.68 4.531 41.68-36.055-21.368m10.547 110.625 27.188 39.532m-5.821-41.524 5.82 41.524-36.718-20.274M1761.992 178.32l-33.984-19.14m23.476 34.726-23.476-34.726 41.875 2.07m-9.57 143.281-30.626-16.562m24.063 34.336-24.063-34.336 41.915 1.367m-13.008 141.445-27.188-14.062m24.727 33.867-24.727-33.867 41.914.547m-16.406 139.726-23.828-11.484m25.624 33.164-25.624-33.164 41.953-.586m-19.844 138.281-20.39-8.906m26.835 32.187-26.835-32.187 41.875-2.149m-23.164 137.305-17.032-6.406m28.556 30.743-28.556-30.743 41.72-4.375m-26.407 136.992-13.594-3.828m31.016 28.204-31.016-28.204 41.172-7.89m-29.258 137.929-10.234-1.25m34.922 23.242-34.922-23.242 39.57-13.984m-31.055 141.484-6.796 1.25m40.312 11.523-40.312-11.523 33.398-25.313m-28.281 150.274-3.438 3.828m38.946-15.547-38.946 15.547 10.938-40.469M1745 1440.586v6.367m18.75-37.5-18.75 37.5-18.75-37.5m17.031 157.344 3.438 8.906m4.141-41.719-4.141 41.72-30.899-28.36m25.782 145.664 6.796 11.484m-3.008-41.836 3.008 41.836-35.234-22.695m26.719 137.461 10.234 14.023m-6.914-41.367 6.914 41.367-37.226-19.336m25.312 131.524 13.594 16.562m-9.297-40.859 9.297 40.86-38.281-17.071m22.968 126.719 17.032 19.14m-10.899-40.507 10.899 40.507-38.946-15.586m20.235 122.656 20.39 21.72m-12.031-40.196 12.031 40.195-39.336-14.492m17.227 119.023 23.828 24.22m-12.93-39.883 12.93 39.882-39.687-13.593m14.179 115.586 27.188 26.796m-13.554-39.688 13.554 39.688-39.883-12.93m10.977 112.384 30.624 29.296m-14.102-39.453 14.102 39.453-40.078-12.382m210.079-2410.118-30.626-29.296m14.103 39.453-14.102-39.453 40.078 12.382m-11.172 143.164-27.188-26.796m13.554 39.688-13.554-39.688 39.883 12.968m-14.375 140.04-23.828-24.22m12.93 39.883-12.93-39.882 39.648 13.593m-17.539 136.876-20.39-21.68m12.031 40.156-12.031-40.156 39.336 14.453m-20.625 133.437-17.032-19.14m10.899 40.508-10.899-40.508 38.946 15.586m-23.633 129.765-13.594-16.562m9.297 40.898-9.297-40.898 38.281 17.11m-26.367 125.702-10.234-14.062m6.914 41.367-6.914-41.367 37.226 19.336m-28.711 120.937-6.796-11.484m3.008 41.836-3.008-41.836 35.234 22.695m-30.117 115-3.438-8.906m-4.141 41.719 4.141-41.72 30.899 28.36M1915 1319.453v-6.406m-18.75 37.5 18.75-37.5 18.75 37.5m-20.469 95.117 3.438-3.828m-38.946 15.586 38.946-15.586-10.938 40.508m5.821 89.531 6.796-1.25m-40.312-11.523 40.312 11.523-33.398 25.313m24.883 102.187 10.234 1.25m-34.922-23.242 34.922 23.242-39.57 13.984m27.656 110.977 13.594 3.828m-31.016-28.204 31.016 28.204-41.172 7.89m25.859 114.493 17.032 6.406m-28.556-30.743 28.556 30.743-41.72 4.375m23.009 115.469 20.39 8.906m-26.835-32.187 26.835 32.187-41.875 2.149m19.766 115.156 23.828 11.484m-25.664-33.164 25.664 33.164-41.953.586m16.445 114.18 27.188 14.023m-24.727-33.867 24.727 33.867-41.914-.547m13.008 112.735 30.624 16.562m-24.062-34.336 24.063 34.336-41.915-1.367m9.61 111.016 33.984 19.14m-23.476-34.726 23.476 34.726-41.875-2.03m208.477-2410.274-27.188-39.532m5.821 41.524-5.82-41.524 36.718 20.274m-11.211 145.469-23.828-36.954m4.531 41.68-4.531-41.68 36.055 21.368m-13.946 141.836-20.39-34.454m2.968 41.837-2.968-41.837 35.234 22.696m-16.523 137.969-17.032-31.875m1.133 41.914-1.133-41.914 34.22 24.257m-18.907 133.828-13.594-29.296m-1.25 41.875 1.25-41.875 32.774 26.132m-20.86 129.414-10.234-26.796m-4.141 41.718 4.14-41.718 30.9 28.398m-22.384 124.61-6.796-24.22m-7.93 41.173 7.93-41.172 28.203 31.054m-23.086 119.415-3.438-21.72m-12.695 39.962 12.695-39.961 24.375 34.18M2085 1198.32v-19.14m-18.75 37.5 18.75-37.5 18.75 37.5m-20.469 107.851 3.438-16.562m-25.938 32.969 25.938-32.97 10.82 40.509m-15.937 102.304 6.796-14.023m-33.242 25.547 33.242-25.547.508 41.914m-9.023 98.32 10.234-11.484m-38.945 15.586 38.945-15.586-10.898 40.508m-1.016 97.187 13.594-8.906m-41.641 4.883 41.64-4.883-21.054 36.25m5.742 98.906 17.032-6.406m-41.719-4.375 41.719 4.375-28.555 30.742m9.844 101.875 20.39-3.828m-40.312-11.523 40.312 11.523-33.398 25.351m11.289 104.688 23.828-1.25m-38.476-16.719 38.476 16.719-36.445 20.742m10.937 106.758 27.188 1.25m-36.563-20.469 36.563 20.469-38.32 16.992m9.414 107.969 30.624 3.828m-34.922-23.242 34.923 23.242-39.57 13.945m7.265 108.438 33.984 6.406m-33.398-25.351 33.398 25.351-40.312 11.524m4.61 108.32 37.42 8.906m-32.147-26.913 32.148 26.913-40.82 9.531m204.023-2411.64-23.828-49.688m-.703 41.914.703-41.914 33.125 25.703m-11.016 150.235-20.39-47.188m-2.345 41.875 2.345-41.875 32.07 26.992m-13.359 146.407-17.032-44.61m-4.14 41.719 4.14-41.719 30.899 28.36m-15.586 142.5-13.594-42.07m-6.328 41.445 6.328-41.446 29.375 29.883m-17.461 138.399-10.234-39.532M2241.094 700l8.789-41.016 27.539 31.641m-19.024 134.102-6.796-36.954m-11.68 40.274 11.68-40.274 25.234 33.477m-20.117 129.727-3.438-34.454m-14.961 39.18 14.961-39.18 22.344 35.508M2255 1077.188v-31.876m-18.75 37.501 18.75-37.5 18.75 37.5m-20.469 120.585 3.438-29.296m-22.969 35.078 22.969-35.078 14.297 39.414m-19.414 116.132 6.796-26.796m-27.421 31.758 27.421-31.758 8.946 40.976m-17.461 112.032 10.234-24.22m-31.836 27.305 31.836-27.304 2.695 41.836m-14.609 108.633 13.594-21.72m-35.82 21.837 35.82-21.836-4.063 41.757m-11.25 106.172 17.032-19.14m-38.946 15.586 38.946-15.586-10.899 40.507m-7.812 104.844 20.39-16.562m-40.937 9.101 40.937-9.101-17.265 38.203m-4.844 104.609 23.828-14.023m-41.836 2.852 41.836-2.852-22.812 35.156m-2.696 105.078 27.188-11.484m-41.836-2.695 41.836 2.695-27.266 31.836m-1.64 105.859 30.624-8.906m-41.249-7.5 41.25 7.5-30.782 28.476m-1.523 106.68 33.984-6.406m-40.312-11.484 40.312 11.484-33.398 25.351m-2.304 107.266 37.42-3.828m-39.218-14.844 39.219 14.844-35.43 22.46m-3.671 107.579 40.78-1.25m-38.046-17.578 38.047 17.578-36.875 19.922M2435.195 198.71l-20.39-59.92m-5.665 41.523 5.665-41.524 29.843 29.453m-11.132 156.68-17.032-57.344m-7.304 41.25 7.304-41.25 28.633 30.625m-13.32 152.969-13.594-54.844m-9.18 40.938 9.18-40.938 27.227 31.875m-15.313 149.18-10.234-52.266m-11.211 40.391 11.21-40.39 25.587 33.202m-17.071 145.274-6.796-49.688m-13.477 39.688 13.477-39.688 23.632 34.61m-18.515 141.328-3.438-47.188m-15.976 38.75 15.976-38.75 21.407 36.055M2425 956.055v-44.61m-18.75 37.5 18.75-37.5 18.75 37.5m-20.469 133.36 3.438-42.11m-21.759 35.899 21.759-35.899 15.664 38.907m-20.781 129.414 6.796-39.532m-24.843 33.789 24.843-33.789 12.11 40.157m-20.625 125.586 10.234-36.954m-28.086 31.172 28.086-31.172 8.086 41.133m-20 122.071 13.594-34.454m-31.211 28.008 31.21-28.008 3.673 41.797m-18.985 118.868 17.032-31.876m-34.219 24.258 34.219-24.257-1.133 41.914m-17.578 116.171 20.39-29.296m-36.797 20.038 36.797-20.038-6.015 41.484m-16.094 114.062 23.828-26.796m-38.945 15.586 38.945-15.586-10.898 40.507m-14.61 112.501 27.188-24.22m-40.469 10.938 40.469-10.937-15.508 38.945m-13.398 111.524 30.624-21.72m-41.445 6.407 41.445-6.406-19.765 36.992m-12.539 110.937 33.984-19.14m-41.875 2.03 41.875-2.03-23.476 34.726m-12.226 110.625 37.42-16.562m-41.874-1.953 41.875 1.953-26.719 32.343m-12.382 110.469 40.78-14.023m-41.562-5.548 41.563 5.548-29.375 29.883m-13.126 110.351 44.22-11.484m-41.016-8.711 41.015 8.71-31.601 27.579m188.008-2409.258-17.032-70.156m-9.374 40.898 9.374-40.898 27.07 32.031m-11.757 164.337-13.594-67.58m-10.976 40.47 10.976-40.47 25.781 33.048m-13.867 160.742-10.234-65m-12.695 39.922 12.695-39.922 24.336 34.14m-15.821 157.11-6.796-62.5m-14.571 39.336 14.57-39.336 22.696 35.273m-17.578 153.437-3.438-59.92m-16.562 38.515 16.562-38.516 20.86 36.367M2595 834.922v-57.344m-18.75 37.5 18.75-37.5 18.75 37.5m-20.469 146.094 3.438-54.844m-21.055 36.289 21.055-36.289 16.367 38.594m-21.484 142.461 6.796-52.266m-23.438 34.766 23.438-34.766 13.75 39.61m-22.265 138.867 10.234-49.688m-25.898 32.969 25.898-32.969 10.82 40.469m-22.734 135.469 13.594-47.188m-28.399 30.86 28.399-30.86 7.617 41.25m-22.93 132.149 17.032-44.61m-30.899 28.36 30.899-28.36 4.14 41.72m-22.851 129.14 20.39-42.11m-33.242 25.586 33.242-25.586.508 41.953m-22.617 126.368 23.828-39.532m-35.43 22.461 35.43-22.46-3.281 41.796m-22.227 123.946 27.188-36.954m-37.304 19.102 37.304-19.102-7.11 41.29m-21.796 121.914 30.624-34.454m-38.945 15.587 38.945-15.587-10.898 40.508m-21.406 120.157 33.984-31.876m-40.156 11.993 40.156-11.992-14.531 39.335m-21.171 118.75 37.42-29.296m-41.093 8.358 41.094-8.358-17.969 37.89m-21.132 117.656 40.78-26.796m-41.64 4.921 41.64-4.921-21.054 36.25m-21.446 116.758 44.22-24.22m-41.915 1.563 41.914-1.562-23.906 34.453m-21.993 116.016 47.58-21.72m-41.876-1.484 41.875 1.485-26.367 32.617m179.375-2404.102-13.594-80.312m-12.226 40.116 12.226-40.116 24.766 33.828m-12.852 172.734-10.234-77.812m-13.711 39.648 13.71-39.648 23.477 34.765m-14.961 169.258-6.796-75.234m-15.312 39.062 15.312-39.062 22.03 35.664m-16.913 165.781-3.438-72.656m-16.953 38.32 16.953-38.32 20.508 36.562M2765 713.828v-70.156m-18.75 37.5 18.75-37.5 18.75 37.5m-20.469 158.868 3.438-67.58m-20.625 36.524 20.625-36.523 16.836 38.398m-21.953 155.391 6.796-65m-22.538 35.313 22.538-35.313 14.766 39.219m-23.281 152.031 10.234-62.46m-24.57 33.944 24.57-33.945 12.461 40m-24.375 148.671 13.594-59.92m-26.602 32.42 26.602-32.42 10 40.702m-25.313 145.43 17.032-57.344m-28.633 30.625 28.633-30.625 7.304 41.29m-26.015 142.304 20.39-54.844m-30.664 28.632 30.664-28.632 4.492 41.719m-26.601 139.336 23.828-52.266m-32.617 26.367 32.617-26.367 1.523 41.914m-27.031 136.563 27.188-49.688m-34.454 23.867 34.454-23.867-1.563 41.875m-27.343 134.063 30.624-47.188m-36.172 21.25 36.173-21.25-4.688 41.68m-27.617 131.719 33.984-44.61m-37.617 18.438 37.617-18.438-7.812 41.172m-27.89 129.688 37.42-42.11m-38.944 15.586 38.945-15.586-10.898 40.508m-28.203 127.813 40.78-39.532m-39.96 12.618 39.96-12.618-13.867 39.57m-28.633 126.173 44.22-36.954m-40.82 9.687 40.82-9.687-16.758 38.438m-29.142 124.766 47.58-34.454m-41.368 6.797 41.367-6.797-19.375 37.188m-29.922 123.477 51.016-31.876m-41.758 3.985 41.758-3.985-21.875 35.782m171.484-2397.071-10.234-90.546m-14.414 39.375 14.414-39.375 22.851 35.156m-14.336 181.601-6.796-87.968m-15.821 38.828 15.82-38.828 21.563 35.937m-16.445 178.281-3.438-85.43m-17.226 38.204 17.226-38.203 20.235 36.718M2935 592.695v-82.89m-18.75 37.5 18.75-37.5 18.75 37.5m-20.469 171.601 3.438-80.312m-20.352 36.679 20.352-36.68 17.148 38.243m-22.265 168.32 6.796-77.812m-21.953 35.742 21.953-35.742 15.43 39.023m-23.945 165 10.234-75.234m-23.633 34.648 23.633-34.648 13.516 39.687m-25.43 161.758 13.594-72.656m-25.313 33.398 25.313-33.398 11.523 40.312m-26.836 158.594 17.032-70.156m-27.071 32.031 27.07-32.031 9.376 40.86m-28.086 155.508 20.39-67.58m-28.789 30.509 28.79-30.508 7.109 41.328m-29.219 152.501 23.828-65.04m-30.508 28.75 30.508-28.75 4.688 41.64m-30.196 149.61 27.188-62.46m-32.149 26.874 32.149-26.875 2.226 41.836m-31.132 146.835 30.624-59.92m-33.749 24.882 33.75-24.883-.391 41.914m-31.914 144.219 33.984-57.344m-35.234 22.695 35.234-22.695-2.969 41.797m-32.733 141.797 37.42-54.844m-36.64 20.43 36.64-20.43-5.663 41.563m-33.437 139.492 40.78-52.266m-37.85 18.008 37.85-18.008-8.28 41.094m-34.22 137.383 44.22-49.688m-38.946 15.547 38.945-15.547-10.898 40.469m-35.001 135.469 47.58-47.188m-39.845 13.086 39.844-13.086-13.437 39.727m-35.86 133.672 51.016-44.61m-40.586 10.586 40.586-10.586-15.899 38.79m-36.796 132.07 54.374-42.11m-41.132 8.125 41.133-8.125-18.204 37.813m164.414-2388.906-6.796-100.704m-16.172 38.672 16.172-38.672 21.21 36.133m-16.093 190.821-3.438-98.204m-17.421 38.125 17.421-38.125 20.078 36.836M3105 471.563v-95.625m-18.75 37.5 18.75-37.5 18.75 37.5m-20.469 184.335 3.438-93.046m-20.117 36.757 20.117-36.757 17.343 38.164m-22.46 181.132 6.796-90.546m-21.523 36.015 21.523-36.015 15.899 38.828m-24.414 177.929 10.234-87.968m-22.969 35.078 22.97-35.078 14.296 39.414m-26.211 174.804 13.594-85.43m-24.414 34.063 24.414-34.062 12.617 39.96m-27.93 171.68 17.032-82.89m-25.899 32.968 25.899-32.968 10.82 40.508m-29.531 168.593 20.39-80.312m-27.422 31.719 27.422-31.72 8.946 40.938m-31.055 165.625 23.828-77.812m-28.906 30.39 28.906-30.39 6.953 41.367m-32.461 162.656 27.188-75.234m-30.391 28.907 30.39-28.907 4.884 41.64m-33.789 159.805 30.624-72.656m-31.835 27.266 31.836-27.266 2.734 41.836m-35.039 157.07 33.984-70.156m-33.202 25.586 33.202-25.586.508 41.953m-36.21 154.415 37.42-67.58m-34.57 23.75 34.57-23.75-1.757 41.876m-37.343 151.954 40.78-65.04m-35.78 21.797 35.78-21.797-4.023 41.719M3082.89 2112.5l44.22-62.46m-36.954 19.765 36.953-19.766-6.367 41.406m-39.532 147.265 47.58-59.92m-38.009 17.694 38.008-17.695-8.633 41.016m-40.664 145.117 51.016-57.344m-38.945 15.547 38.945-15.547-10.899 40.469m-41.796 143.125 54.374-54.844m-39.727 13.438 39.727-13.438-13.085 39.844m-43.008 141.211 57.812-52.266m-40.39 11.25 40.39-11.25-15.234 39.063m158.047-2379.961-3.438-110.938m-17.578 38.086 17.578-38.086 19.883 36.914M3275 350.43V242.07m-18.75 37.5 18.75-37.5 18.75 37.5m-20.469 197.11 3.438-105.82m-19.961 36.874 19.96-36.875 17.5 38.047m-22.616 193.984 6.796-103.28m-21.171 36.21 21.171-36.21 16.25 38.671m-24.765 190.821 10.234-100.704m-22.461 35.43 22.461-35.43 14.844 39.18m-26.758 187.774 13.594-98.204m-23.711 34.571 23.71-34.57 13.438 39.726m-28.75 184.688 17.032-95.625m-25.039 33.632 25.039-33.633 11.875 40.196m-30.586 181.64 20.39-93.046m-26.328 32.617 26.328-32.617 10.274 40.625m-32.383 178.671 23.828-90.546M3259.219 1175l27.695-31.523 8.594 41.054m-34.102 175.703 27.188-87.968m-28.984 30.274 28.984-30.274 6.836 41.367m-35.742 172.812 30.624-85.39M3260 1430.04l30.313-28.985 5 41.601m-37.305 170.039 33.984-82.89m-31.562 27.578 31.562-27.578 3.125 41.836m-38.827 167.265 37.42-80.312m-32.812 26.094 32.813-26.094 1.172 41.914m-40.273 164.648 40.78-77.812m-34.023 24.531 34.024-24.531-.82 41.953m-41.681 162.07 44.22-75.234m-35.196 22.851 35.195-22.851-2.851 41.836m-43.048 159.609 47.58-72.656m-36.212 21.094 36.211-21.094-4.844 41.64m-44.453 157.266 51.016-70.156m-37.227 19.336 37.227-19.336-6.914 41.367m-45.781 155.001 54.374-67.58m-38.124 17.462 38.124-17.461-8.906 40.977m-47.187 152.852 57.812-65.04m-38.946 15.547 38.946-15.547-10.898 40.469m-48.594 150.781 61.172-62.46m-39.609 13.632 39.609-13.633-12.852 39.883M3445 229.297V108.203m-18.75 37.5 18.75-37.5 18.75 37.5m-20.469 209.844 3.438-118.594m-19.844 36.953 19.844-36.953L3464.375 275m-22.773 206.758 6.796-116.016m-20.938 36.328 20.938-36.328 16.524 38.516m-25.039 203.711 10.234-113.438m-22.031 35.664 22.031-35.664 15.313 39.024m-27.227 200.664 13.594-110.938m-23.164 34.961 23.164-34.96 14.062 39.491m-29.375 197.657 17.032-108.36m-24.376 34.14 24.376-34.14 12.695 39.961m-31.406 194.649 20.39-105.82m-25.507 33.242 25.507-33.243 11.328 40.352m-33.437 191.679 23.828-103.28m-26.719 32.343 26.72-32.344 9.843 40.743m-35.352 188.75 27.188-100.704m-27.891 31.29 27.89-31.29 8.321 41.094m-37.226 185.86 30.624-98.204m-29.102 30.235 29.102-30.235 6.72 41.407m-39.024 183.008 33.984-95.626M3431.758 1425l30.234-29.063 5.117 41.602m-40.819 180.234 37.42-93.046m-31.405 27.813 31.406-27.813 3.398 41.757m-42.499 177.539 40.78-90.546m-32.5 26.483 32.5-26.483 1.72 41.914m-44.22 174.843 44.22-87.968m-33.594 25.078 33.593-25.078-.078 41.914m-45.821 172.265 47.58-85.39m-34.61 23.633 34.61-23.633-1.876 41.875m-47.422 169.765 51.016-82.89m-35.625 22.109 35.625-22.11-3.711 41.758m-48.984 167.344 54.374-80.312m-36.523 20.508 36.523-20.508-5.507 41.562m-50.586 165 57.812-77.812m-37.422 18.946 37.422-18.946-7.343 41.289m-52.149 162.734 61.172-75.234m-38.203 17.265 38.203-17.265-9.102 40.937m-53.789 160.508 64.61-72.656m-38.907 15.547 38.907-15.547-10.899 40.469" transform="matrix(.1 0 0 -.1 0 275)"/><g clip-path="url(#v)"><path style="fill:none;stroke-width:12.5;stroke-linecap:round;stroke-linejoin:miter;stroke:red;stroke-opacity:1;stroke-miterlimit:10" d="m1824.336 1375.742-1.094 1.524-.976 1.992-.743 2.5-.43 2.93-.077 3.32.43 3.633.976 3.75 1.64 3.789 2.305 3.554 3.047 3.086 3.711 2.344 4.414 1.29h4.922l5.351-1.68 5.547-3.555 5.47-5.664 5.116-7.97 4.375-10.273 3.243-12.617 1.64-14.687-.351-16.485-2.813-17.734-5.625-18.281-8.789-17.93-12.11-16.562-15.546-13.907-18.907-9.96-21.914-4.57-24.414 2.265-26.132 10.508-26.72 20-26.054 30.43-23.75 41.562-19.61 52.812-13.554 63.711-5.351 73.438 4.96 81.289 17.305 86.445 31.328 87.93 46.875 84.922 63.164 76.523 79.61 62.11 95.351 41.015 109.258 13.047 120.273-21.836 127.032-63.281 128.398-110.39 122.852-161.837 109.414-215.781 86.914-269.727 54.648-320.78 12.227-365.43-40.235-399.883-102.07-419.844" transform="matrix(.1 0 0 -.1 0 275)"/></g><g clip-path="url(#w)"><path style="fill:none;stroke-width:12.5;stroke-linecap:round;stroke-linejoin:miter;stroke:red;stroke-opacity:1;stroke-miterlimit:10" d="m1824.336 1384.258.156 2.226.469 2.344.898 2.383 1.29 2.305 1.718 2.07 2.188 1.68 2.617 1.054 3.008.313 3.28-.664 3.438-1.758 3.516-3.086 3.32-4.453 2.93-5.977 2.344-7.382 1.406-8.79.274-10-1.172-10.898-2.852-11.445-4.766-11.407-6.875-10.82-8.984-9.453-11.172-7.266-13.125-4.218-14.804-.235-16.133 4.61-16.758 10.312-16.64 16.719-15.587 23.555-13.437 30.664-10.078 37.656-5.39 44.062.624 49.493 7.93 53.437 16.406 55.274 25.82 54.453 35.977 50.468 46.328 42.852 56.484 31.133 65.704 15.117 73.398-5.274 78.71-29.882 80.9-58.282 79.1-89.804 72.5-123.282 60.509-157.421 42.5-190.43 18.125-220.274-12.578-244.57-49.454-260.742-91.68-266.133-138.32-258.047L1980.86-327.5" transform="matrix(.1 0 0 -.1 0 275)"/></g><g clip-path="url(#x)"><path style="fill:none;stroke-width:12.5;stroke-linecap:round;stroke-linejoin:miter;stroke:red;stroke-opacity:1;stroke-miterlimit:10" d="m-3.633-131.602-373.71 478.243" transform="matrix(.1 0 0 -.1 0 275)"/></g><g clip-path="url(#y)"><path style="fill:none;stroke-width:12.5;stroke-linecap:round;stroke-linejoin:miter;stroke:red;stroke-opacity:1;stroke-miterlimit:10" d="m1835.664 1375.742-.156-2.226-.469-2.344-.898-2.383-1.29-2.305-1.718-2.07-2.188-1.64-2.617-1.094-3.008-.313-3.28.664-3.438 1.758-3.516 3.086-3.32 4.492-2.93 5.938-2.344 7.382-1.406 8.79-.274 10 1.172 10.898 2.852 11.445 4.766 11.446 6.875 10.78 8.984 9.454 11.172 7.305 13.125 4.18 14.804.234 16.133-4.61 16.758-10.312 16.64-16.719 15.587-23.555 13.437-30.664 10.04-37.617 5.39-44.101-.586-49.493-7.93-53.437-16.406-55.274-25.82-54.453-35.977-50.468-46.328-42.852-56.484-31.094-65.704-15.117-73.398 5.235-78.71 29.882-80.9 58.32-79.1 89.766-72.5 123.282-60.509 157.421-42.5 190.47-18.125 220.234 12.578 244.57 49.454 260.742 91.68 266.133 138.32 258.047 187.539 233.984" transform="matrix(.1 0 0 -.1 0 275)"/></g><g clip-path="url(#z)"><path style="fill:none;stroke-width:12.5;stroke-linecap:round;stroke-linejoin:miter;stroke:red;stroke-opacity:1;stroke-miterlimit:10" d="m3663.633 2891.602 373.71-478.204" transform="matrix(.1 0 0 -.1 0 275)"/></g><g clip-path="url(#A)"><path style="fill:none;stroke-width:12.5;stroke-linecap:round;stroke-linejoin:miter;stroke:red;stroke-opacity:1;stroke-miterlimit:10" d="m1835.664 1384.258 1.094-1.524.976-1.992.743-2.5.43-2.93.077-3.32-.43-3.633-.976-3.75-1.64-3.789-2.305-3.554-3.047-3.086-3.711-2.344-4.414-1.29h-4.922l-5.351 1.68-5.547 3.555-5.47 5.664-5.116 7.97-4.375 10.273-3.243 12.617-1.64 14.687.351 16.485 2.813 17.734 5.625 18.281 8.789 17.93 12.11 16.562 15.546 13.907 18.907 9.96 21.914 4.57 24.414-2.265 26.132-10.508 26.72-20 26.054-30.43 23.75-41.562 19.61-52.812 13.554-63.711 5.351-73.438-4.96-81.289-17.305-86.445-31.367-87.93-46.836-84.922-63.164-76.523-79.61-62.11-95.351-41.015-109.258-13.047-120.274 21.836-127.07 63.281-128.36 110.39-122.85 161.837-109.415 215.781-86.914 269.727-54.648 320.78-12.227 365.47 40.235 399.843 102.07 419.844" transform="matrix(.1 0 0 -.1 0 275)"/></g></svg>