<svg xmlns="http://www.w3.org/2000/svg" xmlns:xlink="http://www.w3.org/1999/xlink" width="488" height="275pt" viewBox="0 0 366 275"><defs><clipPath id="a"><path d="M182 9.5h2v255h-2zm0 0"/></clipPath><clipPath id="b"><path d="M13 136h340v2H13zm0 0"/></clipPath><clipPath id="c"><path d="M13 9.5h1v255h-1zm0 0"/></clipPath><clipPath id="d"><path d="M69 9.5h1v255h-1zm0 0"/></clipPath><clipPath id="e"><path d="M126 9.5h1v255h-1zm0 0"/></clipPath><clipPath id="f"><path d="M182 9.5h2v255h-2zm0 0"/></clipPath><clipPath id="g"><path d="M239 9.5h1v255h-1zm0 0"/></clipPath><clipPath id="h"><path d="M296 9.5h1v255h-1zm0 0"/></clipPath><clipPath id="i"><path d="M352 9.5h1v255h-1zm0 0"/></clipPath><clipPath id="j"><path d="M13 264h340v.5H13zm0 0"/></clipPath><clipPath id="k"><path d="M13 221h340v2H13zm0 0"/></clipPath><clipPath id="l"><path d="M13 179h340v1H13zm0 0"/></clipPath><clipPath id="m"><path d="M13 136h340v2H13zm0 0"/></clipPath><clipPath id="n"><path d="M13 94h340v1H13zm0 0"/></clipPath><clipPath id="o"><path d="M13 51h340v2H13zm0 0"/></clipPath><clipPath id="p"><path d="M13 9.5h340v.5H13zm0 0"/></clipPath><clipPath id="v"><path d="M87 9.5h192v255H87zm0 0"/></clipPath><symbol overflow="visible" id="q"><path style="stroke:none" d="M2.125-2.344H.344v.547h1.781zm0 0"/></symbol><symbol overflow="visible" id="r"><path style="stroke:none" d="M1.656-2.438h.36c.734 0 1.109.329 1.109.954 0 .671-.422 1.078-1.11 1.078-.718 0-1.078-.36-1.109-1.14H.234c.032.421.11.702.235.952.281.5.797.766 1.531.766 1.094 0 1.797-.656 1.797-1.656 0-.672-.266-1.047-.906-1.266.5-.203.75-.578.75-1.11 0-.906-.61-1.453-1.625-1.453-1.079 0-1.641.579-1.657 1.72h.657c0-.329.03-.516.109-.673.156-.296.484-.468.906-.468.578 0 .938.343.938.906 0 .375-.14.594-.438.719-.172.078-.406.109-.875.109zm0 0"/></symbol><symbol overflow="visible" id="s"><path style="stroke:none" d="M3.797-.656H1c.063-.438.313-.703.953-1.094l.75-.406c.75-.406 1.125-.953 1.125-1.594 0-.453-.172-.86-.484-1.14-.328-.298-.719-.423-1.219-.423-.672 0-1.172.235-1.469.688-.187.281-.265.61-.281 1.156h.656c.032-.36.078-.578.157-.75.171-.328.515-.515.921-.515.594 0 1.047.421 1.047.984 0 .422-.25.781-.719 1.063l-.687.39C.64-1.672.312-1.172.25 0h3.547zm0 0"/></symbol><symbol overflow="visible" id="t"><path style="stroke:none" d="M1.938-3.781V0h.671v-5.313h-.437c-.235.813-.39.922-1.406 1.047v.485zm0 0"/></symbol><symbol overflow="visible" id="u"><path style="stroke:none" d="M2.063-5.313c-.5 0-.938.22-1.22.579C.5-4.266.329-3.563.329-2.578c0 1.797.594 2.75 1.734 2.75 1.126 0 1.735-.953 1.735-2.703 0-1.031-.156-1.719-.516-2.203-.281-.375-.719-.579-1.219-.579zm0 .579c.718 0 1.062.718 1.062 2.14 0 1.516-.344 2.219-1.078 2.219C1.344-.375 1-1.109 1-2.563c0-1.453.344-2.171 1.063-2.171zm0 0"/></symbol></defs><g clip-path="url(#a)"><path style="fill:none;stroke-width:6.25;stroke-linecap:round;stroke-linejoin:miter;stroke:#bfbfbf;stroke-opacity:1;stroke-miterlimit:10" d="M1830 105v2550" transform="matrix(.1 0 0 -.1 0 275)"/></g><g clip-path="url(#b)"><path style="fill:none;stroke-width:6.25;stroke-linecap:round;stroke-linejoin:miter;stroke:#bfbfbf;stroke-opacity:1;stroke-miterlimit:10" d="M130 1380h3400" transform="matrix(.1 0 0 -.1 0 275)"/></g><g clip-path="url(#c)"><path style="fill:none;stroke-width:6.25;stroke-linecap:round;stroke-linejoin:miter;stroke:#bfbfbf;stroke-opacity:1;stroke-dasharray:12.5,18.75;stroke-miterlimit:10" d="M130 105v2550" transform="matrix(.1 0 0 -.1 0 275)"/></g><g clip-path="url(#d)"><path style="fill:none;stroke-width:6.25;stroke-linecap:round;stroke-linejoin:miter;stroke:#bfbfbf;stroke-opacity:1;stroke-dasharray:12.5,18.75;stroke-miterlimit:10" d="M696.68 105v2550" transform="matrix(.1 0 0 -.1 0 275)"/></g><g clip-path="url(#e)"><path style="fill:none;stroke-width:6.25;stroke-linecap:round;stroke-linejoin:miter;stroke:#bfbfbf;stroke-opacity:1;stroke-dasharray:12.5,18.75;stroke-miterlimit:10" d="M1263.32 105v2550" transform="matrix(.1 0 0 -.1 0 275)"/></g><g clip-path="url(#f)"><path style="fill:none;stroke-width:6.25;stroke-linecap:round;stroke-linejoin:miter;stroke:#bfbfbf;stroke-opacity:1;stroke-dasharray:12.5,18.75;stroke-miterlimit:10" d="M1830 105v2550" transform="matrix(.1 0 0 -.1 0 275)"/></g><g clip-path="url(#g)"><path style="fill:none;stroke-width:6.25;stroke-linecap:round;stroke-linejoin:miter;stroke:#bfbfbf;stroke-opacity:1;stroke-dasharray:12.5,18.75;stroke-miterlimit:10" d="M2396.68 105v2550" transform="matrix(.1 0 0 -.1 0 275)"/></g><g clip-path="url(#h)"><path style="fill:none;stroke-width:6.25;stroke-linecap:round;stroke-linejoin:miter;stroke:#bfbfbf;stroke-opacity:1;stroke-dasharray:12.5,18.75;stroke-miterlimit:10" d="M2963.32 105v2550" transform="matrix(.1 0 0 -.1 0 275)"/></g><g clip-path="url(#i)"><path style="fill:none;stroke-width:6.25;stroke-linecap:round;stroke-linejoin:miter;stroke:#bfbfbf;stroke-opacity:1;stroke-dasharray:12.5,18.75;stroke-miterlimit:10" d="M3530 105v2550" transform="matrix(.1 0 0 -.1 0 275)"/></g><g clip-path="url(#j)"><path style="fill:none;stroke-width:6.25;stroke-linecap:round;stroke-linejoin:miter;stroke:#bfbfbf;stroke-opacity:1;stroke-dasharray:12.5,18.75;stroke-miterlimit:10" d="M130 105h3400" transform="matrix(.1 0 0 -.1 0 275)"/></g><g clip-path="url(#k)"><path style="fill:none;stroke-width:6.25;stroke-linecap:round;stroke-linejoin:miter;stroke:#bfbfbf;stroke-opacity:1;stroke-dasharray:12.5,18.75;stroke-miterlimit:10" d="M130 530h3400" transform="matrix(.1 0 0 -.1 0 275)"/></g><g clip-path="url(#l)"><path style="fill:none;stroke-width:6.25;stroke-linecap:round;stroke-linejoin:miter;stroke:#bfbfbf;stroke-opacity:1;stroke-dasharray:12.5,18.75;stroke-miterlimit:10" d="M130 955h3400" transform="matrix(.1 0 0 -.1 0 275)"/></g><g clip-path="url(#m)"><path style="fill:none;stroke-width:6.25;stroke-linecap:round;stroke-linejoin:miter;stroke:#bfbfbf;stroke-opacity:1;stroke-dasharray:12.5,18.75;stroke-miterlimit:10" d="M130 1380h3400" transform="matrix(.1 0 0 -.1 0 275)"/></g><g clip-path="url(#n)"><path style="fill:none;stroke-width:6.25;stroke-linecap:round;stroke-linejoin:miter;stroke:#bfbfbf;stroke-opacity:1;stroke-dasharray:12.5,18.75;stroke-miterlimit:10" d="M130 1805h3400" transform="matrix(.1 0 0 -.1 0 275)"/></g><g clip-path="url(#o)"><path style="fill:none;stroke-width:6.25;stroke-linecap:round;stroke-linejoin:miter;stroke:#bfbfbf;stroke-opacity:1;stroke-dasharray:12.5,18.75;stroke-miterlimit:10" d="M130 2230h3400" transform="matrix(.1 0 0 -.1 0 275)"/></g><g clip-path="url(#p)"><path style="fill:none;stroke-width:6.25;stroke-linecap:round;stroke-linejoin:miter;stroke:#bfbfbf;stroke-opacity:1;stroke-dasharray:12.5,18.75;stroke-miterlimit:10" d="M130 2655h3400" transform="matrix(.1 0 0 -.1 0 275)"/></g><path style="fill:none;stroke-width:12.5;stroke-linecap:square;stroke-linejoin:miter;stroke:#000;stroke-opacity:1;stroke-miterlimit:10" d="M130 105h3400" transform="matrix(.1 0 0 -.1 0 275)"/><path style="fill:none;stroke-width:6.25;stroke-linecap:butt;stroke-linejoin:miter;stroke:#000;stroke-opacity:1;stroke-miterlimit:10" d="M130 105v50m56.68-50v25m56.64-25v25M300 105v25m56.68-25v25m56.64-25v25M470 105v25m56.68-25v25m56.64-25v25M640 105v25m56.68-25v50m56.64-50v25M810 105v25m56.68-25v25m56.64-25v25M980 105v25m56.68-25v25m56.64-25v25m56.68-25v25m56.68-25v25m56.64-25v50m56.68-50v25m56.68-25v25m56.64-25v25m56.68-25v25m56.68-25v25m56.64-25v25m56.68-25v25m56.68-25v25m56.64-25v25m56.68-25v50m56.68-50v25m56.64-25v25m56.68-25v25m56.68-25v25m56.64-25v25m56.68-25v25m56.68-25v25m56.64-25v25m56.68-25v25m56.68-25v50m56.64-50v25m56.68-25v25m56.68-25v25m56.64-25v25m56.68-25v25m56.68-25v25m56.64-25v25m56.68-25v25m56.68-25v25m56.64-25v50m56.68-50v25m56.68-25v25m56.64-25v25m56.68-25v25m56.68-25v25m56.64-25v25m56.68-25v25m56.68-25v25m56.64-25v25m56.68-25v50" transform="matrix(.1 0 0 -.1 0 275)"/><g style="fill:#000;fill-opacity:1"><use xlink:href="#q" x="9.042" y="274.5"/><use xlink:href="#r" x="11.539" y="274.5"/></g><g style="fill:#000;fill-opacity:1"><use xlink:href="#q" x="65.917" y="274.5"/><use xlink:href="#s" x="68.414" y="274.5"/></g><g style="fill:#000;fill-opacity:1"><use xlink:href="#q" x="122.792" y="274.5"/><use xlink:href="#t" x="125.289" y="274.5"/></g><use xlink:href="#u" x="180.915" y="274.5" style="fill:#000;fill-opacity:1"/><use xlink:href="#t" x="237.165" y="274.5" style="fill:#000;fill-opacity:1"/><use xlink:href="#s" x="294.04" y="274.5" style="fill:#000;fill-opacity:1"/><use xlink:href="#r" x="350.915" y="274.5" style="fill:#000;fill-opacity:1"/><path style="fill:none;stroke-width:12.5;stroke-linecap:square;stroke-linejoin:miter;stroke:#000;stroke-opacity:1;stroke-miterlimit:10" d="M130 2655h3400" transform="matrix(.1 0 0 -.1 0 275)"/><path style="fill:none;stroke-width:6.25;stroke-linecap:butt;stroke-linejoin:miter;stroke:#000;stroke-opacity:1;stroke-miterlimit:10" d="M130 2655v-50m56.68 50v-25m56.64 25v-25m56.68 25v-25m56.68 25v-25m56.64 25v-25m56.68 25v-25m56.68 25v-25m56.64 25v-25m56.68 25v-25m56.68 25v-50m56.64 50v-25m56.68 25v-25m56.68 25v-25m56.64 25v-25m56.68 25v-25m56.68 25v-25m56.64 25v-25m56.68 25v-25m56.68 25v-25m56.64 25v-50m56.68 50v-25m56.68 25v-25m56.64 25v-25m56.68 25v-25m56.68 25v-25m56.64 25v-25m56.68 25v-25m56.68 25v-25m56.64 25v-25m56.68 25v-50m56.68 50v-25m56.64 25v-25m56.68 25v-25m56.68 25v-25m56.64 25v-25m56.68 25v-25m56.68 25v-25m56.64 25v-25m56.68 25v-25m56.68 25v-50m56.64 50v-25m56.68 25v-25m56.68 25v-25m56.64 25v-25m56.68 25v-25m56.68 25v-25m56.64 25v-25m56.68 25v-25m56.68 25v-25m56.64 25v-50m56.68 50v-25m56.68 25v-25m56.64 25v-25m56.68 25v-25m56.68 25v-25m56.64 25v-25m56.68 25v-25m56.68 25v-25m56.64 25v-25m56.68 25v-50" transform="matrix(.1 0 0 -.1 0 275)"/><g style="fill:#000;fill-opacity:1"><use xlink:href="#q" x="9.042" y="6.375"/><use xlink:href="#r" x="11.539" y="6.375"/></g><g style="fill:#000;fill-opacity:1"><use xlink:href="#q" x="65.917" y="6.375"/><use xlink:href="#s" x="68.414" y="6.375"/></g><g style="fill:#000;fill-opacity:1"><use xlink:href="#q" x="122.792" y="6.375"/><use xlink:href="#t" x="125.289" y="6.375"/></g><use xlink:href="#u" x="180.915" y="6.375" style="fill:#000;fill-opacity:1"/><use xlink:href="#t" x="237.165" y="6.375" style="fill:#000;fill-opacity:1"/><use xlink:href="#s" x="294.04" y="6.375" style="fill:#000;fill-opacity:1"/><use xlink:href="#r" x="350.915" y="6.375" style="fill:#000;fill-opacity:1"/><path style="fill:none;stroke-width:12.5;stroke-linecap:square;stroke-linejoin:miter;stroke:#000;stroke-opacity:1;stroke-miterlimit:10" d="M130 105v2550" transform="matrix(.1 0 0 -.1 0 275)"/><path style="fill:none;stroke-width:6.25;stroke-linecap:butt;stroke-linejoin:miter;stroke:#000;stroke-opacity:1;stroke-miterlimit:10" d="M130 105h50m-50 42.5h25M130 190h25m-25 42.5h25M130 275h25m-25 42.5h25M130 360h25m-25 42.5h25M130 445h25m-25 42.5h25M130 530h50m-50 42.5h25M130 615h25m-25 42.5h25M130 700h25m-25 42.5h25M130 785h25m-25 42.5h25M130 870h25m-25 42.5h25M130 955h50m-50 42.5h25m-25 42.5h25m-25 42.5h25m-25 42.5h25m-25 42.5h25m-25 42.5h25m-25 42.5h25m-25 42.5h25m-25 42.5h25m-25 42.5h50m-50 42.5h25m-25 42.5h25m-25 42.5h25m-25 42.5h25m-25 42.5h25m-25 42.5h25m-25 42.5h25m-25 42.5h25m-25 42.5h25m-25 42.5h50m-50 42.5h25m-25 42.5h25m-25 42.5h25m-25 42.5h25m-25 42.5h25m-25 42.5h25m-25 42.5h25m-25 42.5h25m-25 42.5h25m-25 42.5h50m-50 42.5h25m-25 42.5h25m-25 42.5h25m-25 42.5h25m-25 42.5h25m-25 42.5h25m-25 42.5h25m-25 42.5h25m-25 42.5h25m-25 42.5h50" transform="matrix(.1 0 0 -.1 0 275)"/><g style="fill:#000;fill-opacity:1"><use xlink:href="#q" x="-.542" y="268.25"/><use xlink:href="#r" x="1.956" y="268.25"/></g><g style="fill:#000;fill-opacity:1"><use xlink:href="#q" x="-.542" y="225.125"/><use xlink:href="#s" x="1.956" y="225.125"/></g><g style="fill:#000;fill-opacity:1"><use xlink:href="#q" x="-.542" y="183.25"/><use xlink:href="#t" x="1.956" y="183.25"/></g><use xlink:href="#u" x="1.955" y="140.125" style="fill:#000;fill-opacity:1"/><use xlink:href="#t" x="1.955" y="98.25" style="fill:#000;fill-opacity:1"/><use xlink:href="#s" x="1.955" y="55.125" style="fill:#000;fill-opacity:1"/><use xlink:href="#r" x="1.955" y="12.625" style="fill:#000;fill-opacity:1"/><path style="fill:none;stroke-width:12.5;stroke-linecap:square;stroke-linejoin:miter;stroke:#000;stroke-opacity:1;stroke-miterlimit:10" d="M3530 105v2550" transform="matrix(.1 0 0 -.1 0 275)"/><path style="fill:none;stroke-width:6.25;stroke-linecap:butt;stroke-linejoin:miter;stroke:#000;stroke-opacity:1;stroke-miterlimit:10" d="M3530 105h-50m50 42.5h-25m25 42.5h-25m25 42.5h-25m25 42.5h-25m25 42.5h-25m25 42.5h-25m25 42.5h-25m25 42.5h-25m25 42.5h-25m25 42.5h-50m50 42.5h-25m25 42.5h-25m25 42.5h-25m25 42.5h-25m25 42.5h-25m25 42.5h-25m25 42.5h-25m25 42.5h-25m25 42.5h-25m25 42.5h-50m50 42.5h-25m25 42.5h-25m25 42.5h-25m25 42.5h-25m25 42.5h-25m25 42.5h-25m25 42.5h-25m25 42.5h-25m25 42.5h-25m25 42.5h-50m50 42.5h-25m25 42.5h-25m25 42.5h-25m25 42.5h-25m25 42.5h-25m25 42.5h-25m25 42.5h-25m25 42.5h-25m25 42.5h-25m25 42.5h-50m50 42.5h-25m25 42.5h-25m25 42.5h-25m25 42.5h-25m25 42.5h-25m25 42.5h-25m25 42.5h-25m25 42.5h-25m25 42.5h-25m25 42.5h-50m50 42.5h-25m25 42.5h-25m25 42.5h-25m25 42.5h-25m25 42.5h-25m25 42.5h-25m25 42.5h-25m25 42.5h-25m25 42.5h-25m25 42.5h-50" transform="matrix(.1 0 0 -.1 0 275)"/><g style="fill:#000;fill-opacity:1"><use xlink:href="#q" x="359.25" y="268.25"/><use xlink:href="#r" x="361.748" y="268.25"/></g><g style="fill:#000;fill-opacity:1"><use xlink:href="#q" x="359.25" y="225.125"/><use xlink:href="#s" x="361.748" y="225.125"/></g><g style="fill:#000;fill-opacity:1"><use xlink:href="#q" x="359.25" y="183.25"/><use xlink:href="#t" x="361.748" y="183.25"/></g><use xlink:href="#u" x="359.25" y="140.125" style="fill:#000;fill-opacity:1"/><use xlink:href="#t" x="359.25" y="98.25" style="fill:#000;fill-opacity:1"/><use xlink:href="#s" x="359.25" y="55.125" style="fill:#000;fill-opacity:1"/><use xlink:href="#r" x="359.25" y="12.625" style="fill:#000;fill-opacity:1"/><path style="fill:none;stroke-width:6.25;stroke-linecap:round;stroke-linejoin:miter;stroke:#00f;stroke-opacity:1;stroke-miterlimit:10" d="m234.14 111.29-38.28 114.92m29.648-29.647-29.649 29.648-5.937-41.524m42.226 54.103-34.296 114.92m28.711-30.585-28.711 30.586-7.227-41.29m39.492 53.869-30.234 114.92m27.657-31.483-27.657 31.484-8.594-41.055m36.797 53.634-26.172 114.92m26.602-32.382-26.602 32.383-9.96-40.742m34.14 53.321-22.188 114.92m25.508-33.28-25.508 33.28-11.289-40.39m31.446 52.97-18.125 114.92m24.375-34.1-24.375 34.1-12.696-39.96m28.828 52.54-14.14 114.92m23.203-34.92-23.203 34.92-14.024-39.491m26.134 52.071-10.08 114.92m21.954-35.702-21.953 35.703-15.39-38.984m23.437 51.563-6.016 114.92m20.664-36.444-20.664 36.445-16.758-38.438m20.782 51.017-2.032 114.92m19.414-37.187-19.414 37.188-18.086-37.813m18.086 50.392 2.032 114.92m18.086-37.812-18.086 37.813-19.414-37.188m15.39 49.767 6.016 114.92m16.758-38.437-16.758 38.438-20.664-36.445m12.616 49.024 10.08 114.92m15.39-38.983-15.39 38.984-21.954-35.703m9.844 48.282 14.14 114.92m14.024-39.491-14.024 39.492-23.203-34.922m7.071 47.501 18.125 114.92m12.695-39.96-12.696 39.96-24.375-34.1m4.219 46.68 22.188 114.92m11.289-40.39-11.29 40.39-25.507-33.28m1.328 45.86 26.172 114.92m9.961-40.741-9.961 40.742-26.602-32.383m-1.601 44.962 30.234 114.92m8.593-41.054-8.593 41.055-27.695-31.484m-4.57 44.063 34.296 114.92m7.227-41.288-7.227 41.289-28.71-30.586m-7.578 43.165 38.28 114.92m5.938-41.522-5.937 41.523-29.649-29.648M404.14 117.344l-38.28 102.812m30.663-28.593-30.664 28.593-4.492-41.68m40.781 66.368-34.296 102.812m29.648-29.648-29.648 29.648-5.899-41.523m38.164 66.211-30.234 102.812m28.555-30.664-28.555 30.664-7.422-41.25m35.625 65.938-26.172 102.812m27.422-31.718-27.422 31.718-8.945-40.976m33.125 65.664-22.188 102.812m26.25-32.696-26.25 32.696-10.43-40.625m30.587 65.313-18.125 102.812m24.96-33.672-24.96 33.672-11.954-40.195m28.086 64.883-14.14 102.812m23.672-34.609-23.672 34.61-13.477-39.688m25.587 64.375-10.08 102.812m22.306-35.508-22.305 35.508-15-39.14m23.047 63.828-6.016 102.812m20.898-36.328-20.898 36.328-16.523-38.554m20.547 63.242-2.032 102.812m19.493-37.109-19.493 37.11-18.007-37.852m18.007 62.539 2.032 102.812m18.007-37.851-18.007 37.851-19.493-37.11m15.469 61.798 6.016 102.812m16.523-38.554-16.523 38.554-20.899-36.328m12.851 61.016 10.08 102.812m15-39.14-15 39.14-22.306-35.508m10.196 60.196 14.14 102.812m13.477-39.687-13.477 39.687-23.672-34.61m7.54 59.298 18.125 102.812m11.953-40.196-11.954 40.196-24.96-33.672m4.804 58.36 22.188 102.812m10.429-40.625-10.43 40.625-26.25-32.695m2.071 57.383 26.172 102.812m8.906-40.976-8.906 40.976-27.422-31.718m-.781 56.406 30.234 102.812m7.423-41.25-7.423 41.25-28.555-30.703m-3.71 55.391 34.296 102.812m5.899-41.523-5.899 41.523-29.648-29.648m-6.64 54.336 38.28 102.812m4.493-41.679-4.492 41.68-30.664-28.595M574.14 123.398l-38.28 90.704m31.835-27.227-31.836 27.227-2.695-41.836m38.984 78.632-34.296 90.704m30.781-28.438-30.781 28.438-4.297-41.72m36.562 78.516-30.234 90.704m29.648-29.649-29.648 29.649-5.938-41.485m34.141 78.281-26.211 90.704m28.438-30.821-28.438 30.82-7.578-41.21m31.797 78.007-22.188 90.704m27.11-31.954-27.11 31.954-9.297-40.86m29.454 77.656-18.125 90.704m25.742-33.086-25.742 33.086-11.055-40.43m27.187 77.226-14.14 90.704m24.297-34.18-24.297 34.18-12.735-39.922m24.845 76.718-10.08 90.704m22.774-35.196-22.773 35.196-14.492-39.336m22.539 76.132-6.016 90.704m21.172-36.172-21.172 36.172-16.21-38.633m20.234 75.429-2.032 90.704m19.571-37.071-19.57 37.07-17.891-37.89m17.89 74.687 2.032 90.704m17.89-37.892-17.89 37.892-19.57-37.07m15.546 73.866 6.016 90.704m16.211-38.633-16.211 38.633-21.211-36.172m13.163 72.968 10.08 90.704m14.491-39.336-14.492 39.336-22.773-35.196m10.664 71.992 14.14 90.704m12.735-39.922-12.735 39.922-24.297-34.18m8.165 70.976 18.125 90.704m11.054-40.43-11.054 40.43-25.743-33.086m5.586 69.882 22.188 90.704m9.296-40.86-9.296 40.86-27.11-31.954m2.891 68.75 26.21 90.704m7.618-41.212-7.617 41.212-28.399-30.82m.196 67.616 30.234 90.704m5.938-41.485-5.938 41.485-29.648-29.649m-2.617 66.445 34.296 90.704m4.258-41.68-4.258 41.68-30.82-28.438m-5.468 65.234 38.28 90.704m2.696-41.836-2.695 41.836-31.836-27.227M744.14 129.453l-38.28 78.594m33.28-25.469-33.28 25.469-.43-41.914m36.718 90.82-34.296 78.594m32.188-26.875-32.188 26.875-2.188-41.836m34.453 90.742-30.234 78.594m30.977-28.242-30.977 28.242-4.024-41.719m32.227 90.625-26.211 78.594m29.688-29.649-29.688 29.649-5.898-41.485m30.117 90.391-22.188 78.594m28.242-30.977-28.242 30.977-7.851-41.172m28.008 90.078-18.125 78.594m26.679-32.305-26.68 32.305-9.843-40.742m25.976 89.648-14.14 78.594m25.078-33.594-25.078 33.594-11.836-40.195m23.946 89.101-10.08 78.633m23.36-34.844-23.36 34.844-13.827-39.61m21.875 88.477-6.016 78.633m21.563-35.976-21.563 35.976-15.86-38.867m19.884 87.734-2.032 78.594m19.726-36.992-19.726 36.992-17.773-37.969m17.773 86.875 2.032 78.633m17.774-38.008-17.774 38.008-19.727-37.031m15.703 85.898 6.016 78.594m15.82-38.828-15.82 38.828-21.563-35.938m13.515 84.844 10.08 78.594m13.827-39.57-13.828 39.57-23.36-34.805m11.251 83.711 14.14 78.633m11.836-40.234-11.836 40.234-25.078-33.633m8.946 82.5 18.125 78.594m9.843-40.742-9.843 40.742-26.68-32.305m6.523 81.211 22.188 78.594m7.851-41.172-7.851 41.172-28.242-30.977m4.023 79.883 26.21 78.594m5.938-41.484-5.937 41.484-29.649-29.649m1.446 78.555 30.234 78.594m4.023-41.719-4.023 41.719-30.976-28.242m-1.289 77.148 34.296 78.594m2.188-41.837-2.188 41.837-32.187-26.875m-4.101 75.781 38.28 78.594m.43-41.914-.43 41.914-33.28-25.469M914.14 135.469l-38.28 66.562m34.96-23.164-34.96 23.164 2.46-41.875m33.828 102.813-34.296 66.562m33.867-24.765-33.867 24.765.507-41.953m31.758 102.891-30.234 66.562m32.577-26.406-32.577 26.406-1.563-41.914m29.766 102.852-26.211 66.562m31.211-28.047-31.211 28.047-3.672-41.758m27.891 102.696-22.188 66.562m29.649-29.648-29.649 29.648-5.937-41.523m26.094 102.461-18.125 66.562m27.968-31.25-27.968 31.25-8.243-41.133m24.375 102.071-14.14 66.562m26.133-32.812L887.93 967.03l-10.547-40.586m22.657 101.564-10.08 66.523m24.142-34.297-24.141 34.297-12.93-39.883m20.977 100.86-6.016 66.523m22.071-35.664-22.07 35.664-15.313-39.062m19.336 100.039-2.032 66.523m19.883-36.914-19.883 36.914-17.578-38.086m17.578 99.063 2.032 66.523m17.578-38.086-17.578 38.086-19.883-36.914m15.859 97.891 6.016 66.523m15.273-39.062-15.273 39.062-22.07-35.664m14.022 96.641 10.08 66.523m12.929-39.883-12.93 39.883-24.14-34.297m12.031 95.274 14.14 66.523m10.547-40.586-10.547 40.586-26.133-32.812m10.001 93.789 18.125 66.523m8.242-41.133-8.242 41.133-27.97-31.25m7.813 92.227 22.188 66.523m5.937-41.523-5.937 41.523-29.649-29.648m5.43 90.625 26.21 66.523m3.712-41.797-3.711 41.797-31.172-28.047m2.969 89.024 30.234 66.523m1.563-41.914-1.563 41.914-32.578-26.406m.313 87.383 34.296 66.523m-.508-41.953.508 41.953-33.867-24.765m-2.421 85.742 38.28 66.523m-2.46-41.875 2.46 41.875-34.96-23.164m204.96-2459.844-38.28 54.454m36.913-19.883-36.914 19.883 6.25-41.485m30.039 114.531-34.296 54.454m35.858-21.758-35.858 21.758 4.101-41.72m28.164 114.766-30.234 54.454m34.609-23.672-34.61 23.672 1.837-41.914m26.406 114.96-26.25 54.454m33.165-25.664-33.165 25.664-.586-41.914m24.805 114.96-22.188 54.454m31.524-27.657-31.524 27.657-3.203-41.797m23.36 114.843-18.126 54.454m29.649-29.649-29.649 29.649-5.937-41.524m22.031 114.57-14.101 54.454m27.578-31.602-27.578 31.602-8.711-41.016m20.821 114.062-10.08 54.454m25.274-33.477-25.273 33.477-11.602-40.313m19.649 113.359-6.055 54.454m22.813-35.196-22.813 35.196-14.492-39.375m18.555 112.421-2.032 54.454m20.118-36.797-20.118 36.797-17.343-38.165m17.343 111.211 2.032 54.454m17.344-38.164-17.344 38.164-20.118-36.797m16.055 109.843 6.055 54.454m14.532-39.337-14.532 39.337-22.774-35.196m14.726 108.242 10.08 54.454m11.6-40.313-11.6 40.313-25.274-33.477m13.164 106.523 14.101 54.454m8.75-41.017-8.75 41.017-27.539-31.602m11.446 104.648 18.124 54.454m5.938-41.524-5.938 41.524-29.648-29.649m9.492 102.695 22.188 54.454m3.203-41.837-3.203 41.837-31.524-27.657m7.305 100.703 26.25 54.454m.585-41.914-.585 41.914-33.203-25.664m4.961 98.71 30.234 54.454m-1.836-41.914 1.836 41.914-34.61-23.672m2.345 96.718 34.296 54.454m-4.14-41.719 4.14 41.719-35.859-21.758m-.429 94.804 38.28 54.454m-6.25-41.485 6.25 41.485-36.913-19.883M1254.14 147.578l-38.28 42.344m39.062-15.234-39.063 15.234 11.25-40.39m25.039 125.546-34.296 42.344m38.164-17.344-38.164 17.344 9.023-40.938m23.242 126.094-30.234 42.344m37.031-19.609-37.031 19.609 6.523-41.406m21.719 126.562-26.25 42.344m35.703-22.032-35.703 22.032 3.828-41.758m20.391 126.914-22.188 42.344m34.024-24.532-34.024 24.532.782-41.914m19.375 127.07-18.126 42.344m31.993-27.07-31.993 27.07-2.46-41.875m18.554 127.031-14.101 42.344m29.648-29.649-29.648 29.649-5.938-41.524m18.048 126.68-10.08 42.344m26.915-32.149-26.914 32.149-9.57-40.82m17.617 125.976-6.055 42.344m23.907-34.453-23.907 34.453-13.242-39.766m17.305 124.922-2.032 42.344m20.508-36.562-20.508 36.562-16.953-38.36m16.953 123.516 2.032 42.344m16.953-38.359-16.953 38.359-20.508-36.563m16.445 121.719 6.055 42.344m13.282-39.766-13.282 39.766-23.867-34.453m15.819 119.609 10.08 42.344m9.57-40.82-9.57 40.82-26.915-32.149m14.805 117.305 14.101 42.344m5.938-41.524-5.938 41.524-29.61-29.649m13.517 114.805 18.124 42.344m2.461-41.836-2.46 41.836-31.993-27.07m11.836 112.226 22.188 42.344m-.821-41.914.82 41.914-34.023-24.531m9.805 109.687 26.25 42.344m-3.828-41.758 3.828 41.758-35.703-22.031m7.461 107.187 30.234 42.344m-6.523-41.406 6.523 41.406-37.031-19.61m4.766 104.766 34.296 42.344m-9.023-40.938 9.023 40.938-38.203-17.344m1.915 102.5 38.28 42.344m-11.25-40.391 11.25 40.39-39.062-15.233M1424.14 153.633l-38.28 30.234m41.054-8.515-41.055 8.515 17.813-37.93m18.476 135.196-34.296 30.234m40.546-10.742-40.546 10.742 15.703-38.867m16.562 136.133-30.234 30.234m39.765-13.242-39.765 13.242 13.242-39.765m15 137.031-26.25 30.234m38.75-16.054-38.75 16.054 10.43-40.625m13.789 137.891-22.188 30.234m37.304-19.14-37.304 19.14 7.07-41.328m13.087 138.594-18.126 30.234m35.353-22.5-35.352 22.5 3.203-41.797m12.89 139.063-14.101 30.234m32.851-26.054-32.851 26.054-1.133-41.914m13.243 139.18-10.08 30.234m29.65-29.648-29.65 29.648-5.937-41.523m13.985 138.789-6.055 30.234m25.742-33.086-25.742 33.086-11.015-40.43m15.078 137.696-2.032 30.234m21.211-36.172-21.21 36.172-16.212-38.672m16.211 135.938 2.032 30.234m16.211-38.672-16.211 38.672-21.211-36.172m17.148 133.438 6.055 30.234m11.055-40.429-11.055 40.43-25.742-33.087m17.694 130.352 10.08 30.234m5.937-41.523-5.938 41.523-29.648-29.648m17.539 126.914 14.101 30.234m1.133-41.914-1.133 41.914-32.812-26.054m16.719 123.32 18.124 30.234m-3.202-41.797 3.203 41.797-35.352-22.5m15.195 119.766 22.188 30.234m-7.071-41.327 7.07 41.327-37.304-19.14m13.086 116.406 26.25 30.234m-10.43-40.625 10.43 40.625-38.75-16.055m10.508 113.321 30.234 30.234m-13.242-39.765 13.242 39.765-39.765-13.242m7.5 110.508 34.296 30.234M1406.406 2440l15.742 38.867-40.546-10.742m4.258 108.008 38.28 30.234m-17.812-37.929 17.813 37.93-41.055-8.516M1594.14 159.688l-38.28 18.125m41.913.897-41.914-.898 25.86-32.968m10.429 142.344-34.296 18.125m41.914-.977-41.914.976 24.375-34.101m7.89 143.477-30.234 18.125m41.797-3.203-41.797 3.202 22.5-35.351m5.742 144.727-26.25 18.125m41.523-5.899-41.523 5.899 20.156-36.758m4.063 146.133-22.188 18.125m40.899-9.219-40.899 9.218 17.149-38.242m3.008 147.618-18.126 18.125m39.766-13.243-39.765 13.242 13.242-39.765m2.851 149.141-14.101 18.125m37.851-18.086-37.851 18.086 8.242-41.094m3.868 150.469-10.08 18.124m34.61-23.672-34.61 23.672 1.837-41.874m6.211 151.25-6.055 18.124m29.649-29.648-29.649 29.649-5.898-41.485m9.961 150.86-2.032 18.124m22.774-35.195-22.774 35.196-14.492-39.336m14.492 148.711 2.032 18.124m14.492-39.335-14.492 39.335-22.774-35.195m18.711 144.571 6.055 18.124m5.937-41.484-5.937 41.485-29.61-29.649m21.562 139.024 10.08 18.124m-1.837-41.874 1.836 41.874-34.61-23.671m22.501 133.047 14.101 18.124m-8.203-41.093 8.203 41.093-37.812-18.085m21.719 127.461 18.124 18.124m-13.242-39.765 13.243 39.765-39.766-13.242m19.609 122.618 22.188 18.124m-17.149-38.242 17.149 38.242-40.899-9.218m16.68 118.594 26.25 18.124m-20.195-36.757 20.195 36.758-41.523-5.938m13.281 115.313 30.234 18.124m-22.5-35.352 22.5 35.352-41.797-3.203m9.532 112.579 34.296 18.124m-24.375-34.102 24.375 34.102-41.953-.976m5.665 110.352 38.28 18.124m-25.859-33.007 25.86 33.008-41.914.898M1764.14 165.742l-38.28 6.016m39.96 12.695-39.96-12.695 34.1-24.336m2.188 145.82-34.296 6.016m40.195 11.952-40.195-11.952 33.671-24.961m-1.406 146.445-30.234 6.016m40.43 11.055-40.43-11.055 33.086-25.742m-4.844 147.226-26.25 6.016m40.781 9.844-40.781-9.844 32.344-26.68m-8.125 148.164-22.188 6.016M1775.04 690l-41.134-8.242 31.25-27.93m-11.093 149.414-18.126 6.016m41.485 5.937-41.485-5.937 29.649-29.61m-13.555 151.094-14.101 6.016m41.875 2.461-41.875-2.461 27.11-31.992m-15 153.476-10.08 6.055m41.798-3.242-41.797 3.242 22.5-35.39m-14.453 156.835-6.055 6.055m39.805-13.281-39.805 13.28 13.281-39.804m-9.218 161.25-2.032 6.055m29.649-29.687-29.649 29.687-5.937-41.524m5.937 162.969 2.032 6.055m5.937-41.524-5.937 41.524-29.649-29.649m25.586 151.094 6.055 6.055m-13.242-39.805 13.242 39.805-39.766-13.281m31.718 134.726 10.08 6.055m-22.5-35.391 22.5 35.39-41.798-3.241m29.688 124.687 14.101 6.055m-27.071-32.031 27.071 32.03-41.836 2.462m25.743 118.984 18.124 6.055m-29.648-29.687 29.649 29.687-41.485 5.898m21.328 115.547 22.188 6.055m-31.25-27.969 31.25 27.969-41.133 8.203m16.914 113.242 26.25 6.055m-32.344-26.719 32.344 26.719-40.781 9.805m12.539 111.64 30.234 6.055m-33.086-25.742 33.086 25.742-40.43 11.015m8.165 110.43 34.296 6.055m-33.671-25 33.671 25-40.195 11.914m3.907 109.531 38.28 6.055m-34.1-24.375 34.1 24.375-39.96 12.656m209.96-2435.195-38.28-6.016m34.1 24.336-34.1-24.336 39.96-12.695m-3.672 146.211-34.296-6.016m33.671 24.961-33.671-24.96 40.195-11.954m-7.93 145.469-30.234-6.016m33.086 25.742-33.086-25.742 40.43-11.055m-12.188 144.571-26.25-6.016m32.344 26.68-32.344-26.68 40.781-9.844m-16.562 143.36-22.188-6.016m31.25 27.93-31.25-27.93 41.133-8.242m-20.976 141.758-18.126-6.016m29.649 29.648-29.649-29.648 41.485-5.937m-25.391 139.453-14.101-6.016m27.11 31.992-27.11-31.992 41.875-2.46m-29.765 136.015-10.08-6.055m22.5 35.352-22.5-35.352 41.798 3.203m-33.75 130.352-6.055-6.055m13.281 39.766-13.28-39.766 39.804 13.242m-35.742 120.313-2.032-6.055m-5.937 41.485 5.937-41.485 29.649 29.649m-29.649 103.906 2.032-6.055m-29.649 29.648 29.649-29.648 5.898 41.485m-9.961 92.07 6.055-6.055m-39.766 13.242 39.766-13.242-13.242 39.766m5.194 93.789 10.08-6.055m-41.798 3.203 41.797-3.203-22.5 35.352m10.391 98.203 14.101-6.055m-41.836-2.461 41.836 2.461-27.07 31.992m10.977 101.563 18.124-6.055m-41.484-5.937 41.485 5.937-29.649 29.649m9.492 103.906 22.188-6.055M1884.96 2070l41.134 8.242-31.25 27.93m7.031 105.625 26.25-6.055m-40.781-9.844 40.781 9.844-32.344 26.68m4.102 106.875 30.234-6.055m-40.429-11.054 40.43 11.054-33.087 25.742m.821 107.813 34.296-6.055m-40.195-11.952 40.195 11.952-33.671 24.961m-2.617 108.594 38.28-6.055m-39.96-12.695 39.96 12.695-34.1 24.375m204.1-2434.804-38.28-18.125m25.859 33.007-25.86-33.007 41.914-.899m-5.625 146.524-34.296-18.125m24.375 34.102-24.375-34.103 41.914.977m-9.649 144.649-30.234-18.125m22.5 35.352-22.5-35.353 41.797 3.204m-13.555 142.422-26.25-18.125m20.156 36.757-20.156-36.758 41.523 5.938m-17.304 139.688-22.188-18.125m17.149 38.242-17.149-38.242 40.899 9.218m-20.742 136.407-18.126-18.125m13.243 39.765-13.242-39.765 39.765 13.242m-23.672 132.383-14.101-18.125m8.242 41.093-8.242-41.093 37.851 18.085m-25.741 127.54-10.08-18.126m1.837 41.876-1.836-41.876 34.61 23.672m-26.563 121.954-6.055-18.126m-5.898 41.485 5.898-41.485 29.649 29.649m-25.586 115.977-2.032-18.126m-14.492 39.336 14.492-39.335 22.774 35.195m-22.774 110.43 2.032-18.126m-22.774 35.196 22.774-35.196 14.492 39.336m-18.555 106.29 6.055-18.126m-29.61 29.649 29.61-29.649 5.937 41.485m-13.985 104.141 10.08-18.126m-34.61 23.673 34.61-23.672-1.837 41.874m-10.273 103.751 14.101-18.126m-37.812 18.086 37.812-18.085-8.203 41.093m-7.89 104.532 18.124-18.126m-39.765 13.243 39.765-13.243-13.242 39.766m-6.914 105.86 22.188-18.126m-40.899 9.219 40.899-9.218-17.149 38.242m-7.07 107.383 26.25-18.126m-41.523 5.938 41.523-5.938-20.195 36.758m-8.047 108.868 30.234-18.126m-41.797 3.203 41.797-3.202-22.5 35.351m-9.765 110.274 34.296-18.126m-41.953.977 41.953-.977-24.375 34.102m-11.913 111.524 38.28-18.126m-41.913-.897 41.914.898-25.86 33.007M2274.14 183.867l-38.28-30.234m17.812 37.93-17.813-37.93 41.055 8.515m-4.766 149.219-34.296-30.234M2253.555 320l-15.703-38.867 40.546 10.742m-8.281 146.992-30.234-30.234m13.242 39.765-13.242-39.765 39.765 13.242m-11.523 144.492-26.25-30.234m10.43 40.625-10.43-40.625 38.75 16.054m-14.531 141.68-22.188-30.234m7.071 41.327-7.07-41.327 37.304 19.14m-17.148 138.594-18.126-30.234m3.203 41.797-3.202-41.797 35.351 22.5m-19.258 135.234-14.101-30.234m-1.133 41.914 1.133-41.914 32.851 26.054m-20.741 131.68-10.08-30.234m-5.937 41.523 5.938-41.523 29.648 29.648m-21.601 128.086-6.055-30.234m-11.015 40.43 11.015-40.43 25.781 33.086m-21.718 124.648-2.032-30.234m-16.211 38.672 16.211-38.672 21.211 36.172m-21.211 121.562 2.032-30.234m-21.211 36.172 21.21-36.172 16.212 38.672m-20.274 119.062 6.055-30.234m-25.742 33.086 25.742-33.086 11.055 40.43m-19.103 117.304 10.08-30.234m-29.65 29.648 29.65-29.648 5.937 41.523m-18.047 116.211 14.101-30.234m-32.812 26.055 32.812-26.055 1.133 41.914m-17.226 115.82 18.124-30.234m-35.352 22.5 35.352-22.5-3.203 41.797m-16.953 115.937 22.188-30.234m-37.304 19.14 37.304-19.14-7.07 41.328m-17.149 116.406 26.25-30.234m-38.75 16.055 38.75-16.055-10.43 40.625m-17.812 117.109 30.234-30.234m-39.765 13.242 39.765-13.242-13.242 39.765m-19.023 117.969 34.296-30.234m-40.546 10.742 40.546-10.742-15.742 38.867m-20.546 118.867 38.28-30.234m-41.054 8.515 41.055-8.515-17.813 37.969m187.812-2424.18-38.28-42.344m11.25 40.391-11.25-40.39 39.062 15.233m-2.774 154.61-34.296-42.344m9.023 40.938-9.023-40.938 38.164 17.344m-5.899 152.5-30.234-42.344m6.523 41.406-6.523-41.406 37.031 19.61m-8.789 150.234-26.25-42.344m3.828 41.758-3.828-41.758 35.703 22.031m-11.484 147.813-22.188-42.344m.782 41.914-.782-41.914 34.024 24.531m-13.867 145.313-18.126-42.344m-2.46 41.875 2.46-41.875 31.993 27.07m-15.899 142.774-14.101-42.344m-5.938 41.524 5.938-41.524 29.648 29.649m-17.538 140.195-10.08-42.344m-9.57 40.82 9.57-40.82 26.915 32.149m-18.867 137.695-6.055-42.344m-13.243 39.766 13.243-39.766 23.906 34.492m-19.843 135.352-2.032-42.344m-16.953 38.36 16.953-38.36 20.508 36.563m-20.508 133.281 2.032-42.344m-20.508 36.562 20.508-36.562 16.953 38.36m-21.016 131.484 6.055-42.344m-23.868 34.492 23.868-34.492 13.281 39.766m-21.329 130.078 10.08-42.344m-26.915 32.149 26.914-32.149 9.57 40.82m-21.679 129.024 14.101-42.344m-29.609 29.649 29.61-29.649 5.937 41.524m-22.031 128.32 18.124-42.344m-31.992 27.07 31.992-27.07 2.461 41.875m-22.617 127.969 22.188-42.344m-34.024 24.532 34.024-24.532-.82 41.914m-23.399 127.93 26.25-42.344m-35.703 22.032 35.703-22.032-3.828 41.758m-24.414 128.086 30.234-42.344m-37.031 19.61 37.031-19.61-6.523 41.406m-25.742 128.438 34.296-42.344m-38.203 17.344 38.203-17.344-9.023 40.938m-27.265 128.906 38.28-42.344m-39.062 15.235 39.063-15.235-11.25 40.39M2614.14 195.977l-38.28-54.454m6.25 41.485-6.25-41.485 36.913 19.883m-.625 162.071-34.296-54.454m4.101 41.719-4.101-41.719 35.859 21.758m-3.594 160.196-30.234-54.454m1.836 41.915-1.836-41.915 34.61 23.711m-6.368 158.243-26.25-54.454m-.585 41.915.585-41.915 33.164 25.664m-8.945 156.29-22.188-54.454m-3.203 41.837 3.203-41.837 31.524 27.657m-11.367 154.297-18.126-54.454M2580 820.547l5.938-41.524 29.648 29.649m-13.555 152.305-14.101-54.454m-8.711 41.017 8.71-41.017 27.579 31.602m-15.468 150.352-10.08-54.454m-11.6 40.313 11.6-40.313 25.274 33.477m-17.226 148.477-6.055-54.454m-14.493 39.375 14.493-39.375 22.813 35.235m-18.75 146.719-2.032-54.454m-17.344 38.165 17.344-38.165 20.118 36.797m-20.118 145.157 2.032-54.454m-20.118 36.797 20.118-36.797 17.343 38.165m-21.406 143.789 6.055-54.454m-22.774 35.235 22.774-35.235 14.531 39.375m-22.579 142.579 10.08-54.454M2574.766 1705l25.273-33.477 11.602 40.313m-23.711 141.641 14.101-54.454m-27.539 31.602 27.54-31.602 8.75 41.016m-24.844 140.938 18.124-54.454m-29.648 29.649 29.648-29.649 5.938 41.524m-26.094 140.43 22.188-54.454m-31.524 27.657 31.524-27.657 3.203 41.836m-27.422 140.118 26.25-54.454m-33.203 25.665 33.203-25.665.586 41.954m-28.828 140 30.234-54.454m-34.609 23.672 34.61-23.672-1.837 41.914m-30.429 140.04 34.296-54.454m-35.858 21.758 35.858-21.758-4.14 41.72m-32.148 140.234 38.28-54.454m-36.913 19.883 36.914-19.883-6.25 41.485M2784.14 202.031l-38.28-66.562m2.46 41.875-2.46-41.875 34.921 23.164m1.367 170.898-34.296-66.562m.508 41.953-.508-41.953 33.867 24.765m-1.602 169.297-30.234-66.562m-1.563 41.914 1.563-41.914 32.578 26.406m-4.336 167.656-26.25-66.562m-3.672 41.797 3.672-41.797 31.21 28.047m-6.991 166.015-22.188-66.562m-5.937 41.523 5.937-41.523 29.649 29.648m-9.492 164.414-18.126-66.562m-8.242 41.133 8.242-41.133 27.97 31.25m-11.876 162.812-14.101-66.562m-10.547 40.586 10.547-40.586 26.133 32.812m-14.023 161.25-10.08-66.523m-12.929 39.882 12.93-39.882 24.14 34.258m-16.093 159.765-6.055-66.523m-15.234 39.023 15.234-39.023 22.07 35.625m-18.007 158.398-2.032-66.523m-17.578 38.047 17.578-38.047 19.883 36.875m-19.883 157.148 2.032-66.523m-19.883 36.875 19.883-36.875 17.578 38.047m-21.641 155.976 6.055-66.523m-22.07 35.625 22.07-35.625 15.273 39.023m-23.321 155 10.08-66.523m-24.142 34.258 24.141-34.258 12.93 39.883m-25.039 154.14 14.101-66.523m-26.093 32.773 26.093-32.773 10.586 40.547m-26.679 153.476 18.124-66.523m-27.968 31.211 27.968-31.211 8.243 41.094m-28.399 152.929 22.188-66.523m-29.649 29.609 29.649-29.61 5.937 41.485m-30.156 152.539 26.25-66.523m-31.211 28.008 31.211-28.008 3.672 41.758m-31.914 152.265 30.234-66.523m-32.577 26.367 32.577-26.367 1.563 41.875m-33.828 152.148 34.296-66.523m-33.867 24.726 33.867-24.726-.507 41.914m-35.781 152.109 38.28-66.523m-34.96 23.125 34.96-23.125-2.46 41.836m172.46-2391.797-38.28-78.594m-.43 41.914.43-41.914 33.28 25.469m3.008 180.625-34.296-78.594m-2.188 41.875 2.188-41.875 32.187 26.875m.078 179.219-30.234-78.594m-4.023 41.719 4.023-41.719 30.976 28.242m-2.734 177.852-26.25-78.594m-5.898 41.485 5.898-41.485 29.648 29.649m-5.429 176.445-22.188-78.594m-7.851 41.172 7.851-41.172 28.242 30.977m-8.085 175.117-18.126-78.594m-9.843 40.742 9.843-40.742 26.68 32.305m-10.586 173.789-14.101-78.594m-11.836 40.195 11.836-40.195 25.078 33.594m-12.968 172.539-10.08-78.633m-13.827 39.57 13.828-39.57 23.36 34.805m-15.313 171.328-6.055-78.633m-15.781 38.828 15.781-38.828 21.602 35.938m-17.539 170.156-2.032-78.594m-17.774 37.969 17.774-37.969 19.727 36.992m-19.727 169.141 2.032-78.633m-19.726 36.992 19.726-36.992 17.773 37.969m-21.836 168.125 6.055-78.594m-21.563 35.937 21.563-35.937 15.82 38.828m-23.868 167.266 10.08-78.594m-23.36 34.805 23.36-34.805 13.827 39.57m-25.937 166.563 14.101-78.633m-25.078 33.594 25.078-33.594 11.875 40.195m-27.968 165.899 18.124-78.594m-26.679 32.305 26.68-32.305 9.843 40.742m-30 165.352 22.188-78.594m-28.242 31.016 28.242-31.016 7.851 41.172m-32.07 164.922 26.25-78.594m-29.687 29.649 29.687-29.649 5.898 41.485m-34.14 164.609 30.234-78.594m-30.977 28.242 30.977-28.242 4.024 41.719m-36.289 164.375 34.296-78.594m-32.188 26.875 32.188-26.875 2.188 41.875m-38.476 164.219 38.28-78.594m-33.28 25.469 33.28-25.469.43 41.914m169.57-2379.765-38.28-90.704m-2.696 41.836 2.695-41.836 31.836 27.266m4.453 190.938-34.296-90.704m-4.297 41.719 4.297-41.719 30.78 28.438m1.485 189.766-30.234-90.704m-5.938 41.485 5.938-41.485 29.648 29.649m-1.406 188.555-26.25-90.704m-7.578 41.212 7.578-41.212 28.438 30.82m-4.219 187.384-22.188-90.704m-9.296 40.86 9.296-40.86 27.11 31.954m-6.953 186.25-18.126-90.704m-11.054 40.43 11.055-40.43 25.742 33.086m-9.649 185.118-14.101-90.704m-12.735 39.922 12.735-39.922 24.297 34.18m-12.187 184.024-10.08-90.704m-14.491 39.336 14.492-39.336 22.773 35.196m-14.726 183.008-6.055-90.704m-16.211 38.672 16.211-38.672 21.211 36.172m-17.148 182.032-2.032-90.704m-17.89 37.892 17.89-37.892 19.57 37.07m-19.57 181.134 2.032-90.704m-19.571 37.071 19.57-37.07 17.891 37.89m-21.953 180.313 6.055-90.704m-21.172 36.172 21.172-36.172 16.21 38.672m-24.258 179.532 10.08-90.704m-22.774 35.196 22.773-35.196 14.492 39.336m-26.601 178.868 14.101-90.704m-24.258 34.18 24.258-34.18 12.774 39.922m-28.867 178.282 18.124-90.704m-25.742 33.086 25.742-33.086 11.055 40.43m-31.211 177.774 22.188-90.704m-27.149 31.954 27.149-31.954 9.297 40.86m-33.516 177.344 26.25-90.704m-28.437 30.821 28.437-30.82 7.578 41.21m-35.82 176.993 30.234-90.704m-29.648 29.649 29.648-29.649 5.938 41.485m-38.203 176.719 34.296-90.704m-30.82 28.438 30.82-28.438 4.258 41.72m-40.546 176.484 38.28-90.704m-31.835 27.266 31.836-27.266 2.695 41.836M3294.14 220.156l-38.28-102.812m-4.493 41.679 4.492-41.68 30.664 28.594m5.625 201.719-34.296-102.812m-5.899 41.523 5.899-41.523 29.648 29.648m2.617 200.664-30.234-102.812m-7.423 41.25 7.423-41.25 28.555 30.703m-.313 199.609-26.25-102.812m-8.906 40.976 8.906-40.976 27.46 31.719m-3.241 198.593-22.188-102.812m-10.429 40.625 10.43-40.625 26.25 32.695m-6.094 197.617-18.126-102.812m-11.953 40.196 11.954-40.196 24.96 33.672m-8.867 196.64-14.101-102.812m-13.477 39.687 13.477-39.687 23.672 34.61m-11.562 195.702-10.08-102.812m-15 39.14 15-39.14 22.306 35.508m-14.258 194.804-6.055-102.812m-16.484 38.554 16.484-38.554 20.938 36.328m-16.875 193.984-2.032-102.812m-18.007 37.851 18.007-37.851 19.493 37.11m-19.493 193.202 2.032-102.812m-19.493 37.109 19.493-37.11 18.007 37.852m-22.07 192.461 6.055-102.812m-20.898 36.328 20.898-36.328 16.523 38.554m-24.571 191.758 10.08-102.812m-22.345 35.508 22.344-35.508 15 39.14m-27.109 191.172 14.101-102.812m-23.633 34.609 23.633-34.61 13.516 39.688m-29.609 190.625 18.124-102.812m-24.96 33.672 24.96-33.672 11.954 40.195m-32.11 190.117 22.188-102.812m-26.25 32.696 26.25-32.696 10.43 40.625m-34.649 189.687 26.25-102.812m-27.461 31.719 27.461-31.72 8.867 40.977m-37.109 189.336 30.234-102.812m-28.554 30.703 28.554-30.703 7.422 41.25m-39.687 189.062 34.296-102.812m-29.688 29.648 29.688-29.648 5.899 41.523m-42.187 188.789 38.28-102.812m-30.663 28.594 30.664-28.594 4.492 41.68M3464.14 226.21l-38.28-114.92m-5.938 41.523 5.937-41.524 29.649 29.648m6.64 212.773-34.296-114.92m-7.227 41.288 7.227-41.289 28.71 30.586m3.555 211.835-30.234-114.92m-8.593 41.054 8.593-41.055 27.656 31.484m.586 210.937-26.25-114.92m-9.922 40.741 9.922-40.742 26.64 32.383m-2.421 210.038-22.188-114.92m-11.289 40.39 11.29-40.39 25.507 33.28m-5.351 209.14-18.126-114.92m-12.695 39.96 12.695-39.96 24.376 34.14m-8.282 208.28-14.101-114.92m-14.024 39.53 14.024-39.53 23.203 34.96m-11.093 207.46-10.08-114.92m-15.429 38.983 15.43-38.984 21.953 35.742m-13.906 206.679-6.055-114.92m-16.719 38.437 16.72-38.438 20.702 36.484m-16.64 205.937-2.032-114.92m-18.086 37.812 18.086-37.813 19.414 37.188m-19.414 205.233 2.032-114.92m-19.414 37.187 19.414-37.188 18.086 37.813m-22.149 204.608 6.055-114.92m-20.664 36.483 20.664-36.484 16.758 38.438m-24.806 203.983 10.08-114.92m-21.954 35.741 21.953-35.742 15.39 38.984m-27.499 203.437 14.101-114.92m-23.164 34.92 23.164-34.92 14.063 39.491m-30.156 202.929 18.124-114.92m-24.374 34.1 24.374-34.1 12.696 40m-32.852 202.42 22.188-114.92m-25.508 33.28 25.508-33.28 11.289 40.39m-35.508 202.03 26.25-114.92m-26.641 32.382 26.641-32.383 9.922 40.742m-38.164 201.679 30.234-114.92m-27.695 31.483 27.695-31.484 8.594 41.055m-40.859 201.366 34.296-114.92m-28.71 30.585 28.71-30.586 7.227 41.29m-43.515 201.131 38.28-114.92m-29.648 29.648 29.649-29.649 5.937 41.523" transform="matrix(.1 0 0 -.1 0 275)"/><path style="fill:none;stroke-width:12.5;stroke-linecap:round;stroke-linejoin:miter;stroke:red;stroke-opacity:1;stroke-miterlimit:10" d="m1992.5 1398.75-.742-48.79-7.227-47.616-13.36-44.492-18.984-39.649-23.867-33.164-27.773-25.43-30.625-16.601-32.188-7.188-32.5 2.54-31.484 12.187-29.258 21.328-25.86 29.648-21.445 36.758-16.093 42.383-10.196 46.367-3.867 48.477 2.657 48.633 9.062 46.914 15.078 43.242 20.508 37.93 25.078 31.015 28.75 22.93 31.172 13.945 32.422 4.336 32.344-5.39 30.976-14.922 28.399-23.868 24.648-31.835 19.96-38.594 14.454-43.711 8.36-47.188 1.953-48.71-4.57-48.32-10.821-46.017-16.719-41.875-21.953-36.054-26.289-28.79-29.57-20.39-31.64-11.172-32.58-1.484-32.07 8.203-30.312 17.617-27.422 26.29-23.398 33.945-18.399 40.234-12.734 44.922-6.523 47.851-.04 48.79 6.407 47.85 12.617 45 18.32 40.352 23.32 34.063 27.344 26.445 30.313 17.774 32.07 8.36 32.5-1.368 31.719-10.977 29.61-20.273 26.366-28.633 21.993-35.937 16.836-41.797 10.937-45.938 4.649-48.32-1.836-48.75-8.282-47.188-14.336-43.828-19.843-38.632-24.61-31.993-28.32-23.984-30.938-15.078-32.343-5.547-32.422 4.18-31.211 13.75-28.79 22.812-25.195 30.899-20.585 37.812-15.157 43.164-9.14 46.836-2.774 48.633 3.75 48.515 10.078 46.407 16.016 42.46 21.328 36.837 25.82 29.765 29.22 21.485 31.484 12.343 32.46 2.735 32.227-6.992 30.625-16.485 27.852-25.273 23.945-33.086 19.062-39.531 13.477-44.415 7.305-47.578.86-48.789-5.626-48.086-11.875-45.43-17.656-41.015-22.735-34.922-26.914-27.46" transform="matrix(.1 0 0 -.1 0 275)"/><path style="fill:none;stroke-width:12.5;stroke-linecap:round;stroke-linejoin:miter;stroke:red;stroke-opacity:1;stroke-miterlimit:10" d="m2155 1386.25-5.664-96.953-18.36-93.36-30.39-86.054-41.172-75.235-50.312-61.484-57.461-45.273-62.305-27.227-64.649-8.125-64.453 11.29-61.68 30.273-56.445 48.086-48.945 63.906-39.492 77.226-28.477 87.461-16.367 94.219-3.515 97.188 9.414 96.328 21.992 91.601 33.672 83.203 44.023 71.524 52.617 56.992 59.102 40.117 63.242 21.758 64.883 2.46 63.906-16.913 60.39-35.625 54.493-52.93 46.367-68.086 36.445-80.547 25.04-89.804 12.617-95.47-.235-97.382-13.164-95.312-25.508-89.493-36.836-80.156-46.718-67.539-54.766-52.266-60.586-34.921-63.984-16.172-64.844 3.242-63.164 22.46-58.906 40.86-52.305 57.578-43.633 72.07-33.242 83.594-21.523 91.836-8.907 96.407 4.063 97.187 16.797 93.984 28.984 87.149 39.883 76.758 49.297 63.36 56.68 47.382 61.796 29.531 64.532 10.586 64.609-8.906 62.148-27.969 57.227-45.937 50-62.07 40.781-75.743 29.922-86.367 17.89-93.594 5.157-97.031-7.813-96.64-20.468-92.344-32.266-84.454-42.852-73.125-51.64-58.945-58.438-42.344-62.851-24.101-64.805-4.883-64.18 14.531-60.976 33.36-55.313 50.859-47.5 66.328-37.734 79.18-26.523 88.828-14.258 95-1.328 97.305 11.523 95.78 24.024 90.43 35.507 81.485 45.586 69.297 53.867 54.297 59.961 37.148 63.711 18.555 64.883-.782 63.516-20.156 59.57-38.633 53.242-55.585 44.805-70.391 34.648-82.344 23.008-91.015 10.508-96.055-2.422-97.266-15.273-94.61-27.461-88.163-38.633-78.242-48.203-65.157-55.899-49.492" transform="matrix(.1 0 0 -.1 0 275)"/><path style="fill:none;stroke-width:12.5;stroke-linecap:round;stroke-linejoin:miter;stroke:red;stroke-opacity:1;stroke-miterlimit:10" d="m2361.25 1373.75-11.406-158.164-32.149-151.64-51.601-139.063-68.946-120.86-83.593-97.93-94.922-71.054-102.422-41.367-105.899-10.04-105.078 21.759-100.078 52.617-91.172 81.406-78.515 106.914-62.813 128.203-44.61 144.375-24.57 154.805-3.593 159.023 17.578 156.914 37.969 148.555 56.914 134.258 73.554 114.687 87.266 90.43 97.5 62.617 103.867 32.344 106.055.742 104.062-30.898 97.891-61.29 87.813-89.218 74.257-113.633 57.735-133.476 38.867-148.047 18.555-156.68-2.618-159.062-23.632-155.118-43.711-144.96-61.992-129.102-77.891-108.008-90.664-82.656-99.766-53.985-104.96-23.164-105.9 8.516-102.655 39.96-95.352 69.727-84.219 96.797-69.687 119.922-52.422 138.32-33.086 151.172-12.383 158.008 8.79 158.555 29.609 152.773 49.257 140.938 66.954 123.437 81.914 101.016 93.71 74.57 101.72 45.157 105.663 13.984 105.39-17.813 100.938-48.867 92.461-77.968 80.313-103.946 64.922-125.86 46.953-142.616 27.148-153.829 6.211-158.828-14.922-157.539-35.507-149.922-54.649-136.367-71.64-117.343-85.704-93.672-96.445-66.29-103.32-36.171-106.016-4.688-104.531 26.992-98.867 57.578-89.297 85.938-76.094 110.82-59.922 131.29-41.328 146.523-21.133 155.937v159.102l21.016 155.937 41.289 146.563 59.844 131.367 76.093 110.899 89.22 85.976 98.827 57.734 104.532 27.07 106.015-4.57 103.32-36.093 96.485-66.172 85.781-93.594 71.64-117.266 54.727-136.328 35.586-149.882 15-157.5-6.172-158.829-27.07-153.867-46.875-142.695-64.883-125.899-80.234-104.023-92.422-78.047" transform="matrix(.1 0 0 -.1 0 275)"/><path style="fill:none;stroke-width:12.5;stroke-linecap:round;stroke-linejoin:miter;stroke:red;stroke-opacity:1;stroke-miterlimit:10" d="m1823.75 2373.75 131.758-17.969 126.719-56.836 116.68-93.476 101.991-126.407 83.204-154.218 61.093-176.016 36.602-190.664 10.586-197.773-15.781-197.032L2435 975l-65.703-172.227-87.188-149.18-105.234-120.273-119.023-86.484-128.164-49.297-132.11-10.156-130.82 29.453-124.297 67.851-112.852 103.555-96.875 135.078-77.07 161.29-54.18 181.015-29.101 193.555-2.89 198.36 23.437 195.273 48.828 184.414 72.304 166.21 92.852 141.329 109.688 110.82 122.226 75.937 129.844 38.008 132.265-1.445 129.454-40.86 121.484-78.593 108.594-113.242 91.484-143.32 70.664-167.774 47.031-185.43 21.524-195.781-4.805-198.281-31.015-192.93-55.899-179.805-78.633-159.57-98.203-132.969-113.828-101.054-124.96-65.079-131.095-26.601-131.992 13.047-127.617 52.07-118.203 89.102-104.063 122.539-85.703 151.093-64.023 173.672-39.766 189.258-13.867 197.305 12.54 197.539 38.437 189.844 62.812 174.609 84.688 152.422 103.203 124.14 117.578 90.938 127.265 54.063 131.915 15.039 131.25-24.532 125.39-63.203 114.531-99.258 99.102-131.445 79.727-158.32 57.148-178.946 32.305-192.421 6.171-198.204-20.195-196.093-45.742-186.172-69.492-168.828-90.469-144.727-107.852-114.922-120.937-80.468-129.14-42.813-132.266-3.516-130.078 35.977-122.735 74.062-110.468 109.141-93.829 139.883-73.398 165.039-50.117 183.633-24.766 194.922 1.524 198.398 27.773 193.984 52.93 181.836 75.937 162.461 95.977 136.602 112.11 105.234 123.827 69.766 130.625 31.445 132.149-8.047 128.476-47.343 119.649-84.649 106.054-118.594 88.204-147.851 66.874-171.211" transform="matrix(.1 0 0 -.1 0 275)"/><g clip-path="url(#v)"><path style="fill:none;stroke-width:12.5;stroke-linecap:round;stroke-linejoin:miter;stroke:red;stroke-opacity:1;stroke-miterlimit:10" d="m1830 2542.5 153.984-23.164 147.813-68.594 135.781-111.289 118.36-149.531 96.21-181.797 70.157-206.875 41.406-223.633 10.977-231.523-19.961-230.196-50-219.648-78.125-200.352-103.086-173.086-123.985-138.906-139.883-99.219-150.234-55.546-154.61-9.649-152.812 36.602L1487.07 337.5l-131.21 122.969-112.344 159.648-88.985 189.922-61.992 212.617-32.656 226.914-1.914 232.07 28.867 228.047 58.476 214.883 85.782 193.203 109.648 163.75 129.14 127.852 143.516 86.797 152.149 42.305 154.726-3.907 151.094-49.922 141.485-93.945 126.25-134.219 105.937-169.18 81.406-197.382 53.672-217.735 23.75-229.335-7.11-231.875-37.695-225.118-66.718-209.414-93.125-185.351-115.82-153.907-133.946-116.289-146.64-74.101-153.516-28.906L1695 235.313l-148.945 63.046-137.578 106.172-120.782 145.04-99.18 178.163-73.593 204.18-45.117 222.031-14.766 231.016 16.094 230.86 46.367 221.445 74.766 203.203 100.156 176.875 121.64 143.515 138.204 104.375 149.257 61.172 154.415 15.43 153.359-30.898 146.21-75.977 133.204-118.047 114.96-155.352 92.071-186.523 65.547-210.273 36.367-225.625 5.782-231.914-25.04-229.024-54.882-217.031-82.54-196.328-106.914-167.813-126.992-132.617-142.03-92.11-151.368-47.968-154.727-1.914-151.914 44.258-143.008 88.632-128.398 129.493L1226.915 650l-84.688 194.258L1085 1059.883l-27.578 228.398 3.281 232.032 33.906 226.484 63.243 211.797 90.039 188.789 113.242 158.164 131.914 121.289 145.39 79.531 152.97 34.649 154.53-11.641 149.961-57.46 139.297-101.017 123.164-140.507 102.11-174.375 76.953-201.368" transform="matrix(.1 0 0 -.1 0 275)"/></g></svg>