<svg xmlns="http://www.w3.org/2000/svg" xmlns:xlink="http://www.w3.org/1999/xlink" width="504" height="274pt" viewBox="0 0 378 274"><defs><clipPath id="a"><path d="M188 8.5h2v255h-2zm0 0"/></clipPath><clipPath id="b"><path d="M19 161h340v1H19zm0 0"/></clipPath><clipPath id="c"><path d="M19 8.5h1v255h-1zm0 0"/></clipPath><clipPath id="d"><path d="M103 8.5h2v255h-2zm0 0"/></clipPath><clipPath id="e"><path d="M188 8.5h2v255h-2zm0 0"/></clipPath><clipPath id="f"><path d="M273 8.5h2v255h-2zm0 0"/></clipPath><clipPath id="g"><path d="M358 8.5h1v255h-1zm0 0"/></clipPath><clipPath id="h"><path d="M19 263h340v.5H19zm0 0"/></clipPath><clipPath id="i"><path d="M19 212h340v1H19zm0 0"/></clipPath><clipPath id="j"><path d="M19 161h340v1H19zm0 0"/></clipPath><clipPath id="k"><path d="M19 110h340v1H19zm0 0"/></clipPath><clipPath id="l"><path d="M19 59h340v1H19zm0 0"/></clipPath><clipPath id="m"><path d="M19 8.5h340V9H19zm0 0"/></clipPath><clipPath id="t"><path d="M19 8.5h267V177H19zm0 0"/></clipPath><clipPath id="u"><path d="M19 8.5h260V185H19zm0 0"/></clipPath><symbol overflow="visible" id="n"><path style="stroke:none" d="M2.125-2.344H.344v.547h1.781zm0 0"/></symbol><symbol overflow="visible" id="o"><path style="stroke:none" d="M3.563-5.313H.828L.422-2.421h.61c.312-.375.562-.5.984-.5.703 0 1.156.485 1.156 1.281 0 .766-.438 1.235-1.156 1.235-.579 0-.938-.297-1.094-.906H.266c.093.437.156.656.312.843.313.406.844.64 1.453.64 1.063 0 1.813-.78 1.813-1.905 0-1.047-.688-1.766-1.719-1.766-.375 0-.672.094-.984.313l.218-1.485h2.204zm0 0"/></symbol><symbol overflow="visible" id="p"><path style="stroke:none" d="M1.438-.781H.655V0h.781zm0 0"/></symbol><symbol overflow="visible" id="q"><path style="stroke:none" d="M2.063-5.313c-.5 0-.938.22-1.22.579C.5-4.266.329-3.563.329-2.578c0 1.797.594 2.75 1.734 2.75 1.126 0 1.735-.953 1.735-2.703 0-1.031-.156-1.719-.516-2.203-.281-.375-.719-.579-1.219-.579zm0 .579c.718 0 1.062.718 1.062 2.14 0 1.516-.344 2.219-1.078 2.219C1.344-.375 1-1.109 1-2.563c0-1.453.344-2.171 1.063-2.171zm0 0"/></symbol><symbol overflow="visible" id="r"><path style="stroke:none" d="M3.797-.656H1c.063-.438.313-.703.953-1.094l.75-.406c.75-.406 1.125-.953 1.125-1.594 0-.453-.172-.86-.484-1.14-.328-.298-.719-.423-1.219-.423-.672 0-1.172.235-1.469.688-.187.281-.265.61-.281 1.156h.656c.032-.36.078-.578.157-.75.171-.328.515-.515.921-.515.594 0 1.047.421 1.047.984 0 .422-.25.781-.719 1.063l-.687.39C.64-1.672.312-1.172.25 0h3.547zm0 0"/></symbol><symbol overflow="visible" id="s"><path style="stroke:none" d="M3.906-5.313H.344v.641h2.875C1.953-2.859 1.438-1.75 1.03 0h.703c.297-1.703.97-3.172 2.172-4.766zm0 0"/></symbol></defs><path style="stroke:none;fill-rule:nonzero;fill:#fff;fill-opacity:1" d="M19 263.5h340V8.5H19zm0 0"/><g clip-path="url(#a)"><path style="fill:none;stroke-width:6.25;stroke-linecap:round;stroke-linejoin:miter;stroke:#bfbfbf;stroke-opacity:1;stroke-miterlimit:10" d="M1890 105v2550" transform="matrix(.1 0 0 -.1 0 274)"/></g><g clip-path="url(#b)"><path style="fill:none;stroke-width:6.25;stroke-linecap:round;stroke-linejoin:miter;stroke:#bfbfbf;stroke-opacity:1;stroke-miterlimit:10" d="M190 1125h3400" transform="matrix(.1 0 0 -.1 0 274)"/></g><g clip-path="url(#c)"><path style="fill:none;stroke-width:6.25;stroke-linecap:round;stroke-linejoin:miter;stroke:#bfbfbf;stroke-opacity:1;stroke-dasharray:12.5,18.75;stroke-miterlimit:10" d="M190 105v2550" transform="matrix(.1 0 0 -.1 0 274)"/></g><g clip-path="url(#d)"><path style="fill:none;stroke-width:6.25;stroke-linecap:round;stroke-linejoin:miter;stroke:#bfbfbf;stroke-opacity:1;stroke-dasharray:12.5,18.75;stroke-miterlimit:10" d="M1040 105v2550" transform="matrix(.1 0 0 -.1 0 274)"/></g><g clip-path="url(#e)"><path style="fill:none;stroke-width:6.25;stroke-linecap:round;stroke-linejoin:miter;stroke:#bfbfbf;stroke-opacity:1;stroke-dasharray:12.5,18.75;stroke-miterlimit:10" d="M1890 105v2550" transform="matrix(.1 0 0 -.1 0 274)"/></g><g clip-path="url(#f)"><path style="fill:none;stroke-width:6.25;stroke-linecap:round;stroke-linejoin:miter;stroke:#bfbfbf;stroke-opacity:1;stroke-dasharray:12.5,18.75;stroke-miterlimit:10" d="M2740 105v2550" transform="matrix(.1 0 0 -.1 0 274)"/></g><g clip-path="url(#g)"><path style="fill:none;stroke-width:6.25;stroke-linecap:round;stroke-linejoin:miter;stroke:#bfbfbf;stroke-opacity:1;stroke-dasharray:12.5,18.75;stroke-miterlimit:10" d="M3590 105v2550" transform="matrix(.1 0 0 -.1 0 274)"/></g><g clip-path="url(#h)"><path style="fill:none;stroke-width:6.25;stroke-linecap:round;stroke-linejoin:miter;stroke:#bfbfbf;stroke-opacity:1;stroke-dasharray:12.5,18.75;stroke-miterlimit:10" d="M190 105h3400" transform="matrix(.1 0 0 -.1 0 274)"/></g><g clip-path="url(#i)"><path style="fill:none;stroke-width:6.25;stroke-linecap:round;stroke-linejoin:miter;stroke:#bfbfbf;stroke-opacity:1;stroke-dasharray:12.5,18.75;stroke-miterlimit:10" d="M190 615h3400" transform="matrix(.1 0 0 -.1 0 274)"/></g><g clip-path="url(#j)"><path style="fill:none;stroke-width:6.25;stroke-linecap:round;stroke-linejoin:miter;stroke:#bfbfbf;stroke-opacity:1;stroke-dasharray:12.5,18.75;stroke-miterlimit:10" d="M190 1125h3400" transform="matrix(.1 0 0 -.1 0 274)"/></g><g clip-path="url(#k)"><path style="fill:none;stroke-width:6.25;stroke-linecap:round;stroke-linejoin:miter;stroke:#bfbfbf;stroke-opacity:1;stroke-dasharray:12.5,18.75;stroke-miterlimit:10" d="M190 1635h3400" transform="matrix(.1 0 0 -.1 0 274)"/></g><g clip-path="url(#l)"><path style="fill:none;stroke-width:6.25;stroke-linecap:round;stroke-linejoin:miter;stroke:#bfbfbf;stroke-opacity:1;stroke-dasharray:12.5,18.75;stroke-miterlimit:10" d="M190 2145h3400" transform="matrix(.1 0 0 -.1 0 274)"/></g><g clip-path="url(#m)"><path style="fill:none;stroke-width:6.25;stroke-linecap:round;stroke-linejoin:miter;stroke:#bfbfbf;stroke-opacity:1;stroke-dasharray:12.5,18.75;stroke-miterlimit:10" d="M190 2655h3400" transform="matrix(.1 0 0 -.1 0 274)"/></g><path style="fill:none;stroke-width:12.5;stroke-linecap:square;stroke-linejoin:miter;stroke:#000;stroke-opacity:1;stroke-miterlimit:10" d="M190 105h3400" transform="matrix(.1 0 0 -.1 0 274)"/><path style="fill:none;stroke-width:6.25;stroke-linecap:butt;stroke-linejoin:miter;stroke:#000;stroke-opacity:1;stroke-miterlimit:10" d="M190 105v50m85-50v25m85-25v25m85-25v25m85-25v25m85-25v25m85-25v25m85-25v25m85-25v25m85-25v25m85-25v50m85-50v25m85-25v25m85-25v25m85-25v25m85-25v25m85-25v25m85-25v25m85-25v25m85-25v25m85-25v50m85-50v25m85-25v25m85-25v25m85-25v25m85-25v25m85-25v25m85-25v25m85-25v25m85-25v25m85-25v50m85-50v25m85-25v25m85-25v25m85-25v25m85-25v25m85-25v25m85-25v25m85-25v25m85-25v25m85-25v50" transform="matrix(.1 0 0 -.1 0 274)"/><g style="fill:#000;fill-opacity:1"><use xlink:href="#n" x="12.539" y="273.5"/><use xlink:href="#o" x="15.037" y="273.5"/><use xlink:href="#p" x="19.207" y="273.5"/><use xlink:href="#q" x="21.292" y="273.5"/></g><g style="fill:#000;fill-opacity:1"><use xlink:href="#n" x="97.539" y="273.5"/><use xlink:href="#r" x="100.037" y="273.5"/><use xlink:href="#p" x="104.207" y="273.5"/><use xlink:href="#o" x="106.292" y="273.5"/></g><g style="fill:#000;fill-opacity:1"><use xlink:href="#q" x="183.788" y="273.5"/><use xlink:href="#p" x="187.958" y="273.5"/><use xlink:href="#q" x="190.043" y="273.5"/></g><g style="fill:#000;fill-opacity:1"><use xlink:href="#r" x="268.788" y="273.5"/><use xlink:href="#p" x="272.958" y="273.5"/><use xlink:href="#o" x="275.043" y="273.5"/></g><g style="fill:#000;fill-opacity:1"><use xlink:href="#o" x="353.788" y="273.5"/><use xlink:href="#p" x="357.958" y="273.5"/><use xlink:href="#q" x="360.043" y="273.5"/></g><path style="fill:none;stroke-width:12.5;stroke-linecap:square;stroke-linejoin:miter;stroke:#000;stroke-opacity:1;stroke-miterlimit:10" d="M190 2655h3400" transform="matrix(.1 0 0 -.1 0 274)"/><path style="fill:none;stroke-width:6.25;stroke-linecap:butt;stroke-linejoin:miter;stroke:#000;stroke-opacity:1;stroke-miterlimit:10" d="M190 2655v-50m85 50v-25m85 25v-25m85 25v-25m85 25v-25m85 25v-25m85 25v-25m85 25v-25m85 25v-25m85 25v-25m85 25v-50m85 50v-25m85 25v-25m85 25v-25m85 25v-25m85 25v-25m85 25v-25m85 25v-25m85 25v-25m85 25v-25m85 25v-50m85 50v-25m85 25v-25m85 25v-25m85 25v-25m85 25v-25m85 25v-25m85 25v-25m85 25v-25m85 25v-25m85 25v-50m85 50v-25m85 25v-25m85 25v-25m85 25v-25m85 25v-25m85 25v-25m85 25v-25m85 25v-25m85 25v-25m85 25v-50" transform="matrix(.1 0 0 -.1 0 274)"/><g style="fill:#000;fill-opacity:1"><use xlink:href="#n" x="12.539" y="6"/><use xlink:href="#o" x="15.037" y="6"/><use xlink:href="#p" x="19.207" y="6"/><use xlink:href="#q" x="21.292" y="6"/></g><g style="fill:#000;fill-opacity:1"><use xlink:href="#n" x="97.539" y="6"/><use xlink:href="#r" x="100.037" y="6"/><use xlink:href="#p" x="104.207" y="6"/><use xlink:href="#o" x="106.292" y="6"/></g><g style="fill:#000;fill-opacity:1"><use xlink:href="#q" x="183.788" y="6"/><use xlink:href="#p" x="187.958" y="6"/><use xlink:href="#q" x="190.043" y="6"/></g><g style="fill:#000;fill-opacity:1"><use xlink:href="#r" x="268.788" y="6"/><use xlink:href="#p" x="272.958" y="6"/><use xlink:href="#o" x="275.043" y="6"/></g><g style="fill:#000;fill-opacity:1"><use xlink:href="#o" x="353.788" y="6"/><use xlink:href="#p" x="357.958" y="6"/><use xlink:href="#q" x="360.043" y="6"/></g><path style="fill:none;stroke-width:12.5;stroke-linecap:square;stroke-linejoin:miter;stroke:#000;stroke-opacity:1;stroke-miterlimit:10" d="M190 105v2550" transform="matrix(.1 0 0 -.1 0 274)"/><path style="fill:none;stroke-width:6.25;stroke-linecap:butt;stroke-linejoin:miter;stroke:#000;stroke-opacity:1;stroke-miterlimit:10" d="M190 105h50m-50 51.016h25m-25 50.976h25m-25 51.016h25m-25 50.976h25M190 360h25m-25 51.016h25m-25 50.976h25m-25 51.016h25m-25 50.976h25M190 615h50m-50 51.016h25m-25 50.976h25m-25 51.016h25m-25 50.976h25M190 870h25m-25 51.016h25m-25 50.976h25m-25 51.016h25m-25 50.976h25M190 1125h50m-50 51.016h25m-25 50.976h25m-25 51.016h25m-25 50.976h25M190 1380h25m-25 51.016h25m-25 50.976h25m-25 51.016h25m-25 50.976h25M190 1635h50m-50 51.016h25m-25 50.976h25m-25 51.016h25m-25 50.976h25M190 1890h25m-25 51.016h25m-25 50.976h25m-25 51.016h25m-25 50.976h25M190 2145h50m-50 51.016h25m-25 50.976h25m-25 51.016h25m-25 50.976h25M190 2400h25m-25 51.016h25m-25 50.976h25m-25 51.016h25m-25 50.976h25M190 2655h50" transform="matrix(.1 0 0 -.1 0 274)"/><g style="fill:#000;fill-opacity:1"><use xlink:href="#n" x="-.172" y="267.25"/><use xlink:href="#o" x="2.326" y="267.25"/><use xlink:href="#p" x="6.496" y="267.25"/><use xlink:href="#q" x="8.581" y="267.25"/></g><g style="fill:#000;fill-opacity:1"><use xlink:href="#n" x="-.172" y="216"/><use xlink:href="#r" x="2.326" y="216"/><use xlink:href="#p" x="6.496" y="216"/><use xlink:href="#o" x="8.581" y="216"/></g><g style="fill:#000;fill-opacity:1"><use xlink:href="#q" x="2.325" y="164.75"/><use xlink:href="#p" x="6.495" y="164.75"/><use xlink:href="#q" x="8.58" y="164.75"/></g><g style="fill:#000;fill-opacity:1"><use xlink:href="#r" x="2.325" y="114.125"/><use xlink:href="#p" x="6.495" y="114.125"/><use xlink:href="#o" x="8.58" y="114.125"/></g><g style="fill:#000;fill-opacity:1"><use xlink:href="#o" x="2.325" y="62.875"/><use xlink:href="#p" x="6.495" y="62.875"/><use xlink:href="#q" x="8.58" y="62.875"/></g><g style="fill:#000;fill-opacity:1"><use xlink:href="#s" x="2.325" y="12.25"/><use xlink:href="#p" x="6.495" y="12.25"/><use xlink:href="#o" x="8.58" y="12.25"/></g><path style="fill:none;stroke-width:12.5;stroke-linecap:square;stroke-linejoin:miter;stroke:#000;stroke-opacity:1;stroke-miterlimit:10" d="M3590 105v2550" transform="matrix(.1 0 0 -.1 0 274)"/><path style="fill:none;stroke-width:6.25;stroke-linecap:butt;stroke-linejoin:miter;stroke:#000;stroke-opacity:1;stroke-miterlimit:10" d="M3590 105h-50m50 51.016h-25m25 50.976h-25m25 51.016h-25m25 50.976h-25M3590 360h-25m25 51.016h-25m25 50.976h-25m25 51.016h-25m25 50.976h-25M3590 615h-50m50 51.016h-25m25 50.976h-25m25 51.016h-25m25 50.976h-25M3590 870h-25m25 51.016h-25m25 50.976h-25m25 51.016h-25m25 50.976h-25m25 51.016h-50m50 51.016h-25m25 50.976h-25m25 51.016h-25m25 50.976h-25m25 51.016h-25m25 51.016h-25m25 50.976h-25m25 51.016h-25m25 50.976h-25m25 51.016h-50m50 51.016h-25m25 50.976h-25m25 51.016h-25m25 50.976h-25m25 51.016h-25m25 51.016h-25m25 50.976h-25m25 51.016h-25m25 50.976h-25m25 51.016h-50m50 51.016h-25m25 50.976h-25m25 51.016h-25m25 50.976h-25m25 51.016h-25m25 51.016h-25m25 50.976h-25m25 51.016h-25m25 50.976h-25m25 51.016h-50" transform="matrix(.1 0 0 -.1 0 274)"/><g style="fill:#000;fill-opacity:1"><use xlink:href="#n" x="365.25" y="267.25"/><use xlink:href="#o" x="367.748" y="267.25"/><use xlink:href="#p" x="371.918" y="267.25"/><use xlink:href="#q" x="374.002" y="267.25"/></g><g style="fill:#000;fill-opacity:1"><use xlink:href="#n" x="365.25" y="216"/><use xlink:href="#r" x="367.748" y="216"/><use xlink:href="#p" x="371.918" y="216"/><use xlink:href="#o" x="374.002" y="216"/></g><g style="fill:#000;fill-opacity:1"><use xlink:href="#q" x="365.25" y="164.75"/><use xlink:href="#p" x="369.42" y="164.75"/><use xlink:href="#q" x="371.505" y="164.75"/></g><g style="fill:#000;fill-opacity:1"><use xlink:href="#r" x="365.25" y="114.125"/><use xlink:href="#p" x="369.42" y="114.125"/><use xlink:href="#o" x="371.505" y="114.125"/></g><g style="fill:#000;fill-opacity:1"><use xlink:href="#o" x="365.25" y="62.875"/><use xlink:href="#p" x="369.42" y="62.875"/><use xlink:href="#q" x="371.505" y="62.875"/></g><g style="fill:#000;fill-opacity:1"><use xlink:href="#s" x="365.25" y="12.25"/><use xlink:href="#p" x="369.42" y="12.25"/><use xlink:href="#o" x="371.505" y="12.25"/></g><g clip-path="url(#t)"><path style="fill:none;stroke-width:12.5;stroke-linecap:round;stroke-linejoin:round;stroke:#00008b;stroke-opacity:1;stroke-miterlimit:10" d="m190 1202.813 6.25 4.062 6.25 3.867 6.25 3.75 6.25 3.633 6.25 3.438 6.25 3.28 6.25 3.126 6.25 2.968 6.25 2.774 6.25 2.578 6.25 2.422 6.25 2.266 6.25 2.03 6.25 1.876 6.25 1.64 6.25 1.485 6.25 1.289 6.25 1.094 6.25.859 6.25.703 6.25.469 6.25.312 6.25.079 6.25-.118 6.25-.312 6.25-.469 6.25-.703 6.25-.899 6.25-1.054 6.25-1.29 6.25-1.445 6.25-1.601 6.25-1.836 6.25-1.992 6.25-2.149 6.25-2.304 6.25-2.5 6.25-2.657 6.25-2.773 6.25-2.969 6.25-3.086 6.25-3.242 6.25-3.36 6.25-3.515 6.25-3.633 6.25-3.71 6.25-3.868 6.25-3.984 6.25-4.063 6.25-4.14 6.25-4.258 6.25-4.336 6.25-4.375 6.25-4.492 6.25-4.532 6.25-4.609 6.25-4.648 6.25-4.688 12.5-9.453 31.25-24.023 6.25-4.844 6.25-4.766 6.25-4.804 12.5-9.454 6.25-4.687 6.25-4.649 6.25-4.609 6.25-4.531 6.25-4.492 6.25-4.414 6.25-4.375 6.25-4.258 6.25-4.18 6.25-4.14 6.25-4.024 6.25-3.945 6.25-3.828 6.25-3.75 6.25-3.633 6.25-3.516 6.25-3.437 6.25-3.282 6.25-3.203 6.25-3.047 6.25-2.968 6.25-2.813 6.25-2.656 6.25-2.578 6.25-2.422 6.25-2.266 6.25-2.187 6.25-1.992 6.25-1.875 6.25-1.758 6.25-1.563 6.25-1.445 6.25-1.328 6.25-1.172 6.25-1.016 6.25-.86 6.25-.741 6.25-.586 6.25-.43 6.25-.312 6.25-.157H890l6.25.118 6.25.273 6.25.43 6.25.508 6.25.703 6.25.82 6.25.937 6.25 1.094 6.25 1.211 6.25 1.328 6.25 1.485 6.25 1.601 6.25 1.68 6.25 1.836 6.25 1.953 6.25 2.031 6.25 2.188 6.25 2.265 6.25 2.422 6.25 2.461 6.25 2.578 6.25 2.696 6.25 2.773 6.25 2.89 6.25 2.93 6.25 3.047 6.25 3.125 6.25 3.203 6.25 3.282 6.25 3.359 6.25 3.398 6.25 3.477 6.25 3.555 6.25 3.593 6.25 3.672 6.25 3.711 6.25 3.75 12.5 7.656 12.5 7.813 6.25 3.945 6.25 4.024 6.25 3.984 6.25 4.024 6.25 4.062 6.25 4.102 6.25 4.062 12.5 8.203 6.25 4.14 12.5 8.204 6.25 4.14 12.5 8.204 6.25 4.062 6.25 4.102 6.25 4.062 12.5 8.047 12.5 7.969 6.25 3.945 12.5 7.813 12.5 7.656 6.25 3.789 6.25 3.75 6.25 3.71 12.5 7.267 12.5 7.109 6.25 3.476 12.5 6.797 6.25 3.32 6.25 3.282 6.25 3.242 6.25 3.164 12.5 6.172 6.25 3.008 6.25 2.93 6.25 2.89 6.25 2.813 6.25 2.773 6.25 2.735 6.25 2.656 6.25 2.578 6.25 2.539 6.25 2.46 6.25 2.423 6.25 2.343 6.25 2.305 6.25 2.227 6.25 2.187 6.25 2.11 6.25 2.03 6.25 1.993 6.25 1.953 6.25 1.875 6.25 1.797 6.25 1.758 6.25 1.719 6.25 1.64 6.25 1.602 6.25 1.523 6.25 1.485 6.25 1.406 6.25 1.367 6.25 1.328 6.25 1.25 6.25 1.211 12.5 2.266 6.25 1.054 6.25 1.016 12.5 1.875 12.5 1.719 6.25.781 6.25.742 6.25.703 12.5 1.25 6.25.586 6.25.547 6.25.508 12.5.938 12.5.78 6.25.352 6.25.313 12.5.547 12.5.468 6.25.196 18.75.468 6.25.118 18.75.234 6.25.04 6.25.077 6.25.04h6.25l6.25.038h43.75l6.25.04h18.75l18.75.117 25 .312 6.25.117 18.75.47 6.25.194 12.5.47 12.5.546 6.25.313 6.25.351 6.25.39 12.5.86 12.5 1.016 6.25.547 6.25.585 12.5 1.329 12.5 1.484 6.25.82 6.25.86 6.25.898 6.25.977 6.25 1.015 6.25 1.055 6.25 1.133 6.25 1.172 6.25 1.25 6.25 1.289 6.25 1.367 6.25 1.445 6.25 1.485 6.25 1.562 6.25 1.64 6.25 1.68 6.25 1.797 6.25 1.875 6.25 1.914 6.25 1.993 6.25 2.109 6.25 2.187 6.25 2.266 6.25 2.344 6.25 2.46 6.25 2.54 6.25 2.617 6.25 2.734 6.25 2.813 6.25 2.969 6.25 3.046 6.25 3.126 6.25 3.28 6.25 3.4 6.25 3.515 6.25 3.594 6.25 3.75 6.25 3.906 6.25 4.023 6.25 4.14 6.25 4.298 6.25 4.414 6.25 4.61 6.25 4.726 6.25 4.883 6.25 5.078 6.25 5.195 6.25 5.39 6.25 5.587 6.25 5.742 6.25 5.937 6.25 6.094 6.25 6.328 6.25 6.524 6.25 6.718 6.25 6.953 6.25 7.188 6.25 7.383 6.25 7.617 6.25 7.851 6.25 8.126 6.25 8.359 6.25 8.633 6.25 8.906 6.25 9.18 6.25 9.453 6.25 9.765 6.25 10.079 6.25 10.351 6.25 10.742 6.25 11.016 6.25 11.406 6.25 11.758 6.25 12.07 6.25 12.5 6.25 12.89 6.25 13.282 6.25 13.711 6.25 14.14 6.25 14.571 6.25 15 6.25 15.508 6.25 16.015 6.25 16.485 6.25 17.031 6.25 17.54 6.25 18.085 6.25 18.711 6.25 19.258 6.25 19.883 6.25 20.507 6.25 21.172 6.25 21.875 6.25 22.54 6.25 23.242 6.25 24.023 6.25 24.766 6.25 25.586 6.25 26.406 6.25 27.265 6.25 28.125 6.25 29.063 6.25 30 6.25 30.977 6.25 31.953 6.25 33.046 6.25 34.102 6.25 35.195 6.25 36.407 6.25 37.578 6.25 38.828 6.25 40.117 6.25 41.445 6.25 42.813 6.25 44.219 6.25 45.742 6.25 47.265 6.25 48.829 6.25 50.468" transform="matrix(.1 0 0 -.1 0 274)"/></g><g clip-path="url(#u)"><path style="fill:none;stroke-width:12.5;stroke-linecap:round;stroke-linejoin:round;stroke:#006400;stroke-opacity:1;stroke-miterlimit:10" d="m190 955.273 6.25 1.055 6.25 1.29 6.25 1.6 6.25 1.876 6.25 2.148 6.25 2.383 6.25 2.695 6.25 2.93 6.25 3.164 6.25 3.438 6.25 3.671 6.25 3.907 6.25 4.14 6.25 4.336 6.25 4.57 6.25 4.727 6.25 4.961 6.25 5.117 6.25 5.352 6.25 5.469 6.25 5.625 6.25 5.78 6.25 5.938 6.25 6.055 6.25 6.172 6.25 6.289 6.25 6.367 6.25 6.485 6.25 6.562 6.25 6.602 6.25 6.68 6.25 6.718 6.25 6.758 6.25 6.836 12.5 13.593 6.25 6.836 12.5 13.594 12.5 13.438 6.25 6.68 12.5 13.124 6.25 6.446 6.25 6.367 6.25 6.25 6.25 6.172 6.25 6.054 6.25 5.938 6.25 5.781 6.25 5.703 6.25 5.508 6.25 5.39 6.25 5.196 6.25 5.078 6.25 4.883 6.25 4.727 6.25 4.53 6.25 4.376 6.25 4.14 6.25 3.985 6.25 3.789 6.25 3.555 6.25 3.398 6.25 3.164 6.25 2.93 6.25 2.734 6.25 2.5 6.25 2.305 6.25 2.07 6.25 1.875 6.25 1.64 6.25 1.407 6.25 1.172 6.25.937 6.25.743 6.25.507 6.25.274 6.25.039 6.25-.156 6.25-.391 6.25-.625 6.25-.82 6.25-1.016 6.25-1.25 6.25-1.484 6.25-1.68 6.25-1.875 6.25-2.07 6.25-2.305 6.25-2.46 6.25-2.657 6.25-2.852 6.25-3.047 6.25-3.203 6.25-3.398 6.25-3.555 6.25-3.71 6.25-3.868 6.25-4.063 6.25-4.18 6.25-4.296 6.25-4.492 6.25-4.57 6.25-4.727 6.25-4.883 6.25-4.922 6.25-5.078 6.25-5.195 6.25-5.274 6.25-5.351 6.25-5.469 6.25-5.547 6.25-5.586 6.25-5.703 6.25-5.742 6.25-5.781 6.25-5.86 6.25-5.898 6.25-5.938 12.5-11.953 6.25-6.054 6.25-6.016 18.75-18.164 6.25-6.016 6.25-6.054 12.5-12.032 12.5-11.875 6.25-5.898 6.25-5.86 6.25-5.82 6.25-5.781 6.25-5.703 6.25-5.664 6.25-5.586 6.25-5.508 6.25-5.469 6.25-5.39 6.25-5.274 6.25-5.234 6.25-5.117 6.25-5.04 6.25-4.96 6.25-4.844 6.25-4.766 6.25-4.648 6.25-4.532 6.25-4.453 6.25-4.336 6.25-4.218 6.25-4.102 6.25-4.023 6.25-3.867 6.25-3.75 6.25-3.672 6.25-3.516 6.25-3.398 6.25-3.282 6.25-3.125 6.25-3.047 6.25-2.89 6.25-2.774 6.25-2.656 6.25-2.5 6.25-2.383 6.25-2.265 6.25-2.11 6.25-2.03 6.25-1.837 6.25-1.758 6.25-1.601 6.25-1.485 6.25-1.367 6.25-1.25 6.25-1.094 6.25-.976 6.25-.86 6.25-.742 6.25-.586 6.25-.507 6.25-.352 6.25-.234 6.25-.118 6.25-.039 6.25.118 6.25.234 6.25.312 6.25.43 6.25.586 6.25.625 6.25.781 6.25.86 6.25.976 6.25 1.055 6.25 1.21 6.25 1.25 6.25 1.368 6.25 1.445 6.25 1.563 6.25 1.64 6.25 1.72 6.25 1.796 6.25 1.875 6.25 1.992 6.25 2.032 6.25 2.148 6.25 2.188 6.25 2.265 6.25 2.344 6.25 2.422 6.25 2.5 6.25 2.539 6.25 2.578 6.25 2.695 6.25 2.735 6.25 2.773 6.25 2.852 6.25 2.89 6.25 2.93 6.25 2.969 6.25 3.047 6.25 3.086 6.25 3.125 6.25 3.164 6.25 3.203 6.25 3.242 6.25 3.281 12.5 6.64 12.5 6.798 6.25 3.437 12.5 6.953 12.5 7.032 12.5 7.109 6.25 3.594 6.25 3.632 6.25 3.594 6.25 3.633 12.5 7.344 6.25 3.633 6.25 3.71 6.25 3.672 18.75 11.133 6.25 3.75 12.5 7.422 18.75 11.25 6.25 3.711 112.5 67.5 6.25 3.79 18.75 11.25 12.5 7.577 6.25 3.75 12.5 7.578 6.25 3.828 12.5 7.579 6.25 3.867 12.5 7.656 6.25 3.867 25 15.625 6.25 3.946 12.5 7.968 6.25 4.024 12.5 8.125 6.25 4.101 12.5 8.282 6.25 4.218 12.5 8.516 6.25 4.297 6.25 4.375 6.25 4.414 6.25 4.453 6.25 4.492 6.25 4.531 6.25 4.61 12.5 9.375 6.25 4.804 6.25 4.844 6.25 4.922 6.25 4.961 6.25 5.078 6.25 5.156 6.25 5.196 6.25 5.312 6.25 5.39 6.25 5.47 6.25 5.546 6.25 5.704 6.25 5.742 6.25 5.898 6.25 5.977 6.25 6.093 6.25 6.211 6.25 6.329 6.25 6.445 6.25 6.601 6.25 6.72 6.25 6.874 6.25 7.031 6.25 7.149 6.25 7.305 6.25 7.5 6.25 7.656 6.25 7.812 6.25 8.008 6.25 8.164 6.25 8.36 6.25 8.593 6.25 8.79 6.25 8.984 6.25 9.218 6.25 9.415 6.25 9.687 6.25 9.922 6.25 10.156 6.25 10.43 6.25 10.703 6.25 10.977 6.25 11.25 6.25 11.562 6.25 11.836 6.25 12.188 6.25 12.5 6.25 12.812 6.25 13.203 6.25 13.555 6.25 13.906 6.25 14.336 6.25 14.688 6.25 15.117 6.25 15.547 6.25 15.976 6.25 16.445 6.25 16.875 6.25 17.422 6.25 17.852 6.25 18.437 6.25 18.907 6.25 19.53 6.25 20.04 6.25 20.664 6.25 21.29 6.25 21.913 6.25 22.54 6.25 23.241 6.25 23.907 6.25 24.648 6.25 25.43 6.25 26.172 6.25 26.953 6.25 27.773 6.25 28.672 6.25 29.531 6.25 30.43 6.25 31.406 6.25 32.344 6.25 33.398 6.25 34.414 6.25 35.508 6.25 36.64 6.25 37.774 6.25 38.985 6.25 40.234 6.25 41.485 6.25 42.851 6.25 44.219 6.25 45.625 6.25 47.11 6.25 48.632" transform="matrix(.1 0 0 -.1 0 274)"/></g></svg>