<svg xmlns="http://www.w3.org/2000/svg" xmlns:xlink="http://www.w3.org/1999/xlink" width="488" height="274pt" viewBox="0 0 366 274"><defs><clipPath id="a"><path d="M182 8.5h2v255h-2zm0 0"/></clipPath><clipPath id="b"><path d="M13 135h340v2H13zm0 0"/></clipPath><clipPath id="c"><path d="M13 8.5h1v255h-1zm0 0"/></clipPath><clipPath id="d"><path d="M97 8.5h2v255h-2zm0 0"/></clipPath><clipPath id="e"><path d="M182 8.5h2v255h-2zm0 0"/></clipPath><clipPath id="f"><path d="M267 8.5h2v255h-2zm0 0"/></clipPath><clipPath id="g"><path d="M352 8.5h1v255h-1zm0 0"/></clipPath><clipPath id="h"><path d="M13 263h340v.5H13zm0 0"/></clipPath><clipPath id="i"><path d="M13 220h340v2H13zm0 0"/></clipPath><clipPath id="j"><path d="M13 178h340v1H13zm0 0"/></clipPath><clipPath id="k"><path d="M13 135h340v2H13zm0 0"/></clipPath><clipPath id="l"><path d="M13 93h340v1H13zm0 0"/></clipPath><clipPath id="m"><path d="M13 50h340v2H13zm0 0"/></clipPath><clipPath id="n"><path d="M13 8.5h340V9H13zm0 0"/></clipPath><clipPath id="u"><path d="M13 92h340v88H13zm0 0"/></clipPath><clipPath id="v"><path d="M108 8.5h150v255H108zm0 0"/></clipPath><clipPath id="w"><path d="M85 8.5h196v255H85zm0 0"/></clipPath><symbol overflow="visible" id="o"><path style="stroke:none" d="M2.125-2.344H.344v.547h1.781zm0 0"/></symbol><symbol overflow="visible" id="p"><path style="stroke:none" d="M1.938-3.781V0h.671v-5.313h-.437c-.235.813-.39.922-1.406 1.047v.485zm0 0"/></symbol><symbol overflow="visible" id="q"><path style="stroke:none" d="M2.063-5.313c-.5 0-.938.22-1.22.579C.5-4.266.329-3.563.329-2.578c0 1.797.594 2.75 1.734 2.75 1.126 0 1.735-.953 1.735-2.703 0-1.031-.156-1.719-.516-2.203-.281-.375-.719-.579-1.219-.579zm0 .579c.718 0 1.062.718 1.062 2.14 0 1.516-.344 2.219-1.078 2.219C1.344-.375 1-1.109 1-2.563c0-1.453.344-2.171 1.063-2.171zm0 0"/></symbol><symbol overflow="visible" id="r"><path style="stroke:none" d="M3.563-5.313H.828L.422-2.421h.61c.312-.375.562-.5.984-.5.703 0 1.156.485 1.156 1.281 0 .766-.438 1.235-1.156 1.235-.579 0-.938-.297-1.094-.906H.266c.093.437.156.656.312.843.313.406.844.64 1.453.64 1.063 0 1.813-.78 1.813-1.905 0-1.047-.688-1.766-1.719-1.766-.375 0-.672.094-.984.313l.218-1.485h2.204zm0 0"/></symbol><symbol overflow="visible" id="s"><path style="stroke:none" d="M1.656-2.438h.36c.734 0 1.109.329 1.109.954 0 .671-.422 1.078-1.11 1.078-.718 0-1.078-.36-1.109-1.14H.234c.032.421.11.702.235.952.281.5.797.766 1.531.766 1.094 0 1.797-.656 1.797-1.656 0-.672-.266-1.047-.906-1.266.5-.203.75-.578.75-1.11 0-.906-.61-1.453-1.625-1.453-1.079 0-1.641.579-1.657 1.72h.657c0-.329.03-.516.109-.673.156-.296.484-.468.906-.468.578 0 .938.343.938.906 0 .375-.14.594-.438.719-.172.078-.406.109-.875.109zm0 0"/></symbol><symbol overflow="visible" id="t"><path style="stroke:none" d="M3.797-.656H1c.063-.438.313-.703.953-1.094l.75-.406c.75-.406 1.125-.953 1.125-1.594 0-.453-.172-.86-.484-1.14-.328-.298-.719-.423-1.219-.423-.672 0-1.172.235-1.469.688-.187.281-.265.61-.281 1.156h.656c.032-.36.078-.578.157-.75.171-.328.515-.515.921-.515.594 0 1.047.421 1.047.984 0 .422-.25.781-.719 1.063l-.687.39C.64-1.672.312-1.172.25 0h3.547zm0 0"/></symbol></defs><path style="stroke:none;fill-rule:nonzero;fill:#fff;fill-opacity:1" d="M13 263.5h340V8.5H13zm0 0"/><g clip-path="url(#a)"><path style="fill:none;stroke-width:6.25;stroke-linecap:round;stroke-linejoin:miter;stroke:#bfbfbf;stroke-opacity:1;stroke-miterlimit:10" d="M1830 105v2550" transform="matrix(.1 0 0 -.1 0 274)"/></g><g clip-path="url(#b)"><path style="fill:none;stroke-width:6.25;stroke-linecap:round;stroke-linejoin:miter;stroke:#bfbfbf;stroke-opacity:1;stroke-miterlimit:10" d="M130 1380h3400" transform="matrix(.1 0 0 -.1 0 274)"/></g><g clip-path="url(#c)"><path style="fill:none;stroke-width:6.25;stroke-linecap:round;stroke-linejoin:miter;stroke:#bfbfbf;stroke-opacity:1;stroke-dasharray:12.5,18.75;stroke-miterlimit:10" d="M130 105v2550" transform="matrix(.1 0 0 -.1 0 274)"/></g><g clip-path="url(#d)"><path style="fill:none;stroke-width:6.25;stroke-linecap:round;stroke-linejoin:miter;stroke:#bfbfbf;stroke-opacity:1;stroke-dasharray:12.5,18.75;stroke-miterlimit:10" d="M980 105v2550" transform="matrix(.1 0 0 -.1 0 274)"/></g><g clip-path="url(#e)"><path style="fill:none;stroke-width:6.25;stroke-linecap:round;stroke-linejoin:miter;stroke:#bfbfbf;stroke-opacity:1;stroke-dasharray:12.5,18.75;stroke-miterlimit:10" d="M1830 105v2550" transform="matrix(.1 0 0 -.1 0 274)"/></g><g clip-path="url(#f)"><path style="fill:none;stroke-width:6.25;stroke-linecap:round;stroke-linejoin:miter;stroke:#bfbfbf;stroke-opacity:1;stroke-dasharray:12.5,18.75;stroke-miterlimit:10" d="M2680 105v2550" transform="matrix(.1 0 0 -.1 0 274)"/></g><g clip-path="url(#g)"><path style="fill:none;stroke-width:6.25;stroke-linecap:round;stroke-linejoin:miter;stroke:#bfbfbf;stroke-opacity:1;stroke-dasharray:12.5,18.75;stroke-miterlimit:10" d="M3530 105v2550" transform="matrix(.1 0 0 -.1 0 274)"/></g><g clip-path="url(#h)"><path style="fill:none;stroke-width:6.25;stroke-linecap:round;stroke-linejoin:miter;stroke:#bfbfbf;stroke-opacity:1;stroke-dasharray:12.5,18.75;stroke-miterlimit:10" d="M130 105h3400" transform="matrix(.1 0 0 -.1 0 274)"/></g><g clip-path="url(#i)"><path style="fill:none;stroke-width:6.25;stroke-linecap:round;stroke-linejoin:miter;stroke:#bfbfbf;stroke-opacity:1;stroke-dasharray:12.5,18.75;stroke-miterlimit:10" d="M130 530h3400" transform="matrix(.1 0 0 -.1 0 274)"/></g><g clip-path="url(#j)"><path style="fill:none;stroke-width:6.25;stroke-linecap:round;stroke-linejoin:miter;stroke:#bfbfbf;stroke-opacity:1;stroke-dasharray:12.5,18.75;stroke-miterlimit:10" d="M130 955h3400" transform="matrix(.1 0 0 -.1 0 274)"/></g><g clip-path="url(#k)"><path style="fill:none;stroke-width:6.25;stroke-linecap:round;stroke-linejoin:miter;stroke:#bfbfbf;stroke-opacity:1;stroke-dasharray:12.5,18.75;stroke-miterlimit:10" d="M130 1380h3400" transform="matrix(.1 0 0 -.1 0 274)"/></g><g clip-path="url(#l)"><path style="fill:none;stroke-width:6.25;stroke-linecap:round;stroke-linejoin:miter;stroke:#bfbfbf;stroke-opacity:1;stroke-dasharray:12.5,18.75;stroke-miterlimit:10" d="M130 1805h3400" transform="matrix(.1 0 0 -.1 0 274)"/></g><g clip-path="url(#m)"><path style="fill:none;stroke-width:6.25;stroke-linecap:round;stroke-linejoin:miter;stroke:#bfbfbf;stroke-opacity:1;stroke-dasharray:12.5,18.75;stroke-miterlimit:10" d="M130 2230h3400" transform="matrix(.1 0 0 -.1 0 274)"/></g><g clip-path="url(#n)"><path style="fill:none;stroke-width:6.25;stroke-linecap:round;stroke-linejoin:miter;stroke:#bfbfbf;stroke-opacity:1;stroke-dasharray:12.5,18.75;stroke-miterlimit:10" d="M130 2655h3400" transform="matrix(.1 0 0 -.1 0 274)"/></g><path style="fill:none;stroke-width:12.5;stroke-linecap:square;stroke-linejoin:miter;stroke:#000;stroke-opacity:1;stroke-miterlimit:10" d="M130 105h3400" transform="matrix(.1 0 0 -.1 0 274)"/><path style="fill:none;stroke-width:6.25;stroke-linecap:butt;stroke-linejoin:miter;stroke:#000;stroke-opacity:1;stroke-miterlimit:10" d="M130 105v50m85-50v25m85-25v25m85-25v25m85-25v25m85-25v25m85-25v25m85-25v25m85-25v25m85-25v25m85-25v50m85-50v25m85-25v25m85-25v25m85-25v25m85-25v25m85-25v25m85-25v25m85-25v25m85-25v25m85-25v50m85-50v25m85-25v25m85-25v25m85-25v25m85-25v25m85-25v25m85-25v25m85-25v25m85-25v25m85-25v50m85-50v25m85-25v25m85-25v25m85-25v25m85-25v25m85-25v25m85-25v25m85-25v25m85-25v25m85-25v50" transform="matrix(.1 0 0 -.1 0 274)"/><g style="fill:#000;fill-opacity:1"><use xlink:href="#o" x="7.582" y="273.5"/><use xlink:href="#p" x="10.079" y="273.5"/><use xlink:href="#q" x="14.249" y="273.5"/></g><g style="fill:#000;fill-opacity:1"><use xlink:href="#o" x="94.666" y="273.5"/><use xlink:href="#r" x="97.164" y="273.5"/></g><use xlink:href="#q" x="180.915" y="273.5" style="fill:#000;fill-opacity:1"/><use xlink:href="#r" x="265.915" y="273.5" style="fill:#000;fill-opacity:1"/><g style="fill:#000;fill-opacity:1"><use xlink:href="#p" x="348.829" y="273.5"/><use xlink:href="#q" x="352.999" y="273.5"/></g><path style="fill:none;stroke-width:12.5;stroke-linecap:square;stroke-linejoin:miter;stroke:#000;stroke-opacity:1;stroke-miterlimit:10" d="M130 2655h3400" transform="matrix(.1 0 0 -.1 0 274)"/><path style="fill:none;stroke-width:6.25;stroke-linecap:butt;stroke-linejoin:miter;stroke:#000;stroke-opacity:1;stroke-miterlimit:10" d="M130 2655v-50m85 50v-25m85 25v-25m85 25v-25m85 25v-25m85 25v-25m85 25v-25m85 25v-25m85 25v-25m85 25v-25m85 25v-50m85 50v-25m85 25v-25m85 25v-25m85 25v-25m85 25v-25m85 25v-25m85 25v-25m85 25v-25m85 25v-25m85 25v-50m85 50v-25m85 25v-25m85 25v-25m85 25v-25m85 25v-25m85 25v-25m85 25v-25m85 25v-25m85 25v-25m85 25v-50m85 50v-25m85 25v-25m85 25v-25m85 25v-25m85 25v-25m85 25v-25m85 25v-25m85 25v-25m85 25v-25m85 25v-50" transform="matrix(.1 0 0 -.1 0 274)"/><g style="fill:#000;fill-opacity:1"><use xlink:href="#o" x="7.582" y="6"/><use xlink:href="#p" x="10.079" y="6"/><use xlink:href="#q" x="14.249" y="6"/></g><g style="fill:#000;fill-opacity:1"><use xlink:href="#o" x="94.666" y="6"/><use xlink:href="#r" x="97.164" y="6"/></g><use xlink:href="#q" x="180.915" y="6" style="fill:#000;fill-opacity:1"/><use xlink:href="#r" x="265.915" y="6" style="fill:#000;fill-opacity:1"/><g style="fill:#000;fill-opacity:1"><use xlink:href="#p" x="348.829" y="6"/><use xlink:href="#q" x="352.999" y="6"/></g><path style="fill:none;stroke-width:12.5;stroke-linecap:square;stroke-linejoin:miter;stroke:#000;stroke-opacity:1;stroke-miterlimit:10" d="M130 105v2550" transform="matrix(.1 0 0 -.1 0 274)"/><path style="fill:none;stroke-width:6.25;stroke-linecap:butt;stroke-linejoin:miter;stroke:#000;stroke-opacity:1;stroke-miterlimit:10" d="M130 105h50m-50 42.5h25M130 190h25m-25 42.5h25M130 275h25m-25 42.5h25M130 360h25m-25 42.5h25M130 445h25m-25 42.5h25M130 530h50m-50 42.5h25M130 615h25m-25 42.5h25M130 700h25m-25 42.5h25M130 785h25m-25 42.5h25M130 870h25m-25 42.5h25M130 955h50m-50 42.5h25m-25 42.5h25m-25 42.5h25m-25 42.5h25m-25 42.5h25m-25 42.5h25m-25 42.5h25m-25 42.5h25m-25 42.5h25m-25 42.5h50m-50 42.5h25m-25 42.5h25m-25 42.5h25m-25 42.5h25m-25 42.5h25m-25 42.5h25m-25 42.5h25m-25 42.5h25m-25 42.5h25m-25 42.5h50m-50 42.5h25m-25 42.5h25m-25 42.5h25m-25 42.5h25m-25 42.5h25m-25 42.5h25m-25 42.5h25m-25 42.5h25m-25 42.5h25m-25 42.5h50m-50 42.5h25m-25 42.5h25m-25 42.5h25m-25 42.5h25m-25 42.5h25m-25 42.5h25m-25 42.5h25m-25 42.5h25m-25 42.5h25m-25 42.5h50" transform="matrix(.1 0 0 -.1 0 274)"/><g style="fill:#000;fill-opacity:1"><use xlink:href="#o" x=".083" y="267.25"/><use xlink:href="#s" x="2.58" y="267.25"/></g><g style="fill:#000;fill-opacity:1"><use xlink:href="#o" x=".083" y="224.75"/><use xlink:href="#t" x="2.58" y="224.75"/></g><g style="fill:#000;fill-opacity:1"><use xlink:href="#o" x=".083" y="182.25"/><use xlink:href="#p" x="2.58" y="182.25"/></g><use xlink:href="#q" x="2.58" y="139.125" style="fill:#000;fill-opacity:1"/><use xlink:href="#p" x="2.58" y="97.25" style="fill:#000;fill-opacity:1"/><use xlink:href="#t" x="2.58" y="54.75" style="fill:#000;fill-opacity:1"/><use xlink:href="#s" x="2.58" y="12.25" style="fill:#000;fill-opacity:1"/><path style="fill:none;stroke-width:12.5;stroke-linecap:square;stroke-linejoin:miter;stroke:#000;stroke-opacity:1;stroke-miterlimit:10" d="M3530 105v2550" transform="matrix(.1 0 0 -.1 0 274)"/><path style="fill:none;stroke-width:6.25;stroke-linecap:butt;stroke-linejoin:miter;stroke:#000;stroke-opacity:1;stroke-miterlimit:10" d="M3530 105h-50m50 42.5h-25m25 42.5h-25m25 42.5h-25m25 42.5h-25m25 42.5h-25m25 42.5h-25m25 42.5h-25m25 42.5h-25m25 42.5h-25m25 42.5h-50m50 42.5h-25m25 42.5h-25m25 42.5h-25m25 42.5h-25m25 42.5h-25m25 42.5h-25m25 42.5h-25m25 42.5h-25m25 42.5h-25m25 42.5h-50m50 42.5h-25m25 42.5h-25m25 42.5h-25m25 42.5h-25m25 42.5h-25m25 42.5h-25m25 42.5h-25m25 42.5h-25m25 42.5h-25m25 42.5h-50m50 42.5h-25m25 42.5h-25m25 42.5h-25m25 42.5h-25m25 42.5h-25m25 42.5h-25m25 42.5h-25m25 42.5h-25m25 42.5h-25m25 42.5h-50m50 42.5h-25m25 42.5h-25m25 42.5h-25m25 42.5h-25m25 42.5h-25m25 42.5h-25m25 42.5h-25m25 42.5h-25m25 42.5h-25m25 42.5h-50m50 42.5h-25m25 42.5h-25m25 42.5h-25m25 42.5h-25m25 42.5h-25m25 42.5h-25m25 42.5h-25m25 42.5h-25m25 42.5h-25m25 42.5h-50" transform="matrix(.1 0 0 -.1 0 274)"/><g style="fill:#000;fill-opacity:1"><use xlink:href="#o" x="359.25" y="267.25"/><use xlink:href="#s" x="361.748" y="267.25"/></g><g style="fill:#000;fill-opacity:1"><use xlink:href="#o" x="359.25" y="224.75"/><use xlink:href="#t" x="361.748" y="224.75"/></g><g style="fill:#000;fill-opacity:1"><use xlink:href="#o" x="359.25" y="182.25"/><use xlink:href="#p" x="361.748" y="182.25"/></g><use xlink:href="#q" x="359.25" y="139.125" style="fill:#000;fill-opacity:1"/><use xlink:href="#p" x="359.25" y="97.25" style="fill:#000;fill-opacity:1"/><use xlink:href="#t" x="359.25" y="54.75" style="fill:#000;fill-opacity:1"/><use xlink:href="#s" x="359.25" y="12.25" style="fill:#000;fill-opacity:1"/><g clip-path="url(#u)"><path style="fill:none;stroke-width:12.5;stroke-linecap:round;stroke-linejoin:round;stroke:#00008b;stroke-opacity:1;stroke-miterlimit:10" d="m130 1611.21 6.25-13.241 6.25-13.594 6.25-13.828 6.25-14.102 6.25-14.297 6.25-14.57 6.25-14.765 6.25-14.922 6.25-15.079 6.25-15.234 6.25-15.351 6.25-15.43 6.25-15.508 6.25-15.586 12.5-31.25 6.25-15.586 6.25-15.625 6.25-15.508 6.25-15.468 6.25-15.391 6.25-15.273 6.25-15.118 6.25-14.96 6.25-14.805 6.25-14.61 6.25-14.414 6.25-14.14 6.25-13.946 6.25-13.632 6.25-13.36 6.25-13.008 6.25-12.734 6.25-12.383 6.25-12.031 6.25-11.64 6.25-11.25 6.25-10.86 6.25-10.43 6.25-9.96 6.25-9.532 6.25-9.101 6.25-8.594 6.25-8.125 6.25-7.657 6.25-7.109 6.25-6.601 6.25-6.094 6.25-5.547 6.25-5 6.25-4.453 6.25-3.906 6.25-3.32 6.25-2.813 6.25-2.188 6.25-1.68 6.25-1.054 6.25-.508 6.25.078 6.25.664 6.25 1.211 6.25 1.797 6.25 2.344 6.25 2.93 6.25 3.476 6.25 4.063 6.25 4.609 6.25 5.156 6.25 5.664 6.25 6.211 6.25 6.758 6.25 7.227 6.25 7.773 6.25 8.242 6.25 8.75 6.25 9.18 6.25 9.687 6.25 10.079 6.25 10.546 6.25 10.938 6.25 11.367 6.25 11.719 6.25 12.148 6.25 12.461 6.25 12.774 6.25 13.125 6.25 13.437 6.25 13.711 6.25 13.984 6.25 14.22 6.25 14.452 6.25 14.688 6.25 14.844 6.25 15 6.25 15.156 6.25 15.312 6.25 15.39 6.25 15.509 6.25 15.547 6.25 15.586 18.75 46.875 6.25 15.546 6.25 15.508 6.25 15.39 6.25 15.352 6.25 15.196 6.25 15.039 6.25 14.883 6.25 14.687 6.25 14.492 6.25 14.297 6.25 13.985 6.25 13.789 6.25 13.476 6.25 13.203 6.25 12.852 6.25 12.539 6.25 12.187 6.25 11.797 6.25 11.446 6.25 11.054 6.25 10.586 6.25 10.196 6.25 9.765 6.25 9.297 6.25 8.79 6.25 8.359 6.25 7.851 6.25 7.344 6.25 6.836 6.25 6.328 6.25 5.781 6.25 5.274 6.25 4.687 6.25 4.18 6.25 3.593 6.25 3.047 6.25 2.422 6.25 1.914 6.25 1.328 6.25.782 6.25.195 6.25-.39 6.25-.977 6.25-1.524L1055 1800l6.25-2.695 6.25-3.203 6.25-3.829 6.25-4.335 6.25-4.883 6.25-5.47 6.25-5.976 6.25-6.484 6.25-7.031 6.25-7.54 6.25-8.007 6.25-8.516 6.25-8.984 6.25-9.453 6.25-9.922 6.25-10.352 6.25-10.742 6.25-11.172 6.25-11.601 6.25-11.914 6.25-12.305 6.25-12.695 6.25-12.97 6.25-13.28 6.25-13.594 6.25-13.828 6.25-14.14 6.25-14.337 6.25-14.61 6.25-14.726 6.25-14.96 6.25-15.118 6.25-15.234 6.25-15.352 6.25-15.469 6.25-15.507 6.25-15.586 6.25-15.625 6.25-15.586 6.25-15.625 6.25-15.586 6.25-15.547 6.25-15.469 6.25-15.351 6.25-15.235 6.25-15.117 6.25-14.96 6.25-14.806 6.25-14.57 6.25-14.375 6.25-14.14 6.25-13.907 6.25-13.593 6.25-13.32 6.25-13.009 6.25-12.695 6.25-12.383 6.25-11.953 6.25-11.601 6.25-11.211 6.25-10.82 6.25-10.391 6.25-9.961 6.25-9.492 6.25-9.024 6.25-8.555 6.25-8.086 6.25-7.578 6.25-7.07 6.25-6.562 6.25-6.016 6.25-5.508 6.25-4.922 6.25-4.414 6.25-3.867 6.25-3.281 6.25-2.735 6.25-2.148 6.25-1.602 6.25-1.015 6.25-.43 6.25.117 6.25.703 6.25 1.29 6.25 1.835 6.25 2.422 6.25 2.969 6.25 3.555 6.25 4.101 6.25 4.649 6.25 5.195 6.25 5.742 6.25 6.25 6.25 6.797 6.25 7.305 6.25 7.812 6.25 8.282 6.25 8.789 6.25 9.257 6.25 9.688 6.25 10.156 6.25 10.586 6.25 10.977 6.25 11.406 6.25 11.758 6.25 12.148 6.25 12.5 6.25 12.852 6.25 13.125 6.25 13.476 6.25 13.75 6.25 13.985 6.25 14.257 6.25 14.454 6.25 14.687 6.25 14.883 6.25 15.039 6.25 15.156 6.25 15.313 6.25 15.43 6.25 15.468 12.5 31.172 12.5 31.25 12.5 31.172 6.25 15.469 6.25 15.43 6.25 15.312 6.25 15.156 6.25 15.04 6.25 14.882 6.25 14.687 6.25 14.454 6.25 14.257 6.25 13.985 6.25 13.75 6.25 13.476 6.25 13.125 6.25 12.852 6.25 12.5 6.25 12.148 6.25 11.758 6.25 11.406 6.25 10.977 6.25 10.586 6.25 10.156 6.25 9.688 6.25 9.257 6.25 8.79 6.25 8.28 6.25 7.813 6.25 7.305 6.25 6.797 6.25 6.25 6.25 5.742 6.25 5.195 6.25 4.649 6.25 4.101 6.25 3.555 6.25 2.969 6.25 2.422 6.25 1.836 6.25 1.289 6.25.703 6.25.117 6.25-.43 6.25-1.015 6.25-1.602 6.25-2.148 6.25-2.735 6.25-3.281 6.25-3.867 6.25-4.375 6.25-4.961 6.25-5.508 6.25-6.016 6.25-6.562 6.25-7.07 6.25-7.579 6.25-8.085 6.25-8.555 6.25-9.024 6.25-9.492 6.25-9.96 6.25-10.391 6.25-10.82 6.25-11.212 6.25-11.601 6.25-11.953 6.25-12.383 6.25-12.695 6.25-13.008 6.25-13.32 6.25-13.594 6.25-13.907 6.25-14.14 6.25-14.375 6.25-14.57 6.25-14.805 6.25-14.961 6.25-15.117 6.25-15.235 6.25-15.351 6.25-15.469 6.25-15.547 6.25-15.586 6.25-15.625 6.25-15.586 6.25-15.625 6.25-15.586 6.25-15.507 6.25-15.47 6.25-15.35 6.25-15.235 6.25-15.117 6.25-14.961 6.25-14.727 6.25-14.61 6.25-14.335 6.25-14.14 6.25-13.829 6.25-13.594 6.25-13.28 6.25-12.97 6.25-12.695 6.25-12.305 6.25-11.914 6.25-11.601 6.25-11.172 6.25-10.742 6.25-10.352 6.25-9.922 6.25-9.453 6.25-8.984 6.25-8.516 6.25-8.008 6.25-7.539 6.25-7.031 6.25-6.484 6.25-5.977 6.25-5.469 6.25-4.883 6.25-4.375 6.25-3.789 6.25-3.203L2605 960l6.25-2.11 6.25-1.523 6.25-.976L2630 955l6.25.195 6.25.742 6.25 1.368 6.25 1.875 6.25 2.5 6.25 3.008 6.25 3.632 6.25 4.14 6.25 4.688 6.25 5.274 6.25 5.781 6.25 6.328 6.25 6.836 6.25 7.344 6.25 7.851 6.25 8.36 6.25 8.789 6.25 9.297 6.25 9.765 6.25 10.196 6.25 10.586 6.25 11.054 6.25 11.446 6.25 11.797 6.25 12.187 6.25 12.54 6.25 12.85 6.25 13.204 6.25 13.476 6.25 13.79 6.25 13.984 6.25 14.297 6.25 14.492 6.25 14.687 6.25 14.883 6.25 15.04 6.25 15.195 6.25 15.351 6.25 15.39 6.25 15.509 6.25 15.546 18.75 46.875 6.25 15.586 6.25 15.547 6.25 15.508 6.25 15.39 6.25 15.313 6.25 15.156 6.25 15 6.25 14.844 6.25 14.688 6.25 14.453 6.25 14.219 6.25 13.984 6.25 13.71 6.25 13.438 6.25 13.125 6.25 12.774 6.25 12.46 6.25 12.15 6.25 11.718 6.25 11.367 6.25 10.938 6.25 10.546 6.25 10.079 6.25 9.687 6.25 9.18 6.25 8.75 6.25 8.242 6.25 7.773 6.25 7.227 6.25 6.758 6.25 6.21 6.25 5.665 6.25 5.156 6.25 4.61 6.25 4.062 6.25 3.476 6.25 2.93 6.25 2.344 6.25 1.797 6.25 1.25 6.25.625 6.25.078 6.25-.508 6.25-1.055 6.25-1.64 6.25-2.227 6.25-2.773 6.25-3.36 6.25-3.906 6.25-4.453 6.25-5 6.25-5.547 6.25-6.094 6.25-6.601 6.25-7.11 6.25-7.656 6.25-8.125 6.25-8.593 6.25-9.102 6.25-9.531 6.25-9.961 6.25-10.43 6.25-10.86 6.25-11.25 6.25-11.64 6.25-12.031 6.25-12.383 6.25-12.734 6.25-13.008 6.25-13.36 6.25-13.632 6.25-13.946 6.25-14.14 6.25-14.414 6.25-14.61 6.25-14.804 6.25-14.961 6.25-15.118 6.25-15.273 6.25-15.39 6.25-15.47 6.25-15.507 6.25-15.625 6.25-15.586 12.5-31.25 6.25-15.586 6.25-15.508 6.25-15.43 6.25-15.351 6.25-15.235 6.25-15.078 6.25-14.921 6.25-14.766 6.25-14.57 6.25-14.297 6.25-14.102 6.25-13.828 6.25-13.594 6.25-13.242" transform="matrix(.1 0 0 -.1 0 274)"/></g><g clip-path="url(#v)"><path style="fill:none;stroke-width:12.5;stroke-linecap:round;stroke-linejoin:round;stroke:#006400;stroke-opacity:1;stroke-miterlimit:10" d="m1092.5-122.617 6.25 96.562 6.25 91.407 6.25 86.445 6.25 81.601 6.25 76.993 6.25 72.5 6.25 68.203 6.25 64.023 6.25 60 6.25 56.172 6.25 52.422 6.25 48.906 6.25 45.43 6.25 42.148 6.25 39.024 6.25 35.976 6.25 33.086 6.25 30.274 6.25 27.695 6.25 25.117 6.25 22.735 6.25 20.43 6.25 18.28 6.25 16.172 6.25 14.22 6.25 12.382 6.25 10.586 6.25 8.906 6.25 7.383 6.25 5.86 6.25 4.53 6.25 3.204 6.25 1.992 6.25.86 6.25-.196 6.25-1.133 6.25-2.031 6.25-2.852 6.25-3.593 6.25-4.297 6.25-4.883 6.25-5.43 6.25-5.937 6.25-6.328 6.25-6.68 6.25-7.031 6.25-7.266 6.25-7.46 6.25-7.657 6.25-7.735 6.25-7.773 6.25-7.813 6.25-7.773 6.25-7.734 6.25-7.618 6.25-7.46 6.25-7.305 6.25-7.11 6.25-6.835 6.25-6.602 6.25-6.29 6.25-5.937 6.25-5.625 6.25-5.234 6.25-4.844 6.25-4.453 6.25-4.023 6.25-3.555 6.25-3.125 6.25-2.617 6.25-2.149 6.25-1.64 6.25-1.172 6.25-.625 6.25-.078 6.25.43 6.25.976 6.25 1.484 6.25 2.07 6.25 2.579 6.25 3.125 6.25 3.672 6.25 4.218 6.25 4.727 6.25 5.274 6.25 5.78 6.25 6.329 6.25 6.836 6.25 7.344 6.25 7.812 6.25 8.32 6.25 8.79 6.25 9.257 6.25 9.727 6.25 10.156 6.25 10.586 6.25 11.016 6.25 11.367 6.25 11.797 6.25 12.148 6.25 12.5 6.25 12.852 6.25 13.125 6.25 13.476 6.25 13.75 6.25 13.985 6.25 14.257 6.25 14.454 6.25 14.687 6.25 14.883 6.25 15.039 6.25 15.156 6.25 15.313 6.25 15.43 6.25 15.468 12.5 31.172 12.5 31.25 12.5 31.172 6.25 15.469 6.25 15.43 6.25 15.312 6.25 15.156 6.25 15.04 6.25 14.882 6.25 14.687 6.25 14.454 6.25 14.257 6.25 13.985 6.25 13.75 6.25 13.476 6.25 13.125 6.25 12.852 6.25 12.5 6.25 12.148 6.25 11.797 6.25 11.367 6.25 11.016 6.25 10.586 6.25 10.156 6.25 9.727 6.25 9.258 6.25 8.789 6.25 8.32 6.25 7.812 6.25 7.344 6.25 6.836 6.25 6.328 6.25 5.782 6.25 5.273 6.25 4.726 6.25 4.22 6.25 3.671 6.25 3.125 6.25 2.578 6.25 2.07 6.25 1.485 6.25.976 6.25.43 6.25-.117 6.25-.586 6.25-1.172 6.25-1.64 6.25-2.149 6.25-2.617 6.25-3.125 6.25-3.555 6.25-4.023 6.25-4.453 6.25-4.844 6.25-5.234 6.25-5.625 6.25-5.977 6.25-6.25 6.25-6.602 6.25-6.835 6.25-7.11 6.25-7.305 6.25-7.46 6.25-7.618 6.25-7.734 6.25-7.774 6.25-7.812 6.25-7.773 6.25-7.735 6.25-7.656 6.25-7.461 6.25-7.266 6.25-7.03 6.25-6.68 6.25-6.329 6.25-5.937 6.25-5.43 6.25-4.883 6.25-4.297 6.25-3.593 6.25-2.852 6.25-2.031 6.25-1.133 6.25-.195 6.25.86 6.25 1.991 6.25 3.203 6.25 4.532 6.25 5.86 6.25 7.382 6.25 8.906 6.25 10.586 6.25 12.383 6.25 14.219 6.25 16.171 6.25 18.282 6.25 20.43 6.25 22.734 6.25 25.117 6.25 27.695 6.25 30.313 6.25 33.047 6.25 35.976 6.25 39.024 6.25 42.148 6.25 45.43 6.25 48.906 6.25 52.422 6.25 56.172 6.25 60 6.25 64.023 6.25 68.203 6.25 72.5 6.25 76.993 6.25 81.601 6.25 86.445 6.25 91.407 6.25 96.562" transform="matrix(.1 0 0 -.1 0 274)"/></g><g clip-path="url(#w)"><path style="fill:none;stroke-width:12.5;stroke-linecap:round;stroke-linejoin:round;stroke:#8b0000;stroke-opacity:1;stroke-miterlimit:10" d="m861.25-183.125 6.25 132.383 6.25 124.804L880 191.72l6.25 110.86 6.25 104.413 6.25 98.203 6.25 92.422 6.25 86.797 6.25 81.524 6.25 76.523L930 914.18l6.25 67.187 6.25 62.89 6.25 58.75 6.25 54.845 6.25 51.132 6.25 47.618 6.25 44.257 6.25 41.055 6.25 38.008 6.25 35.117 6.25 32.344 6.25 29.765 6.25 27.227 6.25 24.883 6.25 22.617 6.25 20.43 6.25 18.437 6.25 16.446 6.25 14.57 6.25 12.812 6.25 11.133 6.25 9.492 6.25 7.97 6.25 6.523 6.25 5.117 6.25 3.789 6.25 2.5 6.25 1.328 6.25.195 6.25-.937 6.25-1.953 6.25-2.97 6.25-3.866 6.25-4.805 6.25-5.625 6.25-6.445 6.25-7.188 6.25-7.93 6.25-8.593 6.25-9.22 6.25-9.843 6.25-10.43 6.25-10.937 6.25-11.484 6.25-11.875 6.25-12.344 6.25-12.774 6.25-13.085 6.25-13.477 6.25-13.75 6.25-14.024 6.25-14.296 6.25-14.493 6.25-14.687 6.25-14.883 6.25-15 6.25-15.078 6.25-15.195 25-61.094 6.25-15.234 6.25-15.157 6.25-15.039 6.25-14.96 6.25-14.844 6.25-14.649 6.25-14.492 6.25-14.258 6.25-14.062 6.25-13.829 6.25-13.515 6.25-13.281 6.25-12.97 6.25-12.655 6.25-12.305 6.25-11.953 6.25-11.563 6.25-11.172 6.25-10.82 6.25-10.351 6.25-9.922 6.25-9.493 6.25-9.023 6.25-8.555 6.25-8.086 6.25-7.539 6.25-7.07 6.25-6.562 6.25-6.016 6.25-5.508 6.25-4.96 6.25-4.376 6.25-3.867 6.25-3.281 6.25-2.735 6.25-2.148 6.25-1.602 6.25-1.015 6.25-.43 6.25.117 6.25.703 6.25 1.29 6.25 1.835 6.25 2.422 6.25 2.969 6.25 3.555 6.25 4.101 6.25 4.649 6.25 5.195 6.25 5.742 6.25 6.25 6.25 6.797 6.25 7.305 6.25 7.812 6.25 8.282 6.25 8.789 6.25 9.257 6.25 9.688 6.25 10.156 6.25 10.586 6.25 10.977 6.25 11.406 6.25 11.758 6.25 12.148 6.25 12.5 6.25 12.852 6.25 13.125 6.25 13.476 6.25 13.75 6.25 13.985 6.25 14.257 6.25 14.454 6.25 14.687 6.25 14.883 6.25 15.039 6.25 15.156 6.25 15.313 6.25 15.43 6.25 15.468 12.5 31.172 12.5 31.25 12.5 31.172 6.25 15.469 6.25 15.43 6.25 15.312 6.25 15.156 6.25 15.04 6.25 14.882 6.25 14.687 6.25 14.454 6.25 14.257 6.25 13.985 6.25 13.75 6.25 13.476 6.25 13.125 6.25 12.852 6.25 12.5 6.25 12.148 6.25 11.758 6.25 11.406 6.25 10.977 6.25 10.586 6.25 10.156 6.25 9.688 6.25 9.257 6.25 8.79 6.25 8.28 6.25 7.813 6.25 7.305 6.25 6.797 6.25 6.25 6.25 5.742 6.25 5.195 6.25 4.649 6.25 4.101 6.25 3.555 6.25 2.969 6.25 2.422 6.25 1.836 6.25 1.289 6.25.703 6.25.117 6.25-.43 6.25-1.015 6.25-1.602 6.25-2.148 6.25-2.735 6.25-3.281 6.25-3.867 6.25-4.375 6.25-4.961 6.25-5.508 6.25-6.016 6.25-6.562 6.25-7.07 6.25-7.54 6.25-8.085 6.25-8.555 6.25-9.024 6.25-9.492 6.25-9.922 6.25-10.351 6.25-10.82 6.25-11.172 6.25-11.563 6.25-11.953 6.25-12.305 6.25-12.656 6.25-12.969 6.25-13.28 6.25-13.516 6.25-13.829 6.25-14.062 6.25-14.258 6.25-14.492 6.25-14.649 6.25-14.843 6.25-14.961 6.25-15.04 6.25-15.156 6.25-15.234 25-61.094 6.25-15.195 6.25-15.078 6.25-15 6.25-14.883 6.25-14.687 6.25-14.493 6.25-14.296 6.25-14.024 6.25-13.75 6.25-13.476 6.25-13.086 6.25-12.774 6.25-12.344 6.25-11.875 6.25-11.484 6.25-10.938 6.25-10.43 6.25-9.843 6.25-9.219 6.25-8.593 6.25-7.93 6.25-7.188 6.25-6.445 6.25-5.625 6.25-4.805 6.25-3.867 6.25-2.969 6.25-1.953 6.25-.937 6.25.195 6.25 1.328 6.25 2.5 6.25 3.79 6.25 5.117 6.25 6.523 6.25 7.969 6.25 9.492 6.25 11.133 6.25 12.812 6.25 14.57 6.25 16.446 6.25 18.437 6.25 20.43 6.25 22.617 6.25 24.883 6.25 27.227 6.25 29.765 6.25 32.344 6.25 35.117 6.25 38.008 6.25 41.055 6.25 44.257 6.25 47.618 6.25 51.132 6.25 54.844 6.25 58.75 6.25 62.89 6.25 67.188 6.25 71.72 6.25 76.523 6.25 81.523 6.25 86.797 6.25 92.422 6.25 98.203 6.25 104.414 6.25 110.86 6.25 117.655 6.25 124.844 6.25 132.344" transform="matrix(.1 0 0 -.1 0 274)"/></g></svg>