<svg xmlns="http://www.w3.org/2000/svg" xmlns:xlink="http://www.w3.org/1999/xlink" width="1038.564" height="367.999" viewBox="0 0 778.923 275.999"><defs><clipPath id="a"><path d="M190 10h1v255h-1zm0 0"/></clipPath><clipPath id="b"><path d="M20.5 137h340v1h-340zm0 0"/></clipPath><clipPath id="c"><path d="M20.5 10h.5v255h-.5zm0 0"/></clipPath><clipPath id="d"><path d="M105 10h1v255h-1zm0 0"/></clipPath><clipPath id="e"><path d="M190 10h1v255h-1zm0 0"/></clipPath><clipPath id="f"><path d="M275 10h1v255h-1zm0 0"/></clipPath><clipPath id="g"><path d="M360 10h.5v255h-.5zm0 0"/></clipPath><clipPath id="h"><path d="M20.5 222h340v1h-340zm0 0"/></clipPath><clipPath id="i"><path d="M20.5 179h340v2h-340zm0 0"/></clipPath><clipPath id="j"><path d="M20.5 137h340v1h-340zm0 0"/></clipPath><clipPath id="k"><path d="M20.5 94h340v2h-340zm0 0"/></clipPath><clipPath id="l"><path d="M20.5 52h340v1h-340zm0 0"/></clipPath><clipPath id="m"><path d="M20.5 10h340v1h-340zm0 0"/></clipPath><clipPath id="q"><path d="M188 269h5v6.5h-5zm0 0"/></clipPath><clipPath id="u"><path d="M367 263h12.5v6H367zm0 0"/></clipPath><clipPath id="v"><path d="M367 220h12.5v6H367zm0 0"/></clipPath><clipPath id="w"><path d="M20.5 30h340v215h-340zm0 0"/></clipPath><clipPath id="x"><path d="M589 10h1v255h-1zm0 0"/></clipPath><clipPath id="y"><path d="M419.426 137h340v1h-340zm0 0"/></clipPath><clipPath id="z"><path d="M419.426 10H420v255h-.574zm0 0"/></clipPath><clipPath id="A"><path d="M504 10h1v255h-1zm0 0"/></clipPath><clipPath id="B"><path d="M589 10h1v255h-1zm0 0"/></clipPath><clipPath id="C"><path d="M674 10h1v255h-1zm0 0"/></clipPath><clipPath id="D"><path d="M759 10h.426v255H759zm0 0"/></clipPath><clipPath id="E"><path d="M419.426 222h340v1h-340zm0 0"/></clipPath><clipPath id="F"><path d="M419.426 179h340v2h-340zm0 0"/></clipPath><clipPath id="G"><path d="M419.426 137h340v1h-340zm0 0"/></clipPath><clipPath id="H"><path d="M419.426 94h340v2h-340zm0 0"/></clipPath><clipPath id="I"><path d="M419.426 52h340v1h-340zm0 0"/></clipPath><clipPath id="J"><path d="M419.426 10h340v1h-340zm0 0"/></clipPath><clipPath id="K"><path d="M587 269h5v6.5h-5zm0 0"/></clipPath><clipPath id="L"><path d="M399.426 263H413v6h-13.574zm0 0"/></clipPath><clipPath id="M"><path d="M399.426 220H413v6h-13.574zm0 0"/></clipPath><clipPath id="N"><path d="M399.426 178H411v6h-11.574zm0 0"/></clipPath><clipPath id="O"><path d="M766 263h12.426v6H766zm0 0"/></clipPath><clipPath id="P"><path d="M766 220h12.426v6H766zm0 0"/></clipPath><clipPath id="Q"><path d="M419.426 30h340v109h-340zm0 0"/></clipPath><symbol overflow="visible" id="n"><path style="stroke:none" d="M2.125-2.344H.344v.547h1.781zm0 0"/></symbol><symbol overflow="visible" id="o"><path style="stroke:none" d="M3.797-.656H1c.063-.438.313-.703.953-1.094l.75-.406c.75-.406 1.125-.953 1.125-1.594 0-.453-.172-.86-.484-1.14-.328-.298-.719-.423-1.219-.423-.672 0-1.172.235-1.469.688-.187.281-.265.61-.281 1.156h.656c.032-.36.078-.578.157-.75.171-.328.515-.515.921-.515.594 0 1.047.421 1.047.984 0 .422-.25.781-.719 1.063l-.687.39C.64-1.672.312-1.172.25 0h3.547zm0 0"/></symbol><symbol overflow="visible" id="p"><path style="stroke:none" d="M1.938-3.781V0h.671v-5.313h-.437c-.235.813-.39.922-1.406 1.047v.485zm0 0"/></symbol><symbol overflow="visible" id="r"><path style="stroke:none" d="M2.063-5.313c-.5 0-.938.22-1.22.579C.5-4.266.329-3.563.329-2.578c0 1.797.594 2.75 1.734 2.75 1.126 0 1.735-.953 1.735-2.703 0-1.031-.156-1.719-.516-2.203-.281-.375-.719-.579-1.219-.579zm0 .579c.718 0 1.062.718 1.062 2.14 0 1.516-.344 2.219-1.078 2.219C1.344-.375 1-1.109 1-2.563c0-1.453.344-2.171 1.063-2.171zm0 0"/></symbol><symbol overflow="visible" id="s"><path style="stroke:none" d="M1.438-.781H.655V0h.781zm0 0"/></symbol><symbol overflow="visible" id="t"><path style="stroke:none" d="M1.656-2.438h.36c.734 0 1.109.329 1.109.954 0 .671-.422 1.078-1.11 1.078-.718 0-1.078-.36-1.109-1.14H.234c.032.421.11.702.235.952.281.5.797.766 1.531.766 1.094 0 1.797-.656 1.797-1.656 0-.672-.266-1.047-.906-1.266.5-.203.75-.578.75-1.11 0-.906-.61-1.453-1.625-1.453-1.079 0-1.641.579-1.657 1.72h.657c0-.329.03-.516.109-.673.156-.296.484-.468.906-.468.578 0 .938.343.938.906 0 .375-.14.594-.438.719-.172.078-.406.109-.875.109zm0 0"/></symbol></defs><g clip-path="url(#a)"><path style="fill:none;stroke-width:6.25;stroke-linecap:round;stroke-linejoin:miter;stroke:#bfbfbf;stroke-opacity:1;stroke-miterlimit:10" d="M1900 104.99v2550" transform="matrix(.1 0 0 -.1 .5 275.499)"/></g><g clip-path="url(#b)"><path style="fill:none;stroke-width:6.25;stroke-linecap:round;stroke-linejoin:miter;stroke:#bfbfbf;stroke-opacity:1;stroke-miterlimit:10" d="M200 1379.99h3400" transform="matrix(.1 0 0 -.1 .5 275.499)"/></g><g clip-path="url(#c)"><path style="fill:none;stroke-width:6.25;stroke-linecap:round;stroke-linejoin:miter;stroke:#bfbfbf;stroke-opacity:1;stroke-dasharray:12.5,18.75;stroke-miterlimit:10" d="M200 104.99v2550" transform="matrix(.1 0 0 -.1 .5 275.499)"/></g><g clip-path="url(#d)"><path style="fill:none;stroke-width:6.25;stroke-linecap:round;stroke-linejoin:miter;stroke:#bfbfbf;stroke-opacity:1;stroke-dasharray:12.5,18.75;stroke-miterlimit:10" d="M1050 104.99v2550" transform="matrix(.1 0 0 -.1 .5 275.499)"/></g><g clip-path="url(#e)"><path style="fill:none;stroke-width:6.25;stroke-linecap:round;stroke-linejoin:miter;stroke:#bfbfbf;stroke-opacity:1;stroke-dasharray:12.5,18.75;stroke-miterlimit:10" d="M1900 104.99v2550" transform="matrix(.1 0 0 -.1 .5 275.499)"/></g><g clip-path="url(#f)"><path style="fill:none;stroke-width:6.25;stroke-linecap:round;stroke-linejoin:miter;stroke:#bfbfbf;stroke-opacity:1;stroke-dasharray:12.5,18.75;stroke-miterlimit:10" d="M2750 104.99v2550" transform="matrix(.1 0 0 -.1 .5 275.499)"/></g><g clip-path="url(#g)"><path style="fill:none;stroke-width:6.25;stroke-linecap:round;stroke-linejoin:miter;stroke:#bfbfbf;stroke-opacity:1;stroke-dasharray:12.5,18.75;stroke-miterlimit:10" d="M3600 104.99v2550" transform="matrix(.1 0 0 -.1 .5 275.499)"/></g><g clip-path="url(#h)"><path style="fill:none;stroke-width:6.25;stroke-linecap:round;stroke-linejoin:miter;stroke:#bfbfbf;stroke-opacity:1;stroke-dasharray:12.5,18.75;stroke-miterlimit:10" d="M200 529.99h3400" transform="matrix(.1 0 0 -.1 .5 275.499)"/></g><g clip-path="url(#i)"><path style="fill:none;stroke-width:6.25;stroke-linecap:round;stroke-linejoin:miter;stroke:#bfbfbf;stroke-opacity:1;stroke-dasharray:12.5,18.75;stroke-miterlimit:10" d="M200 954.99h3400" transform="matrix(.1 0 0 -.1 .5 275.499)"/></g><g clip-path="url(#j)"><path style="fill:none;stroke-width:6.25;stroke-linecap:round;stroke-linejoin:miter;stroke:#bfbfbf;stroke-opacity:1;stroke-dasharray:12.5,18.75;stroke-miterlimit:10" d="M200 1379.99h3400" transform="matrix(.1 0 0 -.1 .5 275.499)"/></g><g clip-path="url(#k)"><path style="fill:none;stroke-width:6.25;stroke-linecap:round;stroke-linejoin:miter;stroke:#bfbfbf;stroke-opacity:1;stroke-dasharray:12.5,18.75;stroke-miterlimit:10" d="M200 1804.99h3400" transform="matrix(.1 0 0 -.1 .5 275.499)"/></g><g clip-path="url(#l)"><path style="fill:none;stroke-width:6.25;stroke-linecap:round;stroke-linejoin:miter;stroke:#bfbfbf;stroke-opacity:1;stroke-dasharray:12.5,18.75;stroke-miterlimit:10" d="M200 2229.99h3400" transform="matrix(.1 0 0 -.1 .5 275.499)"/></g><g clip-path="url(#m)"><path style="fill:none;stroke-width:6.25;stroke-linecap:round;stroke-linejoin:miter;stroke:#bfbfbf;stroke-opacity:1;stroke-dasharray:12.5,18.75;stroke-miterlimit:10" d="M200 2654.99h3400" transform="matrix(.1 0 0 -.1 .5 275.499)"/></g><path style="fill:none;stroke-width:12.5;stroke-linecap:square;stroke-linejoin:miter;stroke:#000;stroke-opacity:1;stroke-miterlimit:10" d="M200 104.99h3400" transform="matrix(.1 0 0 -.1 .5 275.499)"/><path style="fill:none;stroke-width:6.25;stroke-linecap:butt;stroke-linejoin:miter;stroke:#000;stroke-opacity:1;stroke-miterlimit:10" d="M200 104.99v50m85-50v25m85-25v25m85-25v25m85-25v25m85-25v25m85-25v25m85-25v25m85-25v25m85-25v25m85-25v50m85-50v25m85-25v25m85-25v25m85-25v25m85-25v25m85-25v25m85-25v25m85-25v25m85-25v25m85-25v50m85-50v25m85-25v25m85-25v25m85-25v25m85-25v25m85-25v25m85-25v25m85-25v25m85-25v25m85-25v50m85-50v25m85-25v25m85-25v25m85-25v25m85-25v25m85-25v25m85-25v25m85-25v25m85-25v25m85-25v50" transform="matrix(.1 0 0 -.1 .5 275.499)"/><g style="fill:#000;fill-opacity:1"><use xlink:href="#n" x="16.542" y="274.999"/><use xlink:href="#o" x="19.039" y="274.999"/></g><g style="fill:#000;fill-opacity:1"><use xlink:href="#n" x="101.542" y="274.999"/><use xlink:href="#p" x="104.039" y="274.999"/></g><g clip-path="url(#q)"><use xlink:href="#r" x="188.415" y="274.999" style="fill:#000;fill-opacity:1"/></g><use xlink:href="#p" x="273.415" y="274.999" style="fill:#000;fill-opacity:1"/><use xlink:href="#o" x="358.414" y="274.999" style="fill:#000;fill-opacity:1"/><path style="fill:none;stroke-width:12.5;stroke-linecap:square;stroke-linejoin:miter;stroke:#000;stroke-opacity:1;stroke-miterlimit:10" d="M200 2654.99h3400" transform="matrix(.1 0 0 -.1 .5 275.499)"/><path style="fill:none;stroke-width:6.25;stroke-linecap:butt;stroke-linejoin:miter;stroke:#000;stroke-opacity:1;stroke-miterlimit:10" d="M200 2654.99v-50m85 50v-25m85 25v-25m85 25v-25m85 25v-25m85 25v-25m85 25v-25m85 25v-25m85 25v-25m85 25v-25m85 25v-50m85 50v-25m85 25v-25m85 25v-25m85 25v-25m85 25v-25m85 25v-25m85 25v-25m85 25v-25m85 25v-25m85 25v-50m85 50v-25m85 25v-25m85 25v-25m85 25v-25m85 25v-25m85 25v-25m85 25v-25m85 25v-25m85 25v-25m85 25v-50m85 50v-25m85 25v-25m85 25v-25m85 25v-25m85 25v-25m85 25v-25m85 25v-25m85 25v-25m85 25v-25m85 25v-50" transform="matrix(.1 0 0 -.1 .5 275.499)"/><g style="fill:#000;fill-opacity:1"><use xlink:href="#n" x="16.542" y="6.874"/><use xlink:href="#o" x="19.039" y="6.874"/></g><g style="fill:#000;fill-opacity:1"><use xlink:href="#n" x="101.542" y="6.874"/><use xlink:href="#p" x="104.039" y="6.874"/></g><use xlink:href="#r" x="188.415" y="6.874" style="fill:#000;fill-opacity:1"/><use xlink:href="#p" x="273.415" y="6.874" style="fill:#000;fill-opacity:1"/><use xlink:href="#o" x="358.414" y="6.874" style="fill:#000;fill-opacity:1"/><path style="fill:none;stroke-width:12.5;stroke-linecap:square;stroke-linejoin:miter;stroke:#000;stroke-opacity:1;stroke-miterlimit:10" d="M200 104.99v2550" transform="matrix(.1 0 0 -.1 .5 275.499)"/><path style="fill:none;stroke-width:6.25;stroke-linecap:butt;stroke-linejoin:miter;stroke:#000;stroke-opacity:1;stroke-miterlimit:10" d="M200 147.49h25m-25 42.5h25m-25 42.5h25m-25 42.5h25m-25 42.5h25m-25 42.5h25m-25 42.5h25m-25 42.5h25m-25 42.5h25m-25 42.5h50m-50 42.5h25m-25 42.5h25m-25 42.5h25m-25 42.5h25m-25 42.5h25m-25 42.5h25m-25 42.5h25m-25 42.5h25m-25 42.5h25m-25 42.5h50m-50 42.5h25m-25 42.5h25m-25 42.5h25m-25 42.5h25m-25 42.5h25m-25 42.5h25m-25 42.5h25m-25 42.5h25m-25 42.5h25m-25 42.5h50m-50 42.5h25m-25 42.5h25m-25 42.5h25m-25 42.5h25m-25 42.5h25m-25 42.5h25m-25 42.5h25m-25 42.5h25m-25 42.5h25m-25 42.5h50m-50 42.5h25m-25 42.5h25m-25 42.5h25m-25 42.5h25m-25 42.5h25m-25 42.5h25m-25 42.5h25m-25 42.5h25m-25 42.5h25m-25 42.5h50m-50 42.5h25m-25 42.5h25m-25 42.5h25m-25 42.5h25m-25 42.5h25m-25 42.5h25m-25 42.5h25m-25 42.5h25m-25 42.5h25m-25 42.5h50" transform="matrix(.1 0 0 -.1 .5 275.499)"/><g style="fill:#000;fill-opacity:1"><use xlink:href="#n" x=".704" y="268.749"/><use xlink:href="#r" x="3.201" y="268.749"/><use xlink:href="#s" x="7.371" y="268.749"/><use xlink:href="#t" x="9.456" y="268.749"/></g><g style="fill:#000;fill-opacity:1"><use xlink:href="#n" x=".704" y="225.624"/><use xlink:href="#r" x="3.201" y="225.624"/><use xlink:href="#s" x="7.371" y="225.624"/><use xlink:href="#o" x="9.456" y="225.624"/></g><g style="fill:#000;fill-opacity:1"><use xlink:href="#n" x=".704" y="183.749"/><use xlink:href="#r" x="3.201" y="183.749"/><use xlink:href="#s" x="7.371" y="183.749"/><use xlink:href="#p" x="9.456" y="183.749"/></g><g style="fill:#000;fill-opacity:1"><use xlink:href="#r" x="3.201" y="141.249"/><use xlink:href="#s" x="7.371" y="141.249"/><use xlink:href="#r" x="9.456" y="141.249"/></g><g style="fill:#000;fill-opacity:1"><use xlink:href="#r" x="3.201" y="98.749"/><use xlink:href="#s" x="7.371" y="98.749"/><use xlink:href="#r" x="9.456" y="98.749"/></g><g style="fill:#000;fill-opacity:1"><use xlink:href="#r" x="3.201" y="55.624"/><use xlink:href="#s" x="7.371" y="55.624"/><use xlink:href="#o" x="9.456" y="55.624"/></g><g style="fill:#000;fill-opacity:1"><use xlink:href="#r" x="3.201" y="13.124"/><use xlink:href="#s" x="7.371" y="13.124"/><use xlink:href="#t" x="9.456" y="13.124"/></g><path style="fill:none;stroke-width:12.5;stroke-linecap:square;stroke-linejoin:miter;stroke:#000;stroke-opacity:1;stroke-miterlimit:10" d="M3600 104.99v2550" transform="matrix(.1 0 0 -.1 .5 275.499)"/><path style="fill:none;stroke-width:6.25;stroke-linecap:butt;stroke-linejoin:miter;stroke:#000;stroke-opacity:1;stroke-miterlimit:10" d="M3600 147.49h-25m25 42.5h-25m25 42.5h-25m25 42.5h-25m25 42.5h-25m25 42.5h-25m25 42.5h-25m25 42.5h-25m25 42.5h-25m25 42.5h-50m50 42.5h-25m25 42.5h-25m25 42.5h-25m25 42.5h-25m25 42.5h-25m25 42.5h-25m25 42.5h-25m25 42.5h-25m25 42.5h-25m25 42.5h-50m50 42.5h-25m25 42.5h-25m25 42.5h-25m25 42.5h-25m25 42.5h-25m25 42.5h-25m25 42.5h-25m25 42.5h-25m25 42.5h-25m25 42.5h-50m50 42.5h-25m25 42.5h-25m25 42.5h-25m25 42.5h-25m25 42.5h-25m25 42.5h-25m25 42.5h-25m25 42.5h-25m25 42.5h-25m25 42.5h-50m50 42.5h-25m25 42.5h-25m25 42.5h-25m25 42.5h-25m25 42.5h-25m25 42.5h-25m25 42.5h-25m25 42.5h-25m25 42.5h-25m25 42.5h-50m50 42.5h-25m25 42.5h-25m25 42.5h-25m25 42.5h-25m25 42.5h-25m25 42.5h-25m25 42.5h-25m25 42.5h-25m25 42.5h-25m25 42.5h-50" transform="matrix(.1 0 0 -.1 .5 275.499)"/><g style="fill:#000;fill-opacity:1" clip-path="url(#u)"><use xlink:href="#n" x="366.75" y="268.749"/><use xlink:href="#r" x="369.248" y="268.749"/><use xlink:href="#s" x="373.418" y="268.749"/><use xlink:href="#t" x="375.502" y="268.749"/></g><g style="fill:#000;fill-opacity:1" clip-path="url(#v)"><use xlink:href="#n" x="366.75" y="225.624"/><use xlink:href="#r" x="369.248" y="225.624"/><use xlink:href="#s" x="373.418" y="225.624"/><use xlink:href="#o" x="375.502" y="225.624"/></g><g style="fill:#000;fill-opacity:1"><use xlink:href="#n" x="366.75" y="183.749"/><use xlink:href="#r" x="369.248" y="183.749"/><use xlink:href="#s" x="373.418" y="183.749"/><use xlink:href="#p" x="375.502" y="183.749"/></g><g style="fill:#000;fill-opacity:1"><use xlink:href="#r" x="366.75" y="141.249"/><use xlink:href="#s" x="370.92" y="141.249"/><use xlink:href="#r" x="373.005" y="141.249"/></g><g style="fill:#000;fill-opacity:1"><use xlink:href="#r" x="366.75" y="98.749"/><use xlink:href="#s" x="370.92" y="98.749"/><use xlink:href="#r" x="373.005" y="98.749"/></g><g style="fill:#000;fill-opacity:1"><use xlink:href="#r" x="366.75" y="55.624"/><use xlink:href="#s" x="370.92" y="55.624"/><use xlink:href="#o" x="373.005" y="55.624"/></g><g style="fill:#000;fill-opacity:1"><use xlink:href="#r" x="366.75" y="13.124"/><use xlink:href="#s" x="370.92" y="13.124"/><use xlink:href="#t" x="373.005" y="13.124"/></g><g clip-path="url(#w)"><path style="fill:none;stroke-width:12.5;stroke-linecap:round;stroke-linejoin:round;stroke:#00008b;stroke-opacity:1;stroke-miterlimit:10" d="m200 1379.99 6.25 31.016 6.25 30.586 6.25 30.078 6.25 29.648 6.25 29.18 6.25 28.75 6.25 28.242 6.25 27.813 6.25 27.343 6.25 26.875 6.25 26.446 6.25 25.937 6.25 25.508 6.25 25.039 6.25 24.61 6.25 24.1 6.25 23.673 6.25 23.203 6.25 22.773 6.25 22.266 6.25 21.836 6.25 21.367 6.25 20.938 6.25 20.43 6.25 20 6.25 19.53 6.25 19.063 6.25 18.594 6.25 18.164 6.25 17.695 6.25 17.227 6.25 16.797 6.25 16.289 6.25 15.859 6.25 15.39 6.25 14.962 6.25 14.453 6.25 14.023 6.25 13.555 6.25 13.125 6.25 12.617 6.25 12.188 6.25 11.718 6.25 11.25 6.25 10.82 6.25 10.313 6.25 9.883 6.25 9.414 6.25 8.984 6.25 8.477 6.25 8.047 6.25 7.578 6.25 7.148 6.25 6.64 6.25 6.212 6.25 5.742 6.25 5.313 6.25 4.804 6.25 4.375 6.25 3.906 6.25 3.438 6.25 3.008 6.25 2.5 6.25 2.07 6.25 1.602 6.25 1.172 6.25.664 6.25.234 6.25-.234 6.25-.664 6.25-1.172 6.25-1.602 6.25-2.07 6.25-2.5 6.25-3.008 6.25-3.438 6.25-3.906 6.25-4.375 6.25-4.804 6.25-5.313 6.25-5.742 6.25-6.211 6.25-6.64 6.25-7.15 6.25-7.577 6.25-8.047 6.25-8.477 6.25-8.984 6.25-9.414 6.25-9.883 6.25-10.312 6.25-10.82 6.25-11.25 6.25-11.72 6.25-12.187 6.25-12.617 6.25-13.125 6.25-13.555 6.25-14.023 6.25-14.453 6.25-14.961 6.25-15.391 6.25-15.86 6.25-16.288 6.25-16.797 6.25-17.227 6.25-17.695 6.25-18.164 6.25-18.594 6.25-19.062 6.25-19.532 6.25-20 6.25-20.43 6.25-20.937 6.25-21.367 6.25-21.836 6.25-22.266 6.25-22.773 6.25-23.203 6.25-23.672 6.25-24.102 6.25-24.61 6.25-25.038 6.25-25.508 6.25-25.937 6.25-26.446 6.25-26.875 6.25-27.343 6.25-27.813 6.25-28.242 6.25-28.75 6.25-29.18 6.25-29.648 6.25-30.078 6.25-30.586 12.5-62.032 6.25-30.546 6.25-30.118 6.25-29.648 6.25-29.18 6.25-28.71 6.25-28.243 6.25-27.812 6.25-27.344 6.25-26.875 6.25-26.446 6.25-25.976 6.25-25.508 6.25-25.039 6.25-24.57 6.25-24.14 6.25-23.673 6.25-23.203 6.25-22.734 6.25-22.305 6.25-21.836 6.25-21.367 6.25-20.899 6.25-20.468 6.25-19.961 6.25-19.531 6.25-19.102 6.25-18.594 6.25-18.164 6.25-17.695 6.25-17.227 6.25-16.757 6.25-16.329 6.25-15.859 6.25-15.39 6.25-14.923 6.25-14.492 6.25-14.023 6.25-13.555 6.25-13.086 6.25-12.656 6.25-12.148 6.25-11.72 6.25-11.288 6.25-10.781 6.25-10.352 6.25-9.883 6.25-9.414 6.25-8.945 6.25-8.516 6.25-8.047 6.25-7.578 6.25-7.11 6.25-6.679 6.25-6.21 6.25-5.743 6.25-5.274 6.25-4.843 6.25-4.336 6.25-3.906 6.25-3.477 6.25-2.969 6.25-2.539 6.25-2.07 6.25-1.602 6.25-1.132 6.25-.704 6.25-.234 6.25.234 6.25.704 6.25 1.132 6.25 1.602 6.25 2.07 6.25 2.54 6.25 2.968 6.25 3.477 6.25 3.906 6.25 4.336 6.25 4.844 6.25 5.273 6.25 5.742 6.25 6.211 6.25 6.68 6.25 7.11 6.25 7.577 6.25 8.047 6.25 8.516 6.25 8.945 6.25 9.414 6.25 9.883 6.25 10.351 6.25 10.782 6.25 11.289 6.25 11.719 6.25 12.148 6.25 12.656 6.25 13.086 6.25 13.555 6.25 14.023 6.25 14.493 6.25 14.921 6.25 15.391 6.25 15.86 6.25 16.327 6.25 16.758 6.25 17.227 6.25 17.695 6.25 18.164 6.25 18.594 6.25 19.102 6.25 19.53 6.25 19.962 6.25 20.469 6.25 20.898 6.25 21.367 6.25 21.836 6.25 22.305 6.25 22.734 6.25 23.203 6.25 23.672 6.25 24.14 6.25 24.571 6.25 25.04 6.25 25.507 6.25 25.976 6.25 26.446 6.25 26.875 6.25 27.344 6.25 27.812 6.25 28.242 6.25 28.711 6.25 29.18 6.25 29.648 6.25 30.118 6.25 30.546 12.5 62.032 6.25 30.586 6.25 30.078 6.25 29.648 6.25 29.18 6.25 28.75 6.25 28.242 6.25 27.813 6.25 27.343 6.25 26.875 6.25 26.446 6.25 25.937 6.25 25.508 6.25 25.039 6.25 24.61 6.25 24.1 6.25 23.673 6.25 23.203 6.25 22.773 6.25 22.266 6.25 21.836 6.25 21.367 6.25 20.938 6.25 20.43 6.25 20 6.25 19.53 6.25 19.063 6.25 18.594 6.25 18.164 6.25 17.695 6.25 17.227 6.25 16.797 6.25 16.289 6.25 15.859 6.25 15.39 6.25 14.962 6.25 14.453 6.25 14.023 6.25 13.555 6.25 13.125 6.25 12.617 6.25 12.188 6.25 11.718 6.25 11.25 6.25 10.82 6.25 10.313 6.25 9.883 6.25 9.414 6.25 8.984 6.25 8.477 6.25 8.047 6.25 7.578 6.25 7.148 6.25 6.64 6.25 6.212 6.25 5.742 6.25 5.313 6.25 4.804 6.25 4.375 6.25 3.906 6.25 3.438 6.25 3.008 6.25 2.5 6.25 2.07 6.25 1.602 6.25 1.172 6.25.664 6.25.234 6.25-.234 6.25-.664 6.25-1.172 6.25-1.602 6.25-2.07 6.25-2.5 6.25-3.008 6.25-3.438 6.25-3.906 6.25-4.375 6.25-4.804 6.25-5.313 6.25-5.742 6.25-6.211 6.25-6.64 6.25-7.15 6.25-7.577 6.25-8.047 6.25-8.477 6.25-8.984 6.25-9.414 6.25-9.883 6.25-10.312 6.25-10.82 6.25-11.25 6.25-11.72 6.25-12.187 6.25-12.617 6.25-13.125 6.25-13.555 6.25-14.023 6.25-14.453 6.25-14.961 6.25-15.391 6.25-15.86 6.25-16.288 6.25-16.797 6.25-17.227 6.25-17.695 6.25-18.164 6.25-18.594 6.25-19.062 6.25-19.532 6.25-20 6.25-20.43 6.25-20.937 6.25-21.367 6.25-21.836 6.25-22.266 6.25-22.773 6.25-23.203 6.25-23.672 6.25-24.102 6.25-24.61 6.25-25.038 6.25-25.508 6.25-25.937 6.25-26.446 6.25-26.875 6.25-27.343 6.25-27.813 6.25-28.242 6.25-28.75 6.25-29.18 6.25-29.648 6.25-30.078 6.25-30.586 12.5-62.032 6.25-30.546 6.25-30.118 6.25-29.648 6.25-29.18 6.25-28.71 6.25-28.243 6.25-27.812 6.25-27.344 6.25-26.875 6.25-26.446 6.25-25.976 6.25-25.508 6.25-25.039 6.25-24.57 6.25-24.14 6.25-23.673 6.25-23.203 6.25-22.734 6.25-22.305 6.25-21.836 6.25-21.367 6.25-20.899 6.25-20.468 6.25-19.961 6.25-19.531 6.25-19.102 6.25-18.594 6.25-18.164 6.25-17.695 6.25-17.227 6.25-16.757 6.25-16.329 6.25-15.859 6.25-15.39 6.25-14.923 6.25-14.492 6.25-14.023 6.25-13.555 6.25-13.086 6.25-12.656 6.25-12.148 6.25-11.72 6.25-11.288 6.25-10.781 6.25-10.352 6.25-9.883 6.25-9.414 6.25-8.945 6.25-8.516 6.25-8.047 6.25-7.578 6.25-7.11 6.25-6.679 6.25-6.21 6.25-5.743 6.25-5.274 6.25-4.843 6.25-4.336 6.25-3.906 6.25-3.477 6.25-2.969 6.25-2.539 6.25-2.07 6.25-1.602 6.25-1.132 6.25-.704 6.25-.234 6.25.234 6.25.704 6.25 1.132 6.25 1.602 6.25 2.07 6.25 2.54 6.25 2.968 6.25 3.477 6.25 3.906 6.25 4.336 6.25 4.844 6.25 5.273 6.25 5.742 6.25 6.211 6.25 6.68 6.25 7.11 6.25 7.577 6.25 8.047 6.25 8.516 6.25 8.945 6.25 9.414 6.25 9.883 6.25 10.351 6.25 10.782 6.25 11.289 6.25 11.719 6.25 12.148 6.25 12.656 6.25 13.086 6.25 13.555 6.25 14.023 6.25 14.493 6.25 14.921 6.25 15.391 6.25 15.86 6.25 16.327 6.25 16.758 6.25 17.227 6.25 17.695 6.25 18.164 6.25 18.594 6.25 19.102 6.25 19.53 6.25 19.962 6.25 20.469 6.25 20.898 6.25 21.367 6.25 21.836 6.25 22.305 6.25 22.734 6.25 23.203 6.25 23.672 6.25 24.14 6.25 24.571 6.25 25.04 6.25 25.507 6.25 25.976 6.25 26.446 6.25 26.875 6.25 27.344 6.25 27.812 6.25 28.242 6.25 28.711 6.25 29.18 6.25 29.648 6.25 30.118 6.25 30.546 6.25 31.016" transform="matrix(.1 0 0 -.1 .5 275.499)"/></g><g clip-path="url(#x)"><path style="fill:none;stroke-width:6.25;stroke-linecap:round;stroke-linejoin:miter;stroke:#bfbfbf;stroke-opacity:1;stroke-miterlimit:10" d="M1900.018 104.99v2550" transform="matrix(.1 0 0 -.1 399.424 275.499)"/></g><g clip-path="url(#y)"><path style="fill:none;stroke-width:6.25;stroke-linecap:round;stroke-linejoin:miter;stroke:#bfbfbf;stroke-opacity:1;stroke-miterlimit:10" d="M200.018 1379.99h3400" transform="matrix(.1 0 0 -.1 399.424 275.499)"/></g><g clip-path="url(#z)"><path style="fill:none;stroke-width:6.25;stroke-linecap:round;stroke-linejoin:miter;stroke:#bfbfbf;stroke-opacity:1;stroke-dasharray:12.5,18.75;stroke-miterlimit:10" d="M200.018 104.99v2550" transform="matrix(.1 0 0 -.1 399.424 275.499)"/></g><g clip-path="url(#A)"><path style="fill:none;stroke-width:6.25;stroke-linecap:round;stroke-linejoin:miter;stroke:#bfbfbf;stroke-opacity:1;stroke-dasharray:12.5,18.75;stroke-miterlimit:10" d="M1050.018 104.99v2550" transform="matrix(.1 0 0 -.1 399.424 275.499)"/></g><g clip-path="url(#B)"><path style="fill:none;stroke-width:6.25;stroke-linecap:round;stroke-linejoin:miter;stroke:#bfbfbf;stroke-opacity:1;stroke-dasharray:12.5,18.75;stroke-miterlimit:10" d="M1900.018 104.99v2550" transform="matrix(.1 0 0 -.1 399.424 275.499)"/></g><g clip-path="url(#C)"><path style="fill:none;stroke-width:6.25;stroke-linecap:round;stroke-linejoin:miter;stroke:#bfbfbf;stroke-opacity:1;stroke-dasharray:12.5,18.75;stroke-miterlimit:10" d="M2750.018 104.99v2550" transform="matrix(.1 0 0 -.1 399.424 275.499)"/></g><g clip-path="url(#D)"><path style="fill:none;stroke-width:6.25;stroke-linecap:round;stroke-linejoin:miter;stroke:#bfbfbf;stroke-opacity:1;stroke-dasharray:12.5,18.75;stroke-miterlimit:10" d="M3600.018 104.99v2550" transform="matrix(.1 0 0 -.1 399.424 275.499)"/></g><g clip-path="url(#E)"><path style="fill:none;stroke-width:6.25;stroke-linecap:round;stroke-linejoin:miter;stroke:#bfbfbf;stroke-opacity:1;stroke-dasharray:12.5,18.75;stroke-miterlimit:10" d="M200.018 529.99h3400" transform="matrix(.1 0 0 -.1 399.424 275.499)"/></g><g clip-path="url(#F)"><path style="fill:none;stroke-width:6.25;stroke-linecap:round;stroke-linejoin:miter;stroke:#bfbfbf;stroke-opacity:1;stroke-dasharray:12.5,18.75;stroke-miterlimit:10" d="M200.018 954.99h3400" transform="matrix(.1 0 0 -.1 399.424 275.499)"/></g><g clip-path="url(#G)"><path style="fill:none;stroke-width:6.25;stroke-linecap:round;stroke-linejoin:miter;stroke:#bfbfbf;stroke-opacity:1;stroke-dasharray:12.5,18.75;stroke-miterlimit:10" d="M200.018 1379.99h3400" transform="matrix(.1 0 0 -.1 399.424 275.499)"/></g><g clip-path="url(#H)"><path style="fill:none;stroke-width:6.25;stroke-linecap:round;stroke-linejoin:miter;stroke:#bfbfbf;stroke-opacity:1;stroke-dasharray:12.5,18.75;stroke-miterlimit:10" d="M200.018 1804.99h3400" transform="matrix(.1 0 0 -.1 399.424 275.499)"/></g><g clip-path="url(#I)"><path style="fill:none;stroke-width:6.25;stroke-linecap:round;stroke-linejoin:miter;stroke:#bfbfbf;stroke-opacity:1;stroke-dasharray:12.5,18.75;stroke-miterlimit:10" d="M200.018 2229.99h3400" transform="matrix(.1 0 0 -.1 399.424 275.499)"/></g><g clip-path="url(#J)"><path style="fill:none;stroke-width:6.25;stroke-linecap:round;stroke-linejoin:miter;stroke:#bfbfbf;stroke-opacity:1;stroke-dasharray:12.5,18.75;stroke-miterlimit:10" d="M200.018 2654.99h3400" transform="matrix(.1 0 0 -.1 399.424 275.499)"/></g><path style="fill:none;stroke-width:12.5;stroke-linecap:square;stroke-linejoin:miter;stroke:#000;stroke-opacity:1;stroke-miterlimit:10" d="M200.018 104.99h3400" transform="matrix(.1 0 0 -.1 399.424 275.499)"/><path style="fill:none;stroke-width:6.25;stroke-linecap:butt;stroke-linejoin:miter;stroke:#000;stroke-opacity:1;stroke-miterlimit:10" d="M200.018 104.99v50m84.961-50v25m85-25v25m85.039-25v25m85-25v25m85-25v25m85-25v25m84.961-25v25m85.039-25v25m84.961-25v25m85.039-25v50m85-50v25m85-25v25m85-25v25m85-25v25m85-25v25m85-25v25m85-25v25m85-25v25m85-25v25m85-25v50m85-50v25m85-25v25m85-25v25m85-25v25m85-25v25m85-25v25m85-25v25m85-25v25m85-25v25m85-25v50m85-50v25m85-25v25m85-25v25m85-25v25m85-25v25m85-25v25m85-25v25m85-25v25m85-25v25m85-25v50" transform="matrix(.1 0 0 -.1 399.424 275.499)"/><g style="fill:#000;fill-opacity:1"><use xlink:href="#n" x="415.466" y="274.999"/><use xlink:href="#o" x="417.963" y="274.999"/></g><g style="fill:#000;fill-opacity:1"><use xlink:href="#n" x="500.466" y="274.999"/><use xlink:href="#p" x="502.963" y="274.999"/></g><g clip-path="url(#K)"><use xlink:href="#r" x="587.339" y="274.999" style="fill:#000;fill-opacity:1"/></g><use xlink:href="#p" x="672.339" y="274.999" style="fill:#000;fill-opacity:1"/><use xlink:href="#o" x="757.338" y="274.999" style="fill:#000;fill-opacity:1"/><path style="fill:none;stroke-width:12.5;stroke-linecap:square;stroke-linejoin:miter;stroke:#000;stroke-opacity:1;stroke-miterlimit:10" d="M200.018 2654.99h3400" transform="matrix(.1 0 0 -.1 399.424 275.499)"/><path style="fill:none;stroke-width:6.25;stroke-linecap:butt;stroke-linejoin:miter;stroke:#000;stroke-opacity:1;stroke-miterlimit:10" d="M200.018 2654.99v-50m84.961 50v-25m85 25v-25m85.039 25v-25m85 25v-25m85 25v-25m85 25v-25m84.961 25v-25m85.039 25v-25m84.961 25v-25m85.039 25v-50m85 50v-25m85 25v-25m85 25v-25m85 25v-25m85 25v-25m85 25v-25m85 25v-25m85 25v-25m85 25v-25m85 25v-50m85 50v-25m85 25v-25m85 25v-25m85 25v-25m85 25v-25m85 25v-25m85 25v-25m85 25v-25m85 25v-25m85 25v-50m85 50v-25m85 25v-25m85 25v-25m85 25v-25m85 25v-25m85 25v-25m85 25v-25m85 25v-25m85 25v-25m85 25v-50" transform="matrix(.1 0 0 -.1 399.424 275.499)"/><g style="fill:#000;fill-opacity:1"><use xlink:href="#n" x="415.466" y="6.874"/><use xlink:href="#o" x="417.963" y="6.874"/></g><g style="fill:#000;fill-opacity:1"><use xlink:href="#n" x="500.466" y="6.874"/><use xlink:href="#p" x="502.963" y="6.874"/></g><use xlink:href="#r" x="587.339" y="6.874" style="fill:#000;fill-opacity:1"/><use xlink:href="#p" x="672.339" y="6.874" style="fill:#000;fill-opacity:1"/><use xlink:href="#o" x="757.338" y="6.874" style="fill:#000;fill-opacity:1"/><path style="fill:none;stroke-width:12.5;stroke-linecap:square;stroke-linejoin:miter;stroke:#000;stroke-opacity:1;stroke-miterlimit:10" d="M200.018 104.99v2550" transform="matrix(.1 0 0 -.1 399.424 275.499)"/><path style="fill:none;stroke-width:6.25;stroke-linecap:butt;stroke-linejoin:miter;stroke:#000;stroke-opacity:1;stroke-miterlimit:10" d="M200.018 147.49h25m-25 42.5h25m-25 42.5h25m-25 42.5h25m-25 42.5h25m-25 42.5h25m-25 42.5h25m-25 42.5h25m-25 42.5h25m-25 42.5h50m-50 42.5h25m-25 42.5h25m-25 42.5h25m-25 42.5h25m-25 42.5h25m-25 42.5h25m-25 42.5h25m-25 42.5h25m-25 42.5h25m-25 42.5h50m-50 42.5h25m-25 42.5h25m-25 42.5h25m-25 42.5h25m-25 42.5h25m-25 42.5h25m-25 42.5h25m-25 42.5h25m-25 42.5h25m-25 42.5h50m-50 42.5h25m-25 42.5h25m-25 42.5h25m-25 42.5h25m-25 42.5h25m-25 42.5h25m-25 42.5h25m-25 42.5h25m-25 42.5h25m-25 42.5h50m-50 42.5h25m-25 42.5h25m-25 42.5h25m-25 42.5h25m-25 42.5h25m-25 42.5h25m-25 42.5h25m-25 42.5h25m-25 42.5h25m-25 42.5h50m-50 42.5h25m-25 42.5h25m-25 42.5h25m-25 42.5h25m-25 42.5h25m-25 42.5h25m-25 42.5h25m-25 42.5h25m-25 42.5h25m-25 42.5h50" transform="matrix(.1 0 0 -.1 399.424 275.499)"/><g style="fill:#000;fill-opacity:1" clip-path="url(#L)"><use xlink:href="#n" x="399.628" y="268.749"/><use xlink:href="#r" x="402.125" y="268.749"/><use xlink:href="#s" x="406.295" y="268.749"/><use xlink:href="#t" x="408.38" y="268.749"/></g><g style="fill:#000;fill-opacity:1" clip-path="url(#M)"><use xlink:href="#n" x="399.628" y="225.624"/><use xlink:href="#r" x="402.125" y="225.624"/><use xlink:href="#s" x="406.295" y="225.624"/><use xlink:href="#o" x="408.38" y="225.624"/></g><g style="fill:#000;fill-opacity:1" clip-path="url(#N)"><use xlink:href="#n" x="399.628" y="183.749"/><use xlink:href="#r" x="402.125" y="183.749"/><use xlink:href="#s" x="406.295" y="183.749"/><use xlink:href="#p" x="408.38" y="183.749"/></g><g style="fill:#000;fill-opacity:1"><use xlink:href="#r" x="402.125" y="141.249"/><use xlink:href="#s" x="406.295" y="141.249"/><use xlink:href="#r" x="408.38" y="141.249"/></g><g style="fill:#000;fill-opacity:1"><use xlink:href="#r" x="402.125" y="98.749"/><use xlink:href="#s" x="406.295" y="98.749"/><use xlink:href="#r" x="408.38" y="98.749"/></g><g style="fill:#000;fill-opacity:1"><use xlink:href="#r" x="402.125" y="55.624"/><use xlink:href="#s" x="406.295" y="55.624"/><use xlink:href="#o" x="408.38" y="55.624"/></g><g style="fill:#000;fill-opacity:1"><use xlink:href="#r" x="402.125" y="13.124"/><use xlink:href="#s" x="406.295" y="13.124"/><use xlink:href="#t" x="408.38" y="13.124"/></g><path style="fill:none;stroke-width:12.5;stroke-linecap:square;stroke-linejoin:miter;stroke:#000;stroke-opacity:1;stroke-miterlimit:10" d="M3600.018 104.99v2550" transform="matrix(.1 0 0 -.1 399.424 275.499)"/><path style="fill:none;stroke-width:6.25;stroke-linecap:butt;stroke-linejoin:miter;stroke:#000;stroke-opacity:1;stroke-miterlimit:10" d="M3600.018 147.49h-25m25 42.5h-25m25 42.5h-25m25 42.5h-25m25 42.5h-25m25 42.5h-25m25 42.5h-25m25 42.5h-25m25 42.5h-25m25 42.5h-50m50 42.5h-25m25 42.5h-25m25 42.5h-25m25 42.5h-25m25 42.5h-25m25 42.5h-25m25 42.5h-25m25 42.5h-25m25 42.5h-25m25 42.5h-50m50 42.5h-25m25 42.5h-25m25 42.5h-25m25 42.5h-25m25 42.5h-25m25 42.5h-25m25 42.5h-25m25 42.5h-25m25 42.5h-25m25 42.5h-50m50 42.5h-25m25 42.5h-25m25 42.5h-25m25 42.5h-25m25 42.5h-25m25 42.5h-25m25 42.5h-25m25 42.5h-25m25 42.5h-25m25 42.5h-50m50 42.5h-25m25 42.5h-25m25 42.5h-25m25 42.5h-25m25 42.5h-25m25 42.5h-25m25 42.5h-25m25 42.5h-25m25 42.5h-25m25 42.5h-50m50 42.5h-25m25 42.5h-25m25 42.5h-25m25 42.5h-25m25 42.5h-25m25 42.5h-25m25 42.5h-25m25 42.5h-25m25 42.5h-25m25 42.5h-50" transform="matrix(.1 0 0 -.1 399.424 275.499)"/><g style="fill:#000;fill-opacity:1" clip-path="url(#O)"><use xlink:href="#n" x="765.674" y="268.749"/><use xlink:href="#r" x="768.172" y="268.749"/><use xlink:href="#s" x="772.341" y="268.749"/><use xlink:href="#t" x="774.427" y="268.749"/></g><g style="fill:#000;fill-opacity:1" clip-path="url(#P)"><use xlink:href="#n" x="765.674" y="225.624"/><use xlink:href="#r" x="768.172" y="225.624"/><use xlink:href="#s" x="772.341" y="225.624"/><use xlink:href="#o" x="774.427" y="225.624"/></g><g style="fill:#000;fill-opacity:1"><use xlink:href="#n" x="765.674" y="183.749"/><use xlink:href="#r" x="768.172" y="183.749"/><use xlink:href="#s" x="772.341" y="183.749"/><use xlink:href="#p" x="774.427" y="183.749"/></g><g style="fill:#000;fill-opacity:1"><use xlink:href="#r" x="765.674" y="141.249"/><use xlink:href="#s" x="769.844" y="141.249"/><use xlink:href="#r" x="771.929" y="141.249"/></g><g style="fill:#000;fill-opacity:1"><use xlink:href="#r" x="765.674" y="98.749"/><use xlink:href="#s" x="769.844" y="98.749"/><use xlink:href="#r" x="771.929" y="98.749"/></g><g style="fill:#000;fill-opacity:1"><use xlink:href="#r" x="765.674" y="55.624"/><use xlink:href="#s" x="769.844" y="55.624"/><use xlink:href="#o" x="771.929" y="55.624"/></g><g style="fill:#000;fill-opacity:1"><use xlink:href="#r" x="765.674" y="13.124"/><use xlink:href="#s" x="769.844" y="13.124"/><use xlink:href="#t" x="771.929" y="13.124"/></g><g clip-path="url(#Q)"><path style="fill:none;stroke-width:12.5;stroke-linecap:round;stroke-linejoin:round;stroke:#00008b;stroke-opacity:1;stroke-miterlimit:10" d="m200.018 1379.99 6.25 31.016 6.25 30.586 6.25 30.078 6.25 29.648 6.25 29.18 6.25 28.75 6.25 28.242 6.25 27.813 6.25 27.343 6.25 26.875 6.25 26.446 6.25 25.937 6.25 25.508 6.25 25.039 6.25 24.61 6.25 24.1 6.25 23.673 6.25 23.203 6.25 22.773 6.25 22.266 6.25 21.836 6.25 21.367 6.25 20.938 6.25 20.43 6.25 20 6.25 19.53 6.25 19.063 6.25 18.594 6.25 18.164 6.25 17.695 6.25 17.227 6.25 16.797 6.25 16.289 6.25 15.859 6.25 15.39 6.25 14.962 6.25 14.453 6.25 14.023 6.25 13.555 6.25 13.125 6.25 12.617 6.25 12.188 6.25 11.718 6.25 11.25 6.25 10.82 6.25 10.313 6.25 9.883 6.25 9.414 6.25 8.984 6.25 8.477 6.25 8.047 6.25 7.578 6.25 7.148 6.25 6.64 6.25 6.212 6.25 5.742 6.25 5.313 6.25 4.804 6.25 4.375 6.25 3.906 6.25 3.438 6.25 3.008 6.25 2.5 6.25 2.07 6.25 1.602 6.25 1.172 6.25.664 6.25.234 6.25-.234 6.25-.664 6.25-1.172 6.25-1.602 6.25-2.07 6.25-2.5 6.25-3.008 6.25-3.438 6.25-3.906 6.25-4.375 6.25-4.804 6.25-5.313 6.25-5.742 6.25-6.211 6.25-6.64 6.25-7.15 6.25-7.577 6.25-8.047 6.25-8.477 6.25-8.984 6.25-9.414 6.25-9.883 6.25-10.312 6.25-10.82 6.25-11.25 6.25-11.72 6.25-12.187 6.25-12.617 6.25-13.125 6.25-13.555 6.25-14.023 6.25-14.453 6.25-14.961 6.25-15.391 6.25-15.86 6.25-16.288 6.25-16.797 6.25-17.227 6.25-17.695 6.25-18.164 6.25-18.594 6.25-19.062 6.25-19.532 6.25-20 6.25-20.43 6.25-20.937 6.25-21.367 6.25-21.836 6.25-22.266 6.25-22.773 6.25-23.203 6.25-23.672 6.25-24.102 6.25-24.61 6.25-25.038 6.25-25.508 6.25-25.937 6.25-26.446 6.25-26.875 6.25-27.343 6.25-27.813 6.25-28.242 6.25-28.75 6.25-29.18 6.25-29.648 6.25-30.078 6.25-30.586 6.25-31.016 6.25 31.016 6.25 30.586 6.25 30.078 6.25 29.648 6.25 29.18 6.25 28.75 6.25 28.242 6.25 27.813 6.25 27.343 6.25 26.875 6.25 26.446 6.25 25.937 6.25 25.508 6.25 25.039 6.25 24.61 6.25 24.1 6.25 23.673 6.25 23.203 6.25 22.773 6.25 22.266 6.25 21.836 6.25 21.367 6.25 20.938 6.25 20.43 6.25 20 6.25 19.53 6.25 19.063 6.25 18.594 6.25 18.164 6.25 17.695 6.25 17.227 6.25 16.797 6.25 16.289 6.25 15.859 6.25 15.39 6.25 14.962 6.25 14.453 6.25 14.023 6.25 13.555 6.25 13.125 6.25 12.617 6.25 12.188 6.25 11.718 6.25 11.25 6.25 10.82 6.25 10.313 6.25 9.883 6.25 9.414 6.25 8.984 6.25 8.477 6.25 8.047 6.25 7.578 6.25 7.148 6.25 6.64 6.25 6.212 6.25 5.742 6.25 5.313 6.25 4.804 6.25 4.375 6.25 3.906 6.25 3.438 6.25 3.008 6.25 2.5 6.25 2.07 6.25 1.602 6.25 1.172 6.25.664 6.25.234 6.25-.234 6.25-.664 6.25-1.172 6.25-1.602 6.25-2.07 6.25-2.5 6.25-3.008 6.25-3.438 6.25-3.906 6.25-4.375 6.25-4.804 6.25-5.313 6.25-5.742 6.25-6.211 6.25-6.64 6.25-7.15 6.25-7.577 6.25-8.047 6.25-8.477 6.25-8.984 6.25-9.414 6.25-9.883 6.25-10.312 6.25-10.82 6.25-11.25 6.25-11.72 6.25-12.187 6.25-12.617 6.25-13.125 6.25-13.555 6.25-14.023 6.25-14.453 6.25-14.961 6.25-15.391 6.25-15.86 6.25-16.288 6.25-16.797 6.25-17.227 6.25-17.695 6.25-18.164 6.25-18.594 6.25-19.062 6.25-19.532 6.25-20 6.25-20.43 6.25-20.937 6.25-21.367 6.25-21.836 6.25-22.266 6.25-22.773 6.25-23.203 6.25-23.672 6.25-24.102 6.25-24.61 6.25-25.038 6.25-25.508 6.25-25.937 6.25-26.446 6.25-26.875 6.25-27.343 6.25-27.813 6.25-28.242 6.25-28.75 6.25-29.18 6.25-29.648 6.25-30.078 6.25-30.586 6.25-31.016 6.25 31.016 6.25 30.586 6.25 30.078 6.25 29.648 6.25 29.18 6.25 28.75 6.25 28.242 6.25 27.813 6.25 27.343 6.25 26.875 6.25 26.446 6.25 25.937 6.25 25.508 6.25 25.039 6.25 24.61 6.25 24.1 6.25 23.673 6.25 23.203 6.25 22.773 6.25 22.266 6.25 21.836 6.25 21.367 6.25 20.938 6.25 20.43 6.25 20 6.25 19.53 6.25 19.063 6.25 18.594 6.25 18.164 6.25 17.695 6.25 17.227 6.25 16.797 6.25 16.289 6.25 15.859 6.25 15.39 6.25 14.962 6.25 14.453 6.25 14.023 6.25 13.555 6.25 13.125 6.25 12.617 6.25 12.188 6.25 11.718 6.25 11.25 6.25 10.82 6.25 10.313 6.25 9.883 6.25 9.414 6.25 8.984 6.25 8.477 6.25 8.047 6.25 7.578 6.25 7.148 6.25 6.64 6.25 6.212 6.25 5.742 6.25 5.313 6.25 4.804 6.25 4.375 6.25 3.906 6.25 3.438 6.25 3.008 6.25 2.5 6.25 2.07 6.25 1.602 6.25 1.172 6.25.664 6.25.234 6.25-.234 6.25-.664 6.25-1.172 6.25-1.602 6.25-2.07 6.25-2.5 6.25-3.008 6.25-3.438 6.25-3.906 6.25-4.375 6.25-4.804 6.25-5.313 6.25-5.742 6.25-6.211 6.25-6.64 6.25-7.15 6.25-7.577 6.25-8.047 6.25-8.477 6.25-8.984 6.25-9.414 6.25-9.883 6.25-10.312 6.25-10.82 6.25-11.25 6.25-11.72 6.25-12.187 6.25-12.617 6.25-13.125 6.25-13.555 6.25-14.023 6.25-14.453 6.25-14.961 6.25-15.391 6.25-15.86 6.25-16.288 6.25-16.797 6.25-17.227 6.25-17.695 6.25-18.164 6.25-18.594 6.25-19.062 6.25-19.532 6.25-20 6.25-20.43 6.25-20.937 6.25-21.367 6.25-21.836 6.25-22.266 6.25-22.773 6.25-23.203 6.25-23.672 6.25-24.102 6.25-24.61 6.25-25.038 6.25-25.508 6.25-25.937 6.25-26.446 6.25-26.875 6.25-27.343 6.25-27.813 6.25-28.242 6.25-28.75 6.25-29.18 6.25-29.648 6.25-30.078 6.25-30.586 6.25-31.016 6.25 31.016 6.25 30.586 6.25 30.078 6.25 29.648 6.25 29.18 6.25 28.75 6.25 28.242 6.25 27.813 6.25 27.343 6.25 26.875 6.25 26.446 6.25 25.937 6.25 25.508 6.25 25.039 6.25 24.61 6.25 24.1 6.25 23.673 6.25 23.203 6.25 22.773 6.25 22.266 6.25 21.836 6.25 21.367 6.25 20.938 6.25 20.43 6.25 20 6.25 19.53 6.25 19.063 6.25 18.594 6.25 18.164 6.25 17.695 6.25 17.227 6.25 16.797 6.25 16.289 6.25 15.859 6.25 15.39 6.25 14.962 6.25 14.453 6.25 14.023 6.25 13.555 6.25 13.125 6.25 12.617 6.25 12.188 6.25 11.718 6.25 11.25 6.25 10.82 6.25 10.313 6.25 9.883 6.25 9.414 6.25 8.984 6.25 8.477 6.25 8.047 6.25 7.578 6.25 7.148 6.25 6.64 6.25 6.212 6.25 5.742 6.25 5.313 6.25 4.804 6.25 4.375 6.25 3.906 6.25 3.438 6.25 3.008 6.25 2.5 6.25 2.07 6.25 1.602 6.25 1.172 6.25.664 6.25.234 6.25-.234 6.25-.664 6.25-1.172 6.25-1.602 6.25-2.07 6.25-2.5 6.25-3.008 6.25-3.438 6.25-3.906 6.25-4.375 6.25-4.804 6.25-5.313 6.25-5.742 6.25-6.211 6.25-6.64 6.25-7.15 6.25-7.577 6.25-8.047 6.25-8.477 6.25-8.984 6.25-9.414 6.25-9.883 6.25-10.312 6.25-10.82 6.25-11.25 6.25-11.72 6.25-12.187 6.25-12.617 6.25-13.125 6.25-13.555 6.25-14.023 6.25-14.453 6.25-14.961 6.25-15.391 6.25-15.86 6.25-16.288 6.25-16.797 6.25-17.227 6.25-17.695 6.25-18.164 6.25-18.594 6.25-19.062 6.25-19.532 6.25-20 6.25-20.43 6.25-20.937 6.25-21.367 6.25-21.836 6.25-22.266 6.25-22.773 6.25-23.203 6.25-23.672 6.25-24.102 6.25-24.61 6.25-25.038 6.25-25.508 6.25-25.937 6.25-26.446 6.25-26.875 6.25-27.343 6.25-27.813 6.25-28.242 6.25-28.75 6.25-29.18 6.25-29.648 6.25-30.078 6.25-30.586 6.25-31.016" transform="matrix(.1 0 0 -.1 399.424 275.499)"/></g></svg>