<svg xmlns="http://www.w3.org/2000/svg" xmlns:xlink="http://www.w3.org/1999/xlink" width="488" height="274pt" viewBox="0 0 366 274"><defs><clipPath id="a"><path d="M13 8.5h1v255h-1zm0 0"/></clipPath><clipPath id="b"><path d="M13 135h340v2H13zm0 0"/></clipPath><clipPath id="c"><path d="M13 8.5h1v255h-1zm0 0"/></clipPath><clipPath id="d"><path d="M109 8.5h2v255h-2zm0 0"/></clipPath><clipPath id="e"><path d="M206 8.5h2v255h-2zm0 0"/></clipPath><clipPath id="f"><path d="M304 8.5h1v255h-1zm0 0"/></clipPath><clipPath id="g"><path d="M13 263h340v.5H13zm0 0"/></clipPath><clipPath id="h"><path d="M13 199h340v2H13zm0 0"/></clipPath><clipPath id="i"><path d="M13 135h340v2H13zm0 0"/></clipPath><clipPath id="j"><path d="M13 71h340v2H13zm0 0"/></clipPath><clipPath id="k"><path d="M13 8.5h340V9H13zm0 0"/></clipPath><clipPath id="q"><path d="M13 8.5h340V150H13zm0 0"/></clipPath><clipPath id="r"><path d="M13 8.5h86V154H13zm0 0"/></clipPath><clipPath id="s"><path d="M81 8.5h172v255H81zm0 0"/></clipPath><clipPath id="t"><path d="M233 8.5h120v255H233zm0 0"/></clipPath><symbol overflow="visible" id="l"><path style="stroke:none" d="M2.063-5.313c-.5 0-.938.22-1.22.579C.5-4.266.329-3.563.329-2.578c0 1.797.594 2.75 1.734 2.75 1.126 0 1.735-.953 1.735-2.703 0-1.031-.156-1.719-.516-2.203-.281-.375-.719-.579-1.219-.579zm0 .579c.718 0 1.062.718 1.062 2.14 0 1.516-.344 2.219-1.078 2.219C1.344-.375 1-1.109 1-2.563c0-1.453.344-2.171 1.063-2.171zm0 0"/></symbol><symbol overflow="visible" id="m"><path style="stroke:none" d="M3.797-.656H1c.063-.438.313-.703.953-1.094l.75-.406c.75-.406 1.125-.953 1.125-1.594 0-.453-.172-.86-.484-1.14-.328-.298-.719-.423-1.219-.423-.672 0-1.172.235-1.469.688-.187.281-.265.61-.281 1.156h.656c.032-.36.078-.578.157-.75.171-.328.515-.515.921-.515.594 0 1.047.421 1.047.984 0 .422-.25.781-.719 1.063l-.687.39C.64-1.672.312-1.172.25 0h3.547zm0 0"/></symbol><symbol overflow="visible" id="n"><path style="stroke:none" d="M2.453-1.281V0h.656v-1.281h.797v-.594H3.11v-3.438h-.484L.203-1.969v.688zm0-.594H.781l1.672-2.313zm0 0"/></symbol><symbol overflow="visible" id="o"><path style="stroke:none" d="M3.734-3.938c-.125-.859-.703-1.374-1.5-1.374-.593 0-1.109.28-1.437.75-.328.515-.469 1.171-.469 2.14 0 .89.125 1.469.438 1.938.296.421.75.656 1.343.656 1.016 0 1.735-.75 1.735-1.797 0-.984-.672-1.688-1.625-1.688-.531 0-.938.204-1.219.594 0-1.297.422-2.015 1.188-2.015.453 0 .78.296.89.796zm-1.593 1.22c.64 0 1.03.437 1.03 1.155 0 .657-.452 1.157-1.062 1.157-.609 0-1.078-.516-1.078-1.203 0-.657.453-1.11 1.11-1.11zm0 0"/></symbol><symbol overflow="visible" id="p"><path style="stroke:none" d="M2.125-2.344H.344v.547h1.781zm0 0"/></symbol></defs><g clip-path="url(#a)"><path style="fill:none;stroke-width:6.25;stroke-linecap:round;stroke-linejoin:miter;stroke:#bfbfbf;stroke-opacity:1;stroke-miterlimit:10" d="M130 105v2550" transform="matrix(.1 0 0 -.1 0 274)"/></g><g clip-path="url(#b)"><path style="fill:none;stroke-width:6.25;stroke-linecap:round;stroke-linejoin:miter;stroke:#bfbfbf;stroke-opacity:1;stroke-miterlimit:10" d="M130 1380h3400" transform="matrix(.1 0 0 -.1 0 274)"/></g><g clip-path="url(#c)"><path style="fill:none;stroke-width:6.25;stroke-linecap:round;stroke-linejoin:miter;stroke:#bfbfbf;stroke-opacity:1;stroke-dasharray:12.5,18.75;stroke-miterlimit:10" d="M130 105v2550" transform="matrix(.1 0 0 -.1 0 274)"/></g><g clip-path="url(#d)"><path style="fill:none;stroke-width:6.25;stroke-linecap:round;stroke-linejoin:miter;stroke:#bfbfbf;stroke-opacity:1;stroke-dasharray:12.5,18.75;stroke-miterlimit:10" d="M1101.445 105v2550" transform="matrix(.1 0 0 -.1 0 274)"/></g><g clip-path="url(#e)"><path style="fill:none;stroke-width:6.25;stroke-linecap:round;stroke-linejoin:miter;stroke:#bfbfbf;stroke-opacity:1;stroke-dasharray:12.5,18.75;stroke-miterlimit:10" d="M2072.852 105v2550" transform="matrix(.1 0 0 -.1 0 274)"/></g><g clip-path="url(#f)"><path style="fill:none;stroke-width:6.25;stroke-linecap:round;stroke-linejoin:miter;stroke:#bfbfbf;stroke-opacity:1;stroke-dasharray:12.5,18.75;stroke-miterlimit:10" d="M3044.297 105v2550" transform="matrix(.1 0 0 -.1 0 274)"/></g><g clip-path="url(#g)"><path style="fill:none;stroke-width:6.25;stroke-linecap:round;stroke-linejoin:miter;stroke:#bfbfbf;stroke-opacity:1;stroke-dasharray:12.5,18.75;stroke-miterlimit:10" d="M130 105h3400" transform="matrix(.1 0 0 -.1 0 274)"/></g><g clip-path="url(#h)"><path style="fill:none;stroke-width:6.25;stroke-linecap:round;stroke-linejoin:miter;stroke:#bfbfbf;stroke-opacity:1;stroke-dasharray:12.5,18.75;stroke-miterlimit:10" d="M130 742.5h3400" transform="matrix(.1 0 0 -.1 0 274)"/></g><g clip-path="url(#i)"><path style="fill:none;stroke-width:6.25;stroke-linecap:round;stroke-linejoin:miter;stroke:#bfbfbf;stroke-opacity:1;stroke-dasharray:12.5,18.75;stroke-miterlimit:10" d="M130 1380h3400" transform="matrix(.1 0 0 -.1 0 274)"/></g><g clip-path="url(#j)"><path style="fill:none;stroke-width:6.25;stroke-linecap:round;stroke-linejoin:miter;stroke:#bfbfbf;stroke-opacity:1;stroke-dasharray:12.5,18.75;stroke-miterlimit:10" d="M130 2017.5h3400" transform="matrix(.1 0 0 -.1 0 274)"/></g><g clip-path="url(#k)"><path style="fill:none;stroke-width:6.25;stroke-linecap:round;stroke-linejoin:miter;stroke:#bfbfbf;stroke-opacity:1;stroke-dasharray:12.5,18.75;stroke-miterlimit:10" d="M130 2655h3400" transform="matrix(.1 0 0 -.1 0 274)"/></g><path style="fill:none;stroke-width:12.5;stroke-linecap:square;stroke-linejoin:miter;stroke:#000;stroke-opacity:1;stroke-miterlimit:10" d="M130 105h3400" transform="matrix(.1 0 0 -.1 0 274)"/><path style="fill:none;stroke-width:6.25;stroke-linecap:butt;stroke-linejoin:miter;stroke:#000;stroke-opacity:1;stroke-miterlimit:10" d="M130 105v50m97.148-50v25m97.149-25v25m97.148-25v25m97.11-25v25m97.148-25v25m97.149-25v25M810 105v25m97.148-25v25m97.149-25v25m97.148-25v50m97.11-50v25m97.148-25v25m97.149-25v25M1490 105v25m97.148-25v25m97.149-25v25m97.148-25v25m97.11-25v25m97.148-25v25m97.149-25v50M2170 105v25m97.148-25v25m97.149-25v25m97.148-25v25m97.11-25v25m97.148-25v25m97.149-25v25M2850 105v25m97.148-25v25m97.149-25v50m97.148-50v25m97.11-25v25m97.148-25v25m97.149-25v25M3530 105v25" transform="matrix(.1 0 0 -.1 0 274)"/><use xlink:href="#l" x="10.29" y="273.5" style="fill:#000;fill-opacity:1"/><use xlink:href="#m" x="107.79" y="273.5" style="fill:#000;fill-opacity:1"/><use xlink:href="#n" x="204.665" y="273.5" style="fill:#000;fill-opacity:1"/><use xlink:href="#o" x="302.165" y="273.5" style="fill:#000;fill-opacity:1"/><path style="fill:none;stroke-width:12.5;stroke-linecap:square;stroke-linejoin:miter;stroke:#000;stroke-opacity:1;stroke-miterlimit:10" d="M130 2655h3400" transform="matrix(.1 0 0 -.1 0 274)"/><path style="fill:none;stroke-width:6.25;stroke-linecap:butt;stroke-linejoin:miter;stroke:#000;stroke-opacity:1;stroke-miterlimit:10" d="M130 2655v-50m97.148 50v-25m97.149 25v-25m97.148 25v-25m97.11 25v-25m97.148 25v-25m97.149 25v-25M810 2655v-25m97.148 25v-25m97.149 25v-25m97.148 25v-50m97.11 50v-25m97.148 25v-25m97.149 25v-25m97.148 25v-25m97.148 25v-25m97.149 25v-25m97.148 25v-25m97.11 25v-25m97.148 25v-25m97.149 25v-50m97.148 50v-25m97.148 25v-25m97.149 25v-25m97.148 25v-25m97.11 25v-25m97.148 25v-25m97.149 25v-25m97.148 25v-25m97.148 25v-25m97.149 25v-50m97.148 50v-25m97.11 25v-25m97.148 25v-25m97.149 25v-25m97.148 25v-25" transform="matrix(.1 0 0 -.1 0 274)"/><use xlink:href="#l" x="10.29" y="5.375" style="fill:#000;fill-opacity:1"/><use xlink:href="#m" x="107.79" y="5.375" style="fill:#000;fill-opacity:1"/><use xlink:href="#n" x="204.665" y="5.375" style="fill:#000;fill-opacity:1"/><use xlink:href="#o" x="302.165" y="5.375" style="fill:#000;fill-opacity:1"/><path style="fill:none;stroke-width:12.5;stroke-linecap:square;stroke-linejoin:miter;stroke:#000;stroke-opacity:1;stroke-miterlimit:10" d="M130 105v2550" transform="matrix(.1 0 0 -.1 0 274)"/><path style="fill:none;stroke-width:6.25;stroke-linecap:butt;stroke-linejoin:miter;stroke:#000;stroke-opacity:1;stroke-miterlimit:10" d="M130 105h50m-50 63.75h25m-25 63.75h25m-25 63.75h25M130 360h25m-25 63.75h25m-25 63.75h25m-25 63.75h25M130 615h25m-25 63.75h25m-25 63.75h50m-50 63.75h25M130 870h25m-25 63.75h25m-25 63.75h25m-25 63.75h25M130 1125h25m-25 63.75h25m-25 63.75h25m-25 63.75h25M130 1380h50m-50 63.75h25m-25 63.75h25m-25 63.75h25M130 1635h25m-25 63.75h25m-25 63.75h25m-25 63.75h25M130 1890h25m-25 63.75h25m-25 63.75h50m-50 63.75h25M130 2145h25m-25 63.75h25m-25 63.75h25m-25 63.75h25M130 2400h25m-25 63.75h25m-25 63.75h25m-25 63.75h25M130 2655h50" transform="matrix(.1 0 0 -.1 0 274)"/><g style="fill:#000;fill-opacity:1"><use xlink:href="#p" x="-.542" y="267.25"/><use xlink:href="#n" x="1.956" y="267.25"/></g><g style="fill:#000;fill-opacity:1"><use xlink:href="#p" x="-.542" y="202.875"/><use xlink:href="#m" x="1.956" y="202.875"/></g><use xlink:href="#l" x="1.955" y="139.125" style="fill:#000;fill-opacity:1"/><use xlink:href="#m" x="1.955" y="75.375" style="fill:#000;fill-opacity:1"/><use xlink:href="#n" x="1.955" y="11.625" style="fill:#000;fill-opacity:1"/><path style="fill:none;stroke-width:12.5;stroke-linecap:square;stroke-linejoin:miter;stroke:#000;stroke-opacity:1;stroke-miterlimit:10" d="M3530 105v2550" transform="matrix(.1 0 0 -.1 0 274)"/><path style="fill:none;stroke-width:6.25;stroke-linecap:butt;stroke-linejoin:miter;stroke:#000;stroke-opacity:1;stroke-miterlimit:10" d="M3530 105h-50m50 63.75h-25m25 63.75h-25m25 63.75h-25m25 63.75h-25m25 63.75h-25m25 63.75h-25m25 63.75h-25m25 63.75h-25m25 63.75h-25m25 63.75h-50m50 63.75h-25m25 63.75h-25m25 63.75h-25m25 63.75h-25m25 63.75h-25m25 63.75h-25m25 63.75h-25m25 63.75h-25m25 63.75h-25m25 63.75h-50m50 63.75h-25m25 63.75h-25m25 63.75h-25m25 63.75h-25m25 63.75h-25m25 63.75h-25m25 63.75h-25m25 63.75h-25m25 63.75h-25m25 63.75h-50m50 63.75h-25m25 63.75h-25m25 63.75h-25m25 63.75h-25m25 63.75h-25m25 63.75h-25m25 63.75h-25m25 63.75h-25m25 63.75h-25m25 63.75h-50" transform="matrix(.1 0 0 -.1 0 274)"/><g style="fill:#000;fill-opacity:1"><use xlink:href="#p" x="359.25" y="267.25"/><use xlink:href="#n" x="361.748" y="267.25"/></g><g style="fill:#000;fill-opacity:1"><use xlink:href="#p" x="359.25" y="202.875"/><use xlink:href="#m" x="361.748" y="202.875"/></g><use xlink:href="#l" x="359.25" y="139.125" style="fill:#000;fill-opacity:1"/><use xlink:href="#m" x="359.25" y="75.375" style="fill:#000;fill-opacity:1"/><use xlink:href="#n" x="359.25" y="11.625" style="fill:#000;fill-opacity:1"/><g clip-path="url(#q)"><path style="fill:none;stroke-width:12.5;stroke-linecap:round;stroke-linejoin:miter;stroke:#00008b;stroke-opacity:1;stroke-miterlimit:10" d="m227.148 2973.75 48.555-531.25 48.594-265.625 48.555-159.375 48.593-106.25L470 1835.352l48.555-56.915 48.593-44.257 48.555-35.43 48.594-28.984 48.555-24.141 48.593-20.43 48.555-17.5 48.555-15.195 48.593-13.281 48.555-11.719 48.594-10.43 48.555-9.297 48.593-8.398 48.555-7.578 48.555-6.914 48.593-6.29 48.555-5.78 48.594-5.313 48.555-4.883 48.593-4.57 48.555-4.219 48.555-3.906 48.593-3.672 48.555-3.438 48.594-3.203 48.555-3.007 48.593-2.852 48.555-2.695 48.555-2.5 48.593-2.422 48.555-2.266 48.594-2.148 48.555-2.032 48.593-1.953 48.555-1.836 48.555-1.757 48.593-1.68 48.555-1.64 48.594-1.524 48.555-1.485 48.593-1.406 48.555-1.367 48.555-1.289 48.593-1.25 48.555-1.21 48.594-1.134 48.555-1.133 48.593-1.054 48.555-1.055 48.555-.976 48.593-.977 48.555-.938 48.594-.898 48.555-.86 48.593-.859 48.555-.82 48.555-.781 48.593-.782 48.555-.742 48.594-.703 48.555-.703 48.593-.664 48.555-.664" transform="matrix(.1 0 0 -.1 0 274)"/></g><g clip-path="url(#r)"><path style="fill:none;stroke-width:12.5;stroke-linecap:round;stroke-linejoin:miter;stroke:#006400;stroke-opacity:1;stroke-miterlimit:10" d="m130 1380 48.555 31.992 48.593 32.617 48.555 33.985 48.594 36.172 48.555 39.375 48.593 43.945 48.555 50.39 48.555 59.727 48.593 73.477 48.555 94.765 48.594 129.844 48.555 193.594 48.593 328.281L810 3228.086" transform="matrix(.1 0 0 -.1 0 274)"/></g><g clip-path="url(#s)"><path style="fill:none;stroke-width:12.5;stroke-linecap:round;stroke-linejoin:miter;stroke:#006400;stroke-opacity:1;stroke-miterlimit:10" d="m990.117-192.422 48.555 541.992 48.555 276.524 48.593 170.43 48.555 117.578 48.594 87.46 48.554 68.868 48.594 56.64 48.555 48.243 48.555 42.46 48.593 38.32 48.555 35.43 48.594 33.516 48.554 32.344 48.594 31.953 48.555 32.07 48.555 32.969 48.593 34.531 48.555 36.992 48.594 40.508 48.554 45.625 48.594 52.774 48.555 63.164 48.555 78.75 48.593 103.125 48.555 144.453 48.594 222.265 48.554 397.032 48.594 942.5" transform="matrix(.1 0 0 -.1 0 274)"/></g><g clip-path="url(#t)"><path style="fill:none;stroke-width:12.5;stroke-linecap:round;stroke-linejoin:miter;stroke:#006400;stroke-opacity:1;stroke-miterlimit:10" d="m2516.016-192.422 48.593 541.992 48.555 276.524 48.555 170.43 48.593 117.578 48.555 87.46 48.555 68.868 48.594 56.64 48.593 48.243 48.555 42.46 48.555 38.32 48.593 35.43 48.555 33.516 48.555 32.344 48.594 31.953 48.593 32.07 48.555 32.969 48.555 34.531 48.593 36.992 48.555 40.508 48.555 45.625 48.594 52.774 48.593 63.164 48.555 78.75 48.555 103.125 48.593 144.453 48.555 222.265 48.555 397.032 48.594 942.5" transform="matrix(.1 0 0 -.1 0 274)"/></g></svg>