<svg xmlns="http://www.w3.org/2000/svg" xmlns:xlink="http://www.w3.org/1999/xlink" width="1021.231" height="367.999" viewBox="0 0 765.923 275.999"><defs><clipPath id="a"><path d="M13.5 10h.5v255h-.5zm0 0"/></clipPath><clipPath id="b"><path d="M13.5 137h340v1h-340zm0 0"/></clipPath><clipPath id="c"><path d="M13.5 10h.5v255h-.5zm0 0"/></clipPath><clipPath id="d"><path d="M98 10h1v255h-1zm0 0"/></clipPath><clipPath id="e"><path d="M183 10h1v255h-1zm0 0"/></clipPath><clipPath id="f"><path d="M268 10h1v255h-1zm0 0"/></clipPath><clipPath id="g"><path d="M353 10h.5v255h-.5zm0 0"/></clipPath><clipPath id="h"><path d="M13.5 253h340v1h-340zm0 0"/></clipPath><clipPath id="i"><path d="M13.5 195h340v1h-340zm0 0"/></clipPath><clipPath id="j"><path d="M13.5 137h340v1h-340zm0 0"/></clipPath><clipPath id="k"><path d="M13.5 79h340v1h-340zm0 0"/></clipPath><clipPath id="l"><path d="M13.5 21h340v1h-340zm0 0"/></clipPath><clipPath id="m"><path d="M7 269h11v6.5H7zm0 0"/></clipPath><clipPath id="p"><path d="M92 269h11v6.5H92zm0 0"/></clipPath><clipPath id="s"><path d="M178 269h11v6.5h-11zm0 0"/></clipPath><clipPath id="t"><path d="M263 269h11v6.5h-11zm0 0"/></clipPath><clipPath id="v"><path d="M346 269h15v6.5h-15zm0 0"/></clipPath><clipPath id="x"><path d="M.5 251H7v6H.5zm0 0"/></clipPath><clipPath id="z"><path d="M.5 193H6v6H.5zm0 0"/></clipPath><clipPath id="A"><path d="M360 251h6.5v6H360zm0 0"/></clipPath><clipPath id="B"><path d="M13.5 61h340v153h-340zm0 0"/></clipPath><clipPath id="C"><path d="M13.5 10h340v255h-340zm0 0"/></clipPath><clipPath id="D"><path d="M406.426 10H407v255h-.574zm0 0"/></clipPath><clipPath id="E"><path d="M406.426 137h340v1h-340zm0 0"/></clipPath><clipPath id="F"><path d="M406.426 10H407v255h-.574zm0 0"/></clipPath><clipPath id="G"><path d="M491 10h1v255h-1zm0 0"/></clipPath><clipPath id="H"><path d="M576 10h1v255h-1zm0 0"/></clipPath><clipPath id="I"><path d="M661 10h1v255h-1zm0 0"/></clipPath><clipPath id="J"><path d="M746 10h.426v255H746zm0 0"/></clipPath><clipPath id="K"><path d="M406.426 253h340v1h-340zm0 0"/></clipPath><clipPath id="L"><path d="M406.426 195h340v1h-340zm0 0"/></clipPath><clipPath id="M"><path d="M406.426 137h340v1h-340zm0 0"/></clipPath><clipPath id="N"><path d="M406.426 79h340v1h-340zm0 0"/></clipPath><clipPath id="O"><path d="M406.426 21h340v1h-340zm0 0"/></clipPath><clipPath id="P"><path d="M400 269h11v6.5h-11zm0 0"/></clipPath><clipPath id="Q"><path d="M485 269h11v6.5h-11zm0 0"/></clipPath><clipPath id="R"><path d="M571 269h11v6.5h-11zm0 0"/></clipPath><clipPath id="S"><path d="M656 269h11v6.5h-11zm0 0"/></clipPath><clipPath id="T"><path d="M739 269h15v6.5h-15zm0 0"/></clipPath><clipPath id="U"><path d="M386.426 251H400v7h-13.574zm0 0"/></clipPath><clipPath id="V"><path d="M386.426 193H400v6h-13.574zm0 0"/></clipPath><clipPath id="W"><path d="M753 251h12.426v7H753zm0 0"/></clipPath><clipPath id="X"><path d="M753 193h12.426v6H753zm0 0"/></clipPath><clipPath id="Y"><path d="M406.426 10h340v255h-340zm0 0"/></clipPath><symbol overflow="visible" id="n"><path style="stroke:none" d="M2.063-5.313c-.5 0-.938.22-1.22.579C.5-4.266.329-3.563.329-2.578c0 1.797.594 2.75 1.734 2.75 1.126 0 1.735-.953 1.735-2.703 0-1.031-.156-1.719-.516-2.203-.281-.375-.719-.579-1.219-.579zm0 .579c.718 0 1.062.718 1.062 2.14 0 1.516-.344 2.219-1.078 2.219C1.344-.375 1-1.109 1-2.563c0-1.453.344-2.171 1.063-2.171zm0 0"/></symbol><symbol overflow="visible" id="o"><path style="stroke:none" d="M1.438-.781H.655V0h.781zm0 0"/></symbol><symbol overflow="visible" id="q"><path style="stroke:none" d="M3.797-.656H1c.063-.438.313-.703.953-1.094l.75-.406c.75-.406 1.125-.953 1.125-1.594 0-.453-.172-.86-.484-1.14-.328-.298-.719-.423-1.219-.423-.672 0-1.172.235-1.469.688-.187.281-.265.61-.281 1.156h.656c.032-.36.078-.578.157-.75.171-.328.515-.515.921-.515.594 0 1.047.421 1.047.984 0 .422-.25.781-.719 1.063l-.687.39C.64-1.672.312-1.172.25 0h3.547zm0 0"/></symbol><symbol overflow="visible" id="r"><path style="stroke:none" d="M3.563-5.313H.828L.422-2.421h.61c.312-.375.562-.5.984-.5.703 0 1.156.485 1.156 1.281 0 .766-.438 1.235-1.156 1.235-.579 0-.938-.297-1.094-.906H.266c.093.437.156.656.312.843.313.406.844.64 1.453.64 1.063 0 1.813-.78 1.813-1.905 0-1.047-.688-1.766-1.719-1.766-.375 0-.672.094-.984.313l.218-1.485h2.204zm0 0"/></symbol><symbol overflow="visible" id="u"><path style="stroke:none" d="M3.906-5.313H.344v.641h2.875C1.953-2.859 1.438-1.75 1.03 0h.703c.297-1.703.97-3.172 2.172-4.766zm0 0"/></symbol><symbol overflow="visible" id="w"><path style="stroke:none" d="M1.938-3.781V0h.671v-5.313h-.437c-.235.813-.39.922-1.406 1.047v.485zm0 0"/></symbol><symbol overflow="visible" id="y"><path style="stroke:none" d="M2.125-2.344H.344v.547h1.781zm0 0"/></symbol></defs><g clip-path="url(#a)"><path style="fill:none;stroke-width:6.25;stroke-linecap:round;stroke-linejoin:miter;stroke:#bfbfbf;stroke-opacity:1;stroke-miterlimit:10" d="M130 104.99v2550" transform="matrix(.1 0 0 -.1 .5 275.499)"/></g><g clip-path="url(#b)"><path style="fill:none;stroke-width:6.25;stroke-linecap:round;stroke-linejoin:miter;stroke:#bfbfbf;stroke-opacity:1;stroke-miterlimit:10" d="M130 1379.99h3400" transform="matrix(.1 0 0 -.1 .5 275.499)"/></g><g clip-path="url(#c)"><path style="fill:none;stroke-width:6.25;stroke-linecap:round;stroke-linejoin:miter;stroke:#bfbfbf;stroke-opacity:1;stroke-dasharray:12.5,18.75;stroke-miterlimit:10" d="M130 104.99v2550" transform="matrix(.1 0 0 -.1 .5 275.499)"/></g><g clip-path="url(#d)"><path style="fill:none;stroke-width:6.25;stroke-linecap:round;stroke-linejoin:miter;stroke:#bfbfbf;stroke-opacity:1;stroke-dasharray:12.5,18.75;stroke-miterlimit:10" d="M980 104.99v2550" transform="matrix(.1 0 0 -.1 .5 275.499)"/></g><g clip-path="url(#e)"><path style="fill:none;stroke-width:6.25;stroke-linecap:round;stroke-linejoin:miter;stroke:#bfbfbf;stroke-opacity:1;stroke-dasharray:12.5,18.75;stroke-miterlimit:10" d="M1830 104.99v2550" transform="matrix(.1 0 0 -.1 .5 275.499)"/></g><g clip-path="url(#f)"><path style="fill:none;stroke-width:6.25;stroke-linecap:round;stroke-linejoin:miter;stroke:#bfbfbf;stroke-opacity:1;stroke-dasharray:12.5,18.75;stroke-miterlimit:10" d="M2680 104.99v2550" transform="matrix(.1 0 0 -.1 .5 275.499)"/></g><g clip-path="url(#g)"><path style="fill:none;stroke-width:6.25;stroke-linecap:round;stroke-linejoin:miter;stroke:#bfbfbf;stroke-opacity:1;stroke-dasharray:12.5,18.75;stroke-miterlimit:10" d="M3530 104.99v2550" transform="matrix(.1 0 0 -.1 .5 275.499)"/></g><g clip-path="url(#h)"><path style="fill:none;stroke-width:6.25;stroke-linecap:round;stroke-linejoin:miter;stroke:#bfbfbf;stroke-opacity:1;stroke-dasharray:12.5,18.75;stroke-miterlimit:10" d="M130 220.928h3400" transform="matrix(.1 0 0 -.1 .5 275.499)"/></g><g clip-path="url(#i)"><path style="fill:none;stroke-width:6.25;stroke-linecap:round;stroke-linejoin:miter;stroke:#bfbfbf;stroke-opacity:1;stroke-dasharray:12.5,18.75;stroke-miterlimit:10" d="M130 800.459h3400" transform="matrix(.1 0 0 -.1 .5 275.499)"/></g><g clip-path="url(#j)"><path style="fill:none;stroke-width:6.25;stroke-linecap:round;stroke-linejoin:miter;stroke:#bfbfbf;stroke-opacity:1;stroke-dasharray:12.5,18.75;stroke-miterlimit:10" d="M130 1379.99h3400" transform="matrix(.1 0 0 -.1 .5 275.499)"/></g><g clip-path="url(#k)"><path style="fill:none;stroke-width:6.25;stroke-linecap:round;stroke-linejoin:miter;stroke:#bfbfbf;stroke-opacity:1;stroke-dasharray:12.5,18.75;stroke-miterlimit:10" d="M130 1959.56h3400" transform="matrix(.1 0 0 -.1 .5 275.499)"/></g><g clip-path="url(#l)"><path style="fill:none;stroke-width:6.25;stroke-linecap:round;stroke-linejoin:miter;stroke:#bfbfbf;stroke-opacity:1;stroke-dasharray:12.5,18.75;stroke-miterlimit:10" d="M130 2539.092h3400" transform="matrix(.1 0 0 -.1 .5 275.499)"/></g><path style="fill:none;stroke-width:12.5;stroke-linecap:square;stroke-linejoin:miter;stroke:#000;stroke-opacity:1;stroke-miterlimit:10" d="M130 104.99h3400" transform="matrix(.1 0 0 -.1 .5 275.499)"/><path style="fill:none;stroke-width:6.25;stroke-linecap:butt;stroke-linejoin:miter;stroke:#000;stroke-opacity:1;stroke-miterlimit:10" d="M130 104.99v50m85-50v25m85-25v25m85-25v25m85-25v25m85-25v25m85-25v25m85-25v25m85-25v25m85-25v25m85-25v50m85-50v25m85-25v25m85-25v25m85-25v25m85-25v25m85-25v25m85-25v25m85-25v25m85-25v25m85-25v50m85-50v25m85-25v25m85-25v25m85-25v25m85-25v25m85-25v25m85-25v25m85-25v25m85-25v25m85-25v50m85-50v25m85-25v25m85-25v25m85-25v25m85-25v25m85-25v25m85-25v25m85-25v25m85-25v25m85-25v50" transform="matrix(.1 0 0 -.1 .5 275.499)"/><g style="fill:#000;fill-opacity:1" clip-path="url(#m)"><use xlink:href="#n" x="7.663" y="274.999"/><use xlink:href="#o" x="11.833" y="274.999"/><use xlink:href="#n" x="13.918" y="274.999"/></g><g style="fill:#000;fill-opacity:1" clip-path="url(#p)"><use xlink:href="#q" x="92.663" y="274.999"/><use xlink:href="#o" x="96.833" y="274.999"/><use xlink:href="#r" x="98.918" y="274.999"/></g><g style="fill:#000;fill-opacity:1" clip-path="url(#s)"><use xlink:href="#r" x="178.288" y="274.999"/><use xlink:href="#o" x="182.458" y="274.999"/><use xlink:href="#n" x="184.543" y="274.999"/></g><g style="fill:#000;fill-opacity:1" clip-path="url(#t)"><use xlink:href="#u" x="263.288" y="274.999"/><use xlink:href="#o" x="267.458" y="274.999"/><use xlink:href="#r" x="269.543" y="274.999"/></g><g style="fill:#000;fill-opacity:1" clip-path="url(#v)"><use xlink:href="#w" x="346.203" y="274.999"/><use xlink:href="#n" x="350.373" y="274.999"/><use xlink:href="#o" x="354.543" y="274.999"/><use xlink:href="#n" x="356.628" y="274.999"/></g><path style="fill:none;stroke-width:12.5;stroke-linecap:square;stroke-linejoin:miter;stroke:#000;stroke-opacity:1;stroke-miterlimit:10" d="M130 2654.99h3400" transform="matrix(.1 0 0 -.1 .5 275.499)"/><path style="fill:none;stroke-width:6.25;stroke-linecap:butt;stroke-linejoin:miter;stroke:#000;stroke-opacity:1;stroke-miterlimit:10" d="M130 2654.99v-50m85 50v-25m85 25v-25m85 25v-25m85 25v-25m85 25v-25m85 25v-25m85 25v-25m85 25v-25m85 25v-25m85 25v-50m85 50v-25m85 25v-25m85 25v-25m85 25v-25m85 25v-25m85 25v-25m85 25v-25m85 25v-25m85 25v-25m85 25v-50m85 50v-25m85 25v-25m85 25v-25m85 25v-25m85 25v-25m85 25v-25m85 25v-25m85 25v-25m85 25v-25m85 25v-50m85 50v-25m85 25v-25m85 25v-25m85 25v-25m85 25v-25m85 25v-25m85 25v-25m85 25v-25m85 25v-25m85 25v-50" transform="matrix(.1 0 0 -.1 .5 275.499)"/><g style="fill:#000;fill-opacity:1"><use xlink:href="#n" x="7.663" y="6.874"/><use xlink:href="#o" x="11.833" y="6.874"/><use xlink:href="#n" x="13.918" y="6.874"/></g><g style="fill:#000;fill-opacity:1"><use xlink:href="#q" x="92.663" y="6.874"/><use xlink:href="#o" x="96.833" y="6.874"/><use xlink:href="#r" x="98.918" y="6.874"/></g><g style="fill:#000;fill-opacity:1"><use xlink:href="#r" x="178.288" y="6.874"/><use xlink:href="#o" x="182.458" y="6.874"/><use xlink:href="#n" x="184.543" y="6.874"/></g><g style="fill:#000;fill-opacity:1"><use xlink:href="#u" x="263.288" y="6.874"/><use xlink:href="#o" x="267.458" y="6.874"/><use xlink:href="#r" x="269.543" y="6.874"/></g><g style="fill:#000;fill-opacity:1"><use xlink:href="#w" x="346.203" y="6.874"/><use xlink:href="#n" x="350.373" y="6.874"/><use xlink:href="#o" x="354.543" y="6.874"/><use xlink:href="#n" x="356.628" y="6.874"/></g><path style="fill:none;stroke-width:12.5;stroke-linecap:square;stroke-linejoin:miter;stroke:#000;stroke-opacity:1;stroke-miterlimit:10" d="M130 104.99v2550" transform="matrix(.1 0 0 -.1 .5 275.499)"/><path style="fill:none;stroke-width:6.25;stroke-linecap:butt;stroke-linejoin:miter;stroke:#000;stroke-opacity:1;stroke-miterlimit:10" d="M130 162.959h25m-25 57.969h50m-50 57.929h25m-25 57.969h25m-25 57.93h25m-25 57.968h25m-25 57.969h25m-25 57.93h25m-25 57.969h25m-25 57.968h25m-25 57.93h25m-25 57.969h50m-50 57.969h25m-25 57.929h25m-25 57.969h25m-25 57.93h25m-25 57.968h25m-25 57.969h25m-25 57.93h25m-25 57.969h25m-25 57.968h25m-25 57.93h50m-50 57.969h25m-25 57.969h25m-25 57.929h25m-25 57.969h25m-25 57.969h25m-25 57.929h25m-25 57.969h25m-25 57.93h25m-25 57.969h25m-25 57.968h50m-50 57.93h25m-25 57.969h25m-25 57.968h25m-25 57.93h25m-25 57.969h25m-25 57.93h25m-25 57.968h25m-25 57.969h25m-25 57.93h25m-25 57.969h50m-50 57.968h25m-25 57.93h25" transform="matrix(.1 0 0 -.1 .5 275.499)"/><g style="fill:#000;fill-opacity:1" clip-path="url(#x)"><use xlink:href="#y" x="-.042" y="256.874"/><use xlink:href="#q" x="2.456" y="256.874"/></g><g style="fill:#000;fill-opacity:1" clip-path="url(#z)"><use xlink:href="#y" x="-.042" y="198.749"/><use xlink:href="#w" x="2.456" y="198.749"/></g><use xlink:href="#n" x="2.455" y="141.249" style="fill:#000;fill-opacity:1"/><use xlink:href="#w" x="2.455" y="83.124" style="fill:#000;fill-opacity:1"/><use xlink:href="#q" x="2.455" y="24.999" style="fill:#000;fill-opacity:1"/><path style="fill:none;stroke-width:12.5;stroke-linecap:square;stroke-linejoin:miter;stroke:#000;stroke-opacity:1;stroke-miterlimit:10" d="M3530 104.99v2550" transform="matrix(.1 0 0 -.1 .5 275.499)"/><path style="fill:none;stroke-width:6.25;stroke-linecap:butt;stroke-linejoin:miter;stroke:#000;stroke-opacity:1;stroke-miterlimit:10" d="M3530 162.959h-25m25 57.969h-50m50 57.929h-25m25 57.969h-25m25 57.93h-25m25 57.968h-25m25 57.969h-25m25 57.93h-25m25 57.969h-25m25 57.968h-25m25 57.93h-25m25 57.969h-50m50 57.969h-25m25 57.929h-25m25 57.969h-25m25 57.93h-25m25 57.968h-25m25 57.969h-25m25 57.93h-25m25 57.969h-25m25 57.968h-25m25 57.93h-50m50 57.969h-25m25 57.969h-25m25 57.929h-25m25 57.969h-25m25 57.969h-25m25 57.929h-25m25 57.969h-25m25 57.93h-25m25 57.969h-25m25 57.968h-50m50 57.93h-25m25 57.969h-25m25 57.968h-25m25 57.93h-25m25 57.969h-25m25 57.93h-25m25 57.968h-25m25 57.969h-25m25 57.93h-25m25 57.969h-50m50 57.968h-25m25 57.93h-25" transform="matrix(.1 0 0 -.1 .5 275.499)"/><g style="fill:#000;fill-opacity:1" clip-path="url(#A)"><use xlink:href="#y" x="359.75" y="256.874"/><use xlink:href="#q" x="362.248" y="256.874"/></g><g style="fill:#000;fill-opacity:1"><use xlink:href="#y" x="359.75" y="198.749"/><use xlink:href="#w" x="362.248" y="198.749"/></g><use xlink:href="#n" x="359.75" y="141.249" style="fill:#000;fill-opacity:1"/><use xlink:href="#w" x="359.75" y="83.124" style="fill:#000;fill-opacity:1"/><use xlink:href="#q" x="359.75" y="24.999" style="fill:#000;fill-opacity:1"/><g clip-path="url(#B)"><path style="fill:none;stroke-width:12.5;stroke-linecap:round;stroke-linejoin:miter;stroke:#00008b;stroke-opacity:1;stroke-miterlimit:10" d="m130 1959.56 6.25-.117 6.25-.273 6.25-.508 6.25-.664 6.25-.899 6.25-1.054 6.25-1.29 6.25-1.484 6.25-1.64 6.25-1.836 6.25-2.07 6.25-2.227 6.25-2.422 6.25-2.617 6.25-2.813 6.25-2.968 6.25-3.204 6.25-3.359 6.25-3.555 6.25-3.75 6.25-3.906 6.25-4.101 6.25-4.297 6.25-4.454 6.25-4.648 6.25-4.805 6.25-4.96 6.25-5.196 6.25-5.312 6.25-5.508 6.25-5.664 6.25-5.82 6.25-6.016 6.25-6.133 6.25-6.328 6.25-6.445 6.25-6.641 6.25-6.758 6.25-6.953 6.25-7.031 6.25-7.227 6.25-7.383 6.25-7.5 6.25-7.617 6.25-7.773 6.25-7.93 6.25-8.047 6.25-8.164 6.25-8.281 6.25-8.399 6.25-8.515 6.25-8.672 6.25-8.75 6.25-8.867 6.25-8.985 6.25-9.062 6.25-9.18 6.25-9.297 6.25-9.336 6.25-9.492 6.25-9.531 6.25-9.649 6.25-9.726 6.25-9.805 6.25-9.883 6.25-9.921 12.5-20.079 6.25-10.156 6.25-10.195 12.5-20.547 6.25-10.352 12.5-20.859 6.25-10.469 6.25-10.507 12.5-21.094 6.25-10.586 18.75-31.875 12.5-21.328 6.25-10.625 12.5-21.328 12.5-21.25 6.25-10.586 6.25-10.625 12.5-21.094 18.75-31.406 6.25-10.391 6.25-10.352 12.5-20.546 6.25-10.196 6.25-10.117 6.25-10.078 6.25-10 6.25-9.922 6.25-9.883 6.25-9.804 6.25-9.688 6.25-9.648 6.25-9.532 6.25-9.453 6.25-9.375 6.25-9.258 6.25-9.18 6.25-9.062 6.25-8.984 6.25-8.828 6.25-8.75 6.25-8.633 6.25-8.516 6.25-8.398 6.25-8.281 6.25-8.164 6.25-8.008 6.25-7.93 6.25-7.734 6.25-7.657 6.25-7.46 6.25-7.344 6.25-7.227 6.25-7.031 6.25-6.914 6.25-6.758 6.25-6.64 6.25-6.446 6.25-6.289 6.25-6.133 6.25-5.976 6.25-5.82 6.25-5.665 6.25-5.468 6.25-5.313 6.25-5.156 6.25-4.961 6.25-4.766 6.25-4.648 6.25-4.453 6.25-4.258 6.25-4.063 6.25-3.906 6.25-3.71 6.25-3.555 6.25-3.36 6.25-3.164 6.25-2.969 6.25-2.773 6.25-2.617 6.25-2.383 6.25-2.227 6.25-2.03 6.25-1.837 6.25-1.64 6.25-1.446 6.25-1.25 6.25-1.054 6.25-.86 6.25-.664 6.25-.469 6.25-.273 6.25-.078 6.25.117 6.25.312 6.25.508 6.25.703 6.25.899 6.25 1.094 6.25 1.289 6.25 1.484 6.25 1.68 6.25 1.875 6.25 2.07 6.25 2.227 6.25 2.46 6.25 2.618 6.25 2.851 6.25 3.008 6.25 3.203 6.25 3.36 6.25 3.593 6.25 3.75 6.25 3.946 6.25 4.101 6.25 4.297 6.25 4.492 6.25 4.649 6.25 4.843 6.25 5 6.25 5.157 6.25 5.351 6.25 5.508 6.25 5.703 6.25 5.82 6.25 6.016 6.25 6.172 6.25 6.328 6.25 6.485 6.25 6.64 6.25 6.797 6.25 6.953 6.25 7.07 6.25 7.227 6.25 7.383 6.25 7.5 6.25 7.656 6.25 7.813 6.25 7.89 6.25 8.047 6.25 8.203 6.25 8.281 6.25 8.438 6.25 8.516 6.25 8.671 6.25 8.79 6.25 8.867 6.25 8.984 6.25 9.102 6.25 9.18 6.25 9.257 6.25 9.414 6.25 9.453 6.25 9.57 6.25 9.65 6.25 9.726 6.25 9.804 6.25 9.883 6.25 9.961 6.25 10 6.25 10.078 6.25 10.156 6.25 10.196 6.25 10.273 6.25 10.313 6.25 10.351 6.25 10.39 6.25 10.43 12.5 21.016 12.5 21.094 6.25 10.625 6.25 10.586 12.5 21.25 12.5 21.328 6.25 10.625 12.5 21.328 18.75 31.875 6.25 10.547 6.25 10.586 12.5 21.016 6.25 10.468 6.25 10.43 6.25 10.39 6.25 10.352 12.5 20.547 6.25 10.195 6.25 10.118 6.25 10.078 6.25 10 6.25 9.922 6.25 9.843 6.25 9.805 6.25 9.688 6.25 9.609 6.25 9.531 6.25 9.453 6.25 9.375 6.25 9.258 6.25 9.14 6.25 9.063 6.25 8.985 6.25 8.828 6.25 8.75 6.25 8.593 6.25 8.516 6.25 8.399 6.25 8.242 6.25 8.164 6.25 8.008 6.25 7.89 6.25 7.735 6.25 7.617 6.25 7.46 6.25 7.344 6.25 7.188 6.25 7.031 6.25 6.914 6.25 6.758 6.25 6.563 6.25 6.445 6.25 6.289 6.25 6.133 6.25 5.937 6.25 5.82 6.25 5.626 6.25 5.468 6.25 5.313 6.25 5.117 6.25 4.96 6.25 4.767 6.25 4.609 6.25 4.414 6.25 4.258 6.25 4.062 6.25 3.868 6.25 3.71 6.25 3.516 6.25 3.32 6.25 3.164 6.25 2.93 6.25 2.774 6.25 2.578 6.25 2.422 6.25 2.187 6.25 1.992 6.25 1.836 6.25 1.602 6.25 1.445 6.25 1.211 6.25 1.055 6.25.82 6.25.664 6.25.469 6.25.234 6.25.078 6.25-.156 6.25-.312 6.25-.547 6.25-.703 6.25-.938 6.25-1.094 6.25-1.328 6.25-1.484 6.25-1.719 6.25-1.875 6.25-2.07 6.25-2.266 6.25-2.5 6.25-2.656 6.25-2.813 6.25-3.046 6.25-3.204 6.25-3.437 6.25-3.555 6.25-3.789 6.25-3.945 6.25-4.14 6.25-4.337 6.25-4.492 6.25-4.648 6.25-4.883 6.25-5 6.25-5.196 6.25-5.351 6.25-5.547 6.25-5.664 6.25-5.898 6.25-6.016 6.25-6.172 6.25-6.367 6.25-6.485 6.25-6.64 6.25-6.797 6.25-6.953 6.25-7.11 6.25-7.265 6.25-7.383 6.25-7.539 6.25-7.656 6.25-7.813 6.25-7.93 6.25-8.046 6.25-8.203 6.25-8.32 6.25-8.4 6.25-8.554 6.25-8.672 6.25-8.789 6.25-8.906 6.25-8.984 6.25-9.102 6.25-9.18 6.25-9.297 6.25-9.414 6.25-9.453 6.25-9.57 6.25-9.649 6.25-9.765 6.25-9.805 6.25-9.883 6.25-9.96 6.25-10.04 6.25-10.078 6.25-10.156 6.25-10.195 6.25-10.274 6.25-10.312 6.25-10.352 12.5-20.86 6.25-10.468 6.25-10.508 6.25-10.547 12.5-21.171 18.75-31.876 12.5-21.328 6.25-10.625 12.5-21.328 12.5-21.25 12.5-21.172 12.5-21.093 6.25-10.508 6.25-10.469 6.25-10.43 12.5-20.703 6.25-10.312 6.25-10.235 6.25-10.156 6.25-10.117 6.25-10.078 6.25-10 6.25-9.922 6.25-9.844 6.25-9.765 6.25-9.688 6.25-9.648 6.25-9.493 6.25-9.453 6.25-9.336 6.25-9.257 6.25-9.18 6.25-9.024 6.25-8.945 6.25-8.828 6.25-8.75 6.25-8.594 6.25-8.476 6.25-8.399 6.25-8.242 6.25-8.125 6.25-8.008 6.25-7.851 6.25-7.774 6.25-7.578 6.25-7.46 6.25-7.305 6.25-7.188 6.25-7.031 6.25-6.875 6.25-6.758 6.25-6.563 6.25-6.406 6.25-6.289 6.25-6.094 6.25-5.937 6.25-5.781 6.25-5.625 6.25-5.47 6.25-5.273 6.25-5.117 6.25-4.922 6.25-4.765 6.25-4.57 6.25-4.415 6.25-4.218 6.25-4.063 6.25-3.867 6.25-3.672 6.25-3.516 6.25-3.32 6.25-3.125 6.25-2.93 6.25-2.773 6.25-2.54 6.25-2.382 6.25-2.187 6.25-1.993 6.25-1.757 6.25-1.602 6.25-1.406 6.25-1.25 6.25-1.016 6.25-.82 6.25-.625 6.25-.43 6.25-.234 6.25-.04 6.25.157 6.25.352 6.25.546 6.25.743 6.25.937 6.25 1.133 6.25 1.328 6.25 1.524 6.25 1.718 6.25 1.914 6.25 2.07 6.25 2.305 6.25 2.5 6.25 2.657 6.25 2.851 6.25 3.047 6.25 3.242 6.25 3.438 6.25 3.593 6.25 3.79 6.25 3.984 6.25 4.14 6.25 4.336 6.25 4.532 6.25 4.687 6.25 4.844 6.25 5.039 6.25 5.234 6.25 5.352 6.25 5.547 6.25 5.742" transform="matrix(.1 0 0 -.1 .5 275.499)"/></g><g clip-path="url(#C)"><path style="fill:none;stroke-width:12.5;stroke-linecap:round;stroke-linejoin:miter;stroke:#006400;stroke-opacity:1;stroke-miterlimit:10" d="m130 2539.092 6.25-.196 6.25-.586 6.25-.976 6.25-1.367 6.25-1.758 6.25-2.149 6.25-2.539 6.25-2.93 6.25-3.32 6.25-3.71 6.25-4.063 6.25-4.492 6.25-4.844 6.25-5.235 6.25-5.625 6.25-5.976 6.25-6.367 6.25-6.758 6.25-7.11 6.25-7.46 6.25-7.813 6.25-8.242 6.25-8.555 6.25-8.906 6.25-9.258 6.25-9.648 6.25-9.961 6.25-10.313 6.25-10.664 6.25-11.015 6.25-11.329 6.25-11.64 6.25-11.992 6.25-12.305 6.25-12.617 6.25-12.969 6.25-13.242 6.25-13.555 6.25-13.828 6.25-14.14 6.25-14.454 6.25-14.726 6.25-15 6.25-15.274 6.25-15.547 6.25-15.82 6.25-16.094 6.25-16.328 6.25-16.562 6.25-16.797 6.25-17.07 6.25-17.305 6.25-17.5 6.25-17.735 6.25-17.968 6.25-18.164 6.25-18.36 6.25-18.554 6.25-18.75 6.25-18.907 6.25-19.101 6.25-19.297 6.25-19.414 6.25-19.61 6.25-19.726 6.25-19.922 6.25-20 6.25-20.156 6.25-20.274 6.25-20.43 6.25-20.507L580 1663.7l6.25-20.703 6.25-20.781 6.25-20.899 12.5-41.953 6.25-21.094 6.25-21.133 6.25-21.171 6.25-21.211 6.25-21.25 12.5-42.579 6.25-21.328 12.5-42.578 6.25-21.328 12.5-42.5 6.25-21.21 6.25-21.173 6.25-21.132 6.25-21.094 12.5-41.953 6.25-20.86 6.25-20.781 6.25-20.703L755 1073.7l6.25-20.508 6.25-20.39 6.25-20.235 6.25-20.156 6.25-20.04 6.25-19.843 6.25-19.766 6.25-19.57 6.25-19.414 6.25-19.258 6.25-19.101 6.25-18.907 6.25-18.71 6.25-18.555 6.25-18.32 6.25-18.165 6.25-17.93 6.25-17.695 6.25-17.5 6.25-17.265 6.25-17.031 6.25-16.797 6.25-16.563 6.25-16.289 6.25-16.055 6.25-15.78 6.25-15.548 6.25-15.234 6.25-15 6.25-14.688 6.25-14.414 6.25-14.101 6.25-13.828 6.25-13.516 6.25-13.203 6.25-12.93 6.25-12.578 6.25-12.265 6.25-11.993 6.25-11.601 6.25-11.29 6.25-10.976 6.25-10.625 6.25-10.273 6.25-9.961 6.25-9.57 6.25-9.258 6.25-8.868 6.25-8.554 6.25-8.164 6.25-7.813 6.25-7.422 6.25-7.07 6.25-6.719 6.25-6.328 6.25-5.937 6.25-5.586 6.25-5.196 6.25-4.804 6.25-4.453 6.25-4.024 6.25-3.672 6.25-3.281 6.25-2.89 6.25-2.5 6.25-2.11 6.25-1.719 6.25-1.328 6.25-.937 6.25-.547 6.25-.156 6.25.234 6.25.625 6.25 1.016 6.25 1.406 6.25 1.797 6.25 2.187 6.25 2.578 6.25 2.969 6.25 3.32 6.25 3.75 6.25 4.14 6.25 4.493 6.25 4.883 6.25 5.273 6.25 5.664 6.25 6.016 6.25 6.406 6.25 6.758 6.25 7.149 6.25 7.539 6.25 7.851 6.25 8.242 6.25 8.594 6.25 8.945 6.25 9.336 6.25 9.649 6.25 10 6.25 10.351 6.25 10.704 6.25 11.015 6.25 11.367 6.25 11.68 6.25 12.031 6.25 12.344 6.25 12.656 6.25 12.969 6.25 13.281 6.25 13.555 6.25 13.906 6.25 14.18 6.25 14.453 6.25 14.766 6.25 15 6.25 15.312 6.25 15.586 6.25 15.82 6.25 16.133 6.25 16.328 6.25 16.602 6.25 16.836 6.25 17.11 6.25 17.304 6.25 17.539 6.25 17.734 6.25 17.97 6.25 18.202 6.25 18.36 6.25 18.593 6.25 18.75 6.25 18.946 6.25 19.14 6.25 19.258 6.25 19.492 6.25 19.57 6.25 19.766 6.25 19.922 6.25 20.04 6.25 20.155 6.25 20.313 6.25 20.39 6.25 20.508 6.25 20.625 6.25 20.703 6.25 20.82 6.25 20.9 6.25 20.937 6.25 21.015 6.25 21.094 6.25 21.133 12.5 42.422 6.25 21.25 18.75 63.867 6.25 21.328 12.5 42.578 12.5 42.5 12.5 42.422 12.5 42.188 6.25 20.976 6.25 20.938 6.25 20.859 6.25 20.781 6.25 20.703 6.25 20.586 6.25 20.47 6.25 20.39 6.25 20.234 6.25 20.156 6.25 20 6.25 19.844 6.25 19.727 6.25 19.57 6.25 19.414 6.25 19.219 6.25 19.101 6.25 18.868 6.25 18.71 6.25 18.516 6.25 18.32 6.25 18.125 6.25 17.891 6.25 17.734 6.25 17.461 6.25 17.227 6.25 17.031 6.25 16.758 6.25 16.523 6.25 16.29 6.25 16.015 6.25 15.781 6.25 15.508 6.25 15.195 6.25 14.961 6.25 14.688 6.25 14.375 6.25 14.062 6.25 13.79 6.25 13.515 6.25 13.164 6.25 12.89 6.25 12.579 6.25 12.226 6.25 11.914 6.25 11.602 6.25 11.29 6.25 10.898 6.25 10.625 6.25 10.234 6.25 9.922 6.25 9.531 6.25 9.219 6.25 8.867 6.25 8.477 6.25 8.125 6.25 7.773 6.25 7.422 6.25 7.031 6.25 6.64 6.25 6.329 6.25 5.898 6.25 5.547 6.25 5.156 6.25 4.766 6.25 4.414 6.25 3.984 6.25 3.633 6.25 3.242 6.25 2.852 6.25 2.461 6.25 2.07 6.25 1.72 6.25 1.288 6.25.899 6.25.507 6.25.118 6.25-.274 6.25-.664 6.25-1.055 6.25-1.445 6.25-1.836 6.25-2.226 6.25-2.618 6.25-3.007 6.25-3.399 6.25-3.75 6.25-4.18 6.25-4.53 6.25-4.962 6.25-5.273 6.25-5.703 6.25-6.055 6.25-6.445 6.25-6.797 6.25-7.188 6.25-7.539 6.25-7.93 6.25-8.28 6.25-8.634 6.25-8.984 6.25-9.336 6.25-9.687 6.25-10.04 6.25-10.39 6.25-10.742 6.25-11.055 6.25-11.367 6.25-11.758 6.25-12.031 6.25-12.344 6.25-12.695 6.25-13.008 6.25-13.32 6.25-13.594 6.25-13.906 6.25-14.22 6.25-14.491 6.25-14.766 6.25-15.039 6.25-15.352 6.25-15.625 6.25-15.859 6.25-16.094 6.25-16.406 6.25-16.601 6.25-16.875 6.25-17.11 6.25-17.344 6.25-17.539 6.25-17.773 6.25-18.008 6.25-18.203 6.25-18.398 6.25-18.594 6.25-18.75 6.25-18.985 6.25-19.14 6.25-19.297 6.25-19.492 6.25-19.61 6.25-19.765 6.25-19.922 6.25-20.04 6.25-20.195 6.25-20.312 6.25-20.39 6.25-20.547 6.25-20.626 6.25-20.742 6.25-20.82 6.25-20.86 6.25-20.976 6.25-21.016 6.25-21.093 6.25-21.133 12.5-42.422 6.25-21.25 12.5-42.578 6.25-21.328 6.25-21.29 6.25-21.327 6.25-21.29 12.5-42.5 6.25-21.21 12.5-42.266 6.25-21.055 6.25-21.015 6.25-20.938 6.25-20.82 6.25-20.781 6.25-20.704 6.25-20.546 6.25-20.508 6.25-20.352 6.25-20.234 6.25-20.117 6.25-20 6.25-19.844 6.25-19.688 6.25-19.57 6.25-19.375 6.25-19.258 6.25-19.023 6.25-18.906 6.25-18.672 6.25-18.516 6.25-18.281 6.25-18.086 6.25-17.89L3005 723.7l6.25-17.461 6.25-17.188 6.25-16.992 6.25-16.757 6.25-16.524 6.25-16.25 6.25-15.976 6.25-15.743 6.25-15.468 6.25-15.196 6.25-14.922 6.25-14.648 6.25-14.375 6.25-14.024 6.25-13.789 6.25-13.476 6.25-13.125 6.25-12.852 6.25-12.539 6.25-12.226 6.25-11.875 6.25-11.563 6.25-11.25 6.25-10.898 6.25-10.547 6.25-10.234 6.25-9.844 6.25-9.531 6.25-9.18 6.25-8.828 6.25-8.438 6.25-8.086 6.25-7.734 6.25-7.383 6.25-6.992 6.25-6.64 6.25-6.25 6.25-5.9 6.25-5.468 6.25-5.156 6.25-4.727 6.25-4.375 6.25-3.945 6.25-3.594 6.25-3.203 6.25-2.812 6.25-2.422 6.25-2.032 6.25-1.68 6.25-1.25 6.25-.859 6.25-.468 6.25-.078 6.25.312 6.25.703 6.25 1.094 6.25 1.484 6.25 1.875 6.25 2.266 6.25 2.656 6.25 3.047 6.25 3.398 6.25 3.829 6.25 4.18 6.25 4.609 6.25 4.96 6.25 5.352 6.25 5.703 6.25 6.094 6.25 6.484 6.25 6.836 6.25 7.227 6.25 7.578 6.25 7.969 6.25 8.281 6.25 8.672 6.25 9.023 6.25 9.375 6.25 9.727 6.25 10.078 6.25 10.43 6.25 10.742 6.25 11.094 6.25 11.445" transform="matrix(.1 0 0 -.1 .5 275.499)"/></g><g clip-path="url(#D)"><path style="fill:none;stroke-width:6.25;stroke-linecap:round;stroke-linejoin:miter;stroke:#bfbfbf;stroke-opacity:1;stroke-miterlimit:10" d="M200.018 104.99v2550" transform="matrix(.1 0 0 -.1 386.424 275.499)"/></g><g clip-path="url(#E)"><path style="fill:none;stroke-width:6.25;stroke-linecap:round;stroke-linejoin:miter;stroke:#bfbfbf;stroke-opacity:1;stroke-miterlimit:10" d="M200.018 1379.99h3400" transform="matrix(.1 0 0 -.1 386.424 275.499)"/></g><g clip-path="url(#F)"><path style="fill:none;stroke-width:6.25;stroke-linecap:round;stroke-linejoin:miter;stroke:#bfbfbf;stroke-opacity:1;stroke-dasharray:12.5,18.75;stroke-miterlimit:10" d="M200.018 104.99v2550" transform="matrix(.1 0 0 -.1 386.424 275.499)"/></g><g clip-path="url(#G)"><path style="fill:none;stroke-width:6.25;stroke-linecap:round;stroke-linejoin:miter;stroke:#bfbfbf;stroke-opacity:1;stroke-dasharray:12.5,18.75;stroke-miterlimit:10" d="M1050.018 104.99v2550" transform="matrix(.1 0 0 -.1 386.424 275.499)"/></g><g clip-path="url(#H)"><path style="fill:none;stroke-width:6.25;stroke-linecap:round;stroke-linejoin:miter;stroke:#bfbfbf;stroke-opacity:1;stroke-dasharray:12.5,18.75;stroke-miterlimit:10" d="M1900.018 104.99v2550" transform="matrix(.1 0 0 -.1 386.424 275.499)"/></g><g clip-path="url(#I)"><path style="fill:none;stroke-width:6.25;stroke-linecap:round;stroke-linejoin:miter;stroke:#bfbfbf;stroke-opacity:1;stroke-dasharray:12.5,18.75;stroke-miterlimit:10" d="M2750.018 104.99v2550" transform="matrix(.1 0 0 -.1 386.424 275.499)"/></g><g clip-path="url(#J)"><path style="fill:none;stroke-width:6.25;stroke-linecap:round;stroke-linejoin:miter;stroke:#bfbfbf;stroke-opacity:1;stroke-dasharray:12.5,18.75;stroke-miterlimit:10" d="M3600.018 104.99v2550" transform="matrix(.1 0 0 -.1 386.424 275.499)"/></g><g clip-path="url(#K)"><path style="fill:none;stroke-width:6.25;stroke-linecap:round;stroke-linejoin:miter;stroke:#bfbfbf;stroke-opacity:1;stroke-dasharray:12.5,18.75;stroke-miterlimit:10" d="M200.018 220.928h3400" transform="matrix(.1 0 0 -.1 386.424 275.499)"/></g><g clip-path="url(#L)"><path style="fill:none;stroke-width:6.25;stroke-linecap:round;stroke-linejoin:miter;stroke:#bfbfbf;stroke-opacity:1;stroke-dasharray:12.5,18.75;stroke-miterlimit:10" d="M200.018 800.459h3400" transform="matrix(.1 0 0 -.1 386.424 275.499)"/></g><g clip-path="url(#M)"><path style="fill:none;stroke-width:6.25;stroke-linecap:round;stroke-linejoin:miter;stroke:#bfbfbf;stroke-opacity:1;stroke-dasharray:12.5,18.75;stroke-miterlimit:10" d="M200.018 1379.99h3400" transform="matrix(.1 0 0 -.1 386.424 275.499)"/></g><g clip-path="url(#N)"><path style="fill:none;stroke-width:6.25;stroke-linecap:round;stroke-linejoin:miter;stroke:#bfbfbf;stroke-opacity:1;stroke-dasharray:12.5,18.75;stroke-miterlimit:10" d="M200.018 1959.56h3400" transform="matrix(.1 0 0 -.1 386.424 275.499)"/></g><g clip-path="url(#O)"><path style="fill:none;stroke-width:6.25;stroke-linecap:round;stroke-linejoin:miter;stroke:#bfbfbf;stroke-opacity:1;stroke-dasharray:12.5,18.75;stroke-miterlimit:10" d="M200.018 2539.092h3400" transform="matrix(.1 0 0 -.1 386.424 275.499)"/></g><path style="fill:none;stroke-width:12.5;stroke-linecap:square;stroke-linejoin:miter;stroke:#000;stroke-opacity:1;stroke-miterlimit:10" d="M200.018 104.99h3400" transform="matrix(.1 0 0 -.1 386.424 275.499)"/><path style="fill:none;stroke-width:6.25;stroke-linecap:butt;stroke-linejoin:miter;stroke:#000;stroke-opacity:1;stroke-miterlimit:10" d="M200.018 104.99v50m84.961-50v25m85-25v25m85.039-25v25m85-25v25m85-25v25m85-25v25m84.961-25v25m85.039-25v25m84.961-25v25m85.039-25v50m85-50v25m85-25v25m85-25v25m85-25v25m85-25v25m85-25v25m85-25v25m85-25v25m85-25v25m85-25v50m85-50v25m85-25v25m85-25v25m85-25v25m85-25v25m85-25v25m85-25v25m85-25v25m85-25v25m85-25v50m85-50v25m85-25v25m85-25v25m85-25v25m85-25v25m85-25v25m85-25v25m85-25v25m85-25v25m85-25v50" transform="matrix(.1 0 0 -.1 386.424 275.499)"/><g style="fill:#000;fill-opacity:1" clip-path="url(#P)"><use xlink:href="#n" x="400.587" y="274.999"/><use xlink:href="#o" x="404.757" y="274.999"/><use xlink:href="#n" x="406.842" y="274.999"/></g><g style="fill:#000;fill-opacity:1" clip-path="url(#Q)"><use xlink:href="#q" x="485.587" y="274.999"/><use xlink:href="#o" x="489.757" y="274.999"/><use xlink:href="#r" x="491.842" y="274.999"/></g><g style="fill:#000;fill-opacity:1" clip-path="url(#R)"><use xlink:href="#r" x="571.212" y="274.999"/><use xlink:href="#o" x="575.382" y="274.999"/><use xlink:href="#n" x="577.467" y="274.999"/></g><g style="fill:#000;fill-opacity:1" clip-path="url(#S)"><use xlink:href="#u" x="656.212" y="274.999"/><use xlink:href="#o" x="660.382" y="274.999"/><use xlink:href="#r" x="662.467" y="274.999"/></g><g style="fill:#000;fill-opacity:1" clip-path="url(#T)"><use xlink:href="#w" x="739.127" y="274.999"/><use xlink:href="#n" x="743.297" y="274.999"/><use xlink:href="#o" x="747.467" y="274.999"/><use xlink:href="#n" x="749.552" y="274.999"/></g><path style="fill:none;stroke-width:12.5;stroke-linecap:square;stroke-linejoin:miter;stroke:#000;stroke-opacity:1;stroke-miterlimit:10" d="M200.018 2654.99h3400" transform="matrix(.1 0 0 -.1 386.424 275.499)"/><path style="fill:none;stroke-width:6.25;stroke-linecap:butt;stroke-linejoin:miter;stroke:#000;stroke-opacity:1;stroke-miterlimit:10" d="M200.018 2654.99v-50m84.961 50v-25m85 25v-25m85.039 25v-25m85 25v-25m85 25v-25m85 25v-25m84.961 25v-25m85.039 25v-25m84.961 25v-25m85.039 25v-50m85 50v-25m85 25v-25m85 25v-25m85 25v-25m85 25v-25m85 25v-25m85 25v-25m85 25v-25m85 25v-25m85 25v-50m85 50v-25m85 25v-25m85 25v-25m85 25v-25m85 25v-25m85 25v-25m85 25v-25m85 25v-25m85 25v-25m85 25v-50m85 50v-25m85 25v-25m85 25v-25m85 25v-25m85 25v-25m85 25v-25m85 25v-25m85 25v-25m85 25v-25m85 25v-50" transform="matrix(.1 0 0 -.1 386.424 275.499)"/><g style="fill:#000;fill-opacity:1"><use xlink:href="#n" x="400.587" y="6.874"/><use xlink:href="#o" x="404.757" y="6.874"/><use xlink:href="#n" x="406.842" y="6.874"/></g><g style="fill:#000;fill-opacity:1"><use xlink:href="#q" x="485.587" y="6.874"/><use xlink:href="#o" x="489.757" y="6.874"/><use xlink:href="#r" x="491.842" y="6.874"/></g><g style="fill:#000;fill-opacity:1"><use xlink:href="#r" x="571.212" y="6.874"/><use xlink:href="#o" x="575.382" y="6.874"/><use xlink:href="#n" x="577.467" y="6.874"/></g><g style="fill:#000;fill-opacity:1"><use xlink:href="#u" x="656.212" y="6.874"/><use xlink:href="#o" x="660.382" y="6.874"/><use xlink:href="#r" x="662.467" y="6.874"/></g><g style="fill:#000;fill-opacity:1"><use xlink:href="#w" x="739.127" y="6.874"/><use xlink:href="#n" x="743.297" y="6.874"/><use xlink:href="#o" x="747.467" y="6.874"/><use xlink:href="#n" x="749.552" y="6.874"/></g><path style="fill:none;stroke-width:12.5;stroke-linecap:square;stroke-linejoin:miter;stroke:#000;stroke-opacity:1;stroke-miterlimit:10" d="M200.018 104.99v2550" transform="matrix(.1 0 0 -.1 386.424 275.499)"/><path style="fill:none;stroke-width:6.25;stroke-linecap:butt;stroke-linejoin:miter;stroke:#000;stroke-opacity:1;stroke-miterlimit:10" d="M200.018 104.99h25m-25 57.969h25m-25 57.969h50m-50 57.929h25m-25 57.969h25m-25 57.969h25m-25 57.929h25m-25 57.969h25m-25 57.93h25m-25 57.969h25m-25 57.968h25m-25 57.93h25m-25 57.969h50m-50 57.969h25m-25 57.929h25m-25 57.969h25m-25 57.969h25m-25 57.929h25m-25 57.969h25m-25 57.93h25m-25 57.969h25m-25 57.968h25m-25 57.93h50m-50 57.969h25m-25 57.969h25m-25 57.929h25m-25 57.969h25m-25 57.969h25m-25 57.929h25m-25 57.969h25m-25 57.93h25m-25 57.969h25m-25 57.968h50m-50 57.93h25m-25 57.969h25m-25 57.968h25m-25 57.93h25m-25 57.969h25m-25 57.93h25m-25 57.968h25m-25 57.969h25m-25 57.93h25m-25 57.969h50m-50 57.968h25m-25 57.93h25" transform="matrix(.1 0 0 -.1 386.424 275.499)"/><g style="fill:#000;fill-opacity:1" clip-path="url(#U)"><use xlink:href="#y" x="386.628" y="256.874"/><use xlink:href="#w" x="389.125" y="256.874"/><use xlink:href="#o" x="393.295" y="256.874"/><use xlink:href="#n" x="395.38" y="256.874"/></g><g style="fill:#000;fill-opacity:1" clip-path="url(#V)"><use xlink:href="#y" x="386.628" y="198.749"/><use xlink:href="#n" x="389.125" y="198.749"/><use xlink:href="#o" x="393.295" y="198.749"/><use xlink:href="#r" x="395.38" y="198.749"/></g><g style="fill:#000;fill-opacity:1"><use xlink:href="#n" x="389.125" y="140.624"/><use xlink:href="#o" x="393.295" y="140.624"/><use xlink:href="#n" x="395.38" y="140.624"/></g><g style="fill:#000;fill-opacity:1"><use xlink:href="#n" x="389.125" y="83.124"/><use xlink:href="#o" x="393.295" y="83.124"/><use xlink:href="#r" x="395.38" y="83.124"/></g><g style="fill:#000;fill-opacity:1"><use xlink:href="#w" x="389.125" y="24.999"/><use xlink:href="#o" x="393.295" y="24.999"/><use xlink:href="#n" x="395.38" y="24.999"/></g><path style="fill:none;stroke-width:12.5;stroke-linecap:square;stroke-linejoin:miter;stroke:#000;stroke-opacity:1;stroke-miterlimit:10" d="M3600.018 104.99v2550" transform="matrix(.1 0 0 -.1 386.424 275.499)"/><path style="fill:none;stroke-width:6.25;stroke-linecap:butt;stroke-linejoin:miter;stroke:#000;stroke-opacity:1;stroke-miterlimit:10" d="M3600.018 104.99h-25m25 57.969h-25m25 57.969h-50m50 57.929h-25m25 57.969h-25m25 57.969h-25m25 57.929h-25m25 57.969h-25m25 57.93h-25m25 57.969h-25m25 57.968h-25m25 57.93h-25m25 57.969h-50m50 57.969h-25m25 57.929h-25m25 57.969h-25m25 57.969h-25m25 57.929h-25m25 57.969h-25m25 57.93h-25m25 57.969h-25m25 57.968h-25m25 57.93h-50m50 57.969h-25m25 57.969h-25m25 57.929h-25m25 57.969h-25m25 57.969h-25m25 57.929h-25m25 57.969h-25m25 57.93h-25m25 57.969h-25m25 57.968h-50m50 57.93h-25m25 57.969h-25m25 57.968h-25m25 57.93h-25m25 57.969h-25m25 57.93h-25m25 57.968h-25m25 57.969h-25m25 57.93h-25m25 57.969h-50m50 57.968h-25m25 57.93h-25" transform="matrix(.1 0 0 -.1 386.424 275.499)"/><g style="fill:#000;fill-opacity:1" clip-path="url(#W)"><use xlink:href="#y" x="752.674" y="256.874"/><use xlink:href="#w" x="755.172" y="256.874"/><use xlink:href="#o" x="759.341" y="256.874"/><use xlink:href="#n" x="761.427" y="256.874"/></g><g style="fill:#000;fill-opacity:1" clip-path="url(#X)"><use xlink:href="#y" x="752.674" y="198.749"/><use xlink:href="#n" x="755.172" y="198.749"/><use xlink:href="#o" x="759.341" y="198.749"/><use xlink:href="#r" x="761.427" y="198.749"/></g><g style="fill:#000;fill-opacity:1"><use xlink:href="#n" x="752.674" y="140.624"/><use xlink:href="#o" x="756.844" y="140.624"/><use xlink:href="#n" x="758.929" y="140.624"/></g><g style="fill:#000;fill-opacity:1"><use xlink:href="#n" x="752.674" y="83.124"/><use xlink:href="#o" x="756.844" y="83.124"/><use xlink:href="#r" x="758.929" y="83.124"/></g><g style="fill:#000;fill-opacity:1"><use xlink:href="#w" x="752.674" y="24.999"/><use xlink:href="#o" x="756.844" y="24.999"/><use xlink:href="#n" x="758.929" y="24.999"/></g><g clip-path="url(#Y)"><path style="fill:none;stroke-width:12.5;stroke-linecap:round;stroke-linejoin:miter;stroke:#00008b;stroke-opacity:1;stroke-miterlimit:10" d="m200.018 2539.092 6.25-.782 6.25-2.343 6.25-3.907 6.25-5.468 6.25-7.032 6.25-8.554 6.25-10.079 6.25-11.601 6.25-13.125 6.25-14.57 6.25-16.055 6.25-17.461 6.25-18.906 6.25-20.274 6.25-21.68 6.25-22.968 6.25-24.297 6.25-25.586 6.25-26.797 6.25-27.969 6.25-29.18 6.25-30.273 6.25-31.367 6.25-32.422 6.25-33.36 6.25-34.374 6.25-35.234 6.25-36.133 6.25-36.914 6.25-37.657 6.25-38.398 6.25-39.024 6.25-39.648 6.25-40.156 6.25-40.664 6.25-41.133 6.25-41.484 6.25-41.836 6.25-42.11 6.25-42.304 6.25-42.461 6.25-42.579 12.5-85.234 6.25-42.5 6.25-42.383 6.25-42.187 6.25-41.992 6.25-41.641 6.25-41.29 6.25-40.898 6.25-40.39 6.25-39.883 6.25-39.336 6.25-38.672 6.25-38.008 6.25-37.265 6.25-36.485 6.25-35.625 6.25-34.765 6.25-33.828 6.25-32.852 6.25-31.836 6.25-30.781 6.25-29.688 6.25-28.515 6.25-27.344 6.25-26.133 6.25-24.844 6.25-23.593 6.25-22.266 6.25-20.898 6.25-19.532 6.25-18.125 6.25-16.718 6.25-15.235 6.25-13.789 6.25-12.265 6.25-10.782 6.25-9.218 6.25-7.735 6.25-6.172 6.25-4.609 6.25-3.047 6.25-1.484 6.25.078 6.25 1.64 6.25 3.204 6.25 4.765 6.25 6.328 6.25 7.852 6.25 9.375 6.25 10.937 6.25 12.422 6.25 13.907 6.25 15.39 6.25 16.836 6.25 18.281 6.25 19.649 6.25 21.055 6.25 22.382 6.25 23.711 6.25 25 6.25 26.25 6.25 27.461 6.25 28.633 6.25 29.766 6.25 30.898 6.25 31.953 6.25 32.93 6.25 33.945 6.25 34.844 6.25 35.703 6.25 36.563 6.25 37.343 6.25 38.086 6.25 38.75 6.25 39.336 6.25 39.961 6.25 40.469 6.25 40.898 6.25 41.328 6.25 41.72 6.25 41.952 6.25 42.227 6.25 42.422 6.25 42.539 6.25 42.578 6.25 42.617 6.25 42.54 6.25 42.46 6.25 42.305 6.25 42.07 6.25 41.797 6.25 41.484 6.25 41.055 6.25 40.664 6.25 40.117 6.25 39.57 6.25 38.985 6.25 38.32 6.25 37.578 6.25 36.836 6.25 36.055 6.25 35.156 6.25 34.258 6.25 33.281 6.25 32.305 6.25 31.29 6.25 30.155 6.25 29.063 6.25 27.851 6.25 26.68 6.25 25.469 6.25 24.14 6.25 22.891 6.25 21.524 6.25 20.156 6.25 18.75 6.25 17.344 6.25 15.898 6.25 14.453 6.25 12.969 6.25 11.445 6.25 9.922 6.25 8.398 6.25 6.875 6.25 5.313 6.25 3.79 6.25 2.187 6.25.625 6.25-.938 6.25-2.5 6.25-4.062 6.25-5.625 6.25-7.149 6.25-8.71 6.25-10.235 6.25-11.758 6.25-13.242 6.25-14.727 6.25-16.21 6.25-17.618 6.25-19.023 6.25-20.43 6.25-21.797 6.25-23.125 6.25-24.375 6.25-25.703 6.25-26.914 6.25-28.125 6.25-29.258 6.25-30.39 6.25-31.485 6.25-32.5 6.25-33.476 6.25-34.454 6.25-35.312 6.25-36.211 6.25-36.992 6.25-37.735 6.25-38.437 6.25-39.102 6.25-39.687 6.25-40.235 6.25-40.703 6.25-41.171 6.25-41.524 6.25-41.875 6.25-42.11 6.25-42.343 6.25-42.461 6.25-42.578 12.5-85.235 6.25-42.5 6.25-42.343 6.25-42.188 6.25-41.953 6.25-41.601 6.25-41.25 6.25-40.86 6.25-40.351 6.25-39.844 6.25-39.258 6.25-38.633 6.25-37.89 6.25-37.227 6.25-36.367 6.25-35.586 6.25-34.649 6.25-33.75 6.25-32.773 6.25-31.719 6.25-30.664 6.25-29.57 6.25-28.399 6.25-27.226 6.25-26.016 6.25-24.765 6.25-23.438 6.25-22.148 6.25-20.781 6.25-19.375 6.25-18.008 6.25-16.524 6.25-15.117 6.25-13.633 6.25-12.148 6.25-10.586 6.25-9.102 6.25-7.578 6.25-6.015 6.25-4.454 6.25-2.93 6.25-1.327 6.25.234 6.25 1.797 6.25 3.36 6.25 4.921 6.25 6.445 6.25 8.047 6.25 9.532 6.25 11.054 6.25 12.578 6.25 14.063 6.25 15.547 6.25 16.953 6.25 18.398 6.25 19.805 6.25 21.172 6.25 22.539 6.25 23.828 6.25 25.117 6.25 26.367 6.25 27.579 6.25 28.75 6.25 29.882 6.25 30.977 6.25 32.07 6.25 33.047 6.25 33.985 6.25 34.96 6.25 35.82 6.25 36.641 6.25 37.383 6.25 38.164 6.25 38.79 6.25 39.413 6.25 40 6.25 40.508 6.25 40.977 6.25 41.367 6.25 41.719 6.25 42.03 6.25 42.227 6.25 42.422 6.25 42.54 6.25 42.578 6.25 42.617 6.25 42.578 6.25 42.422 6.25 42.265 6.25 42.07 6.25 41.758 6.25 41.446 6.25 41.015 6.25 40.586 6.25 40.079 6.25 39.53 6.25 38.907 6.25 38.242 6.25 37.54 6.25 36.757 6.25 35.938 6.25 35.078 6.25 34.18 6.25 33.202 6.25 32.227 6.25 31.133 6.25 30.078 6.25 28.906 6.25 27.774 6.25 26.562 6.25 25.313 6.25 24.062 6.25 22.735 6.25 21.406 6.25 20 6.25 18.633 6.25 17.187 6.25 15.781 6.25 14.297 6.25 12.813 6.25 11.289 6.25 9.804 6.25 8.243 6.25 6.718 6.25 5.157 6.25 3.632 6.25 2.032 6.25.468 6.25-1.054 6.25-2.696 6.25-4.18 6.25-5.78 6.25-7.305 6.25-8.867 6.25-10.39 6.25-11.876 6.25-13.398 6.25-14.883 6.25-16.328 6.25-17.774 6.25-19.14 6.25-20.586 6.25-21.914 6.25-23.243 6.25-24.53 6.25-25.821 6.25-27.031 6.25-28.243 6.25-29.375 6.25-30.468 6.25-31.563 6.25-32.617 6.25-33.594 6.25-34.531 6.25-35.43 6.25-36.25 6.25-37.07 6.25-37.813 6.25-38.515 6.25-39.14 6.25-39.766 6.25-40.274 6.25-40.781 6.25-41.172 6.25-41.562 6.25-41.915 6.25-42.109 6.25-42.383 6.25-42.46 6.25-42.618 6.25-42.578 6.25-42.617 6.25-42.5 6.25-42.344 6.25-42.148 6.25-41.914 6.25-41.602 6.25-41.21 6.25-40.782 6.25-40.313 6.25-39.804 6.25-39.18 6.25-38.555 6.25-37.851 6.25-37.11 6.25-36.328 6.25-35.468 6.25-34.57 6.25-33.673 6.25-32.656 6.25-31.64 6.25-30.547 6.25-29.454 6.25-28.32 6.25-27.11 6.25-25.859 6.25-24.648 6.25-23.32 6.25-21.993 6.25-20.625 6.25-19.296 6.25-17.852 6.25-16.406 6.25-14.961 6.25-13.477 6.25-11.992 6.25-10.469 6.25-8.945 6.25-7.422 6.25-5.86 6.25-4.296 6.25-2.774 6.25-1.171 6.25.39 6.25 1.914 6.25 3.516 6.25 5.078 6.25 6.64 6.25 8.165 6.25 9.687 6.25 11.211 6.25 12.735 6.25 14.18 6.25 15.663 6.25 17.11 6.25 18.554 6.25 19.922 6.25 21.328 6.25 22.657 6.25 23.945 6.25 25.234 6.25 26.485 6.25 27.695 6.25 28.867 6.25 30 6.25 31.094 6.25 32.148 6.25 33.125 6.25 34.14 6.25 35 6.25 35.9 6.25 36.718 6.25 37.461 6.25 38.242 6.25 38.867 6.25 39.454 6.25 40.039 6.25 40.586 6.25 41.015 6.25 41.406 6.25 41.758 6.25 42.032 6.25 42.226 6.25 42.461 6.25 42.54 6.25 42.616 12.5 85.157 6.25 42.421 6.25 42.227 6.25 42.031 6.25 41.758 6.25 41.367 6.25 41.016 6.25 40.547 6.25 40 6.25 39.492 6.25 38.828 6.25 38.203 6.25 37.461 6.25 36.68 6.25 35.86 6.25 35 6.25 34.062 6.25 33.086 6.25 32.109 6.25 31.055 6.25 29.96 6.25 28.829 6.25 27.656 6.25 26.445 6.25 25.196 6.25 23.906 6.25 22.617 6.25 21.25 6.25 19.883 6.25 18.476 6.25 17.07 6.25 15.626 6.25 14.14 6.25 12.657 6.25 11.171 6.25 9.649 6.25 8.125 6.25 6.562 6.25 5 6.25 3.477 6.25 1.875 6.25.312 6.25-1.21 6.25-2.813 6.25-4.375 6.25-5.938 6.25-7.46 6.25-8.985 6.25-10.547 6.25-12.03 6.25-13.556 6.25-15 6.25-16.445 6.25-17.93 6.25-19.297 6.25-20.703 6.25-22.03 6.25-23.4 6.25-24.648 6.25-25.937 6.25-27.149 6.25-28.32 6.25-29.492 6.25-30.625 6.25-31.68 6.25-32.695 6.25-33.672 6.25-34.61 6.25-35.507 6.25-36.367 6.25-37.149 6.25-37.851 6.25-38.594" transform="matrix(.1 0 0 -.1 386.424 275.499)"/><path style="fill:none;stroke-width:12.5;stroke-linecap:round;stroke-linejoin:miter;stroke:#006400;stroke-opacity:1;stroke-miterlimit:10" d="m200.018 220.928 6.25.78 6.25 2.345 6.25 3.906 6.25 5.469 6.25 7.03 6.25 8.555 6.25 10.079 6.25 11.601 6.25 13.086 6.25 14.57 6.25 16.055 6.25 17.5 6.25 18.906 6.25 20.274 6.25 21.64 6.25 23.008 6.25 24.297 6.25 25.547 6.25 26.797 6.25 28.008 6.25 29.14 6.25 30.313 6.25 31.367 6.25 32.383 6.25 33.398 6.25 34.336 6.25 35.274 6.25 36.093 6.25 36.914 6.25 37.696 6.25 38.36 6.25 39.023 6.25 39.648 6.25 40.195 6.25 40.664 6.25 41.133 6.25 41.485 6.25 41.835 6.25 42.11 6.25 42.304 6.25 42.461 6.25 42.579 6.25 42.617 6.25 42.578 6.25 42.539 6.25 42.383 6.25 42.187 6.25 41.953 6.25 41.68 6.25 41.29 6.25 40.859 6.25 40.43 6.25 39.882 6.25 39.297 6.25 38.71 6.25 37.97 6.25 37.265 6.25 36.485 6.25 35.625 6.25 34.804 6.25 33.828 6.25 32.852 6.25 31.836 6.25 30.781 6.25 29.649 6.25 28.554 6.25 27.344 6.25 26.094 6.25 24.883 6.25 23.593 6.25 22.266 6.25 20.898 6.25 19.532 6.25 18.125 6.25 16.718 6.25 15.235 6.25 13.75 6.25 12.304 6.25 10.743 6.25 9.257 6.25 7.735 6.25 6.133 6.25 4.648 6.25 3.047 6.25 1.484 6.25-.078 6.25-1.64 6.25-3.204 6.25-4.765 6.25-6.328 6.25-7.852 6.25-9.414 6.25-10.898 6.25-12.422 6.25-13.946 6.25-15.351 6.25-16.875 6.25-18.242 6.25-19.688 6.25-21.015 6.25-22.422 6.25-23.672 6.25-25 6.25-26.25 6.25-27.461 6.25-28.633 6.25-29.805 6.25-30.859 6.25-31.953 6.25-32.969 6.25-33.906 6.25-34.844 6.25-35.742 6.25-36.563 6.25-37.343 6.25-38.047 6.25-38.75 6.25-39.375 6.25-39.922 6.25-40.469 6.25-40.937 6.25-41.328 6.25-41.68 6.25-41.992 6.25-42.227 6.25-42.383 6.25-42.539 6.25-42.578 6.25-42.656 6.25-42.54 6.25-42.46 6.25-42.305 6.25-42.07 6.25-41.797 6.25-41.445 6.25-41.094 6.25-40.625 6.25-40.117 6.25-39.57 6.25-38.985 6.25-38.32 6.25-37.617 6.25-36.836 6.25-36.016 6.25-35.156 6.25-34.258 6.25-33.32 6.25-32.305 6.25-31.25 6.25-30.156 6.25-29.063 6.25-27.89 6.25-26.68 6.25-25.43 6.25-24.18 6.25-22.851 6.25-21.524 6.25-20.156 6.25-18.789 6.25-17.344 6.25-15.898 6.25-14.414 6.25-12.969 6.25-11.445 6.25-9.961 6.25-8.398 6.25-6.875 6.25-5.313 6.25-3.75 6.25-2.188 6.25-.624 6.25.937 6.25 2.5 6.25 4.063 6.25 5.625 6.25 7.148 6.25 8.71 6.25 10.235 6.25 11.758 6.25 13.242 6.25 14.727 6.25 16.172 6.25 17.617 6.25 19.062 6.25 20.391 6.25 21.797 6.25 23.125 6.25 24.414 6.25 25.703 6.25 26.914 6.25 28.086 6.25 29.297 6.25 30.39 6.25 31.446 6.25 32.5 6.25 33.515 6.25 34.415 6.25 35.351 6.25 36.172 6.25 36.992 6.25 37.774 6.25 38.437 6.25 39.102 6.25 39.687 6.25 40.235 6.25 40.703 6.25 41.172 6.25 41.523 6.25 41.836 6.25 42.148 6.25 42.344 6.25 42.461 6.25 42.578 6.25 42.617 6.25 42.579 6.25 42.5 6.25 42.382 6.25 42.188 6.25 41.914 6.25 41.64 6.25 41.25 6.25 40.82 6.25 40.391 6.25 39.844 6.25 39.219 6.25 38.633 6.25 37.93 6.25 37.187 6.25 36.406 6.25 35.547 6.25 34.688 6.25 33.75 6.25 32.734 6.25 31.758 6.25 30.664 6.25 29.57 6.25 28.399 6.25 27.226 6.25 26.016 6.25 24.726 6.25 23.477 6.25 22.11 6.25 20.78 6.25 19.415 6.25 17.968 6.25 16.563 6.25 15.117 6.25 13.594 6.25 12.148 6.25 10.625 6.25 9.102 6.25 7.578 6.25 6.015 6.25 4.454 6.25 2.89 6.25 1.367 6.25-.234 6.25-1.797 6.25-3.36 6.25-4.921 6.25-6.484 6.25-8.008 6.25-9.532 6.25-11.093 6.25-12.54 6.25-14.062 6.25-15.547 6.25-16.992 6.25-18.398 6.25-19.766 6.25-21.21 6.25-22.5 6.25-23.829 6.25-25.117 6.25-26.367 6.25-27.579 6.25-28.75 6.25-29.882 6.25-31.016 6.25-32.031 6.25-33.047 6.25-34.024 6.25-34.921 6.25-35.82 6.25-36.641 6.25-37.422 6.25-38.125 6.25-38.79 6.25-39.452 6.25-40 6.25-40.47 6.25-40.976 6.25-41.367 6.25-41.719 6.25-42.03 6.25-42.227 6.25-42.422 6.25-42.54 12.5-85.234 6.25-42.539 6.25-42.422 6.25-42.304 6.25-42.032 6.25-41.757 6.25-41.446 6.25-41.054 6.25-40.586 6.25-40.078 6.25-39.493 6.25-38.945 6.25-38.242 6.25-37.5 6.25-36.758 6.25-35.977 6.25-35.078 6.25-34.14 6.25-33.203 6.25-32.227 6.25-31.133 6.25-30.078 6.25-28.945 6.25-27.774 6.25-26.562 6.25-25.313 6.25-24.023 6.25-22.734 6.25-21.407 6.25-20 6.25-18.633 6.25-17.226 6.25-15.742 6.25-14.297 6.25-12.813 6.25-11.289 6.25-9.804 6.25-8.282 6.25-6.718 6.25-5.157 6.25-3.593 6.25-2.032 6.25-.507 6.25 1.093 6.25 2.657 6.25 4.218 6.25 5.782 6.25 7.304 6.25 8.867 6.25 10.391 6.25 11.875 6.25 13.398 6.25 14.883 6.25 16.29 6.25 17.773 6.25 19.18 6.25 20.546 6.25 21.914 6.25 23.243 6.25 24.57 6.25 25.781 6.25 27.031 6.25 28.243 6.25 29.375 6.25 30.507 6.25 31.563 6.25 32.617 6.25 33.555 6.25 34.531 6.25 35.43 6.25 36.289 6.25 37.07 6.25 37.813 6.25 38.515 6.25 39.14 6.25 39.727 6.25 40.274 6.25 40.781 6.25 41.211 6.25 41.563 6.25 41.874 6.25 42.149 6.25 42.344 6.25 42.5 6.25 42.578 6.25 42.617 6.25 42.578 6.25 42.5 6.25 42.344 6.25 42.187 6.25 41.875 6.25 41.602 6.25 41.21 6.25 40.821 6.25 40.313 6.25 39.765 6.25 39.18 6.25 38.594 6.25 37.851 6.25 37.11 6.25 36.328 6.25 35.469 6.25 34.57 6.25 33.672 6.25 32.656 6.25 31.602 6.25 30.585 6.25 29.454 6.25 28.28 6.25 27.11 6.25 25.899 6.25 24.61 6.25 23.32 6.25 22.03 6.25 20.626 6.25 19.257 6.25 17.852 6.25 16.406 6.25 14.961 6.25 13.477 6.25 11.992 6.25 10.469 6.25 8.984 6.25 7.383 6.25 5.898 6.25 4.297 6.25 2.735 6.25 1.21 6.25-.39 6.25-1.953 6.25-3.516 6.25-5.078 6.25-6.602 6.25-8.164 6.25-9.687 6.25-11.211 6.25-12.734 6.25-14.18 6.25-15.703 6.25-17.11 6.25-18.515 6.25-19.961 6.25-21.29 6.25-22.656 6.25-23.945 6.25-25.273 6.25-26.485 6.25-27.695 6.25-28.867 6.25-29.961 6.25-31.133 6.25-32.11 6.25-33.163 6.25-34.102 6.25-35 6.25-35.937 6.25-36.68 6.25-37.5 6.25-38.203 6.25-38.867 6.25-39.493 6.25-40.039 6.25-40.546 6.25-41.016 6.25-41.406 6.25-41.758 6.25-42.031 6.25-42.266 6.25-42.422 6.25-42.539 12.5-85.234 6.25-42.54 6.25-42.421 6.25-42.266 6.25-42.031 6.25-41.719 6.25-41.406 6.25-40.977 6.25-40.547 6.25-40.039 6.25-39.453 6.25-38.867 6.25-38.164 6.25-37.461 6.25-36.68 6.25-35.86 6.25-35 6.25-34.062 6.25-33.125 6.25-32.109 6.25-31.055 6.25-29.96 6.25-28.79 6.25-27.656 6.25-26.445 6.25-25.195 6.25-23.946 6.25-22.578 6.25-21.25 6.25-19.883 6.25-18.515 6.25-17.07 6.25-15.587 6.25-14.18 6.25-12.656 6.25-11.171 6.25-9.61 6.25-8.125 6.25-6.562 6.25-5 6.25-3.477 6.25-1.875 6.25-.351 6.25 1.25 6.25 2.812 6.25 4.375 6.25 5.899 6.25 7.5 6.25 8.984 6.25 10.547 6.25 12.031 6.25 13.516 6.25 15.039 6.25 16.445 6.25 17.89 6.25 19.337 6.25 20.664 6.25 22.07 6.25 23.36 6.25 24.687 6.25 25.898 6.25 27.149 6.25 28.36 6.25 29.491 6.25 30.625 6.25 31.64 6.25 32.696 6.25 33.711 6.25 34.61 6.25 35.507 6.25 36.328 6.25 37.149 6.25 37.89 6.25 38.555" transform="matrix(.1 0 0 -.1 386.424 275.499)"/></g></svg>