<svg xmlns="http://www.w3.org/2000/svg" xmlns:xlink="http://www.w3.org/1999/xlink" width="382pt" height="275pt" viewBox="0 0 382 275"><defs><clipPath id="a"><path d="M21 9.5h1v255h-1zm0 0"/></clipPath><clipPath id="b"><path d="M21 252h340v2H21zm0 0"/></clipPath><clipPath id="c"><path d="M21 9.5h1v255h-1zm0 0"/></clipPath><clipPath id="d"><path d="M77 9.5h1v255h-1zm0 0"/></clipPath><clipPath id="e"><path d="M134 9.5h1v255h-1zm0 0"/></clipPath><clipPath id="f"><path d="M190 9.5h2v255h-2zm0 0"/></clipPath><clipPath id="g"><path d="M247 9.5h1v255h-1zm0 0"/></clipPath><clipPath id="h"><path d="M304 9.5h1v255h-1zm0 0"/></clipPath><clipPath id="i"><path d="M360 9.5h1v255h-1zm0 0"/></clipPath><clipPath id="j"><path d="M21 252h340v2H21zm0 0"/></clipPath><clipPath id="k"><path d="M21 207h340v2H21zm0 0"/></clipPath><clipPath id="l"><path d="M21 163h340v1H21zm0 0"/></clipPath><clipPath id="m"><path d="M21 118h340v1H21zm0 0"/></clipPath><clipPath id="n"><path d="M21 73h340v2H21zm0 0"/></clipPath><clipPath id="o"><path d="M21 28h340v2H21zm0 0"/></clipPath><clipPath id="y"><path d="M21 9.5h340v255H21zm0 0"/></clipPath><symbol overflow="visible" id="p"><path style="stroke:none" d="M2.063-5.313c-.5 0-.938.22-1.22.579C.5-4.266.329-3.563.329-2.578c0 1.797.594 2.75 1.734 2.75 1.126 0 1.735-.953 1.735-2.703 0-1.031-.156-1.719-.516-2.203-.281-.375-.719-.579-1.219-.579zm0 .579c.718 0 1.062.718 1.062 2.14 0 1.516-.344 2.219-1.078 2.219C1.344-.375 1-1.109 1-2.563c0-1.453.344-2.171 1.063-2.171zm0 0"/></symbol><symbol overflow="visible" id="q"><path style="stroke:none" d="M1.938-3.781V0h.671v-5.313h-.437c-.235.813-.39.922-1.406 1.047v.485zm0 0"/></symbol><symbol overflow="visible" id="r"><path style="stroke:none" d="M3.797-.656H1c.063-.438.313-.703.953-1.094l.75-.406c.75-.406 1.125-.953 1.125-1.594 0-.453-.172-.86-.484-1.14-.328-.298-.719-.423-1.219-.423-.672 0-1.172.235-1.469.688-.187.281-.265.61-.281 1.156h.656c.032-.36.078-.578.157-.75.171-.328.515-.515.921-.515.594 0 1.047.421 1.047.984 0 .422-.25.781-.719 1.063l-.687.39C.64-1.672.312-1.172.25 0h3.547zm0 0"/></symbol><symbol overflow="visible" id="s"><path style="stroke:none" d="M1.656-2.438h.36c.734 0 1.109.329 1.109.954 0 .671-.422 1.078-1.11 1.078-.718 0-1.078-.36-1.109-1.14H.234c.032.421.11.702.235.952.281.5.797.766 1.531.766 1.094 0 1.797-.656 1.797-1.656 0-.672-.266-1.047-.906-1.266.5-.203.75-.578.75-1.11 0-.906-.61-1.453-1.625-1.453-1.079 0-1.641.579-1.657 1.72h.657c0-.329.03-.516.109-.673.156-.296.484-.468.906-.468.578 0 .938.343.938.906 0 .375-.14.594-.438.719-.172.078-.406.109-.875.109zm0 0"/></symbol><symbol overflow="visible" id="t"><path style="stroke:none" d="M2.453-1.281V0h.656v-1.281h.797v-.594H3.11v-3.438h-.484L.203-1.969v.688zm0-.594H.781l1.672-2.313zm0 0"/></symbol><symbol overflow="visible" id="u"><path style="stroke:none" d="M3.563-5.313H.828L.422-2.421h.61c.312-.375.562-.5.984-.5.703 0 1.156.485 1.156 1.281 0 .766-.438 1.235-1.156 1.235-.579 0-.938-.297-1.094-.906H.266c.093.437.156.656.312.843.313.406.844.64 1.453.64 1.063 0 1.813-.78 1.813-1.905 0-1.047-.688-1.766-1.719-1.766-.375 0-.672.094-.984.313l.218-1.485h2.204zm0 0"/></symbol><symbol overflow="visible" id="v"><path style="stroke:none" d="M3.734-3.938c-.125-.859-.703-1.374-1.5-1.374-.593 0-1.109.28-1.437.75-.328.515-.469 1.171-.469 2.14 0 .89.125 1.469.438 1.938.296.421.75.656 1.343.656 1.016 0 1.735-.75 1.735-1.797 0-.984-.672-1.688-1.625-1.688-.531 0-.938.204-1.219.594 0-1.297.422-2.015 1.188-2.015.453 0 .78.296.89.796zm-1.593 1.22c.64 0 1.03.437 1.03 1.155 0 .657-.452 1.157-1.062 1.157-.609 0-1.078-.516-1.078-1.203 0-.657.453-1.11 1.11-1.11zm0 0"/></symbol><symbol overflow="visible" id="w"><path style="stroke:none" d="M1.438-.781H.655V0h.781zm0 0"/></symbol><symbol overflow="visible" id="x"><path style="stroke:none" d="M3.906-5.313H.344v.641h2.875C1.953-2.859 1.438-1.75 1.03 0h.703c.297-1.703.97-3.172 2.172-4.766zm0 0"/></symbol></defs><g clip-path="url(#a)"><path style="fill:none;stroke-width:6.25;stroke-linecap:round;stroke-linejoin:miter;stroke:#bfbfbf;stroke-opacity:1;stroke-miterlimit:10" d="M210 105v2550" transform="matrix(.1 0 0 -.1 0 275)"/></g><g clip-path="url(#b)"><path style="fill:none;stroke-width:6.25;stroke-linecap:round;stroke-linejoin:miter;stroke:#bfbfbf;stroke-opacity:1;stroke-miterlimit:10" d="M210 220.898h3400" transform="matrix(.1 0 0 -.1 0 275)"/></g><g clip-path="url(#c)"><path style="fill:none;stroke-width:6.25;stroke-linecap:round;stroke-linejoin:miter;stroke:#bfbfbf;stroke-opacity:1;stroke-dasharray:12.5,18.75;stroke-miterlimit:10" d="M210 105v2550" transform="matrix(.1 0 0 -.1 0 275)"/></g><g clip-path="url(#d)"><path style="fill:none;stroke-width:6.25;stroke-linecap:round;stroke-linejoin:miter;stroke:#bfbfbf;stroke-opacity:1;stroke-dasharray:12.5,18.75;stroke-miterlimit:10" d="M776.68 105v2550" transform="matrix(.1 0 0 -.1 0 275)"/></g><g clip-path="url(#e)"><path style="fill:none;stroke-width:6.25;stroke-linecap:round;stroke-linejoin:miter;stroke:#bfbfbf;stroke-opacity:1;stroke-dasharray:12.5,18.75;stroke-miterlimit:10" d="M1343.32 105v2550" transform="matrix(.1 0 0 -.1 0 275)"/></g><g clip-path="url(#f)"><path style="fill:none;stroke-width:6.25;stroke-linecap:round;stroke-linejoin:miter;stroke:#bfbfbf;stroke-opacity:1;stroke-dasharray:12.5,18.75;stroke-miterlimit:10" d="M1910 105v2550" transform="matrix(.1 0 0 -.1 0 275)"/></g><g clip-path="url(#g)"><path style="fill:none;stroke-width:6.25;stroke-linecap:round;stroke-linejoin:miter;stroke:#bfbfbf;stroke-opacity:1;stroke-dasharray:12.5,18.75;stroke-miterlimit:10" d="M2476.68 105v2550" transform="matrix(.1 0 0 -.1 0 275)"/></g><g clip-path="url(#h)"><path style="fill:none;stroke-width:6.25;stroke-linecap:round;stroke-linejoin:miter;stroke:#bfbfbf;stroke-opacity:1;stroke-dasharray:12.5,18.75;stroke-miterlimit:10" d="M3043.32 105v2550" transform="matrix(.1 0 0 -.1 0 275)"/></g><g clip-path="url(#i)"><path style="fill:none;stroke-width:6.25;stroke-linecap:round;stroke-linejoin:miter;stroke:#bfbfbf;stroke-opacity:1;stroke-dasharray:12.5,18.75;stroke-miterlimit:10" d="M3610 105v2550" transform="matrix(.1 0 0 -.1 0 275)"/></g><g clip-path="url(#j)"><path style="fill:none;stroke-width:6.25;stroke-linecap:round;stroke-linejoin:miter;stroke:#bfbfbf;stroke-opacity:1;stroke-dasharray:12.5,18.75;stroke-miterlimit:10" d="M210 220.898h3400" transform="matrix(.1 0 0 -.1 0 275)"/></g><g clip-path="url(#k)"><path style="fill:none;stroke-width:6.25;stroke-linecap:round;stroke-linejoin:miter;stroke:#bfbfbf;stroke-opacity:1;stroke-dasharray:12.5,18.75;stroke-miterlimit:10" d="M210 668.398h3400" transform="matrix(.1 0 0 -.1 0 275)"/></g><g clip-path="url(#l)"><path style="fill:none;stroke-width:6.25;stroke-linecap:round;stroke-linejoin:miter;stroke:#bfbfbf;stroke-opacity:1;stroke-dasharray:12.5,18.75;stroke-miterlimit:10" d="M210 1115.898h3400" transform="matrix(.1 0 0 -.1 0 275)"/></g><g clip-path="url(#m)"><path style="fill:none;stroke-width:6.25;stroke-linecap:round;stroke-linejoin:miter;stroke:#bfbfbf;stroke-opacity:1;stroke-dasharray:12.5,18.75;stroke-miterlimit:10" d="M210 1563.398h3400" transform="matrix(.1 0 0 -.1 0 275)"/></g><g clip-path="url(#n)"><path style="fill:none;stroke-width:6.25;stroke-linecap:round;stroke-linejoin:miter;stroke:#bfbfbf;stroke-opacity:1;stroke-dasharray:12.5,18.75;stroke-miterlimit:10" d="M210 2010.898h3400" transform="matrix(.1 0 0 -.1 0 275)"/></g><g clip-path="url(#o)"><path style="fill:none;stroke-width:6.25;stroke-linecap:round;stroke-linejoin:miter;stroke:#bfbfbf;stroke-opacity:1;stroke-dasharray:12.5,18.75;stroke-miterlimit:10" d="M210 2458.398h3400" transform="matrix(.1 0 0 -.1 0 275)"/></g><path style="fill:none;stroke-width:12.5;stroke-linecap:square;stroke-linejoin:miter;stroke:#000;stroke-opacity:1;stroke-miterlimit:10" d="M210 105h3400" transform="matrix(.1 0 0 -.1 0 275)"/><path style="fill:none;stroke-width:6.25;stroke-linecap:butt;stroke-linejoin:miter;stroke:#000;stroke-opacity:1;stroke-miterlimit:10" d="M210 105v50m56.68-50v25m56.64-25v25M380 105v25m56.68-25v25m56.64-25v25M550 105v25m56.68-25v25m56.64-25v25M720 105v25m56.68-25v50m56.64-50v25M890 105v25m56.68-25v25m56.64-25v25m56.68-25v25m56.68-25v25m56.64-25v25m56.68-25v25m56.68-25v25m56.64-25v50m56.68-50v25m56.68-25v25m56.64-25v25m56.68-25v25m56.68-25v25m56.64-25v25m56.68-25v25m56.68-25v25m56.64-25v25m56.68-25v50m56.68-50v25m56.64-25v25m56.68-25v25m56.68-25v25m56.64-25v25m56.68-25v25m56.68-25v25m56.64-25v25m56.68-25v25m56.68-25v50m56.64-50v25m56.68-25v25m56.68-25v25m56.64-25v25m56.68-25v25m56.68-25v25m56.64-25v25m56.68-25v25m56.68-25v25m56.64-25v50m56.68-50v25m56.68-25v25m56.64-25v25m56.68-25v25m56.68-25v25m56.64-25v25m56.68-25v25m56.68-25v25m56.64-25v25m56.68-25v50" transform="matrix(.1 0 0 -.1 0 275)"/><use xlink:href="#p" x="18.29" y="274.5" style="fill:#000;fill-opacity:1"/><use xlink:href="#q" x="75.165" y="274.5" style="fill:#000;fill-opacity:1"/><use xlink:href="#r" x="132.04" y="274.5" style="fill:#000;fill-opacity:1"/><use xlink:href="#s" x="188.915" y="274.5" style="fill:#000;fill-opacity:1"/><use xlink:href="#t" x="245.165" y="274.5" style="fill:#000;fill-opacity:1"/><use xlink:href="#u" x="302.04" y="274.5" style="fill:#000;fill-opacity:1"/><use xlink:href="#v" x="358.915" y="274.5" style="fill:#000;fill-opacity:1"/><path style="fill:none;stroke-width:12.5;stroke-linecap:square;stroke-linejoin:miter;stroke:#000;stroke-opacity:1;stroke-miterlimit:10" d="M210 2655h3400" transform="matrix(.1 0 0 -.1 0 275)"/><path style="fill:none;stroke-width:6.25;stroke-linecap:butt;stroke-linejoin:miter;stroke:#000;stroke-opacity:1;stroke-miterlimit:10" d="M210 2655v-50m56.68 50v-25m56.64 25v-25m56.68 25v-25m56.68 25v-25m56.64 25v-25m56.68 25v-25m56.68 25v-25m56.64 25v-25m56.68 25v-25m56.68 25v-50m56.64 50v-25m56.68 25v-25m56.68 25v-25m56.64 25v-25m56.68 25v-25m56.68 25v-25m56.64 25v-25m56.68 25v-25m56.68 25v-25m56.64 25v-50m56.68 50v-25m56.68 25v-25m56.64 25v-25m56.68 25v-25m56.68 25v-25m56.64 25v-25m56.68 25v-25m56.68 25v-25m56.64 25v-25m56.68 25v-50m56.68 50v-25m56.64 25v-25m56.68 25v-25m56.68 25v-25m56.64 25v-25m56.68 25v-25m56.68 25v-25m56.64 25v-25m56.68 25v-25m56.68 25v-50m56.64 50v-25m56.68 25v-25m56.68 25v-25m56.64 25v-25m56.68 25v-25m56.68 25v-25m56.64 25v-25m56.68 25v-25m56.68 25v-25m56.64 25v-50m56.68 50v-25m56.68 25v-25m56.64 25v-25m56.68 25v-25m56.68 25v-25m56.64 25v-25m56.68 25v-25m56.68 25v-25m56.64 25v-25m56.68 25v-50" transform="matrix(.1 0 0 -.1 0 275)"/><use xlink:href="#p" x="18.29" y="6.375" style="fill:#000;fill-opacity:1"/><use xlink:href="#q" x="75.165" y="6.375" style="fill:#000;fill-opacity:1"/><use xlink:href="#r" x="132.04" y="6.375" style="fill:#000;fill-opacity:1"/><use xlink:href="#s" x="188.915" y="6.375" style="fill:#000;fill-opacity:1"/><use xlink:href="#t" x="245.165" y="6.375" style="fill:#000;fill-opacity:1"/><use xlink:href="#u" x="302.04" y="6.375" style="fill:#000;fill-opacity:1"/><use xlink:href="#v" x="358.915" y="6.375" style="fill:#000;fill-opacity:1"/><path style="fill:none;stroke-width:12.5;stroke-linecap:square;stroke-linejoin:miter;stroke:#000;stroke-opacity:1;stroke-miterlimit:10" d="M210 105v2550" transform="matrix(.1 0 0 -.1 0 275)"/><path style="fill:none;stroke-width:6.25;stroke-linecap:butt;stroke-linejoin:miter;stroke:#000;stroke-opacity:1;stroke-miterlimit:10" d="M210 131.406h25m-25 44.766h25m-25 44.726h50m-50 44.766h25m-25 44.726h25m-25 44.766h25m-25 44.766h25m-25 44.726h25m-25 44.766h25m-25 44.726h25m-25 44.766h25m-25 44.766h25m-25 44.726h50m-50 44.766h25m-25 44.726h25m-25 44.766h25m-25 44.727h25m-25 44.765h25m-25 44.766h25m-25 44.726h25m-25 44.766h25m-25 44.727h25m-25 44.765h50m-50 44.766h25m-25 44.726h25m-25 44.766h25m-25 44.727h25m-25 44.765h25m-25 44.727h25m-25 44.765h25m-25 44.766h25m-25 44.727h25m-25 44.765h50m-50 44.727h25m-25 44.765h25m-25 44.766h25m-25 44.727h25m-25 44.765h25m-25 44.727h25m-25 44.765h25m-25 44.766h25m-25 44.727h25m-25 44.765h50m-50 44.727h25m-25 44.765h25m-25 44.766h25m-25 44.727h25m-25 44.765h25m-25 44.727h25m-25 44.765h25m-25 44.766h25m-25 44.727h25m-25 44.765h50m-50 44.727h25m-25 44.765h25m-25 44.766h25m-25 44.727h25" transform="matrix(.1 0 0 -.1 0 275)"/><g style="fill:#000;fill-opacity:1"><use xlink:href="#p" x="3.701" y="256.375"/><use xlink:href="#w" x="7.871" y="256.375"/><use xlink:href="#p" x="9.956" y="256.375"/></g><g style="fill:#000;fill-opacity:1"><use xlink:href="#r" x="3.701" y="211.375"/><use xlink:href="#w" x="7.871" y="211.375"/><use xlink:href="#u" x="9.956" y="211.375"/></g><g style="fill:#000;fill-opacity:1"><use xlink:href="#u" x="3.701" y="167"/><use xlink:href="#w" x="7.871" y="167"/><use xlink:href="#p" x="9.956" y="167"/></g><g style="fill:#000;fill-opacity:1"><use xlink:href="#x" x="3.701" y="122"/><use xlink:href="#w" x="7.871" y="122"/><use xlink:href="#u" x="9.956" y="122"/></g><g style="fill:#000;fill-opacity:1"><use xlink:href="#q" x="-.469" y="77.625"/><use xlink:href="#p" x="3.701" y="77.625"/><use xlink:href="#w" x="7.871" y="77.625"/><use xlink:href="#p" x="9.956" y="77.625"/></g><g style="fill:#000;fill-opacity:1"><use xlink:href="#q" x="-.469" y="32.625"/><use xlink:href="#r" x="3.701" y="32.625"/><use xlink:href="#w" x="7.871" y="32.625"/><use xlink:href="#u" x="9.956" y="32.625"/></g><path style="fill:none;stroke-width:12.5;stroke-linecap:square;stroke-linejoin:miter;stroke:#000;stroke-opacity:1;stroke-miterlimit:10" d="M3610 105v2550" transform="matrix(.1 0 0 -.1 0 275)"/><path style="fill:none;stroke-width:6.25;stroke-linecap:butt;stroke-linejoin:miter;stroke:#000;stroke-opacity:1;stroke-miterlimit:10" d="M3610 131.406h-25m25 44.766h-25m25 44.726h-50m50 44.766h-25m25 44.726h-25m25 44.766h-25m25 44.766h-25m25 44.726h-25m25 44.766h-25m25 44.726h-25m25 44.766h-25m25 44.766h-25m25 44.726h-50m50 44.766h-25m25 44.726h-25m25 44.766h-25m25 44.727h-25m25 44.765h-25m25 44.766h-25m25 44.726h-25m25 44.766h-25m25 44.727h-25m25 44.765h-50m50 44.766h-25m25 44.726h-25m25 44.766h-25m25 44.727h-25m25 44.765h-25m25 44.727h-25m25 44.765h-25m25 44.766h-25m25 44.727h-25m25 44.765h-50m50 44.727h-25m25 44.765h-25m25 44.766h-25m25 44.727h-25m25 44.765h-25m25 44.727h-25m25 44.765h-25m25 44.766h-25m25 44.727h-25m25 44.765h-50m50 44.727h-25m25 44.765h-25m25 44.766h-25m25 44.727h-25m25 44.765h-25m25 44.727h-25m25 44.765h-25m25 44.766h-25m25 44.727h-25m25 44.765h-50m50 44.727h-25m25 44.765h-25m25 44.766h-25m25 44.727h-25" transform="matrix(.1 0 0 -.1 0 275)"/><g style="fill:#000;fill-opacity:1"><use xlink:href="#p" x="367.25" y="256.375"/><use xlink:href="#w" x="371.42" y="256.375"/><use xlink:href="#p" x="373.505" y="256.375"/></g><g style="fill:#000;fill-opacity:1"><use xlink:href="#r" x="367.25" y="211.375"/><use xlink:href="#w" x="371.42" y="211.375"/><use xlink:href="#u" x="373.505" y="211.375"/></g><g style="fill:#000;fill-opacity:1"><use xlink:href="#u" x="367.25" y="167"/><use xlink:href="#w" x="371.42" y="167"/><use xlink:href="#p" x="373.505" y="167"/></g><g style="fill:#000;fill-opacity:1"><use xlink:href="#x" x="367.25" y="122"/><use xlink:href="#w" x="371.42" y="122"/><use xlink:href="#u" x="373.505" y="122"/></g><g style="fill:#000;fill-opacity:1"><use xlink:href="#q" x="367.25" y="77.625"/><use xlink:href="#p" x="371.42" y="77.625"/><use xlink:href="#w" x="375.59" y="77.625"/><use xlink:href="#p" x="377.675" y="77.625"/></g><g style="fill:#000;fill-opacity:1"><use xlink:href="#q" x="367.25" y="32.625"/><use xlink:href="#r" x="371.42" y="32.625"/><use xlink:href="#w" x="375.59" y="32.625"/><use xlink:href="#u" x="377.675" y="32.625"/></g><g clip-path="url(#y)"><path style="fill:none;stroke-width:12.5;stroke-linecap:round;stroke-linejoin:miter;stroke:#00008b;stroke-opacity:1;stroke-miterlimit:10" d="M210 220.898h18.75l6.25.04h6.25l6.25.039h6.25l6.25.039 6.25.078 6.25.039 6.25.078 18.75.351 12.5.313 6.25.195 12.5.47 6.25.273 12.5.625 6.25.351 6.25.39 6.25.43 6.25.47 12.5 1.015 6.25.586 12.5 1.25 6.25.703 6.25.742 6.25.781 6.25.82 6.25.86 6.25.937 6.25.977 6.25 1.016 12.5 2.187 6.25 1.172 6.25 1.25 6.25 1.29 6.25 1.327 6.25 1.406 6.25 1.446 6.25 1.523 6.25 1.602 6.25 1.64 6.25 1.68 6.25 1.758 6.25 1.836 6.25 1.875 6.25 1.953 6.25 2.031 6.25 2.07 6.25 2.149 6.25 2.226 6.25 2.305 6.25 2.344 6.25 2.422 6.25 2.5 6.25 2.578 6.25 2.617 6.25 2.735 6.25 2.773 6.25 2.851 6.25 2.93 6.25 2.969 6.25 3.086 6.25 3.164 6.25 3.203 6.25 3.281 6.25 3.399 6.25 3.437 6.25 3.516 6.25 3.594 6.25 3.671 6.25 3.711 6.25 3.829 6.25 3.906 6.25 3.984 6.25 4.024 6.25 4.101 6.25 4.219 6.25 4.258 6.25 4.336 6.25 4.414 6.25 4.531 6.25 4.57 6.25 4.649 6.25 4.687 6.25 4.805 6.25 4.883 6.25 4.922 6.25 5 6.25 5.078 12.5 10.39 6.25 5.313 6.25 5.351 6.25 5.47L860 442.5l6.25 5.586 6.25 5.625 6.25 5.703 6.25 5.781 6.25 5.86 6.25 5.937 6.25 5.977 6.25 6.015 6.25 6.133 6.25 6.172 6.25 6.211 6.25 6.29 6.25 6.366 6.25 6.407 6.25 6.484 6.25 6.523 6.25 6.563 6.25 6.64 6.25 6.72 6.25 6.757 6.25 6.797 6.25 6.836 6.25 6.914 6.25 6.953 6.25 6.992 12.5 14.14 6.25 7.15 6.25 7.187 6.25 7.226 6.25 7.266 6.25 7.305 6.25 7.343 6.25 7.383 6.25 7.422 6.25 7.461 12.5 15 12.5 15.156 12.5 15.235 18.75 23.086 6.25 7.734 12.5 15.547 6.25 7.812 6.25 7.774 6.25 7.851 6.25 7.813 6.25 7.89 12.5 15.704 75 94.687 12.5 15.703 6.25 7.813 6.25 7.851 6.25 7.813 18.75 23.32 6.25 7.734 12.5 15.391 12.5 15.313 6.25 7.617 6.25 7.578 6.25 7.539 12.5 15 6.25 7.46 6.25 7.423 6.25 7.383 6.25 7.343 6.25 7.305 6.25 7.266 6.25 7.226 12.5 14.297 6.25 7.11 6.25 7.03 6.25 6.993 6.25 6.953 6.25 6.914 6.25 6.836 6.25 6.797 12.5 13.437L1510 1195l6.25 6.563 6.25 6.523 6.25 6.484 6.25 6.407 6.25 6.328 6.25 6.289 6.25 6.21 6.25 6.173 6.25 6.093 6.25 6.055 6.25 5.977L1585 1270l6.25 5.86 12.5 11.484 6.25 5.625 6.25 5.586 12.5 10.937 6.25 5.352 6.25 5.273 6.25 5.235 6.25 5.156 6.25 5.078 6.25 5 6.25 4.922 6.25 4.844 6.25 4.804 6.25 4.727 6.25 4.61 6.25 4.57 6.25 4.492 6.25 4.414 6.25 4.336 6.25 4.257 6.25 4.18 6.25 4.14 6.25 4.024 6.25 3.946 6.25 3.906 6.25 3.828 6.25 3.71 6.25 3.673 6.25 3.593 6.25 3.516 6.25 3.438 6.25 3.359 6.25 3.281 6.25 3.203 6.25 3.125 6.25 3.086 6.25 2.97 6.25 2.929 6.25 2.851 6.25 2.774 6.25 2.695 6.25 2.617 6.25 2.578 6.25 2.461 6.25 2.422 6.25 2.344 6.25 2.305 6.25 2.226 12.5 4.219 6.25 1.992 6.25 1.953 6.25 1.875 6.25 1.836 6.25 1.758 6.25 1.68 6.25 1.64 6.25 1.563 6.25 1.523 6.25 1.446 6.25 1.406 6.25 1.328 6.25 1.289 6.25 1.21 6.25 1.173 6.25 1.133 6.25 1.054 6.25 1.016 6.25.976 12.5 1.797 12.5 1.563 6.25.742 6.25.703 12.5 1.25 12.5 1.094 6.25.508 12.5.86 6.25.39 6.25.351 12.5.625 6.25.274 12.5.468 6.25.157 6.25.195 6.25.156 12.5.235 18.75.234 18.75.117h6.25l6.25.04H2285l6.25.038h6.25l6.25.04h6.25l6.25.039 12.5.156 6.25.039 18.75.351 6.25.157 18.75.586 12.5.546 12.5.625 6.25.352 6.25.39 6.25.43 6.25.47 6.25.507 12.5 1.094 6.25.625 6.25.664 6.25.703 6.25.742 6.25.781 6.25.82 12.5 1.797 6.25.977 12.5 2.11 6.25 1.132 6.25 1.172 6.25 1.25 6.25 1.29 6.25 1.327 12.5 2.89 6.25 1.524 6.25 1.602 6.25 1.64 6.25 1.68 6.25 1.758 6.25 1.836 6.25 1.914 6.25 1.953 6.25 2.031 6.25 2.11 6.25 2.148 6.25 2.227 6.25 2.304 6.25 2.344 6.25 2.422 6.25 2.5 6.25 2.578 6.25 2.656 6.25 2.696 6.25 2.812 6.25 2.852 6.25 2.93 6.25 3.007 6.25 3.086 6.25 3.125 6.25 3.242 6.25 3.32 6.25 3.36 6.25 3.438 6.25 3.515 6.25 3.594 6.25 3.71 6.25 3.75 6.25 3.83 6.25 3.866 6.25 3.985 6.25 4.062 6.25 4.14 6.25 4.18 6.25 4.297 6.25 4.336 6.25 4.453 6.25 4.493 6.25 4.57 6.25 4.648 6.25 4.727 6.25 4.805 6.25 4.882 6.25 4.922 6.25 5.04 6.25 5.077 6.25 5.157 6.25 5.234 6.25 5.313 6.25 5.39 6.25 5.43 12.5 11.094 6.25 5.664 6.25 5.742 6.25 5.781 6.25 5.86 6.25 5.898 12.5 12.031 6.25 6.133 6.25 6.172 6.25 6.25 6.25 6.289 6.25 6.367 6.25 6.406 6.25 6.485 6.25 6.523 6.25 6.602 6.25 6.64 12.5 13.438 6.25 6.797 6.25 6.875 6.25 6.914 6.25 6.953 6.25 6.992 6.25 7.07 6.25 7.11 6.25 7.148 6.25 7.188 6.25 7.226 6.25 7.266 6.25 7.305 6.25 7.343 12.5 14.844 6.25 7.461 12.5 15 12.5 15.156 6.25 7.618 12.5 15.312 12.5 15.39 6.25 7.774 6.25 7.734 6.25 7.774 18.75 23.437 18.75 23.555 6.25 7.89 6.25 7.852 18.75 23.672 6.25 7.93 37.5 47.344 25 31.406 12.5 15.625 18.75 23.32 6.25 7.735 12.5 15.39 12.5 15.313 12.5 15.156 12.5 15.078 6.25 7.5 12.5 14.844 6.25 7.383 6.25 7.343 6.25 7.305 6.25 7.266 6.25 7.226 12.5 14.297 6.25 7.07 6.25 7.032 6.25 6.992 6.25 6.953 6.25 6.914 6.25 6.836 6.25 6.797 6.25 6.719 6.25 6.68 6.25 6.64 6.25 6.601 12.5 12.97 12.5 12.734 6.25 6.289 6.25 6.21" transform="matrix(.1 0 0 -.1 0 275)"/></g></svg>