<svg xmlns="http://www.w3.org/2000/svg" xmlns:xlink="http://www.w3.org/1999/xlink" width="356pt" height="260pt" viewBox="0 0 356 260"><defs><clipPath id="a"><path d="M18 7.66h1v242.25h-1zm0 0"/></clipPath><clipPath id="b"><path d="M18 144h320v2H18zm0 0"/></clipPath><clipPath id="c"><path d="M18 7.66h1v242.25h-1zm0 0"/></clipPath><clipPath id="d"><path d="M97 7.66h2v242.25h-2zm0 0"/></clipPath><clipPath id="e"><path d="M177 7.66h2v242.25h-2zm0 0"/></clipPath><clipPath id="f"><path d="M257 7.66h2v242.25h-2zm0 0"/></clipPath><clipPath id="g"><path d="M337 7.66h1v242.25h-1zm0 0"/></clipPath><clipPath id="h"><path d="M18 205h320v1H18zm0 0"/></clipPath><clipPath id="i"><path d="M18 144h320v2H18zm0 0"/></clipPath><clipPath id="j"><path d="M18 84h320v2H18zm0 0"/></clipPath><clipPath id="k"><path d="M18 24h320v1H18zm0 0"/></clipPath><clipPath id="s"><path d="M18 85h320v141H18zm0 0"/></clipPath><clipPath id="t"><path d="M18 18h320v222H18zm0 0"/></clipPath><symbol overflow="visible" id="l"><path style="stroke:none" d="M1.89-4.953c-.452 0-.874.203-1.124.547-.313.437-.47 1.093-.47 2.015C.297-.719.845.156 1.892.156c1.03 0 1.593-.875 1.593-2.515 0-.954-.156-1.594-.484-2.047a1.355 1.355 0 0 0-1.11-.547zm0 .531c.641 0 .97.672.97 2.016C2.86-1 2.546-.344 1.874-.344c-.64 0-.969-.687-.969-2.047 0-1.359.328-2.03.985-2.03zm0 0"/></symbol><symbol overflow="visible" id="m"><path style="stroke:none" d="M1.313-.719h-.72V0h.72zm0 0"/></symbol><symbol overflow="visible" id="n"><path style="stroke:none" d="M3.469-.594H.906c.063-.406.281-.672.89-1.031l.673-.39C3.156-2.392 3.5-2.892 3.5-3.5c0-.422-.156-.797-.453-1.063-.281-.265-.64-.39-1.094-.39-.625 0-1.078.219-1.344.64-.171.266-.25.579-.265 1.079h.61c.015-.344.062-.532.14-.704a.922.922 0 0 1 .828-.484c.547 0 .969.39.969.938 0 .39-.235.734-.657.984l-.64.36C.578-1.548.28-1.095.234 0H3.47zm0 0"/></symbol><symbol overflow="visible" id="o"><path style="stroke:none" d="M3.266-4.86H.75L.39-2.202h.563c.281-.344.516-.453.89-.453.657 0 1.063.437 1.063 1.156 0 .703-.406 1.125-1.062 1.125-.532 0-.86-.266-1-.813h-.61c.094.391.157.579.297.766.281.36.766.578 1.328.578.97 0 1.657-.703 1.657-1.734 0-.953-.641-1.625-1.563-1.625-.344 0-.625.094-.906.297l.187-1.344h2.032zm0 0"/></symbol><symbol overflow="visible" id="p"><path style="stroke:none" d="M3.563-4.86H.313v.61h2.624C1.782-2.61 1.313-1.594.954 0h.64c.266-1.547.876-2.89 1.97-4.344zm0 0"/></symbol><symbol overflow="visible" id="q"><path style="stroke:none" d="M1.781-3.531V0h.594v-4.953h-.39c-.22.766-.36.875-1.282.984v.438zm0 0"/></symbol><symbol overflow="visible" id="r"><path style="stroke:none" d="M1.953-2.14H.313v.5h1.64zm0 0"/></symbol></defs><path style="stroke:none;fill-rule:nonzero;fill:#fff;fill-opacity:1" d="M18 249.91h320V7.66H18zm0 0"/><g clip-path="url(#a)"><path style="fill:none;stroke-width:5.70714;stroke-linecap:round;stroke-linejoin:miter;stroke:#bfbfbf;stroke-opacity:1;stroke-miterlimit:10" d="M399.5-211.163V-2636.7" transform="matrix(.10013 0 0 .09987 -22 271)"/></g><g clip-path="url(#b)"><path style="fill:none;stroke-width:5.70714;stroke-linecap:round;stroke-linejoin:miter;stroke:#bfbfbf;stroke-opacity:1;stroke-miterlimit:10" d="M399.5-1260.093h3196.006" transform="matrix(.10013 0 0 .09987 -22 271)"/></g><g clip-path="url(#c)"><path style="fill:none;stroke-width:5.70714;stroke-linecap:round;stroke-linejoin:miter;stroke:#bfbfbf;stroke-opacity:1;stroke-dasharray:11.4143,17.1214;stroke-miterlimit:10" d="M399.5-211.163V-2636.7" transform="matrix(.10013 0 0 .09987 -22 271)"/></g><g clip-path="url(#d)"><path style="fill:none;stroke-width:5.70714;stroke-linecap:round;stroke-linejoin:miter;stroke:#bfbfbf;stroke-opacity:1;stroke-dasharray:11.4143,17.1214;stroke-miterlimit:10" d="M1198.502-211.163V-2636.7" transform="matrix(.10013 0 0 .09987 -22 271)"/></g><g clip-path="url(#e)"><path style="fill:none;stroke-width:5.70714;stroke-linecap:round;stroke-linejoin:miter;stroke:#bfbfbf;stroke-opacity:1;stroke-dasharray:11.4143,17.1214;stroke-miterlimit:10" d="M1997.503-211.163V-2636.7" transform="matrix(.10013 0 0 .09987 -22 271)"/></g><g clip-path="url(#f)"><path style="fill:none;stroke-width:5.70714;stroke-linecap:round;stroke-linejoin:miter;stroke:#bfbfbf;stroke-opacity:1;stroke-dasharray:11.4143,17.1214;stroke-miterlimit:10" d="M2796.504-211.163V-2636.7" transform="matrix(.10013 0 0 .09987 -22 271)"/></g><g clip-path="url(#g)"><path style="fill:none;stroke-width:5.70714;stroke-linecap:round;stroke-linejoin:miter;stroke:#bfbfbf;stroke-opacity:1;stroke-dasharray:11.4143,17.1214;stroke-miterlimit:10" d="M3595.506-211.163V-2636.7" transform="matrix(.10013 0 0 .09987 -22 271)"/></g><g clip-path="url(#h)"><path style="fill:none;stroke-width:5.70714;stroke-linecap:round;stroke-linejoin:miter;stroke:#bfbfbf;stroke-opacity:1;stroke-dasharray:11.4143,17.1214;stroke-miterlimit:10" d="M399.5-655.313h3196.006" transform="matrix(.10013 0 0 .09987 -22 271)"/></g><g clip-path="url(#i)"><path style="fill:none;stroke-width:5.70714;stroke-linecap:round;stroke-linejoin:miter;stroke:#bfbfbf;stroke-opacity:1;stroke-dasharray:11.4143,17.1214;stroke-miterlimit:10" d="M399.5-1260.093h3196.006" transform="matrix(.10013 0 0 .09987 -22 271)"/></g><g clip-path="url(#j)"><path style="fill:none;stroke-width:5.70714;stroke-linecap:round;stroke-linejoin:miter;stroke:#bfbfbf;stroke-opacity:1;stroke-dasharray:11.4143,17.1214;stroke-miterlimit:10" d="M399.5-1864.913h3196.006" transform="matrix(.10013 0 0 .09987 -22 271)"/></g><g clip-path="url(#k)"><path style="fill:none;stroke-width:5.70714;stroke-linecap:round;stroke-linejoin:miter;stroke:#bfbfbf;stroke-opacity:1;stroke-dasharray:11.4143,17.1214;stroke-miterlimit:10" d="M399.5-2469.694h3196.006" transform="matrix(.10013 0 0 .09987 -22 271)"/></g><path style="fill:none;stroke-width:11.4143;stroke-linecap:square;stroke-linejoin:miter;stroke:#000;stroke-opacity:1;stroke-miterlimit:10" d="M399.5-211.163h3196.006" transform="matrix(.10013 0 0 .09987 -22 271)"/><path style="fill:none;stroke-width:5.70714;stroke-linecap:butt;stroke-linejoin:miter;stroke:#000;stroke-opacity:1;stroke-miterlimit:10" d="M399.5-211.163v-45.643m0 45.643v-22.84m79.9 22.84v-22.84m79.9 22.84v-22.84m79.901 22.84v-22.84m79.9 22.84v-22.84m79.9 22.84v-22.84m79.9 22.84v-22.84m79.9 22.84v-22.84m79.901 22.84v-22.84m159.8 22.84v-45.643m0 45.643v-22.84m79.9 22.84v-22.84m79.9 22.84v-22.84m79.9 22.84v-22.84m79.9 22.84v-22.84m79.9 22.84v-22.84m79.901 22.84v-22.84m79.9 22.84v-22.84m79.9 22.84v-22.84m159.8 22.84v-45.643m0 45.643v-22.84m79.9 22.84v-22.84m79.9 22.84v-22.84m79.9 22.84v-22.84m79.901 22.84v-22.84m79.9 22.84v-22.84m79.9 22.84v-22.84m79.9 22.84v-22.84m79.9 22.84v-22.84m159.8 22.84v-45.643m0 45.643v-22.84m79.9 22.84v-22.84m79.901 22.84v-22.84m79.9 22.84v-22.84m79.9 22.84v-22.84m79.9 22.84v-22.84m79.9 22.84v-22.84m79.9 22.84v-22.84m79.9 22.84v-22.84m159.801 22.84v-45.643m0 45.643v-22.84" transform="matrix(.10013 0 0 .09987 -22 271)"/><g style="fill:#000;fill-opacity:1"><use xlink:href="#l" x="13.234" y="259.03"/><use xlink:href="#m" x="17.047" y="259.03"/><use xlink:href="#l" x="18.953" y="259.03"/></g><g style="fill:#000;fill-opacity:1"><use xlink:href="#n" x="93.235" y="259.03"/><use xlink:href="#m" x="97.048" y="259.03"/><use xlink:href="#o" x="98.954" y="259.03"/></g><g style="fill:#000;fill-opacity:1"><use xlink:href="#o" x="173.235" y="259.03"/><use xlink:href="#m" x="177.048" y="259.03"/><use xlink:href="#l" x="178.954" y="259.03"/></g><g style="fill:#000;fill-opacity:1"><use xlink:href="#p" x="252.665" y="259.03"/><use xlink:href="#m" x="256.477" y="259.03"/><use xlink:href="#o" x="258.384" y="259.03"/></g><g style="fill:#000;fill-opacity:1"><use xlink:href="#q" x="331.33" y="259.03"/><use xlink:href="#l" x="335.143" y="259.03"/><use xlink:href="#m" x="338.955" y="259.03"/><use xlink:href="#l" x="340.862" y="259.03"/></g><path style="fill:none;stroke-width:11.4143;stroke-linecap:square;stroke-linejoin:miter;stroke:#000;stroke-opacity:1;stroke-miterlimit:10" d="M399.5-2636.7h3196.006" transform="matrix(.10013 0 0 .09987 -22 271)"/><path style="fill:none;stroke-width:5.70714;stroke-linecap:butt;stroke-linejoin:miter;stroke:#000;stroke-opacity:1;stroke-miterlimit:10" d="M399.5-2636.7v45.643m0-45.643v22.842m79.9-22.842v22.842m79.9-22.842v22.842m79.901-22.842v22.842m79.9-22.842v22.842m79.9-22.842v22.842m79.9-22.842v22.842m79.9-22.842v22.842m79.901-22.842v22.842m159.8-22.842v45.643m0-45.643v22.842m79.9-22.842v22.842m79.9-22.842v22.842m79.9-22.842v22.842m79.9-22.842v22.842m79.9-22.842v22.842m79.901-22.842v22.842m79.9-22.842v22.842m79.9-22.842v22.842m159.8-22.842v45.643m0-45.643v22.842m79.9-22.842v22.842m79.9-22.842v22.842m79.9-22.842v22.842m79.901-22.842v22.842m79.9-22.842v22.842m79.9-22.842v22.842m79.9-22.842v22.842m79.9-22.842v22.842m159.8-22.842v45.643m0-45.643v22.842m79.9-22.842v22.842m79.901-22.842v22.842m79.9-22.842v22.842m79.9-22.842v22.842m79.9-22.842v22.842m79.9-22.842v22.842m79.9-22.842v22.842m79.9-22.842v22.842m159.801-22.842v45.643m0-45.643v22.842" transform="matrix(.10013 0 0 .09987 -22 271)"/><g style="fill:#000;fill-opacity:1"><use xlink:href="#l" x="13.234" y="5.38"/><use xlink:href="#m" x="17.047" y="5.38"/><use xlink:href="#l" x="18.953" y="5.38"/></g><g style="fill:#000;fill-opacity:1"><use xlink:href="#n" x="93.235" y="5.38"/><use xlink:href="#m" x="97.048" y="5.38"/><use xlink:href="#o" x="98.954" y="5.38"/></g><g style="fill:#000;fill-opacity:1"><use xlink:href="#o" x="173.235" y="5.38"/><use xlink:href="#m" x="177.048" y="5.38"/><use xlink:href="#l" x="178.954" y="5.38"/></g><g style="fill:#000;fill-opacity:1"><use xlink:href="#p" x="252.665" y="5.38"/><use xlink:href="#m" x="256.477" y="5.38"/><use xlink:href="#o" x="258.384" y="5.38"/></g><g style="fill:#000;fill-opacity:1"><use xlink:href="#q" x="331.33" y="5.38"/><use xlink:href="#l" x="335.143" y="5.38"/><use xlink:href="#m" x="338.955" y="5.38"/><use xlink:href="#l" x="340.862" y="5.38"/></g><path style="fill:none;stroke-width:11.4143;stroke-linecap:square;stroke-linejoin:miter;stroke:#000;stroke-opacity:1;stroke-miterlimit:10" d="M399.5-211.163V-2636.7" transform="matrix(.10013 0 0 .09987 -22 271)"/><path style="fill:none;stroke-width:5.70714;stroke-linecap:butt;stroke-linejoin:miter;stroke:#000;stroke-opacity:1;stroke-miterlimit:10" d="M399.5-231.931h22.824M399.5-292.436h22.824M399.5-352.903h22.824M399.5-413.37h22.824M399.5-473.875h22.824M399.5-534.34h22.824M399.5-655.313h45.647m-45.647 0h22.824M399.5-715.779h22.824M399.5-776.284h22.824M399.5-836.75h22.824M399.5-897.217h22.824M399.5-957.683h22.824m-22.824-60.506h22.824m-22.824-60.466h22.824m-22.824-60.466h22.824M399.5-1260.093h45.647m-45.647 0h22.824m-22.824-60.506h22.824m-22.824-60.466h22.824m-22.824-60.466h22.824m-22.824-60.506h22.824m-22.824-60.466h22.824M399.5-1622.97h22.824m-22.824-60.505h22.824m-22.824-60.466h22.824M399.5-1864.913h45.647m-45.647 0h22.824M399.5-1925.38h22.824m-22.824-60.466h22.824m-22.824-60.466h22.824m-22.824-60.505h22.824m-22.824-60.467h22.824M399.5-2227.79h22.824m-22.824-60.466h22.824m-22.824-60.466h22.824M399.5-2469.694h45.647m-45.647 0h22.824M399.5-2530.16h22.824m-22.824-60.505h22.824" transform="matrix(.10013 0 0 .09987 -22 271)"/><g style="fill:#000;fill-opacity:1"><use xlink:href="#r" x=".471" y="208.87"/><use xlink:href="#n" x="2.755" y="208.87"/><use xlink:href="#m" x="6.567" y="208.87"/><use xlink:href="#o" x="8.473" y="208.87"/></g><g style="fill:#000;fill-opacity:1"><use xlink:href="#l" x="2.755" y="148.45"/><use xlink:href="#m" x="6.567" y="148.45"/><use xlink:href="#l" x="8.474" y="148.45"/></g><g style="fill:#000;fill-opacity:1"><use xlink:href="#n" x="2.755" y="88.03"/><use xlink:href="#m" x="6.567" y="88.03"/><use xlink:href="#o" x="8.474" y="88.03"/></g><g style="fill:#000;fill-opacity:1"><use xlink:href="#o" x="2.755" y="27.61"/><use xlink:href="#m" x="6.567" y="27.61"/><use xlink:href="#l" x="8.474" y="27.61"/></g><path style="fill:none;stroke-width:11.4143;stroke-linecap:square;stroke-linejoin:miter;stroke:#000;stroke-opacity:1;stroke-miterlimit:10" d="M3595.506-211.163V-2636.7" transform="matrix(.10013 0 0 .09987 -22 271)"/><path style="fill:none;stroke-width:5.70714;stroke-linecap:butt;stroke-linejoin:miter;stroke:#000;stroke-opacity:1;stroke-miterlimit:10" d="M3595.506-231.931h-22.823m22.823-60.505h-22.823m22.823-60.467h-22.823m22.823-60.467h-22.823m22.823-60.505h-22.823m22.823-60.465h-22.823m22.823-120.973h-45.685m45.685 0h-22.823m22.823-60.466h-22.823m22.823-60.505h-22.823m22.823-60.466h-22.823m22.823-60.467h-22.823m22.823-60.466h-22.823m22.823-60.506h-22.823m22.823-60.466h-22.823m22.823-60.466h-22.823m22.823-120.972h-45.685m45.685 0h-22.823m22.823-60.506h-22.823m22.823-60.466h-22.823m22.823-60.466h-22.823m22.823-60.506h-22.823m22.823-60.466h-22.823m22.823-60.467h-22.823m22.823-60.505h-22.823m22.823-60.466h-22.823m22.823-120.972h-45.685m45.685 0h-22.823m22.823-60.467h-22.823m22.823-60.466h-22.823m22.823-60.466h-22.823m22.823-60.505h-22.823m22.823-60.467h-22.823m22.823-60.506h-22.823m22.823-60.466h-22.823m22.823-60.466h-22.823m22.823-120.972h-45.685m45.685 0h-22.823m22.823-60.466h-22.823m22.823-60.505h-22.823" transform="matrix(.10013 0 0 .09987 -22 271)"/><g style="fill:#000;fill-opacity:1"><use xlink:href="#r" x="343.714" y="208.87"/><use xlink:href="#n" x="345.997" y="208.87"/><use xlink:href="#m" x="349.81" y="208.87"/><use xlink:href="#o" x="351.716" y="208.87"/></g><g style="fill:#000;fill-opacity:1"><use xlink:href="#l" x="343.714" y="148.45"/><use xlink:href="#m" x="347.527" y="148.45"/><use xlink:href="#l" x="349.433" y="148.45"/></g><g style="fill:#000;fill-opacity:1"><use xlink:href="#n" x="343.714" y="88.03"/><use xlink:href="#m" x="347.527" y="88.03"/><use xlink:href="#o" x="349.433" y="88.03"/></g><g style="fill:#000;fill-opacity:1"><use xlink:href="#o" x="343.714" y="27.61"/><use xlink:href="#m" x="347.527" y="27.61"/><use xlink:href="#l" x="349.433" y="27.61"/></g><g clip-path="url(#s)"><path style="fill:none;stroke-width:11.4143;stroke-linecap:round;stroke-linejoin:round;stroke:#00008b;stroke-opacity:1;stroke-miterlimit:10" d="m399.579-1502.037 9.129.43 9.13 1.135 9.206 1.877 9.09 2.542 9.09 3.168 9.286 3.833 9.13 4.302 9.09 4.811 9.246 5.358 9.012 5.593 9.168 6.024 9.168 6.336 9.208 6.61 9.246 6.844 9.012 6.766 9.324 7.119 9.13 6.961 9.09 6.962 9.246 6.962 9.09 6.727 9.051 6.532 9.325 6.492 9.129 6.024 9.09 5.749 9.207 5.397 9.051 4.928 9.169 4.498 9.168 4.029 9.168 3.48 9.285 2.973 9.013 2.268 9.285 1.682 9.129 1.017 9.13.313 9.206-.352 9.09-1.095 9.09-1.8 9.286-2.62 9.13-3.285 9.09-4.068 9.246-4.889 9.051-5.514 9.168-6.336 9.13-7.08 9.207-7.86 9.246-8.645 9.012-9.073 9.324-10.052 9.13-10.521 9.129-11.108 9.207-11.85 9.09-12.203 9.051-12.711 9.325-13.533 9.129-13.689 9.09-14.002 9.207-14.589 9.052-14.549 9.168-15.019 9.168-15.175 9.207-15.37 9.247-15.606 9.012-15.136 9.324-15.684 9.13-15.215 9.09-15.057 9.246-15.02 9.09-14.549 9.051-14.158 9.324-14.158 9.09-13.377 9.13-12.867 9.207-12.477 9.051-11.577 9.168-11.068 9.169-10.326 9.168-9.543 9.246-8.8 9.051-7.666 9.325-6.962 9.09-5.827 9.129-4.811 9.207-3.794 9.09-2.62 9.09-1.526 9.325-.39 9.09.82 9.09 2.073 9.247 3.286 9.05 4.537 9.169 5.788 9.13 7.08 9.206 8.408 9.247 9.817 9.012 10.795 9.324 12.438 9.13 13.493 9.129 14.745 9.207 16.114 9.09 17.13 9.051 18.305 9.324 19.947 9.13 20.729 9.09 21.707 9.207 23.154 9.051 23.662 9.169 24.953 9.168 25.931 9.168 26.83 9.285 27.965 9.012 27.926 9.325 29.607 9.129 29.647 9.09 30.194 9.207 31.094 9.09 31.054 9.09 31.446 9.325 32.54 9.09 32.15 9.13 32.228 9.207 32.775 9.05 32.189 9.17 32.502 9.167 32.423 9.169 32.267 9.285 32.306 8.973 31.015 9.324 31.72 9.13 30.507 9.129 29.96 9.207 29.607 9.09 28.512 9.09 27.73 9.286 27.573 9.129 26.127 9.09 25.11 9.246 24.405 9.051 22.88 9.13 22.098 9.168 20.886 9.207 19.712 9.246 18.617 9.013 16.818 9.324 16.036 9.129 14.314 9.13 12.946 9.207 11.616 9.09 10.013 9.05 8.604 9.325 7.275 9.13 5.671 9.09 4.146 9.207 2.738 9.051 1.212 9.168-.273 9.168-1.721 9.169-3.207 9.285-4.694 9.012-5.984 9.324-7.587 9.09-8.761 9.13-10.13 9.207-11.499 9.09-12.594 9.09-13.806 9.325-15.293 9.09-16.153 9.13-17.13 9.206-18.422 9.052-19.008 9.168-20.104 9.129-20.963 9.207-21.825 9.286-22.723 9.012-22.724 9.285-24.093 9.13-24.132 9.128-24.522 9.208-25.188 9.09-25.149 9.09-25.344 9.285-26.166 9.13-25.774 9.09-25.736 9.246-26.009 9.051-25.461 9.13-25.618 9.168-25.344 9.207-25.188 9.246-24.992 9.012-23.937 9.325-24.288 9.129-23.232 9.129-22.646 9.207-22.293 9.09-21.277 9.052-20.572 9.324-20.338 9.09-19.165 9.13-18.226 9.207-17.678 9.05-16.427 9.169-15.762 9.168-14.784 9.168-13.924 9.286-13.024 8.973-11.694 9.363-11.147 9.09-9.895 9.13-8.918 9.207-8.018 9.09-6.922 9.09-5.984 9.324-5.163 9.09-4.107 9.13-3.207 9.207-2.347 9.051-1.447 9.169-.665 9.129.196 9.207.939 9.246 1.681 9.012 2.308 9.325 3.09 9.129 3.598 9.13 4.185 9.206 4.693 9.09 5.163 9.09 5.515 9.286 6.023 9.13 6.219 9.09 6.492 9.246 6.727 9.012 6.806 9.168 6.962 9.168 7.04 9.208 7 9.246 7.001 9.012 6.728 9.324 6.766 9.13 6.414 9.129 6.14 9.207 5.867 9.09 5.476 9.051 5.045 9.325 4.733 9.129 4.146 9.09 3.598 9.207 3.09 9.051 2.425 9.169 1.877 9.168 1.213 9.168.547 9.285-.195 9.013-.86 9.285-1.644 9.13-2.346 9.128-3.09 9.208-3.911 9.09-4.576 9.09-5.32 9.285-6.257 9.13-6.845 9.09-7.587 9.246-8.37 9.051-8.918 9.168-9.738 9.13-10.365 9.207-11.03 9.246-11.694 9.012-11.968 9.324-12.907 9.13-13.141 9.129-13.533 9.207-14.119 9.09-14.276 9.051-14.51 9.325-15.214 9.129-15.058 9.09-15.175 9.246-15.489 9.052-15.253 9.129-15.41 9.168-15.332 9.168-15.214 9.286-15.175 9.012-14.472 9.324-14.666 9.13-14.002 9.09-13.533 9.207-13.141 9.09-12.477 9.09-11.812 9.324-11.42 9.13-10.482 9.09-9.7 9.207-8.995 9.051-7.94 9.168-7.118 9.13-6.18 9.207-5.123 9.285-4.146 9.012-2.934 9.286-1.877 9.129-.665 9.129.47 9.207 1.72 9.09 2.934 9.09 4.146 9.286 5.553 9.13 6.728 9.09 7.978 9.246 9.348 9.05 10.482 9.169 11.89 9.13 13.141 9.206 14.471 9.247 15.88 9.012 16.622 9.324 18.46 9.13 19.244 9.129 20.377 9.207 21.707 9.09 22.489 9.051 23.466 9.325 25.11 9.129 25.54 9.09 26.361 9.207 27.574 9.051 27.847 9.169 28.903 9.168 29.569 9.168 30.272 9.285 31.093 9.012 30.703 9.325 32.15 9.09 31.836 9.13 32.072 9.206 32.619 9.13 32.267 9.05 32.267 9.325 33.088 9.09 32.306 9.13 32.032 9.207 32.228 9.05 31.29 9.17 31.288 9.167 30.781 9.169 30.35" transform="matrix(.10013 0 0 .09987 -22 271)"/></g><g clip-path="url(#t)"><path style="fill:none;stroke-width:11.4143;stroke-linecap:round;stroke-linejoin:round;stroke:#006400;stroke-opacity:1;stroke-miterlimit:10" d="m399.5-1018.228 9.13-41.85 9.09-42.357 9.207-43.61 9.208-44.117 9.09-44.079 9.129-44.821 9.324-45.878 9.168-45.604 9.09-45.291 9.208-45.917 9.051-45.33 9.168-45.76 9.13-45.409 9.246-45.565 9.129-44.822 9.168-44.626 9.13-43.922 9.09-43.1 9.207-43.063 9.207-42.2 9.051-40.872 9.169-40.324 9.285-39.894 9.207-38.368 9.09-36.843 9.168-36.061 9.09-34.379 9.169-33.401 9.13-31.876 9.206-30.703 9.13-28.903 9.168-27.495 9.168-25.775 9.051-24.014 9.246-22.646 9.169-20.885 9.09-18.852 9.168-17.248 9.285-15.645 9.169-13.61 9.09-11.656 9.207-9.934 9.051-7.979 9.207-6.18 9.13-4.302 9.207-2.464 9.13-.586 9.167 1.251 9.13 3.05 9.09 4.812 9.207 6.649 9.207 8.37 9.09 9.973 9.13 11.694 9.324 13.572 9.168 14.98 9.09 16.348 9.208 17.991 9.05 19.204 9.169 20.807 9.13 21.981 9.206 23.428 9.169 24.445 9.168 25.657 9.13 26.635 9.09 27.417 9.207 28.747 9.207 29.568 9.051 29.92 9.168 30.86 9.286 31.992 9.168 32.189 9.09 32.267 9.207 33.088 9.09 32.971 9.169 33.636 9.129 33.636 9.207 34.027 9.13 33.792 9.167 33.949 9.169 33.675 9.05 33.362 9.247 33.636 9.168 33.245 9.09 32.501 9.169 32.385 9.285 32.423 9.168 31.524 9.09 30.663 9.208 30.39 9.05 29.412 9.17 29.06 9.128 28.199 9.247 27.69 9.129 26.714 9.168 26.048 9.13 25.07 9.09 24.093 9.207 23.624 9.207 22.684 9.09 21.55 9.13 20.808 9.324 20.26 9.168 19.086 9.09 18.07 9.207 17.365 9.052 16.31 9.168 15.644 9.129 14.745 9.207 14.08 9.13 13.142 9.207 12.437 9.129 11.695 9.09 10.873 9.207 10.403 9.208 9.739 9.05 8.996 9.169 8.526 9.285 8.096 9.207 7.51 9.052 7 9.207 6.65 9.09 6.257 9.168 5.984 9.13 5.671 9.207 5.476 9.129 5.24 9.168 5.164 9.13 5.006 9.09 4.928 9.246 4.967 9.168 4.967 9.09 4.967 9.13 5.124 9.324 5.32 9.168 5.436 9.09 5.593 9.207 5.866 9.052 6.063 9.168 6.414 9.168 6.688 9.207 7.08 9.13 7.352 9.168 7.783 9.129 8.096 9.09 8.448 9.207 8.957 9.208 9.348 9.09 9.62 9.13 10.13 9.284 10.678 9.208 10.912 9.09 11.186 9.168 11.695 9.09 11.85 9.168 12.32 9.13 12.594 9.207 12.946 9.13 13.103 9.206 13.376 9.13 13.493 9.09 13.533 9.207 13.884 9.168 13.885 9.09 13.767 9.169 13.806 9.285 14.002 9.168 13.65 9.09 13.376 9.208 13.298 9.05 12.829 9.208 12.672 9.13 12.242 9.207 11.85 9.129 11.304 9.168 10.755 9.13 10.13 9.09 9.387 9.207 8.8 9.207 7.979 9.09 7.118 9.13 6.219 9.324 5.397 9.168 4.303 9.09 3.246 9.207 2.19 9.051 1.017 9.169-.117 9.129-1.37 9.207-2.62 9.168-3.91 9.169-5.242 9.129-6.57 9.09-7.94 9.207-9.426 9.207-10.873 9.09-12.203 9.13-13.689 9.285-15.449 9.207-16.779 9.09-18.03 9.169-19.751 9.09-20.964 9.168-22.646 9.13-23.975 9.207-25.657 9.129-26.87 9.207-28.355 9.13-29.608 9.09-30.741 9.207-32.541 9.168-33.675 9.09-34.497 9.168-35.904 9.286-37.625 9.168-38.212 9.09-38.838 9.207-40.206 9.052-40.598 9.207-41.81 9.129-42.397 9.207-43.453 9.13-43.648 9.168-44.392 9.129-44.626 9.09-44.743 9.207-45.683 9.208-45.76 9.09-45.37 9.129-45.72 9.324-46.387 9.169-45.721 9.09-45.017 9.207-45.213 9.051-44.235 9.168-44.275 9.13-43.491 9.246-43.258 9.09-42.162 9.207-41.536 9.13-40.48 9.09-39.308 9.207-38.798 9.207-37.626 9.051-36.021 9.169-35.005 9.285-34.262 9.207-32.423 9.051-30.663 9.208-29.53 9.09-27.651 9.168-26.322 9.13-24.601 9.206-23.115 9.13-21.238 9.168-19.556 9.129-17.678 9.09-15.84 9.246-14.198 9.169-12.359 9.09-10.325 9.168-8.566 9.285-6.805 9.169-4.85 9.09-2.933 9.207-1.095 9.051.704 9.208 2.542 9.129 4.341 9.207 6.14 9.13 7.862 9.167 9.582 9.13 11.225 9.09 12.79 9.207 14.55 9.207 16.113 9.09 17.366 9.13 18.969 9.324 20.65 9.168 21.786 9.09 22.802 9.169 24.249 9.09 25.07 9.168 26.44 9.13 27.3 9.207 28.512 9.168 29.099 9.168 30.037 9.13 30.625 9.09 31.093 9.207 32.15 9.207 32.54 9.051 32.58 9.168 33.167 9.286 33.988 9.207 33.753 9.051 33.558 9.207 34.027 9.09 33.557 9.169 33.87 9.129 33.558 9.207 33.715 9.13 33.088 9.168 32.97 9.129 32.424 9.09 31.837 9.246 31.758 9.168 31.172 9.09 30.273 9.169 29.802 9.285 29.647 9.168 28.551 9.09 27.535 9.208 27.104 9.051 25.931 9.207 25.462 9.13 24.483 9.207 23.82 9.129 22.801 9.168 21.98 9.13 21.043 9.09 20.025 9.207 19.438 9.207 18.54 9.09 17.404 9.13 16.7 9.324 16.075 9.168 15.058 9.09 14.08 9.168 13.455 9.09 12.554 9.169 11.93 9.129 11.146 9.207 10.56 9.13 9.856 9.207 9.27 9.129 8.643 9.09 8.057 9.207 7.705 9.208 7.197 9.05 6.688 9.169 6.375 9.285 6.14 9.169 5.789 9.09 5.476 9.207 5.358 9.09 5.084 9.168 5.085 9.13 4.928" transform="matrix(.10013 0 0 .09987 -22 271)"/></g></svg>