<svg xmlns="http://www.w3.org/2000/svg" xmlns:xlink="http://www.w3.org/1999/xlink" width="990.565" height="366.665" viewBox="0 0 742.924 274.999"><defs><clipPath id="a"><path d="M181 9h1v255h-1zm0 0"/></clipPath><clipPath id="b"><path d="M11.5 237h340v2h-340zm0 0"/></clipPath><clipPath id="c"><path d="M45 9h2v255h-2zm0 0"/></clipPath><clipPath id="d"><path d="M113 9h2v255h-2zm0 0"/></clipPath><clipPath id="e"><path d="M181 9h1v255h-1zm0 0"/></clipPath><clipPath id="f"><path d="M248 9h2v255h-2zm0 0"/></clipPath><clipPath id="g"><path d="M316 9h2v255h-2zm0 0"/></clipPath><clipPath id="h"><path d="M11.5 237h340v2h-340zm0 0"/></clipPath><clipPath id="i"><path d="M11.5 173h340v1h-340zm0 0"/></clipPath><clipPath id="j"><path d="M11.5 108h340v2h-340zm0 0"/></clipPath><clipPath id="k"><path d="M11.5 43h340v2h-340zm0 0"/></clipPath><clipPath id="l"><path d="M39 268h13v6.5H39zm0 0"/></clipPath><clipPath id="q"><path d="M107 268h13v6.5h-13zm0 0"/></clipPath><clipPath id="s"><path d="M176 268h11v6.5h-11zm0 0"/></clipPath><clipPath id="t"><path d="M244 268h10v6.5h-10zm0 0"/></clipPath><clipPath id="u"><path d="M311 268h11v6.5h-11zm0 0"/></clipPath><clipPath id="v"><path d="M39 .5h13V7H39zm0 0"/></clipPath><clipPath id="w"><path d="M107 .5h13V7h-13zm0 0"/></clipPath><clipPath id="x"><path d="M176 .5h11V7h-11zm0 0"/></clipPath><clipPath id="y"><path d="M244 .5h10V7h-10zm0 0"/></clipPath><clipPath id="z"><path d="M311 .5h11V7h-11zm0 0"/></clipPath><clipPath id="A"><path d="M.5 236H5v6H.5zm0 0"/></clipPath><clipPath id="C"><path d="M.5 106H5v7H.5zm0 0"/></clipPath><clipPath id="D"><path d="M.5 42H5v6H.5zm0 0"/></clipPath><clipPath id="F"><path d="M358 236h3.5v6H358zm0 0"/></clipPath><clipPath id="G"><path d="M358 106h3.5v7H358zm0 0"/></clipPath><clipPath id="H"><path d="M357 42h4.5v6H357zm0 0"/></clipPath><clipPath id="I"><path d="M11.5 9h340v255h-340zm0 0"/></clipPath><clipPath id="J"><path d="M11.5 34H98v2H11.5zm0 0"/></clipPath><clipPath id="K"><path d="M265 237h86.5v2H265zm0 0"/></clipPath><clipPath id="L"><path d="M562 9h1v255h-1zm0 0"/></clipPath><clipPath id="M"><path d="M392.426 237h340v2h-340zm0 0"/></clipPath><clipPath id="N"><path d="M426 9h2v255h-2zm0 0"/></clipPath><clipPath id="O"><path d="M494 9h2v255h-2zm0 0"/></clipPath><clipPath id="P"><path d="M562 9h1v255h-1zm0 0"/></clipPath><clipPath id="Q"><path d="M629 9h2v255h-2zm0 0"/></clipPath><clipPath id="R"><path d="M697 9h2v255h-2zm0 0"/></clipPath><clipPath id="S"><path d="M392.426 237h340v2h-340zm0 0"/></clipPath><clipPath id="T"><path d="M392.426 173h340v1h-340zm0 0"/></clipPath><clipPath id="U"><path d="M392.426 108h340v2h-340zm0 0"/></clipPath><clipPath id="V"><path d="M392.426 43h340v2h-340zm0 0"/></clipPath><clipPath id="W"><path d="M420 268h13v6.5h-13zm0 0"/></clipPath><clipPath id="X"><path d="M488 268h13v6.5h-13zm0 0"/></clipPath><clipPath id="Y"><path d="M557 268h11v6.5h-11zm0 0"/></clipPath><clipPath id="Z"><path d="M624 268h11v6.5h-11zm0 0"/></clipPath><clipPath id="aa"><path d="M692 268h11v6.5h-11zm0 0"/></clipPath><clipPath id="ab"><path d="M420 .5h13V7h-13zm0 0"/></clipPath><clipPath id="ac"><path d="M488 .5h13V7h-13zm0 0"/></clipPath><clipPath id="ad"><path d="M557 .5h11V7h-11zm0 0"/></clipPath><clipPath id="ae"><path d="M624 .5h11V7h-11zm0 0"/></clipPath><clipPath id="af"><path d="M692 .5h11V7h-11zm0 0"/></clipPath><clipPath id="ag"><path d="M381.426 236H386v6h-4.574zm0 0"/></clipPath><clipPath id="ah"><path d="M381.426 106H386v7h-4.574zm0 0"/></clipPath><clipPath id="ai"><path d="M381.426 42H386v6h-4.574zm0 0"/></clipPath><clipPath id="aj"><path d="M739 236h3.426v6H739zm0 0"/></clipPath><clipPath id="ak"><path d="M738 106h4.426v7H738zm0 0"/></clipPath><clipPath id="al"><path d="M738 42h4.426v6H738zm0 0"/></clipPath><clipPath id="am"><path d="M392.426 16h340v241h-340zm0 0"/></clipPath><clipPath id="an"><path d="M392.426 34H479v2h-86.574zm0 0"/></clipPath><clipPath id="ao"><path d="M646 237h86.426v2H646zm0 0"/></clipPath><symbol overflow="visible" id="m"><path style="stroke:none" d="M2.125-2.344H.344v.547h1.781zm0 0"/></symbol><symbol overflow="visible" id="n"><path style="stroke:none" d="M3.563-5.313H.828L.422-2.421h.61c.312-.375.562-.5.984-.5.703 0 1.156.485 1.156 1.281 0 .766-.438 1.235-1.156 1.235-.579 0-.938-.297-1.094-.906H.266c.093.437.156.656.312.843.313.406.844.64 1.453.64 1.063 0 1.813-.78 1.813-1.905 0-1.047-.688-1.766-1.719-1.766-.375 0-.672.094-.984.313l.218-1.485h2.204zm0 0"/></symbol><symbol overflow="visible" id="o"><path style="stroke:none" d="M1.438-.781H.655V0h.781zm0 0"/></symbol><symbol overflow="visible" id="p"><path style="stroke:none" d="M2.063-5.313c-.5 0-.938.22-1.22.579C.5-4.266.329-3.563.329-2.578c0 1.797.594 2.75 1.734 2.75 1.126 0 1.735-.953 1.735-2.703 0-1.031-.156-1.719-.516-2.203-.281-.375-.719-.579-1.219-.579zm0 .579c.718 0 1.062.718 1.062 2.14 0 1.516-.344 2.219-1.078 2.219C1.344-.375 1-1.109 1-2.563c0-1.453.344-2.171 1.063-2.171zm0 0"/></symbol><symbol overflow="visible" id="r"><path style="stroke:none" d="M3.797-.656H1c.063-.438.313-.703.953-1.094l.75-.406c.75-.406 1.125-.953 1.125-1.594 0-.453-.172-.86-.484-1.14-.328-.298-.719-.423-1.219-.423-.672 0-1.172.235-1.469.688-.187.281-.265.61-.281 1.156h.656c.032-.36.078-.578.157-.75.171-.328.515-.515.921-.515.594 0 1.047.421 1.047.984 0 .422-.25.781-.719 1.063l-.687.39C.64-1.672.312-1.172.25 0h3.547zm0 0"/></symbol><symbol overflow="visible" id="B"><path style="stroke:none" d="M1.938-3.781V0h.671v-5.313h-.437c-.235.813-.39.922-1.406 1.047v.485zm0 0"/></symbol><symbol overflow="visible" id="E"><path style="stroke:none" d="M1.656-2.438h.36c.734 0 1.109.329 1.109.954 0 .671-.422 1.078-1.11 1.078-.718 0-1.078-.36-1.109-1.14H.234c.032.421.11.702.235.952.281.5.797.766 1.531.766 1.094 0 1.797-.656 1.797-1.656 0-.672-.266-1.047-.906-1.266.5-.203.75-.578.75-1.11 0-.906-.61-1.453-1.625-1.453-1.079 0-1.641.579-1.657 1.72h.657c0-.329.03-.516.109-.673.156-.296.484-.468.906-.468.578 0 .938.343.938.906 0 .375-.14.594-.438.719-.172.078-.406.109-.875.109zm0 0"/></symbol></defs><g clip-path="url(#a)"><path style="fill:none;stroke-width:6.25;stroke-linecap:round;stroke-linejoin:miter;stroke:#bfbfbf;stroke-opacity:1;stroke-miterlimit:10" d="M1810 104.99v2550" transform="matrix(.1 0 0 -.1 .5 274.499)"/></g><g clip-path="url(#b)"><path style="fill:none;stroke-width:6.25;stroke-linecap:round;stroke-linejoin:miter;stroke:#bfbfbf;stroke-opacity:1;stroke-miterlimit:10" d="M110 363.78h3400" transform="matrix(.1 0 0 -.1 .5 274.499)"/></g><g clip-path="url(#c)"><path style="fill:none;stroke-width:6.25;stroke-linecap:round;stroke-linejoin:miter;stroke:#bfbfbf;stroke-opacity:1;stroke-dasharray:12.5,18.75;stroke-miterlimit:10" d="M457.188 104.99v2550" transform="matrix(.1 0 0 -.1 .5 274.499)"/></g><g clip-path="url(#d)"><path style="fill:none;stroke-width:6.25;stroke-linecap:round;stroke-linejoin:miter;stroke:#bfbfbf;stroke-opacity:1;stroke-dasharray:12.5,18.75;stroke-miterlimit:10" d="M1133.594 104.99v2550" transform="matrix(.1 0 0 -.1 .5 274.499)"/></g><g clip-path="url(#e)"><path style="fill:none;stroke-width:6.25;stroke-linecap:round;stroke-linejoin:miter;stroke:#bfbfbf;stroke-opacity:1;stroke-dasharray:12.5,18.75;stroke-miterlimit:10" d="M1810 104.99v2550" transform="matrix(.1 0 0 -.1 .5 274.499)"/></g><g clip-path="url(#f)"><path style="fill:none;stroke-width:6.25;stroke-linecap:round;stroke-linejoin:miter;stroke:#bfbfbf;stroke-opacity:1;stroke-dasharray:12.5,18.75;stroke-miterlimit:10" d="M2486.406 104.99v2550" transform="matrix(.1 0 0 -.1 .5 274.499)"/></g><g clip-path="url(#g)"><path style="fill:none;stroke-width:6.25;stroke-linecap:round;stroke-linejoin:miter;stroke:#bfbfbf;stroke-opacity:1;stroke-dasharray:12.5,18.75;stroke-miterlimit:10" d="M3162.813 104.99v2550" transform="matrix(.1 0 0 -.1 .5 274.499)"/></g><g clip-path="url(#h)"><path style="fill:none;stroke-width:6.25;stroke-linecap:round;stroke-linejoin:miter;stroke:#bfbfbf;stroke-opacity:1;stroke-dasharray:12.5,18.75;stroke-miterlimit:10" d="M110 363.78h3400" transform="matrix(.1 0 0 -.1 .5 274.499)"/></g><g clip-path="url(#i)"><path style="fill:none;stroke-width:6.25;stroke-linecap:round;stroke-linejoin:miter;stroke:#bfbfbf;stroke-opacity:1;stroke-dasharray:12.5,18.75;stroke-miterlimit:10" d="M110 1010.732h3400" transform="matrix(.1 0 0 -.1 .5 274.499)"/></g><g clip-path="url(#j)"><path style="fill:none;stroke-width:6.25;stroke-linecap:round;stroke-linejoin:miter;stroke:#bfbfbf;stroke-opacity:1;stroke-dasharray:12.5,18.75;stroke-miterlimit:10" d="M110 1657.685h3400" transform="matrix(.1 0 0 -.1 .5 274.499)"/></g><g clip-path="url(#k)"><path style="fill:none;stroke-width:6.25;stroke-linecap:round;stroke-linejoin:miter;stroke:#bfbfbf;stroke-opacity:1;stroke-dasharray:12.5,18.75;stroke-miterlimit:10" d="M110 2304.638h3400" transform="matrix(.1 0 0 -.1 .5 274.499)"/></g><path style="fill:none;stroke-width:12.5;stroke-linecap:square;stroke-linejoin:miter;stroke:#000;stroke-opacity:1;stroke-miterlimit:10" d="M110 104.99h3400" transform="matrix(.1 0 0 -.1 .5 274.499)"/><path style="fill:none;stroke-width:6.25;stroke-linecap:butt;stroke-linejoin:miter;stroke:#000;stroke-opacity:1;stroke-miterlimit:10" d="M118.984 104.99v25m67.618-25v25m67.656-25v25m67.656-25v25m67.617-25v25m67.657-25v50m67.617-50v25m67.655-25v25m67.657-25v25m67.617-25v25m67.656-25v25m67.618-25v25m67.656-25v25m67.656-25v25m67.618-25v25m67.656-25v50m67.616-50v25m67.657-25v25m67.656-25v25m67.617-25v25m67.657-25v25m67.617-25v25m67.656-25v25m67.657-25v25m67.617-25v25m67.656-25v50m67.656-50v25m67.617-25v25m67.657-25v25m67.617-25v25m67.656-25v25m67.657-25v25m67.617-25v25m67.656-25v25m67.657-25v25m67.616-25v50m67.657-50v25m67.617-25v25m67.656-25v25m67.617-25v25m67.657-25v25m67.656-25v25m67.617-25v25m67.657-25v25m67.616-25v25m67.657-25v50m67.656-50v25m67.617-25v25m67.656-25v25m67.656-25v25m67.618-25v25" transform="matrix(.1 0 0 -.1 .5 274.499)"/><g style="fill:#000;fill-opacity:1" clip-path="url(#l)"><use xlink:href="#m" x="39.414" y="273.999"/><use xlink:href="#n" x="41.912" y="273.999"/><use xlink:href="#o" x="46.082" y="273.999"/><use xlink:href="#p" x="48.167" y="273.999"/></g><g style="fill:#000;fill-opacity:1" clip-path="url(#q)"><use xlink:href="#m" x="106.915" y="273.999"/><use xlink:href="#r" x="109.412" y="273.999"/><use xlink:href="#o" x="113.582" y="273.999"/><use xlink:href="#n" x="115.667" y="273.999"/></g><g style="fill:#000;fill-opacity:1" clip-path="url(#s)"><use xlink:href="#p" x="176.288" y="273.999"/><use xlink:href="#o" x="180.458" y="273.999"/><use xlink:href="#p" x="182.543" y="273.999"/></g><g style="fill:#000;fill-opacity:1" clip-path="url(#t)"><use xlink:href="#r" x="243.788" y="273.999"/><use xlink:href="#o" x="247.958" y="273.999"/><use xlink:href="#n" x="250.043" y="273.999"/></g><g style="fill:#000;fill-opacity:1" clip-path="url(#u)"><use xlink:href="#n" x="311.288" y="273.999"/><use xlink:href="#o" x="315.458" y="273.999"/><use xlink:href="#p" x="317.543" y="273.999"/></g><path style="fill:none;stroke-width:12.5;stroke-linecap:square;stroke-linejoin:miter;stroke:#000;stroke-opacity:1;stroke-miterlimit:10" d="M110 2654.99h3400" transform="matrix(.1 0 0 -.1 .5 274.499)"/><path style="fill:none;stroke-width:6.25;stroke-linecap:butt;stroke-linejoin:miter;stroke:#000;stroke-opacity:1;stroke-miterlimit:10" d="M118.984 2654.99v-25m67.618 25v-25m67.656 25v-25m67.656 25v-25m67.617 25v-25m67.657 25v-50m67.617 50v-25m67.655 25v-25m67.657 25v-25m67.617 25v-25m67.656 25v-25m67.618 25v-25m67.656 25v-25m67.656 25v-25m67.618 25v-25m67.656 25v-50m67.616 50v-25m67.657 25v-25m67.656 25v-25m67.617 25v-25m67.657 25v-25m67.617 25v-25m67.656 25v-25m67.657 25v-25m67.617 25v-25m67.656 25v-50m67.656 50v-25m67.617 25v-25m67.657 25v-25m67.617 25v-25m67.656 25v-25m67.657 25v-25m67.617 25v-25m67.656 25v-25m67.657 25v-25m67.616 25v-50m67.657 50v-25m67.617 25v-25m67.656 25v-25m67.617 25v-25m67.657 25v-25m67.656 25v-25m67.617 25v-25m67.657 25v-25m67.616 25v-25m67.657 25v-50m67.656 50v-25m67.617 25v-25m67.656 25v-25m67.656 25v-25m67.618 25v-25" transform="matrix(.1 0 0 -.1 .5 274.499)"/><g style="fill:#000;fill-opacity:1" clip-path="url(#v)"><use xlink:href="#m" x="39.414" y="5.874"/><use xlink:href="#n" x="41.912" y="5.874"/><use xlink:href="#o" x="46.082" y="5.874"/><use xlink:href="#p" x="48.167" y="5.874"/></g><g style="fill:#000;fill-opacity:1" clip-path="url(#w)"><use xlink:href="#m" x="106.915" y="5.874"/><use xlink:href="#r" x="109.412" y="5.874"/><use xlink:href="#o" x="113.582" y="5.874"/><use xlink:href="#n" x="115.667" y="5.874"/></g><g style="fill:#000;fill-opacity:1" clip-path="url(#x)"><use xlink:href="#p" x="176.288" y="5.874"/><use xlink:href="#o" x="180.458" y="5.874"/><use xlink:href="#p" x="182.543" y="5.874"/></g><g style="fill:#000;fill-opacity:1" clip-path="url(#y)"><use xlink:href="#r" x="243.788" y="5.874"/><use xlink:href="#o" x="247.958" y="5.874"/><use xlink:href="#n" x="250.043" y="5.874"/></g><g style="fill:#000;fill-opacity:1" clip-path="url(#z)"><use xlink:href="#n" x="311.288" y="5.874"/><use xlink:href="#o" x="315.458" y="5.874"/><use xlink:href="#p" x="317.543" y="5.874"/></g><path style="fill:none;stroke-width:12.5;stroke-linecap:square;stroke-linejoin:miter;stroke:#000;stroke-opacity:1;stroke-miterlimit:10" d="M110 104.99v2550" transform="matrix(.1 0 0 -.1 .5 274.499)"/><path style="fill:none;stroke-width:6.25;stroke-linecap:butt;stroke-linejoin:miter;stroke:#000;stroke-opacity:1;stroke-miterlimit:10" d="M110 104.99h25m-25 64.688h25m-25 64.726h25m-25 64.688h25m-25 64.688h50m-50 64.687h25m-25 64.687h25m-25 64.726h25m-25 64.688h25m-25 64.688h25m-25 64.687h25m-25 64.687h25m-25 64.727h25m-25 64.688h25m-25 64.687h50m-50 64.688h25m-25 64.687h25m-25 64.688h25m-25 64.726h25m-25 64.688h25m-25 64.687h25m-25 64.688h25m-25 64.687h25m-25 64.727h25m-25 64.687h50m-50 64.688h25m-25 64.687h25m-25 64.688h25m-25 64.687h25m-25 64.688h25m-25 64.727h25m-25 64.687h25m-25 64.687h25m-25 64.688h25m-25 64.726h50m-50 64.688h25m-25 64.687h25m-25 64.687h25m-25 64.688h25m-25 64.688h25" transform="matrix(.1 0 0 -.1 .5 274.499)"/><g clip-path="url(#A)"><use xlink:href="#p" x=".455" y="241.499" style="fill:#000;fill-opacity:1"/></g><use xlink:href="#B" x=".455" y="177.124" style="fill:#000;fill-opacity:1"/><g clip-path="url(#C)"><use xlink:href="#r" x=".455" y="112.124" style="fill:#000;fill-opacity:1"/></g><g clip-path="url(#D)"><use xlink:href="#E" x=".455" y="47.749" style="fill:#000;fill-opacity:1"/></g><path style="fill:none;stroke-width:12.5;stroke-linecap:square;stroke-linejoin:miter;stroke:#000;stroke-opacity:1;stroke-miterlimit:10" d="M3510 104.99v2550" transform="matrix(.1 0 0 -.1 .5 274.499)"/><path style="fill:none;stroke-width:6.25;stroke-linecap:butt;stroke-linejoin:miter;stroke:#000;stroke-opacity:1;stroke-miterlimit:10" d="M3510 104.99h-25m25 64.688h-25m25 64.726h-25m25 64.688h-25m25 64.688h-50m50 64.687h-25m25 64.687h-25m25 64.726h-25m25 64.688h-25m25 64.688h-25m25 64.687h-25m25 64.687h-25m25 64.727h-25m25 64.688h-25m25 64.687h-50m50 64.688h-25m25 64.687h-25m25 64.688h-25m25 64.726h-25m25 64.688h-25m25 64.687h-25m25 64.688h-25m25 64.687h-25m25 64.727h-25m25 64.687h-50m50 64.688h-25m25 64.687h-25m25 64.688h-25m25 64.687h-25m25 64.688h-25m25 64.727h-25m25 64.687h-25m25 64.687h-25m25 64.688h-25m25 64.726h-50m50 64.688h-25m25 64.687h-25m25 64.687h-25m25 64.688h-25m25 64.688h-25" transform="matrix(.1 0 0 -.1 .5 274.499)"/><g clip-path="url(#F)"><use xlink:href="#p" x="357.75" y="241.499" style="fill:#000;fill-opacity:1"/></g><use xlink:href="#B" x="357.75" y="177.124" style="fill:#000;fill-opacity:1"/><g clip-path="url(#G)"><use xlink:href="#r" x="357.75" y="112.124" style="fill:#000;fill-opacity:1"/></g><g clip-path="url(#H)"><use xlink:href="#E" x="357.75" y="47.749" style="fill:#000;fill-opacity:1"/></g><g clip-path="url(#I)"><path style="fill:none;stroke-width:12.5;stroke-linecap:round;stroke-linejoin:miter;stroke:#00008b;stroke-opacity:1;stroke-miterlimit:10" d="m110 1379.99 6.25 59.766 6.25 59.609 6.25 59.258 6.25 58.789 6.25 58.164 6.25 57.383 6.25 56.484 6.25 55.352 6.25 54.18 6.25 52.812 6.25 51.328 6.25 49.727 6.25 48.007 6.25 46.172 6.25 44.258 6.25 42.227 6.25 40.117 6.25 37.93 6.25 35.742 6.25 33.398 6.25 31.055 6.25 28.71 6.25 26.29 6.25 23.867 6.25 21.445 6.25 19.024 6.25 16.601 6.25 14.22 6.25 11.913 6.25 9.57 6.25 7.344 6.25 5.156 6.25 3.008 6.25.977 6.25-.938 6.25-2.812 6.25-4.57 6.25-6.25 6.25-7.774 6.25-9.18 6.25-10.468 6.25-11.68 6.25-12.695 6.25-13.633 6.25-14.375 6.25-15.04 6.25-15.546 6.25-15.899 6.25-16.171 12.5-32.5 6.25-16.055 6.25-15.82 6.25-15.391 6.25-14.883 6.25-14.258 6.25-13.515 6.25-12.696 6.25-11.797 6.25-10.742 6.25-9.687 6.25-8.555 6.25-7.344 6.25-6.054 6.25-4.766 6.25-3.437 6.25-2.07 6.25-.665 6.25.664 6.25 2.07 6.25 3.438 6.25 4.766 6.25 6.054 6.25 7.344 6.25 8.555 6.25 9.687 6.25 10.742 6.25 11.797 6.25 12.696 6.25 13.515 6.25 14.258 6.25 14.883 6.25 15.39 6.25 15.82 6.25 16.056 12.5 32.5 6.25 16.171 6.25 15.899 6.25 15.547 6.25 15.039 6.25 14.375 6.25 13.633 6.25 12.695 6.25 11.68 6.25 10.468 6.25 9.18 6.25 7.773 6.25 6.25 6.25 4.57 6.25 2.813 6.25.938 6.25-.977 6.25-3.008 6.25-5.156 6.25-7.344 6.25-9.57 6.25-11.914 6.25-14.219 6.25-16.601 6.25-19.024 6.25-21.445 6.25-23.867 6.25-26.29 6.25-28.71 6.25-31.055 6.25-33.398 6.25-35.743 6.25-37.93 6.25-40.116 6.25-42.227 6.25-44.258 6.25-46.172 6.25-48.007 6.25-49.727 6.25-51.328 6.25-52.813 6.25-54.18 6.25-55.35 6.25-56.485 6.25-57.383 6.25-58.164 6.25-58.79 6.25-59.257 6.25-59.61 6.25-59.765 6.25-59.727 6.25-59.609 6.25-59.258 6.25-58.828 6.25-58.164 6.25-57.383 6.25-56.445 6.25-55.39 6.25-54.141 6.25-52.813 6.25-51.328 6.25-49.726 6.25-48.008 6.25-46.172 6.25-44.258 6.25-42.227 6.25-40.117 6.25-37.969 6.25-35.703 6.25-33.398 6.25-31.094 6.25-28.672 6.25-26.289 6.25-23.867 6.25-21.445 6.25-19.024 6.25-16.601 6.25-14.258 6.25-11.875 6.25-9.61 6.25-7.304 6.25-5.156 6.25-3.047 6.25-.977 6.25.977 6.25 2.812 6.25 4.57 6.25 6.212 6.25 7.773 6.25 9.219 6.25 10.468 6.25 11.641 6.25 12.734 6.25 13.594 6.25 14.414 6.25 15.04 6.25 15.546 6.25 15.899 6.25 16.172 6.25 16.25 6.25 16.21 6.25 16.094 6.25 15.781 6.25 15.43 6.25 14.883 6.25 14.219 6.25 13.554 6.25 12.696 6.25 11.757 6.25 10.782 6.25 9.687 6.25 8.555 6.25 7.305 6.25 6.093 6.25 4.766 6.25 3.398 6.25 2.07 6.25.704 6.25-.703 6.25-2.07 6.25-3.399 6.25-4.766 6.25-6.093 6.25-7.305 6.25-8.555 6.25-9.687 6.25-10.781 6.25-11.758 6.25-12.696 6.25-13.554 6.25-14.22 6.25-14.882 6.25-15.43 6.25-15.78 6.25-16.095 6.25-16.21 6.25-16.25 6.25-16.172 6.25-15.899 6.25-15.547 6.25-15.039 6.25-14.414 6.25-13.594 6.25-12.734 6.25-11.64 6.25-10.47 6.25-9.218 6.25-7.773 6.25-6.211 6.25-4.57 6.25-2.813 6.25-.977 6.25.977 6.25 3.047 6.25 5.156 6.25 7.305 6.25 9.609 6.25 11.875 6.25 14.258 6.25 16.601 6.25 19.024 6.25 21.445 6.25 23.867 6.25 26.29 6.25 28.671 6.25 31.094 6.25 33.398 6.25 35.704 6.25 37.968 6.25 40.117 6.25 42.227 6.25 44.258 6.25 46.172 6.25 48.008 6.25 49.726 6.25 51.328 6.25 52.813 6.25 54.14 6.25 55.39 6.25 56.446 6.25 57.383 6.25 58.164 6.25 58.828 6.25 59.258 6.25 59.61 6.25 59.726 6.25 59.766 6.25 59.609 6.25 59.258 6.25 58.789 6.25 58.164 6.25 57.383 6.25 56.484 6.25 55.352 6.25 54.18 6.25 52.812 6.25 51.328 6.25 49.727 6.25 48.007 6.25 46.172 6.25 44.258 6.25 42.227 6.25 40.117 6.25 37.93 6.25 35.742 6.25 33.398 6.25 31.055 6.25 28.71 6.25 26.29 6.25 23.867 6.25 21.445 6.25 19.024 6.25 16.601 6.25 14.22 6.25 11.913 6.25 9.57 6.25 7.344 6.25 5.156 6.25 3.008 6.25.977 6.25-.938 6.25-2.812 6.25-4.57 6.25-6.25 6.25-7.774 6.25-9.18 6.25-10.468 6.25-11.68 6.25-12.695 6.25-13.633 6.25-14.375 6.25-15.04 6.25-15.546 6.25-15.899 6.25-16.171 12.5-32.5 6.25-16.055 6.25-15.82 6.25-15.391 6.25-14.883 6.25-14.258 6.25-13.515 6.25-12.696 6.25-11.797 6.25-10.742 6.25-9.687 6.25-8.555 6.25-7.344 6.25-6.054 6.25-4.766 6.25-3.437 6.25-2.07 6.25-.665 6.25.664 6.25 2.07 6.25 3.438 6.25 4.766 6.25 6.054 6.25 7.344 6.25 8.555 6.25 9.687 6.25 10.742 6.25 11.797 6.25 12.696 6.25 13.515 6.25 14.258 6.25 14.883 6.25 15.39 6.25 15.82 6.25 16.056 12.5 32.5 6.25 16.171 6.25 15.899 6.25 15.547 6.25 15.039 6.25 14.375 6.25 13.633 6.25 12.695 6.25 11.68 6.25 10.468 6.25 9.18 6.25 7.773 6.25 6.25 6.25 4.57 6.25 2.813 6.25.938 6.25-.977 6.25-3.008 6.25-5.156 6.25-7.344 6.25-9.57 6.25-11.914 6.25-14.219 6.25-16.601 6.25-19.024 6.25-21.445 6.25-23.867 6.25-26.29 6.25-28.71 6.25-31.055 6.25-33.398 6.25-35.743 6.25-37.93 6.25-40.116 6.25-42.227 6.25-44.258 6.25-46.172 6.25-48.007 6.25-49.727 6.25-51.328 6.25-52.813 6.25-54.18 6.25-55.35 6.25-56.485 6.25-57.383 6.25-58.164 6.25-58.79 6.25-59.257 6.25-59.61 6.25-59.765 6.25-59.727 6.25-59.609 6.25-59.258 6.25-58.828 6.25-58.164 6.25-57.383 6.25-56.445 6.25-55.39 6.25-54.141 6.25-52.813 6.25-51.328 6.25-49.726 6.25-48.008 6.25-46.172 6.25-44.258 6.25-42.227 6.25-40.117 6.25-37.969 6.25-35.703 6.25-33.398 6.25-31.094 6.25-28.672 6.25-26.289 6.25-23.867 6.25-21.445 6.25-19.024 6.25-16.601 6.25-14.258 6.25-11.875 6.25-9.61 6.25-7.304 6.25-5.156 6.25-3.047 6.25-.977 6.25.977 6.25 2.812 6.25 4.57 6.25 6.212 6.25 7.773 6.25 9.219 6.25 10.468 6.25 11.641 6.25 12.734 6.25 13.594 6.25 14.414 6.25 15.04 6.25 15.546 6.25 15.899 6.25 16.172 6.25 16.25 6.25 16.21 6.25 16.094 6.25 15.781 6.25 15.43 6.25 14.883 6.25 14.219 6.25 13.554 6.25 12.696 6.25 11.757 6.25 10.782 6.25 9.687 6.25 8.555 6.25 7.305 6.25 6.093 6.25 4.766 6.25 3.398 6.25 2.07 6.25.704 6.25-.703 6.25-2.07 6.25-3.399 6.25-4.766 6.25-6.093 6.25-7.305 6.25-8.555 6.25-9.687 6.25-10.781 6.25-11.758 6.25-12.696 6.25-13.554 6.25-14.22 6.25-14.882 6.25-15.43 6.25-15.78 6.25-16.095 6.25-16.21 6.25-16.25 6.25-16.172 6.25-15.899 6.25-15.547 6.25-15.039 6.25-14.414 6.25-13.594 6.25-12.734 6.25-11.64 6.25-10.47 6.25-9.218 6.25-7.773 6.25-6.211 6.25-4.57 6.25-2.813 6.25-.977 6.25.977 6.25 3.047 6.25 5.156 6.25 7.305 6.25 9.609 6.25 11.875 6.25 14.258 6.25 16.601 6.25 19.024 6.25 21.445 6.25 23.867 6.25 26.29 6.25 28.671 6.25 31.094 6.25 33.398 6.25 35.704 6.25 37.968 6.25 40.117 6.25 42.227 6.25 44.258 6.25 46.172 6.25 48.008 6.25 49.726 6.25 51.328 6.25 52.813 6.25 54.14 6.25 55.39 6.25 56.446 6.25 57.383 6.25 58.164 6.25 58.828 6.25 59.258 6.25 59.61 6.25 59.726" transform="matrix(.1 0 0 -.1 .5 274.499)"/></g><g clip-path="url(#J)"><path style="fill:none;stroke-width:12.5;stroke-linecap:round;stroke-linejoin:miter;stroke:#006400;stroke-opacity:1;stroke-miterlimit:10" d="M110 2396.2h850" transform="matrix(.1 0 0 -.1 .5 274.499)"/></g><path style="fill:none;stroke-width:12.5;stroke-linecap:round;stroke-linejoin:miter;stroke:#006400;stroke-opacity:1;stroke-miterlimit:10" d="M960 363.78h850m0 2032.42h850" transform="matrix(.1 0 0 -.1 .5 274.499)"/><g clip-path="url(#K)"><path style="fill:none;stroke-width:12.5;stroke-linecap:round;stroke-linejoin:miter;stroke:#006400;stroke-opacity:1;stroke-miterlimit:10" d="M2660 363.78h850" transform="matrix(.1 0 0 -.1 .5 274.499)"/></g><g clip-path="url(#L)"><path style="fill:none;stroke-width:6.25;stroke-linecap:round;stroke-linejoin:miter;stroke:#bfbfbf;stroke-opacity:1;stroke-miterlimit:10" d="M1810.018 104.99v2550" transform="matrix(.1 0 0 -.1 381.424 274.499)"/></g><g clip-path="url(#M)"><path style="fill:none;stroke-width:6.25;stroke-linecap:round;stroke-linejoin:miter;stroke:#bfbfbf;stroke-opacity:1;stroke-miterlimit:10" d="M110.018 363.78h3400" transform="matrix(.1 0 0 -.1 381.424 274.499)"/></g><g clip-path="url(#N)"><path style="fill:none;stroke-width:6.25;stroke-linecap:round;stroke-linejoin:miter;stroke:#bfbfbf;stroke-opacity:1;stroke-dasharray:12.5,18.75;stroke-miterlimit:10" d="M457.166 104.99v2550" transform="matrix(.1 0 0 -.1 381.424 274.499)"/></g><g clip-path="url(#O)"><path style="fill:none;stroke-width:6.25;stroke-linecap:round;stroke-linejoin:miter;stroke:#bfbfbf;stroke-opacity:1;stroke-dasharray:12.5,18.75;stroke-miterlimit:10" d="M1133.572 104.99v2550" transform="matrix(.1 0 0 -.1 381.424 274.499)"/></g><g clip-path="url(#P)"><path style="fill:none;stroke-width:6.25;stroke-linecap:round;stroke-linejoin:miter;stroke:#bfbfbf;stroke-opacity:1;stroke-dasharray:12.5,18.75;stroke-miterlimit:10" d="M1810.018 104.99v2550" transform="matrix(.1 0 0 -.1 381.424 274.499)"/></g><g clip-path="url(#Q)"><path style="fill:none;stroke-width:6.25;stroke-linecap:round;stroke-linejoin:miter;stroke:#bfbfbf;stroke-opacity:1;stroke-dasharray:12.5,18.75;stroke-miterlimit:10" d="M2486.424 104.99v2550" transform="matrix(.1 0 0 -.1 381.424 274.499)"/></g><g clip-path="url(#R)"><path style="fill:none;stroke-width:6.25;stroke-linecap:round;stroke-linejoin:miter;stroke:#bfbfbf;stroke-opacity:1;stroke-dasharray:12.5,18.75;stroke-miterlimit:10" d="M3162.83 104.99v2550" transform="matrix(.1 0 0 -.1 381.424 274.499)"/></g><g clip-path="url(#S)"><path style="fill:none;stroke-width:6.25;stroke-linecap:round;stroke-linejoin:miter;stroke:#bfbfbf;stroke-opacity:1;stroke-dasharray:12.5,18.75;stroke-miterlimit:10" d="M110.018 363.78h3400" transform="matrix(.1 0 0 -.1 381.424 274.499)"/></g><g clip-path="url(#T)"><path style="fill:none;stroke-width:6.25;stroke-linecap:round;stroke-linejoin:miter;stroke:#bfbfbf;stroke-opacity:1;stroke-dasharray:12.5,18.75;stroke-miterlimit:10" d="M110.018 1010.732h3400" transform="matrix(.1 0 0 -.1 381.424 274.499)"/></g><g clip-path="url(#U)"><path style="fill:none;stroke-width:6.25;stroke-linecap:round;stroke-linejoin:miter;stroke:#bfbfbf;stroke-opacity:1;stroke-dasharray:12.5,18.75;stroke-miterlimit:10" d="M110.018 1657.685h3400" transform="matrix(.1 0 0 -.1 381.424 274.499)"/></g><g clip-path="url(#V)"><path style="fill:none;stroke-width:6.25;stroke-linecap:round;stroke-linejoin:miter;stroke:#bfbfbf;stroke-opacity:1;stroke-dasharray:12.5,18.75;stroke-miterlimit:10" d="M110.018 2304.638h3400" transform="matrix(.1 0 0 -.1 381.424 274.499)"/></g><path style="fill:none;stroke-width:12.5;stroke-linecap:square;stroke-linejoin:miter;stroke:#000;stroke-opacity:1;stroke-miterlimit:10" d="M110.018 104.99h3400" transform="matrix(.1 0 0 -.1 381.424 274.499)"/><path style="fill:none;stroke-width:6.25;stroke-linecap:butt;stroke-linejoin:miter;stroke:#000;stroke-opacity:1;stroke-miterlimit:10" d="M118.963 104.99v25m67.657-25v25m67.656-25v25m67.617-25v25m67.657-25v25m67.616-25v50m67.656-50v25m67.657-25v25m67.617-25v25m67.656-25v25m67.618-25v25m67.656-25v25m67.656-25v25m67.618-25v25m67.655-25v25m67.617-25v50m67.657-50v25m67.656-25v25m67.617-25v25m67.656-25v25m67.618-25v25m67.656-25v25m67.656-25v25m67.617-25v25m67.657-25v25m67.656-25v50m67.617-50v25m67.656-25v25m67.617-25v25m67.657-25v25m67.617-25v25m67.656-25v25m67.656-25v25m67.618-25v25m67.656-25v25m67.656-25v50m67.617-50v25m67.657-25v25m67.617-25v25m67.655-25v25m67.657-25v25m67.617-25v25m67.656-25v25m67.657-25v25m67.617-25v25m67.656-25v50m67.618-50v25m67.656-25v25m67.616-25v25m67.657-25v25m67.656-25v25" transform="matrix(.1 0 0 -.1 381.424 274.499)"/><g style="fill:#000;fill-opacity:1" clip-path="url(#W)"><use xlink:href="#m" x="420.339" y="273.999"/><use xlink:href="#n" x="422.836" y="273.999"/><use xlink:href="#o" x="427.006" y="273.999"/><use xlink:href="#p" x="429.091" y="273.999"/></g><g style="fill:#000;fill-opacity:1" clip-path="url(#X)"><use xlink:href="#m" x="487.839" y="273.999"/><use xlink:href="#r" x="490.336" y="273.999"/><use xlink:href="#o" x="494.506" y="273.999"/><use xlink:href="#n" x="496.591" y="273.999"/></g><g style="fill:#000;fill-opacity:1" clip-path="url(#Y)"><use xlink:href="#p" x="557.212" y="273.999"/><use xlink:href="#o" x="561.382" y="273.999"/><use xlink:href="#p" x="563.467" y="273.999"/></g><g style="fill:#000;fill-opacity:1" clip-path="url(#Z)"><use xlink:href="#r" x="624.712" y="273.999"/><use xlink:href="#o" x="628.882" y="273.999"/><use xlink:href="#n" x="630.967" y="273.999"/></g><g style="fill:#000;fill-opacity:1" clip-path="url(#aa)"><use xlink:href="#n" x="692.212" y="273.999"/><use xlink:href="#o" x="696.382" y="273.999"/><use xlink:href="#p" x="698.467" y="273.999"/></g><path style="fill:none;stroke-width:12.5;stroke-linecap:square;stroke-linejoin:miter;stroke:#000;stroke-opacity:1;stroke-miterlimit:10" d="M110.018 2654.99h3400" transform="matrix(.1 0 0 -.1 381.424 274.499)"/><path style="fill:none;stroke-width:6.25;stroke-linecap:butt;stroke-linejoin:miter;stroke:#000;stroke-opacity:1;stroke-miterlimit:10" d="M118.963 2654.99v-25m67.657 25v-25m67.656 25v-25m67.617 25v-25m67.657 25v-25m67.616 25v-50m67.656 50v-25m67.657 25v-25m67.617 25v-25m67.656 25v-25m67.618 25v-25m67.656 25v-25m67.656 25v-25m67.618 25v-25m67.655 25v-25m67.617 25v-50m67.657 50v-25m67.656 25v-25m67.617 25v-25m67.656 25v-25m67.618 25v-25m67.656 25v-25m67.656 25v-25m67.617 25v-25m67.657 25v-25m67.656 25v-50m67.617 50v-25m67.656 25v-25m67.617 25v-25m67.657 25v-25m67.617 25v-25m67.656 25v-25m67.656 25v-25m67.618 25v-25m67.656 25v-25m67.656 25v-50m67.617 50v-25m67.657 25v-25m67.617 25v-25m67.655 25v-25m67.657 25v-25m67.617 25v-25m67.656 25v-25m67.657 25v-25m67.617 25v-25m67.656 25v-50m67.618 50v-25m67.656 25v-25m67.616 25v-25m67.657 25v-25m67.656 25v-25" transform="matrix(.1 0 0 -.1 381.424 274.499)"/><g style="fill:#000;fill-opacity:1" clip-path="url(#ab)"><use xlink:href="#m" x="420.339" y="5.874"/><use xlink:href="#n" x="422.836" y="5.874"/><use xlink:href="#o" x="427.006" y="5.874"/><use xlink:href="#p" x="429.091" y="5.874"/></g><g style="fill:#000;fill-opacity:1" clip-path="url(#ac)"><use xlink:href="#m" x="487.839" y="5.874"/><use xlink:href="#r" x="490.336" y="5.874"/><use xlink:href="#o" x="494.506" y="5.874"/><use xlink:href="#n" x="496.591" y="5.874"/></g><g style="fill:#000;fill-opacity:1" clip-path="url(#ad)"><use xlink:href="#p" x="557.212" y="5.874"/><use xlink:href="#o" x="561.382" y="5.874"/><use xlink:href="#p" x="563.467" y="5.874"/></g><g style="fill:#000;fill-opacity:1" clip-path="url(#ae)"><use xlink:href="#r" x="624.712" y="5.874"/><use xlink:href="#o" x="628.882" y="5.874"/><use xlink:href="#n" x="630.967" y="5.874"/></g><g style="fill:#000;fill-opacity:1" clip-path="url(#af)"><use xlink:href="#n" x="692.212" y="5.874"/><use xlink:href="#o" x="696.382" y="5.874"/><use xlink:href="#p" x="698.467" y="5.874"/></g><path style="fill:none;stroke-width:12.5;stroke-linecap:square;stroke-linejoin:miter;stroke:#000;stroke-opacity:1;stroke-miterlimit:10" d="M110.018 104.99v2550" transform="matrix(.1 0 0 -.1 381.424 274.499)"/><path style="fill:none;stroke-width:6.25;stroke-linecap:butt;stroke-linejoin:miter;stroke:#000;stroke-opacity:1;stroke-miterlimit:10" d="M110.018 104.99h25m-25 64.688h25m-25 64.726h25m-25 64.688h25m-25 64.688h50m-50 64.687h25m-25 64.687h25m-25 64.726h25m-25 64.688h25m-25 64.688h25m-25 64.687h25m-25 64.687h25m-25 64.727h25m-25 64.688h25m-25 64.687h50m-50 64.688h25m-25 64.687h25m-25 64.688h25m-25 64.726h25m-25 64.688h25m-25 64.687h25m-25 64.688h25m-25 64.687h25m-25 64.727h25m-25 64.687h50m-50 64.688h25m-25 64.687h25m-25 64.688h25m-25 64.687h25m-25 64.688h25m-25 64.727h25m-25 64.687h25m-25 64.687h25m-25 64.688h25m-25 64.726h50m-50 64.688h25m-25 64.687h25m-25 64.687h25m-25 64.688h25m-25 64.688h25" transform="matrix(.1 0 0 -.1 381.424 274.499)"/><g clip-path="url(#ag)"><use xlink:href="#p" x="381.379" y="241.499" style="fill:#000;fill-opacity:1"/></g><use xlink:href="#B" x="381.379" y="177.124" style="fill:#000;fill-opacity:1"/><g clip-path="url(#ah)"><use xlink:href="#r" x="381.379" y="112.124" style="fill:#000;fill-opacity:1"/></g><g clip-path="url(#ai)"><use xlink:href="#E" x="381.379" y="47.749" style="fill:#000;fill-opacity:1"/></g><path style="fill:none;stroke-width:12.5;stroke-linecap:square;stroke-linejoin:miter;stroke:#000;stroke-opacity:1;stroke-miterlimit:10" d="M3510.018 104.99v2550" transform="matrix(.1 0 0 -.1 381.424 274.499)"/><path style="fill:none;stroke-width:6.25;stroke-linecap:butt;stroke-linejoin:miter;stroke:#000;stroke-opacity:1;stroke-miterlimit:10" d="M3510.018 104.99h-25m25 64.688h-25m25 64.726h-25m25 64.688h-25m25 64.688h-50m50 64.687h-25m25 64.687h-25m25 64.726h-25m25 64.688h-25m25 64.688h-25m25 64.687h-25m25 64.687h-25m25 64.727h-25m25 64.688h-25m25 64.687h-50m50 64.688h-25m25 64.687h-25m25 64.688h-25m25 64.726h-25m25 64.688h-25m25 64.687h-25m25 64.688h-25m25 64.687h-25m25 64.727h-25m25 64.687h-50m50 64.688h-25m25 64.687h-25m25 64.688h-25m25 64.687h-25m25 64.688h-25m25 64.727h-25m25 64.687h-25m25 64.687h-25m25 64.688h-25m25 64.726h-50m50 64.688h-25m25 64.687h-25m25 64.687h-25m25 64.688h-25m25 64.688h-25" transform="matrix(.1 0 0 -.1 381.424 274.499)"/><g clip-path="url(#aj)"><use xlink:href="#p" x="738.674" y="241.499" style="fill:#000;fill-opacity:1"/></g><use xlink:href="#B" x="738.674" y="177.124" style="fill:#000;fill-opacity:1"/><g clip-path="url(#ak)"><use xlink:href="#r" x="738.674" y="112.124" style="fill:#000;fill-opacity:1"/></g><g clip-path="url(#al)"><use xlink:href="#E" x="738.674" y="47.749" style="fill:#000;fill-opacity:1"/></g><g clip-path="url(#am)"><path style="fill:none;stroke-width:12.5;stroke-linecap:round;stroke-linejoin:round;stroke:#00008b;stroke-opacity:1;stroke-miterlimit:10" d="m110.018 1379.99 6.25 295.39 6.25 274.844 6.25 236.29 6.25 184.53 6.25 125.821 6.25 66.953 6.25 14.258 6.25-26.914 6.25-53.516 6.25-64.492 6.25-61.133 6.25-46.68 6.25-25.468 6.25-2.344 6.25 18.086 6.25 32.46 6.25 38.75 6.25 36.68 6.25 27.54 6.25 13.828 6.25-1.446 6.25-15.078 6.25-24.609 6.25-28.398 6.25-26.211 6.25-18.868 6.25-8.242 6.25 3.438 6.25 13.672 6.25 20.507 6.25 22.852 6.25 20.39 6.25 13.907 6.25 4.844 6.25-4.727 6.25-12.93 6.25-18.125 6.25-19.414 6.25-16.68 6.25-10.585 6.25-2.578 6.25 5.742 6.25 12.617 6.25 16.601 6.25 17.149 6.25 14.101 6.25 8.204 6.25.78 6.25-6.64 6.25-12.539 6.25-15.664 6.25-15.547 6.25-12.148 6.25-6.367 6.25.742 6.25 7.5 6.25 12.656 6.25 15.117 6.25 14.375 6.25 10.703 6.25 4.766 6.25-2.07 6.25-8.438 6.25-13.008 6.25-14.843 6.25-13.555 6.25-9.492 6.25-3.36 6.25 3.36 6.25 9.492 6.25 13.555 6.25 14.843 6.25 13.008 6.25 8.438 6.25 2.07 6.25-4.766 6.25-10.703 6.25-14.375 6.25-15.117 6.25-12.656 6.25-7.5 6.25-.742 6.25 6.367 6.25 12.148 6.25 15.547 6.25 15.664 6.25 12.54 6.25 6.64 6.25-.781 6.25-8.204 6.25-14.101 6.25-17.149 6.25-16.601 6.25-12.617 6.25-5.742 6.25 2.578 6.25 10.586 6.25 16.68 6.25 19.413 6.25 18.125 6.25 12.93 6.25 4.727 6.25-4.844 6.25-13.906 6.25-20.391 6.25-22.852 6.25-20.507 6.25-13.672 6.25-3.438 6.25 8.242 6.25 18.868 6.25 26.21 6.25 28.399 6.25 24.61 6.25 15.077 6.25 1.446 6.25-13.828 6.25-27.54 6.25-36.68 6.25-38.75 6.25-32.46 6.25-18.086 6.25 2.344 6.25 25.469 6.25 46.68 6.25 61.132 6.25 64.492 6.25 53.516 6.25 26.914 6.25-14.258 6.25-66.953 6.25-125.82 6.25-184.532 6.25-236.289 6.25-274.843 6.25-295.391 6.25-295.352 6.25-274.843 6.25-236.29 6.25-184.57 6.25-125.82 6.25-66.914 6.25-14.297 6.25 26.953 6.25 53.477 6.25 64.492 6.25 61.172 6.25 46.68 6.25 25.468 6.25 2.344 6.25-18.086 6.25-32.46 6.25-38.75 6.25-36.68 6.25-27.579 6.25-13.789 6.25 1.446 6.25 15.078 6.25 24.57 6.25 28.398 6.25 26.211 6.25 18.907 6.25 8.203 6.25-3.438 6.25-13.633 6.25-20.546 6.25-22.852 6.25-20.352 6.25-13.906 6.25-4.883 6.25 4.727 6.25 12.93 6.25 18.164 6.25 19.414 6.25 16.68 6.25 10.585 6.25 2.54 6.25-5.743 6.25-12.578 6.25-16.64 6.25-17.149 6.25-14.062 6.25-8.204 6.25-.78 6.25 6.64 6.25 12.5 6.25 15.703 6.25 15.508 6.25 12.187 6.25 6.328 6.25-.703 6.25-7.5 6.25-12.695 6.25-15.078 6.25-14.414 6.25-10.664 6.25-4.805 6.25 2.07 6.25 8.438 6.25 13.008 6.25 14.843 6.25 13.594 6.25 9.453 6.25 3.399 6.25-3.399 6.25-9.453 6.25-13.594 6.25-14.843 6.25-13.008 6.25-8.438 6.25-2.07 6.25 4.805 6.25 10.664 6.25 14.414 6.25 15.078 6.25 12.695 6.25 7.5 6.25.703 6.25-6.328 6.25-12.187 6.25-15.508 6.25-15.703 6.25-12.5 6.25-6.64 6.25.78 6.25 8.204 6.25 14.062 6.25 17.149 6.25 16.64 6.25 12.578 6.25 5.742 6.25-2.539 6.25-10.586 6.25-16.68 6.25-19.413 6.25-18.164 6.25-12.93 6.25-4.727 6.25 4.883 6.25 13.906 6.25 20.352 6.25 22.852 6.25 20.546 6.25 13.633 6.25 3.438 6.25-8.203 6.25-18.907 6.25-26.21 6.25-28.399 6.25-24.57 6.25-15.078 6.25-1.446 6.25 13.79 6.25 27.577 6.25 36.68 6.25 38.75 6.25 32.461 6.25 18.086 6.25-2.344 6.25-25.469 6.25-46.68 6.25-61.171 6.25-64.492 6.25-53.477 6.25-26.953 6.25 14.297 6.25 66.914 6.25 125.82 6.25 184.57 6.25 236.29 6.25 274.843 6.25 295.352 6.25 295.39 6.25 274.844 6.25 236.29 6.25 184.53 6.25 125.821 6.25 66.953 6.25 14.258 6.25-26.914 6.25-53.516 6.25-64.492 6.25-61.133 6.25-46.68 6.25-25.468 6.25-2.344 6.25 18.086 6.25 32.46 6.25 38.75 6.25 36.68 6.25 27.54 6.25 13.828 6.25-1.446 6.25-15.078 6.25-24.609 6.25-28.398 6.25-26.211 6.25-18.868 6.25-8.242 6.25 3.438 6.25 13.672 6.25 20.507 6.25 22.852 6.25 20.39 6.25 13.907 6.25 4.844 6.25-4.727 6.25-12.93 6.25-18.125 6.25-19.414 6.25-16.68 6.25-10.585 6.25-2.578 6.25 5.742 6.25 12.617 6.25 16.601 6.25 17.149 6.25 14.101 6.25 8.204 6.25.78 6.25-6.64 6.25-12.539 6.25-15.664 6.25-15.547 6.25-12.148 6.25-6.367 6.25.742 6.25 7.5 6.25 12.656 6.25 15.117 6.25 14.375 6.25 10.703 6.25 4.766 6.25-2.07 6.25-8.438 6.25-13.008 6.25-14.843 6.25-13.555 6.25-9.492 6.25-3.36 6.25 3.36 6.25 9.492 6.25 13.555 6.25 14.843 6.25 13.008 6.25 8.438 6.25 2.07 6.25-4.766 6.25-10.703 6.25-14.375 6.25-15.117 6.25-12.656 6.25-7.5 6.25-.742 6.25 6.367 6.25 12.148 6.25 15.547 6.25 15.664 6.25 12.54 6.25 6.64 6.25-.781 6.25-8.204 6.25-14.101 6.25-17.149 6.25-16.601 6.25-12.617 6.25-5.742 6.25 2.578 6.25 10.586 6.25 16.68 6.25 19.413 6.25 18.125 6.25 12.93 6.25 4.727 6.25-4.844 6.25-13.906 6.25-20.391 6.25-22.852 6.25-20.507 6.25-13.672 6.25-3.438 6.25 8.242 6.25 18.868 6.25 26.21 6.25 28.399 6.25 24.61 6.25 15.077 6.25 1.446 6.25-13.828 6.25-27.54 6.25-36.68 6.25-38.75 6.25-32.46 6.25-18.086 6.25 2.344 6.25 25.469 6.25 46.68 6.25 61.132 6.25 64.492 6.25 53.516 6.25 26.914 6.25-14.258 6.25-66.953 6.25-125.82 6.25-184.532 6.25-236.289 6.25-274.843 6.25-295.391 6.25-295.352 6.25-274.843 6.25-236.29 6.25-184.57 6.25-125.82 6.25-66.914 6.25-14.297 6.25 26.953 6.25 53.477 6.25 64.492 6.25 61.172 6.25 46.68 6.25 25.468 6.25 2.344 6.25-18.086 6.25-32.46 6.25-38.75 6.25-36.68 6.25-27.579 6.25-13.789 6.25 1.446 6.25 15.078 6.25 24.57 6.25 28.398 6.25 26.211 6.25 18.907 6.25 8.203 6.25-3.438 6.25-13.633 6.25-20.546 6.25-22.852 6.25-20.352 6.25-13.906 6.25-4.883 6.25 4.727 6.25 12.93 6.25 18.164 6.25 19.414 6.25 16.68 6.25 10.585 6.25 2.54 6.25-5.743 6.25-12.578 6.25-16.64 6.25-17.149 6.25-14.062 6.25-8.204 6.25-.78 6.25 6.64 6.25 12.5 6.25 15.703 6.25 15.508 6.25 12.187 6.25 6.328 6.25-.703 6.25-7.5 6.25-12.695 6.25-15.078 6.25-14.414 6.25-10.664 6.25-4.805 6.25 2.07 6.25 8.438 6.25 13.008 6.25 14.843 6.25 13.594 6.25 9.453 6.25 3.399 6.25-3.399 6.25-9.453 6.25-13.594 6.25-14.843 6.25-13.008 6.25-8.438 6.25-2.07 6.25 4.805 6.25 10.664 6.25 14.414 6.25 15.078 6.25 12.695 6.25 7.5 6.25.703 6.25-6.328 6.25-12.187 6.25-15.508 6.25-15.703 6.25-12.5 6.25-6.64 6.25.78 6.25 8.204 6.25 14.062 6.25 17.149 6.25 16.64 6.25 12.578 6.25 5.742 6.25-2.539 6.25-10.586 6.25-16.68 6.25-19.413 6.25-18.164 6.25-12.93 6.25-4.727 6.25 4.883 6.25 13.906 6.25 20.352 6.25 22.852 6.25 20.546 6.25 13.633 6.25 3.438 6.25-8.203 6.25-18.907 6.25-26.21 6.25-28.399 6.25-24.57 6.25-15.078 6.25-1.446 6.25 13.79 6.25 27.577 6.25 36.68 6.25 38.75 6.25 32.461 6.25 18.086 6.25-2.344 6.25-25.469 6.25-46.68 6.25-61.171 6.25-64.492 6.25-53.477 6.25-26.953 6.25 14.297 6.25 66.914 6.25 125.82 6.25 184.57 6.25 236.29 6.25 274.843 6.25 295.352" transform="matrix(.1 0 0 -.1 381.424 274.499)"/></g><g clip-path="url(#an)"><path style="fill:none;stroke-width:12.5;stroke-linecap:round;stroke-linejoin:round;stroke:#006400;stroke-opacity:1;stroke-miterlimit:10" d="M110.018 2396.2h850" transform="matrix(.1 0 0 -.1 381.424 274.499)"/></g><path style="fill:none;stroke-width:12.5;stroke-linecap:round;stroke-linejoin:round;stroke:#006400;stroke-opacity:1;stroke-miterlimit:10" d="M960.018 363.78h850m0 2032.42h850" transform="matrix(.1 0 0 -.1 381.424 274.499)"/><g clip-path="url(#ao)"><path style="fill:none;stroke-width:12.5;stroke-linecap:round;stroke-linejoin:round;stroke:#006400;stroke-opacity:1;stroke-miterlimit:10" d="M2660.018 363.78h850" transform="matrix(.1 0 0 -.1 381.424 274.499)"/></g></svg>