<svg xmlns="http://www.w3.org/2000/svg" xmlns:xlink="http://www.w3.org/1999/xlink" width="361pt" height="274pt" viewBox="0 0 361 274"><defs><clipPath id="a"><path d="M180 8.5h2v255h-2zm0 0"/></clipPath><clipPath id="b"><path d="M11 237h340v1H11zm0 0"/></clipPath><clipPath id="c"><path d="M45 8.5h2v255h-2zm0 0"/></clipPath><clipPath id="d"><path d="M113 8.5h1v255h-1zm0 0"/></clipPath><clipPath id="e"><path d="M180 8.5h2v255h-2zm0 0"/></clipPath><clipPath id="f"><path d="M248 8.5h1v255h-1zm0 0"/></clipPath><clipPath id="g"><path d="M315 8.5h2v255h-2zm0 0"/></clipPath><clipPath id="h"><path d="M11 237h340v1H11zm0 0"/></clipPath><clipPath id="i"><path d="M11 172h340v2H11zm0 0"/></clipPath><clipPath id="j"><path d="M11 107h340v2H11zm0 0"/></clipPath><clipPath id="k"><path d="M11 43h340v1H11zm0 0"/></clipPath><clipPath id="s"><path d="M11 33h86v3H11zm0 0"/></clipPath><clipPath id="t"><path d="M265 236h86v3h-86zm0 0"/></clipPath><symbol overflow="visible" id="l"><path style="stroke:none" d="M2.125-2.344H.344v.547h1.781zm0 0"/></symbol><symbol overflow="visible" id="m"><path style="stroke:none" d="M3.563-5.313H.828L.422-2.421h.61c.312-.375.562-.5.984-.5.703 0 1.156.485 1.156 1.281 0 .766-.438 1.235-1.156 1.235-.579 0-.938-.297-1.094-.906H.266c.093.437.156.656.312.843.313.406.844.64 1.453.64 1.063 0 1.813-.78 1.813-1.905 0-1.047-.688-1.766-1.719-1.766-.375 0-.672.094-.984.313l.218-1.485h2.204zm0 0"/></symbol><symbol overflow="visible" id="n"><path style="stroke:none" d="M1.438-.781H.655V0h.781zm0 0"/></symbol><symbol overflow="visible" id="o"><path style="stroke:none" d="M2.063-5.313c-.5 0-.938.22-1.22.579C.5-4.266.329-3.563.329-2.578c0 1.797.594 2.75 1.734 2.75 1.126 0 1.735-.953 1.735-2.703 0-1.031-.156-1.719-.516-2.203-.281-.375-.719-.579-1.219-.579zm0 .579c.718 0 1.062.718 1.062 2.14 0 1.516-.344 2.219-1.078 2.219C1.344-.375 1-1.109 1-2.563c0-1.453.344-2.171 1.063-2.171zm0 0"/></symbol><symbol overflow="visible" id="p"><path style="stroke:none" d="M3.797-.656H1c.063-.438.313-.703.953-1.094l.75-.406c.75-.406 1.125-.953 1.125-1.594 0-.453-.172-.86-.484-1.14-.328-.298-.719-.423-1.219-.423-.672 0-1.172.235-1.469.688-.187.281-.265.61-.281 1.156h.656c.032-.36.078-.578.157-.75.171-.328.515-.515.921-.515.594 0 1.047.421 1.047.984 0 .422-.25.781-.719 1.063l-.687.39C.64-1.672.312-1.172.25 0h3.547zm0 0"/></symbol><symbol overflow="visible" id="q"><path style="stroke:none" d="M1.938-3.781V0h.671v-5.313h-.437c-.235.813-.39.922-1.406 1.047v.485zm0 0"/></symbol><symbol overflow="visible" id="r"><path style="stroke:none" d="M1.656-2.438h.36c.734 0 1.109.329 1.109.954 0 .671-.422 1.078-1.11 1.078-.718 0-1.078-.36-1.109-1.14H.234c.032.421.11.702.235.952.281.5.797.766 1.531.766 1.094 0 1.797-.656 1.797-1.656 0-.672-.266-1.047-.906-1.266.5-.203.75-.578.75-1.11 0-.906-.61-1.453-1.625-1.453-1.079 0-1.641.579-1.657 1.72h.657c0-.329.03-.516.109-.673.156-.296.484-.468.906-.468.578 0 .938.343.938.906 0 .375-.14.594-.438.719-.172.078-.406.109-.875.109zm0 0"/></symbol></defs><g clip-path="url(#a)"><path style="fill:none;stroke-width:6.25;stroke-linecap:round;stroke-linejoin:miter;stroke:#bfbfbf;stroke-opacity:1;stroke-miterlimit:10" d="M1810 105v2550" transform="matrix(.1 0 0 -.1 0 274)"/></g><g clip-path="url(#b)"><path style="fill:none;stroke-width:6.25;stroke-linecap:round;stroke-linejoin:miter;stroke:#bfbfbf;stroke-opacity:1;stroke-miterlimit:10" d="M110 363.79h3400" transform="matrix(.1 0 0 -.1 0 274)"/></g><g clip-path="url(#c)"><path style="fill:none;stroke-width:6.25;stroke-linecap:round;stroke-linejoin:miter;stroke:#bfbfbf;stroke-opacity:1;stroke-dasharray:12.5,18.75;stroke-miterlimit:10" d="M457.188 105v2550" transform="matrix(.1 0 0 -.1 0 274)"/></g><g clip-path="url(#d)"><path style="fill:none;stroke-width:6.25;stroke-linecap:round;stroke-linejoin:miter;stroke:#bfbfbf;stroke-opacity:1;stroke-dasharray:12.5,18.75;stroke-miterlimit:10" d="M1133.594 105v2550" transform="matrix(.1 0 0 -.1 0 274)"/></g><g clip-path="url(#e)"><path style="fill:none;stroke-width:6.25;stroke-linecap:round;stroke-linejoin:miter;stroke:#bfbfbf;stroke-opacity:1;stroke-dasharray:12.5,18.75;stroke-miterlimit:10" d="M1810 105v2550" transform="matrix(.1 0 0 -.1 0 274)"/></g><g clip-path="url(#f)"><path style="fill:none;stroke-width:6.25;stroke-linecap:round;stroke-linejoin:miter;stroke:#bfbfbf;stroke-opacity:1;stroke-dasharray:12.5,18.75;stroke-miterlimit:10" d="M2486.406 105v2550" transform="matrix(.1 0 0 -.1 0 274)"/></g><g clip-path="url(#g)"><path style="fill:none;stroke-width:6.25;stroke-linecap:round;stroke-linejoin:miter;stroke:#bfbfbf;stroke-opacity:1;stroke-dasharray:12.5,18.75;stroke-miterlimit:10" d="M3162.813 105v2550" transform="matrix(.1 0 0 -.1 0 274)"/></g><g clip-path="url(#h)"><path style="fill:none;stroke-width:6.25;stroke-linecap:round;stroke-linejoin:miter;stroke:#bfbfbf;stroke-opacity:1;stroke-dasharray:12.5,18.75;stroke-miterlimit:10" d="M110 363.79h3400" transform="matrix(.1 0 0 -.1 0 274)"/></g><g clip-path="url(#i)"><path style="fill:none;stroke-width:6.25;stroke-linecap:round;stroke-linejoin:miter;stroke:#bfbfbf;stroke-opacity:1;stroke-dasharray:12.5,18.75;stroke-miterlimit:10" d="M110 1010.742h3400" transform="matrix(.1 0 0 -.1 0 274)"/></g><g clip-path="url(#j)"><path style="fill:none;stroke-width:6.25;stroke-linecap:round;stroke-linejoin:miter;stroke:#bfbfbf;stroke-opacity:1;stroke-dasharray:12.5,18.75;stroke-miterlimit:10" d="M110 1657.656h3400" transform="matrix(.1 0 0 -.1 0 274)"/></g><g clip-path="url(#k)"><path style="fill:none;stroke-width:6.25;stroke-linecap:round;stroke-linejoin:miter;stroke:#bfbfbf;stroke-opacity:1;stroke-dasharray:12.5,18.75;stroke-miterlimit:10" d="M110 2304.61h3400" transform="matrix(.1 0 0 -.1 0 274)"/></g><path style="fill:none;stroke-width:12.5;stroke-linecap:square;stroke-linejoin:miter;stroke:#000;stroke-opacity:1;stroke-miterlimit:10" d="M110 105h3400" transform="matrix(.1 0 0 -.1 0 274)"/><path style="fill:none;stroke-width:6.25;stroke-linecap:butt;stroke-linejoin:miter;stroke:#000;stroke-opacity:1;stroke-miterlimit:10" d="M118.984 105v25m67.618-25v25m67.656-25v25m67.656-25v25m67.617-25v25m67.657-25v50m67.617-50v25m67.655-25v25m67.657-25v25m67.617-25v25m67.656-25v25m67.618-25v25m67.656-25v25m67.656-25v25m67.618-25v25m67.656-25v50m67.616-50v25m67.657-25v25m67.656-25v25m67.617-25v25m67.657-25v25m67.617-25v25m67.656-25v25m67.657-25v25m67.617-25v25M1810 105v50m67.656-50v25m67.617-25v25m67.657-25v25m67.617-25v25m67.656-25v25m67.657-25v25m67.617-25v25m67.656-25v25m67.657-25v25m67.616-25v50m67.657-50v25m67.617-25v25m67.656-25v25m67.617-25v25m67.657-25v25m67.656-25v25m67.617-25v25m67.657-25v25m67.616-25v25m67.657-25v50m67.656-50v25m67.617-25v25m67.656-25v25m67.656-25v25m67.618-25v25" transform="matrix(.1 0 0 -.1 0 274)"/><g style="fill:#000;fill-opacity:1"><use xlink:href="#l" x="38.914" y="273.5"/><use xlink:href="#m" x="41.412" y="273.5"/><use xlink:href="#n" x="45.582" y="273.5"/><use xlink:href="#o" x="47.667" y="273.5"/></g><g style="fill:#000;fill-opacity:1"><use xlink:href="#l" x="106.415" y="273.5"/><use xlink:href="#p" x="108.912" y="273.5"/><use xlink:href="#n" x="113.082" y="273.5"/><use xlink:href="#m" x="115.167" y="273.5"/></g><g style="fill:#000;fill-opacity:1"><use xlink:href="#o" x="175.788" y="273.5"/><use xlink:href="#n" x="179.958" y="273.5"/><use xlink:href="#o" x="182.043" y="273.5"/></g><g style="fill:#000;fill-opacity:1"><use xlink:href="#p" x="243.288" y="273.5"/><use xlink:href="#n" x="247.458" y="273.5"/><use xlink:href="#m" x="249.543" y="273.5"/></g><g style="fill:#000;fill-opacity:1"><use xlink:href="#m" x="310.788" y="273.5"/><use xlink:href="#n" x="314.958" y="273.5"/><use xlink:href="#o" x="317.043" y="273.5"/></g><path style="fill:none;stroke-width:12.5;stroke-linecap:square;stroke-linejoin:miter;stroke:#000;stroke-opacity:1;stroke-miterlimit:10" d="M110 2655h3400" transform="matrix(.1 0 0 -.1 0 274)"/><path style="fill:none;stroke-width:6.25;stroke-linecap:butt;stroke-linejoin:miter;stroke:#000;stroke-opacity:1;stroke-miterlimit:10" d="M118.984 2655v-25m67.618 25v-25m67.656 25v-25m67.656 25v-25m67.617 25v-25m67.657 25v-50m67.617 50v-25m67.655 25v-25m67.657 25v-25m67.617 25v-25m67.656 25v-25m67.618 25v-25m67.656 25v-25m67.656 25v-25m67.618 25v-25m67.656 25v-50m67.616 50v-25m67.657 25v-25m67.656 25v-25m67.617 25v-25m67.657 25v-25m67.617 25v-25m67.656 25v-25m67.657 25v-25m67.617 25v-25m67.656 25v-50m67.656 50v-25m67.617 25v-25m67.657 25v-25m67.617 25v-25m67.656 25v-25m67.657 25v-25m67.617 25v-25m67.656 25v-25m67.657 25v-25m67.616 25v-50m67.657 50v-25m67.617 25v-25m67.656 25v-25m67.617 25v-25m67.657 25v-25m67.656 25v-25m67.617 25v-25m67.657 25v-25m67.616 25v-25m67.657 25v-50m67.656 50v-25m67.617 25v-25m67.656 25v-25m67.656 25v-25m67.618 25v-25" transform="matrix(.1 0 0 -.1 0 274)"/><g style="fill:#000;fill-opacity:1"><use xlink:href="#l" x="38.914" y="5.375"/><use xlink:href="#m" x="41.412" y="5.375"/><use xlink:href="#n" x="45.582" y="5.375"/><use xlink:href="#o" x="47.667" y="5.375"/></g><g style="fill:#000;fill-opacity:1"><use xlink:href="#l" x="106.415" y="5.375"/><use xlink:href="#p" x="108.912" y="5.375"/><use xlink:href="#n" x="113.082" y="5.375"/><use xlink:href="#m" x="115.167" y="5.375"/></g><g style="fill:#000;fill-opacity:1"><use xlink:href="#o" x="175.788" y="5.375"/><use xlink:href="#n" x="179.958" y="5.375"/><use xlink:href="#o" x="182.043" y="5.375"/></g><g style="fill:#000;fill-opacity:1"><use xlink:href="#p" x="243.288" y="5.375"/><use xlink:href="#n" x="247.458" y="5.375"/><use xlink:href="#m" x="249.543" y="5.375"/></g><g style="fill:#000;fill-opacity:1"><use xlink:href="#m" x="310.788" y="5.375"/><use xlink:href="#n" x="314.958" y="5.375"/><use xlink:href="#o" x="317.043" y="5.375"/></g><path style="fill:none;stroke-width:12.5;stroke-linecap:square;stroke-linejoin:miter;stroke:#000;stroke-opacity:1;stroke-miterlimit:10" d="M110 105v2550" transform="matrix(.1 0 0 -.1 0 274)"/><path style="fill:none;stroke-width:6.25;stroke-linecap:butt;stroke-linejoin:miter;stroke:#000;stroke-opacity:1;stroke-miterlimit:10" d="M110 105h25m-25 64.688h25m-25 64.687h25m-25 64.688h25m-25 64.727h50m-50 64.687h25m-25 64.687h25m-25 64.688h25m-25 64.726h25m-25 64.688h25m-25 64.687h25m-25 64.687h25m-25 64.688h25m-25 64.688h25m-25 64.726h50m-50 64.688h25m-25 64.687h25m-25 64.688h25m-25 64.687h25m-25 64.727h25m-25 64.687h25m-25 64.688h25m-25 64.687h25m-25 64.688h25m-25 64.687h50m-50 64.727h25m-25 64.687h25m-25 64.688h25m-25 64.687h25m-25 64.688h25m-25 64.727h25m-25 64.687h25m-25 64.687h25m-25 64.688h25m-25 64.688h50m-50 64.726h25m-25 64.687h25m-25 64.687h25m-25 64.688h25m-25 64.688h25" transform="matrix(.1 0 0 -.1 0 274)"/><use xlink:href="#o" x="-.045" y="241" style="fill:#000;fill-opacity:1"/><use xlink:href="#q" x="-.045" y="176.625" style="fill:#000;fill-opacity:1"/><use xlink:href="#p" x="-.045" y="111.625" style="fill:#000;fill-opacity:1"/><use xlink:href="#r" x="-.045" y="47.25" style="fill:#000;fill-opacity:1"/><path style="fill:none;stroke-width:12.5;stroke-linecap:square;stroke-linejoin:miter;stroke:#000;stroke-opacity:1;stroke-miterlimit:10" d="M3510 105v2550" transform="matrix(.1 0 0 -.1 0 274)"/><path style="fill:none;stroke-width:6.25;stroke-linecap:butt;stroke-linejoin:miter;stroke:#000;stroke-opacity:1;stroke-miterlimit:10" d="M3510 105h-25m25 64.688h-25m25 64.687h-25m25 64.688h-25m25 64.727h-50m50 64.687h-25m25 64.687h-25m25 64.688h-25m25 64.726h-25m25 64.688h-25m25 64.687h-25m25 64.687h-25m25 64.688h-25m25 64.688h-25m25 64.726h-50m50 64.688h-25m25 64.687h-25m25 64.688h-25m25 64.687h-25m25 64.727h-25m25 64.687h-25m25 64.688h-25m25 64.687h-25m25 64.688h-25m25 64.687h-50m50 64.727h-25m25 64.687h-25m25 64.688h-25m25 64.687h-25m25 64.688h-25m25 64.727h-25m25 64.687h-25m25 64.687h-25m25 64.688h-25m25 64.688h-50m50 64.726h-25m25 64.687h-25m25 64.687h-25m25 64.688h-25m25 64.688h-25" transform="matrix(.1 0 0 -.1 0 274)"/><use xlink:href="#o" x="357.25" y="241" style="fill:#000;fill-opacity:1"/><use xlink:href="#q" x="357.25" y="176.625" style="fill:#000;fill-opacity:1"/><use xlink:href="#p" x="357.25" y="111.625" style="fill:#000;fill-opacity:1"/><use xlink:href="#r" x="357.25" y="47.25" style="fill:#000;fill-opacity:1"/><g clip-path="url(#s)"><path style="fill:none;stroke-width:12.5;stroke-linecap:round;stroke-linejoin:miter;stroke:#006400;stroke-opacity:1;stroke-miterlimit:10" d="M110 2396.21h850" transform="matrix(.1 0 0 -.1 0 274)"/></g><path style="fill:none;stroke-width:12.5;stroke-linecap:round;stroke-linejoin:miter;stroke:#006400;stroke-opacity:1;stroke-miterlimit:10" d="M960 363.79h850m0 2032.42h850" transform="matrix(.1 0 0 -.1 0 274)"/><g clip-path="url(#t)"><path style="fill:none;stroke-width:12.5;stroke-linecap:round;stroke-linejoin:miter;stroke:#006400;stroke-opacity:1;stroke-miterlimit:10" d="M2660 363.79h850" transform="matrix(.1 0 0 -.1 0 274)"/></g></svg>