<svg xmlns="http://www.w3.org/2000/svg" xmlns:xlink="http://www.w3.org/1999/xlink" width="1003.897" height="366.665" viewBox="0 0 752.923 274.999"><defs><clipPath id="a"><path d="M183 9h1v255h-1zm0 0"/></clipPath><clipPath id="b"><path d="M13.5 136h340v1h-340zm0 0"/></clipPath><clipPath id="c"><path d="M47 9h2v255h-2zm0 0"/></clipPath><clipPath id="d"><path d="M115 9h2v255h-2zm0 0"/></clipPath><clipPath id="e"><path d="M183 9h1v255h-1zm0 0"/></clipPath><clipPath id="f"><path d="M250 9h2v255h-2zm0 0"/></clipPath><clipPath id="g"><path d="M318 9h2v255h-2zm0 0"/></clipPath><clipPath id="h"><path d="M13.5 247h340v1h-340zm0 0"/></clipPath><clipPath id="i"><path d="M13.5 210h340v1h-340zm0 0"/></clipPath><clipPath id="j"><path d="M13.5 173h340v1h-340zm0 0"/></clipPath><clipPath id="k"><path d="M13.5 136h340v1h-340zm0 0"/></clipPath><clipPath id="l"><path d="M13.5 99h340v1h-340zm0 0"/></clipPath><clipPath id="m"><path d="M13.5 62h340v1h-340zm0 0"/></clipPath><clipPath id="n"><path d="M13.5 25h340v1h-340zm0 0"/></clipPath><clipPath id="o"><path d="M41 268h13v6.5H41zm0 0"/></clipPath><clipPath id="t"><path d="M109 268h13v6.5h-13zm0 0"/></clipPath><clipPath id="v"><path d="M178 268h11v6.5h-11zm0 0"/></clipPath><clipPath id="w"><path d="M246 268h10v6.5h-10zm0 0"/></clipPath><clipPath id="x"><path d="M313 268h11v6.5h-11zm0 0"/></clipPath><clipPath id="y"><path d="M41 .5h13V7H41zm0 0"/></clipPath><clipPath id="z"><path d="M109 .5h13V7h-13zm0 0"/></clipPath><clipPath id="A"><path d="M178 .5h11V7h-11zm0 0"/></clipPath><clipPath id="B"><path d="M246 .5h10V7h-10zm0 0"/></clipPath><clipPath id="C"><path d="M313 .5h11V7h-11zm0 0"/></clipPath><clipPath id="D"><path d="M.5 245H7v7H.5zm0 0"/></clipPath><clipPath id="F"><path d="M.5 208H7v6H.5zm0 0"/></clipPath><clipPath id="G"><path d="M.5 171H6v7H.5zm0 0"/></clipPath><clipPath id="I"><path d="M360 245h6.5v7H360zm0 0"/></clipPath><clipPath id="J"><path d="M360 208h6.5v6H360zm0 0"/></clipPath><clipPath id="K"><path d="M13.5 11h340v251h-340zm0 0"/></clipPath><clipPath id="L"><path d="M13.5 9H117v146H13.5zm0 0"/></clipPath><clipPath id="M"><path d="M80 9h207v255H80zm0 0"/></clipPath><clipPath id="N"><path d="M250 118h103.5v146H250zm0 0"/></clipPath><clipPath id="O"><path d="M569 9h1v255h-1zm0 0"/></clipPath><clipPath id="P"><path d="M399.426 136h340v1h-340zm0 0"/></clipPath><clipPath id="Q"><path d="M433 9h2v255h-2zm0 0"/></clipPath><clipPath id="R"><path d="M501 9h2v255h-2zm0 0"/></clipPath><clipPath id="S"><path d="M569 9h1v255h-1zm0 0"/></clipPath><clipPath id="T"><path d="M636 9h2v255h-2zm0 0"/></clipPath><clipPath id="U"><path d="M704 9h2v255h-2zm0 0"/></clipPath><clipPath id="V"><path d="M399.426 247h340v1h-340zm0 0"/></clipPath><clipPath id="W"><path d="M399.426 210h340v1h-340zm0 0"/></clipPath><clipPath id="X"><path d="M399.426 173h340v1h-340zm0 0"/></clipPath><clipPath id="Y"><path d="M399.426 136h340v1h-340zm0 0"/></clipPath><clipPath id="Z"><path d="M399.426 99h340v1h-340zm0 0"/></clipPath><clipPath id="aa"><path d="M399.426 62h340v1h-340zm0 0"/></clipPath><clipPath id="ab"><path d="M399.426 25h340v1h-340zm0 0"/></clipPath><clipPath id="ac"><path d="M427 268h13v6.5h-13zm0 0"/></clipPath><clipPath id="ad"><path d="M495 268h13v6.5h-13zm0 0"/></clipPath><clipPath id="ae"><path d="M564 268h11v6.5h-11zm0 0"/></clipPath><clipPath id="af"><path d="M631 268h11v6.5h-11zm0 0"/></clipPath><clipPath id="ag"><path d="M699 268h11v6.5h-11zm0 0"/></clipPath><clipPath id="ah"><path d="M427 .5h13V7h-13zm0 0"/></clipPath><clipPath id="ai"><path d="M495 .5h13V7h-13zm0 0"/></clipPath><clipPath id="aj"><path d="M564 .5h11V7h-11zm0 0"/></clipPath><clipPath id="ak"><path d="M631 .5h11V7h-11zm0 0"/></clipPath><clipPath id="al"><path d="M699 .5h11V7h-11zm0 0"/></clipPath><clipPath id="am"><path d="M386.426 245H393v7h-6.574zm0 0"/></clipPath><clipPath id="an"><path d="M386.426 208H393v6h-6.574zm0 0"/></clipPath><clipPath id="ao"><path d="M386.426 171H391v7h-4.574zm0 0"/></clipPath><clipPath id="ap"><path d="M746 208h6.426v6H746zm0 0"/></clipPath><clipPath id="aq"><path d="M399.426 9h340v255h-340zm0 0"/></clipPath><clipPath id="ar"><path d="M399.426 19H486v119h-86.574zm0 0"/></clipPath><clipPath id="as"><path d="M653 135h86.426v119H653zm0 0"/></clipPath><symbol overflow="visible" id="p"><path style="stroke:none" d="M2.125-2.344H.344v.547h1.781zm0 0"/></symbol><symbol overflow="visible" id="q"><path style="stroke:none" d="M3.563-5.313H.828L.422-2.421h.61c.312-.375.562-.5.984-.5.703 0 1.156.485 1.156 1.281 0 .766-.438 1.235-1.156 1.235-.579 0-.938-.297-1.094-.906H.266c.093.437.156.656.312.843.313.406.844.64 1.453.64 1.063 0 1.813-.78 1.813-1.905 0-1.047-.688-1.766-1.719-1.766-.375 0-.672.094-.984.313l.218-1.485h2.204zm0 0"/></symbol><symbol overflow="visible" id="r"><path style="stroke:none" d="M1.438-.781H.655V0h.781zm0 0"/></symbol><symbol overflow="visible" id="s"><path style="stroke:none" d="M2.063-5.313c-.5 0-.938.22-1.22.579C.5-4.266.329-3.563.329-2.578c0 1.797.594 2.75 1.734 2.75 1.126 0 1.735-.953 1.735-2.703 0-1.031-.156-1.719-.516-2.203-.281-.375-.719-.579-1.219-.579zm0 .579c.718 0 1.062.718 1.062 2.14 0 1.516-.344 2.219-1.078 2.219C1.344-.375 1-1.109 1-2.563c0-1.453.344-2.171 1.063-2.171zm0 0"/></symbol><symbol overflow="visible" id="u"><path style="stroke:none" d="M3.797-.656H1c.063-.438.313-.703.953-1.094l.75-.406c.75-.406 1.125-.953 1.125-1.594 0-.453-.172-.86-.484-1.14-.328-.298-.719-.423-1.219-.423-.672 0-1.172.235-1.469.688-.187.281-.265.61-.281 1.156h.656c.032-.36.078-.578.157-.75.171-.328.515-.515.921-.515.594 0 1.047.421 1.047.984 0 .422-.25.781-.719 1.063l-.687.39C.64-1.672.312-1.172.25 0h3.547zm0 0"/></symbol><symbol overflow="visible" id="E"><path style="stroke:none" d="M1.656-2.438h.36c.734 0 1.109.329 1.109.954 0 .671-.422 1.078-1.11 1.078-.718 0-1.078-.36-1.109-1.14H.234c.032.421.11.702.235.952.281.5.797.766 1.531.766 1.094 0 1.797-.656 1.797-1.656 0-.672-.266-1.047-.906-1.266.5-.203.75-.578.75-1.11 0-.906-.61-1.453-1.625-1.453-1.079 0-1.641.579-1.657 1.72h.657c0-.329.03-.516.109-.673.156-.296.484-.468.906-.468.578 0 .938.343.938.906 0 .375-.14.594-.438.719-.172.078-.406.109-.875.109zm0 0"/></symbol><symbol overflow="visible" id="H"><path style="stroke:none" d="M1.938-3.781V0h.671v-5.313h-.437c-.235.813-.39.922-1.406 1.047v.485zm0 0"/></symbol></defs><g clip-path="url(#a)"><path style="fill:none;stroke-width:6.25;stroke-linecap:round;stroke-linejoin:miter;stroke:#bfbfbf;stroke-opacity:1;stroke-miterlimit:10" d="M1830 104.99v2550" transform="matrix(.1 0 0 -.1 .5 274.499)"/></g><g clip-path="url(#b)"><path style="fill:none;stroke-width:6.25;stroke-linecap:round;stroke-linejoin:miter;stroke:#bfbfbf;stroke-opacity:1;stroke-miterlimit:10" d="M130 1379.99h3400" transform="matrix(.1 0 0 -.1 .5 274.499)"/></g><g clip-path="url(#c)"><path style="fill:none;stroke-width:6.25;stroke-linecap:round;stroke-linejoin:miter;stroke:#bfbfbf;stroke-opacity:1;stroke-dasharray:12.5,18.75;stroke-miterlimit:10" d="M477.188 104.99v2550" transform="matrix(.1 0 0 -.1 .5 274.499)"/></g><g clip-path="url(#d)"><path style="fill:none;stroke-width:6.25;stroke-linecap:round;stroke-linejoin:miter;stroke:#bfbfbf;stroke-opacity:1;stroke-dasharray:12.5,18.75;stroke-miterlimit:10" d="M1153.594 104.99v2550" transform="matrix(.1 0 0 -.1 .5 274.499)"/></g><g clip-path="url(#e)"><path style="fill:none;stroke-width:6.25;stroke-linecap:round;stroke-linejoin:miter;stroke:#bfbfbf;stroke-opacity:1;stroke-dasharray:12.5,18.75;stroke-miterlimit:10" d="M1830 104.99v2550" transform="matrix(.1 0 0 -.1 .5 274.499)"/></g><g clip-path="url(#f)"><path style="fill:none;stroke-width:6.25;stroke-linecap:round;stroke-linejoin:miter;stroke:#bfbfbf;stroke-opacity:1;stroke-dasharray:12.5,18.75;stroke-miterlimit:10" d="M2506.406 104.99v2550" transform="matrix(.1 0 0 -.1 .5 274.499)"/></g><g clip-path="url(#g)"><path style="fill:none;stroke-width:6.25;stroke-linecap:round;stroke-linejoin:miter;stroke:#bfbfbf;stroke-opacity:1;stroke-dasharray:12.5,18.75;stroke-miterlimit:10" d="M3182.813 104.99v2550" transform="matrix(.1 0 0 -.1 .5 274.499)"/></g><g clip-path="url(#h)"><path style="fill:none;stroke-width:6.25;stroke-linecap:round;stroke-linejoin:miter;stroke:#bfbfbf;stroke-opacity:1;stroke-dasharray:12.5,18.75;stroke-miterlimit:10" d="M130 268.584h3400" transform="matrix(.1 0 0 -.1 .5 274.499)"/></g><g clip-path="url(#i)"><path style="fill:none;stroke-width:6.25;stroke-linecap:round;stroke-linejoin:miter;stroke:#bfbfbf;stroke-opacity:1;stroke-dasharray:12.5,18.75;stroke-miterlimit:10" d="M130 639.053h3400" transform="matrix(.1 0 0 -.1 .5 274.499)"/></g><g clip-path="url(#j)"><path style="fill:none;stroke-width:6.25;stroke-linecap:round;stroke-linejoin:miter;stroke:#bfbfbf;stroke-opacity:1;stroke-dasharray:12.5,18.75;stroke-miterlimit:10" d="M130 1009.521h3400" transform="matrix(.1 0 0 -.1 .5 274.499)"/></g><g clip-path="url(#k)"><path style="fill:none;stroke-width:6.25;stroke-linecap:round;stroke-linejoin:miter;stroke:#bfbfbf;stroke-opacity:1;stroke-dasharray:12.5,18.75;stroke-miterlimit:10" d="M130 1379.99h3400" transform="matrix(.1 0 0 -.1 .5 274.499)"/></g><g clip-path="url(#l)"><path style="fill:none;stroke-width:6.25;stroke-linecap:round;stroke-linejoin:miter;stroke:#bfbfbf;stroke-opacity:1;stroke-dasharray:12.5,18.75;stroke-miterlimit:10" d="M130 1750.459h3400" transform="matrix(.1 0 0 -.1 .5 274.499)"/></g><g clip-path="url(#m)"><path style="fill:none;stroke-width:6.25;stroke-linecap:round;stroke-linejoin:miter;stroke:#bfbfbf;stroke-opacity:1;stroke-dasharray:12.5,18.75;stroke-miterlimit:10" d="M130 2120.927h3400" transform="matrix(.1 0 0 -.1 .5 274.499)"/></g><g clip-path="url(#n)"><path style="fill:none;stroke-width:6.25;stroke-linecap:round;stroke-linejoin:miter;stroke:#bfbfbf;stroke-opacity:1;stroke-dasharray:12.5,18.75;stroke-miterlimit:10" d="M130 2491.396h3400" transform="matrix(.1 0 0 -.1 .5 274.499)"/></g><path style="fill:none;stroke-width:12.5;stroke-linecap:square;stroke-linejoin:miter;stroke:#000;stroke-opacity:1;stroke-miterlimit:10" d="M130 104.99h3400" transform="matrix(.1 0 0 -.1 .5 274.499)"/><path style="fill:none;stroke-width:6.25;stroke-linecap:butt;stroke-linejoin:miter;stroke:#000;stroke-opacity:1;stroke-miterlimit:10" d="M138.984 104.99v25m67.618-25v25m67.656-25v25m67.656-25v25m67.617-25v25m67.657-25v50m67.617-50v25m67.655-25v25m67.657-25v25m67.617-25v25m67.656-25v25m67.618-25v25m67.656-25v25m67.656-25v25m67.618-25v25m67.656-25v50m67.616-50v25m67.657-25v25m67.656-25v25m67.617-25v25m67.657-25v25m67.617-25v25m67.656-25v25m67.657-25v25m67.617-25v25m67.656-25v50m67.656-50v25m67.617-25v25m67.657-25v25m67.617-25v25m67.656-25v25m67.657-25v25m67.617-25v25m67.656-25v25m67.657-25v25m67.616-25v50m67.657-50v25m67.617-25v25m67.656-25v25m67.617-25v25m67.657-25v25m67.656-25v25m67.617-25v25m67.657-25v25m67.616-25v25m67.657-25v50m67.656-50v25m67.617-25v25m67.656-25v25m67.656-25v25m67.618-25v25" transform="matrix(.1 0 0 -.1 .5 274.499)"/><g style="fill:#000;fill-opacity:1" clip-path="url(#o)"><use xlink:href="#p" x="41.414" y="273.999"/><use xlink:href="#q" x="43.912" y="273.999"/><use xlink:href="#r" x="48.082" y="273.999"/><use xlink:href="#s" x="50.167" y="273.999"/></g><g style="fill:#000;fill-opacity:1" clip-path="url(#t)"><use xlink:href="#p" x="108.915" y="273.999"/><use xlink:href="#u" x="111.412" y="273.999"/><use xlink:href="#r" x="115.582" y="273.999"/><use xlink:href="#q" x="117.667" y="273.999"/></g><g style="fill:#000;fill-opacity:1" clip-path="url(#v)"><use xlink:href="#s" x="178.288" y="273.999"/><use xlink:href="#r" x="182.458" y="273.999"/><use xlink:href="#s" x="184.543" y="273.999"/></g><g style="fill:#000;fill-opacity:1" clip-path="url(#w)"><use xlink:href="#u" x="245.788" y="273.999"/><use xlink:href="#r" x="249.958" y="273.999"/><use xlink:href="#q" x="252.043" y="273.999"/></g><g style="fill:#000;fill-opacity:1" clip-path="url(#x)"><use xlink:href="#q" x="313.288" y="273.999"/><use xlink:href="#r" x="317.458" y="273.999"/><use xlink:href="#s" x="319.543" y="273.999"/></g><path style="fill:none;stroke-width:12.5;stroke-linecap:square;stroke-linejoin:miter;stroke:#000;stroke-opacity:1;stroke-miterlimit:10" d="M130 2654.99h3400" transform="matrix(.1 0 0 -.1 .5 274.499)"/><path style="fill:none;stroke-width:6.25;stroke-linecap:butt;stroke-linejoin:miter;stroke:#000;stroke-opacity:1;stroke-miterlimit:10" d="M138.984 2654.99v-25m67.618 25v-25m67.656 25v-25m67.656 25v-25m67.617 25v-25m67.657 25v-50m67.617 50v-25m67.655 25v-25m67.657 25v-25m67.617 25v-25m67.656 25v-25m67.618 25v-25m67.656 25v-25m67.656 25v-25m67.618 25v-25m67.656 25v-50m67.616 50v-25m67.657 25v-25m67.656 25v-25m67.617 25v-25m67.657 25v-25m67.617 25v-25m67.656 25v-25m67.657 25v-25m67.617 25v-25m67.656 25v-50m67.656 50v-25m67.617 25v-25m67.657 25v-25m67.617 25v-25m67.656 25v-25m67.657 25v-25m67.617 25v-25m67.656 25v-25m67.657 25v-25m67.616 25v-50m67.657 50v-25m67.617 25v-25m67.656 25v-25m67.617 25v-25m67.657 25v-25m67.656 25v-25m67.617 25v-25m67.657 25v-25m67.616 25v-25m67.657 25v-50m67.656 50v-25m67.617 25v-25m67.656 25v-25m67.656 25v-25m67.618 25v-25" transform="matrix(.1 0 0 -.1 .5 274.499)"/><g style="fill:#000;fill-opacity:1" clip-path="url(#y)"><use xlink:href="#p" x="41.414" y="5.874"/><use xlink:href="#q" x="43.912" y="5.874"/><use xlink:href="#r" x="48.082" y="5.874"/><use xlink:href="#s" x="50.167" y="5.874"/></g><g style="fill:#000;fill-opacity:1" clip-path="url(#z)"><use xlink:href="#p" x="108.915" y="5.874"/><use xlink:href="#u" x="111.412" y="5.874"/><use xlink:href="#r" x="115.582" y="5.874"/><use xlink:href="#q" x="117.667" y="5.874"/></g><g style="fill:#000;fill-opacity:1" clip-path="url(#A)"><use xlink:href="#s" x="178.288" y="5.874"/><use xlink:href="#r" x="182.458" y="5.874"/><use xlink:href="#s" x="184.543" y="5.874"/></g><g style="fill:#000;fill-opacity:1" clip-path="url(#B)"><use xlink:href="#u" x="245.788" y="5.874"/><use xlink:href="#r" x="249.958" y="5.874"/><use xlink:href="#q" x="252.043" y="5.874"/></g><g style="fill:#000;fill-opacity:1" clip-path="url(#C)"><use xlink:href="#q" x="313.288" y="5.874"/><use xlink:href="#r" x="317.458" y="5.874"/><use xlink:href="#s" x="319.543" y="5.874"/></g><path style="fill:none;stroke-width:12.5;stroke-linecap:square;stroke-linejoin:miter;stroke:#000;stroke-opacity:1;stroke-miterlimit:10" d="M130 104.99v2550" transform="matrix(.1 0 0 -.1 .5 274.499)"/><path style="fill:none;stroke-width:6.25;stroke-linecap:butt;stroke-linejoin:miter;stroke:#000;stroke-opacity:1;stroke-miterlimit:10" d="M130 120.42h25m-25 37.03h25m-25 37.071h25m-25 37.032h25m-25 37.031h50m-50 37.07h25m-25 37.031h25m-25 37.071h25m-25 37.031h25m-25 37.031h25m-25 37.07h25m-25 37.032h25m-25 37.07h25m-25 37.031h25m-25 37.032h50m-50 37.07h25m-25 37.031h25m-25 37.07h25m-25 37.032h25m-25 37.031h25m-25 37.07h25m-25 37.031h25m-25 37.032h25m-25 37.07h25m-25 37.031h50m-50 37.071h25m-25 37.031h25m-25 37.07h25m-25 37.031h25m-25 37.032h25m-25 37.07h25m-25 37.031h25m-25 37.071h25m-25 37.031h25m-25 37.031h50m-50 37.07h25m-25 37.032h25m-25 37.031h25m-25 37.07h25m-25 37.031h25m-25 37.071h25m-25 37.031h25m-25 37.07h25m-25 37.032h25m-25 37.031h50m-50 37.071h25m-25 37.03h25m-25 37.032h25m-25 37.07h25m-25 37.031h25m-25 37.07h25m-25 37.032h25m-25 37.07h25m-25 37.031h25m-25 37.031h50m-50 37.071h25m-25 37.032h25m-25 37.07h25m-25 37.03h25m-25 37.032h25m-25 37.07h25m-25 37.031h25m-25 37.032h25m-25 37.07h25m-25 37.031h50m-50 37.071h25m-25 37.031h25m-25 37.07h25m-25 37.032h25" transform="matrix(.1 0 0 -.1 .5 274.499)"/><g style="fill:#000;fill-opacity:1" clip-path="url(#D)"><use xlink:href="#p" x="-.042" y="250.874"/><use xlink:href="#E" x="2.456" y="250.874"/></g><g style="fill:#000;fill-opacity:1" clip-path="url(#F)"><use xlink:href="#p" x="-.042" y="213.999"/><use xlink:href="#u" x="2.456" y="213.999"/></g><g style="fill:#000;fill-opacity:1" clip-path="url(#G)"><use xlink:href="#p" x="-.042" y="177.124"/><use xlink:href="#H" x="2.456" y="177.124"/></g><use xlink:href="#s" x="2.455" y="139.624" style="fill:#000;fill-opacity:1"/><use xlink:href="#H" x="2.455" y="102.749" style="fill:#000;fill-opacity:1"/><use xlink:href="#u" x="2.455" y="65.874" style="fill:#000;fill-opacity:1"/><use xlink:href="#E" x="2.455" y="28.999" style="fill:#000;fill-opacity:1"/><path style="fill:none;stroke-width:12.5;stroke-linecap:square;stroke-linejoin:miter;stroke:#000;stroke-opacity:1;stroke-miterlimit:10" d="M3530 104.99v2550" transform="matrix(.1 0 0 -.1 .5 274.499)"/><path style="fill:none;stroke-width:6.25;stroke-linecap:butt;stroke-linejoin:miter;stroke:#000;stroke-opacity:1;stroke-miterlimit:10" d="M3530 120.42h-25m25 37.03h-25m25 37.071h-25m25 37.032h-25m25 37.031h-50m50 37.07h-25m25 37.031h-25m25 37.071h-25m25 37.031h-25m25 37.031h-25m25 37.07h-25m25 37.032h-25m25 37.07h-25m25 37.031h-25m25 37.032h-50m50 37.07h-25m25 37.031h-25m25 37.07h-25m25 37.032h-25m25 37.031h-25m25 37.07h-25m25 37.031h-25m25 37.032h-25m25 37.07h-25m25 37.031h-50m50 37.071h-25m25 37.031h-25m25 37.07h-25m25 37.031h-25m25 37.032h-25m25 37.07h-25m25 37.031h-25m25 37.071h-25m25 37.031h-25m25 37.031h-50m50 37.07h-25m25 37.032h-25m25 37.031h-25m25 37.07h-25m25 37.031h-25m25 37.071h-25m25 37.031h-25m25 37.07h-25m25 37.032h-25m25 37.031h-50m50 37.071h-25m25 37.03h-25m25 37.032h-25m25 37.07h-25m25 37.031h-25m25 37.07h-25m25 37.032h-25m25 37.07h-25m25 37.031h-25m25 37.031h-50m50 37.071h-25m25 37.032h-25m25 37.07h-25m25 37.03h-25m25 37.032h-25m25 37.07h-25m25 37.031h-25m25 37.032h-25m25 37.07h-25m25 37.031h-50m50 37.071h-25m25 37.031h-25m25 37.07h-25m25 37.032h-25" transform="matrix(.1 0 0 -.1 .5 274.499)"/><g style="fill:#000;fill-opacity:1" clip-path="url(#I)"><use xlink:href="#p" x="359.75" y="250.874"/><use xlink:href="#E" x="362.248" y="250.874"/></g><g style="fill:#000;fill-opacity:1" clip-path="url(#J)"><use xlink:href="#p" x="359.75" y="213.999"/><use xlink:href="#u" x="362.248" y="213.999"/></g><g style="fill:#000;fill-opacity:1"><use xlink:href="#p" x="359.75" y="177.124"/><use xlink:href="#H" x="362.248" y="177.124"/></g><use xlink:href="#s" x="359.75" y="139.624" style="fill:#000;fill-opacity:1"/><use xlink:href="#H" x="359.75" y="102.749" style="fill:#000;fill-opacity:1"/><use xlink:href="#u" x="359.75" y="65.874" style="fill:#000;fill-opacity:1"/><use xlink:href="#E" x="359.75" y="28.999" style="fill:#000;fill-opacity:1"/><g clip-path="url(#K)"><path style="fill:none;stroke-width:12.5;stroke-linecap:round;stroke-linejoin:miter;stroke:#00008b;stroke-opacity:1;stroke-miterlimit:10" d="m130 1379.99 6.25 17.11 6.25 17.07 6.25 16.914 6.25 16.797 6.25 16.562 6.25 16.29 6.25 15.976 6.25 15.625 6.25 15.195 6.25 14.766 6.25 14.257 6.25 13.711 6.25 13.165 6.25 12.539 6.25 11.914 6.25 11.289 6.25 10.586 6.25 9.921 6.25 9.22 6.25 8.515 6.25 7.773 6.25 7.11 6.25 6.367 6.25 5.703 6.25 5 6.25 4.336 6.25 3.71 6.25 3.087 6.25 2.5 6.25 1.953 6.25 1.445 6.25.977 6.25.547 6.25.156 6.25-.117 6.25-.43 6.25-.664 6.25-.82 6.25-.899 6.25-.976 6.25-.938 6.25-.86 6.25-.741 6.25-.508 6.25-.274 6.25.079 6.25.43 6.25.898 6.25 1.367 6.25 1.914 6.25 2.539 6.25 3.164 6.25 3.867 6.25 4.61 6.25 5.351 6.25 6.172 6.25 6.992 6.25 7.89 6.25 8.75 6.25 9.65 6.25 10.546 6.25 11.445 6.25 12.383 6.25 13.242 6.25 14.18 6.25 15.04 6.25 15.898 6.25 16.718 6.25 17.5 6.25 18.243 6.25 18.945 6.25 19.648 6.25 20.196 6.25 20.78 6.25 21.25 6.25 21.641 6.25 21.954 6.25 22.265 6.25 22.383 6.25 22.5 6.25 22.54 6.25 22.382 6.25 22.226 6.25 21.954 6.25 21.601 6.25 21.094 6.25 20.547 6.25 19.883 6.25 19.14 6.25 18.242 6.25 17.266 6.25 16.211 6.25 15.078 6.25 13.828 6.25 12.5 6.25 11.055 6.25 9.57 6.25 7.969 6.25 6.328 6.25 4.61 6.25 2.773 6.25.937 6.25-.937 6.25-2.93 6.25-4.922 6.25-6.953 6.25-9.023 6.25-11.094 6.25-13.242 6.25-15.313 6.25-17.422 6.25-19.57 6.25-21.64 6.25-23.711 6.25-25.782 6.25-27.812 6.25-29.727 6.25-31.718 6.25-33.555 6.25-35.313 6.25-37.109 6.25-38.75 6.25-40.352 6.25-41.835 6.25-43.204 6.25-44.53 6.25-45.743 6.25-46.836 6.25-47.813 6.25-48.671 6.25-49.414 6.25-50.079 6.25-50.546 6.25-50.938 6.25-51.21 12.5-102.657 6.25-51.172 6.25-50.938 6.25-50.585 6.25-50.04 6.25-49.414 6.25-48.71 6.25-47.813 6.25-46.797 6.25-45.742 6.25-44.531 6.25-43.242 6.25-41.836 6.25-40.313 6.25-38.75 6.25-37.11 6.25-35.35 6.25-33.556 6.25-31.68 6.25-29.765 6.25-27.773 6.25-25.782 6.25-23.71 6.25-21.641 6.25-19.57 6.25-17.422 6.25-15.352 6.25-13.203 6.25-11.094 6.25-9.023 6.25-6.953 6.25-4.922 6.25-2.93 6.25-.976 6.25.937 6.25 2.813 6.25 4.609 6.25 6.289 6.25 8.008 6.25 9.57 6.25 11.055 6.25 12.5 6.25 13.828 6.25 15.039 6.25 16.25 6.25 17.266 6.25 18.242 6.25 19.101 6.25 19.883 6.25 20.547 6.25 21.133 6.25 21.562 6.25 21.953 6.25 22.227 6.25 22.422 12.5 45 6.25 22.422 6.25 22.226 6.25 21.993 6.25 21.64 6.25 21.25 6.25 20.742 6.25 20.235 6.25 19.61 6.25 18.944 6.25 18.282 6.25 17.5 6.25 16.718 6.25 15.899 6.25 15.039 6.25 14.14 6.25 13.282 6.25 12.383 6.25 11.445 6.25 10.547 6.25 9.648 6.25 8.75 6.25 7.852 6.25 7.031 6.25 6.172 6.25 5.351 6.25 4.61 6.25 3.867 6.25 3.164 6.25 2.5 6.25 1.953 6.25 1.367 6.25.86 6.25.469 6.25.039 6.25-.235 6.25-.547 6.25-.703 6.25-.86 6.25-.937 6.25-.976 6.25-.938 6.25-.78 6.25-.665 6.25-.43 6.25-.156 6.25.195 6.25.547 6.25.977 6.25 1.445 6.25 1.953 6.25 2.5 6.25 3.086 6.25 3.711 6.25 4.336 6.25 5 6.25 5.703 6.25 6.367 6.25 7.07 6.25 7.813 6.25 8.516 6.25 9.219 6.25 9.882 6.25 10.625 6.25 11.25 6.25 11.954 6.25 12.539 6.25 13.164 6.25 13.71 6.25 14.258 6.25 14.727 6.25 15.195 6.25 15.625 6.25 15.977 6.25 16.328 6.25 16.562 6.25 16.758 6.25 16.953 6.25 17.032 12.5 34.218 6.25 17.07 6.25 16.915 6.25 16.797 6.25 16.562 6.25 16.29 6.25 15.976 6.25 15.625 6.25 15.195 6.25 14.766 6.25 14.257 6.25 13.711 6.25 13.165 6.25 12.539 6.25 11.914 6.25 11.289 6.25 10.586 6.25 9.921 6.25 9.22 6.25 8.515 6.25 7.773 6.25 7.11 6.25 6.367 6.25 5.703 6.25 5 6.25 4.336 6.25 3.71 6.25 3.087 6.25 2.5 6.25 1.953 6.25 1.445 6.25.977 6.25.547 6.25.156 6.25-.117 6.25-.43 6.25-.664 6.25-.82 6.25-.899 6.25-.976 6.25-.938 6.25-.86 6.25-.741 6.25-.508 6.25-.274 6.25.079 6.25.43 6.25.898 6.25 1.367 6.25 1.914 6.25 2.539 6.25 3.164 6.25 3.867 6.25 4.61 6.25 5.351 6.25 6.172 6.25 6.992 6.25 7.89 6.25 8.75 6.25 9.65 6.25 10.546 6.25 11.445 6.25 12.383 6.25 13.242 6.25 14.18 6.25 15.04 6.25 15.898 6.25 16.718 6.25 17.5 6.25 18.243 6.25 18.945 6.25 19.648 6.25 20.196 6.25 20.78 6.25 21.25 6.25 21.641 6.25 21.954 6.25 22.265 6.25 22.383 6.25 22.5 6.25 22.54 6.25 22.382 6.25 22.226 6.25 21.954 6.25 21.601 6.25 21.094 6.25 20.547 6.25 19.883 6.25 19.14 6.25 18.242 6.25 17.266 6.25 16.211 6.25 15.078 6.25 13.828 6.25 12.5 6.25 11.055 6.25 9.57 6.25 7.969 6.25 6.328 6.25 4.61 6.25 2.773 6.25.937 6.25-.937 6.25-2.93 6.25-4.922 6.25-6.953 6.25-9.023 6.25-11.094 6.25-13.242 6.25-15.313 6.25-17.422 6.25-19.57 6.25-21.64 6.25-23.711 6.25-25.782 6.25-27.812 6.25-29.727 6.25-31.718 6.25-33.555 6.25-35.313 6.25-37.109 6.25-38.75 6.25-40.352 6.25-41.835 6.25-43.204 6.25-44.53 6.25-45.743 6.25-46.836 6.25-47.813 6.25-48.671 6.25-49.414 6.25-50.079 6.25-50.546 6.25-50.938 6.25-51.21 12.5-102.657 6.25-51.172 6.25-50.938 6.25-50.585 6.25-50.04 6.25-49.414 6.25-48.71 6.25-47.813 6.25-46.797 6.25-45.742 6.25-44.531 6.25-43.242 6.25-41.836 6.25-40.313 6.25-38.75 6.25-37.11 6.25-35.35 6.25-33.556 6.25-31.68 6.25-29.765 6.25-27.773 6.25-25.782 6.25-23.71 6.25-21.641 6.25-19.57 6.25-17.422 6.25-15.352 6.25-13.203 6.25-11.094 6.25-9.023 6.25-6.953 6.25-4.922 6.25-2.93 6.25-.976 6.25.937 6.25 2.813 6.25 4.609 6.25 6.289 6.25 8.008 6.25 9.57 6.25 11.055 6.25 12.5 6.25 13.828 6.25 15.039 6.25 16.25 6.25 17.266 6.25 18.242 6.25 19.101 6.25 19.883 6.25 20.547 6.25 21.133 6.25 21.562 6.25 21.953 6.25 22.227 6.25 22.422 12.5 45 6.25 22.422 6.25 22.226 6.25 21.993 6.25 21.64 6.25 21.25 6.25 20.742 6.25 20.235 6.25 19.61 6.25 18.944 6.25 18.282 6.25 17.5 6.25 16.718 6.25 15.899 6.25 15.039 6.25 14.14 6.25 13.282 6.25 12.383 6.25 11.445 6.25 10.547 6.25 9.648 6.25 8.75 6.25 7.852 6.25 7.031 6.25 6.172 6.25 5.351 6.25 4.61 6.25 3.867 6.25 3.164 6.25 2.5 6.25 1.953 6.25 1.367 6.25.86 6.25.469 6.25.039 6.25-.235 6.25-.547 6.25-.703 6.25-.86 6.25-.937 6.25-.976 6.25-.938 6.25-.78 6.25-.665 6.25-.43 6.25-.156 6.25.195 6.25.547 6.25.977 6.25 1.445 6.25 1.953 6.25 2.5 6.25 3.086 6.25 3.711 6.25 4.336 6.25 5 6.25 5.703 6.25 6.367 6.25 7.07 6.25 7.813 6.25 8.516 6.25 9.219 6.25 9.882 6.25 10.625 6.25 11.25 6.25 11.954 6.25 12.539 6.25 13.164 6.25 13.71 6.25 14.258 6.25 14.727 6.25 15.195 6.25 15.625 6.25 15.977 6.25 16.328 6.25 16.562 6.25 16.758 6.25 16.953 6.25 17.032 6.25 17.109" transform="matrix(.1 0 0 -.1 .5 274.499)"/></g><g clip-path="url(#L)"><path style="fill:none;stroke-width:12.5;stroke-linecap:round;stroke-linejoin:miter;stroke:#006400;stroke-opacity:1;stroke-miterlimit:10" d="m130 1379.99 850 1163.867" transform="matrix(.1 0 0 -.1 .5 274.499)"/></g><g clip-path="url(#M)"><path style="fill:none;stroke-width:12.5;stroke-linecap:round;stroke-linejoin:miter;stroke:#006400;stroke-opacity:1;stroke-miterlimit:10" d="m980 216.123 1700 2327.734" transform="matrix(.1 0 0 -.1 .5 274.499)"/></g><g clip-path="url(#N)"><path style="fill:none;stroke-width:12.5;stroke-linecap:round;stroke-linejoin:miter;stroke:#006400;stroke-opacity:1;stroke-miterlimit:10" d="m2680 216.123 850 1163.867" transform="matrix(.1 0 0 -.1 .5 274.499)"/></g><g clip-path="url(#O)"><path style="fill:none;stroke-width:6.25;stroke-linecap:round;stroke-linejoin:miter;stroke:#bfbfbf;stroke-opacity:1;stroke-miterlimit:10" d="M1830.018 104.99v2550" transform="matrix(.1 0 0 -.1 386.424 274.499)"/></g><g clip-path="url(#P)"><path style="fill:none;stroke-width:6.25;stroke-linecap:round;stroke-linejoin:miter;stroke:#bfbfbf;stroke-opacity:1;stroke-miterlimit:10" d="M130.018 1379.99h3400" transform="matrix(.1 0 0 -.1 386.424 274.499)"/></g><g clip-path="url(#Q)"><path style="fill:none;stroke-width:6.25;stroke-linecap:round;stroke-linejoin:miter;stroke:#bfbfbf;stroke-opacity:1;stroke-dasharray:12.5,18.75;stroke-miterlimit:10" d="M477.166 104.99v2550" transform="matrix(.1 0 0 -.1 386.424 274.499)"/></g><g clip-path="url(#R)"><path style="fill:none;stroke-width:6.25;stroke-linecap:round;stroke-linejoin:miter;stroke:#bfbfbf;stroke-opacity:1;stroke-dasharray:12.5,18.75;stroke-miterlimit:10" d="M1153.572 104.99v2550" transform="matrix(.1 0 0 -.1 386.424 274.499)"/></g><g clip-path="url(#S)"><path style="fill:none;stroke-width:6.25;stroke-linecap:round;stroke-linejoin:miter;stroke:#bfbfbf;stroke-opacity:1;stroke-dasharray:12.5,18.75;stroke-miterlimit:10" d="M1830.018 104.99v2550" transform="matrix(.1 0 0 -.1 386.424 274.499)"/></g><g clip-path="url(#T)"><path style="fill:none;stroke-width:6.25;stroke-linecap:round;stroke-linejoin:miter;stroke:#bfbfbf;stroke-opacity:1;stroke-dasharray:12.5,18.75;stroke-miterlimit:10" d="M2506.424 104.99v2550" transform="matrix(.1 0 0 -.1 386.424 274.499)"/></g><g clip-path="url(#U)"><path style="fill:none;stroke-width:6.25;stroke-linecap:round;stroke-linejoin:miter;stroke:#bfbfbf;stroke-opacity:1;stroke-dasharray:12.5,18.75;stroke-miterlimit:10" d="M3182.83 104.99v2550" transform="matrix(.1 0 0 -.1 386.424 274.499)"/></g><g clip-path="url(#V)"><path style="fill:none;stroke-width:6.25;stroke-linecap:round;stroke-linejoin:miter;stroke:#bfbfbf;stroke-opacity:1;stroke-dasharray:12.5,18.75;stroke-miterlimit:10" d="M130.018 268.584h3400" transform="matrix(.1 0 0 -.1 386.424 274.499)"/></g><g clip-path="url(#W)"><path style="fill:none;stroke-width:6.25;stroke-linecap:round;stroke-linejoin:miter;stroke:#bfbfbf;stroke-opacity:1;stroke-dasharray:12.5,18.75;stroke-miterlimit:10" d="M130.018 639.053h3400" transform="matrix(.1 0 0 -.1 386.424 274.499)"/></g><g clip-path="url(#X)"><path style="fill:none;stroke-width:6.25;stroke-linecap:round;stroke-linejoin:miter;stroke:#bfbfbf;stroke-opacity:1;stroke-dasharray:12.5,18.75;stroke-miterlimit:10" d="M130.018 1009.521h3400" transform="matrix(.1 0 0 -.1 386.424 274.499)"/></g><g clip-path="url(#Y)"><path style="fill:none;stroke-width:6.25;stroke-linecap:round;stroke-linejoin:miter;stroke:#bfbfbf;stroke-opacity:1;stroke-dasharray:12.5,18.75;stroke-miterlimit:10" d="M130.018 1379.99h3400" transform="matrix(.1 0 0 -.1 386.424 274.499)"/></g><g clip-path="url(#Z)"><path style="fill:none;stroke-width:6.25;stroke-linecap:round;stroke-linejoin:miter;stroke:#bfbfbf;stroke-opacity:1;stroke-dasharray:12.5,18.75;stroke-miterlimit:10" d="M130.018 1750.459h3400" transform="matrix(.1 0 0 -.1 386.424 274.499)"/></g><g clip-path="url(#aa)"><path style="fill:none;stroke-width:6.25;stroke-linecap:round;stroke-linejoin:miter;stroke:#bfbfbf;stroke-opacity:1;stroke-dasharray:12.5,18.75;stroke-miterlimit:10" d="M130.018 2120.927h3400" transform="matrix(.1 0 0 -.1 386.424 274.499)"/></g><g clip-path="url(#ab)"><path style="fill:none;stroke-width:6.25;stroke-linecap:round;stroke-linejoin:miter;stroke:#bfbfbf;stroke-opacity:1;stroke-dasharray:12.5,18.75;stroke-miterlimit:10" d="M130.018 2491.396h3400" transform="matrix(.1 0 0 -.1 386.424 274.499)"/></g><path style="fill:none;stroke-width:12.5;stroke-linecap:square;stroke-linejoin:miter;stroke:#000;stroke-opacity:1;stroke-miterlimit:10" d="M130.018 104.99h3400" transform="matrix(.1 0 0 -.1 386.424 274.499)"/><path style="fill:none;stroke-width:6.25;stroke-linecap:butt;stroke-linejoin:miter;stroke:#000;stroke-opacity:1;stroke-miterlimit:10" d="M138.963 104.99v25m67.657-25v25m67.656-25v25m67.617-25v25m67.657-25v25m67.616-25v50m67.656-50v25m67.657-25v25m67.617-25v25m67.656-25v25m67.618-25v25m67.656-25v25m67.656-25v25m67.618-25v25m67.655-25v25m67.617-25v50m67.657-50v25m67.656-25v25m67.617-25v25m67.656-25v25m67.618-25v25m67.656-25v25m67.656-25v25m67.617-25v25m67.657-25v25m67.656-25v50m67.617-50v25m67.656-25v25m67.617-25v25m67.657-25v25m67.617-25v25m67.656-25v25m67.656-25v25m67.618-25v25m67.656-25v25m67.656-25v50m67.617-50v25m67.657-25v25m67.617-25v25m67.655-25v25m67.657-25v25m67.617-25v25m67.656-25v25m67.657-25v25m67.617-25v25m67.656-25v50m67.618-50v25m67.656-25v25m67.616-25v25m67.657-25v25m67.656-25v25" transform="matrix(.1 0 0 -.1 386.424 274.499)"/><g style="fill:#000;fill-opacity:1" clip-path="url(#ac)"><use xlink:href="#p" x="427.339" y="273.999"/><use xlink:href="#q" x="429.836" y="273.999"/><use xlink:href="#r" x="434.006" y="273.999"/><use xlink:href="#s" x="436.091" y="273.999"/></g><g style="fill:#000;fill-opacity:1" clip-path="url(#ad)"><use xlink:href="#p" x="494.839" y="273.999"/><use xlink:href="#u" x="497.336" y="273.999"/><use xlink:href="#r" x="501.506" y="273.999"/><use xlink:href="#q" x="503.591" y="273.999"/></g><g style="fill:#000;fill-opacity:1" clip-path="url(#ae)"><use xlink:href="#s" x="564.212" y="273.999"/><use xlink:href="#r" x="568.382" y="273.999"/><use xlink:href="#s" x="570.467" y="273.999"/></g><g style="fill:#000;fill-opacity:1" clip-path="url(#af)"><use xlink:href="#u" x="631.712" y="273.999"/><use xlink:href="#r" x="635.882" y="273.999"/><use xlink:href="#q" x="637.967" y="273.999"/></g><g style="fill:#000;fill-opacity:1" clip-path="url(#ag)"><use xlink:href="#q" x="699.212" y="273.999"/><use xlink:href="#r" x="703.382" y="273.999"/><use xlink:href="#s" x="705.467" y="273.999"/></g><path style="fill:none;stroke-width:12.5;stroke-linecap:square;stroke-linejoin:miter;stroke:#000;stroke-opacity:1;stroke-miterlimit:10" d="M130.018 2654.99h3400" transform="matrix(.1 0 0 -.1 386.424 274.499)"/><path style="fill:none;stroke-width:6.25;stroke-linecap:butt;stroke-linejoin:miter;stroke:#000;stroke-opacity:1;stroke-miterlimit:10" d="M138.963 2654.99v-25m67.657 25v-25m67.656 25v-25m67.617 25v-25m67.657 25v-25m67.616 25v-50m67.656 50v-25m67.657 25v-25m67.617 25v-25m67.656 25v-25m67.618 25v-25m67.656 25v-25m67.656 25v-25m67.618 25v-25m67.655 25v-25m67.617 25v-50m67.657 50v-25m67.656 25v-25m67.617 25v-25m67.656 25v-25m67.618 25v-25m67.656 25v-25m67.656 25v-25m67.617 25v-25m67.657 25v-25m67.656 25v-50m67.617 50v-25m67.656 25v-25m67.617 25v-25m67.657 25v-25m67.617 25v-25m67.656 25v-25m67.656 25v-25m67.618 25v-25m67.656 25v-25m67.656 25v-50m67.617 50v-25m67.657 25v-25m67.617 25v-25m67.655 25v-25m67.657 25v-25m67.617 25v-25m67.656 25v-25m67.657 25v-25m67.617 25v-25m67.656 25v-50m67.618 50v-25m67.656 25v-25m67.616 25v-25m67.657 25v-25m67.656 25v-25" transform="matrix(.1 0 0 -.1 386.424 274.499)"/><g style="fill:#000;fill-opacity:1" clip-path="url(#ah)"><use xlink:href="#p" x="427.339" y="5.874"/><use xlink:href="#q" x="429.836" y="5.874"/><use xlink:href="#r" x="434.006" y="5.874"/><use xlink:href="#s" x="436.091" y="5.874"/></g><g style="fill:#000;fill-opacity:1" clip-path="url(#ai)"><use xlink:href="#p" x="494.839" y="5.874"/><use xlink:href="#u" x="497.336" y="5.874"/><use xlink:href="#r" x="501.506" y="5.874"/><use xlink:href="#q" x="503.591" y="5.874"/></g><g style="fill:#000;fill-opacity:1" clip-path="url(#aj)"><use xlink:href="#s" x="564.212" y="5.874"/><use xlink:href="#r" x="568.382" y="5.874"/><use xlink:href="#s" x="570.467" y="5.874"/></g><g style="fill:#000;fill-opacity:1" clip-path="url(#ak)"><use xlink:href="#u" x="631.712" y="5.874"/><use xlink:href="#r" x="635.882" y="5.874"/><use xlink:href="#q" x="637.967" y="5.874"/></g><g style="fill:#000;fill-opacity:1" clip-path="url(#al)"><use xlink:href="#q" x="699.212" y="5.874"/><use xlink:href="#r" x="703.382" y="5.874"/><use xlink:href="#s" x="705.467" y="5.874"/></g><path style="fill:none;stroke-width:12.5;stroke-linecap:square;stroke-linejoin:miter;stroke:#000;stroke-opacity:1;stroke-miterlimit:10" d="M130.018 104.99v2550" transform="matrix(.1 0 0 -.1 386.424 274.499)"/><path style="fill:none;stroke-width:6.25;stroke-linecap:butt;stroke-linejoin:miter;stroke:#000;stroke-opacity:1;stroke-miterlimit:10" d="M130.018 120.42h25m-25 37.03h25m-25 37.071h25m-25 37.032h25m-25 37.031h50m-50 37.07h25m-25 37.031h25m-25 37.071h25m-25 37.031h25m-25 37.031h25m-25 37.07h25m-25 37.032h25m-25 37.07h25m-25 37.031h25m-25 37.032h50m-50 37.07h25m-25 37.031h25m-25 37.07h25m-25 37.032h25m-25 37.031h25m-25 37.07h25m-25 37.031h25m-25 37.032h25m-25 37.07h25m-25 37.031h50m-50 37.071h25m-25 37.031h25m-25 37.07h25m-25 37.031h25m-25 37.032h25m-25 37.07h25m-25 37.031h25m-25 37.071h25m-25 37.031h25m-25 37.031h50m-50 37.07h25m-25 37.032h25m-25 37.031h25m-25 37.07h25m-25 37.031h25m-25 37.071h25m-25 37.031h25m-25 37.07h25m-25 37.032h25m-25 37.031h50m-50 37.071h25m-25 37.03h25m-25 37.032h25m-25 37.07h25m-25 37.031h25m-25 37.07h25m-25 37.032h25m-25 37.07h25m-25 37.031h25m-25 37.031h50m-50 37.071h25m-25 37.032h25m-25 37.07h25m-25 37.03h25m-25 37.032h25m-25 37.07h25m-25 37.031h25m-25 37.032h25m-25 37.07h25m-25 37.031h50m-50 37.071h25m-25 37.031h25m-25 37.07h25m-25 37.032h25" transform="matrix(.1 0 0 -.1 386.424 274.499)"/><g style="fill:#000;fill-opacity:1" clip-path="url(#am)"><use xlink:href="#p" x="385.882" y="250.874"/><use xlink:href="#E" x="388.38" y="250.874"/></g><g style="fill:#000;fill-opacity:1" clip-path="url(#an)"><use xlink:href="#p" x="385.882" y="213.999"/><use xlink:href="#u" x="388.38" y="213.999"/></g><g style="fill:#000;fill-opacity:1" clip-path="url(#ao)"><use xlink:href="#p" x="385.882" y="177.124"/><use xlink:href="#H" x="388.38" y="177.124"/></g><use xlink:href="#s" x="388.379" y="139.624" style="fill:#000;fill-opacity:1"/><use xlink:href="#H" x="388.379" y="102.749" style="fill:#000;fill-opacity:1"/><use xlink:href="#u" x="388.379" y="65.874" style="fill:#000;fill-opacity:1"/><use xlink:href="#E" x="388.379" y="28.999" style="fill:#000;fill-opacity:1"/><path style="fill:none;stroke-width:12.5;stroke-linecap:square;stroke-linejoin:miter;stroke:#000;stroke-opacity:1;stroke-miterlimit:10" d="M3530.018 104.99v2550" transform="matrix(.1 0 0 -.1 386.424 274.499)"/><path style="fill:none;stroke-width:6.25;stroke-linecap:butt;stroke-linejoin:miter;stroke:#000;stroke-opacity:1;stroke-miterlimit:10" d="M3530.018 120.42h-25m25 37.03h-25m25 37.071h-25m25 37.032h-25m25 37.031h-50m50 37.07h-25m25 37.031h-25m25 37.071h-25m25 37.031h-25m25 37.031h-25m25 37.07h-25m25 37.032h-25m25 37.07h-25m25 37.031h-25m25 37.032h-50m50 37.07h-25m25 37.031h-25m25 37.07h-25m25 37.032h-25m25 37.031h-25m25 37.07h-25m25 37.031h-25m25 37.032h-25m25 37.07h-25m25 37.031h-50m50 37.071h-25m25 37.031h-25m25 37.07h-25m25 37.031h-25m25 37.032h-25m25 37.07h-25m25 37.031h-25m25 37.071h-25m25 37.031h-25m25 37.031h-50m50 37.07h-25m25 37.032h-25m25 37.031h-25m25 37.07h-25m25 37.031h-25m25 37.071h-25m25 37.031h-25m25 37.07h-25m25 37.032h-25m25 37.031h-50m50 37.071h-25m25 37.03h-25m25 37.032h-25m25 37.07h-25m25 37.031h-25m25 37.07h-25m25 37.032h-25m25 37.07h-25m25 37.031h-25m25 37.031h-50m50 37.071h-25m25 37.032h-25m25 37.07h-25m25 37.03h-25m25 37.032h-25m25 37.07h-25m25 37.031h-25m25 37.032h-25m25 37.07h-25m25 37.031h-50m50 37.071h-25m25 37.031h-25m25 37.07h-25m25 37.032h-25" transform="matrix(.1 0 0 -.1 386.424 274.499)"/><g style="fill:#000;fill-opacity:1"><use xlink:href="#p" x="745.674" y="250.874"/><use xlink:href="#E" x="748.172" y="250.874"/></g><g style="fill:#000;fill-opacity:1" clip-path="url(#ap)"><use xlink:href="#p" x="745.674" y="213.999"/><use xlink:href="#u" x="748.172" y="213.999"/></g><g style="fill:#000;fill-opacity:1"><use xlink:href="#p" x="745.674" y="177.124"/><use xlink:href="#H" x="748.172" y="177.124"/></g><use xlink:href="#s" x="745.674" y="139.624" style="fill:#000;fill-opacity:1"/><use xlink:href="#H" x="745.674" y="102.749" style="fill:#000;fill-opacity:1"/><use xlink:href="#u" x="745.674" y="65.874" style="fill:#000;fill-opacity:1"/><use xlink:href="#E" x="745.674" y="28.999" style="fill:#000;fill-opacity:1"/><g clip-path="url(#aq)"><path style="fill:none;stroke-width:12.5;stroke-linecap:round;stroke-linejoin:round;stroke:#00008b;stroke-opacity:1;stroke-miterlimit:10" d="m130.018 1379.99 6.25.313 6.25 2.148 6.25 5.351 6.25 9.297 6.25 13.047 6.25 15.86 6.25 17.07 6.25 16.367 6.25 13.945 6.25 10.391 6.25 6.328 6.25 2.852 6.25.547 6.25.039 6.25 1.367 6.25 4.336 6.25 8.203 6.25 12.187 6.25 15.391 6.25 17.11 6.25 16.914 6.25 14.921 6.25 11.485 6.25 7.383 6.25 3.554 6.25.742 6.25-.351 6.25.547 6.25 3.203 6.25 7.07 6.25 11.29 6.25 14.921 6.25 17.227 6.25 17.578 6.25 16.015 6.25 12.696 6.25 8.515 6.25 4.258 6.25.899 6.25-.782 6.25-.43 6.25 1.915 6.25 5.742 6.25 10.312 6.25 14.454 6.25 17.421 6.25 18.399 6.25 17.265 6.25 14.18 6.25 9.766 6.25 5.039 6.25 1.055 6.25-1.407 6.25-1.601 6.25.351 6.25 4.258 6.25 9.102 6.25 13.984 6.25 17.695 6.25 19.454 6.25 18.867 6.25 15.937 6.25 11.328 6.25 6.016 6.25 1.133 6.25-2.188 6.25-3.203 6.25-1.601 6.25 2.265 6.25 7.656 6.25 13.36 6.25 18.125 6.25 20.898 6.25 21.016 6.25 18.281 6.25 13.399 6.25 7.226 6.25 1.211 6.25-3.32 6.25-5.39 6.25-4.376 6.25-.43 6.25 5.625 6.25 12.54 6.25 18.828 6.25 23.007 6.25 24.102 6.25 21.797 6.25 16.367 6.25 9.023 6.25 1.25 6.25-5.156 6.25-8.75 6.25-8.633 6.25-4.687 6.25 2.5 6.25 11.367 6.25 20 6.25 26.484 6.25 29.258 6.25 27.54 6.25 21.406 6.25 12.03 6.25 1.29 6.25-8.399 6.25-14.882 6.25-16.446 6.25-12.46 6.25-3.36 6.25 9.063 6.25 22.382 6.25 33.555 6.25 39.883 6.25 39.648 6.25 32.227 6.25 18.555 6.25 1.289 6.25-16.133 6.25-29.844 6.25-36.172 6.25-32.851 6.25-19.336 6.25 2.734 6.25 29.688 6.25 56.289 6.25 76.406 6.25 84.219 6.25 75.234 6.25 47.227 6.25.664 6.25-60.782 6.25-131.015 6.25-202.07 6.25-265.274 6.25-312.617 6.25-338.008 6.25-337.969 6.25-312.617 6.25-265.273 6.25-202.07 6.25-131.016 6.25-60.82 6.25.703 6.25 47.187 6.25 75.234 6.25 84.22 6.25 76.405 6.25 56.29 6.25 29.726 6.25 2.734 6.25-19.336 6.25-32.89 6.25-36.172 6.25-29.805 6.25-16.172 6.25 1.29 6.25 18.593 6.25 32.188 6.25 39.648 6.25 39.922 6.25 33.555 6.25 22.343 6.25 9.102 6.25-3.398 6.25-12.422 6.25-16.446 6.25-14.882 6.25-8.438 6.25 1.328 6.25 12.031 6.25 21.407 6.25 27.539 6.25 29.258 6.25 26.484 6.25 20 6.25 11.328 6.25 2.5 6.25-4.648 6.25-8.633 6.25-8.79 6.25-5.155 6.25 1.289 6.25 9.023 6.25 16.367 6.25 21.758 6.25 24.14 6.25 23.008 6.25 18.829 6.25 12.539 6.25 5.625 6.25-.43 6.25-4.375 6.25-5.39 6.25-3.36 6.25 1.21 6.25 7.267 6.25 13.359 6.25 18.32 6.25 21.016 6.25 20.898 6.25 18.125 6.25 13.36 6.25 7.656 6.25 2.265 6.25-1.601 6.25-3.203 6.25-2.188 6.25 1.133 6.25 6.016 6.25 11.328 6.25 15.937 6.25 18.868 6.25 19.453 6.25 17.695 6.25 13.984 6.25 9.102 6.25 4.219 6.25.39 6.25-1.64 6.25-1.367 6.25 1.015 6.25 5.04 6.25 9.804 6.25 14.14 6.25 17.266 6.25 18.438 6.25 17.382 6.25 14.493 6.25 10.273 6.25 5.781 6.25 1.914 6.25-.43 6.25-.78 6.25.898 6.25 4.258 6.25 8.476 6.25 12.735 6.25 16.015 6.25 17.578 6.25 17.227 6.25 14.922 6.25 11.289 6.25 7.07 6.25 3.203 6.25.508 6.25-.312 6.25.742 6.25 3.515 6.25 7.422 6.25 11.485 6.25 14.922 6.25 16.914 6.25 17.109 6.25 15.39 6.25 12.188 6.25 8.203 6.25 4.336 6.25 1.367 6.25.04 6.25.546 6.25 2.813 6.25 6.367 6.25 10.352 6.25 13.984 6.25 16.367 6.25 17.031 6.25 15.86 6.25 13.086 6.25 9.297 6.25 5.351 6.25 2.11 12.5.624 6.25 2.149 6.25 5.351 6.25 9.297 6.25 13.047 6.25 15.86 6.25 17.07 6.25 16.367 6.25 13.945 6.25 10.391 6.25 6.328 6.25 2.852 6.25.547 6.25.039 6.25 1.367 6.25 4.336 6.25 8.203 6.25 12.187 6.25 15.391 6.25 17.11 6.25 16.914 6.25 14.921 6.25 11.485 6.25 7.383 6.25 3.554 6.25.742 6.25-.351 6.25.547 6.25 3.203 6.25 7.07 6.25 11.29 6.25 14.921 6.25 17.227 6.25 17.578 6.25 16.015 6.25 12.696 6.25 8.515 6.25 4.258 6.25.899 6.25-.782 6.25-.43 6.25 1.915 6.25 5.742 6.25 10.312 6.25 14.454 6.25 17.421 6.25 18.399 6.25 17.265 6.25 14.18 6.25 9.766 6.25 5.039 6.25 1.055 6.25-1.407 6.25-1.601 6.25.351 6.25 4.258 6.25 9.102 6.25 13.984 6.25 17.695 6.25 19.454 6.25 18.867 6.25 15.937 6.25 11.328 6.25 6.016 6.25 1.133 6.25-2.188 6.25-3.203 6.25-1.601 6.25 2.265 6.25 7.656 6.25 13.36 6.25 18.125 6.25 20.898 6.25 21.016 6.25 18.281 6.25 13.399 6.25 7.226 6.25 1.211 6.25-3.32 6.25-5.39 6.25-4.376 6.25-.43 6.25 5.625 6.25 12.54 6.25 18.828 6.25 23.007 6.25 24.102 6.25 21.797 6.25 16.367 6.25 9.023 6.25 1.25 6.25-5.156 6.25-8.75 6.25-8.633 6.25-4.687 6.25 2.5 6.25 11.367 6.25 20 6.25 26.484 6.25 29.258 6.25 27.54 6.25 21.406 6.25 12.03 6.25 1.29 6.25-8.399 6.25-14.882 6.25-16.446 6.25-12.46 6.25-3.36 6.25 9.063 6.25 22.382 6.25 33.555 6.25 39.883 6.25 39.648 6.25 32.227 6.25 18.555 6.25 1.289 6.25-16.133 6.25-29.844 6.25-36.172 6.25-32.851 6.25-19.336 6.25 2.734 6.25 29.688 6.25 56.289 6.25 76.406 6.25 84.219 6.25 75.234 6.25 47.227 6.25.664 6.25-60.782 6.25-131.015 6.25-202.07 6.25-265.274 6.25-312.617 6.25-338.008 6.25-337.969 6.25-312.617 6.25-265.273 6.25-202.07 6.25-131.016 6.25-60.82 6.25.703 6.25 47.187 6.25 75.234 6.25 84.22 6.25 76.405 6.25 56.29 6.25 29.726 6.25 2.734 6.25-19.336 6.25-32.89 6.25-36.172 6.25-29.805 6.25-16.172 6.25 1.29 6.25 18.593 6.25 32.188 6.25 39.648 6.25 39.922 6.25 33.555 6.25 22.343 6.25 9.102 6.25-3.398 6.25-12.422 6.25-16.446 6.25-14.882 6.25-8.438 6.25 1.328 6.25 12.031 6.25 21.407 6.25 27.539 6.25 29.258 6.25 26.484 6.25 20 6.25 11.328 6.25 2.5 6.25-4.648 6.25-8.633 6.25-8.79 6.25-5.155 6.25 1.289 6.25 9.023 6.25 16.367 6.25 21.758 6.25 24.14 6.25 23.008 6.25 18.829 6.25 12.539 6.25 5.625 6.25-.43 6.25-4.375 6.25-5.39 6.25-3.36 6.25 1.21 6.25 7.267 6.25 13.359 6.25 18.32 6.25 21.016 6.25 20.898 6.25 18.125 6.25 13.36 6.25 7.656 6.25 2.265 6.25-1.601 6.25-3.203 6.25-2.188 6.25 1.133 6.25 6.016 6.25 11.328 6.25 15.937 6.25 18.868 6.25 19.453 6.25 17.695 6.25 13.984 6.25 9.102 6.25 4.219 6.25.39 6.25-1.64 6.25-1.367 6.25 1.015 6.25 5.04 6.25 9.804 6.25 14.14 6.25 17.266 6.25 18.438 6.25 17.382 6.25 14.493 6.25 10.273 6.25 5.781 6.25 1.914 6.25-.43 6.25-.78 6.25.898 6.25 4.258 6.25 8.476 6.25 12.735 6.25 16.015 6.25 17.578 6.25 17.227 6.25 14.922 6.25 11.289 6.25 7.07 6.25 3.203 6.25.508 6.25-.312 6.25.742 6.25 3.515 6.25 7.422 6.25 11.485 6.25 14.922 6.25 16.914 6.25 17.109 6.25 15.39 6.25 12.188 6.25 8.203 6.25 4.336 6.25 1.367 6.25.04 6.25.546 6.25 2.813 6.25 6.367 6.25 10.352 6.25 13.984 6.25 16.367 6.25 17.031 6.25 15.86 6.25 13.086 6.25 9.297 6.25 5.351 6.25 2.11 6.25.312" transform="matrix(.1 0 0 -.1 386.424 274.499)"/></g><g clip-path="url(#ar)"><path style="fill:none;stroke-width:12.5;stroke-linecap:round;stroke-linejoin:round;stroke:#006400;stroke-opacity:1;stroke-miterlimit:10" d="m130.018 1379.99 850 1163.867" transform="matrix(.1 0 0 -.1 386.424 274.499)"/></g><path style="fill:none;stroke-width:12.5;stroke-linecap:round;stroke-linejoin:round;stroke:#006400;stroke-opacity:1;stroke-miterlimit:10" d="m980.018 216.123 1700 2327.734" transform="matrix(.1 0 0 -.1 386.424 274.499)"/><g clip-path="url(#as)"><path style="fill:none;stroke-width:12.5;stroke-linecap:round;stroke-linejoin:round;stroke:#006400;stroke-opacity:1;stroke-miterlimit:10" d="m2680.018 216.123 850 1163.867" transform="matrix(.1 0 0 -.1 386.424 274.499)"/></g></svg>