<svg xmlns="http://www.w3.org/2000/svg" xmlns:xlink="http://www.w3.org/1999/xlink" width="383pt" height="275pt" viewBox="0 0 383 275"><defs><clipPath id="a"><path d="M57 9.5h2v255h-2zm0 0"/></clipPath><clipPath id="b"><path d="M108 9.5h2v255h-2zm0 0"/></clipPath><clipPath id="c"><path d="M159 9.5h1v255h-1zm0 0"/></clipPath><clipPath id="d"><path d="M209 9.5h2v255h-2zm0 0"/></clipPath><clipPath id="e"><path d="M260 9.5h2v255h-2zm0 0"/></clipPath><clipPath id="f"><path d="M311 9.5h1v255h-1zm0 0"/></clipPath><clipPath id="g"><path d="M361 9.5h1v255h-1zm0 0"/></clipPath><clipPath id="h"><path d="M22 236h340v2H22zm0 0"/></clipPath><clipPath id="i"><path d="M22 172h340v2H22zm0 0"/></clipPath><clipPath id="j"><path d="M22 109h340v1H22zm0 0"/></clipPath><clipPath id="k"><path d="M22 45h340v1H22zm0 0"/></clipPath><clipPath id="s"><path d="M22 65h317v199.5H22zm0 0"/></clipPath><clipPath id="t"><path d="M22 136h319v2H22zm0 0"/></clipPath><symbol overflow="visible" id="l"><path style="stroke:none" d="M1.938-3.781V0h.671v-5.313h-.437c-.235.813-.39.922-1.406 1.047v.485zm0 0"/></symbol><symbol overflow="visible" id="m"><path style="stroke:none" d="M1.438-.781H.655V0h.781zm0 0"/></symbol><symbol overflow="visible" id="n"><path style="stroke:none" d="M3.906-5.313H.344v.641h2.875C1.953-2.859 1.438-1.75 1.03 0h.703c.297-1.703.97-3.172 2.172-4.766zm0 0"/></symbol><symbol overflow="visible" id="o"><path style="stroke:none" d="M3.563-5.313H.828L.422-2.421h.61c.312-.375.562-.5.984-.5.703 0 1.156.485 1.156 1.281 0 .766-.438 1.235-1.156 1.235-.579 0-.938-.297-1.094-.906H.266c.093.437.156.656.312.843.313.406.844.64 1.453.64 1.063 0 1.813-.78 1.813-1.905 0-1.047-.688-1.766-1.719-1.766-.375 0-.672.094-.984.313l.218-1.485h2.204zm0 0"/></symbol><symbol overflow="visible" id="p"><path style="stroke:none" d="M3.797-.656H1c.063-.438.313-.703.953-1.094l.75-.406c.75-.406 1.125-.953 1.125-1.594 0-.453-.172-.86-.484-1.14-.328-.298-.719-.423-1.219-.423-.672 0-1.172.235-1.469.688-.187.281-.265.61-.281 1.156h.656c.032-.36.078-.578.157-.75.171-.328.515-.515.921-.515.594 0 1.047.421 1.047.984 0 .422-.25.781-.719 1.063l-.687.39C.64-1.672.312-1.172.25 0h3.547zm0 0"/></symbol><symbol overflow="visible" id="q"><path style="stroke:none" d="M2.063-5.313c-.5 0-.938.22-1.22.579C.5-4.266.329-3.563.329-2.578c0 1.797.594 2.75 1.734 2.75 1.126 0 1.735-.953 1.735-2.703 0-1.031-.156-1.719-.516-2.203-.281-.375-.719-.579-1.219-.579zm0 .579c.718 0 1.062.718 1.062 2.14 0 1.516-.344 2.219-1.078 2.219C1.344-.375 1-1.109 1-2.563c0-1.453.344-2.171 1.063-2.171zm0 0"/></symbol><symbol overflow="visible" id="r"><path style="stroke:none" d="M1.656-2.438h.36c.734 0 1.109.329 1.109.954 0 .671-.422 1.078-1.11 1.078-.718 0-1.078-.36-1.109-1.14H.234c.032.421.11.702.235.952.281.5.797.766 1.531.766 1.094 0 1.797-.656 1.797-1.656 0-.672-.266-1.047-.906-1.266.5-.203.75-.578.75-1.11 0-.906-.61-1.453-1.625-1.453-1.079 0-1.641.579-1.657 1.72h.657c0-.329.03-.516.109-.673.156-.296.484-.468.906-.468.578 0 .938.343.938.906 0 .375-.14.594-.438.719-.172.078-.406.109-.875.109zm0 0"/></symbol></defs><g clip-path="url(#a)"><path style="fill:none;stroke-width:6.25;stroke-linecap:round;stroke-linejoin:miter;stroke:#bfbfbf;stroke-opacity:1;stroke-dasharray:12.5,18.75;stroke-miterlimit:10" d="M582.852 105v2550" transform="matrix(.1 0 0 -.1 0 275)"/></g><g clip-path="url(#b)"><path style="fill:none;stroke-width:6.25;stroke-linecap:round;stroke-linejoin:miter;stroke:#bfbfbf;stroke-opacity:1;stroke-dasharray:12.5,18.75;stroke-miterlimit:10" d="M1089.023 105v2550" transform="matrix(.1 0 0 -.1 0 275)"/></g><g clip-path="url(#c)"><path style="fill:none;stroke-width:6.25;stroke-linecap:round;stroke-linejoin:miter;stroke:#bfbfbf;stroke-opacity:1;stroke-dasharray:12.5,18.75;stroke-miterlimit:10" d="M1595.234 105v2550" transform="matrix(.1 0 0 -.1 0 275)"/></g><g clip-path="url(#d)"><path style="fill:none;stroke-width:6.25;stroke-linecap:round;stroke-linejoin:miter;stroke:#bfbfbf;stroke-opacity:1;stroke-dasharray:12.5,18.75;stroke-miterlimit:10" d="M2101.406 105v2550" transform="matrix(.1 0 0 -.1 0 275)"/></g><g clip-path="url(#e)"><path style="fill:none;stroke-width:6.25;stroke-linecap:round;stroke-linejoin:miter;stroke:#bfbfbf;stroke-opacity:1;stroke-dasharray:12.5,18.75;stroke-miterlimit:10" d="M2607.617 105v2550" transform="matrix(.1 0 0 -.1 0 275)"/></g><g clip-path="url(#f)"><path style="fill:none;stroke-width:6.25;stroke-linecap:round;stroke-linejoin:miter;stroke:#bfbfbf;stroke-opacity:1;stroke-dasharray:12.5,18.75;stroke-miterlimit:10" d="M3113.79 105v2550" transform="matrix(.1 0 0 -.1 0 275)"/></g><g clip-path="url(#g)"><path style="fill:none;stroke-width:6.25;stroke-linecap:round;stroke-linejoin:miter;stroke:#bfbfbf;stroke-opacity:1;stroke-dasharray:12.5,18.75;stroke-miterlimit:10" d="M3620 105v2550" transform="matrix(.1 0 0 -.1 0 275)"/></g><g clip-path="url(#h)"><path style="fill:none;stroke-width:6.25;stroke-linecap:round;stroke-linejoin:miter;stroke:#bfbfbf;stroke-opacity:1;stroke-dasharray:12.5,18.75;stroke-miterlimit:10" d="M220 381.445h3400" transform="matrix(.1 0 0 -.1 0 275)"/></g><g clip-path="url(#i)"><path style="fill:none;stroke-width:6.25;stroke-linecap:round;stroke-linejoin:miter;stroke:#bfbfbf;stroke-opacity:1;stroke-dasharray:12.5,18.75;stroke-miterlimit:10" d="M220 1018.945h3400" transform="matrix(.1 0 0 -.1 0 275)"/></g><g clip-path="url(#j)"><path style="fill:none;stroke-width:6.25;stroke-linecap:round;stroke-linejoin:miter;stroke:#bfbfbf;stroke-opacity:1;stroke-dasharray:12.5,18.75;stroke-miterlimit:10" d="M220 1656.445h3400" transform="matrix(.1 0 0 -.1 0 275)"/></g><g clip-path="url(#k)"><path style="fill:none;stroke-width:6.25;stroke-linecap:round;stroke-linejoin:miter;stroke:#bfbfbf;stroke-opacity:1;stroke-dasharray:12.5,18.75;stroke-miterlimit:10" d="M220 2293.945h3400" transform="matrix(.1 0 0 -.1 0 275)"/></g><path style="fill:none;stroke-width:12.5;stroke-linecap:square;stroke-linejoin:miter;stroke:#000;stroke-opacity:1;stroke-miterlimit:10" d="M220 105h3400" transform="matrix(.1 0 0 -.1 0 275)"/><path style="fill:none;stroke-width:6.25;stroke-linecap:butt;stroke-linejoin:miter;stroke:#000;stroke-opacity:1;stroke-miterlimit:10" d="M228.516 105v25m50.624-25v25m50.587-25v25m50.625-25v25m50.625-25v25m50.625-25v25m50.625-25v25m50.625-25v50m50.625-50v25m50.625-25v25m50.586-25v25m50.625-25v25m50.625-25v25m50.625-25v25m50.625-25v25m50.625-25v25m50.625-25v25m50.585-25v50m50.625-50v25m50.625-25v25m50.625-25v25m50.625-25v25m50.625-25v25m50.586-25v25m50.664-25v25m50.586-25v25m50.626-25v25m50.624-25v50m50.626-50v25m50.585-25v25m50.665-25v25m50.585-25v25m50.625-25v25m50.625-25v25m50.625-25v25m50.625-25v25m50.586-25v25m50.625-25v50m50.625-50v25m50.625-25v25m50.625-25v25m50.625-25v25m50.625-25v25m50.625-25v25m50.586-25v25m50.625-25v25m50.625-25v25m50.625-25v50m50.625-50v25m50.625-25v25m50.586-25v25m50.625-25v25m50.625-25v25m50.625-25v25m50.625-25v25m50.625-25v25m50.625-25v25m50.587-25v50m50.624-50v25m50.626-25v25m50.624-25v25m50.626-25v25m50.624-25v25m50.626-25v25m50.585-25v25m50.625-25v25m50.625-25v25M3620 105v50" transform="matrix(.1 0 0 -.1 0 275)"/><g style="fill:#000;fill-opacity:1"><use xlink:href="#l" x="50.953" y="274.5"/><use xlink:href="#m" x="55.123" y="274.5"/><use xlink:href="#n" x="57.208" y="274.5"/><use xlink:href="#o" x="61.378" y="274.5"/></g><g style="fill:#000;fill-opacity:1"><use xlink:href="#p" x="101.578" y="274.5"/><use xlink:href="#m" x="105.748" y="274.5"/><use xlink:href="#q" x="107.833" y="274.5"/><use xlink:href="#q" x="112.003" y="274.5"/></g><g style="fill:#000;fill-opacity:1"><use xlink:href="#p" x="152.203" y="274.5"/><use xlink:href="#m" x="156.373" y="274.5"/><use xlink:href="#p" x="158.458" y="274.5"/><use xlink:href="#o" x="162.628" y="274.5"/></g><g style="fill:#000;fill-opacity:1"><use xlink:href="#p" x="202.828" y="274.5"/><use xlink:href="#m" x="206.998" y="274.5"/><use xlink:href="#o" x="209.083" y="274.5"/><use xlink:href="#q" x="213.253" y="274.5"/></g><g style="fill:#000;fill-opacity:1"><use xlink:href="#p" x="253.453" y="274.5"/><use xlink:href="#m" x="257.623" y="274.5"/><use xlink:href="#n" x="259.708" y="274.5"/><use xlink:href="#o" x="263.878" y="274.5"/></g><g style="fill:#000;fill-opacity:1"><use xlink:href="#r" x="304.078" y="274.5"/><use xlink:href="#m" x="308.248" y="274.5"/><use xlink:href="#q" x="310.333" y="274.5"/><use xlink:href="#q" x="314.503" y="274.5"/></g><g style="fill:#000;fill-opacity:1"><use xlink:href="#r" x="354.703" y="274.5"/><use xlink:href="#m" x="358.873" y="274.5"/><use xlink:href="#p" x="360.958" y="274.5"/><use xlink:href="#o" x="365.128" y="274.5"/></g><path style="fill:none;stroke-width:12.5;stroke-linecap:square;stroke-linejoin:miter;stroke:#000;stroke-opacity:1;stroke-miterlimit:10" d="M220 2655h3400" transform="matrix(.1 0 0 -.1 0 275)"/><path style="fill:none;stroke-width:6.25;stroke-linecap:butt;stroke-linejoin:miter;stroke:#000;stroke-opacity:1;stroke-miterlimit:10" d="M228.516 2655v-25m50.624 25v-25m50.587 25v-25m50.625 25v-25m50.625 25v-25m50.625 25v-25m50.625 25v-25m50.625 25v-50m50.625 50v-25m50.625 25v-25m50.586 25v-25m50.625 25v-25m50.625 25v-25m50.625 25v-25m50.625 25v-25m50.625 25v-25m50.625 25v-25m50.585 25v-50m50.625 50v-25m50.625 25v-25m50.625 25v-25m50.625 25v-25m50.625 25v-25m50.586 25v-25m50.664 25v-25m50.586 25v-25m50.626 25v-25m50.624 25v-50m50.626 50v-25m50.585 25v-25m50.665 25v-25m50.585 25v-25m50.625 25v-25m50.625 25v-25m50.625 25v-25m50.625 25v-25m50.586 25v-25m50.625 25v-50m50.625 50v-25m50.625 25v-25m50.625 25v-25m50.625 25v-25m50.625 25v-25m50.625 25v-25m50.586 25v-25m50.625 25v-25m50.625 25v-25m50.625 25v-50m50.625 50v-25m50.625 25v-25m50.586 25v-25m50.625 25v-25m50.625 25v-25m50.625 25v-25m50.625 25v-25m50.625 25v-25m50.625 25v-25m50.587 25v-50m50.624 50v-25m50.626 25v-25m50.624 25v-25m50.626 25v-25m50.624 25v-25m50.626 25v-25m50.585 25v-25m50.625 25v-25m50.625 25v-25m50.625 25v-50" transform="matrix(.1 0 0 -.1 0 275)"/><g style="fill:#000;fill-opacity:1"><use xlink:href="#l" x="50.953" y="6.375"/><use xlink:href="#m" x="55.123" y="6.375"/><use xlink:href="#n" x="57.208" y="6.375"/><use xlink:href="#o" x="61.378" y="6.375"/></g><g style="fill:#000;fill-opacity:1"><use xlink:href="#p" x="101.578" y="6.375"/><use xlink:href="#m" x="105.748" y="6.375"/><use xlink:href="#q" x="107.833" y="6.375"/><use xlink:href="#q" x="112.003" y="6.375"/></g><g style="fill:#000;fill-opacity:1"><use xlink:href="#p" x="152.203" y="6.375"/><use xlink:href="#m" x="156.373" y="6.375"/><use xlink:href="#p" x="158.458" y="6.375"/><use xlink:href="#o" x="162.628" y="6.375"/></g><g style="fill:#000;fill-opacity:1"><use xlink:href="#p" x="202.828" y="6.375"/><use xlink:href="#m" x="206.998" y="6.375"/><use xlink:href="#o" x="209.083" y="6.375"/><use xlink:href="#q" x="213.253" y="6.375"/></g><g style="fill:#000;fill-opacity:1"><use xlink:href="#p" x="253.453" y="6.375"/><use xlink:href="#m" x="257.623" y="6.375"/><use xlink:href="#n" x="259.708" y="6.375"/><use xlink:href="#o" x="263.878" y="6.375"/></g><g style="fill:#000;fill-opacity:1"><use xlink:href="#r" x="304.078" y="6.375"/><use xlink:href="#m" x="308.248" y="6.375"/><use xlink:href="#q" x="310.333" y="6.375"/><use xlink:href="#q" x="314.503" y="6.375"/></g><g style="fill:#000;fill-opacity:1"><use xlink:href="#r" x="354.703" y="6.375"/><use xlink:href="#m" x="358.873" y="6.375"/><use xlink:href="#p" x="360.958" y="6.375"/><use xlink:href="#o" x="365.128" y="6.375"/></g><path style="fill:none;stroke-width:12.5;stroke-linecap:square;stroke-linejoin:miter;stroke:#000;stroke-opacity:1;stroke-miterlimit:10" d="M220 105v2550" transform="matrix(.1 0 0 -.1 0 275)"/><path style="fill:none;stroke-width:6.25;stroke-linecap:butt;stroke-linejoin:miter;stroke:#000;stroke-opacity:1;stroke-miterlimit:10" d="M220 126.445h25m-25 63.75h25m-25 63.75h25m-25 63.75h25m-25 63.75h50m-50 63.75h25m-25 63.75h25m-25 63.75h25m-25 63.75h25m-25 63.75h25m-25 63.75h25m-25 63.75h25m-25 63.75h25m-25 63.75h25m-25 63.75h50m-50 63.75h25m-25 63.75h25m-25 63.75h25m-25 63.75h25m-25 63.75h25m-25 63.75h25m-25 63.75h25m-25 63.75h25m-25 63.75h25m-25 63.75h50m-50 63.75h25m-25 63.75h25m-25 63.75h25m-25 63.75h25m-25 63.75h25m-25 63.75h25m-25 63.75h25m-25 63.75h25m-25 63.75h25m-25 63.75h50m-50 63.75h25m-25 63.75h25m-25 63.75h25m-25 63.75h25m-25 63.75h25" transform="matrix(.1 0 0 -.1 0 275)"/><g style="fill:#000;fill-opacity:1"><use xlink:href="#p" x=".531" y="240.125"/><use xlink:href="#m" x="4.701" y="240.125"/><use xlink:href="#n" x="6.786" y="240.125"/><use xlink:href="#o" x="10.956" y="240.125"/></g><g style="fill:#000;fill-opacity:1"><use xlink:href="#r" x=".531" y="176.375"/><use xlink:href="#m" x="4.701" y="176.375"/><use xlink:href="#q" x="6.786" y="176.375"/><use xlink:href="#q" x="10.956" y="176.375"/></g><g style="fill:#000;fill-opacity:1"><use xlink:href="#r" x=".531" y="112.625"/><use xlink:href="#m" x="4.701" y="112.625"/><use xlink:href="#p" x="6.786" y="112.625"/><use xlink:href="#o" x="10.956" y="112.625"/></g><g style="fill:#000;fill-opacity:1"><use xlink:href="#r" x=".531" y="48.875"/><use xlink:href="#m" x="4.701" y="48.875"/><use xlink:href="#o" x="6.786" y="48.875"/><use xlink:href="#q" x="10.956" y="48.875"/></g><path style="fill:none;stroke-width:12.5;stroke-linecap:square;stroke-linejoin:miter;stroke:#000;stroke-opacity:1;stroke-miterlimit:10" d="M3620 105v2550" transform="matrix(.1 0 0 -.1 0 275)"/><path style="fill:none;stroke-width:6.25;stroke-linecap:butt;stroke-linejoin:miter;stroke:#000;stroke-opacity:1;stroke-miterlimit:10" d="M3620 126.445h-25m25 63.75h-25m25 63.75h-25m25 63.75h-25m25 63.75h-50m50 63.75h-25m25 63.75h-25m25 63.75h-25m25 63.75h-25m25 63.75h-25m25 63.75h-25m25 63.75h-25m25 63.75h-25m25 63.75h-25m25 63.75h-50m50 63.75h-25m25 63.75h-25m25 63.75h-25m25 63.75h-25m25 63.75h-25m25 63.75h-25m25 63.75h-25m25 63.75h-25m25 63.75h-25m25 63.75h-50m50 63.75h-25m25 63.75h-25m25 63.75h-25m25 63.75h-25m25 63.75h-25m25 63.75h-25m25 63.75h-25m25 63.75h-25m25 63.75h-25m25 63.75h-50m50 63.75h-25m25 63.75h-25m25 63.75h-25m25 63.75h-25m25 63.75h-25" transform="matrix(.1 0 0 -.1 0 275)"/><g style="fill:#000;fill-opacity:1"><use xlink:href="#p" x="368.25" y="240.125"/><use xlink:href="#m" x="372.42" y="240.125"/><use xlink:href="#n" x="374.505" y="240.125"/><use xlink:href="#o" x="378.675" y="240.125"/></g><g style="fill:#000;fill-opacity:1"><use xlink:href="#r" x="368.25" y="176.375"/><use xlink:href="#m" x="372.42" y="176.375"/><use xlink:href="#q" x="374.505" y="176.375"/><use xlink:href="#q" x="378.675" y="176.375"/></g><g style="fill:#000;fill-opacity:1"><use xlink:href="#r" x="368.25" y="112.625"/><use xlink:href="#m" x="372.42" y="112.625"/><use xlink:href="#p" x="374.505" y="112.625"/><use xlink:href="#o" x="378.675" y="112.625"/></g><g style="fill:#000;fill-opacity:1"><use xlink:href="#r" x="368.25" y="48.875"/><use xlink:href="#m" x="372.42" y="48.875"/><use xlink:href="#o" x="374.505" y="48.875"/><use xlink:href="#q" x="378.675" y="48.875"/></g><g clip-path="url(#s)"><path style="fill:none;stroke-width:12.5;stroke-linecap:round;stroke-linejoin:round;stroke:#00008b;stroke-opacity:1;stroke-miterlimit:10" d="m220 1354.492 6.25 1.211 6.25 3.516 6.25 5.468 6.25 6.915 6.25 7.695 6.25 7.773 6.25 7.149 6.25 5.742 6.25 3.906 6.25 1.602 6.25-.782 6.25-3.124 6.25-5.118 6.25-6.718 6.25-7.618 6.25-7.851 6.25-7.305 6.25-6.055 6.25-4.257 6.25-2.032 6.25.352 6.25 2.734 6.25 4.805 6.25 6.484 6.25 7.54 6.25 7.851 6.25 7.46 6.25 6.33 6.25 4.648 6.25 2.46 6.25.079 6.25-2.305 6.25-4.531 6.25-6.25 6.25-7.422 6.25-7.852 6.25-7.617 6.25-6.602 6.25-4.96 6.25-2.891 6.25-.508 6.25 1.914 6.25 4.14 6.25 5.977 6.25 7.305 6.25 7.89 6.25 7.735 6.25 6.836 6.25 5.351 6.25 3.282 6.25.937 6.25-1.484 6.25-3.79 6.25-5.702 6.25-7.149 6.25-7.89 6.25-7.852 6.25-7.11 6.25-5.663 6.25-3.711 6.25-1.368 6.25 1.055 6.25 3.438 6.25 5.43 6.25 6.992 6.25 7.851 6.25 7.969 6.25 7.305 6.25 6.015 6.25 4.102 6.25 1.836 6.25-.625 6.25-3.047 6.25-5.156 6.25-6.836 6.25-7.774 6.25-8.047 6.25-7.539 6.25-6.367 6.25-4.492 6.25-2.266 6.25.196 6.25 2.656 6.25 4.844 6.25 6.601 6.25 7.735 6.25 8.124 6.25 7.774 6.25 6.64 6.25 4.922 6.25 2.696 6.25.273 6.25-2.265 6.25-4.532 6.25-6.406 6.25-7.617 6.25-8.203 6.25-7.969 6.25-6.953 6.25-5.313 6.25-3.164 6.25-.703 6.25 1.836 6.25 4.219 6.25 6.133 6.25 7.578 6.25 8.203 6.25 8.125 6.25 7.266 6.25 5.742 6.25 3.593 6.25 1.172 6.25-1.406 6.25-3.828 6.25-5.938 6.25-7.421 6.25-8.243 6.25-8.32 6.25-7.578 6.25-6.094 6.25-4.062 6.25-1.602 6.25.938 6.25 3.476 6.25 5.625 6.25 7.305 6.25 8.281 6.25 8.477 6.25 7.812 6.25 6.524 6.25 4.492 6.25 2.11 6.25-.509 6.25-3.085 6.25-5.352 6.25-7.149 6.25-8.28 6.25-8.594 6.25-8.126 6.25-6.835 6.25-5 6.25-2.579 6.25.04 6.25 2.656 6.25 5.078 6.25 6.953 6.25 8.242 6.25 8.75 6.25 8.399 6.25 7.226 6.25 5.43 6.25 3.086 6.25.469 6.25-2.266 6.25-4.727 6.25-6.796 6.25-8.204 6.25-8.828 6.25-8.672 6.25-7.617 6.25-5.898 6.25-3.594 6.25-.938 6.25 1.797 6.25 4.414 6.25 6.563 6.25 8.164 12.5 17.813 6.25 8.007 6.25 6.368 6.25 4.101 6.25 1.445 6.25-1.328 6.25-4.023 6.25-6.367 6.25-8.047 6.25-9.024 6.25-9.14 6.25-8.399 6.25-6.797 6.25-4.648 6.25-1.992 6.25.898 6.25 3.633 6.25 6.094 6.25 7.968 6.25 9.102 6.25 9.336 6.25 8.75 6.25 7.305 6.25 5.156 6.25 2.539 6.25-.39 6.25-3.204 6.25-5.82 6.25-7.852 6.25-9.14 6.25-9.57 6.25-9.141 6.25-7.774 6.25-5.703 6.25-3.086 6.25-.156 6.25 2.813 6.25 5.507 6.25 7.696 6.25 9.18 6.25 9.804 6.25 9.453 6.25 8.281 6.25 6.25 6.25 3.672 6.25.703 6.25-2.343 6.25-5.157 6.25-7.539 6.25-9.218 6.25-10 6.25-9.805 6.25-8.79 6.25-6.835 6.25-4.258 6.25-1.289 6.25 1.875 6.25 4.805 6.25 7.383 6.25 9.18 6.25 10.156 6.25 10.234 6.25 9.219 6.25 7.46 6.25 4.883 6.25 1.875 6.25-1.328 6.25-4.453 6.25-7.148 6.25-9.18 6.25-10.352 6.25-10.546 6.25-9.766 6.25-8.047 6.25-5.508 6.25-2.5 6.25.782 6.25 4.023 6.25 6.914 6.25 9.102 6.25 10.546 6.25 10.899 6.25 10.273 6.25 8.633 6.25 6.25 6.25 3.125 6.25-.195 6.25-3.555 6.25-6.64 6.25-9.063 6.25-10.664 6.25-11.29 6.25-10.78 6.25-9.297 6.25-6.914 6.25-3.868 6.25-.43 6.25 3.087 6.25 6.328 6.25 9.023 6.25 10.782 6.25 11.64 6.25 11.328 6.25 9.961 6.25 7.657 6.25 4.57 6.25 1.094 6.25-2.579 6.25-5.976 6.25-8.867 6.25-10.938 6.25-11.992 6.25-11.875 6.25-10.664 6.25-8.399 6.25-5.39 6.25-1.758 6.25 1.992 6.25 5.586 6.25 8.75 6.25 11.055 6.25 12.305 6.25 12.46 6.25 11.368 6.25 9.257 6.25 6.172 6.25 2.579 6.25-1.407 6.25-5.195 6.25-8.555 6.25-11.172 6.25-12.656 6.25-13.047 6.25-12.148 6.25-10.078 6.25-7.07 6.25-3.36 6.25.703 6.25 4.727 6.25 8.36 6.25 11.25 6.25 13.046 6.25 13.633 6.25 12.93 6.25 11.015 6.25 8.008 6.25 4.258h6.25l6.25-4.22 6.25-8.124 6.25-11.29 6.25-13.398 6.25-14.296 6.25-13.75 6.25-11.993 6.25-9.062 6.25-5.195 6.25-.82 6.25 3.671 6.25 7.852 6.25 11.328 6.25 13.789 6.25 14.922 6.25 14.687 6.25 13.047 6.25 10.117 6.25 6.25 6.25 1.72 6.25-3.048 6.25-7.539 6.25-11.367 6.25-14.14 6.25-15.665 6.25-15.625 6.25-14.14 6.25-11.329 6.25-7.382 6.25-2.696 6.25 2.305 6.25 7.188 6.25 11.367 6.25 14.531 6.25 16.406 6.25 16.68 6.25 15.39 6.25 12.618 6.25 8.633 6.25 3.789 6.25-1.524 6.25-6.719 6.25-11.367 6.25-14.96 6.25-17.188 6.25-17.813 6.25-16.718 6.25-14.102 6.25-10.04 6.25-4.96 6.25.586 6.25 6.21 6.25 11.329 6.25 15.39 6.25 18.047 6.25 19.063 6.25 18.242 6.25 15.703 6.25 11.602 6.25 6.328 6.25.43 6.25-5.586 6.25-11.25 6.25-15.86 6.25-19.023 6.25-20.43 6.25-19.922 6.25-17.5 6.25-13.398 6.25-7.93 6.25-1.64 6.25 4.96 6.25 11.094 6.25 16.368 6.25 20.078 6.25 21.992 6.25 21.836 6.25 19.61 6.25 15.429 6.25 9.726 6.25 3.047 6.25-4.101 6.25-10.977 6.25-16.875 6.25-21.328 6.25-23.79 6.25-24.023 6.25-22.03 6.25-17.813 6.25-11.875 6.25-4.649 6.25 3.086 6.25 10.782 6.25 17.5 6.25 22.695 6.25 25.898 6.25 26.602 6.25 24.844 6.25 20.664 6.25 14.414 6.25 6.64 6.25-1.875 6.25-10.468 6.25-18.204 6.25-24.414 6.25-28.359 6.25-29.727 6.25-28.28 6.25-24.102 6.25-17.5 6.25-9.102 6.25.43 6.25 10.078 6.25 19.062 6.25 26.407 6.25 31.406 6.25 33.555 6.25 32.539 6.25 28.398 6.25 21.367 6.25 12.149 6.25 1.523 6.25-9.61 6.25-20.077 6.25-28.946 6.25-35.273 6.25-38.438 6.25-38.007 6.25-33.907 6.25-26.406 6.25-16.133 6.25-4.023 6.25 8.906 6.25 21.406 6.25 32.266 6.25 40.39 6.25 44.922 6.25 45.313 6.25 41.328 6.25 33.242 6.25 21.602 6.25 7.5 6.25-7.93 6.25-23.203 6.25-36.875 6.25-47.54 6.25-54.062 6.25-55.703 6.25-51.953 6.25-43.086 6.25-29.57 6.25-12.617 6.25 6.445 6.25 25.86 6.25 43.75 6.25 58.32 6.25 68.086 6.25 71.757 6.25 68.594 6.25 58.672 6.25 42.383 6.25 20.898 6.25-4.023 6.25-30.234 6.25-55.352 6.25-76.797 6.25-92.46 6.25-100.157 6.25-98.672 6.25-87.344 6.25-66.367 6.25-36.836 6.25-.82 6.25 39.062 6.25 79.336 6.25 116.328 6.25 146.211 6.25 165.157 6.25 170.078 6.25 158.476 6.25 128.75 6.25 80.547 6.25 14.688 6.25-66.797 6.25-160.664 6.25-262.813 6.25-368.32 6.25-471.758 6.25-567.812 6.25-651.172" transform="matrix(.1 0 0 -.1 0 275)"/></g><g clip-path="url(#t)"><path style="fill:none;stroke-width:12.5;stroke-linecap:round;stroke-linejoin:round;stroke:#006400;stroke-opacity:1;stroke-miterlimit:10" d="M-2960.508 1380h6361.016" transform="matrix(.1 0 0 -.1 0 275)"/></g></svg>