<svg xmlns="http://www.w3.org/2000/svg" xmlns:xlink="http://www.w3.org/1999/xlink" width="488" height="274pt" viewBox="0 0 366 274"><defs><clipPath id="a"><path d="M182 8.5h2v255h-2zm0 0"/></clipPath><clipPath id="b"><path d="M13 135h340v2H13zm0 0"/></clipPath><clipPath id="c"><path d="M47 8.5h2v255h-2zm0 0"/></clipPath><clipPath id="d"><path d="M115 8.5h1v255h-1zm0 0"/></clipPath><clipPath id="e"><path d="M182 8.5h2v255h-2zm0 0"/></clipPath><clipPath id="f"><path d="M250 8.5h1v255h-1zm0 0"/></clipPath><clipPath id="g"><path d="M317 8.5h2v255h-2zm0 0"/></clipPath><clipPath id="h"><path d="M13 246h340v2H13zm0 0"/></clipPath><clipPath id="i"><path d="M13 209h340v2H13zm0 0"/></clipPath><clipPath id="j"><path d="M13 172h340v2H13zm0 0"/></clipPath><clipPath id="k"><path d="M13 135h340v2H13zm0 0"/></clipPath><clipPath id="l"><path d="M13 98h340v2H13zm0 0"/></clipPath><clipPath id="m"><path d="M13 61h340v2H13zm0 0"/></clipPath><clipPath id="n"><path d="M13 24h340v2H13zm0 0"/></clipPath><clipPath id="v"><path d="M13 8.5h103V154H13zm0 0"/></clipPath><clipPath id="w"><path d="M80 8.5h206v255H80zm0 0"/></clipPath><clipPath id="x"><path d="M250 118h103v145.5H250zm0 0"/></clipPath><symbol overflow="visible" id="o"><path style="stroke:none" d="M2.125-2.344H.344v.547h1.781zm0 0"/></symbol><symbol overflow="visible" id="p"><path style="stroke:none" d="M3.563-5.313H.828L.422-2.421h.61c.312-.375.562-.5.984-.5.703 0 1.156.485 1.156 1.281 0 .766-.438 1.235-1.156 1.235-.579 0-.938-.297-1.094-.906H.266c.093.437.156.656.312.843.313.406.844.64 1.453.64 1.063 0 1.813-.78 1.813-1.905 0-1.047-.688-1.766-1.719-1.766-.375 0-.672.094-.984.313l.218-1.485h2.204zm0 0"/></symbol><symbol overflow="visible" id="q"><path style="stroke:none" d="M1.438-.781H.655V0h.781zm0 0"/></symbol><symbol overflow="visible" id="r"><path style="stroke:none" d="M2.063-5.313c-.5 0-.938.22-1.22.579C.5-4.266.329-3.563.329-2.578c0 1.797.594 2.75 1.734 2.75 1.126 0 1.735-.953 1.735-2.703 0-1.031-.156-1.719-.516-2.203-.281-.375-.719-.579-1.219-.579zm0 .579c.718 0 1.062.718 1.062 2.14 0 1.516-.344 2.219-1.078 2.219C1.344-.375 1-1.109 1-2.563c0-1.453.344-2.171 1.063-2.171zm0 0"/></symbol><symbol overflow="visible" id="s"><path style="stroke:none" d="M3.797-.656H1c.063-.438.313-.703.953-1.094l.75-.406c.75-.406 1.125-.953 1.125-1.594 0-.453-.172-.86-.484-1.14-.328-.298-.719-.423-1.219-.423-.672 0-1.172.235-1.469.688-.187.281-.265.61-.281 1.156h.656c.032-.36.078-.578.157-.75.171-.328.515-.515.921-.515.594 0 1.047.421 1.047.984 0 .422-.25.781-.719 1.063l-.687.39C.64-1.672.312-1.172.25 0h3.547zm0 0"/></symbol><symbol overflow="visible" id="t"><path style="stroke:none" d="M1.656-2.438h.36c.734 0 1.109.329 1.109.954 0 .671-.422 1.078-1.11 1.078-.718 0-1.078-.36-1.109-1.14H.234c.032.421.11.702.235.952.281.5.797.766 1.531.766 1.094 0 1.797-.656 1.797-1.656 0-.672-.266-1.047-.906-1.266.5-.203.75-.578.75-1.11 0-.906-.61-1.453-1.625-1.453-1.079 0-1.641.579-1.657 1.72h.657c0-.329.03-.516.109-.673.156-.296.484-.468.906-.468.578 0 .938.343.938.906 0 .375-.14.594-.438.719-.172.078-.406.109-.875.109zm0 0"/></symbol><symbol overflow="visible" id="u"><path style="stroke:none" d="M1.938-3.781V0h.671v-5.313h-.437c-.235.813-.39.922-1.406 1.047v.485zm0 0"/></symbol></defs><g clip-path="url(#a)"><path style="fill:none;stroke-width:6.25;stroke-linecap:round;stroke-linejoin:miter;stroke:#bfbfbf;stroke-opacity:1;stroke-miterlimit:10" d="M1830 105v2550" transform="matrix(.1 0 0 -.1 0 274)"/></g><g clip-path="url(#b)"><path style="fill:none;stroke-width:6.25;stroke-linecap:round;stroke-linejoin:miter;stroke:#bfbfbf;stroke-opacity:1;stroke-miterlimit:10" d="M130 1380h3400" transform="matrix(.1 0 0 -.1 0 274)"/></g><g clip-path="url(#c)"><path style="fill:none;stroke-width:6.25;stroke-linecap:round;stroke-linejoin:miter;stroke:#bfbfbf;stroke-opacity:1;stroke-dasharray:12.5,18.75;stroke-miterlimit:10" d="M477.188 105v2550" transform="matrix(.1 0 0 -.1 0 274)"/></g><g clip-path="url(#d)"><path style="fill:none;stroke-width:6.25;stroke-linecap:round;stroke-linejoin:miter;stroke:#bfbfbf;stroke-opacity:1;stroke-dasharray:12.5,18.75;stroke-miterlimit:10" d="M1153.594 105v2550" transform="matrix(.1 0 0 -.1 0 274)"/></g><g clip-path="url(#e)"><path style="fill:none;stroke-width:6.25;stroke-linecap:round;stroke-linejoin:miter;stroke:#bfbfbf;stroke-opacity:1;stroke-dasharray:12.5,18.75;stroke-miterlimit:10" d="M1830 105v2550" transform="matrix(.1 0 0 -.1 0 274)"/></g><g clip-path="url(#f)"><path style="fill:none;stroke-width:6.25;stroke-linecap:round;stroke-linejoin:miter;stroke:#bfbfbf;stroke-opacity:1;stroke-dasharray:12.5,18.75;stroke-miterlimit:10" d="M2506.406 105v2550" transform="matrix(.1 0 0 -.1 0 274)"/></g><g clip-path="url(#g)"><path style="fill:none;stroke-width:6.25;stroke-linecap:round;stroke-linejoin:miter;stroke:#bfbfbf;stroke-opacity:1;stroke-dasharray:12.5,18.75;stroke-miterlimit:10" d="M3182.813 105v2550" transform="matrix(.1 0 0 -.1 0 274)"/></g><g clip-path="url(#h)"><path style="fill:none;stroke-width:6.25;stroke-linecap:round;stroke-linejoin:miter;stroke:#bfbfbf;stroke-opacity:1;stroke-dasharray:12.5,18.75;stroke-miterlimit:10" d="M130 268.594h3400" transform="matrix(.1 0 0 -.1 0 274)"/></g><g clip-path="url(#i)"><path style="fill:none;stroke-width:6.25;stroke-linecap:round;stroke-linejoin:miter;stroke:#bfbfbf;stroke-opacity:1;stroke-dasharray:12.5,18.75;stroke-miterlimit:10" d="M130 639.063h3400" transform="matrix(.1 0 0 -.1 0 274)"/></g><g clip-path="url(#j)"><path style="fill:none;stroke-width:6.25;stroke-linecap:round;stroke-linejoin:miter;stroke:#bfbfbf;stroke-opacity:1;stroke-dasharray:12.5,18.75;stroke-miterlimit:10" d="M130 1009.531h3400" transform="matrix(.1 0 0 -.1 0 274)"/></g><g clip-path="url(#k)"><path style="fill:none;stroke-width:6.25;stroke-linecap:round;stroke-linejoin:miter;stroke:#bfbfbf;stroke-opacity:1;stroke-dasharray:12.5,18.75;stroke-miterlimit:10" d="M130 1380h3400" transform="matrix(.1 0 0 -.1 0 274)"/></g><g clip-path="url(#l)"><path style="fill:none;stroke-width:6.25;stroke-linecap:round;stroke-linejoin:miter;stroke:#bfbfbf;stroke-opacity:1;stroke-dasharray:12.5,18.75;stroke-miterlimit:10" d="M130 1750.469h3400" transform="matrix(.1 0 0 -.1 0 274)"/></g><g clip-path="url(#m)"><path style="fill:none;stroke-width:6.25;stroke-linecap:round;stroke-linejoin:miter;stroke:#bfbfbf;stroke-opacity:1;stroke-dasharray:12.5,18.75;stroke-miterlimit:10" d="M130 2120.938h3400" transform="matrix(.1 0 0 -.1 0 274)"/></g><g clip-path="url(#n)"><path style="fill:none;stroke-width:6.25;stroke-linecap:round;stroke-linejoin:miter;stroke:#bfbfbf;stroke-opacity:1;stroke-dasharray:12.5,18.75;stroke-miterlimit:10" d="M130 2491.406h3400" transform="matrix(.1 0 0 -.1 0 274)"/></g><path style="fill:none;stroke-width:12.5;stroke-linecap:square;stroke-linejoin:miter;stroke:#000;stroke-opacity:1;stroke-miterlimit:10" d="M130 105h3400" transform="matrix(.1 0 0 -.1 0 274)"/><path style="fill:none;stroke-width:6.25;stroke-linecap:butt;stroke-linejoin:miter;stroke:#000;stroke-opacity:1;stroke-miterlimit:10" d="M138.984 105v25m67.618-25v25m67.656-25v25m67.656-25v25m67.617-25v25m67.657-25v50m67.617-50v25m67.655-25v25m67.657-25v25m67.617-25v25m67.656-25v25m67.618-25v25m67.656-25v25m67.656-25v25m67.618-25v25m67.656-25v50m67.616-50v25m67.657-25v25m67.656-25v25m67.617-25v25m67.657-25v25m67.617-25v25m67.656-25v25m67.657-25v25m67.617-25v25M1830 105v50m67.656-50v25m67.617-25v25m67.657-25v25m67.617-25v25m67.656-25v25m67.657-25v25m67.617-25v25m67.656-25v25m67.657-25v25m67.616-25v50m67.657-50v25m67.617-25v25m67.656-25v25m67.617-25v25m67.657-25v25m67.656-25v25m67.617-25v25m67.657-25v25m67.616-25v25m67.657-25v50m67.656-50v25m67.617-25v25m67.656-25v25m67.656-25v25m67.618-25v25" transform="matrix(.1 0 0 -.1 0 274)"/><g style="fill:#000;fill-opacity:1"><use xlink:href="#o" x="40.914" y="273.5"/><use xlink:href="#p" x="43.412" y="273.5"/><use xlink:href="#q" x="47.582" y="273.5"/><use xlink:href="#r" x="49.667" y="273.5"/></g><g style="fill:#000;fill-opacity:1"><use xlink:href="#o" x="108.415" y="273.5"/><use xlink:href="#s" x="110.912" y="273.5"/><use xlink:href="#q" x="115.082" y="273.5"/><use xlink:href="#p" x="117.167" y="273.5"/></g><g style="fill:#000;fill-opacity:1"><use xlink:href="#r" x="177.788" y="273.5"/><use xlink:href="#q" x="181.958" y="273.5"/><use xlink:href="#r" x="184.043" y="273.5"/></g><g style="fill:#000;fill-opacity:1"><use xlink:href="#s" x="245.288" y="273.5"/><use xlink:href="#q" x="249.458" y="273.5"/><use xlink:href="#p" x="251.543" y="273.5"/></g><g style="fill:#000;fill-opacity:1"><use xlink:href="#p" x="312.788" y="273.5"/><use xlink:href="#q" x="316.958" y="273.5"/><use xlink:href="#r" x="319.043" y="273.5"/></g><path style="fill:none;stroke-width:12.5;stroke-linecap:square;stroke-linejoin:miter;stroke:#000;stroke-opacity:1;stroke-miterlimit:10" d="M130 2655h3400" transform="matrix(.1 0 0 -.1 0 274)"/><path style="fill:none;stroke-width:6.25;stroke-linecap:butt;stroke-linejoin:miter;stroke:#000;stroke-opacity:1;stroke-miterlimit:10" d="M138.984 2655v-25m67.618 25v-25m67.656 25v-25m67.656 25v-25m67.617 25v-25m67.657 25v-50m67.617 50v-25m67.655 25v-25m67.657 25v-25m67.617 25v-25m67.656 25v-25m67.618 25v-25m67.656 25v-25m67.656 25v-25m67.618 25v-25m67.656 25v-50m67.616 50v-25m67.657 25v-25m67.656 25v-25m67.617 25v-25m67.657 25v-25m67.617 25v-25m67.656 25v-25m67.657 25v-25m67.617 25v-25m67.656 25v-50m67.656 50v-25m67.617 25v-25m67.657 25v-25m67.617 25v-25m67.656 25v-25m67.657 25v-25m67.617 25v-25m67.656 25v-25m67.657 25v-25m67.616 25v-50m67.657 50v-25m67.617 25v-25m67.656 25v-25m67.617 25v-25m67.657 25v-25m67.656 25v-25m67.617 25v-25m67.657 25v-25m67.616 25v-25m67.657 25v-50m67.656 50v-25m67.617 25v-25m67.656 25v-25m67.656 25v-25m67.618 25v-25" transform="matrix(.1 0 0 -.1 0 274)"/><g style="fill:#000;fill-opacity:1"><use xlink:href="#o" x="40.914" y="5.375"/><use xlink:href="#p" x="43.412" y="5.375"/><use xlink:href="#q" x="47.582" y="5.375"/><use xlink:href="#r" x="49.667" y="5.375"/></g><g style="fill:#000;fill-opacity:1"><use xlink:href="#o" x="108.415" y="5.375"/><use xlink:href="#s" x="110.912" y="5.375"/><use xlink:href="#q" x="115.082" y="5.375"/><use xlink:href="#p" x="117.167" y="5.375"/></g><g style="fill:#000;fill-opacity:1"><use xlink:href="#r" x="177.788" y="5.375"/><use xlink:href="#q" x="181.958" y="5.375"/><use xlink:href="#r" x="184.043" y="5.375"/></g><g style="fill:#000;fill-opacity:1"><use xlink:href="#s" x="245.288" y="5.375"/><use xlink:href="#q" x="249.458" y="5.375"/><use xlink:href="#p" x="251.543" y="5.375"/></g><g style="fill:#000;fill-opacity:1"><use xlink:href="#p" x="312.788" y="5.375"/><use xlink:href="#q" x="316.958" y="5.375"/><use xlink:href="#r" x="319.043" y="5.375"/></g><path style="fill:none;stroke-width:12.5;stroke-linecap:square;stroke-linejoin:miter;stroke:#000;stroke-opacity:1;stroke-miterlimit:10" d="M130 105v2550" transform="matrix(.1 0 0 -.1 0 274)"/><path style="fill:none;stroke-width:6.25;stroke-linecap:butt;stroke-linejoin:miter;stroke:#000;stroke-opacity:1;stroke-miterlimit:10" d="M130 120.39h25m-25 37.07h25m-25 37.032h25m-25 37.071h25m-25 37.031h50m-50 37.07h25m-25 37.031h25m-25 37.032h25m-25 37.07h25m-25 37.031h25m-25 37.032h25m-25 37.07h25m-25 37.03h25m-25 37.071h25m-25 37.032h50m-50 37.031h25m-25 37.07h25m-25 37.031h25m-25 37.071h25m-25 37.031h25m-25 37.07h25m-25 37.031h25m-25 37.032h25m-25 37.07h25m-25 37.031h50m-50 37.032h25m-25 37.07h25m-25 37.031h25m-25 37.07h25m-25 37.032h25m-25 37.07h25m-25 37.031h25m-25 37.031h25m-25 37.071h25M130 1380h50m-50 37.031h25m-25 37.071h25m-25 37.031h25m-25 37.07h25m-25 37.031h25m-25 37.071h25m-25 37.031h25m-25 37.031h25m-25 37.071h25m-25 37.031h50m-50 37.071h25m-25 37.03h25m-25 37.032h25m-25 37.07h25m-25 37.031h25m-25 37.031h25m-25 37.071h25m-25 37.031h25m-25 37.07h25m-25 37.032h50m-50 37.031h25m-25 37.071h25m-25 37.03h25m-25 37.032h25m-25 37.07h25m-25 37.031h25m-25 37.07h25m-25 37.032h25m-25 37.07h25m-25 37.031h50m-50 37.032h25m-25 37.07h25m-25 37.032h25m-25 37.07h25" transform="matrix(.1 0 0 -.1 0 274)"/><g style="fill:#000;fill-opacity:1"><use xlink:href="#o" x="-.542" y="250.375"/><use xlink:href="#t" x="1.956" y="250.375"/></g><g style="fill:#000;fill-opacity:1"><use xlink:href="#o" x="-.542" y="213.5"/><use xlink:href="#s" x="1.956" y="213.5"/></g><g style="fill:#000;fill-opacity:1"><use xlink:href="#o" x="-.542" y="176.625"/><use xlink:href="#u" x="1.956" y="176.625"/></g><use xlink:href="#r" x="1.955" y="139.125" style="fill:#000;fill-opacity:1"/><use xlink:href="#u" x="1.955" y="102.25" style="fill:#000;fill-opacity:1"/><use xlink:href="#s" x="1.955" y="65.375" style="fill:#000;fill-opacity:1"/><use xlink:href="#t" x="1.955" y="28.5" style="fill:#000;fill-opacity:1"/><path style="fill:none;stroke-width:12.5;stroke-linecap:square;stroke-linejoin:miter;stroke:#000;stroke-opacity:1;stroke-miterlimit:10" d="M3530 105v2550" transform="matrix(.1 0 0 -.1 0 274)"/><path style="fill:none;stroke-width:6.25;stroke-linecap:butt;stroke-linejoin:miter;stroke:#000;stroke-opacity:1;stroke-miterlimit:10" d="M3530 120.39h-25m25 37.07h-25m25 37.032h-25m25 37.071h-25m25 37.031h-50m50 37.07h-25m25 37.031h-25m25 37.032h-25m25 37.07h-25m25 37.031h-25m25 37.032h-25m25 37.07h-25m25 37.03h-25m25 37.071h-25m25 37.032h-50m50 37.031h-25m25 37.07h-25m25 37.031h-25m25 37.071h-25m25 37.031h-25m25 37.07h-25m25 37.031h-25m25 37.032h-25m25 37.07h-25m25 37.031h-50m50 37.032h-25m25 37.07h-25m25 37.031h-25m25 37.07h-25m25 37.032h-25m25 37.07h-25m25 37.031h-25m25 37.031h-25m25 37.071h-25m25 37.031h-50m50 37.031h-25m25 37.071h-25m25 37.031h-25m25 37.07h-25m25 37.031h-25m25 37.071h-25m25 37.031h-25m25 37.031h-25m25 37.071h-25m25 37.031h-50m50 37.071h-25m25 37.03h-25m25 37.032h-25m25 37.07h-25m25 37.031h-25m25 37.031h-25m25 37.071h-25m25 37.031h-25m25 37.07h-25m25 37.032h-50m50 37.031h-25m25 37.071h-25m25 37.03h-25m25 37.032h-25m25 37.07h-25m25 37.031h-25m25 37.07h-25m25 37.032h-25m25 37.07h-25m25 37.031h-50m50 37.032h-25m25 37.07h-25m25 37.032h-25m25 37.07h-25" transform="matrix(.1 0 0 -.1 0 274)"/><g style="fill:#000;fill-opacity:1"><use xlink:href="#o" x="359.25" y="250.375"/><use xlink:href="#t" x="361.748" y="250.375"/></g><g style="fill:#000;fill-opacity:1"><use xlink:href="#o" x="359.25" y="213.5"/><use xlink:href="#s" x="361.748" y="213.5"/></g><g style="fill:#000;fill-opacity:1"><use xlink:href="#o" x="359.25" y="176.625"/><use xlink:href="#u" x="361.748" y="176.625"/></g><use xlink:href="#r" x="359.25" y="139.125" style="fill:#000;fill-opacity:1"/><use xlink:href="#u" x="359.25" y="102.25" style="fill:#000;fill-opacity:1"/><use xlink:href="#s" x="359.25" y="65.375" style="fill:#000;fill-opacity:1"/><use xlink:href="#t" x="359.25" y="28.5" style="fill:#000;fill-opacity:1"/><g clip-path="url(#v)"><path style="fill:none;stroke-width:12.5;stroke-linecap:round;stroke-linejoin:miter;stroke:#006400;stroke-opacity:1;stroke-miterlimit:10" d="m130 1380 850 1163.867" transform="matrix(.1 0 0 -.1 0 274)"/></g><g clip-path="url(#w)"><path style="fill:none;stroke-width:12.5;stroke-linecap:round;stroke-linejoin:miter;stroke:#006400;stroke-opacity:1;stroke-miterlimit:10" d="m980 216.133 1700 2327.734" transform="matrix(.1 0 0 -.1 0 274)"/></g><g clip-path="url(#x)"><path style="fill:none;stroke-width:12.5;stroke-linecap:round;stroke-linejoin:miter;stroke:#006400;stroke-opacity:1;stroke-miterlimit:10" d="M2680 216.133 3530 1380" transform="matrix(.1 0 0 -.1 0 274)"/></g></svg>