<svg xmlns="http://www.w3.org/2000/svg" xmlns:xlink="http://www.w3.org/1999/xlink" width="998.565" height="347.999" viewBox="0 0 748.924 260.999"><defs><clipPath id="a"><path d="M22.5 8.16h.5v242.25h-.5zm0 0"/></clipPath><clipPath id="b"><path d="M22.5 129h320v1h-320zm0 0"/></clipPath><clipPath id="c"><path d="M22.5 8.16h.5v242.25h-.5zm0 0"/></clipPath><clipPath id="d"><path d="M102 8.16h1v242.25h-1zm0 0"/></clipPath><clipPath id="e"><path d="M182 8.16h1v242.25h-1zm0 0"/></clipPath><clipPath id="f"><path d="M262 8.16h1v242.25h-1zm0 0"/></clipPath><clipPath id="g"><path d="M342 8.16h.5v242.25h-.5zm0 0"/></clipPath><clipPath id="h"><path d="M22.5 239h320v1h-320zm0 0"/></clipPath><clipPath id="i"><path d="M22.5 184h320v1h-320zm0 0"/></clipPath><clipPath id="j"><path d="M22.5 129h320v1h-320zm0 0"/></clipPath><clipPath id="k"><path d="M22.5 73h320v2h-320zm0 0"/></clipPath><clipPath id="l"><path d="M22.5 18h320v2h-320zm0 0"/></clipPath><clipPath id="r"><path d="M18 .5h9V7h-9zm0 0"/></clipPath><clipPath id="s"><path d="M98 .5h9V7h-9zm0 0"/></clipPath><clipPath id="t"><path d="M178 .5h9V7h-9zm0 0"/></clipPath><clipPath id="u"><path d="M257 .5h10V7h-10zm0 0"/></clipPath><clipPath id="v"><path d="M337 .5h10V7h-10zm0 0"/></clipPath><clipPath id="x"><path d="M22.5 18h320v112h-320zm0 0"/></clipPath><clipPath id="y"><path d="M406.426 8.16H407v242.25h-.574zm0 0"/></clipPath><clipPath id="z"><path d="M406.426 129h320v1h-320zm0 0"/></clipPath><clipPath id="A"><path d="M406.426 8.16H407v242.25h-.574zm0 0"/></clipPath><clipPath id="B"><path d="M486 8.16h1v242.25h-1zm0 0"/></clipPath><clipPath id="C"><path d="M566 8.16h1v242.25h-1zm0 0"/></clipPath><clipPath id="D"><path d="M646 8.16h1v242.25h-1zm0 0"/></clipPath><clipPath id="E"><path d="M726 8.16h.426v242.25H726zm0 0"/></clipPath><clipPath id="F"><path d="M406.426 239h320v1h-320zm0 0"/></clipPath><clipPath id="G"><path d="M406.426 184h320v1h-320zm0 0"/></clipPath><clipPath id="H"><path d="M406.426 129h320v1h-320zm0 0"/></clipPath><clipPath id="I"><path d="M406.426 73h320v2h-320zm0 0"/></clipPath><clipPath id="J"><path d="M406.426 18h320v2h-320zm0 0"/></clipPath><clipPath id="K"><path d="M401 .5h10V7h-10zm0 0"/></clipPath><clipPath id="L"><path d="M481 .5h10V7h-10zm0 0"/></clipPath><clipPath id="M"><path d="M562 .5h9V7h-9zm0 0"/></clipPath><clipPath id="N"><path d="M641 .5h10V7h-10zm0 0"/></clipPath><clipPath id="O"><path d="M721 .5h10V7h-10zm0 0"/></clipPath><clipPath id="P"><path d="M406.426 62h320v68h-320zm0 0"/></clipPath><symbol overflow="visible" id="m"><path style="stroke:none" d="M1.89-4.953c-.452 0-.874.203-1.124.547-.313.437-.47 1.093-.47 2.015C.297-.719.845.156 1.892.156c1.03 0 1.593-.875 1.593-2.515 0-.954-.156-1.594-.484-2.047a1.355 1.355 0 0 0-1.11-.547zm0 .531c.641 0 .97.672.97 2.016C2.86-1 2.546-.344 1.874-.344c-.64 0-.969-.687-.969-2.047 0-1.359.328-2.03.985-2.03zm0 0"/></symbol><symbol overflow="visible" id="n"><path style="stroke:none" d="M1.313-.719h-.72V0h.72zm0 0"/></symbol><symbol overflow="visible" id="o"><path style="stroke:none" d="M3.266-4.86H.75L.39-2.202h.563c.281-.344.516-.453.89-.453.657 0 1.063.437 1.063 1.156 0 .703-.406 1.125-1.062 1.125-.532 0-.86-.266-1-.813h-.61c.094.391.157.579.297.766.281.36.766.578 1.328.578.97 0 1.657-.703 1.657-1.734 0-.953-.641-1.625-1.563-1.625-.344 0-.625.094-.906.297l.187-1.344h2.032zm0 0"/></symbol><symbol overflow="visible" id="p"><path style="stroke:none" d="M1.781-3.531V0h.594v-4.953h-.39c-.22.766-.36.875-1.282.984v.438zm0 0"/></symbol><symbol overflow="visible" id="q"><path style="stroke:none" d="M3.469-.594H.906c.063-.406.281-.672.89-1.031l.673-.39C3.156-2.392 3.5-2.892 3.5-3.5c0-.422-.156-.797-.453-1.063-.281-.265-.64-.39-1.094-.39-.625 0-1.078.219-1.344.64-.171.266-.25.579-.265 1.079h.61c.015-.344.062-.532.14-.704a.922.922 0 0 1 .828-.484c.547 0 .969.39.969.938 0 .39-.235.734-.657.984l-.64.36C.578-1.548.28-1.095.234 0H3.47zm0 0"/></symbol><symbol overflow="visible" id="w"><path style="stroke:none" d="M1.953-2.14H.313v.5h1.64zm0 0"/></symbol></defs><path style="stroke:none;fill-rule:nonzero;fill:#fff;fill-opacity:1" d="M22.5 250.41h320V8.16h-320zm0 0"/><g clip-path="url(#a)"><path style="fill:none;stroke-width:5.70714;stroke-linecap:round;stroke-linejoin:miter;stroke:#bfbfbf;stroke-opacity:1;stroke-miterlimit:10" d="M399.5-211.153V-2636.69" transform="matrix(.10013 0 0 .09987 -17.5 271.499)"/></g><g clip-path="url(#b)"><path style="fill:none;stroke-width:5.70714;stroke-linecap:round;stroke-linejoin:miter;stroke:#bfbfbf;stroke-opacity:1;stroke-miterlimit:10" d="M399.5-1423.921h3196.006" transform="matrix(.10013 0 0 .09987 -17.5 271.499)"/></g><g clip-path="url(#c)"><path style="fill:none;stroke-width:5.70714;stroke-linecap:round;stroke-linejoin:miter;stroke:#bfbfbf;stroke-opacity:1;stroke-dasharray:11.4143,17.1214;stroke-miterlimit:10" d="M399.5-211.153V-2636.69" transform="matrix(.10013 0 0 .09987 -17.5 271.499)"/></g><g clip-path="url(#d)"><path style="fill:none;stroke-width:5.70714;stroke-linecap:round;stroke-linejoin:miter;stroke:#bfbfbf;stroke-opacity:1;stroke-dasharray:11.4143,17.1214;stroke-miterlimit:10" d="M1198.502-211.153V-2636.69" transform="matrix(.10013 0 0 .09987 -17.5 271.499)"/></g><g clip-path="url(#e)"><path style="fill:none;stroke-width:5.70714;stroke-linecap:round;stroke-linejoin:miter;stroke:#bfbfbf;stroke-opacity:1;stroke-dasharray:11.4143,17.1214;stroke-miterlimit:10" d="M1997.503-211.153V-2636.69" transform="matrix(.10013 0 0 .09987 -17.5 271.499)"/></g><g clip-path="url(#f)"><path style="fill:none;stroke-width:5.70714;stroke-linecap:round;stroke-linejoin:miter;stroke:#bfbfbf;stroke-opacity:1;stroke-dasharray:11.4143,17.1214;stroke-miterlimit:10" d="M2796.504-211.153V-2636.69" transform="matrix(.10013 0 0 .09987 -17.5 271.499)"/></g><g clip-path="url(#g)"><path style="fill:none;stroke-width:5.70714;stroke-linecap:round;stroke-linejoin:miter;stroke:#bfbfbf;stroke-opacity:1;stroke-dasharray:11.4143,17.1214;stroke-miterlimit:10" d="M3595.506-211.153V-2636.69" transform="matrix(.10013 0 0 .09987 -17.5 271.499)"/></g><g clip-path="url(#h)"><path style="fill:none;stroke-width:5.70714;stroke-linecap:round;stroke-linejoin:miter;stroke:#bfbfbf;stroke-opacity:1;stroke-dasharray:11.4143,17.1214;stroke-miterlimit:10" d="M399.5-321.408h3196.006" transform="matrix(.10013 0 0 .09987 -17.5 271.499)"/></g><g clip-path="url(#i)"><path style="fill:none;stroke-width:5.70714;stroke-linecap:round;stroke-linejoin:miter;stroke:#bfbfbf;stroke-opacity:1;stroke-dasharray:11.4143,17.1214;stroke-miterlimit:10" d="M399.5-872.684h3196.006" transform="matrix(.10013 0 0 .09987 -17.5 271.499)"/></g><g clip-path="url(#j)"><path style="fill:none;stroke-width:5.70714;stroke-linecap:round;stroke-linejoin:miter;stroke:#bfbfbf;stroke-opacity:1;stroke-dasharray:11.4143,17.1214;stroke-miterlimit:10" d="M399.5-1423.921h3196.006" transform="matrix(.10013 0 0 .09987 -17.5 271.499)"/></g><g clip-path="url(#k)"><path style="fill:none;stroke-width:5.70714;stroke-linecap:round;stroke-linejoin:miter;stroke:#bfbfbf;stroke-opacity:1;stroke-dasharray:11.4143,17.1214;stroke-miterlimit:10" d="M399.5-1975.197h3196.006" transform="matrix(.10013 0 0 .09987 -17.5 271.499)"/></g><g clip-path="url(#l)"><path style="fill:none;stroke-width:5.70714;stroke-linecap:round;stroke-linejoin:miter;stroke:#bfbfbf;stroke-opacity:1;stroke-dasharray:11.4143,17.1214;stroke-miterlimit:10" d="M399.5-2526.434h3196.006" transform="matrix(.10013 0 0 .09987 -17.5 271.499)"/></g><path style="fill:none;stroke-width:11.4143;stroke-linecap:square;stroke-linejoin:miter;stroke:#000;stroke-opacity:1;stroke-miterlimit:10" d="M399.5-211.153h3196.006" transform="matrix(.10013 0 0 .09987 -17.5 271.499)"/><path style="fill:none;stroke-width:5.70714;stroke-linecap:butt;stroke-linejoin:miter;stroke:#000;stroke-opacity:1;stroke-miterlimit:10" d="M399.5-211.153v-45.682m0 45.682v-22.84m79.9 22.84v-22.84m79.9 22.84v-22.84m79.901 22.84v-22.84m79.9 22.84v-22.84m79.9 22.84v-22.84m79.9 22.84v-22.84m79.9 22.84v-22.84m79.901 22.84v-22.84m159.8 22.84v-45.682m0 45.682v-22.84m79.9 22.84v-22.84m79.9 22.84v-22.84m79.9 22.84v-22.84m79.9 22.84v-22.84m79.9 22.84v-22.84m79.901 22.84v-22.84m79.9 22.84v-22.84m79.9 22.84v-22.84m159.8 22.84v-45.682m0 45.682v-22.84m79.9 22.84v-22.84m79.9 22.84v-22.84m79.9 22.84v-22.84m79.901 22.84v-22.84m79.9 22.84v-22.84m79.9 22.84v-22.84m79.9 22.84v-22.84m79.9 22.84v-22.84m159.8 22.84v-45.682m0 45.682v-22.84m79.9 22.84v-22.84m79.901 22.84v-22.84m79.9 22.84v-22.84m79.9 22.84v-22.84m79.9 22.84v-22.84m79.9 22.84v-22.84m79.9 22.84v-22.84m79.9 22.84v-22.84m159.801 22.84v-45.682m0 45.682v-22.84" transform="matrix(.10013 0 0 .09987 -17.5 271.499)"/><g style="fill:#000;fill-opacity:1"><use xlink:href="#m" x="17.734" y="259.529"/><use xlink:href="#n" x="21.547" y="259.529"/><use xlink:href="#m" x="23.453" y="259.529"/></g><g style="fill:#000;fill-opacity:1"><use xlink:href="#m" x="97.735" y="259.529"/><use xlink:href="#n" x="101.548" y="259.529"/><use xlink:href="#o" x="103.454" y="259.529"/></g><g style="fill:#000;fill-opacity:1"><use xlink:href="#p" x="177.735" y="259.529"/><use xlink:href="#n" x="181.548" y="259.529"/><use xlink:href="#m" x="183.454" y="259.529"/></g><g style="fill:#000;fill-opacity:1"><use xlink:href="#p" x="257.165" y="259.529"/><use xlink:href="#n" x="260.977" y="259.529"/><use xlink:href="#o" x="262.884" y="259.529"/></g><g style="fill:#000;fill-opacity:1"><use xlink:href="#q" x="337.737" y="259.529"/><use xlink:href="#n" x="341.549" y="259.529"/><use xlink:href="#m" x="343.455" y="259.529"/></g><path style="fill:none;stroke-width:11.4143;stroke-linecap:square;stroke-linejoin:miter;stroke:#000;stroke-opacity:1;stroke-miterlimit:10" d="M399.5-2636.69h3196.006" transform="matrix(.10013 0 0 .09987 -17.5 271.499)"/><path style="fill:none;stroke-width:5.70714;stroke-linecap:butt;stroke-linejoin:miter;stroke:#000;stroke-opacity:1;stroke-miterlimit:10" d="M399.5-2636.69v45.644m0-45.644v22.802m79.9-22.802v22.802m79.9-22.802v22.802m79.901-22.802v22.802m79.9-22.802v22.802m79.9-22.802v22.802m79.9-22.802v22.802m79.9-22.802v22.802m79.901-22.802v22.802m159.8-22.802v45.644m0-45.644v22.802m79.9-22.802v22.802m79.9-22.802v22.802m79.9-22.802v22.802m79.9-22.802v22.802m79.9-22.802v22.802m79.901-22.802v22.802m79.9-22.802v22.802m79.9-22.802v22.802m159.8-22.802v45.644m0-45.644v22.802m79.9-22.802v22.802m79.9-22.802v22.802m79.9-22.802v22.802m79.901-22.802v22.802m79.9-22.802v22.802m79.9-22.802v22.802m79.9-22.802v22.802m79.9-22.802v22.802m159.8-22.802v45.644m0-45.644v22.802m79.9-22.802v22.802m79.901-22.802v22.802m79.9-22.802v22.802m79.9-22.802v22.802m79.9-22.802v22.802m79.9-22.802v22.802m79.9-22.802v22.802m79.9-22.802v22.802m159.801-22.802v45.644m0-45.644v22.802" transform="matrix(.10013 0 0 .09987 -17.5 271.499)"/><g style="fill:#000;fill-opacity:1" clip-path="url(#r)"><use xlink:href="#m" x="17.734" y="5.879"/><use xlink:href="#n" x="21.547" y="5.879"/><use xlink:href="#m" x="23.453" y="5.879"/></g><g style="fill:#000;fill-opacity:1" clip-path="url(#s)"><use xlink:href="#m" x="97.735" y="5.879"/><use xlink:href="#n" x="101.548" y="5.879"/><use xlink:href="#o" x="103.454" y="5.879"/></g><g style="fill:#000;fill-opacity:1" clip-path="url(#t)"><use xlink:href="#p" x="177.735" y="5.879"/><use xlink:href="#n" x="181.548" y="5.879"/><use xlink:href="#m" x="183.454" y="5.879"/></g><g style="fill:#000;fill-opacity:1" clip-path="url(#u)"><use xlink:href="#p" x="257.165" y="5.879"/><use xlink:href="#n" x="260.977" y="5.879"/><use xlink:href="#o" x="262.884" y="5.879"/></g><g style="fill:#000;fill-opacity:1" clip-path="url(#v)"><use xlink:href="#q" x="337.737" y="5.879"/><use xlink:href="#n" x="341.549" y="5.879"/><use xlink:href="#m" x="343.455" y="5.879"/></g><path style="fill:none;stroke-width:11.4143;stroke-linecap:square;stroke-linejoin:miter;stroke:#000;stroke-opacity:1;stroke-miterlimit:10" d="M399.5-211.153V-2636.69" transform="matrix(.10013 0 0 .09987 -17.5 271.499)"/><path style="fill:none;stroke-width:5.70714;stroke-linecap:butt;stroke-linejoin:miter;stroke:#000;stroke-opacity:1;stroke-miterlimit:10" d="M399.5-321.408h45.647m-45.647 0h22.824M399.5-376.555h22.824M399.5-431.663h22.824M399.5-486.81h22.824M399.5-541.918h22.824M399.5-597.066h22.824M399.5-652.174h22.824M399.5-707.282h22.824M399.5-762.429h22.824M399.5-872.684h45.647m-45.647 0h22.824M399.5-927.792h22.824M399.5-982.94h22.824m-22.824-55.107h22.824m-22.824-55.148h22.824m-22.824-55.108h22.824M399.5-1203.41h22.824m-22.824-55.148h22.824m-22.824-55.108h22.824M399.5-1423.921h22.824m-22.824 0h45.647m-45.647-55.147h22.824m-22.824-55.108h22.824m-22.824-55.148h22.824m-22.824-55.108h22.824m-22.824-55.147h22.824m-22.824-55.108h22.824m-22.824-55.147h22.824m-22.824-55.108h22.824M399.5-1975.197h22.824m-22.824 0h45.647m-45.647-55.108h22.824m-22.824-55.148h22.824M399.5-2140.56h22.824m-22.824-55.148h22.824m-22.824-55.108h22.824m-22.824-55.147h22.824m-22.824-55.108h22.824m-22.824-55.147h22.824M399.5-2526.434h45.647m-45.647 0h22.824m-22.824-55.148h22.824M399.5-2636.69h22.824" transform="matrix(.10013 0 0 .09987 -17.5 271.499)"/><g style="fill:#000;fill-opacity:1"><use xlink:href="#w" x="1.159" y="242.429"/><use xlink:href="#m" x="3.442" y="242.429"/><use xlink:href="#n" x="7.255" y="242.429"/><use xlink:href="#p" x="9.161" y="242.429"/><use xlink:href="#m" x="12.974" y="242.429"/></g><g style="fill:#000;fill-opacity:1"><use xlink:href="#w" x="1.159" y="187.709"/><use xlink:href="#m" x="3.442" y="187.709"/><use xlink:href="#n" x="7.255" y="187.709"/><use xlink:href="#m" x="9.161" y="187.709"/><use xlink:href="#o" x="12.974" y="187.709"/></g><g style="fill:#000;fill-opacity:1"><use xlink:href="#m" x="3.442" y="132.419"/><use xlink:href="#n" x="7.254" y="132.419"/><use xlink:href="#m" x="9.161" y="132.419"/><use xlink:href="#m" x="12.973" y="132.419"/></g><g style="fill:#000;fill-opacity:1"><use xlink:href="#m" x="3.442" y="77.129"/><use xlink:href="#n" x="7.254" y="77.129"/><use xlink:href="#m" x="9.161" y="77.129"/><use xlink:href="#o" x="12.973" y="77.129"/></g><g style="fill:#000;fill-opacity:1"><use xlink:href="#m" x="3.442" y="22.409"/><use xlink:href="#n" x="7.254" y="22.409"/><use xlink:href="#p" x="9.161" y="22.409"/><use xlink:href="#m" x="12.973" y="22.409"/></g><path style="fill:none;stroke-width:11.4143;stroke-linecap:square;stroke-linejoin:miter;stroke:#000;stroke-opacity:1;stroke-miterlimit:10" d="M3595.506-211.153V-2636.69" transform="matrix(.10013 0 0 .09987 -17.5 271.499)"/><path style="fill:none;stroke-width:5.70714;stroke-linecap:butt;stroke-linejoin:miter;stroke:#000;stroke-opacity:1;stroke-miterlimit:10" d="M3595.506-321.408h-45.685m45.685 0h-22.823m22.823-55.147h-22.823m22.823-55.108h-22.823m22.823-55.147h-22.823m22.823-55.108h-22.823m22.823-55.148h-22.823m22.823-55.108h-22.823m22.823-55.108h-22.823m22.823-55.147h-22.823m22.823-110.255h-45.685m45.685 0h-22.823m22.823-55.108h-22.823m22.823-55.148h-22.823m22.823-55.107h-22.823m22.823-55.148h-22.823m22.823-55.108h-22.823m22.823-55.107h-22.823m22.823-55.148h-22.823m22.823-55.108h-22.823m22.823-110.255h-22.823m22.823 0h-45.685m45.685-55.147h-22.823m22.823-55.108h-22.823m22.823-55.148h-22.823m22.823-55.108h-22.823m22.823-55.147h-22.823m22.823-55.108h-22.823m22.823-55.147h-22.823m22.823-55.108h-22.823m22.823-110.255h-22.823m22.823 0h-45.685m45.685-55.108h-22.823m22.823-55.148h-22.823m22.823-55.107h-22.823m22.823-55.148h-22.823m22.823-55.108h-22.823m22.823-55.147h-22.823m22.823-55.108h-22.823m22.823-55.147h-22.823m22.823-110.216h-45.685m45.685 0h-22.823m22.823-55.148h-22.823m22.823-55.108h-22.823" transform="matrix(.10013 0 0 .09987 -17.5 271.499)"/><g style="fill:#000;fill-opacity:1"><use xlink:href="#w" x="348.214" y="242.429"/><use xlink:href="#m" x="350.497" y="242.429"/><use xlink:href="#n" x="354.31" y="242.429"/><use xlink:href="#p" x="356.216" y="242.429"/><use xlink:href="#m" x="360.029" y="242.429"/></g><g style="fill:#000;fill-opacity:1"><use xlink:href="#w" x="348.214" y="187.709"/><use xlink:href="#m" x="350.497" y="187.709"/><use xlink:href="#n" x="354.31" y="187.709"/><use xlink:href="#m" x="356.216" y="187.709"/><use xlink:href="#o" x="360.029" y="187.709"/></g><g style="fill:#000;fill-opacity:1"><use xlink:href="#m" x="348.214" y="132.419"/><use xlink:href="#n" x="352.027" y="132.419"/><use xlink:href="#m" x="353.933" y="132.419"/><use xlink:href="#m" x="357.745" y="132.419"/></g><g style="fill:#000;fill-opacity:1"><use xlink:href="#m" x="348.214" y="77.129"/><use xlink:href="#n" x="352.027" y="77.129"/><use xlink:href="#m" x="353.933" y="77.129"/><use xlink:href="#o" x="357.745" y="77.129"/></g><g style="fill:#000;fill-opacity:1"><use xlink:href="#m" x="348.214" y="22.409"/><use xlink:href="#n" x="352.027" y="22.409"/><use xlink:href="#p" x="353.933" y="22.409"/><use xlink:href="#m" x="357.745" y="22.409"/></g><g clip-path="url(#x)"><path style="fill:none;stroke-width:11.4143;stroke-linecap:round;stroke-linejoin:round;stroke:#00008b;stroke-opacity:1;stroke-miterlimit:10" d="m399.5-1423.921 9.13-6.336 9.13-6.258 9.284-6.453 9.052-6.22 9.168-6.335 9.129-6.297 9.285-6.375 9.012-6.258 9.208-6.336 9.246-6.375 9.168-6.297 9.13-6.336 9.168-6.297 9.012-6.22 9.168-6.335 9.207-6.336 9.168-6.336 9.13-6.297 9.285-6.415 9.051-6.218 9.168-6.336 9.13-6.297 9.285-6.415 9.012-6.218 18.414-12.75 18.337-12.594 9.168-6.337 9.012-6.218 9.13-6.336 18.414-12.672 9.09-6.297 9.324-6.415 9.013-6.218 9.207-6.336 9.13-6.297 9.245-6.415 9.013-6.218 9.246-6.336 9.207-6.376 9.168-6.336 9.13-6.297 9.168-6.336 9.05-6.218 9.13-6.297 9.207-6.376 9.169-6.336 9.129-6.297 9.285-6.414 9.051-6.219 9.168-6.336 9.13-6.297 9.285-6.414 9.012-6.18 9.207-6.375 9.247-6.375 9.168-6.297 9.13-6.336 9.167-6.297 9.012-6.218 18.337-12.673 9.207-6.336 9.13-6.297 9.285-6.414 9.05-6.219 9.169-6.336 9.13-6.297 9.285-6.414 9.012-6.219 9.207-6.375 9.246-6.375 9.13-6.297 9.168-6.297 9.129-6.336 9.051-6.219 9.13-6.336 18.414-12.672 9.09-6.297 9.324-6.414 9.012-6.219 9.169-6.336 9.129-6.297 9.285-6.414 9.012-6.219 9.208-6.336 9.246-6.375 9.168-6.336 9.13-6.297 9.167-6.336 9.013-6.219 9.168-6.297 9.207-6.375 9.168-6.336 9.13-6.297 9.285-6.414 9.051-6.219 9.168-6.336 9.13-6.297 9.285-6.414 9.012-6.18 9.207-6.375 9.246-6.375 9.169-6.297 9.129-6.336 9.168-6.297 9.012-6.258 9.168-6.297 9.169-6.336 9.207-6.336 9.13-6.297 9.284-6.414 9.052-6.258 9.168-6.336 9.129-6.297 9.285-6.375 9.012-6.219 18.415-12.75 18.336-12.594 9.13-6.336 9.05-6.219 9.13-6.336 9.207-6.336 9.168-6.336 9.13-6.297 9.285-6.414 9.051-6.219 9.168-6.336 9.13-6.297 9.285-6.414 9.012-6.219 9.207-6.336 9.246-6.375 9.169-6.336 9.129-6.297 9.168-6.336 9.051-6.219 9.13-6.297 9.207-6.375 9.168-6.336 9.13-6.297 9.285-6.414 9.05-6.22 9.169-6.335 9.13-6.297 9.284-6.414 9.013-6.22 9.207-6.335 9.246-6.375 9.168-6.297 9.13-6.336 9.168-6.297 9.012-6.258 9.13-6.297 18.414-12.672 9.129-6.297 9.285-6.414 9.012-6.258 9.168-6.336 9.169-6.297 9.285-6.375 9.012-6.22 18.415-12.75 9.168-6.296 9.13-6.297 9.167-6.336 9.012-6.22 4.604-3.167 4.565 3.05 9.207 6.337 9.168 6.336 9.13 6.297 9.324 6.414 9.012 6.258 9.168 6.297 9.13 6.297 9.285 6.414 9.012 6.219 9.207 6.375 9.246 6.336 9.168 6.336 9.13 6.297 9.168 6.336 9.012 6.219 9.168 6.336 9.208 6.336 9.168 6.336 9.129 6.297 9.285 6.414 9.051 6.219 9.169 6.336 9.129 6.297 9.285 6.414 9.012 6.219 9.208 6.336 9.246 6.375 9.129 6.336 9.168 6.297 9.13 6.336 9.05 6.219 9.13 6.297 9.207 6.375 9.207 6.297 9.13 6.297 9.285 6.414 9.012 6.258 9.168 6.336 9.168 6.297 9.247 6.375 9.05 6.219 18.415 12.75 9.169 6.336 9.129 6.297 9.168 6.297 9.051 6.258 9.13 6.297 9.207 6.336 9.168 6.336 9.13 6.297 9.284 6.414 9.052 6.258 9.168 6.297 9.129 6.297 9.285 6.414 9.012 6.219 9.208 6.375 9.246 6.336 9.168 6.336 9.13 6.336 9.168 6.297 9.012 6.219 18.336 12.672 9.207 6.336 9.13 6.297 9.285 6.414 9.051 6.219 9.168 6.336 9.13 6.297 9.285 6.414 9.012 6.219 9.207 6.336 9.208 6.375 9.168 6.336 9.168 6.297 9.168 6.336 9.012 6.219 9.13 6.297 9.207 6.375 9.168 6.297 9.13 6.297 9.324 6.414 9.012 6.258 9.207 6.336 9.13 6.297 9.245 6.375 9.013 6.219 9.207 6.375 9.246 6.375 9.168 6.336 9.13 6.297 9.168 6.297 9.05 6.258 9.13 6.297 9.207 6.336 9.169 6.336 9.129 6.297 9.285 6.414 9.051 6.258 9.169 6.297 9.129 6.297 9.285 6.414 9.012 6.22 9.207 6.374 9.247 6.336 9.168 6.336 9.13 6.337 9.167 6.296 9.013 6.22 9.168 6.335 9.207 6.336 9.168 6.336 9.13 6.297 9.285 6.415 9.05 6.218 9.17 6.336 9.128 6.297 9.286 6.415 9.012 6.218 9.207 6.336 9.207 6.376 9.168 6.336 9.169 6.297 9.129 6.336 9.051 6.218 9.13 6.297 9.207 6.375 9.168 6.337 9.129 6.257 9.324 6.415 9.012 6.257 9.169 6.337 9.129 6.296 9.285 6.415 9.012 6.18 9.208 6.375 9.246 6.375 9.168 6.336 9.13 6.297 9.167 6.297 9.013 6.257 9.168 6.297 9.207 6.336 9.168 6.337 9.13 6.296 9.285 6.415 9.051 6.258 9.168 6.297 9.13 6.296 9.285 6.415 9.012 6.218 9.207 6.376 18.415 12.672 9.129 6.297 9.168 6.336 9.012 6.219 18.337 12.672 9.207 6.336 9.13 6.297 9.284 6.414 9.013 6.219 9.207 6.336 9.129 6.297 9.285 6.414 9.012 6.219 9.208 6.336 9.207 6.375 9.168 6.336 9.168 6.297 9.09 6.297" transform="matrix(.10013 0 0 .09987 -17.5 271.499)"/></g><path style="stroke:none;fill-rule:nonzero;fill:#fff;fill-opacity:1" d="M406.426 250.41h320V8.16h-320zm0 0"/><g clip-path="url(#y)"><path style="fill:none;stroke-width:5.70714;stroke-linecap:round;stroke-linejoin:miter;stroke:#bfbfbf;stroke-opacity:1;stroke-miterlimit:10" d="M399.518-211.153V-2636.69" transform="matrix(.10013 0 0 .09987 366.424 271.499)"/></g><g clip-path="url(#z)"><path style="fill:none;stroke-width:5.70714;stroke-linecap:round;stroke-linejoin:miter;stroke:#bfbfbf;stroke-opacity:1;stroke-miterlimit:10" d="M399.518-1423.921h3195.966" transform="matrix(.10013 0 0 .09987 366.424 271.499)"/></g><g clip-path="url(#A)"><path style="fill:none;stroke-width:5.70714;stroke-linecap:round;stroke-linejoin:miter;stroke:#bfbfbf;stroke-opacity:1;stroke-dasharray:11.4143,17.1214;stroke-miterlimit:10" d="M399.518-211.153V-2636.69" transform="matrix(.10013 0 0 .09987 366.424 271.499)"/></g><g clip-path="url(#B)"><path style="fill:none;stroke-width:5.70714;stroke-linecap:round;stroke-linejoin:miter;stroke:#bfbfbf;stroke-opacity:1;stroke-dasharray:11.4143,17.1214;stroke-miterlimit:10" d="M1198.48-211.153V-2636.69" transform="matrix(.10013 0 0 .09987 366.424 271.499)"/></g><g clip-path="url(#C)"><path style="fill:none;stroke-width:5.70714;stroke-linecap:round;stroke-linejoin:miter;stroke:#bfbfbf;stroke-opacity:1;stroke-dasharray:11.4143,17.1214;stroke-miterlimit:10" d="M1997.482-211.153V-2636.69" transform="matrix(.10013 0 0 .09987 366.424 271.499)"/></g><g clip-path="url(#D)"><path style="fill:none;stroke-width:5.70714;stroke-linecap:round;stroke-linejoin:miter;stroke:#bfbfbf;stroke-opacity:1;stroke-dasharray:11.4143,17.1214;stroke-miterlimit:10" d="M2796.483-211.153V-2636.69" transform="matrix(.10013 0 0 .09987 366.424 271.499)"/></g><g clip-path="url(#E)"><path style="fill:none;stroke-width:5.70714;stroke-linecap:round;stroke-linejoin:miter;stroke:#bfbfbf;stroke-opacity:1;stroke-dasharray:11.4143,17.1214;stroke-miterlimit:10" d="M3595.484-211.153V-2636.69" transform="matrix(.10013 0 0 .09987 366.424 271.499)"/></g><g clip-path="url(#F)"><path style="fill:none;stroke-width:5.70714;stroke-linecap:round;stroke-linejoin:miter;stroke:#bfbfbf;stroke-opacity:1;stroke-dasharray:11.4143,17.1214;stroke-miterlimit:10" d="M399.518-321.408h3195.966" transform="matrix(.10013 0 0 .09987 366.424 271.499)"/></g><g clip-path="url(#G)"><path style="fill:none;stroke-width:5.70714;stroke-linecap:round;stroke-linejoin:miter;stroke:#bfbfbf;stroke-opacity:1;stroke-dasharray:11.4143,17.1214;stroke-miterlimit:10" d="M399.518-872.684h3195.966" transform="matrix(.10013 0 0 .09987 366.424 271.499)"/></g><g clip-path="url(#H)"><path style="fill:none;stroke-width:5.70714;stroke-linecap:round;stroke-linejoin:miter;stroke:#bfbfbf;stroke-opacity:1;stroke-dasharray:11.4143,17.1214;stroke-miterlimit:10" d="M399.518-1423.921h3195.966" transform="matrix(.10013 0 0 .09987 366.424 271.499)"/></g><g clip-path="url(#I)"><path style="fill:none;stroke-width:5.70714;stroke-linecap:round;stroke-linejoin:miter;stroke:#bfbfbf;stroke-opacity:1;stroke-dasharray:11.4143,17.1214;stroke-miterlimit:10" d="M399.518-1975.197h3195.966" transform="matrix(.10013 0 0 .09987 366.424 271.499)"/></g><g clip-path="url(#J)"><path style="fill:none;stroke-width:5.70714;stroke-linecap:round;stroke-linejoin:miter;stroke:#bfbfbf;stroke-opacity:1;stroke-dasharray:11.4143,17.1214;stroke-miterlimit:10" d="M399.518-2526.434h3195.966" transform="matrix(.10013 0 0 .09987 366.424 271.499)"/></g><path style="fill:none;stroke-width:11.4143;stroke-linecap:square;stroke-linejoin:miter;stroke:#000;stroke-opacity:1;stroke-miterlimit:10" d="M399.518-211.153h3195.966" transform="matrix(.10013 0 0 .09987 366.424 271.499)"/><path style="fill:none;stroke-width:5.70714;stroke-linecap:butt;stroke-linejoin:miter;stroke:#000;stroke-opacity:1;stroke-miterlimit:10" d="M399.518-211.153v-45.682m0 45.682v-22.84m79.901 22.84v-22.84m79.9 22.84v-22.84m79.9 22.84v-22.84m79.9 22.84v-22.84m79.9 22.84v-22.84m79.901 22.84v-22.84m79.9 22.84v-22.84m79.9 22.84v-22.84m159.76 22.84v-45.682m0 45.682v-22.84m79.9 22.84v-22.84m79.9 22.84v-22.84m79.901 22.84v-22.84m79.9 22.84v-22.84m79.9 22.84v-22.84m79.9 22.84v-22.84m79.901 22.84v-22.84m79.9 22.84v-22.84m159.8 22.84v-45.682m0 45.682v-22.84m79.9 22.84v-22.84m79.9 22.84v-22.84m79.9 22.84v-22.84m79.9 22.84v-22.84m79.901 22.84v-22.84m79.9 22.84v-22.84m79.9 22.84v-22.84m79.9 22.84v-22.84m159.8 22.84v-45.682m0 45.682v-22.84m79.9 22.84v-22.84m79.9 22.84v-22.84m79.901 22.84v-22.84m79.9 22.84v-22.84m79.9 22.84v-22.84m79.9 22.84v-22.84m79.9 22.84v-22.84m79.9 22.84v-22.84m159.8 22.84v-45.682m0 45.682v-22.84" transform="matrix(.10013 0 0 .09987 366.424 271.499)"/><g style="fill:#000;fill-opacity:1"><use xlink:href="#m" x="401.658" y="259.529"/><use xlink:href="#n" x="405.471" y="259.529"/><use xlink:href="#m" x="407.377" y="259.529"/></g><g style="fill:#000;fill-opacity:1"><use xlink:href="#m" x="481.659" y="259.529"/><use xlink:href="#n" x="485.472" y="259.529"/><use xlink:href="#o" x="487.378" y="259.529"/></g><g style="fill:#000;fill-opacity:1"><use xlink:href="#p" x="561.659" y="259.529"/><use xlink:href="#n" x="565.472" y="259.529"/><use xlink:href="#m" x="567.378" y="259.529"/></g><g style="fill:#000;fill-opacity:1"><use xlink:href="#p" x="641.089" y="259.529"/><use xlink:href="#n" x="644.901" y="259.529"/><use xlink:href="#o" x="646.808" y="259.529"/></g><g style="fill:#000;fill-opacity:1"><use xlink:href="#q" x="721.661" y="259.529"/><use xlink:href="#n" x="725.473" y="259.529"/><use xlink:href="#m" x="727.379" y="259.529"/></g><path style="fill:none;stroke-width:11.4143;stroke-linecap:square;stroke-linejoin:miter;stroke:#000;stroke-opacity:1;stroke-miterlimit:10" d="M399.518-2636.69h3195.966" transform="matrix(.10013 0 0 .09987 366.424 271.499)"/><path style="fill:none;stroke-width:5.70714;stroke-linecap:butt;stroke-linejoin:miter;stroke:#000;stroke-opacity:1;stroke-miterlimit:10" d="M399.518-2636.69v45.644m0-45.644v22.802m79.901-22.802v22.802m79.9-22.802v22.802m79.9-22.802v22.802m79.9-22.802v22.802m79.9-22.802v22.802m79.901-22.802v22.802m79.9-22.802v22.802m79.9-22.802v22.802m159.76-22.802v45.644m0-45.644v22.802m79.9-22.802v22.802m79.9-22.802v22.802m79.901-22.802v22.802m79.9-22.802v22.802m79.9-22.802v22.802m79.9-22.802v22.802m79.901-22.802v22.802m79.9-22.802v22.802m159.8-22.802v45.644m0-45.644v22.802m79.9-22.802v22.802m79.9-22.802v22.802m79.9-22.802v22.802m79.9-22.802v22.802m79.901-22.802v22.802m79.9-22.802v22.802m79.9-22.802v22.802m79.9-22.802v22.802m159.8-22.802v45.644m0-45.644v22.802m79.9-22.802v22.802m79.9-22.802v22.802m79.901-22.802v22.802m79.9-22.802v22.802m79.9-22.802v22.802m79.9-22.802v22.802m79.9-22.802v22.802m79.9-22.802v22.802m159.8-22.802v45.644m0-45.644v22.802" transform="matrix(.10013 0 0 .09987 366.424 271.499)"/><g style="fill:#000;fill-opacity:1" clip-path="url(#K)"><use xlink:href="#m" x="401.658" y="5.879"/><use xlink:href="#n" x="405.471" y="5.879"/><use xlink:href="#m" x="407.377" y="5.879"/></g><g style="fill:#000;fill-opacity:1" clip-path="url(#L)"><use xlink:href="#m" x="481.659" y="5.879"/><use xlink:href="#n" x="485.472" y="5.879"/><use xlink:href="#o" x="487.378" y="5.879"/></g><g style="fill:#000;fill-opacity:1" clip-path="url(#M)"><use xlink:href="#p" x="561.659" y="5.879"/><use xlink:href="#n" x="565.472" y="5.879"/><use xlink:href="#m" x="567.378" y="5.879"/></g><g style="fill:#000;fill-opacity:1" clip-path="url(#N)"><use xlink:href="#p" x="641.089" y="5.879"/><use xlink:href="#n" x="644.901" y="5.879"/><use xlink:href="#o" x="646.808" y="5.879"/></g><g style="fill:#000;fill-opacity:1" clip-path="url(#O)"><use xlink:href="#q" x="721.661" y="5.879"/><use xlink:href="#n" x="725.473" y="5.879"/><use xlink:href="#m" x="727.379" y="5.879"/></g><path style="fill:none;stroke-width:11.4143;stroke-linecap:square;stroke-linejoin:miter;stroke:#000;stroke-opacity:1;stroke-miterlimit:10" d="M399.518-211.153V-2636.69" transform="matrix(.10013 0 0 .09987 366.424 271.499)"/><path style="fill:none;stroke-width:5.70714;stroke-linecap:butt;stroke-linejoin:miter;stroke:#000;stroke-opacity:1;stroke-miterlimit:10" d="M399.518-321.408h45.646m-45.646 0h22.823m-22.823-55.147h22.823m-22.823-55.108h22.823m-22.823-55.147h22.823m-22.823-55.108h22.823m-22.823-55.148h22.823m-22.823-55.108h22.823m-22.823-55.108h22.823m-22.823-55.147h22.823m-22.823-110.255h45.646m-45.646 0h22.823m-22.823-55.108h22.823m-22.823-55.148h22.823m-22.823-55.107h22.823m-22.823-55.148h22.823m-22.823-55.108h22.823m-22.823-55.107h22.823m-22.823-55.148h22.823m-22.823-55.108h22.823m-22.823-110.255h22.823m-22.823 0h45.646m-45.646-55.147h22.823m-22.823-55.108h22.823m-22.823-55.148h22.823m-22.823-55.108h22.823m-22.823-55.147h22.823m-22.823-55.108h22.823m-22.823-55.147h22.823m-22.823-55.108h22.823m-22.823-110.255h22.823m-22.823 0h45.646m-45.646-55.108h22.823m-22.823-55.148h22.823m-22.823-55.107h22.823m-22.823-55.148h22.823m-22.823-55.108h22.823m-22.823-55.147h22.823m-22.823-55.108h22.823m-22.823-55.147h22.823m-22.823-110.216h45.646m-45.646 0h22.823m-22.823-55.148h22.823m-22.823-55.108h22.823" transform="matrix(.10013 0 0 .09987 366.424 271.499)"/><g style="fill:#000;fill-opacity:1"><use xlink:href="#w" x="385.083" y="242.429"/><use xlink:href="#m" x="387.366" y="242.429"/><use xlink:href="#n" x="391.179" y="242.429"/><use xlink:href="#p" x="393.085" y="242.429"/><use xlink:href="#m" x="396.898" y="242.429"/></g><g style="fill:#000;fill-opacity:1"><use xlink:href="#w" x="385.083" y="187.709"/><use xlink:href="#m" x="387.366" y="187.709"/><use xlink:href="#n" x="391.179" y="187.709"/><use xlink:href="#m" x="393.085" y="187.709"/><use xlink:href="#o" x="396.898" y="187.709"/></g><g style="fill:#000;fill-opacity:1"><use xlink:href="#m" x="387.366" y="132.419"/><use xlink:href="#n" x="391.178" y="132.419"/><use xlink:href="#m" x="393.085" y="132.419"/><use xlink:href="#m" x="396.897" y="132.419"/></g><g style="fill:#000;fill-opacity:1"><use xlink:href="#m" x="387.366" y="77.129"/><use xlink:href="#n" x="391.178" y="77.129"/><use xlink:href="#m" x="393.085" y="77.129"/><use xlink:href="#o" x="396.897" y="77.129"/></g><g style="fill:#000;fill-opacity:1"><use xlink:href="#m" x="387.366" y="22.409"/><use xlink:href="#n" x="391.178" y="22.409"/><use xlink:href="#p" x="393.085" y="22.409"/><use xlink:href="#m" x="396.897" y="22.409"/></g><path style="fill:none;stroke-width:11.4143;stroke-linecap:square;stroke-linejoin:miter;stroke:#000;stroke-opacity:1;stroke-miterlimit:10" d="M3595.484-211.153V-2636.69" transform="matrix(.10013 0 0 .09987 366.424 271.499)"/><path style="fill:none;stroke-width:5.70714;stroke-linecap:butt;stroke-linejoin:miter;stroke:#000;stroke-opacity:1;stroke-miterlimit:10" d="M3595.484-321.408h-45.646m45.646 0h-22.823m22.823-55.147h-22.823m22.823-55.108h-22.823m22.823-55.147h-22.823m22.823-55.108h-22.823m22.823-55.148h-22.823m22.823-55.108h-22.823m22.823-55.108h-22.823m22.823-55.147h-22.823m22.823-110.255h-45.646m45.646 0h-22.823m22.823-55.108h-22.823m22.823-55.148h-22.823m22.823-55.107h-22.823m22.823-55.148h-22.823m22.823-55.108h-22.823m22.823-55.107h-22.823m22.823-55.148h-22.823m22.823-55.108h-22.823m22.823-110.255h-22.823m22.823 0h-45.646m45.646-55.147h-22.823m22.823-55.108h-22.823m22.823-55.148h-22.823m22.823-55.108h-22.823m22.823-55.147h-22.823m22.823-55.108h-22.823m22.823-55.147h-22.823m22.823-55.108h-22.823m22.823-110.255h-22.823m22.823 0h-45.646m45.646-55.108h-22.823m22.823-55.148h-22.823m22.823-55.107h-22.823m22.823-55.148h-22.823m22.823-55.108h-22.823m22.823-55.147h-22.823m22.823-55.108h-22.823m22.823-55.147h-22.823m22.823-110.216h-45.646m45.646 0h-22.823m22.823-55.148h-22.823m22.823-55.108h-22.823" transform="matrix(.10013 0 0 .09987 366.424 271.499)"/><g style="fill:#000;fill-opacity:1"><use xlink:href="#w" x="732.138" y="242.429"/><use xlink:href="#m" x="734.421" y="242.429"/><use xlink:href="#n" x="738.234" y="242.429"/><use xlink:href="#p" x="740.14" y="242.429"/><use xlink:href="#m" x="743.953" y="242.429"/></g><g style="fill:#000;fill-opacity:1"><use xlink:href="#w" x="732.138" y="187.709"/><use xlink:href="#m" x="734.421" y="187.709"/><use xlink:href="#n" x="738.234" y="187.709"/><use xlink:href="#m" x="740.14" y="187.709"/><use xlink:href="#o" x="743.953" y="187.709"/></g><g style="fill:#000;fill-opacity:1"><use xlink:href="#m" x="732.138" y="132.419"/><use xlink:href="#n" x="735.951" y="132.419"/><use xlink:href="#m" x="737.857" y="132.419"/><use xlink:href="#m" x="741.669" y="132.419"/></g><g style="fill:#000;fill-opacity:1"><use xlink:href="#m" x="732.138" y="77.129"/><use xlink:href="#n" x="735.951" y="77.129"/><use xlink:href="#m" x="737.857" y="77.129"/><use xlink:href="#o" x="741.669" y="77.129"/></g><g style="fill:#000;fill-opacity:1"><use xlink:href="#m" x="732.138" y="22.409"/><use xlink:href="#n" x="735.951" y="22.409"/><use xlink:href="#p" x="737.857" y="22.409"/><use xlink:href="#m" x="741.669" y="22.409"/></g><g clip-path="url(#P)"><path style="fill:none;stroke-width:11.4143;stroke-linecap:round;stroke-linejoin:round;stroke:#00008b;stroke-opacity:1;stroke-miterlimit:10" d="m399.557-1423.96 9.09-6.258 9.208-6.375 9.13-6.297 18.336-12.672 9.207-6.336 9.129-6.297 9.012-6.22 9.324-6.413 9.09-6.297 9.169-6.297 9.13-6.336 9.206-6.336 9.09-6.258 9.247-6.414 9.168-6.297 9.051-6.258 9.246-6.375 9.09-6.297 9.208-6.336 9.168-6.297 9.168-6.376 9.169-6.297 9.012-6.218 9.285-6.415 9.09-6.296 18.337-12.594 9.207-6.376 9.09-6.257 9.246-6.376 9.13-6.336 9.09-6.257 9.207-6.336 9.13-6.297 18.336-12.673 9.207-6.336 9.13-6.297 9.05-6.218 9.286-6.415 9.09-6.296 9.168-6.337 9.13-6.296 9.206-6.337 9.09-6.297 9.286-6.375 9.13-6.297 9.09-6.257 9.207-6.376 9.129-6.297 18.336-12.672 9.208-6.336 9.129-6.297 9.012-6.218 9.285-6.415 9.13-6.297 9.168-6.297 9.129-6.336 9.207-6.336 9.09-6.258 9.247-6.414 9.129-6.297 9.09-6.258 9.246-6.375 9.09-6.297 9.208-6.297 18.336-12.672 9.13-6.336 9.05-6.219 9.286-6.414 9.09-6.258 9.168-6.336 9.168-6.297 9.208-6.375 9.09-6.258 9.246-6.375 9.13-6.336 9.09-6.258 9.207-6.336 9.129-6.297L1177.92-1961l9.208-6.336 9.129-6.297 9.051-6.219 9.285-6.453 9.09-6.258 9.169-6.336 9.129-6.297 9.207-6.336 9.09-6.297 9.247-6.375 9.168-6.297 9.051-6.258 9.246-6.375 9.09-6.297 9.208-6.336 9.168-6.336 9.207-6.336 9.13-6.297 9.012-6.219 4.642-3.207 1.17-.821 1.171-.47h1277.466l2.302 1.291 4.603 3.168 9.168 6.336 9.169 6.297 9.012 6.258 9.285 6.375 9.09 6.297 9.168 6.336 9.169 6.297 9.207 6.336 9.09 6.297 9.246 6.375 9.13 6.297 9.09 6.258 9.207 6.375 9.13 6.297 18.336 12.672 9.207 6.336 9.13 6.297 9.011 6.219 9.325 6.414 9.09 6.297 9.168 6.297 9.13 6.336 9.207 6.336 9.09 6.297 9.285 6.375 9.13 6.297 9.09 6.258 9.207 6.375 9.129 6.297 9.168 6.336 9.168 6.297 9.208 6.376 9.129 6.296 9.012 6.22 9.285 6.413 9.13 6.258 9.168 6.336 9.129 6.297 9.207 6.375 9.09 6.258 9.247 6.375 9.129 6.337 9.09 6.257 9.207 6.336 9.13 6.297 9.207 6.336 18.336 12.673 9.168 6.296 9.013 6.258 9.285 6.375 9.09 6.297 9.168 6.336 9.168 6.297 9.208 6.336 9.09 6.297 9.246 6.376 9.13 6.297 9.09 6.257 9.207 6.376 9.129 6.297 18.336 12.672 9.208 6.336 9.129 6.297 9.012 6.218 9.324 6.415 9.09 6.297 9.169 6.336 9.129 6.297 9.207 6.336 9.09 6.297 9.286 6.375 9.129 6.297 9.051 6.258 9.246 6.375 9.13 6.258 9.168 6.375 9.168 6.297 9.207 6.375 9.13 6.297 9.012 6.218 9.285 6.415 9.13 6.258 9.128 6.336 9.169 6.297 9.207 6.375 9.09 6.258 9.246 6.414 9.13 6.297 9.09 6.258 9.246 6.375 9.09 6.258 9.207 6.336 9.13 6.336 9.207 6.336 9.13 6.297 9.05 6.258 9.286 6.375 9.09 6.297 9.168 6.336 9.13 6.297 9.167 6.336" transform="matrix(.10013 0 0 .09987 366.424 271.499)"/></g></svg>