<svg xmlns="http://www.w3.org/2000/svg" width="456" height="344" viewBox="0 0 342 258"><defs><clipPath id="a"><path d="M170 1.5h2v255h-2zm0 0"/></clipPath><clipPath id="b"><path d="M1 128h340v2H1zm0 0"/></clipPath><clipPath id="c"><path d="M1 1.5h1v255H1zm0 0"/></clipPath><clipPath id="d"><path d="M57 1.5h1v255h-1zm0 0"/></clipPath><clipPath id="e"><path d="M114 1.5h1v255h-1zm0 0"/></clipPath><clipPath id="f"><path d="M170 1.5h2v255h-2zm0 0"/></clipPath><clipPath id="g"><path d="M227 1.5h1v255h-1zm0 0"/></clipPath><clipPath id="h"><path d="M284 1.5h1v255h-1zm0 0"/></clipPath><clipPath id="i"><path d="M340 1.5h1v255h-1zm0 0"/></clipPath><clipPath id="j"><path d="M1 256h340v.5H1zm0 0"/></clipPath><clipPath id="k"><path d="M1 213h340v2H1zm0 0"/></clipPath><clipPath id="l"><path d="M1 171h340v1H1zm0 0"/></clipPath><clipPath id="m"><path d="M1 128h340v2H1zm0 0"/></clipPath><clipPath id="n"><path d="M1 86h340v1H1zm0 0"/></clipPath><clipPath id="o"><path d="M1 43h340v2H1zm0 0"/></clipPath><clipPath id="p"><path d="M1 1.5h340V2H1zm0 0"/></clipPath></defs><path style="stroke:none;fill-rule:nonzero;fill:#fff;fill-opacity:1" d="M1 256.5h340V1.5H1zm0 0"/><g clip-path="url(#a)"><path style="fill:none;stroke-width:6.25;stroke-linecap:round;stroke-linejoin:miter;stroke:#bfbfbf;stroke-opacity:1;stroke-miterlimit:10" d="M2000 225v2550" transform="matrix(.1 0 0 -.1 -29 279)"/></g><g clip-path="url(#b)"><path style="fill:none;stroke-width:6.25;stroke-linecap:round;stroke-linejoin:miter;stroke:#bfbfbf;stroke-opacity:1;stroke-miterlimit:10" d="M300 1500h3400" transform="matrix(.1 0 0 -.1 -29 279)"/></g><g clip-path="url(#c)"><path style="fill:none;stroke-width:6.25;stroke-linecap:round;stroke-linejoin:miter;stroke:#bfbfbf;stroke-opacity:1;stroke-dasharray:12.5,18.75;stroke-miterlimit:10" d="M300 225v2550" transform="matrix(.1 0 0 -.1 -29 279)"/></g><g clip-path="url(#d)"><path style="fill:none;stroke-width:6.25;stroke-linecap:round;stroke-linejoin:miter;stroke:#bfbfbf;stroke-opacity:1;stroke-dasharray:12.5,18.75;stroke-miterlimit:10" d="M866.68 225v2550" transform="matrix(.1 0 0 -.1 -29 279)"/></g><g clip-path="url(#e)"><path style="fill:none;stroke-width:6.25;stroke-linecap:round;stroke-linejoin:miter;stroke:#bfbfbf;stroke-opacity:1;stroke-dasharray:12.5,18.75;stroke-miterlimit:10" d="M1433.32 225v2550" transform="matrix(.1 0 0 -.1 -29 279)"/></g><g clip-path="url(#f)"><path style="fill:none;stroke-width:6.25;stroke-linecap:round;stroke-linejoin:miter;stroke:#bfbfbf;stroke-opacity:1;stroke-dasharray:12.5,18.75;stroke-miterlimit:10" d="M2000 225v2550" transform="matrix(.1 0 0 -.1 -29 279)"/></g><g clip-path="url(#g)"><path style="fill:none;stroke-width:6.25;stroke-linecap:round;stroke-linejoin:miter;stroke:#bfbfbf;stroke-opacity:1;stroke-dasharray:12.5,18.75;stroke-miterlimit:10" d="M2566.68 225v2550" transform="matrix(.1 0 0 -.1 -29 279)"/></g><g clip-path="url(#h)"><path style="fill:none;stroke-width:6.25;stroke-linecap:round;stroke-linejoin:miter;stroke:#bfbfbf;stroke-opacity:1;stroke-dasharray:12.5,18.75;stroke-miterlimit:10" d="M3133.32 225v2550" transform="matrix(.1 0 0 -.1 -29 279)"/></g><g clip-path="url(#i)"><path style="fill:none;stroke-width:6.25;stroke-linecap:round;stroke-linejoin:miter;stroke:#bfbfbf;stroke-opacity:1;stroke-dasharray:12.5,18.75;stroke-miterlimit:10" d="M3700 225v2550" transform="matrix(.1 0 0 -.1 -29 279)"/></g><g clip-path="url(#j)"><path style="fill:none;stroke-width:6.25;stroke-linecap:round;stroke-linejoin:miter;stroke:#bfbfbf;stroke-opacity:1;stroke-dasharray:12.5,18.75;stroke-miterlimit:10" d="M300 225h3400" transform="matrix(.1 0 0 -.1 -29 279)"/></g><g clip-path="url(#k)"><path style="fill:none;stroke-width:6.25;stroke-linecap:round;stroke-linejoin:miter;stroke:#bfbfbf;stroke-opacity:1;stroke-dasharray:12.5,18.75;stroke-miterlimit:10" d="M300 650h3400" transform="matrix(.1 0 0 -.1 -29 279)"/></g><g clip-path="url(#l)"><path style="fill:none;stroke-width:6.25;stroke-linecap:round;stroke-linejoin:miter;stroke:#bfbfbf;stroke-opacity:1;stroke-dasharray:12.5,18.75;stroke-miterlimit:10" d="M300 1075h3400" transform="matrix(.1 0 0 -.1 -29 279)"/></g><g clip-path="url(#m)"><path style="fill:none;stroke-width:6.25;stroke-linecap:round;stroke-linejoin:miter;stroke:#bfbfbf;stroke-opacity:1;stroke-dasharray:12.5,18.75;stroke-miterlimit:10" d="M300 1500h3400" transform="matrix(.1 0 0 -.1 -29 279)"/></g><g clip-path="url(#n)"><path style="fill:none;stroke-width:6.25;stroke-linecap:round;stroke-linejoin:miter;stroke:#bfbfbf;stroke-opacity:1;stroke-dasharray:12.5,18.75;stroke-miterlimit:10" d="M300 1925h3400" transform="matrix(.1 0 0 -.1 -29 279)"/></g><g clip-path="url(#o)"><path style="fill:none;stroke-width:6.25;stroke-linecap:round;stroke-linejoin:miter;stroke:#bfbfbf;stroke-opacity:1;stroke-dasharray:12.5,18.75;stroke-miterlimit:10" d="M300 2350h3400" transform="matrix(.1 0 0 -.1 -29 279)"/></g><g clip-path="url(#p)"><path style="fill:none;stroke-width:6.25;stroke-linecap:round;stroke-linejoin:miter;stroke:#bfbfbf;stroke-opacity:1;stroke-dasharray:12.5,18.75;stroke-miterlimit:10" d="M300 2775h3400" transform="matrix(.1 0 0 -.1 -29 279)"/></g><path style="fill:none;stroke-width:12.5;stroke-linecap:square;stroke-linejoin:miter;stroke:#000;stroke-opacity:1;stroke-miterlimit:10" d="M300 225h3400" transform="matrix(.1 0 0 -.1 -29 279)"/><path style="fill:none;stroke-width:6.25;stroke-linecap:butt;stroke-linejoin:miter;stroke:#000;stroke-opacity:1;stroke-miterlimit:10" d="M300 225v50m56.68-50v25m56.64-25v25M470 225v25m56.68-25v25m56.64-25v25M640 225v25m56.68-25v25m56.64-25v25M810 225v25m56.68-25v50m56.64-50v25M980 225v25m56.68-25v25m56.64-25v25m56.68-25v25m56.68-25v25m56.64-25v25m56.68-25v25m56.68-25v25m56.64-25v50m56.68-50v25m56.68-25v25m56.64-25v25m56.68-25v25m56.68-25v25m56.64-25v25m56.68-25v25m56.68-25v25m56.64-25v25m56.68-25v50m56.68-50v25m56.64-25v25m56.68-25v25m56.68-25v25m56.64-25v25m56.68-25v25m56.68-25v25m56.64-25v25m56.68-25v25m56.68-25v50m56.64-50v25m56.68-25v25m56.68-25v25m56.64-25v25m56.68-25v25m56.68-25v25m56.64-25v25m56.68-25v25m56.68-25v25m56.64-25v50m56.68-50v25m56.68-25v25m56.64-25v25m56.68-25v25m56.68-25v25m56.64-25v25m56.68-25v25m56.68-25v25m56.64-25v25m56.68-25v50" transform="matrix(.1 0 0 -.1 -29 279)"/><path style="fill:none;stroke-width:12.5;stroke-linecap:square;stroke-linejoin:miter;stroke:#000;stroke-opacity:1;stroke-miterlimit:10" d="M300 2775h3400" transform="matrix(.1 0 0 -.1 -29 279)"/><path style="fill:none;stroke-width:6.25;stroke-linecap:butt;stroke-linejoin:miter;stroke:#000;stroke-opacity:1;stroke-miterlimit:10" d="M300 2775v-50m56.68 50v-25m56.64 25v-25m56.68 25v-25m56.68 25v-25m56.64 25v-25m56.68 25v-25m56.68 25v-25m56.64 25v-25m56.68 25v-25m56.68 25v-50m56.64 50v-25m56.68 25v-25m56.68 25v-25m56.64 25v-25m56.68 25v-25m56.68 25v-25m56.64 25v-25m56.68 25v-25m56.68 25v-25m56.64 25v-50m56.68 50v-25m56.68 25v-25m56.64 25v-25m56.68 25v-25m56.68 25v-25m56.64 25v-25m56.68 25v-25m56.68 25v-25m56.64 25v-25m56.68 25v-50m56.68 50v-25m56.64 25v-25m56.68 25v-25m56.68 25v-25m56.64 25v-25m56.68 25v-25m56.68 25v-25m56.64 25v-25m56.68 25v-25m56.68 25v-50m56.64 50v-25m56.68 25v-25m56.68 25v-25m56.64 25v-25m56.68 25v-25m56.68 25v-25m56.64 25v-25m56.68 25v-25m56.68 25v-25m56.64 25v-50m56.68 50v-25m56.68 25v-25m56.64 25v-25m56.68 25v-25m56.68 25v-25m56.64 25v-25m56.68 25v-25m56.68 25v-25m56.64 25v-25m56.68 25v-50" transform="matrix(.1 0 0 -.1 -29 279)"/><path style="fill:none;stroke-width:12.5;stroke-linecap:square;stroke-linejoin:miter;stroke:#000;stroke-opacity:1;stroke-miterlimit:10" d="M300 225v2550" transform="matrix(.1 0 0 -.1 -29 279)"/><path style="fill:none;stroke-width:6.25;stroke-linecap:butt;stroke-linejoin:miter;stroke:#000;stroke-opacity:1;stroke-miterlimit:10" d="M300 225h50m-50 42.5h25M300 310h25m-25 42.5h25M300 395h25m-25 42.5h25M300 480h25m-25 42.5h25M300 565h25m-25 42.5h25M300 650h50m-50 42.5h25M300 735h25m-25 42.5h25M300 820h25m-25 42.5h25M300 905h25m-25 42.5h25M300 990h25m-25 42.5h25m-25 42.5h50m-50 42.5h25m-25 42.5h25m-25 42.5h25m-25 42.5h25m-25 42.5h25m-25 42.5h25m-25 42.5h25m-25 42.5h25m-25 42.5h25m-25 42.5h50m-50 42.5h25m-25 42.5h25m-25 42.5h25m-25 42.5h25m-25 42.5h25m-25 42.5h25m-25 42.5h25m-25 42.5h25m-25 42.5h25m-25 42.5h50m-50 42.5h25m-25 42.5h25m-25 42.5h25m-25 42.5h25m-25 42.5h25m-25 42.5h25m-25 42.5h25m-25 42.5h25m-25 42.5h25m-25 42.5h50m-50 42.5h25m-25 42.5h25m-25 42.5h25m-25 42.5h25m-25 42.5h25m-25 42.5h25m-25 42.5h25m-25 42.5h25m-25 42.5h25m-25 42.5h50" transform="matrix(.1 0 0 -.1 -29 279)"/><path style="fill:none;stroke-width:12.5;stroke-linecap:square;stroke-linejoin:miter;stroke:#000;stroke-opacity:1;stroke-miterlimit:10" d="M3700 225v2550" transform="matrix(.1 0 0 -.1 -29 279)"/><path style="fill:none;stroke-width:6.25;stroke-linecap:butt;stroke-linejoin:miter;stroke:#000;stroke-opacity:1;stroke-miterlimit:10" d="M3700 225h-50m50 42.5h-25m25 42.5h-25m25 42.5h-25m25 42.5h-25m25 42.5h-25m25 42.5h-25m25 42.5h-25m25 42.5h-25m25 42.5h-25m25 42.5h-50m50 42.5h-25m25 42.5h-25m25 42.5h-25m25 42.5h-25m25 42.5h-25m25 42.5h-25m25 42.5h-25m25 42.5h-25m25 42.5h-25m25 42.5h-50m50 42.5h-25m25 42.5h-25m25 42.5h-25m25 42.5h-25m25 42.5h-25m25 42.5h-25m25 42.5h-25m25 42.5h-25m25 42.5h-25m25 42.5h-50m50 42.5h-25m25 42.5h-25m25 42.5h-25m25 42.5h-25m25 42.5h-25m25 42.5h-25m25 42.5h-25m25 42.5h-25m25 42.5h-25m25 42.5h-50m50 42.5h-25m25 42.5h-25m25 42.5h-25m25 42.5h-25m25 42.5h-25m25 42.5h-25m25 42.5h-25m25 42.5h-25m25 42.5h-25m25 42.5h-50m50 42.5h-25m25 42.5h-25m25 42.5h-25m25 42.5h-25m25 42.5h-25m25 42.5h-25m25 42.5h-25m25 42.5h-25m25 42.5h-25m25 42.5h-50" transform="matrix(.1 0 0 -.1 -29 279)"/><path style="fill:none;stroke-width:12.5;stroke-linecap:round;stroke-linejoin:miter;stroke:#00f;stroke-opacity:1;stroke-miterlimit:10" d="m448.477 433.438 12.148-185.04m0 0h0m-17.891 416.29 23.633-183.946m0 0h0m-38.827 412.5 53.983-177.422m0 0h0m-93.398 385.235L520.977 971.68m0 0h0M362.5 1279.375l184.102-22.383m0 0h0M361.797 1500h185.469m0 0h0M362.5 1720.625l184.102 22.383m0 0h0m-158.477 155.937 132.852 129.375m0 0h0m-93.437 78.438 53.983 177.383m0-.001h0m-38.789 51.173 23.633 183.945m0 0h0m-17.89 47.305 12.148 185.039m0 0h0M757.54 433.438l12.187-185.04m0 0h0m-17.891 416.29 23.594-183.946m0 0h0m-38.79 412.5 53.985-177.422m0 0h0m-93.437 385.235 132.89-129.375m0 0h0m-158.476 307.695 184.062-22.383m0 0h0M670.898 1500h185.47m-.001 0h0m-184.765 220.625 184.062 22.383m0 0h0m-158.476 155.937 132.89 129.375m0 0h0m-93.438 78.438 53.985 177.383m0-.001h0m-38.789 51.173 23.594 183.945m0 0h0m-17.89 47.305 12.187 185.039m0 0h0M1066.64 433.438l12.15-185.04m0 0h0m-17.852 416.29 23.593-183.946m0 0h0m-38.789 412.5 53.985-177.422m0 0h0m-93.437 385.235 132.85-129.375m0 0h0m-158.476 307.695 184.102-22.383m0 0h0M980 1500h185.469m0 0h0m-184.805 220.625 184.102 22.383m0 0h0m-158.476 155.937 132.85 129.375m0 0h0m-93.398 78.438 53.985 177.383m0-.001h0m-38.789 51.173 23.593 183.945m0 0h0m-17.891 47.305 12.15 185.039m0 0h0m296.952-2318.164 12.149-185.04m-.001 0h0M1370 664.688l23.633-183.946m0 0h0m-38.828 412.5 54.023-177.422m0 0h0m-93.438 385.235 132.852-129.375m0 0h0m-158.476 307.695 184.101-22.383m0 0h0M1289.102 1500h185.43m-.001 0h0m-184.765 220.625 184.101 22.383m0 0h0m-158.477 155.937 132.852 129.375m0 0h0m-93.437 78.438 54.023 177.383m0-.001h0M1370 2335.313l23.633 183.945m0 0h0m-17.891 47.305 12.149 185.039m-.001 0h0m296.915-2318.164 12.187-185.04m0 0h0m-17.89 416.29 23.632-183.946m0 0h0m-38.828 412.5 53.985-177.422m-.001 0h0m-93.398 385.235 132.852-129.375m0 0h0m-158.477 307.695 184.102-22.383m0 0h0M1598.164 1500h185.469m0 0h0m-184.766 220.625 184.102 22.383m0 0h0m-158.477 155.937 132.852 129.375m0 0h0m-93.438 78.438 53.985 177.383m-.001-.001h0m-38.788 51.173 23.632 183.945m0 0h0m-17.929 47.305 12.187 185.039m0 0h0m296.914-2318.164 12.188-185.04m0 0h0m-17.891 416.29 23.594-183.946m0 0h0m-38.789 412.5 53.984-177.422m0 0h0m-93.437 385.235 132.89-129.375m0 0h0m-158.476 307.695 184.062-22.383m0 0h0M1907.266 1500h185.468m0 0h0m-184.765 220.625 184.062 22.383m0 0h0m-158.476 155.937 132.89 129.375m0 0h0m-93.437 78.438 53.984 177.383m0-.001h0m-38.789 51.173 23.594 183.945m0 0h0m-17.891 47.305 12.188 185.039m0 0h0m296.914-2318.164 12.187-185.04m0 0h0m-17.929 416.29 23.632-183.946m0 0h0m-38.788 412.5 53.984-177.422m0 0h0m-93.438 385.235 132.852-129.375m0 0h0m-158.477 307.695 184.102-22.383m0 0h0M2216.367 1500h185.469m0 0h0m-184.805 220.625 184.102 22.383m0 0h0m-158.477 155.937 132.852 129.375m0 0h0m-93.398 78.438 53.984 177.383m0-.001h0m-38.828 51.173 23.632 183.945m0 0h0m-17.89 47.305 12.187 185.039m0 0h0M2612.11 433.438l12.148-185.04m0 0h0m-17.891 416.29L2630 480.741m0 .001h0m-38.828 412.5 54.023-177.422m0 0h0m-93.437 385.235 132.851-129.375m.001 0h0m-158.477 307.695 184.101-22.383m0 0h0M2525.469 1500h185.43m-.001 0h0m-184.765 220.625 184.101 22.383m0 0h0m-158.476 155.937 132.851 129.375m.001 0h0m-93.438 78.438 54.023 177.383m0-.001h0m-38.828 51.173L2630 2519.258m0 0h0m-17.89 47.305 12.148 185.039m0 0h0M2921.21 433.438l12.15-185.04m0 0h0m-17.891 416.29 23.593-183.946m.001 0h0m-38.79 412.5 53.985-177.422m0 0h0m-93.398 385.235 132.85-129.375m0 0h0m-158.476 307.695 184.102-22.383m0 0h0M2834.531 1500H3020m0 0h0m-184.766 220.625 184.102 22.383m0 0h0m-158.476 155.937 132.85 129.375m0 0h0m-93.437 78.438 53.985 177.383m0-.001h0m-38.789 51.173 23.593 183.945m.001 0h0m-17.853 47.305 12.15 185.039m0 0h0m296.913-2318.164 12.188-185.04m-.001 0h0m-17.929 416.29 23.633-183.946m0 0h0m-38.789 412.5 53.984-177.422m.001 0h0m-93.438 385.235 132.89-129.375m.001 0h0m-158.477 307.695 184.062-22.383m0 0h0M3143.633 1500h185.469m0 0h0m-184.766 220.625 184.062 22.383m0 0h0m-158.476 155.937 132.89 129.375m.001 0h0m-93.438 78.438 53.984 177.383m.001-.001h0m-38.829 51.173 23.633 183.945m0 0h0m-17.891 47.305 12.188 185.039m-.001 0h0m296.915-2318.164 12.148-185.04m0 0h0m-17.89 416.29 23.633-183.946m0 0h0m-38.789 412.5 53.984-177.422m-.001 0h0m-93.437 385.235 132.852-129.375m0 0h0m-158.477 307.695 184.102-22.383m0 0h0M3452.734 1500h185.43m0 0h0m-184.766 220.625 184.102 22.383m0 0h0m-158.477 155.937 132.852 129.375m0 0h0m-93.398 78.438 53.984 177.383m-.001-.001h0m-38.827 51.173 23.633 183.945m0 0h0m-17.891 47.305 12.148 185.039m0 0h0" transform="matrix(.1 0 0 -.1 -29 279)"/></svg>